<?xml version="1.0" encoding="UTF-8" standalone="no"?>
<!-- Created with Inkscape (http://www.inkscape.org/) -->

<svg
   xmlns:dc="http://purl.org/dc/elements/1.1/"
   xmlns:cc="http://creativecommons.org/ns#"
   xmlns:rdf="http://www.w3.org/1999/02/22-rdf-syntax-ns#"
   xmlns:svg="http://www.w3.org/2000/svg"
   xmlns="http://www.w3.org/2000/svg"
   xmlns:sodipodi="http://sodipodi.sourceforge.net/DTD/sodipodi-0.dtd"
   xmlns:inkscape="http://www.inkscape.org/namespaces/inkscape"
   width="32mm"
   height="32mm"
   viewBox="0 0 32 32"
   version="1.1"
   id="svg8"
   inkscape:version="0.92.5 (2060ec1f9f, 2020-04-08)"
   sodipodi:docname="icon.svg"
   inkscape:export-filename="/home/autocaret/Projects/friendup/interfaces/web_desktop/apps/Convos/preview.png"
   inkscape:export-xdpi="406.39996"
   inkscape:export-ydpi="406.39996">
  <defs
     id="defs2" />
  <sodipodi:namedview
     id="base"
     pagecolor="#ffffff"
     bordercolor="#666666"
     borderopacity="1.0"
     inkscape:pageopacity="0.0"
     inkscape:pageshadow="2"
     inkscape:zoom="2.8284271"
     inkscape:cx="51.678573"
     inkscape:cy="58.857061"
     inkscape:document-units="mm"
     inkscape:current-layer="layer2"
     showgrid="false"
     fit-margin-top="0"
     fit-margin-left="0"
     fit-margin-right="0"
     fit-margin-bottom="0"
     inkscape:window-width="1920"
     inkscape:window-height="996"
     inkscape:window-x="0"
     inkscape:window-y="28"
     inkscape:window-maximized="1" />
  <metadata
     id="metadata5">
    <rdf:RDF>
      <cc:Work
         rdf:about="">
        <dc:format>image/svg+xml</dc:format>
        <dc:type
           rdf:resource="http://purl.org/dc/dcmitype/StillImage" />
        <dc:title></dc:title>
      </cc:Work>
    </rdf:RDF>
  </metadata>
  <g
     inkscape:label="BG"
     inkscape:groupmode="layer"
     id="layer1"
     transform="translate(-59.720238,-133.46426)"
     style="display:inline">
    <rect
       style="opacity:1;vector-effect:none;fill:#255c91;fill-opacity:1;stroke:none;stroke-width:1;stroke-linecap:butt;stroke-linejoin:miter;stroke-miterlimit:4;stroke-dasharray:none;stroke-dashoffset:0;stroke-opacity:1"
       id="rect4518"
       width="32.000004"
       height="32.000004"
       x="59.720238"
       y="133.46426" />
  </g>
  <g
     inkscape:groupmode="layer"
     id="layer2"
     inkscape:label="Layer 2">
    <path
       style="opacity:1;vector-effect:none;fill:#ffffff;fill-opacity:1;stroke:none;stroke-width:0.99999994;stroke-linecap:butt;stroke-linejoin:miter;stroke-miterlimit:4;stroke-dasharray:none;stroke-dashoffset:0;stroke-opacity:1"
       d="M 14.417969,4.7988281 C 8.1910516,4.8055303 1.0655808,10.01878 2.2753906,16.830078 c 2.1021614,6.903708 10.3331774,9.389969 16.8378904,8.404297 1.943413,1.277417 4.308176,4.399037 6.873047,3.185547 1.407724,-1.807636 -0.527981,-3.900095 -0.357422,-5.783203 C 32.144227,19.12342 30.555439,7.8826945 23.316406,6.2695312 20.540256,5.0129707 17.436407,4.6724965 14.417969,4.7988281 Z"
       id="path4536-3-6"
       inkscape:connector-curvature="0" />
    <path
       style="opacity:1;vector-effect:none;fill:#255c91;fill-opacity:1;stroke:none;stroke-width:0.99999994;stroke-linecap:butt;stroke-linejoin:miter;stroke-miterlimit:4;stroke-dasharray:none;stroke-dashoffset:0;stroke-opacity:1"
       d="M 15.503906,6.3789062 C 10.007251,6.1718134 2.8886387,10.004573 3.7832031,16.332031 5.6891554,22.894865 13.6567,24.46966 19.533203,23.576172 c 1.733918,1.186413 3.155545,2.862452 5.185547,3.585937 0.662556,-1.974279 -1.462384,-3.562868 -1.041016,-5.404297 5.725144,-1.78347 6.168278,-10.979837 0.527344,-13.2167964 C 21.621609,6.9309694 18.52045,6.309795 15.503906,6.3789062 Z"
       id="path4536-3"
       inkscape:connector-curvature="0" />
    <path
       style="opacity:1;vector-effect:none;fill:#ffffff;fill-opacity:1;stroke:none;stroke-width:0.99999994;stroke-linecap:butt;stroke-linejoin:miter;stroke-miterlimit:4;stroke-dasharray:none;stroke-dashoffset:0;stroke-opacity:1"
       d="m 15.999743,7.9555355 a 10.77643,7.1106767 0 0 0 -10.776086,7.1106765 10.77643,7.1106767 0 0 0 10.776086,7.110677 10.77643,7.1106767 0 0 0 3.517615,-0.398425 c 1.565302,0.749515 2.358072,1.521733 3.049943,2.266012 -0.547404,-0.991114 -0.902133,-1.982349 -0.801502,-2.973462 A 10.77643,7.1106767 0 0 0 26.776346,15.066212 10.77643,7.1106767 0 0 0 15.999743,7.9555355 Z"
       id="path4536"
       inkscape:connector-curvature="0" />
    <path
       style="color:#000000;font-style:normal;font-variant:normal;font-weight:normal;font-stretch:normal;font-size:medium;line-height:normal;font-family:sans-serif;font-variant-ligatures:normal;font-variant-position:normal;font-variant-caps:normal;font-variant-numeric:normal;font-variant-alternates:normal;font-feature-settings:normal;text-indent:0;text-align:start;text-decoration:none;text-decoration-line:none;text-decoration-style:solid;text-decoration-color:#000000;letter-spacing:normal;word-spacing:normal;text-transform:none;writing-mode:lr-tb;direction:ltr;text-orientation:mixed;dominant-baseline:auto;baseline-shift:baseline;text-anchor:start;white-space:normal;shape-padding:0;clip-rule:nonzero;display:inline;overflow:visible;visibility:visible;opacity:1;isolation:auto;mix-blend-mode:normal;color-interpolation:sRGB;color-interpolation-filters:linearRGB;solid-color:#000000;solid-opacity:1;vector-effect:none;fill:#000000;fill-opacity:1;fill-rule:nonzero;stroke:none;stroke-width:0.26458332px;stroke-linecap:butt;stroke-linejoin:miter;stroke-miterlimit:4;stroke-dasharray:none;stroke-dashoffset:0;stroke-opacity:1;color-rendering:auto;image-rendering:auto;shape-rendering:auto;text-rendering:auto;enable-background:accumulate"
       d="m 12.707031,14.003906 c -1.169536,0.186592 -3.1975413,0.483135 -2.230469,2.021485 1.327321,-0.516909 2.735736,-1.043204 4.115235,-0.304688 1.221327,-1.809974 -0.763385,-1.510574 -1.884766,-1.716797 z m 6.203125,0.01172 c -1.910234,-0.373954 -2.55357,2.129739 -0.363281,1.388672 1.328537,-0.581846 3.343178,1.756785 3.289063,-0.664063 -0.976456,-0.248023 -1.871182,-0.880274 -2.925782,-0.724609 z"
       id="path4593"
       inkscape:connector-curvature="0" />
  </g>
</svg>
