<?xml version="1.0" encoding="UTF-8" standalone="no"?>
<!-- Created with Inkscape (http://www.inkscape.org/) -->

<svg
   xmlns:dc="http://purl.org/dc/elements/1.1/"
   xmlns:cc="http://creativecommons.org/ns#"
   xmlns:rdf="http://www.w3.org/1999/02/22-rdf-syntax-ns#"
   xmlns:svg="http://www.w3.org/2000/svg"
   xmlns="http://www.w3.org/2000/svg"
   xmlns:sodipodi="http://sodipodi.sourceforge.net/DTD/sodipodi-0.dtd"
   xmlns:inkscape="http://www.inkscape.org/namespaces/inkscape"
   width="48"
   height="48"
   id="svg2"
   version="1.1"
   inkscape:version="0.47pre4 r22446"
   sodipodi:docname="Nuovo documento 1">
  <defs
     id="defs4">
    <inkscape:perspective
       sodipodi:type="inkscape:persp3d"
       inkscape:vp_x="0 : 526.18109 : 1"
       inkscape:vp_y="0 : 1000 : 0"
       inkscape:vp_z="744.09448 : 526.18109 : 1"
       inkscape:persp3d-origin="372.04724 : 350.78739 : 1"
       id="perspective10" />
    <inkscape:perspective
       id="perspective2864"
       inkscape:persp3d-origin="54.5 : 48.333333 : 1"
       inkscape:vp_z="109 : 72.5 : 1"
       inkscape:vp_y="0 : 1000 : 0"
       inkscape:vp_x="0 : 72.5 : 1"
       sodipodi:type="inkscape:persp3d" />
  </defs>
  <sodipodi:namedview
     id="base"
     pagecolor="#ffffff"
     bordercolor="#666666"
     borderopacity="1.0"
     inkscape:pageopacity="0.0"
     inkscape:pageshadow="2"
     inkscape:zoom="5.6"
     inkscape:cx="26.503015"
     inkscape:cy="11.760506"
     inkscape:document-units="px"
     inkscape:current-layer="layer1"
     showgrid="false"
     inkscape:window-width="1280"
     inkscape:window-height="714"
     inkscape:window-x="0"
     inkscape:window-y="25"
     inkscape:window-maximized="1" />
  <metadata
     id="metadata7">
    <rdf:RDF>
      <cc:Work
         rdf:about="">
        <dc:format>image/svg+xml</dc:format>
        <dc:type
           rdf:resource="http://purl.org/dc/dcmitype/StillImage" />
        <dc:title></dc:title>
      </cc:Work>
    </rdf:RDF>
  </metadata>
  <g
     inkscape:label="Livello 1"
     inkscape:groupmode="layer"
     id="layer1"
     transform="translate(0,-1004.3622)">
    <path
       style="fill:#d62766"
       d="m 26.681731,1005.3621 c -0.711761,0.058 -1.419058,0.085 -2.120615,0.1754 l 0.302945,0.048 c 0.514305,-0.1872 1.26918,-0.097 1.81767,-0.2232 z m -3.109173,0.3348 c -1.158207,0.069 -2.776508,0.6776 -2.280061,0.1276 -1.889357,0.8429 -5.243438,2.0274 -7.127183,3.7948 l -0.04783,-0.3986 c -0.863298,1.0342 -3.772973,3.0892 -4.002064,4.4326 l -0.2232229,0.048 c -0.4479761,0.7592 -0.7455639,1.626 -1.1001692,2.4077 -0.5862466,1.0005 -0.8654663,0.3849 -0.7812794,0.5421 -1.1541253,2.3419 -1.7218764,4.3165 -2.2162824,5.9313 0.3530741,0.5261 0.010335,3.1712 0.1434995,5.2936 -0.5775721,10.4816 7.3504054,20.6598 16.0242024,23.008 1.269947,0.4546 3.159177,0.4345 4.767401,0.4783 -1.897521,-0.5418 -2.136561,-0.2789 -3.986121,-0.9248 -1.331682,-0.6277 -1.622637,-1.3497 -2.567061,-2.1685 l 0.366724,0.6697 c -1.851601,-0.6537 -1.076317,-0.815 -2.583007,-1.2915 l 0.398612,-0.5262 c -0.600023,-0.046 -1.578121,-1.0109 -1.84956,-1.5466 l -0.669668,0.031 c -0.787274,-0.9724 -1.19405,-1.6724 -1.163947,-2.2163 l -0.223223,0.3667 c -0.238784,-0.4106 -2.8959,-3.639 -1.514725,-2.8859 -0.255112,-0.2331 -0.604233,-0.3809 -0.972613,-1.0523 l 0.287,-0.3349 c -0.66329,-0.8551 -1.22173,-1.9471 -1.179892,-2.3119 0.352565,0.478 0.602191,0.5721 0.845057,0.6537 -1.678123,-4.1633 -1.773918,-0.2293 -3.0453947,-4.2412 l 0.2710562,-0.016 c -0.20562,-0.3112 -0.3289664,-0.6579 -0.4942789,-0.9885 l 0.1116114,-1.1639 c -1.2082089,-1.395 -0.3349616,-5.9273 -0.1594448,-8.4187 0.1199025,-1.0123 1.0006757,-2.1009 1.6741708,-3.7948 l -0.4145568,-0.064 c 0.7852338,-1.371 4.5024658,-5.5048 6.2183478,-5.2935 0.831153,-1.0424 -0.171563,-0.01 -0.334835,-0.2711 1.825579,-1.8874 2.403662,-1.3333 3.635342,-1.6742 1.327601,-0.7872 -1.139839,0.3027 -0.510223,-0.3029 2.296004,-0.5863 1.626336,-1.3294 4.623899,-1.6264 0.129189,0.073 0.0057,0.1462 -0.175389,0.2073 2.11137,-0.5694 5.570297,-0.2713 7.924407,0.8131 3.121036,1.4593 6.636603,5.78 6.776404,9.8379 l 0.1435,0.048 c -0.07755,1.6123 0.245418,3.4676 -0.318889,5.182 l 0.366723,-0.7813 c 0.03727,1.2088 -0.354049,1.8056 -0.717502,2.854 l -0.653723,0.319 c -0.538286,1.0464 0.04988,0.6655 -0.334834,1.4987 -0.841359,0.7476 -2.561194,2.3399 -3.109175,2.4873 -0.398994,-0.01 0.278965,-0.4741 0.366724,-0.6537 -1.126063,0.7735 -0.908835,1.1719 -2.63084,1.6423 l -0.04783,-0.1116 c -4.24914,1.999 -10.152936,-1.9749 -10.076912,-7.3822 -0.04388,0.3428 -0.129342,0.2608 -0.223223,0.3985 -0.219395,-2.7802 1.273901,-5.5707 3.810731,-6.7126 2.479686,-1.226 5.399439,-0.7314 7.175017,0.9248 -0.974527,-1.2776 -2.927662,-2.6288 -5.22979,-2.5033 -2.254167,0.035 -4.364706,1.4727 -5.070345,3.0295 -1.153615,0.725 -1.283722,2.8082 -1.785782,3.1888 -0.677576,4.9788 1.2739,7.1158 4.576066,9.6464 0.518387,0.3491 0.153832,0.403 0.223223,0.6698 -1.09596,-0.5124 -2.108753,-1.2813 -2.933785,-2.2323 0.438283,0.6398 0.918913,1.2635 1.53067,1.7539 -1.034222,-0.349 -2.419607,-2.5112 -2.822172,-2.599 1.781699,3.193 7.237136,5.6102 10.092856,4.4167 -1.319438,0.047 -3.011594,0.02 -4.496344,-0.5262 -0.623493,-0.3208 -1.458984,-0.9766 -1.307447,-1.1002 3.894535,1.4531 7.916625,1.0902 11.288693,-1.6104 0.857174,-0.6674 1.785909,-1.8018 2.056837,-1.8177 -0.355814,0.5353 -0.03659,0.359 -0.159445,0.6697 0.638765,-1.1286 -0.396183,-0.4833 0.797224,-2.2162 l 0.46239,0.6377 c -0.171435,-1.1444 1.420845,-2.5271 1.259614,-4.3368 0.182405,-0.2761 0.295486,-0.1219 0.302945,0.255 -0.02049,-0.3384 -0.06192,-0.6708 0,-1.1958 0.147455,0.3904 0.344911,0.8155 0.446446,1.2277 -0.348993,-1.3627 0.34861,-2.3003 0.526168,-3.0932 -0.173476,-0.076 -0.538158,0.6037 -0.621835,-1.0045 0.01224,-0.6996 0.201156,-0.3707 0.271056,-0.5421 -0.135719,-0.077 -0.498615,-0.6122 -0.717502,-1.6423 0.15715,-0.2413 0.420935,0.6334 0.637779,0.6697 -0.137249,-0.8174 -0.372973,-1.4452 -0.382667,-2.0728 -0.632166,-1.3215 -0.221181,0.1674 -0.733446,-0.574 -0.671453,-2.0991 0.554103,-0.4824 0.637779,-1.435 1.018407,1.4771 1.598658,3.771 1.865505,4.7196 -0.203069,-1.1557 -0.538158,-2.2806 -0.940725,-3.3644 0.311237,0.1291 -0.501932,-2.3797 0.398613,-0.7175 -0.962282,-3.5414 -4.10985,-6.8501 -7.015572,-8.4027 0.352565,0.3245 0.799009,0.7314 0.637779,0.7973 -1.444953,-0.8588 -1.195454,-0.9288 -1.403114,-1.2916 -1.175555,-0.4786 -1.245838,0.038 -2.02495,0 -2.21845,-1.176 -2.645252,-1.0485 -4.687677,-1.7857 l 0.09567,0.4304 c -1.468934,-0.4882 -1.711672,0.1837 -3.300508,0 -0.09542,-0.073 0.506523,-0.2634 1.004502,-0.3348 -1.418932,0.1873 -1.351072,-0.2807 -2.742451,0.048 0.340829,-0.2388 0.70347,-0.4007 1.068281,-0.6059 z m 16.980872,20.1699 c 0.0074,0.3769 -0.09261,0.9746 -0.287001,1.6104 0.29544,-0.7745 0.311931,-1.1986 0.287001,-1.6104 z m -15.83287,-19.9147 c 0.406649,0.071 0.865084,0.1257 0.797224,0.2232 0.444405,-0.098 0.55997,-0.1834 -0.797224,-0.2232 z m 0.797224,0.2232 -0.271055,0.064 0.255111,-0.032 0.01594,-0.032 z m -2.311949,4.0339 c -0.255173,0.076 -0.569919,0.1545 -0.701557,0.2712 0.208605,-0.1021 0.444736,-0.1961 0.701557,-0.2712 z m -16.4387593,5.0067 c 0.1178616,1.0979 -0.8254138,1.5223 0.2072783,0.7972 0.5556332,-1.2521 -0.2149317,-0.3427 -0.2072783,-0.7972 z m -0.8450577,3.4919 c -0.6597183,0.8429 -0.2973323,1.0204 -0.3667228,1.5943 0.238785,-0.7317 0.2748833,-1.1699 0.3667228,-1.5943 z m 27.169394,5.0862 c -0.09388,0 -0.210339,0.2493 -0.271055,0.5103 0.139291,0.074 0.245417,0.9665 0.382667,0.4145 0.04592,-0.6857 -0.01773,-0.9273 -0.111612,-0.9248 z m 8.338965,2.3119 -0.111612,0.2871 c -0.20307,1.4572 -0.643264,2.9019 -1.323392,4.2411 0.749518,-1.4112 1.231424,-2.9634 1.435004,-4.5282 z m -8.833243,0.5263 c -0.101534,0.5041 -0.378586,0.9429 -0.63778,1.4031 -1.425053,0.8969 -0.133678,-0.5403 0,-1.0843 -1.530669,1.9292 -0.198987,1.1498 -0.255111,1.6902 0.454098,-0.6261 0.77758,-1.2993 0.892891,-2.009 z m -3.109174,2.9337 c -0.617881,0.1515 -1.24571,0.1533 -1.881449,0.096 -0.761253,0.01 0.137633,0.3891 1.132058,0.5422 0.275521,-0.2149 0.528464,-0.4266 0.749391,-0.6379 z m -9.614521,0.1116 c 0.167352,0.6179 0.508182,1.1343 0.829112,1.6741 l -0.239166,-0.6856 c -0.265317,-0.2928 -0.412388,-0.638 -0.589946,-0.9885 z m -0.589946,1.0364 -0.111611,0.5261 c 0.500019,0.6797 0.906794,1.4292 1.546614,1.9612 -0.458181,-0.8969 -0.805388,-1.2715 -1.435003,-2.4873 z"
       id="path2820" />
  </g>
</svg>
