<?xml version="1.0" encoding="UTF-8" standalone="no"?>
<!-- Created with Inkscape (http://www.inkscape.org/) -->

<svg
   xmlns:dc="http://purl.org/dc/elements/1.1/"
   xmlns:cc="http://creativecommons.org/ns#"
   xmlns:rdf="http://www.w3.org/1999/02/22-rdf-syntax-ns#"
   xmlns:svg="http://www.w3.org/2000/svg"
   xmlns="http://www.w3.org/2000/svg"
   xmlns:xlink="http://www.w3.org/1999/xlink"
   xmlns:sodipodi="http://sodipodi.sourceforge.net/DTD/sodipodi-0.dtd"
   xmlns:inkscape="http://www.inkscape.org/namespaces/inkscape"
   width="48"
   height="48"
   id="svg2"
   version="1.1"
   inkscape:version="0.47pre4 r22446"
   sodipodi:docname="Nuovo documento 1">
  <defs
     id="defs4">
    <linearGradient
       id="linearGradient3680">
      <stop
         style="stop-color:#e6c864;stop-opacity:1;"
         offset="0"
         id="stop3682" />
      <stop
         style="stop-color:#f0f0c8;stop-opacity:1"
         offset="1"
         id="stop3684" />
    </linearGradient>
    <inkscape:perspective
       sodipodi:type="inkscape:persp3d"
       inkscape:vp_x="0 : 526.18109 : 1"
       inkscape:vp_y="0 : 1000 : 0"
       inkscape:vp_z="744.09448 : 526.18109 : 1"
       inkscape:persp3d-origin="372.04724 : 350.78739 : 1"
       id="perspective10" />
    <inkscape:perspective
       id="perspective2824"
       inkscape:persp3d-origin="0.5 : 0.33333333 : 1"
       inkscape:vp_z="1 : 0.5 : 1"
       inkscape:vp_y="0 : 1000 : 0"
       inkscape:vp_x="0 : 0.5 : 1"
       sodipodi:type="inkscape:persp3d" />
    <inkscape:perspective
       id="perspective10-8"
       inkscape:persp3d-origin="372.04724 : 350.78739 : 1"
       inkscape:vp_z="744.09448 : 526.18109 : 1"
       inkscape:vp_y="0 : 1000 : 0"
       inkscape:vp_x="0 : 526.18109 : 1"
       sodipodi:type="inkscape:persp3d" />
    <linearGradient
       id="linearGradient4203">
      <stop
         id="stop4205"
         offset="0"
         style="stop-color:#f0f0f0;stop-opacity:1;" />
      <stop
         id="stop4207"
         offset="1"
         style="stop-color:#ffffff;stop-opacity:1;" />
    </linearGradient>
    <linearGradient
       inkscape:collect="always"
       xlink:href="#linearGradient3680"
       id="linearGradient3896"
       gradientUnits="userSpaceOnUse"
       gradientTransform="matrix(0.76744186,0,0,0.76744186,-85.632264,263.41053)"
       x1="31.687183"
       y1="1045.266"
       x2="15.481234"
       y2="1013.3396" />
    <linearGradient
       inkscape:collect="always"
       xlink:href="#linearGradient3680"
       id="linearGradient3898"
       gradientUnits="userSpaceOnUse"
       gradientTransform="matrix(0.76744186,0,0,0.76744186,-52.417979,240.55339)"
       x1="31.687183"
       y1="1045.266"
       x2="15.481234"
       y2="1013.3396" />
    <linearGradient
       inkscape:collect="always"
       xlink:href="#linearGradient3680"
       id="linearGradient3900"
       gradientUnits="userSpaceOnUse"
       gradientTransform="matrix(0.76744186,0,0,0.76744186,-18.84655,240.37482)"
       x1="31.687183"
       y1="1045.266"
       x2="15.481234"
       y2="1013.3396" />
    <linearGradient
       inkscape:collect="always"
       xlink:href="#linearGradient3680"
       id="linearGradient3902"
       gradientUnits="userSpaceOnUse"
       gradientTransform="matrix(0.76744186,0,0,0.76744186,12.089372,238.73332)"
       x1="31.687183"
       y1="1045.266"
       x2="15.481234"
       y2="1013.3396" />
    <linearGradient
       inkscape:collect="always"
       xlink:href="#linearGradient3680"
       id="linearGradient3965"
       gradientUnits="userSpaceOnUse"
       gradientTransform="matrix(0.76744186,0,0,0.76744186,-85.632264,263.41053)"
       x1="31.687183"
       y1="1045.266"
       x2="15.481234"
       y2="1013.3396" />
    <linearGradient
       inkscape:collect="always"
       xlink:href="#linearGradient3680"
       id="linearGradient3967"
       gradientUnits="userSpaceOnUse"
       gradientTransform="matrix(0.76744186,0,0,0.76744186,-52.417979,240.55339)"
       x1="31.687183"
       y1="1045.266"
       x2="15.481234"
       y2="1013.3396" />
    <linearGradient
       inkscape:collect="always"
       xlink:href="#linearGradient3680"
       id="linearGradient3969"
       gradientUnits="userSpaceOnUse"
       gradientTransform="matrix(0.76744186,0,0,0.76744186,-18.84655,240.37482)"
       x1="31.687183"
       y1="1045.266"
       x2="15.481234"
       y2="1013.3396" />
    <linearGradient
       inkscape:collect="always"
       xlink:href="#linearGradient3680"
       id="linearGradient3971"
       gradientUnits="userSpaceOnUse"
       gradientTransform="matrix(0.76744186,0,0,0.76744186,12.089372,238.73332)"
       x1="31.687183"
       y1="1045.266"
       x2="15.481234"
       y2="1013.3396" />
  </defs>
  <sodipodi:namedview
     id="base"
     pagecolor="#ffffff"
     bordercolor="#666666"
     borderopacity="1.0"
     inkscape:pageopacity="0.0"
     inkscape:pageshadow="2"
     inkscape:zoom="5.6568543"
     inkscape:cx="27.736336"
     inkscape:cy="13.071086"
     inkscape:document-units="px"
     inkscape:current-layer="layer1"
     showgrid="false"
     inkscape:window-width="1280"
     inkscape:window-height="714"
     inkscape:window-x="0"
     inkscape:window-y="25"
     inkscape:window-maximized="1" />
  <metadata
     id="metadata7">
    <rdf:RDF>
      <cc:Work
         rdf:about="">
        <dc:format>image/svg+xml</dc:format>
        <dc:type
           rdf:resource="http://purl.org/dc/dcmitype/StillImage" />
        <dc:title></dc:title>
      </cc:Work>
    </rdf:RDF>
  </metadata>
  <g
     inkscape:label="Livello 1"
     inkscape:groupmode="layer"
     id="layer1"
     transform="translate(0,-1004.3622)">
    <g
       id="g3934"
       transform="matrix(1.0086245,0,0,1.0086245,55.220344,-36.99487)">
      <g
         transform="matrix(0.25523555,-0.93395534,0.93395534,0.25523555,-1001.7281,731.80254)"
         id="g3840">
        <rect
           ry="0.78571439"
           rx="0.79142439"
           y="1036.1188"
           x="-79.87645"
           height="33"
           width="25.325581"
           id="rect3789"
           style="fill:#646464;fill-opacity:0.47058824;stroke:none" />
        <rect
           style="fill:url(#linearGradient3965);fill-opacity:1;stroke:none"
           id="rect3791"
           width="24.55814"
           height="32.232559"
           x="-79.492729"
           y="1036.5026"
           rx="0.76744187"
           ry="0.76744187" />
        <g
           transform="translate(-97.721636,24.677212)"
           style="font-size:6px;font-style:normal;font-variant:normal;font-weight:normal;font-stretch:normal;fill:#000000;fill-opacity:1;stroke:none;font-family:Bureau;-inkscape-font-specification:Bureau"
           id="g3793">
          <path
             style="fill:#000000;fill-opacity:1"
             d="m 22.866664,1017.1331 -1.382872,0 0,-0.4307 0.408061,0 -0.302267,-1.1637 -1.367759,0 -0.332493,1.1637 0.400503,0 0,0.4307 -1.428211,0 0,-0.4307 0.468514,0 1.201511,-4.1637 0.801008,0 1.088161,4.1637 0.445844,0 0,0.4307 m -1.375315,-2.0025 -0.574308,-2.2594 -0.61209,2.2594 1.186398,0"
             id="path3795" />
        </g>
        <path
           style="fill:#000000;fill-opacity:1;stroke:none"
           d="m -76.84375,1042.0823 c -0.566092,0 -1,0.4651 -1,1.0312 0,0.283 0.09576,0.5333 0.28125,0.7188 -0.09553,-0.029 -0.176064,-0.031 -0.28125,-0.031 -0.566092,0 -1.03125,0.4339 -1.03125,1 0,0.5661 0.465158,1.0313 1.03125,1.0313 0.31534,0 0.600098,-0.1493 0.78125,-0.375 l -0.1875,1.1875 0.8125,0 -0.21875,-1.2188 c 0.01794,-0.023 0.01551,-0.04 0.03125,-0.062 0.186664,0.2702 0.462017,0.4688 0.8125,0.4688 0.566092,0 1.03125,-0.4652 1.03125,-1.0313 0,-0.5661 -0.465158,-1 -1.03125,-1 -0.09735,0 -0.19203,0.01 -0.28125,0.031 0.185489,-0.1855 0.28125,-0.4358 0.28125,-0.7188 0,-0.5661 -0.465158,-1.0312 -1.03125,-1.0312 z"
           id="path3797" />
      </g>
      <g
         transform="matrix(0.69434019,-0.67476623,0.67476623,0.69434019,-705.33328,318.74111)"
         id="g3833">
        <rect
           ry="0.78571439"
           rx="0.79142439"
           y="1013.2616"
           x="-46.662163"
           height="33"
           width="25.325581"
           id="rect3775"
           style="fill:#646464;fill-opacity:0.47058824;stroke:none" />
        <rect
           style="fill:url(#linearGradient3967);fill-opacity:1;stroke:none"
           id="rect3777"
           width="24.55814"
           height="32.232559"
           x="-46.278442"
           y="1013.6454"
           rx="0.76744187"
           ry="0.76744187" />
        <g
           transform="translate(-64.507351,1.8200693)"
           style="font-size:6px;font-style:normal;font-variant:normal;font-weight:normal;font-stretch:normal;fill:#c80100;fill-opacity:1;stroke:none;font-family:Bureau;-inkscape-font-specification:Bureau"
           id="g3779">
          <path
             style="fill:#c80100;fill-opacity:1"
             d="m 22.866664,1017.1331 -1.382872,0 0,-0.4307 0.408061,0 -0.302267,-1.1637 -1.367759,0 -0.332493,1.1637 0.400503,0 0,0.4307 -1.428211,0 0,-0.4307 0.468514,0 1.201511,-4.1637 0.801008,0 1.088161,4.1637 0.445844,0 0,0.4307 m -1.375315,-2.0025 -0.574308,-2.2594 -0.61209,2.2594 1.186398,0"
             id="path3781" />
        </g>
        <rect
           style="fill:#c80100;fill-opacity:1;stroke:none"
           id="rect3787"
           width="4.0686173"
           height="4.0686173"
           x="-633.81042"
           y="541.06885"
           transform="matrix(0.49218193,-0.87049236,0.49218193,0.87049236,0,0)" />
      </g>
      <g
         transform="matrix(0.93849327,-0.23800871,0.23800871,0.93849327,-274.30574,85.363753)"
         id="g3826">
        <rect
           style="fill:#646464;fill-opacity:0.47058824;stroke:none"
           id="rect3751"
           width="25.325581"
           height="33"
           x="-13.090735"
           y="1013.083"
           rx="0.79142439"
           ry="0.78571439" />
        <rect
           ry="0.76744187"
           rx="0.76744187"
           y="1013.4668"
           x="-12.707015"
           height="32.232559"
           width="24.55814"
           id="rect3753"
           style="fill:url(#linearGradient3969);fill-opacity:1;stroke:none" />
        <g
           id="g3755"
           style="font-size:6px;font-style:normal;font-variant:normal;font-weight:normal;font-stretch:normal;fill:#000000;fill-opacity:1;stroke:none;font-family:Bureau;-inkscape-font-specification:Bureau"
           transform="translate(-30.935922,1.6414979)">
          <path
             id="path3757"
             d="m 22.866664,1017.1331 -1.382872,0 0,-0.4307 0.408061,0 -0.302267,-1.1637 -1.367759,0 -0.332493,1.1637 0.400503,0 0,0.4307 -1.428211,0 0,-0.4307 0.468514,0 1.201511,-4.1637 0.801008,0 1.088161,4.1637 0.445844,0 0,0.4307 m -1.375315,-2.0025 -0.574308,-2.2594 -0.61209,2.2594 1.186398,0"
             style="fill:#000000;fill-opacity:1" />
        </g>
        <path
           style="fill:#000000;fill-opacity:1;stroke:none"
           d="m -10.474,1024.4262 0.193631,-1.1991 c -0.183251,0.1709 -0.471976,0.2399 -0.792656,0.2399 -0.552976,0 -1.00125,-0.4483 -1.00125,-1.0013 0,-0.7809 1.218443,-2.4581 2.0025,-3.4626 0.7840566,1.0045 2.0025001,2.7817 2.0025001,3.4626 0,0.553 -0.4482753,1.0013 -1.00125,1.0013 -0.3390416,0 -0.6323805,-0.079 -0.8135156,-0.2712 l 0.2250405,1.2304 -0.815,0 z"
           id="path3767"
           sodipodi:nodetypes="ccsscssccc" />
      </g>
      <g
         transform="matrix(0.96820337,0,0,0.96820337,-104.55185,61.380514)"
         id="g3815">
        <g
           transform="matrix(0.96513973,0.26173517,-0.26173517,0.96513973,323.32176,29.086745)"
           id="g3849">
          <rect
             style="fill:#646464;fill-opacity:0.47058824;stroke:none"
             id="rect4211"
             width="25.325581"
             height="33"
             x="17.845186"
             y="1011.4415"
             rx="0.79142439"
             ry="0.78571439" />
          <rect
             ry="0.76744187"
             rx="0.76744187"
             y="1011.8253"
             x="18.228907"
             height="32.232559"
             width="24.55814"
             id="rect3429"
             style="fill:url(#linearGradient3971);fill-opacity:1;stroke:none" />
          <g
             id="text3686"
             style="font-size:6px;font-style:normal;font-variant:normal;font-weight:normal;font-stretch:normal;fill:#c80100;fill-opacity:1;stroke:none;font-family:Bureau;-inkscape-font-specification:Bureau">
            <path
               id="path3746"
               d="m 22.866664,1017.1331 -1.382872,0 0,-0.4307 0.408061,0 -0.302267,-1.1637 -1.367759,0 -0.332493,1.1637 0.400503,0 0,0.4307 -1.428211,0 0,-0.4307 0.468514,0 1.201511,-4.1637 0.801008,0 1.088161,4.1637 0.445844,0 0,0.4307 m -1.375315,-2.0025 -0.574308,-2.2594 -0.61209,2.2594 1.186398,0" />
          </g>
          <path
             style="fill:#c80100;fill-opacity:1;stroke:none"
             d="m 19.862894,1017.3616 c -0.552976,0 -1.00125,0.4482 -1.00125,1.0012 0,0.7809 1.218443,2.465 2.0025,3.4696 0.784057,-1.0046 2.0025,-2.7887 2.0025,-3.4696 0,-0.553 -0.448275,-1.0012 -1.00125,-1.0012 -0.552976,0 -1.00125,0.2235 -1.00125,0.7764 0,-0.5529 -0.448275,-0.7764 -1.00125,-0.7764 z"
             id="path3735"
             sodipodi:nodetypes="ccccssc" />
          <g
             id="text3717"
             style="font-size:6px;font-style:normal;font-variant:normal;font-weight:normal;font-stretch:normal;fill:#c80100;fill-opacity:1;stroke:none;font-family:Bureau;-inkscape-font-specification:Bureau"
             transform="scale(1,-1)">
            <path
               id="path3749"
               d="m 42.129353,-1038.6429 -1.382871,0 0,-0.4308 0.40806,0 -0.302267,-1.1637 -1.367758,0 -0.332494,1.1637 0.400504,0 0,0.4308 -1.428212,0 0,-0.4308 0.468514,0 1.201512,-4.1637 0.801007,0 1.088161,4.1637 0.445844,0 0,0.4308 m -1.375315,-2.0026 -0.574307,-2.2594 -0.612091,2.2594 1.186398,0" />
          </g>
          <path
             sodipodi:nodetypes="ccccssc"
             id="path3743"
             d="m 39.125584,1038.4145 c -0.552976,0 -1.00125,-0.4482 -1.00125,-1.0012 0,-0.7809 1.218443,-2.465 2.0025,-3.4696 0.784057,1.0046 2.0025,2.7887 2.0025,3.4696 0,0.553 -0.448275,1.0012 -1.00125,1.0012 -0.552976,0 -1.00125,-0.2235 -1.00125,-0.7764 0,0.5529 -0.448275,0.7764 -1.00125,0.7764 z"
             style="fill:#c80100;fill-opacity:1;stroke:none" />
          <path
             sodipodi:nodetypes="ccccssc"
             id="path3725"
             d="m 27.507977,1021.2437 c -1.656856,0 -3,1.3431 -3,3 0,2.3397 3.650766,7.3857 6,10.3958 2.349233,-3.0101 6,-8.3557 6,-10.3958 0,-1.6569 -1.343147,-3 -3,-3 -1.656856,0 -3,0.6697 -3,2.3265 0,-1.6568 -1.343147,-2.3265 -3,-2.3265 z"
             style="fill:#c80100;fill-opacity:1;stroke:none" />
        </g>
      </g>
    </g>
  </g>
</svg>
