<?xml version="1.0" encoding="UTF-8" standalone="no"?>
<!-- Created with Inkscape (http://www.inkscape.org/) -->

<svg
   xmlns:dc="http://purl.org/dc/elements/1.1/"
   xmlns:cc="http://creativecommons.org/ns#"
   xmlns:rdf="http://www.w3.org/1999/02/22-rdf-syntax-ns#"
   xmlns:svg="http://www.w3.org/2000/svg"
   xmlns="http://www.w3.org/2000/svg"
   xmlns:xlink="http://www.w3.org/1999/xlink"
   xmlns:sodipodi="http://sodipodi.sourceforge.net/DTD/sodipodi-0.dtd"
   xmlns:inkscape="http://www.inkscape.org/namespaces/inkscape"
   width="48"
   height="48"
   id="svg2"
   version="1.1"
   inkscape:version="0.47pre4 r22446"
   sodipodi:docname="accessories-dictionary.svg">
  <defs
     id="defs4">
    <linearGradient
       id="linearGradient3703">
      <stop
         style="stop-color:#ffffff;stop-opacity:0.58823532;"
         offset="0"
         id="stop3705" />
      <stop
         style="stop-color:#ffffff;stop-opacity:0;"
         offset="1"
         id="stop3707" />
    </linearGradient>
    <linearGradient
       id="linearGradient3673">
      <stop
         style="stop-color:#dcdcdc;stop-opacity:1;"
         offset="0"
         id="stop3675" />
      <stop
         style="stop-color:#ffffff;stop-opacity:1;"
         offset="1"
         id="stop3677" />
    </linearGradient>
    <linearGradient
       inkscape:collect="always"
       id="linearGradient3651">
      <stop
         style="stop-color:#333333;stop-opacity:1;"
         offset="0"
         id="stop3653" />
      <stop
         style="stop-color:#333333;stop-opacity:0;"
         offset="1"
         id="stop3655" />
    </linearGradient>
    <linearGradient
       id="linearGradient3637">
      <stop
         id="stop3647"
         offset="0"
         style="stop-color:#e3b216;stop-opacity:1;" />
      <stop
         id="stop3645"
         offset="0.14175181"
         style="stop-color:#ffdc64;stop-opacity:1;" />
      <stop
         style="stop-color:#e3b216;stop-opacity:1;"
         offset="1"
         id="stop3641" />
    </linearGradient>
    <linearGradient
       inkscape:collect="always"
       id="linearGradient3627">
      <stop
         style="stop-color:#646464;stop-opacity:1;"
         offset="0"
         id="stop3629" />
      <stop
         style="stop-color:#646464;stop-opacity:0;"
         offset="1"
         id="stop3631" />
    </linearGradient>
    <linearGradient
       id="linearGradient3617">
      <stop
         style="stop-color:#c8c8c8;stop-opacity:1;"
         offset="0"
         id="stop3619" />
      <stop
         style="stop-color:#f0f0f0;stop-opacity:1;"
         offset="1"
         id="stop3621" />
    </linearGradient>
    <linearGradient
       id="linearGradient3596">
      <stop
         style="stop-color:#de220c;stop-opacity:1;"
         offset="0"
         id="stop3598" />
      <stop
         style="stop-color:#700000;stop-opacity:1;"
         offset="1"
         id="stop3600" />
    </linearGradient>
    <inkscape:perspective
       sodipodi:type="inkscape:persp3d"
       inkscape:vp_x="0 : 526.18109 : 1"
       inkscape:vp_y="0 : 1000 : 0"
       inkscape:vp_z="744.09448 : 526.18109 : 1"
       inkscape:persp3d-origin="372.04724 : 350.78739 : 1"
       id="perspective10" />
    <linearGradient
       inkscape:collect="always"
       xlink:href="#linearGradient3596"
       id="linearGradient3602"
       x1="14.183287"
       y1="1012.5315"
       x2="22.048767"
       y2="1046.38"
       gradientUnits="userSpaceOnUse" />
    <linearGradient
       inkscape:collect="always"
       xlink:href="#linearGradient3617"
       id="linearGradient3623"
       x1="22.767105"
       y1="1042.9338"
       x2="22.767105"
       y2="1050.1306"
       gradientUnits="userSpaceOnUse" />
    <linearGradient
       inkscape:collect="always"
       xlink:href="#linearGradient3627"
       id="linearGradient3633"
       x1="7.7671046"
       y1="1028.8804"
       x2="11.079981"
       y2="1050.1304"
       gradientUnits="userSpaceOnUse" />
    <linearGradient
       inkscape:collect="always"
       xlink:href="#linearGradient3637"
       id="linearGradient3643"
       x1="12.541711"
       y1="42.655998"
       x2="12.541711"
       y2="47.34375"
       gradientUnits="userSpaceOnUse" />
    <radialGradient
       inkscape:collect="always"
       xlink:href="#linearGradient3651"
       id="radialGradient3657"
       cx="12.650582"
       cy="42.68565"
       fx="12.650582"
       fy="42.68565"
       r="2.5743105"
       gradientTransform="matrix(1,0,0,0.10729614,0,38.105644)"
       gradientUnits="userSpaceOnUse" />
    <linearGradient
       inkscape:collect="always"
       xlink:href="#linearGradient3673"
       id="linearGradient3679"
       x1="21.739077"
       y1="1125.463"
       x2="21.739077"
       y2="1138.6251"
       gradientUnits="userSpaceOnUse" />
    <linearGradient
       inkscape:collect="always"
       xlink:href="#linearGradient3703"
       id="linearGradient3709"
       x1="6.4221611"
       y1="989.01892"
       x2="24.014652"
       y2="1031.9756"
       gradientUnits="userSpaceOnUse" />
    <linearGradient
       inkscape:collect="always"
       xlink:href="#linearGradient3617"
       id="linearGradient3750"
       gradientUnits="userSpaceOnUse"
       x1="22.767105"
       y1="1042.9338"
       x2="22.767105"
       y2="1050.1306" />
    <linearGradient
       inkscape:collect="always"
       xlink:href="#linearGradient3627"
       id="linearGradient3752"
       gradientUnits="userSpaceOnUse"
       x1="7.7671046"
       y1="1028.8804"
       x2="11.079981"
       y2="1050.1304" />
    <linearGradient
       inkscape:collect="always"
       xlink:href="#linearGradient3596"
       id="linearGradient3754"
       gradientUnits="userSpaceOnUse"
       x1="14.183287"
       y1="1012.5315"
       x2="22.048767"
       y2="1046.38" />
    <radialGradient
       inkscape:collect="always"
       xlink:href="#linearGradient3651"
       id="radialGradient3756"
       gradientUnits="userSpaceOnUse"
       gradientTransform="matrix(1,0,0,0.10729614,0,38.105644)"
       cx="12.650582"
       cy="42.68565"
       fx="12.650582"
       fy="42.68565"
       r="2.5743105" />
    <linearGradient
       inkscape:collect="always"
       xlink:href="#linearGradient3637"
       id="linearGradient3758"
       gradientUnits="userSpaceOnUse"
       x1="12.541711"
       y1="42.655998"
       x2="12.541711"
       y2="47.34375" />
    <linearGradient
       inkscape:collect="always"
       xlink:href="#linearGradient3703"
       id="linearGradient3760"
       gradientUnits="userSpaceOnUse"
       x1="6.4221611"
       y1="989.01892"
       x2="24.014652"
       y2="1031.9756" />
    <linearGradient
       inkscape:collect="always"
       xlink:href="#linearGradient3673"
       id="linearGradient3762"
       gradientUnits="userSpaceOnUse"
       x1="21.739077"
       y1="1125.463"
       x2="21.739077"
       y2="1138.6251" />
    <linearGradient
       inkscape:collect="always"
       xlink:href="#linearGradient3673"
       id="linearGradient3764"
       gradientUnits="userSpaceOnUse"
       x1="21.739077"
       y1="1125.463"
       x2="21.739077"
       y2="1138.6251" />
    <linearGradient
       inkscape:collect="always"
       xlink:href="#linearGradient3673"
       id="linearGradient3766"
       gradientUnits="userSpaceOnUse"
       x1="21.739077"
       y1="1125.463"
       x2="21.739077"
       y2="1138.6251" />
    <linearGradient
       inkscape:collect="always"
       xlink:href="#linearGradient3703"
       id="linearGradient3775"
       gradientUnits="userSpaceOnUse"
       x1="6.4221611"
       y1="989.01892"
       x2="24.014652"
       y2="1031.9756"
       gradientTransform="matrix(1.0352946,0,0,1.0352946,-0.86223957,-37.213292)" />
    <linearGradient
       inkscape:collect="always"
       xlink:href="#linearGradient3637"
       id="linearGradient3778"
       gradientUnits="userSpaceOnUse"
       x1="12.541711"
       y1="42.655998"
       x2="12.541711"
       y2="47.34375"
       gradientTransform="matrix(1.0352946,0,0,1.0352946,-0.86223957,1002.5975)" />
    <linearGradient
       inkscape:collect="always"
       xlink:href="#linearGradient3596"
       id="linearGradient3788"
       gradientUnits="userSpaceOnUse"
       x1="14.183287"
       y1="1012.5315"
       x2="22.048767"
       y2="1046.38"
       gradientTransform="matrix(1.0352946,0,0,1.0352946,-0.86223957,-37.213292)" />
    <linearGradient
       inkscape:collect="always"
       xlink:href="#linearGradient3627"
       id="linearGradient3791"
       gradientUnits="userSpaceOnUse"
       x1="7.7671046"
       y1="1028.8804"
       x2="11.079981"
       y2="1050.1304"
       gradientTransform="matrix(1.0352946,0,0,1.0352946,-0.86223957,-37.213292)" />
    <linearGradient
       inkscape:collect="always"
       xlink:href="#linearGradient3617"
       id="linearGradient3794"
       gradientUnits="userSpaceOnUse"
       x1="22.767105"
       y1="1042.9338"
       x2="22.767105"
       y2="1050.1306"
       gradientTransform="matrix(1.0352946,0,0,1.0352946,-0.86223957,-37.213292)" />
    <linearGradient
       inkscape:collect="always"
       xlink:href="#linearGradient3617"
       id="linearGradient2885"
       gradientUnits="userSpaceOnUse"
       gradientTransform="matrix(1.0352946,0,0,1.0352946,-0.86223957,-37.213292)"
       x1="22.767105"
       y1="1042.9338"
       x2="22.767105"
       y2="1050.1306" />
    <linearGradient
       inkscape:collect="always"
       xlink:href="#linearGradient3627"
       id="linearGradient2887"
       gradientUnits="userSpaceOnUse"
       gradientTransform="matrix(1.0352946,0,0,1.0352946,-0.86223957,-37.213292)"
       x1="7.7671046"
       y1="1028.8804"
       x2="11.079981"
       y2="1050.1304" />
    <linearGradient
       inkscape:collect="always"
       xlink:href="#linearGradient3596"
       id="linearGradient2889"
       gradientUnits="userSpaceOnUse"
       gradientTransform="matrix(1.0352946,0,0,1.0352946,-0.86223957,-37.213292)"
       x1="14.183287"
       y1="1012.5315"
       x2="22.048767"
       y2="1046.38" />
    <radialGradient
       inkscape:collect="always"
       xlink:href="#linearGradient3651"
       id="radialGradient2891"
       gradientUnits="userSpaceOnUse"
       gradientTransform="matrix(1,0,0,0.10729614,0,38.105644)"
       cx="12.650582"
       cy="42.68565"
       fx="12.650582"
       fy="42.68565"
       r="2.5743105" />
    <linearGradient
       inkscape:collect="always"
       xlink:href="#linearGradient3596"
       id="linearGradient2900"
       gradientUnits="userSpaceOnUse"
       gradientTransform="matrix(1.1936912,0,0,1.0352946,-4.6660778,-36.868992)"
       x1="14.183287"
       y1="1012.5315"
       x2="22.048767"
       y2="1046.38" />
    <linearGradient
       inkscape:collect="always"
       xlink:href="#linearGradient3627"
       id="linearGradient2903"
       gradientUnits="userSpaceOnUse"
       gradientTransform="matrix(1.1936912,0,0,1.0352946,-4.6660778,-36.868992)"
       x1="7.7671046"
       y1="1028.8804"
       x2="11.079981"
       y2="1050.1304" />
    <linearGradient
       inkscape:collect="always"
       xlink:href="#linearGradient3617"
       id="linearGradient2906"
       gradientUnits="userSpaceOnUse"
       gradientTransform="matrix(1.1936912,0,0,1.0352946,-4.6660778,-36.868992)"
       x1="22.767105"
       y1="1042.9338"
       x2="22.767105"
       y2="1050.1306" />
    <radialGradient
       inkscape:collect="always"
       xlink:href="#linearGradient3651"
       id="radialGradient2909"
       gradientUnits="userSpaceOnUse"
       gradientTransform="matrix(1,0,0,0.10729614,0,38.105644)"
       cx="12.650582"
       cy="42.68565"
       fx="12.650582"
       fy="42.68565"
       r="2.5743105" />
  </defs>
  <sodipodi:namedview
     id="base"
     pagecolor="#ffffff"
     bordercolor="#666666"
     borderopacity="1.0"
     inkscape:pageopacity="0.0"
     inkscape:pageshadow="2"
     inkscape:zoom="5.6568542"
     inkscape:cx="16.59154"
     inkscape:cy="14.858535"
     inkscape:document-units="px"
     inkscape:current-layer="layer1"
     showgrid="false"
     showguides="true"
     inkscape:guide-bbox="true"
     inkscape:window-width="1280"
     inkscape:window-height="714"
     inkscape:window-x="0"
     inkscape:window-y="25"
     inkscape:window-maximized="1" />
  <metadata
     id="metadata7">
    <rdf:RDF>
      <cc:Work
         rdf:about="">
        <dc:format>image/svg+xml</dc:format>
        <dc:type
           rdf:resource="http://purl.org/dc/dcmitype/StillImage" />
        <dc:title />
      </cc:Work>
    </rdf:RDF>
  </metadata>
  <g
     inkscape:label="Livello 1"
     inkscape:groupmode="layer"
     id="layer1"
     transform="translate(0,-1004.3622)">
    <path
       sodipodi:nodetypes="ccccccccc"
       id="path3594"
       d="m 7.995404,1011.6683 32.229661,0 c 1.32261,0 2.387383,0.923 2.387383,2.0701 l 2.387553,35.4589 c 0,1.1471 -1.064773,2.0706 -2.387382,2.0706 l -37.0044264,0 c -1.3226098,0 -2.3873824,-0.9235 -2.3873824,-2.0706 l 2.3872118,-35.4584 c 0,-1.1471 1.0647724,-2.0706 2.387382,-2.0706 z"
       style="fill:#700000;fill-opacity:1;fill-rule:nonzero;stroke:none" />
    <path
       style="fill:url(#linearGradient2906);fill-opacity:1;fill-rule:nonzero;stroke:none"
       d="m 7.1369697,1044.2241 37.0103933,0 -0.441887,6.101 -36.5685063,-2e-4 c -2.6542763,0.023 -2.5306252,-0.8739 -2.5306252,-2.7889 l 0,-0.5229 c 0,-1.5451 1.1286588,-2.789 2.5306252,-2.789 z"
       id="rect3614"
       sodipodi:nodetypes="ccccccc" />
    <path
       sodipodi:nodetypes="ccccccc"
       id="path3625"
       d="m 7.1369697,1044.2241 37.0103933,0 -2.717887,6.101 -34.2925063,-2e-4 c -2.6542763,0.023 -2.5306252,-0.8739 -2.5306252,-2.7889 l 0,-0.5229 c 0,-1.5451 1.1286588,-2.789 2.5306252,-2.789 z"
       style="fill:url(#linearGradient2903);fill-opacity:1;fill-rule:nonzero;stroke:none" />
    <path
       style="fill:url(#linearGradient2900);fill-opacity:1;fill-rule:nonzero;stroke:none"
       d="m 7.995404,1005.4565 32.229661,0 c 1.32261,0 2.387383,0.9231 2.387383,2.0702 l 2.387553,35.4588 c 0,1.1471 -1.064773,2.0706 -2.387382,2.0706 l -37.0044264,0 c -0.5567419,-0.01 -1.0252085,0.89 -1.0252085,2.3482 -0.587267,1.1149 -1.2819774,2.3696 -1.3425403,2.1123 -0.3323517,-2.92 -0.3022451,-3.1796 -0.019633,-6.5311 l 2.387212,-35.4584 c 0,-1.1471 1.0647724,-2.0706 2.3873825,-2.0706 z"
       id="rect2816"
       sodipodi:nodetypes="ccccccccccc" />
    <path
       sodipodi:type="arc"
       style="fill:url(#radialGradient2909);fill-opacity:1;fill-rule:nonzero;stroke:none"
       id="path3649"
       sodipodi:cx="12.650582"
       sodipodi:cy="42.68565"
       sodipodi:rx="2.5743105"
       sodipodi:ry="0.27621359"
       d="m 15.224893,42.68565 a 2.5743105,0.27621359 0 1 1 -5.148621,0 2.5743105,0.27621359 0 1 1 5.148621,0 z"
       transform="matrix(1.9508091,0,0,1.0352946,-11.041138,1002.6753)" />
    <rect
       style="fill:#333333;fill-opacity:0.19607843;fill-rule:nonzero;stroke:none"
       id="rect3659"
       width="38.147629"
       height="0.15529419"
       x="5.5735545"
       y="1045.4924" />
    <rect
       y="1047.563"
       x="4.7528915"
       height="0.15529419"
       width="38.720955"
       id="rect3661"
       style="fill:#333333;fill-opacity:0.19607843;fill-rule:nonzero;stroke:none" />
    <rect
       style="fill:#333333;fill-opacity:0.19607843;fill-rule:nonzero;stroke:none"
       id="rect3663"
       width="37.778648"
       height="0.15529419"
       x="5.4989481"
       y="1049.6335" />
    <rect
       y="1048.5983"
       x="5.1445713"
       height="0.15529419"
       width="38.227707"
       id="rect3665"
       style="fill:#333333;fill-opacity:0.19607843;fill-rule:nonzero;stroke:none" />
    <rect
       style="fill:#333333;fill-opacity:0.19607843;fill-rule:nonzero;stroke:none"
       id="rect3667"
       width="38.459835"
       height="0.15529419"
       x="5.1445713"
       y="1046.5277" />
    <path
       sodipodi:nodetypes="ccccccc"
       id="path3697"
       d="m 10.461295,1046.8237 c -0.7606857,0.2039 -0.338183,3.0664 -0.217331,4.7045 l 3.896738,-1.3489 3.323449,1.406 c -0.114036,-2.1149 -0.194092,-3.5022 -0.01666,-4.8099 l -6.986203,0.049 7e-6,-7e-4 z"
       style="fill:#333333;fill-opacity:0.39215686;stroke:none" />
    <path
       style="fill:url(#linearGradient3778);fill-opacity:1;stroke:none"
       d="m 10.202471,1046.759 c -0.7606857,0.2039 -0.120852,3.2152 0,4.8532 l 3.532233,-1.5785 3.767244,1.5785 c 0,0 -0.767187,-4.6473 0,-4.8529 l -7.299477,-3e-4 z"
       id="path3635"
       sodipodi:nodetypes="cccccc" />
    <g
       transform="matrix(1.5997671,0,0,1.3109508,-10.777463,-460.2467)"
       style="font-size:18.10484505px;font-style:normal;font-variant:normal;font-weight:bold;font-stretch:normal;fill:#640000;fill-opacity:1;stroke:none;font-family:cmr10;-inkscape-font-specification:cmr10 Medium"
       id="text3681">
      <path
         d="m 17.402966,1125.4109 3.910647,11.3155 c 0.120688,0.35 0.313806,0.5612 0.579355,0.6337 0.241386,0.06 0.561238,0.09 0.959557,0.09 l 0.325887,0 0,0.5612 c -0.760416,-0.036 -1.550993,-0.054 -2.371735,-0.054 -1.303558,0 -2.17259,0.018 -2.607098,0.054 l 0,-0.5612 c 1.001793,0 1.502693,-0.1811 1.502703,-0.5432 -10e-6,-0.024 -0.01812,-0.1086 -0.05431,-0.2534 l -0.959557,-2.7701 -4.471896,0 -0.832823,2.3718 c -0.02414,0.048 -0.03621,0.1388 -0.03621,0.2715 -3e-6,0.3984 0.23536,0.676 0.706089,0.8329 l 0.01811,0 c 0.181044,0.06 0.392267,0.09 0.633669,0.09 l 0,0.5612 c -1.158713,-0.036 -1.852731,-0.054 -2.082057,-0.054 -0.398308,0 -1.013873,0.018 -1.846694,0.054 l 0,-0.5612 c 1.02594,-0.024 1.683748,-0.3862 1.973428,-1.0863 0.02414,-0.048 0.04224,-0.091 0.05431,-0.1267 l 3.747703,-10.8267 c 0.07241,-0.2052 0.168972,-0.3199 0.289677,-0.344 0.0362,-0.012 0.08448,-0.018 0.144839,-0.018 0.181041,0 0.307775,0.084 0.380202,0.2534 l 0,0.018 0,0.018 0.03621,0.072 m -0.959556,2.0277 -2.027743,5.8841 4.07359,0 -2.045847,-5.8841"
         style="fill:#640000"
         id="path3693" />
      <path
         d="m 29.804786,1136.6359 c -0.301754,0.7483 -0.832828,1.2371 -1.593227,1.4665 -0.241402,0.072 -0.500904,0.1086 -0.778508,0.1086 -1.025944,0 -1.816521,-0.2474 -2.371735,-0.7423 -0.350028,-0.3138 -0.525041,-0.7061 -0.52504,-1.1768 -1e-6,-0.9294 0.512969,-1.6717 1.538912,-2.2269 0.08449,-0.048 0.175011,-0.091 0.271572,-0.1267 0.736261,-0.3501 1.816515,-0.5673 3.240767,-0.6518 l 0.09052,0 0,-0.6699 c -6e-6,-1.0259 -0.368138,-1.732 -1.104396,-2.1183 -0.253472,-0.1327 -0.525045,-0.1991 -0.814718,-0.1991 -0.796616,0 -1.41218,0.2353 -1.846694,0.7061 -0.03621,0.048 -0.07242,0.091 -0.108629,0.1267 0.567282,0.072 0.875064,0.35 0.923347,0.8328 -3e-6,0.4104 -0.187086,0.6759 -0.56125,0.7966 -0.08449,0.024 -0.175016,0.036 -0.271573,0.036 -0.434518,10e-5 -0.700055,-0.1991 -0.796613,-0.5974 -0.02414,-0.06 -0.03621,-0.1448 -0.03621,-0.2535 -1e-6,-0.7242 0.3802,-1.2794 1.140605,-1.6656 0.470724,-0.2535 1.001798,-0.3802 1.593227,-0.3802 0.989726,0 1.816513,0.3319 2.480364,0.9957 0.422439,0.4346 0.639697,1.0381 0.651774,1.8105 l 0,0.018 0,0.3078 0,3.621 c -7e-6,0.35 0.108622,0.6095 0.325887,0.7785 0.09655,0.085 0.211216,0.1267 0.343992,0.1267 0.422438,0 0.639696,-0.3862 0.651775,-1.1587 l 0,-1.0139 0.452621,0 0,1.0139 c -9e-6,0.8811 -0.362106,1.4303 -1.086291,1.6476 -0.144846,0.048 -0.277615,0.072 -0.398306,0.072 -0.591432,0 -1.013878,-0.3138 -1.26734,-0.9415 -0.07242,-0.169 -0.120705,-0.35 -0.144838,-0.5431 m -0.126734,-2.9692 c -1.858768,0.072 -3.041617,0.6397 -3.54855,1.7018 -0.132771,0.2897 -0.199155,0.5915 -0.199153,0.9053 -2e-6,0.6155 0.277605,1.0682 0.832823,1.3578 0.241394,0.1207 0.506932,0.1811 0.796613,0.1811 0.62763,0 1.15267,-0.2474 1.575121,-0.7423 0.362092,-0.4104 0.54314,-0.9415 0.543146,-1.5932 l 0,-1.8105"
         style="fill:#640000"
         id="path3695" />
    </g>
    <g
       transform="matrix(1.5997671,0,0,1.3109508,-10.777463,-460.2467)"
       style="font-size:18.10484505px;font-style:normal;font-variant:normal;font-weight:bold;font-stretch:normal;fill:url(#linearGradient3766);fill-opacity:1;stroke:none;font-family:cmr10;-inkscape-font-specification:cmr10 Medium"
       id="text3669">
      <path
         d="m 17.402966,1125.8251 3.910647,11.3155 c 0.120688,0.35 0.313806,0.5612 0.579355,0.6337 0.241386,0.06 0.561238,0.091 0.959557,0.091 l 0.325887,0 0,0.5612 c -0.760416,-0.036 -1.550993,-0.054 -2.371735,-0.054 -1.303558,0 -2.17259,0.018 -2.607098,0.054 l 0,-0.5612 c 1.001793,0 1.502693,-0.1811 1.502703,-0.5432 -10e-6,-0.024 -0.01812,-0.1086 -0.05431,-0.2534 l -0.959557,-2.7701 -4.471896,0 -0.832823,2.3718 c -0.02414,0.048 -0.03621,0.1388 -0.03621,0.2715 -3e-6,0.3983 0.23536,0.6759 0.706089,0.8329 l 0.01811,0 c 0.181044,0.06 0.392267,0.091 0.633669,0.091 l 0,0.5612 c -1.158713,-0.036 -1.852731,-0.054 -2.082057,-0.054 -0.398308,0 -1.013873,0.018 -1.846694,0.054 l 0,-0.5612 c 1.02594,-0.024 1.683748,-0.3863 1.973428,-1.0863 0.02414,-0.048 0.04224,-0.09 0.05431,-0.1267 l 3.747703,-10.8267 c 0.07241,-0.2052 0.168972,-0.3199 0.289677,-0.344 0.0362,-0.012 0.08448,-0.018 0.144839,-0.018 0.181041,0 0.307775,0.084 0.380202,0.2534 l 0,0.018 0,0.018 0.03621,0.072 m -0.959556,2.0277 -2.027743,5.8841 4.07359,0 -2.045847,-5.8841"
         style="fill:url(#linearGradient3762)"
         id="path3688" />
      <path
         d="m 29.804786,1137.0501 c -0.301754,0.7483 -0.832828,1.2371 -1.593227,1.4664 -0.241402,0.072 -0.500904,0.1087 -0.778508,0.1087 -1.025944,0 -1.816521,-0.2475 -2.371735,-0.7423 -0.350028,-0.3138 -0.525041,-0.7061 -0.52504,-1.1768 -1e-6,-0.9294 0.512969,-1.6717 1.538912,-2.2269 0.08449,-0.048 0.175011,-0.091 0.271572,-0.1268 0.736261,-0.35 1.816515,-0.5672 3.240767,-0.6517 l 0.09052,0 0,-0.6699 c -6e-6,-1.026 -0.368138,-1.732 -1.104396,-2.1183 -0.253472,-0.1327 -0.525045,-0.1991 -0.814718,-0.1991 -0.796616,0 -1.41218,0.2353 -1.846694,0.7061 -0.03621,0.048 -0.07242,0.091 -0.108629,0.1267 0.567282,0.072 0.875064,0.35 0.923347,0.8328 -3e-6,0.4104 -0.187086,0.6759 -0.56125,0.7966 -0.08449,0.024 -0.175016,0.036 -0.271573,0.036 -0.434518,0 -0.700055,-0.1991 -0.796613,-0.5974 -0.02414,-0.06 -0.03621,-0.1449 -0.03621,-0.2535 -1e-6,-0.7242 0.3802,-1.2794 1.140605,-1.6656 0.470724,-0.2535 1.001798,-0.3802 1.593227,-0.3802 0.989726,0 1.816513,0.3319 2.480364,0.9957 0.422439,0.4345 0.639697,1.038 0.651774,1.8105 l 0,0.018 0,0.3078 0,3.621 c -7e-6,0.35 0.108622,0.6095 0.325887,0.7785 0.09655,0.084 0.211216,0.1267 0.343992,0.1267 0.422438,0 0.639696,-0.3862 0.651775,-1.1587 l 0,-1.0139 0.452621,0 0,1.0139 c -9e-6,0.8811 -0.362106,1.4303 -1.086291,1.6475 -0.144846,0.048 -0.277615,0.072 -0.398306,0.072 -0.591432,0 -1.013878,-0.3139 -1.26734,-0.9415 -0.07242,-0.169 -0.120705,-0.35 -0.144838,-0.5431 m -0.126734,-2.9692 c -1.858768,0.072 -3.041617,0.6397 -3.54855,1.7018 -0.132771,0.2897 -0.199155,0.5914 -0.199153,0.9053 -2e-6,0.6155 0.277605,1.0681 0.832823,1.3578 0.241394,0.1207 0.506932,0.1811 0.796613,0.1811 0.62763,0 1.15267,-0.2475 1.575121,-0.7423 0.362092,-0.4104 0.54314,-0.9415 0.543146,-1.5933 l 0,-1.8104"
         style="fill:url(#linearGradient3764)"
         id="path3690" />
    </g>
  </g>
</svg>
