<?xml version="1.0" encoding="UTF-8" standalone="no"?>
<!-- Created with Inkscape (http://www.inkscape.org/) -->

<svg
   xmlns:dc="http://purl.org/dc/elements/1.1/"
   xmlns:cc="http://creativecommons.org/ns#"
   xmlns:rdf="http://www.w3.org/1999/02/22-rdf-syntax-ns#"
   xmlns:svg="http://www.w3.org/2000/svg"
   xmlns="http://www.w3.org/2000/svg"
   xmlns:xlink="http://www.w3.org/1999/xlink"
   xmlns:sodipodi="http://sodipodi.sourceforge.net/DTD/sodipodi-0.dtd"
   xmlns:inkscape="http://www.inkscape.org/namespaces/inkscape"
   width="48"
   height="48"
   id="svg2"
   version="1.1"
   inkscape:version="0.47pre4 r22446"
   sodipodi:docname="adobe-reader.svg">
  <defs
     id="defs4">
    <linearGradient
       id="linearGradient3614">
      <stop
         style="stop-color:#ffffff;stop-opacity:1;"
         offset="0"
         id="stop3616" />
      <stop
         style="stop-color:#dcdcdc;stop-opacity:1;"
         offset="1"
         id="stop3618" />
    </linearGradient>
    <linearGradient
       id="linearGradient3606">
      <stop
         style="stop-color:#de220c;stop-opacity:1;"
         offset="0"
         id="stop3608" />
      <stop
         style="stop-color:#700000;stop-opacity:1;"
         offset="1"
         id="stop3610" />
    </linearGradient>
    <inkscape:perspective
       sodipodi:type="inkscape:persp3d"
       inkscape:vp_x="0 : 526.18109 : 1"
       inkscape:vp_y="0 : 1000 : 0"
       inkscape:vp_z="744.09448 : 526.18109 : 1"
       inkscape:persp3d-origin="372.04724 : 350.78739 : 1"
       id="perspective10" />
    <inkscape:perspective
       id="perspective2824"
       inkscape:persp3d-origin="0.5 : 0.33333333 : 1"
       inkscape:vp_z="1 : 0.5 : 1"
       inkscape:vp_y="0 : 1000 : 0"
       inkscape:vp_x="0 : 0.5 : 1"
       sodipodi:type="inkscape:persp3d" />
    <linearGradient
       inkscape:collect="always"
       xlink:href="#linearGradient3614"
       id="linearGradient3620"
       x1="23.999998"
       y1="1010.4678"
       x2="23.999998"
       y2="1046.2566"
       gradientUnits="userSpaceOnUse" />
    <radialGradient
       inkscape:collect="always"
       xlink:href="#linearGradient3606"
       id="radialGradient3597"
       cx="13"
       cy="1018.6122"
       fx="13"
       fy="1018.6122"
       r="22"
       gradientUnits="userSpaceOnUse"
       gradientTransform="matrix(0.5103702,2.3649842,-2.580217,0.55681793,2634.6056,420.68587)" />
  </defs>
  <sodipodi:namedview
     id="base"
     pagecolor="#ffffff"
     bordercolor="#666666"
     borderopacity="1.0"
     inkscape:pageopacity="0.0"
     inkscape:pageshadow="2"
     inkscape:zoom="4"
     inkscape:cx="21.311052"
     inkscape:cy="23.817549"
     inkscape:document-units="px"
     inkscape:current-layer="layer1"
     showgrid="false"
     inkscape:window-width="1280"
     inkscape:window-height="714"
     inkscape:window-x="0"
     inkscape:window-y="25"
     inkscape:window-maximized="1" />
  <metadata
     id="metadata7">
    <rdf:RDF>
      <cc:Work
         rdf:about="">
        <dc:format>image/svg+xml</dc:format>
        <dc:type
           rdf:resource="http://purl.org/dc/dcmitype/StillImage" />
        <dc:title />
      </cc:Work>
    </rdf:RDF>
  </metadata>
  <g
     inkscape:label="Livello 1"
     inkscape:groupmode="layer"
     id="layer1"
     transform="translate(0,-1004.3622)">
    <rect
       style="fill:url(#radialGradient3597);fill-opacity:1;stroke:none"
       id="rect3604"
       width="44"
       height="44"
       x="2"
       y="1006.3622" />
    <path
       sodipodi:nodetypes="cssssssssssssssssccsssssscccsscccsssccssssscccc"
       id="path3626"
       d="m 7.0640111,1046.1297 c -0.7958176,-0.4318 -0.877006,-0.9883 -0.3337639,-2.2885 0.517793,-1.2393 1.7243912,-2.6741 3.1479764,-3.7434 1.7109464,-1.2851 2.1238414,-1.3894 2.5305854,-1.5569 0.245349,-0.1009 0.576279,-0.1977 0.13088,0.3197 -0.117651,0.1367 -0.435361,0.7767 -1.368188,1.726 -1.5323027,1.5593 -3.2764615,3.934 -3.2764615,4.4608 0,0.9354 2.4712415,-1.4244 4.2276365,-4.0371 2.740898,-4.0771 7.045227,-13.2102 8.285644,-17.581 0.402391,-1.4177 0.399396,-1.5899 -0.05789,-3.3241 -0.621354,-2.3565 -0.886314,-7.521 -0.441011,-8.5961 0.296193,-0.7151 0.420009,-0.7761 1.575285,-0.7761 1.123566,0 1.280806,0.071 1.51352,0.6831 0.551633,1.4509 -0.235237,2.1591 -0.922432,0.8303 -0.326588,-0.6316 -0.476448,-0.7385 -0.650344,-0.4638 -0.270336,0.4268 -0.254489,4.3847 0.02191,5.4708 0.233656,0.9184 0.205586,0.9816 0.623115,-1.4063 0.256189,-1.4652 0.345529,-1.7493 0.507712,-1.4703 l 0.168265,0.4475 c 0.02443,0.085 0.171292,0.7262 0.114501,3.171 -0.08796,3.7865 -0.05451,4.1563 0.486802,5.3803 1.506999,3.4076 4.434042,6.8657 6.85797,8.1023 0.950089,0.4847 1.31025,0.5181 3.879525,0.36 4.683787,-0.2882 7.326793,0.4142 7.515786,1.9977 0.09415,0.7889 -0.216708,0.8521 -1.158108,0.2352 -0.514236,-0.337 -1.321496,-0.457 -3.37908,-0.5025 l -2.70344,-0.06 1.91778,0.6453 c 1.101359,0.3705 2.546832,0.6545 3.395427,0.6667 1.613799,0.023 2.002778,0.2858 1.366883,0.9217 -0.915134,0.915 -5.67899,0.2281 -9.192432,-1.3257 l -1.409408,-0.6234 -2.842768,0.4851 c -3.311305,0.565 -6.246063,1.2754 -9.016861,2.1828 -1.926396,0.6307 -1.992896,0.6808 -2.793945,2.0983 -2.798967,4.953 -5.696867,8.0041 -7.5621945,7.9623 -0.2506321,0 -0.7721278,-0.182 -1.1588804,-0.3917 z M 21.19165,1034.4754 c 1.846177,-0.6468 6.206751,-1.7511 6.914341,-1.7511 0.434924,0 0.284746,-0.1867 -0.685599,-0.8521 -1.436469,-0.9852 -3.334465,-3.2258 -4.552177,-5.3742 -0.466297,-0.8227 -0.901905,-1.398 -0.968019,-1.2785 -0.06611,0.12 -0.396418,1.0766 -0.734006,2.1271 -0.33759,1.0503 -1.361733,3.4272 -2.275876,5.2818 l -1.662075,3.372 1.278519,-0.5162 c 0.703186,-0.2838 1.911388,-0.7378 2.684892,-1.0088 z"
       style="fill:#de4016;fill-opacity:1;stroke:none" />
    <path
       sodipodi:nodetypes="cssssssssssssssssccsssssscccsscccsssccssssscccc"
       id="path3622"
       d="m 7.0640111,1045.5993 c -0.7958176,-0.4318 -0.877006,-0.9883 -0.3337639,-2.2885 0.517793,-1.2393 1.7243912,-2.6741 3.1479764,-3.7434 1.7109464,-1.2851 2.1238414,-1.3894 2.5305854,-1.5569 0.245349,-0.1009 0.576279,-0.1977 0.13088,0.3197 -0.117651,0.1367 -0.435361,0.7767 -1.368188,1.726 -1.5323027,1.5593 -3.2764615,3.934 -3.2764615,4.4608 0,0.9354 2.4712415,-1.4244 4.2276365,-4.0371 2.740898,-4.0771 7.045227,-13.2102 8.285644,-17.581 0.402391,-1.4177 0.399396,-1.5899 -0.05789,-3.3241 -0.621354,-2.3565 -0.886314,-7.521 -0.441011,-8.5961 0.296193,-0.7151 0.420009,-0.7761 1.575285,-0.7761 1.123566,0 1.280806,0.071 1.51352,0.6831 0.551633,1.4509 -0.235237,2.1591 -0.922432,0.8303 -0.326588,-0.6316 -0.476448,-0.7385 -0.650344,-0.4638 -0.270336,0.4268 -0.254489,4.3847 0.02191,5.4708 0.233656,0.9184 0.205586,0.9816 0.623115,-1.4063 0.256189,-1.4652 0.345529,-1.7493 0.507712,-1.4703 l 0.168265,0.4475 c 0.02443,0.085 0.171292,0.7262 0.114501,3.171 -0.08796,3.7865 -0.05451,4.1563 0.486802,5.3803 1.506999,3.4076 4.434042,6.8657 6.85797,8.1023 0.950089,0.4847 1.31025,0.5181 3.879525,0.36 4.683787,-0.2882 7.326793,0.4142 7.515786,1.9977 0.09415,0.7889 -0.216708,0.8521 -1.158108,0.2352 -0.514236,-0.337 -1.321496,-0.457 -3.37908,-0.5025 l -2.70344,-0.06 1.91778,0.6453 c 1.101359,0.3705 2.546832,0.6545 3.395427,0.6667 1.613799,0.023 2.002778,0.2858 1.366883,0.9217 -0.915134,0.915 -5.67899,0.2281 -9.192432,-1.3257 l -1.409408,-0.6234 -2.842768,0.4851 c -3.311305,0.565 -6.246063,1.2754 -9.016861,2.1828 -1.926396,0.6307 -1.992896,0.6808 -2.793945,2.0983 -2.798967,4.953 -5.696867,8.0041 -7.5621945,7.9623 -0.2506321,0 -0.7721278,-0.182 -1.1588804,-0.3917 z M 21.19165,1033.945 c 1.846177,-0.6468 6.206751,-1.7511 6.914341,-1.7511 0.434924,0 0.284746,-0.1867 -0.685599,-0.8521 -1.436469,-0.9852 -3.334465,-3.2258 -4.552177,-5.3742 -0.466297,-0.8227 -0.901905,-1.398 -0.968019,-1.2785 -0.06611,0.12 -0.396418,1.0766 -0.734006,2.1271 -0.33759,1.0503 -1.361733,3.4272 -2.275876,5.2818 l -1.662075,3.372 1.278519,-0.5162 c 0.703186,-0.2838 1.911388,-0.7378 2.684892,-1.0088 z"
       style="fill:#640000;fill-opacity:1;stroke:none" />
    <path
       style="fill:url(#linearGradient3620);fill-opacity:1;stroke:none"
       d="m 7.0640111,1045.8645 c -0.7958176,-0.4318 -0.877006,-0.9883 -0.3337639,-2.2885 0.517793,-1.2393 1.7243912,-2.6741 3.1479764,-3.7434 1.7109464,-1.2851 2.1238414,-1.3894 2.5305854,-1.5569 0.245349,-0.1009 0.576279,-0.1977 0.13088,0.3197 -0.117651,0.1367 -0.435361,0.7767 -1.368188,1.726 -1.5323027,1.5593 -3.2764615,3.934 -3.2764615,4.4608 0,0.9354 2.4712415,-1.4244 4.2276365,-4.0371 2.740898,-4.0771 7.045227,-13.2102 8.285644,-17.581 0.402391,-1.4177 0.399396,-1.5899 -0.05789,-3.3241 -0.621354,-2.3565 -0.886314,-7.521 -0.441011,-8.5961 0.296193,-0.7151 0.420009,-0.7761 1.575285,-0.7761 1.123566,0 1.280806,0.071 1.51352,0.6831 0.551633,1.4509 -0.235237,2.1591 -0.922432,0.8303 -0.326588,-0.6316 -0.476448,-0.7385 -0.650344,-0.4638 -0.270336,0.4268 -0.254489,4.3847 0.02191,5.4708 0.233656,0.9184 0.205586,0.9816 0.623115,-1.4063 0.256189,-1.4652 0.345529,-1.7493 0.507712,-1.4703 l 0.168265,0.4475 c 0.02443,0.085 0.171292,0.7262 0.114501,3.171 -0.08796,3.7865 -0.05451,4.1563 0.486802,5.3803 1.506999,3.4076 4.434042,6.8657 6.85797,8.1023 0.950089,0.4847 1.31025,0.5181 3.879525,0.36 4.683787,-0.2882 7.326793,0.4142 7.515786,1.9977 0.09415,0.7889 -0.216708,0.8521 -1.158108,0.2352 -0.514236,-0.337 -1.321496,-0.457 -3.37908,-0.5025 l -2.70344,-0.06 1.91778,0.6453 c 1.101359,0.3705 2.546832,0.6545 3.395427,0.6667 1.613799,0.023 2.002778,0.2858 1.366883,0.9217 -0.915134,0.915 -5.67899,0.2281 -9.192432,-1.3257 l -1.409408,-0.6234 -2.842768,0.4851 c -3.311305,0.565 -6.246063,1.2754 -9.016861,2.1828 -1.926396,0.6307 -1.992896,0.6808 -2.793945,2.0983 -2.798967,4.953 -5.696867,8.0041 -7.5621945,7.9623 -0.2506321,0 -0.7721278,-0.182 -1.1588804,-0.3917 z M 21.19165,1034.2102 c 1.846177,-0.6468 6.206751,-1.7511 6.914341,-1.7511 0.434924,0 0.284746,-0.1867 -0.685599,-0.8521 -1.436469,-0.9852 -3.334465,-3.2258 -4.552177,-5.3742 -0.466297,-0.8227 -0.901905,-1.398 -0.968019,-1.2785 -0.06611,0.12 -0.396418,1.0766 -0.734006,2.1271 -0.33759,1.0503 -1.361733,3.4272 -2.275876,5.2818 l -1.662075,3.372 1.278519,-0.5162 c 0.703186,-0.2838 1.911388,-0.7378 2.684892,-1.0088 z"
       id="path2830"
       sodipodi:nodetypes="cssssssssssssssssccsssssscccsscccsssccssssscccc" />
  </g>
</svg>
