<?xml version="1.0" encoding="UTF-8" standalone="no"?>
<!-- Created with Inkscape (http://www.inkscape.org/) -->

<svg
   xmlns:dc="http://purl.org/dc/elements/1.1/"
   xmlns:cc="http://creativecommons.org/ns#"
   xmlns:rdf="http://www.w3.org/1999/02/22-rdf-syntax-ns#"
   xmlns:svg="http://www.w3.org/2000/svg"
   xmlns="http://www.w3.org/2000/svg"
   xmlns:xlink="http://www.w3.org/1999/xlink"
   xmlns:sodipodi="http://sodipodi.sourceforge.net/DTD/sodipodi-0.dtd"
   xmlns:inkscape="http://www.inkscape.org/namespaces/inkscape"
   width="48"
   height="48"
   id="svg2"
   version="1.1"
   inkscape:version="0.47pre4 r22446"
   sodipodi:docname="Nuovo documento 1">
  <defs
     id="defs4">
    <linearGradient
       id="linearGradient3955">
      <stop
         style="stop-color:#333333;stop-opacity:0.39215687;"
         offset="0"
         id="stop3957" />
      <stop
         style="stop-color:#333333;stop-opacity:0;"
         offset="1"
         id="stop3959" />
    </linearGradient>
    <linearGradient
       id="linearGradient3943">
      <stop
         style="stop-color:#333333;stop-opacity:1;"
         offset="0"
         id="stop3945" />
      <stop
         id="stop3947"
         offset="0.36829334"
         style="stop-color:#333333;stop-opacity:0;" />
      <stop
         id="stop3949"
         offset="0.66277623"
         style="stop-color:#333333;stop-opacity:0;" />
      <stop
         style="stop-color:#333333;stop-opacity:1;"
         offset="1"
         id="stop3951" />
    </linearGradient>
    <linearGradient
       id="linearGradient3933">
      <stop
         style="stop-color:#333333;stop-opacity:1;"
         offset="0"
         id="stop3935" />
      <stop
         id="stop3937"
         offset="0.33789548"
         style="stop-color:#333333;stop-opacity:0;" />
      <stop
         id="stop3939"
         offset="0.62084109"
         style="stop-color:#333333;stop-opacity:0;" />
      <stop
         style="stop-color:#333333;stop-opacity:1;"
         offset="1"
         id="stop3941" />
    </linearGradient>
    <linearGradient
       id="linearGradient3911">
      <stop
         id="stop3913"
         offset="0"
         style="stop-color:#333333;stop-opacity:1;" />
      <stop
         style="stop-color:#333333;stop-opacity:0;"
         offset="0.27800664"
         id="stop3931" />
      <stop
         style="stop-color:#333333;stop-opacity:0;"
         offset="0.6482231"
         id="stop3929" />
      <stop
         id="stop3915"
         offset="1"
         style="stop-color:#333333;stop-opacity:1;" />
    </linearGradient>
    <linearGradient
       id="linearGradient3829">
      <stop
         style="stop-color:#dcdcdc;stop-opacity:1;"
         offset="0"
         id="stop3831" />
      <stop
         style="stop-color:#646464;stop-opacity:1;"
         offset="1"
         id="stop3833" />
    </linearGradient>
    <linearGradient
       id="linearGradient3734">
      <stop
         style="stop-color:#ffffff;stop-opacity:1;"
         offset="0"
         id="stop3736" />
      <stop
         style="stop-color:#dcdcdc;stop-opacity:1;"
         offset="1"
         id="stop3738" />
    </linearGradient>
    <linearGradient
       id="linearGradient3719">
      <stop
         id="stop3721"
         offset="0"
         style="stop-color:#9cc430;stop-opacity:1;" />
      <stop
         id="stop3723"
         offset="1"
         style="stop-color:#255900;stop-opacity:1;" />
    </linearGradient>
    <linearGradient
       id="linearGradient3711">
      <stop
         id="stop3713"
         offset="0"
         style="stop-color:#e3b216;stop-opacity:1;" />
      <stop
         id="stop3715"
         offset="1"
         style="stop-color:#c88109;stop-opacity:1;" />
    </linearGradient>
    <linearGradient
       id="linearGradient3703">
      <stop
         id="stop3705"
         offset="0"
         style="stop-color:#de220c;stop-opacity:1;" />
      <stop
         id="stop3707"
         offset="1"
         style="stop-color:#700000;stop-opacity:1;" />
    </linearGradient>
    <linearGradient
       id="linearGradient3626">
      <stop
         style="stop-color:#5785a6;stop-opacity:1;"
         offset="0"
         id="stop3628" />
      <stop
         style="stop-color:#113f4c;stop-opacity:1;"
         offset="1"
         id="stop3630" />
    </linearGradient>
    <inkscape:perspective
       sodipodi:type="inkscape:persp3d"
       inkscape:vp_x="0 : 526.18109 : 1"
       inkscape:vp_y="0 : 1000 : 0"
       inkscape:vp_z="744.09448 : 526.18109 : 1"
       inkscape:persp3d-origin="372.04724 : 350.78739 : 1"
       id="perspective10" />
    <linearGradient
       inkscape:collect="always"
       xlink:href="#linearGradient3734"
       id="linearGradient3740"
       x1="22.461962"
       y1="1027.3424"
       x2="22.461962"
       y2="1041.8297"
       gradientUnits="userSpaceOnUse" />
    <linearGradient
       inkscape:collect="always"
       xlink:href="#linearGradient3734"
       id="linearGradient3794"
       gradientUnits="userSpaceOnUse"
       x1="22.461962"
       y1="1027.3424"
       x2="22.461962"
       y2="1041.8297" />
    <linearGradient
       inkscape:collect="always"
       xlink:href="#linearGradient3734"
       id="linearGradient3814"
       gradientUnits="userSpaceOnUse"
       x1="22.461962"
       y1="1027.3424"
       x2="22.461962"
       y2="1041.8297" />
    <linearGradient
       inkscape:collect="always"
       xlink:href="#linearGradient3711"
       id="linearGradient3877"
       gradientUnits="userSpaceOnUse"
       x1="40.136074"
       y1="38.492214"
       x2="16.471071"
       y2="24.829218" />
    <linearGradient
       inkscape:collect="always"
       xlink:href="#linearGradient3703"
       id="linearGradient3881"
       gradientUnits="userSpaceOnUse"
       x1="28.303572"
       y1="18"
       x2="28.303572"
       y2="45.32143" />
    <linearGradient
       inkscape:collect="always"
       xlink:href="#linearGradient3719"
       id="linearGradient3883"
       gradientUnits="userSpaceOnUse"
       x1="16.471071"
       y1="38.492214"
       x2="40.136074"
       y2="24.82922" />
    <linearGradient
       inkscape:collect="always"
       xlink:href="#linearGradient3734"
       id="linearGradient3885"
       gradientUnits="userSpaceOnUse"
       x1="22.461962"
       y1="1027.3424"
       x2="22.461962"
       y2="1041.8297" />
    <linearGradient
       inkscape:collect="always"
       xlink:href="#linearGradient3734"
       id="linearGradient3887"
       gradientUnits="userSpaceOnUse"
       x1="22.461962"
       y1="1027.3424"
       x2="22.461962"
       y2="1041.8297" />
    <linearGradient
       inkscape:collect="always"
       xlink:href="#linearGradient3829"
       id="linearGradient3900"
       gradientUnits="userSpaceOnUse"
       gradientTransform="matrix(0.96243671,0,0,0.96243671,46.241478,-38.656924)"
       x1="-25.013306"
       y1="-1020.4519"
       x2="-22.066877"
       y2="-1020.4519" />
    <linearGradient
       inkscape:collect="always"
       xlink:href="#linearGradient3829"
       id="linearGradient3903"
       gradientUnits="userSpaceOnUse"
       x1="881.26825"
       y1="-550.50372"
       x2="884.21466"
       y2="-550.50372"
       gradientTransform="matrix(0.96243671,0,0,0.96243671,33.012987,-20.133677)" />
    <linearGradient
       inkscape:collect="always"
       xlink:href="#linearGradient3829"
       id="linearGradient3906"
       gradientUnits="userSpaceOnUse"
       x1="-905.49915"
       y1="-510.14331"
       x2="-908.4928"
       y2="-510.14331"
       gradientTransform="matrix(0.96243671,0,0,0.96243671,-33.942769,-18.523247)" />
    <linearGradient
       inkscape:collect="always"
       xlink:href="#linearGradient3933"
       id="linearGradient3917"
       gradientUnits="userSpaceOnUse"
       gradientTransform="matrix(0.96243671,0,0,0.96243671,33.012987,-20.133677)"
       x1="882.76422"
       y1="-553.02429"
       x2="882.75635"
       y2="-547.90918" />
    <linearGradient
       inkscape:collect="always"
       xlink:href="#linearGradient3911"
       id="linearGradient3921"
       gradientUnits="userSpaceOnUse"
       gradientTransform="matrix(0.96243671,0,0,0.96243671,46.241478,-38.656924)"
       x1="-23.540091"
       y1="-1018.1786"
       x2="-23.540091"
       y2="-1022.5673" />
    <linearGradient
       inkscape:collect="always"
       xlink:href="#linearGradient3943"
       id="linearGradient3925"
       gradientUnits="userSpaceOnUse"
       gradientTransform="matrix(0.96243671,0,0,0.96243671,-33.942769,-18.523247)"
       x1="-906.83484"
       y1="-511.21594"
       x2="-906.89844"
       y2="-507.63419" />
    <linearGradient
       inkscape:collect="always"
       xlink:href="#linearGradient3626"
       id="linearGradient3927"
       gradientUnits="userSpaceOnUse"
       x1="28.303572"
       y1="18"
       x2="28.303572"
       y2="45.32143" />
    <radialGradient
       inkscape:collect="always"
       xlink:href="#linearGradient3955"
       id="radialGradient3961"
       cx="23.612316"
       cy="44.275063"
       fx="23.612316"
       fy="44.275063"
       r="21.718279"
       gradientTransform="matrix(1,0,0,0.06104651,0,41.572224)"
       gradientUnits="userSpaceOnUse" />
    <radialGradient
       inkscape:collect="always"
       xlink:href="#linearGradient3955"
       id="radialGradient3983"
       gradientUnits="userSpaceOnUse"
       gradientTransform="matrix(1,0,0,0.06104651,0,41.572224)"
       cx="23.612316"
       cy="44.275063"
       fx="23.612316"
       fy="44.275063"
       r="21.718279" />
    <linearGradient
       inkscape:collect="always"
       xlink:href="#linearGradient3829"
       id="linearGradient3985"
       gradientUnits="userSpaceOnUse"
       gradientTransform="matrix(0.96243671,0,0,0.96243671,-33.942769,-18.523247)"
       x1="-905.49915"
       y1="-510.14331"
       x2="-908.4928"
       y2="-510.14331" />
    <linearGradient
       inkscape:collect="always"
       xlink:href="#linearGradient3943"
       id="linearGradient3987"
       gradientUnits="userSpaceOnUse"
       gradientTransform="matrix(0.96243671,0,0,0.96243671,-33.942769,-18.523247)"
       x1="-906.83484"
       y1="-511.21594"
       x2="-906.89844"
       y2="-507.63419" />
    <linearGradient
       inkscape:collect="always"
       xlink:href="#linearGradient3829"
       id="linearGradient3989"
       gradientUnits="userSpaceOnUse"
       gradientTransform="matrix(0.96243671,0,0,0.96243671,33.012987,-20.133677)"
       x1="881.26825"
       y1="-550.50372"
       x2="884.21466"
       y2="-550.50372" />
    <linearGradient
       inkscape:collect="always"
       xlink:href="#linearGradient3933"
       id="linearGradient3991"
       gradientUnits="userSpaceOnUse"
       gradientTransform="matrix(0.96243671,0,0,0.96243671,33.012987,-20.133677)"
       x1="882.76422"
       y1="-553.02429"
       x2="882.75635"
       y2="-547.90918" />
    <linearGradient
       inkscape:collect="always"
       xlink:href="#linearGradient3829"
       id="linearGradient3993"
       gradientUnits="userSpaceOnUse"
       gradientTransform="matrix(0.96243671,0,0,0.96243671,46.241478,-38.656924)"
       x1="-25.013306"
       y1="-1020.4519"
       x2="-22.066877"
       y2="-1020.4519" />
    <linearGradient
       inkscape:collect="always"
       xlink:href="#linearGradient3911"
       id="linearGradient3995"
       gradientUnits="userSpaceOnUse"
       gradientTransform="matrix(0.96243671,0,0,0.96243671,46.241478,-38.656924)"
       x1="-23.540091"
       y1="-1018.1786"
       x2="-23.540091"
       y2="-1022.5673" />
    <linearGradient
       inkscape:collect="always"
       xlink:href="#linearGradient3711"
       id="linearGradient3997"
       gradientUnits="userSpaceOnUse"
       x1="40.136074"
       y1="38.492214"
       x2="16.471071"
       y2="24.829218" />
    <linearGradient
       inkscape:collect="always"
       xlink:href="#linearGradient3626"
       id="linearGradient3999"
       gradientUnits="userSpaceOnUse"
       x1="28.303572"
       y1="18"
       x2="28.303572"
       y2="45.32143" />
    <linearGradient
       inkscape:collect="always"
       xlink:href="#linearGradient3703"
       id="linearGradient4001"
       gradientUnits="userSpaceOnUse"
       x1="28.303572"
       y1="18"
       x2="28.303572"
       y2="45.32143" />
    <linearGradient
       inkscape:collect="always"
       xlink:href="#linearGradient3719"
       id="linearGradient4003"
       gradientUnits="userSpaceOnUse"
       x1="16.471071"
       y1="38.492214"
       x2="40.136074"
       y2="24.82922" />
    <linearGradient
       inkscape:collect="always"
       xlink:href="#linearGradient3734"
       id="linearGradient4005"
       gradientUnits="userSpaceOnUse"
       x1="22.461962"
       y1="1027.3424"
       x2="22.461962"
       y2="1041.8297" />
    <linearGradient
       inkscape:collect="always"
       xlink:href="#linearGradient3734"
       id="linearGradient4007"
       gradientUnits="userSpaceOnUse"
       x1="22.461962"
       y1="1027.3424"
       x2="22.461962"
       y2="1041.8297" />
  </defs>
  <sodipodi:namedview
     id="base"
     pagecolor="#ffffff"
     bordercolor="#666666"
     borderopacity="1.0"
     inkscape:pageopacity="0.0"
     inkscape:pageshadow="2"
     inkscape:zoom="3.959798"
     inkscape:cx="16.459786"
     inkscape:cy="1.0152879"
     inkscape:document-units="px"
     inkscape:current-layer="layer1"
     showgrid="false"
     inkscape:window-width="1278"
     inkscape:window-height="712"
     inkscape:window-x="0"
     inkscape:window-y="25"
     inkscape:window-maximized="1" />
  <metadata
     id="metadata7">
    <rdf:RDF>
      <cc:Work
         rdf:about="">
        <dc:format>image/svg+xml</dc:format>
        <dc:type
           rdf:resource="http://purl.org/dc/dcmitype/StillImage" />
        <dc:title></dc:title>
      </cc:Work>
    </rdf:RDF>
  </metadata>
  <g
     inkscape:label="Livello 1"
     inkscape:groupmode="layer"
     id="layer1"
     transform="translate(0,-1004.3622)">
    <g
       id="g3963"
       transform="translate(-2.5888049e-8,-0.59385022)">
      <path
         transform="translate(-0.02668671,1004.7411)"
         d="m 45.330595,44.275063 c 0,0.732233 -9.723605,1.325825 -21.718279,1.325825 -11.994674,0 -21.7182788,-0.593592 -21.7182788,-1.325825 0,-0.732233 9.7236048,-1.325826 21.7182788,-1.325826 11.994674,0 21.718279,0.593593 21.718279,1.325826 z"
         sodipodi:ry="1.3258252"
         sodipodi:rx="21.718279"
         sodipodi:cy="44.275063"
         sodipodi:cx="23.612316"
         id="path3953"
         style="fill:url(#radialGradient3983);fill-opacity:1;stroke:none"
         sodipodi:type="arc" />
      <path
         id="rect3758"
         d="m 23.593972,1007.7626 c -3.189234,0 -5.77462,2.5854 -5.77462,5.7747 0,2.7026 1.853662,4.9647 4.361041,5.5941 l 0,2.8873 c -5.720975,0.6885 -10.135661,5.5525 -10.135661,11.4591 0,1.5946 0.317861,3.1297 0.902284,4.5114 l -1.924873,1.1128 c -1.8035309,-1.7927 -4.6396529,-2.2348 -6.9475905,-0.9023 -2.7619586,1.5947 -3.69994751,5.118 -2.1053303,7.88 1.5946171,2.762 5.117992,3.6999 7.8799505,2.1053 2.3697243,-1.3682 3.3781343,-4.1364 2.6166253,-6.6468 l 1.894797,-1.0827 c 2.108537,2.7862 5.469781,4.5715 9.233377,4.5715 3.995754,0 7.490609,-2.0289 9.564215,-5.1129 l 2.436168,1.4135 c -0.871503,2.5571 0.128189,5.4254 2.556472,6.8274 2.761959,1.5945 6.285334,0.6565 7.879951,-2.1054 1.594617,-2.762 0.656628,-6.2854 -2.10533,-7.8799 -2.256861,-1.3031 -5.01933,-0.9125 -6.827286,0.782 l -2.646701,-1.564 c 0.435567,-1.2166 0.691752,-2.5436 0.691752,-3.9099 0,-5.8964 -4.429063,-10.7573 -10.135662,-11.4591 l 0,-2.8873 c 2.499612,-0.6348 4.361041,-2.897 4.361041,-5.5941 0,-3.1893 -2.585386,-5.7747 -5.77462,-5.7747 z"
         style="fill:#333333;fill-opacity:0.78431373;fill-rule:nonzero;stroke:#333333;stroke-width:0.38497469;stroke-miterlimit:4;stroke-opacity:0.78431373;stroke-dasharray:none" />
      <rect
         transform="matrix(-0.5,-0.8660254,0.8660254,-0.5,0,0)"
         ry="1.732386"
         rx="1.732386"
         y="-512.5249"
         x="-908.23639"
         height="7.991662"
         width="2.8357511"
         id="rect3658"
         style="fill:url(#linearGradient3985);fill-opacity:1;fill-rule:nonzero;stroke:none" />
      <rect
         style="fill:url(#linearGradient3987);fill-opacity:1;fill-rule:nonzero;stroke:none"
         id="rect3923"
         width="2.8357511"
         height="7.991662"
         x="-908.23639"
         y="-512.5249"
         rx="1.732386"
         ry="1.732386"
         transform="matrix(-0.5,-0.8660254,0.8660254,-0.5,0,0)" />
      <rect
         ry="1.732386"
         rx="1.732386"
         y="-553.95453"
         x="881.17792"
         height="7.991662"
         width="2.8357511"
         id="rect3662"
         style="fill:url(#linearGradient3989);fill-opacity:1;fill-rule:nonzero;stroke:none"
         transform="matrix(-0.5,0.8660254,-0.8660254,-0.5,0,0)" />
      <rect
         transform="matrix(-0.5,0.8660254,-0.8660254,-0.5,0,0)"
         style="fill:url(#linearGradient3991);fill-opacity:1;fill-rule:nonzero;stroke:none"
         id="rect3909"
         width="2.8357511"
         height="7.991662"
         x="881.17792"
         y="-553.95453"
         rx="1.732386"
         ry="1.732386" />
      <rect
         transform="scale(1,-1)"
         style="fill:url(#linearGradient3993);fill-opacity:1;fill-rule:nonzero;stroke:none"
         id="rect3660"
         width="2.8357511"
         height="7.991662"
         x="22.167755"
         y="-1024.7731"
         rx="1.732386"
         ry="1.732386" />
      <rect
         ry="1.732386"
         rx="1.732386"
         y="-1024.7731"
         x="22.167755"
         height="7.991662"
         width="2.8357511"
         id="rect3919"
         style="fill:url(#linearGradient3995);fill-opacity:1;fill-rule:nonzero;stroke:none"
         transform="scale(1,-1)" />
      <path
         sodipodi:type="arc"
         style="fill:url(#linearGradient3997);fill-opacity:1;fill-rule:nonzero;stroke:none"
         id="path2818"
         sodipodi:cx="28.303572"
         sodipodi:cy="31.660715"
         sodipodi:rx="13.660714"
         sodipodi:ry="13.660714"
         d="m 41.964286,31.660715 c 0,7.544604 -6.11611,13.660714 -13.660714,13.660714 -7.544604,0 -13.660714,-6.11611 -13.660714,-13.660714 0,-7.544604 6.11611,-13.660714 13.660714,-13.660714 7.544604,0 13.660714,6.11611 13.660714,13.660714 z"
         transform="matrix(-0.21135866,-0.36608392,0.36608392,-0.21135866,1.3507775,1060.2434)" />
      <path
         transform="matrix(0.8454346,0,0,0.8454346,-0.3431894,1006.7196)"
         d="m 41.964286,31.660715 c 0,7.544604 -6.11611,13.660714 -13.660714,13.660714 -7.544604,0 -13.660714,-6.11611 -13.660714,-13.660714 0,-7.544604 6.11611,-13.660714 13.660714,-13.660714 7.544604,0 13.660714,6.11611 13.660714,13.660714 z"
         sodipodi:ry="13.660714"
         sodipodi:rx="13.660714"
         sodipodi:cy="31.660715"
         sodipodi:cx="28.303572"
         id="path2816"
         style="fill:url(#linearGradient3999);fill-opacity:1;fill-rule:nonzero;stroke:none"
         sodipodi:type="arc" />
      <g
         style="font-size:30px;font-style:italic;font-variant:normal;font-weight:normal;font-stretch:normal;fill:#7fadce;fill-opacity:1;stroke:none;font-family:Calibri;-inkscape-font-specification:'A.C.M.E. Secret Agent Italic'"
         id="g3750"
         transform="matrix(0.96243671,0,0,0.96243671,1.9674133,38.178658)">
        <path
           d="m 28.672903,1030.6968 c -1.3e-5,0.6738 -0.156263,1.2793 -0.46875,1.8164 -0.312513,0.5371 -0.800793,0.9961 -1.464844,1.3769 -0.664073,0.3809 -1.513682,0.6739 -2.548828,0.8789 -1.035164,0.2051 -2.275397,0.3077 -3.720703,0.3077 l -1.552734,0 c -0.06836,0.3222 -0.117191,0.6347 -0.146485,0.9375 -0.01953,0.3027 -0.0293,0.5859 -0.0293,0.8496 -3e-6,0.9765 0.239254,1.7236 0.717774,2.2412 0.488276,0.5176 1.274408,0.7763 2.358398,0.7763 0.624993,0 1.186516,-0.044 1.684571,-0.1318 0.498038,-0.098 0.927725,-0.2002 1.289062,-0.3076 0.371084,-0.1074 0.673818,-0.2051 0.908203,-0.293 0.234364,-0.098 0.395497,-0.1465 0.483399,-0.1465 0.08788,0 0.151356,0.034 0.190429,0.1026 0.04882,0.059 0.07323,0.1465 0.07324,0.2637 -1.2e-5,0.098 -0.0098,0.2148 -0.0293,0.3515 -0.01954,0.1367 -0.04884,0.2783 -0.08789,0.4248 -0.03907,0.1367 -0.09278,0.2686 -0.161133,0.3955 -0.0586,0.127 -0.126964,0.2344 -0.205078,0.3223 -0.117198,0.1172 -0.327159,0.2344 -0.629883,0.3516 -0.292978,0.1074 -0.644541,0.2099 -1.054687,0.3076 -0.410165,0.088 -0.859383,0.1611 -1.347656,0.2197 -0.488289,0.059 -0.97657,0.088 -1.464844,0.088 -0.869146,0 -1.630864,-0.098 -2.285156,-0.293 -0.654301,-0.1953 -1.201175,-0.4931 -1.640625,-0.8935 -0.42969,-0.4102 -0.751955,-0.918 -0.966797,-1.5235 -0.214845,-0.6054 -0.322267,-1.3183 -0.322266,-2.1386 -1e-6,-0.6348 0.05859,-1.3135 0.175781,-2.0362 0.126952,-0.7324 0.322264,-1.455 0.585938,-2.1679 0.26367,-0.7129 0.605466,-1.3965 1.02539,-2.0508 0.419919,-0.6543 0.917965,-1.2305 1.494141,-1.7285 0.585933,-0.4981 1.25976,-0.8985 2.021484,-1.2012 0.761712,-0.3027 1.621086,-0.4541 2.578125,-0.4541 0.820303,0 1.513662,0.1025 2.080079,0.3076 0.57616,0.2051 1.044909,0.4688 1.40625,0.791 0.37108,0.3223 0.639635,0.6836 0.805664,1.084 0.166002,0.3906 0.24901,0.7813 0.249023,1.1719 m -2.475586,0.2197 c -1.1e-5,-0.498 -0.195323,-0.8984 -0.585937,-1.2012 -0.390635,-0.3125 -0.947276,-0.4687 -1.669922,-0.4687 -0.634774,0 -1.196297,0.1123 -1.684571,0.3369 -0.488287,0.2149 -0.922857,0.5078 -1.303711,0.8789 -0.371099,0.3711 -0.693364,0.8057 -0.966796,1.3037 -0.263677,0.4883 -0.47852,1.0059 -0.644532,1.5527 l 1.494141,0 c 1.025384,10e-5 1.879875,-0.063 2.563477,-0.1904 0.69335,-0.1269 1.245107,-0.2978 1.655273,-0.5127 0.419912,-0.2246 0.71288,-0.4834 0.878906,-0.7763 0.175771,-0.293 0.263661,-0.6006 0.263672,-0.9229"
           id="path3752"
           style="fill:#7fadce;fill-opacity:1" />
      </g>
      <path
         transform="matrix(0.42271729,0,0,0.42271729,11.62122,1000.1498)"
         d="m 41.964286,31.660715 c 0,7.544604 -6.11611,13.660714 -13.660714,13.660714 -7.544604,0 -13.660714,-6.11611 -13.660714,-13.660714 0,-7.544604 6.11611,-13.660714 13.660714,-13.660714 7.544604,0 13.660714,6.11611 13.660714,13.660714 z"
         sodipodi:ry="13.660714"
         sodipodi:rx="13.660714"
         sodipodi:cy="31.660715"
         sodipodi:cx="28.303572"
         id="path2820"
         style="fill:url(#linearGradient4001);fill-opacity:1;fill-rule:nonzero;stroke:none"
         sodipodi:type="arc" />
      <path
         transform="matrix(-0.21135865,0.36608393,-0.36608393,-0.21135865,58.613632,1039.4938)"
         d="m 41.964286,31.660715 c 0,7.544604 -6.11611,13.660714 -13.660714,13.660714 -7.544604,0 -13.660714,-6.11611 -13.660714,-13.660714 0,-7.544604 6.11611,-13.660714 13.660714,-13.660714 7.544604,0 13.660714,6.11611 13.660714,13.660714 z"
         sodipodi:ry="13.660714"
         sodipodi:rx="13.660714"
         sodipodi:cy="31.660715"
         sodipodi:cx="28.303572"
         id="path2826"
         style="fill:url(#linearGradient4003);fill-opacity:1;fill-rule:nonzero;stroke:none"
         sodipodi:type="arc" />
      <g
         style="font-size:30px;font-style:italic;font-variant:normal;font-weight:normal;font-stretch:normal;fill:#1b496a;fill-opacity:1;stroke:none;font-family:Calibri;-inkscape-font-specification:'A.C.M.E. Secret Agent Italic'"
         id="g3742"
         transform="matrix(0.96243671,0,0,0.96243671,1.9674133,37.347397)">
        <path
           d="m 28.672903,1030.6968 c -1.3e-5,0.6738 -0.156263,1.2793 -0.46875,1.8164 -0.312513,0.5371 -0.800793,0.9961 -1.464844,1.3769 -0.664073,0.3809 -1.513682,0.6739 -2.548828,0.8789 -1.035164,0.2051 -2.275397,0.3077 -3.720703,0.3077 l -1.552734,0 c -0.06836,0.3222 -0.117191,0.6347 -0.146485,0.9375 -0.01953,0.3027 -0.0293,0.5859 -0.0293,0.8496 -3e-6,0.9765 0.239254,1.7236 0.717774,2.2412 0.488276,0.5176 1.274408,0.7763 2.358398,0.7763 0.624993,0 1.186516,-0.044 1.684571,-0.1318 0.498038,-0.098 0.927725,-0.2002 1.289062,-0.3076 0.371084,-0.1074 0.673818,-0.2051 0.908203,-0.293 0.234364,-0.098 0.395497,-0.1465 0.483399,-0.1465 0.08788,0 0.151356,0.034 0.190429,0.1026 0.04882,0.059 0.07323,0.1465 0.07324,0.2637 -1.2e-5,0.098 -0.0098,0.2148 -0.0293,0.3515 -0.01954,0.1367 -0.04884,0.2783 -0.08789,0.4248 -0.03907,0.1367 -0.09278,0.2686 -0.161133,0.3955 -0.0586,0.127 -0.126964,0.2344 -0.205078,0.3223 -0.117198,0.1172 -0.327159,0.2344 -0.629883,0.3516 -0.292978,0.1074 -0.644541,0.2099 -1.054687,0.3076 -0.410165,0.088 -0.859383,0.1611 -1.347656,0.2197 -0.488289,0.059 -0.97657,0.088 -1.464844,0.088 -0.869146,0 -1.630864,-0.098 -2.285156,-0.293 -0.654301,-0.1953 -1.201175,-0.4931 -1.640625,-0.8935 -0.42969,-0.4102 -0.751955,-0.918 -0.966797,-1.5235 -0.214845,-0.6054 -0.322267,-1.3183 -0.322266,-2.1386 -1e-6,-0.6348 0.05859,-1.3135 0.175781,-2.0362 0.126952,-0.7324 0.322264,-1.455 0.585938,-2.1679 0.26367,-0.7129 0.605466,-1.3965 1.02539,-2.0508 0.419919,-0.6543 0.917965,-1.2305 1.494141,-1.7285 0.585933,-0.4981 1.25976,-0.8985 2.021484,-1.2012 0.761712,-0.3027 1.621086,-0.4541 2.578125,-0.4541 0.820303,0 1.513662,0.1025 2.080079,0.3076 0.57616,0.2051 1.044909,0.4688 1.40625,0.791 0.37108,0.3223 0.639635,0.6836 0.805664,1.084 0.166002,0.3906 0.24901,0.7813 0.249023,1.1719 m -2.475586,0.2197 c -1.1e-5,-0.498 -0.195323,-0.8984 -0.585937,-1.2012 -0.390635,-0.3125 -0.947276,-0.4687 -1.669922,-0.4687 -0.634774,0 -1.196297,0.1123 -1.684571,0.3369 -0.488287,0.2149 -0.922857,0.5078 -1.303711,0.8789 -0.371099,0.3711 -0.693364,0.8057 -0.966796,1.3037 -0.263677,0.4883 -0.47852,1.0059 -0.644532,1.5527 l 1.494141,0 c 1.025384,10e-5 1.879875,-0.063 2.563477,-0.1904 0.69335,-0.1269 1.245107,-0.2978 1.655273,-0.5127 0.419912,-0.2246 0.71288,-0.4834 0.878906,-0.7763 0.175771,-0.293 0.263661,-0.6006 0.263672,-0.9229"
           id="path3744"
           style="fill:#1b496a;fill-opacity:1" />
      </g>
      <g
         transform="matrix(0.96243671,0,0,0.96243671,1.9674133,37.763027)"
         id="text3727"
         style="font-size:30px;font-style:italic;font-variant:normal;font-weight:normal;font-stretch:normal;fill:url(#linearGradient4007);fill-opacity:1;stroke:none;font-family:Calibri;-inkscape-font-specification:'A.C.M.E. Secret Agent Italic'">
        <path
           style="fill:url(#linearGradient4005);fill-opacity:1"
           id="path3732"
           d="m 28.672903,1030.6968 c -1.3e-5,0.6738 -0.156263,1.2793 -0.46875,1.8164 -0.312513,0.5371 -0.800793,0.9961 -1.464844,1.3769 -0.664073,0.3809 -1.513682,0.6739 -2.548828,0.8789 -1.035164,0.2051 -2.275397,0.3077 -3.720703,0.3077 l -1.552734,0 c -0.06836,0.3222 -0.117191,0.6347 -0.146485,0.9375 -0.01953,0.3027 -0.0293,0.5859 -0.0293,0.8496 -3e-6,0.9765 0.239254,1.7236 0.717774,2.2412 0.488276,0.5176 1.274408,0.7763 2.358398,0.7763 0.624993,0 1.186516,-0.044 1.684571,-0.1318 0.498038,-0.098 0.927725,-0.2002 1.289062,-0.3076 0.371084,-0.1074 0.673818,-0.2051 0.908203,-0.293 0.234364,-0.098 0.395497,-0.1465 0.483399,-0.1465 0.08788,0 0.151356,0.034 0.190429,0.1026 0.04882,0.059 0.07323,0.1465 0.07324,0.2637 -1.2e-5,0.098 -0.0098,0.2148 -0.0293,0.3515 -0.01954,0.1367 -0.04884,0.2783 -0.08789,0.4248 -0.03907,0.1367 -0.09278,0.2686 -0.161133,0.3955 -0.0586,0.127 -0.126964,0.2344 -0.205078,0.3223 -0.117198,0.1172 -0.327159,0.2344 -0.629883,0.3516 -0.292978,0.1074 -0.644541,0.2099 -1.054687,0.3076 -0.410165,0.088 -0.859383,0.1611 -1.347656,0.2197 -0.488289,0.059 -0.97657,0.088 -1.464844,0.088 -0.869146,0 -1.630864,-0.098 -2.285156,-0.293 -0.654301,-0.1953 -1.201175,-0.4931 -1.640625,-0.8935 -0.42969,-0.4102 -0.751955,-0.918 -0.966797,-1.5235 -0.214845,-0.6054 -0.322267,-1.3183 -0.322266,-2.1386 -1e-6,-0.6348 0.05859,-1.3135 0.175781,-2.0362 0.126952,-0.7324 0.322264,-1.455 0.585938,-2.1679 0.26367,-0.7129 0.605466,-1.3965 1.02539,-2.0508 0.419919,-0.6543 0.917965,-1.2305 1.494141,-1.7285 0.585933,-0.4981 1.25976,-0.8985 2.021484,-1.2012 0.761712,-0.3027 1.621086,-0.4541 2.578125,-0.4541 0.820303,0 1.513662,0.1025 2.080079,0.3076 0.57616,0.2051 1.044909,0.4688 1.40625,0.791 0.37108,0.3223 0.639635,0.6836 0.805664,1.084 0.166002,0.3906 0.24901,0.7813 0.249023,1.1719 m -2.475586,0.2197 c -1.1e-5,-0.498 -0.195323,-0.8984 -0.585937,-1.2012 -0.390635,-0.3125 -0.947276,-0.4687 -1.669922,-0.4687 -0.634774,0 -1.196297,0.1123 -1.684571,0.3369 -0.488287,0.2149 -0.922857,0.5078 -1.303711,0.8789 -0.371099,0.3711 -0.693364,0.8057 -0.966796,1.3037 -0.263677,0.4883 -0.47852,1.0059 -0.644532,1.5527 l 1.494141,0 c 1.025384,10e-5 1.879875,-0.063 2.563477,-0.1904 0.69335,-0.1269 1.245107,-0.2978 1.655273,-0.5127 0.419912,-0.2246 0.71288,-0.4834 0.878906,-0.7763 0.175771,-0.293 0.263661,-0.6006 0.263672,-0.9229" />
      </g>
    </g>
  </g>
</svg>
