<?xml version="1.0" encoding="UTF-8" standalone="no"?>
<!-- Created with Inkscape (http://www.inkscape.org/) -->

<svg
   xmlns:dc="http://purl.org/dc/elements/1.1/"
   xmlns:cc="http://creativecommons.org/ns#"
   xmlns:rdf="http://www.w3.org/1999/02/22-rdf-syntax-ns#"
   xmlns:svg="http://www.w3.org/2000/svg"
   xmlns="http://www.w3.org/2000/svg"
   xmlns:xlink="http://www.w3.org/1999/xlink"
   xmlns:sodipodi="http://sodipodi.sourceforge.net/DTD/sodipodi-0.dtd"
   xmlns:inkscape="http://www.inkscape.org/namespaces/inkscape"
   width="48"
   height="48"
   id="svg2"
   version="1.1"
   inkscape:version="0.47pre4 r22446"
   sodipodi:docname="preferences-desktop-accessibility2.svg">
  <defs
     id="defs4">
    <linearGradient
       id="linearGradient3679">
      <stop
         id="stop3681"
         offset="0"
         style="stop-color:#ffffff;stop-opacity:1;" />
      <stop
         id="stop3683"
         offset="1"
         style="stop-color:#000000;stop-opacity:0" />
    </linearGradient>
    <linearGradient
       id="linearGradient3665">
      <stop
         id="stop3667"
         offset="0"
         style="stop-color:#ffffff;stop-opacity:1;" />
      <stop
         id="stop3669"
         offset="1"
         style="stop-color:#dcdcdc;stop-opacity:1" />
    </linearGradient>
    <linearGradient
       id="linearGradient3635">
      <stop
         style="stop-color:#ffffff;stop-opacity:1;"
         offset="0"
         id="stop3637" />
      <stop
         style="stop-color:#dcdcdc;stop-opacity:1;"
         offset="1"
         id="stop3639" />
    </linearGradient>
    <linearGradient
       id="linearGradient3628">
      <stop
         style="stop-color:#5785a6;stop-opacity:1;"
         offset="0"
         id="stop3630" />
      <stop
         style="stop-color:#113f4c;stop-opacity:1;"
         offset="1"
         id="stop3632" />
    </linearGradient>
    <linearGradient
       id="linearGradient3632">
      <stop
         style="stop-color:#ffffff;stop-opacity:1;"
         offset="0"
         id="stop3634" />
      <stop
         style="stop-color:#f0f0f0;stop-opacity:1;"
         offset="1"
         id="stop3636" />
    </linearGradient>
    <linearGradient
       id="linearGradient3618">
      <stop
         style="stop-color:#9cc430;stop-opacity:1;"
         offset="0"
         id="stop3620" />
      <stop
         style="stop-color:#9cc430;stop-opacity:0;"
         offset="1"
         id="stop3622" />
    </linearGradient>
    <linearGradient
       id="linearGradient3723">
      <stop
         style="stop-color:#ffffff;stop-opacity:0.78431374;"
         offset="0"
         id="stop3725" />
      <stop
         style="stop-color:#ffffff;stop-opacity:0;"
         offset="1"
         id="stop3727" />
    </linearGradient>
    <linearGradient
       id="linearGradient3715">
      <stop
         style="stop-color:#99bbd4;stop-opacity:1;"
         offset="0"
         id="stop3717" />
      <stop
         style="stop-color:#5d93ba;stop-opacity:1;"
         offset="1"
         id="stop3719" />
    </linearGradient>
    <linearGradient
       id="linearGradient3707">
      <stop
         style="stop-color:#a6c4d9;stop-opacity:0.78431374;"
         offset="0"
         id="stop3709" />
      <stop
         style="stop-color:#75a3c3;stop-opacity:1;"
         offset="1"
         id="stop3711" />
    </linearGradient>
    <inkscape:perspective
       sodipodi:type="inkscape:persp3d"
       inkscape:vp_x="0 : 526.18109 : 1"
       inkscape:vp_y="0 : 1000 : 0"
       inkscape:vp_z="744.09448 : 526.18109 : 1"
       inkscape:persp3d-origin="372.04724 : 350.78739 : 1"
       id="perspective10" />
    <inkscape:perspective
       id="perspective2920"
       inkscape:persp3d-origin="0.5 : 0.33333333 : 1"
       inkscape:vp_z="1 : 0.5 : 1"
       inkscape:vp_y="0 : 1000 : 0"
       inkscape:vp_x="0 : 0.5 : 1"
       sodipodi:type="inkscape:persp3d" />
    <linearGradient
       inkscape:collect="always"
       xlink:href="#linearGradient3707"
       id="linearGradient3713"
       x1="63.765881"
       y1="949.3266"
       x2="63.765881"
       y2="1029.8864"
       gradientUnits="userSpaceOnUse"
       gradientTransform="translate(0.2341189,5.74082)" />
    <linearGradient
       inkscape:collect="always"
       xlink:href="#linearGradient3715"
       id="linearGradient3721"
       x1="63.765881"
       y1="936.95227"
       x2="63.765881"
       y2="983.41931"
       gradientUnits="userSpaceOnUse"
       gradientTransform="translate(0.2341196,6.0908086)" />
    <linearGradient
       inkscape:collect="always"
       xlink:href="#linearGradient3723"
       id="linearGradient3729"
       x1="37.375645"
       y1="948.8266"
       x2="37.375645"
       y2="1030.7611"
       gradientUnits="userSpaceOnUse"
       gradientTransform="translate(0.2341189,5.74082)" />
    <linearGradient
       inkscape:collect="always"
       xlink:href="#linearGradient3715"
       id="linearGradient3735"
       gradientUnits="userSpaceOnUse"
       gradientTransform="translate(0.2341196,6.0908086)"
       x1="63.765881"
       y1="936.95227"
       x2="63.765881"
       y2="983.41931" />
    <linearGradient
       inkscape:collect="always"
       xlink:href="#linearGradient3707"
       id="linearGradient3737"
       gradientUnits="userSpaceOnUse"
       gradientTransform="translate(0.2341189,5.74082)"
       x1="63.765881"
       y1="949.3266"
       x2="63.765881"
       y2="1029.8864" />
    <linearGradient
       inkscape:collect="always"
       xlink:href="#linearGradient3723"
       id="linearGradient3739"
       gradientUnits="userSpaceOnUse"
       gradientTransform="translate(0.2341189,5.74082)"
       x1="37.375645"
       y1="948.8266"
       x2="37.375645"
       y2="1030.7611" />
    <linearGradient
       inkscape:collect="always"
       xlink:href="#linearGradient3707"
       id="linearGradient3742"
       gradientUnits="userSpaceOnUse"
       gradientTransform="matrix(1.0066488,0,0,1.0066488,0.21965498,-1.1089658)"
       x1="63.765881"
       y1="949.3266"
       x2="63.765881"
       y2="1029.8864" />
    <linearGradient
       inkscape:collect="always"
       xlink:href="#linearGradient3723"
       id="linearGradient3744"
       gradientUnits="userSpaceOnUse"
       gradientTransform="matrix(1.0066488,0,0,1.0066488,0.21965498,-1.1089658)"
       x1="37.375645"
       y1="948.8266"
       x2="37.375645"
       y2="1030.7611" />
    <linearGradient
       inkscape:collect="always"
       xlink:href="#linearGradient3715"
       id="linearGradient3747"
       gradientUnits="userSpaceOnUse"
       gradientTransform="matrix(1.0066488,0,0,1.0066488,0.21965567,-0.75665045)"
       x1="63.765881"
       y1="936.95227"
       x2="63.765881"
       y2="983.41931" />
    <linearGradient
       inkscape:collect="always"
       xlink:href="#linearGradient3715"
       id="linearGradient3753"
       gradientUnits="userSpaceOnUse"
       gradientTransform="matrix(1.0066488,0,0,1.0066488,0.21965567,-0.75665045)"
       x1="63.765881"
       y1="936.95227"
       x2="63.765881"
       y2="983.41931" />
    <linearGradient
       inkscape:collect="always"
       xlink:href="#linearGradient3707"
       id="linearGradient3755"
       gradientUnits="userSpaceOnUse"
       gradientTransform="matrix(1.0066488,0,0,1.0066488,0.21965498,-1.1089658)"
       x1="63.765881"
       y1="949.3266"
       x2="63.765881"
       y2="1029.8864" />
    <linearGradient
       inkscape:collect="always"
       xlink:href="#linearGradient3723"
       id="linearGradient3757"
       gradientUnits="userSpaceOnUse"
       gradientTransform="matrix(1.0066488,0,0,1.0066488,0.21965498,-1.1089658)"
       x1="37.375645"
       y1="948.8266"
       x2="37.375645"
       y2="1030.7611" />
    <linearGradient
       inkscape:collect="always"
       xlink:href="#linearGradient3707"
       id="linearGradient2838"
       gradientUnits="userSpaceOnUse"
       gradientTransform="matrix(0.37749331,0,0,0.37749331,-0.07119206,657.42489)"
       x1="63.765881"
       y1="949.3266"
       x2="63.765881"
       y2="1029.8864" />
    <linearGradient
       inkscape:collect="always"
       xlink:href="#linearGradient3723"
       id="linearGradient2840"
       gradientUnits="userSpaceOnUse"
       gradientTransform="matrix(0.37749331,0,0,0.37749331,-0.07119206,657.42489)"
       x1="37.375645"
       y1="948.8266"
       x2="37.375645"
       y2="1030.7611" />
    <linearGradient
       inkscape:collect="always"
       xlink:href="#linearGradient3715"
       id="linearGradient2843"
       gradientUnits="userSpaceOnUse"
       gradientTransform="matrix(0.37749331,0,0,0.37749331,-0.0711918,657.55701)"
       x1="63.765881"
       y1="941.44623"
       x2="63.765881"
       y2="965.56183" />
    <linearGradient
       inkscape:collect="always"
       xlink:href="#linearGradient3632"
       id="linearGradient3638"
       x1="25.228586"
       y1="28.55187"
       x2="43.03125"
       y2="45.21875"
       gradientUnits="userSpaceOnUse"
       gradientTransform="translate(-61.619305,1038.2023)" />
    <linearGradient
       inkscape:collect="always"
       xlink:href="#linearGradient3628"
       id="linearGradient3634"
       x1="-57.452427"
       y1="16.937809"
       x2="-57.452427"
       y2="47.494923"
       gradientUnits="userSpaceOnUse" />
    <filter
       inkscape:collect="always"
       id="filter3641">
      <feGaussianBlur
         inkscape:collect="always"
         stdDeviation="0.30557114"
         id="feGaussianBlur3643" />
    </filter>
    <linearGradient
       inkscape:collect="always"
       xlink:href="#linearGradient3628"
       id="linearGradient3656"
       gradientUnits="userSpaceOnUse"
       x1="-57.452427"
       y1="16.937809"
       x2="-57.452427"
       y2="47.494923" />
    <linearGradient
       inkscape:collect="always"
       xlink:href="#linearGradient3628"
       id="linearGradient3663"
       gradientUnits="userSpaceOnUse"
       x1="-57.452427"
       y1="16.937809"
       x2="-57.452427"
       y2="47.494923" />
    <linearGradient
       inkscape:collect="always"
       xlink:href="#linearGradient3628"
       id="linearGradient3672"
       gradientUnits="userSpaceOnUse"
       x1="-57.452427"
       y1="16.937809"
       x2="-57.452427"
       y2="47.494923" />
    <linearGradient
       inkscape:collect="always"
       xlink:href="#linearGradient3635"
       id="linearGradient3641"
       x1="24.000004"
       y1="1020.3309"
       x2="24.000004"
       y2="1036.8722"
       gradientUnits="userSpaceOnUse"
       gradientTransform="translate(-45.714285,20.892857)" />
    <linearGradient
       gradientUnits="userSpaceOnUse"
       xlink:href="#linearGradient3400"
       id="linearGradient3406"
       y2="47.760197"
       x2="20.494444"
       y1="6.0097799"
       x1="20.494444" />
    <linearGradient
       id="linearGradient3400">
      <stop
         offset="0"
         style="stop-color:white;stop-opacity:1"
         id="stop3402" />
      <stop
         offset="1"
         style="stop-color:white;stop-opacity:0"
         id="stop3404" />
    </linearGradient>
    <linearGradient
       gradientTransform="matrix(1.017301,-0.243559,0.243559,1.017301,110.52469,-7.9553513)"
       gradientUnits="userSpaceOnUse"
       xlink:href="#linearGradient2264"
       id="linearGradient2628"
       y2="24.558243"
       x2="-91.513138"
       y1="-5.3878593"
       x1="-84.343536" />
    <linearGradient
       id="linearGradient2264">
      <stop
         offset="0"
         style="stop-color:#d7e866;stop-opacity:1"
         id="stop2266" />
      <stop
         offset="1"
         style="stop-color:#8cab2a;stop-opacity:1"
         id="stop2268" />
    </linearGradient>
    <radialGradient
       gradientTransform="matrix(1,0,0,0.536723,0,16.87306)"
       gradientUnits="userSpaceOnUse"
       xlink:href="#linearGradient8662"
       id="radialGradient1444"
       fy="36.421127"
       fx="24.837126"
       r="15.644737"
       cy="36.421127"
       cx="24.837126" />
    <linearGradient
       id="linearGradient8662">
      <stop
         offset="0"
         style="stop-color:black;stop-opacity:1"
         id="stop8664" />
      <stop
         offset="1"
         style="stop-color:black;stop-opacity:0"
         id="stop8666" />
    </linearGradient>
    <inkscape:perspective
       id="perspective2884"
       inkscape:persp3d-origin="24 : 16 : 1"
       inkscape:vp_z="48 : 24 : 1"
       inkscape:vp_y="0 : 1000 : 0"
       inkscape:vp_x="0 : 24 : 1"
       sodipodi:type="inkscape:persp3d" />
    <linearGradient
       inkscape:collect="always"
       xlink:href="#linearGradient3400"
       id="linearGradient2904"
       gradientUnits="userSpaceOnUse"
       x1="20.494444"
       y1="6.0097799"
       x2="20.494444"
       y2="47.760197"
       gradientTransform="translate(-60.365495,1002.1313)" />
    <radialGradient
       inkscape:collect="always"
       xlink:href="#linearGradient8662"
       id="radialGradient2910"
       gradientUnits="userSpaceOnUse"
       gradientTransform="matrix(1.214466,0,0,0.319596,-66.529341,1032.4912)"
       cx="24.837126"
       cy="36.421127"
       fx="24.837126"
       fy="36.421127"
       r="15.644737" />
    <linearGradient
       inkscape:collect="always"
       xlink:href="#linearGradient3635"
       id="linearGradient3661"
       x1="-48.075367"
       y1="987.02838"
       x2="-48.075367"
       y2="1015.7682"
       gradientUnits="userSpaceOnUse"
       gradientTransform="matrix(0.87165089,0,0,0.87165089,24.297797,129.40887)" />
    <linearGradient
       inkscape:collect="always"
       xlink:href="#linearGradient3635"
       id="linearGradient3664"
       x1="-47"
       y1="8.625"
       x2="-47"
       y2="31.3125"
       gradientUnits="userSpaceOnUse"
       gradientTransform="matrix(-1.1253242,0,0,1.1253242,41.324056,1008.0187)" />
    <linearGradient
       inkscape:collect="always"
       xlink:href="#linearGradient3635"
       id="linearGradient3702"
       x1="24.000004"
       y1="1014.3157"
       x2="24.000004"
       y2="1040.2357"
       gradientUnits="userSpaceOnUse" />
    <linearGradient
       gradientTransform="matrix(2.1153735,0,0,2.1153253,-107.57709,32.426559)"
       gradientUnits="userSpaceOnUse"
       xlink:href="#linearGradient4873"
       id="linearGradient2407"
       y2="5.4675598"
       x2="63.397362"
       y1="-12.489107"
       x1="63.397362" />
    <linearGradient
       id="linearGradient4873">
      <stop
         offset="0"
         style="stop-color:white;stop-opacity:1"
         id="stop4875" />
      <stop
         offset="1"
         style="stop-color:white;stop-opacity:0"
         id="stop4877" />
    </linearGradient>
    <radialGradient
       gradientTransform="matrix(0,2.2874593,-3.0194057,0,36.047437,-50.630156)"
       gradientUnits="userSpaceOnUse"
       xlink:href="#linearGradient3242-187-536"
       id="radialGradient2410"
       fy="3.9900031"
       fx="23.895569"
       r="20.397499"
       cy="3.9900031"
       cx="23.895569" />
    <linearGradient
       id="linearGradient3242-187-536">
      <stop
         offset="0"
         style="stop-color:#8badea;stop-opacity:1"
         id="stop2778" />
      <stop
         offset="0.26238"
         style="stop-color:#6396cd;stop-opacity:1"
         id="stop2780" />
      <stop
         offset="0.66093999"
         style="stop-color:#3b7caf;stop-opacity:1"
         id="stop2782" />
      <stop
         offset="1"
         style="stop-color:#194c70;stop-opacity:1"
         id="stop2784" />
    </linearGradient>
    <linearGradient
       gradientTransform="matrix(0.9584364,0,0,0.9584366,0.9975246,1.9975253)"
       gradientUnits="userSpaceOnUse"
       xlink:href="#linearGradient2490-182-124"
       id="linearGradient2412"
       y2="3.0816143"
       x2="18.379412"
       y1="44.980297"
       x1="18.379412" />
    <linearGradient
       id="linearGradient2490-182-124">
      <stop
         offset="0"
         style="stop-color:#1f4b6a;stop-opacity:1"
         id="stop2788" />
      <stop
         offset="1"
         style="stop-color:#4083c2;stop-opacity:1"
         id="stop2790" />
    </linearGradient>
    <radialGradient
       gradientTransform="matrix(2.1647059,0,0,0.7529402,-111.56471,36.517647)"
       gradientUnits="userSpaceOnUse"
       xlink:href="#linearGradient8838"
       id="radialGradient2415"
       fy="4.625"
       fx="62.625"
       r="10.625"
       cy="4.625"
       cx="62.625" />
    <linearGradient
       id="linearGradient8838">
      <stop
         offset="0"
         style="stop-color:black;stop-opacity:1"
         id="stop8840" />
      <stop
         offset="1"
         style="stop-color:black;stop-opacity:0"
         id="stop8842" />
    </linearGradient>
    <inkscape:perspective
       id="perspective2919"
       inkscape:persp3d-origin="24 : 16 : 1"
       inkscape:vp_z="48 : 24 : 1"
       inkscape:vp_y="0 : 1000 : 0"
       inkscape:vp_x="0 : 24 : 1"
       sodipodi:type="inkscape:persp3d" />
    <linearGradient
       inkscape:collect="always"
       xlink:href="#linearGradient4873"
       id="linearGradient2949"
       gradientUnits="userSpaceOnUse"
       gradientTransform="matrix(2.1153735,0,0,2.1153253,-164.81713,1031.8657)"
       x1="63.397362"
       y1="-12.489107"
       x2="63.397362"
       y2="5.4675598" />
    <radialGradient
       inkscape:collect="always"
       xlink:href="#linearGradient3242-187-536"
       id="radialGradient2952"
       gradientUnits="userSpaceOnUse"
       gradientTransform="matrix(0,2.2874593,-3.0194057,0,-21.1926,948.80899)"
       cx="23.895569"
       cy="3.9900031"
       fx="23.895569"
       fy="3.9900031"
       r="20.397499" />
    <linearGradient
       inkscape:collect="always"
       xlink:href="#linearGradient2490-182-124"
       id="linearGradient2954"
       gradientUnits="userSpaceOnUse"
       gradientTransform="matrix(0.9584364,0,0,0.9584366,-56.242512,1001.4367)"
       x1="18.379412"
       y1="44.980297"
       x2="18.379412"
       y2="3.0816143" />
    <radialGradient
       inkscape:collect="always"
       xlink:href="#linearGradient8838"
       id="radialGradient2957"
       gradientUnits="userSpaceOnUse"
       gradientTransform="matrix(2.1647059,0,0,0.7529402,-168.80475,1035.9568)"
       cx="62.625"
       cy="4.625"
       fx="62.625"
       fy="4.625"
       r="10.625" />
    <linearGradient
       inkscape:collect="always"
       xlink:href="#linearGradient3635"
       id="linearGradient2959"
       gradientUnits="userSpaceOnUse"
       x1="24.000004"
       y1="1014.3157"
       x2="24.000004"
       y2="1040.2357" />
    <linearGradient
       inkscape:collect="always"
       xlink:href="#linearGradient3635"
       id="linearGradient3740"
       x1="24.000004"
       y1="1014.2758"
       x2="24.000004"
       y2="1040.2758"
       gradientUnits="userSpaceOnUse" />
    <linearGradient
       inkscape:collect="always"
       xlink:href="#linearGradient3635"
       id="linearGradient3751"
       gradientUnits="userSpaceOnUse"
       x1="24.000004"
       y1="1014.2758"
       x2="24.000004"
       y2="1040.2758"
       gradientTransform="matrix(1.0652175,0,0,1.0652175,-1.5652197,-66.99637)" />
    <linearGradient
       inkscape:collect="always"
       xlink:href="#linearGradient3628"
       id="linearGradient2919"
       gradientUnits="userSpaceOnUse"
       x1="-57.452427"
       y1="16.937809"
       x2="-57.452427"
       y2="47.494923" />
    <linearGradient
       inkscape:collect="always"
       xlink:href="#linearGradient3635"
       id="linearGradient2921"
       gradientUnits="userSpaceOnUse"
       gradientTransform="matrix(1.0652175,0,0,1.0652175,-1.5652197,-66.99637)"
       x1="24.000004"
       y1="1014.2758"
       x2="24.000004"
       y2="1040.2758" />
    <linearGradient
       inkscape:collect="always"
       xlink:href="#linearGradient3635"
       id="linearGradient2924"
       gradientUnits="userSpaceOnUse"
       gradientTransform="matrix(1.1203181,0,0,1.1203181,-2.8876386,-123.65609)"
       x1="24.000004"
       y1="1014.2758"
       x2="24.000004"
       y2="1040.2758" />
    <linearGradient
       inkscape:collect="always"
       xlink:href="#linearGradient3628"
       id="linearGradient2932"
       gradientUnits="userSpaceOnUse"
       x1="-57.452427"
       y1="16.937809"
       x2="-57.452427"
       y2="47.494923"
       gradientTransform="matrix(1.3070279,0,0,1.3070279,99.091921,-19.25035)" />
    <linearGradient
       inkscape:collect="always"
       xlink:href="#linearGradient3628"
       id="linearGradient2936"
       gradientUnits="userSpaceOnUse"
       x1="-57.452427"
       y1="16.937809"
       x2="-57.452427"
       y2="47.494923" />
    <linearGradient
       inkscape:collect="always"
       xlink:href="#linearGradient3635"
       id="linearGradient3711"
       gradientUnits="userSpaceOnUse"
       gradientTransform="matrix(1.3070279,0,0,1.3070279,99.091921,-19.25035)"
       x1="-57.452427"
       y1="16.937809"
       x2="-57.452427"
       y2="47.494923" />
  </defs>
  <sodipodi:namedview
     id="base"
     pagecolor="#ffffff"
     bordercolor="#666666"
     borderopacity="1.0"
     inkscape:pageopacity="0.0"
     inkscape:pageshadow="2"
     inkscape:zoom="2.8"
     inkscape:cx="-13.421839"
     inkscape:cy="13.490093"
     inkscape:document-units="px"
     inkscape:current-layer="layer1"
     showgrid="false"
     showguides="true"
     inkscape:guide-bbox="true"
     inkscape:window-width="1280"
     inkscape:window-height="714"
     inkscape:window-x="0"
     inkscape:window-y="25"
     inkscape:window-maximized="1" />
  <metadata
     id="metadata7">
    <rdf:RDF>
      <cc:Work
         rdf:about="">
        <dc:format>image/svg+xml</dc:format>
        <dc:type
           rdf:resource="http://purl.org/dc/dcmitype/StillImage" />
        <dc:title />
      </cc:Work>
    </rdf:RDF>
  </metadata>
  <g
     inkscape:label="Livello 1"
     inkscape:groupmode="layer"
     id="layer1"
     transform="translate(0,-1004.3622)">
    <path
       transform="matrix(1.4052025,0,0,1.4052025,104.73229,983.20381)"
       d="m -42.17387,32.216366 a 15.278557,15.278557 0 1 1 -30.557114,0 15.278557,15.278557 0 1 1 30.557114,0 z"
       sodipodi:ry="15.278557"
       sodipodi:rx="15.278557"
       sodipodi:cy="32.216366"
       sodipodi:cx="-57.452427"
       id="path3636"
       style="fill:#333333;fill-opacity:0.78431373;stroke:none;filter:url(#filter3641)"
       sodipodi:type="arc" />
    <path
       sodipodi:type="arc"
       style="fill:url(#linearGradient2919);fill-opacity:1;stroke:none"
       id="path3622"
       sodipodi:cx="-57.452427"
       sodipodi:cy="32.216366"
       sodipodi:rx="15.278557"
       sodipodi:ry="15.278557"
       d="m -42.17387,32.216366 a 15.278557,15.278557 0 1 1 -30.557114,0 15.278557,15.278557 0 1 1 30.557114,0 z"
       transform="matrix(1.4052025,0,0,1.4052025,104.73229,981.94902)" />
    <path
       style="fill:#7fadce;fill-opacity:1;stroke:none"
       id="path3758"
       d="m 27.485865,1016.3665 c 0,1.8412 -1.491115,3.3355 -3.328381,3.3355 -1.837269,0 -3.328384,-1.4943 -3.328384,-3.3355 0,-1.8412 1.491115,-3.3354 3.328384,-3.3354 1.837266,0 3.328381,1.4942 3.328381,3.3354 z m 8.30718,3.5466 c -0.153943,0.024 -0.299406,0.086 -0.424078,0.1775 l -11.369311,1.7767 -11.308078,-1.8011 c -0.292315,-0.2126 -0.703294,-0.2762 -1.029921,-0.1184 -0.326628,0.1577 -0.540755,0.5315 -0.545258,0.8873 -0.0041,0.3559 0.222691,0.6627 0.545258,0.8282 l 8.860981,2.8169 -0.06061,6.4666 -3.126683,9.6851 c -0.301138,0.4408 -0.209354,1.0073 0.242337,1.3013 0.451712,0.2941 1.092279,0.2044 1.393447,-0.2366 l 5.045837,-10.4539 4.950589,10.4358 c 0.267693,0.4574 0.864413,0.6163 1.332853,0.355 0.468441,-0.2614 0.631188,-0.8441 0.363505,-1.3015 l -3.068644,-9.7266 -0.121148,-6.0879 8.985313,-3.2889 c 0.363043,-0.2485 0.52076,-0.7192 0.363518,-1.1239 -0.157255,-0.4049 -0.589403,-0.6407 -1.029942,-0.5916 l 3e-5,0 z" />
    <path
       style="fill:#1b496a;fill-opacity:1;stroke:none"
       id="path3753"
       d="m 27.485865,1015.6152 c 0,1.8411 -1.491115,3.3354 -3.328381,3.3354 -1.837269,0 -3.328384,-1.4943 -3.328384,-3.3354 0,-1.8413 1.491115,-3.3355 3.328384,-3.3355 1.837266,0 3.328381,1.4942 3.328381,3.3355 z m 8.30718,3.5466 c -0.153943,0.024 -0.299406,0.086 -0.424078,0.1774 l -11.369311,1.7767 -11.308078,-1.8011 c -0.292315,-0.2125 -0.703294,-0.2762 -1.029921,-0.1184 -0.326628,0.1578 -0.540755,0.5315 -0.545258,0.8873 -0.0041,0.3559 0.222691,0.6627 0.545258,0.8283 l 8.860981,2.8168 -0.06061,6.4667 -3.126683,9.685 c -0.301138,0.4409 -0.209354,1.0073 0.242337,1.3013 0.451712,0.2942 1.092279,0.2045 1.393447,-0.2365 l 5.045837,-10.454 4.950589,10.4359 c 0.267693,0.4574 0.864413,0.6163 1.332853,0.3549 0.468441,-0.2613 0.631188,-0.8441 0.363505,-1.3015 l -3.068644,-9.7266 -0.121148,-6.0879 8.985313,-3.2888 c 0.363043,-0.2486 0.52076,-0.7192 0.363518,-1.1239 -0.157255,-0.4049 -0.589403,-0.6407 -1.029942,-0.5916 l 3e-5,0 z" />
    <path
       d="m 27.485865,1015.9908 c 0,1.8412 -1.491115,3.3355 -3.328381,3.3355 -1.837269,0 -3.328384,-1.4943 -3.328384,-3.3355 0,-1.8412 1.491115,-3.3354 3.328384,-3.3354 1.837266,0 3.328381,1.4942 3.328381,3.3354 z m 8.30718,3.5467 c -0.153943,0.024 -0.299406,0.086 -0.424078,0.1774 l -11.369311,1.7767 -11.308078,-1.8011 c -0.292315,-0.2126 -0.703294,-0.2762 -1.029921,-0.1184 -0.326628,0.1577 -0.540755,0.5315 -0.545258,0.8873 -0.0041,0.3559 0.222691,0.6627 0.545258,0.8283 l 8.860981,2.8168 -0.06061,6.4666 -3.126683,9.6851 c -0.301138,0.4409 -0.209354,1.0073 0.242337,1.3013 0.451712,0.2942 1.092279,0.2044 1.393447,-0.2366 l 5.045837,-10.4539 4.950589,10.4359 c 0.267693,0.4574 0.864413,0.6163 1.332853,0.3549 0.468441,-0.2613 0.631188,-0.8441 0.363505,-1.3015 l -3.068644,-9.7266 -0.121148,-6.0879 8.985313,-3.2889 c 0.363043,-0.2485 0.52076,-0.7191 0.363518,-1.1238 -0.157255,-0.4049 -0.589403,-0.6407 -1.029942,-0.5916 l 3e-5,0 z"
       id="path6668"
       style="fill:url(#linearGradient2924);fill-opacity:1;stroke:none" />
    <path
       id="path3718"
       d="m 24,1007.5944 c -11.02885,0 -19.96875,8.9399 -19.96875,19.9687 0,11.0289 8.9399,19.9688 19.96875,19.9688 11.02885,0 19.96875,-8.9399 19.96875,-19.9688 0,-11.0288 -8.9399,-19.9687 -19.96875,-19.9687 z m 0,2 c 9.924281,0 17.96875,8.0444 17.96875,17.9687 0,9.9243 -8.044469,17.9688 -17.96875,17.9688 -9.924281,0 -17.96875,-8.0445 -17.96875,-17.9688 0,-9.9243 8.044469,-17.9687 17.96875,-17.9687 z"
       style="fill:#7fadce;fill-opacity:1;stroke:none" />
    <path
       id="path3713"
       d="m 24,1006.88 c -11.02885,0 -19.96875,8.9399 -19.96875,19.9688 0,11.0288 8.9399,19.9687 19.96875,19.9687 11.02885,0 19.96875,-8.9399 19.96875,-19.9687 0,-11.0289 -8.9399,-19.9688 -19.96875,-19.9688 z m 0,2 c 9.924281,0 17.96875,8.0445 17.96875,17.9688 0,9.9243 -8.044469,17.9687 -17.96875,17.9687 -9.924281,0 -17.96875,-8.0444 -17.96875,-17.9687 0,-9.9243 8.044469,-17.9688 17.96875,-17.9688 z"
       style="fill:#1b496a;fill-opacity:1;stroke:none" />
    <path
       style="fill:url(#linearGradient3711);fill-opacity:1;stroke:none"
       d="M 24 2.875 C 12.97115 2.875 4.03125 11.8149 4.03125 22.84375 C 4.03125 33.8726 12.97115 42.8125 24 42.8125 C 35.02885 42.8125 43.96875 33.8726 43.96875 22.84375 C 43.96875 11.8149 35.02885 2.875 24 2.875 z M 24 4.875 C 33.924281 4.875 41.96875 12.919469 41.96875 22.84375 C 41.96875 32.768031 33.924281 40.8125 24 40.8125 C 14.075719 40.8125 6.03125 32.768031 6.03125 22.84375 C 6.03125 12.919469 14.075719 4.875 24 4.875 z "
       transform="translate(0,1004.3622)"
       id="path2930" />
  </g>
</svg>
