<?xml version="1.0" encoding="UTF-8" standalone="no"?>
<!-- Created with Inkscape (http://www.inkscape.org/) -->

<svg
   xmlns:dc="http://purl.org/dc/elements/1.1/"
   xmlns:cc="http://creativecommons.org/ns#"
   xmlns:rdf="http://www.w3.org/1999/02/22-rdf-syntax-ns#"
   xmlns:svg="http://www.w3.org/2000/svg"
   xmlns="http://www.w3.org/2000/svg"
   xmlns:xlink="http://www.w3.org/1999/xlink"
   xmlns:sodipodi="http://sodipodi.sourceforge.net/DTD/sodipodi-0.dtd"
   xmlns:inkscape="http://www.inkscape.org/namespaces/inkscape"
   width="48"
   height="48"
   id="svg2"
   version="1.1"
   inkscape:version="0.47pre4 r22446"
   sodipodi:docname="wmtweaks.svg"
   inkscape:export-filename="/home/andrea/.icons/MeliaeSVG/scalable/apps/png/wmtweaks.png"
   inkscape:export-xdpi="240"
   inkscape:export-ydpi="240">
  <defs
     id="defs4">
    <linearGradient
       id="linearGradient4006">
      <stop
         style="stop-color:#ffff00;stop-opacity:0;"
         offset="0"
         id="stop4008" />
      <stop
         id="stop4016"
         offset="0.32673293"
         style="stop-color:#ffff00;stop-opacity:0.58823532;" />
      <stop
         id="stop4014"
         offset="0.69011283"
         style="stop-color:#ffff00;stop-opacity:0.58823532;" />
      <stop
         style="stop-color:#ffff00;stop-opacity:0;"
         offset="1"
         id="stop4010" />
    </linearGradient>
    <linearGradient
       id="linearGradient3976">
      <stop
         style="stop-color:#ffff00;stop-opacity:1;"
         offset="0"
         id="stop3978" />
      <stop
         style="stop-color:#ffffff;stop-opacity:0;"
         offset="1"
         id="stop3980" />
    </linearGradient>
    <linearGradient
       id="linearGradient3688">
      <stop
         id="stop3690"
         offset="0"
         style="stop-color:#969696;stop-opacity:1;" />
      <stop
         style="stop-color:#dcdcdc;stop-opacity:1;"
         offset="0.54296869"
         id="stop3692" />
      <stop
         style="stop-color:#f0f0f0;stop-opacity:1;"
         offset="0.75390619"
         id="stop3694" />
      <stop
         id="stop3696"
         offset="1"
         style="stop-color:#969696;stop-opacity:1;" />
    </linearGradient>
    <linearGradient
       id="linearGradient3666">
      <stop
         style="stop-color:#141414;stop-opacity:1;"
         offset="0"
         id="stop3676" />
      <stop
         id="stop3679"
         offset="1"
         style="stop-color:#141414;stop-opacity:0;" />
    </linearGradient>
    <linearGradient
       id="linearGradient3652">
      <stop
         style="stop-color:#141414;stop-opacity:1;"
         offset="0"
         id="stop3654" />
      <stop
         id="stop3662"
         offset="0.54296869"
         style="stop-color:#505050;stop-opacity:1;" />
      <stop
         id="stop3660"
         offset="0.75390619"
         style="stop-color:#969696;stop-opacity:1;" />
      <stop
         style="stop-color:#141414;stop-opacity:1;"
         offset="1"
         id="stop3656" />
    </linearGradient>
    <linearGradient
       id="linearGradient3711">
      <stop
         style="stop-color:#333333;stop-opacity:0.58823532;"
         offset="0"
         id="stop3713" />
      <stop
         style="stop-color:#333333;stop-opacity:0;"
         offset="1"
         id="stop3715" />
    </linearGradient>
    <linearGradient
       id="linearGradient3695">
      <stop
         style="stop-color:#f0f0f0;stop-opacity:0;"
         offset="0"
         id="stop3697" />
      <stop
         id="stop3705"
         offset="0.34188393"
         style="stop-color:#f0f0f0;stop-opacity:1;" />
      <stop
         id="stop3703"
         offset="0.67178303"
         style="stop-color:#f0f0f0;stop-opacity:1;" />
      <stop
         style="stop-color:#f0f0f0;stop-opacity:0;"
         offset="1"
         id="stop3699" />
    </linearGradient>
    <linearGradient
       id="linearGradient3661">
      <stop
         style="stop-color:#787878;stop-opacity:1;"
         offset="0"
         id="stop3663" />
      <stop
         id="stop3671"
         offset="0.17399774"
         style="stop-color:#a0a0a0;stop-opacity:1;" />
      <stop
         style="stop-color:#c8c8c8;stop-opacity:1;"
         offset="0.29868144"
         id="stop3675" />
      <stop
         id="stop3669"
         offset="0.52323002"
         style="stop-color:#e6e6e6;stop-opacity:1;" />
      <stop
         style="stop-color:#c8c8c8;stop-opacity:1;"
         offset="0.58562994"
         id="stop3691" />
      <stop
         style="stop-color:#787878;stop-opacity:1;"
         offset="0.69511706"
         id="stop3673" />
      <stop
         id="stop3707"
         offset="0.85992652"
         style="stop-color:#787878;stop-opacity:1;" />
      <stop
         style="stop-color:#646464;stop-opacity:1;"
         offset="1"
         id="stop3665" />
    </linearGradient>
    <linearGradient
       id="linearGradient3600">
      <stop
         style="stop-color:#ffffff;stop-opacity:0.39215687;"
         offset="0"
         id="stop3602" />
      <stop
         style="stop-color:#ffffff;stop-opacity:0;"
         offset="1"
         id="stop3604" />
    </linearGradient>
    <linearGradient
       id="linearGradient3676">
      <stop
         style="stop-color:#b73a00;stop-opacity:1;"
         offset="0"
         id="stop3678" />
      <stop
         style="stop-color:#fd8011;stop-opacity:1;"
         offset="1"
         id="stop3680" />
    </linearGradient>
    <linearGradient
       id="linearGradient3668">
      <stop
         style="stop-color:#828282;stop-opacity:1;"
         offset="0"
         id="stop3670" />
      <stop
         style="stop-color:#c8c8c8;stop-opacity:1;"
         offset="1"
         id="stop3672" />
    </linearGradient>
    <inkscape:perspective
       sodipodi:type="inkscape:persp3d"
       inkscape:vp_x="0 : 526.18109 : 1"
       inkscape:vp_y="0 : 1000 : 0"
       inkscape:vp_z="744.09448 : 526.18109 : 1"
       inkscape:persp3d-origin="372.04724 : 350.78739 : 1"
       id="perspective10" />
    <inkscape:perspective
       id="perspective2881"
       inkscape:persp3d-origin="0.5 : 0.33333333 : 1"
       inkscape:vp_z="1 : 0.5 : 1"
       inkscape:vp_y="0 : 1000 : 0"
       inkscape:vp_x="0 : 0.5 : 1"
       sodipodi:type="inkscape:persp3d" />
    <linearGradient
       inkscape:collect="always"
       xlink:href="#linearGradient3668"
       id="linearGradient3734"
       gradientUnits="userSpaceOnUse"
       x1="10.606602"
       y1="1048.6774"
       x2="53.159523"
       y2="1073.3229" />
    <linearGradient
       inkscape:collect="always"
       xlink:href="#linearGradient3600"
       id="linearGradient3736"
       gradientUnits="userSpaceOnUse"
       x1="55.192322"
       y1="1023.1374"
       x2="27.566288"
       y2="1070.9871" />
    <linearGradient
       inkscape:collect="always"
       xlink:href="#linearGradient3676"
       id="linearGradient3738"
       gradientUnits="userSpaceOnUse"
       gradientTransform="matrix(0.98311298,0,0,0.98311298,1.1944185,49.183653)"
       x1="39.016552"
       y1="1033.1963"
       x2="9.1951256"
       y2="1016.9733" />
    <linearGradient
       inkscape:collect="always"
       xlink:href="#linearGradient3695"
       id="linearGradient3743"
       gradientUnits="userSpaceOnUse"
       gradientTransform="matrix(1,0,0,0.81143819,-3.7835692e-8,1011.5591)"
       x1="16.071428"
       y1="41.57143"
       x2="31.875"
       y2="41.57143" />
    <linearGradient
       inkscape:collect="always"
       xlink:href="#linearGradient3661"
       id="linearGradient3752"
       gradientUnits="userSpaceOnUse"
       x1="24"
       y1="36.65625"
       x2="24"
       y2="43.589287"
       gradientTransform="translate(-3.7835692e-8,1003.5048)" />
    <radialGradient
       inkscape:collect="always"
       xlink:href="#linearGradient3711"
       id="radialGradient3755"
       gradientUnits="userSpaceOnUse"
       gradientTransform="matrix(1,0,0,0.05882353,0,39.462183)"
       cx="26.964285"
       cy="41.92857"
       fx="26.964285"
       fy="41.92857"
       r="18.214285" />
    <inkscape:perspective
       id="perspective3925"
       inkscape:persp3d-origin="200.87007 : 162.74409 : 1"
       inkscape:vp_z="401.74014 : 244.11613 : 1"
       inkscape:vp_y="0 : 1000 : 0"
       inkscape:vp_x="0 : 244.11613 : 1"
       sodipodi:type="inkscape:persp3d" />
    <linearGradient
       inkscape:collect="always"
       xlink:href="#linearGradient3676"
       id="linearGradient3653"
       gradientUnits="userSpaceOnUse"
       gradientTransform="matrix(0.98311298,0,0,0.98311298,-0.1226529,16.32623)"
       x1="39.016552"
       y1="1033.1963"
       x2="9.1951256"
       y2="1016.9733" />
    <linearGradient
       inkscape:collect="always"
       xlink:href="#linearGradient3600"
       id="linearGradient3657"
       gradientUnits="userSpaceOnUse"
       x1="55.192322"
       y1="1023.1374"
       x2="27.566288"
       y2="1070.9871"
       gradientTransform="translate(-1.3170714,-32.857423)" />
    <linearGradient
       inkscape:collect="always"
       xlink:href="#linearGradient3668"
       id="linearGradient3662"
       gradientUnits="userSpaceOnUse"
       x1="25.317072"
       y1="1033.4746"
       x2="25.317072"
       y2="1073.3229"
       gradientTransform="translate(-1.3170714,-32.857423)" />
    <linearGradient
       inkscape:collect="always"
       xlink:href="#linearGradient3652"
       id="linearGradient3731"
       gradientUnits="userSpaceOnUse"
       x1="-14.495688"
       y1="1034.1247"
       x2="-11.295688"
       y2="1034.1247" />
    <linearGradient
       inkscape:collect="always"
       xlink:href="#linearGradient3666"
       id="linearGradient3733"
       gradientUnits="userSpaceOnUse"
       gradientTransform="translate(-4.4849866e-7,0.99986184)"
       x1="-12.895688"
       y1="1051.1248"
       x2="-12.895688"
       y2="1030.8748" />
    <linearGradient
       inkscape:collect="always"
       xlink:href="#linearGradient3688"
       id="linearGradient3735"
       gradientUnits="userSpaceOnUse"
       gradientTransform="matrix(1,0,0,0.23050148,0,782.67595)"
       x1="-14.495688"
       y1="1034.1248"
       x2="-11.295688"
       y2="1034.1248" />
    <linearGradient
       inkscape:collect="always"
       xlink:href="#linearGradient3711"
       id="linearGradient3744"
       x1="76.365128"
       y1="41.92857"
       x2="4.0415573"
       y2="41.92857"
       gradientUnits="userSpaceOnUse" />
    <radialGradient
       inkscape:collect="always"
       xlink:href="#linearGradient3976"
       id="radialGradient3982"
       cx="28.312498"
       cy="17.812502"
       fx="28.312498"
       fy="17.812502"
       r="8.6875"
       gradientUnits="userSpaceOnUse" />
    <linearGradient
       inkscape:collect="always"
       xlink:href="#linearGradient4006"
       id="linearGradient4012"
       x1="4.6738548"
       y1="1022.942"
       x2="30.673855"
       y2="1019.6122"
       gradientUnits="userSpaceOnUse" />
  </defs>
  <sodipodi:namedview
     id="base"
     pagecolor="#ffffff"
     bordercolor="#666666"
     borderopacity="1.0"
     inkscape:pageopacity="0.0"
     inkscape:pageshadow="2"
     inkscape:zoom="4.0000002"
     inkscape:cx="8.3378632"
     inkscape:cy="30.093233"
     inkscape:document-units="px"
     inkscape:current-layer="layer1"
     showgrid="false"
     showguides="true"
     inkscape:guide-bbox="true"
     inkscape:window-width="1280"
     inkscape:window-height="714"
     inkscape:window-x="0"
     inkscape:window-y="25"
     inkscape:window-maximized="1" />
  <metadata
     id="metadata7">
    <rdf:RDF>
      <cc:Work
         rdf:about="">
        <dc:format>image/svg+xml</dc:format>
        <dc:type
           rdf:resource="http://purl.org/dc/dcmitype/StillImage" />
        <dc:title></dc:title>
      </cc:Work>
    </rdf:RDF>
  </metadata>
  <g
     inkscape:label="Livello 1"
     inkscape:groupmode="layer"
     id="layer1"
     transform="translate(0,-1004.3622)">
    <path
       transform="matrix(0.57583365,0,0,0.82322339,16.409795,1015.1478)"
       d="m 45.17857,41.92857 c 0,0.591733 -8.154813,1.071428 -18.214285,1.071428 C 16.904813,42.999998 8.75,42.520303 8.75,41.92857 c 0,-0.591734 8.154813,-1.071429 18.214285,-1.071429 10.059472,0 18.214285,0.479695 18.214285,1.071429 z"
       sodipodi:ry="1.0714285"
       sodipodi:rx="18.214285"
       sodipodi:cy="41.92857"
       sodipodi:cx="26.964285"
       id="path3737"
       style="fill:url(#linearGradient3744);fill-opacity:1;stroke:none"
       sodipodi:type="arc" />
    <path
       sodipodi:type="arc"
       style="fill:url(#radialGradient3755);fill-opacity:1;stroke:none"
       id="path3709"
       sodipodi:cx="26.964285"
       sodipodi:cy="41.92857"
       sodipodi:rx="18.214285"
       sodipodi:ry="1.0714285"
       d="m 45.17857,41.92857 c 0,0.591733 -8.154813,1.071428 -18.214285,1.071428 C 16.904813,42.999998 8.75,42.520303 8.75,41.92857 c 0,-0.591734 8.154813,-1.071429 18.214285,-1.071429 10.059472,0 18.214285,0.479695 18.214285,1.071429 z"
       transform="matrix(1.131716,0,0,1.2357023,-6.5159126,993.85307)" />
    <path
       style="fill:url(#linearGradient3752);fill-opacity:1;stroke:none"
       d="m 17.875,1040.1611 c 0,1.7887 -0.512914,4.0312 -1.59375,4.0312 -0.277,0 -0.5,0.223 -0.5,0.5 l 0,0.875 c 0,0.277 0.223,0.5 0.5,0.5 l 15.4375,0 c 0.277,0 0.5,-0.223 0.5,-0.5 l 0,-0.875 c 0,-0.277 -0.223,-0.5 -0.5,-0.5 -1.491779,0.011 -1.59375,-2.5216 -1.59375,-4.0312 l -12.25,0 z"
       id="rect3654" />
    <rect
       style="fill:url(#linearGradient3662);fill-opacity:1;stroke:none"
       id="rect3608"
       width="43.057999"
       height="30.603001"
       x="2.4710007"
       y="1009.8624"
       rx="1"
       ry="1" />
    <rect
       style="fill:#333333;fill-opacity:1;stroke:none"
       id="rect3610"
       width="41.368999"
       height="27.504999"
       x="3.3155003"
       y="1010.6246"
       rx="1"
       ry="1" />
    <path
       style="fill:url(#linearGradient3657);fill-opacity:1;stroke:none"
       d="m 35.882768,1010.6247 7.801732,0 c 0.554,0 1,0.446 1,1 l 0,25.505 c 0,0.554 -0.446,1 -1,1 l -22.701482,0 14.89975,-27.505 z"
       id="rect3620"
       sodipodi:nodetypes="ccccccc" />
    <rect
       y="1011.3822"
       x="4.2064247"
       height="25.989763"
       width="39.587151"
       id="rect3637"
       style="fill:#000000;fill-opacity:1;stroke:none" />
    <rect
       style="fill:url(#linearGradient3653);fill-opacity:1;stroke:none"
       id="rect3633"
       width="38.65229"
       height="24.87565"
       x="4.6738548"
       y="1011.9392" />
    <rect
       style="fill:url(#linearGradient3743);fill-opacity:1;stroke:none"
       id="rect3693"
       width="15.803572"
       height="1.0867476"
       x="16.071428"
       y="1044.7484" />
    <g
       transform="matrix(0.01310146,0,0,0.01310146,23.369755,1038.4939)"
       style="fill:#dcdcdc;fill-opacity:1;fill-rule:nonzero;stroke:none"
       id="g3993">
      <g
         style="fill:#dcdcdc;fill-opacity:1"
         id="g3995">
        <path
           d="M 86.068,0 C 61.466,0 56.851,35.041 70.691,35.041 84.529,35.041 110.671,0 86.068,0 z"
           style="fill:#dcdcdc;fill-opacity:1"
           id="path3997" />
        <path
           d="M 45.217,30.699 C 52.586,31.149 60.671,2.577 46.821,4.374 32.976,6.171 37.845,30.249 45.217,30.699 z"
           style="fill:#dcdcdc;fill-opacity:1"
           id="path3999" />
        <path
           d="M 11.445,48.453 C 16.686,46.146 12.12,23.581 3.208,29.735 -5.7,35.89 6.204,50.759 11.445,48.453 z"
           style="fill:#dcdcdc;fill-opacity:1"
           id="path4001" />
        <path
           d="M 26.212,36.642 C 32.451,35.37 32.793,9.778 21.667,14.369 10.539,18.961 19.978,37.916 26.212,36.642 l 0,0 z"
           style="fill:#dcdcdc;fill-opacity:1"
           id="path4003" />
        <path
           d="m 58.791,93.913 c 1.107,8.454 -6.202,12.629 -13.36,7.179 C 22.644,83.743 83.16,75.088 79.171,51.386 75.86,31.712 15.495,37.769 8.621,68.553 3.968,89.374 27.774,118.26 52.614,118.26 c 12.22,0 26.315,-11.034 28.952,-25.012 C 83.58,82.589 57.867,86.86 58.791,93.913 l 0,0 z"
           style="fill:#dcdcdc;fill-opacity:1"
           id="path4005" />
      </g>
    </g>
    <g
       transform="matrix(0.01310146,0,0,0.01310146,23.369755,1038.4476)"
       style="fill:#505050;fill-opacity:1;fill-rule:nonzero;stroke:none"
       id="g3979">
      <g
         style="fill:#505050;fill-opacity:1"
         id="g3981">
        <path
           d="M 86.068,0 C 61.466,0 56.851,35.041 70.691,35.041 84.529,35.041 110.671,0 86.068,0 z"
           style="fill:#505050;fill-opacity:1"
           id="path3983" />
        <path
           d="M 45.217,30.699 C 52.586,31.149 60.671,2.577 46.821,4.374 32.976,6.171 37.845,30.249 45.217,30.699 z"
           style="fill:#505050;fill-opacity:1"
           id="path3985" />
        <path
           d="M 11.445,48.453 C 16.686,46.146 12.12,23.581 3.208,29.735 -5.7,35.89 6.204,50.759 11.445,48.453 z"
           style="fill:#505050;fill-opacity:1"
           id="path3987" />
        <path
           d="M 26.212,36.642 C 32.451,35.37 32.793,9.778 21.667,14.369 10.539,18.961 19.978,37.916 26.212,36.642 l 0,0 z"
           style="fill:#505050;fill-opacity:1"
           id="path3989" />
        <path
           d="m 58.791,93.913 c 1.107,8.454 -6.202,12.629 -13.36,7.179 C 22.644,83.743 83.16,75.088 79.171,51.386 75.86,31.712 15.495,37.769 8.621,68.553 3.968,89.374 27.774,118.26 52.614,118.26 c 12.22,0 26.315,-11.034 28.952,-25.012 C 83.58,82.589 57.867,86.86 58.791,93.913 l 0,0 z"
           style="fill:#505050;fill-opacity:1"
           id="path3991" />
      </g>
    </g>
    <g
       id="g3771"
       style="fill:#787878;fill-opacity:1;fill-rule:nonzero;stroke:none"
       transform="matrix(0.01310146,0,0,0.01310146,23.369755,1038.4727)">
      <g
         id="g3773"
         style="fill:#787878;fill-opacity:1">
        <path
           id="path3775"
           style="fill:#787878;fill-opacity:1"
           d="M 86.068,0 C 61.466,0 56.851,35.041 70.691,35.041 84.529,35.041 110.671,0 86.068,0 z" />
        <path
           id="path3777"
           style="fill:#787878;fill-opacity:1"
           d="M 45.217,30.699 C 52.586,31.149 60.671,2.577 46.821,4.374 32.976,6.171 37.845,30.249 45.217,30.699 z" />
        <path
           id="path3779"
           style="fill:#787878;fill-opacity:1"
           d="M 11.445,48.453 C 16.686,46.146 12.12,23.581 3.208,29.735 -5.7,35.89 6.204,50.759 11.445,48.453 z" />
        <path
           id="path3781"
           style="fill:#787878;fill-opacity:1"
           d="M 26.212,36.642 C 32.451,35.37 32.793,9.778 21.667,14.369 10.539,18.961 19.978,37.916 26.212,36.642 l 0,0 z" />
        <path
           id="path3783"
           style="fill:#787878;fill-opacity:1"
           d="m 58.791,93.913 c 1.107,8.454 -6.202,12.629 -13.36,7.179 C 22.644,83.743 83.16,75.088 79.171,51.386 75.86,31.712 15.495,37.769 8.621,68.553 3.968,89.374 27.774,118.26 52.614,118.26 c 12.22,0 26.315,-11.034 28.952,-25.012 C 83.58,82.589 57.867,86.86 58.791,93.913 l 0,0 z" />
      </g>
    </g>
    <path
       sodipodi:type="star"
       style="fill:#ffffc8;fill-opacity:1;fill-rule:nonzero;stroke:none"
       id="path3746"
       sodipodi:sides="5"
       sodipodi:cx="-16.624998"
       sodipodi:cy="6.7500019"
       sodipodi:r1="5.771698"
       sodipodi:r2="2.885849"
       sodipodi:arg1="1.3089969"
       sodipodi:arg2="1.9373155"
       inkscape:flatsided="false"
       inkscape:rounded="0.04"
       inkscape:randomized="0"
       d="m -15.131173,12.325034 c -0.148087,0.03968 -2.384892,-2.8259181 -2.528021,-2.88086 -0.143129,-0.054942 -3.722858,0.577898 -3.806357,0.4493201 -0.0835,-0.1285778 1.950635,-3.1414246 1.958659,-3.2945259 0.008,-0.1531014 -1.70004,-3.362068 -1.603558,-3.4812134 0.09648,-0.1191453 3.590452,0.8844109 3.738539,0.844731 0.148088,-0.03968 2.672176,-2.6557702 2.815304,-2.6008283 0.143129,0.054942 0.268386,3.6880207 0.351886,3.8165985 0.0835,0.1285777 3.351535,1.7207117 3.343511,1.873813 -0.008,0.1531013 -3.42458,1.3949112 -3.521062,1.5140566 -0.09648,0.1191453 -0.600813,3.7192284 -0.748901,3.7589084 z"
       transform="translate(45.249998,1014.3622)" />
    <path
       transform="matrix(0.74972628,0.26383594,-0.26383594,0.74972628,35.134879,1024.8396)"
       d="m -15.131173,12.325034 c -0.148087,0.03968 -2.384892,-2.8259181 -2.528021,-2.88086 -0.143129,-0.054942 -3.722858,0.577898 -3.806357,0.4493201 -0.0835,-0.1285778 1.950635,-3.1414246 1.958659,-3.2945259 0.008,-0.1531014 -1.70004,-3.362068 -1.603558,-3.4812134 0.09648,-0.1191453 3.590452,0.8844109 3.738539,0.844731 0.148088,-0.03968 2.672176,-2.6557702 2.815304,-2.6008283 0.143129,0.054942 0.268386,3.6880207 0.351886,3.8165985 0.0835,0.1285777 3.351535,1.7207117 3.343511,1.873813 -0.008,0.1531013 -3.42458,1.3949112 -3.521062,1.5140566 -0.09648,0.1191453 -0.600813,3.7192284 -0.748901,3.7589084 z"
       inkscape:randomized="0"
       inkscape:rounded="0.04"
       inkscape:flatsided="false"
       sodipodi:arg2="1.9373155"
       sodipodi:arg1="1.3089969"
       sodipodi:r2="2.885849"
       sodipodi:r1="5.771698"
       sodipodi:cy="6.7500019"
       sodipodi:cx="-16.624998"
       sodipodi:sides="5"
       id="path3748"
       style="fill:#ffffc8;fill-opacity:1;fill-rule:nonzero;stroke:none"
       sodipodi:type="star" />
    <path
       sodipodi:type="star"
       style="fill:#ffffc8;fill-opacity:1;fill-rule:nonzero;stroke:none"
       id="path3750"
       sodipodi:sides="5"
       sodipodi:cx="-16.624998"
       sodipodi:cy="6.7500019"
       sodipodi:r1="5.771698"
       sodipodi:r2="2.885849"
       sodipodi:arg1="1.3089969"
       sodipodi:arg2="1.9373155"
       inkscape:flatsided="false"
       inkscape:rounded="0.04"
       inkscape:randomized="0"
       d="m -15.131173,12.325034 c -0.148087,0.03968 -2.384892,-2.8259181 -2.528021,-2.88086 -0.143129,-0.054942 -3.722858,0.577898 -3.806357,0.4493201 -0.0835,-0.1285778 1.950635,-3.1414246 1.958659,-3.2945259 0.008,-0.1531014 -1.70004,-3.362068 -1.603558,-3.4812134 0.09648,-0.1191453 3.590452,0.8844109 3.738539,0.844731 0.148088,-0.03968 2.672176,-2.6557702 2.815304,-2.6008283 0.143129,0.054942 0.268386,3.6880207 0.351886,3.8165985 0.0835,0.1285777 3.351535,1.7207117 3.343511,1.873813 -0.008,0.1531013 -3.42458,1.3949112 -3.521062,1.5140566 -0.09648,0.1191453 -0.600813,3.7192284 -0.748901,3.7589084 z"
       transform="matrix(0.42152407,0.41177219,-0.41177219,0.42152407,22.870668,1030.0323)" />
    <path
       sodipodi:type="arc"
       style="fill:url(#radialGradient3982);fill-opacity:1;fill-rule:nonzero;stroke:none"
       id="path3974"
       sodipodi:cx="28.312498"
       sodipodi:cy="17.812502"
       sodipodi:rx="8.6875"
       sodipodi:ry="8.6875"
       d="m 36.999998,17.812502 c 0,4.797974 -3.889526,8.6875 -8.6875,8.6875 -4.797974,0 -8.6875,-3.889526 -8.6875,-8.6875 0,-4.797974 3.889526,-8.6875001 8.6875,-8.6875001 4.797974,0 8.6875,3.8895261 8.6875,8.6875001 z"
       transform="translate(-0.508885,1002.28)" />
    <path
       style="fill:url(#linearGradient4012);fill-opacity:1;stroke:none"
       d="m 4.6738548,1025.4872 c 9.3176452,0.2773 18.2413962,-2.2464 26.4999992,-9.5 l 2.25,8.75 c -9.258556,4.194 -18.785286,6.1979 -28.7499992,4.625 l 0,-3.875 z"
       id="path4004"
       sodipodi:nodetypes="ccccc" />
    <g
       id="g3726"
       transform="matrix(0.88289332,-0.46957361,0.46957361,0.88289332,-439.52648,114.46449)">
      <rect
         y="1017.1247"
         x="-14.495688"
         height="34"
         width="3.2"
         id="rect2878"
         style="fill:url(#linearGradient3731);fill-opacity:1;fill-rule:nonzero;stroke:none" />
      <path
         sodipodi:nodetypes="ccccccc"
         id="rect3664"
         d="m -11.295688,1017.5332 0,33.591 c 0,0.554 -0.446,1 -1,1 l -1.2,0 c -0.554,0 -1,-0.446 -1,-1 l 0,-33.591 3.2,0 z"
         style="fill:url(#linearGradient3733);fill-opacity:1;fill-rule:nonzero;stroke:none" />
      <path
         sodipodi:nodetypes="ccccc"
         id="rect3684"
         d="m -14.495688,1017.1247 c 1.087973,-0.3835 2.153689,-0.3664 3.2,0 l 0,7.837 c -1.250738,-0.2761 -2.281791,-0.2227 -3.2,0 l 0,-7.837 z"
         style="fill:url(#linearGradient3735);fill-opacity:1;fill-rule:nonzero;stroke:none" />
    </g>
  </g>
</svg>
