<?xml version="1.0" encoding="UTF-8" standalone="no"?>
<!-- Created with Inkscape (http://www.inkscape.org/) -->

<svg
   xmlns:dc="http://purl.org/dc/elements/1.1/"
   xmlns:cc="http://creativecommons.org/ns#"
   xmlns:rdf="http://www.w3.org/1999/02/22-rdf-syntax-ns#"
   xmlns:svg="http://www.w3.org/2000/svg"
   xmlns="http://www.w3.org/2000/svg"
   xmlns:xlink="http://www.w3.org/1999/xlink"
   xmlns:sodipodi="http://sodipodi.sourceforge.net/DTD/sodipodi-0.dtd"
   xmlns:inkscape="http://www.inkscape.org/namespaces/inkscape"
   width="48"
   height="48"
   id="svg2"
   version="1.1"
   inkscape:version="0.47pre4 r22446"
   sodipodi:docname="alacarte.svg">
  <defs
     id="defs4">
    <linearGradient
       id="linearGradient3681">
      <stop
         id="stop3683"
         offset="0"
         style="stop-color:#ffffff;stop-opacity:1;" />
      <stop
         id="stop3685"
         offset="1"
         style="stop-color:#ffffff;stop-opacity:0;" />
    </linearGradient>
    <linearGradient
       id="linearGradient3671">
      <stop
         style="stop-color:#505050;stop-opacity:1;"
         offset="0"
         id="stop3673" />
      <stop
         style="stop-color:#505050;stop-opacity:0;"
         offset="1"
         id="stop3675" />
    </linearGradient>
    <linearGradient
       id="linearGradient3654">
      <stop
         style="stop-color:#7fadce;stop-opacity:1;"
         offset="0"
         id="stop3656" />
      <stop
         style="stop-color:#5785a6;stop-opacity:1;"
         offset="1"
         id="stop3658" />
    </linearGradient>
    <linearGradient
       id="linearGradient3604">
      <stop
         style="stop-color:#f0f0f0;stop-opacity:1;"
         offset="0"
         id="stop3606" />
      <stop
         style="stop-color:#c8c8c8;stop-opacity:1;"
         offset="1"
         id="stop3608" />
    </linearGradient>
    <inkscape:perspective
       sodipodi:type="inkscape:persp3d"
       inkscape:vp_x="0 : 526.18109 : 1"
       inkscape:vp_y="0 : 1000 : 0"
       inkscape:vp_z="744.09448 : 526.18109 : 1"
       inkscape:persp3d-origin="372.04724 : 350.78739 : 1"
       id="perspective10" />
    <inkscape:perspective
       id="perspective3596"
       inkscape:persp3d-origin="0.5 : 0.33333333 : 1"
       inkscape:vp_z="1 : 0.5 : 1"
       inkscape:vp_y="0 : 1000 : 0"
       inkscape:vp_x="0 : 0.5 : 1"
       sodipodi:type="inkscape:persp3d" />
    <linearGradient
       inkscape:collect="always"
       xlink:href="#linearGradient3604"
       id="linearGradient3610"
       x1="25.038261"
       y1="1014.5865"
       x2="25.038261"
       y2="1050.5864"
       gradientUnits="userSpaceOnUse" />
    <linearGradient
       inkscape:collect="always"
       xlink:href="#linearGradient3654"
       id="linearGradient3660"
       x1="24.914341"
       y1="1023.649"
       x2="24.914341"
       y2="1031.1489"
       gradientUnits="userSpaceOnUse" />
    <linearGradient
       inkscape:collect="always"
       xlink:href="#linearGradient3654"
       id="linearGradient3677"
       x1="14.038261"
       y1="1007.0865"
       x2="14.038261"
       y2="1014.5865"
       gradientUnits="userSpaceOnUse" />
    <linearGradient
       inkscape:collect="always"
       xlink:href="#linearGradient3681"
       id="linearGradient3687"
       gradientUnits="userSpaceOnUse"
       x1="14.03826"
       y1="1002.7156"
       x2="14.03826"
       y2="1010.8365"
       gradientTransform="matrix(0.95454546,0,0,0.86666666,0.6381027,134.7782)" />
    <linearGradient
       inkscape:collect="always"
       xlink:href="#linearGradient3604"
       id="linearGradient3706"
       gradientUnits="userSpaceOnUse"
       x1="25.038261"
       y1="1014.5865"
       x2="25.038261"
       y2="1050.5864" />
    <linearGradient
       inkscape:collect="always"
       xlink:href="#linearGradient3654"
       id="linearGradient3708"
       gradientUnits="userSpaceOnUse"
       x1="24.914341"
       y1="1023.649"
       x2="24.914341"
       y2="1031.1489" />
    <linearGradient
       inkscape:collect="always"
       xlink:href="#linearGradient3654"
       id="linearGradient3710"
       gradientUnits="userSpaceOnUse"
       x1="14.038261"
       y1="1007.0865"
       x2="14.038261"
       y2="1014.5865" />
    <linearGradient
       inkscape:collect="always"
       xlink:href="#linearGradient3681"
       id="linearGradient3712"
       gradientUnits="userSpaceOnUse"
       gradientTransform="matrix(0.95454546,0,0,0.86666666,0.6381027,134.7782)"
       x1="14.03826"
       y1="1002.7156"
       x2="14.03826"
       y2="1010.8365" />
    <linearGradient
       inkscape:collect="always"
       xlink:href="#linearGradient3681"
       id="linearGradient3715"
       gradientUnits="userSpaceOnUse"
       gradientTransform="matrix(0.95454546,0,0,0.86666666,-0.3931473,134.30945)"
       x1="14.03826"
       y1="1002.7156"
       x2="14.03826"
       y2="1010.8365" />
    <linearGradient
       inkscape:collect="always"
       xlink:href="#linearGradient3654"
       id="linearGradient3718"
       gradientUnits="userSpaceOnUse"
       x1="14.038261"
       y1="1007.0865"
       x2="14.038261"
       y2="1014.5865"
       gradientTransform="translate(-1.03125,-0.46875)" />
    <linearGradient
       inkscape:collect="always"
       xlink:href="#linearGradient3654"
       id="linearGradient3724"
       gradientUnits="userSpaceOnUse"
       x1="24.914341"
       y1="1023.649"
       x2="24.914341"
       y2="1031.1489"
       gradientTransform="translate(-1.03125,-0.46875)" />
    <linearGradient
       inkscape:collect="always"
       xlink:href="#linearGradient3604"
       id="linearGradient3734"
       gradientUnits="userSpaceOnUse"
       x1="25.038261"
       y1="1014.5865"
       x2="25.038261"
       y2="1050.5864"
       gradientTransform="translate(-1.03125,-0.46875)" />
  </defs>
  <sodipodi:namedview
     id="base"
     pagecolor="#ffffff"
     bordercolor="#666666"
     borderopacity="1.0"
     inkscape:pageopacity="0.0"
     inkscape:pageshadow="2"
     inkscape:zoom="2.8"
     inkscape:cx="-6.4280128"
     inkscape:cy="-3.1452224"
     inkscape:document-units="px"
     inkscape:current-layer="layer1"
     showgrid="false"
     inkscape:window-width="1280"
     inkscape:window-height="714"
     inkscape:window-x="0"
     inkscape:window-y="25"
     inkscape:window-maximized="1" />
  <metadata
     id="metadata7">
    <rdf:RDF>
      <cc:Work
         rdf:about="">
        <dc:format>image/svg+xml</dc:format>
        <dc:type
           rdf:resource="http://purl.org/dc/dcmitype/StillImage" />
        <dc:title />
      </cc:Work>
    </rdf:RDF>
  </metadata>
  <g
     inkscape:label="Livello 1"
     inkscape:groupmode="layer"
     id="layer1"
     transform="translate(0,-1004.3622)">
    <path
       style="fill:#505050;fill-opacity:0.78431373;stroke:none"
       d="m 1.5,1006.1123 0,7.5 0,1 0,36 45,0 0,-37 -22,0 0,-7.5 -23,0 z"
       id="rect3668" />
    <rect
       style="fill:url(#linearGradient3734);fill-opacity:1;stroke:none"
       id="rect3602"
       width="44"
       height="36"
       x="2.0070109"
       y="1014.1177" />
    <g
       style="font-size:7px;font-style:normal;font-variant:normal;font-weight:normal;font-stretch:normal;fill:#333333;fill-opacity:1;stroke:none;font-family:Calibri;-inkscape-font-specification:Calibri"
       id="text3612">
      <path
         d="m 9.3391366,1019.8418 c -3.9e-6,0.046 -0.00798,0.084 -0.023926,0.1162 -0.013676,0.032 -0.033044,0.058 -0.058105,0.079 -0.02279,0.02 -0.048995,0.035 -0.078613,0.044 -0.029626,0.01 -0.059248,0.014 -0.088867,0.014 l -0.1879883,0 c -0.059248,0 -0.111657,-0.01 -0.1572266,-0.017 -0.043297,-0.014 -0.085452,-0.036 -0.1264648,-0.068 -0.03874,-0.034 -0.078616,-0.08 -0.1196289,-0.1367 -0.03874,-0.057 -0.082034,-0.1299 -0.1298828,-0.2188 l -1.3945313,-2.5156 c -0.072918,-0.1299 -0.146974,-0.2655 -0.2221679,-0.4068 -0.072918,-0.1435 -0.1412773,-0.2825 -0.2050782,-0.4169 l -0.00684,0 c 0.00456,0.164 0.00797,0.3315 0.010254,0.5024 0.00228,0.1709 0.00342,0.3407 0.00342,0.5093 l 0,2.6694 c -1.2e-6,0.016 -0.00456,0.032 -0.013672,0.048 -0.00912,0.014 -0.025066,0.025 -0.047852,0.034 -0.020509,0.01 -0.048992,0.013 -0.085449,0.017 -0.034181,0.01 -0.078614,0.01 -0.1333008,0.01 -0.054688,0 -0.1002611,-0 -0.1367187,-0.01 -0.03418,-0 -0.061524,-0.01 -0.082031,-0.017 -0.020508,-0.01 -0.03532,-0.02 -0.044434,-0.034 -0.00912,-0.016 -0.013672,-0.032 -0.013672,-0.048 l 0,-4.081 c -6e-7,-0.091 0.025065,-0.1561 0.075195,-0.1949 0.050129,-0.039 0.1048169,-0.058 0.1640625,-0.058 l 0.2802734,0 c 0.06608,0 0.120767,0.01 0.1640625,0.017 0.045572,0.011 0.085448,0.031 0.1196289,0.058 0.036457,0.025 0.070637,0.062 0.1025391,0.1094 0.034178,0.046 0.070636,0.1037 0.109375,0.1743 l 1.0732422,1.9414 c 0.066078,0.1185 0.12988,0.2347 0.1914062,0.3486 0.061521,0.1117 0.1207653,0.2222 0.1777344,0.3316 0.056963,0.1094 0.1127898,0.2176 0.1674805,0.3247 0.056963,0.1048 0.1127896,0.2108 0.1674804,0.3179 l 0.00342,0 c -0.00456,-0.18 -0.00798,-0.3669 -0.010254,-0.5606 -3.4e-6,-0.1959 -3.4e-6,-0.3839 0,-0.5639 l 0,-2.3995 c -3.4e-6,-0.016 0.00455,-0.031 0.013672,-0.044 0.00911,-0.014 0.023922,-0.025 0.044434,-0.034 0.022783,-0.011 0.051266,-0.019 0.085449,-0.024 0.036455,-0 0.083167,-0.01 0.1401367,-0.01 0.050127,0 0.093421,0 0.1298828,0.01 0.036454,0 0.064938,0.013 0.085449,0.024 0.020504,0.01 0.035315,0.02 0.044434,0.034 0.00911,0.014 0.013668,0.029 0.013672,0.044 l 0,4.0811"
         style=""
         id="path3780" />
      <path
         d="m 13.081812,1018.3276 c -3e-6,0.089 -0.02279,0.1527 -0.06836,0.1914 -0.0433,0.037 -0.09343,0.055 -0.150391,0.055 l -2.016601,0 c -10e-7,0.1709 0.01709,0.3247 0.05127,0.4615 0.03418,0.1367 0.09115,0.254 0.170899,0.352 0.07975,0.098 0.183429,0.1732 0.311035,0.2256 0.127603,0.052 0.28369,0.079 0.468262,0.079 0.145831,0 0.275714,-0.011 0.389648,-0.034 0.11393,-0.025 0.211912,-0.052 0.293945,-0.082 0.08431,-0.03 0.152667,-0.056 0.205079,-0.079 0.05468,-0.025 0.0957,-0.038 0.123046,-0.038 0.01595,0 0.02962,0 0.04102,0.014 0.01367,0.01 0.02392,0.018 0.03076,0.034 0.0068,0.016 0.01139,0.039 0.01367,0.068 0.0046,0.027 0.0068,0.062 0.0068,0.1025 -3e-6,0.03 -0.0011,0.056 -0.0034,0.079 -0.0023,0.021 -0.0057,0.04 -0.01025,0.058 -0.0023,0.016 -0.008,0.031 -0.01709,0.044 -0.0068,0.014 -0.01709,0.027 -0.03076,0.041 -0.0114,0.011 -0.04785,0.032 -0.109375,0.062 -0.06153,0.027 -0.141279,0.055 -0.239258,0.082 -0.09798,0.027 -0.211916,0.051 -0.341797,0.072 -0.127606,0.023 -0.264324,0.034 -0.410156,0.034 -0.252931,0 -0.475099,-0.035 -0.666504,-0.1059 -0.189128,-0.071 -0.348633,-0.1755 -0.478515,-0.3145 -0.129884,-0.139 -0.227865,-0.3133 -0.293946,-0.5229 -0.06608,-0.2097 -0.09912,-0.4535 -0.09912,-0.7315 0,-0.2643 0.03418,-0.5013 0.102539,-0.7109 0.06836,-0.2119 0.166341,-0.3908 0.293946,-0.5366 0.129882,-0.1482 0.285969,-0.261 0.468261,-0.3384 0.182291,-0.08 0.386229,-0.1197 0.611817,-0.1197 0.241534,0 0.446612,0.039 0.615234,0.1163 0.170896,0.077 0.311033,0.1822 0.42041,0.3144 0.109372,0.1299 0.189125,0.2837 0.239258,0.4614 0.05241,0.1755 0.07861,0.3635 0.07861,0.564 l 0,0.1025 m -0.567382,-0.1674 c 0.0068,-0.2963 -0.05925,-0.5287 -0.198243,-0.6973 -0.136721,-0.1686 -0.340659,-0.2529 -0.611816,-0.2529 -0.138999,0 -0.260906,0.026 -0.365723,0.079 -0.104819,0.052 -0.192546,0.1219 -0.263183,0.2085 -0.07064,0.087 -0.125327,0.188 -0.164063,0.3042 -0.03874,0.1139 -0.06039,0.2335 -0.06494,0.3589 l 1.667969,0"
         style=""
         id="path3782" />
      <path
         d="m 18.219019,1016.916 c -4e-6,0.016 -0.0023,0.035 -0.0068,0.058 -0.0046,0.023 -0.01254,0.051 -0.02392,0.086 l -0.905762,2.9223 c -0.0068,0.025 -0.01823,0.046 -0.03418,0.062 -0.01367,0.016 -0.03418,0.028 -0.06152,0.038 -0.02507,0.01 -0.06039,0.015 -0.105957,0.017 -0.04558,0 -0.102543,0.01 -0.170899,0.01 -0.07064,0 -0.129886,-0 -0.177734,-0.01 -0.04785,-0 -0.08659,-0.011 -0.116211,-0.021 -0.02735,-0.01 -0.04785,-0.022 -0.06152,-0.038 -0.01367,-0.016 -0.02393,-0.035 -0.03076,-0.058 l -0.645996,-2.2319 -0.0068,-0.031 -0.0068,0.031 -0.598145,2.2319 c -0.0068,0.025 -0.01823,0.046 -0.03418,0.062 -0.01367,0.016 -0.03532,0.028 -0.06494,0.038 -0.02962,0.01 -0.06836,0.015 -0.116211,0.017 -0.04557,0 -0.10254,0.01 -0.170898,0.01 -0.07064,0 -0.128745,-0 -0.174316,-0.01 -0.0433,-0 -0.07975,-0.011 -0.109375,-0.021 -0.02735,-0.01 -0.04785,-0.022 -0.06152,-0.038 -0.01367,-0.016 -0.02393,-0.035 -0.03076,-0.058 l -0.898925,-2.9223 c -0.01139,-0.034 -0.01937,-0.063 -0.02393,-0.086 -0.0046,-0.023 -0.0068,-0.042 -0.0068,-0.058 0,-0.021 0.0046,-0.036 0.01367,-0.048 0.0091,-0.014 0.02393,-0.024 0.04443,-0.031 0.02279,-0.01 0.05241,-0.015 0.08887,-0.017 0.03646,-0 0.08089,-0 0.1333,-0 0.0638,0 0.115071,0 0.153809,0.01 0.03874,0 0.06836,0.01 0.08887,0.017 0.02051,0.01 0.03532,0.018 0.04443,0.034 0.0091,0.014 0.01709,0.031 0.02393,0.051 l 0.7417,2.5361 0.0068,0.031 0.0068,-0.031 0.680175,-2.5361 c 0.0046,-0.02 0.01139,-0.038 0.02051,-0.051 0.01139,-0.016 0.02734,-0.027 0.04785,-0.034 0.0205,-0.01 0.04785,-0.015 0.08203,-0.017 0.03646,-0 0.08317,-0.01 0.140137,-0.01 0.05469,0 0.09912,0 0.1333,0.01 0.03646,0 0.06494,0.01 0.08545,0.017 0.0205,0.01 0.03532,0.017 0.04443,0.031 0.0091,0.014 0.01595,0.03 0.02051,0.048 l 0.734863,2.543 0.0068,0.031 0.0034,-0.031 0.731446,-2.5361 c 0.0046,-0.02 0.01139,-0.038 0.02051,-0.051 0.01139,-0.016 0.02734,-0.027 0.04785,-0.034 0.02278,-0.01 0.0524,-0.015 0.08887,-0.017 0.03873,-0 0.08772,-0.01 0.146973,-0.01 0.05468,0 0.09798,0 0.129883,0 0.03417,0 0.06038,0.01 0.07861,0.017 0.0205,0.01 0.03417,0.019 0.04102,0.031 0.0091,0.011 0.01367,0.027 0.01367,0.048"
         style=""
         id="path3784" />
      <path
         d="m 19.196558,1019.7119 c -1e-6,0.1618 -0.02734,0.27 -0.08203,0.3247 -0.05241,0.052 -0.149252,0.079 -0.290527,0.079 -0.13672,0 -0.231283,-0.026 -0.283692,-0.079 -0.05241,-0.052 -0.07861,-0.1572 -0.07861,-0.3144 0,-0.1618 0.0262,-0.2689 0.07861,-0.3213 0.05469,-0.055 0.152669,-0.082 0.293946,-0.082 0.136718,0 0.231281,0.026 0.283691,0.079 0.05241,0.052 0.07861,0.1572 0.07861,0.3144"
         style=""
         id="path3786" />
      <path
         d="m 20.96023,1019.7119 c -10e-7,0.1618 -0.02735,0.27 -0.08203,0.3247 -0.05241,0.052 -0.149252,0.079 -0.290527,0.079 -0.13672,0 -0.231283,-0.026 -0.283692,-0.079 -0.05241,-0.052 -0.07861,-0.1572 -0.07861,-0.3144 0,-0.1618 0.0262,-0.2689 0.07861,-0.3213 0.05469,-0.055 0.152669,-0.082 0.293946,-0.082 0.136717,0 0.231281,0.026 0.283691,0.079 0.05241,0.052 0.07861,0.1572 0.07861,0.3144"
         style=""
         id="path3788" />
      <path
         d="m 22.723902,1019.7119 c -10e-7,0.1618 -0.02735,0.27 -0.08203,0.3247 -0.05241,0.052 -0.149252,0.079 -0.290527,0.079 -0.13672,0 -0.231284,-0.026 -0.283692,-0.079 -0.05241,-0.052 -0.07861,-0.1572 -0.07861,-0.3144 -10e-7,-0.1618 0.0262,-0.2689 0.07861,-0.3213 0.05469,-0.055 0.152669,-0.082 0.293946,-0.082 0.136717,0 0.231281,0.026 0.283691,0.079 0.05241,0.052 0.07861,0.1572 0.07861,0.3144"
         style=""
         id="path3790" />
    </g>
    <g
       style="font-size:7px;font-style:normal;font-variant:normal;font-weight:normal;font-stretch:normal;fill:#333333;fill-opacity:1;stroke:none;font-family:Calibri;-inkscape-font-specification:Calibri"
       id="text3630">
      <path
         d="m 8.3718514,1037.7478 c -2.9e-6,0.2074 -0.03874,0.3919 -0.1162109,0.5537 -0.075198,0.1618 -0.181155,0.2997 -0.3178711,0.4136 -0.1344425,0.1116 -0.2939475,0.196 -0.4785156,0.2529 -0.1822935,0.057 -0.3793962,0.085 -0.5913086,0.085 -0.1481133,0 -0.2859712,-0.013 -0.4135742,-0.038 -0.1253265,-0.025 -0.2381193,-0.056 -0.3383789,-0.092 -0.097982,-0.037 -0.1811529,-0.074 -0.2495117,-0.1128 -0.066081,-0.039 -0.1127934,-0.072 -0.1401368,-0.099 -0.025065,-0.027 -0.044434,-0.062 -0.058105,-0.1026 -0.011394,-0.043 -0.01709,-0.1002 -0.01709,-0.1709 -2e-7,-0.05 0.00228,-0.091 0.00684,-0.123 0.00456,-0.034 0.011393,-0.062 0.020508,-0.082 0.00911,-0.021 0.020507,-0.034 0.03418,-0.041 0.013672,-0.01 0.029622,-0.014 0.047852,-0.014 0.031901,0 0.076334,0.019 0.1333008,0.058 0.059244,0.039 0.1344395,0.081 0.2255859,0.1264 0.091145,0.046 0.20052,0.089 0.328125,0.1299 0.1298817,0.039 0.2791328,0.058 0.4477539,0.058 0.1276026,0 0.2438134,-0.017 0.3486329,-0.051 0.1070944,-0.034 0.1982401,-0.082 0.2734375,-0.1436 0.077472,-0.064 0.1367165,-0.1413 0.1777343,-0.2324 0.041013,-0.091 0.061521,-0.1948 0.061523,-0.3111 -2.4e-6,-0.1253 -0.028485,-0.2324 -0.085449,-0.3212 -0.056968,-0.089 -0.1321636,-0.1664 -0.225586,-0.2325 -0.093426,-0.068 -0.2005227,-0.1298 -0.321289,-0.1845 -0.1184912,-0.057 -0.2403987,-0.114 -0.3657227,-0.1709 -0.1253268,-0.059 -0.2472342,-0.1242 -0.3657227,-0.1949 -0.1184904,-0.071 -0.2244473,-0.1538 -0.3178711,-0.2495 -0.093425,-0.096 -0.1697596,-0.2073 -0.2290039,-0.3349 -0.056967,-0.1299 -0.08545,-0.2849 -0.085449,-0.4649 -3e-7,-0.1845 0.03304,-0.3486 0.099121,-0.4922 0.068359,-0.1458 0.1617833,-0.2677 0.2802735,-0.3657 0.1207673,-0.098 0.2631825,-0.172 0.427246,-0.2222 0.1663399,-0.052 0.3452134,-0.079 0.5366211,-0.079 0.09798,0 0.1959617,0.01 0.2939454,0.027 0.1002583,0.016 0.1936827,0.039 0.2802734,0.068 0.088865,0.027 0.167478,0.059 0.2358398,0.096 0.068357,0.034 0.1127904,0.063 0.1333008,0.085 0.022784,0.021 0.037595,0.038 0.044434,0.051 0.00683,0.011 0.01253,0.027 0.01709,0.048 0.00455,0.018 0.00797,0.041 0.010254,0.068 0.00228,0.027 0.00342,0.063 0.00342,0.1059 -2.7e-6,0.041 -0.00228,0.078 -0.00684,0.1094 -0.00228,0.032 -0.00684,0.059 -0.013672,0.082 -0.00684,0.02 -0.017093,0.036 -0.030762,0.048 -0.011396,0.01 -0.025068,0.014 -0.041016,0.014 -0.025068,0 -0.064944,-0.016 -0.1196289,-0.048 -0.052411,-0.032 -0.1173527,-0.067 -0.1948243,-0.106 -0.077476,-0.041 -0.1697612,-0.077 -0.2768554,-0.1093 -0.1048197,-0.034 -0.2233091,-0.051 -0.3554688,-0.051 -0.1230484,0 -0.2301446,0.017 -0.321289,0.051 -0.091147,0.032 -0.1663424,0.075 -0.225586,0.1299 -0.059246,0.055 -0.1036794,0.1196 -0.1333008,0.1948 -0.029623,0.075 -0.044434,0.1549 -0.044433,0.2392 -1e-6,0.1231 0.028482,0.229 0.085449,0.3179 0.056965,0.089 0.1321603,0.1675 0.2255859,0.2358 0.095702,0.068 0.2039373,0.1311 0.324707,0.188 0.1207666,0.057 0.2438133,0.1151 0.3691407,0.1744 0.1253234,0.057 0.2483702,0.1207 0.3691406,0.1914 0.1207658,0.068 0.227862,0.1504 0.3212891,0.2461 0.0957,0.093 0.1720349,0.205 0.2290039,0.3349 0.059242,0.1276 0.088864,0.2791 0.088867,0.4546"
         style=""
         id="path3738" />
      <path
         d="m 11.461695,1038.9065 c -3e-6,0.027 -0.0091,0.048 -0.02734,0.062 -0.01823,0.014 -0.0433,0.024 -0.07519,0.031 -0.0319,0.01 -0.07862,0.01 -0.140137,0.01 -0.05925,0 -0.107098,-0 -0.143554,-0.01 -0.03418,-0.01 -0.05925,-0.017 -0.0752,-0.031 -0.01595,-0.014 -0.02393,-0.034 -0.02393,-0.062 l 0,-0.3076 c -0.134443,0.1435 -0.284833,0.2552 -0.451172,0.3349 -0.164064,0.08 -0.338381,0.1197 -0.522949,0.1197 -0.1617855,0 -0.308758,-0.022 -0.4409184,-0.065 -0.1298837,-0.041 -0.2415372,-0.1014 -0.334961,-0.1811 -0.091146,-0.08 -0.1629236,-0.1778 -0.215332,-0.294 -0.05013,-0.1162 -0.075196,-0.2483 -0.075195,-0.3965 -3e-7,-0.1731 0.035319,-0.3235 0.105957,-0.4511 0.070638,-0.1276 0.1720372,-0.2336 0.3041992,-0.3179 0.1321606,-0.084 0.2939443,-0.147 0.4853516,-0.188 0.1914049,-0.043 0.4067369,-0.065 0.6459959,-0.065 l 0.423828,0 0,-0.2393 c -2e-6,-0.1185 -0.01253,-0.2233 -0.0376,-0.3144 -0.02507,-0.091 -0.06608,-0.1664 -0.123047,-0.2256 -0.05469,-0.062 -0.126467,-0.1071 -0.215332,-0.1367 -0.08887,-0.032 -0.198244,-0.048 -0.328125,-0.048 -0.138999,0 -0.2643245,0.017 -0.3759768,0.051 -0.1093761,0.032 -0.2062184,0.068 -0.2905273,0.1093 -0.082032,0.039 -0.1515308,0.075 -0.2084961,0.1094 -0.054688,0.032 -0.095704,0.048 -0.1230469,0.048 -0.01823,0 -0.03418,-0 -0.047852,-0.014 -0.013672,-0.01 -0.026205,-0.023 -0.037598,-0.041 -0.00912,-0.018 -0.015951,-0.041 -0.020508,-0.068 -0.00456,-0.03 -0.00684,-0.062 -0.00684,-0.096 -5e-7,-0.057 0.00342,-0.1014 0.010254,-0.1333 0.00911,-0.034 0.028483,-0.066 0.058106,-0.096 0.0319,-0.03 0.085449,-0.064 0.1606445,-0.1025 0.075195,-0.041 0.161783,-0.077 0.2597656,-0.1094 0.097981,-0.034 0.205077,-0.062 0.3212891,-0.082 0.1162095,-0.023 0.2335595,-0.034 0.3520505,-0.034 0.221027,0 0.409015,0.025 0.563965,0.075 0.154946,0.05 0.280271,0.1242 0.375977,0.2222 0.0957,0.096 0.165199,0.2153 0.208496,0.3588 0.04329,0.1436 0.06494,0.3111 0.06494,0.5025 l 0,2.0747 m -0.560547,-1.4048 -0.481933,0 c -0.15495,0 -0.28939,0.014 -0.403321,0.041 -0.1139332,0.025 -0.2084969,0.064 -0.283691,0.1162 -0.075196,0.05 -0.1310231,0.1117 -0.1674805,0.1846 -0.034181,0.071 -0.05127,0.1527 -0.05127,0.2461 -9e-7,0.1595 0.050129,0.2871 0.1503906,0.3828 0.1025379,0.093 0.2449532,0.1401 0.4272464,0.1401 0.14811,0 0.284829,-0.037 0.410156,-0.1127 0.127602,-0.075 0.260903,-0.1903 0.399902,-0.3453 l 0,-0.6528"
         style=""
         id="path3740" />
      <path
         d="m 14.907008,1035.8201 c -3e-6,0.01 -0.0011,0.019 -0.0034,0.031 -3e-6,0.01 -0.0011,0.019 -0.0034,0.031 -0.0023,0.011 -0.0057,0.024 -0.01025,0.038 -0.0023,0.014 -0.0057,0.028 -0.01025,0.044 l -1.049316,2.9224 c -0.0091,0.025 -0.02165,0.046 -0.0376,0.062 -0.01367,0.016 -0.03532,0.029 -0.06494,0.038 -0.02962,0.01 -0.06722,0.015 -0.112792,0.017 -0.04558,0 -0.102541,0.01 -0.170899,0.01 -0.06836,0 -0.125327,-0 -0.170898,-0.01 -0.04557,-0 -0.08317,-0.011 -0.112793,-0.02 -0.02734,-0.01 -0.04899,-0.022 -0.06494,-0.038 -0.01595,-0.016 -0.02848,-0.035 -0.0376,-0.058 l -1.045899,-2.9224 c -0.0091,-0.027 -0.01709,-0.051 -0.02393,-0.072 -0.0046,-0.021 -0.008,-0.035 -0.01025,-0.044 0,-0.011 0,-0.021 0,-0.027 0,-0.018 0.0046,-0.034 0.01367,-0.048 0.0091,-0.014 0.02393,-0.024 0.04443,-0.031 0.02279,-0.01 0.05127,-0.015 0.08545,-0.017 0.03646,-0 0.08089,-0 0.133301,-0 0.06608,10e-5 0.118489,0 0.157227,0.01 0.04101,0 0.07178,0.01 0.09228,0.017 0.02279,0.01 0.03874,0.021 0.04785,0.034 0.01139,0.014 0.02165,0.031 0.03076,0.051 l 0.868164,2.5362 0.01367,0.041 0.01025,-0.041 0.85791,-2.5362 c 0.0046,-0.021 0.01253,-0.038 0.02393,-0.051 0.01139,-0.014 0.02734,-0.025 0.04785,-0.034 0.02278,-0.01 0.05241,-0.015 0.08887,-0.017 0.03874,-0 0.08887,-0.01 0.150391,-0.01 0.05241,10e-5 0.0957,0 0.129883,0 0.03418,0 0.06038,0.01 0.07861,0.017 0.0205,0.01 0.03418,0.02 0.04102,0.034 0.0091,0.011 0.01367,0.026 0.01367,0.044"
         style=""
         id="path3742" />
      <path
         d="m 18.099391,1037.2317 c -4e-6,0.089 -0.02279,0.1527 -0.06836,0.1914 -0.0433,0.036 -0.09343,0.055 -0.15039,0.055 l -2.016602,0 c -10e-7,0.1709 0.01709,0.3247 0.05127,0.4614 0.03418,0.1367 0.09115,0.2541 0.170899,0.3521 0.07975,0.098 0.18343,0.1731 0.311035,0.2255 0.127603,0.053 0.28369,0.079 0.468262,0.079 0.145831,0 0.275714,-0.011 0.389648,-0.034 0.11393,-0.025 0.211912,-0.052 0.293946,-0.082 0.08431,-0.03 0.152666,-0.056 0.205078,-0.079 0.05468,-0.025 0.0957,-0.038 0.123047,-0.038 0.01595,0 0.02962,0 0.04101,0.014 0.01367,0.01 0.02392,0.018 0.03076,0.034 0.0068,0.016 0.01139,0.039 0.01367,0.068 0.0046,0.027 0.0068,0.062 0.0068,0.1026 -3e-6,0.03 -0.0011,0.056 -0.0034,0.079 -0.0023,0.021 -0.0057,0.04 -0.01025,0.058 -0.0023,0.016 -0.008,0.031 -0.01709,0.044 -0.0068,0.014 -0.01709,0.027 -0.03076,0.041 -0.0114,0.011 -0.04785,0.032 -0.109375,0.062 -0.06153,0.027 -0.141278,0.055 -0.239258,0.082 -0.09798,0.027 -0.211916,0.051 -0.341796,0.072 -0.127607,0.023 -0.264325,0.034 -0.410157,0.034 -0.252931,0 -0.475099,-0.035 -0.666504,-0.106 -0.189128,-0.071 -0.348633,-0.1754 -0.478515,-0.3144 -0.129884,-0.139 -0.227865,-0.3134 -0.293946,-0.523 -0.06608,-0.2096 -0.09912,-0.4534 -0.09912,-0.7314 0,-0.2644 0.03418,-0.5013 0.102539,-0.711 0.06836,-0.2119 0.166341,-0.3908 0.293946,-0.5366 0.129882,-0.1481 0.285969,-0.2609 0.468261,-0.3384 0.182291,-0.08 0.386229,-0.1196 0.611817,-0.1196 0.241534,0 0.446612,0.039 0.615234,0.1162 0.170896,0.078 0.311033,0.1823 0.42041,0.3145 0.109372,0.1298 0.189125,0.2837 0.239258,0.4614 0.05241,0.1754 0.07861,0.3634 0.07861,0.564 l 0,0.1025 m -0.567383,-0.1675 c 0.0068,-0.2962 -0.05925,-0.5286 -0.198242,-0.6973 -0.136721,-0.1686 -0.34066,-0.2529 -0.611817,-0.2529 -0.138999,0 -0.260906,0.026 -0.365723,0.079 -0.104819,0.052 -0.192546,0.1219 -0.263183,0.2085 -0.07064,0.087 -0.125327,0.188 -0.164063,0.3042 -0.03874,0.114 -0.06039,0.2336 -0.06494,0.3589 l 1.667969,0"
         style=""
         id="path3744" />
      <path
         d="m 8.3718514,1046.4978 c -2.9e-6,0.2074 -0.03874,0.3919 -0.1162109,0.5537 -0.075198,0.1618 -0.181155,0.2997 -0.3178711,0.4136 -0.1344425,0.1116 -0.2939475,0.196 -0.4785156,0.2529 -0.1822935,0.057 -0.3793962,0.085 -0.5913086,0.085 -0.1481133,0 -0.2859712,-0.013 -0.4135742,-0.038 -0.1253265,-0.025 -0.2381193,-0.056 -0.3383789,-0.092 -0.097982,-0.037 -0.1811529,-0.074 -0.2495117,-0.1128 -0.066081,-0.039 -0.1127934,-0.072 -0.1401368,-0.099 -0.025065,-0.027 -0.044434,-0.062 -0.058105,-0.1026 -0.011394,-0.043 -0.01709,-0.1002 -0.01709,-0.1709 -2e-7,-0.05 0.00228,-0.091 0.00684,-0.123 0.00456,-0.034 0.011393,-0.062 0.020508,-0.082 0.00911,-0.021 0.020507,-0.034 0.03418,-0.041 0.013672,-0.01 0.029622,-0.014 0.047852,-0.014 0.031901,0 0.076334,0.019 0.1333008,0.058 0.059244,0.039 0.1344395,0.081 0.2255859,0.1264 0.091145,0.046 0.20052,0.089 0.328125,0.1299 0.1298817,0.039 0.2791328,0.058 0.4477539,0.058 0.1276026,0 0.2438134,-0.017 0.3486329,-0.051 0.1070944,-0.034 0.1982401,-0.082 0.2734375,-0.1436 0.077472,-0.064 0.1367165,-0.1413 0.1777343,-0.2324 0.041013,-0.091 0.061521,-0.1948 0.061523,-0.3111 -2.4e-6,-0.1253 -0.028485,-0.2324 -0.085449,-0.3212 -0.056968,-0.089 -0.1321636,-0.1664 -0.225586,-0.2325 -0.093426,-0.068 -0.2005227,-0.1298 -0.321289,-0.1845 -0.1184912,-0.057 -0.2403987,-0.114 -0.3657227,-0.1709 -0.1253268,-0.059 -0.2472342,-0.1242 -0.3657227,-0.1949 -0.1184904,-0.071 -0.2244473,-0.1538 -0.3178711,-0.2495 -0.093425,-0.096 -0.1697596,-0.2073 -0.2290039,-0.3349 -0.056967,-0.1299 -0.08545,-0.2849 -0.085449,-0.4649 -3e-7,-0.1845 0.03304,-0.3486 0.099121,-0.4922 0.068359,-0.1458 0.1617833,-0.2677 0.2802735,-0.3657 0.1207673,-0.098 0.2631825,-0.172 0.427246,-0.2222 0.1663399,-0.052 0.3452134,-0.079 0.5366211,-0.079 0.09798,0 0.1959617,0.01 0.2939454,0.027 0.1002583,0.016 0.1936827,0.039 0.2802734,0.068 0.088865,0.027 0.167478,0.059 0.2358398,0.096 0.068357,0.034 0.1127904,0.063 0.1333008,0.085 0.022784,0.021 0.037595,0.038 0.044434,0.051 0.00683,0.011 0.01253,0.027 0.01709,0.048 0.00455,0.018 0.00797,0.041 0.010254,0.068 0.00228,0.027 0.00342,0.063 0.00342,0.1059 -2.7e-6,0.041 -0.00228,0.078 -0.00684,0.1094 -0.00228,0.032 -0.00684,0.059 -0.013672,0.082 -0.00684,0.02 -0.017093,0.036 -0.030762,0.048 -0.011396,0.01 -0.025068,0.014 -0.041016,0.014 -0.025068,0 -0.064944,-0.016 -0.1196289,-0.048 -0.052411,-0.032 -0.1173527,-0.067 -0.1948243,-0.106 -0.077476,-0.041 -0.1697612,-0.077 -0.2768554,-0.1093 -0.1048197,-0.034 -0.2233091,-0.051 -0.3554688,-0.051 -0.1230484,0 -0.2301446,0.017 -0.321289,0.051 -0.091147,0.032 -0.1663424,0.075 -0.225586,0.1299 -0.059246,0.055 -0.1036794,0.1196 -0.1333008,0.1948 -0.029623,0.075 -0.044434,0.1549 -0.044433,0.2392 -1e-6,0.1231 0.028482,0.229 0.085449,0.3179 0.056965,0.089 0.1321603,0.1675 0.2255859,0.2358 0.095702,0.068 0.2039373,0.1311 0.324707,0.188 0.1207666,0.057 0.2438133,0.1151 0.3691407,0.1744 0.1253234,0.057 0.2483702,0.1207 0.3691406,0.1914 0.1207658,0.068 0.227862,0.1504 0.3212891,0.2461 0.0957,0.093 0.1720349,0.205 0.2290039,0.3349 0.059242,0.1276 0.088864,0.2791 0.088867,0.4546"
         style=""
         id="path3746" />
      <path
         d="m 11.461695,1047.6565 c -3e-6,0.027 -0.0091,0.048 -0.02734,0.062 -0.01823,0.014 -0.0433,0.024 -0.07519,0.031 -0.0319,0.01 -0.07862,0.01 -0.140137,0.01 -0.05925,0 -0.107098,-0 -0.143554,-0.01 -0.03418,-0.01 -0.05925,-0.017 -0.0752,-0.031 -0.01595,-0.014 -0.02393,-0.034 -0.02393,-0.062 l 0,-0.3076 c -0.134443,0.1435 -0.284833,0.2552 -0.451172,0.3349 -0.164064,0.08 -0.338381,0.1197 -0.522949,0.1197 -0.1617855,0 -0.308758,-0.022 -0.4409184,-0.065 -0.1298837,-0.041 -0.2415372,-0.1014 -0.334961,-0.1811 -0.091146,-0.08 -0.1629236,-0.1778 -0.215332,-0.294 -0.05013,-0.1162 -0.075196,-0.2483 -0.075195,-0.3965 -3e-7,-0.1731 0.035319,-0.3235 0.105957,-0.4511 0.070638,-0.1276 0.1720372,-0.2336 0.3041992,-0.3179 0.1321606,-0.084 0.2939443,-0.147 0.4853516,-0.188 0.1914049,-0.043 0.4067369,-0.065 0.6459959,-0.065 l 0.423828,0 0,-0.2393 c -2e-6,-0.1185 -0.01253,-0.2233 -0.0376,-0.3144 -0.02507,-0.091 -0.06608,-0.1664 -0.123047,-0.2256 -0.05469,-0.062 -0.126467,-0.1071 -0.215332,-0.1367 -0.08887,-0.032 -0.198244,-0.048 -0.328125,-0.048 -0.138999,0 -0.2643245,0.017 -0.3759768,0.051 -0.1093761,0.032 -0.2062184,0.068 -0.2905273,0.1093 -0.082032,0.039 -0.1515308,0.075 -0.2084961,0.1094 -0.054688,0.032 -0.095704,0.048 -0.1230469,0.048 -0.01823,0 -0.03418,-0 -0.047852,-0.014 -0.013672,-0.01 -0.026205,-0.023 -0.037598,-0.041 -0.00912,-0.018 -0.015951,-0.041 -0.020508,-0.068 -0.00456,-0.03 -0.00684,-0.062 -0.00684,-0.096 -5e-7,-0.057 0.00342,-0.1014 0.010254,-0.1333 0.00911,-0.034 0.028483,-0.066 0.058106,-0.096 0.0319,-0.03 0.085449,-0.064 0.1606445,-0.1025 0.075195,-0.041 0.161783,-0.077 0.2597656,-0.1094 0.097981,-0.034 0.205077,-0.062 0.3212891,-0.082 0.1162095,-0.023 0.2335595,-0.034 0.3520505,-0.034 0.221027,0 0.409015,0.025 0.563965,0.075 0.154946,0.05 0.280271,0.1242 0.375977,0.2222 0.0957,0.096 0.165199,0.2153 0.208496,0.3588 0.04329,0.1436 0.06494,0.3111 0.06494,0.5025 l 0,2.0747 m -0.560547,-1.4048 -0.481933,0 c -0.15495,0 -0.28939,0.014 -0.403321,0.041 -0.1139332,0.025 -0.2084969,0.064 -0.283691,0.1162 -0.075196,0.05 -0.1310231,0.1117 -0.1674805,0.1846 -0.034181,0.071 -0.05127,0.1527 -0.05127,0.2461 -9e-7,0.1595 0.050129,0.2871 0.1503906,0.3828 0.1025379,0.093 0.2449532,0.1401 0.4272464,0.1401 0.14811,0 0.284829,-0.037 0.410156,-0.1127 0.127602,-0.075 0.260903,-0.1903 0.399902,-0.3453 l 0,-0.6528"
         style=""
         id="path3748" />
      <path
         d="m 14.907008,1044.5701 c -3e-6,0.01 -0.0011,0.019 -0.0034,0.031 -3e-6,0.01 -0.0011,0.019 -0.0034,0.031 -0.0023,0.011 -0.0057,0.024 -0.01025,0.038 -0.0023,0.014 -0.0057,0.028 -0.01025,0.044 l -1.049316,2.9224 c -0.0091,0.025 -0.02165,0.046 -0.0376,0.062 -0.01367,0.016 -0.03532,0.029 -0.06494,0.038 -0.02962,0.01 -0.06722,0.015 -0.112792,0.017 -0.04558,0 -0.102541,0.01 -0.170899,0.01 -0.06836,0 -0.125327,-0 -0.170898,-0.01 -0.04557,-0 -0.08317,-0.011 -0.112793,-0.02 -0.02734,-0.01 -0.04899,-0.022 -0.06494,-0.038 -0.01595,-0.016 -0.02848,-0.035 -0.0376,-0.058 l -1.045899,-2.9224 c -0.0091,-0.027 -0.01709,-0.051 -0.02393,-0.072 -0.0046,-0.021 -0.008,-0.035 -0.01025,-0.044 0,-0.011 0,-0.021 0,-0.027 0,-0.018 0.0046,-0.034 0.01367,-0.048 0.0091,-0.014 0.02393,-0.024 0.04443,-0.031 0.02279,-0.01 0.05127,-0.015 0.08545,-0.017 0.03646,-0 0.08089,-0 0.133301,-0 0.06608,10e-5 0.118489,0 0.157227,0.01 0.04101,0 0.07178,0.01 0.09228,0.017 0.02279,0.01 0.03874,0.021 0.04785,0.034 0.01139,0.014 0.02165,0.031 0.03076,0.051 l 0.868164,2.5362 0.01367,0.041 0.01025,-0.041 0.85791,-2.5362 c 0.0046,-0.021 0.01253,-0.038 0.02393,-0.051 0.01139,-0.014 0.02734,-0.025 0.04785,-0.034 0.02278,-0.01 0.05241,-0.015 0.08887,-0.017 0.03874,-0 0.08887,-0.01 0.150391,-0.01 0.05241,10e-5 0.0957,0 0.129883,0 0.03418,0 0.06038,0.01 0.07861,0.017 0.0205,0.01 0.03418,0.02 0.04102,0.034 0.0091,0.011 0.01367,0.026 0.01367,0.044"
         style=""
         id="path3750" />
      <path
         d="m 18.099391,1045.9817 c -4e-6,0.089 -0.02279,0.1527 -0.06836,0.1914 -0.0433,0.036 -0.09343,0.055 -0.15039,0.055 l -2.016602,0 c -10e-7,0.1709 0.01709,0.3247 0.05127,0.4614 0.03418,0.1367 0.09115,0.2541 0.170899,0.3521 0.07975,0.098 0.18343,0.1731 0.311035,0.2255 0.127603,0.053 0.28369,0.079 0.468262,0.079 0.145831,0 0.275714,-0.011 0.389648,-0.034 0.11393,-0.025 0.211912,-0.052 0.293946,-0.082 0.08431,-0.03 0.152666,-0.056 0.205078,-0.079 0.05468,-0.025 0.0957,-0.038 0.123047,-0.038 0.01595,0 0.02962,0 0.04101,0.014 0.01367,0.01 0.02392,0.018 0.03076,0.034 0.0068,0.016 0.01139,0.039 0.01367,0.068 0.0046,0.027 0.0068,0.062 0.0068,0.1026 -3e-6,0.03 -0.0011,0.056 -0.0034,0.079 -0.0023,0.021 -0.0057,0.04 -0.01025,0.058 -0.0023,0.016 -0.008,0.031 -0.01709,0.044 -0.0068,0.014 -0.01709,0.027 -0.03076,0.041 -0.0114,0.011 -0.04785,0.032 -0.109375,0.062 -0.06153,0.027 -0.141278,0.055 -0.239258,0.082 -0.09798,0.027 -0.211916,0.051 -0.341796,0.072 -0.127607,0.023 -0.264325,0.034 -0.410157,0.034 -0.252931,0 -0.475099,-0.035 -0.666504,-0.106 -0.189128,-0.071 -0.348633,-0.1754 -0.478515,-0.3144 -0.129884,-0.139 -0.227865,-0.3134 -0.293946,-0.523 -0.06608,-0.2096 -0.09912,-0.4534 -0.09912,-0.7314 0,-0.2644 0.03418,-0.5013 0.102539,-0.711 0.06836,-0.2119 0.166341,-0.3908 0.293946,-0.5366 0.129882,-0.1481 0.285969,-0.2609 0.468261,-0.3384 0.182291,-0.08 0.386229,-0.1196 0.611817,-0.1196 0.241534,0 0.446612,0.039 0.615234,0.1162 0.170896,0.078 0.311033,0.1823 0.42041,0.3145 0.109372,0.1298 0.189125,0.2837 0.239258,0.4614 0.05241,0.1754 0.07861,0.3634 0.07861,0.564 l 0,0.1025 m -0.567383,-0.1675 c 0.0068,-0.2962 -0.05925,-0.5286 -0.198242,-0.6973 -0.136721,-0.1686 -0.34066,-0.2529 -0.611817,-0.2529 -0.138999,0 -0.260906,0.026 -0.365723,0.079 -0.104819,0.052 -0.192546,0.1219 -0.263183,0.2085 -0.07064,0.087 -0.125327,0.188 -0.164063,0.3042 -0.03874,0.114 -0.06039,0.2336 -0.06494,0.3589 l 1.667969,0"
         style=""
         id="path3752" />
      <path
         d="m 22.864039,1047.6565 c -3e-6,0.027 -0.0091,0.048 -0.02734,0.062 -0.01823,0.014 -0.0433,0.024 -0.07519,0.031 -0.0319,0.01 -0.07862,0.01 -0.140137,0.01 -0.05925,0 -0.107099,-0 -0.143555,-0.01 -0.03418,-0.01 -0.05925,-0.017 -0.0752,-0.031 -0.01595,-0.014 -0.02393,-0.034 -0.02393,-0.062 l 0,-0.3076 c -0.134442,0.1435 -0.284832,0.2552 -0.451171,0.3349 -0.164065,0.08 -0.338381,0.1197 -0.52295,0.1197 -0.161785,0 -0.308757,-0.022 -0.440918,-0.065 -0.129883,-0.041 -0.241537,-0.1014 -0.334961,-0.1811 -0.09115,-0.08 -0.162923,-0.1778 -0.215332,-0.294 -0.05013,-0.1162 -0.0752,-0.2483 -0.0752,-0.3965 0,-0.1731 0.03532,-0.3235 0.105957,-0.4511 0.07064,-0.1276 0.172037,-0.2336 0.304199,-0.3179 0.132161,-0.084 0.293945,-0.147 0.485352,-0.188 0.191405,-0.043 0.406737,-0.065 0.645996,-0.065 l 0.423828,0 0,-0.2393 c -2e-6,-0.1185 -0.01253,-0.2233 -0.0376,-0.3144 -0.02507,-0.091 -0.06608,-0.1664 -0.123046,-0.2256 -0.05469,-0.062 -0.126467,-0.1071 -0.215332,-0.1367 -0.08887,-0.032 -0.198244,-0.048 -0.328125,-0.048 -0.138999,0 -0.264325,0.017 -0.375977,0.051 -0.109376,0.032 -0.206218,0.068 -0.290527,0.1093 -0.08203,0.039 -0.151531,0.075 -0.208496,0.1094 -0.05469,0.032 -0.0957,0.048 -0.123047,0.048 -0.01823,0 -0.03418,-0 -0.04785,-0.014 -0.01367,-0.01 -0.0262,-0.023 -0.0376,-0.041 -0.0091,-0.018 -0.01595,-0.041 -0.02051,-0.068 -0.0046,-0.03 -0.0068,-0.062 -0.0068,-0.096 -1e-6,-0.057 0.0034,-0.1014 0.01025,-0.1333 0.0091,-0.034 0.02848,-0.066 0.0581,-0.096 0.0319,-0.03 0.08545,-0.064 0.160645,-0.1025 0.07519,-0.041 0.161783,-0.077 0.259765,-0.1094 0.09798,-0.034 0.205077,-0.062 0.321289,-0.082 0.11621,-0.023 0.23356,-0.034 0.352051,-0.034 0.221027,0 0.409015,0.025 0.563965,0.075 0.154945,0.05 0.280271,0.1242 0.375976,0.2222 0.0957,0.096 0.1652,0.2153 0.208497,0.3588 0.04329,0.1436 0.06494,0.3111 0.06494,0.5025 l 0,2.0747 m -0.560547,-1.4048 -0.481934,0 c -0.154949,0 -0.289389,0.014 -0.40332,0.041 -0.113933,0.025 -0.208497,0.064 -0.283691,0.1162 -0.0752,0.05 -0.131023,0.1117 -0.167481,0.1846 -0.03418,0.071 -0.05127,0.1527 -0.05127,0.2461 -1e-6,0.1595 0.05013,0.2871 0.15039,0.3828 0.102538,0.093 0.244954,0.1401 0.427246,0.1401 0.148111,0 0.284829,-0.037 0.410157,-0.1127 0.127602,-0.075 0.260903,-0.1903 0.399902,-0.3453 l 0,-0.6528"
         style=""
         id="path3754" />
      <path
         d="m 25.827418,1046.8157 c -3e-6,0.1572 -0.02963,0.2973 -0.08887,0.4204 -0.05697,0.123 -0.139,0.2267 -0.246094,0.311 -0.107098,0.084 -0.234702,0.1481 -0.382813,0.1914 -0.148113,0.043 -0.311036,0.065 -0.488769,0.065 -0.109376,0 -0.214194,-0.01 -0.314453,-0.027 -0.09798,-0.016 -0.18685,-0.036 -0.266602,-0.062 -0.07747,-0.027 -0.143555,-0.055 -0.198242,-0.082 -0.05469,-0.03 -0.09456,-0.056 -0.119629,-0.079 -0.02506,-0.023 -0.04329,-0.055 -0.05469,-0.096 -0.01139,-0.041 -0.01709,-0.097 -0.01709,-0.1675 -1e-6,-0.043 0.0023,-0.08 0.0068,-0.1094 0.0046,-0.03 0.01025,-0.054 0.01709,-0.072 0.0068,-0.018 0.01595,-0.031 0.02734,-0.038 0.01367,-0.01 0.02848,-0.014 0.04443,-0.014 0.02506,10e-5 0.06152,0.016 0.109375,0.048 0.05013,0.03 0.110514,0.063 0.181152,0.099 0.07292,0.036 0.158365,0.071 0.256348,0.1026 0.09798,0.03 0.210773,0.044 0.338379,0.044 0.0957,0 0.18229,-0.01 0.259765,-0.031 0.07747,-0.021 0.144693,-0.05 0.201661,-0.089 0.05696,-0.041 0.100258,-0.092 0.129882,-0.1538 0.0319,-0.062 0.04785,-0.1345 0.04785,-0.2188 -2e-6,-0.087 -0.02279,-0.1595 -0.06836,-0.2187 -0.0433,-0.059 -0.101402,-0.1117 -0.174317,-0.1573 -0.07292,-0.045 -0.154949,-0.085 -0.246094,-0.1196 -0.09115,-0.036 -0.18571,-0.074 -0.283691,-0.1128 -0.0957,-0.039 -0.190268,-0.082 -0.283691,-0.1299 -0.09115,-0.05 -0.173178,-0.1105 -0.246094,-0.1811 -0.07292,-0.071 -0.132162,-0.155 -0.177735,-0.253 -0.04329,-0.098 -0.06494,-0.2153 -0.06494,-0.352 0,-0.1208 0.02279,-0.2358 0.06836,-0.3452 0.04785,-0.1117 0.118489,-0.2085 0.211915,-0.2905 0.09342,-0.084 0.209634,-0.1516 0.348632,-0.2017 0.141275,-0.05 0.305338,-0.075 0.492188,-0.075 0.08203,0 0.164061,0.01 0.246094,0.021 0.08203,0.014 0.156085,0.031 0.222168,0.051 0.06608,0.021 0.121905,0.043 0.16748,0.068 0.04785,0.023 0.08317,0.043 0.105957,0.062 0.02506,0.018 0.04101,0.034 0.04785,0.048 0.0091,0.014 0.01481,0.03 0.01709,0.048 0.0046,0.016 0.008,0.036 0.01025,0.062 0.0046,0.025 0.0068,0.056 0.0068,0.092 -2e-6,0.039 -0.0023,0.073 -0.0068,0.1025 -0.0023,0.027 -0.008,0.05 -0.01709,0.068 -0.0068,0.018 -0.01595,0.032 -0.02734,0.041 -0.0114,0.01 -0.02393,0.01 -0.0376,0.01 -0.02051,0 -0.05013,-0.012 -0.08887,-0.038 -0.03874,-0.025 -0.08887,-0.051 -0.150391,-0.079 -0.06152,-0.03 -0.134442,-0.057 -0.21875,-0.082 -0.08203,-0.025 -0.176596,-0.038 -0.283691,-0.038 -0.09571,0 -0.180014,0.011 -0.25293,0.034 -0.07292,0.02 -0.133302,0.051 -0.181152,0.092 -0.04557,0.039 -0.08089,0.085 -0.105957,0.1401 -0.02279,0.055 -0.03418,0.1139 -0.03418,0.1777 -10e-7,0.089 0.02279,0.1641 0.06836,0.2256 0.04557,0.059 0.104816,0.1117 0.177734,0.1572 0.07291,0.046 0.156086,0.087 0.249512,0.1231 0.09342,0.036 0.187986,0.074 0.283691,0.1128 0.09798,0.039 0.193683,0.082 0.287109,0.1299 0.0957,0.048 0.180011,0.1059 0.25293,0.1743 0.07291,0.068 0.13102,0.1504 0.174316,0.2461 0.04557,0.096 0.06836,0.2096 0.06836,0.3418"
         style=""
         id="path3756" />
      <path
         d="m 27.358668,1047.366 c -1e-6,0.1618 -0.02735,0.27 -0.08203,0.3247 -0.05241,0.052 -0.149253,0.079 -0.290528,0.079 -0.136719,0 -0.231283,-0.026 -0.283691,-0.079 -0.05241,-0.052 -0.07861,-0.1573 -0.07861,-0.3145 -1e-6,-0.1618 0.0262,-0.2689 0.07861,-0.3213 0.05469,-0.055 0.152668,-0.082 0.293945,-0.082 0.136718,0 0.231282,0.026 0.283692,0.079 0.05241,0.052 0.07861,0.1572 0.07861,0.3145"
         style=""
         id="path3758" />
      <path
         d="m 29.12234,1047.366 c -2e-6,0.1618 -0.02735,0.27 -0.08203,0.3247 -0.05241,0.052 -0.149252,0.079 -0.290527,0.079 -0.136719,0 -0.231283,-0.026 -0.283691,-0.079 -0.05241,-0.052 -0.07861,-0.1573 -0.07861,-0.3145 0,-0.1618 0.0262,-0.2689 0.07861,-0.3213 0.05469,-0.055 0.152668,-0.082 0.293945,-0.082 0.136718,0 0.231281,0.026 0.283691,0.079 0.05241,0.052 0.07861,0.1572 0.07861,0.3145"
         style=""
         id="path3760" />
      <path
         d="m 30.886012,1047.366 c -2e-6,0.1618 -0.02735,0.27 -0.08203,0.3247 -0.05241,0.052 -0.149252,0.079 -0.290527,0.079 -0.136719,0 -0.231283,-0.026 -0.283691,-0.079 -0.05241,-0.052 -0.07861,-0.1573 -0.07861,-0.3145 0,-0.1618 0.0262,-0.2689 0.07861,-0.3213 0.05469,-0.055 0.152668,-0.082 0.293945,-0.082 0.136718,0 0.231281,0.026 0.283691,0.079 0.05241,0.052 0.07861,0.1572 0.07861,0.3145"
         style=""
         id="path3762" />
    </g>
    <rect
       style="fill:#a0a0a0;fill-opacity:0.78431373;stroke:none"
       id="rect3640"
       width="40"
       height="0.5"
       x="4.0070109"
       y="1031.8677" />
    <rect
       style="fill:url(#linearGradient3724);fill-opacity:1;stroke:none"
       id="rect3652"
       width="42"
       height="7.5"
       x="2.8830912"
       y="1023.1802" />
    <g
       style="font-size:7px;font-style:normal;font-variant:normal;font-weight:normal;font-stretch:normal;fill:#f0f0f0;fill-opacity:1;stroke:none;font-family:Calibri;-inkscape-font-specification:Calibri"
       id="text3642">
      <path
         d="m 9.7014413,1026.5718 c -4.3e-6,0.3577 -0.042159,0.6802 -0.1264649,0.9673 -0.084314,0.2871 -0.2107787,0.532 -0.3793945,0.7348 -0.1663448,0.2005 -0.37598,0.3555 -0.6289062,0.4649 -0.2529326,0.1071 -0.548017,0.1606 -0.8852539,0.1606 -0.3326843,0 -0.6209327,-0.049 -0.8647461,-0.147 -0.2415377,-0.1002 -0.4420583,-0.2449 -0.6015625,-0.434 -0.1572272,-0.1892 -0.2745774,-0.4239 -0.3520508,-0.7041 -0.077474,-0.2803 -0.1162113,-0.6027 -0.116211,-0.9673 -3e-7,-0.3487 0.042155,-0.6654 0.1264649,-0.9502 0.084309,-0.2848 0.2107741,-0.5264 0.3793945,-0.7246 0.1686188,-0.2005 0.3793933,-0.3544 0.6323242,-0.4615 0.252928,-0.1093 0.5480123,-0.164 0.8852539,-0.164 0.3258437,0 0.6095348,0.049 0.8510743,0.147 0.241533,0.098 0.4420536,0.2415 0.6015625,0.4306 0.1617798,0.1869 0.2814086,0.4193 0.3588867,0.6973 0.079748,0.2757 0.1196246,0.5924 0.1196289,0.9502 m -0.6186524,0.041 c -3.6e-6,-0.2507 -0.02279,-0.4831 -0.068359,-0.6973 -0.043298,-0.2164 -0.1173538,-0.4033 -0.222168,-0.5605 -0.1025423,-0.1595 -0.2404003,-0.2837 -0.4135742,-0.3726 -0.1731799,-0.089 -0.3873724,-0.1333 -0.6425781,-0.1333 -0.2552104,0 -0.4694029,0.048 -0.6425782,0.1436 -0.1731786,0.096 -0.3144545,0.2233 -0.4238281,0.3828 -0.1070975,0.1595 -0.1845714,0.3463 -0.2324219,0.5605 -0.045574,0.212 -0.06836,0.4353 -0.068359,0.67 -1e-6,0.2597 0.021646,0.499 0.064941,0.7177 0.043293,0.2188 0.1162098,0.4079 0.21875,0.5674 0.1025377,0.1572 0.2392563,0.2803 0.4101562,0.3692 0.1731753,0.087 0.3896464,0.1298 0.6494141,0.1298 0.2574844,0 0.4739555,-0.048 0.649414,-0.1435 0.1754526,-0.096 0.3167285,-0.2245 0.4238282,-0.3862 0.1070928,-0.1641 0.1834274,-0.3532 0.2290039,-0.5674 0.045569,-0.2142 0.068356,-0.4409 0.068359,-0.6802"
         style=""
         id="path3765" />
      <path
         d="m 13.396266,1027.1631 c -4e-6,0.2689 -0.02963,0.5104 -0.08887,0.7246 -0.05697,0.2142 -0.142418,0.3965 -0.256347,0.5469 -0.111657,0.1481 -0.250654,0.2632 -0.416993,0.3452 -0.166343,0.08 -0.35661,0.1196 -0.5708,0.1196 -0.09115,0 -0.175458,-0.01 -0.25293,-0.027 -0.07748,-0.018 -0.15381,-0.047 -0.229004,-0.086 -0.07292,-0.039 -0.145835,-0.088 -0.21875,-0.147 -0.07292,-0.059 -0.150392,-0.1287 -0.232422,-0.2084 l 0,1.538 c -1e-6,0.018 -0.0046,0.034 -0.01367,0.048 -0.0091,0.014 -0.02393,0.025 -0.04443,0.034 -0.02051,0.01 -0.04899,0.016 -0.08545,0.02 -0.03646,0 -0.08317,0.01 -0.140137,0.01 -0.05469,0 -0.100261,-0 -0.136719,-0.01 -0.03646,-0 -0.06608,-0.011 -0.08887,-0.02 -0.02051,-0.01 -0.03532,-0.021 -0.04443,-0.034 -0.0068,-0.014 -0.01025,-0.03 -0.01025,-0.048 l 0,-4.2963 c 0,-0.021 0.0034,-0.036 0.01025,-0.048 0.0068,-0.014 0.02051,-0.025 0.04102,-0.034 0.02051,-0.01 0.04671,-0.015 0.07861,-0.017 0.0319,-0 0.07064,-0.01 0.116211,-0.01 0.04785,0 0.08659,0 0.116211,0.01 0.0319,0 0.0581,0.01 0.07861,0.017 0.02051,0.01 0.03418,0.021 0.04102,0.034 0.0091,0.011 0.01367,0.027 0.01367,0.048 l 0,0.4135 c 0.09342,-0.096 0.18343,-0.1788 0.270019,-0.2495 0.08659,-0.071 0.173176,-0.1287 0.259766,-0.1743 0.08887,-0.048 0.178872,-0.083 0.27002,-0.106 0.09342,-0.025 0.191404,-0.038 0.293945,-0.038 0.223305,0 0.413572,0.043 0.570801,0.1299 0.157223,0.087 0.284827,0.2051 0.382812,0.3555 0.100257,0.1504 0.173174,0.3258 0.21875,0.5264 0.04557,0.1982 0.06836,0.409 0.06836,0.6323 m -0.594727,0.065 c -3e-6,-0.1572 -0.01253,-0.3087 -0.0376,-0.4546 -0.02279,-0.1481 -0.0638,-0.2791 -0.123047,-0.393 -0.05697,-0.114 -0.134442,-0.2051 -0.232421,-0.2735 -0.09799,-0.068 -0.219892,-0.1025 -0.365723,-0.1025 -0.07292,0 -0.144696,0.011 -0.215332,0.034 -0.07064,0.02 -0.142417,0.055 -0.215332,0.1025 -0.07292,0.046 -0.149253,0.1071 -0.229004,0.1846 -0.07975,0.075 -0.164064,0.1686 -0.25293,0.2803 l 0,1.2236 c 0.154947,0.1891 0.301919,0.3338 0.440918,0.4341 0.138996,0.1002 0.284829,0.1504 0.4375,0.1504 0.141274,0 0.262042,-0.034 0.362305,-0.1026 0.102537,-0.068 0.184568,-0.1595 0.246094,-0.2734 0.0638,-0.1139 0.110511,-0.2415 0.140136,-0.3828 0.02962,-0.1413 0.04443,-0.2837 0.04443,-0.4273"
         style=""
         id="path3767" />
      <path
         d="m 16.868922,1027.0776 c -3e-6,0.089 -0.02279,0.1527 -0.06836,0.1914 -0.0433,0.036 -0.09343,0.055 -0.15039,0.055 l -2.016602,0 c -1e-6,0.1709 0.01709,0.3247 0.05127,0.4615 0.03418,0.1367 0.09115,0.254 0.170898,0.352 0.07975,0.098 0.18343,0.1732 0.311035,0.2256 0.127603,0.052 0.28369,0.079 0.468262,0.079 0.145831,0 0.275714,-0.011 0.389648,-0.034 0.11393,-0.025 0.211912,-0.052 0.293946,-0.082 0.08431,-0.03 0.152666,-0.056 0.205078,-0.079 0.05468,-0.025 0.0957,-0.038 0.123047,-0.038 0.01595,0 0.02962,0 0.04101,0.014 0.01367,0.01 0.02392,0.018 0.03076,0.034 0.0068,0.016 0.01139,0.039 0.01367,0.068 0.0046,0.027 0.0068,0.062 0.0068,0.1025 -3e-6,0.03 -0.0011,0.056 -0.0034,0.079 -0.0023,0.021 -0.0057,0.04 -0.01025,0.058 -0.0023,0.016 -0.008,0.031 -0.01709,0.044 -0.0068,0.014 -0.01709,0.027 -0.03076,0.041 -0.0114,0.011 -0.04786,0.032 -0.109375,0.062 -0.06153,0.027 -0.141279,0.055 -0.239258,0.082 -0.09799,0.027 -0.211917,0.051 -0.341797,0.072 -0.127606,0.023 -0.264325,0.034 -0.410156,0.034 -0.252932,0 -0.475099,-0.035 -0.666504,-0.1059 -0.189129,-0.071 -0.348634,-0.1755 -0.478516,-0.3145 -0.129883,-0.139 -0.227865,-0.3133 -0.293945,-0.5229 -0.06608,-0.2097 -0.09912,-0.4535 -0.09912,-0.7315 -10e-7,-0.2643 0.03418,-0.5013 0.102539,-0.7109 0.06836,-0.2119 0.16634,-0.3908 0.293945,-0.5366 0.129882,-0.1482 0.285969,-0.261 0.468262,-0.3384 0.18229,-0.08 0.386229,-0.1197 0.611816,-0.1197 0.241535,0 0.446612,0.039 0.615235,0.1163 0.170895,0.077 0.311032,0.1822 0.42041,0.3144 0.109372,0.1299 0.189124,0.2837 0.239257,0.4614 0.05241,0.1755 0.07861,0.3635 0.07861,0.564 l 0,0.1025 m -0.567383,-0.1674 c 0.0068,-0.2963 -0.05925,-0.5287 -0.198242,-0.6973 -0.136721,-0.1686 -0.34066,-0.2529 -0.611817,-0.2529 -0.138999,0 -0.260906,0.026 -0.365722,0.079 -0.104819,0.052 -0.192547,0.1219 -0.263184,0.2085 -0.07064,0.087 -0.125326,0.188 -0.164062,0.3042 -0.03874,0.1139 -0.06038,0.2335 -0.06494,0.3589 l 1.667969,0"
         style=""
         id="path3769" />
      <path
         d="m 20.379176,1028.749 c -4e-6,0.018 -0.0046,0.034 -0.01367,0.048 -0.0091,0.011 -0.02393,0.022 -0.04443,0.031 -0.02051,0.01 -0.04899,0.016 -0.08545,0.02 -0.03646,0 -0.08203,0.01 -0.136719,0.01 -0.05697,0 -0.103681,-0 -0.140136,-0.01 -0.03646,-0 -0.06495,-0.011 -0.08545,-0.02 -0.02051,-0.01 -0.03532,-0.019 -0.04443,-0.031 -0.0091,-0.014 -0.01368,-0.03 -0.01367,-0.048 l 0,-1.8012 c -3e-6,-0.1755 -0.01368,-0.3168 -0.04102,-0.4239 -0.02735,-0.1071 -0.06722,-0.1994 -0.119629,-0.2768 -0.05241,-0.078 -0.12077,-0.1367 -0.205078,-0.1778 -0.08203,-0.041 -0.177736,-0.062 -0.287109,-0.062 -0.141278,0 -0.282554,0.05 -0.423828,0.1504 -0.141278,0.1003 -0.28939,0.2472 -0.444336,0.4409 l 0,2.1499 c -1e-6,0.018 -0.0046,0.034 -0.01367,0.048 -0.0091,0.011 -0.02393,0.022 -0.04443,0.031 -0.02051,0.01 -0.04899,0.016 -0.08545,0.02 -0.03646,0 -0.08317,0.01 -0.140137,0.01 -0.05469,0 -0.100261,-0 -0.136718,-0.01 -0.03646,-0 -0.06608,-0.011 -0.08887,-0.02 -0.02051,-0.01 -0.03532,-0.019 -0.04443,-0.031 -0.0068,-0.014 -0.01026,-0.03 -0.01025,-0.048 l 0,-3.0761 c -1e-6,-0.018 0.0034,-0.033 0.01025,-0.044 0.0068,-0.014 0.02051,-0.025 0.04101,-0.034 0.02051,-0.011 0.04671,-0.018 0.07861,-0.021 0.0319,-0 0.07405,-0.01 0.126465,-0.01 0.05013,0 0.09115,0 0.123046,0.01 0.03418,0 0.06038,0.01 0.07861,0.021 0.01823,0.01 0.03076,0.021 0.0376,0.034 0.0091,0.011 0.01367,0.026 0.01367,0.044 l 0,0.4067 c 0.173176,-0.1937 0.345214,-0.335 0.516114,-0.4238 0.173175,-0.091 0.347491,-0.1368 0.522949,-0.1368 0.205076,0 0.377113,0.035 0.516113,0.106 0.141273,0.068 0.255205,0.1606 0.341797,0.2769 0.08658,0.1162 0.148109,0.2529 0.18457,0.4101 0.03873,0.155 0.0581,0.3418 0.05811,0.5606 l 0,1.8764"
         style=""
         id="path3771" />
      <path
         d="m 22.136012,1028.4619 c -2e-6,0.1618 -0.02735,0.27 -0.08203,0.3247 -0.05241,0.052 -0.149252,0.079 -0.290527,0.079 -0.136719,0 -0.231283,-0.026 -0.283691,-0.079 -0.05241,-0.052 -0.07861,-0.1572 -0.07861,-0.3144 0,-0.1618 0.0262,-0.2689 0.07861,-0.3213 0.05469,-0.055 0.152668,-0.082 0.293945,-0.082 0.136718,0 0.231281,0.026 0.283691,0.079 0.05241,0.052 0.07861,0.1572 0.07861,0.3144"
         style=""
         id="path3773" />
      <path
         d="m 23.899683,1028.4619 c -1e-6,0.1618 -0.02734,0.27 -0.08203,0.3247 -0.05241,0.052 -0.149252,0.079 -0.290527,0.079 -0.13672,0 -0.231283,-0.026 -0.283692,-0.079 -0.05241,-0.052 -0.07861,-0.1572 -0.07861,-0.3144 0,-0.1618 0.0262,-0.2689 0.07861,-0.3213 0.05469,-0.055 0.152669,-0.082 0.293946,-0.082 0.136718,0 0.231281,0.026 0.283691,0.079 0.05241,0.052 0.07861,0.1572 0.07861,0.3144"
         style=""
         id="path3775" />
      <path
         d="m 25.663355,1028.4619 c -10e-7,0.1618 -0.02735,0.27 -0.08203,0.3247 -0.05241,0.052 -0.149252,0.079 -0.290527,0.079 -0.13672,0 -0.231283,-0.026 -0.283692,-0.079 -0.05241,-0.052 -0.07861,-0.1572 -0.07861,-0.3144 0,-0.1618 0.0262,-0.2689 0.07861,-0.3213 0.05469,-0.055 0.152669,-0.082 0.293946,-0.082 0.136717,0 0.231281,0.026 0.283691,0.079 0.05241,0.052 0.07861,0.1572 0.07861,0.3144"
         style=""
         id="path3777" />
    </g>
    <rect
       style="fill:url(#linearGradient3718);fill-opacity:1;stroke:none"
       id="rect3666"
       width="22"
       height="7.5"
       x="2.0070109"
       y="1006.6177" />
    <rect
       y="1007.1177"
       x="2.5070109"
       height="6.5"
       width="21"
       id="rect3679"
       style="fill:url(#linearGradient3715);fill-opacity:1;stroke:none" />
  </g>
</svg>
