<?xml version="1.0" encoding="UTF-8" standalone="no"?>
<!-- Created with Inkscape (http://www.inkscape.org/) -->

<svg
   xmlns:dc="http://purl.org/dc/elements/1.1/"
   xmlns:cc="http://creativecommons.org/ns#"
   xmlns:rdf="http://www.w3.org/1999/02/22-rdf-syntax-ns#"
   xmlns:svg="http://www.w3.org/2000/svg"
   xmlns="http://www.w3.org/2000/svg"
   xmlns:xlink="http://www.w3.org/1999/xlink"
   xmlns:sodipodi="http://sodipodi.sourceforge.net/DTD/sodipodi-0.dtd"
   xmlns:inkscape="http://www.inkscape.org/namespaces/inkscape"
   width="48"
   height="48"
   id="svg2"
   version="1.1"
   inkscape:version="0.47pre4 r22446"
   sodipodi:docname="easy-tag.svg">
  <defs
     id="defs4">
    <linearGradient
       inkscape:collect="always"
       id="linearGradient3786">
      <stop
         style="stop-color:#333333;stop-opacity:1;"
         offset="0"
         id="stop3788" />
      <stop
         style="stop-color:#333333;stop-opacity:0;"
         offset="1"
         id="stop3790" />
    </linearGradient>
    <linearGradient
       id="linearGradient3752">
      <stop
         style="stop-color:#ffffff;stop-opacity:1;"
         offset="0"
         id="stop3754" />
      <stop
         style="stop-color:#ffffff;stop-opacity:0;"
         offset="1"
         id="stop3756" />
    </linearGradient>
    <inkscape:perspective
       sodipodi:type="inkscape:persp3d"
       inkscape:vp_x="0 : 526.18109 : 1"
       inkscape:vp_y="0 : 1000 : 0"
       inkscape:vp_z="744.09448 : 526.18109 : 1"
       inkscape:persp3d-origin="372.04724 : 350.78739 : 1"
       id="perspective10" />
    <inkscape:perspective
       id="perspective2824"
       inkscape:persp3d-origin="0.5 : 0.33333333 : 1"
       inkscape:vp_z="1 : 0.5 : 1"
       inkscape:vp_y="0 : 1000 : 0"
       inkscape:vp_x="0 : 0.5 : 1"
       sodipodi:type="inkscape:persp3d" />
    <linearGradient
       inkscape:collect="always"
       xlink:href="#linearGradient3752"
       id="linearGradient3782"
       gradientUnits="userSpaceOnUse"
       x1="12.785714"
       y1="4.0421343"
       x2="17.875"
       y2="9.2152634" />
    <linearGradient
       inkscape:collect="always"
       xlink:href="#linearGradient3786"
       id="linearGradient3792"
       x1="-40.892857"
       y1="44.785713"
       x2="44.642857"
       y2="44.785713"
       gradientUnits="userSpaceOnUse" />
    <linearGradient
       inkscape:collect="always"
       xlink:href="#linearGradient3752"
       id="linearGradient2844"
       gradientUnits="userSpaceOnUse"
       x1="12.785714"
       y1="4.0421343"
       x2="17.875"
       y2="9.2152634"
       gradientTransform="matrix(0.70710678,0.70710678,-0.70710678,0.70710678,26.100729,992.53432)" />
  </defs>
  <sodipodi:namedview
     id="base"
     pagecolor="#ffffff"
     bordercolor="#666666"
     borderopacity="1.0"
     inkscape:pageopacity="0.0"
     inkscape:pageshadow="2"
     inkscape:zoom="11.2"
     inkscape:cx="33.025773"
     inkscape:cy="33.179828"
     inkscape:document-units="px"
     inkscape:current-layer="layer1"
     showgrid="false"
     inkscape:window-width="1278"
     inkscape:window-height="712"
     inkscape:window-x="0"
     inkscape:window-y="25"
     inkscape:window-maximized="1" />
  <metadata
     id="metadata7">
    <rdf:RDF>
      <cc:Work
         rdf:about="">
        <dc:format>image/svg+xml</dc:format>
        <dc:type
           rdf:resource="http://purl.org/dc/dcmitype/StillImage" />
        <dc:title />
      </cc:Work>
    </rdf:RDF>
  </metadata>
  <g
     inkscape:label="Livello 1"
     inkscape:groupmode="layer"
     id="layer1"
     transform="translate(0,-1004.3622)">
    <path
       sodipodi:type="arc"
       style="fill:url(#linearGradient3792);fill-opacity:1;fill-rule:nonzero;stroke:none"
       id="path3784"
       sodipodi:cx="24.196428"
       sodipodi:cy="44.785713"
       sodipodi:rx="20.446428"
       sodipodi:ry="1.4285715"
       d="m 44.642857,44.785713 c 0,0.788978 -9.154178,1.428572 -20.446429,1.428572 -11.29225,0 -20.446428,-0.639594 -20.446428,-1.428572 0,-0.788978 9.154178,-1.428571 20.446428,-1.428571 11.292251,0 20.446429,0.639593 20.446429,1.428571 z"
       transform="translate(-1.2319821,1004.3622)" />
    <path
       style="fill:#141414;fill-opacity:1;fill-rule:nonzero;stroke:none"
       d="m 41.148845,1010.7202 c -1.189212,-1.137 -2.277555,-1.8801 -3.557631,-1.7456 l -7.977048,-0.1547 c -1.518724,0.1594 -4.056813,-0.1859 -5.347495,1.1048 l -20.5060968,20.5061 c -1.1752115,1.1752 -1.1752115,3.0675 0,4.2427 l 13.4350288,13.435 c 1.175211,1.1752 3.067429,1.1752 4.242641,0 l 20.506096,-20.5061 c 1.165242,-1.1652 1.104855,-3.5406 1.104855,-5.3475 l -0.243068,-8.0654 c 0,-1.0714 -0.379964,-2.3037 -1.657282,-3.4693 z m -1.767767,1.7678 c 1.073942,1.0739 1.073942,2.8151 0,3.8891 -1.073942,1.0739 -2.815145,1.0739 -3.889087,0 -1.073942,-1.074 -1.073942,-2.8152 0,-3.8891 1.073942,-1.074 2.815145,-1.074 3.889087,0 z"
       id="rect2830" />
    <path
       id="path3750"
       d="m 41.148845,1010.7202 c -1.189212,-1.137 -2.277555,-1.8801 -3.557631,-1.7456 l -7.977048,-0.1547 c -1.518724,0.1594 -4.056813,-0.1859 -5.347495,1.1048 l -20.5060968,20.5061 c -1.1752115,1.1752 -1.1752115,3.0675 0,4.2427 l 13.4350288,13.435 c 1.175211,1.1752 3.067429,1.1752 4.242641,0 l 20.506096,-20.5061 c 1.165242,-1.1652 1.104855,-3.5406 1.104855,-5.3475 l -0.243068,-8.0654 c 0,-1.0714 -0.379964,-2.3037 -1.657282,-3.4693 z m -1.767767,1.7678 c 1.073942,1.0739 1.073942,2.8151 0,3.8891 -1.073942,1.0739 -2.815145,1.0739 -3.889087,0 -1.073942,-1.074 -1.073942,-2.8152 0,-3.8891 1.073942,-1.074 2.815145,-1.074 3.889087,0 z"
       style="fill:url(#linearGradient2844);fill-opacity:1;fill-rule:nonzero;stroke:none" />
    <rect
       style="fill:#646464;fill-opacity:1;fill-rule:nonzero;stroke:none"
       id="rect3626"
       width="20"
       height="30"
       x="733.76917"
       y="696.27271"
       rx="2"
       ry="2"
       transform="matrix(0.70710678,0.70710678,-0.70710678,0.70710678,0,0)" />
    <rect
       y="696.77271"
       x="734.26917"
       height="29"
       width="19"
       id="rect3630"
       style="fill:#f0f0f0;fill-opacity:1;fill-rule:nonzero;stroke:none"
       rx="1.8"
       ry="1.8"
       transform="matrix(0.70710678,0.70710678,-0.70710678,0.70710678,0,0)" />
    <g
       id="g3642"
       transform="matrix(0.70710678,0.70710678,-0.70710678,0.70710678,732.04941,278.10036)">
      <rect
         style="fill:#ffffff;fill-opacity:1;fill-rule:nonzero;stroke:none"
         id="rect3644"
         width="1"
         height="24"
         x="22.985405"
         y="1020.2632" />
      <rect
         y="1020.2632"
         x="22.6066"
         height="24"
         width="1"
         id="rect3646"
         style="fill:#c8c8c8;fill-opacity:1;fill-rule:nonzero;stroke:none" />
    </g>
    <g
       transform="matrix(0.70710678,0.70710678,-0.70710678,0.70710678,734.87784,280.92879)"
       id="g3648">
      <rect
         y="1020.2632"
         x="22.985405"
         height="24"
         width="1"
         id="rect3650"
         style="fill:#ffffff;fill-opacity:1;fill-rule:nonzero;stroke:none" />
      <rect
         style="fill:#c8c8c8;fill-opacity:1;fill-rule:nonzero;stroke:none"
         id="rect3652"
         width="1"
         height="24"
         x="22.6066"
         y="1020.2632" />
    </g>
    <g
       id="g3654"
       transform="matrix(0.70710678,0.70710678,-0.70710678,0.70710678,737.70626,283.75721)">
      <rect
         style="fill:#ffffff;fill-opacity:1;fill-rule:nonzero;stroke:none"
         id="rect3656"
         width="1"
         height="24"
         x="22.985405"
         y="1020.2632" />
      <rect
         y="1020.2632"
         x="22.6066"
         height="24"
         width="1"
         id="rect3658"
         style="fill:#c8c8c8;fill-opacity:1;fill-rule:nonzero;stroke:none" />
    </g>
    <g
       transform="matrix(0.70710678,0.70710678,-0.70710678,0.70710678,740.53469,286.58564)"
       id="g3660">
      <rect
         y="1020.2632"
         x="22.985405"
         height="24"
         width="1"
         id="rect3662"
         style="fill:#ffffff;fill-opacity:1;fill-rule:nonzero;stroke:none" />
      <rect
         style="fill:#c8c8c8;fill-opacity:1;fill-rule:nonzero;stroke:none"
         id="rect3664"
         width="1"
         height="24"
         x="22.6066"
         y="1020.2632" />
    </g>
    <g
       transform="matrix(0.70710678,-0.70710678,0.70710678,0.70710678,0,0)"
       style="font-size:7px;font-style:normal;font-variant:normal;font-weight:normal;font-stretch:normal;fill:#333333;fill-opacity:1;stroke:none;font-family:augie;-inkscape-font-specification:augie"
       id="text3698">
      <path
         d="m -713.54395,735.33386 c 0.0342,0.0615 0.0513,0.12191 0.0513,0.18115 0,0.0638 -0.0217,0.13445 -0.0649,0.21192 -0.0251,0.0433 -0.0649,0.10596 -0.11963,0.18799 -0.0296,0.0433 -0.22331,0.0866 -0.58105,0.12988 -0.7155,0.0866 -1.292,0.12989 -1.72949,0.12988 -0.0137,0.15723 -0.0205,0.32813 -0.0205,0.5127 0,0.33952 0.0251,0.75993 0.0752,1.26123 l 0.14356,1.43555 c 0.0501,0.5013 0.0752,0.89778 0.0752,1.18945 -0.0205,0 -0.0695,0.0194 -0.14697,0.0581 -0.0752,0.0387 -0.12647,0.0581 -0.15381,0.0581 -0.0479,0 -0.0946,-0.0228 -0.14013,-0.0684 -0.0752,-0.39648 -0.13673,-0.85107 -0.18457,-1.36377 -0.0365,-0.37597 -0.0741,-0.86702 -0.1128,-1.47314 l -0.0991,-1.51758 c -0.0775,-0.0205 -0.18571,-0.0308 -0.3247,-0.0308 -0.18913,0 -0.42725,0.0159 -0.71436,0.0478 l -0.86133,0.0957 c -0.30762,0.0342 -0.51611,0.0513 -0.62549,0.0513 -0.12304,-0.15266 -0.18457,-0.35205 -0.18457,-0.59814 1.0778,-0.18001 2.38574,-0.32243 3.92383,-0.42725 0.70182,-0.0478 1.29996,-0.0718 1.79443,-0.0718"
         style=""
         id="path2866" />
      <path
         d="m -713.83789,736.12341 c -0.22787,10e-6 -0.40902,-0.0649 -0.54346,-0.19482 -0.0137,-0.0137 -0.0205,-0.0376 -0.0205,-0.0718 0,-0.098 0.0353,-0.17773 0.10596,-0.23926 0.0729,-0.0638 0.15951,-0.0957 0.25977,-0.0957 0.0638,10e-6 0.16634,0.0866 0.30761,0.25977 0.0798,0.098 0.11394,0.1766 0.10254,0.23584 -0.0137,0.0706 -0.0843,0.10596 -0.21191,0.10595 m 0.45117,4.46729 c -0.0501,0.0752 -0.15381,0.11279 -0.31103,0.11279 -0.0752,0 -0.15609,-0.009 -0.24268,-0.0273 -0.0661,-0.6084 -0.1276,-1.24642 -0.18457,-1.91407 -0.0342,-0.3942 -0.0513,-0.73827 -0.0513,-1.03222 0,-0.32812 0.0205,-0.58333 0.0615,-0.76563 0.0889,-0.0911 0.16976,-0.13671 0.24268,-0.13672 0.0729,1e-5 0.15495,0.0444 0.24609,0.13331 l 0.0957,0.88183 c 0.11165,1.02995 0.16748,1.78874 0.16748,2.27637 0,0.19824 -0.008,0.35547 -0.0239,0.47168"
         style=""
         id="path2868" />
      <path
         d="m -709.05615,737.16248 c 0.0456,0.016 0.0684,0.082 0.0684,0.19824 -10e-6,0.22103 -0.0695,0.33154 -0.2085,0.33154 l -1.4082,0.24609 c 0,0.0889 -0.005,0.20395 -0.0137,0.34522 -0.0205,0.31901 -0.0308,0.52409 -0.0308,0.61523 0,0.54232 0.14584,0.94792 0.4375,1.2168 0.057,0.0524 0.12419,0.0786 0.20166,0.0786 0.0479,0 0.19369,-0.041 0.4375,-0.12304 0.11621,-0.0387 0.21419,-0.0581 0.29395,-0.0581 0.041,0 0.0718,0.002 0.0923,0.007 0.0661,0.16862 0.0991,0.28255 0.0991,0.34179 -0.20281,0.23698 -0.56739,0.35547 -1.09375,0.35547 -0.139,0 -0.28028,-0.0592 -0.42383,-0.17773 -0.3099,-0.25749 -0.49903,-0.80436 -0.56738,-1.64063 -0.0205,-0.25065 -0.0308,-0.54801 -0.0308,-0.89209 -0.35319,0.041 -0.63118,0.0855 -0.83398,0.1333 -0.25977,0.0615 -0.52067,0.15837 -0.78272,0.29053 -0.0137,0 -0.0524,-0.0877 -0.11621,-0.26318 l -0.0957,-0.26319 c 0.12305,-0.11165 0.30306,-0.19596 0.54004,-0.25292 0.12305,-0.0296 0.35091,-0.0649 0.68359,-0.10596 0.28939,-0.0365 0.51498,-0.0809 0.67676,-0.1333 0.0638,-0.22786 0.11507,-0.42611 0.15381,-0.59473 0.0547,-0.23925 0.0968,-0.4637 0.12646,-0.67334 0.041,-0.0775 0.13216,-0.11621 0.27344,-0.11621 0.0843,0 0.15837,0.0148 0.22217,0.0444 0,0.0843 -0.0501,0.30876 -0.15039,0.67334 -0.0479,0.17318 -0.0718,0.32016 -0.0718,0.44092 0,0.0501 0.003,0.1014 0.0103,0.15381 0.16406,0 0.52294,-0.0444 1.07666,-0.1333 0.18456,-0.0296 0.32926,-0.0444 0.43408,-0.0444"
         style=""
         id="path2870" />
      <path
         d="m -707.87012,737.1864 -0.0752,1.22022 c -0.0251,0.4056 -0.0376,0.74625 -0.0376,1.02197 0,0.4375 0.0251,0.82259 0.0752,1.15527 -0.139,0.0501 -0.22559,0.082 -0.25977,0.0957 -0.0912,0.041 -0.16634,0.0923 -0.22559,0.1538 -0.0752,-0.37825 -0.11279,-0.87613 -0.11279,-1.49365 0,-0.76334 0.0672,-1.89013 0.20166,-3.38037 0.0524,-0.002 0.09,-0.002 0.11279,0 0.13444,0.0137 0.25293,0.0706 0.35547,0.1709 0,0.33496 -0.0114,0.68701 -0.0342,1.05615"
         style=""
         id="path2872" />
      <path
         d="m -703.28662,740.21472 c 0.002,0.0296 -0.16521,0.0866 -0.50244,0.1709 -0.49447,0.12305 -1.0892,0.18457 -1.78418,0.18457 l -0.35547,0 c -0.42155,0 -0.81462,-0.20166 -1.1792,-0.60498 -0.15951,-0.21419 -0.23926,-0.48763 -0.23926,-0.82031 0,-0.85905 0.38737,-1.46175 1.16211,-1.80811 0.39876,-0.17773 0.8055,-0.2666 1.22022,-0.2666 0.27799,0 0.52864,0.11394 0.75195,0.3418 0.1595,0.16178 0.28369,0.35433 0.37256,0.57763 0.002,0.016 0.009,0.041 0.0205,0.0752 -10e-6,0.0159 0.002,0.041 0.007,0.0752 -0.007,0.009 -0.0228,0.0239 -0.0479,0.0444 -0.89551,0.49902 -1.87077,0.85335 -2.92578,1.06299 -0.009,0.007 -0.0137,0.0205 -0.0137,0.041 0,0.0866 0.0365,0.19483 0.10937,0.32471 0.0752,0.12988 0.15039,0.21077 0.22559,0.24267 0.29622,0.12077 0.61295,0.18116 0.95019,0.18116 0.20052,0 0.42953,-0.0239 0.68702,-0.0718 l 0.77246,-0.14355 c 0.30761,-0.057 0.52636,-0.0854 0.65625,-0.0854 0.0433,0 0.0695,0.0137 0.0786,0.041 0,0.002 0.002,0.0353 0.007,0.0991 l 0.0273,0.33838 m -1.39453,-2.25244 c -0.0456,-0.25748 -0.22445,-0.38623 -0.53662,-0.38623 -0.082,0 -0.18913,0.0159 -0.32129,0.0479 -0.417,0.10026 -0.76107,0.30876 -1.03223,0.62549 -0.11165,0.12988 -0.16748,0.25065 -0.16748,0.3623 0,0.0593 0.0205,0.10482 0.0615,0.13672 0.20736,-0.0433 0.43181,-0.11735 0.67334,-0.22216 0.12077,-0.0547 0.36345,-0.16179 0.72803,-0.32129 0.0706,-0.0296 0.21305,-0.09 0.42725,-0.18116 0.009,-0.007 0.0649,-0.0273 0.16748,-0.0615"
         style=""
         id="path2874" />
    </g>
    <g
       transform="matrix(0.70710678,-0.70710678,0.70710678,0.70710678,0,0)"
       style="font-size:7px;font-style:normal;font-variant:normal;font-weight:normal;font-stretch:normal;fill:#333333;fill-opacity:1;stroke:none;font-family:augie;-inkscape-font-specification:augie"
       id="text3702">
      <path
         d="m -717.53613,748.6283 c -0.0342,0 -0.0627,-0.003 -0.0855,-0.0103 -0.1504,-0.16406 -0.2723,-0.38965 -0.36572,-0.67676 l -0.25293,-0.7622 c -0.0866,-0.25293 -0.21648,-0.46257 -0.38965,-0.62891 -0.61068,0.12989 -1.24187,0.29737 -1.89356,0.50244 -0.23242,0.0706 -0.53548,0.1709 -0.90918,0.30078 -0.0889,0.42155 -0.21305,0.71208 -0.37256,0.87159 -0.005,0.007 -0.0182,0.0103 -0.041,0.0103 -0.0661,0 -0.2461,-0.0376 -0.54004,-0.11279 l 0.68701,-1.52442 c 0.47168,-1.04817 1.26351,-2.15901 2.37549,-3.33252 0.68587,1.38087 1.20312,2.52588 1.55176,3.43506 0.23469,0.6084 0.42496,1.18376 0.5708,1.72608 -0.0592,0.13444 -0.17091,0.20166 -0.33496,0.20166 m -1.43555,-3.24707 c -0.17318,-0.55371 -0.33952,-0.95475 -0.49902,-1.20313 -0.28939,0.36915 -0.70639,0.93539 -1.25098,1.69873 -0.19824,0.30534 -0.34522,0.57536 -0.44092,0.81006 0.17318,-0.0501 0.40446,-0.11849 0.69385,-0.20508 l 1.68506,-0.50244 -0.18799,-0.59814"
         style=""
         id="path2877" />
      <path
         d="m -713.23291,745.74011 c -0.14356,-0.13216 -0.32699,-0.21305 -0.55029,-0.24267 -0.31218,-0.041 -0.57992,-0.0182 -0.80323,0.0684 -0.19824,0.0752 -0.4261,0.22558 -0.68359,0.45117 -0.34635,0.30306 -0.59359,0.6027 -0.7417,0.89892 -0.0251,0.19369 -0.0285,0.41814 -0.0103,0.67334 0.009,0.13217 0.0399,0.4056 0.0923,0.82032 0.0274,0.21419 0.0456,0.37711 0.0547,0.48877 l -0.45459,0.0308 c -0.0205,-0.24838 -0.0535,-0.53776 -0.0991,-0.86817 l -0.15039,-1.0664 c -0.0866,-0.61296 -0.12875,-1.11882 -0.12647,-1.51758 l 0.082,-0.003 0.0547,-0.0103 c 0.0957,-0.057 0.16406,-0.0866 0.20508,-0.0889 0.0456,-0.002 0.0832,0.0114 0.11279,0.041 l 0.0513,0.70068 c 0.5127,-0.77018 1.15983,-1.18261 1.94141,-1.23731 0.13672,-0.009 0.3361,-0.001 0.59814,0.0239 0.30078,0.0296 0.48193,0.0729 0.54346,0.12988 0.0228,0.1185 0.0342,0.23357 0.0342,0.34522 0,0.23014 -0.0501,0.35091 -0.15039,0.3623"
         style=""
         id="path2879" />
      <path
         d="m -709.53809,745.16248 c 0.0456,0.016 0.0684,0.082 0.0684,0.19824 0,0.22103 -0.0695,0.33154 -0.20849,0.33154 l -1.40821,0.24609 c 0,0.0889 -0.005,0.20395 -0.0137,0.34522 -0.0205,0.31901 -0.0308,0.52409 -0.0308,0.61523 0,0.54232 0.14583,0.94792 0.4375,1.2168 0.057,0.0524 0.12418,0.0786 0.20166,0.0786 0.0479,0 0.19368,-0.041 0.4375,-0.12304 0.11621,-0.0387 0.21419,-0.0581 0.29395,-0.0581 0.041,0 0.0718,0.002 0.0923,0.007 0.0661,0.16862 0.0991,0.28255 0.0991,0.34179 -0.2028,0.23698 -0.56738,0.35547 -1.09375,0.35547 -0.139,0 -0.28027,-0.0592 -0.42383,-0.17773 -0.30989,-0.25749 -0.49902,-0.80436 -0.56738,-1.64063 -0.0205,-0.25065 -0.0308,-0.54801 -0.0308,-0.89209 -0.35319,0.041 -0.63119,0.0855 -0.83398,0.1333 -0.25977,0.0615 -0.52068,0.15837 -0.78272,0.29053 -0.0137,0 -0.0524,-0.0877 -0.11621,-0.26318 l -0.0957,-0.26319 c 0.12304,-0.11165 0.30306,-0.19596 0.54004,-0.25292 0.12304,-0.0296 0.35091,-0.0649 0.68359,-0.10596 0.28939,-0.0365 0.51497,-0.0809 0.67676,-0.1333 0.0638,-0.22786 0.11507,-0.42611 0.15381,-0.59473 0.0547,-0.23925 0.0968,-0.4637 0.12646,-0.67334 0.041,-0.0775 0.13216,-0.11621 0.27344,-0.11621 0.0843,0 0.15836,0.0148 0.22217,0.0444 -10e-6,0.0843 -0.0501,0.30876 -0.15039,0.67334 -0.0479,0.17318 -0.0718,0.32016 -0.0718,0.44092 0,0.0501 0.003,0.1014 0.0103,0.15381 0.16406,0 0.52295,-0.0444 1.07666,-0.1333 0.18457,-0.0296 0.32926,-0.0444 0.43408,-0.0444"
         style=""
         id="path2881" />
      <path
         d="m -708.50928,744.12341 c -0.22786,10e-6 -0.40901,-0.0649 -0.54345,-0.19482 -0.0137,-0.0137 -0.0205,-0.0376 -0.0205,-0.0718 0,-0.098 0.0353,-0.17773 0.10595,-0.23926 0.0729,-0.0638 0.15951,-0.0957 0.25977,-0.0957 0.0638,10e-6 0.16634,0.0866 0.30762,0.25977 0.0797,0.098 0.11393,0.1766 0.10254,0.23584 -0.0137,0.0706 -0.0843,0.10596 -0.21192,0.10595 m 0.45117,4.46729 c -0.0501,0.0752 -0.1538,0.11279 -0.31103,0.11279 -0.0752,0 -0.15609,-0.009 -0.24268,-0.0273 -0.0661,-0.6084 -0.1276,-1.24642 -0.18457,-1.91407 -0.0342,-0.3942 -0.0513,-0.73827 -0.0513,-1.03222 0,-0.32812 0.0205,-0.58333 0.0615,-0.76563 0.0889,-0.0911 0.16976,-0.13671 0.24267,-0.13672 0.0729,1e-5 0.15495,0.0444 0.2461,0.13331 l 0.0957,0.88183 c 0.11165,1.02995 0.16748,1.78874 0.16748,2.27637 0,0.19824 -0.008,0.35547 -0.0239,0.47168"
         style=""
         id="path2883" />
      <path
         d="m -704.13428,747.97546 c -0.1709,0.3418 -0.54687,0.54688 -1.12793,0.61524 -0.19368,0.0228 -0.43294,0.0342 -0.71777,0.0342 l -0.19824,0 -0.1128,-0.003 -0.6289,0 c -0.16634,-0.1276 -0.24951,-0.28255 -0.24951,-0.46484 0,-0.0205 0.005,-0.0558 0.0137,-0.10596 0.0114,-0.0114 0.0296,-0.0171 0.0547,-0.0171 l 0.23584,0.0444 c 0.0364,0.007 0.22672,0.0182 0.5708,0.0342 0.19596,0.009 0.33382,0.0137 0.41357,0.0137 0.72461,0 1.10742,-0.17089 1.14844,-0.51269 0.0182,-0.15039 -0.37028,-0.36458 -1.16553,-0.64258 -0.098,-0.0342 -0.38281,-0.12988 -0.85449,-0.28711 -0.082,-0.0273 -0.16065,-0.082 -0.23584,-0.16406 -0.098,-0.10709 -0.14697,-0.22558 -0.14697,-0.35547 0,-0.0319 0.006,-0.0729 0.0171,-0.12305 0.10253,-0.28938 0.57421,-0.5651 1.41504,-0.82714 0.33723,-0.10482 0.64029,-0.17318 0.90917,-0.20508 l 0.0547,0.36914 c -0.0798,0.0706 -0.25863,0.14583 -0.53662,0.22558 -0.32357,0.0911 -0.53662,0.16293 -0.63916,0.21534 -0.20736,0.10482 -0.31104,0.23926 -0.31103,0.40332 -10e-6,0.12077 0.23242,0.23128 0.69726,0.33154 0.29622,0.0638 0.48991,0.11393 0.58106,0.15039 0.20507,0.0615 0.39534,0.18229 0.5708,0.3623 0.20279,0.20736 0.30419,0.41928 0.3042,0.63575 -10e-6,0.10026 -0.0205,0.1914 -0.0615,0.27343"
         style=""
         id="path2885" />
      <path
         d="m -700.22754,745.16248 c 0.0456,0.016 0.0684,0.082 0.0684,0.19824 0,0.22103 -0.0695,0.33154 -0.2085,0.33154 l -1.4082,0.24609 c 0,0.0889 -0.005,0.20395 -0.0137,0.34522 -0.0205,0.31901 -0.0308,0.52409 -0.0308,0.61523 0,0.54232 0.14583,0.94792 0.4375,1.2168 0.057,0.0524 0.12418,0.0786 0.20166,0.0786 0.0479,0 0.19368,-0.041 0.4375,-0.12304 0.11621,-0.0387 0.21419,-0.0581 0.29394,-0.0581 0.041,0 0.0718,0.002 0.0923,0.007 0.0661,0.16862 0.0991,0.28255 0.0991,0.34179 -0.2028,0.23698 -0.56739,0.35547 -1.09375,0.35547 -0.139,0 -0.28028,-0.0592 -0.42383,-0.17773 -0.3099,-0.25749 -0.49902,-0.80436 -0.56738,-1.64063 -0.0205,-0.25065 -0.0308,-0.54801 -0.0308,-0.89209 -0.35319,0.041 -0.63119,0.0855 -0.83399,0.1333 -0.25976,0.0615 -0.52067,0.15837 -0.78271,0.29053 -0.0137,0 -0.0524,-0.0877 -0.11621,-0.26318 l -0.0957,-0.26319 c 0.12305,-0.11165 0.30306,-0.19596 0.54004,-0.25292 0.12305,-0.0296 0.35091,-0.0649 0.6836,-0.10596 0.28938,-0.0365 0.51497,-0.0809 0.67675,-0.1333 0.0638,-0.22786 0.11507,-0.42611 0.15381,-0.59473 0.0547,-0.23925 0.0968,-0.4637 0.12647,-0.67334 0.041,-0.0775 0.13216,-0.11621 0.27343,-0.11621 0.0843,0 0.15837,0.0148 0.22217,0.0444 0,0.0843 -0.0501,0.30876 -0.15039,0.67334 -0.0479,0.17318 -0.0718,0.32016 -0.0718,0.44092 0,0.0501 0.003,0.1014 0.0103,0.15381 0.16406,0 0.52295,-0.0444 1.07666,-0.1333 0.18457,-0.0296 0.32926,-0.0444 0.43408,-0.0444"
         style=""
         id="path2887" />
    </g>
  </g>
</svg>
