<?xml version="1.0" encoding="UTF-8" standalone="no"?>
<!-- Created with Inkscape (http://www.inkscape.org/) -->

<svg
   xmlns:dc="http://purl.org/dc/elements/1.1/"
   xmlns:cc="http://creativecommons.org/ns#"
   xmlns:rdf="http://www.w3.org/1999/02/22-rdf-syntax-ns#"
   xmlns:svg="http://www.w3.org/2000/svg"
   xmlns="http://www.w3.org/2000/svg"
   xmlns:xlink="http://www.w3.org/1999/xlink"
   xmlns:sodipodi="http://sodipodi.sourceforge.net/DTD/sodipodi-0.dtd"
   xmlns:inkscape="http://www.inkscape.org/namespaces/inkscape"
   width="48"
   height="48"
   id="svg2"
   version="1.1"
   inkscape:version="0.47pre4 r22446"
   sodipodi:docname="appointment.svg"
   inkscape:export-filename="/home/andrea/.icons/MeliaeSVG/48/apps/png/appointment.png"
   inkscape:export-xdpi="240"
   inkscape:export-ydpi="240">
  <defs
     id="defs4">
    <linearGradient
       id="linearGradient3788">
      <stop
         id="stop3790"
         offset="0"
         style="stop-color:#333333;stop-opacity:1;" />
      <stop
         id="stop3792"
         offset="1"
         style="stop-color:#000000;stop-opacity:1;" />
    </linearGradient>
    <linearGradient
       id="linearGradient3748">
      <stop
         style="stop-color:#f0f0f0;stop-opacity:1;"
         offset="0"
         id="stop3750" />
      <stop
         style="stop-color:#dcdcdc;stop-opacity:1;"
         offset="1"
         id="stop3752" />
    </linearGradient>
    <linearGradient
       id="linearGradient3740">
      <stop
         style="stop-color:#dcdcdc;stop-opacity:1;"
         offset="0"
         id="stop3742" />
      <stop
         style="stop-color:#f0f0f0;stop-opacity:1;"
         offset="1"
         id="stop3744" />
    </linearGradient>
    <linearGradient
       id="linearGradient3728">
      <stop
         style="stop-color:#c8c8c8;stop-opacity:0;"
         offset="0"
         id="stop3730" />
      <stop
         id="stop3736"
         offset="0.5"
         style="stop-color:#c8c8c8;stop-opacity:1;" />
      <stop
         style="stop-color:#c8c8c8;stop-opacity:0;"
         offset="1"
         id="stop3732" />
    </linearGradient>
    <linearGradient
       id="linearGradient3720">
      <stop
         id="stop3722"
         offset="0"
         style="stop-color:#f0f0f0;stop-opacity:1;" />
      <stop
         id="stop3724"
         offset="1"
         style="stop-color:#646464;stop-opacity:1;" />
    </linearGradient>
    <linearGradient
       id="linearGradient3712">
      <stop
         style="stop-color:#646464;stop-opacity:1;"
         offset="0"
         id="stop3714" />
      <stop
         style="stop-color:#646464;stop-opacity:0;"
         offset="1"
         id="stop3716" />
    </linearGradient>
    <linearGradient
       id="linearGradient3694">
      <stop
         style="stop-color:#de220c;stop-opacity:1;"
         offset="0"
         id="stop3696" />
      <stop
         style="stop-color:#700000;stop-opacity:1;"
         offset="1"
         id="stop3698" />
    </linearGradient>
    <linearGradient
       inkscape:collect="always"
       id="linearGradient3652">
      <stop
         style="stop-color:#333333;stop-opacity:1;"
         offset="0"
         id="stop3654" />
      <stop
         style="stop-color:#333333;stop-opacity:0;"
         offset="1"
         id="stop3656" />
    </linearGradient>
    <linearGradient
       id="linearGradient3642">
      <stop
         style="stop-color:#868686;stop-opacity:1;"
         offset="0"
         id="stop3644" />
      <stop
         style="stop-color:#868686;stop-opacity:0;"
         offset="1"
         id="stop3646" />
    </linearGradient>
    <linearGradient
       id="linearGradient3634">
      <stop
         style="stop-color:#505050;stop-opacity:1;"
         offset="0"
         id="stop3636" />
      <stop
         style="stop-color:#141414;stop-opacity:1;"
         offset="1"
         id="stop3638" />
    </linearGradient>
    <linearGradient
       id="linearGradient3626">
      <stop
         style="stop-color:#ffffff;stop-opacity:1;"
         offset="0"
         id="stop3628" />
      <stop
         style="stop-color:#ffffff;stop-opacity:0;"
         offset="1"
         id="stop3630" />
    </linearGradient>
    <inkscape:perspective
       sodipodi:type="inkscape:persp3d"
       inkscape:vp_x="0 : 526.18109 : 1"
       inkscape:vp_y="0 : 1000 : 0"
       inkscape:vp_z="744.09448 : 526.18109 : 1"
       inkscape:persp3d-origin="372.04724 : 350.78739 : 1"
       id="perspective10" />
    <inkscape:perspective
       id="perspective2824"
       inkscape:persp3d-origin="0.5 : 0.33333333 : 1"
       inkscape:vp_z="1 : 0.5 : 1"
       inkscape:vp_y="0 : 1000 : 0"
       inkscape:vp_x="0 : 0.5 : 1"
       sodipodi:type="inkscape:persp3d" />
    <inkscape:perspective
       id="perspective2838"
       inkscape:persp3d-origin="0.5 : 0.33333333 : 1"
       inkscape:vp_z="1 : 0.5 : 1"
       inkscape:vp_y="0 : 1000 : 0"
       inkscape:vp_x="0 : 0.5 : 1"
       sodipodi:type="inkscape:persp3d" />
    <linearGradient
       inkscape:collect="always"
       xlink:href="#linearGradient3626"
       id="linearGradient3632"
       x1="25.982143"
       y1="-11.135761"
       x2="25.982143"
       y2="34.153687"
       gradientUnits="userSpaceOnUse" />
    <linearGradient
       inkscape:collect="always"
       xlink:href="#linearGradient3634"
       id="linearGradient3648"
       x1="23.828125"
       y1="0.6875"
       x2="23.828125"
       y2="45.15625"
       gradientUnits="userSpaceOnUse" />
    <radialGradient
       inkscape:collect="always"
       xlink:href="#linearGradient3652"
       id="radialGradient3658"
       cx="23.927988"
       cy="44.590736"
       fx="23.927988"
       fy="44.590736"
       r="10.669736"
       gradientTransform="matrix(1,0,0,0.21301775,0,35.092118)"
       gradientUnits="userSpaceOnUse" />
    <linearGradient
       inkscape:collect="always"
       xlink:href="#linearGradient3694"
       id="linearGradient3700"
       x1="-8.3482141"
       y1="18.089287"
       x2="-8.3482141"
       y2="21.392857"
       gradientUnits="userSpaceOnUse" />
    <inkscape:perspective
       id="perspective2960"
       inkscape:persp3d-origin="0.5 : 0.33333333 : 1"
       inkscape:vp_z="1 : 0.5 : 1"
       inkscape:vp_y="0 : 1000 : 0"
       inkscape:vp_x="0 : 0.5 : 1"
       sodipodi:type="inkscape:persp3d" />
    <linearGradient
       inkscape:collect="always"
       xlink:href="#linearGradient3740"
       id="linearGradient3746"
       x1="17.882042"
       y1="12.390839"
       x2="36.372311"
       y2="39.871662"
       gradientUnits="userSpaceOnUse" />
    <linearGradient
       inkscape:collect="always"
       xlink:href="#linearGradient3748"
       id="linearGradient3754"
       x1="14.90297"
       y1="9.0560265"
       x2="37.980713"
       y2="41.051117"
       gradientUnits="userSpaceOnUse" />
    <linearGradient
       inkscape:collect="always"
       xlink:href="#linearGradient3788"
       id="linearGradient3786"
       gradientUnits="userSpaceOnUse"
       x1="14.90297"
       y1="9.0560265"
       x2="37.980713"
       y2="41.051117" />
  </defs>
  <sodipodi:namedview
     id="base"
     pagecolor="#ffffff"
     bordercolor="#666666"
     borderopacity="1.0"
     inkscape:pageopacity="0.0"
     inkscape:pageshadow="2"
     inkscape:zoom="5.6"
     inkscape:cx="42.787199"
     inkscape:cy="8.9310439"
     inkscape:document-units="px"
     inkscape:current-layer="layer1"
     showgrid="false"
     inkscape:window-width="1280"
     inkscape:window-height="714"
     inkscape:window-x="0"
     inkscape:window-y="25"
     inkscape:window-maximized="1" />
  <metadata
     id="metadata7">
    <rdf:RDF>
      <cc:Work
         rdf:about="">
        <dc:format>image/svg+xml</dc:format>
        <dc:type
           rdf:resource="http://purl.org/dc/dcmitype/StillImage" />
        <dc:title />
      </cc:Work>
    </rdf:RDF>
  </metadata>
  <g
     inkscape:label="Livello 1"
     inkscape:groupmode="layer"
     id="layer1"
     transform="translate(0,-1004.3622)">
    <path
       sodipodi:type="arc"
       style="fill:url(#radialGradient3658);fill-opacity:1;stroke:none"
       id="path3650"
       sodipodi:cx="23.927988"
       sodipodi:cy="44.590736"
       sodipodi:rx="10.669736"
       sodipodi:ry="2.2728431"
       d="m 34.597724,44.590736 c 0,1.255257 -4.777004,2.272844 -10.669736,2.272844 -5.892732,0 -10.669736,-1.017587 -10.669736,-2.272844 0,-1.255256 4.777004,-2.272843 10.669736,-2.272843 5.892732,0 10.669736,1.017587 10.669736,2.272843 z"
       transform="matrix(1.3598295,0,0,1.3598295,-8.709859,988.31714)" />
    <path
       style="fill:url(#linearGradient3648);fill-opacity:1;stroke:none"
       d="M 23.84375 0.6875 C 11.565277 0.6875 1.59375 10.627777 1.59375 22.90625 C 1.59375 35.184723 11.565277 45.15625 23.84375 45.15625 C 36.122223 45.15625 46.0625 35.184723 46.0625 22.90625 C 46.0625 10.627777 36.122223 0.6875 23.84375 0.6875 z M 23.84375 4.25 C 34.149778 4.25 42.5 12.600222 42.5 22.90625 C 42.5 33.212278 34.149778 41.5625 23.84375 41.5625 C 13.537722 41.5625 5.1875 33.212278 5.1875 22.90625 C 5.1875 12.600222 13.537722 4.25 23.84375 4.25 z "
       id="path2844"
       transform="translate(0,1004.3622)" />
    <path
       transform="matrix(1.0088435,0,0,1.0088435,-2.3837916,1002.009)"
       d="m 46.071428,25.053572 c 0,11.095005 -8.994279,20.089285 -20.089285,20.089285 -11.095005,0 -20.0892845,-8.99428 -20.0892845,-20.089285 0,-11.095006 8.9942795,-20.0892852 20.0892845,-20.0892852 11.095006,0 20.089285,8.9942792 20.089285,20.0892852 z"
       sodipodi:ry="20.089285"
       sodipodi:rx="20.089285"
       sodipodi:cy="25.053572"
       sodipodi:cx="25.982143"
       id="path3784"
       style="fill:url(#linearGradient3786);fill-opacity:1.0;stroke:none"
       sodipodi:type="arc" />
    <path
       sodipodi:type="arc"
       style="fill:url(#linearGradient3754);fill-opacity:1;stroke:none"
       id="path3620"
       sodipodi:cx="25.982143"
       sodipodi:cy="25.053572"
       sodipodi:rx="20.089285"
       sodipodi:ry="20.089285"
       d="m 46.071428,25.053572 c 0,11.095005 -8.994279,20.089285 -20.089285,20.089285 -11.095005,0 -20.0892845,-8.99428 -20.0892845,-20.089285 0,-11.095006 8.9942795,-20.0892852 20.0892845,-20.0892852 11.095006,0 20.089285,8.9942792 20.089285,20.0892852 z"
       transform="matrix(0.97113114,0,0,0.97113114,-1.4039436,1002.9538)" />
    <path
       transform="matrix(0.94577782,0,0,0.94577782,-0.74520995,1003.589)"
       d="m 46.071428,25.053572 c 0,11.095005 -8.994279,20.089285 -20.089285,20.089285 -11.095005,0 -20.0892845,-8.99428 -20.0892845,-20.089285 0,-11.095006 8.9942795,-20.0892852 20.0892845,-20.0892852 11.095006,0 20.089285,8.9942792 20.089285,20.0892852 z"
       sodipodi:ry="20.089285"
       sodipodi:rx="20.089285"
       sodipodi:cy="25.053572"
       sodipodi:cx="25.982143"
       id="path3738"
       style="fill:url(#linearGradient3746);fill-opacity:1;stroke:none"
       sodipodi:type="arc" />
    <g
       style="font-size:2px;font-style:normal;font-variant:normal;font-weight:normal;font-stretch:normal;fill:#000000;fill-opacity:1;stroke:none;font-family:Calibri;-inkscape-font-specification:Calibri"
       id="text3780">
      <path
         d="m 22.520508,1032.1686 c -2e-6,0.01 -0.0013,0.01 -0.0039,0.014 -0.0026,0 -0.0068,0.01 -0.0127,0.01 -0.0059,0 -0.014,0 -0.02441,0.01 -0.01042,0 -0.02344,0 -0.03906,0 -0.01628,0 -0.02962,-7e-4 -0.04004,-0 -0.01042,-0 -0.01888,-0 -0.02539,-0.01 -0.0059,-0 -0.01009,-0.01 -0.0127,-0.01 -0.0026,-0 -0.0039,-0.01 -0.0039,-0.014 l 0,-0.5342 c -1e-6,-0.037 -0.0033,-0.071 -0.0098,-0.1016 -0.0065,-0.031 -0.01693,-0.057 -0.03125,-0.079 -0.01432,-0.022 -0.03255,-0.039 -0.05469,-0.051 -0.02214,-0.012 -0.04818,-0.018 -0.07813,-0.018 -0.03711,0 -0.07455,0.014 -0.112304,0.043 -0.03711,0.029 -0.07813,0.071 -0.123047,0.126 l 0,0.6143 c -1e-6,0.01 -0.0013,0.01 -0.0039,0.014 -0.0026,0 -0.0072,0.01 -0.01367,0.01 -0.0059,0 -0.014,0 -0.02441,0.01 -0.01042,0 -0.02344,0 -0.03906,0 -0.01497,0 -0.028,-7e-4 -0.03906,-0 -0.01042,-0 -0.01888,-0 -0.02539,-0.01 -0.0059,-0 -0.01009,-0.01 -0.0127,-0.01 -0.002,-0 -0.0029,-0.01 -0.0029,-0.014 l 0,-0.5342 c -1e-6,-0.037 -0.0036,-0.071 -0.01074,-0.1016 -0.0072,-0.031 -0.0179,-0.057 -0.03223,-0.079 -0.01432,-0.022 -0.03255,-0.039 -0.05469,-0.051 -0.02148,-0.012 -0.0472,-0.018 -0.07715,-0.018 -0.03711,0 -0.07454,0.014 -0.112304,0.043 -0.03776,0.029 -0.07878,0.071 -0.123047,0.126 l 0,0.6143 c -10e-7,0.01 -0.0013,0.01 -0.0039,0.014 -0.0026,0 -0.0068,0.01 -0.0127,0.01 -0.0059,0 -0.014,0 -0.02441,0.01 -0.01042,0 -0.02376,0 -0.04004,0 -0.01563,0 -0.02865,-7e-4 -0.03906,-0 -0.01042,-0 -0.01888,-0 -0.02539,-0.01 -0.0059,-0 -0.01009,-0.01 -0.0127,-0.01 -0.002,-0 -0.0029,-0.01 -0.0029,-0.014 l 0,-0.8789 c 0,-0.01 9.76e-4,-0.01 0.0029,-0.013 0.002,-0 0.0059,-0.01 0.01172,-0.01 0.0059,-0 0.01335,-0.01 0.02246,-0.01 0.0091,-0 0.02116,-0 0.03613,-0 0.01432,0 0.02604,7e-4 0.03516,0 0.0098,6e-4 0.01725,0 0.02246,0.01 0.0052,0 0.0088,0.01 0.01074,0.01 0.0026,0 0.0039,0.01 0.0039,0.013 l 0,0.1162 c 0.04948,-0.055 0.09733,-0.096 0.143554,-0.1211 0.04687,-0.026 0.09408,-0.039 0.141602,-0.039 0.03646,0 0.06901,0 0.09766,0.013 0.0293,0.01 0.05501,0.021 0.07715,0.036 0.02213,0.015 0.04101,0.033 0.05664,0.055 0.01562,0.021 0.02865,0.044 0.03906,0.07 0.0293,-0.032 0.05697,-0.059 0.08301,-0.081 0.02669,-0.022 0.05208,-0.04 0.07617,-0.054 0.02474,-0.014 0.0485,-0.023 0.07129,-0.029 0.02344,-0.01 0.04687,-0.01 0.07031,-0.01 0.05664,0 0.104165,0.01 0.142578,0.03 0.03841,0.019 0.06933,0.046 0.09277,0.079 0.02409,0.033 0.04101,0.072 0.05078,0.1172 0.01042,0.044 0.01562,0.091 0.01563,0.1406 l 0,0.5557"
         style=""
         id="path2896" />
      <path
         d="m 23.564453,1031.691 c -1e-6,0.025 -0.0065,0.044 -0.01953,0.055 -0.01237,0.01 -0.02669,0.016 -0.04297,0.016 l -0.576172,0 c 0,0.049 0.0049,0.093 0.01465,0.1318 0.0098,0.039 0.02604,0.073 0.04883,0.1006 0.02279,0.028 0.05241,0.05 0.08887,0.064 0.03646,0.015 0.08105,0.023 0.133789,0.023 0.04167,0 0.07878,-0 0.111328,-0.01 0.03255,-0.01 0.06055,-0.015 0.08398,-0.023 0.02409,-0.01 0.04362,-0.016 0.05859,-0.022 0.01562,-0.01 0.02734,-0.011 0.03516,-0.011 0.0046,0 0.0085,0 0.01172,0 0.0039,0 0.0068,0.01 0.0088,0.01 0.002,0 0.0033,0.011 0.0039,0.019 0.0013,0.01 0.002,0.018 0.002,0.029 -1e-6,0.01 -3.27e-4,0.016 -9.77e-4,0.022 -6.52e-4,0.01 -0.0016,0.011 -0.0029,0.017 -6.51e-4,0 -0.0023,0.01 -0.0049,0.013 -0.002,0 -0.0049,0.01 -0.0088,0.012 -0.0033,0 -0.01367,0.01 -0.03125,0.017 -0.01758,0.01 -0.04037,0.016 -0.06836,0.024 -0.028,0.01 -0.06055,0.015 -0.09766,0.021 -0.03646,0.01 -0.07552,0.01 -0.117188,0.01 -0.07227,0 -0.135742,-0.01 -0.190429,-0.03 -0.05404,-0.02 -0.09961,-0.05 -0.136719,-0.09 -0.03711,-0.04 -0.0651,-0.09 -0.08398,-0.1494 -0.01888,-0.06 -0.02832,-0.1295 -0.02832,-0.209 0,-0.075 0.0098,-0.1432 0.0293,-0.2031 0.01953,-0.061 0.04753,-0.1116 0.08398,-0.1533 0.03711,-0.042 0.0817,-0.075 0.133789,-0.097 0.05208,-0.023 0.110351,-0.034 0.174804,-0.034 0.06901,0 0.127604,0.011 0.175782,0.033 0.04883,0.022 0.08887,0.052 0.120117,0.09 0.03125,0.037 0.05403,0.081 0.06836,0.1318 0.01497,0.05 0.02246,0.1039 0.02246,0.1611 l 0,0.029 m -0.162109,-0.048 c 0.002,-0.085 -0.01693,-0.1511 -0.05664,-0.1992 -0.03906,-0.048 -0.09733,-0.072 -0.174805,-0.072 -0.03971,0 -0.07454,0.01 -0.104492,0.023 -0.02995,0.015 -0.05501,0.035 -0.0752,0.06 -0.02018,0.025 -0.03581,0.054 -0.04687,0.087 -0.01107,0.033 -0.01725,0.067 -0.01855,0.1026 l 0.476563,0"
         style=""
         id="path2898" />
      <path
         d="m 23.97168,1032.1686 c -10e-7,0.01 -0.0013,0.01 -0.0039,0.014 -0.0026,0 -0.0068,0.01 -0.0127,0.01 -0.0059,0 -0.014,0 -0.02441,0.01 -0.01042,0 -0.02376,0 -0.04004,0 -0.01563,0 -0.02865,-7e-4 -0.03906,-0 -0.01042,-0 -0.01888,-0 -0.02539,-0.01 -0.0059,-0 -0.01009,-0.01 -0.0127,-0.01 -0.002,-0 -0.0029,-0.01 -0.0029,-0.014 l 0,-1.3047 c 0,-0.01 9.76e-4,-0.01 0.0029,-0.014 0.0026,-0 0.0068,-0.01 0.0127,-0.01 0.0065,-0 0.01497,-0 0.02539,-0.01 0.01042,-0 0.02344,-0 0.03906,-0 0.01628,0 0.02962,7e-4 0.04004,0 0.01042,0 0.01855,0 0.02441,0.01 0.0059,0 0.01009,0.01 0.0127,0.01 0.0026,0 0.0039,0.01 0.0039,0.014 l 0,1.3047"
         style=""
         id="path2900" />
      <path
         d="m 24.432617,1032.1686 c 0,0.01 -0.0013,0.01 -0.0039,0.014 -0.0026,0 -0.0068,0.01 -0.0127,0.01 -0.0059,0 -0.014,0 -0.02441,0.01 -0.01042,0 -0.02376,0 -0.04004,0 -0.01563,0 -0.02865,-7e-4 -0.03906,-0 -0.01042,-0 -0.01888,-0 -0.02539,-0.01 -0.0059,-0 -0.01009,-0.01 -0.0127,-0.01 -0.002,-0 -0.0029,-0.01 -0.0029,-0.014 l 0,-0.8789 c 0,-0 9.77e-4,-0.01 0.0029,-0.013 0.0026,-0 0.0068,-0.01 0.0127,-0.01 0.0065,-0 0.01497,-0 0.02539,-0.01 0.01042,-0 0.02344,-0 0.03906,-0 0.01628,0 0.02962,7e-4 0.04004,0 0.01042,0 0.01855,0 0.02441,0.01 0.0059,0 0.01009,0.01 0.0127,0.01 0.0026,0 0.0039,0.01 0.0039,0.013 l 0,0.8789 m 0.01855,-1.1758 c 0,0.038 -0.0072,0.063 -0.02148,0.077 -0.01432,0.014 -0.04069,0.021 -0.0791,0.021 -0.03776,0 -0.0638,-0.01 -0.07813,-0.02 -0.01367,-0.014 -0.02051,-0.039 -0.02051,-0.076 0,-0.038 0.0072,-0.063 0.02148,-0.077 0.01432,-0.014 0.04069,-0.021 0.0791,-0.021 0.03776,0 0.06348,0.01 0.07715,0.021 0.01432,0.013 0.02148,0.038 0.02148,0.075"
         style=""
         id="path2902" />
      <path
         d="m 25.394531,1032.1696 c -1e-6,0.01 -0.0026,0.014 -0.0078,0.018 -0.0052,0 -0.01237,0.01 -0.02148,0.01 -0.0091,0 -0.02246,0 -0.04004,0 -0.01693,0 -0.0306,-0 -0.04102,-0 -0.0098,-0 -0.01693,-0 -0.02148,-0.01 -0.0046,-0 -0.0068,-0.01 -0.0068,-0.018 l 0,-0.088 c -0.03841,0.041 -0.08138,0.073 -0.128906,0.096 -0.04687,0.023 -0.09668,0.034 -0.149414,0.034 -0.04622,0 -0.08822,-0.01 -0.125977,-0.018 -0.03711,-0.012 -0.06901,-0.029 -0.0957,-0.052 -0.02604,-0.023 -0.04655,-0.051 -0.06152,-0.084 -0.01432,-0.033 -0.02148,-0.071 -0.02148,-0.1133 -10e-7,-0.049 0.01009,-0.092 0.03027,-0.1289 0.02018,-0.036 0.04915,-0.067 0.08691,-0.091 0.03776,-0.024 0.08398,-0.042 0.138672,-0.054 0.05469,-0.012 0.11621,-0.018 0.18457,-0.018 l 0.121094,0 0,-0.068 c -1e-6,-0.034 -0.0036,-0.064 -0.01074,-0.09 -0.0072,-0.026 -0.01888,-0.048 -0.03516,-0.064 -0.01563,-0.018 -0.03613,-0.031 -0.06152,-0.039 -0.02539,-0.01 -0.05664,-0.014 -0.09375,-0.014 -0.03971,0 -0.07552,0 -0.107422,0.015 -0.03125,0.01 -0.05892,0.02 -0.08301,0.031 -0.02344,0.011 -0.04329,0.022 -0.05957,0.031 -0.01563,0.01 -0.02734,0.014 -0.03516,0.014 -0.0052,0 -0.0098,-0 -0.01367,-0 -0.0039,-0 -0.0075,-0.01 -0.01074,-0.012 -0.0026,-0.01 -0.0046,-0.012 -0.0059,-0.02 -0.0013,-0.01 -0.002,-0.018 -0.002,-0.027 0,-0.016 9.77e-4,-0.029 0.0029,-0.038 0.0026,-0.01 0.0081,-0.019 0.0166,-0.027 0.0091,-0.01 0.02441,-0.018 0.0459,-0.029 0.02148,-0.012 0.04622,-0.022 0.07422,-0.031 0.02799,-0.01 0.05859,-0.017 0.0918,-0.023 0.0332,-0.01 0.06673,-0.01 0.100586,-0.01 0.06315,0 0.116861,0.01 0.161132,0.022 0.04427,0.014 0.08008,0.035 0.107422,0.063 0.02734,0.027 0.0472,0.062 0.05957,0.1025 0.01237,0.041 0.01855,0.089 0.01855,0.1436 l 0,0.5928 m -0.160156,-0.4014 -0.137695,0 c -0.04427,0 -0.08268,0 -0.115235,0.012 -0.03255,0.01 -0.05957,0.018 -0.08105,0.033 -0.02148,0.014 -0.03744,0.032 -0.04785,0.053 -0.0098,0.02 -0.01465,0.044 -0.01465,0.07 -10e-7,0.045 0.01432,0.082 0.04297,0.1093 0.0293,0.027 0.06999,0.04 0.122071,0.04 0.04232,0 0.08138,-0.011 0.117187,-0.032 0.03646,-0.021 0.07454,-0.054 0.114258,-0.099 l 0,-0.1865"
         style=""
         id="path2904" />
      <path
         d="m 26.439453,1031.691 c -1e-6,0.025 -0.0065,0.044 -0.01953,0.055 -0.01237,0.01 -0.02669,0.016 -0.04297,0.016 l -0.576172,0 c 0,0.049 0.0049,0.093 0.01465,0.1318 0.0098,0.039 0.02604,0.073 0.04883,0.1006 0.02279,0.028 0.05241,0.05 0.08887,0.064 0.03646,0.015 0.08105,0.023 0.133789,0.023 0.04167,0 0.07878,-0 0.111328,-0.01 0.03255,-0.01 0.06055,-0.015 0.08398,-0.023 0.02409,-0.01 0.04362,-0.016 0.05859,-0.022 0.01562,-0.01 0.02734,-0.011 0.03516,-0.011 0.0046,0 0.0085,0 0.01172,0 0.0039,0 0.0068,0.01 0.0088,0.01 0.002,0 0.0033,0.011 0.0039,0.019 0.0013,0.01 0.002,0.018 0.002,0.029 -1e-6,0.01 -3.27e-4,0.016 -9.77e-4,0.022 -6.52e-4,0.01 -0.0016,0.011 -0.0029,0.017 -6.51e-4,0 -0.0023,0.01 -0.0049,0.013 -0.002,0 -0.0049,0.01 -0.0088,0.012 -0.0033,0 -0.01367,0.01 -0.03125,0.017 -0.01758,0.01 -0.04037,0.016 -0.06836,0.024 -0.028,0.01 -0.06055,0.015 -0.09766,0.021 -0.03646,0.01 -0.07552,0.01 -0.117188,0.01 -0.07227,0 -0.135742,-0.01 -0.190429,-0.03 -0.05404,-0.02 -0.09961,-0.05 -0.136719,-0.09 -0.03711,-0.04 -0.0651,-0.09 -0.08398,-0.1494 -0.01888,-0.06 -0.02832,-0.1295 -0.02832,-0.209 0,-0.075 0.0098,-0.1432 0.0293,-0.2031 0.01953,-0.061 0.04753,-0.1116 0.08398,-0.1533 0.03711,-0.042 0.0817,-0.075 0.133789,-0.097 0.05208,-0.023 0.110351,-0.034 0.174804,-0.034 0.06901,0 0.127604,0.011 0.175782,0.033 0.04883,0.022 0.08887,0.052 0.120117,0.09 0.03125,0.037 0.05403,0.081 0.06836,0.1318 0.01497,0.05 0.02246,0.1039 0.02246,0.1611 l 0,0.029 m -0.162109,-0.048 c 0.002,-0.085 -0.01693,-0.1511 -0.05664,-0.1992 -0.03906,-0.048 -0.09733,-0.072 -0.174805,-0.072 -0.03971,0 -0.07454,0.01 -0.104492,0.023 -0.02995,0.015 -0.05501,0.035 -0.0752,0.06 -0.02018,0.025 -0.03581,0.054 -0.04687,0.087 -0.01107,0.033 -0.01725,0.067 -0.01855,0.1026 l 0.476563,0"
         style=""
         id="path2906" />
    </g>
    <path
       style="fill:#141414;fill-opacity:1;stroke:none"
       d="m 5.0291598,1026.7554 c -0.00452,0.1775 -0.031542,0.3499 -0.031542,0.5287 0,0.1787 0.027032,0.3511 0.031542,0.5287 l 3.7568402,0 c -0.0062,-0.1744 0,-0.3527 0,-0.5287 0,-0.1802 -0.00658,-0.3503 0,-0.5287 l -3.7568402,0 z m 33.8418402,0 c 0.0066,0.1784 0,0.3485 0,0.5287 0,0.176 0.0063,0.3543 0,0.5287 l 3.756089,0 c 0.0045,-0.1776 0.03154,-0.35 0.03154,-0.5287 0,-0.1788 -0.02703,-0.3512 -0.03154,-0.5287 l -3.756089,0 z"
       id="path3660"
       sodipodi:nodetypes="csccscccsccscc" />
    <path
       id="path3680"
       d="m 23.299432,1046.0831 c 0.177708,0 0.349917,0.032 0.528678,0.032 0.178458,-4e-4 0.351111,-0.027 0.528726,-0.032 l -5.8e-5,-3.7559 c -0.174162,0.011 -0.352678,0 -0.528674,0 -0.180046,2e-4 -0.350322,0.01 -0.528679,0 l 7e-6,3.7558 0,10e-5 z m 4e-5,-33.8419 c 0.178398,-0.011 0.348478,0 0.528674,0 0.175846,-2e-4 0.354297,-0.01 0.528679,0 l -8e-6,-3.756 c -0.177776,0 -0.350001,-0.032 -0.528677,-0.032 -0.179073,-4e-4 -0.351149,0.028 -0.528727,0.032 l 5.9e-5,3.756 0,0 z"
       style="fill:#141414;fill-opacity:1;stroke:none"
       sodipodi:nodetypes="csccsccccsccsccc" />
    <path
       style="font-size:medium;font-style:normal;font-variant:normal;font-weight:normal;font-stretch:normal;text-indent:0;text-align:start;text-decoration:none;line-height:normal;letter-spacing:normal;word-spacing:normal;text-transform:none;direction:ltr;block-progression:tb;writing-mode:lr-tb;text-anchor:start;color:#000000;fill:#141414;fill-opacity:1;stroke:none;stroke-width:1px;marker:none;visibility:visible;display:inline;overflow:visible;enable-background:accumulate;font-family:'A.C.M.E. Secret Agent';-inkscape-font-specification:'A.C.M.E. Secret Agent'"
       d="m 32.045908,1018.2853 -11.215622,11.2158 0.747838,0.7475 11.215705,-11.2158 -0.747854,-0.7476 z"
       id="path3686"
       inkscape:transform-center-y="-2.9674786"
       inkscape:transform-center-x="-2.9674105" />
    <path
       id="path3702"
       d="m 16.019289,1021.4577 10.269977,8.6176 0.679752,-0.8101 -10.270056,-8.6176 -0.67968,0.8101 z"
       style="font-size:medium;font-style:normal;font-variant:normal;font-weight:normal;font-stretch:normal;text-indent:0;text-align:start;text-decoration:none;line-height:normal;letter-spacing:normal;word-spacing:normal;text-transform:none;direction:ltr;block-progression:tb;writing-mode:lr-tb;text-anchor:start;color:#000000;fill:#141414;fill-opacity:1;stroke:none;stroke-width:1px;marker:none;visibility:visible;display:inline;overflow:visible;enable-background:accumulate;font-family:'A.C.M.E. Secret Agent';-inkscape-font-specification:'A.C.M.E. Secret Agent'"
       inkscape:transform-center-y="-1.9722286"
       inkscape:transform-center-x="2.3504971" />
    <path
       style="font-size:medium;font-style:normal;font-variant:normal;font-weight:normal;font-stretch:normal;text-indent:0;text-align:start;text-decoration:none;line-height:normal;letter-spacing:normal;word-spacing:normal;text-transform:none;direction:ltr;block-progression:tb;writing-mode:lr-tb;text-anchor:start;color:#000000;fill:#c80100;fill-opacity:1;stroke:none;stroke-width:0.5;marker:none;visibility:visible;display:inline;overflow:visible;enable-background:accumulate;font-family:'A.C.M.E. Secret Agent';-inkscape-font-specification:'A.C.M.E. Secret Agent'"
       d="m 25.350442,1024.0364 -0.496795,-0.181 -6.069225,16.6746 0.496978,0.1811 6.068997,-16.6747 z"
       id="path3704"
       inkscape:transform-center-x="1.8206761"
       inkscape:transform-center-y="5.0022" />
    <path
       sodipodi:type="arc"
       style="fill:url(#linearGradient3700);fill-opacity:1;stroke:none"
       id="path3692"
       sodipodi:cx="-8.3482141"
       sodipodi:cy="19.741072"
       sodipodi:rx="1.6517857"
       sodipodi:ry="1.6517857"
       d="m -6.6964284,19.741072 c 0,0.912256 -0.7395297,1.651785 -1.6517857,1.651785 -0.9122561,0 -1.6517858,-0.739529 -1.6517858,-1.651785 0,-0.912256 0.7395297,-1.651786 1.6517858,-1.651786 0.912256,0 1.6517857,0.73953 1.6517857,1.651786 z"
       transform="matrix(0.70606495,0,0,0.70606495,29.722506,1013.3456)" />
    <g
       style="font-size:6px;font-style:normal;font-variant:normal;font-weight:normal;font-stretch:normal;fill:#000000;fill-opacity:1;stroke:none;font-family:Calibri;-inkscape-font-specification:Calibri"
       id="text3756">
      <path
         d="m 23.412109,1016.5225 c -2e-6,0.037 -0.0029,0.068 -0.0088,0.094 -0.0059,0.025 -0.01367,0.046 -0.02344,0.061 -0.0098,0.016 -0.02149,0.027 -0.03516,0.035 -0.01172,0.01 -0.02442,0.01 -0.03809,0.01 l -1.980469,0 c -0.01367,0 -0.02637,-0 -0.03809,-0.01 -0.01172,-0.01 -0.02344,-0.019 -0.03516,-0.035 -0.0098,-0.016 -0.01758,-0.036 -0.02344,-0.061 -0.0059,-0.025 -0.0088,-0.057 -0.0088,-0.094 0,-0.035 0.0029,-0.066 0.0088,-0.091 0.0059,-0.025 0.0127,-0.046 0.02051,-0.062 0.0098,-0.018 0.02051,-0.03 0.03223,-0.038 0.01367,-0.01 0.02832,-0.015 0.04395,-0.015 l 0.791015,0 0,-2.8828 -0.732421,0.4365 c -0.03711,0.019 -0.06738,0.031 -0.09082,0.035 -0.02149,0 -0.03906,10e-5 -0.05273,-0.012 -0.01367,-0.014 -0.02344,-0.035 -0.0293,-0.064 -0.0039,-0.029 -0.0059,-0.066 -0.0059,-0.1114 -10e-7,-0.033 9.76e-4,-0.062 0.0029,-0.085 0.0039,-0.023 0.0088,-0.043 0.01465,-0.059 0.0059,-0.016 0.01367,-0.029 0.02344,-0.041 0.01172,-0.012 0.02637,-0.024 0.04395,-0.035 l 0.873046,-0.5595 c 0.0078,-0.01 0.01758,-0.011 0.0293,-0.015 0.01172,-0 0.02637,-0.01 0.04395,-0.012 0.01758,-0 0.03808,-0.01 0.06152,-0.01 0.02344,-0 0.05273,-0 0.08789,-0 0.04687,0 0.08593,0 0.117187,0.01 0.03125,0 0.05566,0.01 0.07324,0.017 0.01758,0.01 0.02929,0.015 0.03516,0.026 0.0059,0.01 0.0088,0.02 0.0088,0.032 l 0,3.3311 0.685547,0 c 0.01562,0 0.03027,0 0.04395,0.015 0.01367,0.01 0.02441,0.02 0.03223,0.038 0.0098,0.016 0.0166,0.036 0.02051,0.062 0.0059,0.025 0.0088,0.056 0.0088,0.091"
         style=""
         id="path2885" />
      <path
         d="m 26.450195,1016.5049 c -2e-6,0.035 -0.0029,0.066 -0.0088,0.094 -0.0039,0.027 -0.01075,0.051 -0.02051,0.07 -0.0078,0.018 -0.01953,0.031 -0.03516,0.041 -0.01367,0.01 -0.0293,0.012 -0.04687,0.012 l -2.094726,0 c -0.02735,0 -0.05176,-0 -0.07324,-0.01 -0.01953,-0.01 -0.03711,-0.019 -0.05273,-0.035 -0.01367,-0.016 -0.02441,-0.038 -0.03223,-0.067 -0.0059,-0.029 -0.0088,-0.066 -0.0088,-0.1084 0,-0.039 9.77e-4,-0.073 0.0029,-0.1026 0.0039,-0.029 0.01074,-0.055 0.02051,-0.076 0.0098,-0.023 0.02148,-0.046 0.03516,-0.067 0.01563,-0.024 0.03516,-0.048 0.05859,-0.073 l 0.735351,-0.7793 c 0.169921,-0.1797 0.305663,-0.3408 0.407227,-0.4834 0.103514,-0.1426 0.182615,-0.2724 0.237305,-0.3896 0.05664,-0.1172 0.09375,-0.2237 0.111328,-0.3194 0.01758,-0.096 0.02637,-0.1855 0.02637,-0.2695 -2e-6,-0.084 -0.01367,-0.1631 -0.04102,-0.2373 -0.02735,-0.076 -0.06738,-0.1426 -0.120117,-0.1992 -0.05078,-0.057 -0.115236,-0.1016 -0.193359,-0.1348 -0.07813,-0.033 -0.16797,-0.05 -0.269531,-0.05 -0.119142,0 -0.226564,0.017 -0.322266,0.05 -0.09375,0.033 -0.176759,0.069 -0.249023,0.1084 -0.07031,0.039 -0.129884,0.075 -0.178711,0.1084 -0.04688,0.033 -0.08203,0.05 -0.105469,0.05 -0.01367,0 -0.02637,-0 -0.03809,-0.012 -0.0098,-0.01 -0.01855,-0.02 -0.02637,-0.038 -0.0059,-0.018 -0.01074,-0.041 -0.01465,-0.07 -0.0039,-0.029 -0.0059,-0.064 -0.0059,-0.1055 0,-0.029 9.76e-4,-0.055 0.0029,-0.076 0.002,-0.022 0.0049,-0.04 0.0088,-0.056 0.0059,-0.016 0.0127,-0.03 0.02051,-0.044 0.0078,-0.014 0.02344,-0.03 0.04687,-0.05 0.02344,-0.021 0.06348,-0.05 0.120118,-0.085 0.05859,-0.035 0.130858,-0.069 0.216797,-0.1026 0.08789,-0.035 0.183592,-0.064 0.287109,-0.088 0.105467,-0.024 0.215819,-0.035 0.331055,-0.035 0.183592,0 0.343748,0.026 0.480468,0.079 0.13867,0.051 0.252928,0.1211 0.342774,0.2109 0.09179,0.09 0.160154,0.1944 0.205078,0.3135 0.04492,0.1192 0.06738,0.2461 0.06738,0.3809 -3e-6,0.1211 -0.01075,0.2422 -0.03223,0.3633 -0.02149,0.1191 -0.06739,0.249 -0.137695,0.3896 -0.06836,0.1387 -0.167971,0.294 -0.298828,0.4658 -0.130862,0.1699 -0.30469,0.3662 -0.521485,0.5889 l -0.600586,0.6269 1.649414,0 c 0.01562,0 0.03027,0 0.04395,0.015 0.01562,0.01 0.02832,0.021 0.03809,0.038 0.01172,0.018 0.01953,0.04 0.02344,0.067 0.0059,0.025 0.0088,0.056 0.0088,0.091"
         style=""
         id="path2887" />
    </g>
    <g
       style="font-size:6px;font-style:normal;font-variant:normal;font-weight:normal;font-stretch:normal;fill:#000000;fill-opacity:1;stroke:none;font-family:Calibri;-inkscape-font-specification:Calibri"
       id="text3760">
      <path
         d="m 25.073242,1040.5424 c -3e-6,0.166 -0.02539,0.3271 -0.07617,0.4834 -0.05078,0.1543 -0.128909,0.291 -0.234375,0.4101 -0.105471,0.1172 -0.23926,0.2119 -0.401367,0.2842 -0.162111,0.07 -0.353517,0.1055 -0.574219,0.1055 -0.158204,0 -0.297852,-0.02 -0.418945,-0.059 -0.121095,-0.039 -0.226563,-0.095 -0.316406,-0.167 -0.08985,-0.072 -0.16504,-0.1612 -0.225586,-0.2666 -0.05859,-0.1055 -0.106446,-0.2256 -0.143555,-0.3604 -0.03516,-0.1347 -0.06055,-0.2822 -0.07617,-0.4424 -0.01563,-0.1601 -0.02344,-0.332 -0.02344,-0.5156 -1e-6,-0.1621 0.0088,-0.3262 0.02637,-0.4922 0.01758,-0.166 0.04883,-0.3261 0.09375,-0.4804 0.04492,-0.1543 0.105468,-0.2989 0.181641,-0.4336 0.07812,-0.1368 0.174804,-0.2549 0.290039,-0.3545 0.117186,-0.1016 0.256834,-0.1817 0.418945,-0.2403 0.162108,-0.059 0.350584,-0.088 0.56543,-0.088 0.07226,1e-4 0.145505,0 0.219726,0.015 0.07422,0.01 0.142576,0.019 0.205078,0.035 0.0625,0.014 0.115232,0.029 0.158203,0.047 0.04297,0.018 0.07129,0.032 0.08496,0.044 0.01367,0.01 0.02343,0.021 0.0293,0.035 0.0078,0.012 0.01367,0.025 0.01758,0.041 0.0039,0.014 0.0068,0.03 0.0088,0.05 0.002,0.018 0.0029,0.04 0.0029,0.067 -2e-6,0.035 -9.79e-4,0.065 -0.0029,0.091 -2e-6,0.025 -0.0039,0.046 -0.01172,0.061 -0.0059,0.016 -0.01465,0.027 -0.02637,0.035 -0.0098,0.01 -0.02344,0.012 -0.04102,0.012 -0.02149,0 -0.05078,-0.01 -0.08789,-0.021 -0.03711,-0.014 -0.08203,-0.028 -0.134765,-0.044 -0.05274,-0.018 -0.11719,-0.033 -0.19336,-0.047 -0.07422,-0.014 -0.161134,-0.02 -0.260742,-0.02 -0.181642,0 -0.337892,0.037 -0.46875,0.1113 -0.130861,0.074 -0.238282,0.1739 -0.322266,0.2989 -0.08203,0.125 -0.143555,0.2705 -0.18457,0.4365 -0.03906,0.1641 -0.06152,0.3359 -0.06738,0.5156 0.05078,-0.029 0.107421,-0.059 0.169922,-0.088 0.06445,-0.029 0.133788,-0.056 0.208008,-0.079 0.07617,-0.023 0.156249,-0.042 0.240234,-0.056 0.08398,-0.016 0.173827,-0.024 0.269532,-0.024 0.205076,0 0.377927,0.028 0.518554,0.085 0.140623,0.055 0.253904,0.1318 0.339844,0.2314 0.08789,0.098 0.150388,0.2139 0.1875,0.3487 0.03711,0.1328 0.05566,0.2773 0.05566,0.4336 m -0.509765,0.047 c -3e-6,-0.1132 -0.01172,-0.2158 -0.03516,-0.3076 -0.02149,-0.094 -0.0586,-0.1728 -0.111328,-0.2373 -0.05274,-0.064 -0.123049,-0.1142 -0.210937,-0.1494 -0.08789,-0.035 -0.196291,-0.053 -0.325196,-0.053 -0.07227,0 -0.144532,0.01 -0.216797,0.02 -0.07227,0.012 -0.142579,0.029 -0.210937,0.053 -0.06641,0.021 -0.13086,0.048 -0.193359,0.079 -0.06055,0.029 -0.116212,0.062 -0.166993,0.097 0,0.2519 0.01563,0.4629 0.04687,0.6328 0.0332,0.1699 0.08008,0.3066 0.140625,0.4102 0.0625,0.1015 0.139648,0.1748 0.231446,0.2197 0.0918,0.043 0.199217,0.064 0.322265,0.064 0.124999,0 0.233397,-0.023 0.325196,-0.07 0.0918,-0.047 0.167966,-0.1094 0.228515,-0.1875 0.06054,-0.08 0.10449,-0.1689 0.131836,-0.2666 0.02929,-0.1 0.04394,-0.2011 0.04395,-0.3047"
         style=""
         id="path2893" />
    </g>
    <path
       sodipodi:nodetypes="csccscccsccscc"
       id="path3764"
       d="m 7.4227449,1036.4671 c 0.038086,0.075 0.055434,0.1591 0.097684,0.2323 0.0425,0.074 0.1064104,0.1302 0.1523162,0.2007 l 3.2535191,-1.8784 c -0.04637,-0.068 -0.0834,-0.1445 -0.125,-0.2165 -0.0425,-0.074 -0.0885,-0.1402 -0.125,-0.2165 l -3.2535191,1.8784 z m 29.3078941,-16.9209 c 0.04772,0.069 0.0824,0.1427 0.125,0.2165 0.0415,0.072 0.08921,0.1419 0.125,0.2165 l 3.252868,-1.8781 c -0.0381,-0.075 -0.05544,-0.1591 -0.09769,-0.2323 -0.042,-0.073 -0.106459,-0.1303 -0.152315,-0.2007 l -3.252868,1.8781 z"
       style="fill:#141414;fill-opacity:1;stroke:none" />
    <path
       style="fill:#141414;fill-opacity:1;stroke:none"
       d="m 14.212149,1043.4395 c 0.07048,0.046 0.127557,0.1101 0.200747,0.1523 0.07381,0.043 0.157254,0.06 0.23226,0.098 l 1.87843,-3.2535 c -0.07416,-0.036 -0.144477,-0.083 -0.216503,-0.125 -0.07381,-0.043 -0.146744,-0.077 -0.216503,-0.125 l -1.878431,3.2535 z m 16.920931,-29.3079 c 0.07583,0.036 0.142711,0.082 0.216503,0.125 0.07194,0.042 0.148208,0.078 0.216503,0.125 l 1.878017,-3.2529 c -0.0705,-0.046 -0.127563,-0.1101 -0.200752,-0.1523 -0.07287,-0.042 -0.157347,-0.06 -0.232259,-0.098 l -1.878016,3.2529 z"
       id="path3766"
       sodipodi:nodetypes="csccscccsccscc" />
    <path
       sodipodi:nodetypes="csccscccsccscc"
       id="path3768"
       d="m 33.010887,1043.6896 c 0.07278,-0.042 0.159342,-0.055 0.232508,-0.097 0.07413,-0.043 0.130422,-0.1065 0.201131,-0.1519 l -1.878385,-3.2535 c -0.06621,0.05 -0.144098,0.084 -0.216504,0.125 -0.07413,0.042 -0.138399,0.091 -0.216503,0.125 l 1.878383,3.2535 z m -16.920944,-29.308 c 0.06746,-0.051 0.14239,-0.083 0.216503,-0.125 0.07234,-0.041 0.139931,-0.092 0.216504,-0.125 l -1.878085,-3.2528 c -0.07279,0.042 -0.158846,0.056 -0.232011,0.098 -0.07279,0.042 -0.130491,0.1065 -0.201129,0.1519 l 1.878084,3.2529 z"
       style="fill:#141414;fill-opacity:1;stroke:none" />
    <path
       style="fill:#141414;fill-opacity:1;stroke:none"
       d="m 39.983055,1036.9004 c 0.04203,-0.073 0.110494,-0.1273 0.152858,-0.2003 0.0427,-0.074 0.0597,-0.1574 0.09823,-0.2321 l -3.25348,-1.8784 c -0.03234,0.076 -0.08279,0.1448 -0.124997,0.2165 -0.0432,0.073 -0.07436,0.148 -0.124998,0.2165 l 3.253478,1.8784 z m -29.307967,-16.921 c 0.03292,-0.078 0.08181,-0.1431 0.124997,-0.2165 0.04215,-0.072 0.07518,-0.1497 0.124998,-0.2165 l -3.2528694,-1.878 c -0.042038,0.073 -0.1095647,0.1279 -0.1519274,0.2009 -0.042038,0.073 -0.059759,0.1575 -0.098233,0.2321 l 3.2529186,1.8781 z"
       id="path3770"
       sodipodi:nodetypes="csccscccsccscc" />
    <g
       style="font-size:6px;font-style:normal;font-variant:normal;font-weight:normal;font-stretch:normal;fill:#000000;fill-opacity:1;stroke:none;font-family:Calibri;-inkscape-font-specification:Calibri"
       id="text3772">
      <path
         d="m 38.153843,1028.0941 c -3e-6,0.1738 -0.03028,0.3311 -0.09082,0.4717 -0.06055,0.1387 -0.147464,0.2578 -0.260743,0.3574 -0.113283,0.1 -0.252931,0.1768 -0.418945,0.2315 -0.166017,0.053 -0.353517,0.079 -0.5625,0.079 -0.126954,0 -0.246095,-0.011 -0.357422,-0.032 -0.109376,-0.019 -0.207032,-0.043 -0.292969,-0.07 -0.08594,-0.029 -0.157227,-0.059 -0.213867,-0.088 -0.05664,-0.031 -0.09277,-0.054 -0.108398,-0.067 -0.01367,-0.014 -0.02442,-0.027 -0.03223,-0.041 -0.0078,-0.014 -0.01465,-0.03 -0.02051,-0.05 -0.0059,-0.019 -0.01074,-0.043 -0.01465,-0.07 -0.002,-0.029 -0.0029,-0.064 -0.0029,-0.1054 0,-0.07 0.0068,-0.1192 0.02051,-0.1465 0.01367,-0.027 0.0332,-0.041 0.05859,-0.041 0.01758,0 0.05176,0.016 0.102539,0.047 0.05273,0.031 0.11914,0.065 0.199219,0.1026 0.08203,0.035 0.176757,0.068 0.284179,0.1 0.109374,0.031 0.230468,0.047 0.363282,0.047 0.128904,0 0.242186,-0.017 0.339843,-0.05 0.09765,-0.033 0.179686,-0.08 0.246094,-0.1406 0.0664,-0.061 0.116209,-0.1318 0.149414,-0.2138 0.0332,-0.084 0.0498,-0.1749 0.0498,-0.2725 -2e-6,-0.1074 -0.02149,-0.2041 -0.06445,-0.29 -0.04102,-0.086 -0.102541,-0.1602 -0.184571,-0.2227 -0.08008,-0.062 -0.179689,-0.1104 -0.298828,-0.1436 -0.117189,-0.033 -0.250978,-0.05 -0.401367,-0.05 l -0.360351,0 c -0.01563,0 -0.03125,-0 -0.04687,-0.01 -0.01367,-0.01 -0.02637,-0.019 -0.03809,-0.035 -0.0098,-0.016 -0.01856,-0.036 -0.02637,-0.062 -0.0059,-0.025 -0.0088,-0.059 -0.0088,-0.1 0,-0.037 0.0029,-0.067 0.0088,-0.091 0.0059,-0.025 0.01367,-0.045 0.02344,-0.059 0.01172,-0.016 0.02441,-0.026 0.03809,-0.032 0.01367,-0.01 0.0293,-0.012 0.04687,-0.012 l 0.331055,0 c 0.128905,0 0.244139,-0.017 0.345703,-0.05 0.103514,-0.033 0.190428,-0.081 0.260742,-0.1436 0.07226,-0.062 0.126951,-0.1367 0.164062,-0.2226 0.03906,-0.088 0.05859,-0.1856 0.05859,-0.293 -2e-6,-0.078 -0.0127,-0.1523 -0.03809,-0.2226 -0.02539,-0.072 -0.06348,-0.1348 -0.114258,-0.1875 -0.05078,-0.053 -0.116212,-0.094 -0.196289,-0.1231 -0.07813,-0.031 -0.168946,-0.047 -0.272461,-0.047 -0.113282,0 -0.217774,0.018 -0.313476,0.053 -0.09375,0.033 -0.177735,0.069 -0.251953,0.1084 -0.07422,0.039 -0.135743,0.076 -0.184571,0.1113 -0.04883,0.033 -0.08301,0.05 -0.102539,0.05 -0.01367,0 -0.02637,-0 -0.03809,-0.01 -0.0098,-0.01 -0.01856,-0.016 -0.02637,-0.029 -0.0059,-0.016 -0.01074,-0.036 -0.01465,-0.062 -0.002,-0.027 -0.0029,-0.062 -0.0029,-0.1054 0,-0.029 9.76e-4,-0.055 0.0029,-0.076 0.002,-0.024 0.0059,-0.043 0.01172,-0.059 0.0059,-0.018 0.01269,-0.033 0.02051,-0.047 0.0078,-0.014 0.02051,-0.029 0.03809,-0.047 0.01953,-0.019 0.05762,-0.047 0.114258,-0.082 0.05664,-0.035 0.125976,-0.069 0.208008,-0.1025 0.08398,-0.035 0.179686,-0.064 0.287109,-0.088 0.109374,-0.024 0.226561,-0.035 0.351563,-0.035 0.175779,0 0.330076,0.023 0.46289,0.067 0.132811,0.045 0.243162,0.1084 0.331055,0.1904 0.08984,0.082 0.156248,0.1807 0.199219,0.2959 0.04492,0.1133 0.06738,0.2393 0.06738,0.378 -3e-6,0.1191 -0.01563,0.2304 -0.04687,0.3339 -0.03125,0.1016 -0.07715,0.1924 -0.137696,0.2725 -0.06055,0.078 -0.134767,0.1455 -0.222656,0.2022 -0.08789,0.055 -0.189455,0.093 -0.304687,0.1142 l 0,0.01 c 0.130857,0.014 0.249998,0.047 0.357421,0.1 0.109373,0.051 0.203123,0.1152 0.28125,0.1933 0.07812,0.078 0.13867,0.17 0.181641,0.2754 0.04492,0.1035 0.06738,0.2149 0.06738,0.334"
         style=""
         id="path2890" />
    </g>
    <g
       style="font-size:6px;font-style:normal;font-variant:normal;font-weight:normal;font-stretch:normal;fill:#000000;fill-opacity:1;stroke:none;font-family:Calibri;-inkscape-font-specification:Calibri"
       id="text3776">
      <path
         d="m 11.810996,1027.1332 c -3e-6,0.164 -0.0098,0.3301 -0.0293,0.498 -0.01953,0.168 -0.05274,0.3301 -0.09961,0.4864 -0.04688,0.1543 -0.110354,0.2998 -0.19043,0.4365 -0.07813,0.1347 -0.177736,0.2529 -0.298828,0.3545 -0.119143,0.1015 -0.261721,0.1816 -0.427734,0.2402 -0.164064,0.057 -0.35547,0.085 -0.574219,0.085 -0.08399,0 -0.166017,-0.01 -0.2460939,-0.018 -0.078126,-0.01 -0.1494148,-0.023 -0.2138672,-0.038 -0.062501,-0.016 -0.1152349,-0.032 -0.1582031,-0.05 -0.042969,-0.018 -0.074219,-0.035 -0.09375,-0.053 -0.019532,-0.018 -0.03418,-0.041 -0.043945,-0.07 -0.00781,-0.031 -0.011719,-0.072 -0.011719,-0.123 -3e-7,-0.043 9.763e-4,-0.077 0.00293,-0.1025 0.00391,-0.025 0.00879,-0.045 0.014648,-0.059 0.00586,-0.014 0.013672,-0.023 0.023437,-0.026 0.011718,-0.01 0.02539,-0.01 0.041016,-0.01 0.021484,0 0.051757,0.01 0.09082,0.024 0.039062,0.014 0.08789,0.029 0.1464844,0.047 0.060546,0.018 0.1308586,0.034 0.2109375,0.05 0.080077,0.014 0.1699208,0.02 0.2695308,0.02 0.189452,0 0.351561,-0.036 0.486329,-0.1084 0.136717,-0.074 0.248045,-0.1728 0.333984,-0.2959 0.08593,-0.123 0.150388,-0.2656 0.193359,-0.4277 0.04297,-0.1621 0.0664,-0.333 0.07031,-0.5127 -0.103518,0.061 -0.227541,0.1143 -0.372071,0.1611 -0.144532,0.047 -0.310548,0.07 -0.498046,0.07 -0.210939,0 -0.388673,-0.028 -0.5332035,-0.085 -0.1425788,-0.059 -0.2578131,-0.1377 -0.3457031,-0.2373 -0.085938,-0.1 -0.1484379,-0.2178 -0.1875,-0.3545 -0.03711,-0.1367 -0.055664,-0.2861 -0.055664,-0.4482 -2e-7,-0.168 0.024414,-0.3272 0.073242,-0.4776 0.048828,-0.1523 0.1249996,-0.2861 0.2285156,-0.4013 0.103515,-0.1153 0.2353508,-0.2071 0.3955079,-0.2754 0.160155,-0.068 0.351561,-0.1026 0.574219,-0.1026 0.158201,0 0.297849,0.02 0.418945,0.062 0.123045,0.039 0.22949,0.097 0.319336,0.1729 0.08984,0.074 0.166013,0.165 0.228516,0.2725 0.0625,0.1054 0.112302,0.2255 0.149414,0.3603 0.03906,0.1348 0.0664,0.2813 0.08203,0.4395 0.01757,0.1562 0.02636,0.3213 0.02637,0.4951 m -0.512695,-0.056 c -2e-6,-0.25 -0.0166,-0.4599 -0.04981,-0.6299 -0.0332,-0.1718 -0.08203,-0.3105 -0.146484,-0.416 -0.06446,-0.1054 -0.143557,-0.1816 -0.237305,-0.2285 -0.09375,-0.047 -0.20215,-0.07 -0.325195,-0.07 -0.126955,0 -0.235353,0.023 -0.325196,0.07 -0.08984,0.045 -0.164063,0.1064 -0.2226559,0.1846 -0.056642,0.076 -0.098634,0.1631 -0.1259765,0.2607 -0.027345,0.098 -0.041016,0.1983 -0.041016,0.3018 -7e-7,0.1152 0.011718,0.2207 0.035156,0.3164 0.02539,0.096 0.065429,0.1767 0.1201172,0.2431 0.054687,0.066 0.1259756,0.1182 0.2138676,0.1553 0.08789,0.035 0.196287,0.053 0.325195,0.053 0.146483,10e-5 0.288084,-0.021 0.424805,-0.064 0.136716,-0.045 0.25488,-0.1035 0.354492,-0.1758"
         style=""
         id="path2882" />
    </g>
  </g>
</svg>
