<?xml version="1.0" encoding="UTF-8" standalone="no"?>
<!-- Created with Inkscape (http://www.inkscape.org/) -->

<svg
   xmlns:dc="http://purl.org/dc/elements/1.1/"
   xmlns:cc="http://creativecommons.org/ns#"
   xmlns:rdf="http://www.w3.org/1999/02/22-rdf-syntax-ns#"
   xmlns:svg="http://www.w3.org/2000/svg"
   xmlns="http://www.w3.org/2000/svg"
   xmlns:xlink="http://www.w3.org/1999/xlink"
   xmlns:sodipodi="http://sodipodi.sourceforge.net/DTD/sodipodi-0.dtd"
   xmlns:inkscape="http://www.inkscape.org/namespaces/inkscape"
   width="48"
   height="48"
   id="svg2"
   version="1.1"
   inkscape:version="0.47pre4 r22446"
   sodipodi:docname="gnome-laptop.svg">
  <defs
     id="defs4">
    <linearGradient
       id="linearGradient3798">
      <stop
         id="stop3800"
         offset="0"
         style="stop-color:#c8c8c8;stop-opacity:1;" />
      <stop
         id="stop3802"
         offset="1"
         style="stop-color:#f0f0f0;stop-opacity:1;" />
    </linearGradient>
    <linearGradient
       id="linearGradient3687">
      <stop
         style="stop-color:#141414;stop-opacity:0;"
         offset="0"
         id="stop3689" />
      <stop
         id="stop3697"
         offset="0.63709867"
         style="stop-color:#141414;stop-opacity:0;" />
      <stop
         id="stop3695"
         offset="0.75789559"
         style="stop-color:#141414;stop-opacity:0;" />
      <stop
         style="stop-color:#141414;stop-opacity:0.78431374;"
         offset="1"
         id="stop3691" />
    </linearGradient>
    <linearGradient
       id="linearGradient3679">
      <stop
         id="stop3681"
         offset="0"
         style="stop-color:#c8c8c8;stop-opacity:1;" />
      <stop
         id="stop3683"
         offset="1"
         style="stop-color:#141414;stop-opacity:1;" />
    </linearGradient>
    <linearGradient
       id="linearGradient3658">
      <stop
         id="stop3660"
         offset="0"
         style="stop-color:#c8c8c8;stop-opacity:0;" />
      <stop
         id="stop3662"
         offset="1"
         style="stop-color:#646464;stop-opacity:1;" />
    </linearGradient>
    <linearGradient
       id="linearGradient3632">
      <stop
         style="stop-color:#c8c8c8;stop-opacity:1;"
         offset="0"
         id="stop3634" />
      <stop
         style="stop-color:#646464;stop-opacity:1;"
         offset="1"
         id="stop3636" />
    </linearGradient>
    <linearGradient
       inkscape:collect="always"
       id="linearGradient3614">
      <stop
         style="stop-color:#ffffff;stop-opacity:1;"
         offset="0"
         id="stop3616" />
      <stop
         style="stop-color:#ffffff;stop-opacity:0;"
         offset="1"
         id="stop3618" />
    </linearGradient>
    <inkscape:perspective
       sodipodi:type="inkscape:persp3d"
       inkscape:vp_x="0 : 526.18109 : 1"
       inkscape:vp_y="0 : 1000 : 0"
       inkscape:vp_z="744.09448 : 526.18109 : 1"
       inkscape:persp3d-origin="372.04724 : 350.78739 : 1"
       id="perspective10" />
    <inkscape:perspective
       id="perspective2824"
       inkscape:persp3d-origin="0.5 : 0.33333333 : 1"
       inkscape:vp_z="1 : 0.5 : 1"
       inkscape:vp_y="0 : 1000 : 0"
       inkscape:vp_x="0 : 0.5 : 1"
       sodipodi:type="inkscape:persp3d" />
    <linearGradient
       inkscape:collect="always"
       xlink:href="#linearGradient3614"
       id="linearGradient3620"
       x1="8.8217916"
       y1="995.75513"
       x2="25.821791"
       y2="1031.7551"
       gradientUnits="userSpaceOnUse" />
    <radialGradient
       inkscape:collect="always"
       xlink:href="#linearGradient3679"
       id="radialGradient3638"
       cx="24.821793"
       cy="1003.2544"
       fx="24.821793"
       fy="1003.2544"
       r="17.500792"
       gradientTransform="matrix(-1.903308,1.903311,-1.846668,-1.846665,1924.743,2813.6864)"
       gradientUnits="userSpaceOnUse" />
    <radialGradient
       inkscape:collect="always"
       xlink:href="#linearGradient3632"
       id="radialGradient3646"
       cx="24.821011"
       cy="1062.7732"
       fx="24.821011"
       fy="1062.7732"
       r="21.5"
       gradientTransform="matrix(1.4482997,-1.3946004,1.2651506,1.3138654,-1355.6954,-311.43432)"
       gradientUnits="userSpaceOnUse" />
    <linearGradient
       inkscape:collect="always"
       xlink:href="#linearGradient3614"
       id="linearGradient3652"
       x1="24.820999"
       y1="1030.896"
       x2="24.820999"
       y2="1035.5421"
       gradientUnits="userSpaceOnUse" />
    <linearGradient
       inkscape:collect="always"
       xlink:href="#linearGradient3658"
       id="linearGradient3656"
       x1="24.821791"
       y1="1020.7551"
       x2="24.821791"
       y2="1033.2552"
       gradientUnits="userSpaceOnUse" />
    <radialGradient
       inkscape:collect="always"
       xlink:href="#linearGradient3687"
       id="radialGradient3693"
       cx="24.821793"
       cy="1020.7551"
       fx="24.821793"
       fy="1020.7551"
       r="16.25"
       gradientTransform="matrix(1.1978025,0,0,0.96153843,-4.9098037,39.259829)"
       gradientUnits="userSpaceOnUse" />
    <linearGradient
       inkscape:collect="always"
       xlink:href="#linearGradient3614"
       id="linearGradient3722"
       gradientUnits="userSpaceOnUse"
       x1="24.820999"
       y1="1050.2911"
       x2="24.820999"
       y2="1050.1304"
       gradientTransform="translate(0,-0.26785713)" />
    <radialGradient
       inkscape:collect="always"
       xlink:href="#linearGradient3632"
       id="radialGradient3738"
       gradientUnits="userSpaceOnUse"
       gradientTransform="matrix(1.4482997,-1.3946004,1.2651506,1.3138654,-1355.6954,-311.43432)"
       cx="24.821011"
       cy="1062.7732"
       fx="24.821011"
       fy="1062.7732"
       r="21.5" />
    <linearGradient
       inkscape:collect="always"
       xlink:href="#linearGradient3614"
       id="linearGradient3740"
       gradientUnits="userSpaceOnUse"
       x1="24.820999"
       y1="1030.896"
       x2="24.820999"
       y2="1035.5421" />
    <radialGradient
       inkscape:collect="always"
       xlink:href="#linearGradient3679"
       id="radialGradient3742"
       gradientUnits="userSpaceOnUse"
       gradientTransform="matrix(-1.903308,1.903311,-1.846668,-1.846665,1924.743,2813.6864)"
       cx="24.821793"
       cy="1003.2544"
       fx="24.821793"
       fy="1003.2544"
       r="17.500792" />
    <linearGradient
       inkscape:collect="always"
       xlink:href="#linearGradient3658"
       id="linearGradient3744"
       gradientUnits="userSpaceOnUse"
       x1="24.821791"
       y1="1020.7551"
       x2="24.821791"
       y2="1033.2552" />
    <radialGradient
       inkscape:collect="always"
       xlink:href="#linearGradient3687"
       id="radialGradient3746"
       gradientUnits="userSpaceOnUse"
       gradientTransform="matrix(1.1978025,0,0,0.96153843,-4.9098037,39.259829)"
       cx="24.821793"
       cy="1020.7551"
       fx="24.821793"
       fy="1020.7551"
       r="16.25" />
    <linearGradient
       inkscape:collect="always"
       xlink:href="#linearGradient3614"
       id="linearGradient3748"
       gradientUnits="userSpaceOnUse"
       x1="8.8217916"
       y1="995.75513"
       x2="25.821791"
       y2="1031.7551" />
    <linearGradient
       inkscape:collect="always"
       xlink:href="#linearGradient3614"
       id="linearGradient3750"
       gradientUnits="userSpaceOnUse"
       gradientTransform="translate(0,-0.26785713)"
       x1="24.820999"
       y1="1050.2911"
       x2="24.820999"
       y2="1050.1304" />
    <linearGradient
       inkscape:collect="always"
       xlink:href="#linearGradient3614"
       id="linearGradient3753"
       gradientUnits="userSpaceOnUse"
       gradientTransform="translate(-0.821,-1.3127571)"
       x1="24.820999"
       y1="1050.2911"
       x2="24.820999"
       y2="1050.1304" />
    <linearGradient
       inkscape:collect="always"
       xlink:href="#linearGradient3614"
       id="linearGradient3758"
       gradientUnits="userSpaceOnUse"
       x1="8.8217916"
       y1="995.75513"
       x2="25.821791"
       y2="1031.7551"
       gradientTransform="translate(-0.821,-1.0449)" />
    <radialGradient
       inkscape:collect="always"
       xlink:href="#linearGradient3687"
       id="radialGradient3762"
       gradientUnits="userSpaceOnUse"
       gradientTransform="matrix(1.1978025,0,0,0.96153843,-5.7308037,38.214929)"
       cx="24.821793"
       cy="1020.7551"
       fx="24.821793"
       fy="1020.7551"
       r="16.25" />
    <linearGradient
       inkscape:collect="always"
       xlink:href="#linearGradient3658"
       id="linearGradient3766"
       gradientUnits="userSpaceOnUse"
       x1="24.821791"
       y1="1020.7551"
       x2="24.821791"
       y2="1033.2552"
       gradientTransform="translate(-0.821,-1.0449)" />
    <radialGradient
       inkscape:collect="always"
       xlink:href="#linearGradient3679"
       id="radialGradient3769"
       gradientUnits="userSpaceOnUse"
       gradientTransform="matrix(-1.903308,1.903311,-1.846668,-1.846665,1923.922,2812.6415)"
       cx="24.821793"
       cy="1003.2544"
       fx="24.821793"
       fy="1003.2544"
       r="17.500792" />
    <linearGradient
       inkscape:collect="always"
       xlink:href="#linearGradient3614"
       id="linearGradient3772"
       gradientUnits="userSpaceOnUse"
       x1="24.820999"
       y1="1030.896"
       x2="24.820999"
       y2="1035.5421"
       gradientTransform="translate(-0.821,-1.0449)" />
    <radialGradient
       inkscape:collect="always"
       xlink:href="#linearGradient3632"
       id="radialGradient3775"
       gradientUnits="userSpaceOnUse"
       gradientTransform="matrix(1.4482997,-1.3946004,1.2651506,1.3138654,-1356.5164,-312.47922)"
       cx="24.821011"
       cy="1062.7732"
       fx="24.821011"
       fy="1062.7732"
       r="21.5" />
    <radialGradient
       inkscape:collect="always"
       xlink:href="#linearGradient3798"
       id="radialGradient3796"
       cx="23.998047"
       cy="1045.89"
       fx="23.998047"
       fy="1045.89"
       r="5.392765"
       gradientTransform="matrix(1.8923993,-1.3232084e-6,5.2837239e-7,0.75565691,-21.416394,255.55604)"
       gradientUnits="userSpaceOnUse" />
    <radialGradient
       inkscape:collect="always"
       xlink:href="#linearGradient3632"
       id="radialGradient3804"
       cx="24.015625"
       cy="1052.4253"
       fx="24.015625"
       fy="1052.4253"
       r="5.6134682"
       gradientTransform="matrix(1.3340181,-6.7752697e-7,4.4051404e-7,0.86735101,-8.0221171,136.42417)"
       gradientUnits="userSpaceOnUse" />
    <radialGradient
       inkscape:collect="always"
       xlink:href="#linearGradient3632"
       id="radialGradient3817"
       gradientUnits="userSpaceOnUse"
       gradientTransform="matrix(1.3340181,-6.7752697e-7,4.4051404e-7,0.86735101,-8.0221171,136.42417)"
       cx="24.015625"
       cy="1052.4253"
       fx="24.015625"
       fy="1052.4253"
       r="5.6134682" />
    <radialGradient
       inkscape:collect="always"
       xlink:href="#linearGradient3798"
       id="radialGradient3819"
       gradientUnits="userSpaceOnUse"
       gradientTransform="matrix(1.8923993,-1.3232084e-6,5.2837239e-7,0.75565691,-21.416394,255.55604)"
       cx="23.998047"
       cy="1045.89"
       fx="23.998047"
       fy="1045.89"
       r="5.392765" />
  </defs>
  <sodipodi:namedview
     id="base"
     pagecolor="#ffffff"
     bordercolor="#666666"
     borderopacity="1.0"
     inkscape:pageopacity="0.0"
     inkscape:pageshadow="2"
     inkscape:zoom="8"
     inkscape:cx="22.911052"
     inkscape:cy="13.467924"
     inkscape:document-units="px"
     inkscape:current-layer="layer1"
     showgrid="false"
     inkscape:window-width="1280"
     inkscape:window-height="712"
     inkscape:window-x="0"
     inkscape:window-y="25"
     inkscape:window-maximized="1" />
  <metadata
     id="metadata7">
    <rdf:RDF>
      <cc:Work
         rdf:about="">
        <dc:format>image/svg+xml</dc:format>
        <dc:type
           rdf:resource="http://purl.org/dc/dcmitype/StillImage" />
        <dc:title></dc:title>
      </cc:Work>
    </rdf:RDF>
  </metadata>
  <g
     inkscape:label="Livello 1"
     inkscape:groupmode="layer"
     id="layer1"
     transform="translate(0,-1004.3622)">
    <path
       sodipodi:nodetypes="ccccccc"
       id="path3778"
       d="m 7.4059498,1007.1103 33.1889592,0 c 0.557173,0 1.005726,0.4496 1.005726,1.008 2.75e-4,7.8081 0.0027,16.8218 -4.3e-4,24.192 l -35.200412,0 4.307e-4,-24.1921 c 0,-0.5584 0.4485539,-1.008 1.0057261,-1.008 z"
       style="fill:#333333;fill-opacity:1;fill-rule:nonzero;stroke:none" />
    <image
       y="1004.255"
       x="54.75"
       id="image2826"
       height="48"
       width="48"
       xlink:href="file:///home/andrea/Scaricati/Icons/Simple/scalable/apps/gnome-laptop.png" />
    <path
       sodipodi:nodetypes="ccccccccc"
       style="fill:#333333;fill-opacity:1;fill-rule:nonzero;stroke:none"
       d="m 7.5004283,1032.0085 32.9999997,0 c 0.554,0 1,0.3218 1,0.7214 L 45.5,1049.3228 c 0,0.3997 -0.446,0.7214 -1,0.7214 l -41,4e-4 c -0.554,0 -1,-0.3223 -1,-0.722 l 4.0004283,-16.5927 c 0,-0.3996 0.446,-0.7214 1,-0.7214 z"
       id="path3622" />
    <path
       id="path2833"
       d="m 7.5004283,1031.2102 32.9999997,0 c 0.554,0 1,0.3218 1,0.7214 L 45.5,1048.5245 c 0,0.3997 -0.446,0.7214 -1,0.7214 l -41,4e-4 c -0.554,0 -1,-0.3223 -1,-0.722 l 4.0004283,-16.5927 c 0,-0.3996 0.446,-0.7214 1,-0.7214 z"
       style="fill:url(#radialGradient3775);fill-opacity:1;fill-rule:nonzero;stroke:none"
       sodipodi:nodetypes="ccccccccc" />
    <path
       sodipodi:nodetypes="ccccccccc"
       style="fill:url(#linearGradient3772);fill-opacity:1;fill-rule:nonzero;stroke:none"
       d="m 7.5004283,1031.2102 32.9999997,0 c 0.554,0 1,0.3218 1,0.7214 L 45.5,1048.5245 c 0,0.3997 -0.446,0.7214 -1,0.7214 l -41,4e-4 c -0.554,0 -1,-0.3223 -1,-0.722 l 4.0004283,-16.5927 c 0,-0.3996 0.446,-0.7214 1,-0.7214 z"
       id="path3648" />
    <path
       style="fill:url(#radialGradient3769);fill-opacity:1;fill-rule:nonzero;stroke:none"
       d="m 7.5004283,1007.2102 32.9999997,0 c 0.554,0 1,0.446 1,1 2.73e-4,7.7462 0.0027,16.6883 -4.28e-4,24.0001 l -35,0 4.283e-4,-24.0001 c 0,-0.554 0.446,-1 1,-1 z"
       id="rect2830"
       sodipodi:nodetypes="ccccccc" />
    <path
       sodipodi:nodetypes="ccccccc"
       id="path3654"
       d="m 7.5004283,1020.9602 32.9999997,0 c 0.554,0 1,0.446 1,1 2.73e-4,7.7462 0.0027,2.9383 -4.28e-4,10.2501 l -35,0 4.283e-4,-10.2501 c 0,-0.554 0.446,-1 1,-1 z"
       style="fill:url(#linearGradient3766);fill-opacity:1;fill-rule:nonzero;stroke:none" />
    <path
       style="fill:#5785a6;fill-opacity:1;fill-rule:nonzero;stroke:none"
       d="m 7.7507916,1008.4602 32.5000004,0 0,22.5 -32.5000004,0 0,-22.5 z"
       id="rect2835" />
    <path
       id="path3685"
       d="m 7.7507916,1008.4602 32.5000004,0 0,22.5 -32.5000004,0 0,-22.5 z"
       style="fill:url(#radialGradient3762);fill-opacity:1;fill-rule:nonzero;stroke:none" />
    <rect
       y="1008.7102"
       x="8.0007915"
       height="22"
       width="32"
       id="rect3609"
       style="fill:#7fadce;fill-opacity:1;fill-rule:nonzero;stroke:none" />
    <path
       style="fill:url(#linearGradient3758);fill-opacity:1;fill-rule:nonzero;stroke:none"
       d="m 8.0007916,1008.7102 25.0357144,0 -9.107143,22 -15.9285714,0 0,-22 z"
       id="rect3611"
       sodipodi:nodetypes="ccccc" />
    <path
       style="fill:#ffffff;fill-opacity:0.39215686;fill-rule:nonzero;stroke:none"
       d="m 7.5899201,1030.9602 -0.7927392,0 4.283e-4,-22.4999 0.7927389,0 -4.28e-4,22.4999 z"
       id="path3664"
       sodipodi:nodetypes="ccccc" />
    <path
       sodipodi:nodetypes="ccccc"
       id="path3675"
       d="m 40.418799,1030.9602 0.792739,0 -4.28e-4,-22.4999 -0.792739,0 4.28e-4,22.4999 z"
       style="fill:#ffffff;fill-opacity:0.39215686;fill-rule:nonzero;stroke:none" />
    <path
       id="path3720"
       d="m 7.5004283,1030.9423 32.9999997,0 c 0.554,0 1,0.3218 1,0.7214 L 45.5,1048.2566 c 0,0.3997 -0.446,0.7214 -1,0.7214 l -41,4e-4 c -0.554,0 -1,-0.3223 -1,-0.722 l 4.0004283,-16.5927 c 0,-0.3996 0.446,-0.7214 1,-0.7214 z"
       style="fill:url(#linearGradient3753);fill-opacity:1;fill-rule:nonzero;stroke:none"
       sodipodi:nodetypes="ccccccccc" />
    <g
       id="g3810"
       transform="translate(0,-0.40048251)">
      <path
         id="path3782"
         d="m 19.648302,1044.1903 8.64901,0 c 0.554,0 0.939349,0.3319 1,0.7214 l 0.519281,4.3346 -11.633186,-2e-4 0.464895,-4.3344 c 0.0562,-0.4031 0.446,-0.7214 1,-0.7214 z"
         style="fill:#646464;fill-opacity:1;fill-rule:nonzero;stroke:none"
         sodipodi:nodetypes="ccccccc" />
      <path
         sodipodi:nodetypes="ccccccc"
         style="fill:url(#radialGradient3817);fill-opacity:1;fill-rule:nonzero;stroke:none"
         d="m 19.867052,1044.3778 8.24276,0 c 0.786718,0 0.939349,0.3319 1,0.7214 l 0.519281,4.1471 -11.226936,-2e-4 0.464895,-4.1469 c 0.0562,-0.4915 0.236078,-0.7324 1,-0.7214 z"
         id="path3784" />
      <path
         sodipodi:nodetypes="ccccc"
         style="fill:#dcdcdc;fill-opacity:1;fill-rule:nonzero;stroke:none"
         d="m 24.14106,1045.0992 0.02399,4.1471 -0.280552,-2e-4 0.04505,-4.1469 0.21151,0 z"
         id="path3808" />
      <path
         id="path3806"
         d="m 24.10981,1045.0992 0.02399,4.1471 -0.280552,-2e-4 0.04505,-4.1469 0.21151,0 z"
         style="fill:#646464;fill-opacity:1;fill-rule:nonzero;stroke:none"
         sodipodi:nodetypes="ccccc" />
      <path
         id="path3794"
         d="m 19.867052,1044.3778 8.24276,0 c 0.786718,0 0.939349,0.3319 1,0.7214 l 0.281,2.3034 -10.78553,-2e-4 0.26177,-2.3032 c 0.0562,-0.4915 0.236078,-0.7324 1,-0.7214 z"
         style="fill:url(#radialGradient3819);fill-opacity:1;fill-rule:nonzero;stroke:none"
         sodipodi:nodetypes="ccccccc" />
    </g>
    <g
       style="font-size:1px;font-style:normal;font-variant:normal;font-weight:normal;font-stretch:normal;fill:#c8c8c8;fill-opacity:1;stroke:none;font-family:Calibri;-inkscape-font-specification:Calibri"
       id="text3829">
      <path
         d="m 21.927246,1031.8661 c -1e-6,0 -6.52e-4,0 -0.002,0.01 -0.0013,0 -0.0034,0 -0.0063,0 -0.0029,0 -0.007,0 -0.01221,0 -0.0052,7e-4 -0.01172,10e-4 -0.01953,10e-4 -0.0081,0 -0.01481,-3e-4 -0.02002,-10e-4 -0.0052,-6e-4 -0.0094,-0 -0.0127,-0 -0.0029,-0 -0.005,-0 -0.0063,-0 -0.0013,-0 -0.002,-0 -0.002,-0.01 l 0,-0.2671 c 0,-0.019 -0.0016,-0.035 -0.0049,-0.051 -0.0033,-0.015 -0.0085,-0.028 -0.01563,-0.039 -0.0072,-0.011 -0.01628,-0.02 -0.02734,-0.025 -0.01107,-0.01 -0.02409,-0.01 -0.03906,-0.01 -0.01855,0 -0.03727,0.01 -0.05615,0.022 -0.01855,0.014 -0.03906,0.035 -0.06152,0.063 l 0,0.3071 c -10e-7,0 -6.52e-4,0 -0.002,0.01 -0.0013,0 -0.0036,0 -0.0068,0 -0.0029,0 -0.007,0 -0.01221,0 -0.0052,7e-4 -0.01172,10e-4 -0.01953,10e-4 -0.0075,0 -0.014,-3e-4 -0.01953,-10e-4 -0.0052,-6e-4 -0.0094,-0 -0.0127,-0 -0.0029,-0 -0.005,-0 -0.0063,-0 -9.77e-4,-0 -0.0015,-0 -0.0015,-0.01 l 0,-0.2671 c 0,-0.019 -0.0018,-0.035 -0.0054,-0.051 -0.0036,-0.015 -0.009,-0.028 -0.01611,-0.039 -0.0072,-0.011 -0.01628,-0.02 -0.02734,-0.025 -0.01074,-0.01 -0.0236,-0.01 -0.03857,-0.01 -0.01855,0 -0.03727,0.01 -0.05615,0.022 -0.01888,0.014 -0.03939,0.035 -0.06152,0.063 l 0,0.3071 c 0,0 -6.51e-4,0 -0.002,0.01 -0.0013,0 -0.0034,0 -0.0063,0 -0.0029,0 -0.007,0 -0.01221,0 -0.0052,7e-4 -0.01188,10e-4 -0.02002,10e-4 -0.0078,0 -0.01432,-3e-4 -0.01953,-10e-4 -0.0052,-6e-4 -0.0094,-0 -0.0127,-0 -0.0029,-0 -0.005,-0 -0.0063,-0 -9.76e-4,-0 -0.0015,-0 -0.0015,-0.01 l 0,-0.4395 c 0,-0 4.88e-4,-0 0.0015,-0.01 9.77e-4,-0 0.0029,-0 0.0059,-0 0.0029,-0 0.0067,-0 0.01123,-0 0.0046,-7e-4 0.01058,-10e-4 0.01807,-10e-4 0.0072,0 0.01302,3e-4 0.01758,10e-4 0.0049,3e-4 0.0086,0 0.01123,0 0.0026,0 0.0044,0 0.0054,0 0.0013,0 0.002,0 0.002,0.01 l 0,0.058 c 0.02474,-0.028 0.04866,-0.048 0.07178,-0.061 0.02344,-0.013 0.04704,-0.019 0.0708,-0.019 0.01823,0 0.0345,0 0.04883,0.01 0.01465,0 0.02751,0.01 0.03857,0.018 0.01107,0.01 0.02051,0.017 0.02832,0.027 0.0078,0.01 0.01432,0.022 0.01953,0.035 0.01465,-0.016 0.02848,-0.03 0.0415,-0.041 0.01335,-0.011 0.02604,-0.02 0.03809,-0.027 0.01237,-0.01 0.02425,-0.012 0.03564,-0.015 0.01172,-0 0.02344,-0 0.03516,-0 0.02832,0 0.05208,0 0.07129,0.015 0.0192,0.01 0.03467,0.023 0.04639,0.04 0.01204,0.017 0.02051,0.036 0.02539,0.059 0.0052,0.022 0.0078,0.046 0.0078,0.07 l 0,0.2778"
         style=""
         id="path3884" />
      <path
         d="m 22.449219,1031.6273 c -1e-6,0.013 -0.0033,0.022 -0.0098,0.027 -0.0062,0.01 -0.01335,0.01 -0.02148,0.01 l -0.288086,0 c 0,0.024 0.0024,0.046 0.0073,0.066 0.0049,0.02 0.01302,0.036 0.02441,0.05 0.01139,0.014 0.0262,0.025 0.04443,0.032 0.01823,0.01 0.04053,0.011 0.06689,0.011 0.02083,0 0.03939,-0 0.05566,-0 0.01628,-0 0.03027,-0.01 0.04199,-0.012 0.01204,-0 0.02181,-0.01 0.0293,-0.011 0.0078,-0 0.01367,-0.01 0.01758,-0.01 0.0023,0 0.0042,7e-4 0.0059,0 0.002,10e-4 0.0034,0 0.0044,0 9.77e-4,0 0.0016,0.01 0.002,0.01 6.51e-4,0 9.77e-4,0.01 9.77e-4,0.015 0,0 -1.63e-4,0.01 -4.88e-4,0.011 -3.26e-4,0 -8.14e-4,0.01 -0.0015,0.01 -3.26e-4,0 -0.0011,0 -0.0024,0.01 -9.77e-4,0 -0.0024,0 -0.0044,0.01 -0.0016,0 -0.0068,0 -0.01563,0.01 -0.0088,0 -0.02018,0.01 -0.03418,0.012 -0.014,0 -0.03027,0.01 -0.04883,0.01 -0.01823,0 -0.03776,0 -0.05859,0 -0.03613,0 -0.06787,-0.01 -0.09521,-0.015 -0.02702,-0.01 -0.0498,-0.025 -0.06836,-0.045 -0.01855,-0.02 -0.03255,-0.045 -0.04199,-0.075 -0.0094,-0.03 -0.01416,-0.065 -0.01416,-0.1045 0,-0.038 0.0049,-0.072 0.01465,-0.1015 0.0098,-0.03 0.02376,-0.056 0.04199,-0.077 0.01855,-0.021 0.04085,-0.037 0.06689,-0.048 0.02604,-0.011 0.05518,-0.017 0.0874,-0.017 0.0345,0 0.0638,0.01 0.08789,0.017 0.02441,0.011 0.04443,0.026 0.06006,0.045 0.01562,0.018 0.02702,0.04 0.03418,0.066 0.0075,0.025 0.01123,0.052 0.01123,0.081 l 0,0.015 m -0.08105,-0.024 c 9.76e-4,-0.042 -0.0085,-0.075 -0.02832,-0.1 -0.01953,-0.024 -0.04867,-0.036 -0.0874,-0.036 -0.01986,0 -0.03727,0 -0.05225,0.011 -0.01497,0.01 -0.02751,0.017 -0.0376,0.03 -0.01009,0.012 -0.0179,0.027 -0.02344,0.043 -0.0055,0.016 -0.0086,0.033 -0.0093,0.051 l 0.238281,0"
         style=""
         id="path3886" />
      <path
         d="m 22.652832,1031.8661 c 0,0 -6.51e-4,0 -0.002,0.01 -0.0013,0 -0.0034,0 -0.0063,0 -0.0029,0 -0.007,0 -0.01221,0 -0.0052,7e-4 -0.01188,10e-4 -0.02002,10e-4 -0.0078,0 -0.01432,-3e-4 -0.01953,-10e-4 -0.0052,-6e-4 -0.0094,-0 -0.0127,-0 -0.0029,-0 -0.005,-0 -0.0063,-0 -9.76e-4,-0 -0.0015,-0 -0.0015,-0.01 l 0,-0.6524 c 0,-0 4.88e-4,-0 0.0015,-0.01 0.0013,-0 0.0034,-0 0.0063,-0 0.0033,-0 0.0075,-0 0.0127,-0 0.0052,-7e-4 0.01172,-10e-4 0.01953,-10e-4 0.0081,0 0.01481,3e-4 0.02002,10e-4 0.0052,6e-4 0.0093,0 0.01221,0 0.0029,0 0.005,0 0.0063,0 0.0013,0 0.002,0 0.002,0.01 l 0,0.6524"
         style=""
         id="path3888" />
      <path
         d="m 22.883301,1031.8661 c 0,0 -6.51e-4,0 -0.002,0.01 -0.0013,0 -0.0034,0 -0.0063,0 -0.0029,0 -0.007,0 -0.01221,0 -0.0052,7e-4 -0.01188,10e-4 -0.02002,10e-4 -0.0078,0 -0.01432,-3e-4 -0.01953,-10e-4 -0.0052,-6e-4 -0.0094,-0 -0.0127,-0 -0.0029,-0 -0.005,-0 -0.0063,-0 -9.76e-4,-0 -0.0015,-0 -0.0015,-0.01 l 0,-0.4395 c 0,-0 4.89e-4,-0 0.0015,-0.01 0.0013,-0 0.0034,-0 0.0063,-0 0.0033,-0 0.0075,-0 0.0127,-0 0.0052,-7e-4 0.01172,-10e-4 0.01953,-10e-4 0.0081,0 0.01481,3e-4 0.02002,10e-4 0.0052,6e-4 0.0093,0 0.01221,0 0.0029,0 0.005,0 0.0063,0 0.0013,0 0.002,0 0.002,0.01 l 0,0.4395 m 0.0093,-0.5879 c 0,0.019 -0.0036,0.032 -0.01074,0.039 -0.0072,0.01 -0.02034,0.01 -0.03955,0.01 -0.01888,0 -0.0319,-0 -0.03906,-0.01 -0.0068,-0.01 -0.01025,-0.02 -0.01025,-0.038 0,-0.019 0.0036,-0.032 0.01074,-0.039 0.0072,-0.01 0.02034,-0.01 0.03955,-0.01 0.01888,0 0.03174,0 0.03857,0.01 0.0072,0.01 0.01074,0.019 0.01074,0.038"
         style=""
         id="path3890" />
      <path
         d="m 23.364258,1031.8666 c -1e-6,0 -0.0013,0.01 -0.0039,0.01 -0.0026,0 -0.0062,0 -0.01074,0 -0.0046,9e-4 -0.01123,0 -0.02002,0 -0.0085,0 -0.0153,-5e-4 -0.02051,-0 -0.0049,-10e-4 -0.0085,-0 -0.01074,-0 -0.0023,-0 -0.0034,-0 -0.0034,-0.01 l 0,-0.044 c -0.01921,0.021 -0.04069,0.036 -0.06445,0.048 -0.02344,0.011 -0.04834,0.017 -0.07471,0.017 -0.02311,0 -0.04411,-0 -0.06299,-0.01 -0.01855,-0.01 -0.0345,-0.014 -0.04785,-0.026 -0.01302,-0.011 -0.02327,-0.025 -0.03076,-0.042 -0.0072,-0.017 -0.01074,-0.036 -0.01074,-0.057 0,-0.025 0.005,-0.046 0.01514,-0.064 0.01009,-0.018 0.02458,-0.033 0.04346,-0.045 0.01888,-0.012 0.04199,-0.021 0.06934,-0.027 0.02734,-0.01 0.05811,-0.01 0.09229,-0.01 l 0.06055,0 0,-0.034 c -10e-7,-0.017 -0.0018,-0.032 -0.0054,-0.045 -0.0036,-0.013 -0.0094,-0.024 -0.01758,-0.032 -0.0078,-0.01 -0.01807,-0.015 -0.03076,-0.02 -0.0127,-0 -0.02832,-0.01 -0.04687,-0.01 -0.01986,0 -0.03776,0 -0.05371,0.01 -0.01563,0 -0.02946,0.01 -0.0415,0.016 -0.01172,0.01 -0.02165,0.011 -0.02979,0.016 -0.0078,0 -0.01367,0.01 -0.01758,0.01 -0.0026,0 -0.0049,-6e-4 -0.0068,-0 -0.002,-0 -0.0037,-0 -0.0054,-0.01 -0.0013,-0 -0.0023,-0.01 -0.0029,-0.01 -6.51e-4,-0 -9.77e-4,-0.01 -9.77e-4,-0.014 0,-0.01 4.89e-4,-0.014 0.0015,-0.019 0.0013,-0 0.0041,-0.01 0.0083,-0.014 0.0046,-0 0.01221,-0.01 0.02295,-0.015 0.01074,-0.01 0.02311,-0.011 0.03711,-0.016 0.014,-0 0.0293,-0.01 0.0459,-0.012 0.0166,-0 0.03337,-0 0.05029,-0 0.03158,0 0.05843,0 0.08057,0.011 0.02213,0.01 0.04004,0.018 0.05371,0.032 0.01367,0.014 0.0236,0.031 0.02979,0.051 0.0062,0.021 0.0093,0.044 0.0093,0.072 l 0,0.2964 m -0.08008,-0.2007 -0.06885,0 c -0.02214,0 -0.04134,0 -0.05762,0.01 -0.01628,0 -0.02979,0.01 -0.04053,0.017 -0.01074,0.01 -0.01872,0.016 -0.02393,0.026 -0.0049,0.01 -0.0073,0.022 -0.0073,0.035 0,0.023 0.0072,0.041 0.02148,0.055 0.01465,0.013 0.03499,0.02 0.06104,0.02 0.02116,0 0.04069,-0.01 0.05859,-0.016 0.01823,-0.011 0.03727,-0.027 0.05713,-0.049 l 0,-0.093"
         style=""
         id="path3892" />
      <path
         d="m 23.886719,1031.6273 c -1e-6,0.013 -0.0033,0.022 -0.0098,0.027 -0.0062,0.01 -0.01335,0.01 -0.02148,0.01 l -0.288086,0 c 0,0.024 0.0024,0.046 0.0073,0.066 0.0049,0.02 0.01302,0.036 0.02441,0.05 0.01139,0.014 0.0262,0.025 0.04443,0.032 0.01823,0.01 0.04053,0.011 0.06689,0.011 0.02083,0 0.03939,-0 0.05566,-0 0.01628,-0 0.03027,-0.01 0.04199,-0.012 0.01204,-0 0.02181,-0.01 0.0293,-0.011 0.0078,-0 0.01367,-0.01 0.01758,-0.01 0.0023,0 0.0042,7e-4 0.0059,0 0.002,10e-4 0.0034,0 0.0044,0 9.77e-4,0 0.0016,0.01 0.002,0.01 6.51e-4,0 9.77e-4,0.01 9.77e-4,0.015 0,0 -1.63e-4,0.01 -4.88e-4,0.011 -3.26e-4,0 -8.14e-4,0.01 -0.0015,0.01 -3.26e-4,0 -0.0011,0 -0.0024,0.01 -9.77e-4,0 -0.0024,0 -0.0044,0.01 -0.0016,0 -0.0068,0 -0.01563,0.01 -0.0088,0 -0.02018,0.01 -0.03418,0.012 -0.014,0 -0.03027,0.01 -0.04883,0.01 -0.01823,0 -0.03776,0 -0.05859,0 -0.03613,0 -0.06787,-0.01 -0.09521,-0.015 -0.02702,-0.01 -0.0498,-0.025 -0.06836,-0.045 -0.01855,-0.02 -0.03255,-0.045 -0.04199,-0.075 -0.0094,-0.03 -0.01416,-0.065 -0.01416,-0.1045 0,-0.038 0.0049,-0.072 0.01465,-0.1015 0.0098,-0.03 0.02376,-0.056 0.04199,-0.077 0.01855,-0.021 0.04085,-0.037 0.06689,-0.048 0.02604,-0.011 0.05518,-0.017 0.0874,-0.017 0.0345,0 0.0638,0.01 0.08789,0.017 0.02441,0.011 0.04443,0.026 0.06006,0.045 0.01562,0.018 0.02702,0.04 0.03418,0.066 0.0075,0.025 0.01123,0.052 0.01123,0.081 l 0,0.015 m -0.08105,-0.024 c 9.76e-4,-0.042 -0.0085,-0.075 -0.02832,-0.1 -0.01953,-0.024 -0.04867,-0.036 -0.0874,-0.036 -0.01986,0 -0.03727,0 -0.05225,0.011 -0.01497,0.01 -0.02751,0.017 -0.0376,0.03 -0.01009,0.012 -0.0179,0.027 -0.02344,0.043 -0.0055,0.016 -0.0086,0.033 -0.0093,0.051 l 0.238281,0"
         style=""
         id="path3894" />
      <path
         d="m 24.316895,1031.8661 c -10e-7,0 -6.52e-4,0 -0.002,0.01 -0.0013,0 -0.0034,0 -0.0063,0 -0.0029,0 -0.007,0 -0.01221,0 -0.0052,7e-4 -0.01188,10e-4 -0.02002,10e-4 -0.0078,0 -0.01432,-3e-4 -0.01953,-10e-4 -0.0052,-6e-4 -0.0094,-0 -0.0127,-0 -0.0029,-0 -0.005,-0 -0.0063,-0 -9.77e-4,-0 -0.0015,-0 -0.0015,-0.01 l 0,-0.6524 c 0,-0 4.88e-4,-0 0.0015,-0.01 0.0013,-0 0.0034,-0 0.0063,-0 0.0033,-0 0.0075,-0 0.0127,-0 0.0052,-7e-4 0.01172,-10e-4 0.01953,-10e-4 0.0081,0 0.01481,3e-4 0.02002,10e-4 0.0052,6e-4 0.0093,0 0.01221,0 0.0029,0 0.005,0 0.0063,0 0.0013,0 0.002,0 0.002,0.01 l 0,0.6524"
         style=""
         id="path3896" />
      <path
         d="m 24.797852,1031.8666 c -10e-7,0 -0.0013,0.01 -0.0039,0.01 -0.0026,0 -0.0062,0 -0.01074,0 -0.0046,9e-4 -0.01123,0 -0.02002,0 -0.0085,0 -0.0153,-5e-4 -0.02051,-0 -0.0049,-10e-4 -0.0085,-0 -0.01074,-0 -0.0023,-0 -0.0034,-0 -0.0034,-0.01 l 0,-0.044 c -0.01921,0.021 -0.04069,0.036 -0.06445,0.048 -0.02344,0.011 -0.04834,0.017 -0.07471,0.017 -0.02311,0 -0.04411,-0 -0.06299,-0.01 -0.01855,-0.01 -0.0345,-0.014 -0.04785,-0.026 -0.01302,-0.011 -0.02327,-0.025 -0.03076,-0.042 -0.0072,-0.017 -0.01074,-0.036 -0.01074,-0.057 0,-0.025 0.005,-0.046 0.01514,-0.064 0.01009,-0.018 0.02458,-0.033 0.04346,-0.045 0.01888,-0.012 0.04199,-0.021 0.06934,-0.027 0.02734,-0.01 0.05811,-0.01 0.09229,-0.01 l 0.06055,0 0,-0.034 c 0,-0.017 -0.0018,-0.032 -0.0054,-0.045 -0.0036,-0.013 -0.0094,-0.024 -0.01758,-0.032 -0.0078,-0.01 -0.01807,-0.015 -0.03076,-0.02 -0.0127,-0 -0.02832,-0.01 -0.04687,-0.01 -0.01986,0 -0.03776,0 -0.05371,0.01 -0.01563,0 -0.02946,0.01 -0.0415,0.016 -0.01172,0.01 -0.02165,0.011 -0.02979,0.016 -0.0078,0 -0.01367,0.01 -0.01758,0.01 -0.0026,0 -0.0049,-6e-4 -0.0068,-0 -0.002,-0 -0.0037,-0 -0.0054,-0.01 -0.0013,-0 -0.0023,-0.01 -0.0029,-0.01 -6.51e-4,-0 -9.77e-4,-0.01 -9.77e-4,-0.014 0,-0.01 4.88e-4,-0.014 0.0015,-0.019 0.0013,-0 0.0041,-0.01 0.0083,-0.014 0.0046,-0 0.01221,-0.01 0.02295,-0.015 0.01074,-0.01 0.02311,-0.011 0.03711,-0.016 0.014,-0 0.0293,-0.01 0.0459,-0.012 0.0166,-0 0.03336,-0 0.05029,-0 0.03158,0 0.05843,0 0.08057,0.011 0.02213,0.01 0.04004,0.018 0.05371,0.032 0.01367,0.014 0.0236,0.031 0.02979,0.051 0.0062,0.021 0.0093,0.044 0.0093,0.072 l 0,0.2964 m -0.08008,-0.2007 -0.06885,0 c -0.02214,0 -0.04134,0 -0.05762,0.01 -0.01628,0 -0.02979,0.01 -0.04053,0.017 -0.01074,0.01 -0.01872,0.016 -0.02393,0.026 -0.0049,0.01 -0.0073,0.022 -0.0073,0.035 0,0.023 0.0072,0.041 0.02148,0.055 0.01465,0.013 0.03499,0.02 0.06104,0.02 0.02116,0 0.04069,-0.01 0.05859,-0.016 0.01823,-0.011 0.03727,-0.027 0.05713,-0.049 l 0,-0.093"
         style=""
         id="path3898" />
      <path
         d="m 25.349609,1031.6395 c 0,0.038 -0.0042,0.073 -0.0127,0.1035 -0.0081,0.031 -0.02034,0.057 -0.03662,0.078 -0.01595,0.021 -0.03581,0.038 -0.05957,0.049 -0.02376,0.011 -0.05094,0.017 -0.08154,0.017 -0.01302,0 -0.02507,-0 -0.03613,-0 -0.01107,-0 -0.02197,-0.01 -0.03271,-0.012 -0.01042,-0.01 -0.02083,-0.013 -0.03125,-0.021 -0.01042,-0.01 -0.02148,-0.018 -0.0332,-0.03 l 0,0.2197 c 0,0 -6.51e-4,0 -0.002,0.01 -0.0013,0 -0.0034,0 -0.0063,0 -0.0029,0 -0.007,0 -0.01221,0 -0.0052,6e-4 -0.01188,9e-4 -0.02002,9e-4 -0.0078,0 -0.01432,-3e-4 -0.01953,-9e-4 -0.0052,-7e-4 -0.0094,-0 -0.0127,-0 -0.0029,-0 -0.005,-0 -0.0063,-0 -9.76e-4,-0 -0.0015,-0 -0.0015,-0.01 l 0,-0.6138 c 0,-0 4.89e-4,-0.01 0.0015,-0.01 9.77e-4,-0 0.0029,-0 0.0059,-0 0.0029,-0 0.0067,-0 0.01123,-0 0.0046,-7e-4 0.01009,-10e-4 0.0166,-10e-4 0.0068,0 0.01237,3e-4 0.0166,10e-4 0.0046,3e-4 0.0083,0 0.01123,0 0.0029,0 0.0049,0 0.0059,0 0.0013,0 0.002,0 0.002,0.01 l 0,0.059 c 0.01335,-0.014 0.02621,-0.025 0.03857,-0.036 0.01237,-0.01 0.02474,-0.018 0.03711,-0.025 0.0127,-0.01 0.02555,-0.012 0.03857,-0.015 0.01335,-0 0.02734,-0.01 0.04199,-0.01 0.0319,0 0.05908,0.01 0.08154,0.018 0.02246,0.012 0.04069,0.029 0.05469,0.051 0.01432,0.022 0.02474,0.047 0.03125,0.075 0.0065,0.028 0.0098,0.058 0.0098,0.09 m -0.08496,0.01 c 0,-0.023 -0.0018,-0.044 -0.0054,-0.065 -0.0033,-0.021 -0.0091,-0.04 -0.01758,-0.056 -0.0081,-0.016 -0.01921,-0.029 -0.0332,-0.039 -0.014,-0.01 -0.03141,-0.015 -0.05225,-0.015 -0.01042,0 -0.02067,0 -0.03076,0 -0.01009,0 -0.02034,0.01 -0.03076,0.015 -0.01042,0.01 -0.02132,0.015 -0.03271,0.026 -0.01139,0.011 -0.02344,0.024 -0.03613,0.04 l 0,0.1748 c 0.02213,0.027 0.04313,0.048 0.06299,0.062 0.01986,0.014 0.04069,0.021 0.0625,0.021 0.02018,0 0.03743,-0 0.05176,-0.015 0.01465,-0.01 0.02637,-0.023 0.03516,-0.039 0.0091,-0.016 0.01579,-0.034 0.02002,-0.055 0.0042,-0.02 0.0063,-0.041 0.0063,-0.061"
         style=""
         id="path3900" />
      <path
         d="m 25.695312,1031.8339 c 0,0.01 -6.51e-4,0.017 -0.002,0.022 -0.0013,0.01 -0.0033,0.01 -0.0059,0.012 -0.0026,0 -0.0065,0.01 -0.01172,0.01 -0.0052,0 -0.01123,0 -0.01807,0.01 -0.0065,0 -0.01351,0 -0.021,0 -0.0075,10e-4 -0.01497,0 -0.02246,0 -0.02279,0 -0.04232,-0 -0.05859,-0.01 -0.01628,-0.01 -0.02962,-0.015 -0.04004,-0.027 -0.01042,-0.012 -0.01807,-0.028 -0.02295,-0.046 -0.0046,-0.019 -0.0068,-0.041 -0.0068,-0.066 l 0,-0.2569 -0.06152,0 c -0.0049,0 -0.0088,-0 -0.01172,-0.01 -0.0029,-0.01 -0.0044,-0.014 -0.0044,-0.025 0,-0.01 3.26e-4,-0.011 9.77e-4,-0.016 9.76e-4,-0 0.0021,-0.01 0.0034,-0.01 0.0013,-0 0.0029,-0 0.0049,-0.01 0.0023,-0 0.0047,-0 0.0073,-0 l 0.06104,0 0,-0.1045 c 0,-0 4.88e-4,-0 0.0015,-0.01 0.0013,-0 0.0034,-0 0.0063,-0 0.0033,-0 0.0075,-0 0.0127,-0 0.0052,-7e-4 0.01172,-10e-4 0.01953,-10e-4 0.0081,0 0.01481,3e-4 0.02002,10e-4 0.0052,7e-4 0.0093,0 0.01221,0 0.0029,0 0.005,0 0.0063,0 0.0013,0 0.002,0 0.002,0.01 l 0,0.1045 0.112793,0 c 0.0026,0 0.0049,7e-4 0.0068,0 0.002,10e-4 0.0036,0 0.0049,0.01 0.0016,0 0.0028,0.01 0.0034,0.01 6.51e-4,0 9.76e-4,0.01 9.76e-4,0.016 0,0.012 -0.0015,0.02 -0.0044,0.025 -0.0029,0.01 -0.0068,0.01 -0.01172,0.01 l -0.112793,0 0,0.2452 c 0,0.03 0.0044,0.053 0.01318,0.069 0.0091,0.015 0.02523,0.023 0.04834,0.023 0.0075,0 0.01416,-6e-4 0.02002,-0 0.0059,-0 0.01107,-0 0.01563,-0 0.0046,-0 0.0085,-0 0.01172,-0 0.0033,-0 0.0062,-0 0.0088,-0 0.0016,0 0.0031,5e-4 0.0044,0 0.0016,7e-4 0.0028,0 0.0034,0 9.76e-4,0 0.0018,0.01 0.0024,0.01 6.51e-4,0 9.76e-4,0.01 9.76e-4,0.015"
         style=""
         id="path3902" />
      <path
         d="m 26.20166,1031.6415 c 0,0.036 -0.0047,0.069 -0.01416,0.099 -0.0094,0.03 -0.0236,0.056 -0.04248,0.078 -0.01856,0.022 -0.04199,0.039 -0.07031,0.051 -0.028,0.012 -0.06055,0.018 -0.09766,0.018 -0.03613,0 -0.06771,-0.01 -0.09473,-0.016 -0.02669,-0.011 -0.04899,-0.026 -0.06689,-0.047 -0.0179,-0.02 -0.03125,-0.045 -0.04004,-0.075 -0.0088,-0.029 -0.01318,-0.062 -0.01318,-0.1 0,-0.036 0.0046,-0.069 0.01367,-0.099 0.0094,-0.03 0.02344,-0.056 0.04199,-0.078 0.01888,-0.022 0.04232,-0.039 0.07031,-0.051 0.02799,-0.012 0.06071,-0.018 0.09814,-0.018 0.03613,0 0.06754,0.01 0.09424,0.016 0.02702,0.011 0.04948,0.026 0.06738,0.047 0.0179,0.021 0.03125,0.045 0.04004,0.075 0.0091,0.029 0.01367,0.062 0.01367,0.099 m -0.08496,0.01 c 0,-0.024 -0.0023,-0.046 -0.0068,-0.067 -0.0042,-0.021 -0.01139,-0.04 -0.02148,-0.056 -0.01009,-0.016 -0.02376,-0.028 -0.04102,-0.038 -0.01725,-0.01 -0.03874,-0.014 -0.06445,-0.014 -0.02376,0 -0.04427,0 -0.06152,0.013 -0.01693,0.01 -0.03092,0.021 -0.04199,0.036 -0.01107,0.015 -0.01937,0.034 -0.0249,0.055 -0.0052,0.021 -0.0078,0.044 -0.0078,0.069 0,0.024 0.0021,0.047 0.0063,0.068 0.0046,0.021 0.01188,0.04 0.02197,0.056 0.01042,0.016 0.02425,0.028 0.0415,0.038 0.01725,0.01 0.03874,0.014 0.06445,0.014 0.02344,0 0.04378,-0 0.06104,-0.013 0.01725,-0.01 0.03141,-0.02 0.04248,-0.036 0.01107,-0.015 0.0192,-0.034 0.02441,-0.055 0.0052,-0.021 0.0078,-0.044 0.0078,-0.07"
         style=""
         id="path3904" />
      <path
         d="m 26.724609,1031.6395 c 0,0.038 -0.0042,0.073 -0.0127,0.1035 -0.0081,0.031 -0.02034,0.057 -0.03662,0.078 -0.01595,0.021 -0.03581,0.038 -0.05957,0.049 -0.02376,0.011 -0.05094,0.017 -0.08154,0.017 -0.01302,0 -0.02507,-0 -0.03613,-0 -0.01107,-0 -0.02197,-0.01 -0.03271,-0.012 -0.01042,-0.01 -0.02083,-0.013 -0.03125,-0.021 -0.01042,-0.01 -0.02148,-0.018 -0.0332,-0.03 l 0,0.2197 c 0,0 -6.51e-4,0 -0.002,0.01 -0.0013,0 -0.0034,0 -0.0063,0 -0.0029,0 -0.007,0 -0.01221,0 -0.0052,6e-4 -0.01188,9e-4 -0.02002,9e-4 -0.0078,0 -0.01432,-3e-4 -0.01953,-9e-4 -0.0052,-7e-4 -0.0094,-0 -0.0127,-0 -0.0029,-0 -0.005,-0 -0.0063,-0 -9.76e-4,-0 -0.0015,-0 -0.0015,-0.01 l 0,-0.6138 c 0,-0 4.89e-4,-0.01 0.0015,-0.01 9.77e-4,-0 0.0029,-0 0.0059,-0 0.0029,-0 0.0067,-0 0.01123,-0 0.0046,-7e-4 0.01009,-10e-4 0.0166,-10e-4 0.0068,0 0.01237,3e-4 0.0166,10e-4 0.0046,3e-4 0.0083,0 0.01123,0 0.0029,0 0.0049,0 0.0059,0 0.0013,0 0.002,0 0.002,0.01 l 0,0.059 c 0.01335,-0.014 0.02621,-0.025 0.03857,-0.036 0.01237,-0.01 0.02474,-0.018 0.03711,-0.025 0.0127,-0.01 0.02555,-0.012 0.03857,-0.015 0.01335,-0 0.02734,-0.01 0.04199,-0.01 0.0319,0 0.05908,0.01 0.08154,0.018 0.02246,0.012 0.04069,0.029 0.05469,0.051 0.01432,0.022 0.02474,0.047 0.03125,0.075 0.0065,0.028 0.0098,0.058 0.0098,0.09 m -0.08496,0.01 c 0,-0.023 -0.0018,-0.044 -0.0054,-0.065 -0.0033,-0.021 -0.0091,-0.04 -0.01758,-0.056 -0.0081,-0.016 -0.01921,-0.029 -0.0332,-0.039 -0.014,-0.01 -0.03141,-0.015 -0.05225,-0.015 -0.01042,0 -0.02067,0 -0.03076,0 -0.01009,0 -0.02034,0.01 -0.03076,0.015 -0.01042,0.01 -0.02132,0.015 -0.03271,0.026 -0.01139,0.011 -0.02344,0.024 -0.03613,0.04 l 0,0.1748 c 0.02213,0.027 0.04313,0.048 0.06299,0.062 0.01986,0.014 0.04069,0.021 0.0625,0.021 0.02018,0 0.03743,-0 0.05176,-0.015 0.01465,-0.01 0.02637,-0.023 0.03516,-0.039 0.0091,-0.016 0.01579,-0.034 0.02002,-0.055 0.0042,-0.02 0.0063,-0.041 0.0063,-0.061"
         style=""
         id="path3906" />
    </g>
    <g
       style="font-size:1px;font-style:normal;font-variant:normal;font-weight:normal;font-stretch:normal;fill:#141414;fill-opacity:1;stroke:none;font-family:Calibri;-inkscape-font-specification:Calibri"
       id="text3825">
      <path
         d="m 21.927246,1031.8217 c -1e-6,0 -6.52e-4,0 -0.002,0.01 -0.0013,0 -0.0034,0 -0.0063,0 -0.0029,0 -0.007,0 -0.01221,0 -0.0052,7e-4 -0.01172,10e-4 -0.01953,10e-4 -0.0081,0 -0.01481,-3e-4 -0.02002,-10e-4 -0.0052,-6e-4 -0.0094,-0 -0.0127,-0 -0.0029,-0 -0.005,-0 -0.0063,-0 -0.0013,-0 -0.002,-0 -0.002,-0.01 l 0,-0.2671 c 0,-0.019 -0.0016,-0.035 -0.0049,-0.051 -0.0033,-0.015 -0.0085,-0.028 -0.01563,-0.04 -0.0072,-0.011 -0.01628,-0.019 -0.02734,-0.025 -0.01107,-0.01 -0.02409,-0.01 -0.03906,-0.01 -0.01855,0 -0.03727,0.01 -0.05615,0.021 -0.01855,0.014 -0.03906,0.035 -0.06152,0.063 l 0,0.3072 c -10e-7,0 -6.52e-4,0 -0.002,0.01 -0.0013,0 -0.0036,0 -0.0068,0 -0.0029,0 -0.007,0 -0.01221,0 -0.0052,7e-4 -0.01172,10e-4 -0.01953,10e-4 -0.0075,0 -0.014,-3e-4 -0.01953,-10e-4 -0.0052,-6e-4 -0.0094,-0 -0.0127,-0 -0.0029,-0 -0.005,-0 -0.0063,-0 -9.77e-4,-0 -0.0015,-0 -0.0015,-0.01 l 0,-0.2671 c 0,-0.019 -0.0018,-0.035 -0.0054,-0.051 -0.0036,-0.015 -0.009,-0.028 -0.01611,-0.04 -0.0072,-0.011 -0.01628,-0.019 -0.02734,-0.025 -0.01074,-0.01 -0.0236,-0.01 -0.03857,-0.01 -0.01855,0 -0.03727,0.01 -0.05615,0.021 -0.01888,0.014 -0.03939,0.035 -0.06152,0.063 l 0,0.3072 c 0,0 -6.51e-4,0 -0.002,0.01 -0.0013,0 -0.0034,0 -0.0063,0 -0.0029,0 -0.007,0 -0.01221,0 -0.0052,7e-4 -0.01188,10e-4 -0.02002,10e-4 -0.0078,0 -0.01432,-3e-4 -0.01953,-10e-4 -0.0052,-6e-4 -0.0094,-0 -0.0127,-0 -0.0029,-0 -0.005,-0 -0.0063,-0 -9.76e-4,-0 -0.0015,-0 -0.0015,-0.01 l 0,-0.4395 c 0,-0 4.88e-4,-0 0.0015,-0.01 9.77e-4,-0 0.0029,-0 0.0059,-0 0.0029,-0 0.0067,-0 0.01123,-0 0.0046,-6e-4 0.01058,-9e-4 0.01807,-9e-4 0.0072,0 0.01302,3e-4 0.01758,9e-4 0.0049,4e-4 0.0086,0 0.01123,0 0.0026,0 0.0044,0 0.0054,0 0.0013,0 0.002,0 0.002,0.01 l 0,0.058 c 0.02474,-0.028 0.04866,-0.048 0.07178,-0.061 0.02344,-0.013 0.04704,-0.02 0.0708,-0.02 0.01823,0 0.0345,0 0.04883,0.01 0.01465,0 0.02751,0.01 0.03857,0.018 0.01107,0.01 0.02051,0.017 0.02832,0.027 0.0078,0.01 0.01432,0.022 0.01953,0.035 0.01465,-0.016 0.02848,-0.029 0.0415,-0.041 0.01335,-0.011 0.02604,-0.02 0.03809,-0.027 0.01237,-0.01 0.02425,-0.012 0.03564,-0.015 0.01172,-0 0.02344,-0 0.03516,-0 0.02832,0 0.05208,0.01 0.07129,0.015 0.0192,0.01 0.03467,0.023 0.04639,0.04 0.01204,0.017 0.02051,0.036 0.02539,0.059 0.0052,0.022 0.0078,0.046 0.0078,0.07 l 0,0.2779"
         style=""
         id="path3859" />
      <path
         d="m 22.449219,1031.5829 c -1e-6,0.013 -0.0033,0.022 -0.0098,0.027 -0.0062,0.01 -0.01335,0.01 -0.02148,0.01 l -0.288086,0 c 0,0.024 0.0024,0.046 0.0073,0.066 0.0049,0.02 0.01302,0.036 0.02441,0.05 0.01139,0.014 0.0262,0.025 0.04443,0.032 0.01823,0.01 0.04053,0.011 0.06689,0.011 0.02083,0 0.03939,-0 0.05566,-0 0.01628,-0 0.03027,-0.01 0.04199,-0.012 0.01204,-0 0.02181,-0.01 0.0293,-0.011 0.0078,-0 0.01367,-0.01 0.01758,-0.01 0.0023,0 0.0042,7e-4 0.0059,0 0.002,9e-4 0.0034,0 0.0044,0 9.77e-4,0 0.0016,0.01 0.002,0.01 6.51e-4,0 9.77e-4,0.01 9.77e-4,0.015 0,0 -1.63e-4,0.01 -4.88e-4,0.011 -3.26e-4,0 -8.14e-4,0.01 -0.0015,0.01 -3.26e-4,0 -0.0011,0 -0.0024,0.01 -9.77e-4,0 -0.0024,0 -0.0044,0.01 -0.0016,0 -0.0068,0 -0.01563,0.01 -0.0088,0 -0.02018,0.01 -0.03418,0.012 -0.014,0 -0.03027,0.01 -0.04883,0.01 -0.01823,0 -0.03776,0 -0.05859,0 -0.03613,0 -0.06787,-0.01 -0.09521,-0.015 -0.02702,-0.01 -0.0498,-0.025 -0.06836,-0.045 -0.01855,-0.02 -0.03255,-0.045 -0.04199,-0.075 -0.0094,-0.03 -0.01416,-0.065 -0.01416,-0.1045 0,-0.038 0.0049,-0.072 0.01465,-0.1016 0.0098,-0.03 0.02376,-0.056 0.04199,-0.077 0.01855,-0.021 0.04085,-0.037 0.06689,-0.048 0.02604,-0.011 0.05518,-0.017 0.0874,-0.017 0.0345,0 0.0638,0.01 0.08789,0.017 0.02441,0.011 0.04443,0.026 0.06006,0.045 0.01562,0.018 0.02702,0.04 0.03418,0.066 0.0075,0.025 0.01123,0.052 0.01123,0.081 l 0,0.015 m -0.08105,-0.024 c 9.76e-4,-0.042 -0.0085,-0.076 -0.02832,-0.1 -0.01953,-0.024 -0.04867,-0.036 -0.0874,-0.036 -0.01986,0 -0.03727,0 -0.05225,0.011 -0.01497,0.01 -0.02751,0.017 -0.0376,0.03 -0.01009,0.012 -0.0179,0.027 -0.02344,0.044 -0.0055,0.016 -0.0086,0.033 -0.0093,0.051 l 0.238281,0"
         style=""
         id="path3861" />
      <path
         d="m 22.652832,1031.8217 c 0,0 -6.51e-4,0 -0.002,0.01 -0.0013,0 -0.0034,0 -0.0063,0 -0.0029,0 -0.007,0 -0.01221,0 -0.0052,7e-4 -0.01188,10e-4 -0.02002,10e-4 -0.0078,0 -0.01432,-3e-4 -0.01953,-10e-4 -0.0052,-6e-4 -0.0094,-0 -0.0127,-0 -0.0029,-0 -0.005,-0 -0.0063,-0 -9.76e-4,-0 -0.0015,-0 -0.0015,-0.01 l 0,-0.6524 c 0,-0 4.88e-4,-0 0.0015,-0.01 0.0013,-0 0.0034,-0 0.0063,-0 0.0033,-0 0.0075,-0 0.0127,-0 0.0052,-7e-4 0.01172,-10e-4 0.01953,-10e-4 0.0081,0 0.01481,3e-4 0.02002,10e-4 0.0052,6e-4 0.0093,0 0.01221,0 0.0029,0 0.005,0 0.0063,0 0.0013,0 0.002,0 0.002,0.01 l 0,0.6524"
         style=""
         id="path3863" />
      <path
         d="m 22.883301,1031.8217 c 0,0 -6.51e-4,0 -0.002,0.01 -0.0013,0 -0.0034,0 -0.0063,0 -0.0029,0 -0.007,0 -0.01221,0 -0.0052,7e-4 -0.01188,10e-4 -0.02002,10e-4 -0.0078,0 -0.01432,-3e-4 -0.01953,-10e-4 -0.0052,-6e-4 -0.0094,-0 -0.0127,-0 -0.0029,-0 -0.005,-0 -0.0063,-0 -9.76e-4,-0 -0.0015,-0 -0.0015,-0.01 l 0,-0.4395 c 0,-0 4.89e-4,-0 0.0015,-0.01 0.0013,-0 0.0034,-0 0.0063,-0 0.0033,-0 0.0075,-0 0.0127,-0 0.0052,-6e-4 0.01172,-9e-4 0.01953,-9e-4 0.0081,0 0.01481,3e-4 0.02002,9e-4 0.0052,7e-4 0.0093,0 0.01221,0 0.0029,0 0.005,0 0.0063,0 0.0013,0 0.002,0 0.002,0.01 l 0,0.4395 m 0.0093,-0.5879 c 0,0.019 -0.0036,0.032 -0.01074,0.039 -0.0072,0.01 -0.02034,0.01 -0.03955,0.01 -0.01888,0 -0.0319,-0 -0.03906,-0.01 -0.0068,-0.01 -0.01025,-0.019 -0.01025,-0.038 0,-0.019 0.0036,-0.032 0.01074,-0.038 0.0072,-0.01 0.02034,-0.01 0.03955,-0.01 0.01888,0 0.03174,0 0.03857,0.01 0.0072,0.01 0.01074,0.019 0.01074,0.038"
         style=""
         id="path3865" />
      <path
         d="m 23.364258,1031.8221 c -1e-6,0 -0.0013,0.01 -0.0039,0.01 -0.0026,0 -0.0062,0 -0.01074,0 -0.0046,10e-4 -0.01123,0 -0.02002,0 -0.0085,0 -0.0153,-5e-4 -0.02051,-0 -0.0049,-9e-4 -0.0085,-0 -0.01074,-0 -0.0023,-0 -0.0034,-0 -0.0034,-0.01 l 0,-0.044 c -0.01921,0.021 -0.04069,0.036 -0.06445,0.048 -0.02344,0.011 -0.04834,0.017 -0.07471,0.017 -0.02311,0 -0.04411,-0 -0.06299,-0.01 -0.01855,-0.01 -0.0345,-0.014 -0.04785,-0.026 -0.01302,-0.011 -0.02327,-0.025 -0.03076,-0.042 -0.0072,-0.017 -0.01074,-0.036 -0.01074,-0.057 0,-0.025 0.005,-0.046 0.01514,-0.064 0.01009,-0.018 0.02458,-0.033 0.04346,-0.045 0.01888,-0.012 0.04199,-0.021 0.06934,-0.027 0.02734,-0.01 0.05811,-0.01 0.09229,-0.01 l 0.06055,0 0,-0.034 c -10e-7,-0.017 -0.0018,-0.032 -0.0054,-0.045 -0.0036,-0.013 -0.0094,-0.024 -0.01758,-0.032 -0.0078,-0.01 -0.01807,-0.015 -0.03076,-0.02 -0.0127,-0 -0.02832,-0.01 -0.04687,-0.01 -0.01986,0 -0.03776,0 -0.05371,0.01 -0.01563,0 -0.02946,0.01 -0.0415,0.016 -0.01172,0.01 -0.02165,0.011 -0.02979,0.016 -0.0078,0 -0.01367,0.01 -0.01758,0.01 -0.0026,0 -0.0049,-7e-4 -0.0068,-0 -0.002,-0 -0.0037,-0 -0.0054,-0.01 -0.0013,-0 -0.0023,-0.01 -0.0029,-0.01 -6.51e-4,-0 -9.77e-4,-0.01 -9.77e-4,-0.014 0,-0.01 4.89e-4,-0.014 0.0015,-0.019 0.0013,-0 0.0041,-0.01 0.0083,-0.014 0.0046,-0 0.01221,-0.01 0.02295,-0.015 0.01074,-0.01 0.02311,-0.011 0.03711,-0.016 0.014,-0 0.0293,-0.01 0.0459,-0.012 0.0166,-0 0.03337,-0 0.05029,-0 0.03158,0 0.05843,0 0.08057,0.011 0.02213,0.01 0.04004,0.018 0.05371,0.032 0.01367,0.014 0.0236,0.031 0.02979,0.051 0.0062,0.021 0.0093,0.044 0.0093,0.072 l 0,0.2963 m -0.08008,-0.2006 -0.06885,0 c -0.02214,0 -0.04134,0 -0.05762,0.01 -0.01628,0 -0.02979,0.01 -0.04053,0.017 -0.01074,0.01 -0.01872,0.016 -0.02393,0.026 -0.0049,0.01 -0.0073,0.022 -0.0073,0.035 0,0.023 0.0072,0.041 0.02148,0.055 0.01465,0.013 0.03499,0.02 0.06104,0.02 0.02116,0 0.04069,-0.01 0.05859,-0.016 0.01823,-0.011 0.03727,-0.027 0.05713,-0.049 l 0,-0.093"
         style=""
         id="path3867" />
      <path
         d="m 23.886719,1031.5829 c -1e-6,0.013 -0.0033,0.022 -0.0098,0.027 -0.0062,0.01 -0.01335,0.01 -0.02148,0.01 l -0.288086,0 c 0,0.024 0.0024,0.046 0.0073,0.066 0.0049,0.02 0.01302,0.036 0.02441,0.05 0.01139,0.014 0.0262,0.025 0.04443,0.032 0.01823,0.01 0.04053,0.011 0.06689,0.011 0.02083,0 0.03939,-0 0.05566,-0 0.01628,-0 0.03027,-0.01 0.04199,-0.012 0.01204,-0 0.02181,-0.01 0.0293,-0.011 0.0078,-0 0.01367,-0.01 0.01758,-0.01 0.0023,0 0.0042,7e-4 0.0059,0 0.002,9e-4 0.0034,0 0.0044,0 9.77e-4,0 0.0016,0.01 0.002,0.01 6.51e-4,0 9.77e-4,0.01 9.77e-4,0.015 0,0 -1.63e-4,0.01 -4.88e-4,0.011 -3.26e-4,0 -8.14e-4,0.01 -0.0015,0.01 -3.26e-4,0 -0.0011,0 -0.0024,0.01 -9.77e-4,0 -0.0024,0 -0.0044,0.01 -0.0016,0 -0.0068,0 -0.01563,0.01 -0.0088,0 -0.02018,0.01 -0.03418,0.012 -0.014,0 -0.03027,0.01 -0.04883,0.01 -0.01823,0 -0.03776,0 -0.05859,0 -0.03613,0 -0.06787,-0.01 -0.09521,-0.015 -0.02702,-0.01 -0.0498,-0.025 -0.06836,-0.045 -0.01855,-0.02 -0.03255,-0.045 -0.04199,-0.075 -0.0094,-0.03 -0.01416,-0.065 -0.01416,-0.1045 0,-0.038 0.0049,-0.072 0.01465,-0.1016 0.0098,-0.03 0.02376,-0.056 0.04199,-0.077 0.01855,-0.021 0.04085,-0.037 0.06689,-0.048 0.02604,-0.011 0.05518,-0.017 0.0874,-0.017 0.0345,0 0.0638,0.01 0.08789,0.017 0.02441,0.011 0.04443,0.026 0.06006,0.045 0.01562,0.018 0.02702,0.04 0.03418,0.066 0.0075,0.025 0.01123,0.052 0.01123,0.081 l 0,0.015 m -0.08105,-0.024 c 9.76e-4,-0.042 -0.0085,-0.076 -0.02832,-0.1 -0.01953,-0.024 -0.04867,-0.036 -0.0874,-0.036 -0.01986,0 -0.03727,0 -0.05225,0.011 -0.01497,0.01 -0.02751,0.017 -0.0376,0.03 -0.01009,0.012 -0.0179,0.027 -0.02344,0.044 -0.0055,0.016 -0.0086,0.033 -0.0093,0.051 l 0.238281,0"
         style=""
         id="path3869" />
      <path
         d="m 24.316895,1031.8217 c -10e-7,0 -6.52e-4,0 -0.002,0.01 -0.0013,0 -0.0034,0 -0.0063,0 -0.0029,0 -0.007,0 -0.01221,0 -0.0052,7e-4 -0.01188,10e-4 -0.02002,10e-4 -0.0078,0 -0.01432,-3e-4 -0.01953,-10e-4 -0.0052,-6e-4 -0.0094,-0 -0.0127,-0 -0.0029,-0 -0.005,-0 -0.0063,-0 -9.77e-4,-0 -0.0015,-0 -0.0015,-0.01 l 0,-0.6524 c 0,-0 4.88e-4,-0 0.0015,-0.01 0.0013,-0 0.0034,-0 0.0063,-0 0.0033,-0 0.0075,-0 0.0127,-0 0.0052,-7e-4 0.01172,-10e-4 0.01953,-10e-4 0.0081,0 0.01481,3e-4 0.02002,10e-4 0.0052,6e-4 0.0093,0 0.01221,0 0.0029,0 0.005,0 0.0063,0 0.0013,0 0.002,0 0.002,0.01 l 0,0.6524"
         style=""
         id="path3871" />
      <path
         d="m 24.797852,1031.8221 c -10e-7,0 -0.0013,0.01 -0.0039,0.01 -0.0026,0 -0.0062,0 -0.01074,0 -0.0046,10e-4 -0.01123,0 -0.02002,0 -0.0085,0 -0.0153,-5e-4 -0.02051,-0 -0.0049,-9e-4 -0.0085,-0 -0.01074,-0 -0.0023,-0 -0.0034,-0 -0.0034,-0.01 l 0,-0.044 c -0.01921,0.021 -0.04069,0.036 -0.06445,0.048 -0.02344,0.011 -0.04834,0.017 -0.07471,0.017 -0.02311,0 -0.04411,-0 -0.06299,-0.01 -0.01855,-0.01 -0.0345,-0.014 -0.04785,-0.026 -0.01302,-0.011 -0.02327,-0.025 -0.03076,-0.042 -0.0072,-0.017 -0.01074,-0.036 -0.01074,-0.057 0,-0.025 0.005,-0.046 0.01514,-0.064 0.01009,-0.018 0.02458,-0.033 0.04346,-0.045 0.01888,-0.012 0.04199,-0.021 0.06934,-0.027 0.02734,-0.01 0.05811,-0.01 0.09229,-0.01 l 0.06055,0 0,-0.034 c 0,-0.017 -0.0018,-0.032 -0.0054,-0.045 -0.0036,-0.013 -0.0094,-0.024 -0.01758,-0.032 -0.0078,-0.01 -0.01807,-0.015 -0.03076,-0.02 -0.0127,-0 -0.02832,-0.01 -0.04687,-0.01 -0.01986,0 -0.03776,0 -0.05371,0.01 -0.01563,0 -0.02946,0.01 -0.0415,0.016 -0.01172,0.01 -0.02165,0.011 -0.02979,0.016 -0.0078,0 -0.01367,0.01 -0.01758,0.01 -0.0026,0 -0.0049,-7e-4 -0.0068,-0 -0.002,-0 -0.0037,-0 -0.0054,-0.01 -0.0013,-0 -0.0023,-0.01 -0.0029,-0.01 -6.51e-4,-0 -9.77e-4,-0.01 -9.77e-4,-0.014 0,-0.01 4.88e-4,-0.014 0.0015,-0.019 0.0013,-0 0.0041,-0.01 0.0083,-0.014 0.0046,-0 0.01221,-0.01 0.02295,-0.015 0.01074,-0.01 0.02311,-0.011 0.03711,-0.016 0.014,-0 0.0293,-0.01 0.0459,-0.012 0.0166,-0 0.03336,-0 0.05029,-0 0.03158,0 0.05843,0 0.08057,0.011 0.02213,0.01 0.04004,0.018 0.05371,0.032 0.01367,0.014 0.0236,0.031 0.02979,0.051 0.0062,0.021 0.0093,0.044 0.0093,0.072 l 0,0.2963 m -0.08008,-0.2006 -0.06885,0 c -0.02214,0 -0.04134,0 -0.05762,0.01 -0.01628,0 -0.02979,0.01 -0.04053,0.017 -0.01074,0.01 -0.01872,0.016 -0.02393,0.026 -0.0049,0.01 -0.0073,0.022 -0.0073,0.035 0,0.023 0.0072,0.041 0.02148,0.055 0.01465,0.013 0.03499,0.02 0.06104,0.02 0.02116,0 0.04069,-0.01 0.05859,-0.016 0.01823,-0.011 0.03727,-0.027 0.05713,-0.049 l 0,-0.093"
         style=""
         id="path3873" />
      <path
         d="m 25.349609,1031.5951 c 0,0.038 -0.0042,0.073 -0.0127,0.1035 -0.0081,0.031 -0.02034,0.057 -0.03662,0.078 -0.01595,0.021 -0.03581,0.038 -0.05957,0.049 -0.02376,0.011 -0.05094,0.017 -0.08154,0.017 -0.01302,0 -0.02507,-0 -0.03613,-0 -0.01107,-0 -0.02197,-0.01 -0.03271,-0.012 -0.01042,-0.01 -0.02083,-0.013 -0.03125,-0.021 -0.01042,-0.01 -0.02148,-0.018 -0.0332,-0.03 l 0,0.2198 c 0,0 -6.51e-4,0 -0.002,0.01 -0.0013,0 -0.0034,0 -0.0063,0 -0.0029,0 -0.007,0 -0.01221,0 -0.0052,7e-4 -0.01188,10e-4 -0.02002,10e-4 -0.0078,0 -0.01432,-3e-4 -0.01953,-10e-4 -0.0052,-6e-4 -0.0094,-0 -0.0127,-0 -0.0029,-0 -0.005,-0 -0.0063,-0 -9.76e-4,-0 -0.0015,-0 -0.0015,-0.01 l 0,-0.6138 c 0,-0 4.89e-4,-0.01 0.0015,-0.01 9.77e-4,-0 0.0029,-0 0.0059,-0 0.0029,-0 0.0067,-0 0.01123,-0 0.0046,-6e-4 0.01009,-9e-4 0.0166,-9e-4 0.0068,0 0.01237,3e-4 0.0166,9e-4 0.0046,4e-4 0.0083,0 0.01123,0 0.0029,0 0.0049,0 0.0059,0 0.0013,0 0.002,0 0.002,0.01 l 0,0.059 c 0.01335,-0.014 0.02621,-0.026 0.03857,-0.036 0.01237,-0.01 0.02474,-0.018 0.03711,-0.025 0.0127,-0.01 0.02555,-0.012 0.03857,-0.015 0.01335,-0 0.02734,-0.01 0.04199,-0.01 0.0319,0 0.05908,0.01 0.08154,0.019 0.02246,0.012 0.04069,0.029 0.05469,0.051 0.01432,0.022 0.02474,0.047 0.03125,0.075 0.0065,0.028 0.0098,0.058 0.0098,0.09 m -0.08496,0.01 c 0,-0.023 -0.0018,-0.044 -0.0054,-0.065 -0.0033,-0.021 -0.0091,-0.04 -0.01758,-0.056 -0.0081,-0.016 -0.01921,-0.029 -0.0332,-0.039 -0.014,-0.01 -0.03141,-0.015 -0.05225,-0.015 -0.01042,0 -0.02067,0 -0.03076,0 -0.01009,0 -0.02034,0.01 -0.03076,0.015 -0.01042,0.01 -0.02132,0.015 -0.03271,0.026 -0.01139,0.011 -0.02344,0.024 -0.03613,0.04 l 0,0.1748 c 0.02213,0.027 0.04313,0.048 0.06299,0.062 0.01986,0.014 0.04069,0.021 0.0625,0.021 0.02018,0 0.03743,-0 0.05176,-0.015 0.01465,-0.01 0.02637,-0.023 0.03516,-0.039 0.0091,-0.016 0.01579,-0.034 0.02002,-0.055 0.0042,-0.02 0.0063,-0.041 0.0063,-0.061"
         style=""
         id="path3875" />
      <path
         d="m 25.695312,1031.7894 c 0,0.01 -6.51e-4,0.017 -0.002,0.023 -0.0013,0.01 -0.0033,0.01 -0.0059,0.012 -0.0026,0 -0.0065,0 -0.01172,0.01 -0.0052,0 -0.01123,0 -0.01807,0.01 -0.0065,0 -0.01351,0 -0.021,0 -0.0075,10e-4 -0.01497,0 -0.02246,0 -0.02279,0 -0.04232,-0 -0.05859,-0.01 -0.01628,-0.01 -0.02962,-0.015 -0.04004,-0.027 -0.01042,-0.012 -0.01807,-0.028 -0.02295,-0.046 -0.0046,-0.019 -0.0068,-0.041 -0.0068,-0.066 l 0,-0.2568 -0.06152,0 c -0.0049,0 -0.0088,-0 -0.01172,-0.01 -0.0029,-0.01 -0.0044,-0.014 -0.0044,-0.025 0,-0.01 3.26e-4,-0.011 9.77e-4,-0.016 9.76e-4,-0 0.0021,-0.01 0.0034,-0.01 0.0013,-0 0.0029,-0 0.0049,-0.01 0.0023,-0 0.0047,-0 0.0073,-0 l 0.06104,0 0,-0.1045 c 0,-0 4.88e-4,-0 0.0015,-0.01 0.0013,-0 0.0034,-0 0.0063,-0 0.0033,-0 0.0075,-0 0.0127,-0 0.0052,-7e-4 0.01172,-10e-4 0.01953,-10e-4 0.0081,0 0.01481,3e-4 0.02002,10e-4 0.0052,6e-4 0.0093,0 0.01221,0 0.0029,0 0.005,0 0.0063,0 0.0013,0 0.002,0 0.002,0.01 l 0,0.1045 0.112793,0 c 0.0026,0 0.0049,7e-4 0.0068,0 0.002,9e-4 0.0036,0 0.0049,0.01 0.0016,0 0.0028,0.01 0.0034,0.01 6.51e-4,0 9.76e-4,0.01 9.76e-4,0.016 0,0.012 -0.0015,0.02 -0.0044,0.025 -0.0029,0.01 -0.0068,0.01 -0.01172,0.01 l -0.112793,0 0,0.2451 c 0,0.03 0.0044,0.053 0.01318,0.069 0.0091,0.015 0.02523,0.023 0.04834,0.023 0.0075,0 0.01416,-6e-4 0.02002,-0 0.0059,-0 0.01107,-0 0.01563,-0 0.0046,-0 0.0085,-0 0.01172,-0 0.0033,-0 0.0062,-0 0.0088,-0 0.0016,0 0.0031,5e-4 0.0044,0 0.0016,7e-4 0.0028,0 0.0034,0 9.76e-4,0 0.0018,0.01 0.0024,0.01 6.51e-4,0 9.76e-4,0.01 9.76e-4,0.015"
         style=""
         id="path3877" />
      <path
         d="m 26.20166,1031.597 c 0,0.036 -0.0047,0.069 -0.01416,0.099 -0.0094,0.03 -0.0236,0.056 -0.04248,0.078 -0.01856,0.022 -0.04199,0.039 -0.07031,0.051 -0.028,0.012 -0.06055,0.018 -0.09766,0.018 -0.03613,0 -0.06771,-0.01 -0.09473,-0.016 -0.02669,-0.011 -0.04899,-0.026 -0.06689,-0.047 -0.0179,-0.021 -0.03125,-0.045 -0.04004,-0.075 -0.0088,-0.029 -0.01318,-0.062 -0.01318,-0.1 0,-0.036 0.0046,-0.069 0.01367,-0.099 0.0094,-0.03 0.02344,-0.056 0.04199,-0.078 0.01888,-0.022 0.04232,-0.039 0.07031,-0.051 0.02799,-0.012 0.06071,-0.018 0.09814,-0.018 0.03613,0 0.06754,0.01 0.09424,0.016 0.02702,0.011 0.04948,0.026 0.06738,0.047 0.0179,0.021 0.03125,0.045 0.04004,0.075 0.0091,0.029 0.01367,0.062 0.01367,0.099 m -0.08496,0.01 c 0,-0.024 -0.0023,-0.046 -0.0068,-0.067 -0.0042,-0.021 -0.01139,-0.04 -0.02148,-0.056 -0.01009,-0.016 -0.02376,-0.028 -0.04102,-0.038 -0.01725,-0.01 -0.03874,-0.014 -0.06445,-0.014 -0.02376,0 -0.04427,0 -0.06152,0.013 -0.01693,0.01 -0.03092,0.021 -0.04199,0.036 -0.01107,0.015 -0.01937,0.034 -0.0249,0.055 -0.0052,0.021 -0.0078,0.044 -0.0078,0.069 0,0.024 0.0021,0.047 0.0063,0.068 0.0046,0.021 0.01188,0.04 0.02197,0.056 0.01042,0.016 0.02425,0.028 0.0415,0.038 0.01725,0.01 0.03874,0.014 0.06445,0.014 0.02344,0 0.04378,-0 0.06104,-0.013 0.01725,-0.01 0.03141,-0.02 0.04248,-0.036 0.01107,-0.015 0.0192,-0.033 0.02441,-0.055 0.0052,-0.021 0.0078,-0.044 0.0078,-0.07"
         style=""
         id="path3879" />
      <path
         d="m 26.724609,1031.5951 c 0,0.038 -0.0042,0.073 -0.0127,0.1035 -0.0081,0.031 -0.02034,0.057 -0.03662,0.078 -0.01595,0.021 -0.03581,0.038 -0.05957,0.049 -0.02376,0.011 -0.05094,0.017 -0.08154,0.017 -0.01302,0 -0.02507,-0 -0.03613,-0 -0.01107,-0 -0.02197,-0.01 -0.03271,-0.012 -0.01042,-0.01 -0.02083,-0.013 -0.03125,-0.021 -0.01042,-0.01 -0.02148,-0.018 -0.0332,-0.03 l 0,0.2198 c 0,0 -6.51e-4,0 -0.002,0.01 -0.0013,0 -0.0034,0 -0.0063,0 -0.0029,0 -0.007,0 -0.01221,0 -0.0052,7e-4 -0.01188,10e-4 -0.02002,10e-4 -0.0078,0 -0.01432,-3e-4 -0.01953,-10e-4 -0.0052,-6e-4 -0.0094,-0 -0.0127,-0 -0.0029,-0 -0.005,-0 -0.0063,-0 -9.76e-4,-0 -0.0015,-0 -0.0015,-0.01 l 0,-0.6138 c 0,-0 4.89e-4,-0.01 0.0015,-0.01 9.77e-4,-0 0.0029,-0 0.0059,-0 0.0029,-0 0.0067,-0 0.01123,-0 0.0046,-6e-4 0.01009,-9e-4 0.0166,-9e-4 0.0068,0 0.01237,3e-4 0.0166,9e-4 0.0046,4e-4 0.0083,0 0.01123,0 0.0029,0 0.0049,0 0.0059,0 0.0013,0 0.002,0 0.002,0.01 l 0,0.059 c 0.01335,-0.014 0.02621,-0.026 0.03857,-0.036 0.01237,-0.01 0.02474,-0.018 0.03711,-0.025 0.0127,-0.01 0.02555,-0.012 0.03857,-0.015 0.01335,-0 0.02734,-0.01 0.04199,-0.01 0.0319,0 0.05908,0.01 0.08154,0.019 0.02246,0.012 0.04069,0.029 0.05469,0.051 0.01432,0.022 0.02474,0.047 0.03125,0.075 0.0065,0.028 0.0098,0.058 0.0098,0.09 m -0.08496,0.01 c 0,-0.023 -0.0018,-0.044 -0.0054,-0.065 -0.0033,-0.021 -0.0091,-0.04 -0.01758,-0.056 -0.0081,-0.016 -0.01921,-0.029 -0.0332,-0.039 -0.014,-0.01 -0.03141,-0.015 -0.05225,-0.015 -0.01042,0 -0.02067,0 -0.03076,0 -0.01009,0 -0.02034,0.01 -0.03076,0.015 -0.01042,0.01 -0.02132,0.015 -0.03271,0.026 -0.01139,0.011 -0.02344,0.024 -0.03613,0.04 l 0,0.1748 c 0.02213,0.027 0.04313,0.048 0.06299,0.062 0.01986,0.014 0.04069,0.021 0.0625,0.021 0.02018,0 0.03743,-0 0.05176,-0.015 0.01465,-0.01 0.02637,-0.023 0.03516,-0.039 0.0091,-0.016 0.01579,-0.034 0.02002,-0.055 0.0042,-0.02 0.0063,-0.041 0.0063,-0.061"
         style=""
         id="path3881" />
    </g>
    <g
       style="font-size:1px;font-style:normal;font-variant:normal;font-weight:normal;font-stretch:normal;fill:#505050;fill-opacity:1;stroke:none;font-family:Calibri;-inkscape-font-specification:Calibri"
       id="text3821">
      <path
         d="m 21.927246,1031.8439 c -1e-6,0 -6.52e-4,0 -0.002,0.01 -0.0013,0 -0.0034,0 -0.0063,0 -0.0029,0 -0.007,0 -0.01221,0 -0.0052,7e-4 -0.01172,10e-4 -0.01953,10e-4 -0.0081,0 -0.01481,-3e-4 -0.02002,-10e-4 -0.0052,-6e-4 -0.0094,-0 -0.0127,-0 -0.0029,-0 -0.005,-0 -0.0063,-0 -0.0013,-0 -0.002,-0 -0.002,-0.01 l 0,-0.2671 c 0,-0.019 -0.0016,-0.035 -0.0049,-0.051 -0.0033,-0.015 -0.0085,-0.029 -0.01563,-0.04 -0.0072,-0.011 -0.01628,-0.02 -0.02734,-0.025 -0.01107,-0.01 -0.02409,-0.01 -0.03906,-0.01 -0.01855,0 -0.03727,0.01 -0.05615,0.022 -0.01855,0.014 -0.03906,0.035 -0.06152,0.063 l 0,0.3072 c -10e-7,0 -6.52e-4,0 -0.002,0.01 -0.0013,0 -0.0036,0 -0.0068,0 -0.0029,0 -0.007,0 -0.01221,0 -0.0052,7e-4 -0.01172,10e-4 -0.01953,10e-4 -0.0075,0 -0.014,-3e-4 -0.01953,-10e-4 -0.0052,-6e-4 -0.0094,-0 -0.0127,-0 -0.0029,-0 -0.005,-0 -0.0063,-0 -9.77e-4,-0 -0.0015,-0 -0.0015,-0.01 l 0,-0.2671 c 0,-0.019 -0.0018,-0.035 -0.0054,-0.051 -0.0036,-0.015 -0.009,-0.029 -0.01611,-0.04 -0.0072,-0.011 -0.01628,-0.02 -0.02734,-0.025 -0.01074,-0.01 -0.0236,-0.01 -0.03857,-0.01 -0.01855,0 -0.03727,0.01 -0.05615,0.022 -0.01888,0.014 -0.03939,0.035 -0.06152,0.063 l 0,0.3072 c 0,0 -6.51e-4,0 -0.002,0.01 -0.0013,0 -0.0034,0 -0.0063,0 -0.0029,0 -0.007,0 -0.01221,0 -0.0052,7e-4 -0.01188,10e-4 -0.02002,10e-4 -0.0078,0 -0.01432,-3e-4 -0.01953,-10e-4 -0.0052,-6e-4 -0.0094,-0 -0.0127,-0 -0.0029,-0 -0.005,-0 -0.0063,-0 -9.76e-4,-0 -0.0015,-0 -0.0015,-0.01 l 0,-0.4395 c 0,-0 4.88e-4,-0 0.0015,-0.01 9.77e-4,-0 0.0029,-0 0.0059,-0 0.0029,-0 0.0067,-0 0.01123,-0 0.0046,-7e-4 0.01058,-10e-4 0.01807,-10e-4 0.0072,0 0.01302,3e-4 0.01758,10e-4 0.0049,3e-4 0.0086,0 0.01123,0 0.0026,0 0.0044,0 0.0054,0 0.0013,0 0.002,0 0.002,0.01 l 0,0.058 c 0.02474,-0.028 0.04866,-0.048 0.07178,-0.061 0.02344,-0.013 0.04704,-0.02 0.0708,-0.02 0.01823,0 0.0345,0 0.04883,0.01 0.01465,0 0.02751,0.01 0.03857,0.018 0.01107,0.01 0.02051,0.017 0.02832,0.027 0.0078,0.01 0.01432,0.022 0.01953,0.035 0.01465,-0.016 0.02848,-0.029 0.0415,-0.041 0.01335,-0.011 0.02604,-0.02 0.03809,-0.027 0.01237,-0.01 0.02425,-0.012 0.03564,-0.015 0.01172,-0 0.02344,-0 0.03516,-0 0.02832,0 0.05208,0.01 0.07129,0.015 0.0192,0.01 0.03467,0.023 0.04639,0.04 0.01204,0.017 0.02051,0.036 0.02539,0.059 0.0052,0.022 0.0078,0.046 0.0078,0.07 l 0,0.2779"
         style=""
         id="path3834" />
      <path
         d="m 22.449219,1031.6051 c -1e-6,0.013 -0.0033,0.022 -0.0098,0.027 -0.0062,0.01 -0.01335,0.01 -0.02148,0.01 l -0.288086,0 c 0,0.024 0.0024,0.046 0.0073,0.066 0.0049,0.019 0.01302,0.036 0.02441,0.05 0.01139,0.014 0.0262,0.025 0.04443,0.032 0.01823,0.01 0.04053,0.011 0.06689,0.011 0.02083,0 0.03939,-0 0.05566,-0 0.01628,-0 0.03027,-0.01 0.04199,-0.012 0.01204,-0 0.02181,-0.01 0.0293,-0.011 0.0078,-0 0.01367,-0.01 0.01758,-0.01 0.0023,0 0.0042,7e-4 0.0059,0 0.002,10e-4 0.0034,0 0.0044,0 9.77e-4,0 0.0016,0.01 0.002,0.01 6.51e-4,0 9.77e-4,0.01 9.77e-4,0.015 0,0 -1.63e-4,0.01 -4.88e-4,0.011 -3.26e-4,0 -8.14e-4,0.01 -0.0015,0.01 -3.26e-4,0 -0.0011,0 -0.0024,0.01 -9.77e-4,0 -0.0024,0 -0.0044,0.01 -0.0016,0 -0.0068,0 -0.01563,0.01 -0.0088,0 -0.02018,0.01 -0.03418,0.012 -0.014,0 -0.03027,0.01 -0.04883,0.01 -0.01823,0 -0.03776,0 -0.05859,0 -0.03613,0 -0.06787,-0.01 -0.09521,-0.015 -0.02702,-0.01 -0.0498,-0.025 -0.06836,-0.045 -0.01855,-0.02 -0.03255,-0.045 -0.04199,-0.075 -0.0094,-0.03 -0.01416,-0.065 -0.01416,-0.1045 0,-0.038 0.0049,-0.072 0.01465,-0.1016 0.0098,-0.03 0.02376,-0.056 0.04199,-0.077 0.01855,-0.021 0.04085,-0.037 0.06689,-0.048 0.02604,-0.011 0.05518,-0.017 0.0874,-0.017 0.0345,0 0.0638,0.01 0.08789,0.017 0.02441,0.011 0.04443,0.026 0.06006,0.045 0.01562,0.019 0.02702,0.041 0.03418,0.066 0.0075,0.025 0.01123,0.052 0.01123,0.081 l 0,0.015 m -0.08105,-0.024 c 9.76e-4,-0.042 -0.0085,-0.076 -0.02832,-0.1 -0.01953,-0.024 -0.04867,-0.036 -0.0874,-0.036 -0.01986,0 -0.03727,0 -0.05225,0.011 -0.01497,0.01 -0.02751,0.017 -0.0376,0.03 -0.01009,0.012 -0.0179,0.027 -0.02344,0.043 -0.0055,0.016 -0.0086,0.033 -0.0093,0.051 l 0.238281,0"
         style=""
         id="path3836" />
      <path
         d="m 22.652832,1031.8439 c 0,0 -6.51e-4,0 -0.002,0.01 -0.0013,0 -0.0034,0 -0.0063,0 -0.0029,0 -0.007,0 -0.01221,0 -0.0052,7e-4 -0.01188,10e-4 -0.02002,10e-4 -0.0078,0 -0.01432,-3e-4 -0.01953,-10e-4 -0.0052,-6e-4 -0.0094,-0 -0.0127,-0 -0.0029,-0 -0.005,-0 -0.0063,-0 -9.76e-4,-0 -0.0015,-0 -0.0015,-0.01 l 0,-0.6524 c 0,-0 4.88e-4,-0 0.0015,-0.01 0.0013,-0 0.0034,-0 0.0063,-0 0.0033,-0 0.0075,-0 0.0127,-0 0.0052,-7e-4 0.01172,-10e-4 0.01953,-10e-4 0.0081,0 0.01481,3e-4 0.02002,10e-4 0.0052,6e-4 0.0093,0 0.01221,0 0.0029,0 0.005,0 0.0063,0 0.0013,0 0.002,0 0.002,0.01 l 0,0.6524"
         style=""
         id="path3838" />
      <path
         d="m 22.883301,1031.8439 c 0,0 -6.51e-4,0 -0.002,0.01 -0.0013,0 -0.0034,0 -0.0063,0 -0.0029,0 -0.007,0 -0.01221,0 -0.0052,7e-4 -0.01188,10e-4 -0.02002,10e-4 -0.0078,0 -0.01432,-3e-4 -0.01953,-10e-4 -0.0052,-6e-4 -0.0094,-0 -0.0127,-0 -0.0029,-0 -0.005,-0 -0.0063,-0 -9.76e-4,-0 -0.0015,-0 -0.0015,-0.01 l 0,-0.4395 c 0,-0 4.89e-4,-0 0.0015,-0.01 0.0013,-0 0.0034,-0 0.0063,-0 0.0033,-0 0.0075,-0 0.0127,-0 0.0052,-7e-4 0.01172,-10e-4 0.01953,-10e-4 0.0081,0 0.01481,3e-4 0.02002,10e-4 0.0052,6e-4 0.0093,0 0.01221,0 0.0029,0 0.005,0 0.0063,0 0.0013,0 0.002,0 0.002,0.01 l 0,0.4395 m 0.0093,-0.5879 c 0,0.019 -0.0036,0.032 -0.01074,0.039 -0.0072,0.01 -0.02034,0.01 -0.03955,0.01 -0.01888,0 -0.0319,-0 -0.03906,-0.01 -0.0068,-0.01 -0.01025,-0.02 -0.01025,-0.038 0,-0.019 0.0036,-0.032 0.01074,-0.039 0.0072,-0.01 0.02034,-0.01 0.03955,-0.01 0.01888,0 0.03174,0 0.03857,0.01 0.0072,0.01 0.01074,0.019 0.01074,0.038"
         style=""
         id="path3840" />
      <path
         d="m 23.364258,1031.8444 c -1e-6,0 -0.0013,0.01 -0.0039,0.01 -0.0026,0 -0.0062,0 -0.01074,0 -0.0046,10e-4 -0.01123,0 -0.02002,0 -0.0085,0 -0.0153,-5e-4 -0.02051,-0 -0.0049,-9e-4 -0.0085,-0 -0.01074,-0 -0.0023,-0 -0.0034,-0 -0.0034,-0.01 l 0,-0.044 c -0.01921,0.02 -0.04069,0.036 -0.06445,0.048 -0.02344,0.011 -0.04834,0.017 -0.07471,0.017 -0.02311,0 -0.04411,-0 -0.06299,-0.01 -0.01855,-0.01 -0.0345,-0.014 -0.04785,-0.026 -0.01302,-0.011 -0.02327,-0.025 -0.03076,-0.042 -0.0072,-0.017 -0.01074,-0.035 -0.01074,-0.057 0,-0.025 0.005,-0.046 0.01514,-0.065 0.01009,-0.018 0.02458,-0.033 0.04346,-0.045 0.01888,-0.012 0.04199,-0.021 0.06934,-0.027 0.02734,-0.01 0.05811,-0.01 0.09229,-0.01 l 0.06055,0 0,-0.034 c -10e-7,-0.017 -0.0018,-0.032 -0.0054,-0.045 -0.0036,-0.013 -0.0094,-0.024 -0.01758,-0.032 -0.0078,-0.01 -0.01807,-0.015 -0.03076,-0.02 -0.0127,-0 -0.02832,-0.01 -0.04687,-0.01 -0.01986,0 -0.03776,0 -0.05371,0.01 -0.01563,0 -0.02946,0.01 -0.0415,0.016 -0.01172,0.01 -0.02165,0.011 -0.02979,0.016 -0.0078,0 -0.01367,0.01 -0.01758,0.01 -0.0026,0 -0.0049,-7e-4 -0.0068,-0 -0.002,-0 -0.0037,-0 -0.0054,-0.01 -0.0013,-0 -0.0023,-0.01 -0.0029,-0.01 -6.51e-4,-0 -9.77e-4,-0.01 -9.77e-4,-0.014 0,-0.01 4.89e-4,-0.014 0.0015,-0.019 0.0013,-0 0.0041,-0.01 0.0083,-0.014 0.0046,-0 0.01221,-0.01 0.02295,-0.015 0.01074,-0.01 0.02311,-0.011 0.03711,-0.016 0.014,-0 0.0293,-0.01 0.0459,-0.012 0.0166,-0 0.03337,-0 0.05029,-0 0.03158,0 0.05843,0 0.08057,0.011 0.02213,0.01 0.04004,0.018 0.05371,0.032 0.01367,0.014 0.0236,0.031 0.02979,0.051 0.0062,0.02 0.0093,0.044 0.0093,0.072 l 0,0.2964 m -0.08008,-0.2007 -0.06885,0 c -0.02214,0 -0.04134,0 -0.05762,0.01 -0.01628,0 -0.02979,0.01 -0.04053,0.017 -0.01074,0.01 -0.01872,0.016 -0.02393,0.026 -0.0049,0.01 -0.0073,0.022 -0.0073,0.035 0,0.023 0.0072,0.041 0.02148,0.055 0.01465,0.013 0.03499,0.02 0.06104,0.02 0.02116,0 0.04069,-0.01 0.05859,-0.016 0.01823,-0.011 0.03727,-0.027 0.05713,-0.049 l 0,-0.093"
         style=""
         id="path3842" />
      <path
         d="m 23.886719,1031.6051 c -1e-6,0.013 -0.0033,0.022 -0.0098,0.027 -0.0062,0.01 -0.01335,0.01 -0.02148,0.01 l -0.288086,0 c 0,0.024 0.0024,0.046 0.0073,0.066 0.0049,0.019 0.01302,0.036 0.02441,0.05 0.01139,0.014 0.0262,0.025 0.04443,0.032 0.01823,0.01 0.04053,0.011 0.06689,0.011 0.02083,0 0.03939,-0 0.05566,-0 0.01628,-0 0.03027,-0.01 0.04199,-0.012 0.01204,-0 0.02181,-0.01 0.0293,-0.011 0.0078,-0 0.01367,-0.01 0.01758,-0.01 0.0023,0 0.0042,7e-4 0.0059,0 0.002,10e-4 0.0034,0 0.0044,0 9.77e-4,0 0.0016,0.01 0.002,0.01 6.51e-4,0 9.77e-4,0.01 9.77e-4,0.015 0,0 -1.63e-4,0.01 -4.88e-4,0.011 -3.26e-4,0 -8.14e-4,0.01 -0.0015,0.01 -3.26e-4,0 -0.0011,0 -0.0024,0.01 -9.77e-4,0 -0.0024,0 -0.0044,0.01 -0.0016,0 -0.0068,0 -0.01563,0.01 -0.0088,0 -0.02018,0.01 -0.03418,0.012 -0.014,0 -0.03027,0.01 -0.04883,0.01 -0.01823,0 -0.03776,0 -0.05859,0 -0.03613,0 -0.06787,-0.01 -0.09521,-0.015 -0.02702,-0.01 -0.0498,-0.025 -0.06836,-0.045 -0.01855,-0.02 -0.03255,-0.045 -0.04199,-0.075 -0.0094,-0.03 -0.01416,-0.065 -0.01416,-0.1045 0,-0.038 0.0049,-0.072 0.01465,-0.1016 0.0098,-0.03 0.02376,-0.056 0.04199,-0.077 0.01855,-0.021 0.04085,-0.037 0.06689,-0.048 0.02604,-0.011 0.05518,-0.017 0.0874,-0.017 0.0345,0 0.0638,0.01 0.08789,0.017 0.02441,0.011 0.04443,0.026 0.06006,0.045 0.01562,0.019 0.02702,0.041 0.03418,0.066 0.0075,0.025 0.01123,0.052 0.01123,0.081 l 0,0.015 m -0.08105,-0.024 c 9.76e-4,-0.042 -0.0085,-0.076 -0.02832,-0.1 -0.01953,-0.024 -0.04867,-0.036 -0.0874,-0.036 -0.01986,0 -0.03727,0 -0.05225,0.011 -0.01497,0.01 -0.02751,0.017 -0.0376,0.03 -0.01009,0.012 -0.0179,0.027 -0.02344,0.043 -0.0055,0.016 -0.0086,0.033 -0.0093,0.051 l 0.238281,0"
         style=""
         id="path3844" />
      <path
         d="m 24.316895,1031.8439 c -10e-7,0 -6.52e-4,0 -0.002,0.01 -0.0013,0 -0.0034,0 -0.0063,0 -0.0029,0 -0.007,0 -0.01221,0 -0.0052,7e-4 -0.01188,10e-4 -0.02002,10e-4 -0.0078,0 -0.01432,-3e-4 -0.01953,-10e-4 -0.0052,-6e-4 -0.0094,-0 -0.0127,-0 -0.0029,-0 -0.005,-0 -0.0063,-0 -9.77e-4,-0 -0.0015,-0 -0.0015,-0.01 l 0,-0.6524 c 0,-0 4.88e-4,-0 0.0015,-0.01 0.0013,-0 0.0034,-0 0.0063,-0 0.0033,-0 0.0075,-0 0.0127,-0 0.0052,-7e-4 0.01172,-10e-4 0.01953,-10e-4 0.0081,0 0.01481,3e-4 0.02002,10e-4 0.0052,6e-4 0.0093,0 0.01221,0 0.0029,0 0.005,0 0.0063,0 0.0013,0 0.002,0 0.002,0.01 l 0,0.6524"
         style=""
         id="path3846" />
      <path
         d="m 24.797852,1031.8444 c -10e-7,0 -0.0013,0.01 -0.0039,0.01 -0.0026,0 -0.0062,0 -0.01074,0 -0.0046,10e-4 -0.01123,0 -0.02002,0 -0.0085,0 -0.0153,-5e-4 -0.02051,-0 -0.0049,-9e-4 -0.0085,-0 -0.01074,-0 -0.0023,-0 -0.0034,-0 -0.0034,-0.01 l 0,-0.044 c -0.01921,0.02 -0.04069,0.036 -0.06445,0.048 -0.02344,0.011 -0.04834,0.017 -0.07471,0.017 -0.02311,0 -0.04411,-0 -0.06299,-0.01 -0.01855,-0.01 -0.0345,-0.014 -0.04785,-0.026 -0.01302,-0.011 -0.02327,-0.025 -0.03076,-0.042 -0.0072,-0.017 -0.01074,-0.035 -0.01074,-0.057 0,-0.025 0.005,-0.046 0.01514,-0.065 0.01009,-0.018 0.02458,-0.033 0.04346,-0.045 0.01888,-0.012 0.04199,-0.021 0.06934,-0.027 0.02734,-0.01 0.05811,-0.01 0.09229,-0.01 l 0.06055,0 0,-0.034 c 0,-0.017 -0.0018,-0.032 -0.0054,-0.045 -0.0036,-0.013 -0.0094,-0.024 -0.01758,-0.032 -0.0078,-0.01 -0.01807,-0.015 -0.03076,-0.02 -0.0127,-0 -0.02832,-0.01 -0.04687,-0.01 -0.01986,0 -0.03776,0 -0.05371,0.01 -0.01563,0 -0.02946,0.01 -0.0415,0.016 -0.01172,0.01 -0.02165,0.011 -0.02979,0.016 -0.0078,0 -0.01367,0.01 -0.01758,0.01 -0.0026,0 -0.0049,-7e-4 -0.0068,-0 -0.002,-0 -0.0037,-0 -0.0054,-0.01 -0.0013,-0 -0.0023,-0.01 -0.0029,-0.01 -6.51e-4,-0 -9.77e-4,-0.01 -9.77e-4,-0.014 0,-0.01 4.88e-4,-0.014 0.0015,-0.019 0.0013,-0 0.0041,-0.01 0.0083,-0.014 0.0046,-0 0.01221,-0.01 0.02295,-0.015 0.01074,-0.01 0.02311,-0.011 0.03711,-0.016 0.014,-0 0.0293,-0.01 0.0459,-0.012 0.0166,-0 0.03336,-0 0.05029,-0 0.03158,0 0.05843,0 0.08057,0.011 0.02213,0.01 0.04004,0.018 0.05371,0.032 0.01367,0.014 0.0236,0.031 0.02979,0.051 0.0062,0.02 0.0093,0.044 0.0093,0.072 l 0,0.2964 m -0.08008,-0.2007 -0.06885,0 c -0.02214,0 -0.04134,0 -0.05762,0.01 -0.01628,0 -0.02979,0.01 -0.04053,0.017 -0.01074,0.01 -0.01872,0.016 -0.02393,0.026 -0.0049,0.01 -0.0073,0.022 -0.0073,0.035 0,0.023 0.0072,0.041 0.02148,0.055 0.01465,0.013 0.03499,0.02 0.06104,0.02 0.02116,0 0.04069,-0.01 0.05859,-0.016 0.01823,-0.011 0.03727,-0.027 0.05713,-0.049 l 0,-0.093"
         style=""
         id="path3848" />
      <path
         d="m 25.349609,1031.6173 c 0,0.038 -0.0042,0.073 -0.0127,0.1035 -0.0081,0.031 -0.02034,0.057 -0.03662,0.078 -0.01595,0.021 -0.03581,0.037 -0.05957,0.049 -0.02376,0.011 -0.05094,0.017 -0.08154,0.017 -0.01302,0 -0.02507,-0 -0.03613,-0 -0.01107,-0 -0.02197,-0.01 -0.03271,-0.012 -0.01042,-0.01 -0.02083,-0.013 -0.03125,-0.021 -0.01042,-0.01 -0.02148,-0.018 -0.0332,-0.03 l 0,0.2197 c 0,0 -6.51e-4,0 -0.002,0.01 -0.0013,0 -0.0034,0 -0.0063,0 -0.0029,0 -0.007,0 -0.01221,0 -0.0052,7e-4 -0.01188,10e-4 -0.02002,10e-4 -0.0078,0 -0.01432,-3e-4 -0.01953,-10e-4 -0.0052,-6e-4 -0.0094,-0 -0.0127,-0 -0.0029,-0 -0.005,-0 -0.0063,-0 -9.76e-4,-0 -0.0015,-0 -0.0015,-0.01 l 0,-0.6138 c 0,-0 4.89e-4,-0.01 0.0015,-0.01 9.77e-4,-0 0.0029,-0 0.0059,-0 0.0029,-0 0.0067,-0 0.01123,-0 0.0046,-7e-4 0.01009,-10e-4 0.0166,-10e-4 0.0068,0 0.01237,3e-4 0.0166,10e-4 0.0046,3e-4 0.0083,0 0.01123,0 0.0029,0 0.0049,0 0.0059,0 0.0013,0 0.002,0 0.002,0.01 l 0,0.059 c 0.01335,-0.014 0.02621,-0.026 0.03857,-0.036 0.01237,-0.01 0.02474,-0.018 0.03711,-0.025 0.0127,-0.01 0.02555,-0.012 0.03857,-0.015 0.01335,-0 0.02734,-0.01 0.04199,-0.01 0.0319,0 0.05908,0.01 0.08154,0.019 0.02246,0.012 0.04069,0.029 0.05469,0.051 0.01432,0.022 0.02474,0.046 0.03125,0.075 0.0065,0.028 0.0098,0.058 0.0098,0.09 m -0.08496,0.01 c 0,-0.023 -0.0018,-0.044 -0.0054,-0.065 -0.0033,-0.021 -0.0091,-0.04 -0.01758,-0.056 -0.0081,-0.016 -0.01921,-0.029 -0.0332,-0.039 -0.014,-0.01 -0.03141,-0.015 -0.05225,-0.015 -0.01042,0 -0.02067,0 -0.03076,0 -0.01009,0 -0.02034,0.01 -0.03076,0.015 -0.01042,0.01 -0.02132,0.015 -0.03271,0.026 -0.01139,0.011 -0.02344,0.024 -0.03613,0.04 l 0,0.1748 c 0.02213,0.027 0.04313,0.048 0.06299,0.062 0.01986,0.014 0.04069,0.022 0.0625,0.022 0.02018,0 0.03743,-0 0.05176,-0.015 0.01465,-0.01 0.02637,-0.023 0.03516,-0.039 0.0091,-0.016 0.01579,-0.034 0.02002,-0.055 0.0042,-0.02 0.0063,-0.041 0.0063,-0.061"
         style=""
         id="path3850" />
      <path
         d="m 25.695312,1031.8116 c 0,0.01 -6.51e-4,0.017 -0.002,0.023 -0.0013,0.01 -0.0033,0.01 -0.0059,0.012 -0.0026,0 -0.0065,0.01 -0.01172,0.01 -0.0052,0 -0.01123,0 -0.01807,0.01 -0.0065,0 -0.01351,0 -0.021,0 -0.0075,10e-4 -0.01497,0 -0.02246,0 -0.02279,0 -0.04232,-0 -0.05859,-0.01 -0.01628,-0.01 -0.02962,-0.015 -0.04004,-0.027 -0.01042,-0.012 -0.01807,-0.028 -0.02295,-0.046 -0.0046,-0.019 -0.0068,-0.041 -0.0068,-0.066 l 0,-0.2569 -0.06152,0 c -0.0049,0 -0.0088,-0 -0.01172,-0.01 -0.0029,-0.01 -0.0044,-0.014 -0.0044,-0.025 0,-0.01 3.26e-4,-0.011 9.77e-4,-0.016 9.76e-4,-0 0.0021,-0.01 0.0034,-0.01 0.0013,-0 0.0029,-0 0.0049,-0.01 0.0023,-0 0.0047,-0 0.0073,-0 l 0.06104,0 0,-0.1045 c 0,-0 4.88e-4,-0 0.0015,-0.01 0.0013,-0 0.0034,-0 0.0063,-0 0.0033,-0 0.0075,-0 0.0127,-0 0.0052,-7e-4 0.01172,-10e-4 0.01953,-10e-4 0.0081,0 0.01481,3e-4 0.02002,10e-4 0.0052,6e-4 0.0093,0 0.01221,0 0.0029,0 0.005,0 0.0063,0 0.0013,0 0.002,0 0.002,0.01 l 0,0.1045 0.112793,0 c 0.0026,0 0.0049,7e-4 0.0068,0 0.002,10e-4 0.0036,0 0.0049,0.01 0.0016,0 0.0028,0.01 0.0034,0.01 6.51e-4,0 9.76e-4,0.01 9.76e-4,0.016 0,0.012 -0.0015,0.02 -0.0044,0.025 -0.0029,0.01 -0.0068,0.01 -0.01172,0.01 l -0.112793,0 0,0.2451 c 0,0.03 0.0044,0.053 0.01318,0.069 0.0091,0.015 0.02523,0.023 0.04834,0.023 0.0075,0 0.01416,-6e-4 0.02002,-0 0.0059,-0 0.01107,-0 0.01563,-0 0.0046,-0 0.0085,-0 0.01172,-0 0.0033,-0 0.0062,-0 0.0088,-0 0.0016,0 0.0031,4e-4 0.0044,0 0.0016,7e-4 0.0028,0 0.0034,0 9.76e-4,0 0.0018,0.01 0.0024,0.01 6.51e-4,0 9.76e-4,0.01 9.76e-4,0.015"
         style=""
         id="path3852" />
      <path
         d="m 26.20166,1031.6193 c 0,0.036 -0.0047,0.069 -0.01416,0.099 -0.0094,0.03 -0.0236,0.056 -0.04248,0.078 -0.01856,0.022 -0.04199,0.039 -0.07031,0.051 -0.028,0.012 -0.06055,0.018 -0.09766,0.018 -0.03613,0 -0.06771,-0.01 -0.09473,-0.016 -0.02669,-0.011 -0.04899,-0.026 -0.06689,-0.047 -0.0179,-0.021 -0.03125,-0.045 -0.04004,-0.075 -0.0088,-0.029 -0.01318,-0.062 -0.01318,-0.1 0,-0.036 0.0046,-0.069 0.01367,-0.099 0.0094,-0.03 0.02344,-0.056 0.04199,-0.078 0.01888,-0.022 0.04232,-0.039 0.07031,-0.051 0.02799,-0.012 0.06071,-0.018 0.09814,-0.018 0.03613,0 0.06754,0.01 0.09424,0.016 0.02702,0.011 0.04948,0.026 0.06738,0.047 0.0179,0.02 0.03125,0.045 0.04004,0.075 0.0091,0.029 0.01367,0.062 0.01367,0.099 m -0.08496,0.01 c 0,-0.024 -0.0023,-0.046 -0.0068,-0.067 -0.0042,-0.021 -0.01139,-0.04 -0.02148,-0.056 -0.01009,-0.016 -0.02376,-0.029 -0.04102,-0.038 -0.01725,-0.01 -0.03874,-0.014 -0.06445,-0.014 -0.02376,0 -0.04427,0 -0.06152,0.013 -0.01693,0.01 -0.03092,0.02 -0.04199,0.036 -0.01107,0.015 -0.01937,0.034 -0.0249,0.055 -0.0052,0.021 -0.0078,0.044 -0.0078,0.069 0,0.024 0.0021,0.047 0.0063,0.068 0.0046,0.021 0.01188,0.04 0.02197,0.056 0.01042,0.016 0.02425,0.028 0.0415,0.038 0.01725,0.01 0.03874,0.014 0.06445,0.014 0.02344,0 0.04378,-0 0.06104,-0.013 0.01725,-0.01 0.03141,-0.02 0.04248,-0.036 0.01107,-0.015 0.0192,-0.034 0.02441,-0.055 0.0052,-0.021 0.0078,-0.044 0.0078,-0.07"
         style=""
         id="path3854" />
      <path
         d="m 26.724609,1031.6173 c 0,0.038 -0.0042,0.073 -0.0127,0.1035 -0.0081,0.031 -0.02034,0.057 -0.03662,0.078 -0.01595,0.021 -0.03581,0.037 -0.05957,0.049 -0.02376,0.011 -0.05094,0.017 -0.08154,0.017 -0.01302,0 -0.02507,-0 -0.03613,-0 -0.01107,-0 -0.02197,-0.01 -0.03271,-0.012 -0.01042,-0.01 -0.02083,-0.013 -0.03125,-0.021 -0.01042,-0.01 -0.02148,-0.018 -0.0332,-0.03 l 0,0.2197 c 0,0 -6.51e-4,0 -0.002,0.01 -0.0013,0 -0.0034,0 -0.0063,0 -0.0029,0 -0.007,0 -0.01221,0 -0.0052,7e-4 -0.01188,10e-4 -0.02002,10e-4 -0.0078,0 -0.01432,-3e-4 -0.01953,-10e-4 -0.0052,-6e-4 -0.0094,-0 -0.0127,-0 -0.0029,-0 -0.005,-0 -0.0063,-0 -9.76e-4,-0 -0.0015,-0 -0.0015,-0.01 l 0,-0.6138 c 0,-0 4.89e-4,-0.01 0.0015,-0.01 9.77e-4,-0 0.0029,-0 0.0059,-0 0.0029,-0 0.0067,-0 0.01123,-0 0.0046,-7e-4 0.01009,-10e-4 0.0166,-10e-4 0.0068,0 0.01237,3e-4 0.0166,10e-4 0.0046,3e-4 0.0083,0 0.01123,0 0.0029,0 0.0049,0 0.0059,0 0.0013,0 0.002,0 0.002,0.01 l 0,0.059 c 0.01335,-0.014 0.02621,-0.026 0.03857,-0.036 0.01237,-0.01 0.02474,-0.018 0.03711,-0.025 0.0127,-0.01 0.02555,-0.012 0.03857,-0.015 0.01335,-0 0.02734,-0.01 0.04199,-0.01 0.0319,0 0.05908,0.01 0.08154,0.019 0.02246,0.012 0.04069,0.029 0.05469,0.051 0.01432,0.022 0.02474,0.046 0.03125,0.075 0.0065,0.028 0.0098,0.058 0.0098,0.09 m -0.08496,0.01 c 0,-0.023 -0.0018,-0.044 -0.0054,-0.065 -0.0033,-0.021 -0.0091,-0.04 -0.01758,-0.056 -0.0081,-0.016 -0.01921,-0.029 -0.0332,-0.039 -0.014,-0.01 -0.03141,-0.015 -0.05225,-0.015 -0.01042,0 -0.02067,0 -0.03076,0 -0.01009,0 -0.02034,0.01 -0.03076,0.015 -0.01042,0.01 -0.02132,0.015 -0.03271,0.026 -0.01139,0.011 -0.02344,0.024 -0.03613,0.04 l 0,0.1748 c 0.02213,0.027 0.04313,0.048 0.06299,0.062 0.01986,0.014 0.04069,0.022 0.0625,0.022 0.02018,0 0.03743,-0 0.05176,-0.015 0.01465,-0.01 0.02637,-0.023 0.03516,-0.039 0.0091,-0.016 0.01579,-0.034 0.02002,-0.055 0.0042,-0.02 0.0063,-0.041 0.0063,-0.061"
         style=""
         id="path3856" />
    </g>
  </g>
</svg>
