<?xml version="1.0" encoding="UTF-8" standalone="no"?>
<!-- Created with Inkscape (http://www.inkscape.org/) -->

<svg
   xmlns:dc="http://purl.org/dc/elements/1.1/"
   xmlns:cc="http://creativecommons.org/ns#"
   xmlns:rdf="http://www.w3.org/1999/02/22-rdf-syntax-ns#"
   xmlns:svg="http://www.w3.org/2000/svg"
   xmlns="http://www.w3.org/2000/svg"
   xmlns:sodipodi="http://sodipodi.sourceforge.net/DTD/sodipodi-0.dtd"
   xmlns:inkscape="http://www.inkscape.org/namespaces/inkscape"
   width="48"
   height="48"
   id="svg2"
   version="1.1"
   inkscape:version="0.47pre4 r22446"
   sodipodi:docname="nm-signal.svg">
  <defs
     id="defs4">
    <inkscape:perspective
       sodipodi:type="inkscape:persp3d"
       inkscape:vp_x="0 : 526.18109 : 1"
       inkscape:vp_y="0 : 1000 : 0"
       inkscape:vp_z="744.09448 : 526.18109 : 1"
       inkscape:persp3d-origin="372.04724 : 350.78739 : 1"
       id="perspective10" />
  </defs>
  <sodipodi:namedview
     id="base"
     pagecolor="#ffffff"
     bordercolor="#666666"
     borderopacity="1.0"
     inkscape:pageopacity="0.0"
     inkscape:pageshadow="2"
     inkscape:zoom="5.6"
     inkscape:cx="4.1110937"
     inkscape:cy="16.675683"
     inkscape:document-units="px"
     inkscape:current-layer="layer1"
     showgrid="false"
     inkscape:window-width="1280"
     inkscape:window-height="714"
     inkscape:window-x="0"
     inkscape:window-y="25"
     inkscape:window-maximized="1" />
  <metadata
     id="metadata7">
    <rdf:RDF>
      <cc:Work
         rdf:about="">
        <dc:format>image/svg+xml</dc:format>
        <dc:type
           rdf:resource="http://purl.org/dc/dcmitype/StillImage" />
        <dc:title></dc:title>
      </cc:Work>
    </rdf:RDF>
  </metadata>
  <g
     inkscape:label="Livello 1"
     inkscape:groupmode="layer"
     id="layer1"
     transform="translate(0,-1004.3622)">
    <g
       id="g3598"
       transform="translate(-0.46205335,0.46479923)">
      <path
         id="path2830"
         d="m 24.472731,1012.2019 c -8.034552,0 -16.0790081,3.0524 -22.2091643,9.1826 l 2.5625959,2.5626 c 10.8450284,-10.8451 28.4267514,-10.8451 39.2717814,0 l 2.562596,-2.5626 c -6.130156,-6.1302 -14.153258,-9.1827 -22.187809,-9.1826 z"
         style="fill:#969696;fill-opacity:0.39215686;stroke:none" />
      <path
         id="path2823"
         d="m 24.472731,1019.9323 c -6.053063,0 -12.123962,2.3221 -16.7422931,6.9404 l 2.8829201,2.8615 c 7.652893,-7.6529 20.044497,-7.6529 27.69739,0 l 2.882921,-2.8615 c -4.618331,-4.6183 -10.667875,-6.9404 -16.720938,-6.9404 z"
         style="fill:#969696;fill-opacity:0.39215686;stroke:none" />
      <path
         id="path2818"
         d="m 24.472731,1027.7056 c -4.06393,0 -8.132038,1.5547 -11.232712,4.6553 l 2.690725,2.6908 c 4.722143,-4.71 12.366502,-4.7175 17.083973,0 l 2.66937,-2.6908 c -3.100674,-3.1006 -7.147427,-4.6553 -11.211356,-4.6553 z"
         style="fill:#969696;fill-opacity:0.39215686;stroke:none" />
      <path
         sodipodi:end="1.5707963"
         sodipodi:start="0"
         transform="matrix(-0.34207925,-0.34207925,0.34207925,-0.34207925,12.380852,1049.4449)"
         d="m 7.3214293,26.214285 c 0,9.073249 -7.35532187,16.428571 -16.4285713,16.428572 l -4e-7,-16.428572 z"
         sodipodi:ry="16.428572"
         sodipodi:rx="16.428572"
         sodipodi:cy="26.214285"
         sodipodi:cx="-9.1071424"
         id="path2816"
         style="fill:#969696;fill-opacity:0.39215686;stroke:none"
         sodipodi:type="arc" />
    </g>
  </g>
</svg>
