<?xml version="1.0" encoding="UTF-8" standalone="no"?>
<!-- Created with Inkscape (http://www.inkscape.org/) -->

<svg
   xmlns:dc="http://purl.org/dc/elements/1.1/"
   xmlns:cc="http://creativecommons.org/ns#"
   xmlns:rdf="http://www.w3.org/1999/02/22-rdf-syntax-ns#"
   xmlns:svg="http://www.w3.org/2000/svg"
   xmlns="http://www.w3.org/2000/svg"
   xmlns:xlink="http://www.w3.org/1999/xlink"
   xmlns:sodipodi="http://sodipodi.sourceforge.net/DTD/sodipodi-0.dtd"
   xmlns:inkscape="http://www.inkscape.org/namespaces/inkscape"
   width="48"
   height="48"
   id="svg3052"
   version="1.1"
   inkscape:version="0.47pre4 r22446"
   sodipodi:docname="pitivi2.svg"
   inkscape:export-filename="/home/andrea/Documenti/MeliaeSVG/48/apps/png/totem.png"
   inkscape:export-xdpi="240"
   inkscape:export-ydpi="240">
  <defs
     id="defs3054">
    <linearGradient
       inkscape:collect="always"
       id="linearGradient3771">
      <stop
         style="stop-color:#ffffff;stop-opacity:1;"
         offset="0"
         id="stop3773" />
      <stop
         style="stop-color:#ffffff;stop-opacity:0;"
         offset="1"
         id="stop3775" />
    </linearGradient>
    <linearGradient
       id="linearGradient4663">
      <stop
         style="stop-color:#787878;stop-opacity:1;"
         offset="0"
         id="stop4665" />
      <stop
         style="stop-color:#b4b4b4;stop-opacity:1;"
         offset="1"
         id="stop4667" />
    </linearGradient>
    <linearGradient
       id="linearGradient4366">
      <stop
         style="stop-color:#ffffff;stop-opacity:1;"
         offset="0"
         id="stop4368" />
      <stop
         style="stop-color:#a4c0c6;stop-opacity:1;"
         offset="1"
         id="stop4370" />
    </linearGradient>
    <linearGradient
       id="linearGradient4358">
      <stop
         style="stop-color:#000000;stop-opacity:1;"
         offset="0"
         id="stop4360" />
      <stop
         style="stop-color:#000000;stop-opacity:0;"
         offset="1"
         id="stop4362" />
    </linearGradient>
    <linearGradient
       id="linearGradient4346">
      <stop
         style="stop-color:#4b4a57;stop-opacity:1;"
         offset="0"
         id="stop4348" />
      <stop
         style="stop-color:#000000;stop-opacity:1;"
         offset="1"
         id="stop4350" />
    </linearGradient>
    <inkscape:perspective
       sodipodi:type="inkscape:persp3d"
       inkscape:vp_x="0 : 526.18109 : 1"
       inkscape:vp_y="0 : 1000 : 0"
       inkscape:vp_z="744.09448 : 526.18109 : 1"
       inkscape:persp3d-origin="372.04724 : 350.78739 : 1"
       id="perspective3060" />
    <radialGradient
       inkscape:collect="always"
       xlink:href="#linearGradient4346"
       id="radialGradient4352"
       cx="9.5535698"
       cy="1011.6878"
       fx="9.5535698"
       fy="1011.6878"
       r="19.910715"
       gradientTransform="matrix(1.6412741e-7,2.2781844,-2.3775704,1.9026356e-7,2414.937,992.11196)"
       gradientUnits="userSpaceOnUse" />
    <linearGradient
       inkscape:collect="always"
       xlink:href="#linearGradient4358"
       id="linearGradient4364"
       x1="7.5761442"
       y1="1010.0824"
       x2="7.5761442"
       y2="1012.0848"
       gradientUnits="userSpaceOnUse"
       gradientTransform="translate(10.925673,12.029785)" />
    <linearGradient
       inkscape:collect="always"
       xlink:href="#linearGradient4366"
       id="linearGradient4372"
       x1="24.107143"
       y1="1010.6623"
       x2="29.586201"
       y2="1032.8856"
       gradientUnits="userSpaceOnUse"
       gradientTransform="translate(0,2)" />
    <linearGradient
       inkscape:collect="always"
       xlink:href="#linearGradient4358"
       id="linearGradient4564"
       gradientUnits="userSpaceOnUse"
       gradientTransform="matrix(0.98256626,-0.18591271,-0.18591271,-0.98256626,189.06188,2018.1982)"
       x1="21.960569"
       y1="1020.1122"
       x2="21.960569"
       y2="1016.1083" />
    <filter
       inkscape:collect="always"
       id="filter4568"
       x="-0.033037974"
       width="1.0660759"
       y="-0.32625002"
       height="1.6525">
      <feGaussianBlur
         inkscape:collect="always"
         stdDeviation="0.5825893"
         id="feGaussianBlur4570" />
    </filter>
    <linearGradient
       inkscape:collect="always"
       xlink:href="#linearGradient4366"
       id="linearGradient4619"
       gradientUnits="userSpaceOnUse"
       gradientTransform="translate(-189.33232,-2017.1366)"
       x1="24.107143"
       y1="1010.6623"
       x2="29.586201"
       y2="1032.8856" />
    <linearGradient
       inkscape:collect="always"
       xlink:href="#linearGradient4346"
       id="linearGradient4655"
       x1="6.8412118"
       y1="1014.1122"
       x2="6.8412118"
       y2="1022.1122"
       gradientUnits="userSpaceOnUse"
       gradientTransform="matrix(1,0,0,1.2209709,0,-224.08925)" />
    <linearGradient
       inkscape:collect="always"
       xlink:href="#linearGradient4663"
       id="linearGradient3644"
       gradientUnits="userSpaceOnUse"
       x1="4.7767859"
       y1="16.950893"
       x2="5.7142859"
       y2="16.950893" />
    <linearGradient
       inkscape:collect="always"
       xlink:href="#linearGradient4346"
       id="linearGradient3646"
       gradientUnits="userSpaceOnUse"
       x1="4.2133107"
       y1="1021.3056"
       x2="7.1468058"
       y2="1021.3056" />
    <linearGradient
       inkscape:collect="always"
       xlink:href="#linearGradient4663"
       id="linearGradient3654"
       gradientUnits="userSpaceOnUse"
       x1="4.7767859"
       y1="16.950893"
       x2="5.7142859"
       y2="16.950893" />
    <linearGradient
       inkscape:collect="always"
       xlink:href="#linearGradient4346"
       id="linearGradient3656"
       gradientUnits="userSpaceOnUse"
       x1="4.2133107"
       y1="1021.3056"
       x2="7.1468058"
       y2="1021.3056" />
    <linearGradient
       inkscape:collect="always"
       xlink:href="#linearGradient4663"
       id="linearGradient3664"
       gradientUnits="userSpaceOnUse"
       x1="4.7767859"
       y1="16.950893"
       x2="5.7142859"
       y2="16.950893" />
    <linearGradient
       inkscape:collect="always"
       xlink:href="#linearGradient4346"
       id="linearGradient3666"
       gradientUnits="userSpaceOnUse"
       x1="4.2133107"
       y1="1021.3056"
       x2="7.1468058"
       y2="1021.3056" />
    <filter
       inkscape:collect="always"
       id="filter3676"
       x="-0.090467703"
       width="1.1809354"
       y="-0.10225299"
       height="1.204506">
      <feGaussianBlur
         inkscape:collect="always"
         stdDeviation="0.20713048"
         id="feGaussianBlur3678" />
    </filter>
    <linearGradient
       inkscape:collect="always"
       xlink:href="#linearGradient4663"
       id="linearGradient3906"
       gradientUnits="userSpaceOnUse"
       x1="4.7767859"
       y1="16.950893"
       x2="5.7142859"
       y2="16.950893" />
    <linearGradient
       inkscape:collect="always"
       xlink:href="#linearGradient4346"
       id="linearGradient3908"
       gradientUnits="userSpaceOnUse"
       x1="4.2133107"
       y1="1021.3056"
       x2="7.1468058"
       y2="1021.3056" />
    <linearGradient
       inkscape:collect="always"
       xlink:href="#linearGradient4663"
       id="linearGradient3910"
       gradientUnits="userSpaceOnUse"
       x1="4.7767859"
       y1="16.950893"
       x2="5.7142859"
       y2="16.950893" />
    <linearGradient
       inkscape:collect="always"
       xlink:href="#linearGradient4346"
       id="linearGradient3912"
       gradientUnits="userSpaceOnUse"
       x1="4.2133107"
       y1="1021.3056"
       x2="7.1468058"
       y2="1021.3056" />
    <linearGradient
       inkscape:collect="always"
       xlink:href="#linearGradient4663"
       id="linearGradient3914"
       gradientUnits="userSpaceOnUse"
       x1="4.7767859"
       y1="16.950893"
       x2="5.7142859"
       y2="16.950893" />
    <linearGradient
       inkscape:collect="always"
       xlink:href="#linearGradient4346"
       id="linearGradient3916"
       gradientUnits="userSpaceOnUse"
       x1="4.2133107"
       y1="1021.3056"
       x2="7.1468058"
       y2="1021.3056" />
    <radialGradient
       r="22.273863"
       fy="43.282089"
       fx="23.413918"
       cy="43.282089"
       cx="23.413918"
       gradientTransform="matrix(0.976115,0.00123608,-1.888397e-4,0.130952,0.567418,37.76785)"
       gradientUnits="userSpaceOnUse"
       id="radialGradient14828"
       xlink:href="#linearGradient5501"
       inkscape:collect="always" />
    <radialGradient
       gradientUnits="userSpaceOnUse"
       gradientTransform="matrix(0.976115,0.00123608,-1.888397e-4,0.130952,0.567418,37.76785)"
       r="22.273863"
       fy="43.282089"
       fx="23.413918"
       cy="43.282089"
       cx="23.413918"
       id="radialGradient5507"
       xlink:href="#linearGradient5501"
       inkscape:collect="always" />
    <radialGradient
       r="21.020655"
       fy="38.420067"
       fx="9.7811804"
       cy="38.420067"
       cx="9.7811804"
       gradientTransform="matrix(0.74005,-1.271033e-8,6.801607e-7,0.189525,5.047392,7.702356)"
       gradientUnits="userSpaceOnUse"
       id="radialGradient4771"
       xlink:href="#linearGradient4755"
       inkscape:collect="always" />
    <radialGradient
       gradientUnits="userSpaceOnUse"
       gradientTransform="matrix(1.464342,0.03571614,-0.01852372,0.758963,-4.584824,6.809718)"
       r="20.999186"
       fy="25.999708"
       fx="10.536296"
       cy="25.999708"
       cx="10.536296"
       id="radialGradient4741"
       xlink:href="#linearGradient4735"
       inkscape:collect="always" />
    <linearGradient
       id="linearGradient4735"
       inkscape:collect="always">
      <stop
         id="stop4737"
         offset="0"
         style="stop-color:#ffffff;stop-opacity:1.0000000" />
      <stop
         id="stop4739"
         offset="1"
         style="stop-color:#e6e6e1;stop-opacity:1.0000000" />
    </linearGradient>
    <linearGradient
       id="linearGradient4755"
       inkscape:collect="always">
      <stop
         id="stop4757"
         offset="0"
         style="stop-color:#ffffff;stop-opacity:1.0000000" />
      <stop
         id="stop4759"
         offset="1"
         style="stop-color:#f9f9f9;stop-opacity:1.0000000" />
    </linearGradient>
    <linearGradient
       id="linearGradient5501"
       inkscape:collect="always">
      <stop
         id="stop5503"
         offset="0"
         style="stop-color:#000000;stop-opacity:1;" />
      <stop
         id="stop5505"
         offset="1"
         style="stop-color:#000000;stop-opacity:0;" />
    </linearGradient>
    <inkscape:perspective
       id="perspective3036"
       inkscape:persp3d-origin="24 : 16 : 1"
       inkscape:vp_z="48 : 24 : 1"
       inkscape:vp_y="0 : 1000 : 0"
       inkscape:vp_x="0 : 24 : 1"
       sodipodi:type="inkscape:persp3d" />
    <linearGradient
       inkscape:collect="always"
       xlink:href="#linearGradient4346"
       id="linearGradient3971"
       gradientUnits="userSpaceOnUse"
       gradientTransform="matrix(1,0,0,1.2209709,-0.1964281,-224.76729)"
       x1="6.8412118"
       y1="1014.1122"
       x2="6.8412118"
       y2="1022.1122" />
    <linearGradient
       inkscape:collect="always"
       xlink:href="#linearGradient4366"
       id="linearGradient3987"
       gradientUnits="userSpaceOnUse"
       gradientTransform="matrix(0.98256626,-0.18591271,-0.18591271,-0.98256626,188.78335,2016.4916)"
       x1="24.107143"
       y1="1010.6623"
       x2="29.586201"
       y2="1032.8856" />
    <linearGradient
       inkscape:collect="always"
       xlink:href="#linearGradient4358"
       id="linearGradient3990"
       gradientUnits="userSpaceOnUse"
       gradientTransform="matrix(0.98256626,-0.18591271,-0.18591271,-0.98256626,188.86545,2017.5202)"
       x1="21.960569"
       y1="1020.1122"
       x2="21.960569"
       y2="1016.1083" />
    <linearGradient
       inkscape:collect="always"
       xlink:href="#linearGradient4358"
       id="linearGradient3999"
       gradientUnits="userSpaceOnUse"
       gradientTransform="translate(10.729245,11.351743)"
       x1="7.5761442"
       y1="1010.0824"
       x2="7.5761442"
       y2="1012.0848" />
    <linearGradient
       inkscape:collect="always"
       xlink:href="#linearGradient4366"
       id="linearGradient4002"
       gradientUnits="userSpaceOnUse"
       gradientTransform="translate(-0.1964281,1.3219578)"
       x1="24.107143"
       y1="1010.6623"
       x2="29.586201"
       y2="1032.8856" />
    <radialGradient
       inkscape:collect="always"
       xlink:href="#linearGradient4346"
       id="radialGradient4005"
       gradientUnits="userSpaceOnUse"
       gradientTransform="matrix(1.6412741e-7,2.2781844,-2.3775704,1.9026356e-7,2414.7406,991.43392)"
       cx="9.5535698"
       cy="1011.6878"
       fx="9.5535698"
       fy="1011.6878"
       r="19.910715" />
    <radialGradient
       inkscape:collect="always"
       xlink:href="#linearGradient4346"
       id="radialGradient4021"
       cx="1.4687501"
       cy="61.3125"
       fx="1.4687501"
       fy="61.3125"
       r="10.75"
       gradientUnits="userSpaceOnUse"
       gradientTransform="matrix(-0.5528593,1.7982475,-2.7044005,-0.83145002,168.09432,109.6496)" />
    <radialGradient
       inkscape:collect="always"
       xlink:href="#linearGradient4346"
       id="radialGradient4029"
       cx="8.6054888"
       cy="58.839951"
       fx="8.6054888"
       fy="58.839951"
       r="12.020815"
       gradientUnits="userSpaceOnUse"
       gradientTransform="matrix(-0.39532455,1.4753707,-1.9664713,-0.52691467,127.71453,77.147298)" />
    <radialGradient
       inkscape:collect="always"
       xlink:href="#linearGradient4366"
       id="radialGradient4037"
       cx="10.659258"
       cy="60.238968"
       fx="10.659258"
       fy="60.238968"
       r="12.020815"
       gradientUnits="userSpaceOnUse"
       gradientTransform="matrix(-0.47753647,1.4756983,-2.3341106,-0.75531896,156.35385,90.008753)" />
    <radialGradient
       inkscape:collect="always"
       xlink:href="#linearGradient4346"
       id="radialGradient4058"
       cx="-0.1514923"
       cy="60.524364"
       fx="-0.1514923"
       fy="60.524364"
       r="13.5"
       gradientUnits="userSpaceOnUse"
       gradientTransform="matrix(-0.36158375,1.3494487,-1.7670211,-0.47347196,106.74156,89.385385)" />
    <radialGradient
       inkscape:collect="always"
       xlink:href="#linearGradient4366"
       id="radialGradient3759"
       gradientUnits="userSpaceOnUse"
       gradientTransform="matrix(-0.47753647,1.4756983,-2.3341106,-0.75531896,156.35385,90.008753)"
       cx="10.659258"
       cy="60.238968"
       fx="10.659258"
       fy="60.238968"
       r="12.020815" />
    <radialGradient
       inkscape:collect="always"
       xlink:href="#linearGradient4346"
       id="radialGradient3766"
       gradientUnits="userSpaceOnUse"
       gradientTransform="matrix(-0.5528593,1.7982475,-2.7044005,-0.83145002,186.39487,1079.0317)"
       cx="1.4687501"
       cy="61.3125"
       fx="1.4687501"
       fy="61.3125"
       r="10.75" />
    <linearGradient
       inkscape:collect="always"
       xlink:href="#linearGradient3771"
       id="linearGradient3777"
       x1="26.516504"
       y1="76.991379"
       x2="14.495688"
       y2="64.970566"
       gradientUnits="userSpaceOnUse" />
  </defs>
  <sodipodi:namedview
     id="base"
     pagecolor="#ffffff"
     bordercolor="#666666"
     borderopacity="1.0"
     inkscape:pageopacity="0.0"
     inkscape:pageshadow="2"
     inkscape:zoom="4"
     inkscape:cx="15.306634"
     inkscape:cy="5.9714468"
     inkscape:document-units="px"
     inkscape:current-layer="layer1"
     showgrid="false"
     inkscape:window-width="1278"
     inkscape:window-height="712"
     inkscape:window-x="0"
     inkscape:window-y="25"
     inkscape:window-maximized="1" />
  <metadata
     id="metadata3057">
    <rdf:RDF>
      <cc:Work
         rdf:about="">
        <dc:format>image/svg+xml</dc:format>
        <dc:type
           rdf:resource="http://purl.org/dc/dcmitype/StillImage" />
        <dc:title />
      </cc:Work>
    </rdf:RDF>
  </metadata>
  <g
     inkscape:label="Livello 1"
     inkscape:groupmode="layer"
     id="layer1"
     transform="translate(0,-1004.3622)">
    <path
       style="fill:#333333;fill-opacity:0.78431373;stroke:none;filter:url(#filter4568)"
       d="m 45.160715,1047.2197 c 0,1.1835 -9.473974,2.1429 -21.160715,2.1429 -11.68674,0 -21.1607149,-0.9594 -21.1607149,-2.1429 0,-1.1835 9.4739749,-2.1428 21.1607149,-2.1428 11.686741,0 21.160715,0.9593 21.160715,2.1428 z"
       id="path4566" />
    <path
       style="fill:url(#radialGradient4005);fill-opacity:1;stroke:none"
       d="m 3.9107148,1017.4342 40.0000002,0 0,30 -40.0000002,0 0,-30 z"
       id="rect3062" />
    <path
       style="fill:url(#linearGradient4002);fill-opacity:1;stroke:none"
       d="m 3.9107148,1017.4342 40.0000002,0 0,4 -40.0000002,0 0,-4 z"
       id="rect4354" />
    <path
       style="fill:url(#linearGradient3999);fill-opacity:1;stroke:none"
       d="m 3.9107148,1021.4342 40.0000002,0 0,2 -40.0000002,0 0,-2 z"
       id="rect4356" />
    <path
       style="fill:#000000;fill-opacity:1;stroke:none"
       d="m 23.33934,1017.4341 4,0 -2.857193,4.0001 -4,0 2.857193,-4.0001 z"
       id="rect4374" />
    <path
       style="fill:#000000;fill-opacity:1;stroke:none"
       d="m 33.33934,1017.4341 4,0 -2.857193,4.0001 -4,0 2.857193,-4.0001 z"
       id="rect4395" />
    <path
       style="fill:#000000;fill-opacity:1;stroke:none"
       d="m 43.348215,1017.4342 -2.875,4 3.4375,0 0,-4 -0.5625,0 z"
       id="rect4397" />
    <path
       style="fill:#000000;fill-opacity:1;stroke:none"
       d="m 13.33934,1017.4341 4,0 -2.857193,4.0001 -4,0 2.857193,-4.0001 z"
       id="rect4399" />
    <path
       style="fill:#000000;fill-opacity:1;stroke:none"
       d="m 3.9285719,1017.4342 0,4 0.5625,0 2.84375,-4 -3.40625,0 z"
       id="rect4401" />
    <path
       style="fill:#ffffff;fill-opacity:0.31372549;stroke:none"
       d="m 3.9107148,1017.4342 40.0000002,0 0,1 -40.0000002,0 0,-1 z"
       id="rect4456" />
    <path
       style="fill:url(#linearGradient3990);fill-opacity:1;stroke:none"
       d="m 3.992846,1018.3592 39.30265,-7.4365 -0.743645,-3.9303 -39.3026503,7.4365 0.7436453,3.9303 z"
       id="rect4544" />
    <path
       style="fill:url(#linearGradient3987);fill-opacity:1;stroke:none"
       d="m 3.9107283,1017.3305 39.3026507,-7.4365 -0.743649,-3.9303 -39.3026506,7.4365 0.7436489,3.9303 z"
       id="rect4458" />
    <path
       style="fill:#000000;fill-opacity:1;stroke:none"
       d="m 23.000582,1013.7185 3.930265,-0.7437 -3.550973,-3.3991 -3.930265,0.7437 3.550973,3.3991 z"
       id="rect4460" />
    <path
       style="fill:#000000;fill-opacity:1;stroke:none"
       d="m 32.826244,1011.8593 3.930265,-0.7436 -3.550972,-3.3991 -3.930265,0.7437 3.550972,3.399 z"
       id="rect4462" />
    <path
       id="path4464"
       d="m 42.660673,1009.9986 -3.568529,-3.3958 3.377572,-0.6391 0.743651,3.9303 -0.552694,0.1046 z"
       style="fill:#000000;fill-opacity:1;stroke:none" />
    <path
       style="fill:#000000;fill-opacity:1;stroke:none"
       d="m 13.174919,1015.5776 3.930265,-0.7437 -3.550972,-3.399 -3.9302655,0.7436 3.5509725,3.3991 z"
       id="rect4466" />
    <path
       id="path4468"
       d="m 3.9282614,1017.3272 -0.7436509,-3.9303 0.5526936,-0.1046 3.5378236,3.4016 -3.3468663,0.6333 z"
       style="fill:#000000;fill-opacity:1;stroke:none" />
    <path
       id="path3674"
       d="m 3.8973219,1018.3404 0,4.8616 2.3844618,0 3.1104622,-4.8616 -5.494924,0 z"
       style="fill:#000000;fill-opacity:0.39215686;stroke:none;filter:url(#filter3676)"
       sodipodi:nodetypes="ccccc" />
    <path
       style="fill:url(#linearGradient3971);fill-opacity:1;stroke:none"
       d="m 3.8973219,1013.4342 0,4.9062 0,4.8616 1.6969618,0 1.0505001,-1.3503 2.7474621,-3.5113 -2.7474621,-3.5559 -1.0505001,-1.3503 -1.6969618,0 z"
       id="path4641" />
    <g
       id="g3640"
       transform="matrix(0.97158104,-0.23670717,0.23670717,0.97158104,-241.79995,31.083166)">
      <path
         transform="matrix(1.0666667,0,0,1.0666667,-0.42893783,1003.2246)"
         d="m 5.7142859,16.950893 c 0,0.258884 -0.2098666,0.46875 -0.46875,0.46875 -0.2588835,0 -0.46875,-0.209866 -0.46875,-0.46875 0,-0.258883 0.2098665,-0.46875 0.46875,-0.46875 0.2588834,0 0.46875,0.209867 0.46875,0.46875 z"
         sodipodi:ry="0.46875"
         sodipodi:rx="0.46875"
         sodipodi:cy="16.950893"
         sodipodi:cx="5.2455359"
         id="path4657"
         style="fill:url(#linearGradient3906);fill-opacity:1;stroke:none"
         sodipodi:type="arc" />
      <path
         id="path4671"
         d="m 4.6663006,1021.2306 0,0.15 1,0 0,-0.15 -1,0 z"
         style="font-size:medium;font-style:normal;font-variant:normal;font-weight:normal;font-stretch:normal;text-indent:0;text-align:start;text-decoration:none;line-height:normal;letter-spacing:normal;word-spacing:normal;text-transform:none;direction:ltr;block-progression:tb;writing-mode:lr-tb;text-anchor:start;color:#000000;fill:url(#linearGradient3908);fill-opacity:1;stroke:none;stroke-width:1px;marker:none;visibility:visible;display:inline;overflow:visible;enable-background:accumulate;font-family:'A.C.M.E. Secret Agent';-inkscape-font-specification:'A.C.M.E. Secret Agent'" />
    </g>
    <g
       transform="matrix(-0.9193985,-0.39332733,0.39332733,-0.9193985,-391.9876,1955.3591)"
       id="g3648">
      <path
         sodipodi:type="arc"
         style="fill:url(#linearGradient3910);fill-opacity:1;stroke:none"
         id="path3650"
         sodipodi:cx="5.2455359"
         sodipodi:cy="16.950893"
         sodipodi:rx="0.46875"
         sodipodi:ry="0.46875"
         d="m 5.7142859,16.950893 c 0,0.258884 -0.2098666,0.46875 -0.46875,0.46875 -0.2588835,0 -0.46875,-0.209866 -0.46875,-0.46875 0,-0.258883 0.2098665,-0.46875 0.46875,-0.46875 0.2588834,0 0.46875,0.209867 0.46875,0.46875 z"
         transform="matrix(1.0666667,0,0,1.0666667,-0.42893783,1003.2246)" />
      <path
         style="font-size:medium;font-style:normal;font-variant:normal;font-weight:normal;font-stretch:normal;text-indent:0;text-align:start;text-decoration:none;line-height:normal;letter-spacing:normal;word-spacing:normal;text-transform:none;direction:ltr;block-progression:tb;writing-mode:lr-tb;text-anchor:start;color:#000000;fill:url(#linearGradient3912);fill-opacity:1;stroke:none;stroke-width:1px;marker:none;visibility:visible;display:inline;overflow:visible;enable-background:accumulate;font-family:'A.C.M.E. Secret Agent';-inkscape-font-specification:'A.C.M.E. Secret Agent'"
         d="m 4.6663006,1021.2306 0,0.15 1,0 0,-0.15 -1,0 z"
         id="path3652" />
    </g>
    <g
       id="g3658"
       transform="matrix(-0.32882582,-0.94439058,0.94439058,-0.32882582,-954.52811,1359.0287)">
      <path
         transform="matrix(1.0666667,0,0,1.0666667,-0.42893783,1003.2246)"
         d="m 5.7142859,16.950893 c 0,0.258884 -0.2098666,0.46875 -0.46875,0.46875 -0.2588835,0 -0.46875,-0.209866 -0.46875,-0.46875 0,-0.258883 0.2098665,-0.46875 0.46875,-0.46875 0.2588834,0 0.46875,0.209867 0.46875,0.46875 z"
         sodipodi:ry="0.46875"
         sodipodi:rx="0.46875"
         sodipodi:cy="16.950893"
         sodipodi:cx="5.2455359"
         id="path3660"
         style="fill:url(#linearGradient3914);fill-opacity:1;stroke:none"
         sodipodi:type="arc" />
      <path
         id="path3662"
         d="m 4.6663006,1021.2306 0,0.15 1,0 0,-0.15 -1,0 z"
         style="font-size:medium;font-style:normal;font-variant:normal;font-weight:normal;font-stretch:normal;text-indent:0;text-align:start;text-decoration:none;line-height:normal;letter-spacing:normal;word-spacing:normal;text-transform:none;direction:ltr;block-progression:tb;writing-mode:lr-tb;text-anchor:start;color:#000000;fill:url(#linearGradient3916);fill-opacity:1;stroke:none;stroke-width:1px;marker:none;visibility:visible;display:inline;overflow:visible;enable-background:accumulate;font-family:'A.C.M.E. Secret Agent';-inkscape-font-specification:'A.C.M.E. Secret Agent'" />
    </g>
    <path
       style="fill:#d1dfe2;fill-opacity:1;fill-rule:nonzero;stroke:none"
       d="M 38.40625 22.0625 L 38.40625 25.0625 L 41.40625 25.0625 L 41.40625 22.0625 L 38.40625 22.0625 z M 10.40625 26.0625 L 10.40625 29.0625 L 11.5 29.0625 C 11.626004 28.011291 11.879722 27.016836 12.25 26.0625 L 10.40625 26.0625 z M 35.5625 26.0625 C 35.932778 27.016836 36.186496 28.011291 36.3125 29.0625 L 37.40625 29.0625 L 37.40625 26.0625 L 35.5625 26.0625 z M 38.40625 26.0625 L 38.40625 29.0625 L 41.40625 29.0625 L 41.40625 26.0625 L 38.40625 26.0625 z M 6.40625 30.0625 L 6.40625 33.0625 L 9.40625 33.0625 L 9.40625 30.0625 L 6.40625 30.0625 z M 10.40625 30.0625 L 10.40625 33.0625 L 11.65625 33.0625 C 11.493685 32.258033 11.40625 31.414895 11.40625 30.5625 C 11.40625 30.394008 11.430895 30.229372 11.4375 30.0625 L 10.40625 30.0625 z M 36.375 30.0625 C 36.381605 30.229372 36.40625 30.394008 36.40625 30.5625 C 36.40625 31.414895 36.318815 32.258033 36.15625 33.0625 L 37.40625 33.0625 L 37.40625 30.0625 L 36.375 30.0625 z M 38.40625 30.0625 L 38.40625 33.0625 L 41.40625 33.0625 L 41.40625 30.0625 L 38.40625 30.0625 z M 6.40625 34.0625 L 6.40625 37.0625 L 9.40625 37.0625 L 9.40625 34.0625 L 6.40625 34.0625 z M 10.40625 34.0625 L 10.40625 37.0625 L 13.21875 37.0625 C 12.654813 36.136617 12.215708 35.126012 11.90625 34.0625 L 10.40625 34.0625 z M 35.90625 34.0625 C 35.596792 35.126012 35.157687 36.136617 34.59375 37.0625 L 37.40625 37.0625 L 37.40625 34.0625 L 35.90625 34.0625 z M 38.40625 34.0625 L 38.40625 37.0625 L 41.40625 37.0625 L 41.40625 34.0625 L 38.40625 34.0625 z M 6.40625 38.0625 L 6.40625 41.0625 L 9.40625 41.0625 L 9.40625 38.0625 L 6.40625 38.0625 z M 10.40625 38.0625 L 10.40625 41.0625 L 13.40625 41.0625 L 13.40625 38.0625 L 10.40625 38.0625 z M 34.40625 38.0625 L 34.40625 41.0625 L 37.40625 41.0625 L 37.40625 38.0625 L 34.40625 38.0625 z M 38.40625 38.0625 L 38.40625 41.0625 L 41.40625 41.0625 L 41.40625 38.0625 L 38.40625 38.0625 z M 14.40625 38.6875 L 14.40625 41.0625 L 17.125 41.0625 C 16.105287 40.403038 15.192718 39.6069 14.40625 38.6875 z M 33.40625 38.6875 C 32.619782 39.6069 31.707213 40.403038 30.6875 41.0625 L 33.40625 41.0625 L 33.40625 38.6875 z "
       transform="translate(0,1004.3622)"
       id="rect4092" />
    <path
       transform="matrix(0.97747117,0,0,0.97747117,9.7371332,971.42732)"
       d="m 26.516503,64.970566 a 12.020815,12.020815 0 1 1 -24.0416295,0 12.020815,12.020815 0 1 1 24.0416295,0 z"
       sodipodi:ry="12.020815"
       sodipodi:rx="12.020815"
       sodipodi:cy="64.970566"
       sodipodi:cx="14.495688"
       id="path3912"
       style="fill:url(#radialGradient3759);fill-opacity:1;fill-rule:nonzero;stroke:none"
       sodipodi:type="arc" />
    <path
       style="fill:url(#radialGradient3766);fill-opacity:1;fill-rule:nonzero;stroke:none"
       d="m 23.894292,1024.1946 c -5.937061,0 -10.75,4.8129 -10.75,10.75 0,5.9371 4.812939,10.75 10.75,10.75 5.937061,0 10.75,-4.8129 10.75,-10.75 0,-5.9371 -4.812939,-10.75 -10.75,-10.75 z m -3.28125,3.6563 6.5625,0 c 0.06444,0 0.130199,0.019 0.1875,0.062 0.05728,0.043 0.120434,0.1256 0.15625,0.2187 0.04296,0.093 0.04817,0.2175 0.0625,0.375 0.02148,0.1504 0.03124,0.3164 0.03125,0.5313 -9e-6,0.4297 -0.01498,0.7441 -0.09375,0.9375 -0.07162,0.1933 -0.20053,0.3125 -0.34375,0.3125 l -4.9375,0 0,2.9687 c 0.250647,-0.029 0.506506,-0.055 0.75,-0.062 0.250646,-0.01 0.509109,0 0.78125,0 0.751947,0 1.419915,0.071 2,0.25 0.587232,0.1719 1.074861,0.4375 1.46875,0.7813 0.401032,0.3366 0.698558,0.7728 0.90625,1.2812 0.207672,0.5013 0.31249,1.084 0.3125,1.75 -10e-6,0.752 -0.141286,1.4056 -0.40625,2 -0.257822,0.5873 -0.613941,1.0918 -1.09375,1.5 -0.472664,0.4011 -1.045581,0.7227 -1.71875,0.9375 -0.666022,0.2149 -1.402349,0.3125 -2.21875,0.3125 -0.429692,0 -0.832035,-0.036 -1.21875,-0.094 -0.386722,-0.05 -0.75456,-0.1088 -1.0625,-0.1875 -0.307945,-0.086 -0.549481,-0.1713 -0.75,-0.25 -0.193361,-0.086 -0.310548,-0.1374 -0.375,-0.1875 -0.05729,-0.057 -0.127605,-0.1231 -0.15625,-0.1875 -0.02865,-0.065 -0.04102,-0.1329 -0.0625,-0.2188 -0.01432,-0.093 -0.02409,-0.2077 -0.03125,-0.3437 -0.0072,-0.1361 -1e-6,-0.3138 0,-0.5 -1e-6,-0.2006 -0.01432,-0.364 0,-0.5 0.01432,-0.1433 0.03385,-0.2578 0.0625,-0.3438 0.03581,-0.086 0.08203,-0.1517 0.125,-0.1875 0.04297,-0.036 0.09896,-0.062 0.15625,-0.062 0.07161,0 0.169269,0.07 0.3125,0.1563 0.150389,0.079 0.35742,0.1497 0.59375,0.25 0.243487,0.1002 0.531247,0.1953 0.875,0.2812 0.343747,0.079 0.770178,0.125 1.25,0.125 0.41536,0 0.788406,-0.039 1.125,-0.125 0.343744,-0.086 0.638666,-0.22 0.875,-0.4062 0.236321,-0.1934 0.402337,-0.4323 0.53125,-0.7188 0.128899,-0.2864 0.187493,-0.6302 0.1875,-1.0312 -7e-6,-0.3438 -0.04884,-0.6726 -0.15625,-0.9375 -0.107429,-0.2722 -0.27084,-0.5013 -0.5,-0.6875 -0.229173,-0.1862 -0.541022,-0.3132 -0.90625,-0.4063 -0.36524,-0.093 -0.789718,-0.125 -1.3125,-0.125 -0.415368,0 -0.812503,0.019 -1.15625,0.062 -0.336591,0.043 -0.636721,0.062 -0.9375,0.062 -0.207684,0 -0.375653,-0.056 -0.46875,-0.1562 -0.08594,-0.1075 -0.125002,-0.3145 -0.125,-0.5938 l 0,-6.0312 c -2e-6,-0.2865 0.04883,-0.5033 0.15625,-0.625 0.114581,-0.1289 0.319008,-0.1875 0.5625,-0.1875 z"
       id="path3914" />
    <path
       transform="matrix(0,-0.80589373,0.80589373,0,-28.453122,1046.6162)"
       d="M 26.516503,64.970566 A 12.020815,12.020815 0 0 1 14.495689,76.991381 l -1e-6,-12.020815 z"
       sodipodi:ry="12.020815"
       sodipodi:rx="12.020815"
       sodipodi:cy="64.970566"
       sodipodi:cx="14.495688"
       id="path4039"
       style="fill:url(#linearGradient3777);fill-opacity:1;fill-rule:nonzero;stroke:none"
       sodipodi:type="arc"
       sodipodi:start="0"
       sodipodi:end="1.5707963"
       inkscape:transform-center-x="-4.8437491"
       inkscape:transform-center-y="-4.8437151" />
  </g>
</svg>
