<?xml version="1.0" encoding="UTF-8" standalone="no"?>
<!-- Created with Inkscape (http://www.inkscape.org/) -->

<svg
   xmlns:dc="http://purl.org/dc/elements/1.1/"
   xmlns:cc="http://creativecommons.org/ns#"
   xmlns:rdf="http://www.w3.org/1999/02/22-rdf-syntax-ns#"
   xmlns:svg="http://www.w3.org/2000/svg"
   xmlns="http://www.w3.org/2000/svg"
   xmlns:xlink="http://www.w3.org/1999/xlink"
   xmlns:sodipodi="http://sodipodi.sourceforge.net/DTD/sodipodi-0.dtd"
   xmlns:inkscape="http://www.inkscape.org/namespaces/inkscape"
   width="48"
   height="48"
   id="svg2"
   version="1.1"
   inkscape:version="0.47pre4 r22446"
   sodipodi:docname="preferences-desktop-wallpaper.svg"
   inkscape:export-filename="/home/andrea/Documenti/MeliaeSVG/48/devices/png/computer.png"
   inkscape:export-xdpi="240"
   inkscape:export-ydpi="240">
  <defs
     id="defs4">
    <linearGradient
       id="linearGradient3830">
      <stop
         style="stop-color:#dcdcdc;stop-opacity:1;"
         offset="0"
         id="stop3832" />
      <stop
         style="stop-color:#ffffff;stop-opacity:1;"
         offset="1"
         id="stop3834" />
    </linearGradient>
    <linearGradient
       id="linearGradient3711">
      <stop
         style="stop-color:#333333;stop-opacity:0.58823532;"
         offset="0"
         id="stop3713" />
      <stop
         style="stop-color:#333333;stop-opacity:0;"
         offset="1"
         id="stop3715" />
    </linearGradient>
    <linearGradient
       id="linearGradient3695">
      <stop
         style="stop-color:#f0f0f0;stop-opacity:0;"
         offset="0"
         id="stop3697" />
      <stop
         id="stop3705"
         offset="0.34188393"
         style="stop-color:#f0f0f0;stop-opacity:1;" />
      <stop
         id="stop3703"
         offset="0.67178303"
         style="stop-color:#f0f0f0;stop-opacity:1;" />
      <stop
         style="stop-color:#f0f0f0;stop-opacity:0;"
         offset="1"
         id="stop3699" />
    </linearGradient>
    <linearGradient
       id="linearGradient3661">
      <stop
         style="stop-color:#787878;stop-opacity:1;"
         offset="0"
         id="stop3663" />
      <stop
         id="stop3671"
         offset="0.17399774"
         style="stop-color:#a0a0a0;stop-opacity:1;" />
      <stop
         style="stop-color:#c8c8c8;stop-opacity:1;"
         offset="0.29868144"
         id="stop3675" />
      <stop
         id="stop3669"
         offset="0.52323002"
         style="stop-color:#e6e6e6;stop-opacity:1;" />
      <stop
         style="stop-color:#c8c8c8;stop-opacity:1;"
         offset="0.58562994"
         id="stop3691" />
      <stop
         style="stop-color:#787878;stop-opacity:1;"
         offset="0.69511706"
         id="stop3673" />
      <stop
         id="stop3707"
         offset="0.85992652"
         style="stop-color:#787878;stop-opacity:1;" />
      <stop
         style="stop-color:#646464;stop-opacity:1;"
         offset="1"
         id="stop3665" />
    </linearGradient>
    <linearGradient
       id="linearGradient3600">
      <stop
         style="stop-color:#ffffff;stop-opacity:0.39215687;"
         offset="0"
         id="stop3602" />
      <stop
         style="stop-color:#ffffff;stop-opacity:0;"
         offset="1"
         id="stop3604" />
    </linearGradient>
    <linearGradient
       id="linearGradient3676">
      <stop
         style="stop-color:#9cc430;stop-opacity:1;"
         offset="0"
         id="stop3678" />
      <stop
         style="stop-color:#619508;stop-opacity:1;"
         offset="1"
         id="stop3680" />
    </linearGradient>
    <linearGradient
       id="linearGradient3668">
      <stop
         style="stop-color:#828282;stop-opacity:1;"
         offset="0"
         id="stop3670" />
      <stop
         style="stop-color:#c8c8c8;stop-opacity:1;"
         offset="1"
         id="stop3672" />
    </linearGradient>
    <inkscape:perspective
       sodipodi:type="inkscape:persp3d"
       inkscape:vp_x="0 : 526.18109 : 1"
       inkscape:vp_y="0 : 1000 : 0"
       inkscape:vp_z="744.09448 : 526.18109 : 1"
       inkscape:persp3d-origin="372.04724 : 350.78739 : 1"
       id="perspective10" />
    <inkscape:perspective
       id="perspective2881"
       inkscape:persp3d-origin="0.5 : 0.33333333 : 1"
       inkscape:vp_z="1 : 0.5 : 1"
       inkscape:vp_y="0 : 1000 : 0"
       inkscape:vp_x="0 : 0.5 : 1"
       sodipodi:type="inkscape:persp3d" />
    <linearGradient
       inkscape:collect="always"
       xlink:href="#linearGradient3668"
       id="linearGradient3734"
       gradientUnits="userSpaceOnUse"
       x1="10.606602"
       y1="1048.6774"
       x2="53.159523"
       y2="1073.3229" />
    <linearGradient
       inkscape:collect="always"
       xlink:href="#linearGradient3600"
       id="linearGradient3736"
       gradientUnits="userSpaceOnUse"
       x1="55.192322"
       y1="1023.1374"
       x2="27.566288"
       y2="1070.9871" />
    <linearGradient
       inkscape:collect="always"
       xlink:href="#linearGradient3676"
       id="linearGradient3738"
       gradientUnits="userSpaceOnUse"
       gradientTransform="matrix(0.98311298,0,0,0.98311298,1.1944185,49.183653)"
       x1="39.016552"
       y1="1033.1963"
       x2="9.1951256"
       y2="1016.9733" />
    <linearGradient
       inkscape:collect="always"
       xlink:href="#linearGradient3695"
       id="linearGradient3743"
       gradientUnits="userSpaceOnUse"
       gradientTransform="matrix(1,0,0,0.81143819,-3.7835692e-8,1011.5591)"
       x1="16.071428"
       y1="41.57143"
       x2="31.875"
       y2="41.57143" />
    <linearGradient
       inkscape:collect="always"
       xlink:href="#linearGradient3661"
       id="linearGradient3752"
       gradientUnits="userSpaceOnUse"
       x1="24"
       y1="36.65625"
       x2="24"
       y2="43.589287"
       gradientTransform="translate(-3.7835692e-8,1003.5048)" />
    <radialGradient
       inkscape:collect="always"
       xlink:href="#linearGradient3711"
       id="radialGradient3755"
       gradientUnits="userSpaceOnUse"
       gradientTransform="matrix(1,0,0,0.05882353,0,39.462183)"
       cx="26.964285"
       cy="41.92857"
       fx="26.964285"
       fy="41.92857"
       r="18.214285" />
    <inkscape:perspective
       id="perspective3925"
       inkscape:persp3d-origin="200.87007 : 162.74409 : 1"
       inkscape:vp_z="401.74014 : 244.11613 : 1"
       inkscape:vp_y="0 : 1000 : 0"
       inkscape:vp_x="0 : 244.11613 : 1"
       sodipodi:type="inkscape:persp3d" />
    <linearGradient
       inkscape:collect="always"
       xlink:href="#linearGradient3600"
       id="linearGradient3657"
       gradientUnits="userSpaceOnUse"
       x1="55.192322"
       y1="1023.1374"
       x2="27.566288"
       y2="1070.9871"
       gradientTransform="translate(-1.3170714,-32.857423)" />
    <linearGradient
       inkscape:collect="always"
       xlink:href="#linearGradient3668"
       id="linearGradient3662"
       gradientUnits="userSpaceOnUse"
       x1="25.317072"
       y1="1033.4746"
       x2="25.317072"
       y2="1073.3229"
       gradientTransform="translate(-1.3170714,-32.857423)" />
    <linearGradient
       inkscape:collect="always"
       xlink:href="#linearGradient3676"
       id="linearGradient3843"
       gradientUnits="userSpaceOnUse"
       gradientTransform="matrix(0.98311298,0,0,0.98311298,-57.12265,16.82623)"
       x1="39.016552"
       y1="1033.1963"
       x2="9.1951256"
       y2="1016.9733" />
    <linearGradient
       inkscape:collect="always"
       xlink:href="#linearGradient3830"
       id="linearGradient3845"
       gradientUnits="userSpaceOnUse"
       x1="-17.124996"
       y1="1013.9081"
       x2="-26.423851"
       y2="1019.8146" />
    <inkscape:perspective
       sodipodi:type="inkscape:persp3d"
       inkscape:vp_x="0 : 0.5 : 1"
       inkscape:vp_y="0 : 1000 : 0"
       inkscape:vp_z="1 : 0.5 : 1"
       inkscape:persp3d-origin="0.5 : 0.33333333 : 1"
       id="perspective3674" />
    <inkscape:perspective
       sodipodi:type="inkscape:persp3d"
       inkscape:vp_x="0 : 0.5 : 1"
       inkscape:vp_y="0 : 1000 : 0"
       inkscape:vp_z="1 : 0.5 : 1"
       inkscape:persp3d-origin="0.5 : 0.33333333 : 1"
       id="perspective3633" />
    <inkscape:perspective
       sodipodi:type="inkscape:persp3d"
       inkscape:vp_x="0 : 0.5 : 1"
       inkscape:vp_y="0 : 1000 : 0"
       inkscape:vp_z="1 : 0.5 : 1"
       inkscape:persp3d-origin="0.5 : 0.33333333 : 1"
       id="perspective3611" />
    <inkscape:perspective
       sodipodi:type="inkscape:persp3d"
       inkscape:vp_x="0 : 0.5 : 1"
       inkscape:vp_y="0 : 1000 : 0"
       inkscape:vp_z="1 : 0.5 : 1"
       inkscape:persp3d-origin="0.5 : 0.33333333 : 1"
       id="perspective3804" />
    <inkscape:perspective
       sodipodi:type="inkscape:persp3d"
       inkscape:vp_x="0 : 0.5 : 1"
       inkscape:vp_y="0 : 1000 : 0"
       inkscape:vp_z="1 : 0.5 : 1"
       inkscape:persp3d-origin="0.5 : 0.33333333 : 1"
       id="perspective3767" />
    <inkscape:perspective
       sodipodi:type="inkscape:persp3d"
       inkscape:vp_x="0 : 0.5 : 1"
       inkscape:vp_y="0 : 1000 : 0"
       inkscape:vp_z="1 : 0.5 : 1"
       inkscape:persp3d-origin="0.5 : 0.33333333 : 1"
       id="perspective3724" />
    <inkscape:perspective
       sodipodi:type="inkscape:persp3d"
       inkscape:vp_x="0 : 0.5 : 1"
       inkscape:vp_y="0 : 1000 : 0"
       inkscape:vp_z="1 : 0.5 : 1"
       inkscape:persp3d-origin="0.5 : 0.33333333 : 1"
       id="perspective3702" />
    <inkscape:perspective
       sodipodi:type="inkscape:persp3d"
       inkscape:vp_x="0 : 0.5 : 1"
       inkscape:vp_y="0 : 1000 : 0"
       inkscape:vp_z="1 : 0.5 : 1"
       inkscape:persp3d-origin="0.5 : 0.33333333 : 1"
       id="perspective3680" />
    <inkscape:perspective
       sodipodi:type="inkscape:persp3d"
       inkscape:vp_x="0 : 0.5 : 1"
       inkscape:vp_y="0 : 1000 : 0"
       inkscape:vp_z="1 : 0.5 : 1"
       inkscape:persp3d-origin="0.5 : 0.33333333 : 1"
       id="perspective3658" />
    <inkscape:perspective
       sodipodi:type="inkscape:persp3d"
       inkscape:vp_x="0 : 0.5 : 1"
       inkscape:vp_y="0 : 1000 : 0"
       inkscape:vp_z="1 : 0.5 : 1"
       inkscape:persp3d-origin="0.5 : 0.33333333 : 1"
       id="perspective3636" />
    <inkscape:perspective
       id="perspective10-3"
       inkscape:persp3d-origin="0.5 : 0.33333333 : 1"
       inkscape:vp_z="1 : 0.5 : 1"
       inkscape:vp_y="0 : 1000 : 0"
       inkscape:vp_x="0 : 0.5 : 1"
       sodipodi:type="inkscape:persp3d" />
  </defs>
  <sodipodi:namedview
     id="base"
     pagecolor="#ffffff"
     bordercolor="#666666"
     borderopacity="1.0"
     inkscape:pageopacity="0.0"
     inkscape:pageshadow="2"
     inkscape:zoom="8"
     inkscape:cx="6.3693559"
     inkscape:cy="24.605694"
     inkscape:document-units="px"
     inkscape:current-layer="layer1"
     showgrid="false"
     showguides="true"
     inkscape:guide-bbox="true"
     inkscape:window-width="1280"
     inkscape:window-height="714"
     inkscape:window-x="0"
     inkscape:window-y="25"
     inkscape:window-maximized="1" />
  <metadata
     id="metadata7">
    <rdf:RDF>
      <cc:Work
         rdf:about="">
        <dc:format>image/svg+xml</dc:format>
        <dc:type
           rdf:resource="http://purl.org/dc/dcmitype/StillImage" />
        <dc:title />
      </cc:Work>
    </rdf:RDF>
  </metadata>
  <g
     inkscape:label="Livello 1"
     inkscape:groupmode="layer"
     id="layer1"
     transform="translate(0,-1004.3622)">
    <path
       sodipodi:type="arc"
       style="fill:url(#radialGradient3755);fill-opacity:1;stroke:none"
       id="path3709"
       sodipodi:cx="26.964285"
       sodipodi:cy="41.92857"
       sodipodi:rx="18.214285"
       sodipodi:ry="1.0714285"
       d="m 45.17857,41.92857 c 0,0.591733 -8.154813,1.071428 -18.214285,1.071428 C 16.904813,42.999998 8.75,42.520303 8.75,41.92857 c 0,-0.591734 8.154813,-1.071429 18.214285,-1.071429 10.059472,0 18.214285,0.479695 18.214285,1.071429 z"
       transform="matrix(1.131716,0,0,1.2357023,-6.5159126,993.85307)" />
    <path
       style="fill:url(#linearGradient3752);fill-opacity:1;stroke:none"
       d="m 17.875,1040.1611 c 0,1.7887 -0.512914,4.0312 -1.59375,4.0312 -0.277,0 -0.5,0.223 -0.5,0.5 l 0,0.875 c 0,0.277 0.223,0.5 0.5,0.5 l 15.4375,0 c 0.277,0 0.5,-0.223 0.5,-0.5 l 0,-0.875 c 0,-0.277 -0.223,-0.5 -0.5,-0.5 -1.491779,0.011 -1.59375,-2.5216 -1.59375,-4.0312 l -12.25,0 z"
       id="rect3654" />
    <rect
       style="fill:url(#linearGradient3662);fill-opacity:1;stroke:none"
       id="rect3608"
       width="43.057999"
       height="30.603001"
       x="2.4710007"
       y="1009.8624"
       rx="1"
       ry="1" />
    <rect
       style="fill:#333333;fill-opacity:1;stroke:none"
       id="rect3610"
       width="41.368999"
       height="27.504999"
       x="3.3155003"
       y="1010.6246"
       rx="1"
       ry="1" />
    <path
       style="fill:url(#linearGradient3657);fill-opacity:1;stroke:none"
       d="m 35.882768,1010.6247 7.801732,0 c 0.554,0 1,0.446 1,1 l 0,25.505 c 0,0.554 -0.446,1 -1,1 l -22.701482,0 14.89975,-27.505 z"
       id="rect3620"
       sodipodi:nodetypes="ccccccc" />
    <rect
       y="1011.3822"
       x="4.2064247"
       height="25.989763"
       width="39.587151"
       id="rect3637"
       style="fill:#000000;fill-opacity:1;stroke:none" />
    <rect
       style="fill:#505050;fill-opacity:0.78431374;stroke:none"
       id="rect3633"
       width="38.65229"
       height="24.87565"
       x="4.6738548"
       y="1011.9392" />
    <rect
       style="fill:url(#linearGradient3743);fill-opacity:1;stroke:none"
       id="rect3693"
       width="15.803572"
       height="1.0867476"
       x="16.071428"
       y="1044.7484" />
    <g
       transform="matrix(0.01310146,0,0,0.01310146,23.369755,1038.4939)"
       style="fill:#dcdcdc;fill-opacity:1;fill-rule:nonzero;stroke:none"
       id="g3993">
      <g
         style="fill:#dcdcdc;fill-opacity:1"
         id="g3995">
        <path
           d="M 86.068,0 C 61.466,0 56.851,35.041 70.691,35.041 84.529,35.041 110.671,0 86.068,0 z"
           style="fill:#dcdcdc;fill-opacity:1"
           id="path3997" />
        <path
           d="M 45.217,30.699 C 52.586,31.149 60.671,2.577 46.821,4.374 32.976,6.171 37.845,30.249 45.217,30.699 z"
           style="fill:#dcdcdc;fill-opacity:1"
           id="path3999" />
        <path
           d="M 11.445,48.453 C 16.686,46.146 12.12,23.581 3.208,29.735 -5.7,35.89 6.204,50.759 11.445,48.453 z"
           style="fill:#dcdcdc;fill-opacity:1"
           id="path4001" />
        <path
           d="M 26.212,36.642 C 32.451,35.37 32.793,9.778 21.667,14.369 10.539,18.961 19.978,37.916 26.212,36.642 l 0,0 z"
           style="fill:#dcdcdc;fill-opacity:1"
           id="path4003" />
        <path
           d="m 58.791,93.913 c 1.107,8.454 -6.202,12.629 -13.36,7.179 C 22.644,83.743 83.16,75.088 79.171,51.386 75.86,31.712 15.495,37.769 8.621,68.553 3.968,89.374 27.774,118.26 52.614,118.26 c 12.22,0 26.315,-11.034 28.952,-25.012 C 83.58,82.589 57.867,86.86 58.791,93.913 l 0,0 z"
           style="fill:#dcdcdc;fill-opacity:1"
           id="path4005" />
      </g>
    </g>
    <g
       transform="matrix(0.01310146,0,0,0.01310146,23.369755,1038.4476)"
       style="fill:#505050;fill-opacity:1;fill-rule:nonzero;stroke:none"
       id="g3979">
      <g
         style="fill:#505050;fill-opacity:1"
         id="g3981">
        <path
           d="M 86.068,0 C 61.466,0 56.851,35.041 70.691,35.041 84.529,35.041 110.671,0 86.068,0 z"
           style="fill:#505050;fill-opacity:1"
           id="path3983" />
        <path
           d="M 45.217,30.699 C 52.586,31.149 60.671,2.577 46.821,4.374 32.976,6.171 37.845,30.249 45.217,30.699 z"
           style="fill:#505050;fill-opacity:1"
           id="path3985" />
        <path
           d="M 11.445,48.453 C 16.686,46.146 12.12,23.581 3.208,29.735 -5.7,35.89 6.204,50.759 11.445,48.453 z"
           style="fill:#505050;fill-opacity:1"
           id="path3987" />
        <path
           d="M 26.212,36.642 C 32.451,35.37 32.793,9.778 21.667,14.369 10.539,18.961 19.978,37.916 26.212,36.642 l 0,0 z"
           style="fill:#505050;fill-opacity:1"
           id="path3989" />
        <path
           d="m 58.791,93.913 c 1.107,8.454 -6.202,12.629 -13.36,7.179 C 22.644,83.743 83.16,75.088 79.171,51.386 75.86,31.712 15.495,37.769 8.621,68.553 3.968,89.374 27.774,118.26 52.614,118.26 c 12.22,0 26.315,-11.034 28.952,-25.012 C 83.58,82.589 57.867,86.86 58.791,93.913 l 0,0 z"
           style="fill:#505050;fill-opacity:1"
           id="path3991" />
      </g>
    </g>
    <g
       id="g3771"
       style="fill:#787878;fill-opacity:1;fill-rule:nonzero;stroke:none"
       transform="matrix(0.01310146,0,0,0.01310146,23.369755,1038.4727)">
      <g
         id="g3773"
         style="fill:#787878;fill-opacity:1">
        <path
           id="path3775"
           style="fill:#787878;fill-opacity:1"
           d="M 86.068,0 C 61.466,0 56.851,35.041 70.691,35.041 84.529,35.041 110.671,0 86.068,0 z" />
        <path
           id="path3777"
           style="fill:#787878;fill-opacity:1"
           d="M 45.217,30.699 C 52.586,31.149 60.671,2.577 46.821,4.374 32.976,6.171 37.845,30.249 45.217,30.699 z" />
        <path
           id="path3779"
           style="fill:#787878;fill-opacity:1"
           d="M 11.445,48.453 C 16.686,46.146 12.12,23.581 3.208,29.735 -5.7,35.89 6.204,50.759 11.445,48.453 z" />
        <path
           id="path3781"
           style="fill:#787878;fill-opacity:1"
           d="M 26.212,36.642 C 32.451,35.37 32.793,9.778 21.667,14.369 10.539,18.961 19.978,37.916 26.212,36.642 l 0,0 z" />
        <path
           id="path3783"
           style="fill:#787878;fill-opacity:1"
           d="m 58.791,93.913 c 1.107,8.454 -6.202,12.629 -13.36,7.179 C 22.644,83.743 83.16,75.088 79.171,51.386 75.86,31.712 15.495,37.769 8.621,68.553 3.968,89.374 27.774,118.26 52.614,118.26 c 12.22,0 26.315,-11.034 28.952,-25.012 C 83.58,82.589 57.867,86.86 58.791,93.913 l 0,0 z" />
      </g>
    </g>
    <g
       id="g3838"
       transform="translate(56.999996,-0.50001581)">
      <path
         sodipodi:nodetypes="cccccc"
         id="rect3047"
         d="m -52.326141,1012.4392 26.576145,0 c 4.571378,1.8215 8.502913,4.3894 12.076145,7.3754 l 0,17.5003 -38.65229,0 0,-24.8757 z"
         style="fill:url(#linearGradient3843);fill-opacity:1;stroke:none" />
      <path
         sodipodi:nodetypes="cccc"
         id="path3828"
         d="m -13.674,1020.3772 c -3.982998,-0.2967 -8.434014,-0.8163 -12.575996,-10e-5 0.295129,-2.4585 0.980909,-5.4794 0,-7.9379 4.731511,1.9541 8.998624,5.1595 12.575996,7.938 z"
         style="fill:#505050;fill-opacity:0.78431373;stroke:none" />
      <path
         style="fill:url(#linearGradient3845);fill-opacity:1;stroke:none"
         d="m -13.673851,1019.8146 c -3.982998,-0.2967 -7.934163,-0.8162 -12.076145,0 0.295129,-2.4585 0.980909,-4.9169 0,-7.3754 4.778435,1.8368 8.706758,4.5769 12.076145,7.3754 z"
         id="path3052"
         sodipodi:nodetypes="cccc" />
    </g>
    <g
       id="g2931"
       transform="translate(11.932426,-4.4127231)">
      <g
         transform="matrix(0.74647913,0,0,0.74647913,-5.8479253,264.11868)"
         id="g4008">
        <path
           id="path4004"
           d="m 24.3125,1016.1899 c -0.08012,0.019 -0.13867,0.077 -0.1875,0.1562 l -2.5,4.0313 2.28125,3.6875 c 0.02146,0.034 0.01977,0.089 0.03125,0.125 0.02275,-0.021 0.07615,-0.033 0.09375,-0.062 l 3.46875,-5.688 c 0.09426,-0.1535 0.06214,-0.3738 -0.09375,-0.4688 l -2.84375,-1.7187 c -0.08168,-0.047 -0.17154,-0.082 -0.25,-0.062 z m -4.4375,2.1562 c -0.02871,0.01 -0.0514,0.036 -0.09375,0.062 l -2.84375,1.7188 c -0.156911,0.096 -0.19061,0.3109 -0.09375,0.4687 l 2.46875,4 4.1875,0 c 0.05438,0 0.085,0.05 0.125,0.062 0.154282,-0.095 0.18963,-0.3126 0.09375,-0.4687 L 20.25,1018.5024 c -0.07158,-0.1162 -0.220857,-0.1753 -0.34375,-0.1563 -0.0023,3e-4 -0.02865,-6e-4 -0.03125,0 z m 6.65625,2.125 -2.3125,3.75 c 0.04362,0.1284 0.136991,0.2188 0.28125,0.2188 l 6.65625,0 c 0.185087,0 0.34375,-0.131 0.34375,-0.3125 l 0,-3.3438 c 0,-0.1815 -0.162277,-0.3125 -0.34375,-0.3125 l -4.625,0 z m -2.09375,4.1875 c -0.08683,0.106 -0.13498,0.2569 -0.0625,0.375 l 3.5,5.6875 c 0.09634,0.1565 0.279539,0.1908 0.4375,0.094 l 2.84375,-1.75 c 0.155889,-0.095 0.18801,-0.2839 0.09375,-0.4375 l -2.40625,-3.9375 -4.34375,0 c -0.02663,0 -0.03893,-0.031 -0.0625,-0.031 z m -7.625,0.1875 c -0.18508,0 -0.3125,0.1274 -0.3125,0.3125 l 0,3.3438 c 0,0.1851 0.12742,0.3125 0.3125,0.3125 l 4.75,0 2.25,-3.6563 c -0.0048,-0.1766 -0.130734,-0.3125 -0.3125,-0.3125 l -6.6875,0 z m 7.34375,0.25 c -0.03637,0.023 -0.06951,0.023 -0.09375,0.062 l -3.5,5.6875 c -0.09686,0.1577 -0.03191,0.3728 0.125,0.4688 l 2.8125,1.7187 c 0.156351,0.096 0.37401,0.061 0.46875,-0.094 l 2.5,-4.0625 -2.28125,-3.7188 c -0.01156,-0.019 -0.02245,-0.043 -0.03125,-0.062 z"
           style="font-size:medium;font-style:normal;font-variant:normal;font-weight:normal;font-stretch:normal;text-indent:0;text-align:start;text-decoration:none;line-height:normal;letter-spacing:normal;word-spacing:normal;text-transform:none;direction:ltr;block-progression:tb;writing-mode:lr-tb;text-anchor:start;color:#000000;fill:#9dd144;fill-opacity:1;fill-rule:nonzero;stroke:none;stroke-width:0.60000002;marker:none;visibility:visible;display:inline;overflow:visible;enable-background:accumulate;font-family:'A.C.M.E. Secret Agent';-inkscape-font-specification:'A.C.M.E. Secret Agent'" />
        <path
           id="path4000"
           d="m 24.3125,1015.6595 c -0.08012,0.019 -0.13867,0.077 -0.1875,0.1563 l -2.5,4.0312 2.28125,3.6875 c 0.02146,0.034 0.01977,0.089 0.03125,0.125 0.02275,-0.021 0.07615,-0.034 0.09375,-0.062 l 3.46875,-5.688 c 0.09426,-0.1535 0.06214,-0.3737 -0.09375,-0.4687 l -2.84375,-1.7188 c -0.08168,-0.047 -0.17154,-0.082 -0.25,-0.062 z m -4.4375,2.1563 c -0.02871,0.01 -0.0514,0.036 -0.09375,0.062 l -2.84375,1.7187 c -0.156911,0.096 -0.19061,0.311 -0.09375,0.4688 l 2.46875,4 4.1875,0 c 0.05438,0 0.085,0.049 0.125,0.062 0.154282,-0.095 0.18963,-0.3127 0.09375,-0.4688 L 20.25,1017.972 c -0.07158,-0.1162 -0.220857,-0.1752 -0.34375,-0.1562 -0.0023,3e-4 -0.02865,-6e-4 -0.03125,0 z m 6.65625,2.125 -2.3125,3.75 c 0.04362,0.1284 0.136991,0.2187 0.28125,0.2187 l 6.65625,0 c 0.185087,0 0.34375,-0.131 0.34375,-0.3125 l 0,-3.3437 c 0,-0.1815 -0.162277,-0.3125 -0.34375,-0.3125 l -4.625,0 z m -2.09375,4.1875 c -0.08683,0.106 -0.13498,0.2569 -0.0625,0.375 l 3.5,5.6875 c 0.09634,0.1565 0.279539,0.1907 0.4375,0.094 l 2.84375,-1.75 c 0.155889,-0.095 0.18801,-0.2839 0.09375,-0.4375 l -2.40625,-3.9375 -4.34375,0 c -0.02663,0 -0.03893,-0.031 -0.0625,-0.031 z m -7.625,0.1875 c -0.18508,0 -0.3125,0.1274 -0.3125,0.3125 l 0,3.3437 c 0,0.1851 0.12742,0.3125 0.3125,0.3125 l 4.75,0 2.25,-3.6562 c -0.0048,-0.1766 -0.130734,-0.3125 -0.3125,-0.3125 l -6.6875,0 z m 7.34375,0.25 c -0.03637,0.023 -0.06951,0.023 -0.09375,0.062 l -3.5,5.6875 c -0.09686,0.1577 -0.03191,0.3727 0.125,0.4687 l 2.8125,1.7188 c 0.156351,0.096 0.37401,0.061 0.46875,-0.094 l 2.5,-4.0625 -2.28125,-3.7187 c -0.01156,-0.019 -0.02245,-0.043 -0.03125,-0.062 z"
           style="font-size:medium;font-style:normal;font-variant:normal;font-weight:normal;font-stretch:normal;text-indent:0;text-align:start;text-decoration:none;line-height:normal;letter-spacing:normal;word-spacing:normal;text-transform:none;direction:ltr;block-progression:tb;writing-mode:lr-tb;text-anchor:start;color:#000000;fill:#255900;fill-opacity:1;fill-rule:nonzero;stroke:none;stroke-width:0.60000002;marker:none;visibility:visible;display:inline;overflow:visible;enable-background:accumulate;font-family:'A.C.M.E. Secret Agent';-inkscape-font-specification:'A.C.M.E. Secret Agent'" />
        <path
           style="font-size:medium;font-style:normal;font-variant:normal;font-weight:normal;font-stretch:normal;text-indent:0;text-align:start;text-decoration:none;line-height:normal;letter-spacing:normal;word-spacing:normal;text-transform:none;direction:ltr;block-progression:tb;writing-mode:lr-tb;text-anchor:start;color:#000000;fill:#619408;fill-opacity:1;fill-rule:nonzero;stroke:none;stroke-width:0.60000002;marker:none;visibility:visible;display:inline;overflow:visible;enable-background:accumulate;font-family:'A.C.M.E. Secret Agent';-inkscape-font-specification:'A.C.M.E. Secret Agent'"
           d="m 24.3125,11.5625 c -0.08012,0.0192 -0.13867,0.07725 -0.1875,0.15625 l -2.5,4.03125 2.28125,3.6875 c 0.02146,0.0345 0.01977,0.089 0.03125,0.125 0.02275,-0.021 0.07615,-0.0335 0.09375,-0.0625 L 27.5,13.8125 c 0.09426,-0.1535 0.06214,-0.37375 -0.09375,-0.46875 L 24.5625,11.625 c -0.08168,-0.047 -0.17154,-0.0815 -0.25,-0.0625 z m -4.4375,2.15625 c -0.02871,0.007 -0.0514,0.0365 -0.09375,0.0625 L 16.9375,15.5 c -0.156911,0.0962 -0.19061,0.31095 -0.09375,0.46875 l 2.46875,4 4.1875,0 c 0.05438,0 0.085,0.0495 0.125,0.0625 0.154282,-0.0946 0.18963,-0.31265 0.09375,-0.46875 L 20.25,13.875 c -0.07158,-0.1162 -0.220857,-0.17525 -0.34375,-0.15625 -0.0023,3e-4 -0.02865,-6e-4 -0.03125,0 z m 6.65625,2.125 -2.3125,3.75 c 0.04362,0.1284 0.136991,0.21875 0.28125,0.21875 l 6.65625,0 C 31.341337,19.8125 31.5,19.6815 31.5,19.5 l 0,-3.34375 c 0,-0.1815 -0.162277,-0.3125 -0.34375,-0.3125 l -4.625,0 z m -2.09375,4.1875 c -0.08683,0.106 -0.13498,0.2569 -0.0625,0.375 l 3.5,5.6875 c 0.09634,0.1565 0.279539,0.19075 0.4375,0.09375 l 2.84375,-1.75 C 31.312139,24.342 31.34426,24.1536 31.25,24 l -2.40625,-3.9375 -4.34375,0 c -0.02663,0 -0.03893,-0.03125 -0.0625,-0.03125 z m -7.625,0.1875 c -0.18508,0 -0.3125,0.1274 -0.3125,0.3125 l 0,3.34375 c 0,0.1851 0.12742,0.3125 0.3125,0.3125 l 4.75,0 2.25,-3.65625 c -0.0048,-0.1766 -0.130734,-0.3125 -0.3125,-0.3125 l -6.6875,0 z m 7.34375,0.25 c -0.03637,0.023 -0.06951,0.0225 -0.09375,0.0625 l -3.5,5.6875 c -0.09686,0.1577 -0.03191,0.37275 0.125,0.46875 L 23.5,28.40625 c 0.156351,0.0958 0.37401,0.06055 0.46875,-0.09375 l 2.5,-4.0625 -2.28125,-3.71875 c -0.01156,-0.019 -0.02245,-0.0435 -0.03125,-0.0625 z"
           transform="translate(0,1004.3622)"
           id="rect3618" />
      </g>
    </g>
  </g>
</svg>
