<?xml version="1.0" encoding="UTF-8" standalone="no"?>
<!-- Created with Inkscape (http://www.inkscape.org/) -->

<svg
   xmlns:dc="http://purl.org/dc/elements/1.1/"
   xmlns:cc="http://creativecommons.org/ns#"
   xmlns:rdf="http://www.w3.org/1999/02/22-rdf-syntax-ns#"
   xmlns:svg="http://www.w3.org/2000/svg"
   xmlns="http://www.w3.org/2000/svg"
   xmlns:xlink="http://www.w3.org/1999/xlink"
   xmlns:sodipodi="http://sodipodi.sourceforge.net/DTD/sodipodi-0.dtd"
   xmlns:inkscape="http://www.inkscape.org/namespaces/inkscape"
   width="48"
   height="48"
   id="svg2"
   version="1.1"
   inkscape:version="0.47pre4 r22446"
   sodipodi:docname="help-contents.svg">
  <defs
     id="defs4">
    <linearGradient
       id="linearGradient3679">
      <stop
         id="stop3681"
         offset="0"
         style="stop-color:#ffffff;stop-opacity:1;" />
      <stop
         id="stop3683"
         offset="1"
         style="stop-color:#000000;stop-opacity:0" />
    </linearGradient>
    <linearGradient
       id="linearGradient3665">
      <stop
         id="stop3667"
         offset="0"
         style="stop-color:#ffffff;stop-opacity:1;" />
      <stop
         id="stop3669"
         offset="1"
         style="stop-color:#dcdcdc;stop-opacity:1" />
    </linearGradient>
    <linearGradient
       id="linearGradient3635">
      <stop
         style="stop-color:#ffffff;stop-opacity:1;"
         offset="0"
         id="stop3637" />
      <stop
         style="stop-color:#dcdcdc;stop-opacity:1;"
         offset="1"
         id="stop3639" />
    </linearGradient>
    <linearGradient
       id="linearGradient3628">
      <stop
         style="stop-color:#5785a6;stop-opacity:1;"
         offset="0"
         id="stop3630" />
      <stop
         style="stop-color:#113f4c;stop-opacity:1;"
         offset="1"
         id="stop3632" />
    </linearGradient>
    <linearGradient
       id="linearGradient3632">
      <stop
         style="stop-color:#ffffff;stop-opacity:1;"
         offset="0"
         id="stop3634" />
      <stop
         style="stop-color:#f0f0f0;stop-opacity:1;"
         offset="1"
         id="stop3636" />
    </linearGradient>
    <linearGradient
       id="linearGradient3618">
      <stop
         style="stop-color:#9cc430;stop-opacity:1;"
         offset="0"
         id="stop3620" />
      <stop
         style="stop-color:#9cc430;stop-opacity:0;"
         offset="1"
         id="stop3622" />
    </linearGradient>
    <linearGradient
       id="linearGradient3723">
      <stop
         style="stop-color:#ffffff;stop-opacity:0.78431374;"
         offset="0"
         id="stop3725" />
      <stop
         style="stop-color:#ffffff;stop-opacity:0;"
         offset="1"
         id="stop3727" />
    </linearGradient>
    <linearGradient
       id="linearGradient3715">
      <stop
         style="stop-color:#99bbd4;stop-opacity:1;"
         offset="0"
         id="stop3717" />
      <stop
         style="stop-color:#5d93ba;stop-opacity:1;"
         offset="1"
         id="stop3719" />
    </linearGradient>
    <linearGradient
       id="linearGradient3707">
      <stop
         style="stop-color:#a6c4d9;stop-opacity:0.78431374;"
         offset="0"
         id="stop3709" />
      <stop
         style="stop-color:#75a3c3;stop-opacity:1;"
         offset="1"
         id="stop3711" />
    </linearGradient>
    <inkscape:perspective
       sodipodi:type="inkscape:persp3d"
       inkscape:vp_x="0 : 526.18109 : 1"
       inkscape:vp_y="0 : 1000 : 0"
       inkscape:vp_z="744.09448 : 526.18109 : 1"
       inkscape:persp3d-origin="372.04724 : 350.78739 : 1"
       id="perspective10" />
    <inkscape:perspective
       id="perspective2920"
       inkscape:persp3d-origin="0.5 : 0.33333333 : 1"
       inkscape:vp_z="1 : 0.5 : 1"
       inkscape:vp_y="0 : 1000 : 0"
       inkscape:vp_x="0 : 0.5 : 1"
       sodipodi:type="inkscape:persp3d" />
    <linearGradient
       inkscape:collect="always"
       xlink:href="#linearGradient3707"
       id="linearGradient3713"
       x1="63.765881"
       y1="949.3266"
       x2="63.765881"
       y2="1029.8864"
       gradientUnits="userSpaceOnUse"
       gradientTransform="translate(0.2341189,5.74082)" />
    <linearGradient
       inkscape:collect="always"
       xlink:href="#linearGradient3715"
       id="linearGradient3721"
       x1="63.765881"
       y1="936.95227"
       x2="63.765881"
       y2="983.41931"
       gradientUnits="userSpaceOnUse"
       gradientTransform="translate(0.2341196,6.0908086)" />
    <linearGradient
       inkscape:collect="always"
       xlink:href="#linearGradient3723"
       id="linearGradient3729"
       x1="37.375645"
       y1="948.8266"
       x2="37.375645"
       y2="1030.7611"
       gradientUnits="userSpaceOnUse"
       gradientTransform="translate(0.2341189,5.74082)" />
    <linearGradient
       inkscape:collect="always"
       xlink:href="#linearGradient3715"
       id="linearGradient3735"
       gradientUnits="userSpaceOnUse"
       gradientTransform="translate(0.2341196,6.0908086)"
       x1="63.765881"
       y1="936.95227"
       x2="63.765881"
       y2="983.41931" />
    <linearGradient
       inkscape:collect="always"
       xlink:href="#linearGradient3707"
       id="linearGradient3737"
       gradientUnits="userSpaceOnUse"
       gradientTransform="translate(0.2341189,5.74082)"
       x1="63.765881"
       y1="949.3266"
       x2="63.765881"
       y2="1029.8864" />
    <linearGradient
       inkscape:collect="always"
       xlink:href="#linearGradient3723"
       id="linearGradient3739"
       gradientUnits="userSpaceOnUse"
       gradientTransform="translate(0.2341189,5.74082)"
       x1="37.375645"
       y1="948.8266"
       x2="37.375645"
       y2="1030.7611" />
    <linearGradient
       inkscape:collect="always"
       xlink:href="#linearGradient3707"
       id="linearGradient3742"
       gradientUnits="userSpaceOnUse"
       gradientTransform="matrix(1.0066488,0,0,1.0066488,0.21965498,-1.1089658)"
       x1="63.765881"
       y1="949.3266"
       x2="63.765881"
       y2="1029.8864" />
    <linearGradient
       inkscape:collect="always"
       xlink:href="#linearGradient3723"
       id="linearGradient3744"
       gradientUnits="userSpaceOnUse"
       gradientTransform="matrix(1.0066488,0,0,1.0066488,0.21965498,-1.1089658)"
       x1="37.375645"
       y1="948.8266"
       x2="37.375645"
       y2="1030.7611" />
    <linearGradient
       inkscape:collect="always"
       xlink:href="#linearGradient3715"
       id="linearGradient3747"
       gradientUnits="userSpaceOnUse"
       gradientTransform="matrix(1.0066488,0,0,1.0066488,0.21965567,-0.75665045)"
       x1="63.765881"
       y1="936.95227"
       x2="63.765881"
       y2="983.41931" />
    <linearGradient
       inkscape:collect="always"
       xlink:href="#linearGradient3715"
       id="linearGradient3753"
       gradientUnits="userSpaceOnUse"
       gradientTransform="matrix(1.0066488,0,0,1.0066488,0.21965567,-0.75665045)"
       x1="63.765881"
       y1="936.95227"
       x2="63.765881"
       y2="983.41931" />
    <linearGradient
       inkscape:collect="always"
       xlink:href="#linearGradient3707"
       id="linearGradient3755"
       gradientUnits="userSpaceOnUse"
       gradientTransform="matrix(1.0066488,0,0,1.0066488,0.21965498,-1.1089658)"
       x1="63.765881"
       y1="949.3266"
       x2="63.765881"
       y2="1029.8864" />
    <linearGradient
       inkscape:collect="always"
       xlink:href="#linearGradient3723"
       id="linearGradient3757"
       gradientUnits="userSpaceOnUse"
       gradientTransform="matrix(1.0066488,0,0,1.0066488,0.21965498,-1.1089658)"
       x1="37.375645"
       y1="948.8266"
       x2="37.375645"
       y2="1030.7611" />
    <linearGradient
       inkscape:collect="always"
       xlink:href="#linearGradient3707"
       id="linearGradient2838"
       gradientUnits="userSpaceOnUse"
       gradientTransform="matrix(0.37749331,0,0,0.37749331,-0.07119206,657.42489)"
       x1="63.765881"
       y1="949.3266"
       x2="63.765881"
       y2="1029.8864" />
    <linearGradient
       inkscape:collect="always"
       xlink:href="#linearGradient3723"
       id="linearGradient2840"
       gradientUnits="userSpaceOnUse"
       gradientTransform="matrix(0.37749331,0,0,0.37749331,-0.07119206,657.42489)"
       x1="37.375645"
       y1="948.8266"
       x2="37.375645"
       y2="1030.7611" />
    <linearGradient
       inkscape:collect="always"
       xlink:href="#linearGradient3715"
       id="linearGradient2843"
       gradientUnits="userSpaceOnUse"
       gradientTransform="matrix(0.37749331,0,0,0.37749331,-0.0711918,657.55701)"
       x1="63.765881"
       y1="941.44623"
       x2="63.765881"
       y2="965.56183" />
    <linearGradient
       inkscape:collect="always"
       xlink:href="#linearGradient3632"
       id="linearGradient3638"
       x1="25.228586"
       y1="28.55187"
       x2="43.03125"
       y2="45.21875"
       gradientUnits="userSpaceOnUse"
       gradientTransform="translate(-61.619305,1038.2023)" />
    <linearGradient
       inkscape:collect="always"
       xlink:href="#linearGradient3628"
       id="linearGradient3634"
       x1="-57.452427"
       y1="16.937809"
       x2="-57.452427"
       y2="47.494923"
       gradientUnits="userSpaceOnUse" />
    <filter
       inkscape:collect="always"
       id="filter3641">
      <feGaussianBlur
         inkscape:collect="always"
         stdDeviation="0.30557114"
         id="feGaussianBlur3643" />
    </filter>
    <linearGradient
       inkscape:collect="always"
       xlink:href="#linearGradient3628"
       id="linearGradient3656"
       gradientUnits="userSpaceOnUse"
       x1="-57.452427"
       y1="16.937809"
       x2="-57.452427"
       y2="47.494923" />
    <linearGradient
       inkscape:collect="always"
       xlink:href="#linearGradient3628"
       id="linearGradient3663"
       gradientUnits="userSpaceOnUse"
       x1="-57.452427"
       y1="16.937809"
       x2="-57.452427"
       y2="47.494923" />
    <linearGradient
       inkscape:collect="always"
       xlink:href="#linearGradient3628"
       id="linearGradient3672"
       gradientUnits="userSpaceOnUse"
       x1="-57.452427"
       y1="16.937809"
       x2="-57.452427"
       y2="47.494923" />
    <linearGradient
       inkscape:collect="always"
       xlink:href="#linearGradient3635"
       id="linearGradient3641"
       x1="24.000004"
       y1="1020.3309"
       x2="24.000004"
       y2="1036.8722"
       gradientUnits="userSpaceOnUse"
       gradientTransform="translate(-45.714285,20.892857)" />
    <linearGradient
       gradientUnits="userSpaceOnUse"
       xlink:href="#linearGradient3400"
       id="linearGradient3406"
       y2="47.760197"
       x2="20.494444"
       y1="6.0097799"
       x1="20.494444" />
    <linearGradient
       id="linearGradient3400">
      <stop
         offset="0"
         style="stop-color:white;stop-opacity:1"
         id="stop3402" />
      <stop
         offset="1"
         style="stop-color:white;stop-opacity:0"
         id="stop3404" />
    </linearGradient>
    <linearGradient
       gradientTransform="matrix(1.017301,-0.243559,0.243559,1.017301,110.52469,-7.9553513)"
       gradientUnits="userSpaceOnUse"
       xlink:href="#linearGradient2264"
       id="linearGradient2628"
       y2="24.558243"
       x2="-91.513138"
       y1="-5.3878593"
       x1="-84.343536" />
    <linearGradient
       id="linearGradient2264">
      <stop
         offset="0"
         style="stop-color:#d7e866;stop-opacity:1"
         id="stop2266" />
      <stop
         offset="1"
         style="stop-color:#8cab2a;stop-opacity:1"
         id="stop2268" />
    </linearGradient>
    <radialGradient
       gradientTransform="matrix(1,0,0,0.536723,0,16.87306)"
       gradientUnits="userSpaceOnUse"
       xlink:href="#linearGradient8662"
       id="radialGradient1444"
       fy="36.421127"
       fx="24.837126"
       r="15.644737"
       cy="36.421127"
       cx="24.837126" />
    <linearGradient
       id="linearGradient8662">
      <stop
         offset="0"
         style="stop-color:black;stop-opacity:1"
         id="stop8664" />
      <stop
         offset="1"
         style="stop-color:black;stop-opacity:0"
         id="stop8666" />
    </linearGradient>
    <inkscape:perspective
       id="perspective2884"
       inkscape:persp3d-origin="24 : 16 : 1"
       inkscape:vp_z="48 : 24 : 1"
       inkscape:vp_y="0 : 1000 : 0"
       inkscape:vp_x="0 : 24 : 1"
       sodipodi:type="inkscape:persp3d" />
    <linearGradient
       inkscape:collect="always"
       xlink:href="#linearGradient3400"
       id="linearGradient2904"
       gradientUnits="userSpaceOnUse"
       x1="20.494444"
       y1="6.0097799"
       x2="20.494444"
       y2="47.760197"
       gradientTransform="translate(-60.365495,1002.1313)" />
    <radialGradient
       inkscape:collect="always"
       xlink:href="#linearGradient8662"
       id="radialGradient2910"
       gradientUnits="userSpaceOnUse"
       gradientTransform="matrix(1.214466,0,0,0.319596,-66.529341,1032.4912)"
       cx="24.837126"
       cy="36.421127"
       fx="24.837126"
       fy="36.421127"
       r="15.644737" />
    <linearGradient
       inkscape:collect="always"
       xlink:href="#linearGradient3635"
       id="linearGradient3661"
       x1="-48.075367"
       y1="987.02838"
       x2="-48.075367"
       y2="1015.7682"
       gradientUnits="userSpaceOnUse"
       gradientTransform="matrix(0.87165089,0,0,0.87165089,24.297797,129.40887)" />
    <linearGradient
       inkscape:collect="always"
       xlink:href="#linearGradient3635"
       id="linearGradient3664"
       x1="-47"
       y1="8.625"
       x2="-47"
       y2="31.3125"
       gradientUnits="userSpaceOnUse"
       gradientTransform="matrix(-1.1253242,0,0,1.1253242,41.324056,1008.0187)" />
    <linearGradient
       inkscape:collect="always"
       xlink:href="#linearGradient3635"
       id="linearGradient3702"
       x1="24.000004"
       y1="1014.3157"
       x2="24.000004"
       y2="1040.2357"
       gradientUnits="userSpaceOnUse" />
    <linearGradient
       inkscape:collect="always"
       xlink:href="#linearGradient3635"
       id="linearGradient2893"
       gradientUnits="userSpaceOnUse"
       x1="24.000004"
       y1="1014.3157"
       x2="24.000004"
       y2="1040.2357" />
    <linearGradient
       inkscape:collect="always"
       xlink:href="#linearGradient3665"
       id="linearGradient3676"
       x1="24.000004"
       y1="1013.6558"
       x2="24.000004"
       y2="1040.8958"
       gradientUnits="userSpaceOnUse" />
  </defs>
  <sodipodi:namedview
     id="base"
     pagecolor="#ffffff"
     bordercolor="#666666"
     borderopacity="1.0"
     inkscape:pageopacity="0.0"
     inkscape:pageshadow="2"
     inkscape:zoom="1.979899"
     inkscape:cx="12.450296"
     inkscape:cy="-2.1495885"
     inkscape:document-units="px"
     inkscape:current-layer="layer1"
     showgrid="false"
     showguides="true"
     inkscape:guide-bbox="true"
     inkscape:window-width="1280"
     inkscape:window-height="714"
     inkscape:window-x="0"
     inkscape:window-y="25"
     inkscape:window-maximized="1" />
  <metadata
     id="metadata7">
    <rdf:RDF>
      <cc:Work
         rdf:about="">
        <dc:format>image/svg+xml</dc:format>
        <dc:type
           rdf:resource="http://purl.org/dc/dcmitype/StillImage" />
        <dc:title />
      </cc:Work>
    </rdf:RDF>
  </metadata>
  <g
     inkscape:label="Livello 1"
     inkscape:groupmode="layer"
     id="layer1"
     transform="translate(0,-1004.3622)">
    <path
       transform="matrix(1.3360904,0,0,1.3360904,100.76164,985.42484)"
       d="m -42.17387,32.216366 c 0,8.438114 -6.840443,15.278557 -15.278557,15.278557 -8.438114,0 -15.278557,-6.840443 -15.278557,-15.278557 0,-8.438114 6.840443,-15.278557 15.278557,-15.278557 8.438114,0 15.278557,6.840443 15.278557,15.278557 z"
       sodipodi:ry="15.278557"
       sodipodi:rx="15.278557"
       sodipodi:cy="32.216366"
       sodipodi:cx="-57.452427"
       id="path3636"
       style="fill:#333333;fill-opacity:0.78431373;stroke:none;filter:url(#filter3641)"
       sodipodi:type="arc" />
    <path
       sodipodi:type="arc"
       style="fill:url(#linearGradient3672);fill-opacity:1;stroke:none"
       id="path3622"
       sodipodi:cx="-57.452427"
       sodipodi:cy="32.216366"
       sodipodi:rx="15.278557"
       sodipodi:ry="15.278557"
       d="m -42.17387,32.216366 c 0,8.438114 -6.840443,15.278557 -15.278557,15.278557 -8.438114,0 -15.278557,-6.840443 -15.278557,-15.278557 0,-8.438114 6.840443,-15.278557 15.278557,-15.278557 8.438114,0 15.278557,6.840443 15.278557,15.278557 z"
       transform="matrix(1.3360904,0,0,1.3360904,100.76164,984.23176)" />
    <g
       id="g3692"
       style="font-size:40px;font-style:normal;font-variant:normal;font-weight:normal;font-stretch:normal;fill:#7fadce;fill-opacity:1;stroke:none;font-family:Pegasus;-inkscape-font-specification:'A.C.M.E. Secret Agent'"
       transform="translate(0,0.50507626)">
      <path
         id="path3695"
         style="fill:#7fadce;fill-opacity:1"
         d="m 33.420004,1020.0158 c -2e-5,1.76 -0.906686,3.3067 -2.72,4.64 -1.680016,0.96 -3.400014,1.9467 -5.16,2.96 -1.733344,0.9867 -2.60001,2.0133 -2.6,3.08 -10e-6,0.2933 0.15999,0.6 0.48,0.92 0.346656,0.32 0.866656,0.6267 1.56,0.92 -0.613344,0 -1.120011,0.04 -1.52,0.12 -0.373343,0.053 -0.893343,0.2 -1.56,0.44 -0.266675,0.08 -0.560008,0.2 -0.88,0.36 -0.320007,0.16 -0.666674,0.3467 -1.04,0.56 -0.186673,-0.56 -0.33334,-1.04 -0.44,-1.44 -0.106673,-0.4 -0.160006,-0.8 -0.16,-1.2 -6e-6,-1.12 0.799993,-2.3733 2.4,-3.76 1.493323,-1.2267 2.986655,-2.4533 4.48,-3.68 1.626652,-1.52 2.439985,-2.96 2.44,-4.32 -1.5e-5,-1.2266 -0.480015,-2.2533 -1.44,-3.08 -0.933346,-0.8533 -2.040012,-1.28 -3.32,-1.28 -2.133342,0 -4.000007,0.6934 -5.6,2.08 -1.600003,1.36 -2.400003,3.1333 -2.4,5.32 l -1.36,-6.92 c 0.213332,0 0.359998,0 0.44,0 0.373331,0 0.639998,-0.013 0.8,-0.04 0.266664,-0.1066 0.479997,-0.1733 0.64,-0.2 1.226662,-0.4266 2.466661,-0.8666 3.72,-1.32 1.333325,-0.3466 2.573324,-0.52 3.72,-0.52 2.346654,0 4.519985,0.64 6.52,1.92 1.999981,1.2534 2.99998,2.7334 3,4.44 m -8.56,18.32 c -1.2e-5,0.72 -0.240011,1.3333 -0.72,1.84 -0.453344,0.48 -1.026676,0.72 -1.72,0.72 -0.693342,0 -1.306674,-0.2267 -1.84,-0.68 -0.506673,-0.48 -0.760007,-1.0667 -0.76,-1.76 -7e-6,-0.6933 0.22666,-1.2933 0.68,-1.8 0.479992,-0.5333 1.066658,-0.8 1.76,-0.8 0.693324,0 1.293323,0.2533 1.8,0.76 0.533322,0.48 0.799988,1.0533 0.8,1.72" />
    </g>
    <g
       id="g3678"
       style="font-size:40px;font-style:normal;font-variant:normal;font-weight:normal;font-stretch:normal;fill:#1b496a;fill-opacity:1;stroke:none;font-family:Pegasus;-inkscape-font-specification:'A.C.M.E. Secret Agent'"
       transform="translate(0,-0.50507626)">
      <path
         id="path3680"
         style="fill:#1b496a;fill-opacity:1"
         d="m 33.420004,1020.0158 c -2e-5,1.76 -0.906686,3.3067 -2.72,4.64 -1.680016,0.96 -3.400014,1.9467 -5.16,2.96 -1.733344,0.9867 -2.60001,2.0133 -2.6,3.08 -10e-6,0.2933 0.15999,0.6 0.48,0.92 0.346656,0.32 0.866656,0.6267 1.56,0.92 -0.613344,0 -1.120011,0.04 -1.52,0.12 -0.373343,0.053 -0.893343,0.2 -1.56,0.44 -0.266675,0.08 -0.560008,0.2 -0.88,0.36 -0.320007,0.16 -0.666674,0.3467 -1.04,0.56 -0.186673,-0.56 -0.33334,-1.04 -0.44,-1.44 -0.106673,-0.4 -0.160006,-0.8 -0.16,-1.2 -6e-6,-1.12 0.799993,-2.3733 2.4,-3.76 1.493323,-1.2267 2.986655,-2.4533 4.48,-3.68 1.626652,-1.52 2.439985,-2.96 2.44,-4.32 -1.5e-5,-1.2266 -0.480015,-2.2533 -1.44,-3.08 -0.933346,-0.8533 -2.040012,-1.28 -3.32,-1.28 -2.133342,0 -4.000007,0.6934 -5.6,2.08 -1.600003,1.36 -2.400003,3.1333 -2.4,5.32 l -1.36,-6.92 c 0.213332,0 0.359998,0 0.44,0 0.373331,0 0.639998,-0.013 0.8,-0.04 0.266664,-0.1066 0.479997,-0.1733 0.64,-0.2 1.226662,-0.4266 2.466661,-0.8666 3.72,-1.32 1.333325,-0.3466 2.573324,-0.52 3.72,-0.52 2.346654,0 4.519985,0.64 6.52,1.92 1.999981,1.2534 2.99998,2.7334 3,4.44 m -8.56,18.32 c -1.2e-5,0.72 -0.240011,1.3333 -0.72,1.84 -0.453344,0.48 -1.026676,0.72 -1.72,0.72 -0.693342,0 -1.306674,-0.2267 -1.84,-0.68 -0.506673,-0.48 -0.760007,-1.0667 -0.76,-1.76 -7e-6,-0.6933 0.22666,-1.2933 0.68,-1.8 0.479992,-0.5333 1.066658,-0.8 1.76,-0.8 0.693324,0 1.293323,0.2533 1.8,0.76 0.533322,0.48 0.799988,1.0533 0.8,1.72" />
    </g>
    <g
       style="font-size:40px;font-style:normal;font-variant:normal;font-weight:normal;font-stretch:normal;fill:url(#linearGradient3676);fill-opacity:1;stroke:none;font-family:Pegasus;-inkscape-font-specification:'A.C.M.E. Secret Agent'"
       id="text2889">
      <path
         d="m 33.420004,1020.0158 c -2e-5,1.76 -0.906686,3.3067 -2.72,4.64 -1.680016,0.96 -3.400014,1.9467 -5.16,2.96 -1.733344,0.9867 -2.60001,2.0133 -2.6,3.08 -10e-6,0.2933 0.15999,0.6 0.48,0.92 0.346656,0.32 0.866656,0.6267 1.56,0.92 -0.613344,0 -1.120011,0.04 -1.52,0.12 -0.373343,0.053 -0.893343,0.2 -1.56,0.44 -0.266675,0.08 -0.560008,0.2 -0.88,0.36 -0.320007,0.16 -0.666674,0.3467 -1.04,0.56 -0.186673,-0.56 -0.33334,-1.04 -0.44,-1.44 -0.106673,-0.4 -0.160006,-0.8 -0.16,-1.2 -6e-6,-1.12 0.799993,-2.3733 2.4,-3.76 1.493323,-1.2267 2.986655,-2.4533 4.48,-3.68 1.626652,-1.52 2.439985,-2.96 2.44,-4.32 -1.5e-5,-1.2266 -0.480015,-2.2533 -1.44,-3.08 -0.933346,-0.8533 -2.040012,-1.28 -3.32,-1.28 -2.133342,0 -4.000007,0.6934 -5.6,2.08 -1.600003,1.36 -2.400003,3.1333 -2.4,5.32 l -1.36,-6.92 c 0.213332,0 0.359998,0 0.44,0 0.373331,0 0.639998,-0.013 0.8,-0.04 0.266664,-0.1066 0.479997,-0.1733 0.64,-0.2 1.226662,-0.4266 2.466661,-0.8666 3.72,-1.32 1.333325,-0.3466 2.573324,-0.52 3.72,-0.52 2.346654,0 4.519985,0.64 6.52,1.92 1.999981,1.2534 2.99998,2.7334 3,4.44 m -8.56,18.32 c -1.2e-5,0.72 -0.240011,1.3333 -0.72,1.84 -0.453344,0.48 -1.026676,0.72 -1.72,0.72 -0.693342,0 -1.306674,-0.2267 -1.84,-0.68 -0.506673,-0.48 -0.760007,-1.0667 -0.76,-1.76 -7e-6,-0.6933 0.22666,-1.2933 0.68,-1.8 0.479992,-0.5333 1.066658,-0.8 1.76,-0.8 0.693324,0 1.293323,0.2533 1.8,0.76 0.533322,0.48 0.799988,1.0533 0.8,1.72"
         style="fill-opacity:1.0;fill:url(#linearGradient3676)"
         id="path2896" />
    </g>
  </g>
</svg>
