<?xml version="1.0" encoding="UTF-8" standalone="no"?>
<!-- Created with Inkscape (http://www.inkscape.org/) -->

<svg
   xmlns:dc="http://purl.org/dc/elements/1.1/"
   xmlns:cc="http://creativecommons.org/ns#"
   xmlns:rdf="http://www.w3.org/1999/02/22-rdf-syntax-ns#"
   xmlns:svg="http://www.w3.org/2000/svg"
   xmlns="http://www.w3.org/2000/svg"
   xmlns:xlink="http://www.w3.org/1999/xlink"
   xmlns:sodipodi="http://sodipodi.sourceforge.net/DTD/sodipodi-0.dtd"
   xmlns:inkscape="http://www.inkscape.org/namespaces/inkscape"
   width="48"
   height="48"
   id="svg3052"
   version="1.1"
   inkscape:version="0.47pre4 r22446"
   sodipodi:docname="totem.svg"
   inkscape:export-filename="/home/andrea/Documenti/MeliaeSVG/48/apps/png/totem.png"
   inkscape:export-xdpi="240"
   inkscape:export-ydpi="240">
  <defs
     id="defs3054">
    <linearGradient
       id="linearGradient4663">
      <stop
         style="stop-color:#787878;stop-opacity:1;"
         offset="0"
         id="stop4665" />
      <stop
         style="stop-color:#b4b4b4;stop-opacity:1;"
         offset="1"
         id="stop4667" />
    </linearGradient>
    <linearGradient
       id="linearGradient4366">
      <stop
         style="stop-color:#ffffff;stop-opacity:1;"
         offset="0"
         id="stop4368" />
      <stop
         style="stop-color:#a4c0c6;stop-opacity:1;"
         offset="1"
         id="stop4370" />
    </linearGradient>
    <linearGradient
       id="linearGradient4358">
      <stop
         style="stop-color:#000000;stop-opacity:1;"
         offset="0"
         id="stop4360" />
      <stop
         style="stop-color:#000000;stop-opacity:0;"
         offset="1"
         id="stop4362" />
    </linearGradient>
    <linearGradient
       id="linearGradient4346">
      <stop
         style="stop-color:#4b4a57;stop-opacity:1;"
         offset="0"
         id="stop4348" />
      <stop
         style="stop-color:#000000;stop-opacity:1;"
         offset="1"
         id="stop4350" />
    </linearGradient>
    <inkscape:perspective
       sodipodi:type="inkscape:persp3d"
       inkscape:vp_x="0 : 526.18109 : 1"
       inkscape:vp_y="0 : 1000 : 0"
       inkscape:vp_z="744.09448 : 526.18109 : 1"
       inkscape:persp3d-origin="372.04724 : 350.78739 : 1"
       id="perspective3060" />
    <radialGradient
       inkscape:collect="always"
       xlink:href="#linearGradient4346"
       id="radialGradient4352"
       cx="9.5535698"
       cy="1011.6878"
       fx="9.5535698"
       fy="1011.6878"
       r="19.910715"
       gradientTransform="matrix(1.6412741e-7,2.2781844,-2.3775704,1.9026356e-7,2414.937,992.11196)"
       gradientUnits="userSpaceOnUse" />
    <linearGradient
       inkscape:collect="always"
       xlink:href="#linearGradient4358"
       id="linearGradient4364"
       x1="7.5761442"
       y1="1010.0824"
       x2="7.5761442"
       y2="1012.0848"
       gradientUnits="userSpaceOnUse"
       gradientTransform="translate(10.925673,12.029785)" />
    <linearGradient
       inkscape:collect="always"
       xlink:href="#linearGradient4366"
       id="linearGradient4372"
       x1="24.107143"
       y1="1010.6623"
       x2="29.586201"
       y2="1032.8856"
       gradientUnits="userSpaceOnUse"
       gradientTransform="translate(0,2)" />
    <linearGradient
       inkscape:collect="always"
       xlink:href="#linearGradient4358"
       id="linearGradient4564"
       gradientUnits="userSpaceOnUse"
       gradientTransform="matrix(0.98256626,-0.18591271,-0.18591271,-0.98256626,189.06188,2018.1982)"
       x1="21.960569"
       y1="1020.1122"
       x2="21.960569"
       y2="1016.1083" />
    <filter
       inkscape:collect="always"
       id="filter4568"
       x="-0.033037974"
       width="1.0660759"
       y="-0.32625002"
       height="1.6525">
      <feGaussianBlur
         inkscape:collect="always"
         stdDeviation="0.5825893"
         id="feGaussianBlur4570" />
    </filter>
    <linearGradient
       inkscape:collect="always"
       xlink:href="#linearGradient4366"
       id="linearGradient4619"
       gradientUnits="userSpaceOnUse"
       gradientTransform="translate(-189.33232,-2017.1366)"
       x1="24.107143"
       y1="1010.6623"
       x2="29.586201"
       y2="1032.8856" />
    <linearGradient
       inkscape:collect="always"
       xlink:href="#linearGradient4346"
       id="linearGradient4655"
       x1="6.8412118"
       y1="1014.1122"
       x2="6.8412118"
       y2="1022.1122"
       gradientUnits="userSpaceOnUse"
       gradientTransform="matrix(1,0,0,1.2209709,0,-224.08925)" />
    <linearGradient
       inkscape:collect="always"
       xlink:href="#linearGradient4663"
       id="linearGradient3644"
       gradientUnits="userSpaceOnUse"
       x1="4.7767859"
       y1="16.950893"
       x2="5.7142859"
       y2="16.950893" />
    <linearGradient
       inkscape:collect="always"
       xlink:href="#linearGradient4346"
       id="linearGradient3646"
       gradientUnits="userSpaceOnUse"
       x1="4.2133107"
       y1="1021.3056"
       x2="7.1468058"
       y2="1021.3056" />
    <linearGradient
       inkscape:collect="always"
       xlink:href="#linearGradient4663"
       id="linearGradient3654"
       gradientUnits="userSpaceOnUse"
       x1="4.7767859"
       y1="16.950893"
       x2="5.7142859"
       y2="16.950893" />
    <linearGradient
       inkscape:collect="always"
       xlink:href="#linearGradient4346"
       id="linearGradient3656"
       gradientUnits="userSpaceOnUse"
       x1="4.2133107"
       y1="1021.3056"
       x2="7.1468058"
       y2="1021.3056" />
    <linearGradient
       inkscape:collect="always"
       xlink:href="#linearGradient4663"
       id="linearGradient3664"
       gradientUnits="userSpaceOnUse"
       x1="4.7767859"
       y1="16.950893"
       x2="5.7142859"
       y2="16.950893" />
    <linearGradient
       inkscape:collect="always"
       xlink:href="#linearGradient4346"
       id="linearGradient3666"
       gradientUnits="userSpaceOnUse"
       x1="4.2133107"
       y1="1021.3056"
       x2="7.1468058"
       y2="1021.3056" />
    <filter
       inkscape:collect="always"
       id="filter3676"
       x="-0.090467703"
       width="1.1809354"
       y="-0.10225299"
       height="1.204506">
      <feGaussianBlur
         inkscape:collect="always"
         stdDeviation="0.20713048"
         id="feGaussianBlur3678" />
    </filter>
    <radialGradient
       inkscape:collect="always"
       xlink:href="#linearGradient4346"
       id="radialGradient3894"
       gradientUnits="userSpaceOnUse"
       gradientTransform="matrix(1.6412741e-7,2.2781844,-2.3775704,1.9026356e-7,2414.937,992.11196)"
       cx="9.5535698"
       cy="1011.6878"
       fx="9.5535698"
       fy="1011.6878"
       r="19.910715" />
    <linearGradient
       inkscape:collect="always"
       xlink:href="#linearGradient4366"
       id="linearGradient3896"
       gradientUnits="userSpaceOnUse"
       gradientTransform="translate(0,2)"
       x1="24.107143"
       y1="1010.6623"
       x2="29.586201"
       y2="1032.8856" />
    <linearGradient
       inkscape:collect="always"
       xlink:href="#linearGradient4358"
       id="linearGradient3898"
       gradientUnits="userSpaceOnUse"
       gradientTransform="translate(10.925673,12.029785)"
       x1="7.5761442"
       y1="1010.0824"
       x2="7.5761442"
       y2="1012.0848" />
    <linearGradient
       inkscape:collect="always"
       xlink:href="#linearGradient4358"
       id="linearGradient3900"
       gradientUnits="userSpaceOnUse"
       gradientTransform="matrix(0.98256626,-0.18591271,-0.18591271,-0.98256626,189.06188,2018.1982)"
       x1="21.960569"
       y1="1020.1122"
       x2="21.960569"
       y2="1016.1083" />
    <linearGradient
       inkscape:collect="always"
       xlink:href="#linearGradient4366"
       id="linearGradient3902"
       gradientUnits="userSpaceOnUse"
       gradientTransform="translate(-189.33232,-2017.1366)"
       x1="24.107143"
       y1="1010.6623"
       x2="29.586201"
       y2="1032.8856" />
    <linearGradient
       inkscape:collect="always"
       xlink:href="#linearGradient4346"
       id="linearGradient3904"
       gradientUnits="userSpaceOnUse"
       gradientTransform="matrix(1,0,0,1.2209709,0,-224.08925)"
       x1="6.8412118"
       y1="1014.1122"
       x2="6.8412118"
       y2="1022.1122" />
    <linearGradient
       inkscape:collect="always"
       xlink:href="#linearGradient4663"
       id="linearGradient3906"
       gradientUnits="userSpaceOnUse"
       x1="4.7767859"
       y1="16.950893"
       x2="5.7142859"
       y2="16.950893" />
    <linearGradient
       inkscape:collect="always"
       xlink:href="#linearGradient4346"
       id="linearGradient3908"
       gradientUnits="userSpaceOnUse"
       x1="4.2133107"
       y1="1021.3056"
       x2="7.1468058"
       y2="1021.3056" />
    <linearGradient
       inkscape:collect="always"
       xlink:href="#linearGradient4663"
       id="linearGradient3910"
       gradientUnits="userSpaceOnUse"
       x1="4.7767859"
       y1="16.950893"
       x2="5.7142859"
       y2="16.950893" />
    <linearGradient
       inkscape:collect="always"
       xlink:href="#linearGradient4346"
       id="linearGradient3912"
       gradientUnits="userSpaceOnUse"
       x1="4.2133107"
       y1="1021.3056"
       x2="7.1468058"
       y2="1021.3056" />
    <linearGradient
       inkscape:collect="always"
       xlink:href="#linearGradient4663"
       id="linearGradient3914"
       gradientUnits="userSpaceOnUse"
       x1="4.7767859"
       y1="16.950893"
       x2="5.7142859"
       y2="16.950893" />
    <linearGradient
       inkscape:collect="always"
       xlink:href="#linearGradient4346"
       id="linearGradient3916"
       gradientUnits="userSpaceOnUse"
       x1="4.2133107"
       y1="1021.3056"
       x2="7.1468058"
       y2="1021.3056" />
  </defs>
  <sodipodi:namedview
     id="base"
     pagecolor="#ffffff"
     bordercolor="#666666"
     borderopacity="1.0"
     inkscape:pageopacity="0.0"
     inkscape:pageshadow="2"
     inkscape:zoom="5.6568543"
     inkscape:cx="16.733547"
     inkscape:cy="7.8270636"
     inkscape:document-units="px"
     inkscape:current-layer="layer1"
     showgrid="false"
     inkscape:window-width="1280"
     inkscape:window-height="714"
     inkscape:window-x="0"
     inkscape:window-y="25"
     inkscape:window-maximized="1" />
  <metadata
     id="metadata3057">
    <rdf:RDF>
      <cc:Work
         rdf:about="">
        <dc:format>image/svg+xml</dc:format>
        <dc:type
           rdf:resource="http://purl.org/dc/dcmitype/StillImage" />
        <dc:title></dc:title>
      </cc:Work>
    </rdf:RDF>
  </metadata>
  <g
     inkscape:label="Livello 1"
     inkscape:groupmode="layer"
     id="layer1"
     transform="translate(0,-1004.3622)">
    <g
       id="g3812"
       transform="translate(-0.1964281,-0.67804219)">
      <path
         id="path4566"
         d="m 45.357143,44.785713 c 0,1.183467 -9.473974,2.142857 -21.160715,2.142857 -11.68674,0 -21.1607148,-0.95939 -21.1607148,-2.142857 0,-1.183467 9.4739748,-2.142857 21.1607148,-2.142857 11.686741,0 21.160715,0.95939 21.160715,2.142857 z"
         style="fill:#333333;fill-opacity:0.78431373;stroke:none;filter:url(#filter4568)"
         transform="translate(0,1003.112)" />
      <path
         id="rect3062"
         d="m 4.1071429,1018.1122 40.0000001,0 0,30 -40.0000001,0 0,-30 z"
         style="fill:url(#radialGradient3894);fill-opacity:1;stroke:none" />
      <path
         id="rect4354"
         d="m 4.1071429,1018.1122 40.0000001,0 0,4 -40.0000001,0 0,-4 z"
         style="fill:url(#linearGradient3896);fill-opacity:1;stroke:none" />
      <path
         id="rect4356"
         d="m 4.1071429,1022.1122 40.0000001,0 0,2 -40.0000001,0 0,-2 z"
         style="fill:url(#linearGradient3898);fill-opacity:1;stroke:none" />
      <path
         id="rect4374"
         d="m 750.75873,1251.1617 4,0 0,4.9157 -4,0 0,-4.9157 z"
         style="fill:#000000;fill-opacity:1;stroke:none"
         transform="matrix(1,0,-0.58123819,0.81373347,0,0)" />
      <path
         id="rect4395"
         d="m 760.75873,1251.1617 4,0 0,4.9157 -4,0 0,-4.9157 z"
         style="fill:#000000;fill-opacity:1;stroke:none"
         transform="matrix(1,0,-0.58123819,0.81373347,0,0)" />
      <path
         id="rect4397"
         d="m 43.544643,1018.1122 -2.875,4 3.4375,0 0,-4 -0.5625,0 z"
         style="fill:#000000;fill-opacity:1;stroke:none" />
      <path
         id="rect4399"
         d="m 740.75873,1251.1617 4,0 0,4.9157 -4,0 0,-4.9157 z"
         style="fill:#000000;fill-opacity:1;stroke:none"
         transform="matrix(1,0,-0.58123819,0.81373347,0,0)" />
      <path
         id="rect4401"
         d="m 4.125,1018.1122 0,4 0.5625,0 2.84375,-4 -3.40625,0 z"
         style="fill:#000000;fill-opacity:1;stroke:none" />
      <path
         id="rect4456"
         d="m 4.1071429,1018.1122 40.0000001,0 0,1 -40.0000001,0 0,-1 z"
         style="fill:#ffffff;fill-opacity:0.31372549;stroke:none" />
      <path
         id="rect4544"
         d="m 4.1892741,1019.0372 39.3026499,-7.4365 -0.743645,-3.9303 -39.3026502,7.4365 0.7436453,3.9303 z"
         style="fill:url(#linearGradient3900);fill-opacity:1;stroke:none" />
      <path
         id="rect4458"
         d="m -185.22517,-1001.0244 40,0 0,3.99999 -40,0 0,-3.99999 z"
         style="fill:url(#linearGradient3902);fill-opacity:1;stroke:none"
         transform="matrix(0.98256626,-0.18591271,-0.18591271,-0.98256626,0,0)" />
      <path
         id="rect4460"
         d="m -880.81403,-1230.1625 4,0 0,4.9156 -4,0 0,-4.9156 z"
         style="fill:#000000;fill-opacity:1;stroke:none"
         transform="matrix(0.98256626,-0.18591271,-0.72238843,-0.69148749,0,0)" />
      <path
         id="rect4462"
         d="m -870.81403,-1230.1625 4,0 0,4.9156 -4,0 0,-4.9156 z"
         style="fill:#000000;fill-opacity:1;stroke:none"
         transform="matrix(0.98256626,-0.18591271,-0.72238843,-0.69148749,0,0)" />
      <path
         style="fill:#000000;fill-opacity:1;stroke:none"
         d="m 42.857101,1010.6766 -3.568529,-3.3958 3.377572,-0.6391 0.743651,3.9303 -0.552694,0.1046 z"
         id="path4464" />
      <path
         id="rect4466"
         d="m -890.81403,-1230.1625 4,0 0,4.9156 -4,0 0,-4.9156 z"
         style="fill:#000000;fill-opacity:1;stroke:none"
         transform="matrix(0.98256626,-0.18591271,-0.72238843,-0.69148749,0,0)" />
      <path
         style="fill:#000000;fill-opacity:1;stroke:none"
         d="m 4.1246895,1018.0052 -0.7436509,-3.9303 0.5526936,-0.1046 3.5378236,3.4016 -3.3468663,0.6333 z"
         id="path4468" />
      <path
         id="rect4593"
         d="m 4.1071429,1026.0265 40.0000001,0 0,0.8 -40.0000001,0 0,-0.8 z"
         style="fill:#d1dfe2;fill-opacity:1;stroke:none" />
      <path
         id="rect4595"
         d="m 4.1071429,1036.0265 40.0000001,0 0,0.8 -40.0000001,0 0,-0.8 z"
         style="fill:#d1dfe2;fill-opacity:1;stroke:none" />
      <path
         id="rect4597"
         d="m 4.1071429,1042.0265 40.0000001,0 0,0.8 -40.0000001,0 0,-0.8 z"
         style="fill:#d1dfe2;fill-opacity:1;stroke:none" />
      <path
         id="rect4599"
         d="m 4.1071429,1044.8665 40.0000001,0 0,0.8 -40.0000001,0 0,-0.8 z"
         style="fill:#d1dfe2;fill-opacity:1;stroke:none" />
      <path
         id="rect4601"
         d="m -1036.4265,16.707142 10.1786,0 0,0.8 -10.1786,0 0,-0.8 z"
         style="fill:#d1dfe2;fill-opacity:1;stroke:none"
         transform="matrix(0,-1,1,0,0,0)" />
      <path
         id="rect4603"
         d="m -1036.4265,30.707144 10.1786,0 0,0.8 -10.1786,0 0,-0.8 z"
         style="fill:#d1dfe2;fill-opacity:1;stroke:none"
         transform="matrix(0,-1,1,0,0,0)" />
      <path
         id="rect4611"
         d="m -1042.5068,23.707144 6.1607,0 0,0.8 -6.1607,0 0,-0.8 z"
         style="fill:#d1dfe2;fill-opacity:1;stroke:none"
         transform="matrix(0,-1,1,0,0,0)" />
      <path
         sodipodi:nodetypes="ccccc"
         style="fill:#000000;fill-opacity:0.39215686;stroke:none;filter:url(#filter3676)"
         d="m 4.09375,1019.0184 0,4.8616 2.3844618,0 3.1104622,-4.8616 -5.494924,0 z"
         id="path3674" />
      <path
         id="path4641"
         d="m 4.09375,1014.1122 0,4.9062 0,4.8616 1.6969618,0 1.0505001,-1.3503 2.7474621,-3.5113 -2.7474621,-3.5559 -1.0505001,-1.3503 -1.6969618,0 z"
         style="fill:url(#linearGradient3904);fill-opacity:1;stroke:none" />
      <g
         transform="matrix(0.97158104,-0.23670717,0.23670717,0.97158104,-241.60352,31.761208)"
         id="g3640">
        <path
           sodipodi:type="arc"
           style="fill:url(#linearGradient3906);fill-opacity:1;stroke:none"
           id="path4657"
           sodipodi:cx="5.2455359"
           sodipodi:cy="16.950893"
           sodipodi:rx="0.46875"
           sodipodi:ry="0.46875"
           d="m 5.7142859,16.950893 c 0,0.258884 -0.2098666,0.46875 -0.46875,0.46875 -0.2588835,0 -0.46875,-0.209866 -0.46875,-0.46875 0,-0.258883 0.2098665,-0.46875 0.46875,-0.46875 0.2588834,0 0.46875,0.209867 0.46875,0.46875 z"
           transform="matrix(1.0666667,0,0,1.0666667,-0.42893783,1003.2246)" />
        <path
           style="font-size:medium;font-style:normal;font-variant:normal;font-weight:normal;font-stretch:normal;text-indent:0;text-align:start;text-decoration:none;line-height:normal;letter-spacing:normal;word-spacing:normal;text-transform:none;direction:ltr;block-progression:tb;writing-mode:lr-tb;text-anchor:start;color:#000000;fill:url(#linearGradient3908);fill-opacity:1;stroke:none;stroke-width:1px;marker:none;visibility:visible;display:inline;overflow:visible;enable-background:accumulate;font-family:'A.C.M.E. Secret Agent';-inkscape-font-specification:'A.C.M.E. Secret Agent'"
           d="m 4.6663006,1021.2306 0,0.15 1,0 0,-0.15 -1,0 z"
           id="path4671" />
      </g>
      <g
         id="g3648"
         transform="matrix(-0.9193985,-0.39332733,0.39332733,-0.9193985,-391.79117,1956.0371)">
        <path
           transform="matrix(1.0666667,0,0,1.0666667,-0.42893783,1003.2246)"
           d="m 5.7142859,16.950893 c 0,0.258884 -0.2098666,0.46875 -0.46875,0.46875 -0.2588835,0 -0.46875,-0.209866 -0.46875,-0.46875 0,-0.258883 0.2098665,-0.46875 0.46875,-0.46875 0.2588834,0 0.46875,0.209867 0.46875,0.46875 z"
           sodipodi:ry="0.46875"
           sodipodi:rx="0.46875"
           sodipodi:cy="16.950893"
           sodipodi:cx="5.2455359"
           id="path3650"
           style="fill:url(#linearGradient3910);fill-opacity:1;stroke:none"
           sodipodi:type="arc" />
        <path
           id="path3652"
           d="m 4.6663006,1021.2306 0,0.15 1,0 0,-0.15 -1,0 z"
           style="font-size:medium;font-style:normal;font-variant:normal;font-weight:normal;font-stretch:normal;text-indent:0;text-align:start;text-decoration:none;line-height:normal;letter-spacing:normal;word-spacing:normal;text-transform:none;direction:ltr;block-progression:tb;writing-mode:lr-tb;text-anchor:start;color:#000000;fill:url(#linearGradient3912);fill-opacity:1;stroke:none;stroke-width:1px;marker:none;visibility:visible;display:inline;overflow:visible;enable-background:accumulate;font-family:'A.C.M.E. Secret Agent';-inkscape-font-specification:'A.C.M.E. Secret Agent'" />
      </g>
      <g
         transform="matrix(-0.32882582,-0.94439058,0.94439058,-0.32882582,-954.33168,1359.7067)"
         id="g3658">
        <path
           sodipodi:type="arc"
           style="fill:url(#linearGradient3914);fill-opacity:1;stroke:none"
           id="path3660"
           sodipodi:cx="5.2455359"
           sodipodi:cy="16.950893"
           sodipodi:rx="0.46875"
           sodipodi:ry="0.46875"
           d="m 5.7142859,16.950893 c 0,0.258884 -0.2098666,0.46875 -0.46875,0.46875 -0.2588835,0 -0.46875,-0.209866 -0.46875,-0.46875 0,-0.258883 0.2098665,-0.46875 0.46875,-0.46875 0.2588834,0 0.46875,0.209867 0.46875,0.46875 z"
           transform="matrix(1.0666667,0,0,1.0666667,-0.42893783,1003.2246)" />
        <path
           style="font-size:medium;font-style:normal;font-variant:normal;font-weight:normal;font-stretch:normal;text-indent:0;text-align:start;text-decoration:none;line-height:normal;letter-spacing:normal;word-spacing:normal;text-transform:none;direction:ltr;block-progression:tb;writing-mode:lr-tb;text-anchor:start;color:#000000;fill:url(#linearGradient3916);fill-opacity:1;stroke:none;stroke-width:1px;marker:none;visibility:visible;display:inline;overflow:visible;enable-background:accumulate;font-family:'A.C.M.E. Secret Agent';-inkscape-font-specification:'A.C.M.E. Secret Agent'"
           d="m 4.6663006,1021.2306 0,0.15 1,0 0,-0.15 -1,0 z"
           id="path3662" />
      </g>
      <g
         id="text3680"
         style="font-size:5px;font-style:italic;font-variant:normal;font-weight:bold;font-stretch:normal;fill:#d1dfe2;fill-opacity:1;stroke:none;font-family:Calibri;-inkscape-font-specification:'A.C.M.E. Secret Agent Italic'">
        <path
           id="path3802"
           d="m 29.069824,1037.9305 c -3e-6,0.011 -0.0016,0.03 -0.0049,0.056 -0.0016,0.024 -0.0057,0.052 -0.01221,0.083 -0.0049,0.031 -0.01221,0.063 -0.02197,0.098 -0.0081,0.033 -0.01872,0.063 -0.03174,0.09 -0.0114,0.028 -0.02604,0.05 -0.04395,0.068 -0.01628,0.018 -0.03418,0.027 -0.05371,0.027 l -0.793457,0 -0.507812,2.5464 c -0.0049,0.016 -0.01384,0.031 -0.02686,0.044 -0.01302,0.013 -0.03337,0.024 -0.06104,0.032 -0.02604,0.01 -0.06022,0.015 -0.102539,0.02 -0.04069,0 -0.09277,0.01 -0.15625,0.01 -0.06185,0 -0.113119,0 -0.153809,-0.01 -0.04069,0 -0.07243,-0.011 -0.09521,-0.02 -0.02116,-0.01 -0.03581,-0.019 -0.04395,-0.032 -0.0065,-0.013 -0.0081,-0.028 -0.0049,-0.044 l 0.507813,-2.5464 -0.786133,0 c -0.02441,0 -0.0415,-0.01 -0.05127,-0.027 -0.0081,-0.018 -0.01221,-0.042 -0.01221,-0.073 -1e-6,-0.013 8.13e-4,-0.032 0.0024,-0.056 0.0033,-0.026 0.0073,-0.055 0.01221,-0.085 0.0065,-0.033 0.01383,-0.065 0.02197,-0.098 0.0098,-0.034 0.02116,-0.065 0.03418,-0.093 0.01302,-0.028 0.02767,-0.05 0.04395,-0.066 0.01628,-0.018 0.03418,-0.027 0.05371,-0.027 l 2.226562,0 c 0.01953,0 0.03418,0.01 0.04395,0.027 0.01139,0.018 0.01709,0.043 0.01709,0.076" />
        <path
           id="path3804"
           d="m 31.916504,1038.8851 c -3e-6,0.1433 -0.01302,0.2963 -0.03906,0.459 -0.02604,0.1628 -0.06836,0.3247 -0.126953,0.4859 -0.05697,0.1595 -0.132652,0.3125 -0.227051,0.4589 -0.0944,0.1465 -0.209149,0.2759 -0.344238,0.3882 -0.135093,0.1107 -0.293785,0.1994 -0.476074,0.2661 -0.182294,0.067 -0.389813,0.1001 -0.622559,0.1001 -0.196941,0 -0.371094,-0.022 -0.522461,-0.066 -0.14974,-0.044 -0.276693,-0.1115 -0.380859,-0.2026 -0.102539,-0.091 -0.180664,-0.2059 -0.234375,-0.3443 -0.05208,-0.1383 -0.07813,-0.3011 -0.07813,-0.4882 0,-0.153 0.01302,-0.3125 0.03906,-0.4786 0.02767,-0.1676 0.0708,-0.3312 0.129394,-0.4907 0.06022,-0.1611 0.138346,-0.3141 0.234375,-0.459 0.09603,-0.1448 0.211588,-0.2726 0.34668,-0.3833 0.13509,-0.1106 0.292967,-0.1977 0.473633,-0.2612 0.180662,-0.065 0.38574,-0.098 0.615234,-0.098 0.196938,0 0.370278,0.023 0.52002,0.068 0.151364,0.044 0.278317,0.1123 0.380859,0.2051 0.102536,0.091 0.179847,0.2067 0.231933,0.3467 0.05371,0.1399 0.08056,0.3043 0.08057,0.4931 m -0.678711,0.061 c -3e-6,-0.099 -0.0114,-0.1888 -0.03418,-0.2686 -0.02116,-0.081 -0.05616,-0.1497 -0.10498,-0.2051 -0.04883,-0.055 -0.113121,-0.098 -0.192871,-0.1269 -0.07813,-0.031 -0.174156,-0.046 -0.288086,-0.046 -0.141604,0 -0.266115,0.028 -0.373535,0.083 -0.107424,0.054 -0.201011,0.1245 -0.280762,0.2124 -0.07975,0.088 -0.146486,0.1888 -0.200195,0.3027 -0.05371,0.1123 -0.09684,0.2271 -0.129395,0.3443 -0.03255,0.1155 -0.05615,0.2287 -0.0708,0.3393 -0.01302,0.1107 -0.01953,0.2076 -0.01953,0.2906 -1e-6,0.1009 0.01058,0.1912 0.03174,0.271 0.02279,0.08 0.05859,0.1473 0.107422,0.2026 0.05045,0.054 0.114745,0.095 0.192871,0.1245 0.07975,0.029 0.177408,0.044 0.292969,0.044 0.139972,1e-4 0.26367,-0.027 0.371094,-0.081 0.10742,-0.054 0.200193,-0.1237 0.27832,-0.21 0.07975,-0.088 0.146482,-0.188 0.200195,-0.3003 0.05371,-0.1123 0.09684,-0.2262 0.129395,-0.3418 0.03255,-0.1155 0.05534,-0.2286 0.06836,-0.3393 0.01465,-0.1107 0.02197,-0.2092 0.02197,-0.2954" />
        <path
           id="path3806"
           d="m 34.685059,1037.9305 c -3e-6,0.011 -0.0016,0.03 -0.0049,0.056 -0.0016,0.024 -0.0057,0.052 -0.01221,0.083 -0.0049,0.031 -0.01221,0.063 -0.02197,0.098 -0.0081,0.033 -0.01872,0.063 -0.03174,0.09 -0.0114,0.028 -0.02604,0.05 -0.04395,0.068 -0.01628,0.018 -0.03418,0.027 -0.05371,0.027 l -0.793457,0 -0.507813,2.5464 c -0.0049,0.016 -0.01384,0.031 -0.02685,0.044 -0.01302,0.013 -0.03337,0.024 -0.06104,0.032 -0.02604,0.01 -0.06022,0.015 -0.102539,0.02 -0.04069,0 -0.09277,0.01 -0.15625,0.01 -0.06185,0 -0.113119,0 -0.153808,-0.01 -0.04069,0 -0.07243,-0.011 -0.09521,-0.02 -0.02116,-0.01 -0.03581,-0.019 -0.04395,-0.032 -0.0065,-0.013 -0.0081,-0.028 -0.0049,-0.044 l 0.507812,-2.5464 -0.786133,0 c -0.02441,0 -0.0415,-0.01 -0.05127,-0.027 -0.0081,-0.018 -0.01221,-0.042 -0.01221,-0.073 0,-0.013 8.13e-4,-0.032 0.0024,-0.056 0.0033,-0.026 0.0073,-0.055 0.01221,-0.085 0.0065,-0.033 0.01384,-0.065 0.02197,-0.098 0.0098,-0.034 0.02116,-0.065 0.03418,-0.093 0.01302,-0.028 0.02767,-0.05 0.04395,-0.066 0.01628,-0.018 0.03418,-0.027 0.05371,-0.027 l 2.226562,0 c 0.01953,0 0.03418,0.01 0.04395,0.027 0.01139,0.018 0.01709,0.043 0.01709,0.076" />
        <path
           id="path3808"
           d="m 36.923828,1037.9208 c -2e-6,0.01 -0.0016,0.027 -0.0049,0.051 -0.0016,0.024 -0.0049,0.052 -0.0098,0.083 -0.0049,0.029 -0.0114,0.06 -0.01953,0.093 -0.0081,0.033 -0.01872,0.063 -0.03174,0.09 -0.0114,0.026 -0.02604,0.048 -0.04394,0.066 -0.01628,0.018 -0.03418,0.027 -0.05371,0.027 l -1.12793,0 -0.15625,0.7715 0.957031,0 c 0.02278,0 0.03906,0.01 0.04883,0.024 0.0098,0.016 0.01465,0.039 0.01465,0.068 -2e-6,0.011 -0.0016,0.029 -0.0049,0.054 -0.0016,0.023 -0.0049,0.05 -0.0098,0.081 -0.0049,0.029 -0.0114,0.059 -0.01953,0.09 -0.0081,0.031 -0.01872,0.059 -0.03174,0.085 -0.0114,0.026 -0.02523,0.047 -0.0415,0.063 -0.01628,0.016 -0.03418,0.024 -0.05371,0.024 l -0.95459,0 -0.180664,0.8912 1.142578,0 c 0.01953,0 0.03418,0.01 0.04395,0.027 0.0098,0.016 0.01465,0.041 0.01465,0.073 -2e-6,0.011 -8.16e-4,0.029 -0.0024,0.054 -0.0016,0.024 -0.0057,0.052 -0.01221,0.083 -0.0049,0.029 -0.0114,0.059 -0.01953,0.09 -0.0081,0.031 -0.01872,0.06 -0.03174,0.088 -0.0114,0.026 -0.02523,0.047 -0.0415,0.063 -0.01628,0.016 -0.035,0.024 -0.05615,0.024 l -1.586914,0 c -0.02604,0 -0.04964,0 -0.0708,-0.01 -0.02116,-0.01 -0.03906,-0.02 -0.05371,-0.037 -0.01302,-0.018 -0.02197,-0.039 -0.02685,-0.063 -0.0049,-0.026 -0.0041,-0.057 0.0024,-0.093 l 0.551758,-2.7539 c 0.01465,-0.072 0.04394,-0.1228 0.08789,-0.1538 0.04394,-0.033 0.09277,-0.049 0.146484,-0.049 l 1.572266,0 c 0.04232,0 0.06347,0.031 0.06348,0.093" />
        <path
           id="path3810"
           d="m 40.603027,1040.9017 c -0.0049,0.016 -0.01221,0.031 -0.02197,0.044 -0.0098,0.013 -0.02686,0.024 -0.05127,0.032 -0.02279,0.01 -0.05453,0.014 -0.09521,0.017 -0.04069,0 -0.09115,0.01 -0.151367,0.01 -0.06348,0 -0.114749,0 -0.153808,-0.01 -0.03907,0 -0.06918,-0.01 -0.09033,-0.017 -0.02116,-0.01 -0.035,-0.019 -0.0415,-0.032 -0.0049,-0.013 -0.0057,-0.028 -0.0024,-0.044 l 0.512695,-2.5708 -0.0049,0 -1.433106,2.5684 c -0.01953,0.041 -0.05778,0.068 -0.114746,0.083 -0.05534,0.013 -0.134279,0.02 -0.236816,0.02 -0.105796,0 -0.182294,-0.01 -0.229492,-0.027 -0.04557,-0.02 -0.06918,-0.043 -0.0708,-0.071 l -0.371094,-2.5757 -0.0049,0 -0.515137,2.5732 c -0.0033,0.016 -0.01058,0.031 -0.02197,0.044 -0.0098,0.013 -0.02686,0.024 -0.05127,0.032 -0.02279,0.01 -0.05452,0.014 -0.09521,0.017 -0.03906,0 -0.08952,0.01 -0.151367,0.01 -0.06185,0 -0.112305,0 -0.151367,-0.01 -0.03906,0 -0.06917,-0.01 -0.09033,-0.017 -0.02116,-0.01 -0.03499,-0.019 -0.0415,-0.032 -0.0065,-0.013 -0.0073,-0.028 -0.0024,-0.044 l 0.561523,-2.8149 c 0.0081,-0.041 0.02034,-0.077 0.03662,-0.1099 0.0179,-0.032 0.03906,-0.059 0.06348,-0.08 0.02604,-0.023 0.05534,-0.04 0.08789,-0.051 0.03255,-0.011 0.06754,-0.017 0.104981,-0.017 l 0.400391,0 c 0.07161,0 0.132648,0.01 0.183105,0.02 0.05045,0.011 0.09196,0.032 0.124512,0.061 0.03255,0.029 0.05696,0.068 0.07324,0.1147 0.0179,0.047 0.03011,0.1042 0.03662,0.1709 l 0.305176,1.8799 0.01221,0 1.083984,-1.8799 c 0.03255,-0.063 0.0651,-0.118 0.09766,-0.1636 0.03255,-0.047 0.06836,-0.085 0.107422,-0.1147 0.04069,-0.031 0.08545,-0.053 0.134278,-0.066 0.04882,-0.015 0.106604,-0.022 0.173339,-0.022 l 0.454102,0 c 0.04069,0 0.07568,0.01 0.104981,0.017 0.02929,0.011 0.05208,0.028 0.06836,0.051 0.0179,0.021 0.02848,0.048 0.03174,0.08 0.0049,0.031 0.0041,0.067 -0.0024,0.1075 l -0.561524,2.8173" />
      </g>
      <g
         id="text3684"
         style="font-size:1.5px;font-style:italic;font-variant:normal;font-weight:bold;font-stretch:normal;fill:#d1dfe2;fill-opacity:1;stroke:none;font-family:Calibri;-inkscape-font-specification:'A.C.M.E. Secret Agent Italic'">
        <path
           id="path3791"
           d="m 5.3459473,1027.2577 c -9e-7,0 -4.892e-4,0.01 -0.00146,0.017 -4.891e-4,0.01 -0.00171,0.016 -0.00366,0.025 -0.00147,0.01 -0.00366,0.019 -0.00659,0.029 -0.00244,0.01 -0.00562,0.019 -0.00952,0.027 -0.00342,0.01 -0.00781,0.015 -0.013184,0.02 -0.00488,0.01 -0.010255,0.01 -0.016113,0.01 l -0.2380372,0 -0.1523437,0.7639 c -0.00147,0 -0.00415,0.01 -0.00806,0.013 -0.00391,0 -0.01001,0.01 -0.018311,0.01 -0.00781,0 -0.018067,0 -0.030762,0.01 -0.012207,0 -0.027832,0 -0.046875,0 -0.018555,0 -0.033936,-8e-4 -0.046143,0 -0.012207,0 -0.021729,0 -0.028564,-0.01 -0.00635,0 -0.010742,-0.01 -0.013184,-0.01 -0.00195,0 -0.00244,-0.01 -0.00146,-0.013 l 0.1523438,-0.7639 -0.2358399,0 c -0.00732,0 -0.012451,0 -0.015381,-0.01 -0.00244,-0.01 -0.00366,-0.013 -0.00366,-0.022 -1e-7,0 2.44e-4,-0.01 7.324e-4,-0.017 9.764e-4,-0.01 0.0022,-0.016 0.00366,-0.026 0.00195,-0.01 0.00415,-0.019 0.00659,-0.029 0.00293,-0.01 0.00635,-0.02 0.010254,-0.028 0.00391,-0.01 0.0083,-0.015 0.013184,-0.02 0.00488,-0.01 0.010254,-0.01 0.016113,-0.01 l 0.6679687,0 c 0.00586,0 0.010253,0 0.013184,0.01 0.00342,0.01 0.00513,0.013 0.00513,0.023" />
        <path
           id="path3793"
           d="m 5.4777832,1028.149 c -9.768e-4,0 -0.00342,0.01 -0.00732,0.013 -0.00391,0 -0.01001,0.01 -0.018311,0.01 -0.00781,0 -0.018067,0 -0.030762,0.01 -0.012696,0 -0.02832,0 -0.046875,0 -0.019043,0 -0.034668,-8e-4 -0.046875,0 -0.011719,-10e-4 -0.020996,0 -0.027832,-0.01 -0.00684,0 -0.011475,-0.01 -0.013916,-0.01 -0.00244,0 -0.00293,-0.01 -0.00146,-0.013 l 0.1794434,-0.8964 c 4.88e-4,0 0.00269,-0.01 0.00659,-0.013 0.00439,0 0.010498,-0.01 0.018311,-0.01 0.0083,0 0.018554,0 0.030762,-0.01 0.012695,0 0.02832,0 0.046875,0 0.018554,0 0.033691,8e-4 0.04541,0 0.012207,0 0.021728,0 0.028564,0.01 0.00732,0 0.011962,0.01 0.013916,0.01 0.00244,0 0.00317,0.01 0.0022,0.013 l -0.1787109,0.8964" />
        <path
           id="path3795"
           d="m 6.4914551,1027.2577 c -9e-7,0 -4.891e-4,0.01 -0.00146,0.017 -4.891e-4,0.01 -0.00171,0.016 -0.00366,0.025 -0.00147,0.01 -0.00366,0.019 -0.00659,0.029 -0.00244,0.01 -0.00562,0.019 -0.00952,0.027 -0.00342,0.01 -0.00781,0.015 -0.013184,0.02 -0.00488,0.01 -0.010255,0.01 -0.016113,0.01 l -0.2380371,0 -0.1523438,0.7639 c -0.00147,0 -0.00415,0.01 -0.00806,0.013 -0.00391,0 -0.01001,0.01 -0.018311,0.01 -0.00781,0 -0.018067,0 -0.030762,0.01 -0.012207,0 -0.027832,0 -0.046875,0 -0.018555,0 -0.033936,-8e-4 -0.046143,0 -0.012207,0 -0.021729,0 -0.028564,-0.01 -0.00635,0 -0.010742,-0.01 -0.013184,-0.01 -0.00195,0 -0.00244,-0.01 -0.00146,-0.013 l 0.1523438,-0.7639 -0.2358399,0 c -0.00732,0 -0.012451,0 -0.015381,-0.01 -0.00244,-0.01 -0.00366,-0.013 -0.00366,-0.022 -1e-7,0 2.44e-4,-0.01 7.324e-4,-0.017 9.764e-4,-0.01 0.0022,-0.016 0.00366,-0.026 0.00195,-0.01 0.00415,-0.019 0.00659,-0.029 0.00293,-0.01 0.00635,-0.02 0.010254,-0.028 0.00391,-0.01 0.0083,-0.015 0.013184,-0.02 0.00488,-0.01 0.010254,-0.01 0.016113,-0.01 l 0.6679687,0 c 0.00586,0 0.010253,0 0.013184,0.01 0.00342,0.01 0.00513,0.013 0.00513,0.023" />
        <path
           id="path3797"
           d="m 6.9667969,1028.045 c -6e-7,0 -4.889e-4,0.01 -0.00146,0.017 -4.888e-4,0.01 -0.00171,0.016 -0.00366,0.026 -0.00147,0.01 -0.00366,0.02 -0.00659,0.03 -0.00244,0.01 -0.00562,0.02 -0.00952,0.028 -0.00342,0.01 -0.00757,0.015 -0.012451,0.021 -0.00488,0.01 -0.010499,0.01 -0.016846,0.01 l -0.4343262,0 c -0.00781,0 -0.015137,-10e-4 -0.021973,0 -0.00635,0 -0.011719,-0.01 -0.016113,-0.011 -0.00391,-0.01 -0.00659,-0.012 -0.00806,-0.019 -0.00146,-0.01 -0.00122,-0.017 7.324e-4,-0.028 l 0.1728516,-0.8613 c 4.881e-4,0 0.00269,-0.01 0.00659,-0.013 0.00391,0 0.00977,-0.01 0.017578,-0.01 0.0083,0 0.018554,0 0.030762,-0.01 0.012695,0 0.028564,0 0.047608,0 0.018554,0 0.033935,8e-4 0.046142,0 0.012207,10e-4 0.021728,0 0.028564,0.01 0.00684,0 0.01123,0.01 0.013184,0.01 0.00244,0 0.00317,0.01 0.0022,0.013 l -0.1523438,0.7631 0.2988281,0 c 0.00684,0 0.011474,0 0.013916,0.01 0.00293,0.01 0.00439,0.013 0.00439,0.021" />
        <path
           id="path3799"
           d="m 7.7988281,1027.2548 c -7e-7,0 -4.89e-4,0.01 -0.00146,0.015 -4.891e-4,0.01 -0.00147,0.016 -0.00293,0.025 -0.00147,0.01 -0.00342,0.018 -0.00586,0.028 -0.00244,0.01 -0.00562,0.019 -0.00952,0.027 -0.00342,0.01 -0.00781,0.014 -0.013184,0.02 -0.00488,0.01 -0.010255,0.01 -0.016113,0.01 l -0.3383789,0 -0.046875,0.2315 0.2871093,0 c 0.00684,0 0.011718,0 0.014648,0.01 0.00293,0 0.00439,0.012 0.00439,0.02 -6e-7,0 -4.889e-4,0.01 -0.00146,0.016 -4.89e-4,0.01 -0.00147,0.015 -0.00293,0.024 -0.00147,0.01 -0.00342,0.018 -0.00586,0.027 -0.00244,0.01 -0.00562,0.018 -0.00952,0.026 -0.00342,0.01 -0.00757,0.014 -0.012451,0.019 -0.00488,0 -0.010255,0.01 -0.016113,0.01 l -0.286377,0 -0.054199,0.2673 0.3427734,0 c 0.00586,0 0.010253,0 0.013184,0.01 0.00293,0 0.00439,0.012 0.00439,0.022 -6e-7,0 -2.447e-4,0.01 -7.324e-4,0.016 -4.889e-4,0.01 -0.00171,0.016 -0.00366,0.025 -0.00147,0.01 -0.00342,0.018 -0.00586,0.027 -0.00244,0.01 -0.00562,0.018 -0.00952,0.026 -0.00342,0.01 -0.00757,0.014 -0.012451,0.019 -0.00488,0 -0.010499,0.01 -0.016846,0.01 l -0.4760742,0 c -0.00781,0 -0.014893,-10e-4 -0.02124,0 -0.00635,0 -0.011719,-0.01 -0.016113,-0.011 -0.00391,-0.01 -0.00659,-0.012 -0.00806,-0.019 -0.00146,-0.01 -0.00122,-0.017 7.324e-4,-0.028 l 0.1655274,-0.8262 c 0.00439,-0.022 0.013183,-0.037 0.026367,-0.046 0.013183,-0.01 0.027832,-0.015 0.043945,-0.015 l 0.4716797,0 c 0.012695,0 0.019042,0.01 0.019043,0.028" />
      </g>
      <g
         id="text3688"
         style="font-size:1.5px;font-style:italic;font-variant:normal;font-weight:bold;font-stretch:normal;fill:#d1dfe2;fill-opacity:1;stroke:none;font-family:Calibri;-inkscape-font-specification:'A.C.M.E. Secret Agent Italic'">
        <path
           id="path3780"
           d="m 18.827393,1027.2994 c -1e-6,0 -4.89e-4,0.01 -0.0015,0.017 -4.89e-4,0.01 -0.0015,0.015 -0.0029,0.024 -0.0015,0.01 -0.0034,0.018 -0.0059,0.027 -0.002,0.01 -0.0046,0.017 -0.0081,0.025 -0.0029,0.01 -0.0063,0.013 -0.01025,0.018 -0.0039,0 -0.0081,0.01 -0.01245,0.01 -0.0068,0 -0.01538,0 -0.02564,-0.01 -0.01025,-0.01 -0.02295,-0.013 -0.03809,-0.02 -0.01465,-0.01 -0.03198,-0.014 -0.052,-0.02 -0.02002,-0.01 -0.04272,-0.01 -0.06811,-0.01 -0.02637,0 -0.04883,0 -0.06738,0.011 -0.01807,0.01 -0.03296,0.017 -0.04468,0.029 -0.01172,0.012 -0.02051,0.025 -0.02637,0.04 -0.0054,0.015 -0.0081,0.029 -0.0081,0.045 -10e-7,0.018 0.0044,0.033 0.01318,0.047 0.0088,0.013 0.02051,0.026 0.03516,0.037 0.01465,0.011 0.03125,0.022 0.0498,0.033 0.01904,0.011 0.03809,0.022 0.05713,0.034 0.01953,0.012 0.03857,0.025 0.05713,0.039 0.01904,0.014 0.03589,0.03 0.05054,0.048 0.01465,0.018 0.02637,0.039 0.03516,0.063 0.0088,0.023 0.01318,0.051 0.01318,0.081 -10e-7,0.046 -0.0093,0.089 -0.02783,0.1282 -0.01856,0.039 -0.04492,0.073 -0.0791,0.1025 -0.03369,0.029 -0.07471,0.052 -0.123046,0.068 -0.04785,0.017 -0.101075,0.025 -0.159668,0.025 -0.03174,0 -0.06104,0 -0.08789,-0.01 -0.02686,0 -0.05078,-0.011 -0.07178,-0.018 -0.02051,-0.01 -0.03784,-0.015 -0.052,-0.023 -0.01416,-0.01 -0.02466,-0.016 -0.03149,-0.024 -0.0068,-0.01 -0.01025,-0.018 -0.01025,-0.033 0,0 4.88e-4,-0.01 0.0015,-0.018 9.77e-4,-0.01 0.0022,-0.016 0.0037,-0.025 0.002,-0.01 0.0042,-0.019 0.0066,-0.028 0.0024,-0.01 0.0054,-0.018 0.0088,-0.026 0.0034,-0.01 0.0071,-0.014 0.01099,-0.019 0.0044,0 0.009,-0.01 0.01392,-0.01 0.0083,0 0.01807,0 0.0293,0.012 0.01172,0.01 0.02612,0.016 0.04321,0.025 0.01709,0.01 0.03735,0.017 0.06079,0.025 0.02344,0.01 0.05151,0.012 0.08423,0.012 0.02881,0 0.05395,0 0.07544,-0.011 0.02197,-0.01 0.04028,-0.017 0.05493,-0.03 0.01465,-0.013 0.02563,-0.027 0.03296,-0.044 0.0078,-0.017 0.01172,-0.036 0.01172,-0.056 -1e-6,-0.018 -0.0044,-0.034 -0.01318,-0.048 -0.0088,-0.014 -0.02051,-0.026 -0.03516,-0.037 -0.01416,-0.012 -0.03052,-0.023 -0.04907,-0.033 -0.01807,-0.01 -0.03662,-0.021 -0.05566,-0.033 -0.01904,-0.012 -0.03784,-0.024 -0.0564,-0.038 -0.01807,-0.014 -0.03442,-0.03 -0.04907,-0.048 -0.01416,-0.019 -0.02564,-0.04 -0.03442,-0.064 -0.0088,-0.024 -0.01318,-0.052 -0.01318,-0.083 -10e-7,-0.044 0.0088,-0.084 0.02637,-0.1215 0.01758,-0.037 0.04199,-0.069 0.07324,-0.095 0.03125,-0.027 0.0686,-0.048 0.11206,-0.062 0.04346,-0.015 0.09131,-0.023 0.143555,-0.023 0.02441,0 0.04761,0 0.06958,0.01 0.02197,0 0.04199,0.01 0.06006,0.014 0.01807,0.01 0.03345,0.011 0.04614,0.018 0.0127,0.01 0.02148,0.013 0.02637,0.017 0.0049,0 0.0083,0.01 0.01025,0.015 0.0024,0 0.0037,0.011 0.0037,0.019" />
        <path
           id="path3782"
           d="m 19.660889,1027.3185 c -1e-6,0.014 -0.0024,0.032 -0.0073,0.055 -0.0044,0.023 -0.01025,0.042 -0.01758,0.056 -0.0068,0.014 -0.01465,0.02 -0.02344,0.02 -0.0063,0 -0.01392,0 -0.02271,-0.012 -0.0088,-0.01 -0.02026,-0.017 -0.03442,-0.026 -0.01416,-0.01 -0.03223,-0.018 -0.0542,-0.026 -0.02197,-0.01 -0.04932,-0.013 -0.08203,-0.013 -0.03613,0 -0.06909,0.01 -0.09888,0.022 -0.02979,0.014 -0.0564,0.033 -0.07983,0.057 -0.02344,0.024 -0.04395,0.051 -0.06152,0.081 -0.01758,0.031 -0.03223,0.063 -0.04394,0.096 -0.01123,0.033 -0.01978,0.066 -0.02564,0.1 -0.0054,0.033 -0.0081,0.063 -0.0081,0.091 0,0.034 0.0041,0.064 0.01245,0.09 0.0088,0.026 0.02124,0.047 0.03735,0.064 0.01611,0.017 0.03589,0.03 0.05933,0.039 0.02344,0.01 0.0498,0.012 0.0791,0.012 0.03467,0 0.06421,0 0.08862,-0.011 0.0249,-0.01 0.0459,-0.015 0.06299,-0.024 0.01758,-0.01 0.03198,-0.017 0.04321,-0.024 0.01172,-0.01 0.02222,-0.011 0.03149,-0.011 0.0063,0 0.0105,0 0.01245,0.01 0.0024,0 0.0037,0.011 0.0037,0.019 0,0 -4.89e-4,0.01 -0.0015,0.015 -9.78e-4,0.01 -0.0022,0.015 -0.0037,0.023 -0.0015,0.01 -0.0032,0.018 -0.0051,0.028 -0.002,0.01 -0.0042,0.019 -0.0066,0.028 -0.0024,0.01 -0.0054,0.016 -0.0088,0.023 -0.0029,0.01 -0.0071,0.013 -0.01245,0.018 -0.0054,0.01 -0.01587,0.013 -0.03149,0.021 -0.01563,0.01 -0.03467,0.016 -0.05713,0.023 -0.02246,0.01 -0.04785,0.013 -0.07617,0.018 -0.02832,0.01 -0.0586,0.01 -0.09082,0.01 -0.05322,0 -0.101318,-0.01 -0.144287,-0.021 -0.04248,-0.014 -0.07861,-0.036 -0.108398,-0.064 -0.02979,-0.029 -0.05274,-0.065 -0.06885,-0.1084 -0.01611,-0.043 -0.02417,-0.094 -0.02417,-0.1524 0,-0.045 0.0046,-0.092 0.01392,-0.1413 0.0093,-0.049 0.02319,-0.097 0.04175,-0.1443 0.01904,-0.047 0.04297,-0.091 0.07178,-0.1333 0.02881,-0.042 0.06274,-0.079 0.101806,-0.1099 0.03955,-0.032 0.08423,-0.057 0.134033,-0.075 0.05029,-0.019 0.105957,-0.028 0.166993,-0.028 0.03418,0 0.0664,0 0.09668,0.011 0.03076,0.01 0.05737,0.016 0.07983,0.028 0.02295,0.012 0.03882,0.022 0.04761,0.032 0.0093,0.01 0.01392,0.021 0.01392,0.036" />
        <path
           id="path3784"
           d="m 20.375,1027.2548 c -1e-6,0 -4.89e-4,0.01 -0.0015,0.015 -4.89e-4,0.01 -0.0015,0.016 -0.0029,0.025 -0.0015,0.01 -0.0034,0.018 -0.0059,0.028 -0.0024,0.01 -0.0056,0.019 -0.0095,0.027 -0.0034,0.01 -0.0078,0.014 -0.01318,0.02 -0.0049,0.01 -0.01025,0.01 -0.01611,0.01 l -0.338379,0 -0.04687,0.2315 0.287109,0 c 0.0068,0 0.01172,0 0.01465,0.01 0.0029,0 0.0044,0.012 0.0044,0.02 0,0 -4.89e-4,0.01 -0.0015,0.016 -4.89e-4,0.01 -0.0015,0.015 -0.0029,0.024 -0.0015,0.01 -0.0034,0.018 -0.0059,0.027 -0.0024,0.01 -0.0056,0.018 -0.0095,0.026 -0.0034,0.01 -0.0076,0.014 -0.01245,0.019 -0.0049,0 -0.01026,0.01 -0.01611,0.01 l -0.286377,0 -0.0542,0.2673 0.342774,0 c 0.0059,0 0.01025,0 0.01318,0.01 0.0029,0 0.0044,0.012 0.0044,0.022 -10e-7,0 -2.45e-4,0.01 -7.33e-4,0.016 -4.89e-4,0.01 -0.0017,0.016 -0.0037,0.025 -0.0015,0.01 -0.0034,0.018 -0.0059,0.027 -0.0024,0.01 -0.0056,0.018 -0.0095,0.026 -0.0034,0.01 -0.0076,0.014 -0.01245,0.019 -0.0049,0 -0.0105,0.01 -0.01685,0.01 l -0.476074,0 c -0.0078,0 -0.01489,-10e-4 -0.02124,0 -0.0063,0 -0.01172,-0.01 -0.01611,-0.011 -0.0039,-0.01 -0.0066,-0.012 -0.0081,-0.019 -0.0015,-0.01 -0.0012,-0.017 7.32e-4,-0.028 l 0.165528,-0.8262 c 0.0044,-0.022 0.01318,-0.037 0.02637,-0.046 0.01318,-0.01 0.02783,-0.015 0.04395,-0.015 l 0.47168,0 c 0.0127,0 0.01904,0.01 0.01904,0.028" />
        <path
           id="path3786"
           d="m 21.159424,1028.1073 c -0.002,0.011 -0.0059,0.021 -0.01172,0.03 -0.0054,0.01 -0.01196,0.016 -0.01977,0.022 -0.0073,0.01 -0.01563,0.01 -0.0249,0.013 -0.0088,0 -0.01807,0 -0.02783,0 l -0.08203,0 c -0.01758,0 -0.03198,0 -0.04321,-0.01 -0.01123,0 -0.021,-0.01 -0.0293,-0.018 -0.0078,-0.01 -0.01489,-0.021 -0.02124,-0.036 -0.0063,-0.015 -0.01294,-0.034 -0.01977,-0.058 l -0.139893,-0.4234 c -0.01074,-0.033 -0.02075,-0.066 -0.03003,-0.099 -0.0088,-0.033 -0.01734,-0.066 -0.02564,-0.099 l -0.0015,0 c -0.0049,0.039 -0.0105,0.077 -0.01685,0.1142 -0.0063,0.037 -0.01343,0.074 -0.02124,0.1121 l -0.09668,0.4841 c -9.77e-4,0 -0.0034,0.01 -0.0073,0.013 -0.0034,0 -0.0088,0.01 -0.01611,0.01 -0.0073,0 -0.01685,0 -0.02856,0.01 -0.01123,0 -0.02539,0 -0.04248,0 -0.01709,0 -0.03125,-8e-4 -0.04248,0 -0.01074,0 -0.01904,0 -0.0249,-0.01 -0.0059,0 -0.0098,-0.01 -0.01172,-0.01 -0.0015,0 -0.0015,-0.01 0,-0.013 l 0.170654,-0.8525 c 0.0044,-0.023 0.0144,-0.04 0.03003,-0.051 0.01563,-0.012 0.0332,-0.018 0.05274,-0.018 l 0.100341,0 c 0.01611,0 0.02979,0 0.04102,0.01 0.01172,0 0.02148,0.01 0.0293,0.018 0.0083,0.01 0.01538,0.018 0.02124,0.031 0.0063,0.013 0.01221,0.028 0.01758,0.047 l 0.141358,0.427 c 0.0093,0.027 0.01758,0.054 0.0249,0.081 0.0078,0.027 0.01587,0.054 0.02417,0.081 l 0.0015,0 c 0.0054,-0.035 0.01123,-0.071 0.01758,-0.1084 0.0068,-0.038 0.01367,-0.074 0.02051,-0.1092 l 0.09009,-0.4467 c 9.75e-4,0 0.0032,-0.01 0.0066,-0.013 0.0034,0 0.0085,-0.01 0.01538,-0.01 0.0073,0 0.0166,0 0.02783,-0.01 0.01123,0 0.02539,0 0.04248,0 0.01709,0 0.03125,7e-4 0.04248,0 0.01123,10e-4 0.01977,0 0.02564,0.01 0.0059,0 0.0098,0 0.01172,0.01 0.002,0 0.0024,0.01 0.0015,0.013 l -0.171387,0.8547" />
        <path
           id="path3788"
           d="m 22.091797,1027.2548 c -1e-6,0 -4.89e-4,0.01 -0.0015,0.015 -4.89e-4,0.01 -0.0015,0.016 -0.0029,0.025 -0.0015,0.01 -0.0034,0.018 -0.0059,0.028 -0.0024,0.01 -0.0056,0.019 -0.0095,0.027 -0.0034,0.01 -0.0078,0.014 -0.01318,0.02 -0.0049,0.01 -0.01026,0.01 -0.01611,0.01 l -0.338379,0 -0.04687,0.2315 0.287109,0 c 0.0068,0 0.01172,0 0.01465,0.01 0.0029,0 0.0044,0.012 0.0044,0.02 -1e-6,0 -4.89e-4,0.01 -0.0015,0.016 -4.89e-4,0.01 -0.0015,0.015 -0.0029,0.024 -0.0015,0.01 -0.0034,0.018 -0.0059,0.027 -0.0024,0.01 -0.0056,0.018 -0.0095,0.026 -0.0034,0.01 -0.0076,0.014 -0.01245,0.019 -0.0049,0 -0.01025,0.01 -0.01611,0.01 l -0.286377,0 -0.0542,0.2673 0.342773,0 c 0.0059,0 0.01025,0 0.01318,0.01 0.0029,0 0.0044,0.012 0.0044,0.022 -1e-6,0 -2.45e-4,0.01 -7.33e-4,0.016 -4.89e-4,0.01 -0.0017,0.016 -0.0037,0.025 -0.0015,0.01 -0.0034,0.018 -0.0059,0.027 -0.0024,0.01 -0.0056,0.018 -0.0095,0.026 -0.0034,0.01 -0.0076,0.014 -0.01245,0.019 -0.0049,0 -0.0105,0.01 -0.01685,0.01 l -0.476074,0 c -0.0078,0 -0.01489,-10e-4 -0.02124,0 -0.0063,0 -0.01172,-0.01 -0.01611,-0.011 -0.0039,-0.01 -0.0066,-0.012 -0.0081,-0.019 -0.0015,-0.01 -0.0012,-0.017 7.32e-4,-0.028 l 0.165528,-0.8262 c 0.0044,-0.022 0.01318,-0.037 0.02637,-0.046 0.01318,-0.01 0.02783,-0.015 0.04395,-0.015 l 0.47168,0 c 0.01269,0 0.01904,0.01 0.01904,0.028" />
      </g>
      <g
         id="text3692"
         style="font-size:1.5px;font-style:italic;font-variant:normal;font-weight:bold;font-stretch:normal;fill:#d1dfe2;fill-opacity:1;stroke:none;font-family:Calibri;-inkscape-font-specification:'A.C.M.E. Secret Agent Italic'">
        <path
           id="path3773"
           d="m 32.949707,1028.1029 c 0.0024,0.018 0.0034,0.031 0.0029,0.042 -10e-7,0.01 -0.0034,0.018 -0.01025,0.023 -0.0063,0 -0.01709,0.01 -0.03223,0.01 -0.01514,0 -0.03589,0 -0.06226,0 -0.01855,0 -0.03369,-5e-4 -0.04541,0 -0.01172,-5e-4 -0.02075,0 -0.0271,0 -0.0063,0 -0.01074,0 -0.01318,-0.01 -0.0024,0 -0.0039,-0.01 -0.0044,-0.016 l -0.02563,-0.1904 -0.355957,0 -0.09815,0.1861 c -0.0034,0.01 -0.0073,0.013 -0.01172,0.017 -0.0044,0 -0.01074,0.01 -0.01904,0.01 -0.0083,0 -0.01953,0 -0.03369,0.01 -0.01367,10e-4 -0.03101,0 -0.052,0 -0.02246,0 -0.03979,-8e-4 -0.052,0 -0.0127,0 -0.021,0 -0.0249,-0.01 -0.0044,-0.01 -0.0049,-0.014 -0.0015,-0.024 0.0029,-0.01 0.009,-0.024 0.01831,-0.041 l 0.459961,-0.8408 c 0.0049,-0.01 0.0098,-0.015 0.01465,-0.02 0.0049,-0.01 0.01172,-0.01 0.02051,-0.012 0.0093,0 0.02148,0 0.03662,-0.01 0.01562,-10e-4 0.03589,0 0.06079,0 0.02881,0 0.05151,5e-4 0.06811,0 0.01709,5e-4 0.03027,0 0.03955,0.01 0.0093,0 0.01538,0.01 0.01831,0.012 0.0029,0.01 0.0049,0.013 0.0059,0.022 l 0.123779,0.8401 m -0.287842,-0.6951 -7.32e-4,0 -0.21167,0.4029 0.266601,0 -0.0542,-0.4029" />
        <path
           id="path3775"
           d="m 33.8396,1027.3185 c -10e-7,0.014 -0.0024,0.032 -0.0073,0.055 -0.0044,0.023 -0.01025,0.042 -0.01758,0.056 -0.0068,0.014 -0.01465,0.02 -0.02344,0.02 -0.0063,0 -0.01392,0 -0.02271,-0.012 -0.0088,-0.01 -0.02027,-0.017 -0.03442,-0.026 -0.01416,-0.01 -0.03223,-0.018 -0.0542,-0.026 -0.02197,-0.01 -0.04932,-0.013 -0.08203,-0.013 -0.03613,0 -0.06909,0.01 -0.09888,0.022 -0.02979,0.014 -0.0564,0.033 -0.07983,0.057 -0.02344,0.024 -0.04395,0.051 -0.06152,0.081 -0.01758,0.031 -0.03223,0.063 -0.04395,0.096 -0.01123,0.033 -0.01978,0.066 -0.02564,0.1 -0.0054,0.033 -0.0081,0.063 -0.0081,0.091 0,0.034 0.0042,0.064 0.01245,0.09 0.0088,0.026 0.02124,0.047 0.03735,0.064 0.01611,0.017 0.03589,0.03 0.05933,0.039 0.02344,0.01 0.0498,0.012 0.0791,0.012 0.03467,0 0.06421,0 0.08862,-0.011 0.0249,-0.01 0.0459,-0.015 0.06299,-0.024 0.01758,-0.01 0.03198,-0.017 0.04321,-0.024 0.01172,-0.01 0.02222,-0.011 0.03149,-0.011 0.0063,0 0.0105,0 0.01245,0.01 0.0024,0 0.0037,0.011 0.0037,0.019 0,0 -4.89e-4,0.01 -0.0015,0.015 -9.78e-4,0.01 -0.0022,0.015 -0.0037,0.023 -0.0015,0.01 -0.0032,0.018 -0.0051,0.028 -0.002,0.01 -0.0042,0.019 -0.0066,0.028 -0.0024,0.01 -0.0054,0.016 -0.0088,0.023 -0.0029,0.01 -0.0071,0.013 -0.01245,0.018 -0.0054,0.01 -0.01587,0.013 -0.03149,0.021 -0.01563,0.01 -0.03467,0.016 -0.05713,0.023 -0.02246,0.01 -0.04785,0.013 -0.07617,0.018 -0.02832,0.01 -0.05859,0.01 -0.09082,0.01 -0.05322,0 -0.101318,-0.01 -0.144287,-0.021 -0.04248,-0.014 -0.07861,-0.036 -0.108398,-0.064 -0.02979,-0.029 -0.05273,-0.065 -0.06885,-0.1084 -0.01611,-0.043 -0.02417,-0.094 -0.02417,-0.1524 0,-0.045 0.0046,-0.092 0.01392,-0.1413 0.0093,-0.049 0.02319,-0.097 0.04175,-0.1443 0.01904,-0.047 0.04297,-0.091 0.07178,-0.1333 0.02881,-0.042 0.06274,-0.079 0.101807,-0.1099 0.03955,-0.032 0.08423,-0.057 0.134033,-0.075 0.05029,-0.019 0.105957,-0.028 0.166992,-0.028 0.03418,0 0.06641,0 0.09668,0.011 0.03076,0.01 0.05737,0.016 0.07983,0.028 0.02295,0.012 0.03882,0.022 0.04761,0.032 0.0093,0.01 0.01391,0.021 0.01392,0.036" />
        <path
           id="path3777"
           d="m 34.63501,1027.2577 c -1e-6,0 -4.89e-4,0.01 -0.0015,0.017 -4.89e-4,0.01 -0.0017,0.016 -0.0037,0.025 -0.0015,0.01 -0.0037,0.019 -0.0066,0.029 -0.0024,0.01 -0.0056,0.019 -0.0095,0.027 -0.0034,0.01 -0.0078,0.015 -0.01318,0.02 -0.0049,0.01 -0.01026,0.01 -0.01611,0.01 l -0.238037,0 -0.152344,0.7639 c -0.0015,0 -0.0042,0.01 -0.0081,0.013 -0.0039,0 -0.01001,0.01 -0.01831,0.01 -0.0078,0 -0.01807,0 -0.03076,0.01 -0.01221,0 -0.02783,0 -0.04687,0 -0.01855,0 -0.03394,-8e-4 -0.04614,0 -0.01221,0 -0.02173,0 -0.02856,-0.01 -0.0063,0 -0.01074,-0.01 -0.01318,-0.01 -0.002,0 -0.0024,-0.01 -0.0015,-0.013 l 0.152344,-0.7639 -0.23584,0 c -0.0073,0 -0.01245,0 -0.01538,-0.01 -0.0024,-0.01 -0.0037,-0.013 -0.0037,-0.022 0,0 2.44e-4,-0.01 7.33e-4,-0.017 9.76e-4,-0.01 0.0022,-0.016 0.0037,-0.026 0.002,-0.01 0.0041,-0.019 0.0066,-0.029 0.0029,-0.01 0.0063,-0.02 0.01025,-0.028 0.0039,-0.01 0.0083,-0.015 0.01318,-0.02 0.0049,-0.01 0.01025,-0.01 0.01611,-0.01 l 0.667969,0 c 0.0059,0 0.01025,0 0.01318,0.01 0.0034,0.01 0.0051,0.013 0.0051,0.023" />
      </g>
      <g
         id="text3696"
         style="font-size:2px;font-style:italic;font-variant:normal;font-weight:bold;font-stretch:normal;fill:#d1dfe2;fill-opacity:1;stroke:none;font-family:Calibri;-inkscape-font-specification:'A.C.M.E. Secret Agent Italic'">
        <path
           id="path3740"
           d="m 6.9180565,1044.4614 c -0.00195,0.01 -0.00488,0.012 -0.00879,0.018 -0.00391,0.01 -0.010744,0.01 -0.020508,0.013 -0.00912,0 -0.021811,0.01 -0.038086,0.01 -0.016278,0 -0.03646,0 -0.060547,0 -0.025392,0 -0.0459,-10e-4 -0.061523,0 -0.015626,0 -0.027671,0 -0.036133,-0.01 -0.00846,0 -0.013999,-0.01 -0.016602,-0.013 -0.00195,-0.01 -0.00228,-0.011 -9.766e-4,-0.018 l 0.2050782,-1.0283 -0.00195,0 -0.5732422,1.0273 c -0.00781,0.016 -0.023113,0.027 -0.045898,0.033 -0.022136,0.01 -0.053712,0.01 -0.094727,0.01 -0.042318,0 -0.072917,0 -0.091797,-0.011 -0.01823,-0.01 -0.02767,-0.017 -0.02832,-0.028 l -0.1484375,-1.0303 -0.00195,0 -0.2060547,1.0293 c -0.0013,0.01 -0.00423,0.012 -0.00879,0.018 -0.00391,0.01 -0.010743,0.01 -0.020508,0.013 -0.00911,0 -0.02181,0.01 -0.038086,0.01 -0.015625,0 -0.035807,0 -0.060547,0 -0.02474,0 -0.044922,-10e-4 -0.060547,0 -0.015625,0 -0.027669,0 -0.036133,-0.01 -0.00846,0 -0.013998,-0.01 -0.016602,-0.013 -0.0026,-0.01 -0.00293,-0.011 -9.766e-4,-0.018 l 0.2246094,-1.126 c 0.00325,-0.016 0.00814,-0.031 0.014648,-0.044 0.00716,-0.013 0.015625,-0.024 0.025391,-0.032 0.010416,-0.01 0.022135,-0.016 0.035156,-0.02 0.01302,0 0.027018,-0.01 0.041992,-0.01 l 0.1601563,0 c 0.028645,0 0.053059,0 0.073242,0.01 0.020182,0 0.036783,0.013 0.049805,0.024 0.01302,0.012 0.022786,0.027 0.029297,0.046 0.00716,0.019 0.012044,0.042 0.014648,0.068 l 0.1220703,0.752 0.00488,0 0.4335937,-0.752 c 0.01302,-0.025 0.02604,-0.047 0.039063,-0.065 0.013019,-0.019 0.027342,-0.034 0.042969,-0.046 0.016275,-0.012 0.034178,-0.021 0.053711,-0.026 0.01953,-0.01 0.042642,-0.01 0.069336,-0.01 l 0.1816406,0 c 0.016274,0 0.030272,0 0.041992,0.01 0.011717,0 0.020832,0.011 0.027344,0.02 0.00716,0.01 0.011392,0.019 0.012695,0.032 0.00195,0.012 0.00163,0.027 -9.765e-4,0.043 l -0.2246094,1.1269" />
        <path
           id="path3742"
           d="m 8.3125877,1044.0298 c -0.016277,0.081 -0.041668,0.1517 -0.076172,0.2129 -0.034506,0.061 -0.077475,0.1113 -0.1289063,0.1523 -0.051433,0.041 -0.1106779,0.072 -0.1777344,0.093 -0.066407,0.02 -0.1399746,0.03 -0.2207031,0.03 -0.085938,0 -0.1598311,-0.011 -0.2216797,-0.031 -0.061198,-0.021 -0.1097007,-0.053 -0.1455078,-0.095 -0.035807,-0.042 -0.058919,-0.094 -0.069336,-0.1563 -0.010417,-0.063 -0.00716,-0.136 0.00977,-0.2187 l 0.1503906,-0.75 c 0.0013,-0.01 0.00423,-0.012 0.00879,-0.018 0.00521,-0.01 0.013021,-0.01 0.023437,-0.013 0.011067,0 0.024739,-0.01 0.041016,-0.01 0.016927,0 0.038086,0 0.063477,0 0.024739,0 0.045247,10e-4 0.061523,0 0.016275,0 0.028971,0 0.038086,0.01 0.00911,0 0.014973,0.01 0.017578,0.013 0.00325,0.01 0.00423,0.011 0.00293,0.018 l -0.1503907,0.75 c -0.010417,0.05 -0.013347,0.093 -0.00879,0.1299 0.00456,0.036 0.015299,0.067 0.032227,0.091 0.017578,0.023 0.041015,0.041 0.070312,0.053 0.029296,0.011 0.064453,0.017 0.1054688,0.017 0.041666,0 0.080077,-0.01 0.1152344,-0.018 0.035807,-0.013 0.067382,-0.032 0.094727,-0.056 0.027343,-0.025 0.050455,-0.055 0.069336,-0.09 0.01953,-0.035 0.033853,-0.075 0.042969,-0.1202 l 0.1513672,-0.7558 c 0.0013,-0.01 0.00423,-0.012 0.00879,-0.018 0.00521,-0.01 0.012694,-0.01 0.022461,-0.013 0.010416,0 0.024087,-0.01 0.041016,-0.01 0.016926,0 0.037759,0 0.0625,0 0.024738,0 0.044921,0 0.060547,0 0.015624,0 0.027994,0 0.037109,0.01 0.00911,0 0.014973,0.01 0.017578,0.013 0.00325,0.01 0.00423,0.011 0.00293,0.018 l -0.1523438,0.7627" />
        <path
           id="path3744"
           d="m 9.2159081,1044.3228 c -8e-7,0 -6.519e-4,0.012 -0.00195,0.022 -6.518e-4,0.01 -0.00228,0.021 -0.00488,0.034 -0.00195,0.013 -0.00488,0.026 -0.00879,0.04 -0.00326,0.014 -0.00749,0.026 -0.012695,0.038 -0.00456,0.011 -0.010092,0.02 -0.016602,0.027 -0.00651,0.01 -0.013998,0.011 -0.022461,0.011 l -0.5791015,0 c -0.010417,0 -0.020182,0 -0.029297,0 -0.00846,0 -0.015625,-0.01 -0.021484,-0.015 -0.00521,-0.01 -0.00879,-0.016 -0.010742,-0.025 -0.00195,-0.011 -0.00163,-0.023 9.766e-4,-0.037 l 0.2304688,-1.1485 c 6.507e-4,-0.01 0.00358,-0.012 0.00879,-0.018 0.00521,-0.01 0.01302,-0.01 0.023437,-0.013 0.011067,0 0.024739,-0.01 0.041016,-0.01 0.016927,0 0.038086,0 0.063477,0 0.024739,0 0.045247,10e-4 0.061523,0 0.016276,0 0.028971,0 0.038086,0.01 0.00911,0 0.014973,0.01 0.017578,0.013 0.00325,0.01 0.00423,0.011 0.00293,0.018 l -0.203125,1.0176 0.3984375,0 c 0.00911,0 0.015299,0 0.018555,0.011 0.00391,0.01 0.00586,0.017 0.00586,0.028" />
        <path
           id="path3746"
           d="m 10.269619,1043.2729 c -1e-6,0 -6.52e-4,0.012 -0.002,0.023 -6.52e-4,0.01 -0.0023,0.021 -0.0049,0.033 -0.002,0.012 -0.0049,0.025 -0.0088,0.039 -0.0033,0.013 -0.0075,0.025 -0.0127,0.036 -0.0046,0.011 -0.01042,0.02 -0.01758,0.027 -0.0065,0.01 -0.01367,0.011 -0.02149,0.011 l -0.3173826,0 -0.203125,1.0185 c -0.00195,0.01 -0.00553,0.012 -0.010742,0.018 -0.00521,0.01 -0.013347,0.01 -0.024414,0.013 -0.010417,0 -0.024089,0.01 -0.041016,0.01 -0.016277,0 -0.03711,0 -0.0625,0 -0.02474,0 -0.045248,0 -0.061523,0 -0.016276,0 -0.028972,0 -0.038086,-0.01 -0.00846,0 -0.014323,-0.01 -0.017578,-0.013 -0.0026,-0.01 -0.00326,-0.011 -0.00195,-0.018 l 0.203125,-1.0185 -0.3144532,0 c -0.00977,0 -0.016602,0 -0.020508,-0.011 -0.00326,-0.01 -0.00488,-0.017 -0.00488,-0.029 -10e-8,-0.01 3.254e-4,-0.013 9.766e-4,-0.023 0.0013,-0.01 0.00293,-0.022 0.00488,-0.034 0.0026,-0.013 0.00553,-0.026 0.00879,-0.039 0.00391,-0.014 0.00846,-0.026 0.013672,-0.037 0.00521,-0.011 0.011068,-0.02 0.017578,-0.026 0.00651,-0.01 0.013672,-0.011 0.021484,-0.011 l 0.8906252,0 c 0.0078,0 0.01367,0 0.01758,0.011 0.0046,0.01 0.0068,0.017 0.0068,0.03" />
        <path
           id="path3748"
           d="m 10.4454,1044.4614 c -0.0013,0.01 -0.0046,0.012 -0.0098,0.018 -0.0052,0.01 -0.01335,0.01 -0.02441,0.013 -0.01042,0 -0.02409,0.01 -0.04102,0.01 -0.01693,0 -0.03776,0 -0.0625,0 -0.02539,0 -0.04622,-10e-4 -0.0625,0 -0.01563,0 -0.028,0 -0.03711,-0.01 -0.0091,0 -0.0153,-0.01 -0.01855,-0.013 -0.0033,-0.01 -0.0039,-0.011 -0.002,-0.018 l 0.239258,-1.1953 c 6.5e-4,-0.01 0.0036,-0.012 0.0088,-0.018 0.0059,-0.01 0.014,-0.01 0.02441,-0.013 0.01107,0 0.02474,-0.01 0.04101,-0.01 0.01693,0 0.03776,0 0.0625,0 0.02474,0 0.04492,10e-4 0.06055,0 0.01628,0 0.02897,0 0.03809,0.01 0.0098,0 0.01595,0.01 0.01855,0.013 0.0033,0.01 0.0042,0.011 0.0029,0.018 l -0.238281,1.1953" />
        <path
           id="path3750"
           d="m 12.1954,1044.4614 c -0.002,0.01 -0.0049,0.012 -0.0088,0.018 -0.0039,0.01 -0.01074,0.01 -0.02051,0.013 -0.0091,0 -0.02181,0.01 -0.03809,0.01 -0.01628,0 -0.03646,0 -0.06055,0 -0.02539,0 -0.0459,-10e-4 -0.06152,0 -0.01563,0 -0.02767,0 -0.03613,-0.01 -0.0085,0 -0.014,-0.01 -0.0166,-0.013 -0.002,-0.01 -0.0023,-0.011 -9.77e-4,-0.018 l 0.205078,-1.0283 -0.002,0 -0.573242,1.0273 c -0.0078,0.016 -0.02311,0.027 -0.0459,0.033 -0.02214,0.01 -0.05371,0.01 -0.09473,0.01 -0.04232,0 -0.07292,0 -0.0918,-0.011 -0.01823,-0.01 -0.02767,-0.017 -0.02832,-0.028 l -0.148438,-1.0303 -0.002,0 -0.206055,1.0293 c -0.0013,0.01 -0.0042,0.012 -0.0088,0.018 -0.0039,0.01 -0.01074,0.01 -0.02051,0.013 -0.0091,0 -0.02181,0.01 -0.03809,0.01 -0.01563,0 -0.03581,0 -0.06055,0 -0.02474,0 -0.04492,-10e-4 -0.06055,0 -0.01563,0 -0.02767,0 -0.03613,-0.01 -0.0085,0 -0.014,-0.01 -0.0166,-0.013 -0.0026,-0.01 -0.0029,-0.011 -9.77e-4,-0.018 l 0.224609,-1.126 c 0.0033,-0.016 0.0081,-0.031 0.01465,-0.044 0.0072,-0.013 0.01562,-0.024 0.02539,-0.032 0.01042,-0.01 0.02214,-0.016 0.03516,-0.02 0.01302,0 0.02702,-0.01 0.04199,-0.01 l 0.160156,0 c 0.02864,0 0.05306,0 0.07324,0.01 0.02018,0 0.03678,0.013 0.04981,0.024 0.01302,0.012 0.02279,0.027 0.0293,0.046 0.0072,0.019 0.01204,0.042 0.01465,0.068 l 0.122071,0.752 0.0049,0 0.433594,-0.752 c 0.01302,-0.025 0.02604,-0.047 0.03906,-0.065 0.01302,-0.019 0.02734,-0.034 0.04297,-0.046 0.01628,-0.012 0.03418,-0.021 0.05371,-0.026 0.01953,-0.01 0.04264,-0.01 0.06934,-0.01 l 0.181641,0 c 0.01627,0 0.03027,0 0.04199,0.01 0.01172,0 0.02083,0.011 0.02734,0.02 0.0072,0.01 0.01139,0.019 0.01269,0.032 0.002,0.012 0.0016,0.027 -9.76e-4,0.043 l -0.22461,1.1269" />
        <path
           id="path3752"
           d="m 13.450283,1043.269 c -1e-6,0 -6.52e-4,0.011 -0.002,0.021 -6.52e-4,0.01 -0.002,0.021 -0.0039,0.033 -0.002,0.012 -0.0046,0.024 -0.0078,0.037 -0.0033,0.013 -0.0075,0.025 -0.01269,0.036 -0.0046,0.01 -0.01042,0.019 -0.01758,0.026 -0.0065,0.01 -0.01367,0.011 -0.02149,0.011 l -0.451172,0 -0.0625,0.3086 0.382813,0 c 0.0091,0 0.01562,0 0.01953,0.01 0.0039,0.01 0.0059,0.016 0.0059,0.027 -10e-7,0 -6.52e-4,0.012 -0.002,0.022 -6.51e-4,0.01 -0.002,0.02 -0.0039,0.032 -0.002,0.012 -0.0046,0.024 -0.0078,0.036 -0.0033,0.012 -0.0075,0.024 -0.0127,0.034 -0.0046,0.01 -0.01009,0.019 -0.0166,0.025 -0.0065,0.01 -0.01367,0.01 -0.02149,0.01 l -0.381835,0 -0.07227,0.3564 0.457031,0 c 0.0078,0 0.01367,0 0.01758,0.011 0.0039,0.01 0.0059,0.016 0.0059,0.029 -1e-6,0 -3.27e-4,0.012 -9.77e-4,0.022 -6.52e-4,0.01 -0.0023,0.021 -0.0049,0.033 -0.002,0.012 -0.0046,0.024 -0.0078,0.036 -0.0033,0.012 -0.0075,0.024 -0.0127,0.035 -0.0046,0.011 -0.01009,0.019 -0.0166,0.025 -0.0065,0.01 -0.014,0.01 -0.02246,0.01 l -0.634766,0 c -0.01042,0 -0.01986,0 -0.02832,0 -0.0085,0 -0.01563,-0.01 -0.02148,-0.015 -0.0052,-0.01 -0.0088,-0.016 -0.01074,-0.025 -0.002,-0.011 -0.0016,-0.023 9.77e-4,-0.037 l 0.220703,-1.1016 c 0.0059,-0.029 0.01758,-0.049 0.03516,-0.062 0.01758,-0.013 0.03711,-0.02 0.05859,-0.02 l 0.628906,0 c 0.01693,0 0.02539,0.012 0.02539,0.037" />
        <path
           id="path3754"
           d="m 14.63583,1043.689 c -1e-6,0.039 -0.0026,0.08 -0.0078,0.124 -0.0046,0.044 -0.0127,0.088 -0.02441,0.1338 -0.01107,0.045 -0.02637,0.09 -0.0459,0.1347 -0.01888,0.044 -0.04264,0.087 -0.07129,0.128 -0.02865,0.04 -0.06283,0.078 -0.102539,0.1133 -0.03906,0.035 -0.08431,0.066 -0.135742,0.092 -0.05143,0.025 -0.109376,0.045 -0.173829,0.059 -0.06445,0.014 -0.141276,0.022 -0.230468,0.022 l -0.321289,0 c -0.01042,0 -0.02051,0 -0.03027,0 -0.0091,0 -0.01693,-0.01 -0.02344,-0.013 -0.0059,-0.01 -0.01009,-0.015 -0.0127,-0.025 -0.002,-0.01 -0.0013,-0.023 0.002,-0.039 l 0.220703,-1.1016 c 0.0052,-0.029 0.0166,-0.049 0.03418,-0.062 0.01758,-0.013 0.03841,-0.02 0.0625,-0.02 l 0.304688,0 c 0.100259,0 0.183918,0.01 0.250976,0.029 0.06771,0.02 0.124023,0.049 0.168946,0.087 0.04557,0.039 0.07943,0.086 0.101562,0.1436 0.02279,0.057 0.03418,0.1224 0.03418,0.1973 m -0.269531,0.03 c -1e-6,-0.041 -0.0055,-0.079 -0.0166,-0.1142 -0.01107,-0.035 -0.02897,-0.065 -0.05371,-0.091 -0.02474,-0.025 -0.05664,-0.045 -0.0957,-0.06 -0.03841,-0.014 -0.09017,-0.022 -0.155273,-0.022 l -0.133789,0 -0.172852,0.8594 0.134766,0 c 0.06836,0 0.12565,-0.01 0.171875,-0.024 0.04687,-0.017 0.08789,-0.04 0.123046,-0.068 0.03581,-0.029 0.06608,-0.063 0.09082,-0.1006 0.02539,-0.038 0.0459,-0.079 0.06152,-0.1211 0.01628,-0.042 0.02799,-0.086 0.03516,-0.1299 0.0072,-0.044 0.01074,-0.087 0.01074,-0.1289" />
        <path
           id="path3756"
           d="m 14.968838,1044.4614 c -0.0013,0.01 -0.0046,0.012 -0.0098,0.018 -0.0052,0.01 -0.01335,0.01 -0.02441,0.013 -0.01042,0 -0.02409,0.01 -0.04102,0.01 -0.01693,0 -0.03776,0 -0.0625,0 -0.02539,0 -0.04622,-10e-4 -0.0625,0 -0.01563,0 -0.02799,0 -0.03711,-0.01 -0.0091,0 -0.0153,-0.01 -0.01856,-0.013 -0.0033,-0.01 -0.0039,-0.011 -0.002,-0.018 l 0.239258,-1.1953 c 6.51e-4,-0.01 0.0036,-0.012 0.0088,-0.018 0.0059,-0.01 0.014,-0.01 0.02441,-0.013 0.01107,0 0.02474,-0.01 0.04102,-0.01 0.01693,0 0.03776,0 0.0625,0 0.02474,0 0.04492,10e-4 0.06055,0 0.01628,0 0.02897,0 0.03809,0.01 0.0098,0 0.01595,0.01 0.01855,0.013 0.0033,0.01 0.0042,0.011 0.0029,0.018 l -0.238281,1.1953" />
        <path
           id="path3758"
           d="m 16.29208,1044.3999 c 0.0033,0.023 0.0046,0.042 0.0039,0.056 -1e-6,0.014 -0.0046,0.024 -0.01367,0.031 -0.0085,0.01 -0.02279,0.01 -0.04297,0.012 -0.02018,0 -0.04785,0 -0.08301,0 -0.02474,0 -0.04492,-7e-4 -0.06055,0 -0.01563,-6e-4 -0.02767,0 -0.03613,0 -0.0085,0 -0.01432,-0.01 -0.01758,-0.012 -0.0033,-0.01 -0.0052,-0.012 -0.0059,-0.022 l -0.03418,-0.2539 -0.47461,0 -0.130859,0.2481 c -0.0046,0.01 -0.0098,0.017 -0.01563,0.023 -0.0059,0.01 -0.01432,0.01 -0.02539,0.014 -0.01107,0 -0.02604,0.01 -0.04492,0.01 -0.01823,0 -0.04134,0 -0.06934,0 -0.02995,0 -0.05306,-10e-4 -0.06934,0 -0.01693,0 -0.028,-0.01 -0.0332,-0.014 -0.0059,-0.01 -0.0065,-0.019 -0.002,-0.032 0.0039,-0.014 0.01205,-0.032 0.02441,-0.055 l 0.613281,-1.121 c 0.0065,-0.011 0.01302,-0.02 0.01953,-0.026 0.0065,-0.01 0.01562,-0.012 0.02734,-0.016 0.01237,0 0.02864,-0.01 0.04883,-0.01 0.02083,0 0.04785,0 0.08105,0 0.03841,0 0.06868,6e-4 0.09082,0 0.02279,7e-4 0.04036,0 0.05273,0.01 0.01237,0 0.02051,0.01 0.02441,0.016 0.0039,0.01 0.0065,0.017 0.0078,0.029 l 0.165039,1.1201 m -0.383789,-0.9268 -9.77e-4,0 -0.282226,0.5372 0.355468,0 -0.07226,-0.5372" />
        <path
           id="path3760"
           d="m 17.950283,1043.5415 c -10e-7,0.036 -0.0042,0.074 -0.01269,0.1143 -0.0078,0.04 -0.02084,0.079 -0.03906,0.1171 -0.01823,0.038 -0.04199,0.074 -0.07129,0.1084 -0.02865,0.034 -0.06413,0.064 -0.106445,0.091 -0.04167,0.026 -0.09017,0.047 -0.145508,0.062 -0.05534,0.015 -0.120443,0.022 -0.195312,0.022 l -0.131836,0 -0.08106,0.4043 c -0.0013,0.01 -0.0046,0.012 -0.0098,0.018 -0.0052,0.01 -0.01335,0.01 -0.02441,0.013 -0.01107,0 -0.02506,0.01 -0.04199,0.01 -0.01693,0 -0.03776,0 -0.0625,0 -0.02409,0 -0.04427,-10e-4 -0.06055,0 -0.01563,0 -0.028,0 -0.03711,-0.01 -0.0091,0 -0.0153,-0.01 -0.01855,-0.012 -0.0033,-0.01 -0.0039,-0.011 -0.002,-0.019 l 0.227539,-1.1377 c 0.0059,-0.031 0.01855,-0.053 0.03809,-0.068 0.01953,-0.016 0.04362,-0.024 0.07227,-0.024 l 0.276367,0 c 0.03385,0 0.06413,0 0.09082,0 0.02669,0 0.05306,0.01 0.0791,0.011 0.03971,0.01 0.07519,0.02 0.106445,0.036 0.0319,0.016 0.05892,0.037 0.08106,0.062 0.02213,0.024 0.03906,0.053 0.05078,0.086 0.01172,0.033 0.01758,0.07 0.01758,0.1113 m -0.270508,0.029 c -1e-6,-0.031 -0.0075,-0.058 -0.02246,-0.081 -0.01497,-0.023 -0.03809,-0.039 -0.06934,-0.048 -0.01367,0 -0.02897,-0.01 -0.0459,-0.01 -0.01693,0 -0.03581,0 -0.05664,0 l -0.113281,0 -0.08398,0.4287 0.117187,0 c 0.03711,0 0.06868,0 0.09473,-0.013 0.02669,-0.01 0.0498,-0.021 0.06934,-0.035 0.02018,-0.014 0.03711,-0.031 0.05078,-0.051 0.01432,-0.02 0.02572,-0.04 0.03418,-0.062 0.0091,-0.021 0.01562,-0.043 0.01953,-0.064 0.0039,-0.022 0.0059,-0.043 0.0059,-0.063" />
        <path
           id="path3762"
           d="m 18.692471,1044.3228 c -1e-6,0 -6.52e-4,0.012 -0.002,0.022 -6.51e-4,0.01 -0.0023,0.021 -0.0049,0.034 -0.002,0.013 -0.0049,0.026 -0.0088,0.04 -0.0033,0.014 -0.0075,0.026 -0.0127,0.038 -0.0046,0.011 -0.01009,0.02 -0.0166,0.027 -0.0065,0.01 -0.014,0.011 -0.02246,0.011 l -0.579102,0 c -0.01042,0 -0.02018,0 -0.0293,0 -0.0085,0 -0.01563,-0.01 -0.02148,-0.015 -0.0052,-0.01 -0.0088,-0.016 -0.01074,-0.025 -0.002,-0.011 -0.0016,-0.023 9.76e-4,-0.037 l 0.230469,-1.1485 c 6.51e-4,-0.01 0.0036,-0.012 0.0088,-0.018 0.0052,-0.01 0.01302,-0.01 0.02344,-0.013 0.01107,0 0.02474,-0.01 0.04101,-0.01 0.01693,0 0.03809,0 0.06348,0 0.02474,0 0.04525,10e-4 0.06152,0 0.01628,0 0.02897,0 0.03809,0.01 0.0091,0 0.01497,0.01 0.01758,0.013 0.0033,0.01 0.0042,0.011 0.0029,0.018 l -0.203125,1.0176 0.398437,0 c 0.0091,0 0.0153,0 0.01855,0.011 0.0039,0.01 0.0059,0.017 0.0059,0.028" />
        <path
           id="path3764"
           d="m 19.870205,1044.3999 c 0.0033,0.023 0.0046,0.042 0.0039,0.056 -1e-6,0.014 -0.0046,0.024 -0.01367,0.031 -0.0085,0.01 -0.02279,0.01 -0.04297,0.012 -0.02018,0 -0.04785,0 -0.08301,0 -0.02474,0 -0.04492,-7e-4 -0.06055,0 -0.01563,-6e-4 -0.02767,0 -0.03613,0 -0.0085,0 -0.01432,-0.01 -0.01758,-0.012 -0.0033,-0.01 -0.0052,-0.012 -0.0059,-0.022 l -0.03418,-0.2539 -0.47461,0 -0.130859,0.2481 c -0.0046,0.01 -0.0098,0.017 -0.01563,0.023 -0.0059,0.01 -0.01432,0.01 -0.02539,0.014 -0.01107,0 -0.02604,0.01 -0.04492,0.01 -0.01823,0 -0.04134,0 -0.06934,0 -0.02995,0 -0.05306,-10e-4 -0.06934,0 -0.01693,0 -0.028,-0.01 -0.0332,-0.014 -0.0059,-0.01 -0.0065,-0.019 -0.002,-0.032 0.0039,-0.014 0.01205,-0.032 0.02442,-0.055 l 0.613281,-1.121 c 0.0065,-0.011 0.01302,-0.02 0.01953,-0.026 0.0065,-0.01 0.01562,-0.012 0.02734,-0.016 0.01237,0 0.02865,-0.01 0.04883,-0.01 0.02083,0 0.04785,0 0.08106,0 0.03841,0 0.06868,6e-4 0.09082,0 0.02279,7e-4 0.04036,0 0.05273,0.01 0.01237,0 0.02051,0.01 0.02441,0.016 0.0039,0.01 0.0065,0.017 0.0078,0.029 l 0.165039,1.1201 m -0.383789,-0.9268 -9.77e-4,0 -0.282226,0.5372 0.355468,0 -0.07227,-0.5372" />
        <path
           id="path3766"
           d="m 20.454189,1044.0161 -0.08789,0.4453 c -0.002,0.01 -0.0055,0.012 -0.01074,0.018 -0.0052,0.01 -0.01335,0.01 -0.02441,0.013 -0.01042,0 -0.02409,0.01 -0.04102,0.01 -0.01693,0 -0.03776,0 -0.0625,0 -0.02474,0 -0.04525,-10e-4 -0.06152,0 -0.01628,0 -0.02897,0 -0.03809,-0.01 -0.0085,0 -0.01432,-0.01 -0.01758,-0.013 -0.0026,-0.01 -0.0033,-0.011 -0.002,-0.018 l 0.08789,-0.4453 -0.207031,-0.6885 c -0.0072,-0.023 -0.01172,-0.041 -0.01367,-0.055 -0.0013,-0.014 0.002,-0.024 0.0098,-0.03 0.0078,-0.01 0.02148,-0.012 0.04102,-0.014 0.01953,0 0.0472,0 0.08301,0 0.02734,0 0.04883,6e-4 0.06445,0 0.01628,7e-4 0.02897,0 0.03809,0.01 0.0091,0 0.0153,0.01 0.01855,0.015 0.0039,0.01 0.0072,0.014 0.0098,0.024 l 0.08496,0.3037 c 0.0098,0.036 0.01823,0.071 0.02539,0.1045 0.0078,0.033 0.01465,0.067 0.02051,0.1025 l 0.002,0 c 0.01823,-0.035 0.03711,-0.07 0.05664,-0.1035 0.01953,-0.034 0.04036,-0.068 0.0625,-0.1016 l 0.202149,-0.3086 c 0.0052,-0.01 0.01074,-0.015 0.0166,-0.021 0.0059,-0.01 0.014,-0.01 0.02441,-0.014 0.01042,0 0.02409,-0.01 0.04102,-0.01 0.01758,0 0.04102,0 0.07031,0 0.03776,0 0.06641,0 0.08594,0 0.02018,0 0.0332,0.01 0.03906,0.015 0.0065,0.01 0.0062,0.018 -9.76e-4,0.031 -0.0065,0.013 -0.01725,0.03 -0.03223,0.052 l -0.484375,0.6885" />
        <path
           id="path3768"
           d="m 21.872158,1043.269 c -10e-7,0 -6.52e-4,0.011 -0.002,0.021 -6.52e-4,0.01 -0.002,0.021 -0.0039,0.033 -0.002,0.012 -0.0046,0.024 -0.0078,0.037 -0.0033,0.013 -0.0075,0.025 -0.0127,0.036 -0.0046,0.01 -0.01042,0.019 -0.01758,0.026 -0.0065,0.01 -0.01367,0.011 -0.02149,0.011 l -0.451172,0 -0.0625,0.3086 0.382813,0 c 0.0091,0 0.01562,0 0.01953,0.01 0.0039,0.01 0.0059,0.016 0.0059,0.027 -1e-6,0 -6.52e-4,0.012 -0.002,0.022 -6.51e-4,0.01 -0.002,0.02 -0.0039,0.032 -0.002,0.012 -0.0046,0.024 -0.0078,0.036 -0.0033,0.012 -0.0075,0.024 -0.0127,0.034 -0.0046,0.01 -0.01009,0.019 -0.0166,0.025 -0.0065,0.01 -0.01367,0.01 -0.02148,0.01 l -0.381835,0 -0.07227,0.3564 0.457031,0 c 0.0078,0 0.01367,0 0.01758,0.011 0.0039,0.01 0.0059,0.016 0.0059,0.029 -10e-7,0 -3.27e-4,0.012 -9.77e-4,0.022 -6.52e-4,0.01 -0.0023,0.021 -0.0049,0.033 -0.002,0.012 -0.0046,0.024 -0.0078,0.036 -0.0033,0.012 -0.0075,0.024 -0.0127,0.035 -0.0046,0.011 -0.01009,0.019 -0.0166,0.025 -0.0065,0.01 -0.014,0.01 -0.02246,0.01 l -0.634766,0 c -0.01042,0 -0.01986,0 -0.02832,0 -0.0085,0 -0.01563,-0.01 -0.02148,-0.015 -0.0052,-0.01 -0.0088,-0.016 -0.01074,-0.025 -0.002,-0.011 -0.0016,-0.023 9.77e-4,-0.037 l 0.220703,-1.1016 c 0.0059,-0.029 0.01758,-0.049 0.03516,-0.062 0.01758,-0.013 0.03711,-0.02 0.05859,-0.02 l 0.628906,0 c 0.01693,0 0.02539,0.012 0.02539,0.037" />
        <path
           id="path3770"
           d="m 22.925869,1043.5073 c -10e-7,0.042 -0.0059,0.083 -0.01758,0.124 -0.01107,0.041 -0.02897,0.08 -0.05371,0.1163 -0.02474,0.036 -0.05697,0.069 -0.09668,0.099 -0.03906,0.029 -0.08691,0.053 -0.143554,0.07 0.03125,0.012 0.05729,0.037 0.07813,0.074 0.02148,0.036 0.03906,0.087 0.05273,0.1504 l 0.05176,0.2568 c 0.0026,0.014 0.0046,0.027 0.0059,0.039 0.002,0.011 0.0029,0.021 0.0029,0.028 -1e-6,0.01 -0.0023,0.012 -0.0068,0.017 -0.0039,0 -0.01139,0.01 -0.02246,0.012 -0.01107,0 -0.02637,0 -0.0459,0.01 -0.01888,0 -0.04297,0 -0.07227,0 -0.02734,0 -0.04948,-10e-4 -0.06641,0 -0.01628,0 -0.02897,0 -0.03809,-0.01 -0.0091,0 -0.0153,-0.01 -0.01856,-0.015 -0.0026,-0.01 -0.0046,-0.013 -0.0059,-0.021 l -0.04883,-0.2802 c -0.0052,-0.033 -0.01237,-0.061 -0.02148,-0.086 -0.0085,-0.025 -0.01953,-0.045 -0.0332,-0.062 -0.01367,-0.017 -0.0306,-0.029 -0.05078,-0.037 -0.01953,-0.01 -0.04297,-0.013 -0.07031,-0.013 l -0.08008,0 -0.09668,0.4824 c -0.0013,0.01 -0.0046,0.012 -0.0098,0.018 -0.0052,0.01 -0.01335,0.01 -0.02441,0.013 -0.01042,0 -0.02409,0.01 -0.04102,0.01 -0.01693,0 -0.03776,0 -0.0625,0 -0.02474,0 -0.04525,-10e-4 -0.06152,0 -0.01563,0 -0.028,0 -0.03711,-0.01 -0.0091,0 -0.0153,-0.01 -0.01855,-0.012 -0.0033,-0.01 -0.0039,-0.011 -0.002,-0.019 l 0.230469,-1.1484 c 0.0052,-0.029 0.0166,-0.049 0.03418,-0.062 0.01823,-0.013 0.03906,-0.02 0.0625,-0.02 l 0.338867,0 c 0.05924,0 0.112629,0.01 0.160156,0.017 0.04818,0.011 0.08919,0.028 0.123047,0.051 0.03385,0.023 0.0599,0.051 0.07813,0.086 0.01823,0.034 0.02734,0.075 0.02734,0.122 m -0.275391,0.048 c 0,-0.018 -0.0033,-0.035 -0.0098,-0.051 -0.0059,-0.016 -0.01563,-0.029 -0.0293,-0.04 -0.01367,-0.012 -0.03158,-0.021 -0.05371,-0.026 -0.02148,-0.01 -0.04753,-0.01 -0.07813,-0.01 l -0.145508,0 -0.07129,0.3584 0.12207,0 c 0.04883,0 0.09017,-0.01 0.124024,-0.02 0.03385,-0.014 0.0612,-0.033 0.08203,-0.055 0.02083,-0.022 0.03581,-0.046 0.04492,-0.073 0.0098,-0.027 0.01465,-0.055 0.01465,-0.083" />
      </g>
      <g
         id="text3718"
         style="font-size:10px;font-style:italic;font-variant:normal;font-weight:bold;font-stretch:normal;fill:#d1dfe2;fill-opacity:1;stroke:none;font-family:Purisa;-inkscape-font-specification:'A.C.M.E. Secret Agent Italic'">
        <path
           id="path3737"
           d="m 12.070776,1034.4877 c -0.106669,0 -0.186669,-0.033 -0.24,-0.1 -0.04667,-0.067 -0.07,-0.19 -0.07,-0.37 -2e-6,-0.3467 0.116664,-1.0833 0.35,-2.21 0.239997,-1.1267 0.366663,-1.8033 0.38,-2.03 -0.04,0.033 -0.173336,0.1667 -0.4,0.4 -0.226669,0.2333 -0.430002,0.42 -0.61,0.56 -0.180002,0.1333 -0.330002,0.2 -0.45,0.2 -0.08,0 -0.146668,-0.027 -0.2,-0.08 -0.05334,-0.053 -0.08,-0.12 -0.08,-0.2 -10e-7,-0.1 0.02333,-0.1833 0.07,-0.25 0.05333,-0.073 0.156665,-0.1733 0.31,-0.3 0.153331,-0.1333 0.269998,-0.24 0.35,-0.32 l 0.44,-0.44 c 0.1,-0.1 0.23333,-0.2567 0.4,-0.47 0.17333,-0.22 0.32333,-0.3867 0.45,-0.5 0.126663,-0.12 0.256663,-0.18 0.39,-0.18 0.186663,0 0.279996,0.15 0.28,0.45 -4e-6,0.28 -0.143337,1.2267 -0.43,2.84 -0.28667,1.6067 -0.48667,2.5433 -0.6,2.81 -0.10667,0.1267 -0.220003,0.19 -0.34,0.19" />
      </g>
      <g
         id="text3722"
         style="font-size:10px;font-style:italic;font-variant:normal;font-weight:bold;font-stretch:normal;fill:#d1dfe2;fill-opacity:1;stroke:none;font-family:Purisa;-inkscape-font-specification:'A.C.M.E. Secret Agent Italic'">
        <path
           id="path3734"
           d="m 23.640777,1031.9577 c 0.486664,-0.073 0.83333,-0.13 1.04,-0.17 0.206663,-0.047 0.336663,-0.087 0.39,-0.12 0.05333,-0.04 0.09,-0.1033 0.11,-0.19 0.04,-0.2067 0.07666,-0.4767 0.11,-0.81 l 0.03,-0.36 -0.31,0.27 c -0.513337,0.4533 -0.970003,0.9133 -1.37,1.38 m 2.08,2.24 c -4e-6,0.1 -0.06334,0.2033 -0.19,0.31 -0.120004,0.1133 -0.240004,0.17 -0.36,0.17 -0.220004,0 -0.330004,-0.24 -0.33,-0.72 -4e-6,-0.1733 0.01666,-0.4233 0.05,-0.75 0.03333,-0.3333 0.05,-0.54 0.05,-0.62 -4e-6,-0.06 -0.0033,-0.1 -0.01,-0.12 -0.07334,0.013 -0.270003,0.05 -0.59,0.11 -0.313336,0.053 -0.616669,0.1033 -0.91,0.15 -0.286669,0.04 -0.513335,0.06 -0.68,0.06 -0.280001,0 -0.420001,-0.087 -0.42,-0.26 -1e-6,-0.2067 0.196665,-0.5133 0.59,-0.92 0.619998,-0.64 1.29333,-1.29 2.02,-1.95 0.733329,-0.6667 1.159995,-1 1.28,-1 0.03333,0 0.09,-0.043 0.17,-0.13 0.08,-0.093 0.173328,-0.14 0.28,-0.14 0.09999,0 0.176661,0.033 0.23,0.1 0.05333,0.06 0.07999,0.13 0.08,0.21 -6e-6,0.08 -0.03667,0.1733 -0.11,0.28 -0.07334,0.1067 -0.160005,0.2 -0.26,0.28 -0.120005,0.1067 -0.203338,0.2133 -0.25,0.32 -0.04,0.1 -0.09667,0.3267 -0.17,0.68 -0.120005,0.5733 -0.180005,0.9267 -0.18,1.06 -5e-6,0.06 0.01,0.09 0.03,0.09 0.146662,0 0.333328,-0.047 0.56,-0.14 0.226661,-0.093 0.366661,-0.14 0.42,-0.14 0.153327,0 0.276661,0.04 0.37,0.12 0.09333,0.073 0.139994,0.1633 0.14,0.27 -6e-6,0.047 -0.01001,0.097 -0.03,0.15 -0.02001,0.047 -0.07334,0.1033 -0.16,0.17 -0.08667,0.067 -0.203339,0.1067 -0.35,0.12 -0.120006,0.01 -0.366672,0.063 -0.74,0.17 l -0.39,0.11 -0.11,0.72 c -0.04667,0.2667 -0.07,0.52 -0.07,0.76 -4e-6,0.1067 0.0067,0.21 0.02,0.31 0.01333,0.1 0.02,0.1567 0.02,0.17" />
      </g>
      <g
         id="text3726"
         style="font-size:10px;font-style:italic;font-variant:normal;font-weight:bold;font-stretch:normal;fill:#d1dfe2;fill-opacity:1;stroke:none;font-family:Purisa;-inkscape-font-specification:'A.C.M.E. Secret Agent Italic'">
        <path
           id="path3731"
           d="m 35.450777,1031.1677 c -0.120002,0 -0.203335,-0.02 -0.25,-0.06 -0.04667,-0.04 -0.07,-0.12 -0.07,-0.24 -2e-6,-0.1067 0.02667,-0.2933 0.08,-0.56 l 0.34,-1.61 2,-0.33 c 0.413329,-0.067 0.689995,-0.1 0.83,-0.1 0.313328,0 0.469994,0.13 0.47,0.39 -6e-6,0.087 -0.02001,0.2067 -0.06,0.36 -0.03334,0.1533 -0.09334,0.3467 -0.18,0.58 -0.08667,0.2333 -0.173339,0.46 -0.26,0.68 -0.08667,0.22 -0.206672,0.51 -0.36,0.87 -0.153338,0.36 -0.286671,0.6667 -0.4,0.92 -0.106671,0.2533 -0.256671,0.6033 -0.45,1.05 -0.193337,0.44 -0.34667,0.79 -0.46,1.05 -0.06667,0.1533 -0.143337,0.2633 -0.23,0.33 -0.08667,0.06 -0.20667,0.09 -0.36,0.09 -0.246669,0 -0.370002,-0.067 -0.37,-0.2 -2e-6,-0.26 0.296664,-0.9833 0.89,-2.17 0.179996,-0.3667 0.409996,-0.8967 0.69,-1.59 0.279996,-0.6933 0.459995,-1.1633 0.54,-1.41 l -0.12,0 c -0.293338,0 -0.533337,0.01 -0.72,0.02 l -0.79,0.05 -0.05,0.38 c -0.0067,0.04 -0.02,0.1 -0.04,0.18 -0.01334,0.08 -0.02,0.1267 -0.02,0.14 -0.100003,0.4533 -0.203336,0.7633 -0.31,0.93 -0.100002,0.1667 -0.213336,0.25 -0.34,0.25" />
      </g>
    </g>
  </g>
</svg>
