<?xml version="1.0" encoding="UTF-8" standalone="no"?>
<!-- Created with Inkscape (http://www.inkscape.org/) -->

<svg
   xmlns:dc="http://purl.org/dc/elements/1.1/"
   xmlns:cc="http://creativecommons.org/ns#"
   xmlns:rdf="http://www.w3.org/1999/02/22-rdf-syntax-ns#"
   xmlns:svg="http://www.w3.org/2000/svg"
   xmlns="http://www.w3.org/2000/svg"
   xmlns:xlink="http://www.w3.org/1999/xlink"
   xmlns:sodipodi="http://sodipodi.sourceforge.net/DTD/sodipodi-0.dtd"
   xmlns:inkscape="http://www.inkscape.org/namespaces/inkscape"
   width="48"
   height="48"
   id="svg2"
   version="1.1"
   inkscape:version="0.47pre4 r22446"
   sodipodi:docname="view-calendar-list.svg"
   inkscape:export-filename="/home/andrea/.icons/MeliaeSVG/48/apps/png/evolution-calendar.png"
   inkscape:export-xdpi="240"
   inkscape:export-ydpi="240">
  <defs
     id="defs4">
    <linearGradient
       id="linearGradient3678">
      <stop
         style="stop-color:#de220c;stop-opacity:1;"
         offset="0"
         id="stop3680" />
      <stop
         style="stop-color:#700000;stop-opacity:1;"
         offset="1"
         id="stop3682" />
    </linearGradient>
    <linearGradient
       id="linearGradient3952">
      <stop
         style="stop-color:#141414;stop-opacity:1;"
         offset="0"
         id="stop3954" />
      <stop
         style="stop-color:#f0f0f0;stop-opacity:0.39215687;"
         offset="1"
         id="stop3956" />
    </linearGradient>
    <linearGradient
       id="linearGradient3866">
      <stop
         style="stop-color:#000000;stop-opacity:1;"
         offset="0"
         id="stop3868" />
      <stop
         style="stop-color:#c8c8c8;stop-opacity:0.39215687"
         offset="1"
         id="stop3870" />
    </linearGradient>
    <linearGradient
       id="linearGradient3852">
      <stop
         style="stop-color:#ffffff;stop-opacity:1;"
         offset="0"
         id="stop3854" />
      <stop
         style="stop-color:#ffffff;stop-opacity:0;"
         offset="1"
         id="stop3856" />
    </linearGradient>
    <linearGradient
       id="linearGradient3823">
      <stop
         style="stop-color:#c8c8c8;stop-opacity:1;"
         offset="0"
         id="stop3825" />
      <stop
         style="stop-color:#f0f0f0;stop-opacity:1;"
         offset="1"
         id="stop3827" />
    </linearGradient>
    <linearGradient
       id="linearGradient3805">
      <stop
         style="stop-color:#f0f0f0;stop-opacity:1;"
         offset="0"
         id="stop3807" />
      <stop
         id="stop3815"
         offset="0.81645572"
         style="stop-color:#969696;stop-opacity:1;" />
      <stop
         style="stop-color:#b4b4b4;stop-opacity:1;"
         offset="1"
         id="stop3809" />
    </linearGradient>
    <inkscape:perspective
       sodipodi:type="inkscape:persp3d"
       inkscape:vp_x="0 : 526.18109 : 1"
       inkscape:vp_y="0 : 1000 : 0"
       inkscape:vp_z="744.09448 : 526.18109 : 1"
       inkscape:persp3d-origin="372.04724 : 350.78739 : 1"
       id="perspective10" />
    <inkscape:perspective
       id="perspective2884"
       inkscape:persp3d-origin="0.5 : 0.33333333 : 1"
       inkscape:vp_z="1 : 0.5 : 1"
       inkscape:vp_y="0 : 1000 : 0"
       inkscape:vp_x="0 : 0.5 : 1"
       sodipodi:type="inkscape:persp3d" />
    <radialGradient
       spreadMethod="reflect"
       gradientTransform="matrix(1.4549755,-2.6431351e-8,4.9999995e-8,2.2746832,13.630343,-6.8389883)"
       gradientUnits="userSpaceOnUse"
       xlink:href="#linearGradient3520"
       id="radialGradient3562"
       fy="4.9179006"
       fx="14"
       r="2"
       cy="4.9179006"
       cx="14" />
    <linearGradient
       id="linearGradient3520">
      <stop
         offset="0"
         style="stop-color:#f2f2f2;stop-opacity:1"
         id="stop3522" />
      <stop
         offset="1"
         style="stop-color:#999;stop-opacity:1"
         id="stop3524" />
    </linearGradient>
    <radialGradient
       spreadMethod="reflect"
       gradientTransform="matrix(1.4549755,-2.6431351e-8,4.9999995e-8,2.2746832,-6.3696571,-6.8389883)"
       gradientUnits="userSpaceOnUse"
       xlink:href="#linearGradient3520"
       id="radialGradient3560"
       fy="4.9179006"
       fx="14"
       r="2"
       cy="4.9179006"
       cx="14" />
    <linearGradient
       gradientTransform="matrix(1,0,0,0.75,0,4)"
       gradientUnits="userSpaceOnUse"
       xlink:href="#linearGradient3510"
       id="linearGradient2448"
       y2="20.000023"
       x2="23.414803"
       y1="16"
       x1="23.414803" />
    <linearGradient
       id="linearGradient3510">
      <stop
         offset="0"
         style="stop-color:black;stop-opacity:1"
         id="stop3512" />
      <stop
         offset="1"
         style="stop-color:black;stop-opacity:0"
         id="stop3514" />
    </linearGradient>
    <linearGradient
       gradientTransform="translate(9.5367432e-6,0.9674388)"
       gradientUnits="userSpaceOnUse"
       xlink:href="#linearGradient3308-4-6"
       id="linearGradient2452"
       y2="43"
       x2="23.99999"
       y1="4.999989"
       x1="23.99999" />
    <linearGradient
       id="linearGradient3308-4-6">
      <stop
         offset="0"
         style="stop-color:white;stop-opacity:1"
         id="stop3310-1-4" />
      <stop
         offset="1"
         style="stop-color:white;stop-opacity:0"
         id="stop3312-5-3" />
    </linearGradient>
    <radialGradient
       gradientTransform="matrix(1.5295716e-8,1.1115568,-1.5963079,0,35.052637,0.9315072)"
       gradientUnits="userSpaceOnUse"
       xlink:href="#linearGradient3357"
       id="radialGradient2455"
       fy="11.394437"
       fx="12.063192"
       r="19.99999"
       cy="11.394437"
       cx="12.063192" />
    <linearGradient
       id="linearGradient3357">
      <stop
         offset="0"
         style="stop-color:#f89b7e;stop-opacity:1"
         id="stop3359" />
      <stop
         offset="0.39678687"
         style="stop-color:#e35d4f;stop-opacity:1"
         id="stop3361" />
      <stop
         offset="1"
         style="stop-color:#c6262e;stop-opacity:1"
         id="stop3363" />
    </linearGradient>
    <linearGradient
       gradientTransform="translate(0,0.9674388)"
       gradientUnits="userSpaceOnUse"
       xlink:href="#linearGradient2490"
       id="linearGradient2457"
       y2="3.8990016"
       x2="24"
       y1="44"
       x1="24" />
    <linearGradient
       id="linearGradient2490">
      <stop
         offset="0"
         style="stop-color:#791235;stop-opacity:1"
         id="stop2492" />
      <stop
         offset="1"
         style="stop-color:#dd3b27;stop-opacity:1"
         id="stop2494" />
    </linearGradient>
    <linearGradient
       gradientUnits="userSpaceOnUse"
       xlink:href="#linearGradient3600"
       id="linearGradient2460"
       y2="44.98436"
       x2="19.360001"
       y1="16.137854"
       x1="19.360001" />
    <linearGradient
       id="linearGradient3600">
      <stop
         offset="0"
         style="stop-color:#f4f4f4;stop-opacity:1"
         id="stop3602" />
      <stop
         offset="1"
         style="stop-color:#dbdbdb;stop-opacity:1"
         id="stop3604" />
    </linearGradient>
    <linearGradient
       gradientTransform="translate(0,0.9674388)"
       gradientUnits="userSpaceOnUse"
       xlink:href="#linearGradient3104"
       id="linearGradient2462"
       y2="3.8904724"
       x2="24"
       y1="44"
       x1="24" />
    <linearGradient
       id="linearGradient3104">
      <stop
         offset="0"
         style="stop-color:#787878;stop-opacity:1"
         id="stop3106" />
      <stop
         offset="1"
         style="stop-color:#aaa;stop-opacity:1"
         id="stop3108" />
    </linearGradient>
    <radialGradient
       gradientTransform="matrix(2.003784,0,0,1.4,27.98813,-17.4)"
       gradientUnits="userSpaceOnUse"
       xlink:href="#linearGradient3688"
       id="radialGradient2873"
       fy="43.5"
       fx="4.9929786"
       r="2.5"
       cy="43.5"
       cx="4.9929786" />
    <linearGradient
       id="linearGradient3688">
      <stop
         offset="0"
         style="stop-color:black;stop-opacity:1"
         id="stop3690" />
      <stop
         offset="1"
         style="stop-color:black;stop-opacity:0"
         id="stop3692" />
    </linearGradient>
    <radialGradient
       gradientTransform="matrix(2.003784,0,0,1.4,-20.01187,-104.4)"
       gradientUnits="userSpaceOnUse"
       xlink:href="#linearGradient3688"
       id="radialGradient2875"
       fy="43.5"
       fx="4.9929786"
       r="2.5"
       cy="43.5"
       cx="4.9929786" />
    <linearGradient
       gradientUnits="userSpaceOnUse"
       xlink:href="#linearGradient3702"
       id="linearGradient2877"
       y2="39.999443"
       x2="25.058096"
       y1="47.027729"
       x1="25.058096" />
    <linearGradient
       id="linearGradient3702">
      <stop
         offset="0"
         style="stop-color:black;stop-opacity:0"
         id="stop3704" />
      <stop
         offset="0.5"
         style="stop-color:black;stop-opacity:1"
         id="stop3710" />
      <stop
         offset="1"
         style="stop-color:black;stop-opacity:0"
         id="stop3706" />
    </linearGradient>
    <inkscape:perspective
       id="perspective3734"
       inkscape:persp3d-origin="24 : 16 : 1"
       inkscape:vp_z="48 : 24 : 1"
       inkscape:vp_y="0 : 1000 : 0"
       inkscape:vp_x="0 : 24 : 1"
       sodipodi:type="inkscape:persp3d" />
    <filter
       inkscape:collect="always"
       id="filter3878">
      <feGaussianBlur
         inkscape:collect="always"
         stdDeviation="0.19"
         id="feGaussianBlur3880" />
    </filter>
    <radialGradient
       inkscape:collect="always"
       xlink:href="#linearGradient3805"
       id="radialGradient3927"
       gradientUnits="userSpaceOnUse"
       gradientTransform="matrix(2.1160716,0,0,2.25,4.374997,-1263.2027)"
       cx="14"
       cy="1009.7471"
       fx="14"
       fy="1009.7471"
       r="2" />
    <radialGradient
       inkscape:collect="always"
       xlink:href="#linearGradient3805"
       id="radialGradient3931"
       gradientUnits="userSpaceOnUse"
       gradientTransform="matrix(2.1160716,0,0,2.25,-15.625003,-1263.2027)"
       cx="14"
       cy="1009.7471"
       fx="14"
       fy="1009.7471"
       r="2" />
    <linearGradient
       inkscape:collect="always"
       xlink:href="#linearGradient3852"
       id="linearGradient3935"
       gradientUnits="userSpaceOnUse"
       x1="47.82143"
       y1="1039.8622"
       x2="24"
       y2="1045.2194"
       gradientTransform="translate(0,-0.24998262)" />
    <linearGradient
       inkscape:collect="always"
       xlink:href="#linearGradient3823"
       id="linearGradient3941"
       gradientUnits="userSpaceOnUse"
       x1="11.428572"
       y1="1018.9336"
       x2="36.035713"
       y2="1042.3264"
       gradientTransform="translate(0,-0.24998262)" />
    <linearGradient
       inkscape:collect="always"
       xlink:href="#linearGradient3823"
       id="linearGradient3945"
       gradientUnits="userSpaceOnUse"
       x1="15.101525"
       y1="1017.9878"
       x2="36.939083"
       y2="1043.2416"
       gradientTransform="translate(0,-0.24998262)" />
    <linearGradient
       inkscape:collect="always"
       xlink:href="#linearGradient3952"
       id="linearGradient3958"
       x1="17.242857"
       y1="1009.9622"
       x2="28.031799"
       y2="1050.2271"
       gradientUnits="userSpaceOnUse" />
    <filter
       inkscape:collect="always"
       id="filter4010">
      <feGaussianBlur
         inkscape:collect="always"
         stdDeviation="0.4375"
         id="feGaussianBlur4012" />
    </filter>
    <linearGradient
       inkscape:collect="always"
       xlink:href="#linearGradient3952"
       id="linearGradient2919"
       gradientUnits="userSpaceOnUse"
       x1="17.242857"
       y1="1009.9622"
       x2="28.031799"
       y2="1050.2271" />
    <linearGradient
       inkscape:collect="always"
       xlink:href="#linearGradient3678"
       id="linearGradient3684"
       x1="24"
       y1="1022.9693"
       x2="24"
       y2="1011.1122"
       gradientUnits="userSpaceOnUse" />
  </defs>
  <sodipodi:namedview
     id="base"
     pagecolor="#ffffff"
     bordercolor="#666666"
     borderopacity="1.0"
     inkscape:pageopacity="0.0"
     inkscape:pageshadow="2"
     inkscape:zoom="7.919596"
     inkscape:cx="21.490699"
     inkscape:cy="16.297322"
     inkscape:document-units="px"
     inkscape:current-layer="layer1"
     showgrid="false"
     inkscape:window-width="1280"
     inkscape:window-height="714"
     inkscape:window-x="0"
     inkscape:window-y="25"
     inkscape:window-maximized="1" />
  <metadata
     id="metadata7">
    <rdf:RDF>
      <cc:Work
         rdf:about="">
        <dc:format>image/svg+xml</dc:format>
        <dc:type
           rdf:resource="http://purl.org/dc/dcmitype/StillImage" />
        <dc:title />
      </cc:Work>
    </rdf:RDF>
  </metadata>
  <g
     inkscape:label="Livello 1"
     inkscape:groupmode="layer"
     id="layer1"
     transform="translate(0,-1004.3622)">
    <path
       style="fill:#333333;fill-opacity:0.78431373999999998;stroke:none;filter:url(#filter4010)"
       d="M 13.5 1.25 C 12.669 1.25 12 1.919 12 2.75 L 12 4.75 L 5 4.75 C 3.892 4.75 3 5.642 3 6.75 L 3 44.75 C 3 45.858 3.892 46.75 5 46.75 L 43 46.75 C 44.108 46.75 45 45.858 45 44.75 L 45 6.75 C 45 5.642 44.108 4.75 43 4.75 L 36 4.75 L 36 2.75 C 36 1.919 35.331 1.25 34.5 1.25 L 33.5 1.25 C 32.669 1.25 32 1.919 32 2.75 L 32 4.75 L 16 4.75 L 16 2.75 C 16 1.919 15.331 1.25 14.5 1.25 L 13.5 1.25 z "
       transform="translate(0,1004.3622)"
       id="rect4003" />
    <path
       style="fill:#000000;fill-opacity:1;stroke:none"
       d="m 5,1009.1122 38,0 c 1.108,0 2,0.892 2,2 l 0,38 c 0,1.108 -0.892,2 -2,2 l -38,0 c -1.108,0 -2,-0.892 -2,-2 l 0,-38 c 0,-1.108 0.892,-2 2,-2 z"
       id="rect2890" />
    <path
       style="font-size:medium;font-style:normal;font-variant:normal;font-weight:normal;font-stretch:normal;text-indent:0;text-align:start;text-decoration:none;line-height:normal;letter-spacing:normal;word-spacing:normal;text-transform:none;direction:ltr;block-progression:tb;writing-mode:lr-tb;text-anchor:start;color:#000000;fill:url(#linearGradient2919);fill-opacity:1;stroke:none;stroke-width:0.30000001;marker:none;visibility:visible;display:inline;overflow:visible;enable-background:accumulate;font-family:'A.C.M.E. Secret Agent';-inkscape-font-specification:'A.C.M.E. Secret Agent'"
       d="m 5.5,1009.9688 c -0.9115054,0 -1.65625,0.7447 -1.65625,1.6562 l 0,37 c 0,0.9115 0.7447446,1.625 1.65625,1.625 l 37,0 c 0.911505,0 1.65625,-0.7135 1.65625,-1.625 l 0,-37 c 0,-0.9115 -0.744745,-1.6562 -1.65625,-1.6562 l -37,0 z m 0,0.2812 37,0 c 0.750495,0 1.34375,0.6245 1.34375,1.375 l 0,37 c 0,0.7505 -0.593255,1.3438 -1.34375,1.3438 l -37,0 c -0.7504946,0 -1.34375,-0.5933 -1.34375,-1.3438 l 0,-37 c 0,-0.7505 0.5932554,-1.375 1.34375,-1.375 z"
       id="rect3864" />
    <path
       style="fill:#333333;fill-opacity:0.78431373;stroke:none;filter:url(#filter3878)"
       d="m 5,1011.4908 38,0 0,38 -38,0 0,-38 z"
       id="rect3874" />
    <path
       style="fill:url(#linearGradient3945);fill-opacity:1;stroke:none"
       d="m 5,1011.1122 38,0 0,38 -38,0 0,-38 z"
       id="rect3821" />
    <path
       sodipodi:nodetypes="cccc"
       id="path3834"
       d="m 43,1030.1122 c -0.510632,5.334 -0.460781,11.5732 -2.857143,15.9643 -5.083333,2.4296 -11.059524,1.9309 -16.142857,3.0357 l 19,-19 z"
       style="fill:#333333;fill-opacity:0.58823532;stroke:none" />
    <path
       style="fill:url(#linearGradient3941);fill-opacity:1;stroke:none"
       d="m 5,1011.1122 38,0 0,19 c -0.510632,5.334 -1.353638,10.5018 -3.75,14.8929 -5.083333,2.4296 -10.166667,3.0023 -15.25,4.1071 l -19,0 0,-38 z"
       id="rect3831"
       sodipodi:nodetypes="ccccccc" />
    <path
       sodipodi:nodetypes="ccccc"
       id="path3840"
       d="m 5,1011.1122 38,0 0,11.8571 -38,0 0,-11.8571 z"
       style="fill:url(#linearGradient3684);fill-opacity:1;stroke:none" />
    <g
       style="font-size:14px;font-style:normal;font-variant:normal;font-weight:bold;font-stretch:normal;fill:#333333;fill-opacity:1;stroke:#f0f0f0;stroke-width:0.30000001;stroke-miterlimit:4;stroke-opacity:1;font-family:Impact;-inkscape-font-specification:'A.C.M.E. Secret Agent Bold'"
       id="text2915">
      <path
         d="m 17.833986,1029.3479 0,11.0674 -2.84375,0 0,-11.0674 2.84375,0"
         style=""
         id="path3721" />
      <path
         d="m 21.662111,1029.3479 0,1.4424 -2.84375,0 0,-1.4424 2.84375,0 m 0,1.9961 0,9.0713 -2.84375,0 0,-9.0713 2.84375,0"
         style=""
         id="path3723" />
      <path
         d="m 28.286135,1034.2424 -2.447266,0 0,-0.4922 c -4e-6,-0.4192 -0.02507,-0.6835 -0.07519,-0.7929 -0.04558,-0.1139 -0.164066,-0.1709 -0.355469,-0.1709 -0.154951,0 -0.271162,0.052 -0.348633,0.1572 -0.07748,0.1003 -0.116214,0.2529 -0.116211,0.458 -3e-6,0.278 0.01823,0.4831 0.05469,0.6152 0.04101,0.1277 0.157223,0.2689 0.348633,0.4239 0.19596,0.1549 0.594722,0.3805 1.196289,0.6767 0.802078,0.392 1.328444,0.7611 1.579101,1.1075 0.250645,0.3463 0.37597,0.8499 0.375977,1.5107 -7e-6,0.7383 -0.09571,1.2965 -0.28711,1.6748 -0.191412,0.3737 -0.5127,0.6631 -0.963867,0.8682 -0.446619,0.2005 -0.986658,0.3007 -1.620117,0.3007 -0.701826,0 -1.303388,-0.1093 -1.804687,-0.3281 -0.496746,-0.2187 -0.838543,-0.515 -1.025391,-0.8887 -0.18685,-0.3736 -0.280274,-0.9388 -0.280274,-1.6953 l 0,-0.4375 2.447266,0 0,0.5743 c -3e-6,0.4876 0.02962,0.8043 0.08887,0.9502 0.0638,0.1458 0.186846,0.2187 0.369141,0.2187 0.19596,0 0.332679,-0.048 0.410156,-0.1436 0.07747,-0.1002 0.116207,-0.3076 0.116211,-0.622 -4e-6,-0.433 -0.05013,-0.7041 -0.150391,-0.8135 -0.104821,-0.1094 -0.640302,-0.4329 -1.606445,-0.9707 -0.811199,-0.4557 -1.305665,-0.8682 -1.483398,-1.2373 -0.177735,-0.3737 -0.266602,-0.8158 -0.266602,-1.3262 0,-0.7246 0.0957,-1.2578 0.28711,-1.5996 0.191405,-0.3463 0.514972,-0.6129 0.970703,-0.7998 0.460284,-0.1868 0.993487,-0.2803 1.599609,-0.2803 0.601559,0 1.111975,0.077 1.53125,0.2325 0.423823,0.1504 0.74739,0.3509 0.970703,0.6015 0.227859,0.2507 0.364577,0.4831 0.410156,0.6973 0.05013,0.2142 0.07519,0.5491 0.0752,1.0049 l 0,0.5263"
         style=""
         id="path3725" />
      <path
         d="m 32.148439,1030.134 0,1.4287 0.745118,0 0,1.4356 -0.745118,0 0,4.8535 c -3e-6,0.597 0.02962,0.9297 0.08887,0.9981 0.0638,0.068 0.321285,0.1025 0.772461,0.1025 l 0,1.4629 -1.114258,0 c -0.628909,0 -1.077802,-0.025 -1.34668,-0.075 -0.268882,-0.055 -0.505861,-0.1755 -0.710937,-0.3623 -0.205079,-0.1914 -0.332684,-0.4079 -0.382813,-0.6494 -0.05013,-0.2461 -0.0752,-0.8203 -0.07519,-1.7227 l 0,-4.6074 -0.594727,0 0,-1.4356 0.594727,0 0,-1.4287 2.768554,0"
         style=""
         id="path3727" />
    </g>
    <path
       sodipodi:nodetypes="cccc"
       id="path3850"
       d="m 43,1030.1122 c -0.510632,5.334 -1.353638,10.5018 -3.75,14.8929 -5.083333,2.4296 -10.166667,3.0023 -15.25,4.1071 7.462518,-4.6909 14.146515,-10.5142 19,-19 z"
       style="fill:url(#linearGradient3935);fill-opacity:1;stroke:none" />
    <path
       style="fill:#640000;fill-opacity:1;stroke:none"
       d="m 13.5,1006.2818 1,0 c 0.831,0 1.5,0.669 1.5,1.5 l 0,6 c 0,0.831 -0.669,1.5 -1.5,1.5 l -1,0 c -0.831,0 -1.5,-0.669 -1.5,-1.5 l 0,-6 c 0,-0.831 0.669,-1.5 1.5,-1.5 z"
       id="rect3886" />
    <path
       style="fill:url(#radialGradient3931);fill-opacity:1;stroke:none"
       d="m 13.5,1005.6122 1,0 c 0.831,0 1.5,0.669 1.5,1.5 l 0,6 c 0,0.831 -0.669,1.5 -1.5,1.5 l -1,0 c -0.831,0 -1.5,-0.669 -1.5,-1.5 l 0,-6 c 0,-0.831 0.669,-1.5 1.5,-1.5 z"
       id="rect3664" />
    <path
       style="fill:#640000;fill-opacity:1;stroke:none"
       d="m 33.5,1006.2818 1,0 c 0.831,0 1.5,0.669 1.5,1.5 l 0,6 c 0,0.831 -0.669,1.5 -1.5,1.5 l -1,0 c -0.831,0 -1.5,-0.669 -1.5,-1.5 l 0,-6 c 0,-0.831 0.669,-1.5 1.5,-1.5 z"
       id="rect3890" />
    <path
       style="fill:url(#radialGradient3927);fill-opacity:1;stroke:none"
       d="m 33.5,1005.6122 1,0 c 0.831,0 1.5,0.669 1.5,1.5 l 0,6 c 0,0.831 -0.669,1.5 -1.5,1.5 l -1,0 c -0.831,0 -1.5,-0.669 -1.5,-1.5 l 0,-6 c 0,-0.831 0.669,-1.5 1.5,-1.5 z"
       id="rect3817" />
    <g
       style="font-size:5px;font-style:normal;font-variant:normal;font-weight:bold;font-stretch:normal;fill:#f0f0f0;fill-opacity:1;stroke:#700000;stroke-width:0.2;stroke-miterlimit:4;stroke-opacity:1;font-family:Calibri;-inkscape-font-specification:'A.C.M.E. Secret Agent Bold'"
       id="text2919">
      <path
         d="m 10.087646,1019.96 c 0.01953,0.059 0.03174,0.105 0.03662,0.1392 0.0049,0.034 -0.0016,0.06 -0.01953,0.078 -0.01791,0.016 -0.04964,0.026 -0.09522,0.029 -0.045575,0 -0.1082379,0.01 -0.1879878,0.01 -0.08301,0 -0.1481145,-0 -0.1953125,-0 -0.045575,-0 -0.080569,-0.01 -0.1049805,-0.012 -0.024416,-0.01 -0.041506,-0.019 -0.05127,-0.032 -0.00977,-0.013 -0.017906,-0.03 -0.024414,-0.051 l -0.2124023,-0.6347 -1.1865234,0 -0.2001954,0.6176 c -0.00651,0.023 -0.015463,0.042 -0.026855,0.059 -0.00977,0.015 -0.026856,0.027 -0.05127,0.037 -0.022787,0.01 -0.056153,0.014 -0.1000976,0.017 -0.042318,0 -0.098471,0 -0.168457,0 -0.07487,0 -0.1334638,-0 -0.1757813,-0.01 -0.042318,-0 -0.071615,-0.016 -0.087891,-0.034 -0.016276,-0.019 -0.021973,-0.046 -0.01709,-0.081 0.00488,-0.034 0.01709,-0.08 0.036621,-0.1368 l 0.9741211,-2.8027 c 0.00976,-0.028 0.021158,-0.05 0.03418,-0.066 0.01302,-0.018 0.033365,-0.031 0.061035,-0.039 0.029296,-0.01 0.069172,-0.015 0.1196289,-0.017 0.050454,-0 0.1171861,-0 0.2001953,-0 0.096027,0 0.1725244,0 0.2294922,0 0.056964,0 0.1009096,0.01 0.1318359,0.017 0.03255,0.01 0.055337,0.021 0.068359,0.039 0.014646,0.018 0.026853,0.042 0.036621,0.073 l 0.976562,2.8003 m -1.4501948,-2.3169 -0.00244,0 -0.4467774,1.3428 0.8959961,0 -0.4467773,-1.3428"
         style=""
         id="path3696" />
      <path
         d="m 12.690186,1017.9996 c -3e-6,0.1774 -0.02767,0.3344 -0.08301,0.4712 -0.05534,0.1367 -0.135908,0.2522 -0.241699,0.3466 -0.105797,0.093 -0.236005,0.1636 -0.390625,0.2124 -0.152997,0.049 -0.333661,0.073 -0.541993,0.073 l -0.263672,0 0,1.0083 c -10e-7,0.016 -0.0057,0.031 -0.01709,0.044 -0.0098,0.013 -0.02686,0.024 -0.05127,0.032 -0.02441,0.01 -0.05697,0.015 -0.09766,0.019 -0.04069,0 -0.09277,0.01 -0.15625,0.01 -0.06185,0 -0.113933,-0 -0.15625,-0.01 -0.04069,-0 -0.07324,-0.011 -0.09766,-0.019 -0.02442,-0.01 -0.04151,-0.019 -0.05127,-0.032 -0.0098,-0.013 -0.01465,-0.028 -0.01465,-0.044 l 0,-2.8418 c -1e-6,-0.077 0.01953,-0.1335 0.05859,-0.1709 0.04069,-0.039 0.09359,-0.059 0.158692,-0.059 l 0.744629,0 c 0.07487,0 0.145669,0 0.212402,0.01 0.06836,0 0.149738,0.017 0.244141,0.037 0.0944,0.018 0.189614,0.052 0.285644,0.1025 0.09765,0.051 0.180662,0.1148 0.249024,0.1929 0.06836,0.077 0.12044,0.1668 0.15625,0.271 0.0358,0.1025 0.05371,0.2181 0.05371,0.3467 m -0.671387,0.046 c -2e-6,-0.1107 -0.01953,-0.2019 -0.05859,-0.2735 -0.03906,-0.072 -0.08708,-0.1245 -0.144043,-0.1587 -0.05697,-0.034 -0.117189,-0.055 -0.180664,-0.063 -0.06185,-0.01 -0.126141,-0.015 -0.192871,-0.015 l -0.273438,0 0,1.0718 0.288086,0 c 0.102538,0 0.187987,-0.014 0.256348,-0.041 0.06998,-0.028 0.126952,-0.066 0.170898,-0.1148 0.04394,-0.05 0.07731,-0.1098 0.100098,-0.1782 0.02278,-0.07 0.03418,-0.1457 0.03418,-0.227"
         style=""
         id="path3698" />
      <path
         d="m 15.356201,1017.9996 c -2e-6,0.1774 -0.02767,0.3344 -0.08301,0.4712 -0.05534,0.1367 -0.135907,0.2522 -0.241699,0.3466 -0.105796,0.093 -0.236004,0.1636 -0.390625,0.2124 -0.152996,0.049 -0.33366,0.073 -0.541992,0.073 l -0.263672,0 0,1.0083 c -1e-6,0.016 -0.0057,0.031 -0.01709,0.044 -0.0098,0.013 -0.02686,0.024 -0.05127,0.032 -0.02441,0.01 -0.05697,0.015 -0.09766,0.019 -0.04069,0 -0.09277,0.01 -0.15625,0.01 -0.06185,0 -0.113932,-0 -0.15625,-0.01 -0.04069,-0 -0.07324,-0.011 -0.09766,-0.019 -0.02441,-0.01 -0.0415,-0.019 -0.05127,-0.032 -0.0098,-0.013 -0.01465,-0.028 -0.01465,-0.044 l 0,-2.8418 c 0,-0.077 0.01953,-0.1335 0.05859,-0.1709 0.04069,-0.039 0.09359,-0.059 0.158691,-0.059 l 0.744629,0 c 0.07487,0 0.145669,0 0.212403,0.01 0.06836,0 0.149738,0.017 0.24414,0.037 0.0944,0.018 0.189614,0.052 0.285645,0.1025 0.09765,0.051 0.180662,0.1148 0.249023,0.1929 0.06836,0.077 0.120441,0.1668 0.15625,0.271 0.0358,0.1025 0.05371,0.2181 0.05371,0.3467 m -0.671387,0.046 c -10e-7,-0.1107 -0.01953,-0.2019 -0.05859,-0.2735 -0.03906,-0.072 -0.08708,-0.1245 -0.144043,-0.1587 -0.05697,-0.034 -0.117189,-0.055 -0.180664,-0.063 -0.06185,-0.01 -0.126141,-0.015 -0.192871,-0.015 l -0.273438,0 0,1.0718 0.288086,0 c 0.102538,0 0.187987,-0.014 0.256348,-0.041 0.06999,-0.028 0.126951,-0.066 0.170898,-0.1148 0.04394,-0.05 0.07731,-0.1098 0.100098,-0.1782 0.02278,-0.07 0.03418,-0.1457 0.03418,-0.227"
         style=""
         id="path3700" />
      <path
         d="m 18.700928,1018.5831 c -3e-6,0.262 -0.03256,0.4964 -0.09766,0.7031 -0.06511,0.2067 -0.161949,0.3825 -0.290527,0.5273 -0.128583,0.1433 -0.288088,0.2531 -0.478515,0.3296 -0.188805,0.075 -0.407717,0.1123 -0.656739,0.1123 -0.245769,0 -0.460613,-0.032 -0.644531,-0.095 -0.182293,-0.065 -0.334473,-0.1636 -0.456543,-0.2954 -0.122071,-0.1318 -0.21403,-0.2995 -0.275879,-0.5029 -0.06022,-0.2035 -0.09033,-0.4444 -0.09033,-0.7227 0,-0.2555 0.03255,-0.485 0.09766,-0.6885 0.0651,-0.205 0.161946,-0.3792 0.290528,-0.5224 0.12858,-0.1432 0.287271,-0.2531 0.476074,-0.3296 0.190428,-0.077 0.410968,-0.1147 0.661621,-0.1148 0.239256,1e-4 0.45003,0.032 0.632324,0.095 0.183917,0.063 0.336912,0.1611 0.458985,0.2929 0.123695,0.1319 0.216468,0.2987 0.27832,0.5005 0.06347,0.2002 0.09521,0.437 0.09521,0.7105 m -0.673828,0.034 c -3e-6,-0.166 -0.01302,-0.3165 -0.03906,-0.4516 -0.02604,-0.1367 -0.0708,-0.2531 -0.134277,-0.3491 -0.06185,-0.098 -0.144859,-0.1726 -0.249024,-0.2246 -0.104168,-0.054 -0.234377,-0.081 -0.390625,-0.081 -0.157879,0 -0.289715,0.03 -0.395507,0.09 -0.105796,0.059 -0.191245,0.1376 -0.256348,0.2368 -0.06511,0.099 -0.111492,0.2157 -0.13916,0.3492 -0.02604,0.1318 -0.03906,0.2718 -0.03906,0.4199 -10e-7,0.1725 0.01302,0.3279 0.03906,0.4663 0.02604,0.1367 0.06999,0.2539 0.131836,0.3516 0.06185,0.098 0.144855,0.1725 0.249023,0.2246 0.104165,0.05 0.235187,0.076 0.393066,0.076 0.157876,0 0.289712,-0.029 0.395508,-0.088 0.105792,-0.059 0.191242,-0.1384 0.256348,-0.2393 0.0651,-0.1009 0.110675,-0.2181 0.136719,-0.3516 0.02767,-0.1351 0.0415,-0.2783 0.0415,-0.4297"
         style=""
         id="path3702" />
      <path
         d="m 19.882568,1020.1114 c -10e-7,0.016 -0.0057,0.031 -0.01709,0.044 -0.0098,0.013 -0.02686,0.024 -0.05127,0.032 -0.02442,0.01 -0.05697,0.015 -0.09766,0.019 -0.04069,0 -0.09277,0.01 -0.15625,0.01 -0.06185,0 -0.113933,-0 -0.15625,-0.01 -0.04069,-0 -0.07324,-0.011 -0.09766,-0.019 -0.02441,-0.01 -0.04232,-0.019 -0.05371,-0.032 -0.0098,-0.013 -0.01465,-0.028 -0.01465,-0.044 l 0,-2.9834 c 0,-0.016 0.0049,-0.031 0.01465,-0.044 0.01139,-0.013 0.0293,-0.024 0.05371,-0.032 0.02604,-0.01 0.05941,-0.015 0.100098,-0.019 0.04069,-0 0.09196,-0.01 0.153809,-0.01 0.06348,0 0.115559,0 0.15625,0.01 0.04069,0 0.07324,0.011 0.09766,0.019 0.02441,0.01 0.0415,0.019 0.05127,0.032 0.01139,0.013 0.01709,0.028 0.01709,0.044 l 0,2.9834"
         style=""
         id="path3704" />
      <path
         d="m 23.180908,1019.9747 c -3e-6,0.037 -0.0065,0.071 -0.01953,0.1001 -0.01302,0.029 -0.03093,0.054 -0.05371,0.073 -0.02116,0.019 -0.0472,0.034 -0.07813,0.044 -0.0293,0.01 -0.05941,0.012 -0.09033,0.012 l -0.273438,0 c -0.05697,0 -0.10661,-0.01 -0.148925,-0.017 -0.04069,-0.011 -0.07894,-0.032 -0.114746,-0.061 -0.03418,-0.031 -0.06755,-0.072 -0.100098,-0.122 -0.03255,-0.052 -0.06918,-0.1188 -0.109863,-0.2002 l -0.786133,-1.4771 c -0.04557,-0.088 -0.09196,-0.1823 -0.13916,-0.2832 -0.0472,-0.1025 -0.08952,-0.2018 -0.126953,-0.2978 l -0.0049,0 c 0.0065,0.1172 0.01139,0.2343 0.01465,0.3515 0.0033,0.1156 0.0049,0.2352 0.0049,0.3589 l 0,1.6528 c -10e-7,0.016 -0.0049,0.031 -0.01465,0.044 -0.0081,0.013 -0.0236,0.024 -0.04639,0.034 -0.02116,0.01 -0.05046,0.015 -0.08789,0.019 -0.03743,0 -0.08545,0.01 -0.144043,0.01 -0.05697,0 -0.104167,-0 -0.141601,-0.01 -0.03744,-0 -0.06673,-0.011 -0.08789,-0.019 -0.02116,-0.01 -0.03581,-0.021 -0.04394,-0.034 -0.0081,-0.013 -0.01221,-0.028 -0.01221,-0.044 l 0,-2.8393 c -1e-6,-0.077 0.02197,-0.1335 0.06592,-0.1709 0.04557,-0.039 0.100911,-0.059 0.166015,-0.059 l 0.344239,0 c 0.06185,0 0.113931,0.01 0.15625,0.017 0.04232,0.01 0.07975,0.027 0.112304,0.051 0.03418,0.024 0.06592,0.059 0.09521,0.1025 0.0293,0.042 0.05941,0.095 0.09033,0.1587 l 0.615235,1.1548 c 0.0358,0.07 0.0708,0.1391 0.10498,0.2075 0.03581,0.067 0.06999,0.1343 0.102539,0.2026 0.03255,0.067 0.06429,0.1327 0.09522,0.1978 0.03092,0.065 0.06103,0.1302 0.09033,0.1953 l 0.0024,0 c -0.0049,-0.1139 -0.009,-0.2327 -0.01221,-0.3564 -0.0016,-0.1237 -0.0024,-0.2417 -0.0024,-0.3541 l 0,-1.4819 c -2e-6,-0.016 0.0049,-0.031 0.01465,-0.044 0.0098,-0.013 0.02604,-0.024 0.04883,-0.034 0.02278,-0.01 0.05289,-0.016 0.09033,-0.019 0.03743,-0 0.08545,-0.01 0.144042,-0.01 0.05534,0 0.101723,0 0.139161,0.01 0.03743,0 0.06592,0.01 0.08545,0.019 0.02116,0.01 0.0358,0.021 0.04394,0.034 0.0081,0.013 0.0122,0.028 0.01221,0.044 l 0,2.8394"
         style=""
         id="path3706" />
      <path
         d="m 25.968994,1017.3038 c -2e-6,0.047 -0.0024,0.088 -0.0073,0.122 -0.0033,0.033 -0.009,0.06 -0.01709,0.081 -0.0081,0.019 -0.01872,0.034 -0.03174,0.044 -0.0114,0.01 -0.02442,0.015 -0.03906,0.015 l -0.791015,0 0,2.5464 c -2e-6,0.016 -0.0057,0.031 -0.01709,0.044 -0.0098,0.013 -0.02686,0.024 -0.05127,0.032 -0.02441,0.01 -0.05778,0.015 -0.100097,0.019 -0.04069,0 -0.09196,0.01 -0.153809,0.01 -0.06185,0 -0.113933,-0 -0.15625,-0.01 -0.04069,-0 -0.07324,-0.011 -0.09766,-0.019 -0.02442,-0.01 -0.04232,-0.019 -0.05371,-0.032 -0.0098,-0.013 -0.01465,-0.028 -0.01465,-0.044 l 0,-2.5464 -0.791015,0 c -0.01628,0 -0.03011,-0 -0.0415,-0.015 -0.01139,-0.01 -0.02116,-0.024 -0.0293,-0.044 -0.0081,-0.021 -0.01465,-0.048 -0.01953,-0.081 -0.0033,-0.034 -0.0049,-0.075 -0.0049,-0.122 0,-0.049 0.0016,-0.09 0.0049,-0.1245 0.0049,-0.034 0.01139,-0.061 0.01953,-0.081 0.0081,-0.021 0.0179,-0.036 0.0293,-0.044 0.01139,-0.01 0.02523,-0.015 0.0415,-0.015 l 2.226562,0 c 0.01465,0 0.02767,0 0.03906,0.015 0.01302,0.01 0.0236,0.023 0.03174,0.044 0.0081,0.019 0.01383,0.046 0.01709,0.081 0.0049,0.034 0.0073,0.076 0.0073,0.1245"
         style=""
         id="path3708" />
      <path
         d="m 30.029053,1020.1114 c -4e-6,0.016 -0.0049,0.031 -0.01465,0.044 -0.0081,0.013 -0.02442,0.024 -0.04883,0.032 -0.02279,0.01 -0.05372,0.015 -0.09277,0.019 -0.03907,0 -0.08871,0.01 -0.148926,0.01 -0.0586,0 -0.107426,-0 -0.146484,-0.01 -0.03907,-0 -0.06999,-0.011 -0.09277,-0.019 -0.02279,-0.01 -0.03907,-0.019 -0.04883,-0.032 -0.0098,-0.013 -0.01465,-0.028 -0.01465,-0.044 l 0,-2.5708 -0.0049,0 -0.915528,2.5683 c -0.0065,0.021 -0.01709,0.039 -0.03174,0.054 -0.01465,0.013 -0.035,0.024 -0.06103,0.032 -0.02442,0.01 -0.05616,0.013 -0.09522,0.015 -0.03906,0 -0.08626,0 -0.141601,0 -0.05534,0 -0.102542,-0 -0.141602,-0.01 -0.03906,-0 -0.07162,-0.01 -0.09766,-0.017 -0.02442,-0.01 -0.04395,-0.021 -0.05859,-0.034 -0.01465,-0.013 -0.02442,-0.028 -0.0293,-0.046 l -0.883789,-2.5683 -0.0049,0 0,2.5708 c -10e-7,0.016 -0.0049,0.031 -0.01465,0.044 -0.0081,0.013 -0.02442,0.024 -0.04883,0.032 -0.02442,0.01 -0.05615,0.015 -0.09521,0.019 -0.03744,0 -0.08626,0.01 -0.146485,0.01 -0.05859,0 -0.107422,-0 -0.146484,-0.01 -0.03906,-0 -0.0708,-0.011 -0.09521,-0.019 -0.02279,-0.01 -0.03906,-0.019 -0.04883,-0.032 -0.0081,-0.013 -0.01221,-0.028 -0.01221,-0.044 l 0,-2.815 c 0,-0.083 0.02197,-0.1464 0.06592,-0.1904 0.04395,-0.044 0.102539,-0.066 0.175781,-0.066 l 0.419922,0 c 0.07487,0 0.139159,0.01 0.192871,0.019 0.05371,0.011 0.100097,0.032 0.13916,0.061 0.03906,0.028 0.07161,0.065 0.09766,0.1123 0.02604,0.046 0.04883,0.1025 0.06836,0.1709 l 0.683594,1.8823 0.0098,0 0.708008,-1.8774 c 0.02116,-0.068 0.04394,-0.1262 0.06836,-0.1734 0.02604,-0.047 0.05533,-0.085 0.08789,-0.1147 0.03418,-0.029 0.07405,-0.05 0.119629,-0.061 0.04557,-0.013 0.09847,-0.019 0.158692,-0.019 l 0.432128,0 c 0.04394,0 0.08138,0.01 0.112305,0.017 0.03255,0.011 0.05859,0.029 0.07813,0.051 0.02116,0.021 0.03662,0.048 0.04639,0.08 0.01139,0.031 0.01709,0.067 0.01709,0.1074 l 0,2.815"
         style=""
         id="path3710" />
      <path
         d="m 32.594971,1019.9478 c -3e-6,0.047 -0.0024,0.087 -0.0073,0.1196 -0.0033,0.031 -0.009,0.056 -0.01709,0.076 -0.0081,0.02 -0.01872,0.034 -0.03174,0.044 -0.0114,0.01 -0.02442,0.012 -0.03906,0.012 l -1.586914,0 c -0.05371,0 -0.09928,-0.015 -0.136719,-0.046 -0.03581,-0.033 -0.05371,-0.085 -0.05371,-0.1563 l 0,-2.7539 c 0,-0.072 0.0179,-0.1228 0.05371,-0.1538 0.03744,-0.032 0.08301,-0.049 0.136719,-0.049 l 1.577148,0 c 0.01465,0 0.02767,0 0.03906,0.012 0.01139,0.01 0.02116,0.023 0.0293,0.044 0.0081,0.019 0.01383,0.045 0.01709,0.078 0.0049,0.031 0.0073,0.071 0.0073,0.1196 -3e-6,0.046 -0.0024,0.085 -0.0073,0.1172 -0.0033,0.031 -0.009,0.056 -0.01709,0.076 -0.0081,0.019 -0.01791,0.034 -0.0293,0.044 -0.0114,0.01 -0.02442,0.012 -0.03906,0.012 l -1.127929,0 0,0.7715 0.954589,0 c 0.01465,0 0.02767,0 0.03906,0.015 0.01302,0.01 0.0236,0.022 0.03174,0.042 0.0081,0.018 0.01383,0.043 0.01709,0.076 0.0049,0.031 0.0073,0.069 0.0073,0.1147 -2e-6,0.047 -0.0024,0.086 -0.0073,0.1172 -0.0033,0.031 -0.009,0.056 -0.01709,0.076 -0.0081,0.018 -0.01872,0.031 -0.03174,0.039 -0.0114,0.01 -0.02442,0.012 -0.03906,0.012 l -0.954589,0 0,0.8912 1.137695,0 c 0.01465,0 0.02767,0 0.03906,0.015 0.01302,0.01 0.0236,0.022 0.03174,0.042 0.0081,0.019 0.01383,0.046 0.01709,0.078 0.0049,0.031 0.0073,0.07 0.0073,0.1172"
         style=""
         id="path3712" />
      <path
         d="m 35.768799,1019.9747 c -3e-6,0.037 -0.0065,0.071 -0.01953,0.1001 -0.01302,0.029 -0.03093,0.054 -0.05371,0.073 -0.02116,0.019 -0.0472,0.034 -0.07813,0.044 -0.0293,0.01 -0.05941,0.012 -0.09033,0.012 l -0.273438,0 c -0.05697,0 -0.10661,-0.01 -0.148926,-0.017 -0.04069,-0.011 -0.07894,-0.032 -0.114746,-0.061 -0.03418,-0.031 -0.06755,-0.072 -0.100097,-0.122 -0.03256,-0.052 -0.06918,-0.1188 -0.109864,-0.2002 l -0.786133,-1.4771 c -0.04557,-0.088 -0.09196,-0.1823 -0.13916,-0.2832 -0.0472,-0.1025 -0.08952,-0.2018 -0.126953,-0.2978 l -0.0049,0 c 0.0065,0.1172 0.01139,0.2343 0.01465,0.3515 0.0033,0.1156 0.0049,0.2352 0.0049,0.3589 l 0,1.6528 c -10e-7,0.016 -0.0049,0.031 -0.01465,0.044 -0.0081,0.013 -0.0236,0.024 -0.04639,0.034 -0.02116,0.01 -0.05046,0.015 -0.08789,0.019 -0.03744,0 -0.08545,0.01 -0.144043,0.01 -0.05697,0 -0.104167,-0 -0.141602,-0.01 -0.03744,-0 -0.06673,-0.011 -0.08789,-0.019 -0.02116,-0.01 -0.03581,-0.021 -0.04395,-0.034 -0.0081,-0.013 -0.01221,-0.028 -0.01221,-0.044 l 0,-2.8393 c 0,-0.077 0.02197,-0.1335 0.06592,-0.1709 0.04557,-0.039 0.100911,-0.059 0.166016,-0.059 l 0.344238,0 c 0.06185,0 0.113931,0.01 0.15625,0.017 0.04232,0.01 0.07975,0.027 0.112305,0.051 0.03418,0.024 0.06592,0.059 0.09522,0.1025 0.02929,0.042 0.05941,0.095 0.09033,0.1587 l 0.615234,1.1548 c 0.03581,0.07 0.0708,0.1391 0.104981,0.2075 0.0358,0.067 0.06998,0.1343 0.102539,0.2026 0.03255,0.067 0.06429,0.1327 0.09521,0.1978 0.03092,0.065 0.06103,0.1302 0.09033,0.1953 l 0.0024,0 c -0.0049,-0.1139 -0.009,-0.2327 -0.01221,-0.3564 -0.0016,-0.1237 -0.0024,-0.2417 -0.0024,-0.3541 l 0,-1.4819 c -3e-6,-0.016 0.0049,-0.031 0.01465,-0.044 0.0098,-0.013 0.02604,-0.024 0.04883,-0.034 0.02278,-0.01 0.05289,-0.016 0.09033,-0.019 0.03743,-0 0.08545,-0.01 0.144043,-0.01 0.05534,0 0.101723,0 0.13916,0.01 0.03743,0 0.06591,0.01 0.08545,0.019 0.02116,0.01 0.03581,0.021 0.04395,0.034 0.0081,0.013 0.0122,0.028 0.01221,0.044 l 0,2.8394"
         style=""
         id="path3714" />
      <path
         d="m 38.556885,1017.3038 c -3e-6,0.047 -0.0024,0.088 -0.0073,0.122 -0.0033,0.033 -0.009,0.06 -0.01709,0.081 -0.0081,0.019 -0.01872,0.034 -0.03174,0.044 -0.0114,0.01 -0.02442,0.015 -0.03906,0.015 l -0.791016,0 0,2.5464 c -10e-7,0.016 -0.0057,0.031 -0.01709,0.044 -0.0098,0.013 -0.02686,0.024 -0.05127,0.032 -0.02442,0.01 -0.05778,0.015 -0.100098,0.019 -0.04069,0 -0.09196,0.01 -0.153808,0.01 -0.06185,0 -0.113934,-0 -0.15625,-0.01 -0.04069,-0 -0.07324,-0.011 -0.09766,-0.019 -0.02441,-0.01 -0.04232,-0.019 -0.05371,-0.032 -0.0098,-0.013 -0.01465,-0.028 -0.01465,-0.044 l 0,-2.5464 -0.791016,0 c -0.01628,0 -0.03011,-0 -0.0415,-0.015 -0.01139,-0.01 -0.02116,-0.024 -0.0293,-0.044 -0.0081,-0.021 -0.01465,-0.048 -0.01953,-0.081 -0.0033,-0.034 -0.0049,-0.075 -0.0049,-0.122 0,-0.049 0.0016,-0.09 0.0049,-0.1245 0.0049,-0.034 0.01139,-0.061 0.01953,-0.081 0.0081,-0.021 0.0179,-0.036 0.0293,-0.044 0.01139,-0.01 0.02523,-0.015 0.0415,-0.015 l 2.226563,0 c 0.01465,0 0.02767,0 0.03906,0.015 0.01302,0.01 0.0236,0.023 0.03174,0.044 0.0081,0.019 0.01383,0.046 0.01709,0.081 0.0049,0.034 0.0073,0.076 0.0073,0.1245"
         style=""
         id="path3716" />
      <path
         d="m 40.78833,1019.252 c -2e-6,0.166 -0.03093,0.3117 -0.09277,0.437 -0.06185,0.1254 -0.145673,0.2303 -0.251465,0.315 -0.105796,0.083 -0.229494,0.1456 -0.371094,0.188 -0.141603,0.042 -0.29297,0.063 -0.454102,0.063 -0.10905,0 -0.210775,-0.01 -0.305175,-0.027 -0.09277,-0.018 -0.174968,-0.039 -0.246582,-0.063 -0.07161,-0.026 -0.131837,-0.053 -0.180664,-0.081 -0.0472,-0.028 -0.08138,-0.052 -0.102539,-0.073 -0.02116,-0.021 -0.03662,-0.051 -0.04639,-0.09 -0.0081,-0.041 -0.01221,-0.099 -0.01221,-0.1734 0,-0.05 0.0016,-0.093 0.0049,-0.1269 0.0033,-0.034 0.0081,-0.062 0.01465,-0.083 0.0081,-0.021 0.0179,-0.036 0.0293,-0.044 0.01302,-0.01 0.02767,-0.015 0.04395,-0.015 0.02279,0 0.05452,0.014 0.09522,0.041 0.04232,0.026 0.09603,0.055 0.161133,0.088 0.0651,0.032 0.142415,0.063 0.231933,0.09 0.09114,0.026 0.196126,0.039 0.314942,0.039 0.07812,0 0.148111,-0.01 0.209961,-0.027 0.06185,-0.019 0.113931,-0.046 0.15625,-0.081 0.04394,-0.034 0.07731,-0.077 0.100097,-0.1269 0.02278,-0.051 0.03418,-0.1066 0.03418,-0.1685 -10e-7,-0.072 -0.01953,-0.1326 -0.05859,-0.1831 -0.03906,-0.052 -0.09033,-0.098 -0.153808,-0.1367 -0.06185,-0.041 -0.132651,-0.078 -0.212403,-0.1123 -0.07975,-0.036 -0.161947,-0.073 -0.246582,-0.1123 -0.08464,-0.039 -0.16683,-0.083 -0.246582,-0.1318 -0.07975,-0.051 -0.151367,-0.1099 -0.214843,-0.1783 -0.06185,-0.07 -0.112305,-0.1521 -0.151368,-0.2466 -0.03906,-0.094 -0.05859,-0.2075 -0.05859,-0.3393 0,-0.1514 0.02767,-0.284 0.08301,-0.398 0.05697,-0.1155 0.132649,-0.2107 0.22705,-0.2856 0.09603,-0.077 0.208333,-0.1335 0.336914,-0.1709 0.130208,-0.037 0.26774,-0.056 0.412598,-0.056 0.07487,1e-4 0.149738,0.01 0.224609,0.017 0.07487,0.011 0.144856,0.027 0.209961,0.046 0.0651,0.02 0.122883,0.041 0.17334,0.066 0.05045,0.024 0.08382,0.045 0.100098,0.061 0.01627,0.016 0.02685,0.03 0.03174,0.042 0.0065,0.011 0.01139,0.027 0.01465,0.046 0.0049,0.018 0.0081,0.042 0.0098,0.071 0.0016,0.028 0.0024,0.063 0.0024,0.1049 -2e-6,0.047 -0.0016,0.087 -0.0049,0.1197 -0.0016,0.033 -0.0057,0.059 -0.01221,0.081 -0.0049,0.021 -0.01302,0.037 -0.02441,0.046 -0.0098,0.01 -0.0236,0.015 -0.0415,0.015 -0.01791,0 -0.04639,-0.011 -0.08545,-0.034 -0.03907,-0.023 -0.08708,-0.047 -0.144043,-0.073 -0.05697,-0.028 -0.122886,-0.052 -0.197754,-0.073 -0.07487,-0.023 -0.157065,-0.034 -0.246582,-0.034 -0.06999,0 -0.131024,0.01 -0.183106,0.027 -0.05208,0.016 -0.09603,0.04 -0.131836,0.071 -0.03418,0.029 -0.06022,0.065 -0.07813,0.1074 -0.01628,0.042 -0.02442,0.087 -0.02441,0.1343 -1e-6,0.07 0.01872,0.131 0.05615,0.1831 0.03906,0.051 0.09033,0.096 0.153808,0.1367 0.0651,0.039 0.138345,0.077 0.219727,0.1123 0.08138,0.034 0.164386,0.071 0.249023,0.1099 0.08463,0.039 0.167642,0.084 0.249024,0.1343 0.08138,0.049 0.153806,0.1082 0.217285,0.1782 0.06347,0.068 0.114744,0.1497 0.153808,0.2441 0.03906,0.093 0.05859,0.2027 0.05859,0.3296"
         style=""
         id="path3718" />
    </g>
  </g>
</svg>
