<?xml version="1.0" encoding="UTF-8" standalone="no"?>
<!-- Created with Inkscape (http://www.inkscape.org/) -->

<svg
   xmlns:dc="http://purl.org/dc/elements/1.1/"
   xmlns:cc="http://creativecommons.org/ns#"
   xmlns:rdf="http://www.w3.org/1999/02/22-rdf-syntax-ns#"
   xmlns:svg="http://www.w3.org/2000/svg"
   xmlns="http://www.w3.org/2000/svg"
   xmlns:xlink="http://www.w3.org/1999/xlink"
   xmlns:sodipodi="http://sodipodi.sourceforge.net/DTD/sodipodi-0.dtd"
   xmlns:inkscape="http://www.inkscape.org/namespaces/inkscape"
   width="48"
   height="48"
   id="svg2"
   version="1.1"
   inkscape:version="0.47pre4 r22446"
   sodipodi:docname="view-calendar-day1.svg"
   inkscape:export-filename="/home/andrea/.icons/MeliaeSVG/48/apps/png/evolution-calendar.png"
   inkscape:export-xdpi="240"
   inkscape:export-ydpi="240">
  <defs
     id="defs4">
    <linearGradient
       id="linearGradient3678">
      <stop
         style="stop-color:#de220c;stop-opacity:1;"
         offset="0"
         id="stop3680" />
      <stop
         style="stop-color:#700000;stop-opacity:1;"
         offset="1"
         id="stop3682" />
    </linearGradient>
    <linearGradient
       id="linearGradient3952">
      <stop
         style="stop-color:#141414;stop-opacity:1;"
         offset="0"
         id="stop3954" />
      <stop
         style="stop-color:#f0f0f0;stop-opacity:0.39215687;"
         offset="1"
         id="stop3956" />
    </linearGradient>
    <linearGradient
       id="linearGradient3866">
      <stop
         style="stop-color:#000000;stop-opacity:1;"
         offset="0"
         id="stop3868" />
      <stop
         style="stop-color:#c8c8c8;stop-opacity:0.39215687"
         offset="1"
         id="stop3870" />
    </linearGradient>
    <linearGradient
       id="linearGradient3852">
      <stop
         style="stop-color:#ffffff;stop-opacity:1;"
         offset="0"
         id="stop3854" />
      <stop
         style="stop-color:#ffffff;stop-opacity:0;"
         offset="1"
         id="stop3856" />
    </linearGradient>
    <linearGradient
       id="linearGradient3823">
      <stop
         style="stop-color:#c8c8c8;stop-opacity:1;"
         offset="0"
         id="stop3825" />
      <stop
         style="stop-color:#f0f0f0;stop-opacity:1;"
         offset="1"
         id="stop3827" />
    </linearGradient>
    <linearGradient
       id="linearGradient3805">
      <stop
         style="stop-color:#f0f0f0;stop-opacity:1;"
         offset="0"
         id="stop3807" />
      <stop
         id="stop3815"
         offset="0.81645572"
         style="stop-color:#969696;stop-opacity:1;" />
      <stop
         style="stop-color:#b4b4b4;stop-opacity:1;"
         offset="1"
         id="stop3809" />
    </linearGradient>
    <inkscape:perspective
       sodipodi:type="inkscape:persp3d"
       inkscape:vp_x="0 : 526.18109 : 1"
       inkscape:vp_y="0 : 1000 : 0"
       inkscape:vp_z="744.09448 : 526.18109 : 1"
       inkscape:persp3d-origin="372.04724 : 350.78739 : 1"
       id="perspective10" />
    <inkscape:perspective
       id="perspective2884"
       inkscape:persp3d-origin="0.5 : 0.33333333 : 1"
       inkscape:vp_z="1 : 0.5 : 1"
       inkscape:vp_y="0 : 1000 : 0"
       inkscape:vp_x="0 : 0.5 : 1"
       sodipodi:type="inkscape:persp3d" />
    <radialGradient
       spreadMethod="reflect"
       gradientTransform="matrix(1.4549755,-2.6431351e-8,4.9999995e-8,2.2746832,13.630343,-6.8389883)"
       gradientUnits="userSpaceOnUse"
       xlink:href="#linearGradient3520"
       id="radialGradient3562"
       fy="4.9179006"
       fx="14"
       r="2"
       cy="4.9179006"
       cx="14" />
    <linearGradient
       id="linearGradient3520">
      <stop
         offset="0"
         style="stop-color:#f2f2f2;stop-opacity:1"
         id="stop3522" />
      <stop
         offset="1"
         style="stop-color:#999;stop-opacity:1"
         id="stop3524" />
    </linearGradient>
    <radialGradient
       spreadMethod="reflect"
       gradientTransform="matrix(1.4549755,-2.6431351e-8,4.9999995e-8,2.2746832,-6.3696571,-6.8389883)"
       gradientUnits="userSpaceOnUse"
       xlink:href="#linearGradient3520"
       id="radialGradient3560"
       fy="4.9179006"
       fx="14"
       r="2"
       cy="4.9179006"
       cx="14" />
    <linearGradient
       gradientTransform="matrix(1,0,0,0.75,0,4)"
       gradientUnits="userSpaceOnUse"
       xlink:href="#linearGradient3510"
       id="linearGradient2448"
       y2="20.000023"
       x2="23.414803"
       y1="16"
       x1="23.414803" />
    <linearGradient
       id="linearGradient3510">
      <stop
         offset="0"
         style="stop-color:black;stop-opacity:1"
         id="stop3512" />
      <stop
         offset="1"
         style="stop-color:black;stop-opacity:0"
         id="stop3514" />
    </linearGradient>
    <linearGradient
       gradientTransform="translate(9.5367432e-6,0.9674388)"
       gradientUnits="userSpaceOnUse"
       xlink:href="#linearGradient3308-4-6"
       id="linearGradient2452"
       y2="43"
       x2="23.99999"
       y1="4.999989"
       x1="23.99999" />
    <linearGradient
       id="linearGradient3308-4-6">
      <stop
         offset="0"
         style="stop-color:white;stop-opacity:1"
         id="stop3310-1-4" />
      <stop
         offset="1"
         style="stop-color:white;stop-opacity:0"
         id="stop3312-5-3" />
    </linearGradient>
    <radialGradient
       gradientTransform="matrix(1.5295716e-8,1.1115568,-1.5963079,0,35.052637,0.9315072)"
       gradientUnits="userSpaceOnUse"
       xlink:href="#linearGradient3357"
       id="radialGradient2455"
       fy="11.394437"
       fx="12.063192"
       r="19.99999"
       cy="11.394437"
       cx="12.063192" />
    <linearGradient
       id="linearGradient3357">
      <stop
         offset="0"
         style="stop-color:#f89b7e;stop-opacity:1"
         id="stop3359" />
      <stop
         offset="0.39678687"
         style="stop-color:#e35d4f;stop-opacity:1"
         id="stop3361" />
      <stop
         offset="1"
         style="stop-color:#c6262e;stop-opacity:1"
         id="stop3363" />
    </linearGradient>
    <linearGradient
       gradientTransform="translate(0,0.9674388)"
       gradientUnits="userSpaceOnUse"
       xlink:href="#linearGradient2490"
       id="linearGradient2457"
       y2="3.8990016"
       x2="24"
       y1="44"
       x1="24" />
    <linearGradient
       id="linearGradient2490">
      <stop
         offset="0"
         style="stop-color:#791235;stop-opacity:1"
         id="stop2492" />
      <stop
         offset="1"
         style="stop-color:#dd3b27;stop-opacity:1"
         id="stop2494" />
    </linearGradient>
    <linearGradient
       gradientUnits="userSpaceOnUse"
       xlink:href="#linearGradient3600"
       id="linearGradient2460"
       y2="44.98436"
       x2="19.360001"
       y1="16.137854"
       x1="19.360001" />
    <linearGradient
       id="linearGradient3600">
      <stop
         offset="0"
         style="stop-color:#f4f4f4;stop-opacity:1"
         id="stop3602" />
      <stop
         offset="1"
         style="stop-color:#dbdbdb;stop-opacity:1"
         id="stop3604" />
    </linearGradient>
    <linearGradient
       gradientTransform="translate(0,0.9674388)"
       gradientUnits="userSpaceOnUse"
       xlink:href="#linearGradient3104"
       id="linearGradient2462"
       y2="3.8904724"
       x2="24"
       y1="44"
       x1="24" />
    <linearGradient
       id="linearGradient3104">
      <stop
         offset="0"
         style="stop-color:#787878;stop-opacity:1"
         id="stop3106" />
      <stop
         offset="1"
         style="stop-color:#aaa;stop-opacity:1"
         id="stop3108" />
    </linearGradient>
    <radialGradient
       gradientTransform="matrix(2.003784,0,0,1.4,27.98813,-17.4)"
       gradientUnits="userSpaceOnUse"
       xlink:href="#linearGradient3688"
       id="radialGradient2873"
       fy="43.5"
       fx="4.9929786"
       r="2.5"
       cy="43.5"
       cx="4.9929786" />
    <linearGradient
       id="linearGradient3688">
      <stop
         offset="0"
         style="stop-color:black;stop-opacity:1"
         id="stop3690" />
      <stop
         offset="1"
         style="stop-color:black;stop-opacity:0"
         id="stop3692" />
    </linearGradient>
    <radialGradient
       gradientTransform="matrix(2.003784,0,0,1.4,-20.01187,-104.4)"
       gradientUnits="userSpaceOnUse"
       xlink:href="#linearGradient3688"
       id="radialGradient2875"
       fy="43.5"
       fx="4.9929786"
       r="2.5"
       cy="43.5"
       cx="4.9929786" />
    <linearGradient
       gradientUnits="userSpaceOnUse"
       xlink:href="#linearGradient3702"
       id="linearGradient2877"
       y2="39.999443"
       x2="25.058096"
       y1="47.027729"
       x1="25.058096" />
    <linearGradient
       id="linearGradient3702">
      <stop
         offset="0"
         style="stop-color:black;stop-opacity:0"
         id="stop3704" />
      <stop
         offset="0.5"
         style="stop-color:black;stop-opacity:1"
         id="stop3710" />
      <stop
         offset="1"
         style="stop-color:black;stop-opacity:0"
         id="stop3706" />
    </linearGradient>
    <inkscape:perspective
       id="perspective3734"
       inkscape:persp3d-origin="24 : 16 : 1"
       inkscape:vp_z="48 : 24 : 1"
       inkscape:vp_y="0 : 1000 : 0"
       inkscape:vp_x="0 : 24 : 1"
       sodipodi:type="inkscape:persp3d" />
    <filter
       inkscape:collect="always"
       id="filter3878">
      <feGaussianBlur
         inkscape:collect="always"
         stdDeviation="0.19"
         id="feGaussianBlur3880" />
    </filter>
    <radialGradient
       inkscape:collect="always"
       xlink:href="#linearGradient3805"
       id="radialGradient3927"
       gradientUnits="userSpaceOnUse"
       gradientTransform="matrix(2.1160716,0,0,2.25,4.374997,-1263.2027)"
       cx="14"
       cy="1009.7471"
       fx="14"
       fy="1009.7471"
       r="2" />
    <radialGradient
       inkscape:collect="always"
       xlink:href="#linearGradient3805"
       id="radialGradient3931"
       gradientUnits="userSpaceOnUse"
       gradientTransform="matrix(2.1160716,0,0,2.25,-15.625003,-1263.2027)"
       cx="14"
       cy="1009.7471"
       fx="14"
       fy="1009.7471"
       r="2" />
    <linearGradient
       inkscape:collect="always"
       xlink:href="#linearGradient3852"
       id="linearGradient3935"
       gradientUnits="userSpaceOnUse"
       x1="47.82143"
       y1="1039.8622"
       x2="24"
       y2="1045.2194"
       gradientTransform="translate(0,-0.24998262)" />
    <linearGradient
       inkscape:collect="always"
       xlink:href="#linearGradient3823"
       id="linearGradient3941"
       gradientUnits="userSpaceOnUse"
       x1="11.428572"
       y1="1018.9336"
       x2="36.035713"
       y2="1042.3264"
       gradientTransform="translate(0,-0.24998262)" />
    <linearGradient
       inkscape:collect="always"
       xlink:href="#linearGradient3823"
       id="linearGradient3945"
       gradientUnits="userSpaceOnUse"
       x1="15.101525"
       y1="1017.9878"
       x2="36.939083"
       y2="1043.2416"
       gradientTransform="translate(0,-0.24998262)" />
    <linearGradient
       inkscape:collect="always"
       xlink:href="#linearGradient3952"
       id="linearGradient3958"
       x1="17.242857"
       y1="1009.9622"
       x2="28.031799"
       y2="1050.2271"
       gradientUnits="userSpaceOnUse" />
    <filter
       inkscape:collect="always"
       id="filter4010">
      <feGaussianBlur
         inkscape:collect="always"
         stdDeviation="0.4375"
         id="feGaussianBlur4012" />
    </filter>
    <linearGradient
       inkscape:collect="always"
       xlink:href="#linearGradient3952"
       id="linearGradient2919"
       gradientUnits="userSpaceOnUse"
       x1="17.242857"
       y1="1009.9622"
       x2="28.031799"
       y2="1050.2271" />
    <linearGradient
       inkscape:collect="always"
       xlink:href="#linearGradient3678"
       id="linearGradient3684"
       x1="24"
       y1="1022.9693"
       x2="24"
       y2="1011.1122"
       gradientUnits="userSpaceOnUse" />
  </defs>
  <sodipodi:namedview
     id="base"
     pagecolor="#ffffff"
     bordercolor="#666666"
     borderopacity="1.0"
     inkscape:pageopacity="0.0"
     inkscape:pageshadow="2"
     inkscape:zoom="7.919596"
     inkscape:cx="19.769368"
     inkscape:cy="2.2103925"
     inkscape:document-units="px"
     inkscape:current-layer="layer1"
     showgrid="false"
     inkscape:window-width="1280"
     inkscape:window-height="714"
     inkscape:window-x="0"
     inkscape:window-y="25"
     inkscape:window-maximized="1" />
  <metadata
     id="metadata7">
    <rdf:RDF>
      <cc:Work
         rdf:about="">
        <dc:format>image/svg+xml</dc:format>
        <dc:type
           rdf:resource="http://purl.org/dc/dcmitype/StillImage" />
        <dc:title />
      </cc:Work>
    </rdf:RDF>
  </metadata>
  <g
     inkscape:label="Livello 1"
     inkscape:groupmode="layer"
     id="layer1"
     transform="translate(0,-1004.3622)">
    <path
       style="fill:#333333;fill-opacity:0.78431373999999998;stroke:none;filter:url(#filter4010)"
       d="M 13.5 1.25 C 12.669 1.25 12 1.919 12 2.75 L 12 4.75 L 5 4.75 C 3.892 4.75 3 5.642 3 6.75 L 3 44.75 C 3 45.858 3.892 46.75 5 46.75 L 43 46.75 C 44.108 46.75 45 45.858 45 44.75 L 45 6.75 C 45 5.642 44.108 4.75 43 4.75 L 36 4.75 L 36 2.75 C 36 1.919 35.331 1.25 34.5 1.25 L 33.5 1.25 C 32.669 1.25 32 1.919 32 2.75 L 32 4.75 L 16 4.75 L 16 2.75 C 16 1.919 15.331 1.25 14.5 1.25 L 13.5 1.25 z "
       transform="translate(0,1004.3622)"
       id="rect4003" />
    <path
       style="fill:#000000;fill-opacity:1;stroke:none"
       d="m 5,1009.1122 38,0 c 1.108,0 2,0.892 2,2 l 0,38 c 0,1.108 -0.892,2 -2,2 l -38,0 c -1.108,0 -2,-0.892 -2,-2 l 0,-38 c 0,-1.108 0.892,-2 2,-2 z"
       id="rect2890" />
    <path
       style="font-size:medium;font-style:normal;font-variant:normal;font-weight:normal;font-stretch:normal;text-indent:0;text-align:start;text-decoration:none;line-height:normal;letter-spacing:normal;word-spacing:normal;text-transform:none;direction:ltr;block-progression:tb;writing-mode:lr-tb;text-anchor:start;color:#000000;fill:url(#linearGradient2919);fill-opacity:1;stroke:none;stroke-width:0.30000001;marker:none;visibility:visible;display:inline;overflow:visible;enable-background:accumulate;font-family:'A.C.M.E. Secret Agent';-inkscape-font-specification:'A.C.M.E. Secret Agent'"
       d="m 5.5,1009.9688 c -0.9115054,0 -1.65625,0.7447 -1.65625,1.6562 l 0,37 c 0,0.9115 0.7447446,1.625 1.65625,1.625 l 37,0 c 0.911505,0 1.65625,-0.7135 1.65625,-1.625 l 0,-37 c 0,-0.9115 -0.744745,-1.6562 -1.65625,-1.6562 l -37,0 z m 0,0.2812 37,0 c 0.750495,0 1.34375,0.6245 1.34375,1.375 l 0,37 c 0,0.7505 -0.593255,1.3438 -1.34375,1.3438 l -37,0 c -0.7504946,0 -1.34375,-0.5933 -1.34375,-1.3438 l 0,-37 c 0,-0.7505 0.5932554,-1.375 1.34375,-1.375 z"
       id="rect3864" />
    <path
       style="fill:#333333;fill-opacity:0.78431373;stroke:none;filter:url(#filter3878)"
       d="m 5,1011.4908 38,0 0,38 -38,0 0,-38 z"
       id="rect3874" />
    <path
       style="fill:url(#linearGradient3945);fill-opacity:1;stroke:none"
       d="m 5,1011.1122 38,0 0,38 -38,0 0,-38 z"
       id="rect3821" />
    <path
       sodipodi:nodetypes="cccc"
       id="path3834"
       d="m 43,1030.1122 c -0.510632,5.334 -0.460781,11.5732 -2.857143,15.9643 -5.083333,2.4296 -11.059524,1.9309 -16.142857,3.0357 l 19,-19 z"
       style="fill:#333333;fill-opacity:0.58823532;stroke:none" />
    <path
       style="fill:url(#linearGradient3941);fill-opacity:1;stroke:none"
       d="m 5,1011.1122 38,0 0,19 c -0.510632,5.334 -1.353638,10.5018 -3.75,14.8929 -5.083333,2.4296 -10.166667,3.0023 -15.25,4.1071 l -19,0 0,-38 z"
       id="rect3831"
       sodipodi:nodetypes="ccccccc" />
    <path
       sodipodi:nodetypes="ccccc"
       id="path3840"
       d="m 5,1011.1122 38,0 0,11.8571 -38,0 0,-11.8571 z"
       style="fill:url(#linearGradient3684);fill-opacity:1;stroke:none" />
    <g
       style="font-size:14px;font-style:normal;font-variant:normal;font-weight:bold;font-stretch:normal;fill:#333333;fill-opacity:1;stroke:#f0f0f0;stroke-width:0.30000001;stroke-miterlimit:4;stroke-opacity:1;font-family:Impact;-inkscape-font-specification:Impact Bold"
       id="text2910">
      <path
         d="m 11.367188,1029.5803 0,1.4287 0.745117,0 0,1.4356 -0.745117,0 0,4.8535 c -4e-6,0.597 0.02962,0.9297 0.08887,0.998 0.0638,0.068 0.321285,0.1026 0.772461,0.1026 l 0,1.4629 -1.114258,0 c -0.628909,0 -1.077802,-0.025 -1.3466799,-0.075 -0.2688817,-0.055 -0.5058606,-0.1755 -0.7109375,-0.3623 -0.205079,-0.1914 -0.332683,-0.4079 -0.3828125,-0.6494 -0.050131,-0.2461 -0.075196,-0.8204 -0.075195,-1.7227 l 0,-4.6074 -0.5947265,0 0,-1.4356 0.5947265,0 0,-1.4287 2.7685552,0"
         style=""
         id="path3712" />
      <path
         d="m 18.96875,1033.9758 0,2.2217 c -7e-6,0.8158 -0.04102,1.4151 -0.123047,1.7979 -0.08204,0.3782 -0.257493,0.7337 -0.526367,1.0664 -0.268886,0.3281 -0.61524,0.5719 -1.039063,0.7314 -0.419275,0.155 -0.902347,0.2324 -1.449218,0.2324 -0.61068,0 -1.127932,-0.066 -1.551758,-0.1982 -0.42383,-0.1367 -0.754233,-0.3395 -0.991211,-0.6084 -0.232423,-0.2734 -0.398764,-0.6016 -0.499023,-0.9844 -0.100261,-0.3873 -0.150392,-0.9661 -0.150391,-1.7363 l 0,-2.3242 c -10e-7,-0.8431 0.09115,-1.5016 0.273437,-1.9756 0.182291,-0.474 0.510416,-0.8545 0.984375,-1.1416 0.473957,-0.2871 1.080076,-0.4307 1.81836,-0.4307 0.619787,0 1.150711,0.094 1.592773,0.2803 0.446609,0.1823 0.790684,0.4216 1.032227,0.7178 0.24153,0.2962 0.405592,0.6015 0.492187,0.916 0.09114,0.3144 0.136712,0.793 0.136719,1.4355 m -2.761719,-0.6836 c -4e-6,-0.4648 -0.02507,-0.7565 -0.0752,-0.875 -0.05013,-0.123 -0.15723,-0.1845 -0.321289,-0.1845 -0.164066,0 -0.273441,0.062 -0.328125,0.1845 -0.05469,0.1185 -0.08203,0.4102 -0.08203,0.875 l 0,4.0948 c -4e-6,0.4284 0.02734,0.7086 0.08203,0.8408 0.05468,0.1276 0.16178,0.1914 0.321289,0.1914 0.164059,0 0.271155,-0.059 0.321289,-0.1777 0.05468,-0.1185 0.08203,-0.3737 0.08203,-0.7657 l 0,-4.1836"
         style=""
         id="path3714" />
      <path
         d="m 26.166992,1028.7942 0,11.0674 -2.761719,0 0,-0.6563 c -0.264326,0.2735 -0.542321,0.4785 -0.833984,0.6153 -0.291669,0.1367 -0.597008,0.205 -0.916016,0.205 -0.428387,0 -0.799806,-0.1116 -1.114257,-0.3349 -0.314454,-0.2279 -0.517254,-0.4899 -0.608399,-0.7862 -0.08659,-0.2962 -0.129883,-0.7793 -0.129883,-1.4492 l 0,-4.2451 c 0,-0.6973 0.04329,-1.1917 0.129883,-1.4834 0.09115,-0.2917 0.296223,-0.5469 0.615235,-0.7656 0.319009,-0.2233 0.699542,-0.335 1.141601,-0.335 0.341794,0 0.653969,0.062 0.936524,0.1846 0.287105,0.123 0.546871,0.3076 0.779296,0.5537 l 0,-2.5703 2.761719,0 m -2.761719,4.2793 c -4e-6,-0.3327 -0.02963,-0.556 -0.08887,-0.6699 -0.05469,-0.114 -0.166345,-0.1709 -0.334961,-0.1709 -0.164066,0 -0.275719,0.052 -0.334961,0.1572 -0.05469,0.1003 -0.08203,0.3281 -0.08203,0.6836 l 0,4.4433 c -3e-6,0.3692 0.02734,0.613 0.08203,0.7315 0.05468,0.1139 0.159502,0.1709 0.314453,0.1709 0.177731,0 0.296221,-0.064 0.355469,-0.1914 0.05924,-0.1322 0.08886,-0.4512 0.08887,-0.957 l 0,-4.1973"
         style=""
         id="path3716" />
      <path
         d="m 29.625977,1034.304 -2.590821,0 0,-0.6084 c 0,-0.7019 0.07975,-1.2419 0.239258,-1.6202 0.164062,-0.3828 0.489908,-0.72 0.977539,-1.0117 0.487628,-0.2916 1.121091,-0.4375 1.900391,-0.4375 0.93424,0 1.638341,0.1664 2.112304,0.499 0.473953,0.3282 0.758783,0.7338 0.854493,1.2168 0.0957,0.4786 0.143548,1.4675 0.143554,2.9668 l 0,4.5528 -2.686523,0 0,-0.8067 c -0.168624,0.3236 -0.387373,0.5674 -0.65625,0.7315 -0.264326,0.1595 -0.581057,0.2392 -0.950195,0.2392 -0.483075,0 -0.927411,-0.1344 -1.333008,-0.4033 -0.401042,-0.2734 -0.601563,-0.8681 -0.601563,-1.7842 l 0,-0.7451 c 0,-0.679 0.107096,-1.1416 0.321289,-1.3877 0.214192,-0.2461 0.745116,-0.5332 1.592774,-0.8613 0.906898,-0.3555 1.392249,-0.5947 1.456054,-0.7178 0.0638,-0.123 0.0957,-0.3737 0.0957,-0.7519 -4e-6,-0.474 -0.03646,-0.7816 -0.109375,-0.9229 -0.06836,-0.1458 -0.184574,-0.2187 -0.348633,-0.2187 -0.186852,0 -0.303063,0.062 -0.348633,0.1845 -0.04558,0.1185 -0.06836,0.4307 -0.06836,0.9366 l 0,0.9502 m 0.875,1.2441 c -0.442061,0.3236 -0.699548,0.5947 -0.772461,0.8135 -0.06836,0.2187 -0.102542,0.5332 -0.102539,0.9433 -3e-6,0.4694 0.02962,0.7725 0.08887,0.9092 0.0638,0.1367 0.186845,0.2051 0.36914,0.2051 0.173174,0 0.284827,-0.052 0.334961,-0.1572 0.05468,-0.1094 0.08203,-0.392 0.08203,-0.8477 l 0,-1.8662"
         style=""
         id="path3718" />
      <path
         d="m 39.996094,1030.7903 -0.792969,6.5625 c -0.123052,1.039 -0.22787,1.7477 -0.314453,2.126 -0.08204,0.3782 -0.221034,0.6904 -0.416992,0.9365 -0.195968,0.2461 -0.469406,0.4261 -0.820313,0.54 -0.346358,0.1185 -0.902347,0.1778 -1.667969,0.1778 l -1.674804,0 0,-1.4493 c 0.428384,0 0.7041,-0.021 0.827148,-0.062 0.123046,-0.046 0.184569,-0.1435 0.18457,-0.2939 -1e-6,-0.073 -0.05697,-0.3897 -0.170898,-0.9502 l -1.510742,-7.5879 2.508789,0 0.902344,6.1181 0.4375,-6.1181 2.508789,0"
         style=""
         id="path3720" />
    </g>
    <path
       sodipodi:nodetypes="cccc"
       id="path3850"
       d="m 43,1030.1122 c -0.510632,5.334 -1.353638,10.5018 -3.75,14.8929 -5.083333,2.4296 -10.166667,3.0023 -15.25,4.1071 7.462518,-4.6909 14.146515,-10.5142 19,-19 z"
       style="fill:url(#linearGradient3935);fill-opacity:1;stroke:none" />
    <path
       style="fill:#640000;fill-opacity:1;stroke:none"
       d="m 13.5,1006.2818 1,0 c 0.831,0 1.5,0.669 1.5,1.5 l 0,6 c 0,0.831 -0.669,1.5 -1.5,1.5 l -1,0 c -0.831,0 -1.5,-0.669 -1.5,-1.5 l 0,-6 c 0,-0.831 0.669,-1.5 1.5,-1.5 z"
       id="rect3886" />
    <path
       style="fill:url(#radialGradient3931);fill-opacity:1;stroke:none"
       d="m 13.5,1005.6122 1,0 c 0.831,0 1.5,0.669 1.5,1.5 l 0,6 c 0,0.831 -0.669,1.5 -1.5,1.5 l -1,0 c -0.831,0 -1.5,-0.669 -1.5,-1.5 l 0,-6 c 0,-0.831 0.669,-1.5 1.5,-1.5 z"
       id="rect3664" />
    <path
       style="fill:#640000;fill-opacity:1;stroke:none"
       d="m 33.5,1006.2818 1,0 c 0.831,0 1.5,0.669 1.5,1.5 l 0,6 c 0,0.831 -0.669,1.5 -1.5,1.5 l -1,0 c -0.831,0 -1.5,-0.669 -1.5,-1.5 l 0,-6 c 0,-0.831 0.669,-1.5 1.5,-1.5 z"
       id="rect3890" />
    <path
       style="fill:url(#radialGradient3927);fill-opacity:1;stroke:none"
       d="m 33.5,1005.6122 1,0 c 0.831,0 1.5,0.669 1.5,1.5 l 0,6 c 0,0.831 -0.669,1.5 -1.5,1.5 l -1,0 c -0.831,0 -1.5,-0.669 -1.5,-1.5 l 0,-6 c 0,-0.831 0.669,-1.5 1.5,-1.5 z"
       id="rect3817" />
    <g
       style="font-size:5px;font-style:normal;font-variant:normal;font-weight:bold;font-stretch:normal;fill:#f0f0f0;fill-opacity:1;stroke:#700000;stroke-width:0.1;stroke-miterlimit:4;stroke-opacity:1;font-family:Calibri;-inkscape-font-specification:'A.C.M.E. Secret Agent Bold'"
       id="text2914">
      <path
         d="m 11.581787,1020.1114 c -4e-6,0.016 -0.0049,0.031 -0.01465,0.044 -0.0081,0.013 -0.02442,0.024 -0.04883,0.032 -0.02279,0.01 -0.05372,0.015 -0.09277,0.019 -0.03907,0 -0.08871,0.01 -0.148926,0.01 -0.0586,0 -0.107425,-0 -0.146484,-0.01 -0.03907,-0 -0.06999,-0.011 -0.09277,-0.019 -0.02279,-0.01 -0.03907,-0.019 -0.04883,-0.032 -0.0098,-0.013 -0.01465,-0.028 -0.01465,-0.044 l 0,-2.5708 -0.0049,0 -0.915527,2.5683 c -0.0065,0.021 -0.01709,0.039 -0.03174,0.054 -0.01465,0.013 -0.034996,0.024 -0.061036,0.032 -0.024417,0.01 -0.056155,0.013 -0.095215,0.015 -0.039065,0 -0.086265,0 -0.1416015,0 -0.055341,0 -0.1025412,-0 -0.1416016,-0.01 -0.039065,-0 -0.071617,-0.01 -0.097656,-0.017 -0.024416,-0.01 -0.043947,-0.021 -0.058594,-0.034 -0.01465,-0.013 -0.024416,-0.028 -0.029297,-0.046 l -0.883789,-2.5683 -0.00488,0 0,2.5708 c -9e-7,0.016 -0.00488,0.031 -0.014648,0.044 -0.00814,0.013 -0.024415,0.024 -0.048828,0.032 -0.024415,0.01 -0.056153,0.015 -0.095215,0.019 -0.037436,0 -0.086264,0.01 -0.1464843,0.01 -0.058594,0 -0.1074225,-0 -0.1464844,-0.01 -0.039063,-0 -0.070801,-0.011 -0.095215,-0.019 -0.022787,-0.01 -0.039063,-0.019 -0.048828,-0.032 -0.00814,-0.013 -0.012207,-0.028 -0.012207,-0.044 l 0,-2.815 c -4e-7,-0.083 0.021972,-0.1464 0.065918,-0.1904 0.043945,-0.044 0.1025385,-0.066 0.1757812,-0.066 l 0.4199219,0 c 0.074869,0 0.139159,0.01 0.1928711,0.019 0.05371,0.011 0.1000963,0.032 0.1391601,0.061 0.039061,0.028 0.071613,0.065 0.097656,0.1123 0.02604,0.046 0.048827,0.1025 0.068359,0.1709 l 0.6835937,1.8823 0.00977,0 0.7080082,-1.8774 c 0.02116,-0.068 0.04394,-0.1262 0.06836,-0.1734 0.02604,-0.047 0.05534,-0.085 0.08789,-0.1147 0.03418,-0.029 0.07405,-0.05 0.119629,-0.061 0.04557,-0.013 0.09847,-0.019 0.158691,-0.019 l 0.432129,0 c 0.04394,0 0.08138,0.01 0.112305,0.017 0.03255,0.011 0.05859,0.029 0.07813,0.051 0.02115,0.021 0.03662,0.048 0.04639,0.08 0.01139,0.031 0.01709,0.067 0.01709,0.1074 l 0,2.815"
         style=""
         id="path3691" />
      <path
         d="m 15.116943,1018.5831 c -3e-6,0.262 -0.03255,0.4964 -0.09766,0.7031 -0.06511,0.2067 -0.161949,0.3825 -0.290527,0.5273 -0.128584,0.1433 -0.288089,0.2531 -0.478516,0.3296 -0.188804,0.075 -0.407717,0.1123 -0.656738,0.1123 -0.24577,0 -0.460613,-0.032 -0.644531,-0.095 -0.182293,-0.065 -0.334474,-0.1636 -0.456543,-0.2954 -0.122071,-0.1318 -0.214031,-0.2995 -0.275879,-0.5029 -0.06022,-0.2035 -0.09033,-0.4444 -0.09033,-0.7227 0,-0.2555 0.03255,-0.485 0.09766,-0.6885 0.0651,-0.205 0.161946,-0.3792 0.290527,-0.5224 0.12858,-0.1432 0.287272,-0.2531 0.476075,-0.3296 0.190428,-0.077 0.410968,-0.1147 0.661621,-0.1148 0.239255,1e-4 0.45003,0.032 0.632324,0.095 0.183917,0.063 0.336911,0.1611 0.458984,0.2929 0.123695,0.1319 0.216469,0.2987 0.278321,0.5005 0.06347,0.2002 0.09521,0.437 0.09521,0.7105 m -0.673828,0.034 c -2e-6,-0.166 -0.01302,-0.3165 -0.03906,-0.4516 -0.02604,-0.1367 -0.0708,-0.2531 -0.134278,-0.3491 -0.06185,-0.098 -0.144859,-0.1726 -0.249023,-0.2246 -0.104169,-0.054 -0.234377,-0.081 -0.390625,-0.081 -0.157879,0 -0.289715,0.03 -0.395508,0.09 -0.105795,0.059 -0.191244,0.1376 -0.256348,0.2368 -0.0651,0.099 -0.111491,0.2157 -0.13916,0.3492 -0.02604,0.1318 -0.03906,0.2718 -0.03906,0.4199 -10e-7,0.1725 0.01302,0.3279 0.03906,0.4663 0.02604,0.1367 0.06999,0.2539 0.131836,0.3516 0.06185,0.098 0.144856,0.1725 0.249024,0.2246 0.104165,0.05 0.235187,0.076 0.393066,0.076 0.157876,0 0.289712,-0.029 0.395508,-0.088 0.105792,-0.059 0.191241,-0.1384 0.256348,-0.2393 0.0651,-0.1009 0.110674,-0.2181 0.136718,-0.3516 0.02767,-0.1351 0.0415,-0.2783 0.0415,-0.4297"
         style=""
         id="path3693" />
      <path
         d="m 18.259033,1019.9747 c -3e-6,0.037 -0.0065,0.071 -0.01953,0.1001 -0.01302,0.029 -0.03093,0.054 -0.05371,0.073 -0.02116,0.019 -0.0472,0.034 -0.07813,0.044 -0.0293,0.01 -0.05941,0.012 -0.09033,0.012 l -0.273438,0 c -0.05697,0 -0.10661,-0.01 -0.148925,-0.017 -0.04069,-0.011 -0.07894,-0.032 -0.114746,-0.061 -0.03418,-0.031 -0.06755,-0.072 -0.100098,-0.122 -0.03255,-0.052 -0.06918,-0.1188 -0.109863,-0.2002 l -0.786133,-1.4771 c -0.04557,-0.088 -0.09196,-0.1823 -0.13916,-0.2832 -0.0472,-0.1025 -0.08952,-0.2018 -0.126953,-0.2978 l -0.0049,0 c 0.0065,0.1172 0.01139,0.2343 0.01465,0.3515 0.0033,0.1156 0.0049,0.2352 0.0049,0.3589 l 0,1.6528 c -10e-7,0.016 -0.0049,0.031 -0.01465,0.044 -0.0081,0.013 -0.0236,0.024 -0.04639,0.034 -0.02116,0.01 -0.05046,0.015 -0.08789,0.019 -0.03743,0 -0.08545,0.01 -0.144043,0.01 -0.05697,0 -0.104167,-0 -0.141601,-0.01 -0.03744,-0 -0.06673,-0.011 -0.08789,-0.019 -0.02116,-0.01 -0.03581,-0.021 -0.04395,-0.034 -0.0081,-0.013 -0.01221,-0.028 -0.01221,-0.044 l 0,-2.8393 c -10e-7,-0.077 0.02197,-0.1335 0.06592,-0.1709 0.04557,-0.039 0.100911,-0.059 0.166015,-0.059 l 0.344239,0 c 0.06185,0 0.113931,0.01 0.15625,0.017 0.04232,0.01 0.07975,0.027 0.112304,0.051 0.03418,0.024 0.06592,0.059 0.09521,0.1025 0.0293,0.042 0.05941,0.095 0.09033,0.1587 l 0.615235,1.1548 c 0.0358,0.07 0.0708,0.1391 0.10498,0.2075 0.03581,0.067 0.06999,0.1343 0.102539,0.2026 0.03255,0.067 0.06429,0.1327 0.09522,0.1978 0.03092,0.065 0.06103,0.1302 0.09033,0.1953 l 0.0024,0 c -0.0049,-0.1139 -0.009,-0.2327 -0.01221,-0.3564 -0.0016,-0.1237 -0.0024,-0.2417 -0.0024,-0.3541 l 0,-1.4819 c -2e-6,-0.016 0.0049,-0.031 0.01465,-0.044 0.0098,-0.013 0.02604,-0.024 0.04883,-0.034 0.02278,-0.01 0.05289,-0.016 0.09033,-0.019 0.03743,-0 0.08545,-0.01 0.144042,-0.01 0.05534,0 0.101723,0 0.139161,0.01 0.03743,0 0.06592,0.01 0.08545,0.019 0.02116,0.01 0.0358,0.021 0.04394,0.034 0.0081,0.013 0.0122,0.028 0.01221,0.044 l 0,2.8394"
         style=""
         id="path3695" />
      <path
         d="m 21.047119,1017.3038 c -2e-6,0.047 -0.0024,0.088 -0.0073,0.122 -0.0033,0.033 -0.009,0.06 -0.01709,0.081 -0.0081,0.019 -0.01872,0.034 -0.03174,0.044 -0.0114,0.01 -0.02442,0.015 -0.03906,0.015 l -0.791015,0 0,2.5464 c -2e-6,0.016 -0.0057,0.031 -0.01709,0.044 -0.0098,0.013 -0.02686,0.024 -0.05127,0.032 -0.02441,0.01 -0.05778,0.015 -0.100097,0.019 -0.04069,0 -0.09196,0.01 -0.153809,0.01 -0.06185,0 -0.113933,-0 -0.15625,-0.01 -0.04069,-0 -0.07324,-0.011 -0.09766,-0.019 -0.02442,-0.01 -0.04232,-0.019 -0.05371,-0.032 -0.0098,-0.013 -0.01465,-0.028 -0.01465,-0.044 l 0,-2.5464 -0.791015,0 c -0.01628,0 -0.03011,-0 -0.0415,-0.015 -0.01139,-0.01 -0.02116,-0.024 -0.0293,-0.044 -0.0081,-0.021 -0.01465,-0.048 -0.01953,-0.081 -0.0033,-0.034 -0.0049,-0.075 -0.0049,-0.122 0,-0.049 0.0016,-0.09 0.0049,-0.1245 0.0049,-0.034 0.01139,-0.061 0.01953,-0.081 0.0081,-0.021 0.0179,-0.036 0.0293,-0.044 0.01139,-0.01 0.02523,-0.015 0.0415,-0.015 l 2.226562,0 c 0.01465,0 0.02767,0 0.03906,0.015 0.01302,0.01 0.0236,0.023 0.03174,0.044 0.0081,0.019 0.01383,0.046 0.01709,0.081 0.0049,0.034 0.0073,0.076 0.0073,0.1245"
         style=""
         id="path3697" />
      <path
         d="m 23.891357,1020.1114 c -2e-6,0.016 -0.0057,0.031 -0.01709,0.044 -0.0098,0.013 -0.02686,0.024 -0.05127,0.032 -0.02442,0.01 -0.05697,0.015 -0.09766,0.019 -0.04069,0 -0.09196,0.01 -0.153809,0.01 -0.06348,0 -0.116376,-0 -0.158691,-0.01 -0.04069,-0 -0.07325,-0.011 -0.09766,-0.019 -0.02279,-0.01 -0.03988,-0.019 -0.05127,-0.032 -0.0098,-0.013 -0.01465,-0.028 -0.01465,-0.044 l 0,-1.2769 -1.181641,0 0,1.2769 c -1e-6,0.016 -0.0049,0.031 -0.01465,0.044 -0.0098,0.013 -0.02686,0.024 -0.05127,0.032 -0.02442,0.01 -0.05697,0.015 -0.09766,0.019 -0.04069,0 -0.09277,0.01 -0.15625,0.01 -0.06185,0 -0.113933,-0 -0.15625,-0.01 -0.04069,-0 -0.07324,-0.011 -0.09766,-0.019 -0.02441,-0.01 -0.04232,-0.019 -0.05371,-0.032 -0.0098,-0.013 -0.01465,-0.028 -0.01465,-0.044 l 0,-2.9834 c 0,-0.016 0.0049,-0.031 0.01465,-0.044 0.01139,-0.013 0.0293,-0.024 0.05371,-0.032 0.02441,-0.01 0.05697,-0.015 0.09766,-0.019 0.04232,-0 0.0944,-0.01 0.15625,-0.01 0.06348,0 0.115559,0 0.15625,0.01 0.04069,0 0.07324,0.011 0.09766,0.019 0.02441,0.01 0.0415,0.019 0.05127,0.032 0.0098,0.013 0.01465,0.028 0.01465,0.044 l 0,1.1597 1.181641,0 0,-1.1597 c -3e-6,-0.016 0.0049,-0.031 0.01465,-0.044 0.01139,-0.013 0.02848,-0.024 0.05127,-0.032 0.02441,-0.01 0.05696,-0.015 0.09766,-0.019 0.04231,-0 0.09521,-0.01 0.158691,-0.01 0.06185,0 0.113116,0 0.153809,0.01 0.04069,0 0.07324,0.011 0.09766,0.019 0.02441,0.01 0.0415,0.019 0.05127,0.032 0.01139,0.013 0.01709,0.028 0.01709,0.044 l 0,2.9834"
         style=""
         id="path3699" />
      <path
         d="m 26.755127,1018.9713 c -1e-6,0.094 -0.009,0.1603 -0.02686,0.1977 -0.0179,0.037 -0.04639,0.056 -0.08545,0.056 l -1.015625,0 c -0.04069,0 -0.06999,-0.019 -0.08789,-0.056 -0.0179,-0.039 -0.02686,-0.105 -0.02686,-0.1977 0,-0.091 0.009,-0.1555 0.02686,-0.1929 0.0179,-0.038 0.0472,-0.056 0.08789,-0.056 l 1.015625,0 c 0.01953,0 0.03581,0 0.04883,0.012 0.01465,0.01 0.02686,0.022 0.03662,0.041 0.0098,0.02 0.01628,0.046 0.01953,0.078 0.0049,0.033 0.0073,0.072 0.0073,0.1172"
         style=""
         id="path3701" />
      <path
         d="m 31.703857,1020.0357 c -0.0098,0.039 -0.0236,0.071 -0.0415,0.095 -0.01628,0.023 -0.04151,0.041 -0.07568,0.054 -0.03418,0.011 -0.07813,0.019 -0.131836,0.022 -0.05371,0 -0.122074,0.01 -0.205078,0.01 -0.09278,0 -0.167646,-0 -0.22461,-0.01 -0.05534,-0 -0.09929,-0.011 -0.131835,-0.022 -0.03256,-0.013 -0.05616,-0.031 -0.0708,-0.054 -0.01465,-0.024 -0.02604,-0.056 -0.03418,-0.095 l -0.505371,-2.0019 -0.0049,0 -0.478515,2.0019 c -0.0081,0.037 -0.01953,0.068 -0.03418,0.093 -0.01465,0.023 -0.03825,0.041 -0.0708,0.054 -0.03093,0.013 -0.07406,0.021 -0.129394,0.024 -0.05371,0 -0.125327,0.01 -0.214844,0.01 -0.0944,0 -0.170086,-0 -0.227051,-0.01 -0.05534,-0 -0.09928,-0.011 -0.131836,-0.022 -0.03255,-0.013 -0.05615,-0.031 -0.0708,-0.054 -0.01465,-0.024 -0.02686,-0.056 -0.03662,-0.095 l -0.717773,-2.7563 c -0.01465,-0.059 -0.02279,-0.1042 -0.02441,-0.1368 -0.0016,-0.034 0.0073,-0.06 0.02685,-0.078 0.02116,-0.018 0.05453,-0.029 0.100098,-0.032 0.0472,-0 0.112304,-0.01 0.195312,-0.01 0.0765,0 0.136719,0 0.180664,0 0.04557,0 0.07975,0.01 0.102539,0.017 0.02279,0.01 0.03825,0.021 0.04639,0.039 0.0081,0.016 0.01465,0.04 0.01953,0.071 l 0.5542,2.4194 0.0024,0 0.576172,-2.4023 c 0.0065,-0.031 0.01465,-0.056 0.02441,-0.076 0.01139,-0.019 0.02929,-0.034 0.05371,-0.044 0.02604,-0.011 0.06103,-0.019 0.10498,-0.022 0.04394,-0 0.102537,-0.01 0.175782,-0.01 0.07812,0 0.139971,0 0.185547,0 0.0472,0 0.08301,0.011 0.107421,0.022 0.02604,0.01 0.04476,0.024 0.05615,0.044 0.01139,0.019 0.02034,0.045 0.02685,0.078 l 0.595703,2.4023 0.0049,0 0.554199,-2.4121 c 0.0049,-0.026 0.01139,-0.048 0.01953,-0.066 0.0081,-0.019 0.0236,-0.034 0.04639,-0.044 0.02278,-0.011 0.05533,-0.019 0.09766,-0.022 0.04231,-0 0.101721,-0.01 0.178222,-0.01 0.07161,0 0.126949,0 0.166016,0.01 0.04069,0 0.06998,0.014 0.08789,0.032 0.0179,0.018 0.02522,0.045 0.02197,0.081 -0.0016,0.034 -0.0098,0.081 -0.02441,0.1416 l -0.725098,2.749"
         style=""
         id="path3703" />
      <path
         d="m 34.782471,1019.9478 c -3e-6,0.047 -0.0024,0.087 -0.0073,0.1196 -0.0033,0.031 -0.009,0.056 -0.01709,0.076 -0.0081,0.02 -0.01872,0.034 -0.03174,0.044 -0.0114,0.01 -0.02442,0.012 -0.03906,0.012 l -1.586914,0 c -0.05371,0 -0.09928,-0.015 -0.136719,-0.046 -0.03581,-0.033 -0.05371,-0.085 -0.05371,-0.1563 l 0,-2.7539 c 0,-0.072 0.0179,-0.1228 0.05371,-0.1538 0.03744,-0.032 0.08301,-0.049 0.136719,-0.049 l 1.577148,0 c 0.01465,0 0.02767,0 0.03906,0.012 0.01139,0.01 0.02116,0.023 0.0293,0.044 0.0081,0.019 0.01383,0.045 0.01709,0.078 0.0049,0.031 0.0073,0.071 0.0073,0.1196 -3e-6,0.046 -0.0024,0.085 -0.0073,0.1172 -0.0033,0.031 -0.009,0.056 -0.01709,0.076 -0.0081,0.019 -0.01791,0.034 -0.0293,0.044 -0.0114,0.01 -0.02442,0.012 -0.03906,0.012 l -1.127929,0 0,0.7715 0.954589,0 c 0.01465,0 0.02767,0 0.03906,0.015 0.01302,0.01 0.0236,0.022 0.03174,0.042 0.0081,0.018 0.01383,0.043 0.01709,0.076 0.0049,0.031 0.0073,0.069 0.0073,0.1147 -2e-6,0.047 -0.0024,0.086 -0.0073,0.1172 -0.0033,0.031 -0.009,0.056 -0.01709,0.076 -0.0081,0.018 -0.01872,0.031 -0.03174,0.039 -0.0114,0.01 -0.02442,0.012 -0.03906,0.012 l -0.954589,0 0,0.8912 1.137695,0 c 0.01465,0 0.02767,0 0.03906,0.015 0.01302,0.01 0.0236,0.022 0.03174,0.042 0.0081,0.019 0.01383,0.046 0.01709,0.078 0.0049,0.031 0.0073,0.07 0.0073,0.1172"
         style=""
         id="path3705" />
      <path
         d="m 37.223877,1019.9478 c -2e-6,0.047 -0.0024,0.087 -0.0073,0.1196 -0.0033,0.031 -0.009,0.056 -0.01709,0.076 -0.0081,0.02 -0.01872,0.034 -0.03174,0.044 -0.0114,0.01 -0.02442,0.012 -0.03906,0.012 l -1.586914,0 c -0.05371,0 -0.09928,-0.015 -0.136719,-0.046 -0.03581,-0.033 -0.05371,-0.085 -0.05371,-0.1563 l 0,-2.7539 c 0,-0.072 0.0179,-0.1228 0.05371,-0.1538 0.03744,-0.032 0.08301,-0.049 0.136719,-0.049 l 1.577148,0 c 0.01465,0 0.02767,0 0.03906,0.012 0.01139,0.01 0.02116,0.023 0.0293,0.044 0.0081,0.019 0.01383,0.045 0.01709,0.078 0.0049,0.031 0.0073,0.071 0.0073,0.1196 -2e-6,0.046 -0.0024,0.085 -0.0073,0.1172 -0.0033,0.031 -0.009,0.056 -0.01709,0.076 -0.0081,0.019 -0.01791,0.034 -0.0293,0.044 -0.0114,0.01 -0.02442,0.012 -0.03906,0.012 l -1.127929,0 0,0.7715 0.95459,0 c 0.01465,0 0.02767,0 0.03906,0.015 0.01302,0.01 0.0236,0.022 0.03174,0.042 0.0081,0.018 0.01383,0.043 0.01709,0.076 0.0049,0.031 0.0073,0.069 0.0073,0.1147 -2e-6,0.047 -0.0024,0.086 -0.0073,0.1172 -0.0033,0.031 -0.009,0.056 -0.01709,0.076 -0.0081,0.018 -0.01872,0.031 -0.03174,0.039 -0.0114,0.01 -0.02442,0.012 -0.03906,0.012 l -0.95459,0 0,0.8912 1.137695,0 c 0.01465,0 0.02767,0 0.03906,0.015 0.01302,0.01 0.0236,0.022 0.03174,0.042 0.0081,0.019 0.01383,0.046 0.01709,0.078 0.0049,0.031 0.0073,0.07 0.0073,0.1172"
         style=""
         id="path3707" />
      <path
         d="m 40.099854,1020.1041 c -3e-6,0.018 -0.0049,0.034 -0.01465,0.049 -0.0081,0.013 -0.02523,0.024 -0.05127,0.034 -0.02442,0.01 -0.0586,0.015 -0.10254,0.019 -0.04395,0 -0.09929,0.01 -0.166015,0.01 -0.105797,0 -0.182294,-0 -0.229492,-0.012 -0.04557,-0.01 -0.07894,-0.02 -0.100098,-0.037 -0.01953,-0.016 -0.035,-0.036 -0.04639,-0.059 l -0.95459,-1.499 0,1.499 c -1e-6,0.018 -0.0049,0.033 -0.01465,0.046 -0.0098,0.013 -0.02686,0.024 -0.05127,0.034 -0.02441,0.01 -0.05697,0.015 -0.09766,0.019 -0.04069,0 -0.09277,0.01 -0.15625,0.01 -0.06185,0 -0.113933,-0 -0.15625,-0.01 -0.04069,-0 -0.07324,-0.011 -0.09766,-0.019 -0.02441,-0.01 -0.04232,-0.021 -0.05371,-0.034 -0.0098,-0.013 -0.01465,-0.029 -0.01465,-0.046 l 0,-2.9761 c -10e-7,-0.018 0.0049,-0.033 0.01465,-0.046 0.01139,-0.013 0.0293,-0.024 0.05371,-0.032 0.02441,-0.01 0.05697,-0.015 0.09766,-0.019 0.04232,-0 0.0944,-0.01 0.15625,-0.01 0.06348,0 0.115559,0 0.15625,0.01 0.04069,0 0.07324,0.011 0.09766,0.019 0.02441,0.01 0.0415,0.019 0.05127,0.032 0.0098,0.013 0.01465,0.029 0.01465,0.046 l 0,1.3452 0.925293,-1.3427 c 0.01139,-0.021 0.02523,-0.038 0.0415,-0.051 0.01627,-0.015 0.03743,-0.026 0.06348,-0.034 0.02604,-0.01 0.0594,-0.014 0.100098,-0.017 0.04069,-0 0.09277,-0 0.15625,-0 0.0651,0 0.118812,0 0.161132,0.01 0.04232,0 0.07568,0.012 0.100098,0.022 0.02604,0.01 0.04394,0.019 0.05371,0.032 0.0098,0.013 0.01465,0.028 0.01465,0.044 -2e-6,0.028 -0.0073,0.056 -0.02197,0.086 -0.01465,0.029 -0.04232,0.076 -0.08301,0.1391 l -0.866699,1.1353 0.944824,1.4282 c 0.03581,0.067 0.05696,0.1115 0.06348,0.1343 0.0081,0.021 0.01221,0.038 0.01221,0.051"
         style=""
         id="path3709" />
    </g>
  </g>
</svg>
