<?xml version="1.0" encoding="UTF-8" standalone="no"?>
<!-- Created with Inkscape (http://www.inkscape.org/) -->

<svg
   xmlns:dc="http://purl.org/dc/elements/1.1/"
   xmlns:cc="http://creativecommons.org/ns#"
   xmlns:rdf="http://www.w3.org/1999/02/22-rdf-syntax-ns#"
   xmlns:svg="http://www.w3.org/2000/svg"
   xmlns="http://www.w3.org/2000/svg"
   xmlns:xlink="http://www.w3.org/1999/xlink"
   xmlns:sodipodi="http://sodipodi.sourceforge.net/DTD/sodipodi-0.dtd"
   xmlns:inkscape="http://www.inkscape.org/namespaces/inkscape"
   width="48"
   height="48"
   id="svg2"
   version="1.1"
   inkscape:version="0.47pre4 r22446"
   sodipodi:docname="view-calendar-month1.svg"
   inkscape:export-filename="/home/andrea/.icons/MeliaeSVG/48/apps/png/evolution-calendar.png"
   inkscape:export-xdpi="240"
   inkscape:export-ydpi="240">
  <defs
     id="defs4">
    <linearGradient
       id="linearGradient3678">
      <stop
         style="stop-color:#de220c;stop-opacity:1;"
         offset="0"
         id="stop3680" />
      <stop
         style="stop-color:#700000;stop-opacity:1;"
         offset="1"
         id="stop3682" />
    </linearGradient>
    <linearGradient
       id="linearGradient3952">
      <stop
         style="stop-color:#141414;stop-opacity:1;"
         offset="0"
         id="stop3954" />
      <stop
         style="stop-color:#f0f0f0;stop-opacity:0.39215687;"
         offset="1"
         id="stop3956" />
    </linearGradient>
    <linearGradient
       id="linearGradient3866">
      <stop
         style="stop-color:#000000;stop-opacity:1;"
         offset="0"
         id="stop3868" />
      <stop
         style="stop-color:#c8c8c8;stop-opacity:0.39215687"
         offset="1"
         id="stop3870" />
    </linearGradient>
    <linearGradient
       id="linearGradient3852">
      <stop
         style="stop-color:#ffffff;stop-opacity:1;"
         offset="0"
         id="stop3854" />
      <stop
         style="stop-color:#ffffff;stop-opacity:0;"
         offset="1"
         id="stop3856" />
    </linearGradient>
    <linearGradient
       id="linearGradient3823">
      <stop
         style="stop-color:#c8c8c8;stop-opacity:1;"
         offset="0"
         id="stop3825" />
      <stop
         style="stop-color:#f0f0f0;stop-opacity:1;"
         offset="1"
         id="stop3827" />
    </linearGradient>
    <linearGradient
       id="linearGradient3805">
      <stop
         style="stop-color:#f0f0f0;stop-opacity:1;"
         offset="0"
         id="stop3807" />
      <stop
         id="stop3815"
         offset="0.81645572"
         style="stop-color:#969696;stop-opacity:1;" />
      <stop
         style="stop-color:#b4b4b4;stop-opacity:1;"
         offset="1"
         id="stop3809" />
    </linearGradient>
    <inkscape:perspective
       sodipodi:type="inkscape:persp3d"
       inkscape:vp_x="0 : 526.18109 : 1"
       inkscape:vp_y="0 : 1000 : 0"
       inkscape:vp_z="744.09448 : 526.18109 : 1"
       inkscape:persp3d-origin="372.04724 : 350.78739 : 1"
       id="perspective10" />
    <inkscape:perspective
       id="perspective2884"
       inkscape:persp3d-origin="0.5 : 0.33333333 : 1"
       inkscape:vp_z="1 : 0.5 : 1"
       inkscape:vp_y="0 : 1000 : 0"
       inkscape:vp_x="0 : 0.5 : 1"
       sodipodi:type="inkscape:persp3d" />
    <radialGradient
       spreadMethod="reflect"
       gradientTransform="matrix(1.4549755,-2.6431351e-8,4.9999995e-8,2.2746832,13.630343,-6.8389883)"
       gradientUnits="userSpaceOnUse"
       xlink:href="#linearGradient3520"
       id="radialGradient3562"
       fy="4.9179006"
       fx="14"
       r="2"
       cy="4.9179006"
       cx="14" />
    <linearGradient
       id="linearGradient3520">
      <stop
         offset="0"
         style="stop-color:#f2f2f2;stop-opacity:1"
         id="stop3522" />
      <stop
         offset="1"
         style="stop-color:#999;stop-opacity:1"
         id="stop3524" />
    </linearGradient>
    <radialGradient
       spreadMethod="reflect"
       gradientTransform="matrix(1.4549755,-2.6431351e-8,4.9999995e-8,2.2746832,-6.3696571,-6.8389883)"
       gradientUnits="userSpaceOnUse"
       xlink:href="#linearGradient3520"
       id="radialGradient3560"
       fy="4.9179006"
       fx="14"
       r="2"
       cy="4.9179006"
       cx="14" />
    <linearGradient
       gradientTransform="matrix(1,0,0,0.75,0,4)"
       gradientUnits="userSpaceOnUse"
       xlink:href="#linearGradient3510"
       id="linearGradient2448"
       y2="20.000023"
       x2="23.414803"
       y1="16"
       x1="23.414803" />
    <linearGradient
       id="linearGradient3510">
      <stop
         offset="0"
         style="stop-color:black;stop-opacity:1"
         id="stop3512" />
      <stop
         offset="1"
         style="stop-color:black;stop-opacity:0"
         id="stop3514" />
    </linearGradient>
    <linearGradient
       gradientTransform="translate(9.5367432e-6,0.9674388)"
       gradientUnits="userSpaceOnUse"
       xlink:href="#linearGradient3308-4-6"
       id="linearGradient2452"
       y2="43"
       x2="23.99999"
       y1="4.999989"
       x1="23.99999" />
    <linearGradient
       id="linearGradient3308-4-6">
      <stop
         offset="0"
         style="stop-color:white;stop-opacity:1"
         id="stop3310-1-4" />
      <stop
         offset="1"
         style="stop-color:white;stop-opacity:0"
         id="stop3312-5-3" />
    </linearGradient>
    <radialGradient
       gradientTransform="matrix(1.5295716e-8,1.1115568,-1.5963079,0,35.052637,0.9315072)"
       gradientUnits="userSpaceOnUse"
       xlink:href="#linearGradient3357"
       id="radialGradient2455"
       fy="11.394437"
       fx="12.063192"
       r="19.99999"
       cy="11.394437"
       cx="12.063192" />
    <linearGradient
       id="linearGradient3357">
      <stop
         offset="0"
         style="stop-color:#f89b7e;stop-opacity:1"
         id="stop3359" />
      <stop
         offset="0.39678687"
         style="stop-color:#e35d4f;stop-opacity:1"
         id="stop3361" />
      <stop
         offset="1"
         style="stop-color:#c6262e;stop-opacity:1"
         id="stop3363" />
    </linearGradient>
    <linearGradient
       gradientTransform="translate(0,0.9674388)"
       gradientUnits="userSpaceOnUse"
       xlink:href="#linearGradient2490"
       id="linearGradient2457"
       y2="3.8990016"
       x2="24"
       y1="44"
       x1="24" />
    <linearGradient
       id="linearGradient2490">
      <stop
         offset="0"
         style="stop-color:#791235;stop-opacity:1"
         id="stop2492" />
      <stop
         offset="1"
         style="stop-color:#dd3b27;stop-opacity:1"
         id="stop2494" />
    </linearGradient>
    <linearGradient
       gradientUnits="userSpaceOnUse"
       xlink:href="#linearGradient3600"
       id="linearGradient2460"
       y2="44.98436"
       x2="19.360001"
       y1="16.137854"
       x1="19.360001" />
    <linearGradient
       id="linearGradient3600">
      <stop
         offset="0"
         style="stop-color:#f4f4f4;stop-opacity:1"
         id="stop3602" />
      <stop
         offset="1"
         style="stop-color:#dbdbdb;stop-opacity:1"
         id="stop3604" />
    </linearGradient>
    <linearGradient
       gradientTransform="translate(0,0.9674388)"
       gradientUnits="userSpaceOnUse"
       xlink:href="#linearGradient3104"
       id="linearGradient2462"
       y2="3.8904724"
       x2="24"
       y1="44"
       x1="24" />
    <linearGradient
       id="linearGradient3104">
      <stop
         offset="0"
         style="stop-color:#787878;stop-opacity:1"
         id="stop3106" />
      <stop
         offset="1"
         style="stop-color:#aaa;stop-opacity:1"
         id="stop3108" />
    </linearGradient>
    <radialGradient
       gradientTransform="matrix(2.003784,0,0,1.4,27.98813,-17.4)"
       gradientUnits="userSpaceOnUse"
       xlink:href="#linearGradient3688"
       id="radialGradient2873"
       fy="43.5"
       fx="4.9929786"
       r="2.5"
       cy="43.5"
       cx="4.9929786" />
    <linearGradient
       id="linearGradient3688">
      <stop
         offset="0"
         style="stop-color:black;stop-opacity:1"
         id="stop3690" />
      <stop
         offset="1"
         style="stop-color:black;stop-opacity:0"
         id="stop3692" />
    </linearGradient>
    <radialGradient
       gradientTransform="matrix(2.003784,0,0,1.4,-20.01187,-104.4)"
       gradientUnits="userSpaceOnUse"
       xlink:href="#linearGradient3688"
       id="radialGradient2875"
       fy="43.5"
       fx="4.9929786"
       r="2.5"
       cy="43.5"
       cx="4.9929786" />
    <linearGradient
       gradientUnits="userSpaceOnUse"
       xlink:href="#linearGradient3702"
       id="linearGradient2877"
       y2="39.999443"
       x2="25.058096"
       y1="47.027729"
       x1="25.058096" />
    <linearGradient
       id="linearGradient3702">
      <stop
         offset="0"
         style="stop-color:black;stop-opacity:0"
         id="stop3704" />
      <stop
         offset="0.5"
         style="stop-color:black;stop-opacity:1"
         id="stop3710" />
      <stop
         offset="1"
         style="stop-color:black;stop-opacity:0"
         id="stop3706" />
    </linearGradient>
    <inkscape:perspective
       id="perspective3734"
       inkscape:persp3d-origin="24 : 16 : 1"
       inkscape:vp_z="48 : 24 : 1"
       inkscape:vp_y="0 : 1000 : 0"
       inkscape:vp_x="0 : 24 : 1"
       sodipodi:type="inkscape:persp3d" />
    <filter
       inkscape:collect="always"
       id="filter3878">
      <feGaussianBlur
         inkscape:collect="always"
         stdDeviation="0.19"
         id="feGaussianBlur3880" />
    </filter>
    <radialGradient
       inkscape:collect="always"
       xlink:href="#linearGradient3805"
       id="radialGradient3927"
       gradientUnits="userSpaceOnUse"
       gradientTransform="matrix(2.1160716,0,0,2.25,4.374997,-1263.2027)"
       cx="14"
       cy="1009.7471"
       fx="14"
       fy="1009.7471"
       r="2" />
    <radialGradient
       inkscape:collect="always"
       xlink:href="#linearGradient3805"
       id="radialGradient3931"
       gradientUnits="userSpaceOnUse"
       gradientTransform="matrix(2.1160716,0,0,2.25,-15.625003,-1263.2027)"
       cx="14"
       cy="1009.7471"
       fx="14"
       fy="1009.7471"
       r="2" />
    <linearGradient
       inkscape:collect="always"
       xlink:href="#linearGradient3852"
       id="linearGradient3935"
       gradientUnits="userSpaceOnUse"
       x1="47.82143"
       y1="1039.8622"
       x2="24"
       y2="1045.2194"
       gradientTransform="translate(0,-0.24998262)" />
    <linearGradient
       inkscape:collect="always"
       xlink:href="#linearGradient3823"
       id="linearGradient3941"
       gradientUnits="userSpaceOnUse"
       x1="11.428572"
       y1="1018.9336"
       x2="36.035713"
       y2="1042.3264"
       gradientTransform="translate(0,-0.24998262)" />
    <linearGradient
       inkscape:collect="always"
       xlink:href="#linearGradient3823"
       id="linearGradient3945"
       gradientUnits="userSpaceOnUse"
       x1="15.101525"
       y1="1017.9878"
       x2="36.939083"
       y2="1043.2416"
       gradientTransform="translate(0,-0.24998262)" />
    <linearGradient
       inkscape:collect="always"
       xlink:href="#linearGradient3952"
       id="linearGradient3958"
       x1="17.242857"
       y1="1009.9622"
       x2="28.031799"
       y2="1050.2271"
       gradientUnits="userSpaceOnUse" />
    <filter
       inkscape:collect="always"
       id="filter4010">
      <feGaussianBlur
         inkscape:collect="always"
         stdDeviation="0.4375"
         id="feGaussianBlur4012" />
    </filter>
    <linearGradient
       inkscape:collect="always"
       xlink:href="#linearGradient3952"
       id="linearGradient2919"
       gradientUnits="userSpaceOnUse"
       x1="17.242857"
       y1="1009.9622"
       x2="28.031799"
       y2="1050.2271" />
    <linearGradient
       inkscape:collect="always"
       xlink:href="#linearGradient3678"
       id="linearGradient3684"
       x1="24"
       y1="1022.9693"
       x2="24"
       y2="1011.1122"
       gradientUnits="userSpaceOnUse" />
  </defs>
  <sodipodi:namedview
     id="base"
     pagecolor="#ffffff"
     bordercolor="#666666"
     borderopacity="1.0"
     inkscape:pageopacity="0.0"
     inkscape:pageshadow="2"
     inkscape:zoom="7.919596"
     inkscape:cx="19.095819"
     inkscape:cy="24.220288"
     inkscape:document-units="px"
     inkscape:current-layer="layer1"
     showgrid="false"
     inkscape:window-width="1280"
     inkscape:window-height="714"
     inkscape:window-x="0"
     inkscape:window-y="25"
     inkscape:window-maximized="1" />
  <metadata
     id="metadata7">
    <rdf:RDF>
      <cc:Work
         rdf:about="">
        <dc:format>image/svg+xml</dc:format>
        <dc:type
           rdf:resource="http://purl.org/dc/dcmitype/StillImage" />
        <dc:title />
      </cc:Work>
    </rdf:RDF>
  </metadata>
  <g
     inkscape:label="Livello 1"
     inkscape:groupmode="layer"
     id="layer1"
     transform="translate(0,-1004.3622)">
    <path
       style="fill:#333333;fill-opacity:0.78431373999999998;stroke:none;filter:url(#filter4010)"
       d="M 13.5 1.25 C 12.669 1.25 12 1.919 12 2.75 L 12 4.75 L 5 4.75 C 3.892 4.75 3 5.642 3 6.75 L 3 44.75 C 3 45.858 3.892 46.75 5 46.75 L 43 46.75 C 44.108 46.75 45 45.858 45 44.75 L 45 6.75 C 45 5.642 44.108 4.75 43 4.75 L 36 4.75 L 36 2.75 C 36 1.919 35.331 1.25 34.5 1.25 L 33.5 1.25 C 32.669 1.25 32 1.919 32 2.75 L 32 4.75 L 16 4.75 L 16 2.75 C 16 1.919 15.331 1.25 14.5 1.25 L 13.5 1.25 z "
       transform="translate(0,1004.3622)"
       id="rect4003" />
    <path
       style="fill:#000000;fill-opacity:1;stroke:none"
       d="m 5,1009.1122 38,0 c 1.108,0 2,0.892 2,2 l 0,38 c 0,1.108 -0.892,2 -2,2 l -38,0 c -1.108,0 -2,-0.892 -2,-2 l 0,-38 c 0,-1.108 0.892,-2 2,-2 z"
       id="rect2890" />
    <path
       style="font-size:medium;font-style:normal;font-variant:normal;font-weight:normal;font-stretch:normal;text-indent:0;text-align:start;text-decoration:none;line-height:normal;letter-spacing:normal;word-spacing:normal;text-transform:none;direction:ltr;block-progression:tb;writing-mode:lr-tb;text-anchor:start;color:#000000;fill:url(#linearGradient2919);fill-opacity:1;stroke:none;stroke-width:0.30000001;marker:none;visibility:visible;display:inline;overflow:visible;enable-background:accumulate;font-family:'A.C.M.E. Secret Agent';-inkscape-font-specification:'A.C.M.E. Secret Agent'"
       d="m 5.5,1009.9688 c -0.9115054,0 -1.65625,0.7447 -1.65625,1.6562 l 0,37 c 0,0.9115 0.7447446,1.625 1.65625,1.625 l 37,0 c 0.911505,0 1.65625,-0.7135 1.65625,-1.625 l 0,-37 c 0,-0.9115 -0.744745,-1.6562 -1.65625,-1.6562 l -37,0 z m 0,0.2812 37,0 c 0.750495,0 1.34375,0.6245 1.34375,1.375 l 0,37 c 0,0.7505 -0.593255,1.3438 -1.34375,1.3438 l -37,0 c -0.7504946,0 -1.34375,-0.5933 -1.34375,-1.3438 l 0,-37 c 0,-0.7505 0.5932554,-1.375 1.34375,-1.375 z"
       id="rect3864" />
    <path
       style="fill:#333333;fill-opacity:0.78431373;stroke:none;filter:url(#filter3878)"
       d="m 5,1011.4908 38,0 0,38 -38,0 0,-38 z"
       id="rect3874" />
    <path
       style="fill:url(#linearGradient3945);fill-opacity:1;stroke:none"
       d="m 5,1011.1122 38,0 0,38 -38,0 0,-38 z"
       id="rect3821" />
    <path
       sodipodi:nodetypes="cccc"
       id="path3834"
       d="m 43,1030.1122 c -0.510632,5.334 -0.460781,11.5732 -2.857143,15.9643 -5.083333,2.4296 -11.059524,1.9309 -16.142857,3.0357 l 19,-19 z"
       style="fill:#333333;fill-opacity:0.58823532;stroke:none" />
    <path
       style="fill:url(#linearGradient3941);fill-opacity:1;stroke:none"
       d="m 5,1011.1122 38,0 0,19 c -0.510632,5.334 -1.353638,10.5018 -3.75,14.8929 -5.083333,2.4296 -10.166667,3.0023 -15.25,4.1071 l -19,0 0,-38 z"
       id="rect3831"
       sodipodi:nodetypes="ccccccc" />
    <path
       sodipodi:nodetypes="ccccc"
       id="path3840"
       d="m 5,1011.1122 38,0 0,11.8571 -38,0 0,-11.8571 z"
       style="fill:url(#linearGradient3684);fill-opacity:1;stroke:none" />
    <g
       style="font-size:13px;font-style:normal;font-variant:normal;font-weight:bold;font-stretch:normal;fill:#333333;fill-opacity:1;stroke:#f0f0f0;stroke-width:0.30000001;stroke-miterlimit:4;stroke-opacity:1;font-family:Impact;-inkscape-font-specification:Impact Bold"
       id="text2915">
      <path
         d="m 9.8447285,1031.6025 -0.044434,0.7998 c 0.1988901,-0.3173 0.4358691,-0.5543 0.7109371,-0.7109 0.275062,-0.1608 0.588212,-0.2412 0.939454,-0.2412 0.685541,0 1.225091,0.3174 1.618652,0.9521 0.215814,-0.3173 0.45914,-0.5543 0.72998,-0.7109 0.270826,-0.1608 0.571282,-0.2412 0.901368,-0.2412 0.435864,0 0.795564,0.1058 1.079101,0.3174 0.287751,0.2116 0.471833,0.4718 0.552246,0.7807 0.08039,0.3047 0.120596,0.802 0.120606,1.4917 l 0,5.9859 -2.488282,0 0,-5.4907 c -7e-6,-0.7194 -0.0254,-1.1638 -0.07617,-1.3331 -0.04656,-0.1734 -0.158699,-0.2602 -0.336426,-0.2602 -0.181973,0 -0.300462,0.085 -0.355469,0.2539 -0.05079,0.1693 -0.07618,0.6157 -0.07617,1.3394 l 0,5.4907 -2.488281,0 0,-5.3511 c -4e-6,-0.8252 -0.02116,-1.3203 -0.06348,-1.4853 -0.03809,-0.1651 -0.148115,-0.2476 -0.330078,-0.2476 -0.114261,0 -0.211592,0.044 -0.291992,0.1333 -0.080407,0.085 -0.1248402,0.1904 -0.1333008,0.3174 -0.00847,0.1227 -0.012698,0.3872 -0.012695,0.7934 l 0,5.8399 -2.4882813,0 0,-8.4234 2.5327149,0"
         style=""
         id="path3705" />
      <path
         d="m 23.143068,1034.5605 0,2.063 c -6e-6,0.7575 -0.03809,1.314 -0.114257,1.6695 -0.07618,0.3512 -0.239101,0.6813 -0.48877,0.9902 -0.24968,0.3047 -0.571294,0.5311 -0.964844,0.6792 -0.389327,0.1439 -0.837894,0.2158 -1.345703,0.2158 -0.56706,0 -1.047365,-0.061 -1.440918,-0.1841 -0.393556,-0.1269 -0.700359,-0.3152 -0.92041,-0.5649 -0.215821,-0.2539 -0.370281,-0.5586 -0.463379,-0.9141 -0.0931,-0.3597 -0.139649,-0.8971 -0.139648,-1.6123 l 0,-2.1582 c -1e-6,-0.7828 0.08463,-1.3943 0.253906,-1.8344 0.16927,-0.4401 0.473957,-0.7935 0.914062,-1.0601 0.440103,-0.2666 1.002928,-0.3999 1.688477,-0.3999 0.575517,0 1.068518,0.087 1.479004,0.2602 0.414708,0.1693 0.734207,0.3915 0.958496,0.6666 0.224278,0.275 0.376621,0.5586 0.457031,0.8505 0.08463,0.292 0.126947,0.7364 0.126953,1.333 m -2.564453,-0.6347 c -4e-6,-0.4317 -0.02328,-0.7025 -0.06982,-0.8125 -0.04655,-0.1143 -0.146,-0.1714 -0.29834,-0.1714 -0.152347,0 -0.253909,0.057 -0.304687,0.1714 -0.05079,0.11 -0.07618,0.3808 -0.07617,0.8125 l 0,3.8022 c -3e-6,0.3978 0.02539,0.6581 0.07617,0.7808 0.05078,0.1185 0.150224,0.1777 0.298339,0.1777 0.152341,0 0.251787,-0.055 0.29834,-0.165 0.05078,-0.11 0.07617,-0.347 0.07617,-0.711 l 0,-3.8847"
         style=""
         id="path3707" />
      <path
         d="m 26.602541,1031.6025 -0.04443,0.7745 c 0.186195,-0.309 0.412595,-0.5396 0.6792,-0.6919 0.270829,-0.1566 0.581864,-0.2349 0.933105,-0.2349 0.440099,0 0.799799,0.1037 1.079102,0.311 0.279291,0.2074 0.459141,0.4698 0.53955,0.7871 0.0804,0.3132 0.1206,0.8379 0.120606,1.5743 l 0,5.9033 -2.564453,0 0,-5.8335 c -4e-6,-0.5798 -0.01905,-0.9331 -0.05713,-1.0601 -0.03809,-0.1269 -0.143884,-0.1904 -0.317383,-0.1904 -0.181969,0 -0.296227,0.074 -0.342773,0.2222 -0.04655,0.1438 -0.06983,0.5332 -0.06983,1.1679 l 0,5.6939 -2.564453,0 0,-8.4234 2.608887,0"
         style=""
         id="path3709" />
      <path
         d="m 33.502443,1030.479 0,1.3267 0.691895,0 0,1.333 -0.691895,0 0,4.5068 c -3e-6,0.5544 0.0275,0.8633 0.08252,0.9268 0.05924,0.063 0.298336,0.095 0.717285,0.095 l 0,1.3584 -1.034668,0 c -0.583987,0 -1.000816,-0.023 -1.250488,-0.07 -0.249676,-0.051 -0.469728,-0.163 -0.660156,-0.3365 -0.190431,-0.1777 -0.30892,-0.3787 -0.355469,-0.603 -0.04655,-0.2285 -0.06983,-0.7617 -0.06982,-1.5996 l 0,-4.2783 -0.552247,0 0,-1.333 0.552247,0 0,-1.3267 2.5708,0"
         style=""
         id="path3711" />
      <path
         d="m 37.323732,1029.749 0,2.3106 c 0.220049,-0.2031 0.457028,-0.3555 0.710938,-0.4571 0.258134,-0.1015 0.533199,-0.1523 0.825195,-0.1523 0.448563,0 0.829422,0.1143 1.142578,0.3428 0.317377,0.2285 0.509922,0.493 0.577637,0.7934 0.07193,0.2963 0.107904,0.84 0.10791,1.6314 l 0,5.8081 -2.564453,0 0,-5.9287 c -4e-6,-0.4909 -0.02539,-0.8062 -0.07617,-0.9458 -0.04655,-0.1397 -0.154463,-0.2095 -0.32373,-0.2095 -0.156579,0 -0.262373,0.072 -0.317383,0.2158 -0.05502,0.1439 -0.08252,0.4295 -0.08252,0.8569 l 0,6.0113 -2.564453,0 0,-10.2769 2.564453,0"
         style=""
         id="path3713" />
    </g>
    <path
       sodipodi:nodetypes="cccc"
       id="path3850"
       d="m 43,1030.1122 c -0.510632,5.334 -1.353638,10.5018 -3.75,14.8929 -5.083333,2.4296 -10.166667,3.0023 -15.25,4.1071 7.462518,-4.6909 14.146515,-10.5142 19,-19 z"
       style="fill:url(#linearGradient3935);fill-opacity:1;stroke:none" />
    <path
       style="fill:#640000;fill-opacity:1;stroke:none"
       d="m 13.5,1006.2818 1,0 c 0.831,0 1.5,0.669 1.5,1.5 l 0,6 c 0,0.831 -0.669,1.5 -1.5,1.5 l -1,0 c -0.831,0 -1.5,-0.669 -1.5,-1.5 l 0,-6 c 0,-0.831 0.669,-1.5 1.5,-1.5 z"
       id="rect3886" />
    <path
       style="fill:url(#radialGradient3931);fill-opacity:1;stroke:none"
       d="m 13.5,1005.6122 1,0 c 0.831,0 1.5,0.669 1.5,1.5 l 0,6 c 0,0.831 -0.669,1.5 -1.5,1.5 l -1,0 c -0.831,0 -1.5,-0.669 -1.5,-1.5 l 0,-6 c 0,-0.831 0.669,-1.5 1.5,-1.5 z"
       id="rect3664" />
    <path
       style="fill:#640000;fill-opacity:1;stroke:none"
       d="m 33.5,1006.2818 1,0 c 0.831,0 1.5,0.669 1.5,1.5 l 0,6 c 0,0.831 -0.669,1.5 -1.5,1.5 l -1,0 c -0.831,0 -1.5,-0.669 -1.5,-1.5 l 0,-6 c 0,-0.831 0.669,-1.5 1.5,-1.5 z"
       id="rect3890" />
    <path
       style="fill:url(#radialGradient3927);fill-opacity:1;stroke:none"
       d="m 33.5,1005.6122 1,0 c 0.831,0 1.5,0.669 1.5,1.5 l 0,6 c 0,0.831 -0.669,1.5 -1.5,1.5 l -1,0 c -0.831,0 -1.5,-0.669 -1.5,-1.5 l 0,-6 c 0,-0.831 0.669,-1.5 1.5,-1.5 z"
       id="rect3817" />
    <g
       style="font-size:5px;font-style:normal;font-variant:normal;font-weight:bold;font-stretch:normal;fill:#f0f0f0;fill-opacity:1;stroke:#700000;stroke-width:0.2;stroke-miterlimit:4;stroke-opacity:1;font-family:Calibri;-inkscape-font-specification:'A.C.M.E. Secret Agent Bold'"
       id="text2919">
      <path
         d="m 20.253654,1019.0005 0,1.1109 c -1e-6,0.016 -0.0057,0.031 -0.01709,0.044 -0.0098,0.013 -0.02686,0.024 -0.05127,0.032 -0.02442,0.01 -0.05778,0.015 -0.100098,0.019 -0.04069,0 -0.09196,0.01 -0.153808,0.01 -0.06348,0 -0.115561,-0 -0.15625,-0.01 -0.04069,-0 -0.07406,-0.011 -0.100098,-0.019 -0.02442,-0.01 -0.04151,-0.019 -0.05127,-0.032 -0.0098,-0.013 -0.01465,-0.028 -0.01465,-0.044 l 0,-1.1109 -0.864258,-1.7211 c -0.03092,-0.06 -0.05127,-0.1066 -0.06104,-0.1392 -0.0081,-0.034 -0.0033,-0.059 0.01465,-0.076 0.01953,-0.018 0.05452,-0.029 0.10498,-0.032 0.05046,-0 0.120443,-0.01 0.209961,-0.01 0.07487,0 0.134277,0 0.178223,0 0.04557,0 0.08138,0.01 0.107422,0.02 0.02604,0.01 0.04476,0.019 0.05615,0.034 0.01302,0.015 0.02523,0.033 0.03662,0.056 l 0.351563,0.7764 c 0.03418,0.075 0.06754,0.1538 0.100097,0.2368 0.03418,0.083 0.06836,0.1701 0.102539,0.2612 l 0.0049,0 c 0.03092,-0.088 0.06266,-0.1733 0.09521,-0.2563 0.03255,-0.083 0.06429,-0.162 0.09521,-0.2369 l 0.346679,-0.7714 c 0.0081,-0.026 0.0179,-0.046 0.0293,-0.061 0.01302,-0.016 0.03174,-0.029 0.05615,-0.039 0.02441,-0.01 0.05778,-0.016 0.100097,-0.02 0.04232,-0 0.09847,-0 0.168457,-0 0.09277,0 0.164386,0 0.214844,0.01 0.05208,0 0.08707,0.014 0.104981,0.032 0.01953,0.016 0.02441,0.042 0.01465,0.076 -0.0098,0.034 -0.0293,0.081 -0.05859,0.1392 l -0.864258,1.7211"
         style=""
         id="path3696" />
      <path
         d="m 23.447014,1019.9478 c -2e-6,0.047 -0.0024,0.087 -0.0073,0.1196 -0.0033,0.031 -0.009,0.056 -0.01709,0.076 -0.0081,0.02 -0.01872,0.034 -0.03174,0.044 -0.0114,0.01 -0.02442,0.012 -0.03906,0.012 l -1.586914,0 c -0.05371,0 -0.09928,-0.015 -0.136719,-0.046 -0.03581,-0.033 -0.05371,-0.085 -0.05371,-0.1563 l 0,-2.7539 c 0,-0.072 0.0179,-0.1228 0.05371,-0.1538 0.03743,-0.032 0.08301,-0.049 0.136719,-0.049 l 1.577148,0 c 0.01465,0 0.02767,0 0.03906,0.012 0.01139,0.01 0.02116,0.023 0.0293,0.044 0.0081,0.019 0.01383,0.045 0.01709,0.078 0.0049,0.031 0.0073,0.071 0.0073,0.1196 -2e-6,0.046 -0.0024,0.085 -0.0073,0.1172 -0.0033,0.031 -0.009,0.056 -0.01709,0.076 -0.0081,0.019 -0.01791,0.034 -0.0293,0.044 -0.0114,0.01 -0.02442,0.012 -0.03906,0.012 l -1.127929,0 0,0.7715 0.95459,0 c 0.01465,0 0.02767,0 0.03906,0.015 0.01302,0.01 0.0236,0.022 0.03174,0.042 0.0081,0.018 0.01383,0.043 0.01709,0.076 0.0049,0.031 0.0073,0.069 0.0073,0.1147 -2e-6,0.047 -0.0024,0.086 -0.0073,0.1172 -0.0033,0.031 -0.009,0.056 -0.01709,0.076 -0.0081,0.018 -0.01872,0.031 -0.03174,0.039 -0.0114,0.01 -0.02442,0.012 -0.03906,0.012 l -0.95459,0 0,0.8912 1.137695,0 c 0.01465,0 0.02767,0 0.03906,0.015 0.01302,0.01 0.0236,0.022 0.03174,0.042 0.0081,0.019 0.01383,0.046 0.01709,0.078 0.0049,0.031 0.0073,0.07 0.0073,0.1172"
         style=""
         id="path3698" />
      <path
         d="m 26.545158,1019.96 c 0.01953,0.059 0.03174,0.105 0.03662,0.1392 0.0049,0.034 -0.0016,0.06 -0.01953,0.078 -0.01791,0.016 -0.04965,0.026 -0.09521,0.029 -0.04557,0 -0.108238,0.01 -0.187988,0.01 -0.08301,0 -0.148114,-0 -0.195312,-0 -0.04558,-0 -0.08057,-0.01 -0.104981,-0.012 -0.02442,-0.01 -0.04151,-0.019 -0.05127,-0.032 -0.0098,-0.013 -0.01791,-0.03 -0.02441,-0.051 l -0.212403,-0.6347 -1.186523,0 -0.200196,0.6176 c -0.0065,0.023 -0.01546,0.042 -0.02686,0.059 -0.0098,0.015 -0.02686,0.027 -0.05127,0.037 -0.02279,0.01 -0.05615,0.014 -0.100097,0.017 -0.04232,0 -0.09847,0 -0.168457,0 -0.07487,0 -0.133464,-0 -0.175781,-0.01 -0.04232,-0 -0.07161,-0.016 -0.08789,-0.034 -0.01628,-0.019 -0.02197,-0.046 -0.01709,-0.081 0.0049,-0.034 0.01709,-0.08 0.03662,-0.1368 l 0.974121,-2.8027 c 0.0098,-0.028 0.02116,-0.05 0.03418,-0.066 0.01302,-0.018 0.03336,-0.031 0.06104,-0.039 0.0293,-0.01 0.06917,-0.015 0.119629,-0.017 0.05045,-0 0.117186,-0 0.200195,-0 0.09603,0 0.172525,0 0.229492,0 0.05696,0 0.10091,0.01 0.131836,0.017 0.03255,0.01 0.05534,0.021 0.06836,0.039 0.01465,0.018 0.02685,0.042 0.03662,0.073 l 0.976562,2.8003 m -1.450195,-2.3169 -0.0024,0 -0.446778,1.3428 0.895996,0 -0.446777,-1.3428"
         style=""
         id="path3700" />
      <path
         d="m 29.328362,1020.1163 c -3e-6,0.018 -0.0033,0.033 -0.0098,0.046 -0.0065,0.011 -0.02198,0.021 -0.04639,0.029 -0.02442,0.01 -0.06022,0.014 -0.107422,0.017 -0.0472,0 -0.111493,0 -0.192871,0 -0.06836,0 -0.122886,-0 -0.163574,-0 -0.04069,-0 -0.07324,-0.01 -0.09766,-0.017 -0.02279,-0.01 -0.03907,-0.021 -0.04883,-0.034 -0.0098,-0.015 -0.01791,-0.032 -0.02441,-0.051 l -0.283204,-0.7056 c -0.03418,-0.08 -0.06755,-0.1505 -0.100097,-0.2124 -0.03255,-0.062 -0.06917,-0.1131 -0.109864,-0.1538 -0.03906,-0.042 -0.08464,-0.074 -0.136718,-0.095 -0.05208,-0.021 -0.112306,-0.032 -0.180664,-0.032 l -0.200196,0 0,1.2036 c -1e-6,0.016 -0.0057,0.031 -0.01709,0.044 -0.0098,0.013 -0.02686,0.024 -0.05127,0.032 -0.02442,0.01 -0.05697,0.015 -0.09766,0.019 -0.04069,0 -0.09277,0.01 -0.15625,0.01 -0.06185,0 -0.113933,-0 -0.15625,-0.01 -0.04069,-0 -0.07324,-0.011 -0.09766,-0.019 -0.02441,-0.01 -0.0415,-0.019 -0.05127,-0.032 -0.0098,-0.013 -0.01465,-0.028 -0.01465,-0.044 l 0,-2.8687 c -10e-7,-0.072 0.0179,-0.1228 0.05371,-0.1538 0.03743,-0.032 0.08301,-0.049 0.136719,-0.049 l 0.817871,0 c 0.08301,0 0.151366,0 0.205078,0 0.05371,0 0.102538,0.01 0.146485,0.012 0.126951,0.018 0.240883,0.049 0.341797,0.093 0.102537,0.044 0.1888,0.1017 0.258789,0.1733 0.07161,0.07 0.126137,0.1538 0.163574,0.2515 0.03743,0.096 0.05615,0.2067 0.05615,0.332 -2e-6,0.1058 -0.01384,0.2026 -0.0415,0.2905 -0.02604,0.086 -0.06511,0.1636 -0.117187,0.232 -0.05209,0.068 -0.116376,0.1277 -0.192871,0.1782 -0.0765,0.05 -0.163576,0.091 -0.261231,0.1221 0.0472,0.023 0.09114,0.05 0.131836,0.083 0.04232,0.033 0.08138,0.072 0.117188,0.1196 0.03743,0.046 0.07243,0.099 0.10498,0.1587 0.03255,0.059 0.06429,0.1253 0.09521,0.2002 l 0.266113,0.6225 c 0.02441,0.062 0.04069,0.1075 0.04883,0.1368 0.0081,0.028 0.0122,0.05 0.01221,0.066 m -0.827637,-2.1436 c -2e-6,-0.1041 -0.0236,-0.192 -0.0708,-0.2637 -0.0472,-0.072 -0.124513,-0.122 -0.231934,-0.1513 -0.03255,-0.01 -0.06999,-0.015 -0.112304,-0.02 -0.04069,-0 -0.09766,-0.01 -0.170899,-0.01 l -0.288086,0 0,0.896 0.327149,0 c 0.09114,0 0.170897,-0.011 0.239258,-0.032 0.06836,-0.023 0.125323,-0.054 0.170898,-0.093 0.04557,-0.041 0.07975,-0.089 0.102539,-0.144 0.02278,-0.055 0.03418,-0.1172 0.03418,-0.1856"
         style=""
         id="path3702" />
    </g>
  </g>
</svg>
