<?xml version="1.0" encoding="UTF-8" standalone="no"?>
<!-- Created with Inkscape (http://www.inkscape.org/) -->

<svg
   xmlns:dc="http://purl.org/dc/elements/1.1/"
   xmlns:cc="http://creativecommons.org/ns#"
   xmlns:rdf="http://www.w3.org/1999/02/22-rdf-syntax-ns#"
   xmlns:svg="http://www.w3.org/2000/svg"
   xmlns="http://www.w3.org/2000/svg"
   xmlns:xlink="http://www.w3.org/1999/xlink"
   xmlns:sodipodi="http://sodipodi.sourceforge.net/DTD/sodipodi-0.dtd"
   xmlns:inkscape="http://www.inkscape.org/namespaces/inkscape"
   width="48"
   height="48"
   id="svg2"
   version="1.1"
   inkscape:version="0.47pre4 r22446"
   sodipodi:docname="vmware.svg"
   inkscape:export-filename="/home/andrea/Documenti/MeliaeSVG/48/devices/png/computer.png"
   inkscape:export-xdpi="240"
   inkscape:export-ydpi="240">
  <defs
     id="defs4">
    <linearGradient
       id="linearGradient3705">
      <stop
         style="stop-color:#ffffff;stop-opacity:1;"
         offset="0"
         id="stop3708" />
      <stop
         style="stop-color:#c8c8c8;stop-opacity:1;"
         offset="1"
         id="stop3710" />
    </linearGradient>
    <linearGradient
       id="linearGradient3711">
      <stop
         style="stop-color:#333333;stop-opacity:0.58823532;"
         offset="0"
         id="stop3713" />
      <stop
         style="stop-color:#333333;stop-opacity:0;"
         offset="1"
         id="stop3715" />
    </linearGradient>
    <linearGradient
       id="linearGradient3695">
      <stop
         style="stop-color:#f0f0f0;stop-opacity:0;"
         offset="0"
         id="stop3697" />
      <stop
         id="stop3705"
         offset="0.34188393"
         style="stop-color:#f0f0f0;stop-opacity:1;" />
      <stop
         id="stop3703"
         offset="0.67178303"
         style="stop-color:#f0f0f0;stop-opacity:1;" />
      <stop
         style="stop-color:#f0f0f0;stop-opacity:0;"
         offset="1"
         id="stop3699" />
    </linearGradient>
    <linearGradient
       id="linearGradient3661">
      <stop
         style="stop-color:#787878;stop-opacity:1;"
         offset="0"
         id="stop3663" />
      <stop
         id="stop3671"
         offset="0.17399774"
         style="stop-color:#a0a0a0;stop-opacity:1;" />
      <stop
         style="stop-color:#c8c8c8;stop-opacity:1;"
         offset="0.29868144"
         id="stop3675" />
      <stop
         id="stop3669"
         offset="0.52323002"
         style="stop-color:#e6e6e6;stop-opacity:1;" />
      <stop
         style="stop-color:#c8c8c8;stop-opacity:1;"
         offset="0.58562994"
         id="stop3691" />
      <stop
         style="stop-color:#787878;stop-opacity:1;"
         offset="0.69511706"
         id="stop3673" />
      <stop
         id="stop3707"
         offset="0.85992652"
         style="stop-color:#787878;stop-opacity:1;" />
      <stop
         style="stop-color:#646464;stop-opacity:1;"
         offset="1"
         id="stop3665" />
    </linearGradient>
    <linearGradient
       id="linearGradient3600">
      <stop
         style="stop-color:#ffffff;stop-opacity:0.39215687;"
         offset="0"
         id="stop3602" />
      <stop
         style="stop-color:#ffffff;stop-opacity:0;"
         offset="1"
         id="stop3604" />
    </linearGradient>
    <linearGradient
       id="linearGradient3676">
      <stop
         style="stop-color:#113f4c;stop-opacity:1;"
         offset="0"
         id="stop3678" />
      <stop
         style="stop-color:#5785a6;stop-opacity:1;"
         offset="1"
         id="stop3680" />
    </linearGradient>
    <linearGradient
       id="linearGradient3668">
      <stop
         style="stop-color:#828282;stop-opacity:1;"
         offset="0"
         id="stop3670" />
      <stop
         style="stop-color:#c8c8c8;stop-opacity:1;"
         offset="1"
         id="stop3672" />
    </linearGradient>
    <inkscape:perspective
       sodipodi:type="inkscape:persp3d"
       inkscape:vp_x="0 : 526.18109 : 1"
       inkscape:vp_y="0 : 1000 : 0"
       inkscape:vp_z="744.09448 : 526.18109 : 1"
       inkscape:persp3d-origin="372.04724 : 350.78739 : 1"
       id="perspective10" />
    <inkscape:perspective
       id="perspective2881"
       inkscape:persp3d-origin="0.5 : 0.33333333 : 1"
       inkscape:vp_z="1 : 0.5 : 1"
       inkscape:vp_y="0 : 1000 : 0"
       inkscape:vp_x="0 : 0.5 : 1"
       sodipodi:type="inkscape:persp3d" />
    <linearGradient
       inkscape:collect="always"
       xlink:href="#linearGradient3668"
       id="linearGradient3734"
       gradientUnits="userSpaceOnUse"
       x1="10.606602"
       y1="1048.6774"
       x2="53.159523"
       y2="1073.3229" />
    <linearGradient
       inkscape:collect="always"
       xlink:href="#linearGradient3600"
       id="linearGradient3736"
       gradientUnits="userSpaceOnUse"
       x1="55.192322"
       y1="1023.1374"
       x2="27.566288"
       y2="1070.9871" />
    <linearGradient
       inkscape:collect="always"
       xlink:href="#linearGradient3676"
       id="linearGradient3738"
       gradientUnits="userSpaceOnUse"
       gradientTransform="matrix(0.98311298,0,0,0.98311298,1.1944185,49.183653)"
       x1="39.016552"
       y1="1033.1963"
       x2="9.1951256"
       y2="1016.9733" />
    <linearGradient
       inkscape:collect="always"
       xlink:href="#linearGradient3695"
       id="linearGradient3743"
       gradientUnits="userSpaceOnUse"
       gradientTransform="matrix(1,0,0,0.81143819,-3.7835692e-8,1011.5591)"
       x1="16.071428"
       y1="41.57143"
       x2="31.875"
       y2="41.57143" />
    <linearGradient
       inkscape:collect="always"
       xlink:href="#linearGradient3661"
       id="linearGradient3752"
       gradientUnits="userSpaceOnUse"
       x1="24"
       y1="36.65625"
       x2="24"
       y2="43.589287"
       gradientTransform="translate(-3.7835692e-8,1003.5048)" />
    <radialGradient
       inkscape:collect="always"
       xlink:href="#linearGradient3711"
       id="radialGradient3755"
       gradientUnits="userSpaceOnUse"
       gradientTransform="matrix(1,0,0,0.05882353,0,39.462183)"
       cx="26.964285"
       cy="41.92857"
       fx="26.964285"
       fy="41.92857"
       r="18.214285" />
    <inkscape:perspective
       id="perspective3925"
       inkscape:persp3d-origin="200.87007 : 162.74409 : 1"
       inkscape:vp_z="401.74014 : 244.11613 : 1"
       inkscape:vp_y="0 : 1000 : 0"
       inkscape:vp_x="0 : 244.11613 : 1"
       sodipodi:type="inkscape:persp3d" />
    <linearGradient
       inkscape:collect="always"
       xlink:href="#linearGradient3676"
       id="linearGradient3653"
       gradientUnits="userSpaceOnUse"
       gradientTransform="matrix(0.98311298,0,0,0.98311298,-0.1226529,16.32623)"
       x1="24.53701"
       y1="1038.0177"
       x2="24.53701"
       y2="1012.7147" />
    <linearGradient
       inkscape:collect="always"
       xlink:href="#linearGradient3600"
       id="linearGradient3657"
       gradientUnits="userSpaceOnUse"
       x1="55.192322"
       y1="1023.1374"
       x2="27.566288"
       y2="1070.9871"
       gradientTransform="translate(-1.3170714,-32.857423)" />
    <linearGradient
       inkscape:collect="always"
       xlink:href="#linearGradient3668"
       id="linearGradient3662"
       gradientUnits="userSpaceOnUse"
       x1="25.317072"
       y1="1033.4746"
       x2="25.317072"
       y2="1073.3229"
       gradientTransform="translate(-1.3170714,-32.857423)" />
    <linearGradient
       inkscape:collect="always"
       xlink:href="#linearGradient3705"
       id="linearGradient3712"
       x1="24"
       y1="1014.027"
       x2="24"
       y2="1034.7271"
       gradientUnits="userSpaceOnUse" />
    <linearGradient
       inkscape:collect="always"
       xlink:href="#linearGradient3705"
       id="linearGradient3727"
       gradientUnits="userSpaceOnUse"
       x1="24"
       y1="1014.027"
       x2="24"
       y2="1034.7271" />
    <linearGradient
       inkscape:collect="always"
       xlink:href="#linearGradient3668"
       id="linearGradient3754"
       gradientUnits="userSpaceOnUse"
       gradientTransform="translate(-1.3170714,-32.857423)"
       x1="25.317072"
       y1="1033.4746"
       x2="25.317072"
       y2="1073.3229" />
    <linearGradient
       inkscape:collect="always"
       xlink:href="#linearGradient3600"
       id="linearGradient3756"
       gradientUnits="userSpaceOnUse"
       gradientTransform="translate(-1.3170714,-32.857423)"
       x1="55.192322"
       y1="1023.1374"
       x2="27.566288"
       y2="1070.9871" />
    <linearGradient
       inkscape:collect="always"
       xlink:href="#linearGradient3676"
       id="linearGradient3758"
       gradientUnits="userSpaceOnUse"
       gradientTransform="matrix(0.98311298,0,0,0.98311298,-0.1226529,16.32623)"
       x1="24.53701"
       y1="1038.0177"
       x2="24.53701"
       y2="1012.7147" />
    <linearGradient
       inkscape:collect="always"
       xlink:href="#linearGradient3676"
       id="linearGradient3767"
       gradientUnits="userSpaceOnUse"
       gradientTransform="matrix(1.0274533,0,0,1.0274533,-1.2106328,-25.976095)"
       x1="24.53701"
       y1="1038.0177"
       x2="24.53701"
       y2="1012.7147" />
    <linearGradient
       inkscape:collect="always"
       xlink:href="#linearGradient3600"
       id="linearGradient3771"
       gradientUnits="userSpaceOnUse"
       gradientTransform="matrix(1.045102,0,0,1.045102,-2.458922,-77.378029)"
       x1="55.192322"
       y1="1023.1374"
       x2="27.566288"
       y2="1070.9871" />
    <linearGradient
       inkscape:collect="always"
       xlink:href="#linearGradient3668"
       id="linearGradient3775"
       gradientUnits="userSpaceOnUse"
       gradientTransform="matrix(1.045102,0,0,1.045102,-2.458922,-77.378029)"
       x1="25.317072"
       y1="1033.4746"
       x2="25.317072"
       y2="1073.3229" />
  </defs>
  <sodipodi:namedview
     id="base"
     pagecolor="#ffffff"
     bordercolor="#666666"
     borderopacity="1.0"
     inkscape:pageopacity="0.0"
     inkscape:pageshadow="2"
     inkscape:zoom="8"
     inkscape:cx="23.498168"
     inkscape:cy="19.321504"
     inkscape:document-units="px"
     inkscape:current-layer="layer1"
     showgrid="false"
     showguides="true"
     inkscape:guide-bbox="true"
     inkscape:window-width="1280"
     inkscape:window-height="712"
     inkscape:window-x="0"
     inkscape:window-y="25"
     inkscape:window-maximized="1" />
  <metadata
     id="metadata7">
    <rdf:RDF>
      <cc:Work
         rdf:about="">
        <dc:format>image/svg+xml</dc:format>
        <dc:type
           rdf:resource="http://purl.org/dc/dcmitype/StillImage" />
        <dc:title></dc:title>
      </cc:Work>
    </rdf:RDF>
  </metadata>
  <g
     inkscape:label="Livello 1"
     inkscape:groupmode="layer"
     id="layer1"
     transform="translate(0,-1004.3622)">
    <rect
       style="fill:url(#linearGradient3775);fill-opacity:1;stroke:none"
       id="rect3608"
       width="45"
       height="31.983257"
       x="1.4999998"
       y="1012.3705"
       rx="1.045102"
       ry="1.045102" />
    <rect
       style="fill:#333333;fill-opacity:1;stroke:none"
       id="rect3610"
       width="43.234825"
       height="28.745529"
       x="2.3825879"
       y="1013.1671"
       rx="1.045102"
       ry="1.045102" />
    <path
       style="fill:url(#linearGradient3771);fill-opacity:1;stroke:none"
       d="m 36.418705,1013.1672 8.153605,0 c 0.578987,0 1.045102,0.4661 1.045102,1.0451 l 0,26.6554 c 0,0.5789 -0.466115,1.0451 -1.045102,1.0451 l -23.725364,0 15.571759,-28.7456 z"
       id="rect3620"
       sodipodi:nodetypes="ccccccc" />
    <rect
       y="1013.9589"
       x="3.313695"
       height="27.161953"
       width="41.372612"
       id="rect3637"
       style="fill:#000000;fill-opacity:1;stroke:none" />
    <rect
       style="fill:url(#linearGradient3767);fill-opacity:1;stroke:none"
       id="rect3633"
       width="40.395584"
       height="25.997593"
       x="3.802207"
       y="1014.541" />
    <g
       style="font-size:2.090204px;font-style:normal;font-variant:normal;font-weight:bold;font-stretch:normal;fill:#dcdcdc;fill-opacity:1;stroke:none;font-family:Calibri;-inkscape-font-specification:'A.C.M.E. Secret Agent Bold'"
       id="text3737">
      <path
         d="m 21.189248,1042.6915 c -10e-7,0.01 -0.001,0.017 -0.0031,0.028 -0.002,0.011 -0.0058,0.026 -0.01123,0.047 l -0.242905,0.8236 c -0.0034,0.012 -0.0078,0.021 -0.01327,0.029 -0.0054,0.01 -0.01395,0.012 -0.02551,0.016 -0.01089,0 -0.02688,0.01 -0.04797,0.01 -0.02041,0 -0.04729,0 -0.08063,0 -0.03334,0 -0.06056,-10e-4 -0.08165,-0 -0.02109,-0 -0.03776,-0 -0.05001,-0.01 -0.01157,-0 -0.02007,-0.01 -0.02551,-0.016 -0.0054,-0.01 -0.0095,-0.017 -0.01225,-0.027 l -0.153092,-0.5532 -0.002,-0.01 -0.002,0.01 -0.140844,0.5532 c -0.0027,0.012 -0.0068,0.021 -0.01225,0.029 -0.0048,0.01 -0.01327,0.012 -0.02552,0.016 -0.01225,0 -0.02892,0.01 -0.05001,0.01 -0.02109,0 -0.04831,0 -0.08165,0 -0.03402,0 -0.06158,-10e-4 -0.08267,-0 -0.02041,-0 -0.03674,-0 -0.04899,-0.01 -0.01157,-0 -0.02007,-0.01 -0.02552,-0.016 -0.0054,-0.01 -0.0095,-0.017 -0.01225,-0.027 l -0.240864,-0.8236 c -0.0061,-0.02 -0.01021,-0.035 -0.01225,-0.046 -0.0014,-0.012 -0.002,-0.021 -0.002,-0.029 0,-0.01 0.0017,-0.012 0.0051,-0.017 0.0041,-0.01 0.01089,-0.01 0.02041,-0.012 0.01021,-0 0.02347,-0.01 0.0398,-0.01 0.01701,-0 0.0381,-0 0.06328,-0 0.02722,0 0.04933,6e-4 0.06634,0 0.01701,0 0.03028,0 0.0398,0.01 0.0095,0 0.01599,0.01 0.01939,0.014 0.0041,0.01 0.0071,0.012 0.0092,0.02 l 0.180648,0.6684 0.002,0.012 0.002,-0.012 0.169421,-0.6684 c 0.002,-0.01 0.0051,-0.015 0.0092,-0.02 0.0048,-0.01 0.01157,-0.011 0.02041,-0.014 0.0088,-0 0.02109,-0.01 0.03674,-0.01 0.01633,-0 0.03708,-0 0.06226,-0 0.02517,0 0.04559,10e-4 0.06124,0 0.01565,0 0.0279,0 0.03674,0.01 0.0095,0 0.01599,0.01 0.01939,0.012 0.0041,0 0.0071,0.011 0.0092,0.017 l 0.181668,0.6736 0.0031,0.011 0.002,-0.012 0.173503,-0.6684 c 0.0014,-0.01 0.0041,-0.015 0.0082,-0.02 0.0041,-0.01 0.01089,-0.011 0.02041,-0.014 0.0095,-0 0.02245,-0.01 0.03878,-0.01 0.01633,-0 0.03708,-0 0.06226,-0 0.02517,0 0.04558,6e-4 0.06124,0 0.01633,0 0.02892,0 0.03776,0.01 0.0095,0 0.01599,0.01 0.01939,0.012 0.0034,0 0.0051,0.011 0.0051,0.017"
         style=""
         id="path3812" />
      <path
         d="m 22.803849,1043.604 c -2e-6,0.01 -0.002,0.013 -0.0061,0.018 -0.0041,0 -0.01089,0.01 -0.02041,0.012 -0.0095,0 -0.02246,0.01 -0.03878,0.01 -0.01633,0 -0.03708,0 -0.06226,0 -0.02586,0 -0.04695,-10e-4 -0.06328,-0 -0.01633,-0 -0.0296,-0 -0.0398,-0.01 -0.0095,-0 -0.01633,-0.01 -0.02041,-0.012 -0.0034,-0.01 -0.0051,-0.012 -0.0051,-0.018 l 0,-0.5399 c -2e-6,-0.031 -0.0031,-0.059 -0.0092,-0.084 -0.0054,-0.025 -0.01429,-0.047 -0.02654,-0.064 -0.01157,-0.018 -0.02654,-0.032 -0.04491,-0.042 -0.01769,-0.01 -0.03912,-0.015 -0.0643,-0.015 -0.03062,0 -0.06158,0.012 -0.09287,0.036 -0.0313,0.024 -0.06532,0.059 -0.102061,0.1042 l 0,0.6052 c -10e-7,0.01 -0.002,0.013 -0.0061,0.018 -0.0041,0 -0.01123,0.01 -0.02143,0.012 -0.0095,0 -0.02245,0.01 -0.03878,0.01 -0.01633,0 -0.03674,0 -0.06124,0 -0.02518,0 -0.04593,-10e-4 -0.06226,-0 -0.01633,-0 -0.0296,-0 -0.0398,-0.01 -0.0095,-0 -0.01633,-0.01 -0.02041,-0.012 -0.0041,-0.01 -0.0061,-0.012 -0.0061,-0.018 l 0,-0.5399 c -1e-6,-0.031 -0.0031,-0.059 -0.0092,-0.084 -0.0054,-0.025 -0.01395,-0.047 -0.02551,-0.064 -0.01157,-0.018 -0.02654,-0.032 -0.04491,-0.042 -0.01837,-0.01 -0.0398,-0.015 -0.0643,-0.015 -0.0313,0 -0.0626,0.012 -0.0939,0.036 -0.0313,0.024 -0.06498,0.059 -0.10104,0.1042 l 0,0.6052 c 0,0.01 -0.002,0.013 -0.0061,0.018 -0.0041,0 -0.01123,0.01 -0.02143,0.012 -0.0095,0 -0.02245,0.01 -0.03878,0.01 -0.01633,0 -0.03708,0 -0.06226,0 -0.02518,0 -0.04593,-10e-4 -0.06226,-0 -0.01633,-0 -0.0296,-0 -0.0398,-0.01 -0.0095,-0 -0.01633,-0.01 -0.02041,-0.012 -0.0041,-0.01 -0.0061,-0.012 -0.0061,-0.018 l 0,-0.9104 c 0,-0.01 0.0017,-0.013 0.0051,-0.017 0.0034,-0.01 0.0095,-0.01 0.01837,-0.013 0.0088,-0 0.02007,-0.01 0.03368,-0.01 0.01429,-0 0.03198,-0 0.05307,-0 0.02177,0 0.0398,10e-4 0.05409,0 0.01429,0 0.02518,0 0.03266,0.01 0.0082,0 0.01395,0.01 0.01735,0.013 0.0034,0 0.0051,0.011 0.0051,0.017 l 0,0.1051 c 0.05035,-0.054 0.100359,-0.095 0.150029,-0.1225 0.05035,-0.027 0.102741,-0.041 0.157174,-0.041 0.03742,0 0.0711,0 0.10104,0.012 0.02994,0.01 0.05647,0.019 0.07961,0.034 0.02381,0.014 0.04423,0.032 0.06124,0.052 0.01701,0.02 0.0313,0.043 0.04286,0.068 0.02722,-0.029 0.05375,-0.054 0.07961,-0.076 0.02653,-0.021 0.05239,-0.038 0.07757,-0.051 0.02585,-0.014 0.05137,-0.024 0.07654,-0.03 0.02585,-0.01 0.05205,-0.01 0.07859,-0.01 0.06055,0 0.111585,0.01 0.153091,0.031 0.0415,0.02 0.07484,0.048 0.10002,0.084 0.02585,0.035 0.04422,0.075 0.05511,0.1225 0.01089,0.047 0.01633,0.097 0.01633,0.149 l 0,0.5828"
         style=""
         id="path3814" />
      <path
         d="m 23.974486,1043.1355 c -10e-7,0.081 -0.0088,0.1541 -0.02654,0.2194 -0.01701,0.065 -0.04219,0.1198 -0.07552,0.1654 -0.03334,0.046 -0.07484,0.081 -0.124514,0.1051 -0.04967,0.024 -0.106484,0.037 -0.170442,0.037 -0.02654,0 -0.05103,-0 -0.07348,-0.01 -0.02177,-0 -0.04321,-0.012 -0.0643,-0.023 -0.02041,-0.011 -0.04082,-0.024 -0.06124,-0.04 -0.02041,-0.016 -0.0415,-0.034 -0.06328,-0.055 l 0,0.4287 c 0,0.01 -0.002,0.013 -0.0061,0.018 -0.0041,0.01 -0.01123,0.01 -0.02143,0.013 -0.0095,0 -0.02245,0.01 -0.03878,0.01 -0.01633,0 -0.03708,0 -0.06226,0 -0.02518,0 -0.04593,-0 -0.06226,-0 -0.01633,-0 -0.0296,-0.01 -0.0398,-0.01 -0.0095,-0 -0.01633,-0.01 -0.02041,-0.013 -0.0041,-0.01 -0.0061,-0.012 -0.0061,-0.018 l 0,-1.2717 c 0,-0.01 0.0017,-0.013 0.0051,-0.017 0.0034,-0.01 0.0092,-0.01 0.01735,-0.013 0.0088,-0 0.02007,-0.01 0.03368,-0.01 0.01429,-0 0.03198,-0 0.05307,-0 0.02041,0 0.03742,10e-4 0.05103,0 0.01429,0 0.02551,0 0.03368,0.01 0.0088,0 0.01497,0.01 0.01837,0.013 0.0034,0 0.0051,0.011 0.0051,0.017 l 0,0.1072 c 0.02654,-0.027 0.05239,-0.051 0.07757,-0.072 0.02585,-0.021 0.05205,-0.038 0.07859,-0.052 0.02654,-0.014 0.05375,-0.025 0.08165,-0.032 0.02858,-0.01 0.05886,-0.01 0.09083,-0.01 0.06668,0 0.123493,0.013 0.170442,0.04 0.04695,0.026 0.08505,0.062 0.114308,0.1072 0.02994,0.046 0.05171,0.099 0.06532,0.1592 0.01361,0.061 0.02041,0.1252 0.02041,0.1939 m -0.267399,0.018 c -1e-6,-0.039 -0.0031,-0.076 -0.0092,-0.1113 -0.0054,-0.036 -0.01531,-0.068 -0.0296,-0.096 -0.01361,-0.028 -0.03198,-0.05 -0.05511,-0.066 -0.02245,-0.017 -0.05069,-0.026 -0.08471,-0.026 -0.01701,0 -0.03402,0 -0.05103,0.01 -0.01633,0 -0.03334,0.013 -0.05103,0.024 -0.01701,0.012 -0.0347,0.026 -0.05307,0.045 -0.01837,0.018 -0.03776,0.041 -0.05817,0.068 l 0,0.3001 c 0.03606,0.045 0.07042,0.081 0.103082,0.1061 0.03266,0.024 0.06668,0.037 0.10206,0.037 0.03334,0 0.06158,-0.01 0.08471,-0.025 0.02381,-0.017 0.04321,-0.039 0.05817,-0.066 0.01497,-0.028 0.02585,-0.059 0.03266,-0.094 0.0075,-0.035 0.01123,-0.069 0.01123,-0.1041"
         style=""
         id="path3816" />
      <path
         d="m 24.437842,1043.604 c -1e-6,0.01 -0.002,0.013 -0.0061,0.018 -0.0041,0 -0.01123,0.01 -0.02143,0.012 -0.0095,0 -0.02245,0.01 -0.03878,0.01 -0.01633,0 -0.03708,0 -0.06226,0 -0.02518,0 -0.04593,-10e-4 -0.06226,-0 -0.01633,-0 -0.0296,-0 -0.0398,-0.01 -0.0095,-0 -0.01633,-0.01 -0.02041,-0.012 -0.0041,-0.01 -0.0061,-0.012 -0.0061,-0.018 l 0,-1.3421 c -10e-7,-0.01 0.002,-0.013 0.0061,-0.018 0.0041,-0.01 0.01089,-0.01 0.02041,-0.013 0.01021,-0 0.02347,-0.01 0.0398,-0.01 0.01633,-0 0.03708,-0 0.06226,-0 0.02518,0 0.04593,10e-4 0.06226,0 0.01633,0 0.02926,0.01 0.03878,0.01 0.01021,0 0.01735,0.01 0.02143,0.013 0.0041,0.01 0.0061,0.012 0.0061,0.018 l 0,1.3421"
         style=""
         id="path3818" />
      <path
         d="m 25.470696,1043.607 c -1e-6,0.01 -0.0034,0.017 -0.01021,0.023 -0.0068,0.01 -0.01769,0.01 -0.03266,0.011 -0.01429,0 -0.03572,0 -0.0643,0 -0.03062,0 -0.05307,-0 -0.06736,-0 -0.01361,-0 -0.02348,-0.01 -0.0296,-0.011 -0.0054,-0.01 -0.0082,-0.013 -0.0082,-0.023 l 0,-0.072 c -0.03742,0.04 -0.08029,0.071 -0.128597,0.094 -0.04763,0.022 -0.1007,0.034 -0.159214,0.034 -0.04831,0 -0.09288,-0.01 -0.1337,-0.019 -0.04014,-0.012 -0.07518,-0.031 -0.105122,-0.055 -0.02926,-0.025 -0.05205,-0.056 -0.06838,-0.093 -0.01633,-0.037 -0.02449,-0.08 -0.02449,-0.1286 0,-0.053 0.01021,-0.099 0.03062,-0.1378 0.02109,-0.039 0.05205,-0.072 0.09288,-0.097 0.0415,-0.026 0.09287,-0.045 0.154112,-0.057 0.06124,-0.012 0.132338,-0.018 0.213306,-0.018 l 0.08879,0 0,-0.055 c 0,-0.029 -0.0031,-0.053 -0.0092,-0.074 -0.0054,-0.022 -0.01497,-0.04 -0.02858,-0.054 -0.01293,-0.014 -0.03062,-0.025 -0.05307,-0.032 -0.02177,-0.01 -0.04899,-0.01 -0.08165,-0.01 -0.04287,0 -0.08131,0 -0.115329,0.014 -0.03334,0.01 -0.06294,0.02 -0.08879,0.032 -0.02585,0.012 -0.04763,0.022 -0.06532,0.032 -0.01701,0.01 -0.03096,0.014 -0.04184,0.014 -0.0075,0 -0.01429,-0 -0.02041,-0.01 -0.0054,-0 -0.01021,-0.012 -0.01429,-0.02 -0.0034,-0.01 -0.0061,-0.02 -0.0082,-0.033 -0.002,-0.013 -0.0031,-0.027 -0.0031,-0.043 0,-0.021 0.0017,-0.038 0.0051,-0.05 0.0034,-0.012 0.0099,-0.023 0.01939,-0.033 0.0095,-0.01 0.0262,-0.021 0.05001,-0.033 0.02381,-0.012 0.05171,-0.024 0.08369,-0.034 0.03198,-0.01 0.06668,-0.018 0.104102,-0.024 0.0381,-0.01 0.07723,-0.01 0.11737,-0.01 0.07144,0 0.132338,0.01 0.182689,0.021 0.05103,0.014 0.09287,0.035 0.125534,0.064 0.03266,0.029 0.05647,0.066 0.07144,0.1113 0.01497,0.046 0.02245,0.1 0.02245,0.1623 l 0,0.6123 m -0.25209,-0.3898 -0.09798,0 c -0.04151,0 -0.07689,0 -0.106143,0.01 -0.02926,0.01 -0.05307,0.015 -0.07144,0.028 -0.01837,0.012 -0.03198,0.027 -0.04082,0.045 -0.0082,0.017 -0.01225,0.037 -0.01225,0.059 -10e-7,0.038 0.01191,0.068 0.03572,0.09 0.02449,0.022 0.05817,0.033 0.10104,0.033 0.03606,0 0.06906,-0.01 0.099,-0.028 0.03062,-0.018 0.06158,-0.045 0.09288,-0.081 l 0,-0.1551"
         style=""
         id="path3820" />
      <path
         d="m 26.218802,1043.6387 -0.110226,0.3225 c -0.0061,0.017 -0.02279,0.029 -0.05001,0.037 -0.02722,0.01 -0.06702,0.011 -0.119411,0.011 -0.02722,0 -0.04899,-0 -0.06532,-0 -0.01633,-0 -0.02858,-0.01 -0.03674,-0.011 -0.0082,-0.01 -0.01259,-0.012 -0.01327,-0.02 -6.81e-4,-0.01 0.0014,-0.018 0.0061,-0.03 l 0.121452,-0.3051 c -0.0088,-0 -0.01701,-0.01 -0.02449,-0.018 -0.0068,-0.01 -0.01191,-0.018 -0.01531,-0.028 l -0.313327,-0.8369 c -0.0088,-0.024 -0.01327,-0.042 -0.01327,-0.054 0,-0.013 0.0041,-0.023 0.01225,-0.03 0.0082,-0.01 0.02177,-0.013 0.04082,-0.015 0.01973,-0 0.04559,-0 0.07757,-0 0.02926,0 0.05239,6e-4 0.0694,0 0.01701,7e-4 0.03028,0 0.0398,0.01 0.0095,0 0.01667,0.01 0.02143,0.019 0.0048,0.01 0.0095,0.02 0.01429,0.036 l 0.214328,0.6093 0.0031,0 0.195956,-0.6216 c 0.0041,-0.018 0.0092,-0.029 0.01531,-0.035 0.0068,-0.01 0.01769,-0.011 0.03266,-0.013 0.01497,-0 0.04116,-0 0.07859,-0 0.02926,0 0.05341,0 0.07246,0 0.01973,0 0.03402,0.01 0.04286,0.015 0.0095,0.01 0.01429,0.018 0.01429,0.031 -1e-6,0.012 -0.0027,0.027 -0.0082,0.044 l -0.30312,0.892"
         style=""
         id="path3822" />
      <path
         d="m 27.499664,1043.1222 c -10e-7,0.031 -0.0071,0.054 -0.02143,0.069 -0.01361,0.015 -0.03266,0.022 -0.05715,0.022 l -0.55419,0 c 0,0.039 0.0044,0.074 0.01327,0.1061 0.0095,0.031 0.02415,0.058 0.04389,0.081 0.02041,0.022 0.04627,0.038 0.07757,0.05 0.03198,0.011 0.07008,0.017 0.114308,0.017 0.04491,0 0.08437,-0 0.118391,-0.01 0.03402,-0.01 0.06328,-0.014 0.08777,-0.021 0.02517,-0.01 0.04593,-0.015 0.06226,-0.021 0.01633,-0.01 0.0296,-0.01 0.0398,-0.01 0.0061,0 0.01122,0 0.01531,0 0.0041,0 0.0075,0.01 0.01021,0.012 0.0027,0.01 0.0044,0.015 0.0051,0.026 0.0014,0.011 0.002,0.025 0.002,0.042 -10e-7,0.015 -3.41e-4,0.028 -0.001,0.039 -6.81e-4,0.01 -0.0017,0.019 -0.0031,0.026 -0.0014,0.01 -0.0034,0.014 -0.0061,0.019 -0.0027,0 -0.0065,0.01 -0.01123,0.014 -0.0041,0 -0.01599,0.011 -0.03572,0.019 -0.01973,0.01 -0.04491,0.016 -0.07552,0.024 -0.03062,0.01 -0.06566,0.014 -0.105122,0.019 -0.03947,0.01 -0.08165,0.01 -0.126556,0.01 -0.08097,0 -0.152071,-0.01 -0.213307,-0.031 -0.06056,-0.02 -0.111246,-0.051 -0.15207,-0.093 -0.04082,-0.042 -0.07144,-0.094 -0.09185,-0.1572 -0.01973,-0.063 -0.0296,-0.1375 -0.0296,-0.2225 0,-0.081 0.01055,-0.1538 0.03164,-0.2184 0.02109,-0.065 0.05171,-0.1205 0.09185,-0.1654 0.04014,-0.045 0.08879,-0.08 0.145947,-0.1041 0.05783,-0.024 0.122812,-0.036 0.194936,-0.036 0.07621,0 0.141183,0.011 0.194936,0.034 0.05443,0.022 0.099,0.054 0.133699,0.094 0.0347,0.04 0.06021,0.086 0.07655,0.1408 0.01633,0.054 0.02449,0.1137 0.02449,0.1776 l 0,0.041 m -0.249029,-0.073 c 0.002,-0.072 -0.01259,-0.1286 -0.04389,-0.1695 -0.03062,-0.042 -0.07825,-0.062 -0.142885,-0.062 -0.03266,0 -0.06124,0.01 -0.08573,0.018 -0.02381,0.012 -0.04389,0.029 -0.06022,0.05 -0.01565,0.02 -0.0279,0.045 -0.03674,0.073 -0.0082,0.028 -0.01293,0.058 -0.01429,0.09 l 0.383748,0"
         style=""
         id="path3824" />
      <path
         d="m 28.296758,1042.7783 c -1e-6,0.024 -6.81e-4,0.045 -0.002,0.06 -0.0014,0.016 -0.0034,0.028 -0.0061,0.037 -0.0027,0.01 -0.0065,0.015 -0.01123,0.018 -0.0041,0 -0.0095,0.01 -0.01633,0.01 -0.0054,0 -0.01157,-10e-4 -0.01837,-0 -0.0068,-0 -0.01463,-0.01 -0.02347,-0.01 -0.0082,-0 -0.01735,-0.01 -0.02756,-0.01 -0.01021,-0 -0.02143,-0 -0.03368,-0 -0.01429,0 -0.02858,0 -0.04287,0.01 -0.01429,0.01 -0.02926,0.014 -0.04491,0.026 -0.01497,0.012 -0.03096,0.029 -0.04797,0.049 -0.01633,0.02 -0.03402,0.046 -0.05307,0.075 l 0,0.5675 c 0,0.01 -0.002,0.013 -0.0061,0.018 -0.0041,0 -0.01123,0.01 -0.02143,0.012 -0.0095,0 -0.02245,0.01 -0.03878,0.01 -0.01633,0 -0.03708,0 -0.06226,0 -0.02518,0 -0.04593,-10e-4 -0.06226,-0 -0.01633,-0 -0.0296,-0 -0.0398,-0.01 -0.0095,-0 -0.01633,-0.01 -0.02041,-0.012 -0.0041,-0.01 -0.0061,-0.012 -0.0061,-0.018 l 0,-0.9104 c 0,-0.01 0.0017,-0.013 0.0051,-0.017 0.0034,-0.01 0.0095,-0.01 0.01837,-0.013 0.0088,-0 0.02007,-0.01 0.03368,-0.01 0.01429,-0 0.03198,-0 0.05307,-0 0.02177,0 0.0398,10e-4 0.05409,0 0.01429,0 0.02518,0 0.03266,0.01 0.0082,0 0.01395,0.01 0.01735,0.013 0.0034,0 0.0051,0.011 0.0051,0.017 l 0,0.1133 c 0.02381,-0.034 0.04627,-0.062 0.06736,-0.084 0.02109,-0.022 0.04116,-0.04 0.06022,-0.053 0.01905,-0.013 0.0381,-0.022 0.05715,-0.026 0.01905,-0.01 0.0381,-0.01 0.05715,-0.01 0.0088,0 0.01837,7e-4 0.02858,0 0.0102,6e-4 0.02075,0 0.03164,0.01 0.01089,0 0.02041,0 0.02858,0.01 0.0082,0 0.01395,0.01 0.01735,0.01 0.0041,0 0.0068,0.01 0.0082,0.011 0.002,0 0.0037,0.01 0.0051,0.017 0.0014,0.01 0.0024,0.017 0.0031,0.032 6.79e-4,0.014 0.001,0.034 0.001,0.058"
         style=""
         id="path3826" />
    </g>
    <g
       style="font-size:2.090204px;font-style:normal;font-variant:normal;font-weight:bold;font-stretch:normal;fill:#505050;fill-opacity:1;stroke:none;font-family:Calibri;-inkscape-font-specification:'A.C.M.E. Secret Agent Bold'"
       id="text3733">
      <path
         d="m 21.189248,1042.6303 c -10e-7,0.01 -0.001,0.017 -0.0031,0.027 -0.002,0.011 -0.0058,0.027 -0.01123,0.047 l -0.242905,0.8236 c -0.0034,0.012 -0.0078,0.021 -0.01327,0.029 -0.0054,0.01 -0.01395,0.012 -0.02551,0.016 -0.01089,0 -0.02688,0.01 -0.04797,0.01 -0.02041,0 -0.04729,0 -0.08063,0 -0.03334,0 -0.06056,-10e-4 -0.08165,-0 -0.02109,-0 -0.03776,-0 -0.05001,-0.01 -0.01157,-0 -0.02007,-0.01 -0.02551,-0.016 -0.0054,-0.01 -0.0095,-0.017 -0.01225,-0.028 l -0.153092,-0.5532 -0.002,-0.01 -0.002,0.01 -0.140844,0.5532 c -0.0027,0.012 -0.0068,0.021 -0.01225,0.029 -0.0048,0.01 -0.01327,0.012 -0.02552,0.016 -0.01225,0 -0.02892,0.01 -0.05001,0.01 -0.02109,0 -0.04831,0 -0.08165,0 -0.03402,0 -0.06158,-10e-4 -0.08267,-0 -0.02041,-0 -0.03674,-0 -0.04899,-0.01 -0.01157,-0 -0.02007,-0.01 -0.02552,-0.016 -0.0054,-0.01 -0.0095,-0.017 -0.01225,-0.028 l -0.240864,-0.8236 c -0.0061,-0.02 -0.01021,-0.035 -0.01225,-0.046 -0.0014,-0.011 -0.002,-0.021 -0.002,-0.028 0,-0.01 0.0017,-0.013 0.0051,-0.017 0.0041,-0.01 0.01089,-0.01 0.02041,-0.012 0.01021,-0 0.02347,-0.01 0.0398,-0.01 0.01701,-0 0.0381,-0 0.06328,-0 0.02722,0 0.04933,7e-4 0.06634,0 0.01701,0 0.03028,0 0.0398,0.01 0.0095,0 0.01599,0.01 0.01939,0.014 0.0041,0.01 0.0071,0.012 0.0092,0.02 l 0.180648,0.6685 0.002,0.012 0.002,-0.012 0.169421,-0.6685 c 0.002,-0.01 0.0051,-0.015 0.0092,-0.02 0.0048,-0.01 0.01157,-0.011 0.02041,-0.014 0.0088,-0 0.02109,-0.01 0.03674,-0.01 0.01633,-0 0.03708,-0 0.06226,-0 0.02517,0 0.04559,10e-4 0.06124,0 0.01565,0 0.0279,0 0.03674,0.01 0.0095,0 0.01599,0.01 0.01939,0.012 0.0041,0 0.0071,0.011 0.0092,0.017 l 0.181668,0.6736 0.0031,0.011 0.002,-0.012 0.173503,-0.6685 c 0.0014,-0.01 0.0041,-0.015 0.0082,-0.02 0.0041,-0.01 0.01089,-0.011 0.02041,-0.014 0.0095,-0 0.02245,-0.01 0.03878,-0.01 0.01633,-0 0.03708,-0 0.06226,-0 0.02517,0 0.04558,7e-4 0.06124,0 0.01633,0 0.02892,0 0.03776,0.01 0.0095,0 0.01599,0.01 0.01939,0.012 0.0034,0 0.0051,0.011 0.0051,0.017"
         style=""
         id="path3795" />
      <path
         d="m 22.803849,1043.5427 c -2e-6,0.01 -0.002,0.013 -0.0061,0.018 -0.0041,0 -0.01089,0.01 -0.02041,0.012 -0.0095,0 -0.02246,0.01 -0.03878,0.01 -0.01633,0 -0.03708,0 -0.06226,0 -0.02586,0 -0.04695,-10e-4 -0.06328,-0 -0.01633,-0 -0.0296,-0 -0.0398,-0.01 -0.0095,-0 -0.01633,-0.01 -0.02041,-0.012 -0.0034,-0.01 -0.0051,-0.012 -0.0051,-0.018 l 0,-0.5399 c -2e-6,-0.031 -0.0031,-0.058 -0.0092,-0.084 -0.0054,-0.025 -0.01429,-0.047 -0.02654,-0.064 -0.01157,-0.018 -0.02654,-0.032 -0.04491,-0.042 -0.01769,-0.01 -0.03912,-0.015 -0.0643,-0.015 -0.03062,0 -0.06158,0.012 -0.09287,0.036 -0.0313,0.024 -0.06532,0.059 -0.102061,0.1041 l 0,0.6052 c -10e-7,0.01 -0.002,0.013 -0.0061,0.018 -0.0041,0 -0.01123,0.01 -0.02143,0.012 -0.0095,0 -0.02245,0.01 -0.03878,0.01 -0.01633,0 -0.03674,0 -0.06124,0 -0.02518,0 -0.04593,-10e-4 -0.06226,-0 -0.01633,-0 -0.0296,-0 -0.0398,-0.01 -0.0095,-0 -0.01633,-0.01 -0.02041,-0.012 -0.0041,-0.01 -0.0061,-0.012 -0.0061,-0.018 l 0,-0.5399 c -1e-6,-0.031 -0.0031,-0.058 -0.0092,-0.084 -0.0054,-0.025 -0.01395,-0.047 -0.02551,-0.064 -0.01157,-0.018 -0.02654,-0.032 -0.04491,-0.042 -0.01837,-0.01 -0.0398,-0.015 -0.0643,-0.015 -0.0313,0 -0.0626,0.012 -0.0939,0.036 -0.0313,0.024 -0.06498,0.059 -0.10104,0.1041 l 0,0.6052 c 0,0.01 -0.002,0.013 -0.0061,0.018 -0.0041,0 -0.01123,0.01 -0.02143,0.012 -0.0095,0 -0.02245,0.01 -0.03878,0.01 -0.01633,0 -0.03708,0 -0.06226,0 -0.02518,0 -0.04593,-10e-4 -0.06226,-0 -0.01633,-0 -0.0296,-0 -0.0398,-0.01 -0.0095,-0 -0.01633,-0.01 -0.02041,-0.012 -0.0041,-0.01 -0.0061,-0.012 -0.0061,-0.018 l 0,-0.9104 c 0,-0.01 0.0017,-0.013 0.0051,-0.017 0.0034,-0.01 0.0095,-0.01 0.01837,-0.013 0.0088,-0 0.02007,-0.01 0.03368,-0.01 0.01429,-0 0.03198,-0 0.05307,-0 0.02177,0 0.0398,10e-4 0.05409,0 0.01429,0 0.02518,0 0.03266,0.01 0.0082,0 0.01395,0.01 0.01735,0.013 0.0034,0 0.0051,0.011 0.0051,0.017 l 0,0.1051 c 0.05035,-0.054 0.100359,-0.095 0.150029,-0.1224 0.05035,-0.027 0.102741,-0.041 0.157174,-0.041 0.03742,0 0.0711,0 0.10104,0.012 0.02994,0.01 0.05647,0.019 0.07961,0.034 0.02381,0.014 0.04423,0.032 0.06124,0.052 0.01701,0.02 0.0313,0.043 0.04286,0.068 0.02722,-0.029 0.05375,-0.054 0.07961,-0.076 0.02653,-0.021 0.05239,-0.038 0.07757,-0.051 0.02585,-0.014 0.05137,-0.023 0.07654,-0.03 0.02585,-0.01 0.05205,-0.01 0.07859,-0.01 0.06055,0 0.111585,0.01 0.153091,0.031 0.0415,0.02 0.07484,0.048 0.10002,0.084 0.02585,0.035 0.04422,0.076 0.05511,0.1225 0.01089,0.047 0.01633,0.097 0.01633,0.149 l 0,0.5828"
         style=""
         id="path3797" />
      <path
         d="m 23.974486,1043.0742 c -10e-7,0.081 -0.0088,0.1541 -0.02654,0.2195 -0.01701,0.065 -0.04219,0.1197 -0.07552,0.1653 -0.03334,0.046 -0.07484,0.081 -0.124514,0.1051 -0.04967,0.024 -0.106484,0.037 -0.170442,0.037 -0.02654,0 -0.05103,-0 -0.07348,-0.01 -0.02177,-0 -0.04321,-0.012 -0.0643,-0.022 -0.02041,-0.011 -0.04082,-0.024 -0.06124,-0.04 -0.02041,-0.016 -0.0415,-0.034 -0.06328,-0.055 l 0,0.4287 c 0,0.01 -0.002,0.013 -0.0061,0.018 -0.0041,0.01 -0.01123,0.01 -0.02143,0.013 -0.0095,0 -0.02245,0.01 -0.03878,0.01 -0.01633,0 -0.03708,0 -0.06226,0 -0.02518,0 -0.04593,-10e-4 -0.06226,-0 -0.01633,-0 -0.0296,-0.01 -0.0398,-0.01 -0.0095,-0 -0.01633,-0.01 -0.02041,-0.013 -0.0041,-0.01 -0.0061,-0.012 -0.0061,-0.018 l 0,-1.2717 c 0,-0.01 0.0017,-0.013 0.0051,-0.017 0.0034,-0.01 0.0092,-0.01 0.01735,-0.013 0.0088,-0 0.02007,-0.01 0.03368,-0.01 0.01429,-0 0.03198,-0 0.05307,-0 0.02041,0 0.03742,10e-4 0.05103,0 0.01429,0 0.02551,0 0.03368,0.01 0.0088,0 0.01497,0.01 0.01837,0.013 0.0034,0 0.0051,0.011 0.0051,0.017 l 0,0.1072 c 0.02654,-0.027 0.05239,-0.051 0.07757,-0.072 0.02585,-0.021 0.05205,-0.038 0.07859,-0.052 0.02654,-0.014 0.05375,-0.025 0.08165,-0.032 0.02858,-0.01 0.05886,-0.01 0.09083,-0.01 0.06668,0 0.123493,0.013 0.170442,0.04 0.04695,0.026 0.08505,0.062 0.114308,0.1072 0.02994,0.046 0.05171,0.099 0.06532,0.1592 0.01361,0.061 0.02041,0.1252 0.02041,0.1939 m -0.267399,0.018 c -1e-6,-0.039 -0.0031,-0.076 -0.0092,-0.1112 -0.0054,-0.036 -0.01531,-0.068 -0.0296,-0.096 -0.01361,-0.028 -0.03198,-0.05 -0.05511,-0.066 -0.02245,-0.017 -0.05069,-0.025 -0.08471,-0.025 -0.01701,0 -0.03402,0 -0.05103,0.01 -0.01633,0 -0.03334,0.013 -0.05103,0.024 -0.01701,0.012 -0.0347,0.027 -0.05307,0.045 -0.01837,0.018 -0.03776,0.041 -0.05817,0.068 l 0,0.3001 c 0.03606,0.046 0.07042,0.081 0.103082,0.1061 0.03266,0.024 0.06668,0.037 0.10206,0.037 0.03334,0 0.06158,-0.01 0.08471,-0.026 0.02381,-0.017 0.04321,-0.039 0.05817,-0.066 0.01497,-0.028 0.02585,-0.059 0.03266,-0.094 0.0075,-0.035 0.01123,-0.069 0.01123,-0.1041"
         style=""
         id="path3799" />
      <path
         d="m 24.437842,1043.5427 c -1e-6,0.01 -0.002,0.013 -0.0061,0.018 -0.0041,0 -0.01123,0.01 -0.02143,0.012 -0.0095,0 -0.02245,0.01 -0.03878,0.01 -0.01633,0 -0.03708,0 -0.06226,0 -0.02518,0 -0.04593,-10e-4 -0.06226,-0 -0.01633,-0 -0.0296,-0 -0.0398,-0.01 -0.0095,-0 -0.01633,-0.01 -0.02041,-0.012 -0.0041,-0.01 -0.0061,-0.012 -0.0061,-0.018 l 0,-1.3421 c -10e-7,-0.01 0.002,-0.013 0.0061,-0.018 0.0041,-0.01 0.01089,-0.01 0.02041,-0.013 0.01021,-0 0.02347,-0.01 0.0398,-0.01 0.01633,-0 0.03708,-0 0.06226,-0 0.02518,0 0.04593,10e-4 0.06226,0 0.01633,0 0.02926,0.01 0.03878,0.01 0.01021,0 0.01735,0.01 0.02143,0.013 0.0041,0.01 0.0061,0.012 0.0061,0.018 l 0,1.3421"
         style=""
         id="path3801" />
      <path
         d="m 25.470696,1043.5458 c -1e-6,0.01 -0.0034,0.017 -0.01021,0.022 -0.0068,0.01 -0.01769,0.01 -0.03266,0.011 -0.01429,0 -0.03572,0 -0.0643,0 -0.03062,0 -0.05307,-0 -0.06736,-0 -0.01361,-0 -0.02348,-0.01 -0.0296,-0.011 -0.0054,-0.01 -0.0082,-0.013 -0.0082,-0.022 l 0,-0.072 c -0.03742,0.04 -0.08029,0.071 -0.128597,0.094 -0.04763,0.022 -0.1007,0.034 -0.159214,0.034 -0.04831,0 -0.09288,-0.01 -0.1337,-0.019 -0.04014,-0.012 -0.07518,-0.031 -0.105122,-0.055 -0.02926,-0.025 -0.05205,-0.056 -0.06838,-0.093 -0.01633,-0.037 -0.02449,-0.08 -0.02449,-0.1286 0,-0.053 0.01021,-0.099 0.03062,-0.1378 0.02109,-0.039 0.05205,-0.072 0.09288,-0.097 0.0415,-0.026 0.09287,-0.045 0.154112,-0.057 0.06124,-0.012 0.132338,-0.018 0.213306,-0.018 l 0.08879,0 0,-0.055 c 0,-0.029 -0.0031,-0.053 -0.0092,-0.074 -0.0054,-0.022 -0.01497,-0.04 -0.02858,-0.054 -0.01293,-0.014 -0.03062,-0.025 -0.05307,-0.032 -0.02177,-0.01 -0.04899,-0.01 -0.08165,-0.01 -0.04287,0 -0.08131,0 -0.115329,0.014 -0.03334,0.01 -0.06294,0.02 -0.08879,0.032 -0.02585,0.012 -0.04763,0.022 -0.06532,0.032 -0.01701,0.01 -0.03096,0.014 -0.04184,0.014 -0.0075,0 -0.01429,-0 -0.02041,-0.01 -0.0054,-0 -0.01021,-0.012 -0.01429,-0.02 -0.0034,-0.01 -0.0061,-0.02 -0.0082,-0.033 -0.002,-0.013 -0.0031,-0.027 -0.0031,-0.043 0,-0.021 0.0017,-0.038 0.0051,-0.05 0.0034,-0.012 0.0099,-0.023 0.01939,-0.033 0.0095,-0.01 0.0262,-0.021 0.05001,-0.033 0.02381,-0.012 0.05171,-0.024 0.08369,-0.034 0.03198,-0.01 0.06668,-0.018 0.104102,-0.024 0.0381,-0.01 0.07723,-0.01 0.11737,-0.01 0.07144,0 0.132338,0.01 0.182689,0.022 0.05103,0.014 0.09287,0.035 0.125534,0.064 0.03266,0.028 0.05647,0.066 0.07144,0.1112 0.01497,0.046 0.02245,0.1 0.02245,0.1623 l 0,0.6124 m -0.25209,-0.3899 -0.09798,0 c -0.04151,0 -0.07689,0 -0.106143,0.01 -0.02926,0.01 -0.05307,0.015 -0.07144,0.028 -0.01837,0.012 -0.03198,0.027 -0.04082,0.045 -0.0082,0.017 -0.01225,0.037 -0.01225,0.059 -10e-7,0.038 0.01191,0.068 0.03572,0.09 0.02449,0.022 0.05817,0.033 0.10104,0.033 0.03606,0 0.06906,-0.01 0.099,-0.028 0.03062,-0.018 0.06158,-0.045 0.09288,-0.081 l 0,-0.1551"
         style=""
         id="path3803" />
      <path
         d="m 26.218802,1043.5774 -0.110226,0.3225 c -0.0061,0.017 -0.02279,0.029 -0.05001,0.037 -0.02722,0.01 -0.06702,0.011 -0.119411,0.011 -0.02722,0 -0.04899,-0 -0.06532,-0 -0.01633,-0 -0.02858,-0.01 -0.03674,-0.011 -0.0082,-0.01 -0.01259,-0.012 -0.01327,-0.02 -6.81e-4,-0.01 0.0014,-0.018 0.0061,-0.03 l 0.121452,-0.3052 c -0.0088,-0 -0.01701,-0.01 -0.02449,-0.018 -0.0068,-0.01 -0.01191,-0.018 -0.01531,-0.027 l -0.313327,-0.8369 c -0.0088,-0.024 -0.01327,-0.042 -0.01327,-0.054 0,-0.013 0.0041,-0.023 0.01225,-0.03 0.0082,-0.01 0.02177,-0.013 0.04082,-0.015 0.01973,-0 0.04559,-0 0.07757,-0 0.02926,0 0.05239,7e-4 0.0694,0 0.01701,7e-4 0.03028,0 0.0398,0.01 0.0095,0 0.01667,0.011 0.02143,0.019 0.0048,0.01 0.0095,0.02 0.01429,0.036 l 0.214328,0.6093 0.0031,0 0.195956,-0.6216 c 0.0041,-0.018 0.0092,-0.029 0.01531,-0.035 0.0068,-0.01 0.01769,-0.01 0.03266,-0.013 0.01497,-0 0.04116,-0 0.07859,-0 0.02926,0 0.05341,0 0.07246,0 0.01973,0 0.03402,0.01 0.04286,0.015 0.0095,0.01 0.01429,0.018 0.01429,0.031 -1e-6,0.012 -0.0027,0.027 -0.0082,0.044 l -0.30312,0.892"
         style=""
         id="path3805" />
      <path
         d="m 27.499664,1043.061 c -10e-7,0.031 -0.0071,0.054 -0.02143,0.069 -0.01361,0.015 -0.03266,0.022 -0.05715,0.022 l -0.55419,0 c 0,0.039 0.0044,0.074 0.01327,0.1062 0.0095,0.031 0.02415,0.058 0.04389,0.081 0.02041,0.022 0.04627,0.038 0.07757,0.05 0.03198,0.012 0.07008,0.017 0.114308,0.017 0.04491,0 0.08437,-0 0.118391,-0.01 0.03402,-0.01 0.06328,-0.014 0.08777,-0.022 0.02517,-0.01 0.04593,-0.015 0.06226,-0.021 0.01633,-0.01 0.0296,-0.01 0.0398,-0.01 0.0061,0 0.01122,0 0.01531,0 0.0041,0 0.0075,0.01 0.01021,0.012 0.0027,0.01 0.0044,0.015 0.0051,0.027 0.0014,0.011 0.002,0.025 0.002,0.042 -10e-7,0.015 -3.41e-4,0.028 -0.001,0.039 -6.81e-4,0.01 -0.0017,0.019 -0.0031,0.026 -0.0014,0.01 -0.0034,0.014 -0.0061,0.019 -0.0027,0 -0.0065,0.01 -0.01123,0.014 -0.0041,0 -0.01599,0.011 -0.03572,0.019 -0.01973,0.01 -0.04491,0.016 -0.07552,0.024 -0.03062,0.01 -0.06566,0.014 -0.105122,0.019 -0.03947,0.01 -0.08165,0.01 -0.126556,0.01 -0.08097,0 -0.152071,-0.01 -0.213307,-0.031 -0.06056,-0.02 -0.111246,-0.051 -0.15207,-0.093 -0.04082,-0.042 -0.07144,-0.094 -0.09185,-0.1572 -0.01973,-0.063 -0.0296,-0.1374 -0.0296,-0.2225 0,-0.081 0.01055,-0.1538 0.03164,-0.2184 0.02109,-0.065 0.05171,-0.1204 0.09185,-0.1653 0.04014,-0.046 0.08879,-0.08 0.145947,-0.1041 0.05783,-0.024 0.122812,-0.036 0.194936,-0.036 0.07621,0 0.141183,0.011 0.194936,0.034 0.05443,0.023 0.099,0.054 0.133699,0.094 0.0347,0.039 0.06021,0.086 0.07655,0.1409 0.01633,0.054 0.02449,0.1136 0.02449,0.1775 l 0,0.041 m -0.249029,-0.073 c 0.002,-0.072 -0.01259,-0.1286 -0.04389,-0.1694 -0.03062,-0.042 -0.07825,-0.062 -0.142885,-0.062 -0.03266,0 -0.06124,0.01 -0.08573,0.018 -0.02381,0.012 -0.04389,0.029 -0.06022,0.05 -0.01565,0.02 -0.0279,0.045 -0.03674,0.073 -0.0082,0.028 -0.01293,0.058 -0.01429,0.09 l 0.383748,0"
         style=""
         id="path3807" />
      <path
         d="m 28.296758,1042.717 c -1e-6,0.024 -6.81e-4,0.045 -0.002,0.06 -0.0014,0.016 -0.0034,0.028 -0.0061,0.037 -0.0027,0.01 -0.0065,0.015 -0.01123,0.018 -0.0041,0 -0.0095,0.01 -0.01633,0.01 -0.0054,0 -0.01157,-0 -0.01837,-0 -0.0068,-0 -0.01463,-0.01 -0.02347,-0.01 -0.0082,-0 -0.01735,-0.01 -0.02756,-0.01 -0.01021,-0 -0.02143,-0 -0.03368,-0 -0.01429,0 -0.02858,0 -0.04287,0.01 -0.01429,0.01 -0.02926,0.014 -0.04491,0.026 -0.01497,0.012 -0.03096,0.029 -0.04797,0.049 -0.01633,0.02 -0.03402,0.046 -0.05307,0.076 l 0,0.5675 c 0,0.01 -0.002,0.013 -0.0061,0.018 -0.0041,0 -0.01123,0.01 -0.02143,0.012 -0.0095,0 -0.02245,0.01 -0.03878,0.01 -0.01633,0 -0.03708,0 -0.06226,0 -0.02518,0 -0.04593,-10e-4 -0.06226,-0 -0.01633,-0 -0.0296,-0 -0.0398,-0.01 -0.0095,-0 -0.01633,-0.01 -0.02041,-0.012 -0.0041,-0.01 -0.0061,-0.012 -0.0061,-0.018 l 0,-0.9104 c 0,-0.01 0.0017,-0.013 0.0051,-0.017 0.0034,-0.01 0.0095,-0.01 0.01837,-0.013 0.0088,-0 0.02007,-0.01 0.03368,-0.01 0.01429,-0 0.03198,-0 0.05307,-0 0.02177,0 0.0398,10e-4 0.05409,0 0.01429,0 0.02518,0 0.03266,0.01 0.0082,0 0.01395,0.01 0.01735,0.013 0.0034,0 0.0051,0.011 0.0051,0.017 l 0,0.1133 c 0.02381,-0.034 0.04627,-0.062 0.06736,-0.084 0.02109,-0.022 0.04116,-0.04 0.06022,-0.053 0.01905,-0.013 0.0381,-0.022 0.05715,-0.026 0.01905,-0.01 0.0381,-0.01 0.05715,-0.01 0.0088,0 0.01837,7e-4 0.02858,0 0.0102,7e-4 0.02075,0 0.03164,0.01 0.01089,0 0.02041,0 0.02858,0.01 0.0082,0 0.01395,0.01 0.01735,0.01 0.0041,0 0.0068,0.01 0.0082,0.011 0.002,0 0.0037,0.01 0.0051,0.017 0.0014,0.01 0.0024,0.017 0.0031,0.032 6.79e-4,0.014 0.001,0.034 0.001,0.058"
         style=""
         id="path3809" />
    </g>
    <g
       style="font-size:2.090204px;font-style:normal;font-variant:normal;font-weight:bold;font-stretch:normal;fill:#787878;fill-opacity:1;stroke:none;font-family:Calibri;-inkscape-font-specification:'A.C.M.E. Secret Agent Bold'"
       id="text3729">
      <path
         d="m 21.189248,1042.6588 c -10e-7,0.01 -0.001,0.017 -0.0031,0.028 -0.002,0.011 -0.0058,0.026 -0.01123,0.047 l -0.242905,0.8237 c -0.0034,0.012 -0.0078,0.021 -0.01327,0.028 -0.0054,0.01 -0.01395,0.012 -0.02551,0.016 -0.01089,0 -0.02688,0.01 -0.04797,0.01 -0.02041,0 -0.04729,0 -0.08063,0 -0.03334,0 -0.06056,-10e-4 -0.08165,-0 -0.02109,-0 -0.03776,-0 -0.05001,-0.01 -0.01157,-0 -0.02007,-0.01 -0.02551,-0.016 -0.0054,-0.01 -0.0095,-0.017 -0.01225,-0.027 l -0.153092,-0.5532 -0.002,-0.01 -0.002,0.01 -0.140844,0.5532 c -0.0027,0.012 -0.0068,0.021 -0.01225,0.028 -0.0048,0.01 -0.01327,0.012 -0.02552,0.016 -0.01225,0 -0.02892,0.01 -0.05001,0.01 -0.02109,0 -0.04831,0 -0.08165,0 -0.03402,0 -0.06158,-10e-4 -0.08267,-0 -0.02041,-0 -0.03674,-0 -0.04899,-0.01 -0.01157,-0 -0.02007,-0.01 -0.02552,-0.016 -0.0054,-0.01 -0.0095,-0.017 -0.01225,-0.027 l -0.240864,-0.8237 c -0.0061,-0.02 -0.01021,-0.035 -0.01225,-0.046 -0.0014,-0.012 -0.002,-0.021 -0.002,-0.029 0,-0.01 0.0017,-0.013 0.0051,-0.017 0.0041,-0.01 0.01089,-0.01 0.02041,-0.012 0.01021,-0 0.02347,-0.01 0.0398,-0.01 0.01701,-0 0.0381,-0 0.06328,-0 0.02722,0 0.04933,6e-4 0.06634,0 0.01701,0 0.03028,0 0.0398,0.01 0.0095,0 0.01599,0.01 0.01939,0.014 0.0041,0.01 0.0071,0.012 0.0092,0.02 l 0.180648,0.6685 0.002,0.012 0.002,-0.012 0.169421,-0.6685 c 0.002,-0.01 0.0051,-0.015 0.0092,-0.02 0.0048,-0.01 0.01157,-0.011 0.02041,-0.014 0.0088,-0 0.02109,-0.01 0.03674,-0.01 0.01633,-0 0.03708,-0 0.06226,-0 0.02517,0 0.04559,10e-4 0.06124,0 0.01565,0 0.0279,0 0.03674,0.01 0.0095,0 0.01599,0.01 0.01939,0.012 0.0041,0 0.0071,0.011 0.0092,0.017 l 0.181668,0.6736 0.0031,0.011 0.002,-0.012 0.173503,-0.6685 c 0.0014,-0.01 0.0041,-0.015 0.0082,-0.02 0.0041,-0.01 0.01089,-0.011 0.02041,-0.014 0.0095,-0 0.02245,-0.01 0.03878,-0.01 0.01633,-0 0.03708,-0 0.06226,-0 0.02517,0 0.04558,6e-4 0.06124,0 0.01633,0 0.02892,0 0.03776,0.01 0.0095,0 0.01599,0.01 0.01939,0.012 0.0034,0 0.0051,0.011 0.0051,0.017"
         style=""
         id="path3778" />
      <path
         d="m 22.803849,1043.5713 c -2e-6,0.01 -0.002,0.013 -0.0061,0.018 -0.0041,0 -0.01089,0.01 -0.02041,0.012 -0.0095,0 -0.02246,0.01 -0.03878,0.01 -0.01633,0 -0.03708,0 -0.06226,0 -0.02586,0 -0.04695,-10e-4 -0.06328,-0 -0.01633,-0 -0.0296,-0 -0.0398,-0.01 -0.0095,-0 -0.01633,-0.01 -0.02041,-0.012 -0.0034,-0.01 -0.0051,-0.012 -0.0051,-0.018 l 0,-0.5399 c -2e-6,-0.031 -0.0031,-0.059 -0.0092,-0.084 -0.0054,-0.025 -0.01429,-0.047 -0.02654,-0.064 -0.01157,-0.018 -0.02654,-0.032 -0.04491,-0.042 -0.01769,-0.01 -0.03912,-0.015 -0.0643,-0.015 -0.03062,0 -0.06158,0.012 -0.09287,0.036 -0.0313,0.024 -0.06532,0.058 -0.102061,0.1041 l 0,0.6053 c -10e-7,0.01 -0.002,0.013 -0.0061,0.018 -0.0041,0 -0.01123,0.01 -0.02143,0.012 -0.0095,0 -0.02245,0.01 -0.03878,0.01 -0.01633,0 -0.03674,0 -0.06124,0 -0.02518,0 -0.04593,-10e-4 -0.06226,-0 -0.01633,-0 -0.0296,-0 -0.0398,-0.01 -0.0095,-0 -0.01633,-0.01 -0.02041,-0.012 -0.0041,-0.01 -0.0061,-0.012 -0.0061,-0.018 l 0,-0.5399 c -1e-6,-0.031 -0.0031,-0.059 -0.0092,-0.084 -0.0054,-0.025 -0.01395,-0.047 -0.02551,-0.064 -0.01157,-0.018 -0.02654,-0.032 -0.04491,-0.042 -0.01837,-0.01 -0.0398,-0.015 -0.0643,-0.015 -0.0313,0 -0.0626,0.012 -0.0939,0.036 -0.0313,0.024 -0.06498,0.058 -0.10104,0.1041 l 0,0.6053 c 0,0.01 -0.002,0.013 -0.0061,0.018 -0.0041,0 -0.01123,0.01 -0.02143,0.012 -0.0095,0 -0.02245,0.01 -0.03878,0.01 -0.01633,0 -0.03708,0 -0.06226,0 -0.02518,0 -0.04593,-10e-4 -0.06226,-0 -0.01633,-0 -0.0296,-0 -0.0398,-0.01 -0.0095,-0 -0.01633,-0.01 -0.02041,-0.012 -0.0041,-0.01 -0.0061,-0.012 -0.0061,-0.018 l 0,-0.9104 c 0,-0.01 0.0017,-0.013 0.0051,-0.017 0.0034,-0.01 0.0095,-0.01 0.01837,-0.013 0.0088,-0 0.02007,-0.01 0.03368,-0.01 0.01429,-0 0.03198,-0 0.05307,-0 0.02177,0 0.0398,10e-4 0.05409,0 0.01429,0 0.02518,0 0.03266,0.01 0.0082,0 0.01395,0.01 0.01735,0.013 0.0034,0 0.0051,0.011 0.0051,0.017 l 0,0.1051 c 0.05035,-0.054 0.100359,-0.095 0.150029,-0.1225 0.05035,-0.027 0.102741,-0.041 0.157174,-0.041 0.03742,0 0.0711,0 0.10104,0.012 0.02994,0.01 0.05647,0.019 0.07961,0.034 0.02381,0.014 0.04423,0.032 0.06124,0.052 0.01701,0.02 0.0313,0.043 0.04286,0.068 0.02722,-0.029 0.05375,-0.054 0.07961,-0.076 0.02653,-0.021 0.05239,-0.038 0.07757,-0.051 0.02585,-0.014 0.05137,-0.024 0.07654,-0.03 0.02585,-0.01 0.05205,-0.01 0.07859,-0.01 0.06055,0 0.111585,0.01 0.153091,0.031 0.0415,0.02 0.07484,0.048 0.10002,0.084 0.02585,0.035 0.04422,0.075 0.05511,0.1225 0.01089,0.047 0.01633,0.097 0.01633,0.149 l 0,0.5828"
         style=""
         id="path3780" />
      <path
         d="m 23.974486,1043.1028 c -10e-7,0.081 -0.0088,0.1541 -0.02654,0.2194 -0.01701,0.065 -0.04219,0.1198 -0.07552,0.1654 -0.03334,0.046 -0.07484,0.081 -0.124514,0.1051 -0.04967,0.024 -0.106484,0.037 -0.170442,0.037 -0.02654,0 -0.05103,-0 -0.07348,-0.01 -0.02177,-0 -0.04321,-0.012 -0.0643,-0.023 -0.02041,-0.011 -0.04082,-0.024 -0.06124,-0.04 -0.02041,-0.016 -0.0415,-0.034 -0.06328,-0.055 l 0,0.4287 c 0,0.01 -0.002,0.013 -0.0061,0.018 -0.0041,0.01 -0.01123,0.01 -0.02143,0.013 -0.0095,0 -0.02245,0.01 -0.03878,0.01 -0.01633,0 -0.03708,0 -0.06226,0 -0.02518,0 -0.04593,-10e-4 -0.06226,-0 -0.01633,-0 -0.0296,-0.01 -0.0398,-0.01 -0.0095,-0 -0.01633,-0.01 -0.02041,-0.013 -0.0041,-0.01 -0.0061,-0.012 -0.0061,-0.018 l 0,-1.2717 c 0,-0.01 0.0017,-0.013 0.0051,-0.017 0.0034,-0.01 0.0092,-0.01 0.01735,-0.013 0.0088,-0 0.02007,-0.01 0.03368,-0.01 0.01429,-0 0.03198,-0 0.05307,-0 0.02041,0 0.03742,10e-4 0.05103,0 0.01429,0 0.02551,0 0.03368,0.01 0.0088,0 0.01497,0.01 0.01837,0.013 0.0034,0 0.0051,0.011 0.0051,0.017 l 0,0.1071 c 0.02654,-0.027 0.05239,-0.051 0.07757,-0.071 0.02585,-0.021 0.05205,-0.038 0.07859,-0.052 0.02654,-0.014 0.05375,-0.025 0.08165,-0.032 0.02858,-0.01 0.05886,-0.01 0.09083,-0.01 0.06668,0 0.123493,0.013 0.170442,0.04 0.04695,0.026 0.08505,0.062 0.114308,0.1072 0.02994,0.046 0.05171,0.099 0.06532,0.1592 0.01361,0.061 0.02041,0.1252 0.02041,0.1939 m -0.267399,0.018 c -1e-6,-0.039 -0.0031,-0.076 -0.0092,-0.1113 -0.0054,-0.036 -0.01531,-0.068 -0.0296,-0.096 -0.01361,-0.028 -0.03198,-0.05 -0.05511,-0.066 -0.02245,-0.017 -0.05069,-0.025 -0.08471,-0.025 -0.01701,0 -0.03402,0 -0.05103,0.01 -0.01633,0 -0.03334,0.013 -0.05103,0.024 -0.01701,0.012 -0.0347,0.026 -0.05307,0.045 -0.01837,0.018 -0.03776,0.041 -0.05817,0.068 l 0,0.3 c 0.03606,0.046 0.07042,0.081 0.103082,0.1062 0.03266,0.024 0.06668,0.037 0.10206,0.037 0.03334,0 0.06158,-0.01 0.08471,-0.025 0.02381,-0.017 0.04321,-0.039 0.05817,-0.066 0.01497,-0.028 0.02585,-0.059 0.03266,-0.094 0.0075,-0.035 0.01123,-0.069 0.01123,-0.1041"
         style=""
         id="path3782" />
      <path
         d="m 24.437842,1043.5713 c -1e-6,0.01 -0.002,0.013 -0.0061,0.018 -0.0041,0 -0.01123,0.01 -0.02143,0.012 -0.0095,0 -0.02245,0.01 -0.03878,0.01 -0.01633,0 -0.03708,0 -0.06226,0 -0.02518,0 -0.04593,-10e-4 -0.06226,-0 -0.01633,-0 -0.0296,-0 -0.0398,-0.01 -0.0095,-0 -0.01633,-0.01 -0.02041,-0.012 -0.0041,-0.01 -0.0061,-0.012 -0.0061,-0.018 l 0,-1.3421 c -10e-7,-0.01 0.002,-0.013 0.0061,-0.018 0.0041,-0.01 0.01089,-0.01 0.02041,-0.013 0.01021,-0 0.02347,-0.01 0.0398,-0.01 0.01633,-0 0.03708,-0 0.06226,-0 0.02518,0 0.04593,10e-4 0.06226,0 0.01633,0 0.02926,0.01 0.03878,0.01 0.01021,0 0.01735,0.01 0.02143,0.013 0.0041,0.01 0.0061,0.012 0.0061,0.018 l 0,1.3421"
         style=""
         id="path3784" />
      <path
         d="m 25.470696,1043.5743 c -1e-6,0.01 -0.0034,0.017 -0.01021,0.023 -0.0068,0.01 -0.01769,0.01 -0.03266,0.011 -0.01429,0 -0.03572,0 -0.0643,0 -0.03062,0 -0.05307,-0 -0.06736,-0 -0.01361,-0 -0.02348,-0.01 -0.0296,-0.011 -0.0054,-0.01 -0.0082,-0.013 -0.0082,-0.023 l 0,-0.072 c -0.03742,0.04 -0.08029,0.071 -0.128597,0.094 -0.04763,0.022 -0.1007,0.034 -0.159214,0.034 -0.04831,0 -0.09288,-0.01 -0.1337,-0.019 -0.04014,-0.012 -0.07518,-0.031 -0.105122,-0.055 -0.02926,-0.025 -0.05205,-0.056 -0.06838,-0.093 -0.01633,-0.037 -0.02449,-0.08 -0.02449,-0.1286 0,-0.053 0.01021,-0.099 0.03062,-0.1378 0.02109,-0.04 0.05205,-0.072 0.09288,-0.097 0.0415,-0.026 0.09287,-0.045 0.154112,-0.057 0.06124,-0.012 0.132338,-0.018 0.213306,-0.018 l 0.08879,0 0,-0.055 c 0,-0.029 -0.0031,-0.053 -0.0092,-0.074 -0.0054,-0.022 -0.01497,-0.04 -0.02858,-0.054 -0.01293,-0.014 -0.03062,-0.025 -0.05307,-0.032 -0.02177,-0.01 -0.04899,-0.01 -0.08165,-0.01 -0.04287,0 -0.08131,0 -0.115329,0.014 -0.03334,0.01 -0.06294,0.02 -0.08879,0.032 -0.02585,0.012 -0.04763,0.022 -0.06532,0.032 -0.01701,0.01 -0.03096,0.014 -0.04184,0.014 -0.0075,0 -0.01429,-0 -0.02041,-0.01 -0.0054,-0 -0.01021,-0.012 -0.01429,-0.02 -0.0034,-0.01 -0.0061,-0.02 -0.0082,-0.033 -0.002,-0.013 -0.0031,-0.027 -0.0031,-0.043 0,-0.021 0.0017,-0.038 0.0051,-0.05 0.0034,-0.012 0.0099,-0.023 0.01939,-0.033 0.0095,-0.01 0.0262,-0.021 0.05001,-0.033 0.02381,-0.012 0.05171,-0.024 0.08369,-0.034 0.03198,-0.01 0.06668,-0.018 0.104102,-0.024 0.0381,-0.01 0.07723,-0.01 0.11737,-0.01 0.07144,0 0.132338,0.01 0.182689,0.021 0.05103,0.014 0.09287,0.035 0.125534,0.064 0.03266,0.029 0.05647,0.066 0.07144,0.1113 0.01497,0.046 0.02245,0.1 0.02245,0.1623 l 0,0.6123 m -0.25209,-0.3899 -0.09798,0 c -0.04151,0 -0.07689,0 -0.106143,0.01 -0.02926,0.01 -0.05307,0.015 -0.07144,0.028 -0.01837,0.012 -0.03198,0.027 -0.04082,0.045 -0.0082,0.017 -0.01225,0.037 -0.01225,0.059 -10e-7,0.038 0.01191,0.068 0.03572,0.09 0.02449,0.022 0.05817,0.033 0.10104,0.033 0.03606,0 0.06906,-0.01 0.099,-0.028 0.03062,-0.018 0.06158,-0.045 0.09288,-0.081 l 0,-0.1552"
         style=""
         id="path3786" />
      <path
         d="m 26.218802,1043.606 -0.110226,0.3225 c -0.0061,0.017 -0.02279,0.029 -0.05001,0.037 -0.02722,0.01 -0.06702,0.011 -0.119411,0.011 -0.02722,0 -0.04899,-0 -0.06532,-0 -0.01633,-0 -0.02858,-0.01 -0.03674,-0.011 -0.0082,-0.01 -0.01259,-0.012 -0.01327,-0.02 -6.81e-4,-0.01 0.0014,-0.018 0.0061,-0.03 l 0.121452,-0.3051 c -0.0088,-0 -0.01701,-0.01 -0.02449,-0.018 -0.0068,-0.01 -0.01191,-0.018 -0.01531,-0.028 l -0.313327,-0.8369 c -0.0088,-0.024 -0.01327,-0.042 -0.01327,-0.054 0,-0.013 0.0041,-0.023 0.01225,-0.03 0.0082,-0.01 0.02177,-0.013 0.04082,-0.015 0.01973,-0 0.04559,-0 0.07757,-0 0.02926,0 0.05239,6e-4 0.0694,0 0.01701,7e-4 0.03028,0 0.0398,0.01 0.0095,0 0.01667,0.011 0.02143,0.019 0.0048,0.01 0.0095,0.02 0.01429,0.036 l 0.214328,0.6094 0.0031,0 0.195956,-0.6216 c 0.0041,-0.018 0.0092,-0.029 0.01531,-0.035 0.0068,-0.01 0.01769,-0.011 0.03266,-0.013 0.01497,-0 0.04116,-0 0.07859,-0 0.02926,0 0.05341,0 0.07246,0 0.01973,0 0.03402,0.01 0.04286,0.015 0.0095,0.01 0.01429,0.018 0.01429,0.031 -1e-6,0.012 -0.0027,0.027 -0.0082,0.044 l -0.30312,0.8921"
         style=""
         id="path3788" />
      <path
         d="m 27.499664,1043.0895 c -10e-7,0.031 -0.0071,0.054 -0.02143,0.069 -0.01361,0.015 -0.03266,0.023 -0.05715,0.023 l -0.55419,0 c 0,0.039 0.0044,0.074 0.01327,0.1061 0.0095,0.031 0.02415,0.058 0.04389,0.081 0.02041,0.022 0.04627,0.038 0.07757,0.05 0.03198,0.011 0.07008,0.017 0.114308,0.017 0.04491,0 0.08437,-0 0.118391,-0.01 0.03402,-0.01 0.06328,-0.014 0.08777,-0.021 0.02517,-0.01 0.04593,-0.015 0.06226,-0.021 0.01633,-0.01 0.0296,-0.01 0.0398,-0.01 0.0061,0 0.01122,0 0.01531,0 0.0041,0 0.0075,0.01 0.01021,0.012 0.0027,0.01 0.0044,0.015 0.0051,0.026 0.0014,0.011 0.002,0.025 0.002,0.042 -10e-7,0.015 -3.41e-4,0.028 -0.001,0.039 -6.81e-4,0.01 -0.0017,0.019 -0.0031,0.027 -0.0014,0.01 -0.0034,0.014 -0.0061,0.019 -0.0027,0 -0.0065,0.01 -0.01123,0.014 -0.0041,0 -0.01599,0.011 -0.03572,0.019 -0.01973,0.01 -0.04491,0.016 -0.07552,0.024 -0.03062,0.01 -0.06566,0.014 -0.105122,0.019 -0.03947,0.01 -0.08165,0.01 -0.126556,0.01 -0.08097,0 -0.152071,-0.01 -0.213307,-0.031 -0.06056,-0.02 -0.111246,-0.051 -0.15207,-0.093 -0.04082,-0.042 -0.07144,-0.094 -0.09185,-0.1571 -0.01973,-0.063 -0.0296,-0.1375 -0.0296,-0.2225 0,-0.081 0.01055,-0.1538 0.03164,-0.2184 0.02109,-0.065 0.05171,-0.1205 0.09185,-0.1654 0.04014,-0.046 0.08879,-0.08 0.145947,-0.1041 0.05783,-0.024 0.122812,-0.036 0.194936,-0.036 0.07621,0 0.141183,0.011 0.194936,0.034 0.05443,0.022 0.099,0.054 0.133699,0.094 0.0347,0.039 0.06021,0.086 0.07655,0.1408 0.01633,0.054 0.02449,0.1136 0.02449,0.1776 l 0,0.041 m -0.249029,-0.073 c 0.002,-0.072 -0.01259,-0.1285 -0.04389,-0.1694 -0.03062,-0.042 -0.07825,-0.062 -0.142885,-0.062 -0.03266,0 -0.06124,0.01 -0.08573,0.018 -0.02381,0.012 -0.04389,0.029 -0.06022,0.05 -0.01565,0.021 -0.0279,0.045 -0.03674,0.074 -0.0082,0.028 -0.01293,0.058 -0.01429,0.09 l 0.383748,0"
         style=""
         id="path3790" />
      <path
         d="m 28.296758,1042.7456 c -1e-6,0.024 -6.81e-4,0.045 -0.002,0.06 -0.0014,0.016 -0.0034,0.028 -0.0061,0.037 -0.0027,0.01 -0.0065,0.015 -0.01123,0.018 -0.0041,0 -0.0095,0.01 -0.01633,0.01 -0.0054,0 -0.01157,-10e-4 -0.01837,-0 -0.0068,-0 -0.01463,-0.01 -0.02347,-0.01 -0.0082,-0 -0.01735,-0.01 -0.02756,-0.01 -0.01021,-0 -0.02143,-0 -0.03368,-0 -0.01429,0 -0.02858,0 -0.04287,0.01 -0.01429,0.01 -0.02926,0.014 -0.04491,0.027 -0.01497,0.012 -0.03096,0.029 -0.04797,0.049 -0.01633,0.02 -0.03402,0.046 -0.05307,0.075 l 0,0.5675 c 0,0.01 -0.002,0.013 -0.0061,0.018 -0.0041,0 -0.01123,0.01 -0.02143,0.012 -0.0095,0 -0.02245,0.01 -0.03878,0.01 -0.01633,0 -0.03708,0 -0.06226,0 -0.02518,0 -0.04593,-10e-4 -0.06226,-0 -0.01633,-0 -0.0296,-0 -0.0398,-0.01 -0.0095,-0 -0.01633,-0.01 -0.02041,-0.012 -0.0041,-0.01 -0.0061,-0.012 -0.0061,-0.018 l 0,-0.9104 c 0,-0.01 0.0017,-0.013 0.0051,-0.017 0.0034,-0.01 0.0095,-0.01 0.01837,-0.013 0.0088,-0 0.02007,-0.01 0.03368,-0.01 0.01429,-0 0.03198,-0 0.05307,-0 0.02177,0 0.0398,10e-4 0.05409,0 0.01429,0 0.02518,0 0.03266,0.01 0.0082,0 0.01395,0.01 0.01735,0.013 0.0034,0 0.0051,0.011 0.0051,0.017 l 0,0.1133 c 0.02381,-0.034 0.04627,-0.062 0.06736,-0.084 0.02109,-0.023 0.04116,-0.04 0.06022,-0.053 0.01905,-0.013 0.0381,-0.022 0.05715,-0.027 0.01905,-0.01 0.0381,-0.01 0.05715,-0.01 0.0088,0 0.01837,7e-4 0.02858,0 0.0102,7e-4 0.02075,0 0.03164,0.01 0.01089,0 0.02041,0 0.02858,0.01 0.0082,0 0.01395,0.01 0.01735,0.01 0.0041,0 0.0068,0.01 0.0082,0.011 0.002,0 0.0037,0.01 0.0051,0.017 0.0014,0.01 0.0024,0.017 0.0031,0.032 6.79e-4,0.014 0.001,0.034 0.001,0.058"
         style=""
         id="path3792" />
    </g>
  </g>
</svg>
