<?xml version="1.0" encoding="UTF-8" standalone="no"?>
<!-- Created with Inkscape (http://www.inkscape.org/) -->

<svg
   xmlns:dc="http://purl.org/dc/elements/1.1/"
   xmlns:cc="http://creativecommons.org/ns#"
   xmlns:rdf="http://www.w3.org/1999/02/22-rdf-syntax-ns#"
   xmlns:svg="http://www.w3.org/2000/svg"
   xmlns="http://www.w3.org/2000/svg"
   xmlns:xlink="http://www.w3.org/1999/xlink"
   xmlns:sodipodi="http://sodipodi.sourceforge.net/DTD/sodipodi-0.dtd"
   xmlns:inkscape="http://www.inkscape.org/namespaces/inkscape"
   width="48"
   height="48"
   id="svg2"
   version="1.1"
   inkscape:version="0.47pre4 r22446"
   sodipodi:docname="emblem-music.svg"
   inkscape:export-filename="/home/andrea/Documenti/MeliaeSVG/48/apps/png/preferences-desktop-sound.png"
   inkscape:export-xdpi="240"
   inkscape:export-ydpi="240">
  <defs
     id="defs4">
    <linearGradient
       id="linearGradient3638">
      <stop
         id="stop3640"
         offset="0"
         style="stop-color:#c8c8c8;stop-opacity:1;" />
      <stop
         style="stop-color:#ebebeb;stop-opacity:0;"
         offset="0.09277598"
         id="stop3642" />
      <stop
         style="stop-color:#ebebeb;stop-opacity:0;"
         offset="0.75010377"
         id="stop3644" />
      <stop
         id="stop3646"
         offset="1"
         style="stop-color:#c8c8c8;stop-opacity:0;" />
    </linearGradient>
    <linearGradient
       id="linearGradient4098">
      <stop
         style="stop-color:#333333;stop-opacity:1;"
         offset="0"
         id="stop4100" />
      <stop
         style="stop-color:#333333;stop-opacity:0;"
         offset="1"
         id="stop4102" />
    </linearGradient>
    <linearGradient
       id="linearGradient4020">
      <stop
         style="stop-color:#000000;stop-opacity:1;"
         offset="0"
         id="stop4022" />
      <stop
         style="stop-color:#000000;stop-opacity:0;"
         offset="1"
         id="stop4024" />
    </linearGradient>
    <linearGradient
       id="linearGradient4009">
      <stop
         id="stop4011"
         offset="0"
         style="stop-color:#ffffff;stop-opacity:0.78431374;" />
      <stop
         id="stop4013"
         offset="1"
         style="stop-color:#ffffff;stop-opacity:0;" />
    </linearGradient>
    <linearGradient
       id="linearGradient3984">
      <stop
         style="stop-color:#ffffff;stop-opacity:0.78431374;"
         offset="0"
         id="stop3986" />
      <stop
         style="stop-color:#ffffff;stop-opacity:0;"
         offset="1"
         id="stop3988" />
    </linearGradient>
    <linearGradient
       id="linearGradient3949">
      <stop
         style="stop-color:#505050;stop-opacity:1;"
         offset="0"
         id="stop3951" />
      <stop
         style="stop-color:#000000;stop-opacity:1;"
         offset="1"
         id="stop3953" />
    </linearGradient>
    <linearGradient
       id="linearGradient3937">
      <stop
         style="stop-color:#c8c8c8;stop-opacity:1;"
         offset="0"
         id="stop3939" />
      <stop
         id="stop3947"
         offset="0.26679271"
         style="stop-color:#ebebeb;stop-opacity:1;" />
      <stop
         id="stop3945"
         offset="0.75010377"
         style="stop-color:#ebebeb;stop-opacity:1;" />
      <stop
         style="stop-color:#c8c8c8;stop-opacity:1;"
         offset="1"
         id="stop3941" />
    </linearGradient>
    <inkscape:perspective
       sodipodi:type="inkscape:persp3d"
       inkscape:vp_x="0 : 526.18109 : 1"
       inkscape:vp_y="0 : 1000 : 0"
       inkscape:vp_z="744.09448 : 526.18109 : 1"
       inkscape:persp3d-origin="372.04724 : 350.78739 : 1"
       id="perspective10" />
    <inkscape:perspective
       id="perspective3139"
       inkscape:persp3d-origin="0.5 : 0.33333333 : 1"
       inkscape:vp_z="1 : 0.5 : 1"
       inkscape:vp_y="0 : 1000 : 0"
       inkscape:vp_x="0 : 0.5 : 1"
       sodipodi:type="inkscape:persp3d" />
    <linearGradient
       inkscape:collect="always"
       xlink:href="#linearGradient3937"
       id="linearGradient4125"
       gradientUnits="userSpaceOnUse"
       x1="38.099571"
       y1="989.11548"
       x2="112.84957"
       y2="989.11548" />
    <radialGradient
       inkscape:collect="always"
       xlink:href="#linearGradient3949"
       id="radialGradient4127"
       gradientUnits="userSpaceOnUse"
       gradientTransform="matrix(1.736681,1.113318e-6,-1.1431112e-6,1.7831559,-55.59952,-786.60722)"
       cx="75.474571"
       cy="1009.4531"
       fx="75.474571"
       fy="1009.4531"
       r="35.39809" />
    <radialGradient
       inkscape:collect="always"
       xlink:href="#linearGradient4098"
       id="radialGradient4129"
       gradientUnits="userSpaceOnUse"
       gradientTransform="matrix(1,0,0,0.19999999,0,92.500508)"
       cx="75.508904"
       cy="115.62563"
       fx="75.508904"
       fy="115.62563"
       r="44.194176" />
    <radialGradient
       inkscape:collect="always"
       xlink:href="#linearGradient4009"
       id="radialGradient4131"
       gradientUnits="userSpaceOnUse"
       gradientTransform="matrix(1.1762512,5.2882463e-7,-9.4013267e-7,1.6415367,19.505391,854.09876)"
       cx="48.321709"
       cy="114.19416"
       fx="48.321709"
       fy="114.19416"
       r="13.839286" />
    <radialGradient
       inkscape:collect="always"
       xlink:href="#linearGradient4020"
       id="radialGradient4133"
       gradientUnits="userSpaceOnUse"
       gradientTransform="matrix(0.89733465,0,-2.8299354e-8,-0.98162825,32.983009,1094.4814)"
       cx="48.321712"
       cy="108.83756"
       fx="48.321712"
       fy="108.83756"
       r="13.839286" />
    <linearGradient
       inkscape:collect="always"
       xlink:href="#linearGradient3984"
       id="linearGradient4135"
       gradientUnits="userSpaceOnUse"
       x1="28.75"
       y1="35.673389"
       x2="28.75"
       y2="115.5" />
    <radialGradient
       inkscape:collect="always"
       xlink:href="#linearGradient4009"
       id="radialGradient4137"
       gradientUnits="userSpaceOnUse"
       gradientTransform="matrix(1.1762512,5.2882463e-7,-9.4013267e-7,1.6415367,19.505391,854.09876)"
       cx="48.321709"
       cy="114.19416"
       fx="48.321709"
       fy="114.19416"
       r="13.839286" />
    <radialGradient
       inkscape:collect="always"
       xlink:href="#linearGradient4020"
       id="radialGradient4139"
       gradientUnits="userSpaceOnUse"
       gradientTransform="matrix(0.89733465,0,-2.8299354e-8,-0.98162825,32.983009,1094.4814)"
       cx="48.321712"
       cy="108.83756"
       fx="48.321712"
       fy="108.83756"
       r="13.839286" />
    <linearGradient
       inkscape:collect="always"
       xlink:href="#linearGradient3984"
       id="linearGradient4141"
       gradientUnits="userSpaceOnUse"
       x1="28.75"
       y1="35.673389"
       x2="28.75"
       y2="115.5" />
    <inkscape:perspective
       id="perspective4931"
       inkscape:persp3d-origin="0.5 : 0.33333333 : 1"
       inkscape:vp_z="1 : 0.5 : 1"
       inkscape:vp_y="0 : 1000 : 0"
       inkscape:vp_x="0 : 0.5 : 1"
       sodipodi:type="inkscape:persp3d" />
    <radialGradient
       inkscape:collect="always"
       xlink:href="#linearGradient3949"
       id="radialGradient2877"
       gradientUnits="userSpaceOnUse"
       gradientTransform="matrix(0.65280594,4.1848825e-7,-4.296873e-7,0.67027552,-25.282716,359.99827)"
       cx="75.474571"
       cy="1009.4531"
       fx="75.474571"
       fy="1009.4531"
       r="35.39809" />
    <linearGradient
       inkscape:collect="always"
       xlink:href="#linearGradient3937"
       id="linearGradient2880"
       gradientUnits="userSpaceOnUse"
       x1="38.099571"
       y1="989.11548"
       x2="112.84957"
       y2="989.11548"
       gradientTransform="matrix(0.37589283,0,0,0.37589283,-4.3832554,655.67828)" />
    <linearGradient
       inkscape:collect="always"
       xlink:href="#linearGradient3638"
       id="linearGradient2864"
       gradientUnits="userSpaceOnUse"
       gradientTransform="matrix(0.37589283,0,0,0.37589283,-4.3832554,655.67828)"
       x1="75.474571"
       y1="934.09979"
       x2="75.474571"
       y2="1044.1312" />
  </defs>
  <sodipodi:namedview
     id="base"
     pagecolor="#ffffff"
     bordercolor="#666666"
     borderopacity="1.0"
     inkscape:pageopacity="0.0"
     inkscape:pageshadow="2"
     inkscape:zoom="7.919596"
     inkscape:cx="5.5488315"
     inkscape:cy="18.949401"
     inkscape:document-units="px"
     inkscape:current-layer="layer1"
     showgrid="false"
     inkscape:window-width="1278"
     inkscape:window-height="712"
     inkscape:window-x="0"
     inkscape:window-y="25"
     inkscape:window-maximized="1" />
  <metadata
     id="metadata7">
    <rdf:RDF>
      <cc:Work
         rdf:about="">
        <dc:format>image/svg+xml</dc:format>
        <dc:type
           rdf:resource="http://purl.org/dc/dcmitype/StillImage" />
        <dc:title />
      </cc:Work>
    </rdf:RDF>
  </metadata>
  <g
     inkscape:label="Livello 1"
     inkscape:groupmode="layer"
     id="layer1"
     transform="translate(0,-1004.3622)">
    <path
       sodipodi:type="arc"
       style="fill:url(#radialGradient4129);fill-opacity:1;stroke:none"
       id="path4096"
       sodipodi:cx="75.508904"
       sodipodi:cy="115.62563"
       sodipodi:rx="44.194176"
       sodipodi:ry="8.8388348"
       d="m 119.70308,115.62563 c 0,4.88156 -19.786407,8.83884 -44.194176,8.83884 -24.40777,0 -44.194176,-3.95728 -44.194176,-8.83884 0,-4.88155 19.786406,-8.83883 44.194176,-8.83883 24.407769,0 44.194176,3.95728 44.194176,8.83883 z"
       transform="matrix(0.37589283,0,0,0.37589283,-4.3832554,1003.1394)" />
    <path
       style="fill:url(#linearGradient2880);fill-opacity:1;stroke:none"
       d="m 14.284361,1006.7997 c -0.640307,0.024 -0.879026,0.5452 -1.503572,1.5036 l -1.812341,3.0306 c -0.750955,1.2558 -1.0303482,1.2609 -1.0303482,2.8192 l 0,32.1271 c 0,1.0412 0.8382412,1.8795 1.8794642,1.8795 l 24.339061,0 c 1.041223,0 1.879464,-0.8383 1.879464,-1.8795 l 0,-32.1271 c 0,-0.8988 -0.133356,-1.6857 -0.7878,-2.8192 l -1.580254,-3.268 c -0.517179,-0.8957 -0.673404,-1.2662 -1.978207,-1.2662 l -19.405467,0 z"
       id="path3926"
       sodipodi:nodetypes="ccccccccccccc" />
    <path
       sodipodi:nodetypes="ccccccccccccc"
       id="path2862"
       d="m 14.284361,1006.7997 c -0.640307,0.024 -0.879026,0.5452 -1.503572,1.5036 l -1.812341,3.0306 c -0.750955,1.2558 -1.0303482,1.2609 -1.0303482,2.8192 l 0,32.1271 c 0,1.0412 0.8382412,1.8795 1.8794642,1.8795 l 24.339061,0 c 1.041223,0 1.879464,-0.8383 1.879464,-1.8795 l 0,-32.1271 c 0,-0.8988 -0.133356,-1.6857 -0.7878,-2.8192 l -1.580254,-3.268 c -0.517179,-0.8957 -0.673404,-1.2662 -1.978207,-1.2662 l -19.405467,0 z"
       style="fill:url(#linearGradient2864);fill-opacity:1;stroke:none" />
    <path
       style="fill:url(#radialGradient2877);fill-opacity:1;stroke:none"
       d="m 12.228651,1012.8836 23.51689,0 c 1.006032,0 1.815938,0.8099 1.815938,1.8159 l 0,31.0378 c 0,1.006 -0.809906,1.8159 -1.815938,1.8159 l -23.51689,0 c -1.006031,0 -1.81594,-0.8099 -1.81594,-1.8159 l 0,-31.0378 c 0,-1.006 0.809909,-1.8159 1.81594,-1.8159 z"
       id="rect3145" />
    <g
       id="g4082"
       transform="matrix(0.37589283,0,0,0.37589283,-4.7099732,656.4377)">
      <path
         id="path3964"
         transform="translate(0,924.36218)"
         d="m 76.34375,60.28125 c -14.359404,0 -26,11.640596 -26,26 0,14.3594 11.640596,26 26,26 14.359404,0 26,-11.6406 26,-26 0,-14.359404 -11.640596,-26 -26,-26 z m 0,2.5 c 12.978692,0 23.5,10.521308 23.5,23.5 0,12.978692 -10.521308,23.5 -23.5,23.5 -12.978692,0 -23.5,-10.521308 -23.5,-23.5 0,-12.978692 10.521308,-23.5 23.5,-23.5 z"
         style="fill:#dcdcdc;fill-opacity:1;stroke:none" />
      <path
         transform="matrix(0.83096773,0,0,0.83096773,52.453428,937.66666)"
         d="M 56.428572,87.821426 C 56.428572,103.10788 44.036453,115.5 28.75,115.5 13.463547,115.5 1.0714283,103.10788 1.0714283,87.821426 1.0714283,72.534973 13.463547,60.142855 28.75,60.142855 c 15.286453,0 27.678572,12.392118 27.678572,27.678571 z"
         sodipodi:ry="27.678572"
         sodipodi:rx="27.678572"
         sodipodi:cy="87.821426"
         sodipodi:cx="28.75"
         id="path3969"
         style="fill:#333333;fill-opacity:1;stroke:none"
         sodipodi:type="arc" />
      <path
         sodipodi:nodetypes="cccc"
         id="path3995"
         d="m 92.607205,1026.9069 c -8.982059,8.982 -23.544855,8.982 -32.526913,0 4.742941,-4.6309 9.289676,-9.486 16.263457,-11.5673 6.574371,2.4283 11.587183,5.7252 16.263456,11.5673 z"
         style="fill:url(#radialGradient4131);fill-opacity:1;stroke:none" />
      <path
         style="fill:url(#radialGradient4133);fill-opacity:1;stroke:none"
         d="m 92.607206,994.37996 c -8.982059,-8.98204 -23.544854,-8.98204 -32.526912,0 4.742941,4.63093 9.289676,9.48594 16.263457,11.56734 6.574371,-2.4282 11.587182,-5.7251 16.263455,-11.56734 z"
         id="path4028"
         sodipodi:nodetypes="cccc" />
      <path
         sodipodi:type="arc"
         style="fill:#000000;fill-opacity:1;stroke:none"
         id="path3980"
         sodipodi:cx="28.75"
         sodipodi:cy="87.821426"
         sodipodi:rx="27.678572"
         sodipodi:ry="27.678572"
         d="M 56.428572,87.821426 C 56.428572,103.10788 44.036453,115.5 28.75,115.5 13.463547,115.5 1.0714283,103.10788 1.0714283,87.821426 1.0714283,72.534973 13.463547,60.142855 28.75,60.142855 c 15.286453,0 27.678572,12.392118 27.678572,27.678571 z"
         transform="matrix(0.2879341,0,0,0.2879341,68.065645,985.35665)" />
      <path
         transform="matrix(0.2200549,0,0,0.1742759,70.017172,992.19238)"
         d="M 56.428572,87.821426 C 56.428572,103.10788 44.036453,115.5 28.75,115.5 13.463547,115.5 1.0714283,103.10788 1.0714283,87.821426 1.0714283,72.534973 13.463547,60.142855 28.75,60.142855 c 15.286453,0 27.678572,12.392118 27.678572,27.678571 z"
         sodipodi:ry="27.678572"
         sodipodi:rx="27.678572"
         sodipodi:cy="87.821426"
         sodipodi:cx="28.75"
         id="path3982"
         style="fill:url(#linearGradient4135);fill-opacity:1;stroke:none"
         sodipodi:type="arc" />
    </g>
    <g
       id="g4068"
       transform="matrix(0.20794458,0,0,0.20794458,8.1118264,809.08659)">
      <path
         style="fill:#dcdcdc;fill-opacity:1;stroke:none"
         d="m 76.34375,60.28125 c -14.359404,0 -26,11.640596 -26,26 0,14.3594 11.640596,26 26,26 14.359404,0 26,-11.6406 26,-26 0,-14.359404 -11.640596,-26 -26,-26 z m 0,2.5 c 12.978692,0 23.5,10.521308 23.5,23.5 0,12.978692 -10.521308,23.5 -23.5,23.5 -12.978692,0 -23.5,-10.521308 -23.5,-23.5 0,-12.978692 10.521308,-23.5 23.5,-23.5 z"
         transform="translate(0,924.36218)"
         id="path4056" />
      <path
         sodipodi:type="arc"
         style="fill:#333333;fill-opacity:1;stroke:none"
         id="path4058"
         sodipodi:cx="28.75"
         sodipodi:cy="87.821426"
         sodipodi:rx="27.678572"
         sodipodi:ry="27.678572"
         d="M 56.428572,87.821426 C 56.428572,103.10788 44.036453,115.5 28.75,115.5 13.463547,115.5 1.0714283,103.10788 1.0714283,87.821426 1.0714283,72.534973 13.463547,60.142855 28.75,60.142855 c 15.286453,0 27.678572,12.392118 27.678572,27.678571 z"
         transform="matrix(0.83096773,0,0,0.83096773,52.453428,937.66666)" />
      <path
         style="fill:url(#radialGradient4137);fill-opacity:1;stroke:none"
         d="m 92.607205,1026.9069 c -8.982059,8.982 -23.544855,8.982 -32.526913,0 4.742941,-4.6309 9.289676,-9.486 16.263457,-11.5673 6.574371,2.4283 11.587183,5.7252 16.263456,11.5673 z"
         id="path4060"
         sodipodi:nodetypes="cccc" />
      <path
         sodipodi:nodetypes="cccc"
         id="path4062"
         d="m 92.607206,994.37996 c -8.982059,-8.98204 -23.544854,-8.98204 -32.526912,0 4.742941,4.63093 9.289676,9.48594 16.263457,11.56734 6.574371,-2.4282 11.587182,-5.7251 16.263455,-11.56734 z"
         style="fill:url(#radialGradient4139);fill-opacity:1;stroke:none" />
      <path
         transform="matrix(0.2879341,0,0,0.2879341,68.065645,985.35665)"
         d="M 56.428572,87.821426 C 56.428572,103.10788 44.036453,115.5 28.75,115.5 13.463547,115.5 1.0714283,103.10788 1.0714283,87.821426 1.0714283,72.534973 13.463547,60.142855 28.75,60.142855 c 15.286453,0 27.678572,12.392118 27.678572,27.678571 z"
         sodipodi:ry="27.678572"
         sodipodi:rx="27.678572"
         sodipodi:cy="87.821426"
         sodipodi:cx="28.75"
         id="path4064"
         style="fill:#000000;fill-opacity:1;stroke:none"
         sodipodi:type="arc" />
      <path
         sodipodi:type="arc"
         style="fill:url(#linearGradient4141);fill-opacity:1;stroke:none"
         id="path4066"
         sodipodi:cx="28.75"
         sodipodi:cy="87.821426"
         sodipodi:rx="27.678572"
         sodipodi:ry="27.678572"
         d="M 56.428572,87.821426 C 56.428572,103.10788 44.036453,115.5 28.75,115.5 13.463547,115.5 1.0714283,103.10788 1.0714283,87.821426 1.0714283,72.534973 13.463547,60.142855 28.75,60.142855 c 15.286453,0 27.678572,12.392118 27.678572,27.678571 z"
         transform="matrix(0.2200549,0,0,0.1742759,70.017172,992.19238)" />
    </g>
  </g>
</svg>
