<?xml version="1.0" encoding="UTF-8" standalone="no"?>
<!-- Created with Inkscape (http://www.inkscape.org/) -->

<svg
   xmlns:dc="http://purl.org/dc/elements/1.1/"
   xmlns:cc="http://creativecommons.org/ns#"
   xmlns:rdf="http://www.w3.org/1999/02/22-rdf-syntax-ns#"
   xmlns:svg="http://www.w3.org/2000/svg"
   xmlns="http://www.w3.org/2000/svg"
   xmlns:xlink="http://www.w3.org/1999/xlink"
   xmlns:sodipodi="http://sodipodi.sourceforge.net/DTD/sodipodi-0.dtd"
   xmlns:inkscape="http://www.inkscape.org/namespaces/inkscape"
   width="48"
   height="48"
   id="svg2"
   version="1.1"
   inkscape:version="0.47pre4 r22446"
   sodipodi:docname="evolution.svg"
   inkscape:export-filename="/home/andrea/.icons/MeliaeSVG/48/apps/png/evolution.png"
   inkscape:export-xdpi="240"
   inkscape:export-ydpi="240">
  <defs
     id="defs4">
    <linearGradient
       id="linearGradient3669">
      <stop
         style="stop-color:#ffffff;stop-opacity:1;"
         offset="0"
         id="stop3671" />
      <stop
         style="stop-color:#ffffff;stop-opacity:0;"
         offset="1"
         id="stop3673" />
    </linearGradient>
    <linearGradient
       id="linearGradient3645">
      <stop
         style="stop-color:#646464;stop-opacity:1;"
         offset="0"
         id="stop3647" />
      <stop
         style="stop-color:#646464;stop-opacity:0;"
         offset="1"
         id="stop3649" />
    </linearGradient>
    <linearGradient
       id="linearGradient3606">
      <stop
         style="stop-color:#f0f0f0;stop-opacity:1;"
         offset="0"
         id="stop3608" />
      <stop
         style="stop-color:#d2d2d2;stop-opacity:1;"
         offset="1"
         id="stop3610" />
    </linearGradient>
    <inkscape:perspective
       sodipodi:type="inkscape:persp3d"
       inkscape:vp_x="0 : 526.18109 : 1"
       inkscape:vp_y="0 : 1000 : 0"
       inkscape:vp_z="744.09448 : 526.18109 : 1"
       inkscape:persp3d-origin="372.04724 : 350.78739 : 1"
       id="perspective10" />
    <inkscape:perspective
       id="perspective2824"
       inkscape:persp3d-origin="0.5 : 0.33333333 : 1"
       inkscape:vp_z="1 : 0.5 : 1"
       inkscape:vp_y="0 : 1000 : 0"
       inkscape:vp_x="0 : 0.5 : 1"
       sodipodi:type="inkscape:persp3d" />
    <linearGradient
       inkscape:collect="always"
       xlink:href="#linearGradient3606"
       id="linearGradient4205"
       gradientUnits="userSpaceOnUse"
       gradientTransform="translate(-54.12518,10.523503)"
       x1="24.142857"
       y1="1013.5765"
       x2="24.142857"
       y2="1042.5764" />
    <linearGradient
       inkscape:collect="always"
       xlink:href="#linearGradient3606"
       id="linearGradient4207"
       gradientUnits="userSpaceOnUse"
       gradientTransform="translate(-54.12518,10.523503)"
       x1="24.142857"
       y1="1042.5765"
       x2="24.142857"
       y2="1025.7194" />
    <linearGradient
       inkscape:collect="always"
       xlink:href="#linearGradient3669"
       id="linearGradient4209"
       gradientUnits="userSpaceOnUse"
       gradientTransform="matrix(1,0,0,-1,-54.122948,2066.687)"
       x1="24.140625"
       y1="1030.3436"
       x2="24.140625"
       y2="1013.6875" />
    <linearGradient
       inkscape:collect="always"
       xlink:href="#linearGradient3606"
       id="linearGradient4211"
       gradientUnits="userSpaceOnUse"
       gradientTransform="translate(-54.12518,10.523503)"
       x1="24.142857"
       y1="1013.5765"
       x2="24.142857"
       y2="1030.4336" />
    <linearGradient
       inkscape:collect="always"
       xlink:href="#linearGradient3669"
       id="linearGradient4213"
       gradientUnits="userSpaceOnUse"
       gradientTransform="translate(-54.12518,10.523503)"
       x1="24.140625"
       y1="1030.3436"
       x2="24.140625"
       y2="1013.6875" />
    <linearGradient
       inkscape:collect="always"
       xlink:href="#linearGradient3606"
       id="linearGradient4215"
       gradientUnits="userSpaceOnUse"
       x1="24.142857"
       y1="1013.5765"
       x2="24.142857"
       y2="1042.5764" />
    <linearGradient
       inkscape:collect="always"
       xlink:href="#linearGradient3606"
       id="linearGradient4217"
       gradientUnits="userSpaceOnUse"
       x1="24.142857"
       y1="1042.5765"
       x2="24.142857"
       y2="1025.7194" />
    <linearGradient
       inkscape:collect="always"
       xlink:href="#linearGradient3669"
       id="linearGradient4219"
       gradientUnits="userSpaceOnUse"
       gradientTransform="matrix(1,0,0,-1,0.00223205,2056.1635)"
       x1="24.140625"
       y1="1030.3436"
       x2="24.140625"
       y2="1013.6875" />
    <linearGradient
       inkscape:collect="always"
       xlink:href="#linearGradient3606"
       id="linearGradient4221"
       gradientUnits="userSpaceOnUse"
       x1="24.142857"
       y1="1018.264"
       x2="24.142857"
       y2="1030.4336" />
    <linearGradient
       inkscape:collect="always"
       xlink:href="#linearGradient3669"
       id="linearGradient4223"
       gradientUnits="userSpaceOnUse"
       x1="19.519247"
       y1="1030.094"
       x2="19.519247"
       y2="1013.9364" />
    <linearGradient
       inkscape:collect="always"
       xlink:href="#linearGradient3606"
       id="linearGradient4304"
       gradientUnits="userSpaceOnUse"
       gradientTransform="translate(0.53032959,1.944544)"
       x1="24.142857"
       y1="1013.5765"
       x2="24.142857"
       y2="1042.5764" />
    <linearGradient
       inkscape:collect="always"
       xlink:href="#linearGradient3606"
       id="linearGradient4306"
       gradientUnits="userSpaceOnUse"
       gradientTransform="translate(0.53032959,1.944544)"
       x1="24.142857"
       y1="1042.5765"
       x2="24.142857"
       y2="1025.7194" />
    <linearGradient
       inkscape:collect="always"
       xlink:href="#linearGradient3669"
       id="linearGradient4308"
       gradientUnits="userSpaceOnUse"
       gradientTransform="matrix(1,0,0,-1,0.53256164,2058.108)"
       x1="24.140625"
       y1="1030.3436"
       x2="24.140625"
       y2="1013.6875" />
    <linearGradient
       inkscape:collect="always"
       xlink:href="#linearGradient3606"
       id="linearGradient4310"
       gradientUnits="userSpaceOnUse"
       gradientTransform="translate(0.53032959,1.944544)"
       x1="24.142857"
       y1="1018.264"
       x2="24.142857"
       y2="1030.4336" />
    <linearGradient
       inkscape:collect="always"
       xlink:href="#linearGradient3669"
       id="linearGradient4312"
       gradientUnits="userSpaceOnUse"
       gradientTransform="translate(0.53032959,1.944544)"
       x1="19.519247"
       y1="1030.094"
       x2="19.519247"
       y2="1013.9364" />
    <linearGradient
       inkscape:collect="always"
       xlink:href="#linearGradient3606"
       id="linearGradient4395"
       gradientUnits="userSpaceOnUse"
       gradientTransform="translate(0.53032959,1.944544)"
       x1="24.142857"
       y1="1013.5765"
       x2="24.142857"
       y2="1042.5764" />
    <linearGradient
       inkscape:collect="always"
       xlink:href="#linearGradient3606"
       id="linearGradient4397"
       gradientUnits="userSpaceOnUse"
       gradientTransform="translate(0.53032959,1.944544)"
       x1="24.142857"
       y1="1042.5765"
       x2="24.142857"
       y2="1025.7194" />
    <linearGradient
       inkscape:collect="always"
       xlink:href="#linearGradient3669"
       id="linearGradient4399"
       gradientUnits="userSpaceOnUse"
       gradientTransform="matrix(1,0,0,-1,0.53256164,2058.108)"
       x1="24.140625"
       y1="1030.3436"
       x2="24.140625"
       y2="1013.6875" />
    <linearGradient
       inkscape:collect="always"
       xlink:href="#linearGradient3606"
       id="linearGradient4401"
       gradientUnits="userSpaceOnUse"
       gradientTransform="translate(0.53032959,1.944544)"
       x1="24.142857"
       y1="1018.264"
       x2="24.142857"
       y2="1030.4336" />
    <linearGradient
       inkscape:collect="always"
       xlink:href="#linearGradient3669"
       id="linearGradient4403"
       gradientUnits="userSpaceOnUse"
       gradientTransform="translate(0.53032959,1.944544)"
       x1="19.519247"
       y1="1030.094"
       x2="19.519247"
       y2="1013.9364" />
    <linearGradient
       inkscape:collect="always"
       xlink:href="#linearGradient3606"
       id="linearGradient4405"
       gradientUnits="userSpaceOnUse"
       gradientTransform="translate(-54.12518,10.523503)"
       x1="24.142857"
       y1="1013.5765"
       x2="24.142857"
       y2="1042.5764" />
    <linearGradient
       inkscape:collect="always"
       xlink:href="#linearGradient3606"
       id="linearGradient4407"
       gradientUnits="userSpaceOnUse"
       gradientTransform="translate(-54.12518,10.523503)"
       x1="24.142857"
       y1="1042.5765"
       x2="24.142857"
       y2="1025.7194" />
    <linearGradient
       inkscape:collect="always"
       xlink:href="#linearGradient3669"
       id="linearGradient4409"
       gradientUnits="userSpaceOnUse"
       gradientTransform="matrix(1,0,0,-1,-54.122948,2066.687)"
       x1="24.140625"
       y1="1030.3436"
       x2="24.140625"
       y2="1013.6875" />
    <linearGradient
       inkscape:collect="always"
       xlink:href="#linearGradient3606"
       id="linearGradient4411"
       gradientUnits="userSpaceOnUse"
       gradientTransform="translate(-54.12518,10.523503)"
       x1="24.142857"
       y1="1013.5765"
       x2="24.142857"
       y2="1030.4336" />
    <linearGradient
       inkscape:collect="always"
       xlink:href="#linearGradient3669"
       id="linearGradient4413"
       gradientUnits="userSpaceOnUse"
       gradientTransform="translate(-54.12518,10.523503)"
       x1="24.140625"
       y1="1030.3436"
       x2="24.140625"
       y2="1013.6875" />
    <linearGradient
       inkscape:collect="always"
       xlink:href="#linearGradient3606"
       id="linearGradient4415"
       gradientUnits="userSpaceOnUse"
       x1="24.142857"
       y1="1013.5765"
       x2="24.142857"
       y2="1042.5764" />
    <linearGradient
       inkscape:collect="always"
       xlink:href="#linearGradient3606"
       id="linearGradient4417"
       gradientUnits="userSpaceOnUse"
       x1="24.142857"
       y1="1042.5765"
       x2="24.142857"
       y2="1025.7194" />
    <linearGradient
       inkscape:collect="always"
       xlink:href="#linearGradient3669"
       id="linearGradient4419"
       gradientUnits="userSpaceOnUse"
       gradientTransform="matrix(1,0,0,-1,0.00223205,2056.1635)"
       x1="24.140625"
       y1="1030.3436"
       x2="24.140625"
       y2="1013.6875" />
    <linearGradient
       inkscape:collect="always"
       xlink:href="#linearGradient3606"
       id="linearGradient4421"
       gradientUnits="userSpaceOnUse"
       x1="24.142857"
       y1="1018.264"
       x2="24.142857"
       y2="1030.4336" />
    <linearGradient
       inkscape:collect="always"
       xlink:href="#linearGradient3669"
       id="linearGradient4423"
       gradientUnits="userSpaceOnUse"
       x1="19.519247"
       y1="1030.094"
       x2="19.519247"
       y2="1013.9364" />
    <linearGradient
       inkscape:collect="always"
       xlink:href="#linearGradient3606"
       id="linearGradient3123"
       gradientUnits="userSpaceOnUse"
       gradientTransform="translate(0.53032959,1.944544)"
       x1="24.142857"
       y1="1013.5765"
       x2="24.142857"
       y2="1042.5764" />
    <linearGradient
       inkscape:collect="always"
       xlink:href="#linearGradient3606"
       id="linearGradient3125"
       gradientUnits="userSpaceOnUse"
       gradientTransform="translate(0.53032959,1.944544)"
       x1="24.142857"
       y1="1042.5765"
       x2="24.142857"
       y2="1025.7194" />
    <linearGradient
       inkscape:collect="always"
       xlink:href="#linearGradient3669"
       id="linearGradient3127"
       gradientUnits="userSpaceOnUse"
       gradientTransform="matrix(1,0,0,-1,0.53256164,2058.108)"
       x1="24.140625"
       y1="1030.3436"
       x2="24.140625"
       y2="1013.6875" />
    <linearGradient
       inkscape:collect="always"
       xlink:href="#linearGradient3606"
       id="linearGradient3129"
       gradientUnits="userSpaceOnUse"
       gradientTransform="translate(0.53032959,1.944544)"
       x1="24.142857"
       y1="1018.264"
       x2="24.142857"
       y2="1030.4336" />
    <linearGradient
       inkscape:collect="always"
       xlink:href="#linearGradient3669"
       id="linearGradient3131"
       gradientUnits="userSpaceOnUse"
       gradientTransform="translate(0.53032959,1.944544)"
       x1="19.519247"
       y1="1030.094"
       x2="19.519247"
       y2="1013.9364" />
    <linearGradient
       inkscape:collect="always"
       xlink:href="#linearGradient3669"
       id="linearGradient3151"
       gradientUnits="userSpaceOnUse"
       gradientTransform="matrix(0.75899814,0.16397777,-0.16397777,0.75899814,220.31897,240.59212)"
       x1="19.519247"
       y1="1030.094"
       x2="19.519247"
       y2="1013.9364" />
    <linearGradient
       inkscape:collect="always"
       xlink:href="#linearGradient3606"
       id="linearGradient3154"
       gradientUnits="userSpaceOnUse"
       gradientTransform="matrix(0.75899814,0.16397777,-0.16397777,0.75899814,220.31897,240.59212)"
       x1="24.142857"
       y1="1018.264"
       x2="24.142857"
       y2="1030.4336" />
    <linearGradient
       inkscape:collect="always"
       xlink:href="#linearGradient3669"
       id="linearGradient3188"
       gradientUnits="userSpaceOnUse"
       gradientTransform="matrix(0.75899814,0.16397777,0.16397777,-0.75899814,-116.84444,1801.2167)"
       x1="24.140625"
       y1="1030.3436"
       x2="24.140625"
       y2="1013.6875" />
    <linearGradient
       inkscape:collect="always"
       xlink:href="#linearGradient3606"
       id="linearGradient3191"
       gradientUnits="userSpaceOnUse"
       gradientTransform="matrix(0.75899814,0.16397777,-0.16397777,0.75899814,220.31897,240.59212)"
       x1="24.142857"
       y1="1042.5765"
       x2="24.142857"
       y2="1025.7194" />
    <linearGradient
       inkscape:collect="always"
       xlink:href="#linearGradient3606"
       id="linearGradient3195"
       gradientUnits="userSpaceOnUse"
       gradientTransform="matrix(0.77650942,0,0,0.77650942,266.15703,188.64105)"
       x1="24.142857"
       y1="1013.5765"
       x2="24.142857"
       y2="1042.5764" />
    <linearGradient
       inkscape:collect="always"
       xlink:href="#linearGradient3606"
       id="linearGradient3210"
       gradientUnits="userSpaceOnUse"
       gradientTransform="matrix(0.77650942,0,0,0.77650942,266.15703,188.64105)"
       x1="24.142857"
       y1="1013.5765"
       x2="24.142857"
       y2="1042.5764" />
    <linearGradient
       inkscape:collect="always"
       xlink:href="#linearGradient3606"
       id="linearGradient3212"
       gradientUnits="userSpaceOnUse"
       gradientTransform="matrix(0.75899814,0.16397777,-0.16397777,0.75899814,220.31897,240.59212)"
       x1="24.142857"
       y1="1042.5765"
       x2="24.142857"
       y2="1025.7194" />
    <linearGradient
       inkscape:collect="always"
       xlink:href="#linearGradient3669"
       id="linearGradient3214"
       gradientUnits="userSpaceOnUse"
       gradientTransform="matrix(0.75899814,0.16397777,0.16397777,-0.75899814,-116.84444,1801.2167)"
       x1="24.140625"
       y1="1030.3436"
       x2="24.140625"
       y2="1013.6875" />
    <linearGradient
       inkscape:collect="always"
       xlink:href="#linearGradient3606"
       id="linearGradient3216"
       gradientUnits="userSpaceOnUse"
       gradientTransform="matrix(0.75899814,0.16397777,-0.16397777,0.75899814,220.31897,240.59212)"
       x1="24.142857"
       y1="1018.264"
       x2="24.142857"
       y2="1030.4336" />
    <linearGradient
       inkscape:collect="always"
       xlink:href="#linearGradient3669"
       id="linearGradient3218"
       gradientUnits="userSpaceOnUse"
       gradientTransform="matrix(0.75899814,0.16397777,-0.16397777,0.75899814,220.31897,240.59212)"
       x1="19.519247"
       y1="1030.094"
       x2="19.519247"
       y2="1013.9364" />
  </defs>
  <sodipodi:namedview
     id="base"
     pagecolor="#ffffff"
     bordercolor="#666666"
     borderopacity="1.0"
     inkscape:pageopacity="0.0"
     inkscape:pageshadow="2"
     inkscape:zoom="8.0000001"
     inkscape:cx="37.742124"
     inkscape:cy="14.471051"
     inkscape:document-units="px"
     inkscape:current-layer="layer1"
     showgrid="false"
     inkscape:window-width="1280"
     inkscape:window-height="714"
     inkscape:window-x="0"
     inkscape:window-y="25"
     inkscape:window-maximized="1"
     showguides="true"
     inkscape:guide-bbox="true" />
  <metadata
     id="metadata7">
    <rdf:RDF>
      <cc:Work
         rdf:about="">
        <dc:format>image/svg+xml</dc:format>
        <dc:type
           rdf:resource="http://purl.org/dc/dcmitype/StillImage" />
        <dc:title />
      </cc:Work>
    </rdf:RDF>
  </metadata>
  <g
     inkscape:label="Livello 1"
     inkscape:groupmode="layer"
     id="layer1"
     transform="translate(0,-1004.3622)">
    <g
       id="g4057"
       transform="matrix(0.75899814,0.16397777,-0.16397777,0.75899814,178.51601,240.62024)">
      <rect
         style="fill:#aaaaaa;fill-opacity:1;stroke:none"
         id="rect3796"
         width="44"
         height="30"
         x="2.6731868"
         y="1015.021" />
      <rect
         y="1015.521"
         x="3.1731868"
         height="29"
         width="43"
         id="rect3798"
         style="fill:url(#linearGradient4395);fill-opacity:1;stroke:none" />
      <path
         style="fill:#969696;fill-opacity:0.78431373;stroke:none"
         d="m 3.1731867,1043.8066 43.0000003,0 -18.749857,-15.8567 c -0.924238,-0.5336 -1.576185,-1.0004 -2.750143,-1.0004 -1.321689,0.09 -1.936768,0.3128 -2.749857,1.0004 l -18.7501433,15.8567 z"
         id="path3800"
         sodipodi:nodetypes="cccccc" />
      <path
         sodipodi:nodetypes="cccccc"
         id="path3802"
         d="m 3.1731867,1044.521 43.0000003,0 -18.749857,-15.8567 c -0.924238,-0.5336 -1.576185,-1.0004 -2.750143,-1.0004 -1.321689,0.09 -1.936768,0.3128 -2.749857,1.0004 L 3.1731867,1044.521 z"
         style="fill:url(#linearGradient4397);fill-opacity:1;stroke:none" />
      <path
         id="path3804"
         d="m 3.4075617,1044.4205 0.1875,-0.1563 0.0625,-0.031 18.2812503,-15.4688 c 0.804872,-0.6805 1.418808,-0.9113 2.71875,-1 l 0.03125,0 c 1.172678,0 1.820046,0.4812 2.71875,1 l 0.03125,0 18.25,15.4688 0.0625,0.031 0.1875,0.1563 -0.25,0 -0.0625,0 -41.8750003,0 -0.09375,0 -0.25,0 z m 0.5625,-0.1875 41.4375003,0 -18.09375,-15.3125 c -0.906984,-0.5236 -1.504112,-0.9687 -2.625,-0.9687 -1.282246,0.087 -1.841336,0.3061 -2.625,0.9687 L 3.9700617,1044.233 z"
         style="font-size:medium;font-style:normal;font-variant:normal;font-weight:normal;font-stretch:normal;text-indent:0;text-align:start;text-decoration:none;line-height:normal;letter-spacing:normal;word-spacing:normal;text-transform:none;direction:ltr;block-progression:tb;writing-mode:lr-tb;text-anchor:start;color:#000000;fill:url(#linearGradient4399);fill-opacity:1;stroke:none;stroke-width:0.19537036;marker:none;visibility:visible;display:inline;overflow:visible;enable-background:accumulate;font-family:'A.C.M.E. Secret Agent';-inkscape-font-specification:'A.C.M.E. Secret Agent'" />
      <rect
         transform="scale(-1,1)"
         style="fill:#ffffff;fill-opacity:1;stroke:none"
         id="rect3950"
         width="2"
         height="29"
         x="-46.173187"
         y="1015.521" />
      <rect
         y="1045.8221"
         x="-55.227921"
         height="2"
         width="2.3922074"
         id="rect3952"
         style="fill:#c80100;fill-opacity:1;stroke:none"
         transform="matrix(-0.83604791,0.54865644,0,1,0,0)" />
      <rect
         transform="matrix(-0.83604791,0.54865644,0,1,0,0)"
         style="fill:#c80100;fill-opacity:1;stroke:none"
         id="rect3954"
         width="2.3922074"
         height="2"
         x="-55.227921"
         y="1049.8221" />
      <rect
         y="1053.8221"
         x="-55.227921"
         height="2"
         width="2.3922074"
         id="rect3956"
         style="fill:#5785a6;fill-opacity:1;stroke:none"
         transform="matrix(-0.83604791,0.54865644,0,1,0,0)" />
      <rect
         transform="matrix(-0.83604791,0.54865644,0,1,0,0)"
         style="fill:#c80100;fill-opacity:1;stroke:none"
         id="rect3958"
         width="2.3922074"
         height="2"
         x="-55.227921"
         y="1057.8221" />
      <rect
         y="1061.8221"
         x="-55.227921"
         height="2"
         width="2.3922074"
         id="rect3960"
         style="fill:#5785a6;fill-opacity:1;stroke:none"
         transform="matrix(-0.83604791,0.54865644,0,1,0,0)" />
      <rect
         transform="matrix(-0.83604791,0.54865644,0,1,0,0)"
         style="fill:#c80100;fill-opacity:1;stroke:none"
         id="rect3962"
         width="2.3922074"
         height="2"
         x="-55.227921"
         y="1065.8221" />
      <rect
         y="1069.8221"
         x="-55.227921"
         height="2"
         width="2.3922074"
         id="rect3964"
         style="fill:#5785a6;fill-opacity:1;stroke:none"
         transform="matrix(-0.83604791,0.54865644,0,1,0,0)" />
      <g
         transform="matrix(-1,0,0,-1,49.346517,2060.0417)"
         id="g4033">
        <rect
           y="1015.5207"
           x="3.1732583"
           height="2"
           width="43"
           id="rect4035"
           style="fill:#ffffff;fill-opacity:1;stroke:none" />
        <rect
           transform="matrix(-0.54865644,0.83604791,-1,0,0,0)"
           style="fill:#5785a6;fill-opacity:1;stroke:none"
           id="rect4037"
           width="2.3922074"
           height="2"
           x="1214.6681"
           y="-675.20239" />
        <rect
           y="-679.20239"
           x="1214.6681"
           height="2"
           width="2.3922074"
           id="rect4039"
           style="fill:#c80100;fill-opacity:1;stroke:none"
           transform="matrix(-0.54865644,0.83604791,-1,0,0,0)" />
        <rect
           transform="matrix(-0.54865644,0.83604791,-1,0,0,0)"
           style="fill:#5785a6;fill-opacity:1;stroke:none"
           id="rect4041"
           width="2.3922074"
           height="2"
           x="1214.6681"
           y="-683.20239" />
        <rect
           y="-687.20239"
           x="1214.6681"
           height="2"
           width="2.3922074"
           id="rect4043"
           style="fill:#c80100;fill-opacity:1;stroke:none"
           transform="matrix(-0.54865644,0.83604791,-1,0,0,0)" />
        <rect
           transform="matrix(-0.54865644,0.83604791,-1,0,0,0)"
           style="fill:#5785a6;fill-opacity:1;stroke:none"
           id="rect4045"
           width="2.3922074"
           height="2"
           x="1214.6681"
           y="-691.20239" />
        <rect
           y="-695.20239"
           x="1214.6681"
           height="2"
           width="2.3922074"
           id="rect4047"
           style="fill:#c80100;fill-opacity:1;stroke:none"
           transform="matrix(-0.54865644,0.83604791,-1,0,0,0)" />
        <rect
           transform="matrix(-0.54865644,0.83604791,-1,0,0,0)"
           style="fill:#5785a6;fill-opacity:1;stroke:none"
           id="rect4049"
           width="2.3922074"
           height="2"
           x="1214.6681"
           y="-699.20239" />
        <rect
           y="-703.20239"
           x="1214.6681"
           height="2"
           width="2.3922074"
           id="rect4051"
           style="fill:#c80100;fill-opacity:1;stroke:none"
           transform="matrix(-0.54865644,0.83604791,-1,0,0,0)" />
        <rect
           transform="matrix(-0.54865644,0.83604791,-1,0,0,0)"
           style="fill:#5785a6;fill-opacity:1;stroke:none"
           id="rect4053"
           width="2.3922074"
           height="2"
           x="1214.6681"
           y="-707.20239" />
        <rect
           y="-711.20239"
           x="1214.6681"
           height="2"
           width="2.3922074"
           id="rect4055"
           style="fill:#c80100;fill-opacity:1;stroke:none"
           transform="matrix(-0.54865644,0.83604791,-1,0,0,0)" />
      </g>
      <path
         style="fill:#c80100;fill-opacity:1;stroke:none"
         d="m 46.158874,1043.5185 0,1 -1.53125,0 1.53125,-1 z"
         id="path3966" />
      <rect
         y="1015.521"
         x="3.1731868"
         height="29"
         width="2"
         id="rect3884"
         style="fill:#ffffff;fill-opacity:1;stroke:none" />
      <rect
         transform="matrix(0.83604791,0.54865644,0,1,0,0)"
         style="fill:#c80100;fill-opacity:1;stroke:none"
         id="rect3888"
         width="2.3922074"
         height="2"
         x="3.7954605"
         y="1013.4386" />
      <rect
         y="1017.4386"
         x="3.7954605"
         height="2"
         width="2.3922074"
         id="rect3890"
         style="fill:#5785a6;fill-opacity:1;stroke:none"
         transform="matrix(0.83604791,0.54865644,0,1,0,0)" />
      <rect
         transform="matrix(0.83604791,0.54865644,0,1,0,0)"
         style="fill:#c80100;fill-opacity:1;stroke:none"
         id="rect3892"
         width="2.3922074"
         height="2"
         x="3.7954605"
         y="1021.4386" />
      <rect
         y="1025.4386"
         x="3.7954605"
         height="2"
         width="2.3922074"
         id="rect3894"
         style="fill:#5785a6;fill-opacity:1;stroke:none"
         transform="matrix(0.83604791,0.54865644,0,1,0,0)" />
      <rect
         transform="matrix(0.83604791,0.54865644,0,1,0,0)"
         style="fill:#c80100;fill-opacity:1;stroke:none"
         id="rect3896"
         width="2.3922074"
         height="2"
         x="3.7954605"
         y="1029.4386" />
      <rect
         y="1033.4386"
         x="3.7954605"
         height="2"
         width="2.3922074"
         id="rect3898"
         style="fill:#5785a6;fill-opacity:1;stroke:none"
         transform="matrix(0.83604791,0.54865644,0,1,0,0)" />
      <rect
         transform="matrix(0.83604791,0.54865644,0,1,0,0)"
         style="fill:#c80100;fill-opacity:1;stroke:none"
         id="rect3900"
         width="2.3922074"
         height="2"
         x="3.7954605"
         y="1037.4386" />
      <path
         id="rect3902"
         d="m 3.1875,1043.5185 0,1 1.53125,0 -1.53125,-1 z"
         style="fill:#5785a6;fill-opacity:1;stroke:none" />
      <path
         sodipodi:nodetypes="cccccccc"
         id="path3806"
         d="m 3.1731867,1018.8647 1.429e-4,-2.8128 43.0000004,-2e-4 -1.43e-4,2.8128 -18.749857,13.0442 c -0.924238,0.5336 -1.576185,1.0004 -2.750143,1.0004 -1.321689,-0.09 -1.936768,-0.3128 -2.749857,-1.0004 l -18.7501433,-13.044 z"
         style="fill:#333333;fill-opacity:0.78431373;stroke:none" />
      <path
         style="fill:url(#linearGradient4401);fill-opacity:1;stroke:none"
         d="m 3.1731867,1018.3337 1.429e-4,-2.8128 43.0000004,-2e-4 -1.43e-4,2.8128 -18.749857,13.0442 c -0.924238,0.5336 -1.576185,1.0004 -2.750143,1.0004 -1.321689,-0.09 -1.936768,-0.3128 -2.749857,-1.0004 l -18.7501433,-13.044 z"
         id="path3808"
         sodipodi:nodetypes="cccccccc" />
      <path
         sodipodi:nodetypes="cccccccc"
         id="path3810"
         d="m 3.6709547,1018.6776 1.396e-4,-2.6459 41.9998607,-2e-4 -1.4e-4,2.6459 -18.313753,12.2701 c -0.902741,0.5019 -1.539524,0.941 -2.686177,0.941 -1.290948,-0.085 -1.89172,-0.2942 -2.685898,-0.941 L 3.6709547,1018.6776 z"
         style="fill:none;stroke:url(#linearGradient4403);stroke-width:0.30000001;stroke-miterlimit:4;stroke-opacity:1;stroke-dasharray:none" />
      <g
         id="g4020">
        <rect
           style="fill:#ffffff;fill-opacity:1;stroke:none"
           id="rect3978"
           width="43"
           height="2"
           x="3.1732583"
           y="1015.5207" />
        <rect
           y="-675.20239"
           x="1214.6681"
           height="2"
           width="2.3922074"
           id="rect3989"
           style="fill:#5785a6;fill-opacity:1;stroke:none"
           transform="matrix(-0.54865644,0.83604791,-1,0,0,0)" />
        <rect
           transform="matrix(-0.54865644,0.83604791,-1,0,0,0)"
           style="fill:#c80100;fill-opacity:1;stroke:none"
           id="rect3991"
           width="2.3922074"
           height="2"
           x="1214.6681"
           y="-679.20239" />
        <rect
           y="-683.20239"
           x="1214.6681"
           height="2"
           width="2.3922074"
           id="rect3993"
           style="fill:#5785a6;fill-opacity:1;stroke:none"
           transform="matrix(-0.54865644,0.83604791,-1,0,0,0)" />
        <rect
           transform="matrix(-0.54865644,0.83604791,-1,0,0,0)"
           style="fill:#c80100;fill-opacity:1;stroke:none"
           id="rect3995"
           width="2.3922074"
           height="2"
           x="1214.6681"
           y="-687.20239" />
        <rect
           y="-691.20239"
           x="1214.6681"
           height="2"
           width="2.3922074"
           id="rect3997"
           style="fill:#5785a6;fill-opacity:1;stroke:none"
           transform="matrix(-0.54865644,0.83604791,-1,0,0,0)" />
        <rect
           transform="matrix(-0.54865644,0.83604791,-1,0,0,0)"
           style="fill:#c80100;fill-opacity:1;stroke:none"
           id="rect3999"
           width="2.3922074"
           height="2"
           x="1214.6681"
           y="-695.20239" />
        <rect
           y="-699.20239"
           x="1214.6681"
           height="2"
           width="2.3922074"
           id="rect4001"
           style="fill:#5785a6;fill-opacity:1;stroke:none"
           transform="matrix(-0.54865644,0.83604791,-1,0,0,0)" />
        <rect
           transform="matrix(-0.54865644,0.83604791,-1,0,0,0)"
           style="fill:#c80100;fill-opacity:1;stroke:none"
           id="rect4003"
           width="2.3922074"
           height="2"
           x="1214.6681"
           y="-703.20239" />
        <rect
           y="-707.20239"
           x="1214.6681"
           height="2"
           width="2.3922074"
           id="rect4005"
           style="fill:#5785a6;fill-opacity:1;stroke:none"
           transform="matrix(-0.54865644,0.83604791,-1,0,0,0)" />
        <rect
           transform="matrix(-0.54865644,0.83604791,-1,0,0,0)"
           style="fill:#c80100;fill-opacity:1;stroke:none"
           id="rect4007"
           width="2.3922074"
           height="2"
           x="1214.6681"
           y="-711.20239" />
      </g>
      <g
         id="g3968">
        <path
           style="fill:#ffffff;fill-opacity:1;stroke:none"
           d="m 3.1731868,1015.521 2,0 0,4.1797 -2,-1.375 0,-2.8047 z"
           id="rect3920"
           sodipodi:nodetypes="ccccc" />
        <rect
           transform="matrix(0.83604791,0.54865644,0,1,0,0)"
           style="fill:#c80100;fill-opacity:1;stroke:none"
           id="rect3922"
           width="2.3922074"
           height="2"
           x="3.7954605"
           y="1013.4386" />
      </g>
      <path
         style="fill:#ffffff;fill-opacity:1;stroke:none"
         d="m 46.17333,1015.521 -2,0 0,4.1797 2,-1.375 0,-2.8047 z"
         id="path3974"
         sodipodi:nodetypes="ccccc" />
      <rect
         transform="matrix(-0.83604791,0.54865644,0,1,0,0)"
         style="fill:#5785a6;fill-opacity:1;stroke:none"
         id="rect3976"
         width="2.3922074"
         height="2"
         x="-55.228092"
         y="1045.8223" />
    </g>
    <g
       id="g3200"
       transform="matrix(0.9625046,-0.27126535,0.27126535,0.9625046,-323.88177,58.682803)">
      <rect
         transform="matrix(0.97744872,0.21117293,-0.21117293,0.97744872,0,0)"
         y="975.30444"
         x="267.82098"
         height="23.295282"
         width="34.166416"
         id="rect3013"
         style="fill:#aaaaaa;fill-opacity:1;stroke:none" />
      <rect
         transform="matrix(0.97744872,0.21117293,-0.21117293,0.97744872,0,0)"
         style="fill:url(#linearGradient3210);fill-opacity:1;stroke:none"
         id="rect3015"
         width="33.389904"
         height="22.518774"
         x="268.20923"
         y="975.69275" />
      <path
         sodipodi:nodetypes="cccccc"
         id="path3017"
         d="m 51.482674,1031.7968 32.63692,7.0511 -11.63096,-15.1098 c -0.613996,-0.5565 -1.032278,-1.0177 -1.92331,-1.2102 -1.017917,-0.1485 -1.521295,-0.08 -2.25118,0.3084 l -16.83147,8.9605 z"
         style="fill:#969696;fill-opacity:0.78431373;stroke:none" />
      <path
         style="fill:url(#linearGradient3212);fill-opacity:1;stroke:none"
         d="m 51.365529,1032.3391 32.63692,7.051 -11.630961,-15.1097 c -0.613996,-0.5566 -1.032278,-1.0178 -1.92331,-1.2103 -1.017917,-0.1484 -1.521295,-0.08 -2.251179,0.3084 l -16.83147,8.9606 z"
         id="path3019"
         sodipodi:nodetypes="cccccc" />
      <path
         style="font-size:medium;font-style:normal;font-variant:normal;font-weight:normal;font-stretch:normal;text-indent:0;text-align:start;text-decoration:none;line-height:normal;letter-spacing:normal;word-spacing:normal;text-transform:none;direction:ltr;block-progression:tb;writing-mode:lr-tb;text-anchor:start;color:#000000;fill:url(#linearGradient3214);fill-opacity:1;stroke:none;stroke-width:0.19537036;marker:none;visibility:visible;display:inline;overflow:visible;enable-background:accumulate;font-family:'A.C.M.E. Secret Agent';-inkscape-font-specification:'A.C.M.E. Secret Agent'"
         d="m 51.559898,1032.3012 0.167942,-0.088 0.05252,-0.013 16.411974,-8.7431 c 0.722484,-0.3845 1.226306,-0.459 2.227504,-0.3132 l 0.02372,0.01 c 0.89006,0.1923 1.302505,0.6637 1.899548,1.2048 l 0.02372,0.01 11.315177,14.7334 0.04235,0.034 0.116682,0.1494 -0.189749,-0.041 -0.04744,-0.01 -31.783047,-6.8666 -0.07116,-0.015 -0.18975,-0.041 z m 0.457683,-0.05 31.450985,6.7948 -11.222213,-14.5891 c -0.60254,-0.5462 -0.982773,-0.9819 -1.833524,-1.1657 -0.987489,-0.1443 -1.447765,-0.07 -2.151216,0.3048 l -16.244032,8.6552 z"
         id="path3021" />
      <path
         style="fill:#333333;fill-opacity:0.78431373;stroke:none"
         d="m 55.572591,1012.866 0.461345,-2.1349 32.636954,7.0509 -0.461346,2.1349 -16.370065,6.826 c -0.788993,0.2534 -1.360365,0.5008 -2.251397,0.3083 -0.988401,-0.285 -1.418711,-0.555 -1.923093,-1.2102 l -12.092398,-12.975 z"
         id="path3083"
         sodipodi:nodetypes="cccccccc" />
      <path
         sodipodi:nodetypes="cccccccc"
         id="path3085"
         d="m 55.659664,1012.463 0.461345,-2.1349 32.636953,7.0509 -0.461345,2.1349 -16.370066,6.8259 c -0.788993,0.2535 -1.360365,0.5009 -2.251397,0.3084 -0.988401,-0.2851 -1.418711,-0.555 -1.923093,-1.2103 L 55.659664,1012.463 z"
         style="fill:url(#linearGradient3216);fill-opacity:1;stroke:none" />
      <path
         style="fill:none;stroke:url(#linearGradient3218);stroke-width:0.23295283;stroke-miterlimit:4;stroke-opacity:1;stroke-dasharray:none"
         d="m 55.981077,1012.8056 0.433974,-2.0082 31.877849,6.8869 -0.433975,2.0082 -15.912128,6.3099 c -0.767479,0.2329 -1.322799,0.4618 -2.193106,0.2738 -0.965889,-0.2762 -1.38757,-0.5335 -1.884289,-1.1547 l -11.888325,-12.3159 z"
         id="path3087"
         sodipodi:nodetypes="cccccccc" />
    </g>
    <g
       id="g3849"
       transform="matrix(0.76873905,-0.10957727,0.10957727,0.76873905,-112.15745,243.64796)">
      <rect
         y="1013.0765"
         x="2.1428571"
         height="30"
         width="44"
         id="rect2830"
         style="fill:#aaaaaa;fill-opacity:1;stroke:none" />
      <rect
         style="fill:url(#linearGradient4415);fill-opacity:1;stroke:none"
         id="rect3604"
         width="43"
         height="29"
         x="2.6428571"
         y="1013.5765" />
      <path
         sodipodi:nodetypes="cccccc"
         id="path3639"
         d="m 2.6428571,1041.8621 42.9999999,0 L 26.893,1026.0054 c -0.924238,-0.5336 -1.576185,-1.0004 -2.750143,-1.0004 -1.321689,0.09 -1.936768,0.3128 -2.749857,1.0004 l -18.7501429,15.8567 z"
         style="fill:#969696;fill-opacity:0.78431373;stroke:none" />
      <path
         style="fill:url(#linearGradient4417);fill-opacity:1;stroke:none"
         d="m 2.6428571,1042.5765 42.9999999,0 L 26.893,1026.7198 c -0.924238,-0.5336 -1.576185,-1.0004 -2.750143,-1.0004 -1.321689,0.09 -1.936768,0.3128 -2.749857,1.0004 l -18.7501429,15.8567 z"
         id="path3617"
         sodipodi:nodetypes="cccccc" />
      <path
         style="font-size:medium;font-style:normal;font-variant:normal;font-weight:normal;font-stretch:normal;text-indent:0;text-align:start;text-decoration:none;line-height:normal;letter-spacing:normal;word-spacing:normal;text-transform:none;direction:ltr;block-progression:tb;writing-mode:lr-tb;text-anchor:start;color:#000000;fill:url(#linearGradient4419);fill-opacity:1;stroke:none;stroke-width:0.19537036;marker:none;visibility:visible;display:inline;overflow:visible;enable-background:accumulate;font-family:'A.C.M.E. Secret Agent';-inkscape-font-specification:'A.C.M.E. Secret Agent'"
         d="m 2.8772321,1042.476 0.1875,-0.1563 0.0625,-0.031 18.2812499,-15.4688 c 0.804872,-0.6805 1.418808,-0.9113 2.71875,-1 l 0.03125,0 c 1.172678,0 1.820046,0.4812 2.71875,1 l 0.03125,0 18.25,15.4688 0.0625,0.031 0.1875,0.1563 -0.25,0 -0.0625,0 -41.8749999,0 -0.09375,0 -0.25,0 z m 0.5625,-0.1875 41.4374999,0 -18.09375,-15.3125 c -0.906984,-0.5236 -1.504112,-0.9687 -2.625,-0.9687 -1.282246,0.087 -1.841336,0.3061 -2.625,0.9687 l -18.0937499,15.3125 z"
         id="path3677" />
      <path
         sodipodi:nodetypes="cccccccc"
         id="rect3614"
         d="m 2.6428571,1016.3892 1.429e-4,-2.8128 43,-2e-4 -1.43e-4,2.8128 -18.749857,13.0442 c -0.924238,0.5336 -1.576185,1.0004 -2.750143,1.0004 -1.321689,-0.09 -1.936768,-0.3128 -2.749857,-1.0004 l -18.7501429,-13.044 z"
         style="fill:url(#linearGradient4421);fill-opacity:1;stroke:none" />
      <path
         style="fill:none;stroke:url(#linearGradient4423);stroke-width:0.30000001;stroke-miterlimit:4;stroke-opacity:1;stroke-dasharray:none"
         d="m 3.1406251,1016.7331 1.396e-4,-2.6459 41.9998603,-2e-4 -1.4e-4,2.6459 -18.313753,12.2701 c -0.902741,0.5019 -1.539524,0.941 -2.686177,0.941 -1.290948,-0.085 -1.89172,-0.2942 -2.685898,-0.941 L 3.1406251,1016.7331 z"
         id="path3769"
         sodipodi:nodetypes="cccccccc" />
      <rect
         style="fill:#c80100;fill-opacity:1;stroke:none"
         id="rect2903"
         width="5"
         height="29"
         x="40.642857"
         y="1013.5762" />
      <rect
         y="1013.5762"
         x="2.6428571"
         height="29"
         width="5"
         id="rect3835"
         style="fill:#c80100;fill-opacity:1;stroke:none" />
      <rect
         inkscape:transform-center-y="14.5"
         inkscape:transform-center-x="-2.5"
         style="fill:#c80100;fill-opacity:1;stroke:none"
         id="rect3839"
         width="5"
         height="29"
         x="2.6428571"
         y="1013.5762" />
      <path
         sodipodi:nodetypes="cccccccccccc"
         id="path3847"
         d="m 2.6428571,1017.0142 1.429e-4,-2.8128 5.0025921,-1e-4 13.7294079,9.8124 c 1.889304,1.3503 3.495899,1.4267 5.5,0 l 13.78364,-9.8125 4.98436,0 -1.43e-4,2.8128 -18.749857,13.0442 c -0.924238,0.5336 -1.576185,1.0004 -2.750143,1.0004 -1.321689,-0.09 -1.936768,-0.3128 -2.749857,-1.0004 l -18.7501429,-13.044 z"
         style="fill:#333333;fill-opacity:0.78431373;stroke:none" />
      <path
         style="fill:#c80100;fill-opacity:1;stroke:none"
         d="m 2.6428571,1016.3892 1.429e-4,-2.8128 5.0025921,-1e-4 13.7294079,9.8124 c 1.889304,1.3503 3.495899,1.4267 5.5,0 l 13.78364,-9.8125 4.98436,0 -1.43e-4,2.8128 -18.749857,13.0442 c -0.924238,0.5336 -1.576185,1.0004 -2.750143,1.0004 -1.321689,-0.09 -1.936768,-0.3128 -2.749857,-1.0004 l -18.7501429,-13.044 z"
         id="path3841"
         sodipodi:nodetypes="cccccccccccc" />
    </g>
  </g>
</svg>
