<?xml version="1.0" encoding="UTF-8" standalone="no"?>
<!-- Created with Inkscape (http://www.inkscape.org/) -->

<svg
   xmlns:dc="http://purl.org/dc/elements/1.1/"
   xmlns:cc="http://creativecommons.org/ns#"
   xmlns:rdf="http://www.w3.org/1999/02/22-rdf-syntax-ns#"
   xmlns:svg="http://www.w3.org/2000/svg"
   xmlns="http://www.w3.org/2000/svg"
   xmlns:xlink="http://www.w3.org/1999/xlink"
   xmlns:sodipodi="http://sodipodi.sourceforge.net/DTD/sodipodi-0.dtd"
   xmlns:inkscape="http://www.inkscape.org/namespaces/inkscape"
   width="48"
   height="48"
   id="svg3052"
   version="1.1"
   inkscape:version="0.47pre4 r22446"
   sodipodi:docname="emblem-video.svg"
   inkscape:export-filename="/home/andrea/Documenti/MeliaeSVG/48/apps/png/totem.png"
   inkscape:export-xdpi="240"
   inkscape:export-ydpi="240">
  <defs
     id="defs3054">
    <linearGradient
       id="linearGradient4663">
      <stop
         style="stop-color:#787878;stop-opacity:1;"
         offset="0"
         id="stop4665" />
      <stop
         style="stop-color:#b4b4b4;stop-opacity:1;"
         offset="1"
         id="stop4667" />
    </linearGradient>
    <linearGradient
       id="linearGradient4366">
      <stop
         style="stop-color:#ffffff;stop-opacity:1;"
         offset="0"
         id="stop4368" />
      <stop
         style="stop-color:#a4c0c6;stop-opacity:1;"
         offset="1"
         id="stop4370" />
    </linearGradient>
    <linearGradient
       id="linearGradient4358">
      <stop
         style="stop-color:#000000;stop-opacity:1;"
         offset="0"
         id="stop4360" />
      <stop
         style="stop-color:#000000;stop-opacity:0;"
         offset="1"
         id="stop4362" />
    </linearGradient>
    <linearGradient
       id="linearGradient4346">
      <stop
         style="stop-color:#4b4a57;stop-opacity:1;"
         offset="0"
         id="stop4348" />
      <stop
         style="stop-color:#000000;stop-opacity:1;"
         offset="1"
         id="stop4350" />
    </linearGradient>
    <inkscape:perspective
       sodipodi:type="inkscape:persp3d"
       inkscape:vp_x="0 : 526.18109 : 1"
       inkscape:vp_y="0 : 1000 : 0"
       inkscape:vp_z="744.09448 : 526.18109 : 1"
       inkscape:persp3d-origin="372.04724 : 350.78739 : 1"
       id="perspective3060" />
    <radialGradient
       inkscape:collect="always"
       xlink:href="#linearGradient4346"
       id="radialGradient4352"
       cx="9.5535698"
       cy="1011.6878"
       fx="9.5535698"
       fy="1011.6878"
       r="19.910715"
       gradientTransform="matrix(1.6412741e-7,2.2781844,-2.3775704,1.9026356e-7,2414.937,992.11196)"
       gradientUnits="userSpaceOnUse" />
    <linearGradient
       inkscape:collect="always"
       xlink:href="#linearGradient4358"
       id="linearGradient4364"
       x1="7.5761442"
       y1="1010.0824"
       x2="7.5761442"
       y2="1012.0848"
       gradientUnits="userSpaceOnUse"
       gradientTransform="translate(10.925673,12.029785)" />
    <linearGradient
       inkscape:collect="always"
       xlink:href="#linearGradient4366"
       id="linearGradient4372"
       x1="24.107143"
       y1="1010.6623"
       x2="29.586201"
       y2="1032.8856"
       gradientUnits="userSpaceOnUse"
       gradientTransform="translate(0,2)" />
    <linearGradient
       inkscape:collect="always"
       xlink:href="#linearGradient4358"
       id="linearGradient4564"
       gradientUnits="userSpaceOnUse"
       gradientTransform="matrix(0.98256626,-0.18591271,-0.18591271,-0.98256626,189.06188,2018.1982)"
       x1="21.960569"
       y1="1020.1122"
       x2="21.960569"
       y2="1016.1083" />
    <filter
       inkscape:collect="always"
       id="filter4568"
       x="-0.033037974"
       width="1.0660759"
       y="-0.32625002"
       height="1.6525">
      <feGaussianBlur
         inkscape:collect="always"
         stdDeviation="0.5825893"
         id="feGaussianBlur4570" />
    </filter>
    <linearGradient
       inkscape:collect="always"
       xlink:href="#linearGradient4366"
       id="linearGradient4619"
       gradientUnits="userSpaceOnUse"
       gradientTransform="translate(-189.33232,-2017.1366)"
       x1="24.107143"
       y1="1010.6623"
       x2="29.586201"
       y2="1032.8856" />
    <linearGradient
       inkscape:collect="always"
       xlink:href="#linearGradient4346"
       id="linearGradient4655"
       x1="6.8412118"
       y1="1014.1122"
       x2="6.8412118"
       y2="1022.1122"
       gradientUnits="userSpaceOnUse"
       gradientTransform="matrix(1,0,0,1.2209709,0,-224.08925)" />
    <linearGradient
       inkscape:collect="always"
       xlink:href="#linearGradient4663"
       id="linearGradient3644"
       gradientUnits="userSpaceOnUse"
       x1="4.7767859"
       y1="16.950893"
       x2="5.7142859"
       y2="16.950893" />
    <linearGradient
       inkscape:collect="always"
       xlink:href="#linearGradient4346"
       id="linearGradient3646"
       gradientUnits="userSpaceOnUse"
       x1="4.2133107"
       y1="1021.3056"
       x2="7.1468058"
       y2="1021.3056" />
    <linearGradient
       inkscape:collect="always"
       xlink:href="#linearGradient4663"
       id="linearGradient3654"
       gradientUnits="userSpaceOnUse"
       x1="4.7767859"
       y1="16.950893"
       x2="5.7142859"
       y2="16.950893" />
    <linearGradient
       inkscape:collect="always"
       xlink:href="#linearGradient4346"
       id="linearGradient3656"
       gradientUnits="userSpaceOnUse"
       x1="4.2133107"
       y1="1021.3056"
       x2="7.1468058"
       y2="1021.3056" />
    <linearGradient
       inkscape:collect="always"
       xlink:href="#linearGradient4663"
       id="linearGradient3664"
       gradientUnits="userSpaceOnUse"
       x1="4.7767859"
       y1="16.950893"
       x2="5.7142859"
       y2="16.950893" />
    <linearGradient
       inkscape:collect="always"
       xlink:href="#linearGradient4346"
       id="linearGradient3666"
       gradientUnits="userSpaceOnUse"
       x1="4.2133107"
       y1="1021.3056"
       x2="7.1468058"
       y2="1021.3056" />
    <filter
       inkscape:collect="always"
       id="filter3676"
       x="-0.090467703"
       width="1.1809354"
       y="-0.10225299"
       height="1.204506">
      <feGaussianBlur
         inkscape:collect="always"
         stdDeviation="0.20713048"
         id="feGaussianBlur3678" />
    </filter>
    <radialGradient
       inkscape:collect="always"
       xlink:href="#linearGradient4346"
       id="radialGradient3894"
       gradientUnits="userSpaceOnUse"
       gradientTransform="matrix(1.6412741e-7,2.2781844,-2.3775704,1.9026356e-7,2414.937,992.11196)"
       cx="9.5535698"
       cy="1011.6878"
       fx="9.5535698"
       fy="1011.6878"
       r="19.910715" />
    <linearGradient
       inkscape:collect="always"
       xlink:href="#linearGradient4366"
       id="linearGradient3896"
       gradientUnits="userSpaceOnUse"
       gradientTransform="translate(0,2)"
       x1="24.107143"
       y1="1010.6623"
       x2="29.586201"
       y2="1032.8856" />
    <linearGradient
       inkscape:collect="always"
       xlink:href="#linearGradient4358"
       id="linearGradient3898"
       gradientUnits="userSpaceOnUse"
       gradientTransform="translate(10.925673,12.029785)"
       x1="7.5761442"
       y1="1010.0824"
       x2="7.5761442"
       y2="1012.0848" />
    <linearGradient
       inkscape:collect="always"
       xlink:href="#linearGradient4358"
       id="linearGradient3900"
       gradientUnits="userSpaceOnUse"
       gradientTransform="matrix(0.98256626,-0.18591271,-0.18591271,-0.98256626,189.06188,2018.1982)"
       x1="21.960569"
       y1="1020.1122"
       x2="21.960569"
       y2="1016.1083" />
    <linearGradient
       inkscape:collect="always"
       xlink:href="#linearGradient4366"
       id="linearGradient3902"
       gradientUnits="userSpaceOnUse"
       gradientTransform="translate(-189.33232,-2017.1366)"
       x1="24.107143"
       y1="1010.6623"
       x2="29.586201"
       y2="1032.8856" />
    <linearGradient
       inkscape:collect="always"
       xlink:href="#linearGradient4346"
       id="linearGradient3904"
       gradientUnits="userSpaceOnUse"
       gradientTransform="matrix(1,0,0,1.2209709,0,-224.08925)"
       x1="6.8412118"
       y1="1014.1122"
       x2="6.8412118"
       y2="1022.1122" />
    <linearGradient
       inkscape:collect="always"
       xlink:href="#linearGradient4663"
       id="linearGradient3906"
       gradientUnits="userSpaceOnUse"
       x1="4.7767859"
       y1="16.950893"
       x2="5.7142859"
       y2="16.950893" />
    <linearGradient
       inkscape:collect="always"
       xlink:href="#linearGradient4346"
       id="linearGradient3908"
       gradientUnits="userSpaceOnUse"
       x1="4.2133107"
       y1="1021.3056"
       x2="7.1468058"
       y2="1021.3056" />
    <linearGradient
       inkscape:collect="always"
       xlink:href="#linearGradient4663"
       id="linearGradient3910"
       gradientUnits="userSpaceOnUse"
       x1="4.7767859"
       y1="16.950893"
       x2="5.7142859"
       y2="16.950893" />
    <linearGradient
       inkscape:collect="always"
       xlink:href="#linearGradient4346"
       id="linearGradient3912"
       gradientUnits="userSpaceOnUse"
       x1="4.2133107"
       y1="1021.3056"
       x2="7.1468058"
       y2="1021.3056" />
    <linearGradient
       inkscape:collect="always"
       xlink:href="#linearGradient4663"
       id="linearGradient3914"
       gradientUnits="userSpaceOnUse"
       x1="4.7767859"
       y1="16.950893"
       x2="5.7142859"
       y2="16.950893" />
    <linearGradient
       inkscape:collect="always"
       xlink:href="#linearGradient4346"
       id="linearGradient3916"
       gradientUnits="userSpaceOnUse"
       x1="4.2133107"
       y1="1021.3056"
       x2="7.1468058"
       y2="1021.3056" />
    <linearGradient
       inkscape:collect="always"
       xlink:href="#linearGradient4346"
       id="linearGradient2988"
       gradientUnits="userSpaceOnUse"
       gradientTransform="matrix(1,0,0,1.2209709,-0.1964281,-224.76729)"
       x1="6.8412118"
       y1="1014.1122"
       x2="6.8412118"
       y2="1022.1122" />
    <linearGradient
       inkscape:collect="always"
       xlink:href="#linearGradient4366"
       id="linearGradient3004"
       gradientUnits="userSpaceOnUse"
       gradientTransform="matrix(0.98256626,-0.18591271,-0.18591271,-0.98256626,188.78335,2016.4916)"
       x1="24.107143"
       y1="1010.6623"
       x2="29.586201"
       y2="1032.8856" />
    <linearGradient
       inkscape:collect="always"
       xlink:href="#linearGradient4358"
       id="linearGradient3007"
       gradientUnits="userSpaceOnUse"
       gradientTransform="matrix(0.98256626,-0.18591271,-0.18591271,-0.98256626,188.86545,2017.5202)"
       x1="21.960569"
       y1="1020.1122"
       x2="21.960569"
       y2="1016.1083" />
    <linearGradient
       inkscape:collect="always"
       xlink:href="#linearGradient4358"
       id="linearGradient3016"
       gradientUnits="userSpaceOnUse"
       gradientTransform="translate(10.729245,11.351743)"
       x1="7.5761442"
       y1="1010.0824"
       x2="7.5761442"
       y2="1012.0848" />
    <linearGradient
       inkscape:collect="always"
       xlink:href="#linearGradient4366"
       id="linearGradient3019"
       gradientUnits="userSpaceOnUse"
       gradientTransform="translate(-0.1964281,1.3219578)"
       x1="24.107143"
       y1="1010.6623"
       x2="29.586201"
       y2="1032.8856" />
    <radialGradient
       inkscape:collect="always"
       xlink:href="#linearGradient4346"
       id="radialGradient3022"
       gradientUnits="userSpaceOnUse"
       gradientTransform="matrix(1.6412741e-7,2.2781844,-2.3775704,1.9026356e-7,2414.7406,991.43392)"
       cx="9.5535698"
       cy="1011.6878"
       fx="9.5535698"
       fy="1011.6878"
       r="19.910715" />
  </defs>
  <sodipodi:namedview
     id="base"
     pagecolor="#ffffff"
     bordercolor="#666666"
     borderopacity="1.0"
     inkscape:pageopacity="0.0"
     inkscape:pageshadow="2"
     inkscape:zoom="11.313709"
     inkscape:cx="30.108144"
     inkscape:cy="8.3614038"
     inkscape:document-units="px"
     inkscape:current-layer="layer1"
     showgrid="false"
     inkscape:window-width="1280"
     inkscape:window-height="714"
     inkscape:window-x="0"
     inkscape:window-y="25"
     inkscape:window-maximized="1" />
  <metadata
     id="metadata3057">
    <rdf:RDF>
      <cc:Work
         rdf:about="">
        <dc:format>image/svg+xml</dc:format>
        <dc:type
           rdf:resource="http://purl.org/dc/dcmitype/StillImage" />
        <dc:title />
      </cc:Work>
    </rdf:RDF>
  </metadata>
  <g
     inkscape:label="Livello 1"
     inkscape:groupmode="layer"
     id="layer1"
     transform="translate(0,-1004.3622)">
    <path
       style="fill:#333333;fill-opacity:0.78431373;stroke:none;filter:url(#filter4568)"
       d="m 45.160715,1047.2197 c 0,1.1835 -9.473974,2.1429 -21.160715,2.1429 -11.68674,0 -21.1607149,-0.9594 -21.1607149,-2.1429 0,-1.1835 9.4739749,-2.1428 21.1607149,-2.1428 11.686741,0 21.160715,0.9593 21.160715,2.1428 z"
       id="path4566" />
    <path
       style="fill:url(#radialGradient3022);fill-opacity:1;stroke:none"
       d="m 3.9107148,1017.4342 40.0000002,0 0,30 -40.0000002,0 0,-30 z"
       id="rect3062" />
    <path
       style="fill:url(#linearGradient3019);fill-opacity:1;stroke:none"
       d="m 3.9107148,1017.4342 40.0000002,0 0,4 -40.0000002,0 0,-4 z"
       id="rect4354" />
    <path
       style="fill:url(#linearGradient3016);fill-opacity:1;stroke:none"
       d="m 3.9107148,1021.4342 40.0000002,0 0,2 -40.0000002,0 0,-2 z"
       id="rect4356" />
    <path
       style="fill:#000000;fill-opacity:1;stroke:none"
       d="m 23.33934,1017.4341 4,0 -2.857193,4.0001 -4,0 2.857193,-4.0001 z"
       id="rect4374" />
    <path
       style="fill:#000000;fill-opacity:1;stroke:none"
       d="m 33.33934,1017.4341 4,0 -2.857193,4.0001 -4,0 2.857193,-4.0001 z"
       id="rect4395" />
    <path
       style="fill:#000000;fill-opacity:1;stroke:none"
       d="m 43.348215,1017.4342 -2.875,4 3.4375,0 0,-4 -0.5625,0 z"
       id="rect4397" />
    <path
       style="fill:#000000;fill-opacity:1;stroke:none"
       d="m 13.33934,1017.4341 4,0 -2.857193,4.0001 -4,0 2.857193,-4.0001 z"
       id="rect4399" />
    <path
       style="fill:#000000;fill-opacity:1;stroke:none"
       d="m 3.9285719,1017.4342 0,4 0.5625,0 2.84375,-4 -3.40625,0 z"
       id="rect4401" />
    <path
       style="fill:#ffffff;fill-opacity:0.31372549;stroke:none"
       d="m 3.9107148,1017.4342 40.0000002,0 0,1 -40.0000002,0 0,-1 z"
       id="rect4456" />
    <path
       style="fill:url(#linearGradient3007);fill-opacity:1;stroke:none"
       d="m 3.992846,1018.3592 39.30265,-7.4365 -0.743645,-3.9303 -39.3026503,7.4365 0.7436453,3.9303 z"
       id="rect4544" />
    <path
       style="fill:url(#linearGradient3004);fill-opacity:1;stroke:none"
       d="m 3.9107283,1017.3305 39.3026507,-7.4365 -0.743649,-3.9303 -39.3026506,7.4365 0.7436489,3.9303 z"
       id="rect4458" />
    <path
       style="fill:#000000;fill-opacity:1;stroke:none"
       d="m 23.000582,1013.7185 3.930265,-0.7437 -3.550973,-3.3991 -3.930265,0.7437 3.550973,3.3991 z"
       id="rect4460" />
    <path
       style="fill:#000000;fill-opacity:1;stroke:none"
       d="m 32.826244,1011.8593 3.930265,-0.7436 -3.550972,-3.3991 -3.930265,0.7437 3.550972,3.399 z"
       id="rect4462" />
    <path
       id="path4464"
       d="m 42.660673,1009.9986 -3.568529,-3.3958 3.377572,-0.6391 0.743651,3.9303 -0.552694,0.1046 z"
       style="fill:#000000;fill-opacity:1;stroke:none" />
    <path
       style="fill:#000000;fill-opacity:1;stroke:none"
       d="m 13.174919,1015.5776 3.930265,-0.7437 -3.550972,-3.399 -3.9302655,0.7436 3.5509725,3.3991 z"
       id="rect4466" />
    <path
       id="path4468"
       d="m 3.9282614,1017.3272 -0.7436509,-3.9303 0.5526936,-0.1046 3.5378236,3.4016 -3.3468663,0.6333 z"
       style="fill:#000000;fill-opacity:1;stroke:none" />
    <path
       style="fill:#d1dfe2;fill-opacity:1;stroke:none"
       d="m 3.9107148,1025.3485 40.0000002,0 0,0.8 -40.0000002,0 0,-0.8 z"
       id="rect4593" />
    <path
       style="fill:#d1dfe2;fill-opacity:1;stroke:none"
       d="m 3.9107148,1035.3485 40.0000002,0 0,0.8 -40.0000002,0 0,-0.8 z"
       id="rect4595" />
    <path
       style="fill:#d1dfe2;fill-opacity:1;stroke:none"
       d="m 3.9107148,1041.3485 40.0000002,0 0,0.8 -40.0000002,0 0,-0.8 z"
       id="rect4597" />
    <path
       style="fill:#d1dfe2;fill-opacity:1;stroke:none"
       d="m 3.9107148,1044.1885 40.0000002,0 0,0.8 -40.0000002,0 0,-0.8 z"
       id="rect4599" />
    <path
       style="fill:#d1dfe2;fill-opacity:1;stroke:none"
       d="m 16.510714,1035.7485 0,-10.1786 0.8,0 0,10.1786 -0.8,0 z"
       id="rect4601" />
    <path
       style="fill:#d1dfe2;fill-opacity:1;stroke:none"
       d="m 30.510716,1035.7485 0,-10.1786 0.8,0 0,10.1786 -0.8,0 z"
       id="rect4603" />
    <path
       style="fill:#d1dfe2;fill-opacity:1;stroke:none"
       d="m 23.510716,1041.8288 0,-6.1607 0.8,0 0,6.1607 -0.8,0 z"
       id="rect4611" />
    <path
       id="path3674"
       d="m 3.8973219,1018.3404 0,4.8616 2.3844618,0 3.1104622,-4.8616 -5.494924,0 z"
       style="fill:#000000;fill-opacity:0.39215686;stroke:none;filter:url(#filter3676)"
       sodipodi:nodetypes="ccccc" />
    <path
       style="fill:url(#linearGradient2988);fill-opacity:1;stroke:none"
       d="m 3.8973219,1013.4342 0,4.9062 0,4.8616 1.6969618,0 1.0505001,-1.3503 2.7474621,-3.5113 -2.7474621,-3.5559 -1.0505001,-1.3503 -1.6969618,0 z"
       id="path4641" />
    <g
       id="g3640"
       transform="matrix(0.97158104,-0.23670717,0.23670717,0.97158104,-241.79995,31.083166)">
      <path
         transform="matrix(1.0666667,0,0,1.0666667,-0.42893783,1003.2246)"
         d="m 5.7142859,16.950893 c 0,0.258884 -0.2098666,0.46875 -0.46875,0.46875 -0.2588835,0 -0.46875,-0.209866 -0.46875,-0.46875 0,-0.258883 0.2098665,-0.46875 0.46875,-0.46875 0.2588834,0 0.46875,0.209867 0.46875,0.46875 z"
         sodipodi:ry="0.46875"
         sodipodi:rx="0.46875"
         sodipodi:cy="16.950893"
         sodipodi:cx="5.2455359"
         id="path4657"
         style="fill:url(#linearGradient3906);fill-opacity:1;stroke:none"
         sodipodi:type="arc" />
      <path
         id="path4671"
         d="m 4.6663006,1021.2306 0,0.15 1,0 0,-0.15 -1,0 z"
         style="font-size:medium;font-style:normal;font-variant:normal;font-weight:normal;font-stretch:normal;text-indent:0;text-align:start;text-decoration:none;line-height:normal;letter-spacing:normal;word-spacing:normal;text-transform:none;direction:ltr;block-progression:tb;writing-mode:lr-tb;text-anchor:start;color:#000000;fill:url(#linearGradient3908);fill-opacity:1;stroke:none;stroke-width:1px;marker:none;visibility:visible;display:inline;overflow:visible;enable-background:accumulate;font-family:'A.C.M.E. Secret Agent';-inkscape-font-specification:'A.C.M.E. Secret Agent'" />
    </g>
    <g
       transform="matrix(-0.9193985,-0.39332733,0.39332733,-0.9193985,-391.9876,1955.3591)"
       id="g3648">
      <path
         sodipodi:type="arc"
         style="fill:url(#linearGradient3910);fill-opacity:1;stroke:none"
         id="path3650"
         sodipodi:cx="5.2455359"
         sodipodi:cy="16.950893"
         sodipodi:rx="0.46875"
         sodipodi:ry="0.46875"
         d="m 5.7142859,16.950893 c 0,0.258884 -0.2098666,0.46875 -0.46875,0.46875 -0.2588835,0 -0.46875,-0.209866 -0.46875,-0.46875 0,-0.258883 0.2098665,-0.46875 0.46875,-0.46875 0.2588834,0 0.46875,0.209867 0.46875,0.46875 z"
         transform="matrix(1.0666667,0,0,1.0666667,-0.42893783,1003.2246)" />
      <path
         style="font-size:medium;font-style:normal;font-variant:normal;font-weight:normal;font-stretch:normal;text-indent:0;text-align:start;text-decoration:none;line-height:normal;letter-spacing:normal;word-spacing:normal;text-transform:none;direction:ltr;block-progression:tb;writing-mode:lr-tb;text-anchor:start;color:#000000;fill:url(#linearGradient3912);fill-opacity:1;stroke:none;stroke-width:1px;marker:none;visibility:visible;display:inline;overflow:visible;enable-background:accumulate;font-family:'A.C.M.E. Secret Agent';-inkscape-font-specification:'A.C.M.E. Secret Agent'"
         d="m 4.6663006,1021.2306 0,0.15 1,0 0,-0.15 -1,0 z"
         id="path3652" />
    </g>
    <g
       id="g3658"
       transform="matrix(-0.32882582,-0.94439058,0.94439058,-0.32882582,-954.52811,1359.0287)">
      <path
         transform="matrix(1.0666667,0,0,1.0666667,-0.42893783,1003.2246)"
         d="m 5.7142859,16.950893 c 0,0.258884 -0.2098666,0.46875 -0.46875,0.46875 -0.2588835,0 -0.46875,-0.209866 -0.46875,-0.46875 0,-0.258883 0.2098665,-0.46875 0.46875,-0.46875 0.2588834,0 0.46875,0.209867 0.46875,0.46875 z"
         sodipodi:ry="0.46875"
         sodipodi:rx="0.46875"
         sodipodi:cy="16.950893"
         sodipodi:cx="5.2455359"
         id="path3660"
         style="fill:url(#linearGradient3914);fill-opacity:1;stroke:none"
         sodipodi:type="arc" />
      <path
         id="path3662"
         d="m 4.6663006,1021.2306 0,0.15 1,0 0,-0.15 -1,0 z"
         style="font-size:medium;font-style:normal;font-variant:normal;font-weight:normal;font-stretch:normal;text-indent:0;text-align:start;text-decoration:none;line-height:normal;letter-spacing:normal;word-spacing:normal;text-transform:none;direction:ltr;block-progression:tb;writing-mode:lr-tb;text-anchor:start;color:#000000;fill:url(#linearGradient3916);fill-opacity:1;stroke:none;stroke-width:1px;marker:none;visibility:visible;display:inline;overflow:visible;enable-background:accumulate;font-family:'A.C.M.E. Secret Agent';-inkscape-font-specification:'A.C.M.E. Secret Agent'" />
    </g>
    <g
       style="font-size:6px;font-style:italic;font-variant:normal;font-weight:bold;font-stretch:normal;fill:#d1dfe2;fill-opacity:1;stroke:none;font-family:Calibri;-inkscape-font-specification:'A.C.M.E. Secret Agent Italic'"
       id="text3025">
      <path
         d="m 27.635489,1040.49 c -0.01758,0.033 -0.03613,0.061 -0.05567,0.082 -0.01953,0.02 -0.04785,0.035 -0.08496,0.047 -0.03711,0.01 -0.08692,0.016 -0.149415,0.018 -0.06055,0 -0.140626,0.01 -0.240234,0.01 -0.115236,0 -0.207032,-0 -0.275391,-0.01 -0.06836,-0 -0.120118,-0.01 -0.155273,-0.018 -0.03516,-0.012 -0.05957,-0.028 -0.07324,-0.05 -0.01172,-0.021 -0.01953,-0.051 -0.02344,-0.088 l -0.46289,-3.4248 c -0.0059,-0.053 -0.0078,-0.095 -0.0059,-0.126 0.002,-0.033 0.01563,-0.058 0.04102,-0.073 0.02539,-0.018 0.06445,-0.028 0.117187,-0.032 0.05469,-0.01 0.129882,-0.01 0.225586,-0.01 0.0957,0 0.169921,0 0.222657,0.01 0.05469,0 0.0957,0.012 0.123047,0.024 0.0293,0.01 0.04785,0.024 0.05566,0.044 0.0078,0.019 0.01367,0.045 0.01758,0.076 l 0.322265,2.9179 0.0059,0 1.473633,-2.9296 c 0.01367,-0.027 0.02929,-0.05 0.04687,-0.067 0.01757,-0.02 0.04199,-0.034 0.07324,-0.044 0.0332,-0.01 0.07617,-0.017 0.128906,-0.021 0.05468,-0 0.125973,-0.01 0.213867,-0.01 0.09375,0 0.166989,0 0.219727,0.01 0.05273,0.01 0.08789,0.019 0.105468,0.041 0.01758,0.022 0.01953,0.054 0.0059,0.097 -0.01368,0.041 -0.03907,0.097 -0.07617,0.167 l -1.795898,3.3604"
         style=""
         id="path3030" />
      <path
         d="m 30.064199,1040.5222 c -0.0039,0.019 -0.01367,0.037 -0.0293,0.053 -0.01563,0.016 -0.04004,0.028 -0.07324,0.038 -0.03125,0.01 -0.07227,0.017 -0.123046,0.02 -0.05078,0.01 -0.113282,0.01 -0.1875,0.01 -0.07617,0 -0.138673,-0 -0.1875,-0.01 -0.04688,-0 -0.08398,-0.011 -0.111329,-0.02 -0.02734,-0.01 -0.0459,-0.022 -0.05566,-0.038 -0.0098,-0.016 -0.01172,-0.033 -0.0059,-0.053 l 0.717773,-3.5859 c 0.002,-0.02 0.01074,-0.037 0.02637,-0.053 0.01758,-0.016 0.04199,-0.028 0.07324,-0.038 0.0332,-0.01 0.07422,-0.017 0.123047,-0.02 0.05078,-0.01 0.11328,-0.01 0.1875,-0.01 0.07422,0 0.134764,0 0.18164,0.01 0.04883,0 0.08691,0.011 0.114258,0.02 0.02929,0.01 0.04785,0.022 0.05566,0.038 0.0098,0.016 0.01269,0.033 0.0088,0.053 l -0.714844,3.5859"
         style=""
         id="path3032" />
      <path
         d="m 34.455801,1038.2048 c -4e-6,0.1172 -0.0078,0.2412 -0.02344,0.3721 -0.01368,0.1309 -0.03809,0.2647 -0.07324,0.4014 -0.03321,0.1347 -0.0791,0.2695 -0.137695,0.4043 -0.05664,0.1328 -0.127933,0.2607 -0.213867,0.3838 -0.08594,0.1211 -0.18848,0.2343 -0.307617,0.3398 -0.117191,0.1055 -0.252933,0.1973 -0.407227,0.2754 -0.154299,0.076 -0.328127,0.1357 -0.521484,0.1787 -0.193362,0.043 -0.42383,0.064 -0.691407,0.064 l -0.963867,0 c -0.03125,0 -0.06152,-0 -0.09082,-0.012 -0.02734,-0.01 -0.05078,-0.021 -0.07031,-0.038 -0.01758,-0.02 -0.03027,-0.045 -0.03808,-0.076 -0.0059,-0.031 -0.0039,-0.07 0.0059,-0.1172 l 0.662109,-3.3047 c 0.01562,-0.086 0.0498,-0.1475 0.102539,-0.1846 0.05273,-0.039 0.115234,-0.059 0.1875,-0.059 l 0.914063,0 c 0.300779,0 0.551755,0.029 0.75293,0.088 0.203122,0.059 0.372067,0.1455 0.506835,0.2608 0.136716,0.1152 0.238278,0.2588 0.304688,0.4306 0.06836,0.17 0.102535,0.3672 0.102539,0.5918 m -0.808594,0.091 c -3e-6,-0.1231 -0.0166,-0.2373 -0.0498,-0.3428 -0.03321,-0.1055 -0.08692,-0.1963 -0.161133,-0.2725 -0.07422,-0.076 -0.169925,-0.1357 -0.28711,-0.1787 -0.115236,-0.043 -0.27051,-0.064 -0.46582,-0.064 l -0.401367,0 -0.518555,2.5781 0.404297,0 c 0.205077,0 0.376951,-0.024 0.515625,-0.073 0.140623,-0.051 0.26367,-0.1191 0.369141,-0.205 0.107419,-0.088 0.198239,-0.1885 0.272461,-0.3018 0.07617,-0.1152 0.137692,-0.2363 0.18457,-0.3633 0.04883,-0.1269 0.08398,-0.2568 0.105469,-0.3896 0.02148,-0.1328 0.03222,-0.2617 0.03223,-0.3867"
         style=""
         id="path3034" />
      <path
         d="m 37.614004,1036.9451 c -3e-6,0.012 -0.002,0.032 -0.0059,0.062 -0.002,0.029 -0.0059,0.062 -0.01172,0.1 -0.0059,0.035 -0.01367,0.072 -0.02344,0.1113 -0.0098,0.039 -0.02246,0.075 -0.03809,0.1084 -0.01367,0.031 -0.03125,0.058 -0.05273,0.079 -0.01953,0.022 -0.04102,0.032 -0.06445,0.032 l -1.353516,0 -0.1875,0.9257 1.148438,0 c 0.02734,0 0.04687,0.01 0.05859,0.029 0.01172,0.02 0.01758,0.047 0.01758,0.082 -3e-6,0.014 -0.002,0.035 -0.0059,0.064 -0.002,0.027 -0.0059,0.06 -0.01172,0.097 -0.0059,0.035 -0.01367,0.071 -0.02344,0.1084 -0.0098,0.037 -0.02246,0.071 -0.03809,0.1025 -0.01367,0.031 -0.03028,0.057 -0.0498,0.076 -0.01953,0.019 -0.04102,0.029 -0.06445,0.029 l -1.145507,0 -0.216797,1.0693 1.371094,0 c 0.02343,0 0.04101,0.011 0.05273,0.032 0.01172,0.02 0.01758,0.049 0.01758,0.088 -2e-6,0.014 -9.79e-4,0.035 -0.0029,0.064 -0.002,0.029 -0.0068,0.062 -0.01465,0.1 -0.0059,0.035 -0.01367,0.071 -0.02344,0.1084 -0.0098,0.037 -0.02246,0.072 -0.03809,0.1055 -0.01367,0.031 -0.03028,0.057 -0.0498,0.076 -0.01953,0.02 -0.042,0.029 -0.06738,0.029 l -1.904297,0 c -0.03125,0 -0.05957,-0 -0.08496,-0.012 -0.02539,-0.01 -0.04687,-0.024 -0.06445,-0.044 -0.01563,-0.021 -0.02637,-0.047 -0.03223,-0.076 -0.0059,-0.031 -0.0049,-0.068 0.0029,-0.1113 l 0.66211,-3.3047 c 0.01758,-0.086 0.05273,-0.1475 0.105468,-0.1846 0.05273,-0.039 0.111327,-0.059 0.175782,-0.059 l 1.886718,0 c 0.05078,0 0.07617,0.037 0.07617,0.1114"
         style=""
         id="path3036" />
      <path
         d="m 41.284903,1038.1023 c -4e-6,0.1719 -0.01563,0.3555 -0.04687,0.5508 -0.03125,0.1953 -0.08203,0.3896 -0.152344,0.583 -0.06836,0.1914 -0.159183,0.375 -0.272461,0.5508 -0.113285,0.1757 -0.25098,0.331 -0.413086,0.4658 -0.162112,0.1328 -0.352542,0.2392 -0.571289,0.3193 -0.218752,0.08 -0.467776,0.1201 -0.74707,0.1201 -0.23633,0 -0.445314,-0.026 -0.626954,-0.079 -0.179688,-0.053 -0.332032,-0.1338 -0.457031,-0.2431 -0.123047,-0.1094 -0.216797,-0.2471 -0.28125,-0.4131 -0.0625,-0.166 -0.09375,-0.3613 -0.09375,-0.586 0,-0.1835 0.01563,-0.3749 0.04687,-0.5742 0.0332,-0.2011 0.08496,-0.3974 0.155274,-0.5888 0.07227,-0.1934 0.166015,-0.377 0.28125,-0.5508 0.115233,-0.1738 0.253905,-0.3272 0.416015,-0.46 0.162108,-0.1328 0.351561,-0.2373 0.56836,-0.3135 0.216795,-0.078 0.462888,-0.1171 0.738281,-0.1171 0.236325,0 0.444333,0.027 0.624023,0.082 0.181638,0.053 0.333981,0.1348 0.457032,0.2461 0.123043,0.1094 0.215816,0.248 0.27832,0.416 0.06445,0.168 0.09668,0.3652 0.09668,0.5918 m -0.814454,0.073 c -3e-6,-0.1191 -0.01367,-0.2265 -0.04102,-0.3222 -0.02539,-0.098 -0.06739,-0.1797 -0.125977,-0.2461 -0.0586,-0.066 -0.135745,-0.1172 -0.231445,-0.1524 -0.09375,-0.037 -0.208987,-0.056 -0.345703,-0.056 -0.169924,0 -0.319338,0.033 -0.448242,0.1 -0.128908,0.064 -0.241213,0.1494 -0.336914,0.2549 -0.09571,0.1054 -0.175783,0.2265 -0.240235,0.3632 -0.06445,0.1348 -0.116212,0.2725 -0.155273,0.4131 -0.03906,0.1387 -0.06738,0.2744 -0.08496,0.4073 -0.01563,0.1328 -0.02344,0.249 -0.02344,0.3486 -1e-6,0.1211 0.0127,0.2295 0.03809,0.3252 0.02734,0.096 0.07031,0.1767 0.128907,0.2431 0.06054,0.064 0.137693,0.1143 0.231445,0.1495 0.0957,0.035 0.212889,0.053 0.351562,0.053 0.167967,0 0.316404,-0.032 0.445313,-0.097 0.128904,-0.064 0.240232,-0.1484 0.333984,-0.2519 0.0957,-0.1055 0.175779,-0.2256 0.240235,-0.3604 0.06445,-0.1348 0.116208,-0.2715 0.155273,-0.4101 0.03906,-0.1387 0.0664,-0.2745 0.08203,-0.4073 0.01758,-0.1328 0.02636,-0.2509 0.02637,-0.3545"
         style=""
         id="path3038" />
    </g>
    <g
       style="font-size:1.5px;font-style:italic;font-variant:normal;font-weight:bold;font-stretch:normal;fill:#d1dfe2;fill-opacity:1;stroke:none;font-family:Calibri;-inkscape-font-specification:'A.C.M.E. Secret Agent Italic'"
       id="text3684"
       transform="translate(-0.1964281,-0.67804219)">
      <path
         d="m 5.3459473,1027.2577 c -9e-7,0 -4.892e-4,0.01 -0.00146,0.017 -4.891e-4,0.01 -0.00171,0.016 -0.00366,0.025 -0.00147,0.01 -0.00366,0.019 -0.00659,0.029 -0.00244,0.01 -0.00562,0.019 -0.00952,0.027 -0.00342,0.01 -0.00781,0.015 -0.013184,0.02 -0.00488,0.01 -0.010255,0.01 -0.016113,0.01 l -0.2380372,0 -0.1523437,0.7639 c -0.00147,0 -0.00415,0.01 -0.00806,0.013 -0.00391,0 -0.01001,0.01 -0.018311,0.01 -0.00781,0 -0.018067,0 -0.030762,0.01 -0.012207,0 -0.027832,0 -0.046875,0 -0.018555,0 -0.033936,-8e-4 -0.046143,0 -0.012207,0 -0.021729,0 -0.028564,-0.01 -0.00635,0 -0.010742,-0.01 -0.013184,-0.01 -0.00195,0 -0.00244,-0.01 -0.00146,-0.013 l 0.1523438,-0.7639 -0.2358399,0 c -0.00732,0 -0.012451,0 -0.015381,-0.01 -0.00244,-0.01 -0.00366,-0.013 -0.00366,-0.022 -1e-7,0 2.44e-4,-0.01 7.324e-4,-0.017 9.764e-4,-0.01 0.0022,-0.016 0.00366,-0.026 0.00195,-0.01 0.00415,-0.019 0.00659,-0.029 0.00293,-0.01 0.00635,-0.02 0.010254,-0.028 0.00391,-0.01 0.0083,-0.015 0.013184,-0.02 0.00488,-0.01 0.010254,-0.01 0.016113,-0.01 l 0.6679687,0 c 0.00586,0 0.010253,0 0.013184,0.01 0.00342,0.01 0.00513,0.013 0.00513,0.023"
         id="path3791" />
      <path
         d="m 5.4777832,1028.149 c -9.768e-4,0 -0.00342,0.01 -0.00732,0.013 -0.00391,0 -0.01001,0.01 -0.018311,0.01 -0.00781,0 -0.018067,0 -0.030762,0.01 -0.012696,0 -0.02832,0 -0.046875,0 -0.019043,0 -0.034668,-8e-4 -0.046875,0 -0.011719,-10e-4 -0.020996,0 -0.027832,-0.01 -0.00684,0 -0.011475,-0.01 -0.013916,-0.01 -0.00244,0 -0.00293,-0.01 -0.00146,-0.013 l 0.1794434,-0.8964 c 4.88e-4,0 0.00269,-0.01 0.00659,-0.013 0.00439,0 0.010498,-0.01 0.018311,-0.01 0.0083,0 0.018554,0 0.030762,-0.01 0.012695,0 0.02832,0 0.046875,0 0.018554,0 0.033691,8e-4 0.04541,0 0.012207,0 0.021728,0 0.028564,0.01 0.00732,0 0.011962,0.01 0.013916,0.01 0.00244,0 0.00317,0.01 0.0022,0.013 l -0.1787109,0.8964"
         id="path3793" />
      <path
         d="m 6.4914551,1027.2577 c -9e-7,0 -4.891e-4,0.01 -0.00146,0.017 -4.891e-4,0.01 -0.00171,0.016 -0.00366,0.025 -0.00147,0.01 -0.00366,0.019 -0.00659,0.029 -0.00244,0.01 -0.00562,0.019 -0.00952,0.027 -0.00342,0.01 -0.00781,0.015 -0.013184,0.02 -0.00488,0.01 -0.010255,0.01 -0.016113,0.01 l -0.2380371,0 -0.1523438,0.7639 c -0.00147,0 -0.00415,0.01 -0.00806,0.013 -0.00391,0 -0.01001,0.01 -0.018311,0.01 -0.00781,0 -0.018067,0 -0.030762,0.01 -0.012207,0 -0.027832,0 -0.046875,0 -0.018555,0 -0.033936,-8e-4 -0.046143,0 -0.012207,0 -0.021729,0 -0.028564,-0.01 -0.00635,0 -0.010742,-0.01 -0.013184,-0.01 -0.00195,0 -0.00244,-0.01 -0.00146,-0.013 l 0.1523438,-0.7639 -0.2358399,0 c -0.00732,0 -0.012451,0 -0.015381,-0.01 -0.00244,-0.01 -0.00366,-0.013 -0.00366,-0.022 -1e-7,0 2.44e-4,-0.01 7.324e-4,-0.017 9.764e-4,-0.01 0.0022,-0.016 0.00366,-0.026 0.00195,-0.01 0.00415,-0.019 0.00659,-0.029 0.00293,-0.01 0.00635,-0.02 0.010254,-0.028 0.00391,-0.01 0.0083,-0.015 0.013184,-0.02 0.00488,-0.01 0.010254,-0.01 0.016113,-0.01 l 0.6679687,0 c 0.00586,0 0.010253,0 0.013184,0.01 0.00342,0.01 0.00513,0.013 0.00513,0.023"
         id="path3795" />
      <path
         d="m 6.9667969,1028.045 c -6e-7,0 -4.889e-4,0.01 -0.00146,0.017 -4.888e-4,0.01 -0.00171,0.016 -0.00366,0.026 -0.00147,0.01 -0.00366,0.02 -0.00659,0.03 -0.00244,0.01 -0.00562,0.02 -0.00952,0.028 -0.00342,0.01 -0.00757,0.015 -0.012451,0.021 -0.00488,0.01 -0.010499,0.01 -0.016846,0.01 l -0.4343262,0 c -0.00781,0 -0.015137,-10e-4 -0.021973,0 -0.00635,0 -0.011719,-0.01 -0.016113,-0.011 -0.00391,-0.01 -0.00659,-0.012 -0.00806,-0.019 -0.00146,-0.01 -0.00122,-0.017 7.324e-4,-0.028 l 0.1728516,-0.8613 c 4.881e-4,0 0.00269,-0.01 0.00659,-0.013 0.00391,0 0.00977,-0.01 0.017578,-0.01 0.0083,0 0.018554,0 0.030762,-0.01 0.012695,0 0.028564,0 0.047608,0 0.018554,0 0.033935,8e-4 0.046142,0 0.012207,10e-4 0.021728,0 0.028564,0.01 0.00684,0 0.01123,0.01 0.013184,0.01 0.00244,0 0.00317,0.01 0.0022,0.013 l -0.1523438,0.7631 0.2988281,0 c 0.00684,0 0.011474,0 0.013916,0.01 0.00293,0.01 0.00439,0.013 0.00439,0.021"
         id="path3797" />
      <path
         d="m 7.7988281,1027.2548 c -7e-7,0 -4.89e-4,0.01 -0.00146,0.015 -4.891e-4,0.01 -0.00147,0.016 -0.00293,0.025 -0.00147,0.01 -0.00342,0.018 -0.00586,0.028 -0.00244,0.01 -0.00562,0.019 -0.00952,0.027 -0.00342,0.01 -0.00781,0.014 -0.013184,0.02 -0.00488,0.01 -0.010255,0.01 -0.016113,0.01 l -0.3383789,0 -0.046875,0.2315 0.2871093,0 c 0.00684,0 0.011718,0 0.014648,0.01 0.00293,0 0.00439,0.012 0.00439,0.02 -6e-7,0 -4.889e-4,0.01 -0.00146,0.016 -4.89e-4,0.01 -0.00147,0.015 -0.00293,0.024 -0.00147,0.01 -0.00342,0.018 -0.00586,0.027 -0.00244,0.01 -0.00562,0.018 -0.00952,0.026 -0.00342,0.01 -0.00757,0.014 -0.012451,0.019 -0.00488,0 -0.010255,0.01 -0.016113,0.01 l -0.286377,0 -0.054199,0.2673 0.3427734,0 c 0.00586,0 0.010253,0 0.013184,0.01 0.00293,0 0.00439,0.012 0.00439,0.022 -6e-7,0 -2.447e-4,0.01 -7.324e-4,0.016 -4.889e-4,0.01 -0.00171,0.016 -0.00366,0.025 -0.00147,0.01 -0.00342,0.018 -0.00586,0.027 -0.00244,0.01 -0.00562,0.018 -0.00952,0.026 -0.00342,0.01 -0.00757,0.014 -0.012451,0.019 -0.00488,0 -0.010499,0.01 -0.016846,0.01 l -0.4760742,0 c -0.00781,0 -0.014893,-10e-4 -0.02124,0 -0.00635,0 -0.011719,-0.01 -0.016113,-0.011 -0.00391,-0.01 -0.00659,-0.012 -0.00806,-0.019 -0.00146,-0.01 -0.00122,-0.017 7.324e-4,-0.028 l 0.1655274,-0.8262 c 0.00439,-0.022 0.013183,-0.037 0.026367,-0.046 0.013183,-0.01 0.027832,-0.015 0.043945,-0.015 l 0.4716797,0 c 0.012695,0 0.019042,0.01 0.019043,0.028"
         id="path3799" />
    </g>
    <g
       style="font-size:1.5px;font-style:italic;font-variant:normal;font-weight:bold;font-stretch:normal;fill:#d1dfe2;fill-opacity:1;stroke:none;font-family:Calibri;-inkscape-font-specification:'A.C.M.E. Secret Agent Italic'"
       id="text3688"
       transform="translate(-0.1964281,-0.67804219)">
      <path
         d="m 18.827393,1027.2994 c -1e-6,0 -4.89e-4,0.01 -0.0015,0.017 -4.89e-4,0.01 -0.0015,0.015 -0.0029,0.024 -0.0015,0.01 -0.0034,0.018 -0.0059,0.027 -0.002,0.01 -0.0046,0.017 -0.0081,0.025 -0.0029,0.01 -0.0063,0.013 -0.01025,0.018 -0.0039,0 -0.0081,0.01 -0.01245,0.01 -0.0068,0 -0.01538,0 -0.02564,-0.01 -0.01025,-0.01 -0.02295,-0.013 -0.03809,-0.02 -0.01465,-0.01 -0.03198,-0.014 -0.052,-0.02 -0.02002,-0.01 -0.04272,-0.01 -0.06811,-0.01 -0.02637,0 -0.04883,0 -0.06738,0.011 -0.01807,0.01 -0.03296,0.017 -0.04468,0.029 -0.01172,0.012 -0.02051,0.025 -0.02637,0.04 -0.0054,0.015 -0.0081,0.029 -0.0081,0.045 -10e-7,0.018 0.0044,0.033 0.01318,0.047 0.0088,0.013 0.02051,0.026 0.03516,0.037 0.01465,0.011 0.03125,0.022 0.0498,0.033 0.01904,0.011 0.03809,0.022 0.05713,0.034 0.01953,0.012 0.03857,0.025 0.05713,0.039 0.01904,0.014 0.03589,0.03 0.05054,0.048 0.01465,0.018 0.02637,0.039 0.03516,0.063 0.0088,0.023 0.01318,0.051 0.01318,0.081 -10e-7,0.046 -0.0093,0.089 -0.02783,0.1282 -0.01856,0.039 -0.04492,0.073 -0.0791,0.1025 -0.03369,0.029 -0.07471,0.052 -0.123046,0.068 -0.04785,0.017 -0.101075,0.025 -0.159668,0.025 -0.03174,0 -0.06104,0 -0.08789,-0.01 -0.02686,0 -0.05078,-0.011 -0.07178,-0.018 -0.02051,-0.01 -0.03784,-0.015 -0.052,-0.023 -0.01416,-0.01 -0.02466,-0.016 -0.03149,-0.024 -0.0068,-0.01 -0.01025,-0.018 -0.01025,-0.033 0,0 4.88e-4,-0.01 0.0015,-0.018 9.77e-4,-0.01 0.0022,-0.016 0.0037,-0.025 0.002,-0.01 0.0042,-0.019 0.0066,-0.028 0.0024,-0.01 0.0054,-0.018 0.0088,-0.026 0.0034,-0.01 0.0071,-0.014 0.01099,-0.019 0.0044,0 0.009,-0.01 0.01392,-0.01 0.0083,0 0.01807,0 0.0293,0.012 0.01172,0.01 0.02612,0.016 0.04321,0.025 0.01709,0.01 0.03735,0.017 0.06079,0.025 0.02344,0.01 0.05151,0.012 0.08423,0.012 0.02881,0 0.05395,0 0.07544,-0.011 0.02197,-0.01 0.04028,-0.017 0.05493,-0.03 0.01465,-0.013 0.02563,-0.027 0.03296,-0.044 0.0078,-0.017 0.01172,-0.036 0.01172,-0.056 -1e-6,-0.018 -0.0044,-0.034 -0.01318,-0.048 -0.0088,-0.014 -0.02051,-0.026 -0.03516,-0.037 -0.01416,-0.012 -0.03052,-0.023 -0.04907,-0.033 -0.01807,-0.01 -0.03662,-0.021 -0.05566,-0.033 -0.01904,-0.012 -0.03784,-0.024 -0.0564,-0.038 -0.01807,-0.014 -0.03442,-0.03 -0.04907,-0.048 -0.01416,-0.019 -0.02564,-0.04 -0.03442,-0.064 -0.0088,-0.024 -0.01318,-0.052 -0.01318,-0.083 -10e-7,-0.044 0.0088,-0.084 0.02637,-0.1215 0.01758,-0.037 0.04199,-0.069 0.07324,-0.095 0.03125,-0.027 0.0686,-0.048 0.11206,-0.062 0.04346,-0.015 0.09131,-0.023 0.143555,-0.023 0.02441,0 0.04761,0 0.06958,0.01 0.02197,0 0.04199,0.01 0.06006,0.014 0.01807,0.01 0.03345,0.011 0.04614,0.018 0.0127,0.01 0.02148,0.013 0.02637,0.017 0.0049,0 0.0083,0.01 0.01025,0.015 0.0024,0 0.0037,0.011 0.0037,0.019"
         id="path3780" />
      <path
         d="m 19.660889,1027.3185 c -1e-6,0.014 -0.0024,0.032 -0.0073,0.055 -0.0044,0.023 -0.01025,0.042 -0.01758,0.056 -0.0068,0.014 -0.01465,0.02 -0.02344,0.02 -0.0063,0 -0.01392,0 -0.02271,-0.012 -0.0088,-0.01 -0.02026,-0.017 -0.03442,-0.026 -0.01416,-0.01 -0.03223,-0.018 -0.0542,-0.026 -0.02197,-0.01 -0.04932,-0.013 -0.08203,-0.013 -0.03613,0 -0.06909,0.01 -0.09888,0.022 -0.02979,0.014 -0.0564,0.033 -0.07983,0.057 -0.02344,0.024 -0.04395,0.051 -0.06152,0.081 -0.01758,0.031 -0.03223,0.063 -0.04394,0.096 -0.01123,0.033 -0.01978,0.066 -0.02564,0.1 -0.0054,0.033 -0.0081,0.063 -0.0081,0.091 0,0.034 0.0041,0.064 0.01245,0.09 0.0088,0.026 0.02124,0.047 0.03735,0.064 0.01611,0.017 0.03589,0.03 0.05933,0.039 0.02344,0.01 0.0498,0.012 0.0791,0.012 0.03467,0 0.06421,0 0.08862,-0.011 0.0249,-0.01 0.0459,-0.015 0.06299,-0.024 0.01758,-0.01 0.03198,-0.017 0.04321,-0.024 0.01172,-0.01 0.02222,-0.011 0.03149,-0.011 0.0063,0 0.0105,0 0.01245,0.01 0.0024,0 0.0037,0.011 0.0037,0.019 0,0 -4.89e-4,0.01 -0.0015,0.015 -9.78e-4,0.01 -0.0022,0.015 -0.0037,0.023 -0.0015,0.01 -0.0032,0.018 -0.0051,0.028 -0.002,0.01 -0.0042,0.019 -0.0066,0.028 -0.0024,0.01 -0.0054,0.016 -0.0088,0.023 -0.0029,0.01 -0.0071,0.013 -0.01245,0.018 -0.0054,0.01 -0.01587,0.013 -0.03149,0.021 -0.01563,0.01 -0.03467,0.016 -0.05713,0.023 -0.02246,0.01 -0.04785,0.013 -0.07617,0.018 -0.02832,0.01 -0.0586,0.01 -0.09082,0.01 -0.05322,0 -0.101318,-0.01 -0.144287,-0.021 -0.04248,-0.014 -0.07861,-0.036 -0.108398,-0.064 -0.02979,-0.029 -0.05274,-0.065 -0.06885,-0.1084 -0.01611,-0.043 -0.02417,-0.094 -0.02417,-0.1524 0,-0.045 0.0046,-0.092 0.01392,-0.1413 0.0093,-0.049 0.02319,-0.097 0.04175,-0.1443 0.01904,-0.047 0.04297,-0.091 0.07178,-0.1333 0.02881,-0.042 0.06274,-0.079 0.101806,-0.1099 0.03955,-0.032 0.08423,-0.057 0.134033,-0.075 0.05029,-0.019 0.105957,-0.028 0.166993,-0.028 0.03418,0 0.0664,0 0.09668,0.011 0.03076,0.01 0.05737,0.016 0.07983,0.028 0.02295,0.012 0.03882,0.022 0.04761,0.032 0.0093,0.01 0.01392,0.021 0.01392,0.036"
         id="path3782" />
      <path
         d="m 20.375,1027.2548 c -1e-6,0 -4.89e-4,0.01 -0.0015,0.015 -4.89e-4,0.01 -0.0015,0.016 -0.0029,0.025 -0.0015,0.01 -0.0034,0.018 -0.0059,0.028 -0.0024,0.01 -0.0056,0.019 -0.0095,0.027 -0.0034,0.01 -0.0078,0.014 -0.01318,0.02 -0.0049,0.01 -0.01025,0.01 -0.01611,0.01 l -0.338379,0 -0.04687,0.2315 0.287109,0 c 0.0068,0 0.01172,0 0.01465,0.01 0.0029,0 0.0044,0.012 0.0044,0.02 0,0 -4.89e-4,0.01 -0.0015,0.016 -4.89e-4,0.01 -0.0015,0.015 -0.0029,0.024 -0.0015,0.01 -0.0034,0.018 -0.0059,0.027 -0.0024,0.01 -0.0056,0.018 -0.0095,0.026 -0.0034,0.01 -0.0076,0.014 -0.01245,0.019 -0.0049,0 -0.01026,0.01 -0.01611,0.01 l -0.286377,0 -0.0542,0.2673 0.342774,0 c 0.0059,0 0.01025,0 0.01318,0.01 0.0029,0 0.0044,0.012 0.0044,0.022 -10e-7,0 -2.45e-4,0.01 -7.33e-4,0.016 -4.89e-4,0.01 -0.0017,0.016 -0.0037,0.025 -0.0015,0.01 -0.0034,0.018 -0.0059,0.027 -0.0024,0.01 -0.0056,0.018 -0.0095,0.026 -0.0034,0.01 -0.0076,0.014 -0.01245,0.019 -0.0049,0 -0.0105,0.01 -0.01685,0.01 l -0.476074,0 c -0.0078,0 -0.01489,-10e-4 -0.02124,0 -0.0063,0 -0.01172,-0.01 -0.01611,-0.011 -0.0039,-0.01 -0.0066,-0.012 -0.0081,-0.019 -0.0015,-0.01 -0.0012,-0.017 7.32e-4,-0.028 l 0.165528,-0.8262 c 0.0044,-0.022 0.01318,-0.037 0.02637,-0.046 0.01318,-0.01 0.02783,-0.015 0.04395,-0.015 l 0.47168,0 c 0.0127,0 0.01904,0.01 0.01904,0.028"
         id="path3784" />
      <path
         d="m 21.159424,1028.1073 c -0.002,0.011 -0.0059,0.021 -0.01172,0.03 -0.0054,0.01 -0.01196,0.016 -0.01977,0.022 -0.0073,0.01 -0.01563,0.01 -0.0249,0.013 -0.0088,0 -0.01807,0 -0.02783,0 l -0.08203,0 c -0.01758,0 -0.03198,0 -0.04321,-0.01 -0.01123,0 -0.021,-0.01 -0.0293,-0.018 -0.0078,-0.01 -0.01489,-0.021 -0.02124,-0.036 -0.0063,-0.015 -0.01294,-0.034 -0.01977,-0.058 l -0.139893,-0.4234 c -0.01074,-0.033 -0.02075,-0.066 -0.03003,-0.099 -0.0088,-0.033 -0.01734,-0.066 -0.02564,-0.099 l -0.0015,0 c -0.0049,0.039 -0.0105,0.077 -0.01685,0.1142 -0.0063,0.037 -0.01343,0.074 -0.02124,0.1121 l -0.09668,0.4841 c -9.77e-4,0 -0.0034,0.01 -0.0073,0.013 -0.0034,0 -0.0088,0.01 -0.01611,0.01 -0.0073,0 -0.01685,0 -0.02856,0.01 -0.01123,0 -0.02539,0 -0.04248,0 -0.01709,0 -0.03125,-8e-4 -0.04248,0 -0.01074,0 -0.01904,0 -0.0249,-0.01 -0.0059,0 -0.0098,-0.01 -0.01172,-0.01 -0.0015,0 -0.0015,-0.01 0,-0.013 l 0.170654,-0.8525 c 0.0044,-0.023 0.0144,-0.04 0.03003,-0.051 0.01563,-0.012 0.0332,-0.018 0.05274,-0.018 l 0.100341,0 c 0.01611,0 0.02979,0 0.04102,0.01 0.01172,0 0.02148,0.01 0.0293,0.018 0.0083,0.01 0.01538,0.018 0.02124,0.031 0.0063,0.013 0.01221,0.028 0.01758,0.047 l 0.141358,0.427 c 0.0093,0.027 0.01758,0.054 0.0249,0.081 0.0078,0.027 0.01587,0.054 0.02417,0.081 l 0.0015,0 c 0.0054,-0.035 0.01123,-0.071 0.01758,-0.1084 0.0068,-0.038 0.01367,-0.074 0.02051,-0.1092 l 0.09009,-0.4467 c 9.75e-4,0 0.0032,-0.01 0.0066,-0.013 0.0034,0 0.0085,-0.01 0.01538,-0.01 0.0073,0 0.0166,0 0.02783,-0.01 0.01123,0 0.02539,0 0.04248,0 0.01709,0 0.03125,7e-4 0.04248,0 0.01123,10e-4 0.01977,0 0.02564,0.01 0.0059,0 0.0098,0 0.01172,0.01 0.002,0 0.0024,0.01 0.0015,0.013 l -0.171387,0.8547"
         id="path3786" />
      <path
         d="m 22.091797,1027.2548 c -1e-6,0 -4.89e-4,0.01 -0.0015,0.015 -4.89e-4,0.01 -0.0015,0.016 -0.0029,0.025 -0.0015,0.01 -0.0034,0.018 -0.0059,0.028 -0.0024,0.01 -0.0056,0.019 -0.0095,0.027 -0.0034,0.01 -0.0078,0.014 -0.01318,0.02 -0.0049,0.01 -0.01026,0.01 -0.01611,0.01 l -0.338379,0 -0.04687,0.2315 0.287109,0 c 0.0068,0 0.01172,0 0.01465,0.01 0.0029,0 0.0044,0.012 0.0044,0.02 -1e-6,0 -4.89e-4,0.01 -0.0015,0.016 -4.89e-4,0.01 -0.0015,0.015 -0.0029,0.024 -0.0015,0.01 -0.0034,0.018 -0.0059,0.027 -0.0024,0.01 -0.0056,0.018 -0.0095,0.026 -0.0034,0.01 -0.0076,0.014 -0.01245,0.019 -0.0049,0 -0.01025,0.01 -0.01611,0.01 l -0.286377,0 -0.0542,0.2673 0.342773,0 c 0.0059,0 0.01025,0 0.01318,0.01 0.0029,0 0.0044,0.012 0.0044,0.022 -1e-6,0 -2.45e-4,0.01 -7.33e-4,0.016 -4.89e-4,0.01 -0.0017,0.016 -0.0037,0.025 -0.0015,0.01 -0.0034,0.018 -0.0059,0.027 -0.0024,0.01 -0.0056,0.018 -0.0095,0.026 -0.0034,0.01 -0.0076,0.014 -0.01245,0.019 -0.0049,0 -0.0105,0.01 -0.01685,0.01 l -0.476074,0 c -0.0078,0 -0.01489,-10e-4 -0.02124,0 -0.0063,0 -0.01172,-0.01 -0.01611,-0.011 -0.0039,-0.01 -0.0066,-0.012 -0.0081,-0.019 -0.0015,-0.01 -0.0012,-0.017 7.32e-4,-0.028 l 0.165528,-0.8262 c 0.0044,-0.022 0.01318,-0.037 0.02637,-0.046 0.01318,-0.01 0.02783,-0.015 0.04395,-0.015 l 0.47168,0 c 0.01269,0 0.01904,0.01 0.01904,0.028"
         id="path3788" />
    </g>
    <g
       style="font-size:1.5px;font-style:italic;font-variant:normal;font-weight:bold;font-stretch:normal;fill:#d1dfe2;fill-opacity:1;stroke:none;font-family:Calibri;-inkscape-font-specification:'A.C.M.E. Secret Agent Italic'"
       id="text3692"
       transform="translate(-0.1964281,-0.67804219)">
      <path
         d="m 32.949707,1028.1029 c 0.0024,0.018 0.0034,0.031 0.0029,0.042 -10e-7,0.01 -0.0034,0.018 -0.01025,0.023 -0.0063,0 -0.01709,0.01 -0.03223,0.01 -0.01514,0 -0.03589,0 -0.06226,0 -0.01855,0 -0.03369,-5e-4 -0.04541,0 -0.01172,-5e-4 -0.02075,0 -0.0271,0 -0.0063,0 -0.01074,0 -0.01318,-0.01 -0.0024,0 -0.0039,-0.01 -0.0044,-0.016 l -0.02563,-0.1904 -0.355957,0 -0.09815,0.1861 c -0.0034,0.01 -0.0073,0.013 -0.01172,0.017 -0.0044,0 -0.01074,0.01 -0.01904,0.01 -0.0083,0 -0.01953,0 -0.03369,0.01 -0.01367,10e-4 -0.03101,0 -0.052,0 -0.02246,0 -0.03979,-8e-4 -0.052,0 -0.0127,0 -0.021,0 -0.0249,-0.01 -0.0044,-0.01 -0.0049,-0.014 -0.0015,-0.024 0.0029,-0.01 0.009,-0.024 0.01831,-0.041 l 0.459961,-0.8408 c 0.0049,-0.01 0.0098,-0.015 0.01465,-0.02 0.0049,-0.01 0.01172,-0.01 0.02051,-0.012 0.0093,0 0.02148,0 0.03662,-0.01 0.01562,-10e-4 0.03589,0 0.06079,0 0.02881,0 0.05151,5e-4 0.06811,0 0.01709,5e-4 0.03027,0 0.03955,0.01 0.0093,0 0.01538,0.01 0.01831,0.012 0.0029,0.01 0.0049,0.013 0.0059,0.022 l 0.123779,0.8401 m -0.287842,-0.6951 -7.32e-4,0 -0.21167,0.4029 0.266601,0 -0.0542,-0.4029"
         id="path3773" />
      <path
         d="m 33.8396,1027.3185 c -10e-7,0.014 -0.0024,0.032 -0.0073,0.055 -0.0044,0.023 -0.01025,0.042 -0.01758,0.056 -0.0068,0.014 -0.01465,0.02 -0.02344,0.02 -0.0063,0 -0.01392,0 -0.02271,-0.012 -0.0088,-0.01 -0.02027,-0.017 -0.03442,-0.026 -0.01416,-0.01 -0.03223,-0.018 -0.0542,-0.026 -0.02197,-0.01 -0.04932,-0.013 -0.08203,-0.013 -0.03613,0 -0.06909,0.01 -0.09888,0.022 -0.02979,0.014 -0.0564,0.033 -0.07983,0.057 -0.02344,0.024 -0.04395,0.051 -0.06152,0.081 -0.01758,0.031 -0.03223,0.063 -0.04395,0.096 -0.01123,0.033 -0.01978,0.066 -0.02564,0.1 -0.0054,0.033 -0.0081,0.063 -0.0081,0.091 0,0.034 0.0042,0.064 0.01245,0.09 0.0088,0.026 0.02124,0.047 0.03735,0.064 0.01611,0.017 0.03589,0.03 0.05933,0.039 0.02344,0.01 0.0498,0.012 0.0791,0.012 0.03467,0 0.06421,0 0.08862,-0.011 0.0249,-0.01 0.0459,-0.015 0.06299,-0.024 0.01758,-0.01 0.03198,-0.017 0.04321,-0.024 0.01172,-0.01 0.02222,-0.011 0.03149,-0.011 0.0063,0 0.0105,0 0.01245,0.01 0.0024,0 0.0037,0.011 0.0037,0.019 0,0 -4.89e-4,0.01 -0.0015,0.015 -9.78e-4,0.01 -0.0022,0.015 -0.0037,0.023 -0.0015,0.01 -0.0032,0.018 -0.0051,0.028 -0.002,0.01 -0.0042,0.019 -0.0066,0.028 -0.0024,0.01 -0.0054,0.016 -0.0088,0.023 -0.0029,0.01 -0.0071,0.013 -0.01245,0.018 -0.0054,0.01 -0.01587,0.013 -0.03149,0.021 -0.01563,0.01 -0.03467,0.016 -0.05713,0.023 -0.02246,0.01 -0.04785,0.013 -0.07617,0.018 -0.02832,0.01 -0.05859,0.01 -0.09082,0.01 -0.05322,0 -0.101318,-0.01 -0.144287,-0.021 -0.04248,-0.014 -0.07861,-0.036 -0.108398,-0.064 -0.02979,-0.029 -0.05273,-0.065 -0.06885,-0.1084 -0.01611,-0.043 -0.02417,-0.094 -0.02417,-0.1524 0,-0.045 0.0046,-0.092 0.01392,-0.1413 0.0093,-0.049 0.02319,-0.097 0.04175,-0.1443 0.01904,-0.047 0.04297,-0.091 0.07178,-0.1333 0.02881,-0.042 0.06274,-0.079 0.101807,-0.1099 0.03955,-0.032 0.08423,-0.057 0.134033,-0.075 0.05029,-0.019 0.105957,-0.028 0.166992,-0.028 0.03418,0 0.06641,0 0.09668,0.011 0.03076,0.01 0.05737,0.016 0.07983,0.028 0.02295,0.012 0.03882,0.022 0.04761,0.032 0.0093,0.01 0.01391,0.021 0.01392,0.036"
         id="path3775" />
      <path
         d="m 34.63501,1027.2577 c -1e-6,0 -4.89e-4,0.01 -0.0015,0.017 -4.89e-4,0.01 -0.0017,0.016 -0.0037,0.025 -0.0015,0.01 -0.0037,0.019 -0.0066,0.029 -0.0024,0.01 -0.0056,0.019 -0.0095,0.027 -0.0034,0.01 -0.0078,0.015 -0.01318,0.02 -0.0049,0.01 -0.01026,0.01 -0.01611,0.01 l -0.238037,0 -0.152344,0.7639 c -0.0015,0 -0.0042,0.01 -0.0081,0.013 -0.0039,0 -0.01001,0.01 -0.01831,0.01 -0.0078,0 -0.01807,0 -0.03076,0.01 -0.01221,0 -0.02783,0 -0.04687,0 -0.01855,0 -0.03394,-8e-4 -0.04614,0 -0.01221,0 -0.02173,0 -0.02856,-0.01 -0.0063,0 -0.01074,-0.01 -0.01318,-0.01 -0.002,0 -0.0024,-0.01 -0.0015,-0.013 l 0.152344,-0.7639 -0.23584,0 c -0.0073,0 -0.01245,0 -0.01538,-0.01 -0.0024,-0.01 -0.0037,-0.013 -0.0037,-0.022 0,0 2.44e-4,-0.01 7.33e-4,-0.017 9.76e-4,-0.01 0.0022,-0.016 0.0037,-0.026 0.002,-0.01 0.0041,-0.019 0.0066,-0.029 0.0029,-0.01 0.0063,-0.02 0.01025,-0.028 0.0039,-0.01 0.0083,-0.015 0.01318,-0.02 0.0049,-0.01 0.01025,-0.01 0.01611,-0.01 l 0.667969,0 c 0.0059,0 0.01025,0 0.01318,0.01 0.0034,0.01 0.0051,0.013 0.0051,0.023"
         id="path3777" />
    </g>
    <g
       style="font-size:10px;font-style:italic;font-variant:normal;font-weight:bold;font-stretch:normal;fill:#d1dfe2;fill-opacity:1;stroke:none;font-family:Purisa;-inkscape-font-specification:'A.C.M.E. Secret Agent Italic'"
       id="text3718"
       transform="translate(-0.1964281,-0.67804219)">
      <path
         d="m 12.070776,1034.4877 c -0.106669,0 -0.186669,-0.033 -0.24,-0.1 -0.04667,-0.067 -0.07,-0.19 -0.07,-0.37 -2e-6,-0.3467 0.116664,-1.0833 0.35,-2.21 0.239997,-1.1267 0.366663,-1.8033 0.38,-2.03 -0.04,0.033 -0.173336,0.1667 -0.4,0.4 -0.226669,0.2333 -0.430002,0.42 -0.61,0.56 -0.180002,0.1333 -0.330002,0.2 -0.45,0.2 -0.08,0 -0.146668,-0.027 -0.2,-0.08 -0.05334,-0.053 -0.08,-0.12 -0.08,-0.2 -10e-7,-0.1 0.02333,-0.1833 0.07,-0.25 0.05333,-0.073 0.156665,-0.1733 0.31,-0.3 0.153331,-0.1333 0.269998,-0.24 0.35,-0.32 l 0.44,-0.44 c 0.1,-0.1 0.23333,-0.2567 0.4,-0.47 0.17333,-0.22 0.32333,-0.3867 0.45,-0.5 0.126663,-0.12 0.256663,-0.18 0.39,-0.18 0.186663,0 0.279996,0.15 0.28,0.45 -4e-6,0.28 -0.143337,1.2267 -0.43,2.84 -0.28667,1.6067 -0.48667,2.5433 -0.6,2.81 -0.10667,0.1267 -0.220003,0.19 -0.34,0.19"
         id="path3737" />
    </g>
    <g
       style="font-size:10px;font-style:italic;font-variant:normal;font-weight:bold;font-stretch:normal;fill:#d1dfe2;fill-opacity:1;stroke:none;font-family:Purisa;-inkscape-font-specification:'A.C.M.E. Secret Agent Italic'"
       id="text3722"
       transform="translate(-0.1964281,-0.67804219)">
      <path
         d="m 23.640777,1031.9577 c 0.486664,-0.073 0.83333,-0.13 1.04,-0.17 0.206663,-0.047 0.336663,-0.087 0.39,-0.12 0.05333,-0.04 0.09,-0.1033 0.11,-0.19 0.04,-0.2067 0.07666,-0.4767 0.11,-0.81 l 0.03,-0.36 -0.31,0.27 c -0.513337,0.4533 -0.970003,0.9133 -1.37,1.38 m 2.08,2.24 c -4e-6,0.1 -0.06334,0.2033 -0.19,0.31 -0.120004,0.1133 -0.240004,0.17 -0.36,0.17 -0.220004,0 -0.330004,-0.24 -0.33,-0.72 -4e-6,-0.1733 0.01666,-0.4233 0.05,-0.75 0.03333,-0.3333 0.05,-0.54 0.05,-0.62 -4e-6,-0.06 -0.0033,-0.1 -0.01,-0.12 -0.07334,0.013 -0.270003,0.05 -0.59,0.11 -0.313336,0.053 -0.616669,0.1033 -0.91,0.15 -0.286669,0.04 -0.513335,0.06 -0.68,0.06 -0.280001,0 -0.420001,-0.087 -0.42,-0.26 -1e-6,-0.2067 0.196665,-0.5133 0.59,-0.92 0.619998,-0.64 1.29333,-1.29 2.02,-1.95 0.733329,-0.6667 1.159995,-1 1.28,-1 0.03333,0 0.09,-0.043 0.17,-0.13 0.08,-0.093 0.173328,-0.14 0.28,-0.14 0.09999,0 0.176661,0.033 0.23,0.1 0.05333,0.06 0.07999,0.13 0.08,0.21 -6e-6,0.08 -0.03667,0.1733 -0.11,0.28 -0.07334,0.1067 -0.160005,0.2 -0.26,0.28 -0.120005,0.1067 -0.203338,0.2133 -0.25,0.32 -0.04,0.1 -0.09667,0.3267 -0.17,0.68 -0.120005,0.5733 -0.180005,0.9267 -0.18,1.06 -5e-6,0.06 0.01,0.09 0.03,0.09 0.146662,0 0.333328,-0.047 0.56,-0.14 0.226661,-0.093 0.366661,-0.14 0.42,-0.14 0.153327,0 0.276661,0.04 0.37,0.12 0.09333,0.073 0.139994,0.1633 0.14,0.27 -6e-6,0.047 -0.01001,0.097 -0.03,0.15 -0.02001,0.047 -0.07334,0.1033 -0.16,0.17 -0.08667,0.067 -0.203339,0.1067 -0.35,0.12 -0.120006,0.01 -0.366672,0.063 -0.74,0.17 l -0.39,0.11 -0.11,0.72 c -0.04667,0.2667 -0.07,0.52 -0.07,0.76 -4e-6,0.1067 0.0067,0.21 0.02,0.31 0.01333,0.1 0.02,0.1567 0.02,0.17"
         id="path3734" />
    </g>
    <g
       style="font-size:10px;font-style:italic;font-variant:normal;font-weight:bold;font-stretch:normal;fill:#d1dfe2;fill-opacity:1;stroke:none;font-family:Purisa;-inkscape-font-specification:'A.C.M.E. Secret Agent Italic'"
       id="text3726"
       transform="translate(-0.1964281,-0.67804219)">
      <path
         d="m 35.450777,1031.1677 c -0.120002,0 -0.203335,-0.02 -0.25,-0.06 -0.04667,-0.04 -0.07,-0.12 -0.07,-0.24 -2e-6,-0.1067 0.02667,-0.2933 0.08,-0.56 l 0.34,-1.61 2,-0.33 c 0.413329,-0.067 0.689995,-0.1 0.83,-0.1 0.313328,0 0.469994,0.13 0.47,0.39 -6e-6,0.087 -0.02001,0.2067 -0.06,0.36 -0.03334,0.1533 -0.09334,0.3467 -0.18,0.58 -0.08667,0.2333 -0.173339,0.46 -0.26,0.68 -0.08667,0.22 -0.206672,0.51 -0.36,0.87 -0.153338,0.36 -0.286671,0.6667 -0.4,0.92 -0.106671,0.2533 -0.256671,0.6033 -0.45,1.05 -0.193337,0.44 -0.34667,0.79 -0.46,1.05 -0.06667,0.1533 -0.143337,0.2633 -0.23,0.33 -0.08667,0.06 -0.20667,0.09 -0.36,0.09 -0.246669,0 -0.370002,-0.067 -0.37,-0.2 -2e-6,-0.26 0.296664,-0.9833 0.89,-2.17 0.179996,-0.3667 0.409996,-0.8967 0.69,-1.59 0.279996,-0.6933 0.459995,-1.1633 0.54,-1.41 l -0.12,0 c -0.293338,0 -0.533337,0.01 -0.72,0.02 l -0.79,0.05 -0.05,0.38 c -0.0067,0.04 -0.02,0.1 -0.04,0.18 -0.01334,0.08 -0.02,0.1267 -0.02,0.14 -0.100003,0.4533 -0.203336,0.7633 -0.31,0.93 -0.100002,0.1667 -0.213336,0.25 -0.34,0.25"
         id="path3731" />
    </g>
  </g>
</svg>
