<?xml version="1.0" encoding="UTF-8" standalone="no"?>
<!-- Created with Inkscape (http://www.inkscape.org/) -->

<svg
   xmlns:dc="http://purl.org/dc/elements/1.1/"
   xmlns:cc="http://creativecommons.org/ns#"
   xmlns:rdf="http://www.w3.org/1999/02/22-rdf-syntax-ns#"
   xmlns:svg="http://www.w3.org/2000/svg"
   xmlns="http://www.w3.org/2000/svg"
   xmlns:xlink="http://www.w3.org/1999/xlink"
   xmlns:sodipodi="http://sodipodi.sourceforge.net/DTD/sodipodi-0.dtd"
   xmlns:inkscape="http://www.inkscape.org/namespaces/inkscape"
   width="48"
   height="48"
   id="svg2"
   version="1.1"
   inkscape:version="0.47pre4 r22446"
   sodipodi:docname="emblem-symbolic-link.svg">
  <defs
     id="defs4">
    <linearGradient
       id="linearGradient3607">
      <stop
         style="stop-color:#505050;stop-opacity:0.39215687;"
         offset="0"
         id="stop3609" />
      <stop
         style="stop-color:#ffffff;stop-opacity:0.39215687;"
         offset="1"
         id="stop3611" />
    </linearGradient>
    <linearGradient
       id="linearGradient3752">
      <stop
         style="stop-color:#c8c8c8;stop-opacity:0.39215687;"
         offset="0"
         id="stop3754" />
      <stop
         style="stop-color:#646464;stop-opacity:0.39215687;"
         offset="1"
         id="stop3756" />
    </linearGradient>
    <inkscape:perspective
       sodipodi:type="inkscape:persp3d"
       inkscape:vp_x="0 : 526.18109 : 1"
       inkscape:vp_y="0 : 1000 : 0"
       inkscape:vp_z="744.09448 : 526.18109 : 1"
       inkscape:persp3d-origin="372.04724 : 350.78739 : 1"
       id="perspective10" />
    <inkscape:perspective
       id="perspective2940"
       inkscape:persp3d-origin="0.5 : 0.33333333 : 1"
       inkscape:vp_z="1 : 0.5 : 1"
       inkscape:vp_y="0 : 1000 : 0"
       inkscape:vp_x="0 : 0.5 : 1"
       sodipodi:type="inkscape:persp3d" />
    <inkscape:perspective
       id="perspective2954"
       inkscape:persp3d-origin="0.5 : 0.33333333 : 1"
       inkscape:vp_z="1 : 0.5 : 1"
       inkscape:vp_y="0 : 1000 : 0"
       inkscape:vp_x="0 : 0.5 : 1"
       sodipodi:type="inkscape:persp3d" />
    <linearGradient
       inkscape:collect="always"
       xlink:href="#linearGradient3752"
       id="linearGradient3758"
       x1="7.9375"
       y1="46.3125"
       x2="29.9375"
       y2="24.3125"
       gradientUnits="userSpaceOnUse" />
    <linearGradient
       inkscape:collect="always"
       xlink:href="#linearGradient3752"
       id="linearGradient2830"
       gradientUnits="userSpaceOnUse"
       x1="7.9375"
       y1="46.3125"
       x2="29.9375"
       y2="24.3125" />
    <linearGradient
       inkscape:collect="always"
       xlink:href="#linearGradient3752"
       id="linearGradient2832"
       gradientUnits="userSpaceOnUse"
       x1="7.9375"
       y1="46.3125"
       x2="29.9375"
       y2="24.3125" />
    <linearGradient
       inkscape:collect="always"
       xlink:href="#linearGradient3752"
       id="linearGradient3605"
       gradientUnits="userSpaceOnUse"
       x1="7.9375"
       y1="46.3125"
       x2="29.9375"
       y2="24.3125"
       gradientTransform="matrix(2.0627803,0,0,2.0627803,-15.063902,955.52026)" />
    <linearGradient
       inkscape:collect="always"
       xlink:href="#linearGradient3607"
       id="linearGradient3613"
       x1="22.437208"
       y1="1015.3912"
       x2="22.437208"
       y2="1044.4595"
       gradientUnits="userSpaceOnUse" />
  </defs>
  <sodipodi:namedview
     id="base"
     pagecolor="#ffffff"
     bordercolor="#666666"
     borderopacity="1.0"
     inkscape:pageopacity="0.0"
     inkscape:pageshadow="2"
     inkscape:zoom="2.8"
     inkscape:cx="-4.5232185"
     inkscape:cy="45.071493"
     inkscape:document-units="px"
     inkscape:current-layer="layer1"
     showgrid="false"
     inkscape:window-width="1280"
     inkscape:window-height="714"
     inkscape:window-x="0"
     inkscape:window-y="25"
     inkscape:window-maximized="1" />
  <metadata
     id="metadata7">
    <rdf:RDF>
      <cc:Work
         rdf:about="">
        <dc:format>image/svg+xml</dc:format>
        <dc:type
           rdf:resource="http://purl.org/dc/dcmitype/StillImage" />
        <dc:title />
      </cc:Work>
    </rdf:RDF>
  </metadata>
  <g
     inkscape:label="Livello 1"
     inkscape:groupmode="layer"
     id="layer1"
     transform="translate(0,-1004.3622)">
    <path
       style="fill:url(#linearGradient3605);fill-opacity:1;stroke:none"
       d="m 24,1005.6716 c -12.531663,0 -22.6905834,10.1589 -22.6905834,22.6906 l 0,20.6278 c 0,1.1428 0.92,2.0628 2.0627803,2.0628 l 20.6278031,0 c 12.531663,0 22.690583,-10.1589 22.690583,-22.6906 0,-12.5317 -10.15892,-22.6906 -22.690583,-22.6906 z m -20.8856506,31.5219 c 0.5741029,1.3573 1.2472479,2.6605 2.0627803,3.8677 0.8155326,1.2071 1.7453143,2.3255 2.771861,3.352 1.0265468,1.0265 2.1448703,1.9563 3.3520183,2.7719 1.207147,0.8155 2.510381,1.4886 3.867713,2.0627 -1.357332,-0.5741 -2.660566,-1.2472 -3.867713,-2.0627 -1.207148,-0.8156 -2.3254715,-1.7454 -3.3520183,-2.7719 -1.0265467,-1.0265 -1.9563284,-2.1449 -2.771861,-3.352 -0.8155324,-1.2072 -1.4886772,-2.5104 -2.0627803,-3.8677 z"
       id="path2960" />
    <path
       id="path3760"
       d="m 24,1005.6716 c -12.531663,0 -22.6905834,10.1589 -22.6905834,22.6906 l 0,20.6278 c 0,1.1428 0.92,2.0628 2.0627803,2.0628 l 20.6278031,0 c 12.531663,0 22.690583,-10.1589 22.690583,-22.6906 0,-12.5317 -10.15892,-22.6906 -22.690583,-22.6906 z"
       style="fill:none;fill-opacity:1;stroke:#505050;stroke-width:0.61883414000000003;stroke-miterlimit:4;stroke-opacity:0.39215686999999999;stroke-dasharray:none"
       sodipodi:nodetypes="cccccsc" />
    <path
       style="fill:#787878;fill-opacity:0.39215686999999999;stroke:url(#linearGradient3613)"
       d="m 36.431783,1015.8912 -10.466228,2.2198 -10.545531,2.2994 4.519535,4.5197 -11.4969264,11.4969 7.5325334,7.5325 11.496809,-11.4967 4.440254,4.4401 2.378703,-10.4663 2.140851,-10.5454 z"
       id="path3762" />
  </g>
</svg>
