<?xml version="1.0" encoding="UTF-8" standalone="no"?>
<!-- Created with Inkscape (http://www.inkscape.org/) -->

<svg
   xmlns:dc="http://purl.org/dc/elements/1.1/"
   xmlns:cc="http://creativecommons.org/ns#"
   xmlns:rdf="http://www.w3.org/1999/02/22-rdf-syntax-ns#"
   xmlns:svg="http://www.w3.org/2000/svg"
   xmlns="http://www.w3.org/2000/svg"
   xmlns:xlink="http://www.w3.org/1999/xlink"
   xmlns:sodipodi="http://sodipodi.sourceforge.net/DTD/sodipodi-0.dtd"
   xmlns:inkscape="http://www.inkscape.org/namespaces/inkscape"
   width="16"
   height="16"
   id="svg2"
   version="1.1"
   inkscape:version="0.47pre4 r22446"
   sodipodi:docname="rhythmbox.svg"
   inkscape:export-filename="/home/andrea/Documenti/MeliaeSVG/48/apps/png/preferences-desktop-sound.png"
   inkscape:export-xdpi="240"
   inkscape:export-ydpi="240">
  <defs
     id="defs4">
    <linearGradient
       id="linearGradient3682">
      <stop
         style="stop-color:#c8c8c8;stop-opacity:1;"
         offset="0"
         id="stop3684" />
      <stop
         id="stop3686"
         offset="0.1202545"
         style="stop-color:#ebebeb;stop-opacity:0;" />
      <stop
         id="stop3688"
         offset="0.75010377"
         style="stop-color:#ebebeb;stop-opacity:0;" />
      <stop
         style="stop-color:#c8c8c8;stop-opacity:0;"
         offset="1"
         id="stop3690" />
    </linearGradient>
    <linearGradient
       id="linearGradient2900">
      <stop
         id="stop2902"
         offset="0"
         style="stop-color:#c8c8c8;stop-opacity:1;" />
      <stop
         style="stop-color:#ebebeb;stop-opacity:1;"
         offset="0.09461032"
         id="stop2904" />
      <stop
         style="stop-color:#ebebeb;stop-opacity:1;"
         offset="0.75010377"
         id="stop2906" />
      <stop
         id="stop2908"
         offset="1"
         style="stop-color:#c8c8c8;stop-opacity:1;" />
    </linearGradient>
    <linearGradient
       id="linearGradient4098">
      <stop
         style="stop-color:#333333;stop-opacity:1;"
         offset="0"
         id="stop4100" />
      <stop
         style="stop-color:#333333;stop-opacity:0;"
         offset="1"
         id="stop4102" />
    </linearGradient>
    <linearGradient
       id="linearGradient4020">
      <stop
         style="stop-color:#000000;stop-opacity:1;"
         offset="0"
         id="stop4022" />
      <stop
         style="stop-color:#000000;stop-opacity:0;"
         offset="1"
         id="stop4024" />
    </linearGradient>
    <linearGradient
       id="linearGradient4009">
      <stop
         id="stop4011"
         offset="0"
         style="stop-color:#ffffff;stop-opacity:0.78431374;" />
      <stop
         id="stop4013"
         offset="1"
         style="stop-color:#ffffff;stop-opacity:0;" />
    </linearGradient>
    <linearGradient
       id="linearGradient3984">
      <stop
         style="stop-color:#ffffff;stop-opacity:0.78431374;"
         offset="0"
         id="stop3986" />
      <stop
         style="stop-color:#ffffff;stop-opacity:0;"
         offset="1"
         id="stop3988" />
    </linearGradient>
    <linearGradient
       id="linearGradient3949">
      <stop
         style="stop-color:#505050;stop-opacity:1;"
         offset="0"
         id="stop3951" />
      <stop
         style="stop-color:#000000;stop-opacity:1;"
         offset="1"
         id="stop3953" />
    </linearGradient>
    <linearGradient
       id="linearGradient3937">
      <stop
         style="stop-color:#c8c8c8;stop-opacity:1;"
         offset="0"
         id="stop3939" />
      <stop
         id="stop3947"
         offset="0.26679271"
         style="stop-color:#ebebeb;stop-opacity:1;" />
      <stop
         id="stop3945"
         offset="0.75010377"
         style="stop-color:#ebebeb;stop-opacity:1;" />
      <stop
         style="stop-color:#c8c8c8;stop-opacity:1;"
         offset="1"
         id="stop3941" />
    </linearGradient>
    <inkscape:perspective
       sodipodi:type="inkscape:persp3d"
       inkscape:vp_x="0 : 526.18109 : 1"
       inkscape:vp_y="0 : 1000 : 0"
       inkscape:vp_z="744.09448 : 526.18109 : 1"
       inkscape:persp3d-origin="372.04724 : 350.78739 : 1"
       id="perspective10" />
    <inkscape:perspective
       id="perspective3139"
       inkscape:persp3d-origin="0.5 : 0.33333333 : 1"
       inkscape:vp_z="1 : 0.5 : 1"
       inkscape:vp_y="0 : 1000 : 0"
       inkscape:vp_x="0 : 0.5 : 1"
       sodipodi:type="inkscape:persp3d" />
    <radialGradient
       inkscape:collect="always"
       xlink:href="#linearGradient4020"
       id="radialGradient4133"
       gradientUnits="userSpaceOnUse"
       gradientTransform="matrix(0.89733465,0,-2.8299354e-8,-0.98162825,32.983009,1094.4814)"
       cx="48.321712"
       cy="108.83756"
       fx="48.321712"
       fy="108.83756"
       r="13.839286" />
    <linearGradient
       inkscape:collect="always"
       xlink:href="#linearGradient3984"
       id="linearGradient4135"
       gradientUnits="userSpaceOnUse"
       x1="28.75"
       y1="35.673389"
       x2="28.75"
       y2="115.5" />
    <radialGradient
       inkscape:collect="always"
       xlink:href="#linearGradient4009"
       id="radialGradient4137"
       gradientUnits="userSpaceOnUse"
       gradientTransform="matrix(1.1762512,5.2882463e-7,-9.4013267e-7,1.6415367,19.505391,854.09876)"
       cx="48.321709"
       cy="114.19416"
       fx="48.321709"
       fy="114.19416"
       r="13.839286" />
    <radialGradient
       inkscape:collect="always"
       xlink:href="#linearGradient4020"
       id="radialGradient4139"
       gradientUnits="userSpaceOnUse"
       gradientTransform="matrix(0.89733465,0,-2.8299354e-8,-0.98162825,32.983009,1094.4814)"
       cx="48.321712"
       cy="108.83756"
       fx="48.321712"
       fy="108.83756"
       r="13.839286" />
    <linearGradient
       inkscape:collect="always"
       xlink:href="#linearGradient3984"
       id="linearGradient4141"
       gradientUnits="userSpaceOnUse"
       x1="28.75"
       y1="35.673389"
       x2="28.75"
       y2="115.5" />
    <inkscape:perspective
       id="perspective4931"
       inkscape:persp3d-origin="0.5 : 0.33333333 : 1"
       inkscape:vp_z="1 : 0.5 : 1"
       inkscape:vp_y="0 : 1000 : 0"
       inkscape:vp_x="0 : 0.5 : 1"
       sodipodi:type="inkscape:persp3d" />
    <linearGradient
       inkscape:collect="always"
       xlink:href="#linearGradient3937"
       id="linearGradient3686"
       gradientUnits="userSpaceOnUse"
       x1="38.099571"
       y1="989.11548"
       x2="112.84957"
       y2="989.11548" />
    <radialGradient
       inkscape:collect="always"
       xlink:href="#linearGradient3949"
       id="radialGradient3688"
       gradientUnits="userSpaceOnUse"
       gradientTransform="matrix(1.736681,1.113318e-6,-1.1431112e-6,1.7831559,-55.59952,-786.60722)"
       cx="75.474571"
       cy="1009.4531"
       fx="75.474571"
       fy="1009.4531"
       r="35.39809" />
    <radialGradient
       inkscape:collect="always"
       xlink:href="#linearGradient4098"
       id="radialGradient3690"
       gradientUnits="userSpaceOnUse"
       gradientTransform="matrix(1,0,0,0.19999999,0,92.500508)"
       cx="75.508904"
       cy="115.62563"
       fx="75.508904"
       fy="115.62563"
       r="44.194176" />
    <radialGradient
       inkscape:collect="always"
       xlink:href="#linearGradient4009"
       id="radialGradient3692"
       gradientUnits="userSpaceOnUse"
       gradientTransform="matrix(1.1762512,5.2882463e-7,-9.4013267e-7,1.6415367,19.505391,854.09876)"
       cx="48.321709"
       cy="114.19416"
       fx="48.321709"
       fy="114.19416"
       r="13.839286" />
    <radialGradient
       inkscape:collect="always"
       xlink:href="#linearGradient3949"
       id="radialGradient3710"
       gradientUnits="userSpaceOnUse"
       gradientTransform="matrix(0.27200625,1.7437253e-7,-1.7903886e-7,0.27928535,-6.2251471,762.45136)"
       cx="75.474571"
       cy="1009.4531"
       fx="75.474571"
       fy="1009.4531"
       r="35.39809" />
    <linearGradient
       inkscape:collect="always"
       xlink:href="#linearGradient3937"
       id="linearGradient3713"
       gradientUnits="userSpaceOnUse"
       x1="38.099571"
       y1="989.11548"
       x2="112.84957"
       y2="989.11548"
       gradientTransform="matrix(0.15662419,0,0,0.15662419,2.4830824,885.65308)" />
    <radialGradient
       inkscape:collect="always"
       xlink:href="#linearGradient4098"
       id="radialGradient2881"
       gradientUnits="userSpaceOnUse"
       gradientTransform="matrix(1,0,0,0.19999999,0,92.500508)"
       cx="75.508904"
       cy="115.62563"
       fx="75.508904"
       fy="115.62563"
       r="44.194176" />
    <linearGradient
       inkscape:collect="always"
       xlink:href="#linearGradient3937"
       id="linearGradient2883"
       gradientUnits="userSpaceOnUse"
       gradientTransform="matrix(0.15662419,0,0,0.15662419,2.4830824,885.65308)"
       x1="38.099571"
       y1="989.11548"
       x2="112.84957"
       y2="989.11548" />
    <radialGradient
       inkscape:collect="always"
       xlink:href="#linearGradient3949"
       id="radialGradient2885"
       gradientUnits="userSpaceOnUse"
       gradientTransform="matrix(0.27200625,1.7437253e-7,-1.7903886e-7,0.27928535,-6.2251471,762.45136)"
       cx="75.474571"
       cy="1009.4531"
       fx="75.474571"
       fy="1009.4531"
       r="35.39809" />
    <radialGradient
       inkscape:collect="always"
       xlink:href="#linearGradient4009"
       id="radialGradient2887"
       gradientUnits="userSpaceOnUse"
       gradientTransform="matrix(1.1762512,5.2882463e-7,-9.4013267e-7,1.6415367,19.505391,854.09876)"
       cx="48.321709"
       cy="114.19416"
       fx="48.321709"
       fy="114.19416"
       r="13.839286" />
    <radialGradient
       inkscape:collect="always"
       xlink:href="#linearGradient4020"
       id="radialGradient2889"
       gradientUnits="userSpaceOnUse"
       gradientTransform="matrix(0.89733465,0,-2.8299354e-8,-0.98162825,32.983009,1094.4814)"
       cx="48.321712"
       cy="108.83756"
       fx="48.321712"
       fy="108.83756"
       r="13.839286" />
    <linearGradient
       inkscape:collect="always"
       xlink:href="#linearGradient3984"
       id="linearGradient2891"
       gradientUnits="userSpaceOnUse"
       x1="28.75"
       y1="35.673389"
       x2="28.75"
       y2="115.5" />
    <radialGradient
       inkscape:collect="always"
       xlink:href="#linearGradient4009"
       id="radialGradient2893"
       gradientUnits="userSpaceOnUse"
       gradientTransform="matrix(1.1762512,5.2882463e-7,-9.4013267e-7,1.6415367,19.505391,854.09876)"
       cx="48.321709"
       cy="114.19416"
       fx="48.321709"
       fy="114.19416"
       r="13.839286" />
    <radialGradient
       inkscape:collect="always"
       xlink:href="#linearGradient4020"
       id="radialGradient2895"
       gradientUnits="userSpaceOnUse"
       gradientTransform="matrix(0.89733465,0,-2.8299354e-8,-0.98162825,32.983009,1094.4814)"
       cx="48.321712"
       cy="108.83756"
       fx="48.321712"
       fy="108.83756"
       r="13.839286" />
    <linearGradient
       inkscape:collect="always"
       xlink:href="#linearGradient3984"
       id="linearGradient2897"
       gradientUnits="userSpaceOnUse"
       x1="28.75"
       y1="35.673389"
       x2="28.75"
       y2="115.5" />
    <radialGradient
       inkscape:collect="always"
       xlink:href="#linearGradient3949"
       id="radialGradient2888"
       gradientUnits="userSpaceOnUse"
       gradientTransform="matrix(0.27200625,1.7437253e-7,-1.7903886e-7,0.27928535,-10.53475,763.87334)"
       cx="75.474571"
       cy="1009.4531"
       fx="75.474571"
       fy="1009.4531"
       r="35.39809" />
    <linearGradient
       inkscape:collect="always"
       xlink:href="#linearGradient3937"
       id="linearGradient2892"
       gradientUnits="userSpaceOnUse"
       gradientTransform="matrix(0.15662419,0,0,0.15662419,-1.8265208,887.07506)"
       x1="38.099571"
       y1="989.11548"
       x2="112.84957"
       y2="989.11548" />
    <linearGradient
       inkscape:collect="always"
       xlink:href="#linearGradient3682"
       id="linearGradient2898"
       gradientUnits="userSpaceOnUse"
       gradientTransform="matrix(0.15662419,0,0,0.15662419,-1.8265208,887.07506)"
       x1="75.474571"
       y1="934.09991"
       x2="75.474571"
       y2="1044.1315" />
    <radialGradient
       inkscape:collect="always"
       xlink:href="#linearGradient4098"
       id="radialGradient2905"
       gradientUnits="userSpaceOnUse"
       gradientTransform="matrix(1,0,0,0.19999999,0,92.500508)"
       cx="75.508904"
       cy="115.62563"
       fx="75.508904"
       fy="115.62563"
       r="44.194176" />
    <linearGradient
       inkscape:collect="always"
       xlink:href="#linearGradient3937"
       id="linearGradient2907"
       gradientUnits="userSpaceOnUse"
       gradientTransform="matrix(0.15662419,0,0,0.15662419,-1.8265208,887.07506)"
       x1="38.099571"
       y1="989.11548"
       x2="112.84957"
       y2="989.11548" />
    <linearGradient
       inkscape:collect="always"
       xlink:href="#linearGradient3682"
       id="linearGradient2909"
       gradientUnits="userSpaceOnUse"
       gradientTransform="matrix(0.15662419,0,0,0.15662419,-1.8265208,887.07506)"
       x1="75.474571"
       y1="934.09991"
       x2="75.474571"
       y2="1044.1315" />
    <radialGradient
       inkscape:collect="always"
       xlink:href="#linearGradient3949"
       id="radialGradient2911"
       gradientUnits="userSpaceOnUse"
       gradientTransform="matrix(0.27200625,1.7437253e-7,-1.7903886e-7,0.27928535,-10.53475,763.87334)"
       cx="75.474571"
       cy="1009.4531"
       fx="75.474571"
       fy="1009.4531"
       r="35.39809" />
    <radialGradient
       inkscape:collect="always"
       xlink:href="#linearGradient4009"
       id="radialGradient2913"
       gradientUnits="userSpaceOnUse"
       gradientTransform="matrix(1.1762512,5.2882463e-7,-9.4013267e-7,1.6415367,19.505391,854.09876)"
       cx="48.321709"
       cy="114.19416"
       fx="48.321709"
       fy="114.19416"
       r="13.839286" />
    <radialGradient
       inkscape:collect="always"
       xlink:href="#linearGradient4020"
       id="radialGradient2915"
       gradientUnits="userSpaceOnUse"
       gradientTransform="matrix(0.89733465,0,-2.8299354e-8,-0.98162825,32.983009,1094.4814)"
       cx="48.321712"
       cy="108.83756"
       fx="48.321712"
       fy="108.83756"
       r="13.839286" />
    <linearGradient
       inkscape:collect="always"
       xlink:href="#linearGradient3984"
       id="linearGradient2917"
       gradientUnits="userSpaceOnUse"
       x1="28.75"
       y1="35.673389"
       x2="28.75"
       y2="115.5" />
    <radialGradient
       inkscape:collect="always"
       xlink:href="#linearGradient4009"
       id="radialGradient2919"
       gradientUnits="userSpaceOnUse"
       gradientTransform="matrix(1.1762512,5.2882463e-7,-9.4013267e-7,1.6415367,19.505391,854.09876)"
       cx="48.321709"
       cy="114.19416"
       fx="48.321709"
       fy="114.19416"
       r="13.839286" />
    <radialGradient
       inkscape:collect="always"
       xlink:href="#linearGradient4020"
       id="radialGradient2921"
       gradientUnits="userSpaceOnUse"
       gradientTransform="matrix(0.89733465,0,-2.8299354e-8,-0.98162825,32.983009,1094.4814)"
       cx="48.321712"
       cy="108.83756"
       fx="48.321712"
       fy="108.83756"
       r="13.839286" />
    <linearGradient
       inkscape:collect="always"
       xlink:href="#linearGradient3984"
       id="linearGradient2923"
       gradientUnits="userSpaceOnUse"
       x1="28.75"
       y1="35.673389"
       x2="28.75"
       y2="115.5" />
  </defs>
  <sodipodi:namedview
     id="base"
     pagecolor="#ffffff"
     bordercolor="#666666"
     borderopacity="1.0"
     inkscape:pageopacity="0.0"
     inkscape:pageshadow="2"
     inkscape:zoom="15.839192"
     inkscape:cx="-2.7499066"
     inkscape:cy="8.2228616"
     inkscape:document-units="px"
     inkscape:current-layer="layer1"
     showgrid="false"
     inkscape:window-width="1280"
     inkscape:window-height="712"
     inkscape:window-x="0"
     inkscape:window-y="25"
     inkscape:window-maximized="1" />
  <metadata
     id="metadata7">
    <rdf:RDF>
      <cc:Work
         rdf:about="">
        <dc:format>image/svg+xml</dc:format>
        <dc:type
           rdf:resource="http://purl.org/dc/dcmitype/StillImage" />
        <dc:title />
      </cc:Work>
    </rdf:RDF>
  </metadata>
  <g
     inkscape:label="Livello 1"
     inkscape:groupmode="layer"
     id="layer1"
     transform="translate(0,-1036.3622)">
    <g
       id="g2885"
       transform="matrix(0.79999977,0,0,0.79999977,2.2607912e-6,210.47266)">
      <path
         transform="matrix(0.15662419,0,0,0.15662419,-1.8265208,1031.8526)"
         d="m 119.70308,115.62563 c 0,4.88156 -19.786407,8.83884 -44.194176,8.83884 -24.40777,0 -44.194176,-3.95728 -44.194176,-8.83884 0,-4.88155 19.786406,-8.83883 44.194176,-8.83883 24.407769,0 44.194176,3.95728 44.194176,8.83883 z"
         sodipodi:ry="8.8388348"
         sodipodi:rx="44.194176"
         sodipodi:cy="115.62563"
         sodipodi:cx="75.508904"
         id="path4096"
         style="fill:url(#radialGradient2905);fill-opacity:1;stroke:none"
         sodipodi:type="arc" />
      <path
         sodipodi:nodetypes="ccccccccccccc"
         id="path3926"
         d="m 5.9517608,1033.3777 c -0.2667983,0.01 -0.366266,0.2272 -0.6264971,0.6265 l -0.7551525,1.2628 c -0.3129023,0.5232 -0.4293177,0.5254 -0.4293177,1.1747 l 0,13.3864 c 0,0.4339 0.349272,0.7832 0.7831209,0.7832 l 10.1414166,0 c 0.433849,0 0.783121,-0.3493 0.783121,-0.7832 l 0,-13.3864 c 0,-0.3745 -0.05557,-0.7024 -0.328255,-1.1747 l -0.658448,-1.3617 c -0.215494,-0.3732 -0.280589,-0.5276 -0.824264,-0.5276 l -8.0857242,0 z"
         style="fill:url(#linearGradient2907);fill-opacity:1;stroke:none" />
      <path
         style="fill:url(#linearGradient2909);fill-opacity:1;stroke:none"
         d="m 5.9517608,1033.3777 c -0.2667983,0.01 -0.366266,0.2272 -0.6264971,0.6265 l -0.7551525,1.2628 c -0.3129023,0.5232 -0.4293177,0.5254 -0.4293177,1.1747 l 0,13.3864 c 0,0.4339 0.349272,0.7832 0.7831209,0.7832 l 10.1414166,0 c 0.433849,0 0.783121,-0.3493 0.783121,-0.7832 l 0,-13.3864 c 0,-0.3745 -0.05557,-0.7024 -0.328255,-1.1747 l -0.658448,-1.3617 c -0.215494,-0.3732 -0.280589,-0.5276 -0.824264,-0.5276 l -8.0857242,0 z"
         id="path2895"
         sodipodi:nodetypes="ccccccccccccc" />
      <path
         id="rect3145"
         d="m 5.095203,1035.9127 9.79884,0 c 0.419186,0 0.756652,0.3375 0.756652,0.7566 l 0,12.9326 c 0,0.4192 -0.337466,0.7567 -0.756652,0.7567 l -9.79884,0 c -0.4191854,0 -0.7566521,-0.3375 -0.7566521,-0.7567 l 0,-12.9326 c 0,-0.4191 0.3374667,-0.7566 0.7566521,-0.7566 z"
         style="fill:url(#radialGradient2911);fill-opacity:1;stroke:none" />
      <g
         transform="matrix(0.15662419,0,0,0.15662419,-1.9626551,887.39149)"
         id="g4082">
        <path
           style="fill:#dcdcdc;fill-opacity:1;stroke:none"
           d="m 76.34375,60.28125 c -14.359404,0 -26,11.640596 -26,26 0,14.3594 11.640596,26 26,26 14.359404,0 26,-11.6406 26,-26 0,-14.359404 -11.640596,-26 -26,-26 z m 0,2.5 c 12.978692,0 23.5,10.521308 23.5,23.5 0,12.978692 -10.521308,23.5 -23.5,23.5 -12.978692,0 -23.5,-10.521308 -23.5,-23.5 0,-12.978692 10.521308,-23.5 23.5,-23.5 z"
           transform="translate(0,924.36218)"
           id="path3964" />
        <path
           sodipodi:type="arc"
           style="fill:#333333;fill-opacity:1;stroke:none"
           id="path3969"
           sodipodi:cx="28.75"
           sodipodi:cy="87.821426"
           sodipodi:rx="27.678572"
           sodipodi:ry="27.678572"
           d="M 56.428572,87.821426 C 56.428572,103.10788 44.036453,115.5 28.75,115.5 13.463547,115.5 1.0714283,103.10788 1.0714283,87.821426 1.0714283,72.534973 13.463547,60.142855 28.75,60.142855 c 15.286453,0 27.678572,12.392118 27.678572,27.678571 z"
           transform="matrix(0.83096773,0,0,0.83096773,52.453428,937.66666)" />
        <path
           style="fill:url(#radialGradient2913);fill-opacity:1;stroke:none"
           d="m 92.607205,1026.9069 c -8.982059,8.982 -23.544855,8.982 -32.526913,0 4.742941,-4.6309 9.289676,-9.486 16.263457,-11.5673 6.574371,2.4283 11.587183,5.7252 16.263456,11.5673 z"
           id="path3995"
           sodipodi:nodetypes="cccc" />
        <path
           sodipodi:nodetypes="cccc"
           id="path4028"
           d="m 92.607206,994.37996 c -8.982059,-8.98204 -23.544854,-8.98204 -32.526912,0 4.742941,4.63093 9.289676,9.48594 16.263457,11.56734 6.574371,-2.4282 11.587182,-5.7251 16.263455,-11.56734 z"
           style="fill:url(#radialGradient2915);fill-opacity:1;stroke:none" />
        <path
           transform="matrix(0.2879341,0,0,0.2879341,68.065645,985.35665)"
           d="M 56.428572,87.821426 C 56.428572,103.10788 44.036453,115.5 28.75,115.5 13.463547,115.5 1.0714283,103.10788 1.0714283,87.821426 1.0714283,72.534973 13.463547,60.142855 28.75,60.142855 c 15.286453,0 27.678572,12.392118 27.678572,27.678571 z"
           sodipodi:ry="27.678572"
           sodipodi:rx="27.678572"
           sodipodi:cy="87.821426"
           sodipodi:cx="28.75"
           id="path3980"
           style="fill:#000000;fill-opacity:1;stroke:none"
           sodipodi:type="arc" />
        <path
           sodipodi:type="arc"
           style="fill:url(#linearGradient2917);fill-opacity:1;stroke:none"
           id="path3982"
           sodipodi:cx="28.75"
           sodipodi:cy="87.821426"
           sodipodi:rx="27.678572"
           sodipodi:ry="27.678572"
           d="M 56.428572,87.821426 C 56.428572,103.10788 44.036453,115.5 28.75,115.5 13.463547,115.5 1.0714283,103.10788 1.0714283,87.821426 1.0714283,72.534973 13.463547,60.142855 28.75,60.142855 c 15.286453,0 27.678572,12.392118 27.678572,27.678571 z"
           transform="matrix(0.2200549,0,0,0.1742759,70.017172,992.19238)" />
      </g>
      <g
         transform="matrix(0.08664478,0,0,0.08664478,3.3798356,950.99607)"
         id="g4068">
        <path
           id="path4056"
           transform="translate(0,924.36218)"
           d="m 76.34375,60.28125 c -14.359404,0 -26,11.640596 -26,26 0,14.3594 11.640596,26 26,26 14.359404,0 26,-11.6406 26,-26 0,-14.359404 -11.640596,-26 -26,-26 z m 0,2.5 c 12.978692,0 23.5,10.521308 23.5,23.5 0,12.978692 -10.521308,23.5 -23.5,23.5 -12.978692,0 -23.5,-10.521308 -23.5,-23.5 0,-12.978692 10.521308,-23.5 23.5,-23.5 z"
           style="fill:#dcdcdc;fill-opacity:1;stroke:none" />
        <path
           transform="matrix(0.83096773,0,0,0.83096773,52.453428,937.66666)"
           d="M 56.428572,87.821426 C 56.428572,103.10788 44.036453,115.5 28.75,115.5 13.463547,115.5 1.0714283,103.10788 1.0714283,87.821426 1.0714283,72.534973 13.463547,60.142855 28.75,60.142855 c 15.286453,0 27.678572,12.392118 27.678572,27.678571 z"
           sodipodi:ry="27.678572"
           sodipodi:rx="27.678572"
           sodipodi:cy="87.821426"
           sodipodi:cx="28.75"
           id="path4058"
           style="fill:#333333;fill-opacity:1;stroke:none"
           sodipodi:type="arc" />
        <path
           sodipodi:nodetypes="cccc"
           id="path4060"
           d="m 92.607205,1026.9069 c -8.982059,8.982 -23.544855,8.982 -32.526913,0 4.742941,-4.6309 9.289676,-9.486 16.263457,-11.5673 6.574371,2.4283 11.587183,5.7252 16.263456,11.5673 z"
           style="fill:url(#radialGradient2919);fill-opacity:1;stroke:none" />
        <path
           style="fill:url(#radialGradient2921);fill-opacity:1;stroke:none"
           d="m 92.607206,994.37996 c -8.982059,-8.98204 -23.544854,-8.98204 -32.526912,0 4.742941,4.63093 9.289676,9.48594 16.263457,11.56734 6.574371,-2.4282 11.587182,-5.7251 16.263455,-11.56734 z"
           id="path4062"
           sodipodi:nodetypes="cccc" />
        <path
           sodipodi:type="arc"
           style="fill:#000000;fill-opacity:1;stroke:none"
           id="path4064"
           sodipodi:cx="28.75"
           sodipodi:cy="87.821426"
           sodipodi:rx="27.678572"
           sodipodi:ry="27.678572"
           d="M 56.428572,87.821426 C 56.428572,103.10788 44.036453,115.5 28.75,115.5 13.463547,115.5 1.0714283,103.10788 1.0714283,87.821426 1.0714283,72.534973 13.463547,60.142855 28.75,60.142855 c 15.286453,0 27.678572,12.392118 27.678572,27.678571 z"
           transform="matrix(0.2879341,0,0,0.2879341,68.065645,985.35665)" />
        <path
           transform="matrix(0.2200549,0,0,0.1742759,70.017172,992.19238)"
           d="M 56.428572,87.821426 C 56.428572,103.10788 44.036453,115.5 28.75,115.5 13.463547,115.5 1.0714283,103.10788 1.0714283,87.821426 1.0714283,72.534973 13.463547,60.142855 28.75,60.142855 c 15.286453,0 27.678572,12.392118 27.678572,27.678571 z"
           sodipodi:ry="27.678572"
           sodipodi:rx="27.678572"
           sodipodi:cy="87.821426"
           sodipodi:cx="28.75"
           id="path4066"
           style="fill:url(#linearGradient2923);fill-opacity:1;stroke:none"
           sodipodi:type="arc" />
      </g>
    </g>
  </g>
</svg>
