<?xml version="1.0" encoding="UTF-8" standalone="no"?>
<!-- Created with Inkscape (http://www.inkscape.org/) -->

<svg
   xmlns:dc="http://purl.org/dc/elements/1.1/"
   xmlns:cc="http://creativecommons.org/ns#"
   xmlns:rdf="http://www.w3.org/1999/02/22-rdf-syntax-ns#"
   xmlns:svg="http://www.w3.org/2000/svg"
   xmlns="http://www.w3.org/2000/svg"
   xmlns:xlink="http://www.w3.org/1999/xlink"
   xmlns:sodipodi="http://sodipodi.sourceforge.net/DTD/sodipodi-0.dtd"
   xmlns:inkscape="http://www.inkscape.org/namespaces/inkscape"
   width="48"
   height="48"
   id="svg2"
   version="1.1"
   inkscape:version="0.47pre4 r22446"
   sodipodi:docname="user-desktop1.svg">
  <defs
     id="defs4">
    <linearGradient
       id="linearGradient3613">
      <stop
         style="stop-color:#faf0f0;stop-opacity:1"
         offset="0"
         id="stop3615" />
      <stop
         style="stop-color:#dcdcdc;stop-opacity:1"
         offset="1"
         id="stop3617" />
    </linearGradient>
    <linearGradient
       id="linearGradient3593">
      <stop
         style="stop-color:#5486a4;stop-opacity:1;"
         offset="0"
         id="stop3595" />
      <stop
         style="stop-color:#2d3e44;stop-opacity:1;"
         offset="1"
         id="stop3597" />
    </linearGradient>
    <inkscape:perspective
       sodipodi:type="inkscape:persp3d"
       inkscape:vp_x="0 : 526.18109 : 1"
       inkscape:vp_y="0 : 1000 : 0"
       inkscape:vp_z="744.09448 : 526.18109 : 1"
       inkscape:persp3d-origin="372.04724 : 350.78739 : 1"
       id="perspective10" />
    <linearGradient
       inkscape:collect="always"
       xlink:href="#linearGradient3593"
       id="linearGradient3599"
       x1="18.312103"
       y1="1023.9341"
       x2="53.776459"
       y2="1053.6906"
       gradientUnits="userSpaceOnUse" />
    <filter
       inkscape:collect="always"
       id="filter3603">
      <feGaussianBlur
         inkscape:collect="always"
         stdDeviation="0.60040941"
         id="feGaussianBlur3605" />
    </filter>
    <linearGradient
       y2="1030.7611"
       x2="37.375645"
       y1="948.8266"
       x1="37.375645"
       gradientTransform="matrix(1.0066488,0,0,1.0066488,0.21965498,-1.1089658)"
       gradientUnits="userSpaceOnUse"
       id="linearGradient3757"
       xlink:href="#linearGradient3723"
       inkscape:collect="always" />
    <linearGradient
       y2="1029.8864"
       x2="63.765881"
       y1="949.3266"
       x1="63.765881"
       gradientTransform="matrix(1.0066488,0,0,1.0066488,0.21965498,-1.1089658)"
       gradientUnits="userSpaceOnUse"
       id="linearGradient3755"
       xlink:href="#linearGradient3707"
       inkscape:collect="always" />
    <linearGradient
       y2="983.41931"
       x2="63.765881"
       y1="936.95227"
       x1="63.765881"
       gradientTransform="matrix(1.0066488,0,0,1.0066488,0.21965567,-0.75665045)"
       gradientUnits="userSpaceOnUse"
       id="linearGradient3753"
       xlink:href="#linearGradient3715"
       inkscape:collect="always" />
    <inkscape:perspective
       sodipodi:type="inkscape:persp3d"
       inkscape:vp_x="0 : 0.5 : 1"
       inkscape:vp_y="0 : 1000 : 0"
       inkscape:vp_z="1 : 0.5 : 1"
       inkscape:persp3d-origin="0.5 : 0.33333333 : 1"
       id="perspective2920" />
    <inkscape:perspective
       id="perspective10-2"
       inkscape:persp3d-origin="372.04724 : 350.78739 : 1"
       inkscape:vp_z="744.09448 : 526.18109 : 1"
       inkscape:vp_y="0 : 1000 : 0"
       inkscape:vp_x="0 : 526.18109 : 1"
       sodipodi:type="inkscape:persp3d" />
    <linearGradient
       id="linearGradient3707">
      <stop
         id="stop3709"
         offset="0"
         style="stop-color:#a6c4d9;stop-opacity:0.78431374;" />
      <stop
         id="stop3711"
         offset="1"
         style="stop-color:#75a3c3;stop-opacity:1;" />
    </linearGradient>
    <linearGradient
       id="linearGradient3715">
      <stop
         id="stop3717"
         offset="0"
         style="stop-color:#99bbd4;stop-opacity:1;" />
      <stop
         id="stop3719"
         offset="1"
         style="stop-color:#5d93ba;stop-opacity:1;" />
    </linearGradient>
    <linearGradient
       id="linearGradient3723">
      <stop
         id="stop3725"
         offset="0"
         style="stop-color:#ffffff;stop-opacity:0.78431374;" />
      <stop
         id="stop3727"
         offset="1"
         style="stop-color:#ffffff;stop-opacity:0;" />
    </linearGradient>
    <linearGradient
       inkscape:collect="always"
       xlink:href="#linearGradient3613"
       id="linearGradient3619"
       x1="9.7137623"
       y1="1027.3384"
       x2="11.317411"
       y2="1034.0039"
       gradientUnits="userSpaceOnUse" />
    <filter
       inkscape:collect="always"
       id="filter3623">
      <feGaussianBlur
         inkscape:collect="always"
         stdDeviation="0.065313652"
         id="feGaussianBlur3625" />
    </filter>
  </defs>
  <sodipodi:namedview
     id="base"
     pagecolor="#ffffff"
     bordercolor="#666666"
     borderopacity="1.0"
     inkscape:pageopacity="0.0"
     inkscape:pageshadow="2"
     inkscape:zoom="7.9844143"
     inkscape:cx="24.515113"
     inkscape:cy="24.133178"
     inkscape:document-units="px"
     inkscape:current-layer="layer1"
     showgrid="false"
     inkscape:window-width="1280"
     inkscape:window-height="714"
     inkscape:window-x="0"
     inkscape:window-y="25"
     inkscape:window-maximized="1" />
  <metadata
     id="metadata7">
    <rdf:RDF>
      <cc:Work
         rdf:about="">
        <dc:format>image/svg+xml</dc:format>
        <dc:type
           rdf:resource="http://purl.org/dc/dcmitype/StillImage" />
        <dc:title />
      </cc:Work>
    </rdf:RDF>
  </metadata>
  <g
     inkscape:label="Livello 1"
     inkscape:groupmode="layer"
     id="layer1"
     transform="translate(0,-1004.3622)">
    <rect
       style="fill:url(#linearGradient3599);fill-opacity:1;stroke:none"
       id="rect2816"
       width="44.320442"
       height="35.734146"
       x="1.8397789"
       y="1010.4951"
       rx="2"
       ry="2" />
    <path
       style="fill:#ffffff;fill-opacity:0.58823532;stroke:none"
       d="M 3.84375 6.125 C 2.73575 6.125 1.84375 7.017 1.84375 8.125 L 1.84375 10.3125 L 46.15625 10.3125 L 46.15625 8.125 C 46.15625 7.017 45.26425 6.125 44.15625 6.125 L 3.84375 6.125 z M 42.03125 6.375 C 42.377837 6.375 42.704232 6.5167 42.96875 6.78125 C 43.4075 7.21995 43.476489 7.89035 43.1875 8.40625 L 44.3125 9.53125 L 43.8125 10.0625 L 42.6875 8.9375 C 42.171671 9.2265 41.501251 9.1262 41.0625 8.6875 C 40.533464 8.1584 40.533468 7.31025 41.0625 6.78125 C 41.327017 6.5167 41.684663 6.375 42.03125 6.375 z M 42.03125 6.875 C 41.8106 6.8749875 41.575246 6.956 41.40625 7.125 C 41.068256 7.463 41.068242 8.00575 41.40625 8.34375 C 41.744229 8.68175 42.287007 8.68175 42.625 8.34375 C 42.962993 8.00575 42.962978 7.4629 42.625 7.125 C 42.455996 6.95595 42.2519 6.8750125 42.03125 6.875 z M 3.5625 7 L 4.8125 7 L 4.8125 8.28125 L 3.5625 8.28125 L 3.5625 7 z M 5.03125 7 L 6.28125 7 L 6.28125 8.28125 L 5.03125 8.28125 L 5.03125 7 z M 3.5625 8.46875 L 4.8125 8.46875 L 4.8125 9.71875 L 3.5625 9.71875 L 3.5625 8.46875 z M 5.03125 8.46875 L 6.28125 8.46875 L 6.28125 9.71875 L 5.03125 9.71875 L 5.03125 8.46875 z "
       transform="translate(0,1004.3622)"
       id="rect2818" />
    <g
       transform="matrix(0.25532698,0,0,0.25532698,5.6285309,755.9305)"
       id="layer1-7"
       inkscape:label="Livello 1">
      <g
         transform="matrix(0.25000001,0,0,0.25000001,-0.10237533,789.3479)"
         id="g3749">
        <path
           style="fill:url(#linearGradient3753);fill-opacity:1;stroke:none"
           d="m 12.899858,940.13723 33.069862,0 c 1.654798,0 2.992787,-0.0222 3.40782,1.52663 l 1.143922,3.34307 c 0.638394,1.86568 1.305213,3.26525 3.88921,3.26525 l 61.508468,0 c 1.67305,0 3.01995,1.3469 3.01995,3.01995 l 0,81.66507 c 0,1.673 -1.3469,3.0199 -3.01995,3.0199 l -103.019282,0 c -1.67305,0 -3.019947,-1.3469 -3.019947,-3.0199 l 0,-89.80002 c 0,-1.67305 1.346897,-3.01995 3.019947,-3.01995 z"
           id="rect3704"
           sodipodi:nodetypes="ccccccccccccc" />
        <path
           style="fill:url(#linearGradient3755);fill-opacity:1;fill-rule:evenodd;stroke:url(#linearGradient3757);stroke-width:0.7046541;stroke-miterlimit:4;stroke-dasharray:none"
           d="m 5.7817736,954.52949 117.2554564,0 c 1.67305,0 3.01994,1.3469 3.01994,3.01995 l -5.39256,75.05536 c 0,1.6731 -1.3469,3.0199 -3.01995,3.0199 l -106.470127,10e-5 c -1.6730512,0 -3.0199472,-1.3469 -3.0199472,-3.02 L 2.7618275,957.54944 c 0,-1.67305 1.346896,-3.01995 3.0199461,-3.01995 z"
           id="rect2926"
           sodipodi:nodetypes="ccccccccc" />
      </g>
    </g>
    <rect
       ry="0.30000001"
       rx="0.30000001"
       y="1025.8824"
       x="6.8576741"
       height="7.3505535"
       width="5.7121768"
       id="rect3621"
       style="fill:#333333;fill-opacity:0.78431373999999998;stroke:none;filter:url(#filter3623)" />
    <rect
       style="fill:url(#linearGradient3619);fill-opacity:1;stroke:none"
       id="rect2839"
       width="5.7121768"
       height="7.3505535"
       x="6.8576741"
       y="1025.8824"
       rx="0.30000001"
       ry="0.30000001" />
  </g>
</svg>
