<?xml version="1.0" encoding="UTF-8" standalone="no"?>
<!-- Created with Inkscape (http://www.inkscape.org/) -->

<svg
   xmlns:dc="http://purl.org/dc/elements/1.1/"
   xmlns:cc="http://creativecommons.org/ns#"
   xmlns:rdf="http://www.w3.org/1999/02/22-rdf-syntax-ns#"
   xmlns:svg="http://www.w3.org/2000/svg"
   xmlns="http://www.w3.org/2000/svg"
   xmlns:xlink="http://www.w3.org/1999/xlink"
   xmlns:sodipodi="http://sodipodi.sourceforge.net/DTD/sodipodi-0.dtd"
   xmlns:inkscape="http://www.inkscape.org/namespaces/inkscape"
   width="48"
   height="48"
   id="svg2"
   version="1.1"
   inkscape:version="0.47pre4 r22446"
   sodipodi:docname="folder-gnome.svg">
  <defs
     id="defs4">
    <linearGradient
       id="linearGradient3723">
      <stop
         style="stop-color:#ffffff;stop-opacity:0.78431374;"
         offset="0"
         id="stop3725" />
      <stop
         style="stop-color:#ffffff;stop-opacity:0;"
         offset="1"
         id="stop3727" />
    </linearGradient>
    <linearGradient
       id="linearGradient3715">
      <stop
         style="stop-color:#99bbd4;stop-opacity:1;"
         offset="0"
         id="stop3717" />
      <stop
         style="stop-color:#5d93ba;stop-opacity:1;"
         offset="1"
         id="stop3719" />
    </linearGradient>
    <linearGradient
       id="linearGradient3707">
      <stop
         style="stop-color:#a6c4d9;stop-opacity:0.78431374;"
         offset="0"
         id="stop3709" />
      <stop
         style="stop-color:#75a3c3;stop-opacity:1;"
         offset="1"
         id="stop3711" />
    </linearGradient>
    <inkscape:perspective
       sodipodi:type="inkscape:persp3d"
       inkscape:vp_x="0 : 526.18109 : 1"
       inkscape:vp_y="0 : 1000 : 0"
       inkscape:vp_z="744.09448 : 526.18109 : 1"
       inkscape:persp3d-origin="372.04724 : 350.78739 : 1"
       id="perspective10" />
    <inkscape:perspective
       id="perspective2920"
       inkscape:persp3d-origin="0.5 : 0.33333333 : 1"
       inkscape:vp_z="1 : 0.5 : 1"
       inkscape:vp_y="0 : 1000 : 0"
       inkscape:vp_x="0 : 0.5 : 1"
       sodipodi:type="inkscape:persp3d" />
    <linearGradient
       inkscape:collect="always"
       xlink:href="#linearGradient3707"
       id="linearGradient3713"
       x1="63.765881"
       y1="949.3266"
       x2="63.765881"
       y2="1029.8864"
       gradientUnits="userSpaceOnUse"
       gradientTransform="translate(0.2341189,5.74082)" />
    <linearGradient
       inkscape:collect="always"
       xlink:href="#linearGradient3715"
       id="linearGradient3721"
       x1="63.765881"
       y1="936.95227"
       x2="63.765881"
       y2="983.41931"
       gradientUnits="userSpaceOnUse"
       gradientTransform="translate(0.2341196,6.0908086)" />
    <linearGradient
       inkscape:collect="always"
       xlink:href="#linearGradient3723"
       id="linearGradient3729"
       x1="37.375645"
       y1="948.8266"
       x2="37.375645"
       y2="1030.7611"
       gradientUnits="userSpaceOnUse"
       gradientTransform="translate(0.2341189,5.74082)" />
    <linearGradient
       inkscape:collect="always"
       xlink:href="#linearGradient3715"
       id="linearGradient3735"
       gradientUnits="userSpaceOnUse"
       gradientTransform="translate(0.2341196,6.0908086)"
       x1="63.765881"
       y1="936.95227"
       x2="63.765881"
       y2="983.41931" />
    <linearGradient
       inkscape:collect="always"
       xlink:href="#linearGradient3707"
       id="linearGradient3737"
       gradientUnits="userSpaceOnUse"
       gradientTransform="translate(0.2341189,5.74082)"
       x1="63.765881"
       y1="949.3266"
       x2="63.765881"
       y2="1029.8864" />
    <linearGradient
       inkscape:collect="always"
       xlink:href="#linearGradient3723"
       id="linearGradient3739"
       gradientUnits="userSpaceOnUse"
       gradientTransform="translate(0.2341189,5.74082)"
       x1="37.375645"
       y1="948.8266"
       x2="37.375645"
       y2="1030.7611" />
    <linearGradient
       inkscape:collect="always"
       xlink:href="#linearGradient3707"
       id="linearGradient3742"
       gradientUnits="userSpaceOnUse"
       gradientTransform="matrix(1.0066488,0,0,1.0066488,0.21965498,-1.1089658)"
       x1="63.765881"
       y1="949.3266"
       x2="63.765881"
       y2="1029.8864" />
    <linearGradient
       inkscape:collect="always"
       xlink:href="#linearGradient3723"
       id="linearGradient3744"
       gradientUnits="userSpaceOnUse"
       gradientTransform="matrix(1.0066488,0,0,1.0066488,0.21965498,-1.1089658)"
       x1="37.375645"
       y1="948.8266"
       x2="37.375645"
       y2="1030.7611" />
    <linearGradient
       inkscape:collect="always"
       xlink:href="#linearGradient3715"
       id="linearGradient3747"
       gradientUnits="userSpaceOnUse"
       gradientTransform="matrix(1.0066488,0,0,1.0066488,0.21965567,-0.75665045)"
       x1="63.765881"
       y1="936.95227"
       x2="63.765881"
       y2="983.41931" />
    <linearGradient
       inkscape:collect="always"
       xlink:href="#linearGradient3715"
       id="linearGradient3753"
       gradientUnits="userSpaceOnUse"
       gradientTransform="matrix(1.0066488,0,0,1.0066488,0.21965567,-0.75665045)"
       x1="63.765881"
       y1="936.95227"
       x2="63.765881"
       y2="983.41931" />
    <linearGradient
       inkscape:collect="always"
       xlink:href="#linearGradient3707"
       id="linearGradient3755"
       gradientUnits="userSpaceOnUse"
       gradientTransform="matrix(1.0066488,0,0,1.0066488,0.21965498,-1.1089658)"
       x1="63.765881"
       y1="949.3266"
       x2="63.765881"
       y2="1029.8864" />
    <linearGradient
       inkscape:collect="always"
       xlink:href="#linearGradient3723"
       id="linearGradient3757"
       gradientUnits="userSpaceOnUse"
       gradientTransform="matrix(1.0066488,0,0,1.0066488,0.21965498,-1.1089658)"
       x1="37.375645"
       y1="948.8266"
       x2="37.375645"
       y2="1030.7611" />
    <linearGradient
       inkscape:collect="always"
       xlink:href="#linearGradient3707"
       id="linearGradient2838"
       gradientUnits="userSpaceOnUse"
       gradientTransform="matrix(0.37749331,0,0,0.37749331,-0.07119206,657.42489)"
       x1="63.765881"
       y1="949.3266"
       x2="63.765881"
       y2="1029.8864" />
    <linearGradient
       inkscape:collect="always"
       xlink:href="#linearGradient3723"
       id="linearGradient2840"
       gradientUnits="userSpaceOnUse"
       gradientTransform="matrix(0.37749331,0,0,0.37749331,-0.07119206,657.42489)"
       x1="37.375645"
       y1="948.8266"
       x2="37.375645"
       y2="1030.7611" />
    <linearGradient
       inkscape:collect="always"
       xlink:href="#linearGradient3715"
       id="linearGradient2843"
       gradientUnits="userSpaceOnUse"
       gradientTransform="matrix(0.37749331,0,0,0.37749331,-0.0711918,657.55701)"
       x1="63.765881"
       y1="941.44623"
       x2="63.765881"
       y2="965.56183" />
    <inkscape:perspective
       id="perspective26"
       inkscape:persp3d-origin="200.87007 : 162.74409 : 1"
       inkscape:vp_z="401.74014 : 244.11613 : 1"
       inkscape:vp_y="0 : 1000 : 0"
       inkscape:vp_x="0 : 244.11613 : 1"
       sodipodi:type="inkscape:persp3d" />
  </defs>
  <sodipodi:namedview
     id="base"
     pagecolor="#ffffff"
     bordercolor="#666666"
     borderopacity="1.0"
     inkscape:pageopacity="0.0"
     inkscape:pageshadow="2"
     inkscape:zoom="3.959798"
     inkscape:cx="33.802262"
     inkscape:cy="10.937017"
     inkscape:document-units="px"
     inkscape:current-layer="layer1"
     showgrid="false"
     showguides="true"
     inkscape:guide-bbox="true"
     inkscape:window-width="1280"
     inkscape:window-height="714"
     inkscape:window-x="0"
     inkscape:window-y="25"
     inkscape:window-maximized="1" />
  <metadata
     id="metadata7">
    <rdf:RDF>
      <cc:Work
         rdf:about="">
        <dc:format>image/svg+xml</dc:format>
        <dc:type
           rdf:resource="http://purl.org/dc/dcmitype/StillImage" />
        <dc:title />
      </cc:Work>
    </rdf:RDF>
  </metadata>
  <g
     inkscape:label="Livello 1"
     inkscape:groupmode="layer"
     id="layer1"
     transform="translate(0,-1004.3622)">
    <path
       style="fill:url(#linearGradient2843);fill-opacity:1;stroke:none"
       d="m 4.6838842,1010.3922 12.4011988,0 c 0.620549,0 1.122295,-0.01 1.277932,0.5725 l 0.428971,1.2537 c 0.239398,0.6996 0.489455,1.2244 1.458454,1.2244 l 23.065676,0 c 0.627394,0 1.132481,0.5051 1.132481,1.1325 l 0,30.6244 c 0,0.6274 -0.505087,1.1325 -1.132481,1.1325 l -38.6322318,0 c -0.6273938,0 -1.1324802,-0.5051 -1.1324802,-1.1325 l 0,-33.675 c 0,-0.6274 0.5050864,-1.1325 1.1324802,-1.1325 z"
       id="rect3704"
       sodipodi:nodetypes="ccccccccccccc" />
    <path
       style="fill:url(#linearGradient2838);fill-opacity:1;fill-rule:evenodd;stroke:url(#linearGradient2840);stroke-width:0.2642453;stroke-miterlimit:4;stroke-dasharray:none"
       d="m 2.0146025,1015.7893 43.9707975,0 c 0.627394,0 1.132477,0.5051 1.132477,1.1325 l -2.02221,28.1458 c 0,0.6274 -0.505087,1.1324 -1.132481,1.1324 l -39.9262987,10e-5 c -0.6273942,0 -1.1324802,-0.5051 -1.1324802,-1.1325 l -2.02228444,-28.1458 c 0,-0.6274 0.50508604,-1.1325 1.13247984,-1.1325 z"
       id="rect2926"
       sodipodi:nodetypes="ccccccccc" />
    <path
       id="path4007"
       d="m 16.28125,1019.06 c -0.614042,0 -1.084347,0.2048 -1.4375,0.5937 -0.353153,0.3889 -0.53125,0.9154 -0.53125,1.5938 0,0.6708 0.184459,1.2011 0.53125,1.5937 0.346787,0.3908 0.812888,0.5938 1.40625,0.5938 0.294595,0 0.993456,-0.01 1.46875,-0.4063 l 0,-2.0312 -1.4375,0 0,0.75 0.75,0 0,0.7187 c -0.11273,0.091 -0.346239,0.1563 -0.6875,0.1563 -0.335909,0 -0.621612,-0.1014 -0.8125,-0.3438 -0.190904,-0.2424 -0.28125,-0.586 -0.28125,-1.0312 0,-0.4492 0.11524,-0.7908 0.3125,-1.0313 0.198842,-0.2424 0.477867,-0.375 0.84375,-0.375 0.197253,0 0.398083,0.028 0.59375,0.094 0.114854,0.041 0.235539,0.097 0.34375,0.1562 l 0.25,-0.7187 c -0.192486,-0.1033 -0.407064,-0.197 -0.625,-0.25 -0.216351,-0.053 -0.450477,-0.062 -0.6875,-0.062 z m 7.53125,0 c -0.539592,0.014 -0.967878,0.2217 -1.28125,0.5937 -0.324521,0.387 -0.5,0.9118 -0.5,1.5938 0,0.6802 0.175487,1.2066 0.5,1.5937 0.326105,0.387 0.772653,0.5938 1.34375,0.5938 0.572672,0 1.019229,-0.2068 1.34375,-0.5938 0.324512,-0.3871 0.500003,-0.9135 0.5,-1.5937 -4e-6,-0.682 -0.175488,-1.2068 -0.5,-1.5938 -0.324521,-0.3871 -0.771081,-0.5937 -1.34375,-0.5937 -0.02231,0 -0.04057,-6e-4 -0.0625,0 z m -5.46875,0.062 0,4.2187 0.78125,0 0,-2.5312 1.84375,2.5312 0.5625,0 0,-4.2187 -0.78125,0 0,2.5312 -1.8125,-2.5312 -0.59375,0 z m 8.15625,0 -0.46875,4.2187 0.875,0 0.28125,-2.7187 0.8125,2.7187 0.59375,0 0.8125,-2.625 0.28125,2.625 0.84375,0 -0.4375,-4.2187 -1,0 -0.8125,2.625 -0.8125,-2.625 -0.96875,0 z m 4.65625,0 0,4.2187 2.53125,0 0,-0.8125 -1.59375,0 0,-0.9687 1.1875,0 0,-0.7188 -1.1875,0 0,-0.875 1.5625,0 0,-0.8437 -2.5,0 z m -7.3125,0.7187 c 0.0086,-2e-4 0.0225,0 0.03125,0 0.281561,0 0.501936,0.1308 0.65625,0.375 0.154303,0.2443 0.218747,0.5879 0.21875,1.0313 0,0.4416 -0.06445,0.7869 -0.21875,1.0312 -0.154308,0.2443 -0.374692,0.3438 -0.65625,0.3438 -0.279982,0 -0.501942,-0.1 -0.65625,-0.3438 -0.154308,-0.2443 -0.218746,-0.5896 -0.21875,-1.0312 0,-0.4434 0.06444,-0.787 0.21875,-1.0313 0.149478,-0.2366 0.357568,-0.3676 0.625,-0.375 z m 5.90625,5.6875 c -3.725067,0 -4.408058,5.3125 -2.3125,5.3125 2.095255,0 6.037718,-5.3125 2.3125,-5.3125 z m -5.9375,0.6563 c -2.096316,0.2721 -1.366218,3.9319 -0.25,4 1.115763,0.068 2.347072,-4.2721 0.25,-4 z m -3.5,1.4375 c -0.09193,0.01 -0.207211,0.05 -0.3125,0.094 -1.684926,0.6952 -0.25641,3.5679 0.6875,3.375 0.885624,-0.1806 1.003938,-3.6152 -0.375,-3.4687 z m -2.625,2.25 c -0.146495,0 -0.300076,0.04 -0.46875,0.1562 -1.348788,0.9319 0.456443,3.193 1.25,2.8438 0.694361,-0.3057 0.244218,-2.9655 -0.78125,-3 z m 7.6875,1.7187 c -2.891623,-0.049 -6.693241,1.3993 -7.34375,4.3125 -0.704526,3.1526 2.895147,7.5313 6.65625,7.5313 1.850269,0 3.975723,-1.6649 4.375,-3.7813 0.304946,-1.6139 -3.577406,-0.9742 -3.4375,0.094 0.167614,1.28 -0.947434,1.9189 -2.03125,1.0937 -3.450251,-2.6269 5.728987,-3.9424 5.125,-7.5312 -0.187998,-1.1171 -1.608776,-1.6894 -3.34375,-1.7188 z"
       style="fill:#b2e0ff;fill-opacity:1;fill-rule:nonzero;stroke:none" />
    <path
       id="path4005"
       d="m 16.28125,1018.5552 c -0.614042,0 -1.084347,0.2048 -1.4375,0.5937 -0.353153,0.3889 -0.53125,0.9154 -0.53125,1.5938 0,0.6708 0.184459,1.2011 0.53125,1.5937 0.346787,0.3908 0.812888,0.5938 1.40625,0.5938 0.294595,0 0.993456,-0.01 1.46875,-0.4063 l 0,-2.0312 -1.4375,0 0,0.75 0.75,0 0,0.7187 c -0.11273,0.091 -0.346239,0.1563 -0.6875,0.1563 -0.335909,0 -0.621612,-0.1014 -0.8125,-0.3438 -0.190904,-0.2424 -0.28125,-0.586 -0.28125,-1.0312 0,-0.4492 0.11524,-0.7908 0.3125,-1.0313 0.198842,-0.2424 0.477867,-0.375 0.84375,-0.375 0.197253,0 0.398083,0.028 0.59375,0.094 0.114854,0.041 0.235539,0.097 0.34375,0.1562 l 0.25,-0.7187 c -0.192486,-0.1033 -0.407064,-0.197 -0.625,-0.25 -0.216351,-0.053 -0.450477,-0.062 -0.6875,-0.062 z m 7.53125,0 c -0.539592,0.014 -0.967878,0.2217 -1.28125,0.5937 -0.324521,0.387 -0.5,0.9118 -0.5,1.5938 0,0.6802 0.175487,1.2066 0.5,1.5937 0.326105,0.387 0.772653,0.5938 1.34375,0.5938 0.572672,0 1.019229,-0.2068 1.34375,-0.5938 0.324512,-0.3871 0.500003,-0.9135 0.5,-1.5937 -4e-6,-0.682 -0.175488,-1.2068 -0.5,-1.5938 -0.324521,-0.3871 -0.771081,-0.5937 -1.34375,-0.5937 -0.02231,0 -0.04057,-6e-4 -0.0625,0 z m -5.46875,0.062 0,4.2187 0.78125,0 0,-2.5312 1.84375,2.5312 0.5625,0 0,-4.2187 -0.78125,0 0,2.5312 -1.8125,-2.5312 -0.59375,0 z m 8.15625,0 -0.46875,4.2187 0.875,0 0.28125,-2.7187 0.8125,2.7187 0.59375,0 0.8125,-2.625 0.28125,2.625 0.84375,0 -0.4375,-4.2187 -1,0 -0.8125,2.625 -0.8125,-2.625 -0.96875,0 z m 4.65625,0 0,4.2187 2.53125,0 0,-0.8125 -1.59375,0 0,-0.9687 1.1875,0 0,-0.7188 -1.1875,0 0,-0.875 1.5625,0 0,-0.8437 -2.5,0 z m -7.3125,0.7187 c 0.0086,-2e-4 0.0225,0 0.03125,0 0.281561,0 0.501936,0.1308 0.65625,0.375 0.154303,0.2443 0.218747,0.5879 0.21875,1.0313 0,0.4416 -0.06445,0.7869 -0.21875,1.0312 -0.154308,0.2443 -0.374692,0.3438 -0.65625,0.3438 -0.279982,0 -0.501942,-0.1 -0.65625,-0.3438 -0.154308,-0.2443 -0.218746,-0.5896 -0.21875,-1.0312 0,-0.4434 0.06444,-0.787 0.21875,-1.0313 0.149478,-0.2366 0.357568,-0.3676 0.625,-0.375 z m 5.90625,5.6875 c -3.725067,0 -4.408058,5.3125 -2.3125,5.3125 2.095255,0 6.037718,-5.3125 2.3125,-5.3125 z m -5.9375,0.6563 c -2.096316,0.2721 -1.366218,3.9319 -0.25,4 1.115763,0.068 2.347072,-4.2721 0.25,-4 z m -3.5,1.4375 c -0.09193,0.01 -0.207211,0.05 -0.3125,0.094 -1.684926,0.6952 -0.25641,3.5679 0.6875,3.375 0.885624,-0.1806 1.003938,-3.6152 -0.375,-3.4687 z m -2.625,2.25 c -0.146495,0 -0.300076,0.04 -0.46875,0.1562 -1.348788,0.9319 0.456443,3.193 1.25,2.8438 0.694361,-0.3057 0.244218,-2.9655 -0.78125,-3 z m 7.6875,1.7187 c -2.891623,-0.049 -6.693241,1.3993 -7.34375,4.3125 -0.704526,3.1526 2.895147,7.5313 6.65625,7.5313 1.850269,0 3.975723,-1.6649 4.375,-3.7813 0.304946,-1.6139 -3.577406,-0.9742 -3.4375,0.094 0.167614,1.28 -0.947434,1.9189 -2.03125,1.0937 -3.450251,-2.6269 5.728987,-3.9424 5.125,-7.5312 -0.187998,-1.1171 -1.608776,-1.6894 -3.34375,-1.7188 z"
       style="fill:#3a6888;fill-opacity:1;fill-rule:nonzero;stroke:none" />
    <path
       style="fill:#6290b0;fill-opacity:1;fill-rule:nonzero;stroke:none"
       d="m 16.28125,1018.8076 c -0.614042,0 -1.084347,0.2048 -1.4375,0.5937 -0.353153,0.3889 -0.53125,0.9154 -0.53125,1.5938 0,0.6708 0.184459,1.2011 0.53125,1.5937 0.346787,0.3908 0.812888,0.5938 1.40625,0.5938 0.294595,0 0.993456,-0.01 1.46875,-0.4063 l 0,-2.0312 -1.4375,0 0,0.75 0.75,0 0,0.7187 c -0.11273,0.091 -0.346239,0.1563 -0.6875,0.1563 -0.335909,0 -0.621612,-0.1014 -0.8125,-0.3438 -0.190904,-0.2424 -0.28125,-0.586 -0.28125,-1.0312 0,-0.4492 0.11524,-0.7908 0.3125,-1.0313 0.198842,-0.2424 0.477867,-0.375 0.84375,-0.375 0.197253,0 0.398083,0.028 0.59375,0.094 0.114854,0.041 0.235539,0.097 0.34375,0.1562 l 0.25,-0.7187 c -0.192486,-0.1033 -0.407064,-0.197 -0.625,-0.25 -0.216351,-0.053 -0.450477,-0.062 -0.6875,-0.062 z m 7.53125,0 c -0.539592,0.014 -0.967878,0.2217 -1.28125,0.5937 -0.324521,0.387 -0.5,0.9118 -0.5,1.5938 0,0.6802 0.175487,1.2066 0.5,1.5937 0.326105,0.387 0.772653,0.5938 1.34375,0.5938 0.572672,0 1.019229,-0.2068 1.34375,-0.5938 0.324512,-0.3871 0.500003,-0.9135 0.5,-1.5937 -4e-6,-0.682 -0.175488,-1.2068 -0.5,-1.5938 -0.324521,-0.3871 -0.771081,-0.5937 -1.34375,-0.5937 -0.02231,0 -0.04057,-6e-4 -0.0625,0 z m -5.46875,0.062 0,4.2187 0.78125,0 0,-2.5312 1.84375,2.5312 0.5625,0 0,-4.2187 -0.78125,0 0,2.5312 -1.8125,-2.5312 -0.59375,0 z m 8.15625,0 -0.46875,4.2187 0.875,0 0.28125,-2.7187 0.8125,2.7187 0.59375,0 0.8125,-2.625 0.28125,2.625 0.84375,0 -0.4375,-4.2187 -1,0 -0.8125,2.625 -0.8125,-2.625 -0.96875,0 z m 4.65625,0 0,4.2187 2.53125,0 0,-0.8125 -1.59375,0 0,-0.9687 1.1875,0 0,-0.7188 -1.1875,0 0,-0.875 1.5625,0 0,-0.8437 -2.5,0 z m -7.3125,0.7187 c 0.0086,-2e-4 0.0225,0 0.03125,0 0.281561,0 0.501936,0.1308 0.65625,0.375 0.154303,0.2443 0.218747,0.5879 0.21875,1.0313 0,0.4416 -0.06445,0.7869 -0.21875,1.0312 -0.154308,0.2443 -0.374692,0.3438 -0.65625,0.3438 -0.279982,0 -0.501942,-0.1 -0.65625,-0.3438 -0.154308,-0.2443 -0.218746,-0.5896 -0.21875,-1.0312 0,-0.4434 0.06444,-0.787 0.21875,-1.0313 0.149478,-0.2366 0.357568,-0.3676 0.625,-0.375 z m 5.90625,5.6875 c -3.725067,0 -4.408058,5.3125 -2.3125,5.3125 2.095255,0 6.037718,-5.3125 2.3125,-5.3125 z m -5.9375,0.6563 c -2.096316,0.2721 -1.366218,3.9319 -0.25,4 1.115763,0.068 2.347072,-4.2721 0.25,-4 z m -3.5,1.4375 c -0.09193,0.01 -0.207211,0.05 -0.3125,0.094 -1.684926,0.6952 -0.25641,3.5679 0.6875,3.375 0.885624,-0.1806 1.003938,-3.6152 -0.375,-3.4687 z m -2.625,2.25 c -0.146495,0 -0.300076,0.04 -0.46875,0.1562 -1.348788,0.9319 0.456443,3.193 1.25,2.8438 0.694361,-0.3057 0.244218,-2.9655 -0.78125,-3 z m 7.6875,1.7187 c -2.891623,-0.049 -6.693241,1.3993 -7.34375,4.3125 -0.704526,3.1526 2.895147,7.5313 6.65625,7.5313 1.850269,0 3.975723,-1.6649 4.375,-3.7813 0.304946,-1.6139 -3.577406,-0.9742 -3.4375,0.094 0.167614,1.28 -0.947434,1.9189 -2.03125,1.0937 -3.450251,-2.6269 5.728987,-3.9424 5.125,-7.5312 -0.187998,-1.1171 -1.608776,-1.6894 -3.34375,-1.7188 z"
       id="path3775" />
  </g>
</svg>
