<?xml version="1.0" encoding="UTF-8" standalone="no"?>
<!-- Created with Inkscape (http://www.inkscape.org/) -->

<svg
   xmlns:dc="http://purl.org/dc/elements/1.1/"
   xmlns:cc="http://creativecommons.org/ns#"
   xmlns:rdf="http://www.w3.org/1999/02/22-rdf-syntax-ns#"
   xmlns:svg="http://www.w3.org/2000/svg"
   xmlns="http://www.w3.org/2000/svg"
   xmlns:xlink="http://www.w3.org/1999/xlink"
   xmlns:sodipodi="http://sodipodi.sourceforge.net/DTD/sodipodi-0.dtd"
   xmlns:inkscape="http://www.inkscape.org/namespaces/inkscape"
   width="48"
   height="48"
   id="svg2"
   version="1.1"
   inkscape:version="0.47pre4 r22446"
   sodipodi:docname="folder-music.svg">
  <defs
     id="defs4">
    <linearGradient
       id="linearGradient3733">
      <stop
         id="stop3735"
         offset="0"
         style="stop-color:#c8c8c8;stop-opacity:1;" />
      <stop
         style="stop-color:#ebebeb;stop-opacity:0;"
         offset="0.07452921"
         id="stop3737" />
      <stop
         style="stop-color:#ebebeb;stop-opacity:0;"
         offset="0.75010377"
         id="stop3739" />
      <stop
         id="stop3741"
         offset="1"
         style="stop-color:#c8c8c8;stop-opacity:0;" />
    </linearGradient>
    <linearGradient
       id="linearGradient2951">
      <stop
         style="stop-color:#c8c8c8;stop-opacity:1;"
         offset="0"
         id="stop2953" />
      <stop
         id="stop2955"
         offset="0.07452921"
         style="stop-color:#ebebeb;stop-opacity:1;" />
      <stop
         id="stop2957"
         offset="0.75010377"
         style="stop-color:#ebebeb;stop-opacity:1;" />
      <stop
         style="stop-color:#c8c8c8;stop-opacity:1;"
         offset="1"
         id="stop2959" />
    </linearGradient>
    <linearGradient
       id="linearGradient3723">
      <stop
         style="stop-color:#ffffff;stop-opacity:0.78431374;"
         offset="0"
         id="stop3725" />
      <stop
         style="stop-color:#ffffff;stop-opacity:0;"
         offset="1"
         id="stop3727" />
    </linearGradient>
    <linearGradient
       id="linearGradient3715">
      <stop
         style="stop-color:#99bbd4;stop-opacity:1;"
         offset="0"
         id="stop3717" />
      <stop
         style="stop-color:#5d93ba;stop-opacity:1;"
         offset="1"
         id="stop3719" />
    </linearGradient>
    <linearGradient
       id="linearGradient3707">
      <stop
         style="stop-color:#a6c4d9;stop-opacity:0.78431374;"
         offset="0"
         id="stop3709" />
      <stop
         style="stop-color:#75a3c3;stop-opacity:1;"
         offset="1"
         id="stop3711" />
    </linearGradient>
    <inkscape:perspective
       sodipodi:type="inkscape:persp3d"
       inkscape:vp_x="0 : 526.18109 : 1"
       inkscape:vp_y="0 : 1000 : 0"
       inkscape:vp_z="744.09448 : 526.18109 : 1"
       inkscape:persp3d-origin="372.04724 : 350.78739 : 1"
       id="perspective10" />
    <inkscape:perspective
       id="perspective2920"
       inkscape:persp3d-origin="0.5 : 0.33333333 : 1"
       inkscape:vp_z="1 : 0.5 : 1"
       inkscape:vp_y="0 : 1000 : 0"
       inkscape:vp_x="0 : 0.5 : 1"
       sodipodi:type="inkscape:persp3d" />
    <linearGradient
       inkscape:collect="always"
       xlink:href="#linearGradient3707"
       id="linearGradient3713"
       x1="63.765881"
       y1="949.3266"
       x2="63.765881"
       y2="1029.8864"
       gradientUnits="userSpaceOnUse"
       gradientTransform="translate(0.2341189,5.74082)" />
    <linearGradient
       inkscape:collect="always"
       xlink:href="#linearGradient3715"
       id="linearGradient3721"
       x1="63.765881"
       y1="936.95227"
       x2="63.765881"
       y2="983.41931"
       gradientUnits="userSpaceOnUse"
       gradientTransform="translate(0.2341196,6.0908086)" />
    <linearGradient
       inkscape:collect="always"
       xlink:href="#linearGradient3723"
       id="linearGradient3729"
       x1="37.375645"
       y1="948.8266"
       x2="37.375645"
       y2="1030.7611"
       gradientUnits="userSpaceOnUse"
       gradientTransform="translate(0.2341189,5.74082)" />
    <linearGradient
       inkscape:collect="always"
       xlink:href="#linearGradient3715"
       id="linearGradient3735"
       gradientUnits="userSpaceOnUse"
       gradientTransform="translate(0.2341196,6.0908086)"
       x1="63.765881"
       y1="936.95227"
       x2="63.765881"
       y2="983.41931" />
    <linearGradient
       inkscape:collect="always"
       xlink:href="#linearGradient3707"
       id="linearGradient3737"
       gradientUnits="userSpaceOnUse"
       gradientTransform="translate(0.2341189,5.74082)"
       x1="63.765881"
       y1="949.3266"
       x2="63.765881"
       y2="1029.8864" />
    <linearGradient
       inkscape:collect="always"
       xlink:href="#linearGradient3723"
       id="linearGradient3739"
       gradientUnits="userSpaceOnUse"
       gradientTransform="translate(0.2341189,5.74082)"
       x1="37.375645"
       y1="948.8266"
       x2="37.375645"
       y2="1030.7611" />
    <linearGradient
       inkscape:collect="always"
       xlink:href="#linearGradient3707"
       id="linearGradient3742"
       gradientUnits="userSpaceOnUse"
       gradientTransform="matrix(1.0066488,0,0,1.0066488,0.21965498,-1.1089658)"
       x1="63.765881"
       y1="949.3266"
       x2="63.765881"
       y2="1029.8864" />
    <linearGradient
       inkscape:collect="always"
       xlink:href="#linearGradient3723"
       id="linearGradient3744"
       gradientUnits="userSpaceOnUse"
       gradientTransform="matrix(1.0066488,0,0,1.0066488,0.21965498,-1.1089658)"
       x1="37.375645"
       y1="948.8266"
       x2="37.375645"
       y2="1030.7611" />
    <linearGradient
       inkscape:collect="always"
       xlink:href="#linearGradient3715"
       id="linearGradient3747"
       gradientUnits="userSpaceOnUse"
       gradientTransform="matrix(1.0066488,0,0,1.0066488,0.21965567,-0.75665045)"
       x1="63.765881"
       y1="936.95227"
       x2="63.765881"
       y2="983.41931" />
    <linearGradient
       inkscape:collect="always"
       xlink:href="#linearGradient3715"
       id="linearGradient3753"
       gradientUnits="userSpaceOnUse"
       gradientTransform="matrix(1.0066488,0,0,1.0066488,0.21965567,-0.75665045)"
       x1="63.765881"
       y1="936.95227"
       x2="63.765881"
       y2="983.41931" />
    <linearGradient
       inkscape:collect="always"
       xlink:href="#linearGradient3707"
       id="linearGradient3755"
       gradientUnits="userSpaceOnUse"
       gradientTransform="matrix(1.0066488,0,0,1.0066488,0.21965498,-1.1089658)"
       x1="63.765881"
       y1="949.3266"
       x2="63.765881"
       y2="1029.8864" />
    <linearGradient
       inkscape:collect="always"
       xlink:href="#linearGradient3723"
       id="linearGradient3757"
       gradientUnits="userSpaceOnUse"
       gradientTransform="matrix(1.0066488,0,0,1.0066488,0.21965498,-1.1089658)"
       x1="37.375645"
       y1="948.8266"
       x2="37.375645"
       y2="1030.7611" />
    <linearGradient
       inkscape:collect="always"
       xlink:href="#linearGradient3707"
       id="linearGradient2838"
       gradientUnits="userSpaceOnUse"
       gradientTransform="matrix(0.37749331,0,0,0.37749331,-0.07119206,657.42489)"
       x1="63.765881"
       y1="949.3266"
       x2="63.765881"
       y2="1029.8864" />
    <linearGradient
       inkscape:collect="always"
       xlink:href="#linearGradient3723"
       id="linearGradient2840"
       gradientUnits="userSpaceOnUse"
       gradientTransform="matrix(0.37749331,0,0,0.37749331,-0.07119206,657.42489)"
       x1="37.375645"
       y1="948.8266"
       x2="37.375645"
       y2="1030.7611" />
    <linearGradient
       inkscape:collect="always"
       xlink:href="#linearGradient3715"
       id="linearGradient2843"
       gradientUnits="userSpaceOnUse"
       gradientTransform="matrix(0.37749331,0,0,0.37749331,-0.0711918,657.55701)"
       x1="63.765881"
       y1="941.44623"
       x2="63.765881"
       y2="965.56183" />
    <inkscape:perspective
       sodipodi:type="inkscape:persp3d"
       inkscape:vp_x="0 : 0.5 : 1"
       inkscape:vp_y="0 : 1000 : 0"
       inkscape:vp_z="1 : 0.5 : 1"
       inkscape:persp3d-origin="0.5 : 0.33333333 : 1"
       id="perspective4931" />
    <linearGradient
       y2="115.5"
       x2="28.75"
       y1="35.673389"
       x1="28.75"
       gradientUnits="userSpaceOnUse"
       id="linearGradient4141"
       xlink:href="#linearGradient3984"
       inkscape:collect="always" />
    <radialGradient
       r="13.839286"
       fy="108.83756"
       fx="48.321712"
       cy="108.83756"
       cx="48.321712"
       gradientTransform="matrix(0.89733465,0,-2.8299354e-8,-0.98162825,32.983009,1094.4814)"
       gradientUnits="userSpaceOnUse"
       id="radialGradient4139"
       xlink:href="#linearGradient4020"
       inkscape:collect="always" />
    <radialGradient
       r="13.839286"
       fy="114.19416"
       fx="48.321709"
       cy="114.19416"
       cx="48.321709"
       gradientTransform="matrix(1.1762512,5.2882463e-7,-9.4013267e-7,1.6415367,19.505391,854.09876)"
       gradientUnits="userSpaceOnUse"
       id="radialGradient4137"
       xlink:href="#linearGradient4009"
       inkscape:collect="always" />
    <linearGradient
       y2="115.5"
       x2="28.75"
       y1="35.673389"
       x1="28.75"
       gradientUnits="userSpaceOnUse"
       id="linearGradient4135"
       xlink:href="#linearGradient3984"
       inkscape:collect="always" />
    <radialGradient
       r="13.839286"
       fy="108.83756"
       fx="48.321712"
       cy="108.83756"
       cx="48.321712"
       gradientTransform="matrix(0.89733465,0,-2.8299354e-8,-0.98162825,32.983009,1094.4814)"
       gradientUnits="userSpaceOnUse"
       id="radialGradient4133"
       xlink:href="#linearGradient4020"
       inkscape:collect="always" />
    <radialGradient
       r="13.839286"
       fy="114.19416"
       fx="48.321709"
       cy="114.19416"
       cx="48.321709"
       gradientTransform="matrix(1.1762512,5.2882463e-7,-9.4013267e-7,1.6415367,19.505391,854.09876)"
       gradientUnits="userSpaceOnUse"
       id="radialGradient4131"
       xlink:href="#linearGradient4009"
       inkscape:collect="always" />
    <radialGradient
       r="44.194176"
       fy="115.62563"
       fx="75.508904"
       cy="115.62563"
       cx="75.508904"
       gradientTransform="matrix(1,0,0,0.19999999,0,92.500508)"
       gradientUnits="userSpaceOnUse"
       id="radialGradient4129"
       xlink:href="#linearGradient4098"
       inkscape:collect="always" />
    <radialGradient
       r="35.39809"
       fy="1009.4531"
       fx="75.474571"
       cy="1009.4531"
       cx="75.474571"
       gradientTransform="matrix(1.736681,1.113318e-6,-1.1431112e-6,1.7831559,-55.59952,-786.60722)"
       gradientUnits="userSpaceOnUse"
       id="radialGradient4127"
       xlink:href="#linearGradient3949"
       inkscape:collect="always" />
    <linearGradient
       y2="989.11548"
       x2="112.84957"
       y1="989.11548"
       x1="38.099571"
       gradientUnits="userSpaceOnUse"
       id="linearGradient4125"
       xlink:href="#linearGradient3937"
       inkscape:collect="always" />
    <inkscape:perspective
       sodipodi:type="inkscape:persp3d"
       inkscape:vp_x="0 : 0.5 : 1"
       inkscape:vp_y="0 : 1000 : 0"
       inkscape:vp_z="1 : 0.5 : 1"
       inkscape:persp3d-origin="0.5 : 0.33333333 : 1"
       id="perspective3139" />
    <inkscape:perspective
       id="perspective10-1"
       inkscape:persp3d-origin="372.04724 : 350.78739 : 1"
       inkscape:vp_z="744.09448 : 526.18109 : 1"
       inkscape:vp_y="0 : 1000 : 0"
       inkscape:vp_x="0 : 526.18109 : 1"
       sodipodi:type="inkscape:persp3d" />
    <linearGradient
       id="linearGradient3937">
      <stop
         id="stop3939"
         offset="0"
         style="stop-color:#c8c8c8;stop-opacity:1;" />
      <stop
         style="stop-color:#ebebeb;stop-opacity:1;"
         offset="0.26679271"
         id="stop3947" />
      <stop
         style="stop-color:#ebebeb;stop-opacity:1;"
         offset="0.75010377"
         id="stop3945" />
      <stop
         id="stop3941"
         offset="1"
         style="stop-color:#c8c8c8;stop-opacity:1;" />
    </linearGradient>
    <linearGradient
       id="linearGradient3949">
      <stop
         id="stop3951"
         offset="0"
         style="stop-color:#505050;stop-opacity:1;" />
      <stop
         id="stop3953"
         offset="1"
         style="stop-color:#000000;stop-opacity:1;" />
    </linearGradient>
    <linearGradient
       id="linearGradient3984">
      <stop
         id="stop3986"
         offset="0"
         style="stop-color:#ffffff;stop-opacity:0.78431374;" />
      <stop
         id="stop3988"
         offset="1"
         style="stop-color:#ffffff;stop-opacity:0;" />
    </linearGradient>
    <linearGradient
       id="linearGradient4009">
      <stop
         style="stop-color:#ffffff;stop-opacity:0.78431374;"
         offset="0"
         id="stop4011" />
      <stop
         style="stop-color:#ffffff;stop-opacity:0;"
         offset="1"
         id="stop4013" />
    </linearGradient>
    <linearGradient
       id="linearGradient4020">
      <stop
         id="stop4022"
         offset="0"
         style="stop-color:#000000;stop-opacity:1;" />
      <stop
         id="stop4024"
         offset="1"
         style="stop-color:#000000;stop-opacity:0;" />
    </linearGradient>
    <linearGradient
       id="linearGradient4098">
      <stop
         id="stop4100"
         offset="0"
         style="stop-color:#333333;stop-opacity:1;" />
      <stop
         id="stop4102"
         offset="1"
         style="stop-color:#333333;stop-opacity:0;" />
    </linearGradient>
    <linearGradient
       inkscape:collect="always"
       xlink:href="#linearGradient3937"
       id="linearGradient2908"
       gradientUnits="userSpaceOnUse"
       x1="38.099571"
       y1="989.11548"
       x2="112.84957"
       y2="989.11548" />
    <radialGradient
       inkscape:collect="always"
       xlink:href="#linearGradient3949"
       id="radialGradient2910"
       gradientUnits="userSpaceOnUse"
       gradientTransform="matrix(1.736681,1.113318e-6,-1.1431112e-6,1.7831559,-55.59952,-786.60722)"
       cx="75.474571"
       cy="1009.4531"
       fx="75.474571"
       fy="1009.4531"
       r="35.39809" />
    <radialGradient
       inkscape:collect="always"
       xlink:href="#linearGradient4098"
       id="radialGradient2912"
       gradientUnits="userSpaceOnUse"
       gradientTransform="matrix(1,0,0,0.19999999,0,92.500508)"
       cx="75.508904"
       cy="115.62563"
       fx="75.508904"
       fy="115.62563"
       r="44.194176" />
    <radialGradient
       inkscape:collect="always"
       xlink:href="#linearGradient4009"
       id="radialGradient2914"
       gradientUnits="userSpaceOnUse"
       gradientTransform="matrix(1.1762512,5.2882463e-7,-9.4013267e-7,1.6415367,19.505391,854.09876)"
       cx="48.321709"
       cy="114.19416"
       fx="48.321709"
       fy="114.19416"
       r="13.839286" />
    <radialGradient
       inkscape:collect="always"
       xlink:href="#linearGradient4020"
       id="radialGradient2916"
       gradientUnits="userSpaceOnUse"
       gradientTransform="matrix(0.89733465,0,-2.8299354e-8,-0.98162825,32.983009,1094.4814)"
       cx="48.321712"
       cy="108.83756"
       fx="48.321712"
       fy="108.83756"
       r="13.839286" />
    <linearGradient
       inkscape:collect="always"
       xlink:href="#linearGradient3984"
       id="linearGradient2918"
       gradientUnits="userSpaceOnUse"
       x1="28.75"
       y1="35.673389"
       x2="28.75"
       y2="115.5" />
    <radialGradient
       inkscape:collect="always"
       xlink:href="#linearGradient4009"
       id="radialGradient2920"
       gradientUnits="userSpaceOnUse"
       gradientTransform="matrix(1.1762512,5.2882463e-7,-9.4013267e-7,1.6415367,19.505391,854.09876)"
       cx="48.321709"
       cy="114.19416"
       fx="48.321709"
       fy="114.19416"
       r="13.839286" />
    <radialGradient
       inkscape:collect="always"
       xlink:href="#linearGradient4020"
       id="radialGradient2922"
       gradientUnits="userSpaceOnUse"
       gradientTransform="matrix(0.89733465,0,-2.8299354e-8,-0.98162825,32.983009,1094.4814)"
       cx="48.321712"
       cy="108.83756"
       fx="48.321712"
       fy="108.83756"
       r="13.839286" />
    <linearGradient
       inkscape:collect="always"
       xlink:href="#linearGradient3984"
       id="linearGradient2924"
       gradientUnits="userSpaceOnUse"
       x1="28.75"
       y1="35.673389"
       x2="28.75"
       y2="115.5" />
    <radialGradient
       inkscape:collect="always"
       xlink:href="#linearGradient3949"
       id="radialGradient2942"
       gradientUnits="userSpaceOnUse"
       gradientTransform="matrix(0.41463255,2.6580465e-7,-2.7291778e-7,0.42572844,-0.23994229,611.43294)"
       cx="75.474571"
       cy="1009.4531"
       fx="75.474571"
       fy="1009.4531"
       r="35.39809" />
    <linearGradient
       inkscape:collect="always"
       xlink:href="#linearGradient3937"
       id="linearGradient2945"
       gradientUnits="userSpaceOnUse"
       x1="38.099571"
       y1="989.11548"
       x2="112.84957"
       y2="989.11548"
       gradientTransform="matrix(0.23874998,0,0,0.23874998,13.034442,799.2354)" />
    <linearGradient
       inkscape:collect="always"
       xlink:href="#linearGradient3733"
       id="linearGradient2949"
       gradientUnits="userSpaceOnUse"
       gradientTransform="matrix(0.23874998,0,0,0.23874998,13.034442,799.2354)"
       x1="75.474571"
       y1="934.09979"
       x2="75.474571"
       y2="1044.1312" />
  </defs>
  <sodipodi:namedview
     id="base"
     pagecolor="#ffffff"
     bordercolor="#666666"
     borderopacity="1.0"
     inkscape:pageopacity="0.0"
     inkscape:pageshadow="2"
     inkscape:zoom="3.959798"
     inkscape:cx="10.181131"
     inkscape:cy="19.856117"
     inkscape:document-units="px"
     inkscape:current-layer="layer1"
     showgrid="false"
     showguides="true"
     inkscape:guide-bbox="true"
     inkscape:window-width="1280"
     inkscape:window-height="712"
     inkscape:window-x="0"
     inkscape:window-y="25"
     inkscape:window-maximized="1" />
  <metadata
     id="metadata7">
    <rdf:RDF>
      <cc:Work
         rdf:about="">
        <dc:format>image/svg+xml</dc:format>
        <dc:type
           rdf:resource="http://purl.org/dc/dcmitype/StillImage" />
        <dc:title />
      </cc:Work>
    </rdf:RDF>
  </metadata>
  <g
     inkscape:label="Livello 1"
     inkscape:groupmode="layer"
     id="layer1"
     transform="translate(0,-1004.3622)">
    <path
       style="fill:url(#linearGradient2843);fill-opacity:1;stroke:none"
       d="m 4.6838842,1010.3922 12.4011988,0 c 0.620549,0 1.122295,-0.01 1.277932,0.5725 l 0.428971,1.2537 c 0.239398,0.6996 0.489455,1.2244 1.458454,1.2244 l 23.065676,0 c 0.627394,0 1.132481,0.5051 1.132481,1.1325 l 0,30.6244 c 0,0.6274 -0.505087,1.1325 -1.132481,1.1325 l -38.6322318,0 c -0.6273938,0 -1.1324802,-0.5051 -1.1324802,-1.1325 l 0,-33.675 c 0,-0.6274 0.5050864,-1.1325 1.1324802,-1.1325 z"
       id="rect3704"
       sodipodi:nodetypes="ccccccccccccc" />
    <path
       style="fill:url(#linearGradient2838);fill-opacity:1;fill-rule:evenodd;stroke:url(#linearGradient2840);stroke-width:0.2642453;stroke-miterlimit:4;stroke-dasharray:none"
       d="m 2.0146025,1015.7893 43.9707975,0 c 0.627394,0 1.132477,0.5051 1.132477,1.1325 l -2.02221,28.1458 c 0,0.6274 -0.505087,1.1324 -1.132481,1.1324 l -39.9262987,10e-5 c -0.6273942,0 -1.1324802,-0.5051 -1.1324802,-1.1325 l -2.02228444,-28.1458 c 0,-0.6274 0.50508604,-1.1325 1.13247984,-1.1325 z"
       id="rect2926"
       sodipodi:nodetypes="ccccccccc" />
    <path
       style="fill:url(#linearGradient2945);fill-opacity:1;stroke:none"
       d="m 24.89126,1022.2517 c -0.406694,0.015 -0.558317,0.3463 -0.955,0.955 l -1.151116,1.9249 c -0.476972,0.7976 -0.65443,0.8009 -0.65443,1.7907 l 0,20.4056 c 0,0.6614 0.532412,1.1938 1.193749,1.1938 l 15.459062,0 c 0.661337,0 1.19375,-0.5324 1.19375,-1.1938 l 0,-20.4056 c 0,-0.5709 -0.0847,-1.0707 -0.500375,-1.7907 l -1.003705,-2.0756 c -0.328489,-0.569 -0.427716,-0.8043 -1.256467,-0.8043 l -12.325468,0 z"
       id="path3926"
       sodipodi:nodetypes="ccccccccccccc" />
    <path
       sodipodi:nodetypes="ccccccccccccc"
       id="path2947"
       d="m 24.89126,1022.2517 c -0.406694,0.015 -0.558317,0.3463 -0.955,0.955 l -1.151116,1.9249 c -0.476972,0.7976 -0.65443,0.8009 -0.65443,1.7907 l 0,20.4056 c 0,0.6614 0.532412,1.1938 1.193749,1.1938 l 15.459062,0 c 0.661337,0 1.19375,-0.5324 1.19375,-1.1938 l 0,-20.4056 c 0,-0.5709 -0.0847,-1.0707 -0.500375,-1.7907 l -1.003705,-2.0756 c -0.328489,-0.569 -0.427716,-0.8043 -1.256467,-0.8043 l -12.325468,0 z"
       style="fill:url(#linearGradient2949);fill-opacity:1.0;stroke:none" />
    <path
       style="fill:url(#radialGradient2942);fill-opacity:1;stroke:none"
       d="m 23.585567,1026.1159 14.936856,0 c 0.638986,0 1.153401,0.5144 1.153401,1.1534 l 0,19.7138 c 0,0.639 -0.514415,1.1534 -1.153401,1.1534 l -14.936856,0 c -0.638985,0 -1.153402,-0.5144 -1.153402,-1.1534 l 0,-19.7138 c 0,-0.639 0.514417,-1.1534 1.153402,-1.1534 z"
       id="rect3145" />
    <path
       sodipodi:type="arc"
       style="fill:url(#radialGradient2912);fill-opacity:1;stroke:none"
       id="path4096"
       sodipodi:cx="75.508904"
       sodipodi:cy="115.62563"
       sodipodi:rx="44.194176"
       sodipodi:ry="8.8388348"
       d="m 119.70308,115.62563 a 44.194176,8.8388348 0 1 1 -88.388352,0 44.194176,8.8388348 0 1 1 88.388352,0 z"
       transform="matrix(0.23874998,0,0,0.23874998,13.034442,1019.9269)" />
    <g
       id="g4082"
       transform="matrix(0.23874998,0,0,0.23874998,12.826926,799.71775)">
      <path
         id="path3964"
         transform="translate(0,924.36218)"
         d="m 76.34375,60.28125 c -14.359404,0 -26,11.640596 -26,26 0,14.3594 11.640596,26 26,26 14.359404,0 26,-11.6406 26,-26 0,-14.359404 -11.640596,-26 -26,-26 z m 0,2.5 c 12.978692,0 23.5,10.521308 23.5,23.5 0,12.978692 -10.521308,23.5 -23.5,23.5 -12.978692,0 -23.5,-10.521308 -23.5,-23.5 0,-12.978692 10.521308,-23.5 23.5,-23.5 z"
         style="fill:#dcdcdc;fill-opacity:1;stroke:none" />
      <path
         transform="matrix(0.83096773,0,0,0.83096773,52.453428,937.66666)"
         d="M 56.428572,87.821426 C 56.428572,103.10788 44.036453,115.5 28.75,115.5 13.463547,115.5 1.0714283,103.10788 1.0714283,87.821426 1.0714283,72.534973 13.463547,60.142855 28.75,60.142855 c 15.286453,0 27.678572,12.392118 27.678572,27.678571 z"
         sodipodi:ry="27.678572"
         sodipodi:rx="27.678572"
         sodipodi:cy="87.821426"
         sodipodi:cx="28.75"
         id="path3969"
         style="fill:#333333;fill-opacity:1;stroke:none"
         sodipodi:type="arc" />
      <path
         sodipodi:nodetypes="cccc"
         id="path3995"
         d="m 92.607205,1026.9069 c -8.982059,8.982 -23.544855,8.982 -32.526913,0 4.742941,-4.6309 9.289676,-9.486 16.263457,-11.5673 6.574371,2.4283 11.587183,5.7252 16.263456,11.5673 z"
         style="fill:url(#radialGradient2914);fill-opacity:1;stroke:none" />
      <path
         style="fill:url(#radialGradient2916);fill-opacity:1;stroke:none"
         d="m 92.607206,994.37996 c -8.982059,-8.98204 -23.544854,-8.98204 -32.526912,0 4.742941,4.63093 9.289676,9.48594 16.263457,11.56734 6.574371,-2.4282 11.587182,-5.7251 16.263455,-11.56734 z"
         id="path4028"
         sodipodi:nodetypes="cccc" />
      <path
         sodipodi:type="arc"
         style="fill:#000000;fill-opacity:1;stroke:none"
         id="path3980"
         sodipodi:cx="28.75"
         sodipodi:cy="87.821426"
         sodipodi:rx="27.678572"
         sodipodi:ry="27.678572"
         d="M 56.428572,87.821426 C 56.428572,103.10788 44.036453,115.5 28.75,115.5 13.463547,115.5 1.0714283,103.10788 1.0714283,87.821426 1.0714283,72.534973 13.463547,60.142855 28.75,60.142855 c 15.286453,0 27.678572,12.392118 27.678572,27.678571 z"
         transform="matrix(0.2879341,0,0,0.2879341,68.065645,985.35665)" />
      <path
         transform="matrix(0.2200549,0,0,0.1742759,70.017172,992.19238)"
         d="M 56.428572,87.821426 C 56.428572,103.10788 44.036453,115.5 28.75,115.5 13.463547,115.5 1.0714283,103.10788 1.0714283,87.821426 1.0714283,72.534973 13.463547,60.142855 28.75,60.142855 c 15.286453,0 27.678572,12.392118 27.678572,27.678571 z"
         sodipodi:ry="27.678572"
         sodipodi:rx="27.678572"
         sodipodi:cy="87.821426"
         sodipodi:cx="28.75"
         id="path3982"
         style="fill:url(#linearGradient2918);fill-opacity:1;stroke:none"
         sodipodi:type="arc" />
    </g>
    <g
       id="g4068"
       transform="matrix(0.13207691,0,0,0.13207691,20.970748,896.67336)">
      <path
         style="fill:#dcdcdc;fill-opacity:1;stroke:none"
         d="m 76.34375,60.28125 c -14.359404,0 -26,11.640596 -26,26 0,14.3594 11.640596,26 26,26 14.359404,0 26,-11.6406 26,-26 0,-14.359404 -11.640596,-26 -26,-26 z m 0,2.5 c 12.978692,0 23.5,10.521308 23.5,23.5 0,12.978692 -10.521308,23.5 -23.5,23.5 -12.978692,0 -23.5,-10.521308 -23.5,-23.5 0,-12.978692 10.521308,-23.5 23.5,-23.5 z"
         transform="translate(0,924.36218)"
         id="path4056" />
      <path
         sodipodi:type="arc"
         style="fill:#333333;fill-opacity:1;stroke:none"
         id="path4058"
         sodipodi:cx="28.75"
         sodipodi:cy="87.821426"
         sodipodi:rx="27.678572"
         sodipodi:ry="27.678572"
         d="M 56.428572,87.821426 C 56.428572,103.10788 44.036453,115.5 28.75,115.5 13.463547,115.5 1.0714283,103.10788 1.0714283,87.821426 1.0714283,72.534973 13.463547,60.142855 28.75,60.142855 c 15.286453,0 27.678572,12.392118 27.678572,27.678571 z"
         transform="matrix(0.83096773,0,0,0.83096773,52.453428,937.66666)" />
      <path
         style="fill:url(#radialGradient2920);fill-opacity:1;stroke:none"
         d="m 92.607205,1026.9069 c -8.982059,8.982 -23.544855,8.982 -32.526913,0 4.742941,-4.6309 9.289676,-9.486 16.263457,-11.5673 6.574371,2.4283 11.587183,5.7252 16.263456,11.5673 z"
         id="path4060"
         sodipodi:nodetypes="cccc" />
      <path
         sodipodi:nodetypes="cccc"
         id="path4062"
         d="m 92.607206,994.37996 c -8.982059,-8.98204 -23.544854,-8.98204 -32.526912,0 4.742941,4.63093 9.289676,9.48594 16.263457,11.56734 6.574371,-2.4282 11.587182,-5.7251 16.263455,-11.56734 z"
         style="fill:url(#radialGradient2922);fill-opacity:1;stroke:none" />
      <path
         transform="matrix(0.2879341,0,0,0.2879341,68.065645,985.35665)"
         d="M 56.428572,87.821426 C 56.428572,103.10788 44.036453,115.5 28.75,115.5 13.463547,115.5 1.0714283,103.10788 1.0714283,87.821426 1.0714283,72.534973 13.463547,60.142855 28.75,60.142855 c 15.286453,0 27.678572,12.392118 27.678572,27.678571 z"
         sodipodi:ry="27.678572"
         sodipodi:rx="27.678572"
         sodipodi:cy="87.821426"
         sodipodi:cx="28.75"
         id="path4064"
         style="fill:#000000;fill-opacity:1;stroke:none"
         sodipodi:type="arc" />
      <path
         sodipodi:type="arc"
         style="fill:url(#linearGradient2924);fill-opacity:1;stroke:none"
         id="path4066"
         sodipodi:cx="28.75"
         sodipodi:cy="87.821426"
         sodipodi:rx="27.678572"
         sodipodi:ry="27.678572"
         d="M 56.428572,87.821426 C 56.428572,103.10788 44.036453,115.5 28.75,115.5 13.463547,115.5 1.0714283,103.10788 1.0714283,87.821426 1.0714283,72.534973 13.463547,60.142855 28.75,60.142855 c 15.286453,0 27.678572,12.392118 27.678572,27.678571 z"
         transform="matrix(0.2200549,0,0,0.1742759,70.017172,992.19238)" />
    </g>
  </g>
</svg>
