<?xml version="1.0" encoding="UTF-8" standalone="no"?>
<!-- Created with Inkscape (http://www.inkscape.org/) -->

<svg
   xmlns:dc="http://purl.org/dc/elements/1.1/"
   xmlns:cc="http://creativecommons.org/ns#"
   xmlns:rdf="http://www.w3.org/1999/02/22-rdf-syntax-ns#"
   xmlns:svg="http://www.w3.org/2000/svg"
   xmlns="http://www.w3.org/2000/svg"
   xmlns:xlink="http://www.w3.org/1999/xlink"
   xmlns:sodipodi="http://sodipodi.sourceforge.net/DTD/sodipodi-0.dtd"
   xmlns:inkscape="http://www.inkscape.org/namespaces/inkscape"
   width="48"
   height="48"
   id="svg2"
   version="1.1"
   inkscape:version="0.47pre4 r22446"
   sodipodi:docname="folder-time.svg">
  <defs
     id="defs4">
    <linearGradient
       id="linearGradient3723">
      <stop
         style="stop-color:#ffffff;stop-opacity:0.78431374;"
         offset="0"
         id="stop3725" />
      <stop
         style="stop-color:#ffffff;stop-opacity:0;"
         offset="1"
         id="stop3727" />
    </linearGradient>
    <linearGradient
       id="linearGradient3715">
      <stop
         style="stop-color:#99bbd4;stop-opacity:1;"
         offset="0"
         id="stop3717" />
      <stop
         style="stop-color:#5d93ba;stop-opacity:1;"
         offset="1"
         id="stop3719" />
    </linearGradient>
    <linearGradient
       id="linearGradient3707">
      <stop
         style="stop-color:#a6c4d9;stop-opacity:0.78431374;"
         offset="0"
         id="stop3709" />
      <stop
         style="stop-color:#75a3c3;stop-opacity:1;"
         offset="1"
         id="stop3711" />
    </linearGradient>
    <inkscape:perspective
       sodipodi:type="inkscape:persp3d"
       inkscape:vp_x="0 : 526.18109 : 1"
       inkscape:vp_y="0 : 1000 : 0"
       inkscape:vp_z="744.09448 : 526.18109 : 1"
       inkscape:persp3d-origin="372.04724 : 350.78739 : 1"
       id="perspective10" />
    <inkscape:perspective
       id="perspective2920"
       inkscape:persp3d-origin="0.5 : 0.33333333 : 1"
       inkscape:vp_z="1 : 0.5 : 1"
       inkscape:vp_y="0 : 1000 : 0"
       inkscape:vp_x="0 : 0.5 : 1"
       sodipodi:type="inkscape:persp3d" />
    <linearGradient
       inkscape:collect="always"
       xlink:href="#linearGradient3707"
       id="linearGradient3713"
       x1="63.765881"
       y1="949.3266"
       x2="63.765881"
       y2="1029.8864"
       gradientUnits="userSpaceOnUse"
       gradientTransform="translate(0.2341189,5.74082)" />
    <linearGradient
       inkscape:collect="always"
       xlink:href="#linearGradient3715"
       id="linearGradient3721"
       x1="63.765881"
       y1="936.95227"
       x2="63.765881"
       y2="983.41931"
       gradientUnits="userSpaceOnUse"
       gradientTransform="translate(0.2341196,6.0908086)" />
    <linearGradient
       inkscape:collect="always"
       xlink:href="#linearGradient3723"
       id="linearGradient3729"
       x1="37.375645"
       y1="948.8266"
       x2="37.375645"
       y2="1030.7611"
       gradientUnits="userSpaceOnUse"
       gradientTransform="translate(0.2341189,5.74082)" />
    <linearGradient
       inkscape:collect="always"
       xlink:href="#linearGradient3715"
       id="linearGradient3735"
       gradientUnits="userSpaceOnUse"
       gradientTransform="translate(0.2341196,6.0908086)"
       x1="63.765881"
       y1="936.95227"
       x2="63.765881"
       y2="983.41931" />
    <linearGradient
       inkscape:collect="always"
       xlink:href="#linearGradient3707"
       id="linearGradient3737"
       gradientUnits="userSpaceOnUse"
       gradientTransform="translate(0.2341189,5.74082)"
       x1="63.765881"
       y1="949.3266"
       x2="63.765881"
       y2="1029.8864" />
    <linearGradient
       inkscape:collect="always"
       xlink:href="#linearGradient3723"
       id="linearGradient3739"
       gradientUnits="userSpaceOnUse"
       gradientTransform="translate(0.2341189,5.74082)"
       x1="37.375645"
       y1="948.8266"
       x2="37.375645"
       y2="1030.7611" />
    <linearGradient
       inkscape:collect="always"
       xlink:href="#linearGradient3707"
       id="linearGradient3742"
       gradientUnits="userSpaceOnUse"
       gradientTransform="matrix(1.0066488,0,0,1.0066488,0.21965498,-1.1089658)"
       x1="63.765881"
       y1="949.3266"
       x2="63.765881"
       y2="1029.8864" />
    <linearGradient
       inkscape:collect="always"
       xlink:href="#linearGradient3723"
       id="linearGradient3744"
       gradientUnits="userSpaceOnUse"
       gradientTransform="matrix(1.0066488,0,0,1.0066488,0.21965498,-1.1089658)"
       x1="37.375645"
       y1="948.8266"
       x2="37.375645"
       y2="1030.7611" />
    <linearGradient
       inkscape:collect="always"
       xlink:href="#linearGradient3715"
       id="linearGradient3747"
       gradientUnits="userSpaceOnUse"
       gradientTransform="matrix(1.0066488,0,0,1.0066488,0.21965567,-0.75665045)"
       x1="63.765881"
       y1="936.95227"
       x2="63.765881"
       y2="983.41931" />
    <linearGradient
       inkscape:collect="always"
       xlink:href="#linearGradient3715"
       id="linearGradient3753"
       gradientUnits="userSpaceOnUse"
       gradientTransform="matrix(1.0066488,0,0,1.0066488,0.21965567,-0.75665045)"
       x1="63.765881"
       y1="936.95227"
       x2="63.765881"
       y2="983.41931" />
    <linearGradient
       inkscape:collect="always"
       xlink:href="#linearGradient3707"
       id="linearGradient3755"
       gradientUnits="userSpaceOnUse"
       gradientTransform="matrix(1.0066488,0,0,1.0066488,0.21965498,-1.1089658)"
       x1="63.765881"
       y1="949.3266"
       x2="63.765881"
       y2="1029.8864" />
    <linearGradient
       inkscape:collect="always"
       xlink:href="#linearGradient3723"
       id="linearGradient3757"
       gradientUnits="userSpaceOnUse"
       gradientTransform="matrix(1.0066488,0,0,1.0066488,0.21965498,-1.1089658)"
       x1="37.375645"
       y1="948.8266"
       x2="37.375645"
       y2="1030.7611" />
    <linearGradient
       inkscape:collect="always"
       xlink:href="#linearGradient3707"
       id="linearGradient2838"
       gradientUnits="userSpaceOnUse"
       gradientTransform="matrix(0.37749331,0,0,0.37749331,-0.07119206,657.42489)"
       x1="63.765881"
       y1="949.3266"
       x2="63.765881"
       y2="1029.8864" />
    <linearGradient
       inkscape:collect="always"
       xlink:href="#linearGradient3723"
       id="linearGradient2840"
       gradientUnits="userSpaceOnUse"
       gradientTransform="matrix(0.37749331,0,0,0.37749331,-0.07119206,657.42489)"
       x1="37.375645"
       y1="948.8266"
       x2="37.375645"
       y2="1030.7611" />
    <linearGradient
       inkscape:collect="always"
       xlink:href="#linearGradient3715"
       id="linearGradient2843"
       gradientUnits="userSpaceOnUse"
       gradientTransform="matrix(0.37749331,0,0,0.37749331,-0.0711918,657.55701)"
       x1="63.765881"
       y1="941.44623"
       x2="63.765881"
       y2="965.56183" />
  </defs>
  <sodipodi:namedview
     id="base"
     pagecolor="#ffffff"
     bordercolor="#666666"
     borderopacity="1.0"
     inkscape:pageopacity="0.0"
     inkscape:pageshadow="2"
     inkscape:zoom="5.6"
     inkscape:cx="18.201816"
     inkscape:cy="9.799694"
     inkscape:document-units="px"
     inkscape:current-layer="layer1"
     showgrid="false"
     showguides="true"
     inkscape:guide-bbox="true"
     inkscape:window-width="1280"
     inkscape:window-height="714"
     inkscape:window-x="0"
     inkscape:window-y="25"
     inkscape:window-maximized="1" />
  <metadata
     id="metadata7">
    <rdf:RDF>
      <cc:Work
         rdf:about="">
        <dc:format>image/svg+xml</dc:format>
        <dc:type
           rdf:resource="http://purl.org/dc/dcmitype/StillImage" />
        <dc:title />
      </cc:Work>
    </rdf:RDF>
  </metadata>
  <g
     inkscape:label="Livello 1"
     inkscape:groupmode="layer"
     id="layer1"
     transform="translate(0,-1004.3622)">
    <path
       style="fill:url(#linearGradient2843);fill-opacity:1;stroke:none"
       d="m 4.6838842,1010.3922 12.4011988,0 c 0.620549,0 1.122295,-0.01 1.277932,0.5725 l 0.428971,1.2537 c 0.239398,0.6996 0.489455,1.2244 1.458454,1.2244 l 23.065676,0 c 0.627394,0 1.132481,0.5051 1.132481,1.1325 l 0,30.6244 c 0,0.6274 -0.505087,1.1325 -1.132481,1.1325 l -38.6322318,0 c -0.6273938,0 -1.1324802,-0.5051 -1.1324802,-1.1325 l 0,-33.675 c 0,-0.6274 0.5050864,-1.1325 1.1324802,-1.1325 z"
       id="rect3704"
       sodipodi:nodetypes="ccccccccccccc" />
    <path
       style="fill:url(#linearGradient2838);fill-opacity:1;fill-rule:evenodd;stroke:url(#linearGradient2840);stroke-width:0.2642453;stroke-miterlimit:4;stroke-dasharray:none"
       d="m 2.0146025,1015.7893 43.9707975,0 c 0.627394,0 1.132477,0.5051 1.132477,1.1325 l -2.02221,28.1458 c 0,0.6274 -0.505087,1.1324 -1.132481,1.1324 l -39.9262987,10e-5 c -0.6273942,0 -1.1324802,-0.5051 -1.1324802,-1.1325 l -2.02228444,-28.1458 c 0,-0.6274 0.50508604,-1.1325 1.13247984,-1.1325 z"
       id="rect2926"
       sodipodi:nodetypes="ccccccccc" />
    <path
       id="path3650"
       d="m 23.90625,1020.8802 c -1.080966,0.01 -2.199022,0.1829 -3.28125,0.5312 l 0.625,1.8438 c 4.769238,-1.5352 9.839742,1.0744 11.375,5.8437 1.535257,4.7692 -1.074512,9.8397 -5.84375,11.375 -4.769237,1.5352 -9.870993,-1.0432 -11.40625,-5.8125 -0.486853,-1.5124 -0.553322,-3.103 -0.21875,-4.6562 L 13.25,1029.5677 c -0.406593,1.8876 -0.310406,3.8495 0.28125,5.6875 1.858018,5.7719 8.071865,8.983 13.84375,7.125 5.771886,-1.858 8.951768,-8.1031 7.09375,-13.875 -1.50964,-4.6897 -5.878315,-7.6692 -10.5625,-7.625 z m -0.25,3.5 -0.40625,8 0,0.25 0.25,0 5.96875,-0.4063 0,-0.6875 -4.78125,-0.3125 -0.34375,-6.8437 -0.6875,0 z"
       style="font-size:medium;font-style:normal;font-variant:normal;font-weight:normal;font-stretch:normal;text-indent:0;text-align:start;text-decoration:none;line-height:normal;letter-spacing:normal;word-spacing:normal;text-transform:none;direction:ltr;block-progression:tb;writing-mode:lr-tb;text-anchor:start;color:#000000;fill:#b2e0ff;fill-opacity:1;stroke:none;stroke-width:2.28290153;marker:none;visibility:visible;display:inline;overflow:visible;enable-background:accumulate;font-family:'A.C.M.E. Secret Agent';-inkscape-font-specification:'A.C.M.E. Secret Agent'" />
    <path
       id="path3648"
       d="m 23.90625,1020.3444 c -1.080966,0.01 -2.199022,0.1829 -3.28125,0.5313 l 0.625,1.8437 c 4.769238,-1.5352 9.839742,1.0745 11.375,5.8438 1.535257,4.7692 -1.074512,9.8397 -5.84375,11.375 -4.769237,1.5352 -9.870993,-1.0432 -11.40625,-5.8125 -0.486853,-1.5124 -0.553322,-3.1031 -0.21875,-4.6563 L 13.25,1029.0319 c -0.406593,1.8876 -0.310406,3.8495 0.28125,5.6875 1.858018,5.7719 8.071865,8.983 13.84375,7.125 5.771886,-1.858 8.951768,-8.1031 7.09375,-13.875 -1.50964,-4.6897 -5.878315,-7.6692 -10.5625,-7.625 z m -0.25,3.5 -0.40625,8 0,0.25 0.25,0 5.96875,-0.4062 0,-0.6875 -4.78125,-0.3125 -0.34375,-6.8438 -0.6875,0 z"
       style="font-size:medium;font-style:normal;font-variant:normal;font-weight:normal;font-stretch:normal;text-indent:0;text-align:start;text-decoration:none;line-height:normal;letter-spacing:normal;word-spacing:normal;text-transform:none;direction:ltr;block-progression:tb;writing-mode:lr-tb;text-anchor:start;color:#000000;fill:#3a6888;fill-opacity:1;stroke:none;stroke-width:2.28290153;marker:none;visibility:visible;display:inline;overflow:visible;enable-background:accumulate;font-family:'A.C.M.E. Secret Agent';-inkscape-font-specification:'A.C.M.E. Secret Agent'" />
    <path
       style="font-size:medium;font-style:normal;font-variant:normal;font-weight:normal;font-stretch:normal;text-indent:0;text-align:start;text-decoration:none;line-height:normal;letter-spacing:normal;word-spacing:normal;text-transform:none;direction:ltr;block-progression:tb;writing-mode:lr-tb;text-anchor:start;color:#000000;fill:#6290b0;fill-opacity:1;stroke:none;stroke-width:2.28290153;marker:none;visibility:visible;display:inline;overflow:visible;enable-background:accumulate;font-family:'A.C.M.E. Secret Agent';-inkscape-font-specification:'A.C.M.E. Secret Agent'"
       d="m 23.90625,1020.6123 c -1.080966,0.01 -2.199022,0.1829 -3.28125,0.5312 l 0.625,1.8438 c 4.769238,-1.5352 9.839742,1.0744 11.375,5.8437 1.535257,4.7692 -1.074512,9.8397 -5.84375,11.375 -4.769237,1.5352 -9.870993,-1.0432 -11.40625,-5.8125 -0.486853,-1.5124 -0.553322,-3.103 -0.21875,-4.6562 L 13.25,1029.2998 c -0.406593,1.8876 -0.310406,3.8495 0.28125,5.6875 1.858018,5.7719 8.071865,8.983 13.84375,7.125 5.771886,-1.858 8.951768,-8.1031 7.09375,-13.875 -1.50964,-4.6897 -5.878315,-7.6692 -10.5625,-7.625 z m -0.25,3.5 -0.40625,8 0,0.25 0.25,0 5.96875,-0.4063 0,-0.6875 -4.78125,-0.3125 -0.34375,-6.8437 -0.6875,0 z"
       id="path2839" />
  </g>
</svg>
