<?xml version="1.0" encoding="UTF-8" standalone="no"?>
<!-- Created with Inkscape (http://www.inkscape.org/) -->

<svg
   xmlns:dc="http://purl.org/dc/elements/1.1/"
   xmlns:cc="http://creativecommons.org/ns#"
   xmlns:rdf="http://www.w3.org/1999/02/22-rdf-syntax-ns#"
   xmlns:svg="http://www.w3.org/2000/svg"
   xmlns="http://www.w3.org/2000/svg"
   xmlns:xlink="http://www.w3.org/1999/xlink"
   xmlns:sodipodi="http://sodipodi.sourceforge.net/DTD/sodipodi-0.dtd"
   xmlns:inkscape="http://www.inkscape.org/namespaces/inkscape"
   width="48"
   height="48"
   id="svg2"
   version="1.1"
   inkscape:version="0.47pre4 r22446"
   sodipodi:docname="folder-iso.svg">
  <defs
     id="defs4">
    <linearGradient
       inkscape:collect="always"
       id="linearGradient3736">
      <stop
         style="stop-color:#333333;stop-opacity:1;"
         offset="0"
         id="stop3738" />
      <stop
         style="stop-color:#333333;stop-opacity:0;"
         offset="1"
         id="stop3740" />
    </linearGradient>
    <linearGradient
       id="linearGradient3723">
      <stop
         style="stop-color:#ffffff;stop-opacity:0.78431374;"
         offset="0"
         id="stop3725" />
      <stop
         style="stop-color:#ffffff;stop-opacity:0;"
         offset="1"
         id="stop3727" />
    </linearGradient>
    <linearGradient
       id="linearGradient3715">
      <stop
         style="stop-color:#99bbd4;stop-opacity:1;"
         offset="0"
         id="stop3717" />
      <stop
         style="stop-color:#5d93ba;stop-opacity:1;"
         offset="1"
         id="stop3719" />
    </linearGradient>
    <linearGradient
       id="linearGradient3707">
      <stop
         style="stop-color:#a6c4d9;stop-opacity:0.78431374;"
         offset="0"
         id="stop3709" />
      <stop
         style="stop-color:#75a3c3;stop-opacity:1;"
         offset="1"
         id="stop3711" />
    </linearGradient>
    <inkscape:perspective
       sodipodi:type="inkscape:persp3d"
       inkscape:vp_x="0 : 526.18109 : 1"
       inkscape:vp_y="0 : 1000 : 0"
       inkscape:vp_z="744.09448 : 526.18109 : 1"
       inkscape:persp3d-origin="372.04724 : 350.78739 : 1"
       id="perspective10" />
    <inkscape:perspective
       id="perspective2920"
       inkscape:persp3d-origin="0.5 : 0.33333333 : 1"
       inkscape:vp_z="1 : 0.5 : 1"
       inkscape:vp_y="0 : 1000 : 0"
       inkscape:vp_x="0 : 0.5 : 1"
       sodipodi:type="inkscape:persp3d" />
    <linearGradient
       inkscape:collect="always"
       xlink:href="#linearGradient3707"
       id="linearGradient3713"
       x1="63.765881"
       y1="949.3266"
       x2="63.765881"
       y2="1029.8864"
       gradientUnits="userSpaceOnUse"
       gradientTransform="translate(0.2341189,5.74082)" />
    <linearGradient
       inkscape:collect="always"
       xlink:href="#linearGradient3715"
       id="linearGradient3721"
       x1="63.765881"
       y1="936.95227"
       x2="63.765881"
       y2="983.41931"
       gradientUnits="userSpaceOnUse"
       gradientTransform="translate(0.2341196,6.0908086)" />
    <linearGradient
       inkscape:collect="always"
       xlink:href="#linearGradient3723"
       id="linearGradient3729"
       x1="37.375645"
       y1="948.8266"
       x2="37.375645"
       y2="1030.7611"
       gradientUnits="userSpaceOnUse"
       gradientTransform="translate(0.2341189,5.74082)" />
    <linearGradient
       inkscape:collect="always"
       xlink:href="#linearGradient3715"
       id="linearGradient3735"
       gradientUnits="userSpaceOnUse"
       gradientTransform="translate(0.2341196,6.0908086)"
       x1="63.765881"
       y1="936.95227"
       x2="63.765881"
       y2="983.41931" />
    <linearGradient
       inkscape:collect="always"
       xlink:href="#linearGradient3707"
       id="linearGradient3737"
       gradientUnits="userSpaceOnUse"
       gradientTransform="translate(0.2341189,5.74082)"
       x1="63.765881"
       y1="949.3266"
       x2="63.765881"
       y2="1029.8864" />
    <linearGradient
       inkscape:collect="always"
       xlink:href="#linearGradient3723"
       id="linearGradient3739"
       gradientUnits="userSpaceOnUse"
       gradientTransform="translate(0.2341189,5.74082)"
       x1="37.375645"
       y1="948.8266"
       x2="37.375645"
       y2="1030.7611" />
    <linearGradient
       inkscape:collect="always"
       xlink:href="#linearGradient3707"
       id="linearGradient3742"
       gradientUnits="userSpaceOnUse"
       gradientTransform="matrix(1.0066488,0,0,1.0066488,0.21965498,-1.1089658)"
       x1="63.765881"
       y1="949.3266"
       x2="63.765881"
       y2="1029.8864" />
    <linearGradient
       inkscape:collect="always"
       xlink:href="#linearGradient3723"
       id="linearGradient3744"
       gradientUnits="userSpaceOnUse"
       gradientTransform="matrix(1.0066488,0,0,1.0066488,0.21965498,-1.1089658)"
       x1="37.375645"
       y1="948.8266"
       x2="37.375645"
       y2="1030.7611" />
    <linearGradient
       inkscape:collect="always"
       xlink:href="#linearGradient3715"
       id="linearGradient3747"
       gradientUnits="userSpaceOnUse"
       gradientTransform="matrix(1.0066488,0,0,1.0066488,0.21965567,-0.75665045)"
       x1="63.765881"
       y1="936.95227"
       x2="63.765881"
       y2="983.41931" />
    <linearGradient
       inkscape:collect="always"
       xlink:href="#linearGradient3715"
       id="linearGradient3753"
       gradientUnits="userSpaceOnUse"
       gradientTransform="matrix(1.0066488,0,0,1.0066488,0.21965567,-0.75665045)"
       x1="63.765881"
       y1="936.95227"
       x2="63.765881"
       y2="983.41931" />
    <linearGradient
       inkscape:collect="always"
       xlink:href="#linearGradient3707"
       id="linearGradient3755"
       gradientUnits="userSpaceOnUse"
       gradientTransform="matrix(1.0066488,0,0,1.0066488,0.21965498,-1.1089658)"
       x1="63.765881"
       y1="949.3266"
       x2="63.765881"
       y2="1029.8864" />
    <linearGradient
       inkscape:collect="always"
       xlink:href="#linearGradient3723"
       id="linearGradient3757"
       gradientUnits="userSpaceOnUse"
       gradientTransform="matrix(1.0066488,0,0,1.0066488,0.21965498,-1.1089658)"
       x1="37.375645"
       y1="948.8266"
       x2="37.375645"
       y2="1030.7611" />
    <linearGradient
       inkscape:collect="always"
       xlink:href="#linearGradient3707"
       id="linearGradient2838"
       gradientUnits="userSpaceOnUse"
       gradientTransform="matrix(0.37749331,0,0,0.37749331,-0.07119206,657.42489)"
       x1="63.765881"
       y1="949.3266"
       x2="63.765881"
       y2="1029.8864" />
    <linearGradient
       inkscape:collect="always"
       xlink:href="#linearGradient3723"
       id="linearGradient2840"
       gradientUnits="userSpaceOnUse"
       gradientTransform="matrix(0.37749331,0,0,0.37749331,-0.07119206,657.42489)"
       x1="37.375645"
       y1="948.8266"
       x2="37.375645"
       y2="1030.7611" />
    <linearGradient
       inkscape:collect="always"
       xlink:href="#linearGradient3715"
       id="linearGradient2843"
       gradientUnits="userSpaceOnUse"
       gradientTransform="matrix(0.37749331,0,0,0.37749331,-0.0711918,657.55701)"
       x1="63.765881"
       y1="941.44623"
       x2="63.765881"
       y2="965.56183" />
    <linearGradient
       gradientTransform="translate(-85.105352,968.75432)"
       y2="3.5"
       x2="24"
       y1="44.5"
       x1="24"
       gradientUnits="userSpaceOnUse"
       id="linearGradient3990"
       xlink:href="#linearGradient3636"
       inkscape:collect="always" />
    <linearGradient
       y2="3.5"
       x2="24"
       y1="44.5"
       x1="24"
       gradientTransform="translate(-34.597725,1004.3648)"
       gradientUnits="userSpaceOnUse"
       id="linearGradient3988"
       xlink:href="#linearGradient3636"
       inkscape:collect="always" />
    <linearGradient
       gradientTransform="translate(-64.649763,50.0026)"
       y2="3.5"
       x2="24"
       y1="44.5"
       x1="24"
       gradientUnits="userSpaceOnUse"
       id="linearGradient3985"
       xlink:href="#linearGradient3636"
       inkscape:collect="always" />
    <linearGradient
       y2="3.5"
       x2="24"
       y1="44.5"
       x1="24"
       gradientTransform="translate(5e-4,1004.3597)"
       gradientUnits="userSpaceOnUse"
       id="linearGradient3979"
       xlink:href="#linearGradient3636"
       inkscape:collect="always" />
    <linearGradient
       y2="3.5"
       x2="24"
       y1="44.5"
       x1="24"
       gradientTransform="matrix(-1,0,0,-1,-22.84425,52.819)"
       gradientUnits="userSpaceOnUse"
       id="linearGradient3976"
       xlink:href="#linearGradient3636"
       inkscape:collect="always" />
    <linearGradient
       gradientTransform="translate(-71.468293,4.7982)"
       y2="3.5"
       x2="24"
       y1="44.5"
       x1="24"
       gradientUnits="userSpaceOnUse"
       id="linearGradient3971"
       xlink:href="#linearGradient3636"
       inkscape:collect="always" />
    <inkscape:perspective
       sodipodi:type="inkscape:persp3d"
       inkscape:vp_x="0 : 101.25 : 1"
       inkscape:vp_y="0 : 1000 : 0"
       inkscape:vp_z="409.50003 : 101.25 : 1"
       inkscape:persp3d-origin="204.75002 : 67.5 : 1"
       id="perspective3874" />
    <style
       type="text/css"
       id="style2464" />
    <linearGradient
       gradientUnits="userSpaceOnUse"
       y2="3.5"
       x2="24"
       y1="44.5"
       x1="24"
       id="linearGradient3642"
       xlink:href="#linearGradient3636"
       inkscape:collect="always" />
    <inkscape:perspective
       sodipodi:type="inkscape:persp3d"
       inkscape:vp_x="0 : 0.5 : 1"
       inkscape:vp_y="0 : 1000 : 0"
       inkscape:vp_z="1 : 0.5 : 1"
       inkscape:persp3d-origin="0.5 : 0.33333333 : 1"
       id="perspective3600" />
    <inkscape:perspective
       id="perspective10-6"
       inkscape:persp3d-origin="372.04724 : 350.78739 : 1"
       inkscape:vp_z="744.09448 : 526.18109 : 1"
       inkscape:vp_y="0 : 1000 : 0"
       inkscape:vp_x="0 : 526.18109 : 1"
       sodipodi:type="inkscape:persp3d" />
    <linearGradient
       id="linearGradient3636">
      <stop
         id="stop3638"
         offset="0"
         style="stop-color:#b4b4b4;stop-opacity:1;" />
      <stop
         id="stop3640"
         offset="1"
         style="stop-color:#f0f0f0;stop-opacity:1;" />
    </linearGradient>
    <radialGradient
       inkscape:collect="always"
       xlink:href="#linearGradient3736"
       id="radialGradient3742"
       cx="30.052038"
       cy="42.759834"
       fx="30.052038"
       fy="42.759834"
       r="12.500638"
       gradientTransform="matrix(1,0,0,0.07575758,0,39.520453)"
       gradientUnits="userSpaceOnUse" />
  </defs>
  <sodipodi:namedview
     id="base"
     pagecolor="#ffffff"
     bordercolor="#666666"
     borderopacity="1.0"
     inkscape:pageopacity="0.0"
     inkscape:pageshadow="2"
     inkscape:zoom="7.919596"
     inkscape:cx="23.435462"
     inkscape:cy="8.8996489"
     inkscape:document-units="px"
     inkscape:current-layer="layer1"
     showgrid="false"
     showguides="true"
     inkscape:guide-bbox="true"
     inkscape:window-width="1280"
     inkscape:window-height="712"
     inkscape:window-x="0"
     inkscape:window-y="25"
     inkscape:window-maximized="1" />
  <metadata
     id="metadata7">
    <rdf:RDF>
      <cc:Work
         rdf:about="">
        <dc:format>image/svg+xml</dc:format>
        <dc:type
           rdf:resource="http://purl.org/dc/dcmitype/StillImage" />
        <dc:title />
      </cc:Work>
    </rdf:RDF>
  </metadata>
  <g
     inkscape:label="Livello 1"
     inkscape:groupmode="layer"
     id="layer1"
     transform="translate(0,-1004.3622)">
    <path
       sodipodi:type="arc"
       style="fill:url(#radialGradient3742);fill-opacity:1;fill-rule:nonzero;stroke:none"
       id="path2961"
       sodipodi:cx="30.052038"
       sodipodi:cy="42.759834"
       sodipodi:rx="12.500638"
       sodipodi:ry="0.94701803"
       d="m 42.552676,42.759834 a 12.500638,0.94701803 0 1 1 -25.001276,0 12.500638,0.94701803 0 1 1 25.001276,0 z"
       transform="translate(-0.57385987,1004.3622)" />
    <path
       style="fill:url(#linearGradient2843);fill-opacity:1;stroke:none"
       d="m 4.6838842,1010.3922 12.4011988,0 c 0.620549,0 1.122295,-0.01 1.277932,0.5725 l 0.428971,1.2537 c 0.239398,0.6996 0.489455,1.2244 1.458454,1.2244 l 23.065676,0 c 0.627394,0 1.132481,0.5051 1.132481,1.1325 l 0,30.6244 c 0,0.6274 -0.505087,1.1325 -1.132481,1.1325 l -38.6322318,0 c -0.6273938,0 -1.1324802,-0.5051 -1.1324802,-1.1325 l 0,-33.675 c 0,-0.6274 0.5050864,-1.1325 1.1324802,-1.1325 z"
       id="rect3704"
       sodipodi:nodetypes="ccccccccccccc" />
    <path
       style="fill:url(#linearGradient2838);fill-opacity:1;fill-rule:evenodd;stroke:url(#linearGradient2840);stroke-width:0.2642453;stroke-miterlimit:4;stroke-dasharray:none"
       d="m 2.0146025,1015.7893 43.9707975,0 c 0.627394,0 1.132477,0.5051 1.132477,1.1325 l -2.02221,28.1458 c 0,0.6274 -0.505087,1.1324 -1.132481,1.1324 l -39.9262987,10e-5 c -0.6273942,0 -1.1324802,-0.5051 -1.1324802,-1.1325 l -2.02228444,-28.1458 c 0,-0.6274 0.50508604,-1.1325 1.13247984,-1.1325 z"
       id="rect2926"
       sodipodi:nodetypes="ccccccccc" />
    <g
       id="layer1-7"
       inkscape:label="Livello 1"
       transform="matrix(0.63205418,0,0,0.63205418,14.308878,383.50999)">
      <path
         id="path2816"
         transform="translate(0,1004.3622)"
         d="M 24,2 C 11.849735,2 2,11.849735 2,24 2,36.150265 11.849735,46 24,46 36.150265,46 46,36.150265 46,24 46,11.849735 36.150265,2 24,2 z m 0,13 c 4.970563,0 9,4.029437 9,9 0,4.970563 -4.029437,9 -9,9 -4.970563,0 -9,-4.029437 -9,-9 0,-4.970563 4.029437,-9 9,-9 z"
         style="fill:#dcdcdc;fill-opacity:0.47058824;fill-rule:nonzero;stroke:#787878;stroke-width:0.30000001;stroke-miterlimit:4;stroke-opacity:1;stroke-dasharray:none" />
      <path
         id="path3617"
         transform="translate(0,1004.3622)"
         d="M 24,3 C 12.40202,3 3,12.40202 3,24 3,35.59798 12.40202,45 24,45 35.59798,45 45,35.59798 45,24 45,12.40202 35.59798,3 24,3 z m 0,12 c 4.970563,0 9,4.029437 9,9 0,4.970563 -4.029437,9 -9,9 -4.970563,0 -9,-4.029437 -9,-9 0,-4.970563 4.029437,-9 9,-9 z"
         style="fill:#969696;fill-opacity:0.78431373;fill-rule:nonzero;stroke:none" />
      <path
         id="path3590"
         d="m 24,1019.3622 c -4.970563,0 -9,4.0294 -9,9 0,4.9705 4.029437,9 9,9 4.970563,0 9,-4.0295 9,-9 0,-4.9706 -4.029437,-9 -9,-9 z m 0,3 c 3.313709,0 6,2.6863 6,6 0,3.3137 -2.686291,6 -6,6 -3.313709,0 -6,-2.6863 -6,-6 0,-3.3137 2.686291,-6 6,-6 z"
         style="fill:#f0f0f0;fill-opacity:0.39215686;fill-rule:nonzero;stroke:none" />
      <path
         id="path3608"
         d="m 24,1022.3622 c -3.313709,0 -6,2.6863 -6,6 0,3.3137 2.686291,6 6,6 3.313709,0 6,-2.6863 6,-6 0,-3.3137 -2.686291,-6 -6,-6 z m 0,2.5 c 1.932997,0 3.5,1.567 3.5,3.5 0,1.933 -1.567003,3.5 -3.5,3.5 -1.932997,0 -3.5,-1.567 -3.5,-3.5 0,-1.933 1.567003,-3.5 3.5,-3.5 z"
         style="fill:#c8c8c8;fill-opacity:0.39215686;fill-rule:nonzero;stroke:none" />
      <path
         transform="matrix(0.15633333,0,0,0.15633333,19.98,1024.4595)"
         d="m 47.142857,24.964285 c 0,11.834673 -9.593899,21.428572 -21.428572,21.428572 -11.834673,0 -21.4285718,-9.593899 -21.4285718,-21.428572 0,-11.834673 9.5938988,-21.4285718 21.4285718,-21.4285718 11.834673,0 21.428572,9.5938988 21.428572,21.4285718 z"
         sodipodi:ry="21.428572"
         sodipodi:rx="21.428572"
         sodipodi:cy="24.964285"
         sodipodi:cx="25.714285"
         id="path3606"
         style="fill:none;stroke:#787878;stroke-width:1.91897655;stroke-miterlimit:4;stroke-opacity:1;stroke-dasharray:none"
         sodipodi:type="arc" />
      <path
         id="path3967"
         d="m 24,1048.8662 c 9.5971,0 17.643,-6.595 19.875,-15.5 l -3.625,0 c -2.7614,0 -5,-2.2386 -5,-5 0,-2.7614 2.2386,-5 5,-5 l 3.625,0 c -2.232,-8.905 -10.2779,-15.5 -19.875,-15.5 -0.3538,0 -0.7131,-0.018 -1.0625,0 -9.1295,0.4628 -16.6639,6.9215 -18.8125,15.5 l 4.25,0 c 2.7615,0 5,2.2386 5,5 0,2.7614 -2.2385,5 -5,5 l -4.25,0 c 2.2413,8.8919 10.2874,15.5 19.875,15.5 z m 0,-11.5 c -4.9705,0 -9,-4.0294 -9,-9 0,-4.9705 4.0295,-9 9,-9 4.9706,0 9,4.0295 9,9 0,4.9706 -4.0294,9 -9,9 z"
         style="fill:url(#linearGradient3979);fill-opacity:1;fill-rule:nonzero;stroke:none" />
      <path
         style="fill:#dcdcdc;fill-opacity:1"
         d="m 21.773852,1038.658 c -0.70348,0 -0.640674,0.1786 -0.662545,0.371 -0.0071,0.063 -7.04e-4,0.2108 0,0.3711 6.84e-4,0.1603 -0.0071,0.335 0,0.3975 0.02186,0.1925 -0.04094,0.3711 0.662545,0.3711 0.703479,0 0.614159,-0.1786 0.636042,-0.3711 0.0042,-0.036 0.0242,-0.1285 0.0265,-0.212 l -0.397527,0 c -0.0011,0.042 0.0014,0.094 0,0.106 -0.01095,0.096 0.01238,0.1325 -0.265017,0.1325 -0.2774,0 -0.28057,-0.036 -0.29152,-0.1325 -0.0036,-0.031 -3.39e-4,-0.2114 0,-0.2915 3.42e-4,-0.08 -0.0036,-0.2338 0,-0.265 0.01095,-0.096 0.01412,-0.1591 0.29152,-0.1591 0.277412,0 0.254081,0.063 0.265017,0.1591 0.0015,0.013 -0.0011,0.034 0,0.08 l 0.397527,0 c -0.0025,-0.086 -0.02228,-0.1481 -0.0265,-0.1856 -0.0219,-0.1924 0.06744,-0.371 -0.636042,-0.371 z m 1.5106,0 c -0.70348,0 -0.614158,0.1786 -0.636042,0.371 -0.0071,0.063 -0.02721,0.2108 -0.0265,0.3711 6.84e-4,0.1603 0.01942,0.335 0.0265,0.3975 0.02191,0.1925 -0.06744,0.3711 0.636042,0.3711 0.70349,0 0.64066,-0.1786 0.662544,-0.3711 0.0071,-0.063 -6.61e-4,-0.2372 0,-0.3975 6.84e-4,-0.1603 0.0071,-0.3084 0,-0.3711 -0.0219,-0.1924 0.04095,-0.371 -0.662544,-0.371 z m 6.413428,0 c -0.70348,0 -0.614158,0.1786 -0.636043,0.371 -0.0071,0.063 -0.02721,0.2108 -0.0265,0.3711 6.83e-4,0.1603 0.01942,0.335 0.0265,0.3975 0.0219,0.1925 -0.06744,0.3711 0.636043,0.3711 0.703489,0 0.640661,-0.1786 0.662544,-0.3711 0.0042,-0.036 -0.0023,-0.1285 0,-0.212 l -0.371025,0 c -0.0011,0.042 0.0014,0.094 0,0.106 -0.01095,0.096 -0.01412,0.1325 -0.291519,0.1325 -0.2774,0 -0.25408,-0.036 -0.265018,-0.1325 -0.0036,-0.031 -0.02684,-0.2114 -0.0265,-0.2915 3.42e-4,-0.08 0.02294,-0.2338 0.0265,-0.265 0.01095,-0.096 -0.01238,-0.1591 0.265018,-0.1591 0.277413,0 0.280582,0.063 0.291519,0.1591 0.0015,0.013 -0.0011,0.034 0,0.08 l 0.371025,0 c -0.0025,-0.086 0.0042,-0.1481 0,-0.1856 -0.02186,-0.1924 0.04094,-0.371 -0.662544,-0.371 z m -10.521202,0.026 c -0.174179,0 -0.291519,0.1439 -0.291519,0.318 l 0,1.4046 c 0,0.073 -0.05947,0.1325 -0.132509,0.1325 l -1.325088,0 c -0.511199,0 -0.927562,0.4163 -0.927562,0.9276 l 0,3.5247 c 0,0.5112 0.416363,0.9276 0.927562,0.9276 l 2.305653,0 0.583039,0 c 0.17418,0 0.29152,-0.1439 0.29152,-0.3181 l 0,-6.5989 c 0,-0.1742 -0.11734,-0.318 -0.29152,-0.318 l -1.139576,0 z m 5.008834,0 0,1.4576 0.371025,0 0,-1.0866 0.371025,1.0866 0.371025,0 0.371024,-1.0866 0,1.0866 0.371025,0 0,-1.4576 -0.556537,0 -0.371025,1.0865 -0.371025,-1.0865 -0.556537,0 z m 2.146643,0 0,1.4576 0.371025,0 0,-0.3445 0.238516,0 c 0.703493,0 0.618284,-0.1782 0.636042,-0.371 0.0031,-0.033 0.02652,-0.1398 0.0265,-0.1856 0,-0.057 -0.02345,-0.1626 -0.0265,-0.1855 -0.02589,-0.1919 0.06745,-0.371 -0.636042,-0.371 l -0.609541,0 z m 1.669612,0 -0.424029,1.4576 0.371025,0 0.106007,-0.3181 0.477032,0 0.07951,0.3181 0.371025,0 -0.424028,-1.4576 -0.556537,0 z m 2.438162,0 0,0.371 0.344523,0 0,1.0866 0.371025,0 0,-1.0866 0.344523,0 0,-0.371 -1.060071,0 z m -7.155477,0.2915 c 0.277413,0 0.280583,0.063 0.29152,0.159 0.0036,0.031 -3.4e-4,0.1849 0,0.265 3.41e-4,0.08 0.0036,0.2603 0,0.2916 -0.01095,0.096 -0.01412,0.1324 -0.29152,0.1324 -0.2774,0 -0.25408,-0.036 -0.265017,-0.1324 -0.0036,-0.031 -3.4e-4,-0.2114 0,-0.2916 3.54e-4,-0.08 -0.0036,-0.2337 0,-0.265 0.01095,-0.096 -0.01238,-0.159 0.265017,-0.159 z m -3.975265,0.026 0.874559,0 c 0.073,0 0.132508,0.059 0.132508,0.1324 l 0,6.334 c 0,0.073 -0.05952,0.1325 -0.132508,0.1325 l -0.450531,0 -2.305653,0 c -0.335336,0 -0.609541,-0.2742 -0.609541,-0.6095 l 0,-3.5248 c 0,-0.3354 0.274206,-0.6095 0.609541,-0.6095 l 1.431095,0 c 0.17418,0 0.318021,-0.1438 0.318021,-0.318 l 0,-1.4047 c 0,-0.073 0.05951,-0.1324 0.132509,-0.1324 z m 8.984099,0 0.159011,0.583 -0.344523,0 0.185512,-0.583 z m -1.590106,0.026 0.238516,0 c 0.277362,0 0.254069,0.036 0.265018,0.1325 0.0036,0.031 -3.42e-4,-2e-4 0,0.08 3.39e-4,0.077 0.0036,0.048 0,0.08 -0.01095,0.096 0.01238,0.159 -0.265018,0.159 l -0.238516,0 0,-0.4506 z m -5.326855,1.5106 c -0.17418,0 -0.318021,0.1438 -0.318021,0.318 l 0,4.7438 c 0,0.1742 0.143838,0.318 0.318021,0.318 l 0.556537,0 0.556537,0 c 0.17422,0 0.318021,-0.1438 0.318021,-0.318 l 0,-4.7438 c 0,-0.1742 -0.143801,-0.318 -0.318021,-0.318 l -1.113074,0 z m 2.835689,0 c -0.511158,0 -0.90106,0.4163 -0.90106,0.9275 l 0,1.5901 c 0,0.5112 0.389902,0.9276 0.90106,0.9276 l 1.272085,0 c 0.115599,0 0.212014,0.096 0.212014,0.2121 0,0.1155 -0.09642,0.1854 -0.212014,0.1854 l -1.881626,0 c -0.174193,0 -0.318021,0.1438 -0.318021,0.318 l 0,0.9011 c 0,0.1743 0.143838,0.318 0.318021,0.318 l 2.676679,-0.026 c 0.511158,0 0.927562,-0.3898 0.927562,-0.901 l 0,-1.6167 c 0,-0.5111 -0.41639,-0.901 -0.927562,-0.901 l -1.272085,0 c -0.115546,0 -0.212014,-0.096 -0.212014,-0.212 0,-0.1156 0.09647,-0.2121 0.212014,-0.2121 l 0.927562,0 0.768551,0 c 0.174167,0 0.318021,-0.1438 0.318021,-0.318 l 0,-0.8745 c 0,-0.1742 -0.143788,-0.318 -0.318021,-0.318 l -2.491166,0 z m 4.34629,0 c -0.511212,0 -0.90106,0.4163 -0.90106,0.9275 l 0,3.5248 c 0,0.5111 0.389862,0.9275 0.90106,0.9275 l 2.014134,0 c 0.511198,0 0.927562,-0.4164 0.927562,-0.9275 l 0,-1.1131 c 0,-0.1741 -0.143788,-0.318 -0.318021,-0.318 l -1.007067,0 c -0.17418,0 -0.318022,0.1438 -0.318022,0.318 l 0,0.6095 c 0,0.1914 -0.100253,0.3445 -0.291519,0.3446 -0.191307,0 -0.265018,-0.1532 -0.265018,-0.3446 l 0,-2.4646 c 0,-0.1912 0.07372,-0.3446 0.265018,-0.3446 0.191253,0 0.291519,0.1534 0.291519,0.3446 l 0,0.583 c 0,0.1742 0.143828,0.3181 0.318022,0.3181 l 0.477031,0 0.530036,0 c 0.174233,0 0.318021,-0.1439 0.318021,-0.3181 l 0,-1.1396 c 0,-0.5112 -0.41635,-0.9275 -0.927562,-0.9275 l -2.014134,0 z m -1.987633,0.2915 c 0.073,0 0.132509,0.059 0.132509,0.1325 l 0,0.6361 c 0,0.073 -0.05945,0.1324 -0.132509,0.1324 l -0.636042,0 -0.927562,0 c -0.287438,0 -0.530035,0.2426 -0.530035,0.5301 1.2e-5,0.2875 0.242597,0.53 0.530035,0.53 l 1.272085,0 c 0.335296,0 0.609541,0.2478 0.609541,0.5831 l 0,1.6166 c 0,0.3353 -0.274245,0.6095 -0.609541,0.6095 l -2.54417,0 c -0.073,0 -0.132509,-0.059 -0.132509,-0.1325 l 0,-0.6095 c 0,-0.073 0.05951,-0.1325 0.132509,-0.1325 l 1.749117,-0.026 c 0.287492,0 0.503533,-0.216 0.503533,-0.5035 1.4e-5,-0.2875 -0.216041,-0.53 -0.503533,-0.53 l -1.272085,0 c -0.335296,0 -0.583039,-0.2743 -0.583039,-0.6096 l 0,-1.5901 c 0,-0.3353 0.247743,-0.6095 0.583039,-0.6095 l 2.358657,-0.026 z m -5.061837,0.026 0.848056,0 c 0.07304,0 0.132509,0.059 0.132509,0.1324 l 0,4.4789 c 0,0.073 -0.05949,0.1325 -0.132509,0.1325 l -0.424028,0 -0.424028,0 c -0.07307,0 -0.132509,-0.059 -0.132509,-0.1325 l 0,-4.4789 c 0,-0.073 0.05947,-0.1324 0.132509,-0.1324 z m 7.04947,0 2.014134,0 c 0.33535,0 0.609541,0.2742 0.609541,0.6095 l 0,1.007 c 0,0.073 -0.05947,0.1326 -0.132509,0.1326 l -0.397527,0 -0.344523,0 c -0.073,0 -0.132508,-0.059 -0.132508,-0.1326 l 0,-0.4504 c 0,-0.3651 -0.244422,-0.6626 -0.609541,-0.6626 -0.365146,0 -0.583039,0.2975 -0.583039,0.6626 l 0,2.4646 c 0,0.3652 0.217894,0.6626 0.583039,0.6626 0.365105,0 0.609541,-0.2974 0.609541,-0.6626 l 0,-0.4771 c 0,-0.073 0.05951,-0.1324 0.132508,-0.1324 l 0.74205,0 c 0.07304,0 0.132509,0.059 0.132509,0.1324 l 0,0.9807 c 0,0.3353 -0.274191,0.6095 -0.609541,0.6095 l -2.014134,0 c -0.33535,0 -0.583039,-0.2742 -0.583039,-0.6095 l 0,-3.5248 c 0,-0.3353 0.247689,-0.6095 0.583039,-0.6095 z m -10.017668,0.5035 c -0.365094,0 -0.662544,0.2975 -0.662544,0.6626 l 0,2.4646 c 0,0.3652 0.297451,0.6626 0.662544,0.6626 0.365158,0 0.636042,-0.2974 0.636042,-0.6626 l 0,-0.1855 0,-2.2791 c 0,-0.3651 -0.270883,-0.6626 -0.636042,-0.6626 z m 0,0.318 c 0.191307,0 0.344523,0.1533 0.344523,0.3446 l 0,2.2791 0,0.1855 c 0,0.1912 -0.153216,0.3445 -0.344523,0.3445 -0.191253,0 -0.371025,-0.1533 -0.371025,-0.3445 l 0,-2.4646 c 0,-0.1913 0.179784,-0.3446 0.371025,-0.3446 z"
         id="path3932" />
      <path
         style="fill:#505050;fill-opacity:1"
         d="m 21.773852,1038.444 c -0.70348,0 -0.640674,0.1786 -0.662545,0.371 -0.0071,0.063 -7.04e-4,0.2107 0,0.371 6.84e-4,0.1603 -0.0071,0.3349 0,0.3975 0.02186,0.1924 -0.04094,0.371 0.662545,0.371 0.703479,0 0.614159,-0.1786 0.636042,-0.371 0.0042,-0.036 0.0242,-0.1286 0.0265,-0.212 l -0.397527,0 c -0.0011,0.042 0.0014,0.094 0,0.106 -0.01095,0.096 0.01238,0.1325 -0.265017,0.1325 -0.2774,0 -0.28057,-0.036 -0.29152,-0.1325 -0.0036,-0.031 -3.39e-4,-0.2113 0,-0.2915 3.42e-4,-0.08 -0.0036,-0.2337 0,-0.265 0.01095,-0.096 0.01412,-0.159 0.29152,-0.159 0.277412,0 0.254081,0.063 0.265017,0.159 0.0015,0.013 -0.0011,0.034 0,0.08 l 0.397527,0 c -0.0025,-0.086 -0.02228,-0.148 -0.0265,-0.1854 -0.0219,-0.1925 0.06744,-0.3711 -0.636042,-0.3711 z m 1.5106,0 c -0.70348,0 -0.614158,0.1786 -0.636042,0.371 -0.0071,0.063 -0.02721,0.2107 -0.0265,0.371 6.84e-4,0.1603 0.01942,0.3349 0.0265,0.3975 0.02191,0.1924 -0.06744,0.371 0.636042,0.371 0.70349,0 0.64066,-0.1786 0.662544,-0.371 0.0071,-0.063 -6.61e-4,-0.2372 0,-0.3975 6.84e-4,-0.1603 0.0071,-0.3083 0,-0.371 -0.0219,-0.1924 0.04095,-0.371 -0.662544,-0.371 z m 6.413428,0 c -0.70348,0 -0.614158,0.1786 -0.636043,0.371 -0.0071,0.063 -0.02721,0.2107 -0.0265,0.371 6.83e-4,0.1603 0.01942,0.3349 0.0265,0.3975 0.0219,0.1924 -0.06744,0.371 0.636043,0.371 0.703489,0 0.640661,-0.1786 0.662544,-0.371 0.0042,-0.036 -0.0023,-0.1286 0,-0.212 l -0.371025,0 c -0.0011,0.042 0.0014,0.094 0,0.106 -0.01095,0.096 -0.01412,0.1325 -0.291519,0.1325 -0.2774,0 -0.25408,-0.036 -0.265018,-0.1325 -0.0036,-0.031 -0.02684,-0.2113 -0.0265,-0.2915 3.42e-4,-0.08 0.02294,-0.2337 0.0265,-0.265 0.01095,-0.096 -0.01238,-0.159 0.265018,-0.159 0.277413,0 0.280582,0.063 0.291519,0.159 0.0015,0.013 -0.0011,0.034 0,0.08 l 0.371025,0 c -0.0025,-0.086 0.0042,-0.148 0,-0.1854 -0.02186,-0.1925 0.04094,-0.3711 -0.662544,-0.3711 z m -10.521202,0.026 c -0.174179,0 -0.291519,0.1439 -0.291519,0.318 l 0,1.4046 c 0,0.073 -0.05947,0.1325 -0.132509,0.1325 l -1.325088,0 c -0.511199,0 -0.927562,0.4164 -0.927562,0.9276 l 0,3.5247 c 0,0.5111 0.416363,0.9276 0.927562,0.9276 l 2.305653,0 0.583039,0 c 0.17418,0 0.29152,-0.1438 0.29152,-0.318 l 0,-6.599 c 0,-0.1742 -0.11734,-0.318 -0.29152,-0.318 l -1.139576,0 z m 5.008834,0 0,1.4576 0.371025,0 0,-1.0866 0.371025,1.0866 0.371025,0 0.371024,-1.0866 0,1.0866 0.371025,0 0,-1.4576 -0.556537,0 -0.371025,1.0866 -0.371025,-1.0866 -0.556537,0 z m 2.146643,0 0,1.4576 0.371025,0 0,-0.3446 0.238516,0 c 0.703493,0 0.618284,-0.1781 0.636042,-0.371 0.0031,-0.033 0.02652,-0.1397 0.0265,-0.1855 0,-0.057 -0.02345,-0.1626 -0.0265,-0.1855 -0.02589,-0.1919 0.06745,-0.371 -0.636042,-0.371 l -0.609541,0 z m 1.669612,0 -0.424029,1.4576 0.371025,0 0.106007,-0.318 0.477032,0 0.07951,0.318 0.371025,0 -0.424028,-1.4576 -0.556537,0 z m 2.438162,0 0,0.371 0.344523,0 0,1.0866 0.371025,0 0,-1.0866 0.344523,0 0,-0.371 -1.060071,0 z m -7.155477,0.2915 c 0.277413,0 0.280583,0.063 0.29152,0.159 0.0036,0.031 -3.4e-4,0.1849 0,0.2651 3.41e-4,0.08 0.0036,0.2601 0,0.2914 -0.01095,0.096 -0.01412,0.1326 -0.29152,0.1326 -0.2774,0 -0.25408,-0.036 -0.265017,-0.1326 -0.0036,-0.031 -3.4e-4,-0.2113 0,-0.2914 3.54e-4,-0.08 -0.0036,-0.2338 0,-0.2651 0.01095,-0.096 -0.01238,-0.159 0.265017,-0.159 z m -3.975265,0.026 0.874559,0 c 0.073,0 0.132508,0.059 0.132508,0.1326 l 0,6.3338 c 0,0.073 -0.05952,0.1326 -0.132508,0.1326 l -0.450531,0 -2.305653,0 c -0.335336,0 -0.609541,-0.2743 -0.609541,-0.6096 l 0,-3.5247 c 0,-0.3354 0.274206,-0.6096 0.609541,-0.6096 l 1.431095,0 c 0.17418,0 0.318021,-0.1438 0.318021,-0.318 l 0,-1.4045 c 0,-0.073 0.05951,-0.1326 0.132509,-0.1326 z m 8.984099,0 0.159011,0.5831 -0.344523,0 0.185512,-0.5831 z m -1.590106,0.026 0.238516,0 c 0.277362,0 0.254069,0.036 0.265018,0.1325 0.0036,0.031 -3.42e-4,-2e-4 0,0.08 3.39e-4,0.077 0.0036,0.048 0,0.08 -0.01095,0.096 0.01238,0.159 -0.265018,0.159 l -0.238516,0 0,-0.4505 z m -5.326855,1.5106 c -0.17418,0 -0.318021,0.1438 -0.318021,0.318 l 0,4.7438 c 0,0.1742 0.143838,0.3181 0.318021,0.3181 l 0.556537,0 0.556537,0 c 0.17422,0 0.318021,-0.1439 0.318021,-0.3181 l 0,-4.7438 c 0,-0.1742 -0.143801,-0.318 -0.318021,-0.318 l -1.113074,0 z m 2.835689,0 c -0.511158,0 -0.90106,0.4164 -0.90106,0.9276 l 0,1.5901 c 0,0.5112 0.389902,0.9275 0.90106,0.9275 l 1.272085,0 c 0.115599,0 0.212014,0.097 0.212014,0.212 0,0.1156 -0.09642,0.1856 -0.212014,0.1856 l -1.881626,0 c -0.174193,0 -0.318021,0.1437 -0.318021,0.318 l 0,0.901 c 0,0.1743 0.143838,0.3181 0.318021,0.3181 l 2.676679,-0.026 c 0.511158,0 0.927562,-0.3899 0.927562,-0.9011 l 0,-1.6166 c 0,-0.5111 -0.41639,-0.901 -0.927562,-0.901 l -1.272085,0 c -0.115546,0 -0.212014,-0.096 -0.212014,-0.212 0,-0.1156 0.09647,-0.212 0.212014,-0.212 l 0.927562,0 0.768551,0 c 0.174167,0 0.318021,-0.1439 0.318021,-0.3181 l 0,-0.8746 c 0,-0.1742 -0.143788,-0.318 -0.318021,-0.318 l -2.491166,0 z m 4.34629,0 c -0.511212,0 -0.90106,0.4164 -0.90106,0.9276 l 0,3.5247 c 0,0.5111 0.389862,0.9276 0.90106,0.9276 l 2.014134,0 c 0.511198,0 0.927562,-0.4165 0.927562,-0.9276 l 0,-1.1131 c 0,-0.1741 -0.143788,-0.318 -0.318021,-0.318 l -1.007067,0 c -0.17418,0 -0.318022,0.1438 -0.318022,0.318 l 0,0.6096 c 0,0.1913 -0.100253,0.3444 -0.291519,0.3444 -0.191307,0 -0.265018,-0.1531 -0.265018,-0.3444 l 0,-2.4647 c 0,-0.1913 0.07372,-0.3445 0.265018,-0.3445 0.191253,0 0.291519,0.1532 0.291519,0.3445 l 0,0.583 c 0,0.1742 0.143828,0.318 0.318022,0.318 l 0.477031,0 0.530036,0 c 0.174233,0 0.318021,-0.1438 0.318021,-0.318 l 0,-1.1395 c 0,-0.5112 -0.41635,-0.9276 -0.927562,-0.9276 l -2.014134,0 z m -1.987633,0.2915 c 0.073,0 0.132509,0.059 0.132509,0.1325 l 0,0.636 c 0,0.073 -0.05945,0.1326 -0.132509,0.1326 l -0.636042,0 -0.927562,0 c -0.287438,0 -0.530035,0.2425 -0.530035,0.53 1.2e-5,0.2875 0.242597,0.5301 0.530035,0.5301 l 1.272085,0 c 0.335296,0 0.609541,0.2478 0.609541,0.583 l 0,1.6166 c 0,0.3353 -0.274245,0.6095 -0.609541,0.6095 l -2.54417,0 c -0.073,0 -0.132509,-0.059 -0.132509,-0.1325 l 0,-0.6095 c 0,-0.073 0.05951,-0.1326 0.132509,-0.1326 l 1.749117,-0.026 c 0.287492,0 0.503533,-0.2161 0.503533,-0.5036 1.4e-5,-0.2875 -0.216041,-0.5301 -0.503533,-0.5301 l -1.272085,0 c -0.335296,0 -0.583039,-0.2741 -0.583039,-0.6095 l 0,-1.5901 c 0,-0.3353 0.247743,-0.6095 0.583039,-0.6095 l 2.358657,-0.026 z m -5.061837,0.026 0.848056,0 c 0.07304,0 0.132509,0.059 0.132509,0.1326 l 0,4.4787 c 0,0.073 -0.05949,0.1326 -0.132509,0.1326 l -0.424028,0 -0.424028,0 c -0.07307,0 -0.132509,-0.059 -0.132509,-0.1326 l 0,-4.4787 c 0,-0.073 0.05947,-0.1326 0.132509,-0.1326 z m 7.04947,0 2.014134,0 c 0.33535,0 0.609541,0.2743 0.609541,0.6096 l 0,1.0071 c 0,0.073 -0.05947,0.1324 -0.132509,0.1324 l -0.397527,0 -0.344523,0 c -0.073,0 -0.132508,-0.059 -0.132508,-0.1324 l 0,-0.4506 c 0,-0.3651 -0.244422,-0.6625 -0.609541,-0.6625 -0.365146,0 -0.583039,0.2974 -0.583039,0.6625 l 0,2.4647 c 0,0.3652 0.217894,0.6625 0.583039,0.6625 0.365105,0 0.609541,-0.2973 0.609541,-0.6625 l 0,-0.477 c 0,-0.073 0.05951,-0.1326 0.132508,-0.1326 l 0.74205,0 c 0.07304,0 0.132509,0.059 0.132509,0.1326 l 0,0.9805 c 0,0.3353 -0.274191,0.6096 -0.609541,0.6096 l -2.014134,0 c -0.33535,0 -0.583039,-0.2743 -0.583039,-0.6096 l 0,-3.5247 c 0,-0.3353 0.247689,-0.6096 0.583039,-0.6096 z m -10.017668,0.5036 c -0.365094,0 -0.662544,0.2974 -0.662544,0.6625 l 0,2.4647 c 0,0.3652 0.297451,0.6625 0.662544,0.6625 0.365158,0 0.636042,-0.2973 0.636042,-0.6625 l 0,-0.1856 0,-2.2791 c 0,-0.3651 -0.270883,-0.6625 -0.636042,-0.6625 z m 0,0.318 c 0.191307,0 0.344523,0.1533 0.344523,0.3445 l 0,2.2791 0,0.1856 c 0,0.1912 -0.153216,0.3445 -0.344523,0.3445 -0.191253,0 -0.371025,-0.1533 -0.371025,-0.3445 l 0,-2.4647 c 0,-0.1912 0.179784,-0.3445 0.371025,-0.3445 z"
         id="path3930" />
      <path
         id="_120214216"
         d="m 21.773852,1038.551 c -0.70348,0 -0.640674,0.1786 -0.662545,0.371 -0.0071,0.063 -7.04e-4,0.2108 0,0.371 6.84e-4,0.1603 -0.0071,0.335 0,0.3976 0.02186,0.1924 -0.04094,0.371 0.662545,0.371 0.703479,0 0.614159,-0.1786 0.636042,-0.371 0.0042,-0.036 0.0242,-0.1286 0.0265,-0.212 l -0.397527,0 c -0.0011,0.042 0.0014,0.094 0,0.106 -0.01095,0.096 0.01238,0.1325 -0.265017,0.1325 -0.2774,0 -0.28057,-0.037 -0.29152,-0.1325 -0.0036,-0.031 -3.39e-4,-0.2114 0,-0.2916 3.42e-4,-0.08 -0.0036,-0.2337 0,-0.265 0.01095,-0.096 0.01412,-0.159 0.29152,-0.159 0.277412,0 0.254081,0.063 0.265017,0.159 0.0015,0.013 -0.0011,0.034 0,0.08 l 0.397527,0 c -0.0025,-0.086 -0.02228,-0.148 -0.0265,-0.1855 -0.0219,-0.1924 0.06744,-0.371 -0.636042,-0.371 z m 1.5106,0 c -0.70348,0 -0.614158,0.1786 -0.636042,0.371 -0.0071,0.063 -0.02721,0.2108 -0.0265,0.371 6.84e-4,0.1603 0.01942,0.335 0.0265,0.3976 0.02191,0.1924 -0.06744,0.371 0.636042,0.371 0.70349,0 0.64066,-0.1786 0.662544,-0.371 0.0071,-0.063 -6.61e-4,-0.2373 0,-0.3976 6.84e-4,-0.1602 0.0071,-0.3083 0,-0.371 -0.0219,-0.1924 0.04095,-0.371 -0.662544,-0.371 z m 6.413428,0 c -0.70348,0 -0.614158,0.1786 -0.636043,0.371 -0.0071,0.063 -0.02721,0.2108 -0.0265,0.371 6.83e-4,0.1603 0.01942,0.335 0.0265,0.3976 0.0219,0.1924 -0.06744,0.371 0.636043,0.371 0.703489,0 0.640661,-0.1786 0.662544,-0.371 0.0042,-0.036 -0.0023,-0.1286 0,-0.212 l -0.371025,0 c -0.0011,0.042 0.0014,0.094 0,0.106 -0.01095,0.096 -0.01412,0.1325 -0.291519,0.1325 -0.2774,0 -0.25408,-0.037 -0.265018,-0.1325 -0.0036,-0.031 -0.02684,-0.2114 -0.0265,-0.2916 3.42e-4,-0.08 0.02294,-0.2337 0.0265,-0.265 0.01095,-0.096 -0.01238,-0.159 0.265018,-0.159 0.277413,0 0.280582,0.063 0.291519,0.159 0.0015,0.013 -0.0011,0.034 0,0.08 l 0.371025,0 c -0.0025,-0.086 0.0042,-0.148 0,-0.1855 -0.02186,-0.1924 0.04095,-0.371 -0.662544,-0.371 z m -10.521202,0.027 c -0.174179,0 -0.291519,0.1439 -0.291519,0.318 l 0,1.4046 c 0,0.073 -0.05947,0.1325 -0.132509,0.1325 l -1.325088,0 c -0.511199,0 -0.927562,0.4164 -0.927562,0.9276 l 0,3.5247 c 0,0.5111 0.416363,0.9276 0.927562,0.9276 l 2.305653,0 0.583039,0 c 0.17418,0 0.29152,-0.1439 0.29152,-0.318 l 0,-6.599 c 0,-0.1742 -0.11734,-0.318 -0.29152,-0.318 l -1.139576,0 z m 5.008834,0 0,1.4576 0.371025,0 0,-1.0866 0.371025,1.0866 0.371025,0 0.371024,-1.0866 0,1.0866 0.371025,0 0,-1.4576 -0.556537,0 -0.371025,1.0866 -0.371025,-1.0866 -0.556537,0 z m 2.146643,0 0,1.4576 0.371025,0 0,-0.3445 0.238516,0 c 0.703493,0 0.618284,-0.1782 0.636042,-0.3711 0.0031,-0.033 0.02652,-0.1397 0.0265,-0.1855 0,-0.056 -0.02345,-0.1626 -0.0265,-0.1855 -0.02589,-0.1919 0.06745,-0.371 -0.636042,-0.371 l -0.609541,0 z m 1.669612,0 -0.424029,1.4576 0.371025,0 0.106007,-0.318 0.477032,0 0.07951,0.318 0.371025,0 -0.424028,-1.4576 -0.556537,0 z m 2.438162,0 0,0.371 0.344523,0 0,1.0866 0.371025,0 0,-1.0866 0.344523,0 0,-0.371 -1.060071,0 z m -7.155477,0.2915 c 0.277413,0 0.280583,0.063 0.29152,0.159 0.0036,0.031 -3.4e-4,0.1849 0,0.265 3.41e-4,0.08 0.0036,0.2603 0,0.2916 -0.01095,0.096 -0.01412,0.1325 -0.29152,0.1325 -0.2774,0 -0.25408,-0.037 -0.265017,-0.1325 -0.0036,-0.031 -3.4e-4,-0.2114 0,-0.2916 3.54e-4,-0.08 -0.0036,-0.2337 0,-0.265 0.01095,-0.096 -0.01238,-0.159 0.265017,-0.159 z m -3.975265,0.027 0.874559,0 c 0.073,0 0.132508,0.06 0.132508,0.1325 l 0,6.3339 c 0,0.073 -0.05952,0.1326 -0.132508,0.1326 l -0.450531,0 -2.305653,0 c -0.335336,0 -0.609541,-0.2743 -0.609541,-0.6096 l 0,-3.5247 c 0,-0.3354 0.274206,-0.6096 0.609541,-0.6096 l 1.431095,0 c 0.17418,0 0.318021,-0.1438 0.318021,-0.318 l 0,-1.4046 c 0,-0.073 0.05951,-0.1325 0.132509,-0.1325 z m 8.984099,0 0.159011,0.5831 -0.344523,0 0.185512,-0.5831 z m -1.590106,0.026 0.238516,0 c 0.277362,0 0.254069,0.036 0.265018,0.1325 0.0036,0.031 -3.42e-4,-2e-4 0,0.08 3.39e-4,0.077 0.0036,0.048 0,0.08 -0.01095,0.096 0.01238,0.159 -0.265018,0.159 l -0.238516,0 0,-0.4505 z m -5.326855,1.5106 c -0.17418,0 -0.318021,0.1438 -0.318021,0.318 l 0,4.7439 c 0,0.1741 0.143838,0.318 0.318021,0.318 l 0.556537,0 0.556537,0 c 0.17422,0 0.318021,-0.1439 0.318021,-0.318 l 0,-4.7439 c 0,-0.1742 -0.143801,-0.318 -0.318021,-0.318 l -1.113074,0 z m 2.835689,0 c -0.511158,0 -0.90106,0.4164 -0.90106,0.9276 l 0,1.5901 c 0,0.5112 0.389902,0.9275 0.90106,0.9275 l 1.272085,0 c 0.115599,0 0.212014,0.097 0.212014,0.2121 0,0.1156 -0.09642,0.1855 -0.212014,0.1855 l -1.881626,0 c -0.174193,0 -0.318021,0.1437 -0.318021,0.318 l 0,0.9011 c 0,0.1742 0.143838,0.318 0.318021,0.318 l 2.676679,-0.026 c 0.511158,0 0.927562,-0.3899 0.927562,-0.9011 l 0,-1.6166 c 0,-0.5111 -0.41639,-0.9011 -0.927562,-0.9011 l -1.272085,0 c -0.115546,0 -0.212014,-0.096 -0.212014,-0.212 0,-0.1156 0.09647,-0.212 0.212014,-0.212 l 0.927562,0 0.768551,0 c 0.174167,0 0.318021,-0.1438 0.318021,-0.318 l 0,-0.8746 c 0,-0.1742 -0.143788,-0.318 -0.318021,-0.318 l -2.491166,0 z m 4.34629,0 c -0.511212,0 -0.90106,0.4164 -0.90106,0.9276 l 0,3.5247 c 0,0.5111 0.389862,0.9276 0.90106,0.9276 l 2.014134,0 c 0.511198,0 0.927562,-0.4165 0.927562,-0.9276 l 0,-1.1131 c 0,-0.1741 -0.143788,-0.318 -0.318021,-0.318 l -1.007067,0 c -0.17418,0 -0.318022,0.1439 -0.318022,0.318 l 0,0.6096 c 0,0.1913 -0.100253,0.3444 -0.291519,0.3445 -0.191307,0 -0.265018,-0.1532 -0.265018,-0.3445 l 0,-2.4647 c 0,-0.1912 0.07372,-0.3445 0.265018,-0.3445 0.191253,0 0.291519,0.1533 0.291519,0.3445 l 0,0.5831 c 0,0.1741 0.143828,0.318 0.318022,0.318 l 0.477031,0 0.530036,0 c 0.174233,0 0.318021,-0.1439 0.318021,-0.318 l 0,-1.1396 c 0,-0.5112 -0.41635,-0.9276 -0.927562,-0.9276 l -2.014134,0 z m -1.987633,0.2915 c 0.073,0 0.132509,0.06 0.132509,0.1325 l 0,0.6361 c 0,0.073 -0.05945,0.1325 -0.132509,0.1325 l -0.636042,0 -0.927562,0 c -0.287438,0 -0.530035,0.2425 -0.530035,0.53 1.2e-5,0.2875 0.242597,0.5301 0.530035,0.5301 l 1.272085,0 c 0.335296,0 0.609541,0.2478 0.609541,0.583 l 0,1.6166 c 0,0.3353 -0.274245,0.6096 -0.609541,0.6096 l -2.54417,0 c -0.073,0 -0.132509,-0.06 -0.132509,-0.1326 l 0,-0.6095 c 0,-0.073 0.05951,-0.1325 0.132509,-0.1325 l 1.749117,-0.026 c 0.287492,0 0.503533,-0.216 0.503533,-0.5035 1.4e-5,-0.2875 -0.216041,-0.5301 -0.503533,-0.5301 l -1.272085,0 c -0.335296,0 -0.583039,-0.2742 -0.583039,-0.6095 l 0,-1.5901 c 0,-0.3353 0.247743,-0.6096 0.583039,-0.6096 l 2.358657,-0.027 z m -5.061837,0.027 0.848056,0 c 0.07304,0 0.132509,0.06 0.132509,0.1325 l 0,4.4788 c 0,0.073 -0.05949,0.1326 -0.132509,0.1326 l -0.424028,0 -0.424028,0 c -0.07307,0 -0.132509,-0.06 -0.132509,-0.1326 l 0,-4.4788 c 0,-0.073 0.05947,-0.1325 0.132509,-0.1325 z m 7.04947,0 2.014134,0 c 0.33535,0 0.609541,0.2743 0.609541,0.6096 l 0,1.007 c 0,0.073 -0.05947,0.1326 -0.132509,0.1326 l -0.397527,0 -0.344523,0 c -0.073,0 -0.132508,-0.06 -0.132508,-0.1326 l 0,-0.4505 c 0,-0.3651 -0.244422,-0.6625 -0.609541,-0.6625 -0.365146,0 -0.583039,0.2974 -0.583039,0.6625 l 0,2.4647 c 0,0.3652 0.217894,0.6625 0.583039,0.6625 0.365105,0 0.609541,-0.2973 0.609541,-0.6625 l 0,-0.477 c 0,-0.073 0.05951,-0.1326 0.132508,-0.1326 l 0.74205,0 c 0.07304,0 0.132509,0.06 0.132509,0.1326 l 0,0.9805 c 0,0.3353 -0.274191,0.6096 -0.609541,0.6096 l -2.014134,0 c -0.33535,0 -0.583039,-0.2743 -0.583039,-0.6096 l 0,-3.5247 c 0,-0.3353 0.247689,-0.6096 0.583039,-0.6096 z m -10.017668,0.5036 c -0.365094,0 -0.662544,0.2974 -0.662544,0.6625 l 0,2.4647 c 0,0.3652 0.297451,0.6625 0.662544,0.6625 0.365158,0 0.636042,-0.2973 0.636042,-0.6625 l 0,-0.1855 0,-2.2792 c 0,-0.3651 -0.270883,-0.6625 -0.636042,-0.6625 z m 0,0.318 c 0.191307,0 0.344523,0.1533 0.344523,0.3445 l 0,2.2792 0,0.1855 c 0,0.1912 -0.153216,0.3445 -0.344523,0.3445 -0.191253,0 -0.371025,-0.1533 -0.371025,-0.3445 l 0,-2.4647 c 0,-0.1912 0.179784,-0.3445 0.371025,-0.3445 z"
         style="fill:#969696;fill-opacity:1" />
    </g>
  </g>
</svg>
