<?xml version="1.0" encoding="UTF-8" standalone="no"?>
<!-- Created with Inkscape (http://www.inkscape.org/) -->

<svg
   xmlns:dc="http://purl.org/dc/elements/1.1/"
   xmlns:cc="http://creativecommons.org/ns#"
   xmlns:rdf="http://www.w3.org/1999/02/22-rdf-syntax-ns#"
   xmlns:svg="http://www.w3.org/2000/svg"
   xmlns="http://www.w3.org/2000/svg"
   xmlns:xlink="http://www.w3.org/1999/xlink"
   xmlns:sodipodi="http://sodipodi.sourceforge.net/DTD/sodipodi-0.dtd"
   xmlns:inkscape="http://www.inkscape.org/namespaces/inkscape"
   width="48"
   height="48"
   id="svg2"
   version="1.1"
   inkscape:version="0.47pre4 r22446"
   sodipodi:docname="folder-torrent.svg">
  <defs
     id="defs4">
    <linearGradient
       id="linearGradient3723">
      <stop
         style="stop-color:#ffffff;stop-opacity:0.78431374;"
         offset="0"
         id="stop3725" />
      <stop
         style="stop-color:#ffffff;stop-opacity:0;"
         offset="1"
         id="stop3727" />
    </linearGradient>
    <linearGradient
       id="linearGradient3715">
      <stop
         style="stop-color:#99bbd4;stop-opacity:1;"
         offset="0"
         id="stop3717" />
      <stop
         style="stop-color:#5d93ba;stop-opacity:1;"
         offset="1"
         id="stop3719" />
    </linearGradient>
    <linearGradient
       id="linearGradient3707">
      <stop
         style="stop-color:#a6c4d9;stop-opacity:0.78431374;"
         offset="0"
         id="stop3709" />
      <stop
         style="stop-color:#75a3c3;stop-opacity:1;"
         offset="1"
         id="stop3711" />
    </linearGradient>
    <inkscape:perspective
       sodipodi:type="inkscape:persp3d"
       inkscape:vp_x="0 : 526.18109 : 1"
       inkscape:vp_y="0 : 1000 : 0"
       inkscape:vp_z="744.09448 : 526.18109 : 1"
       inkscape:persp3d-origin="372.04724 : 350.78739 : 1"
       id="perspective10" />
    <inkscape:perspective
       id="perspective2920"
       inkscape:persp3d-origin="0.5 : 0.33333333 : 1"
       inkscape:vp_z="1 : 0.5 : 1"
       inkscape:vp_y="0 : 1000 : 0"
       inkscape:vp_x="0 : 0.5 : 1"
       sodipodi:type="inkscape:persp3d" />
    <linearGradient
       inkscape:collect="always"
       xlink:href="#linearGradient3707"
       id="linearGradient3713"
       x1="63.765881"
       y1="949.3266"
       x2="63.765881"
       y2="1029.8864"
       gradientUnits="userSpaceOnUse"
       gradientTransform="translate(0.2341189,5.74082)" />
    <linearGradient
       inkscape:collect="always"
       xlink:href="#linearGradient3715"
       id="linearGradient3721"
       x1="63.765881"
       y1="936.95227"
       x2="63.765881"
       y2="983.41931"
       gradientUnits="userSpaceOnUse"
       gradientTransform="translate(0.2341196,6.0908086)" />
    <linearGradient
       inkscape:collect="always"
       xlink:href="#linearGradient3723"
       id="linearGradient3729"
       x1="37.375645"
       y1="948.8266"
       x2="37.375645"
       y2="1030.7611"
       gradientUnits="userSpaceOnUse"
       gradientTransform="translate(0.2341189,5.74082)" />
    <linearGradient
       inkscape:collect="always"
       xlink:href="#linearGradient3715"
       id="linearGradient3735"
       gradientUnits="userSpaceOnUse"
       gradientTransform="translate(0.2341196,6.0908086)"
       x1="63.765881"
       y1="936.95227"
       x2="63.765881"
       y2="983.41931" />
    <linearGradient
       inkscape:collect="always"
       xlink:href="#linearGradient3707"
       id="linearGradient3737"
       gradientUnits="userSpaceOnUse"
       gradientTransform="translate(0.2341189,5.74082)"
       x1="63.765881"
       y1="949.3266"
       x2="63.765881"
       y2="1029.8864" />
    <linearGradient
       inkscape:collect="always"
       xlink:href="#linearGradient3723"
       id="linearGradient3739"
       gradientUnits="userSpaceOnUse"
       gradientTransform="translate(0.2341189,5.74082)"
       x1="37.375645"
       y1="948.8266"
       x2="37.375645"
       y2="1030.7611" />
    <linearGradient
       inkscape:collect="always"
       xlink:href="#linearGradient3707"
       id="linearGradient3742"
       gradientUnits="userSpaceOnUse"
       gradientTransform="matrix(1.0066488,0,0,1.0066488,0.21965498,-1.1089658)"
       x1="63.765881"
       y1="949.3266"
       x2="63.765881"
       y2="1029.8864" />
    <linearGradient
       inkscape:collect="always"
       xlink:href="#linearGradient3723"
       id="linearGradient3744"
       gradientUnits="userSpaceOnUse"
       gradientTransform="matrix(1.0066488,0,0,1.0066488,0.21965498,-1.1089658)"
       x1="37.375645"
       y1="948.8266"
       x2="37.375645"
       y2="1030.7611" />
    <linearGradient
       inkscape:collect="always"
       xlink:href="#linearGradient3715"
       id="linearGradient3747"
       gradientUnits="userSpaceOnUse"
       gradientTransform="matrix(1.0066488,0,0,1.0066488,0.21965567,-0.75665045)"
       x1="63.765881"
       y1="936.95227"
       x2="63.765881"
       y2="983.41931" />
    <linearGradient
       inkscape:collect="always"
       xlink:href="#linearGradient3715"
       id="linearGradient3753"
       gradientUnits="userSpaceOnUse"
       gradientTransform="matrix(1.0066488,0,0,1.0066488,0.21965567,-0.75665045)"
       x1="63.765881"
       y1="936.95227"
       x2="63.765881"
       y2="983.41931" />
    <linearGradient
       inkscape:collect="always"
       xlink:href="#linearGradient3707"
       id="linearGradient3755"
       gradientUnits="userSpaceOnUse"
       gradientTransform="matrix(1.0066488,0,0,1.0066488,0.21965498,-1.1089658)"
       x1="63.765881"
       y1="949.3266"
       x2="63.765881"
       y2="1029.8864" />
    <linearGradient
       inkscape:collect="always"
       xlink:href="#linearGradient3723"
       id="linearGradient3757"
       gradientUnits="userSpaceOnUse"
       gradientTransform="matrix(1.0066488,0,0,1.0066488,0.21965498,-1.1089658)"
       x1="37.375645"
       y1="948.8266"
       x2="37.375645"
       y2="1030.7611" />
    <linearGradient
       inkscape:collect="always"
       xlink:href="#linearGradient3707"
       id="linearGradient2838"
       gradientUnits="userSpaceOnUse"
       gradientTransform="matrix(0.37749331,0,0,0.37749331,-0.07119206,657.42489)"
       x1="63.765881"
       y1="949.3266"
       x2="63.765881"
       y2="1029.8864" />
    <linearGradient
       inkscape:collect="always"
       xlink:href="#linearGradient3723"
       id="linearGradient2840"
       gradientUnits="userSpaceOnUse"
       gradientTransform="matrix(0.37749331,0,0,0.37749331,-0.07119206,657.42489)"
       x1="37.375645"
       y1="948.8266"
       x2="37.375645"
       y2="1030.7611" />
    <linearGradient
       inkscape:collect="always"
       xlink:href="#linearGradient3715"
       id="linearGradient2843"
       gradientUnits="userSpaceOnUse"
       gradientTransform="matrix(0.37749331,0,0,0.37749331,-0.0711918,657.55701)"
       x1="63.765881"
       y1="941.44623"
       x2="63.765881"
       y2="965.56183" />
    <linearGradient
       y2="759.66351"
       x2="-725.70044"
       y1="727.84369"
       x1="-693.88062"
       gradientTransform="matrix(0.45418121,-0.78666494,0.78666494,0.45418121,-238.69585,-872.7175)"
       gradientUnits="userSpaceOnUse"
       id="linearGradient3616"
       xlink:href="#linearGradient3612"
       inkscape:collect="always" />
    <linearGradient
       y2="759.66351"
       x2="-725.70044"
       y1="727.84369"
       x1="-693.88062"
       gradientTransform="matrix(0.74800793,0,0,0.74800793,-347.1737,-21.630086)"
       gradientUnits="userSpaceOnUse"
       id="linearGradient2841"
       xlink:href="#linearGradient3590"
       inkscape:collect="always" />
    <linearGradient
       y2="759.66351"
       x2="-725.70044"
       y1="727.84369"
       x1="-693.88062"
       gradientTransform="matrix(0.45418121,-0.78666494,0.78666494,0.45418121,-238.69585,-872.7175)"
       gradientUnits="userSpaceOnUse"
       id="linearGradient2837"
       xlink:href="#linearGradient3590"
       inkscape:collect="always" />
    <linearGradient
       gradientUnits="userSpaceOnUse"
       y2="42.8615"
       x2="29.988071"
       y1="3.6194866"
       x1="19.473206"
       id="linearGradient3619"
       xlink:href="#linearGradient3612"
       inkscape:collect="always" />
    <filter
       id="filter3664"
       inkscape:collect="always">
      <feGaussianBlur
         id="feGaussianBlur3666"
         stdDeviation="0.43653281"
         inkscape:collect="always" />
    </filter>
    <linearGradient
       gradientTransform="translate(-168.31207,-209.0501)"
       y2="759.66351"
       x2="-725.70044"
       y1="727.84369"
       x1="-693.88062"
       gradientUnits="userSpaceOnUse"
       id="linearGradient3654"
       xlink:href="#linearGradient3590"
       inkscape:collect="always" />
    <linearGradient
       y2="1044.5184"
       x2="23.251062"
       y1="1012.1823"
       x1="23.246004"
       gradientTransform="matrix(0.8067683,-0.21617292,0.21617292,0.8067683,-216.90302,203.71746)"
       gradientUnits="userSpaceOnUse"
       id="linearGradient3649"
       xlink:href="#linearGradient3612"
       inkscape:collect="always" />
    <linearGradient
       y2="1044.5184"
       x2="23.251062"
       y1="1012.1823"
       x1="23.246004"
       gradientTransform="translate(0.76447101,0)"
       gradientUnits="userSpaceOnUse"
       id="linearGradient3646"
       xlink:href="#linearGradient3612"
       inkscape:collect="always" />
    <linearGradient
       y2="759.66351"
       x2="-725.70044"
       y1="727.84369"
       x1="-693.88062"
       gradientUnits="userSpaceOnUse"
       id="linearGradient3644"
       xlink:href="#linearGradient3590"
       inkscape:collect="always" />
    <linearGradient
       y2="1044.5184"
       x2="23.251062"
       y1="1012.1823"
       x1="23.246004"
       gradientTransform="translate(0.76447101,0)"
       gradientUnits="userSpaceOnUse"
       id="linearGradient3628"
       xlink:href="#linearGradient3612"
       inkscape:collect="always" />
    <linearGradient
       gradientUnits="userSpaceOnUse"
       y2="759.66351"
       x2="-725.70044"
       y1="727.84369"
       x1="-693.88062"
       id="linearGradient3596"
       xlink:href="#linearGradient3590"
       inkscape:collect="always" />
    <inkscape:perspective
       id="perspective10-9"
       inkscape:persp3d-origin="372.04724 : 350.78739 : 1"
       inkscape:vp_z="744.09448 : 526.18109 : 1"
       inkscape:vp_y="0 : 1000 : 0"
       inkscape:vp_x="0 : 526.18109 : 1"
       sodipodi:type="inkscape:persp3d" />
    <linearGradient
       id="linearGradient3590">
      <stop
         id="stop3592"
         offset="0"
         style="stop-color:#9cc430;stop-opacity:1;" />
      <stop
         id="stop3594"
         offset="1"
         style="stop-color:#619508;stop-opacity:1;" />
    </linearGradient>
    <linearGradient
       id="linearGradient3612">
      <stop
         id="stop3614"
         offset="0"
         style="stop-color:#ffffff;stop-opacity:1;" />
      <stop
         id="stop3616"
         offset="1"
         style="stop-color:#dcdcdc;stop-opacity:1;" />
    </linearGradient>
  </defs>
  <sodipodi:namedview
     id="base"
     pagecolor="#ffffff"
     bordercolor="#666666"
     borderopacity="1.0"
     inkscape:pageopacity="0.0"
     inkscape:pageshadow="2"
     inkscape:zoom="5.6"
     inkscape:cx="50.492637"
     inkscape:cy="29.669344"
     inkscape:document-units="px"
     inkscape:current-layer="layer1"
     showgrid="false"
     showguides="true"
     inkscape:guide-bbox="true"
     inkscape:window-width="1280"
     inkscape:window-height="714"
     inkscape:window-x="0"
     inkscape:window-y="25"
     inkscape:window-maximized="1" />
  <metadata
     id="metadata7">
    <rdf:RDF>
      <cc:Work
         rdf:about="">
        <dc:format>image/svg+xml</dc:format>
        <dc:type
           rdf:resource="http://purl.org/dc/dcmitype/StillImage" />
        <dc:title />
      </cc:Work>
    </rdf:RDF>
  </metadata>
  <g
     inkscape:label="Livello 1"
     inkscape:groupmode="layer"
     id="layer1"
     transform="translate(0,-1004.3622)">
    <path
       style="fill:url(#linearGradient2843);fill-opacity:1;stroke:none"
       d="m 4.6838842,1010.3922 12.4011988,0 c 0.620549,0 1.122295,-0.01 1.277932,0.5725 l 0.428971,1.2537 c 0.239398,0.6996 0.489455,1.2244 1.458454,1.2244 l 23.065676,0 c 0.627394,0 1.132481,0.5051 1.132481,1.1325 l 0,30.6244 c 0,0.6274 -0.505087,1.1325 -1.132481,1.1325 l -38.6322318,0 c -0.6273938,0 -1.1324802,-0.5051 -1.1324802,-1.1325 l 0,-33.675 c 0,-0.6274 0.5050864,-1.1325 1.1324802,-1.1325 z"
       id="rect3704"
       sodipodi:nodetypes="ccccccccccccc" />
    <path
       style="fill:url(#linearGradient2838);fill-opacity:1;fill-rule:evenodd;stroke:url(#linearGradient2840);stroke-width:0.2642453;stroke-miterlimit:4;stroke-dasharray:none"
       d="m 2.0146025,1015.7893 43.9707975,0 c 0.627394,0 1.132477,0.5051 1.132477,1.1325 l -2.02221,28.1458 c 0,0.6274 -0.505087,1.1324 -1.132481,1.1324 l -39.9262987,10e-5 c -0.6273942,0 -1.1324802,-0.5051 -1.1324802,-1.1325 l -2.02228444,-28.1458 c 0,-0.6274 0.50508604,-1.1325 1.13247984,-1.1325 z"
       id="rect2926"
       sodipodi:nodetypes="ccccccccc" />
    <g
       id="layer1-3"
       inkscape:label="Livello 1"
       transform="matrix(0.65575722,0,0,0.65575722,13.251648,360.51644)">
      <rect
         style="fill:#333333;fill-opacity:0.78431373;stroke:none;filter:url(#filter3664)"
         id="rect3656"
         width="33.420673"
         height="33.420673"
         x="-895.27692"
         y="518.26105"
         transform="matrix(0.5,-0.86602541,0.86602541,0.5,0,0)"
         rx="2.7388647"
         ry="2.7388647" />
      <rect
         ry="2.7388647"
         rx="2.7388647"
         transform="matrix(0.5,-0.86602541,0.86602541,0.5,0,0)"
         y="517.99316"
         x="-894.81293"
         height="33.420673"
         width="33.420673"
         id="rect2816"
         style="fill:url(#linearGradient3654);fill-opacity:1;stroke:none" />
      <path
         style="font-size:medium;font-style:normal;font-variant:normal;font-weight:normal;font-stretch:normal;text-indent:0;text-align:start;text-decoration:none;line-height:normal;letter-spacing:normal;word-spacing:normal;text-transform:none;direction:ltr;block-progression:tb;writing-mode:lr-tb;text-anchor:start;color:#000000;fill:#9dd144;fill-opacity:1;stroke:none;stroke-width:1;marker:none;visibility:visible;display:inline;overflow:visible;enable-background:accumulate;font-family:'A.C.M.E. Secret Agent';-inkscape-font-specification:'A.C.M.E. Secret Agent'"
         d="m 20.736319,1015.5701 c -1.14e-4,0 -0.213299,0.1107 -0.213501,0.1108 -1.79e-4,1e-4 -0.02984,0.054 -0.03702,0.064 -0.01414,0.02 -0.03966,0.032 -0.04372,0.038 -0.0081,0.014 -0.02188,0 -0.02521,0.01 -0.0075,0.016 0.0033,0.063 -0.0049,0.083 -0.01666,0.038 -0.04682,0.063 -0.07383,0.1278 -0.0542,0.1297 -0.117024,0.3228 -0.206153,0.5417 -0.178256,0.4377 -0.416425,1.0237 -0.650413,1.6064 -0.234009,0.5827 -0.449763,1.1608 -0.625223,1.5997 -0.08772,0.2194 -0.179753,0.4191 -0.231364,0.5484 -0.05161,0.1292 -0.09349,0.2046 -0.08553,0.185 0.008,-0.019 -6.75e-4,0.074 -0.05355,0.2035 -0.05288,0.1291 -0.148499,0.304 -0.23813,0.5231 -0.179287,0.4384 -0.41333,1.0244 -0.650413,1.6065 -0.237106,0.5822 -0.474483,1.1683 -0.650435,1.6064 -0.08799,0.219 -0.18056,0.4183 -0.231364,0.5484 -0.02548,0.065 -0.0277,0.1081 -0.04184,0.1464 -0.0071,0.019 -0.0066,0.041 -0.01181,0.057 -0.0015,0.01 -0.0093,0.035 -0.01181,0.057 -0.0013,0.011 -0.01178,0.057 -0.01181,0.057 3.2e-5,3e-4 0.104388,0.1881 0.104467,0.1882 5.6e-5,-10e-5 0.203246,0.053 0.203501,0.053 2.34e-4,-10e-5 0.06872,0.01 0.08234,0.01 0.0281,0 0.0225,0.02 0.03191,0.018 0.01839,-0.01 0.04036,-0.012 0.05042,-0.013 0.01988,-0.01 0.05157,-0.014 0.07564,-0.02 0.04786,-0.013 0.09484,-0.026 0.17648,-0.048 0.162897,-0.043 0.405864,-0.1094 0.680711,-0.1824 l 2.01692,-0.5405 0.680711,-0.1823 2.4995,9.3282 -0.680711,0.1824 -2.016921,0.5404 c -0.274587,0.074 -0.517814,0.1387 -0.68071,0.1824 -0.08128,0.023 -0.128623,0.034 -0.176481,0.048 -0.02379,0.01 -0.05576,0.015 -0.07564,0.02 -0.0098,0 -0.03203,0.01 -0.05042,0.013 -0.0092,0 0.0053,0.017 -0.01851,0.032 -0.01296,0 -0.0687,0.045 -0.06893,0.045 -2.12e-4,10e-5 -0.149423,0.148 -0.149459,0.1481 -3.5e-5,1e-4 -0.0033,0.1897 -0.0032,0.19 3.3e-5,-10e-5 0.03906,0.06 0.04554,0.069 0.01307,0.018 0.02612,0.011 0.03191,0.018 0.01007,0.01 1.03e-4,0.018 0.0067,0.025 0.01257,0.012 0.01619,0.01 0.03191,0.018 0.03142,0.026 0.06172,0.088 0.116167,0.1311 0.109045,0.087 0.288861,0.2135 0.474559,0.3592 0.371416,0.2914 0.863337,0.6551 1.359741,1.0408 0.496404,0.3856 0.992103,0.7761 1.366507,1.066 0.187212,0.145 0.364242,0.2738 0.474558,0.3592 0.110228,0.085 0.158038,0.1371 0.141379,0.1243 -0.01666,-0.013 0.06396,0.056 0.173334,0.1426 0.109327,0.086 0.28887,0.2131 0.47456,0.3593 0.371354,0.2922 0.847316,0.6852 1.341295,1.0727 0.493979,0.3876 0.993242,0.7761 1.366486,1.066 0.186623,0.145 0.337602,0.2808 0.449347,0.366 0.05597,0.043 0.09436,0.049 0.127867,0.073 0.01687,0.013 0.02417,0.033 0.03861,0.043 0.0077,0.01 0.01773,0.01 0.03191,0.018 0.0078,0.01 0.03477,0 0.05712,0.012 0.01128,0.01 0.05692,0.012 0.05712,0.012 2.02e-4,0 0.240192,-0.011 0.240306,-0.011 1.15e-4,0 0.238511,-0.1175 0.238713,-0.1176 -1.5e-5,0 0.03676,-0.028 0.04372,-0.038 0.01328,-0.023 -0.01011,-0.016 -0.0067,-0.025 0.0084,-0.013 0.01519,-0.022 0.01851,-0.032 0.0075,-0.016 0.0033,-0.038 0.01181,-0.057 0.01665,-0.038 0.07182,-0.07 0.09903,-0.1347 0.0542,-0.1296 0.117025,-0.3227 0.206153,-0.5416 0.178256,-0.4377 0.416425,-1.0237 0.650435,-1.6064 0.234009,-0.5827 0.474953,-1.1676 0.650413,-1.6065 0.08772,-0.2194 0.129333,-0.4056 0.180941,-0.5349 0.05158,-0.1292 0.112004,-0.2363 0.103992,-0.2169 -0.008,0.019 0.03258,-0.056 0.08552,-0.1851 0.05286,-0.129 0.141732,-0.3291 0.231364,-0.5484 0.179287,-0.4382 0.413331,-1.0242 0.650414,-1.6064 0.237083,-0.5822 0.481227,-1.1431 0.657179,-1.5812 0.08799,-0.219 0.130133,-0.4048 0.180941,-0.5349 0.02548,-0.064 0.04619,-0.1399 0.06031,-0.1782 0.0071,-0.019 0.0133,-0.016 0.01851,-0.032 0.0023,-0.01 0.01471,-0.017 0.01851,-0.032 0.0015,-0.01 0.01538,-0.013 0.01851,-0.032 0.0013,-0.011 -0.02035,-0.076 -0.02032,-0.076 -3.2e-5,-3e-4 -0.09762,-0.1629 -0.0977,-0.163 -7.9e-5,-10e-5 -0.228458,-0.047 -0.228713,-0.047 -2.34e-4,0 -0.04416,-0.015 -0.05712,-0.012 -0.0281,0 -0.04793,-0.014 -0.05712,-0.012 -0.01841,0.01 -0.01514,0.01 -0.02521,0.01 -0.01988,0.01 -0.02637,0.01 -0.05042,0.013 -0.04786,0.012 -0.120072,0.032 -0.201693,0.054 -0.162895,0.043 -0.405864,0.1093 -0.68071,0.1825 l -1.991709,0.5336 -0.731134,0.1959 -2.499499,-9.3282 0.731134,-0.196 1.991708,-0.5337 c 0.274587,-0.074 0.517816,-0.1387 0.680711,-0.1823 0.08125,-0.023 0.153834,-0.041 0.201693,-0.054 0.02379,-0.01 0.03054,-0.01 0.05042,-0.013 0.0098,0 0.0068,0 0.02521,-0.01 0.0092,0 0.01909,-0.027 0.04372,-0.038 0.01296,0 0.04349,-0.038 0.04372,-0.038 2.12e-4,-2e-4 0.174614,-0.155 0.17467,-0.155 3.6e-5,-10e-5 -0.0035,-0.215 -0.0036,-0.2151 -7.6e-5,-2e-4 -0.0072,-0.043 -0.0134,-0.05 -0.01285,-0.018 -0.03305,-0.037 -0.03861,-0.043 -0.01072,-0.011 -0.01861,0.013 -0.02522,0.01 -0.01256,-0.012 -0.02312,-0.031 -0.03861,-0.043 -0.03142,-0.026 -0.08011,-0.055 -0.134634,-0.099 -0.109045,-0.087 -0.238439,-0.227 -0.424135,-0.3727 -0.371416,-0.2914 -0.870103,-0.6804 -1.366487,-1.066 -0.496404,-0.3856 -0.992103,-0.7761 -1.366507,-1.066 -0.187213,-0.145 -0.357498,-0.2487 -0.467792,-0.334 -0.110295,-0.085 -0.19008,-0.1558 -0.173357,-0.1427 0.01666,0.012 -0.08248,-0.024 -0.191801,-0.1108 -0.109326,-0.086 -0.238447,-0.2265 -0.424135,-0.3727 -0.371357,-0.2923 -0.872508,-0.6784 -1.366487,-1.066 -0.493999,-0.3876 -0.993263,-0.7761 -1.366507,-1.066 -0.186622,-0.145 -0.337602,-0.2809 -0.449347,-0.366 -0.05575,-0.043 -0.119566,-0.043 -0.153079,-0.067 -0.01665,-0.012 -0.03108,-0.059 -0.04553,-0.069 -0.0077,-0.01 -0.01123,0.014 -0.02522,0.01 -0.0078,-0.01 0.01609,-0.013 -0.0067,-0.025 -0.01128,-0.01 -0.06363,-0.037 -0.06383,-0.037 -2.45e-4,0 -0.265404,0.018 -0.265519,0.018 z"
         id="path3634" />
      <path
         style="font-size:medium;font-style:normal;font-variant:normal;font-weight:normal;font-stretch:normal;text-indent:0;text-align:start;text-decoration:none;line-height:normal;letter-spacing:normal;word-spacing:normal;text-transform:none;direction:ltr;block-progression:tb;writing-mode:lr-tb;text-anchor:start;color:#000000;fill:#255900;fill-opacity:1;stroke:none;stroke-width:1;marker:none;visibility:visible;display:inline;overflow:visible;enable-background:accumulate;font-family:'A.C.M.E. Secret Agent';-inkscape-font-specification:'A.C.M.E. Secret Agent'"
         d="m 20.581886,1014.9937 c -1.15e-4,10e-5 -0.213299,0.1108 -0.213501,0.1108 -1.81e-4,2e-4 -0.02984,0.053 -0.03702,0.063 -0.01414,0.02 -0.03966,0.032 -0.04372,0.038 -0.0081,0.014 -0.02188,0 -0.02522,0.01 -0.0075,0.016 0.0033,0.063 -0.0049,0.083 -0.01666,0.038 -0.04682,0.063 -0.07383,0.1278 -0.0542,0.1297 -0.117025,0.3228 -0.206153,0.5416 -0.178256,0.4377 -0.416425,1.0238 -0.650413,1.6065 -0.23401,0.5826 -0.449763,1.1609 -0.625223,1.5996 -0.08772,0.2195 -0.179753,0.4191 -0.231364,0.5484 -0.05161,0.1293 -0.09349,0.2046 -0.08553,0.1851 0.008,-0.019 -6.75e-4,0.074 -0.05355,0.2035 -0.05288,0.129 -0.148499,0.304 -0.23813,0.5231 -0.179288,0.4383 -0.413331,1.0244 -0.650414,1.6065 -0.237105,0.5821 -0.474482,1.1683 -0.650435,1.6064 -0.08799,0.219 -0.180559,0.4183 -0.231364,0.5483 -0.02547,0.065 -0.0277,0.1081 -0.04184,0.1465 -0.0071,0.019 -0.0066,0.041 -0.01181,0.057 -0.0015,0.01 -0.0093,0.035 -0.01181,0.057 -0.0013,0.011 -0.01178,0.057 -0.01181,0.057 3.2e-5,3e-4 0.104388,0.1881 0.104466,0.1882 5.8e-5,0 0.203247,0.053 0.203502,0.053 2.34e-4,-10e-5 0.06872,0.01 0.08234,0.01 0.0281,0 0.0225,0.02 0.03191,0.018 0.01839,-0.01 0.04036,-0.012 0.05042,-0.013 0.01988,-0.01 0.05157,-0.014 0.07564,-0.02 0.04786,-0.012 0.09484,-0.026 0.176481,-0.048 0.162897,-0.043 0.405864,-0.1093 0.68071,-0.1824 l 2.016921,-0.5404 0.680711,-0.1824 2.499499,9.3282 -0.68071,0.1824 -2.016921,0.5404 c -0.274587,0.074 -0.517814,0.1388 -0.68071,0.1824 -0.08128,0.023 -0.128624,0.034 -0.176481,0.048 -0.02379,0.01 -0.05576,0.015 -0.07564,0.02 -0.0098,0 -0.03203,0.01 -0.05042,0.013 -0.0092,0 0.0053,0.017 -0.01851,0.032 -0.01296,0 -0.0687,0.045 -0.06893,0.045 -2.13e-4,2e-4 -0.149424,0.1481 -0.149459,0.1482 -3.5e-5,0 -0.0033,0.1896 -0.0032,0.1899 3.3e-5,0 0.03906,0.06 0.04553,0.069 0.01307,0.018 0.02612,0.011 0.03191,0.018 0.01007,0.01 1.02e-4,0.018 0.0067,0.025 0.01257,0.012 0.0162,0.01 0.03192,0.018 0.03142,0.026 0.06172,0.088 0.116166,0.131 0.109045,0.087 0.288861,0.2136 0.474559,0.3592 0.371415,0.2914 0.863336,0.6552 1.359741,1.0408 0.496405,0.3856 0.992103,0.7761 1.366508,1.0661 0.187212,0.145 0.364242,0.2739 0.474558,0.3592 0.110228,0.085 0.158038,0.1371 0.141378,0.1242 -0.01665,-0.012 0.06396,0.056 0.173335,0.1427 0.109326,0.086 0.28887,0.213 0.474558,0.3592 0.371356,0.2923 0.847317,0.6852 1.341296,1.0728 0.493979,0.3876 0.993243,0.776 1.366487,1.066 0.186621,0.145 0.337601,0.2808 0.449347,0.366 0.05597,0.043 0.09435,0.049 0.127867,0.073 0.01687,0.013 0.02417,0.033 0.03861,0.043 0.0077,0.01 0.01773,0.01 0.03191,0.018 0.0078,0.01 0.03477,0 0.05712,0.012 0.01128,0.01 0.05692,0.012 0.05712,0.012 2.02e-4,-10e-5 0.240192,-0.011 0.240306,-0.011 1.15e-4,-10e-5 0.238511,-0.1176 0.238713,-0.1176 -1.5e-5,-8e-4 0.03676,-0.028 0.04372,-0.038 0.01328,-0.023 -0.01011,-0.016 -0.0067,-0.025 0.0084,-0.013 0.01518,-0.023 0.01851,-0.032 0.0075,-0.016 0.0033,-0.038 0.01181,-0.057 0.01665,-0.038 0.07182,-0.07 0.09904,-0.1346 0.0542,-0.1297 0.117024,-0.3228 0.206152,-0.5416 0.178257,-0.4378 0.416426,-1.0238 0.650435,-1.6064 0.234009,-0.5827 0.474953,-1.1677 0.650413,-1.6065 0.08772,-0.2195 0.129333,-0.4057 0.180941,-0.5349 0.05158,-0.1293 0.112004,-0.2364 0.103992,-0.217 -0.008,0.019 0.03258,-0.056 0.08552,-0.185 0.05285,-0.1291 0.141732,-0.3292 0.231364,-0.5484 0.179287,-0.4382 0.413329,-1.0243 0.650413,-1.6064 0.237084,-0.5822 0.481227,-1.1432 0.65718,-1.5813 0.08799,-0.219 0.130133,-0.4048 0.18094,-0.5348 0.02548,-0.065 0.04619,-0.14 0.06031,-0.1783 0.0071,-0.019 0.0133,-0.016 0.01851,-0.032 0.0023,-0.01 0.01471,-0.017 0.01851,-0.032 0.0015,-0.01 0.01538,-0.012 0.01851,-0.032 0.0013,-0.011 -0.02035,-0.076 -0.02032,-0.076 -3.2e-5,-3e-4 -0.09762,-0.1629 -0.0977,-0.163 -7.8e-5,0 -0.228457,-0.047 -0.228713,-0.047 -2.34e-4,10e-5 -0.04416,-0.015 -0.05712,-0.012 -0.0281,0 -0.04792,-0.014 -0.05712,-0.012 -0.01841,0.01 -0.01514,0.01 -0.02522,0.01 -0.01988,0.01 -0.02637,0.01 -0.05042,0.013 -0.04786,0.013 -0.120073,0.033 -0.201693,0.054 -0.162895,0.043 -0.405864,0.1093 -0.680711,0.1824 l -1.991709,0.5337 -0.731134,0.1958 -2.499499,-9.3282 0.731133,-0.1959 1.99171,-0.5337 c 0.274587,-0.074 0.517816,-0.1387 0.680711,-0.1824 0.08125,-0.022 0.153834,-0.041 0.201692,-0.054 0.02379,-0.01 0.03054,-0.01 0.05042,-0.013 0.0098,0 0.0068,0 0.02521,-0.01 0.0092,0 0.01909,-0.027 0.04373,-0.038 0.01296,0 0.04349,-0.038 0.04372,-0.038 2.12e-4,-2e-4 0.174613,-0.1549 0.17467,-0.1549 3.6e-5,-2e-4 -0.0035,-0.215 -0.0036,-0.2152 -7.5e-5,-2e-4 -0.0072,-0.043 -0.01341,-0.05 -0.01285,-0.018 -0.03305,-0.037 -0.03861,-0.043 -0.01072,-0.011 -0.01861,0.013 -0.02521,0.01 -0.01257,-0.012 -0.02312,-0.031 -0.03861,-0.043 -0.03142,-0.026 -0.08011,-0.055 -0.134635,-0.099 -0.109044,-0.087 -0.238438,-0.2271 -0.424135,-0.3728 -0.371415,-0.2914 -0.870103,-0.6803 -1.366486,-1.0659 -0.496404,-0.3856 -0.992103,-0.7762 -1.366507,-1.0661 -0.187213,-0.145 -0.357498,-0.2486 -0.467792,-0.3339 -0.110296,-0.085 -0.19008,-0.1559 -0.173357,-0.1427 0.01666,0.013 -0.08248,-0.024 -0.191801,-0.1108 -0.109326,-0.086 -0.238447,-0.2266 -0.424135,-0.3728 -0.371357,-0.2923 -0.872508,-0.6783 -1.366486,-1.0659 -0.494,-0.3877 -0.993264,-0.7761 -1.366508,-1.0661 -0.186622,-0.145 -0.337602,-0.2808 -0.449347,-0.366 -0.05575,-0.042 -0.119566,-0.043 -0.153079,-0.067 -0.01665,-0.012 -0.03108,-0.059 -0.04553,-0.069 -0.0077,-0.01 -0.01123,0.014 -0.02521,0.01 -0.0078,-0.01 0.01609,-0.013 -0.0067,-0.025 -0.01128,-0.01 -0.06363,-0.037 -0.06383,-0.037 -2.45e-4,-10e-5 -0.265403,0.018 -0.265518,0.018 z"
         id="path3630" />
      <path
         id="path3606"
         d="m 20.659102,1015.2819 c -1.14e-4,0 -0.213299,0.1108 -0.213501,0.1108 -1.79e-4,10e-5 -0.02984,0.053 -0.03702,0.063 -0.01414,0.02 -0.03966,0.032 -0.04372,0.038 -0.0081,0.014 -0.02188,0 -0.02521,0.01 -0.0075,0.016 0.0033,0.064 -0.0049,0.083 -0.01666,0.038 -0.04682,0.063 -0.07383,0.1279 -0.0542,0.1296 -0.117025,0.3227 -0.206153,0.5416 -0.178256,0.4378 -0.416425,1.0238 -0.650413,1.6065 -0.23401,0.5826 -0.449763,1.1608 -0.625223,1.5996 -0.08772,0.2195 -0.179753,0.4192 -0.231364,0.5484 -0.05161,0.1293 -0.09349,0.2047 -0.08553,0.1851 0.008,-0.019 -6.75e-4,0.074 -0.05355,0.2035 -0.05288,0.129 -0.148499,0.3039 -0.23813,0.5231 -0.179287,0.4383 -0.41333,1.0243 -0.650413,1.6065 -0.237106,0.582 -0.474483,1.1683 -0.650436,1.6064 -0.08799,0.219 -0.180558,0.4183 -0.231363,0.5484 -0.02547,0.065 -0.0277,0.1081 -0.04184,0.1463 -0.0071,0.019 -0.0066,0.041 -0.01181,0.057 -0.0015,0.01 -0.0093,0.035 -0.01181,0.057 -0.0013,0.011 -0.01178,0.057 -0.01181,0.057 3.2e-5,3e-4 0.104388,0.1882 0.104466,0.1882 5.8e-5,0 0.203247,0.053 0.203502,0.053 2.34e-4,0 0.06872,0.01 0.08234,0.01 0.0281,0 0.0225,0.02 0.03191,0.018 0.01839,-0.01 0.04035,-0.012 0.05042,-0.013 0.01988,-0.01 0.05157,-0.014 0.07564,-0.02 0.04786,-0.013 0.09484,-0.026 0.176481,-0.048 0.162897,-0.043 0.405864,-0.1092 0.680711,-0.1823 l 2.01692,-0.5405 0.680711,-0.1824 2.499499,9.3283 -0.68071,0.1824 -2.016921,0.5405 c -0.274587,0.074 -0.517814,0.1387 -0.68071,0.1823 -0.08128,0.023 -0.128624,0.034 -0.176481,0.048 -0.02379,0.01 -0.05576,0.015 -0.07564,0.02 -0.0098,0 -0.03203,0.01 -0.05042,0.013 -0.0092,0 0.0053,0.017 -0.01851,0.032 -0.01296,0 -0.0687,0.045 -0.06893,0.045 -2.12e-4,2e-4 -0.149423,0.1481 -0.149459,0.1482 -3.5e-5,10e-5 -0.0033,0.1897 -0.0032,0.1899 3.3e-5,0 0.03906,0.06 0.04553,0.069 0.01307,0.018 0.02612,0.011 0.03191,0.018 0.01007,0.01 1.02e-4,0.018 0.0067,0.025 0.01258,0.012 0.0162,0.01 0.03192,0.018 0.03142,0.026 0.06172,0.088 0.116166,0.1309 0.109045,0.087 0.288861,0.2136 0.474559,0.3593 0.371415,0.2914 0.863337,0.6551 1.359742,1.0408 0.496404,0.3857 0.992103,0.7761 1.366507,1.066 0.187212,0.145 0.364242,0.2739 0.474558,0.3593 0.110228,0.085 0.158038,0.137 0.141378,0.1242 -0.01665,-0.013 0.06397,0.056 0.173335,0.1426 0.109326,0.086 0.28887,0.2131 0.474558,0.3593 0.371356,0.2923 0.847317,0.6852 1.341297,1.0728 0.493978,0.3875 0.993242,0.7759 1.366486,1.0659 0.186621,0.145 0.337601,0.2809 0.449347,0.366 0.05597,0.043 0.09435,0.049 0.127867,0.073 0.01687,0.013 0.02417,0.033 0.03861,0.043 0.0077,0.01 0.01773,0.01 0.03191,0.018 0.0078,0.01 0.03477,0 0.05712,0.012 0.01128,0.01 0.05692,0.012 0.05712,0.012 2.02e-4,-10e-5 0.240192,-0.011 0.240307,-0.011 1.14e-4,-10e-5 0.23851,-0.1176 0.238712,-0.1176 2.02e-4,-10e-5 0.03676,-0.028 0.04372,-0.038 0.01328,-0.023 -0.01011,-0.016 -0.0067,-0.025 0.0084,-0.013 0.01518,-0.023 0.01851,-0.032 0.0075,-0.016 0.0033,-0.038 0.01181,-0.057 0.01665,-0.038 0.07182,-0.07 0.09904,-0.1345 0.0542,-0.1296 0.117024,-0.3228 0.206153,-0.5417 0.178256,-0.4377 0.416425,-1.0237 0.650434,-1.6064 0.234008,-0.5826 0.474953,-1.1676 0.650413,-1.6064 0.08772,-0.2194 0.129333,-0.4056 0.180941,-0.5349 0.05158,-0.1293 0.112004,-0.2364 0.103992,-0.217 -0.008,0.019 0.03258,-0.056 0.08553,-0.185 0.05286,-0.1291 0.141731,-0.3293 0.231364,-0.5484 0.179287,-0.4383 0.41333,-1.0243 0.650413,-1.6065 0.237084,-0.5821 0.481227,-1.1431 0.65718,-1.5812 0.08799,-0.219 0.130133,-0.4048 0.18094,-0.5348 0.02548,-0.065 0.04619,-0.1399 0.06031,-0.1784 0.0071,-0.019 0.0133,-0.016 0.01851,-0.032 0.0023,-0.01 0.01471,-0.017 0.01851,-0.032 0.0015,-0.01 0.01538,-0.013 0.01851,-0.032 0.0013,-0.011 -0.02035,-0.076 -0.02032,-0.076 -3.3e-5,-2e-4 -0.09762,-0.1629 -0.0977,-0.1629 -7.9e-5,0 -0.228458,-0.047 -0.228714,-0.047 -2.34e-4,10e-5 -0.04416,-0.015 -0.05712,-0.012 -0.0281,0 -0.04793,-0.014 -0.05712,-0.012 -0.01841,0.01 -0.01514,0.01 -0.02522,0.01 -0.01988,0.01 -0.02637,0.01 -0.05042,0.013 -0.04786,0.013 -0.120072,0.033 -0.201692,0.054 -0.162895,0.043 -0.405864,0.1092 -0.680711,0.1823 l -1.991709,0.5337 -0.731133,0.196 -2.4995,-9.3284 0.731134,-0.1958 1.991709,-0.5337 c 0.274587,-0.074 0.517815,-0.1388 0.680711,-0.1824 0.08125,-0.023 0.153834,-0.041 0.201691,-0.054 0.0238,-0.01 0.03055,-0.01 0.05042,-0.013 0.0098,0 0.0068,0 0.02521,-0.01 0.0092,0 0.01909,-0.027 0.04373,-0.038 0.01296,0 0.04349,-0.038 0.04372,-0.038 2.12e-4,-10e-5 0.174612,-0.1548 0.17467,-0.1548 3.6e-5,-10e-5 -0.0035,-0.215 -0.0036,-0.2153 -7.6e-5,-10e-5 -0.0072,-0.043 -0.01341,-0.05 -0.01285,-0.017 -0.03305,-0.037 -0.03861,-0.043 -0.01072,-0.011 -0.0186,0.013 -0.02521,0.01 -0.01257,-0.012 -0.02312,-0.031 -0.03861,-0.043 -0.03142,-0.026 -0.08011,-0.055 -0.134634,-0.099 -0.109046,-0.087 -0.238439,-0.2271 -0.424135,-0.3727 -0.371416,-0.2914 -0.870104,-0.6804 -1.366487,-1.0659 -0.496404,-0.3857 -0.992103,-0.7761 -1.366507,-1.066 -0.187213,-0.1451 -0.357498,-0.2488 -0.467792,-0.334 -0.110296,-0.085 -0.19008,-0.1559 -0.173357,-0.1428 0.01666,0.013 -0.08248,-0.024 -0.191801,-0.1107 -0.109326,-0.086 -0.238447,-0.2266 -0.424135,-0.3728 -0.371357,-0.2922 -0.872508,-0.6784 -1.366487,-1.0659 -0.493999,-0.3877 -0.993263,-0.7761 -1.366507,-1.0661 -0.186622,-0.1449 -0.337602,-0.2808 -0.449347,-0.3659 -0.05575,-0.042 -0.119566,-0.043 -0.153079,-0.067 -0.01665,-0.012 -0.03108,-0.059 -0.04553,-0.069 -0.0077,-0.01 -0.01123,0.014 -0.02522,0.01 -0.0078,-0.01 0.01609,-0.012 -0.0067,-0.025 -0.01128,-0.01 -0.06363,-0.037 -0.06383,-0.037 -2.46e-4,-2e-4 -0.265404,0.017 -0.265519,0.017 z"
         style="font-size:medium;font-style:normal;font-variant:normal;font-weight:normal;font-stretch:normal;text-indent:0;text-align:start;text-decoration:none;line-height:normal;letter-spacing:normal;word-spacing:normal;text-transform:none;direction:ltr;block-progression:tb;writing-mode:lr-tb;text-anchor:start;color:#000000;fill:url(#linearGradient3649);fill-opacity:1;stroke:none;stroke-width:1;marker:none;visibility:visible;display:inline;overflow:visible;enable-background:accumulate;font-family:'A.C.M.E. Secret Agent';-inkscape-font-specification:'A.C.M.E. Secret Agent'" />
      <path
         style="fill:#9dd144;fill-opacity:1;stroke:none"
         d="m 19.1875,1008.3661 c -0.796046,0.056 -1.538035,0.5039 -1.96875,1.25 l -12.6875,21.9687 c -0.6891432,1.1937 -0.2873811,2.7171 0.90625,3.4063 l 21.96875,12.6875 c 1.193631,0.6891 2.717107,0.2874 3.40625,-0.9063 L 43.5,1024.8036 c 0.689143,-1.1937 0.287381,-2.7171 -0.90625,-3.4063 L 20.625,1008.7098 c -0.447612,-0.2584 -0.959872,-0.3771 -1.4375,-0.3437 z m 0.84375,3.5 c 0.393311,-0.028 0.818906,0.068 1.1875,0.2812 l 18.09375,10.4375 c 0.982918,0.5675 1.317488,1.8296 0.75,2.8125 l -10.4375,18.0938 c -0.567488,0.9829 -1.829582,1.3175 -2.8125,0.75 L 8.71875,1033.8036 c -0.9829177,-0.5675 -1.3174878,-1.8296 -0.75,-2.8125 l 10.4375,-18.0938 c 0.35468,-0.6143 0.969481,-0.9854 1.625,-1.0312 z"
         id="path3622" />
      <path
         style="fill:#255900;fill-opacity:1;stroke:none"
         d="m 19.1875,1007.6083 c -0.796046,0.056 -1.538035,0.504 -1.96875,1.25 l -12.6875,21.9688 c -0.6891432,1.1936 -0.2873811,2.7171 0.90625,3.4062 l 21.96875,12.6875 c 1.193631,0.6892 2.717107,0.2874 3.40625,-0.9062 L 43.5,1024.0458 c 0.689143,-1.1936 0.287381,-2.7171 -0.90625,-3.4062 L 20.625,1007.9521 c -0.447612,-0.2584 -0.959872,-0.3772 -1.4375,-0.3438 z m 0.84375,3.5 c 0.393311,-0.028 0.818906,0.068 1.1875,0.2813 l 18.09375,10.4375 c 0.982918,0.5675 1.317488,1.8296 0.75,2.8125 l -10.4375,18.0937 c -0.567488,0.9829 -1.829582,1.3175 -2.8125,0.75 L 8.71875,1033.0458 c -0.9829177,-0.5675 -1.3174878,-1.8296 -0.75,-2.8125 l 10.4375,-18.0937 c 0.35468,-0.6143 0.969481,-0.9854 1.625,-1.0313 z"
         id="path3618" />
      <path
         id="rect2835"
         transform="translate(0,1004.3622)"
         d="m 19.1875,3.625 c -0.796046,0.055648 -1.538035,0.5039806 -1.96875,1.25 L 4.53125,26.84375 C 3.8421068,28.037381 4.2438689,29.560857 5.4375,30.25 l 21.96875,12.6875 c 1.193631,0.689143 2.717107,0.287381 3.40625,-0.90625 L 43.5,20.0625 c 0.689143,-1.193631 0.287381,-2.717107 -0.90625,-3.40625 L 20.625,3.96875 C 20.177388,3.7103213 19.665128,3.5916115 19.1875,3.625 z m 0.84375,3.5 c 0.393311,-0.027494 0.818906,0.068442 1.1875,0.28125 l 18.09375,10.4375 c 0.982918,0.567488 1.317488,1.829582 0.75,2.8125 L 29.625,38.75 c -0.567488,0.982918 -1.829582,1.317488 -2.8125,0.75 L 8.71875,29.0625 C 7.7358323,28.495012 7.4012622,27.232918 7.96875,26.25 L 18.40625,8.15625 c 0.35468,-0.6143236 0.969481,-0.9854261 1.625,-1.03125 z"
         style="fill:url(#linearGradient3616);fill-opacity:1;stroke:none" />
    </g>
  </g>
</svg>
