<?xml version="1.0" encoding="UTF-8" standalone="no"?>
<!-- Created with Inkscape (http://www.inkscape.org/) -->

<svg
   xmlns:dc="http://purl.org/dc/elements/1.1/"
   xmlns:cc="http://creativecommons.org/ns#"
   xmlns:rdf="http://www.w3.org/1999/02/22-rdf-syntax-ns#"
   xmlns:svg="http://www.w3.org/2000/svg"
   xmlns="http://www.w3.org/2000/svg"
   xmlns:xlink="http://www.w3.org/1999/xlink"
   xmlns:sodipodi="http://sodipodi.sourceforge.net/DTD/sodipodi-0.dtd"
   xmlns:inkscape="http://www.inkscape.org/namespaces/inkscape"
   width="48"
   height="48"
   id="svg2"
   version="1.1"
   inkscape:version="0.47pre4 r22446"
   sodipodi:docname="jamendo.svg">
  <defs
     id="defs4">
    <linearGradient
       id="linearGradient3657">
      <stop
         style="stop-color:#5785a6;stop-opacity:1;"
         offset="0"
         id="stop3659" />
      <stop
         style="stop-color:#113f4c;stop-opacity:1;"
         offset="1"
         id="stop3661" />
    </linearGradient>
    <inkscape:perspective
       sodipodi:type="inkscape:persp3d"
       inkscape:vp_x="0 : 526.18109 : 1"
       inkscape:vp_y="0 : 1000 : 0"
       inkscape:vp_z="744.09448 : 526.18109 : 1"
       inkscape:persp3d-origin="372.04724 : 350.78739 : 1"
       id="perspective10" />
    <inkscape:perspective
       id="perspective2824"
       inkscape:persp3d-origin="0.5 : 0.33333333 : 1"
       inkscape:vp_z="1 : 0.5 : 1"
       inkscape:vp_y="0 : 1000 : 0"
       inkscape:vp_x="0 : 0.5 : 1"
       sodipodi:type="inkscape:persp3d" />
    <linearGradient
       inkscape:collect="always"
       xlink:href="#linearGradient3657"
       id="linearGradient3663"
       x1="26.5"
       y1="1.96875"
       x2="26.5"
       y2="44.96875"
       gradientUnits="userSpaceOnUse"
       gradientTransform="translate(-2.5,1004.8934)" />
  </defs>
  <sodipodi:namedview
     id="base"
     pagecolor="#ffffff"
     bordercolor="#666666"
     borderopacity="1.0"
     inkscape:pageopacity="0.0"
     inkscape:pageshadow="2"
     inkscape:zoom="4"
     inkscape:cx="18.927163"
     inkscape:cy="19.457324"
     inkscape:document-units="px"
     inkscape:current-layer="layer1"
     showgrid="false"
     inkscape:window-width="1280"
     inkscape:window-height="712"
     inkscape:window-x="0"
     inkscape:window-y="25"
     inkscape:window-maximized="1" />
  <metadata
     id="metadata7">
    <rdf:RDF>
      <cc:Work
         rdf:about="">
        <dc:format>image/svg+xml</dc:format>
        <dc:type
           rdf:resource="http://purl.org/dc/dcmitype/StillImage" />
      </cc:Work>
    </rdf:RDF>
  </metadata>
  <g
     inkscape:label="Livello 1"
     inkscape:groupmode="layer"
     id="layer1"
     transform="translate(0,-1004.3622)">
    <path
       style="fill:url(#linearGradient3663);fill-opacity:1;fill-rule:nonzero;stroke:none"
       d="m 5.5,1006.8622 c -1.662,0 -3,1.3379 -3,3 l 0,37 c 0,1.662 1.338,3 3,3 l 37,0 c 1.662,0 3,-1.338 3,-3 l 0,-32.0938 0,3.8125 -14.875,-1.5625 -0.09375,0 -0.0625,-0.031 c -1.114808,-0.2079 -1.468868,0.083 -1.71875,0.375 -0.249882,0.2921 -0.29622,0.7616 -0.21875,1 l 0,0.094 0,0.031 c 1.296641,4.8175 3.765286,9.341 7.4375,13.75 l 0,0.031 0.03125,0 c 1.330707,1.6891 1.594951,3.6574 1.3125,5.1875 -0.276063,1.4957 -0.934044,2.5765 -1.53125,3.3125 -0.01381,0.017 -0.01752,0.046 -0.03125,0.062 l -0.0625,-0.031 c -0.511252,0.6653 -0.915232,1.001 -1.5625,1.4062 -0.589148,0.3688 -1.303068,0.6861 -2.21875,0.8125 l 0.03125,0.062 c -0.115814,0.028 -0.147383,-0.018 -0.25,0 -0.0315,0 -0.03031,0.031 -0.0625,0.031 l 0,-0.031 c -0.624177,0.099 -1.077345,0.071 -1.6875,0.031 -0.732147,-0.048 -1.575387,-0.1218 -2.375,-0.2188 -0.386693,-0.047 -0.706377,-0.074 -1.0625,-0.125 -0.688008,0.586 -1.633783,0.8855 -2.59375,0.7188 l -6.1875,-1.0938 0.21875,-1.2812 -9.53125,-2.0313 -0.9375,0.2813 L 6,1038.1434 l -0.5,-1.0625 0.8125,-0.8437 1.78125,-0.625 0.8125,0.5312 9.65625,1.3125 0.25,-1.2812 6.1875,1.0937 c 1.042612,0.1812 1.855853,0.8635 2.28125,1.75 0.2509,0.032 0.454442,0.062 0.71875,0.094 0.754225,0.092 1.540016,0.21 2.15625,0.25 0.462176,0.033 0.9678,-0.011 1.03125,0 l 0.0625,-0.031 0.125,0 c 0.07985,-0.037 0.459924,-0.1621 0.75,-0.3437 0.253816,-0.1589 0.516768,-0.3778 0.625,-0.4688 l 0,-0.031 0.0625,-0.031 c 0.228491,-0.2766 0.622859,-0.9987 0.75,-1.6875 0.123402,-0.6686 0.110255,-1.2856 -0.5,-2.0937 -0.01661,-0.02 -0.01468,-0.074 -0.03125,-0.094 -3.909882,-4.7087 -6.640342,-9.6954 -8.09375,-15.0312 -0.0027,-0.01 0.0027,-0.02 0,-0.031 -0.0065,-0.023 -0.02475,-0.038 -0.03125,-0.062 l 0.03125,0 c -0.468814,-1.5559 -0.164856,-3.2422 0.9375,-4.5312 0.957741,-1.12 2.552742,-1.7888 4.34375,-1.7188 0.255858,0.01 0.519333,0.021 0.78125,0.062 l 0.1875,0.031 14.3125,1.4687 0,-4.9062 c 0,-1.6621 -1.338,-3 -3,-3 l -37,0 0,-8e-4 z"
       id="rect2830"
       sodipodi:nodetypes="cccccccccccsccccccssccsccsccsscccccccccccccccsscccscccsssssccssccccccc" />
  </g>
</svg>
