<?xml version="1.0" encoding="UTF-8" standalone="no"?>
<!-- Created with Inkscape (http://www.inkscape.org/) -->

<svg
   xmlns:dc="http://purl.org/dc/elements/1.1/"
   xmlns:cc="http://creativecommons.org/ns#"
   xmlns:rdf="http://www.w3.org/1999/02/22-rdf-syntax-ns#"
   xmlns:svg="http://www.w3.org/2000/svg"
   xmlns="http://www.w3.org/2000/svg"
   xmlns:sodipodi="http://sodipodi.sourceforge.net/DTD/sodipodi-0.dtd"
   xmlns:inkscape="http://www.inkscape.org/namespaces/inkscape"
   width="48"
   height="48"
   id="svg2"
   version="1.1"
   inkscape:version="0.47pre4 r22446"
   sodipodi:docname="nm-no-connection.svg">
  <defs
     id="defs4">
    <inkscape:perspective
       sodipodi:type="inkscape:persp3d"
       inkscape:vp_x="0 : 526.18109 : 1"
       inkscape:vp_y="0 : 1000 : 0"
       inkscape:vp_z="744.09448 : 526.18109 : 1"
       inkscape:persp3d-origin="372.04724 : 350.78739 : 1"
       id="perspective10" />
  </defs>
  <sodipodi:namedview
     id="base"
     pagecolor="#ffffff"
     bordercolor="#666666"
     borderopacity="1.0"
     inkscape:pageopacity="0.0"
     inkscape:pageshadow="2"
     inkscape:zoom="11.2"
     inkscape:cx="21.813799"
     inkscape:cy="18.658431"
     inkscape:document-units="px"
     inkscape:current-layer="layer1"
     showgrid="false"
     inkscape:window-width="1278"
     inkscape:window-height="712"
     inkscape:window-x="0"
     inkscape:window-y="25"
     inkscape:window-maximized="1" />
  <metadata
     id="metadata7">
    <rdf:RDF>
      <cc:Work
         rdf:about="">
        <dc:format>image/svg+xml</dc:format>
        <dc:type
           rdf:resource="http://purl.org/dc/dcmitype/StillImage" />
        <dc:title></dc:title>
      </cc:Work>
    </rdf:RDF>
  </metadata>
  <g
     inkscape:label="Livello 1"
     inkscape:groupmode="layer"
     id="layer1"
     transform="translate(0,-1004.3622)">
    <path
       style="fill:#969696;fill-opacity:1;fill-rule:nonzero;stroke:none"
       d="m 17,1013.7621 0,3.0001 25.2,0 0,19 -26.2,0 0,-4.0001 -3,0 0,7 14,0 0,3.0001 -10.5,0 0,2.9999 25,0 0,-2.9999 -10.5,0 0,-3.0001 14,0 0,-25 -28,0 z"
       id="rect2816"
       sodipodi:nodetypes="ccccccccccccccccccc" />
    <path
       style="fill:#969696;fill-opacity:1;fill-rule:nonzero;stroke:none"
       d="m 3,1013.7621 0,15.188 4,0 0,15.812 4,0 0,-15.812 4,0 0,-15.188 -3,0 0,12.1875 -6,0 0,-12.1875 -3,0 z"
       id="rect2823"
       sodipodi:nodetypes="ccccccccccccc" />
    <rect
       style="fill:#969696;fill-opacity:1;fill-rule:nonzero;stroke:none"
       id="rect2825"
       width="3.0999999"
       height="12"
       x="7.4499998"
       y="1011.9623" />
    <rect
       style="fill:#969696;fill-opacity:0.39215687;fill-rule:nonzero;stroke:none"
       id="rect3651"
       width="22"
       height="15"
       x="18"
       y="1018.8622" />
  </g>
</svg>
