<?xml version="1.0" encoding="UTF-8" standalone="no"?>
<!-- Created with Inkscape (http://www.inkscape.org/) -->

<svg
   xmlns:dc="http://purl.org/dc/elements/1.1/"
   xmlns:cc="http://creativecommons.org/ns#"
   xmlns:rdf="http://www.w3.org/1999/02/22-rdf-syntax-ns#"
   xmlns:svg="http://www.w3.org/2000/svg"
   xmlns="http://www.w3.org/2000/svg"
   xmlns:xlink="http://www.w3.org/1999/xlink"
   xmlns:sodipodi="http://sodipodi.sourceforge.net/DTD/sodipodi-0.dtd"
   xmlns:inkscape="http://www.inkscape.org/namespaces/inkscape"
   width="48"
   height="48"
   id="svg2"
   version="1.1"
   inkscape:version="0.47pre4 r22446"
   sodipodi:docname="gpm-battery-missing.svg"
   inkscape:export-filename="/home/andrea/.icons/MeliaeSVG/scalable/status/png/battery-missing.png"
   inkscape:export-xdpi="240"
   inkscape:export-ydpi="240">
  <defs
     id="defs4">
    <linearGradient
       id="linearGradient3726">
      <stop
         style="stop-color:#ffdc64;stop-opacity:1;"
         offset="0"
         id="stop3732" />
      <stop
         style="stop-color:#de4016;stop-opacity:1"
         offset="1"
         id="stop3734" />
    </linearGradient>
    <linearGradient
       id="linearGradient3718">
      <stop
         style="stop-color:#c88109;stop-opacity:1;"
         offset="0"
         id="stop3720" />
      <stop
         style="stop-color:#640000;stop-opacity:1;"
         offset="1"
         id="stop3722" />
    </linearGradient>
    <linearGradient
       id="linearGradient3704">
      <stop
         style="stop-color:#ffffff;stop-opacity:1;"
         offset="0"
         id="stop3706" />
      <stop
         style="stop-color:#dcdcdc;stop-opacity:1;"
         offset="1"
         id="stop3708" />
    </linearGradient>
    <linearGradient
       id="linearGradient3740">
      <stop
         style="stop-color:#f0f0f0;stop-opacity:1;"
         offset="0"
         id="stop3742" />
      <stop
         style="stop-color:#969696;stop-opacity:0;"
         offset="1"
         id="stop3744" />
    </linearGradient>
    <linearGradient
       id="linearGradient3719">
      <stop
         id="stop3721"
         offset="0"
         style="stop-color:#787878;stop-opacity:1;" />
      <stop
         style="stop-color:#b4b4b4;stop-opacity:1;"
         offset="0.20681818"
         id="stop3724" />
      <stop
         style="stop-color:#e6e6e6;stop-opacity:1;"
         offset="0.48333332"
         id="stop3726" />
      <stop
         style="stop-color:#b4b4b4;stop-opacity:1;"
         offset="0.83174294"
         id="stop3728" />
      <stop
         id="stop3730"
         offset="1"
         style="stop-color:#787878;stop-opacity:1;" />
    </linearGradient>
    <linearGradient
       inkscape:collect="always"
       id="linearGradient3709">
      <stop
         style="stop-color:#505050;stop-opacity:1;"
         offset="0"
         id="stop3711" />
      <stop
         style="stop-color:#505050;stop-opacity:0;"
         offset="1"
         id="stop3713" />
    </linearGradient>
    <linearGradient
       inkscape:collect="always"
       id="linearGradient3688">
      <stop
         style="stop-color:#ffffff;stop-opacity:1;"
         offset="0"
         id="stop3690" />
      <stop
         style="stop-color:#ffffff;stop-opacity:0;"
         offset="1"
         id="stop3692" />
    </linearGradient>
    <linearGradient
       inkscape:collect="always"
       id="linearGradient3661">
      <stop
         style="stop-color:#ffffff;stop-opacity:1;"
         offset="0"
         id="stop3663" />
      <stop
         style="stop-color:#ffffff;stop-opacity:0;"
         offset="1"
         id="stop3665" />
    </linearGradient>
    <linearGradient
       id="linearGradient3651">
      <stop
         style="stop-color:#ffffff;stop-opacity:1;"
         offset="0"
         id="stop3653" />
      <stop
         style="stop-color:#f0f0f0;stop-opacity:0;"
         offset="1"
         id="stop3655" />
    </linearGradient>
    <linearGradient
       id="linearGradient3798">
      <stop
         id="stop3800"
         offset="0"
         style="stop-color:#e3b216;stop-opacity:1;" />
      <stop
         id="stop3802"
         offset="1"
         style="stop-color:#ffdc64;stop-opacity:1;" />
    </linearGradient>
    <linearGradient
       id="linearGradient3769">
      <stop
         style="stop-color:#505050;stop-opacity:1;"
         offset="0"
         id="stop3771" />
      <stop
         style="stop-color:#1b496a;stop-opacity:1;"
         offset="1"
         id="stop3773" />
    </linearGradient>
    <linearGradient
       id="linearGradient3757">
      <stop
         id="stop3759"
         offset="0"
         style="stop-color:#c88109;stop-opacity:1;" />
      <stop
         style="stop-color:#ffdc64;stop-opacity:1;"
         offset="0.20681818"
         id="stop3761" />
      <stop
         style="stop-color:#e3b216;stop-opacity:1;"
         offset="0.49538627"
         id="stop3763" />
      <stop
         style="stop-color:#ffdc64;stop-opacity:1;"
         offset="0.85372871"
         id="stop3765" />
      <stop
         id="stop3767"
         offset="1"
         style="stop-color:#c88109;stop-opacity:1;" />
    </linearGradient>
    <linearGradient
       id="linearGradient3741">
      <stop
         style="stop-color:#969696;stop-opacity:1;"
         offset="0"
         id="stop3743" />
      <stop
         style="stop-color:#dcdcdc;stop-opacity:1;"
         offset="1"
         id="stop3745" />
    </linearGradient>
    <linearGradient
       id="linearGradient3721">
      <stop
         style="stop-color:#787878;stop-opacity:1;"
         offset="0"
         id="stop3723" />
      <stop
         id="stop3733"
         offset="0.20681818"
         style="stop-color:#b4b4b4;stop-opacity:1;" />
      <stop
         id="stop3731"
         offset="0.48333332"
         style="stop-color:#e6e6e6;stop-opacity:1;" />
      <stop
         id="stop3729"
         offset="0.88787878"
         style="stop-color:#b4b4b4;stop-opacity:1;" />
      <stop
         style="stop-color:#787878;stop-opacity:1;"
         offset="1"
         id="stop3725" />
    </linearGradient>
    <linearGradient
       id="linearGradient3691">
      <stop
         style="stop-color:#ffffff;stop-opacity:1;"
         offset="0"
         id="stop3693" />
      <stop
         style="stop-color:#dcdcdc;stop-opacity:1;"
         offset="1"
         id="stop3695" />
    </linearGradient>
    <linearGradient
       inkscape:collect="always"
       id="linearGradient3623">
      <stop
         style="stop-color:#333333;stop-opacity:1;"
         offset="0"
         id="stop3625" />
      <stop
         style="stop-color:#333333;stop-opacity:0;"
         offset="1"
         id="stop3627" />
    </linearGradient>
    <linearGradient
       id="linearGradient3607">
      <stop
         style="stop-color:#700000;stop-opacity:1;"
         offset="0"
         id="stop3609" />
      <stop
         id="stop3619"
         offset="0.21022727"
         style="stop-color:#de4016;stop-opacity:1;" />
      <stop
         id="stop3617"
         offset="0.48579547"
         style="stop-color:#de220c;stop-opacity:1;" />
      <stop
         id="stop3615"
         offset="0.85227275"
         style="stop-color:#de4016;stop-opacity:1;" />
      <stop
         style="stop-color:#700000;stop-opacity:1;"
         offset="1"
         id="stop3611" />
    </linearGradient>
    <inkscape:perspective
       sodipodi:type="inkscape:persp3d"
       inkscape:vp_x="0 : 526.18109 : 1"
       inkscape:vp_y="0 : 1000 : 0"
       inkscape:vp_z="744.09448 : 526.18109 : 1"
       inkscape:persp3d-origin="372.04724 : 350.78739 : 1"
       id="perspective10" />
    <linearGradient
       inkscape:collect="always"
       xlink:href="#linearGradient3607"
       id="linearGradient3613"
       x1="13"
       y1="26"
       x2="35"
       y2="26"
       gradientUnits="userSpaceOnUse" />
    <radialGradient
       inkscape:collect="always"
       xlink:href="#linearGradient3623"
       id="radialGradient3629"
       cx="-33.839287"
       cy="22.553572"
       fx="-33.839287"
       fy="22.553572"
       r="10.982142"
       gradientTransform="matrix(1,0,0,0.33333336,0,15.035714)"
       gradientUnits="userSpaceOnUse" />
    <linearGradient
       inkscape:collect="always"
       xlink:href="#linearGradient3691"
       id="linearGradient3697"
       x1="24"
       y1="16.15625"
       x2="24"
       y2="36.165447"
       gradientUnits="userSpaceOnUse"
       gradientTransform="translate(-34.75,1002.4872)" />
    <linearGradient
       inkscape:collect="always"
       xlink:href="#linearGradient3721"
       id="linearGradient3727"
       x1="18.84375"
       y1="7.828125"
       x2="29.15625"
       y2="7.828125"
       gradientUnits="userSpaceOnUse" />
    <linearGradient
       inkscape:collect="always"
       xlink:href="#linearGradient3757"
       id="linearGradient3739"
       gradientUnits="userSpaceOnUse"
       x1="13"
       y1="26"
       x2="35"
       y2="26"
       gradientTransform="translate(-4.9999997e-8,1004.3622)" />
    <linearGradient
       inkscape:collect="always"
       xlink:href="#linearGradient3798"
       id="linearGradient3747"
       x1="-44.82143"
       y1="18.892857"
       x2="-22.857143"
       y2="26.214287"
       gradientUnits="userSpaceOnUse" />
    <linearGradient
       inkscape:collect="always"
       xlink:href="#linearGradient3741"
       id="linearGradient3755"
       x1="-44.82143"
       y1="18.892857"
       x2="-22.857145"
       y2="26.214287"
       gradientUnits="userSpaceOnUse" />
    <linearGradient
       inkscape:collect="always"
       xlink:href="#linearGradient3769"
       id="linearGradient3775"
       x1="24"
       y1="1020.331"
       x2="24"
       y2="1040.3402"
       gradientUnits="userSpaceOnUse"
       gradientTransform="translate(-34.75,-1.875)" />
    <linearGradient
       inkscape:collect="always"
       xlink:href="#linearGradient3741"
       id="linearGradient3649"
       x1="-42.208317"
       y1="20.740871"
       x2="-25.329008"
       y2="24.301533"
       gradientUnits="userSpaceOnUse" />
    <linearGradient
       inkscape:collect="always"
       xlink:href="#linearGradient3651"
       id="linearGradient3657"
       x1="-33.839287"
       y1="26.305384"
       x2="-33.839287"
       y2="18.80176"
       gradientUnits="userSpaceOnUse" />
    <linearGradient
       inkscape:collect="always"
       xlink:href="#linearGradient3688"
       id="linearGradient3694"
       x1="-1036.5276"
       y1="28.60058"
       x2="-1036.5276"
       y2="32.332043"
       gradientUnits="userSpaceOnUse" />
    <radialGradient
       inkscape:collect="always"
       xlink:href="#linearGradient3661"
       id="radialGradient3696"
       cx="31"
       cy="1036.3622"
       fx="31"
       fy="1036.3622"
       r="0.5"
       gradientTransform="matrix(-1,0,0,-35.500882,62,37819.759)"
       gradientUnits="userSpaceOnUse" />
    <linearGradient
       inkscape:collect="always"
       xlink:href="#linearGradient3688"
       id="linearGradient3796"
       gradientUnits="userSpaceOnUse"
       x1="-1036.5276"
       y1="28.60058"
       x2="-1036.5276"
       y2="32.332043" />
    <linearGradient
       inkscape:collect="always"
       xlink:href="#linearGradient3721"
       id="linearGradient2924"
       gradientUnits="userSpaceOnUse"
       x1="18.84375"
       y1="7.828125"
       x2="29.15625"
       y2="7.828125"
       gradientTransform="matrix(1.0935736,0,0,1.0935736,-2.2457677,1001.1518)" />
    <linearGradient
       inkscape:collect="always"
       xlink:href="#linearGradient3757"
       id="linearGradient2931"
       gradientUnits="userSpaceOnUse"
       gradientTransform="matrix(1.0935736,0,0,1.0935736,-2.2457678,1001.1518)"
       x1="13"
       y1="26"
       x2="35"
       y2="26" />
    <linearGradient
       inkscape:collect="always"
       xlink:href="#linearGradient3607"
       id="linearGradient2934"
       gradientUnits="userSpaceOnUse"
       x1="13"
       y1="26"
       x2="35"
       y2="26"
       gradientTransform="matrix(1.0935736,0,0,1.0935736,-2.2457677,1001.1518)" />
    <linearGradient
       inkscape:collect="always"
       xlink:href="#linearGradient3709"
       id="linearGradient3715"
       x1="-33.839287"
       y1="18.892857"
       x2="-33.839287"
       y2="26.214287"
       gradientUnits="userSpaceOnUse" />
    <linearGradient
       inkscape:collect="always"
       xlink:href="#linearGradient3719"
       id="linearGradient3717"
       gradientUnits="userSpaceOnUse"
       x1="-44.82143"
       y1="22.553572"
       x2="-22.857143"
       y2="22.553572" />
    <linearGradient
       inkscape:collect="always"
       xlink:href="#linearGradient3740"
       id="linearGradient3746"
       x1="-33.839287"
       y1="26.325851"
       x2="-33.839287"
       y2="18.781292"
       gradientUnits="userSpaceOnUse" />
    <linearGradient
       inkscape:collect="always"
       xlink:href="#linearGradient3704"
       id="linearGradient3710"
       x1="23.999998"
       y1="1019.448"
       x2="23.999998"
       y2="1039.7214"
       gradientUnits="userSpaceOnUse" />
    <linearGradient
       inkscape:collect="always"
       xlink:href="#linearGradient3718"
       id="linearGradient3724"
       x1="23.999998"
       y1="1019.198"
       x2="23.999998"
       y2="1039.4714"
       gradientUnits="userSpaceOnUse" />
    <linearGradient
       inkscape:collect="always"
       xlink:href="#linearGradient3726"
       id="linearGradient3736"
       x1="23.999998"
       y1="1019.698"
       x2="23.999998"
       y2="1039.9714"
       gradientUnits="userSpaceOnUse" />
    <linearGradient
       inkscape:collect="always"
       xlink:href="#linearGradient3726"
       id="linearGradient3748"
       gradientUnits="userSpaceOnUse"
       x1="23.999998"
       y1="1019.698"
       x2="23.999998"
       y2="1039.9714" />
    <linearGradient
       inkscape:collect="always"
       xlink:href="#linearGradient3718"
       id="linearGradient3750"
       gradientUnits="userSpaceOnUse"
       x1="23.999998"
       y1="1019.198"
       x2="23.999998"
       y2="1039.4714" />
    <linearGradient
       inkscape:collect="always"
       xlink:href="#linearGradient3704"
       id="linearGradient3752"
       gradientUnits="userSpaceOnUse"
       x1="23.999998"
       y1="1019.448"
       x2="23.999998"
       y2="1039.7214" />
    <linearGradient
       inkscape:collect="always"
       xlink:href="#linearGradient3704"
       id="linearGradient3756"
       gradientUnits="userSpaceOnUse"
       x1="23.999998"
       y1="1019.448"
       x2="23.999998"
       y2="1039.7214"
       gradientTransform="translate(-1.811523,3.3300613)" />
    <linearGradient
       inkscape:collect="always"
       xlink:href="#linearGradient3718"
       id="linearGradient3760"
       gradientUnits="userSpaceOnUse"
       x1="23.999998"
       y1="1019.198"
       x2="23.999998"
       y2="1039.4714"
       gradientTransform="translate(-1.811523,3.3300613)" />
    <linearGradient
       inkscape:collect="always"
       xlink:href="#linearGradient3726"
       id="linearGradient3764"
       gradientUnits="userSpaceOnUse"
       x1="23.999998"
       y1="1019.698"
       x2="23.999998"
       y2="1039.9714"
       gradientTransform="translate(-1.811523,3.3300613)" />
  </defs>
  <sodipodi:namedview
     id="base"
     pagecolor="#ffffff"
     bordercolor="#666666"
     borderopacity="1.0"
     inkscape:pageopacity="0.0"
     inkscape:pageshadow="2"
     inkscape:zoom="7.9999999"
     inkscape:cx="18.050381"
     inkscape:cy="21.003628"
     inkscape:document-units="px"
     inkscape:current-layer="layer1"
     showgrid="false"
     inkscape:window-width="1280"
     inkscape:window-height="714"
     inkscape:window-x="0"
     inkscape:window-y="25"
     inkscape:window-maximized="1" />
  <metadata
     id="metadata7">
    <rdf:RDF>
      <cc:Work
         rdf:about="">
        <dc:format>image/svg+xml</dc:format>
        <dc:type
           rdf:resource="http://purl.org/dc/dcmitype/StillImage" />
        <dc:title></dc:title>
      </cc:Work>
    </rdf:RDF>
  </metadata>
  <g
     inkscape:label="Livello 1"
     inkscape:groupmode="layer"
     id="layer1"
     transform="translate(0,-1004.3622)">
    <path
       sodipodi:type="arc"
       style="fill:url(#radialGradient3629);fill-opacity:1;fill-rule:nonzero;stroke:none"
       id="path3621"
       sodipodi:cx="-33.839287"
       sodipodi:cy="22.553572"
       sodipodi:rx="10.982142"
       sodipodi:ry="3.6607144"
       d="m -22.857144,22.553572 c 0,2.021756 -4.916873,3.660714 -10.982143,3.660714 -6.06527,0 -10.982142,-1.638958 -10.982142,-3.660714 0,-2.021757 4.916872,-3.660715 10.982142,-3.660715 6.06527,0 10.982143,1.638958 10.982143,3.660715 z"
       transform="matrix(1.4100049,0,0,1.5381871,71.713561,1011.0368)" />
    <path
       style="fill:url(#linearGradient2934);fill-opacity:1;fill-rule:nonzero;stroke:none"
       d="m 11.970689,1009.9004 0,34.9943 c 0,2.4159 5.385705,4.3743 12.02931,4.3743 6.643605,0 12.029309,-1.9584 12.029309,-4.3743 l 0,-34.9943 c 0,2.4158 -5.385704,4.3743 -12.029309,4.3743 -6.643605,0 -12.02931,-1.9585 -12.02931,-4.3743 z"
       id="rect2816" />
    <path
       id="path3737"
       d="m 11.970689,1009.9004 0,10.799 c 0,2.4158 5.385705,4.3743 12.02931,4.3743 6.643605,0 12.029309,-1.9585 12.029309,-4.3743 l 0,-10.799 c 0,2.4158 -5.385704,4.3743 -12.029309,4.3743 -6.643605,0 -12.02931,-1.9585 -12.02931,-4.3743 z"
       style="fill:url(#linearGradient2931);fill-opacity:1;fill-rule:nonzero;stroke:none"
       sodipodi:nodetypes="ccsccsc" />
    <path
       transform="matrix(1.0854387,0,0,1.195063,60.730469,982.94742)"
       d="m -22.857144,22.553572 c 0,2.021756 -4.916873,3.660714 -10.982143,3.660714 -6.06527,0 -10.982142,-1.638958 -10.982142,-3.660714 0,-2.021757 4.916872,-3.660715 10.982142,-3.660715 6.06527,0 10.982143,1.638958 10.982143,3.660715 z"
       sodipodi:ry="3.6607144"
       sodipodi:rx="10.982142"
       sodipodi:cy="22.553572"
       sodipodi:cx="-33.839287"
       id="path2820"
       style="fill:url(#linearGradient3747);fill-opacity:1;fill-rule:nonzero;stroke:url(#linearGradient3657);stroke-width:0.19117457;stroke-miterlimit:4;stroke-opacity:1;stroke-dasharray:none"
       sodipodi:type="arc" />
    <path
       sodipodi:type="arc"
       style="fill:url(#linearGradient3715);fill-opacity:1;fill-rule:nonzero;stroke:none"
       id="path2865"
       sodipodi:cx="-33.839287"
       sodipodi:cy="22.553572"
       sodipodi:rx="10.982142"
       sodipodi:ry="3.6607144"
       d="m -22.857144,22.553572 c 0,2.021756 -4.916873,3.660714 -10.982143,3.660714 -6.06527,0 -10.982142,-1.638958 -10.982142,-3.660714 0,-2.021757 4.916872,-3.660715 10.982142,-3.660715 6.06527,0 10.982143,1.638958 10.982143,3.660715 z"
       transform="matrix(0.99266262,0,0,1.0829046,57.590994,985.477)" />
    <path
       transform="matrix(0.96776826,0,0,1.0557471,56.748587,986.0895)"
       d="m -22.857144,22.553572 c 0,2.021756 -4.916873,3.660714 -10.982143,3.660714 -6.06527,0 -10.982142,-1.638958 -10.982142,-3.660714 0,-2.021757 4.916872,-3.660715 10.982142,-3.660715 6.06527,0 10.982143,1.638958 10.982143,3.660715 z"
       sodipodi:ry="3.6607144"
       sodipodi:rx="10.982142"
       sodipodi:cy="22.553572"
       sodipodi:cx="-33.839287"
       id="path3641"
       style="fill:url(#linearGradient3717);fill-opacity:1;fill-rule:nonzero;stroke:none"
       sodipodi:type="arc" />
    <path
       sodipodi:type="arc"
       style="fill:#787878;fill-opacity:1;fill-rule:nonzero;stroke:none"
       id="path3735"
       sodipodi:cx="-33.839287"
       sodipodi:cy="22.553572"
       sodipodi:rx="10.982142"
       sodipodi:ry="3.6607144"
       d="m -22.857144,22.553572 c 0,2.021756 -4.916873,3.660714 -10.982143,3.660714 -6.06527,0 -10.982142,-1.638958 -10.982142,-3.660714 0,-2.021757 4.916872,-3.660715 10.982142,-3.660715 6.06527,0 10.982143,1.638958 10.982143,3.660715 z"
       transform="matrix(0.51780267,0,0,0.56487558,41.522072,997.25821)" />
    <path
       style="fill:url(#linearGradient2924);fill-opacity:1;fill-rule:nonzero;stroke:none"
       d="m 18.36126,1007.474 0,2.4264 c 0,1.1324 2.524549,2.0504 5.638739,2.0504 3.114189,0 5.638739,-0.918 5.638739,-2.0504 l 0,-2.4264 c 0,1.1325 -2.52455,2.0505 -5.638739,2.0505 -3.11419,0 -5.638739,-0.918 -5.638739,-2.0505 z"
       id="path3713" />
    <path
       transform="matrix(0.507198,0,0,0.56021243,41.163218,994.84361)"
       d="m -22.857144,22.553572 c 0,2.021756 -4.916873,3.660714 -10.982143,3.660714 -6.06527,0 -10.982142,-1.638958 -10.982142,-3.660714 0,-2.021757 4.916872,-3.660715 10.982142,-3.660715 6.06527,0 10.982143,1.638958 10.982143,3.660715 z"
       sodipodi:ry="3.6607144"
       sodipodi:rx="10.982142"
       sodipodi:cy="22.553572"
       sodipodi:cx="-33.839287"
       id="path3709"
       style="fill:url(#linearGradient3755);fill-opacity:1;fill-rule:nonzero;stroke:url(#linearGradient3746);stroke-width:0.20391952999999999;stroke-miterlimit:4;stroke-opacity:1;stroke-dasharray:none"
       sodipodi:type="arc" />
    <g
       style="font-size:40px;font-style:normal;font-variant:normal;font-weight:normal;font-stretch:normal;fill:url(#linearGradient3764);fill-opacity:1;stroke:none;font-family:Calibri;-inkscape-font-specification:Calibri"
       id="text3712">
      <path
         d="m 25.445311,1035.8699 c -9e-6,0.1041 -0.02605,0.1953 -0.07813,0.2734 -0.03907,0.078 -0.117196,0.1432 -0.234375,0.1953 -0.117196,0.052 -0.266936,0.091 -0.449219,0.1172 -0.1823,0.026 -0.410164,0.039 -0.683594,0.039 -0.273444,0 -0.501309,-0.013 -0.683594,-0.039 -0.182298,-0.026 -0.332037,-0.065 -0.449218,-0.1172 -0.117194,-0.052 -0.201829,-0.1172 -0.253907,-0.1953 -0.03907,-0.078 -0.0586,-0.1693 -0.05859,-0.2734 l -0.332032,-18.6328 c -0.01303,-0.1563 0.0065,-0.293 0.05859,-0.4102 0.05208,-0.1172 0.143224,-0.2148 0.273438,-0.293 0.143223,-0.078 0.325514,-0.1301 0.546875,-0.1562 0.234368,-0.039 0.533847,-0.059 0.898437,-0.059 0.351555,0 0.638013,0.019 0.859375,0.059 0.234367,0.039 0.416658,0.098 0.546875,0.1758 0.14322,0.078 0.240877,0.1758 0.292969,0.2929 0.05207,0.1042 0.07812,0.2344 0.07813,0.3907 l -0.332031,18.6328 m 0.605468,5.2539 c -9e-6,0.4297 -0.03256,0.7877 -0.09766,1.0742 -0.05209,0.2734 -0.162769,0.5013 -0.332031,0.6836 -0.156259,0.1693 -0.364592,0.2865 -0.625,0.3516 -0.260425,0.078 -0.592456,0.1171 -0.996094,0.1171 -0.403653,0 -0.742194,-0.039 -1.015625,-0.1171 -0.260423,-0.065 -0.468756,-0.1823 -0.625,-0.3516 -0.156255,-0.1823 -0.266932,-0.4102 -0.332031,-0.6836 -0.05209,-0.2865 -0.07813,-0.6445 -0.07813,-1.0742 -5e-6,-0.4297 0.02604,-0.7878 0.07813,-1.0742 0.0651,-0.2995 0.175776,-0.5274 0.332031,-0.6836 0.156244,-0.1693 0.364577,-0.2865 0.625,-0.3516 0.273431,-0.078 0.611972,-0.1172 1.015625,-0.1172 0.403638,0 0.735669,0.039 0.996094,0.1172 0.260408,0.065 0.468741,0.1823 0.625,0.3516 0.169262,0.1562 0.279939,0.3841 0.332031,0.6836 0.06509,0.2864 0.09765,0.6445 0.09766,1.0742"
         style=""
         id="path3773" />
    </g>
    <g
       style="font-size:40px;font-style:normal;font-variant:normal;font-weight:normal;font-stretch:normal;fill:url(#linearGradient3760);fill-opacity:1;stroke:none;font-family:Calibri;-inkscape-font-specification:Calibri"
       id="text3700">
      <path
         d="m 25.445311,1035.3699 c -9e-6,0.1041 -0.02605,0.1953 -0.07813,0.2734 -0.03907,0.078 -0.117196,0.1432 -0.234375,0.1953 -0.117196,0.052 -0.266936,0.091 -0.449219,0.1172 -0.1823,0.026 -0.410164,0.039 -0.683594,0.039 -0.273444,0 -0.501309,-0.013 -0.683594,-0.039 -0.182298,-0.026 -0.332037,-0.065 -0.449218,-0.1172 -0.117194,-0.052 -0.201829,-0.1172 -0.253907,-0.1953 -0.03907,-0.078 -0.0586,-0.1693 -0.05859,-0.2734 l -0.332032,-18.6328 c -0.01303,-0.1563 0.0065,-0.293 0.05859,-0.4102 0.05208,-0.1172 0.143224,-0.2148 0.273438,-0.293 0.143223,-0.078 0.325514,-0.1301 0.546875,-0.1562 0.234368,-0.039 0.533847,-0.059 0.898437,-0.059 0.351555,0 0.638013,0.019 0.859375,0.059 0.234367,0.039 0.416658,0.098 0.546875,0.1758 0.14322,0.078 0.240877,0.1758 0.292969,0.2929 0.05207,0.1042 0.07812,0.2344 0.07813,0.3907 l -0.332031,18.6328 m 0.605468,5.2539 c -9e-6,0.4297 -0.03256,0.7877 -0.09766,1.0742 -0.05209,0.2734 -0.162769,0.5013 -0.332031,0.6836 -0.156259,0.1693 -0.364592,0.2865 -0.625,0.3516 -0.260425,0.078 -0.592456,0.1171 -0.996094,0.1171 -0.403653,0 -0.742194,-0.039 -1.015625,-0.1171 -0.260423,-0.065 -0.468756,-0.1823 -0.625,-0.3516 -0.156255,-0.1823 -0.266932,-0.4102 -0.332031,-0.6836 -0.05209,-0.2865 -0.07813,-0.6445 -0.07813,-1.0742 -5e-6,-0.4297 0.02604,-0.7878 0.07813,-1.0742 0.0651,-0.2995 0.175776,-0.5274 0.332031,-0.6836 0.156244,-0.1693 0.364577,-0.2865 0.625,-0.3516 0.273431,-0.078 0.611972,-0.1172 1.015625,-0.1172 0.403638,0 0.735669,0.039 0.996094,0.1172 0.260408,0.065 0.468741,0.1823 0.625,0.3516 0.169262,0.1562 0.279939,0.3841 0.332031,0.6836 0.06509,0.2864 0.09765,0.6445 0.09766,1.0742"
         style=""
         id="path3770" />
    </g>
    <g
       style="font-size:40px;font-style:normal;font-variant:normal;font-weight:normal;font-stretch:normal;fill:url(#linearGradient3756);fill-opacity:1;stroke:none;font-family:Calibri;-inkscape-font-specification:Calibri"
       id="text3696">
      <path
         d="m 25.445311,1035.6199 c -9e-6,0.1041 -0.02605,0.1953 -0.07813,0.2734 -0.03907,0.078 -0.117196,0.1432 -0.234375,0.1953 -0.117196,0.052 -0.266936,0.091 -0.449219,0.1172 -0.1823,0.026 -0.410164,0.039 -0.683594,0.039 -0.273444,0 -0.501309,-0.013 -0.683594,-0.039 -0.182298,-0.026 -0.332037,-0.065 -0.449218,-0.1172 -0.117194,-0.052 -0.201829,-0.1172 -0.253907,-0.1953 -0.03907,-0.078 -0.0586,-0.1693 -0.05859,-0.2734 l -0.332032,-18.6328 c -0.01303,-0.1563 0.0065,-0.293 0.05859,-0.4102 0.05208,-0.1172 0.143224,-0.2148 0.273438,-0.293 0.143223,-0.078 0.325514,-0.1301 0.546875,-0.1562 0.234368,-0.039 0.533847,-0.059 0.898437,-0.059 0.351555,0 0.638013,0.019 0.859375,0.059 0.234367,0.039 0.416658,0.098 0.546875,0.1758 0.14322,0.078 0.240877,0.1758 0.292969,0.2929 0.05207,0.1042 0.07812,0.2344 0.07813,0.3907 l -0.332031,18.6328 m 0.605468,5.2539 c -9e-6,0.4297 -0.03256,0.7877 -0.09766,1.0742 -0.05209,0.2734 -0.162769,0.5013 -0.332031,0.6836 -0.156259,0.1693 -0.364592,0.2865 -0.625,0.3516 -0.260425,0.078 -0.592456,0.1171 -0.996094,0.1171 -0.403653,0 -0.742194,-0.039 -1.015625,-0.1171 -0.260423,-0.065 -0.468756,-0.1823 -0.625,-0.3516 -0.156255,-0.1823 -0.266932,-0.4102 -0.332031,-0.6836 -0.05209,-0.2865 -0.07813,-0.6445 -0.07813,-1.0742 -5e-6,-0.4297 0.02604,-0.7878 0.07813,-1.0742 0.0651,-0.2995 0.175776,-0.5274 0.332031,-0.6836 0.156244,-0.1693 0.364577,-0.2865 0.625,-0.3516 0.273431,-0.078 0.611972,-0.1172 1.015625,-0.1172 0.403638,0 0.735669,0.039 0.996094,0.1172 0.260408,0.065 0.468741,0.1823 0.625,0.3516 0.169262,0.1562 0.279939,0.3841 0.332031,0.6836 0.06509,0.2864 0.09765,0.6445 0.09766,1.0742"
         style=""
         id="path3767" />
    </g>
  </g>
</svg>
