<?xml version="1.0" encoding="UTF-8" standalone="no"?>
<!-- Created with Inkscape (http://www.inkscape.org/) -->

<svg
   xmlns:dc="http://purl.org/dc/elements/1.1/"
   xmlns:cc="http://creativecommons.org/ns#"
   xmlns:rdf="http://www.w3.org/1999/02/22-rdf-syntax-ns#"
   xmlns:svg="http://www.w3.org/2000/svg"
   xmlns="http://www.w3.org/2000/svg"
   xmlns:sodipodi="http://sodipodi.sourceforge.net/DTD/sodipodi-0.dtd"
   xmlns:inkscape="http://www.inkscape.org/namespaces/inkscape"
   width="48"
   height="48"
   id="svg2"
   version="1.1"
   inkscape:version="0.47pre4 r22446"
   sodipodi:docname="indicator-messages-new2.svg">
  <defs
     id="defs4">
    <inkscape:perspective
       sodipodi:type="inkscape:persp3d"
       inkscape:vp_x="0 : 526.18109 : 1"
       inkscape:vp_y="0 : 1000 : 0"
       inkscape:vp_z="744.09448 : 526.18109 : 1"
       inkscape:persp3d-origin="372.04724 : 350.78739 : 1"
       id="perspective10" />
  </defs>
  <sodipodi:namedview
     id="base"
     pagecolor="#ffffff"
     bordercolor="#666666"
     borderopacity="1.0"
     inkscape:pageopacity="0.0"
     inkscape:pageshadow="2"
     inkscape:zoom="5.6"
     inkscape:cx="4.978852"
     inkscape:cy="11.033126"
     inkscape:document-units="px"
     inkscape:current-layer="layer1"
     showgrid="false"
     inkscape:window-width="1280"
     inkscape:window-height="712"
     inkscape:window-x="0"
     inkscape:window-y="25"
     inkscape:window-maximized="1" />
  <metadata
     id="metadata7">
    <rdf:RDF>
      <cc:Work
         rdf:about="">
        <dc:format>image/svg+xml</dc:format>
        <dc:type
           rdf:resource="http://purl.org/dc/dcmitype/StillImage" />
        <dc:title />
      </cc:Work>
    </rdf:RDF>
  </metadata>
  <g
     inkscape:label="Livello 1"
     inkscape:groupmode="layer"
     id="layer1"
     transform="translate(0,-1004.3622)">
    <path
       style="font-size:medium;font-style:normal;font-variant:normal;font-weight:normal;font-stretch:normal;text-indent:0;text-align:start;text-decoration:none;line-height:normal;letter-spacing:normal;word-spacing:normal;text-transform:none;direction:ltr;block-progression:tb;writing-mode:lr-tb;text-anchor:start;color:#000000;fill:#ca0e00;fill-opacity:1;stroke:none;stroke-width:2;marker:none;visibility:visible;display:inline;overflow:visible;enable-background:accumulate;font-family:'A.C.M.E. Secret Agent';-inkscape-font-specification:'A.C.M.E. Secret Agent'"
       d="m 4.21875,1015.25 0,1 0,24.2188 0,1 1,0 37.5625,0 1,0 0,-1 0,-24.2188 0,-1 -1,0 -37.5625,0 -1,0 z m 2,2 35.5625,0 0,22.2188 -35.5625,0 0,-22.2188 z"
       id="rect2816" />
    <path
       style="font-size:medium;font-style:normal;font-variant:normal;font-weight:normal;font-stretch:normal;text-indent:0;text-align:start;text-decoration:none;line-height:normal;letter-spacing:normal;word-spacing:normal;text-transform:none;direction:ltr;block-progression:tb;writing-mode:lr-tb;text-anchor:start;color:#000000;fill:#ca0e00;fill-opacity:1;stroke:none;stroke-width:1.48781121000000005;marker:none;visibility:visible;display:inline;overflow:visible;enable-background:accumulate;font-family:'A.C.M.E. Secret Agent';-inkscape-font-specification:'A.C.M.E. Secret Agent'"
       d="M 8.21875 14.875 L 8.21875 15.625 L 8.21875 32.375 L 8.21875 33.09375 L 8.96875 33.09375 L 39.03125 33.09375 L 39.78125 33.09375 L 39.78125 32.375 L 39.78125 15.625 L 39.78125 14.875 L 39.03125 14.875 L 8.96875 14.875 L 8.21875 14.875 z M 36.90625 15.46875 L 38.28125 16.9375 L 30.75 24.03125 L 38.28125 31.59375 L 36.875 33 L 29.28125 25.40625 L 26.0625 28.46875 L 26.0625 28.4375 L 26.03125 28.4375 C 25.228766 29.2379 24.535528 29.8445 23.5625 29.8125 C 22.590031 29.7807 21.949015 29.1588 21.25 28.4375 L 18.46875 25.65625 L 11.125 33 L 9.71875 31.59375 L 17.0625 24.25 L 9.71875 16.90625 L 11.125 15.5 L 22.65625 27.03125 C 23.28137 27.67705 23.60073 27.8117 23.625 27.8125 C 23.64927 27.8133 23.959356 27.72825 24.65625 27.03125 L 24.6875 27 L 36.90625 15.46875 z "
       transform="translate(0,1004.3622)"
       id="rect2817" />
  </g>
</svg>
