<?xml version="1.0" encoding="UTF-8" standalone="no"?>
<!-- Created with Inkscape (http://www.inkscape.org/) -->

<svg
   xmlns:dc="http://purl.org/dc/elements/1.1/"
   xmlns:cc="http://creativecommons.org/ns#"
   xmlns:rdf="http://www.w3.org/1999/02/22-rdf-syntax-ns#"
   xmlns:svg="http://www.w3.org/2000/svg"
   xmlns="http://www.w3.org/2000/svg"
   xmlns:sodipodi="http://sodipodi.sourceforge.net/DTD/sodipodi-0.dtd"
   xmlns:inkscape="http://www.inkscape.org/namespaces/inkscape"
   width="48"
   height="48"
   id="svg2"
   version="1.1"
   inkscape:version="0.47pre4 r22446"
   sodipodi:docname="nm-device-wwan.svg">
  <defs
     id="defs4">
    <linearGradient
       id="linearGradient3589">
      <stop
         style="stop-color:#ffffff;stop-opacity:1;"
         offset="0"
         id="stop3591" />
      <stop
         style="stop-color:#dcdcdc;stop-opacity:1;"
         offset="1"
         id="stop3593" />
    </linearGradient>
    <inkscape:perspective
       sodipodi:type="inkscape:persp3d"
       inkscape:vp_x="0 : 526.18109 : 1"
       inkscape:vp_y="0 : 1000 : 0"
       inkscape:vp_z="744.09448 : 526.18109 : 1"
       inkscape:persp3d-origin="372.04724 : 350.78739 : 1"
       id="perspective10" />
  </defs>
  <sodipodi:namedview
     id="base"
     pagecolor="#ffffff"
     bordercolor="#666666"
     borderopacity="1.0"
     inkscape:pageopacity="0.0"
     inkscape:pageshadow="2"
     inkscape:zoom="5.6"
     inkscape:cx="13.536537"
     inkscape:cy="10.947525"
     inkscape:document-units="px"
     inkscape:current-layer="layer1"
     showgrid="false"
     inkscape:window-width="1280"
     inkscape:window-height="714"
     inkscape:window-x="0"
     inkscape:window-y="25"
     inkscape:window-maximized="1" />
  <metadata
     id="metadata7">
    <rdf:RDF>
      <cc:Work
         rdf:about="">
        <dc:format>image/svg+xml</dc:format>
        <dc:type
           rdf:resource="http://purl.org/dc/dcmitype/StillImage" />
        <dc:title />
      </cc:Work>
    </rdf:RDF>
  </metadata>
  <g
     inkscape:label="Livello 1"
     inkscape:groupmode="layer"
     id="layer1"
     transform="translate(0,-1004.3622)">
    <g
       id="g2820"
       transform="matrix(1.1515139,0,0,1.1515139,-3.6363334,-155.81119)">
      <path
         sodipodi:nodetypes="cccccccccccc"
         id="path2830"
         d="m 39.552239,1024.5733 c 0,-4.6021 -1.763271,-9.1998 -5.274532,-12.7111 l -2.185842,2.1858 c 5.818446,5.8184 5.818446,15.2322 0,21.0507 l 2.185842,2.1858 c 3.511261,-3.5113 5.274532,-8.1091 5.274532,-12.7112 z m -5.916067,0 c 0,-3.0897 -1.182711,-6.1721 -3.540076,-8.5295 l -2.043287,2.0433 c 3.58098,3.5902 3.586682,9.4095 0,12.9962 l 2.043287,2.0196 c 2.357365,-2.3575 3.540076,-5.4398 3.540076,-8.5296 z"
         style="fill:#333333;fill-opacity:1;stroke:none" />
      <rect
         y="1042.1742"
         x="8.4477606"
         height="2.6880414"
         width="31.104479"
         id="rect2816"
         style="fill:#333333;fill-opacity:1;fill-rule:nonzero;stroke:none" />
      <path
         style="fill:#333333;fill-opacity:1;stroke:none"
         d="m 8.4477603,1024.5733 c 0,-4.6021 1.7632717,-9.1998 5.2745327,-12.7111 l 2.185842,2.1858 c -5.818446,5.8184 -5.818446,15.2322 0,21.0507 l -2.185842,2.1858 c -3.511261,-3.5113 -5.2745327,-8.1091 -5.2745327,-12.7112 z m 5.9160677,0 c 0,-3.0897 1.182711,-6.1721 3.540076,-8.5295 l 2.043287,2.0433 c -3.58098,3.5902 -3.586682,9.4095 0,12.9962 l -2.043287,2.0196 c -2.357365,-2.3575 -3.540076,-5.4398 -3.540076,-8.5296 z"
         id="path2818"
         sodipodi:nodetypes="cccccccccccc" />
      <path
         transform="matrix(0.76029292,0,0,0.76029292,4.5597003,1010.0156)"
         d="m 30.557115,19.147518 c 0,2.754591 -2.233038,4.987628 -4.987628,4.987628 -2.754591,0 -4.987628,-2.233037 -4.987628,-4.987628 0,-2.754591 2.233037,-4.987628 4.987628,-4.987628 2.75459,0 4.987628,2.233037 4.987628,4.987628 z"
         sodipodi:ry="4.987628"
         sodipodi:rx="4.987628"
         sodipodi:cy="19.147518"
         sodipodi:cx="25.569487"
         id="path2820"
         style="fill:#333333;fill-opacity:1;fill-rule:nonzero;stroke:none"
         sodipodi:type="arc" />
      <path
         sodipodi:nodetypes="ccccc"
         id="rect2822"
         d="m 22.336859,1024.7463 3.326282,0 0.760673,19.3464 -4.847628,3e-4 0.760673,-19.3467 z"
         style="fill:#333333;fill-opacity:1;fill-rule:nonzero;stroke:none" />
    </g>
  </g>
</svg>
