<?xml version="1.0" encoding="UTF-8" standalone="no"?>
<!-- Created with Inkscape (http://www.inkscape.org/) -->

<svg
   xmlns:dc="http://purl.org/dc/elements/1.1/"
   xmlns:cc="http://creativecommons.org/ns#"
   xmlns:rdf="http://www.w3.org/1999/02/22-rdf-syntax-ns#"
   xmlns:svg="http://www.w3.org/2000/svg"
   xmlns="http://www.w3.org/2000/svg"
   xmlns:sodipodi="http://sodipodi.sourceforge.net/DTD/sodipodi-0.dtd"
   xmlns:inkscape="http://www.inkscape.org/namespaces/inkscape"
   width="48"
   height="48"
   id="svg2"
   version="1.1"
   inkscape:version="0.47pre4 r22446"
   sodipodi:docname="nm-signal-25.svg">
  <defs
     id="defs4">
    <inkscape:perspective
       sodipodi:type="inkscape:persp3d"
       inkscape:vp_x="0 : 526.18109 : 1"
       inkscape:vp_y="0 : 1000 : 0"
       inkscape:vp_z="744.09448 : 526.18109 : 1"
       inkscape:persp3d-origin="372.04724 : 350.78739 : 1"
       id="perspective10" />
  </defs>
  <sodipodi:namedview
     id="base"
     pagecolor="#ffffff"
     bordercolor="#666666"
     borderopacity="1.0"
     inkscape:pageopacity="0.0"
     inkscape:pageshadow="2"
     inkscape:zoom="7.919596"
     inkscape:cx="12.513834"
     inkscape:cy="20.963509"
     inkscape:document-units="px"
     inkscape:current-layer="layer1"
     showgrid="false"
     inkscape:window-width="1280"
     inkscape:window-height="714"
     inkscape:window-x="0"
     inkscape:window-y="25"
     inkscape:window-maximized="1" />
  <metadata
     id="metadata7">
    <rdf:RDF>
      <cc:Work
         rdf:about="">
        <dc:format>image/svg+xml</dc:format>
        <dc:type
           rdf:resource="http://purl.org/dc/dcmitype/StillImage" />
        <dc:title></dc:title>
      </cc:Work>
    </rdf:RDF>
  </metadata>
  <g
     inkscape:label="Livello 1"
     inkscape:groupmode="layer"
     id="layer1"
     transform="translate(0,-1004.3622)">
    <path
       style="opacity:1;fill:#969696;fill-opacity:0.39215687;stroke:none"
       d="m 24.010678,1012.6667 c -8.034552,0 -16.0790084,3.0524 -22.2091647,9.1826 l 2.5625959,2.5626 c 10.8450288,-10.8451 28.4267518,-10.8451 39.2717818,0 l 2.562596,-2.5626 c -6.130156,-6.1302 -14.153258,-9.1827 -22.187809,-9.1826 z"
       id="path2830" />
    <path
       style="opacity:1;fill:#969696;fill-opacity:0.39215687;stroke:none"
       d="m 24.010678,1020.3971 c -6.053063,0 -12.123962,2.3221 -16.7422935,6.9404 l 2.8829205,2.8615 c 7.652893,-7.6529 20.044497,-7.6529 27.69739,0 l 2.882921,-2.8615 c -4.618331,-4.6183 -10.667875,-6.9404 -16.720938,-6.9404 z"
       id="path2823" />
    <path
       style="opacity:1;fill:#969696;fill-opacity:1;stroke:none"
       d="m 24.010678,1028.1704 c -4.06393,0 -8.132038,1.5547 -11.232712,4.6553 l 2.690725,2.6908 c 4.722143,-4.71 12.366502,-4.7175 17.083973,0 l 2.66937,-2.6908 c -3.100674,-3.1006 -7.147427,-4.6553 -11.211356,-4.6553 z"
       id="path2818" />
    <path
       sodipodi:type="arc"
       style="opacity:1;fill:#969696;fill-opacity:1;stroke:none"
       id="path2816"
       sodipodi:cx="-9.1071424"
       sodipodi:cy="26.214285"
       sodipodi:rx="16.428572"
       sodipodi:ry="16.428572"
       d="M 7.3214293,26.214285 A 16.428572,16.428572 0 0 1 -9.107142,42.642857 l -4e-7,-16.428572 z"
       transform="matrix(-0.34207925,-0.34207925,0.34207925,-0.34207925,11.918799,1049.9097)"
       sodipodi:start="0"
       sodipodi:end="1.5707963" />
  </g>
</svg>
