<?xml version="1.0" encoding="UTF-8" standalone="no"?>
<!-- Generator: Adobe Illustrator 13.0.0, SVG Export Plug-In . SVG Version: 6.00 Build 14948)  -->

<svg
   xmlns:dc="http://purl.org/dc/elements/1.1/"
   xmlns:cc="http://creativecommons.org/ns#"
   xmlns:rdf="http://www.w3.org/1999/02/22-rdf-syntax-ns#"
   xmlns:svg="http://www.w3.org/2000/svg"
   xmlns="http://www.w3.org/2000/svg"
   xmlns:xlink="http://www.w3.org/1999/xlink"
   xmlns:sodipodi="http://sodipodi.sourceforge.net/DTD/sodipodi-0.dtd"
   xmlns:inkscape="http://www.inkscape.org/namespaces/inkscape"
   version="1.0"
   id="Layer_1"
   x="0px"
   y="0px"
   width="48"
   height="48"
   viewBox="0 0 56.242838 43.125"
   enable-background="new 0 0 200 230"
   xml:space="preserve"
   sodipodi:version="0.32"
   inkscape:version="0.47pre4 r22446"
   sodipodi:docname="notification-device-firewire1.svg"
   inkscape:output_extension="org.inkscape.output.svg.inkscape"><metadata
   id="metadata56"><rdf:RDF><cc:Work
       rdf:about=""><dc:format>image/svg+xml</dc:format><dc:type
         rdf:resource="http://purl.org/dc/dcmitype/StillImage" /><dc:title></dc:title></cc:Work></rdf:RDF></metadata><defs
   id="defs54"><linearGradient
     id="linearGradient3631"><stop
       style="stop-color:#ffffff;stop-opacity:1;"
       offset="0"
       id="stop3633" /><stop
       style="stop-color:#dcdcdc;stop-opacity:1;"
       offset="1"
       id="stop3635" /></linearGradient><inkscape:perspective
     sodipodi:type="inkscape:persp3d"
     inkscape:vp_x="0 : 115 : 1"
     inkscape:vp_y="0 : 1000 : 0"
     inkscape:vp_z="200 : 115 : 1"
     inkscape:persp3d-origin="100 : 76.666667 : 1"
     id="perspective58" /><linearGradient
     inkscape:collect="always"
     xlink:href="#linearGradient3631"
     id="linearGradient3602"
     x1="29.043598"
     y1="-1.7314087"
     x2="29.043598"
     y2="39.278877"
     gradientUnits="userSpaceOnUse"
     gradientTransform="matrix(0.853442,0,0,0.853442,0,5.5976569)" /><linearGradient
     inkscape:collect="always"
     xlink:href="#linearGradient3631"
     id="linearGradient3610"
     x1="29.043598"
     y1="39.278881"
     x2="29.043598"
     y2="45.467262"
     gradientUnits="userSpaceOnUse" /><inkscape:perspective
     id="perspective18"
     inkscape:persp3d-origin="177.16534 : 118.11023 : 1"
     inkscape:vp_z="354.33069 : 177.16534 : 1"
     inkscape:vp_y="0 : 1000 : 0"
     inkscape:vp_x="0 : 177.16534 : 1"
     sodipodi:type="inkscape:persp3d" /><linearGradient
     id="linearGradient3618"><stop
       id="stop3620"
       offset="0"
       style="stop-color:#ffffff;stop-opacity:1;" /><stop
       id="stop3622"
       offset="1"
       style="stop-color:#dcdcdc;stop-opacity:1;" /></linearGradient></defs><sodipodi:namedview
   inkscape:window-height="714"
   inkscape:window-width="1280"
   inkscape:pageshadow="2"
   inkscape:pageopacity="0.0"
   guidetolerance="10.0"
   gridtolerance="10.0"
   objecttolerance="10.0"
   borderopacity="1.0"
   bordercolor="#666666"
   pagecolor="#ffffff"
   id="base"
   showgrid="false"
   inkscape:zoom="5.5520833"
   inkscape:cx="16.647449"
   inkscape:cy="13.645235"
   inkscape:window-x="0"
   inkscape:window-y="25"
   inkscape:current-layer="Layer_1"
   inkscape:window-maximized="1" />
<g
   id="g3"
   transform="matrix(2.63435,0,0,2.63435,-164.515,-437.83296)">
	<path
   id="path5"
   style="fill:none;stroke:#000000;stroke-width:0.175;stroke-dasharray:1.4, 1.05, 1.4, 1.05, 1.4, 1.05"
   d="" />
</g>























<path
   style="fill:url(#linearGradient3602);fill-opacity:1;fill-rule:nonzero;stroke:none"
   d="M 11.78125 4.125 L 9.78125 39.125 L 39.78125 39.125 L 37.78125 4.125 L 11.78125 4.125 z M 24.78125 8.53125 C 24.82857 8.5812474 26.6875 11.8125 26.6875 11.8125 L 25.28125 11.8125 L 25.28125 23 C 25.58509 22.685589 25.92792 22.418468 26.28125 22.15625 C 27.41193 21.317124 28.67149 20.625018 29.46875 19.65625 C 29.477344 19.633475 29.491978 19.582986 29.5 19.53125 C 29.517299 19.425284 29.521051 19.27082 29.53125 19.09375 C 29.551673 18.739613 29.567535 18.263361 29.5625 17.8125 C 29.559803 17.594408 29.567535 17.393288 29.5625 17.1875 L 27.96875 17.1875 L 27.96875 13.84375 L 32.1875 13.84375 L 32.1875 17.1875 L 30.75 17.1875 C 30.754702 17.390299 30.748037 17.597165 30.75 17.8125 C 30.755104 18.272574 30.740948 18.739659 30.71875 19.125 C 30.707655 19.317669 30.7119 19.507014 30.6875 19.65625 C 30.66309 19.805487 30.66715 19.905245 30.53125 20.09375 A 0.59481164 0.47144612 0 0 1 30.5 20.09375 C 29.54151 21.292056 28.15184 22.058495 27.09375 22.84375 C 26.03566 23.629004 25.3125 24.385265 25.3125 25.71875 L 25.28125 25.71875 L 25.28125 29.84375 A 3.0922313 2.4508943 0 0 1 24.75 34.6875 A 3.0922313 2.4508943 0 0 1 24.09375 29.84375 L 24.09375 29.21875 A 0.59520643 0.47175903 0 0 1 24.09375 29.15625 C 23.94747 27.925304 22.7868 26.914973 21.53125 26 C 20.90348 25.542512 20.25812 25.138448 19.75 24.6875 C 19.241879 24.236553 18.8125 23.725451 18.8125 23.125 C 18.8125 22.239254 18.857197 21.748032 18.875 20.90625 A 2.0576535 1.6308907 0 0 1 17.375 19.28125 A 2.0576535 1.6308907 0 0 1 19.4375 17.6875 A 2.0576535 1.6308907 0 0 1 20.0625 20.875 C 20.045004 21.744121 20 22.253183 20 23.125 C 20 23.356855 20.19873 23.652946 20.625 24.03125 C 21.05126 24.409554 21.66601 24.841372 22.3125 25.3125 C 22.91895 25.754442 23.56128 26.246874 24.09375 26.8125 L 24.09375 11.8125 L 22.8125 11.8125 C 22.8125 11.8125 24.733952 8.4812545 24.78125 8.53125 z "
   transform="matrix(1.1717258,0,0,1.1717258,0,-6.558919)"
   id="rect3590" /><path
   style="fill:url(#linearGradient3610);fill-opacity:1;fill-rule:nonzero;stroke:none"
   d="m 11.467711,39.278881 35.151776,0 -1.171759,6.188383 -32.808322,-3.86e-4 -1.171695,-6.187997 z"
   id="rect3592"
   sodipodi:nodetypes="ccccc" /></svg>