<?xml version="1.0" encoding="UTF-8" standalone="no"?>
<!-- Created with Inkscape (http://www.inkscape.org/) -->

<svg
   xmlns:dc="http://purl.org/dc/elements/1.1/"
   xmlns:cc="http://creativecommons.org/ns#"
   xmlns:rdf="http://www.w3.org/1999/02/22-rdf-syntax-ns#"
   xmlns:svg="http://www.w3.org/2000/svg"
   xmlns="http://www.w3.org/2000/svg"
   xmlns:xlink="http://www.w3.org/1999/xlink"
   xmlns:sodipodi="http://sodipodi.sourceforge.net/DTD/sodipodi-0.dtd"
   xmlns:inkscape="http://www.inkscape.org/namespaces/inkscape"
   width="48"
   height="48"
   id="svg2"
   version="1.1"
   inkscape:version="0.47pre4 r22446"
   sodipodi:docname="notification-message-IM.svg">
  <defs
     id="defs4">
    <linearGradient
       id="linearGradient3726">
      <stop
         style="stop-color:#ffffff;stop-opacity:1;"
         offset="0"
         id="stop3728" />
      <stop
         style="stop-color:#dcdcdc;stop-opacity:1;"
         offset="1"
         id="stop3730" />
    </linearGradient>
    <linearGradient
       inkscape:collect="always"
       id="linearGradient3605">
      <stop
         style="stop-color:#333333;stop-opacity:1;"
         offset="0"
         id="stop3607" />
      <stop
         style="stop-color:#333333;stop-opacity:0;"
         offset="1"
         id="stop3609" />
    </linearGradient>
    <linearGradient
       id="linearGradient3593">
      <stop
         style="stop-color:#ffffff;stop-opacity:1;"
         offset="0"
         id="stop3595" />
      <stop
         style="stop-color:#dcdcdc;stop-opacity:1;"
         offset="1"
         id="stop3597" />
    </linearGradient>
    <inkscape:perspective
       sodipodi:type="inkscape:persp3d"
       inkscape:vp_x="0 : 526.18109 : 1"
       inkscape:vp_y="0 : 1000 : 0"
       inkscape:vp_z="744.09448 : 526.18109 : 1"
       inkscape:persp3d-origin="372.04724 : 350.78739 : 1"
       id="perspective10" />
    <linearGradient
       inkscape:collect="always"
       xlink:href="#linearGradient3605"
       id="linearGradient3611"
       x1="-94.363998"
       y1="1056.5372"
       x2="45.515625"
       y2="1042.74"
       gradientUnits="userSpaceOnUse" />
    <inkscape:perspective
       id="perspective3648"
       inkscape:persp3d-origin="60 : 40 : 1"
       inkscape:vp_z="120 : 60 : 1"
       inkscape:vp_y="0 : 1000 : 0"
       inkscape:vp_x="0 : 60 : 1"
       sodipodi:type="inkscape:persp3d" />
    <linearGradient
       inkscape:collect="always"
       xlink:href="#linearGradient3726"
       id="linearGradient3732"
       x1="27.642859"
       y1="1011.0272"
       x2="27.642859"
       y2="1036.2684"
       gradientUnits="userSpaceOnUse" />
    <radialGradient
       inkscape:collect="always"
       xlink:href="#linearGradient3593"
       id="radialGradient3763"
       cx="24.000017"
       cy="1013.6392"
       fx="24.000017"
       fy="1013.6392"
       r="21.515625"
       gradientTransform="matrix(-0.65585463,1.1359792,-1.0277714,-0.59338113,1081.5298,1588.823)"
       gradientUnits="userSpaceOnUse" />
    <linearGradient
       inkscape:collect="always"
       xlink:href="#linearGradient3726"
       id="linearGradient3765"
       gradientUnits="userSpaceOnUse"
       x1="27.642859"
       y1="1011.0272"
       x2="27.642859"
       y2="1036.2684"
       gradientTransform="translate(-56.428572,-5.7142857)" />
    <linearGradient
       inkscape:collect="always"
       xlink:href="#linearGradient3726"
       id="linearGradient3780"
       x1="24.750298"
       y1="1014.7472"
       x2="24.750298"
       y2="1033.9"
       gradientUnits="userSpaceOnUse" />
    <radialGradient
       inkscape:collect="always"
       xlink:href="#linearGradient3593"
       id="radialGradient2842"
       gradientUnits="userSpaceOnUse"
       gradientTransform="matrix(-0.65585463,1.1359792,-1.0277714,-0.59338113,1081.5298,1588.823)"
       cx="24.000017"
       cy="1013.6392"
       fx="24.000017"
       fy="1013.6392"
       r="21.515625" />
    <linearGradient
       inkscape:collect="always"
       xlink:href="#linearGradient3726"
       id="linearGradient2844"
       gradientUnits="userSpaceOnUse"
       x1="24.750298"
       y1="1014.7472"
       x2="24.750298"
       y2="1033.9" />
    <linearGradient
       inkscape:collect="always"
       xlink:href="#linearGradient3726"
       id="linearGradient2846"
       gradientUnits="userSpaceOnUse"
       x1="24.750298"
       y1="1014.7472"
       x2="24.750298"
       y2="1033.9" />
    <radialGradient
       inkscape:collect="always"
       xlink:href="#linearGradient3593"
       id="radialGradient2851"
       gradientUnits="userSpaceOnUse"
       gradientTransform="matrix(-0.65585463,1.1359792,-1.0277714,-0.59338113,1081.5298,584.4608)"
       cx="24.000017"
       cy="1013.6392"
       fx="24.000017"
       fy="1013.6392"
       r="21.515625" />
    <linearGradient
       inkscape:collect="always"
       xlink:href="#linearGradient3726"
       id="linearGradient2853"
       gradientUnits="userSpaceOnUse"
       x1="24.750298"
       y1="1014.7472"
       x2="24.750298"
       y2="1033.9" />
    <linearGradient
       inkscape:collect="always"
       xlink:href="#linearGradient3726"
       id="linearGradient2855"
       gradientUnits="userSpaceOnUse"
       x1="24.750298"
       y1="1014.7472"
       x2="24.750298"
       y2="1033.9" />
    <linearGradient
       inkscape:collect="always"
       xlink:href="#linearGradient3726"
       id="linearGradient2858"
       gradientUnits="userSpaceOnUse"
       x1="24.750298"
       y1="1014.7472"
       x2="24.750298"
       y2="1033.9" />
    <linearGradient
       inkscape:collect="always"
       xlink:href="#linearGradient3593"
       id="linearGradient3633"
       x1="24"
       y1="3.90625"
       x2="24"
       y2="44.09375"
       gradientUnits="userSpaceOnUse" />
  </defs>
  <sodipodi:namedview
     id="base"
     pagecolor="#ffffff"
     bordercolor="#666666"
     borderopacity="1.0"
     inkscape:pageopacity="0.0"
     inkscape:pageshadow="2"
     inkscape:zoom="5.6"
     inkscape:cx="27.823197"
     inkscape:cy="31.799438"
     inkscape:document-units="px"
     inkscape:current-layer="layer1"
     showgrid="false"
     inkscape:window-width="1280"
     inkscape:window-height="714"
     inkscape:window-x="0"
     inkscape:window-y="25"
     inkscape:window-maximized="1" />
  <metadata
     id="metadata7">
    <rdf:RDF>
      <cc:Work
         rdf:about="">
        <dc:format>image/svg+xml</dc:format>
        <dc:type
           rdf:resource="http://purl.org/dc/dcmitype/StillImage" />
        <dc:title />
      </cc:Work>
    </rdf:RDF>
  </metadata>
  <g
     inkscape:label="Livello 1"
     inkscape:groupmode="layer"
     id="layer1"
     transform="translate(0,-1004.3622)">
    <path
       style="fill:url(#linearGradient3633);fill-opacity:1;fill-rule:nonzero;stroke:none"
       d="M 26.75 3.90625 C 16.394132 3.90625 8 10.9428 8 19.625 C 8 21.983 8.640373 24.21125 9.75 26.21875 L 2.5 44.09375 L 19.3125 34.0625 C 21.591134 34.888 24.109871 35.34375 26.75 35.34375 C 37.105868 35.34375 45.5 28.3071 45.5 19.625 C 45.5 10.9428 37.105868 3.90625 26.75 3.90625 z M 27.09375 10.375 C 28.428371 10.375 29.594061 10.5494 30.5625 10.875 C 31.539046 11.1923 32.333966 11.63285 32.96875 12.21875 C 33.603496 12.80475 34.096986 13.5286 34.40625 14.375 C 34.715475 15.2132 34.84373 16.154 34.84375 17.1875 C 34.84373 17.7409 34.823223 18.2972 34.75 18.875 C 34.68488 19.4528 34.560853 20.0173 34.40625 20.5625 C 34.251608 21.1078 34.064759 21.6368 33.8125 22.125 C 33.560202 22.6052 33.241193 23.0088 32.875 23.375 C 32.508771 23.7412 32.082014 24.0384 31.59375 24.25 C 31.11359 24.4534 30.564111 24.5625 29.9375 24.5625 C 29.603826 24.5625 29.284816 24.5103 29 24.4375 C 28.715156 24.3565 28.469713 24.24025 28.25 24.09375 C 28.03026 23.94725 27.842109 23.75905 27.6875 23.53125 C 27.541003 23.29525 27.431954 23.0511 27.375 22.75 C 27.049467 23.0755 26.746732 23.35775 26.4375 23.59375 C 26.136382 23.82155 25.824207 24.00975 25.53125 24.15625 C 25.23827 24.30275 24.972321 24.40365 24.6875 24.46875 C 24.410798 24.53375 24.112295 24.5625 23.84375 24.5625 C 23.493806 24.5625 23.206046 24.53375 22.9375 24.46875 C 22.668937 24.39575 22.430331 24.28645 22.21875 24.15625 C 22.015292 24.01795 21.833977 23.85155 21.6875 23.65625 C 21.541008 23.46095 21.410149 23.2442 21.3125 23 C 21.21484 22.7559 21.165684 22.4804 21.125 22.1875 C 21.0843 21.8945 21.0625 21.5918 21.0625 21.25 C 21.062494 20.9001 21.06803 20.47885 21.125 20.03125 C 21.18196 19.57555 21.276035 19.1052 21.40625 18.625 C 21.536451 18.1449 21.740879 17.67455 21.96875 17.21875 C 22.196607 16.75495 22.478834 16.3581 22.8125 16 C 23.154289 15.6338 23.536123 15.3447 24 15.125 C 24.463857 14.8971 25.0065 14.78125 25.625 14.78125 C 25.885405 14.78125 26.138986 14.81 26.375 14.875 C 26.619128 14.932 26.842762 15.02605 27.0625 15.15625 C 27.282214 15.28645 27.515287 15.46095 27.71875 15.65625 C 27.922187 15.85155 28.100898 16.07525 28.3125 16.34375 L 28.53125 15.28125 C 28.56379 15.16735 28.636053 15.057 28.75 15 C 28.863918 14.943 29.065741 14.9375 29.375 14.9375 C 29.52147 14.9375 29.652329 14.9235 29.75 14.9375 C 29.855779 14.9535 29.943018 14.99925 30 15.03125 C 30.05695 15.05525 30.077457 15.084 30.09375 15.125 C 30.11815 15.166 30.14126 15.22475 30.125 15.28125 L 29.03125 20.875 C 28.901028 21.583 28.92967 22.12695 29.125 22.46875 C 29.320298 22.80245 29.704737 22.96875 30.25 22.96875 C 30.583642 22.96875 30.887679 22.88185 31.15625 22.71875 C 31.424788 22.54785 31.640282 22.31605 31.84375 22.03125 C 32.047183 21.74645 32.236636 21.40565 32.375 21.03125 C 32.513328 20.64875 32.629214 20.25885 32.71875 19.84375 C 32.80825 19.42055 32.865542 19.0019 32.90625 18.5625 C 32.94692 18.123 32.96873 17.68825 32.96875 17.28125 C 32.968731 16.57325 32.882789 15.91605 32.6875 15.28125 C 32.500307 14.63835 32.15135 14.07395 31.6875 13.59375 C 31.223616 13.10545 30.624985 12.7224 29.84375 12.4375 C 29.070624 12.1446 28.078112 12 26.90625 12 C 25.945952 12 25.092438 12.1009 24.34375 12.3125 C 23.595044 12.5241 22.944654 12.79005 22.375 13.15625 C 21.805332 13.51435 21.313144 13.93425 20.90625 14.40625 C 20.499343 14.87825 20.159825 15.4004 19.875 15.9375 C 19.598302 16.4664 19.358394 17.001 19.1875 17.5625 C 19.016597 18.1159 18.902014 18.6667 18.8125 19.1875 C 18.72298 19.7002 18.657548 20.1692 18.625 20.625 C 18.60058 21.0807 18.59374 21.46395 18.59375 21.78125 C 18.593746 22.68465 18.702796 23.5013 18.90625 24.25 C 19.117835 24.9987 19.45605 25.67345 19.96875 26.21875 C 20.48144 26.76395 21.168613 27.16765 22.03125 27.46875 C 22.893871 27.76985 24.002269 27.9375 25.3125 27.9375 C 25.906564 27.9375 26.426095 27.8854 26.90625 27.8125 C 27.38638 27.7475 27.806302 27.67515 28.15625 27.59375 C 28.514309 27.52075 28.81151 27.4482 29.03125 27.375 C 29.250962 27.31 29.387355 27.28125 29.46875 27.28125 C 29.51756 27.28125 29.56118 27.2875 29.59375 27.3125 C 29.63443 27.3455 29.67121 27.3802 29.6875 27.4375 C 29.7119 27.5025 29.7106 27.598 29.71875 27.6875 C 29.72685 27.7855 29.74998 27.89295 29.75 28.03125 C 29.749985 28.14525 29.72686 28.2393 29.71875 28.3125 C 29.718735 28.3855 29.73496 28.443 29.71875 28.5 C 29.70246 28.565 29.65754 28.6387 29.625 28.6875 C 29.60057 28.7365 29.580063 28.7722 29.53125 28.8125 C 29.48241 28.8535 29.329738 28.9186 29.09375 29 C 28.865871 29.081 28.554999 29.1687 28.15625 29.25 C 27.765612 29.331 27.310208 29.3805 26.78125 29.4375 C 26.252267 29.4945 25.666005 29.53125 25.03125 29.53125 C 23.509431 29.53125 22.214185 29.3581 21.15625 29 C 20.10644 28.6419 19.261063 28.13605 18.59375 27.46875 C 17.934567 26.80145 17.449216 25.9984 17.15625 25.0625 C 16.863279 24.1267 16.718748 23.06185 16.71875 21.90625 C 16.718748 21.48305 16.74055 21.01395 16.78125 20.46875 C 16.83008 19.91535 16.909177 19.33725 17.03125 18.71875 C 17.161456 18.09205 17.334633 17.4554 17.5625 16.8125 C 17.790362 16.1614 18.079424 15.52475 18.4375 14.90625 C 18.803707 14.28775 19.26855 13.70145 19.78125 13.15625 C 20.302077 12.60285 20.893874 12.12575 21.59375 11.71875 C 22.301751 11.30375 23.127921 10.986 24.03125 10.75 C 24.942698 10.514 25.946277 10.375 27.09375 10.375 z M 25.71875 16.375 C 25.376942 16.375 25.057932 16.4536 24.78125 16.625 C 24.504547 16.7877 24.265941 17.01275 24.0625 17.28125 C 23.85904 17.54175 23.677726 17.82265 23.53125 18.15625 C 23.392895 18.48995 23.277009 18.8376 23.1875 19.1875 C 23.09797 19.5375 23.040682 19.88515 23 20.21875 C 22.96744 20.54435 22.96874 20.84155 22.96875 21.09375 C 22.968742 21.69595 23.069653 22.14325 23.28125 22.46875 C 23.500967 22.79435 23.862295 22.96875 24.375 22.96875 C 24.570302 22.96875 24.765289 22.94 24.96875 22.875 C 25.17219 22.802 25.397124 22.66955 25.625 22.53125 C 25.852853 22.38475 26.091459 22.19655 26.34375 21.96875 C 26.604154 21.73275 26.878243 21.47365 27.1875 21.15625 L 27.78125 17.96875 C 27.471993 17.44795 27.138008 17.05795 26.8125 16.78125 C 26.486967 16.50455 26.133778 16.375 25.71875 16.375 z "
       transform="translate(0,1004.3622)"
       id="path2816" />
  </g>
</svg>
