<?xml version="1.0" encoding="UTF-8" standalone="no"?>
<!-- Generator: Adobe Illustrator 13.0.0, SVG Export Plug-In . SVG Version: 6.00 Build 14948)  -->

<svg
   xmlns:dc="http://purl.org/dc/elements/1.1/"
   xmlns:cc="http://creativecommons.org/ns#"
   xmlns:rdf="http://www.w3.org/1999/02/22-rdf-syntax-ns#"
   xmlns:svg="http://www.w3.org/2000/svg"
   xmlns="http://www.w3.org/2000/svg"
   xmlns:xlink="http://www.w3.org/1999/xlink"
   xmlns:sodipodi="http://sodipodi.sourceforge.net/DTD/sodipodi-0.dtd"
   xmlns:inkscape="http://www.inkscape.org/namespaces/inkscape"
   version="1.0"
   id="Layer_1"
   x="0px"
   y="0px"
   width="48"
   height="48"
   viewBox="0 0 56.242838 43.125"
   enable-background="new 0 0 200 230"
   xml:space="preserve"
   sodipodi:version="0.32"
   inkscape:version="0.47pre4 r22446"
   sodipodi:docname="Firewire_Icon.svg"
   inkscape:output_extension="org.inkscape.output.svg.inkscape"><metadata
   id="metadata56"><rdf:RDF><cc:Work
       rdf:about=""><dc:format>image/svg+xml</dc:format><dc:type
         rdf:resource="http://purl.org/dc/dcmitype/StillImage" /><dc:title></dc:title></cc:Work></rdf:RDF></metadata><defs
   id="defs54"><linearGradient
     id="linearGradient3631"><stop
       style="stop-color:#ffffff;stop-opacity:1;"
       offset="0"
       id="stop3633" /><stop
       style="stop-color:#dcdcdc;stop-opacity:1;"
       offset="1"
       id="stop3635" /></linearGradient><inkscape:perspective
     sodipodi:type="inkscape:persp3d"
     inkscape:vp_x="0 : 115 : 1"
     inkscape:vp_y="0 : 1000 : 0"
     inkscape:vp_z="200 : 115 : 1"
     inkscape:persp3d-origin="100 : 76.666667 : 1"
     id="perspective58" /><linearGradient
     inkscape:collect="always"
     xlink:href="#linearGradient3631"
     id="linearGradient3637"
     x1="28.12142"
     y1="2.2290235"
     x2="28.12142"
     y2="40.938618"
     gradientUnits="userSpaceOnUse" /></defs><sodipodi:namedview
   inkscape:window-height="714"
   inkscape:window-width="1280"
   inkscape:pageshadow="2"
   inkscape:pageopacity="0.0"
   guidetolerance="10.0"
   gridtolerance="10.0"
   objecttolerance="10.0"
   borderopacity="1.0"
   bordercolor="#666666"
   pagecolor="#ffffff"
   id="base"
   showgrid="false"
   inkscape:zoom="7.21875"
   inkscape:cx="18.863827"
   inkscape:cy="25.039451"
   inkscape:window-x="0"
   inkscape:window-y="25"
   inkscape:current-layer="Layer_1"
   inkscape:window-maximized="1" />
<g
   id="g3"
   transform="matrix(2.63435,0,0,2.63435,-164.515,-437.83296)">
	<path
   id="path5"
   style="fill:none;stroke:#000000;stroke-width:0.175;stroke-dasharray:1.4, 1.05, 1.4, 1.05, 1.4, 1.05"
   d="" />
</g>






















<path
   style="fill:url(#linearGradient3637);fill-opacity:1"
   d="m 40.122646,2.2290235 -7.599896,7.599898 6.046874,6.0072235 7.599897,-7.5272025 -6.046875,-6.079919 z m -23.12351,0.29739 -6.925819,6.919209 2.306403,2.3130115 6.925819,-6.9654705 -2.306403,-2.26675 z m 4.612806,4.573154 -6.925818,6.9258195 2.313012,2.313012 6.91921,-6.9258195 -2.306404,-2.313012 z m 6.39713,5.9080945 c -4.0965,0 -7.414855,3.318829 -7.414855,7.414855 0,4.096024 3.318355,7.420923 7.414855,7.421464 4.096501,0 7.421465,-3.324964 7.421465,-7.421464 0,-4.0965 -3.32544,-7.414855 -7.421465,-7.414855 z m -0.211475,3.264651 c 0.0708,-0.0036 0.139786,0 0.211475,0 2.295011,0 4.156813,1.857096 4.156813,4.150204 0,2.294533 -1.861802,4.156813 -4.156813,4.156813 -2.294059,0 -4.150673,-1.86228 -4.150204,-4.156813 0,-2.221449 1.744047,-4.038826 3.938729,-4.150204 z m -4.685501,14.836319 0,3.258043 9.793953,0 0,-3.258043 -9.793953,0 z m 0,6.522694 0,3.264651 9.793953,0 0,-3.264651 -9.793953,0 z"
   id="path9" />
</svg>