<?xml version="1.0" encoding="UTF-8" standalone="no"?>
<!-- Created with Inkscape (http://www.inkscape.org/) -->

<svg
   xmlns:dc="http://purl.org/dc/elements/1.1/"
   xmlns:cc="http://creativecommons.org/ns#"
   xmlns:rdf="http://www.w3.org/1999/02/22-rdf-syntax-ns#"
   xmlns:svg="http://www.w3.org/2000/svg"
   xmlns="http://www.w3.org/2000/svg"
   xmlns:xlink="http://www.w3.org/1999/xlink"
   xmlns:sodipodi="http://sodipodi.sourceforge.net/DTD/sodipodi-0.dtd"
   xmlns:inkscape="http://www.inkscape.org/namespaces/inkscape"
   version="1.0"
   width="48"
   height="48"
   id="svg2"
   inkscape:version="0.47pre4 r22446"
   sodipodi:docname="Usb-svg.svg">
  <metadata
     id="metadata16">
    <rdf:RDF>
      <cc:Work
         rdf:about="">
        <dc:format>image/svg+xml</dc:format>
        <dc:type
           rdf:resource="http://purl.org/dc/dcmitype/StillImage" />
        <dc:title></dc:title>
      </cc:Work>
    </rdf:RDF>
  </metadata>
  <sodipodi:namedview
     pagecolor="#ffffff"
     bordercolor="#666666"
     borderopacity="1"
     objecttolerance="10"
     gridtolerance="10"
     guidetolerance="10"
     inkscape:pageopacity="0"
     inkscape:pageshadow="2"
     inkscape:window-width="1280"
     inkscape:window-height="714"
     id="namedview14"
     showgrid="false"
     inkscape:zoom="3.3302224"
     inkscape:cx="36.897075"
     inkscape:cy="66.203583"
     inkscape:window-x="0"
     inkscape:window-y="25"
     inkscape:window-maximized="1"
     inkscape:current-layer="svg2" />
  <defs
     id="defs4">
    <linearGradient
       id="linearGradient3618">
      <stop
         style="stop-color:#ffffff;stop-opacity:1;"
         offset="0"
         id="stop3620" />
      <stop
         style="stop-color:#dcdcdc;stop-opacity:1;"
         offset="1"
         id="stop3622" />
    </linearGradient>
    <inkscape:perspective
       sodipodi:type="inkscape:persp3d"
       inkscape:vp_x="0 : 177.16534 : 1"
       inkscape:vp_y="0 : 1000 : 0"
       inkscape:vp_z="354.33069 : 177.16534 : 1"
       inkscape:persp3d-origin="177.16534 : 118.11023 : 1"
       id="perspective18" />
    <linearGradient
       inkscape:collect="always"
       xlink:href="#linearGradient3618"
       id="linearGradient3624"
       x1="129.07768"
       y1="-33.953365"
       x2="129.07768"
       y2="-0.9533872"
       gradientUnits="userSpaceOnUse"
       gradientTransform="translate(-105.07769,41.453376)" />
  </defs>
  <path
     style="fill:url(#linearGradient3624);fill-opacity:1;fill-rule:nonzero;stroke:none"
     d="m 16.594695,21.045445 a 2.0576535,2.0576535 0 0 0 1.4959,2.035986 c -0.0178,1.062056 -0.0544,1.699441 -0.0544,2.816965 0,0.757574 0.41662,1.385443 0.92474,1.954391 0.50812,0.568949 1.144,1.112979 1.77177,1.690179 1.25555,1.1544 2.4259,2.40624 2.57218,3.959293 a 0.59520643,0.59520643 0 0 0 0.0156,0.08548 l 0,0.800407 a 3.0922313,3.0922313 0 0 0 0.65664,6.111843 3.0922313,3.0922313 0 0 0 0.53231,-6.135156 l 0,-5.210414 0.0117,0 c 0,-1.682424 0.74088,-2.634408 1.79897,-3.625143 1.05809,-0.990735 2.4413,-1.934539 3.39979,-3.446411 a 0.59481164,0.59481164 0 0 0 0.0155,-0.02331 c 0.1359,-0.237832 0.12712,-0.367335 0.15153,-0.555623 0.0244,-0.188288 0.0394,-0.401901 0.0505,-0.644987 0.0222,-0.486174 0.0284,-1.074746 0.0233,-1.65521 -0.002,-0.271682 -0.007,-0.540654 -0.0117,-0.796521 l 1.45705,0 0,-4.223505 -4.23516,0 0,4.223505 1.58915,0 c 0.005,0.259637 0.009,0.533016 0.0117,0.808177 0.005,0.568839 0.001,1.14235 -0.0194,1.589157 -0.0102,0.223404 -0.0254,0.414157 -0.0427,0.547851 -0.008,0.06527 -0.0302,0.122798 -0.0388,0.151533 3.7e-4,-0.0015 -5e-4,0.0056 0,0.0039 -0.79726,1.222269 -2.03209,2.092411 -3.16277,3.151115 -0.35333,0.330834 -0.69473,0.68736 -0.99857,1.084046 l 0,-14.112024 1.38323,0 c 0,0 -1.86045,-4.0671731 -1.90777,-4.1302531 -0.0473,-0.06308 -1.97381,4.1302531 -1.97381,4.1302531 l 1.3094,0 0,18.926121 c -0.53247,-0.713636 -1.1731,-1.334636 -1.77955,-1.892224 -0.64649,-0.594409 -1.26391,-1.127403 -1.69017,-1.604699 -0.42627,-0.477296 -0.62556,-0.86923 -0.62556,-1.161755 0,-1.09995 0.0369,-1.739845 0.0544,-2.836393 a 2.0576535,2.0576535 0 0 0 -0.62556,-4.017575 2.0576535,2.0576535 0 0 0 -2.0593,2.001017 z"
     id="rect1933" />
</svg>
