<?xml version="1.0" encoding="UTF-8" standalone="no"?>
<!-- Created with Inkscape (http://www.inkscape.org/) -->

<svg
   xmlns:dc="http://purl.org/dc/elements/1.1/"
   xmlns:cc="http://creativecommons.org/ns#"
   xmlns:rdf="http://www.w3.org/1999/02/22-rdf-syntax-ns#"
   xmlns:svg="http://www.w3.org/2000/svg"
   xmlns="http://www.w3.org/2000/svg"
   xmlns:xlink="http://www.w3.org/1999/xlink"
   xmlns:sodipodi="http://sodipodi.sourceforge.net/DTD/sodipodi-0.dtd"
   xmlns:inkscape="http://www.inkscape.org/namespaces/inkscape"
   width="48"
   height="48"
   id="svg2"
   version="1.1"
   inkscape:version="0.47pre4 r22446"
   sodipodi:docname="network-idle (copia).svg">
  <defs
     id="defs4">
    <linearGradient
       id="linearGradient3599">
      <stop
         style="stop-color:#ffffff;stop-opacity:1;"
         offset="0"
         id="stop3601" />
      <stop
         style="stop-color:#dcdcdc;stop-opacity:1;"
         offset="1"
         id="stop3603" />
    </linearGradient>
    <inkscape:perspective
       sodipodi:type="inkscape:persp3d"
       inkscape:vp_x="0 : 526.18109 : 1"
       inkscape:vp_y="0 : 1000 : 0"
       inkscape:vp_z="744.09448 : 526.18109 : 1"
       inkscape:persp3d-origin="372.04724 : 350.78739 : 1"
       id="perspective10" />
    <linearGradient
       inkscape:collect="always"
       xlink:href="#linearGradient3599"
       id="linearGradient3605"
       x1="24"
       y1="7.125"
       x2="24"
       y2="40.875"
       gradientUnits="userSpaceOnUse" />
  </defs>
  <sodipodi:namedview
     id="base"
     pagecolor="#ffffff"
     bordercolor="#666666"
     borderopacity="1.0"
     inkscape:pageopacity="0.0"
     inkscape:pageshadow="2"
     inkscape:zoom="5.6"
     inkscape:cx="25.009554"
     inkscape:cy="20.923307"
     inkscape:document-units="px"
     inkscape:current-layer="layer1"
     showgrid="false"
     inkscape:window-width="1278"
     inkscape:window-height="712"
     inkscape:window-x="0"
     inkscape:window-y="25"
     inkscape:window-maximized="1"
     showguides="true"
     inkscape:guide-bbox="true" />
  <metadata
     id="metadata7">
    <rdf:RDF>
      <cc:Work
         rdf:about="">
        <dc:format>image/svg+xml</dc:format>
        <dc:type
           rdf:resource="http://purl.org/dc/dcmitype/StillImage" />
        <dc:title></dc:title>
      </cc:Work>
    </rdf:RDF>
  </metadata>
  <g
     inkscape:label="Livello 1"
     inkscape:groupmode="layer"
     id="layer1"
     transform="translate(0,-1004.3622)">
    <path
       style="fill:url(#linearGradient3605);fill-opacity:1;fill-rule:nonzero;stroke:none"
       d="M 6.71875 7.125 L 6.71875 18.625 L 10.53125 18.625 L 10.53125 7.125 L 6.71875 7.125 z M 1.5 9.15625 L 1.5 25.4375 L 6.78125 25.4375 L 6.78125 40.875 L 10.59375 40.875 L 10.59375 25.4375 L 15.875 25.4375 L 15.875 9.15625 L 12.53125 9.15625 L 12.53125 20.53125 L 4.84375 20.53125 L 4.84375 9.15625 L 1.5 9.15625 z M 18.75 9.15625 L 18.75 12.03125 L 43.625 12.03125 L 43.625 32.15625 L 15.84375 32.15625 L 15.84375 28.3125 L 12.96875 28.3125 L 12.96875 35.03125 L 28.28125 35.03125 L 28.28125 38 L 16.3125 38 L 16.3125 40.875 L 28.28125 40.875 L 31.15625 40.875 L 43.15625 40.875 L 43.15625 38 L 31.15625 38 L 31.15625 35.03125 L 46.5 35.03125 L 46.5 9.15625 L 18.75 9.15625 z M 18.71875 14.90625 L 18.71875 29.28125 L 40.75 29.28125 L 40.75 14.90625 L 18.71875 14.90625 z "
       transform="translate(0,1004.3622)"
       id="rect3742" />
  </g>
</svg>
