<?xml version="1.0" encoding="UTF-8" standalone="no"?>
<!-- Generator: Adobe Illustrator 13.0.0, SVG Export Plug-In . SVG Version: 6.00 Build 14948)  -->

<svg
   xmlns:dc="http://purl.org/dc/elements/1.1/"
   xmlns:cc="http://creativecommons.org/ns#"
   xmlns:rdf="http://www.w3.org/1999/02/22-rdf-syntax-ns#"
   xmlns:svg="http://www.w3.org/2000/svg"
   xmlns="http://www.w3.org/2000/svg"
   xmlns:xlink="http://www.w3.org/1999/xlink"
   xmlns:sodipodi="http://sodipodi.sourceforge.net/DTD/sodipodi-0.dtd"
   xmlns:inkscape="http://www.inkscape.org/namespaces/inkscape"
   version="1.0"
   id="Layer_1"
   x="0px"
   y="0px"
   width="48"
   height="48"
   viewBox="0 0 56.242838 43.125"
   enable-background="new 0 0 200 230"
   xml:space="preserve"
   sodipodi:version="0.32"
   inkscape:version="0.47pre4 r22446"
   sodipodi:docname="notification-device-firewire1.svg"
   inkscape:output_extension="org.inkscape.output.svg.inkscape"><metadata
   id="metadata56"><rdf:RDF><cc:Work
       rdf:about=""><dc:format>image/svg+xml</dc:format><dc:type
         rdf:resource="http://purl.org/dc/dcmitype/StillImage" /><dc:title /></cc:Work></rdf:RDF></metadata><defs
   id="defs54"><linearGradient
     id="linearGradient3631"><stop
       style="stop-color:#ffffff;stop-opacity:1;"
       offset="0"
       id="stop3633" /><stop
       style="stop-color:#dcdcdc;stop-opacity:1;"
       offset="1"
       id="stop3635" /></linearGradient><inkscape:perspective
     sodipodi:type="inkscape:persp3d"
     inkscape:vp_x="0 : 115 : 1"
     inkscape:vp_y="0 : 1000 : 0"
     inkscape:vp_z="200 : 115 : 1"
     inkscape:persp3d-origin="100 : 76.666667 : 1"
     id="perspective58" /><linearGradient
     inkscape:collect="always"
     xlink:href="#linearGradient3631"
     id="linearGradient3602"
     x1="29.043598"
     y1="-1.7314087"
     x2="29.043598"
     y2="39.278877"
     gradientUnits="userSpaceOnUse"
     gradientTransform="matrix(0.853442,0,0,0.853442,0,5.5976569)" /><linearGradient
     inkscape:collect="always"
     xlink:href="#linearGradient3631"
     id="linearGradient3610"
     x1="29.043598"
     y1="39.278881"
     x2="29.043598"
     y2="45.467262"
     gradientUnits="userSpaceOnUse" /></defs><sodipodi:namedview
   inkscape:window-height="714"
   inkscape:window-width="1280"
   inkscape:pageshadow="2"
   inkscape:pageopacity="0.0"
   guidetolerance="10.0"
   gridtolerance="10.0"
   objecttolerance="10.0"
   borderopacity="1.0"
   bordercolor="#666666"
   pagecolor="#ffffff"
   id="base"
   showgrid="false"
   inkscape:zoom="5.5520833"
   inkscape:cx="16.903609"
   inkscape:cy="14.228522"
   inkscape:window-x="0"
   inkscape:window-y="25"
   inkscape:current-layer="Layer_1"
   inkscape:window-maximized="1" />
<g
   id="g3"
   transform="matrix(2.63435,0,0,2.63435,-164.515,-437.83296)">
	<path
   id="path5"
   style="fill:none;stroke:#000000;stroke-width:0.175;stroke-dasharray:1.4, 1.05, 1.4, 1.05, 1.4, 1.05"
   d="" />
</g>























<path
   style="fill:url(#linearGradient3602);fill-opacity:1;fill-rule:nonzero;stroke:none"
   d="M 11.78125 4.125 L 9.78125 39.125 L 39.78125 39.125 L 37.78125 4.125 L 11.78125 4.125 z M 31.90625 11.59375 L 35.46875 14.75 L 30.96875 18.65625 L 27.40625 15.53125 L 31.90625 11.59375 z M 18.1875 11.75 L 19.5625 12.9375 L 15.46875 16.53125 L 14.09375 15.34375 L 18.1875 11.75 z M 20.9375 14.125 L 22.28125 15.3125 L 18.1875 18.90625 L 16.8125 17.71875 L 20.9375 14.125 z M 24.71875 17.1875 C 27.146019 17.1875 29.125 18.909007 29.125 21.03125 C 29.125 23.153493 27.146301 24.875 24.71875 24.875 C 22.2912 24.87472 20.3125 23.153246 20.3125 21.03125 C 20.3125 18.909253 22.2912 17.1875 24.71875 17.1875 z M 24.59375 18.875 C 23.293201 18.932701 22.25 19.880401 22.25 21.03125 C 22.249722 22.219962 23.359311 23.1875 24.71875 23.1875 C 26.078753 23.1875 27.1875 22.219962 27.1875 21.03125 C 27.1875 19.843277 26.078753 18.875 24.71875 18.875 C 24.676267 18.875 24.635705 18.873122 24.59375 18.875 z M 21.8125 26.5625 L 27.625 26.5625 L 27.625 28.25 L 21.8125 28.25 L 21.8125 26.5625 z M 21.8125 29.9375 L 27.625 29.9375 L 27.625 31.625 L 21.8125 31.625 L 21.8125 29.9375 z "
   transform="matrix(1.1717258,0,0,1.1717258,0,-6.558919)"
   id="rect3590" /><path
   style="fill:url(#linearGradient3610);fill-opacity:1;fill-rule:nonzero;stroke:none"
   d="m 11.467711,39.278881 35.151776,0 -1.171759,6.188383 -32.808322,-3.86e-4 -1.171695,-6.187997 z"
   id="rect3592"
   sodipodi:nodetypes="ccccc" /></svg>