<?xml version="1.0" encoding="UTF-8" standalone="no"?>
<!-- Created with Inkscape (http://www.inkscape.org/) -->

<svg
   xmlns:dc="http://purl.org/dc/elements/1.1/"
   xmlns:cc="http://creativecommons.org/ns#"
   xmlns:rdf="http://www.w3.org/1999/02/22-rdf-syntax-ns#"
   xmlns:svg="http://www.w3.org/2000/svg"
   xmlns="http://www.w3.org/2000/svg"
   xmlns:sodipodi="http://sodipodi.sourceforge.net/DTD/sodipodi-0.dtd"
   xmlns:inkscape="http://www.inkscape.org/namespaces/inkscape"
   width="210mm"
   height="297mm"
   viewBox="0 0 210 297"
   version="1.1"
   id="svg8"
   inkscape:version="0.92.5 (2060ec1f9f, 2020-04-08)"
   sodipodi:docname="Icon.svg">
  <defs
     id="defs2" />
  <sodipodi:namedview
     id="base"
     pagecolor="#ffffff"
     bordercolor="#666666"
     borderopacity="1.0"
     inkscape:pageopacity="0.0"
     inkscape:pageshadow="2"
     inkscape:zoom="0.70710678"
     inkscape:cx="501.37633"
     inkscape:cy="558.46778"
     inkscape:document-units="mm"
     inkscape:current-layer="layer1"
     showgrid="false"
     showguides="true"
     inkscape:guide-bbox="true"
     inkscape:window-width="1920"
     inkscape:window-height="990"
     inkscape:window-x="0"
     inkscape:window-y="33"
     inkscape:window-maximized="1" />
  <metadata
     id="metadata5">
    <rdf:RDF>
      <cc:Work
         rdf:about="">
        <dc:format>image/svg+xml</dc:format>
        <dc:type
           rdf:resource="http://purl.org/dc/dcmitype/StillImage" />
        <dc:title></dc:title>
      </cc:Work>
    </rdf:RDF>
  </metadata>
  <g
     inkscape:label="Layer 1"
     inkscape:groupmode="layer"
     id="layer1">
    <path
       style="opacity:1;fill:#335c24;fill-opacity:0.94117647;stroke:none;stroke-width:0.75590551;stroke-linecap:round;stroke-linejoin:round;stroke-miterlimit:4;stroke-dasharray:none;stroke-opacity:1"
       d="M 379.00977 471.27344 L 379.00977 652.69141 L 560.42578 652.69141 L 560.42578 471.27344 L 379.00977 471.27344 z "
       transform="scale(0.26458333)"
       id="rect815" />
    <path
       style="opacity:1;fill:#b9fc9f;fill-opacity:0.94117647;stroke:none;stroke-width:0.2;stroke-linecap:round;stroke-linejoin:round;stroke-miterlimit:4;stroke-dasharray:none;stroke-opacity:1"
       d="m 107.30311,145.15959 c -1.14012,0 -2.05828,0.91763 -2.05828,2.05775 v 5.88388 c 0,1.14012 0.91816,2.05827 2.05828,2.05827 h 5.3547 c 1.14012,0 2.05776,-0.91815 2.05776,-2.05827 v -5.88388 c 0,-1.14012 -0.91764,-2.05775 -2.05776,-2.05775 z"
       id="rect818"
       inkscape:connector-curvature="0"
       sodipodi:nodetypes="sssssssss" />
    <path
       style="opacity:1;fill:#b9fc9f;fill-opacity:0.94117647;stroke:none;stroke-width:0.2;stroke-linecap:round;stroke-linejoin:round;stroke-miterlimit:4;stroke-dasharray:none;stroke-opacity:1"
       d="m 121.73468,145.39788 c -1.14012,0 -2.05828,0.91763 -2.05828,2.05775 v 5.88388 c 0,1.14012 0.91816,2.05827 2.05828,2.05827 h 5.3547 c 1.14012,0 2.05776,-0.91815 2.05776,-2.05827 v -5.88388 c 0,-1.14012 -0.91764,-2.05775 -2.05776,-2.05775 z"
       id="rect818-0"
       inkscape:connector-curvature="0"
       sodipodi:nodetypes="sssssssss" />
    <path
       style="opacity:1;fill:#b9fc9f;fill-opacity:0.94117647;stroke:none;stroke-width:0.2;stroke-linecap:round;stroke-linejoin:round;stroke-miterlimit:4;stroke-dasharray:none;stroke-opacity:1"
       d="m 136.16627,145.39788 c -1.14012,0 -2.05828,0.91763 -2.05828,2.05775 v 5.88388 c 0,1.14012 0.91816,2.05827 2.05828,2.05827 h 5.3547 c 1.14012,0 2.05776,-0.91815 2.05776,-2.05827 v -5.88388 c 0,-1.14012 -0.91764,-2.05775 -2.05776,-2.05775 z"
       id="rect818-0-2"
       inkscape:connector-curvature="0"
       sodipodi:nodetypes="sssssssss" />
    <path
       style="opacity:1;fill:#b9fc9f;fill-opacity:0.94117647;stroke:none;stroke-width:0.2;stroke-linecap:round;stroke-linejoin:round;stroke-miterlimit:4;stroke-dasharray:none;stroke-opacity:1"
       d="m 107.30311,158.38875 c -1.14012,0 -2.05828,0.91763 -2.05828,2.05775 v 5.88388 c 0,1.14012 0.91816,2.05827 2.05828,2.05827 h 5.3547 c 1.14012,0 2.05776,-0.91815 2.05776,-2.05827 v -5.88388 c 0,-1.14012 -0.91764,-2.05775 -2.05776,-2.05775 z"
       id="rect818-1"
       inkscape:connector-curvature="0"
       sodipodi:nodetypes="sssssssss" />
    <path
       style="opacity:1;fill:#b9fc9f;fill-opacity:0.94117647;stroke:none;stroke-width:0.2;stroke-linecap:round;stroke-linejoin:round;stroke-miterlimit:4;stroke-dasharray:none;stroke-opacity:1"
       d="m 121.73468,158.62704 c -1.14012,0 -2.05828,0.91763 -2.05828,2.05775 v 5.88388 c 0,1.14012 0.91816,2.05827 2.05828,2.05827 h 5.3547 c 1.14012,0 2.05776,-0.91815 2.05776,-2.05827 v -5.88388 c 0,-1.14012 -0.91764,-2.05775 -2.05776,-2.05775 z"
       id="rect818-0-0"
       inkscape:connector-curvature="0"
       sodipodi:nodetypes="sssssssss" />
    <path
       style="opacity:1;fill:#b9fc9f;fill-opacity:0.94117647;stroke:none;stroke-width:0.2;stroke-linecap:round;stroke-linejoin:round;stroke-miterlimit:4;stroke-dasharray:none;stroke-opacity:1"
       d="m 136.16627,158.62704 c -1.14012,0 -2.05828,0.91763 -2.05828,2.05775 v 5.88388 c 0,1.14012 0.91816,2.05827 2.05828,2.05827 h 5.3547 c 1.14012,0 2.05776,-0.91815 2.05776,-2.05827 v -5.88388 c 0,-1.14012 -0.91764,-2.05775 -2.05776,-2.05775 z"
       id="rect818-0-2-5"
       inkscape:connector-curvature="0"
       sodipodi:nodetypes="sssssssss" />
    <path
       style="opacity:1;fill:#b9fc9f;fill-opacity:0.94117647;stroke:none;stroke-width:0.75590551;stroke-linecap:round;stroke-linejoin:round;stroke-miterlimit:4;stroke-dasharray:none;stroke-opacity:1"
       d="M 404.55469 486.63477 C 400.24557 486.63477 396.77539 490.10299 396.77539 494.41211 L 396.77539 528.65039 C 396.77539 532.95951 400.24557 536.42969 404.55469 536.42969 L 431.3457 536.42969 L 431.3457 486.63477 L 404.55469 486.63477 z M 434.30469 486.63477 L 434.30469 536.42969 L 468.14844 536.42969 L 471.28711 536.42969 L 505.13086 536.42969 L 505.13086 486.63477 L 471.28711 486.63477 L 468.14844 486.63477 L 434.30469 486.63477 z M 508.08984 486.63477 L 508.08984 536.42969 L 534.88086 536.42969 C 539.18997 536.42969 542.66016 532.95951 542.66016 528.65039 L 542.66016 494.41211 C 542.66016 490.10299 539.18997 486.63477 534.88086 486.63477 L 508.08984 486.63477 z "
       transform="scale(0.26458333)"
       id="rect818-11" />
  </g>
</svg>
