<?xml version="1.0" encoding="UTF-8" standalone="no"?>
<!-- Created with Inkscape (http://www.inkscape.org/) -->

<svg
   xmlns:dc="http://purl.org/dc/elements/1.1/"
   xmlns:cc="http://creativecommons.org/ns#"
   xmlns:rdf="http://www.w3.org/1999/02/22-rdf-syntax-ns#"
   xmlns:svg="http://www.w3.org/2000/svg"
   xmlns="http://www.w3.org/2000/svg"
   xmlns:sodipodi="http://sodipodi.sourceforge.net/DTD/sodipodi-0.dtd"
   xmlns:inkscape="http://www.inkscape.org/namespaces/inkscape"
   width="210mm"
   height="297mm"
   viewBox="0 0 210 297"
   version="1.1"
   id="svg8"
   inkscape:version="0.92.5 (2060ec1f9f, 2020-04-08)"
   sodipodi:docname="Icon.svg">
  <defs
     id="defs2" />
  <sodipodi:namedview
     id="base"
     pagecolor="#ffffff"
     bordercolor="#666666"
     borderopacity="1.0"
     inkscape:pageopacity="0.0"
     inkscape:pageshadow="2"
     inkscape:zoom="0.70710678"
     inkscape:cx="501.37633"
     inkscape:cy="558.46778"
     inkscape:document-units="mm"
     inkscape:current-layer="layer1"
     showgrid="false"
     showguides="true"
     inkscape:guide-bbox="true"
     inkscape:window-width="1920"
     inkscape:window-height="990"
     inkscape:window-x="0"
     inkscape:window-y="33"
     inkscape:window-maximized="1" />
  <metadata
     id="metadata5">
    <rdf:RDF>
      <cc:Work
         rdf:about="">
        <dc:format>image/svg+xml</dc:format>
        <dc:type
           rdf:resource="http://purl.org/dc/dcmitype/StillImage" />
        <dc:title />
      </cc:Work>
    </rdf:RDF>
  </metadata>
  <g
     inkscape:label="Layer 1"
     inkscape:groupmode="layer"
     id="layer1">
    <path
       style="opacity:1;fill:#335c24;fill-opacity:0.94117647;stroke:none;stroke-width:0.75590551;stroke-linecap:round;stroke-linejoin:round;stroke-miterlimit:4;stroke-dasharray:none;stroke-opacity:1"
       d="M 379.00977 471.27344 L 379.00977 652.69141 L 560.42578 652.69141 L 560.42578 471.27344 L 379.00977 471.27344 z "
       transform="scale(0.26458333)"
       id="rect815"
       inkscape:export-xdpi="67.733841"
       inkscape:export-ydpi="67.733841" />
    <path
       style="opacity:0.451;fill:#9fdd88;fill-opacity:0.94509804;stroke:none;stroke-width:0.19999999;stroke-linecap:round;stroke-linejoin:round;stroke-miterlimit:4;stroke-dasharray:none;stroke-opacity:1"
       d="m 110.80807,145.88873 c -0.90473,0 -1.63333,0.72817 -1.63333,1.6329 v 4.66909 c 0,0.90473 0.7286,1.63332 1.63333,1.63332 h 4.24916 c 0.90473,0 1.63292,-0.72859 1.63292,-1.63332 v -4.66909 c 0,-0.90473 -0.72819,-1.6329 -1.63292,-1.6329 z"
       id="rect818"
       inkscape:connector-curvature="0"
       sodipodi:nodetypes="sssssssss"
       inkscape:export-xdpi="67.733841"
       inkscape:export-ydpi="67.733841" />
    <path
       style="opacity:0.812;fill:#b9fc9f;fill-opacity:0.94117647;stroke:none;stroke-width:0.19999999;stroke-linecap:round;stroke-linejoin:round;stroke-miterlimit:4;stroke-dasharray:none;stroke-opacity:1"
       d="m 122.26008,146.07782 c -0.90472,0 -1.63332,0.72818 -1.63332,1.63291 v 4.66909 c 0,0.90473 0.7286,1.63331 1.63332,1.63331 h 4.24917 c 0.90473,0 1.63291,-0.72858 1.63291,-1.63331 v -4.66909 c 0,-0.90473 -0.72818,-1.63291 -1.63291,-1.63291 z"
       id="rect818-0"
       inkscape:connector-curvature="0"
       sodipodi:nodetypes="sssssssss"
       inkscape:export-xdpi="67.733841"
       inkscape:export-ydpi="67.733841" />
    <path
       style="opacity:0.451;fill:#9fdd88;fill-opacity:0.94509804;stroke:none;stroke-width:0.19999999;stroke-linecap:round;stroke-linejoin:round;stroke-miterlimit:4;stroke-dasharray:none;stroke-opacity:1"
       d="m 133.71212,146.07782 c -0.90473,0 -1.63333,0.72818 -1.63333,1.63291 v 4.66909 c 0,0.90473 0.7286,1.63331 1.63333,1.63331 h 4.24916 c 0.90473,0 1.63291,-0.72858 1.63291,-1.63331 v -4.66909 c 0,-0.90473 -0.72818,-1.63291 -1.63291,-1.63291 z"
       id="rect818-0-2"
       inkscape:connector-curvature="0"
       sodipodi:nodetypes="sssssssss"
       inkscape:export-xdpi="67.733841"
       inkscape:export-ydpi="67.733841" />
    <path
       style="opacity:0.812;fill:#b9fc9f;fill-opacity:0.94117647;stroke:none;stroke-width:0.19999999;stroke-linecap:round;stroke-linejoin:round;stroke-miterlimit:4;stroke-dasharray:none;stroke-opacity:1"
       d="m 110.80807,156.38659 c -0.90473,0 -1.63333,0.72817 -1.63333,1.6329 v 4.66909 c 0,0.90473 0.7286,1.63332 1.63333,1.63332 h 4.24916 c 0.90473,0 1.63292,-0.72859 1.63292,-1.63332 v -4.66909 c 0,-0.90473 -0.72819,-1.6329 -1.63292,-1.6329 z"
       id="rect818-1"
       inkscape:connector-curvature="0"
       sodipodi:nodetypes="sssssssss"
       inkscape:export-xdpi="67.733841"
       inkscape:export-ydpi="67.733841" />
    <path
       style="opacity:0.451;fill:#9fdd88;fill-opacity:0.94509804;stroke:none;stroke-width:0.19999999;stroke-linecap:round;stroke-linejoin:round;stroke-miterlimit:4;stroke-dasharray:none;stroke-opacity:1"
       d="m 122.26008,156.57568 c -0.90472,0 -1.63332,0.72817 -1.63332,1.6329 v 4.66909 c 0,0.90473 0.7286,1.63332 1.63332,1.63332 h 4.24917 c 0.90473,0 1.63291,-0.72859 1.63291,-1.63332 v -4.66909 c 0,-0.90473 -0.72818,-1.6329 -1.63291,-1.6329 z"
       id="rect818-0-0"
       inkscape:connector-curvature="0"
       sodipodi:nodetypes="sssssssss"
       inkscape:export-xdpi="67.733841"
       inkscape:export-ydpi="67.733841" />
    <path
       style="opacity:0.812;fill:#b9fc9f;fill-opacity:0.94117647;stroke:none;stroke-width:0.19999999;stroke-linecap:round;stroke-linejoin:round;stroke-miterlimit:4;stroke-dasharray:none;stroke-opacity:1"
       d="m 133.71212,156.57568 c -0.90473,0 -1.63333,0.72817 -1.63333,1.6329 v 4.66909 c 0,0.90473 0.7286,1.63332 1.63333,1.63332 h 4.24916 c 0.90473,0 1.63291,-0.72859 1.63291,-1.63332 v -4.66909 c 0,-0.90473 -0.72818,-1.6329 -1.63291,-1.6329 z"
       id="rect818-0-2-5"
       inkscape:connector-curvature="0"
       sodipodi:nodetypes="sssssssss"
       inkscape:export-xdpi="67.733841"
       inkscape:export-ydpi="67.733841" />
    <path
       style="opacity:0.812;fill:#b9fc9f;fill-opacity:0.94117647;stroke:none;stroke-width:0.2;stroke-linecap:round;stroke-linejoin:round;stroke-miterlimit:4;stroke-dasharray:none;stroke-opacity:1"
       d="m 110.59803,132.8714 c -0.90473,0 -1.63332,0.72818 -1.63332,1.63291 v 7.18857 c 0,0.90474 0.72859,1.63333 1.63332,1.63333 H 116.223 V 132.8714 Z m 6.24623,0 v 10.45481 h 7.10574 0.65899 7.10574 V 132.8714 H 124.60899 123.95 Z m 15.49173,0 v 10.45481 h 5.62497 c 0.90473,0 1.63332,-0.72859 1.63332,-1.63333 v -7.18857 c 0,-0.90473 -0.72859,-1.63291 -1.63332,-1.63291 z"
       id="rect818-11"
       inkscape:connector-curvature="0"
       inkscape:export-xdpi="67.733841"
       inkscape:export-ydpi="67.733841" />
  </g>
</svg>
