<?xml version="1.0" encoding="UTF-8"?>
<svg width="14px" height="12px" viewBox="0 0 14 12" version="1.1" xmlns="http://www.w3.org/2000/svg" xmlns:xlink="http://www.w3.org/1999/xlink">
    <!-- Generator: Sketch 52.6 (67491) - http://www.bohemiancoding.com/sketch -->
    <title>Triangle 2</title>
    <desc>Created with Sketch.</desc>
    <g id="Page-1" stroke="none" stroke-width="1" fill="none" fill-rule="evenodd">
        <g id="Alt-1" transform="translate(-1279.000000, -788.000000)" fill="#0E0E0E">
            <g id="Triangle-2" transform="translate(1279.000000, 788.000000)">
                <path d="M13,9.96533517 L13,3.84445972 C13,3.61260721 12.9204553,3.41553554 12.7613636,3.25323879 C12.6022719,3.09094204 12.409092,3.00979488 12.1818182,3.00979488 L5.36363636,3.00979488 L5.36363636,1.79057474 C5.36363636,1.55872223 5.36363636,1.45796534 5.24489479,1.24672859 C5.12615322,1.03549184 4.75254878,1.11444837 4.52527492,1.11444837 L1.81818182,1.11444837 C1.59090795,1.11444837 1.19339679,1.08270618 1.09669839,1.24672859 C1,1.410751 1,1.55872223 1,1.79057474 L1,9.96533517 C1,10.1971877 1.07954466,10.3942593 1.23863636,10.5565561 C1.39772807,10.7188528 1.59090795,10.8 1.81818182,10.8 L12.1818182,10.8 C12.409092,10.8 12.6022719,10.7188528 12.7613636,10.5565561 C12.9204553,10.3942593 13,10.1971877 13,9.96533517 Z M14,3.84156715 L14,10.0307231 C14,10.5699326 13.8149057,11.0329424 13.4447115,11.4197666 C13.0745174,11.8065908 12.6314128,12 12.1153846,12 L1.88461538,12 C1.36858716,12 0.92548262,11.8065908 0.555288462,11.4197666 C0.185094303,11.0329424 0,10.5699326 0,10.0307231 L0,1.87229025 C0,1.33308079 0.0363202469,0.810017222 0.406514406,0.423193041 C0.776708564,0.0363688598 1.02660481,3.46389584e-14 1.54263304,3.46389584e-14 L4.43967319,0 C4.95570141,0 5.61298743,0.0363688598 5.98318159,0.423193041 C6.35337575,0.810017222 6.46153846,1.05175552 6.46153846,1.59096498 L6.46153846,1.87229025 L12.1153846,1.87229025 C12.6314128,1.87229025 13.0745174,2.06569944 13.4447115,2.45252362 C13.8149057,2.83934781 14,3.30235768 14,3.84156715 Z M9.96000418,6.98000418 L8.57071068,5.59071068 C8.53165825,5.55165825 8.46834175,5.55165825 8.42928932,5.59071068 L7.03999582,6.98000418 C7.01570926,6.96175986 7,6.93271448 7,6.9 L7,3.1 C7,3.04477153 7.04477153,3 7.1,3 L9.9,3 C9.95522847,3 10,3.04477153 10,3.1 L10,6.9 C10,6.93271448 9.98429074,6.96175986 9.96000418,6.98000418 Z" id="Shape"></path>
            </g>
        </g>
    </g>
</svg>