<?xml version="1.0" encoding="UTF-8" standalone="no"?>
<svg
   xmlns:dc="http://purl.org/dc/elements/1.1/"
   xmlns:cc="http://creativecommons.org/ns#"
   xmlns:rdf="http://www.w3.org/1999/02/22-rdf-syntax-ns#"
   xmlns:svg="http://www.w3.org/2000/svg"
   xmlns="http://www.w3.org/2000/svg"
   xmlns:sodipodi="http://sodipodi.sourceforge.net/DTD/sodipodi-0.dtd"
   xmlns:inkscape="http://www.inkscape.org/namespaces/inkscape"
   width="18px"
   height="18px"
   viewBox="0 0 18 18"
   version="1.1"
   id="svg4280"
   inkscape:version="0.91 r13725"
   sodipodi:docname="FriendDisk.svg">
  <metadata
     id="metadata4349">
    <rdf:RDF>
      <cc:Work
         rdf:about="">
        <dc:format>image/svg+xml</dc:format>
        <dc:type
           rdf:resource="http://purl.org/dc/dcmitype/StillImage" />
      </cc:Work>
    </rdf:RDF>
  </metadata>
  <sodipodi:namedview
     pagecolor="#ffffff"
     bordercolor="#666666"
     borderopacity="1"
     objecttolerance="10"
     gridtolerance="10"
     guidetolerance="10"
     inkscape:pageopacity="0"
     inkscape:pageshadow="2"
     inkscape:window-width="1920"
     inkscape:window-height="1022"
     id="namedview4347"
     showgrid="false"
     inkscape:zoom="8"
     inkscape:cx="9"
     inkscape:cy="9"
     inkscape:window-x="0"
     inkscape:window-y="30"
     inkscape:window-maximized="1"
     inkscape:current-layer="svg4280" />
  <!-- Generator: Sketch 52.6 (67491) - http://www.bohemiancoding.com/sketch -->
  <title
     id="title4282">F_Neg</title>
  <desc
     id="desc4284">Created with Sketch.</desc>
  <defs
     id="defs4286">
    <polygon
       id="path-1"
       points="9.06628478 7 9 7 9 7.06553398 9 15.934466 9 16 9.06628478 16 10.5540098 16 10.6276596 16 10.6276596 15.934466 10.6276596 12.0606796 17.9337152 12.0606796 18 12.0606796 18 11.9951456 18 10.6699029 18 10.6043689 17.9337152 10.6043689 10.6276596 10.6043689 10.6276596 8.45631068 17.9337152 8.45631068 18 8.45631068 18 8.3907767 18 7.06553398 18 7 17.9337152 7" />
    <filter
       x="-11.1%"
       y="-11.1%"
       width="122.2%"
       height="122.2%"
       filterUnits="objectBoundingBox"
       id="filter-2">
      <feGaussianBlur
         stdDeviation="0.5"
         in="SourceAlpha"
         result="shadowBlurInner1"
         id="feGaussianBlur4290" />
      <feOffset
         dx="0"
         dy="1"
         in="shadowBlurInner1"
         result="shadowOffsetInner1"
         id="feOffset4292" />
      <feComposite
         in="shadowOffsetInner1"
         in2="SourceAlpha"
         operator="arithmetic"
         k2="-1"
         k3="1"
         result="shadowInnerInner1"
         id="feComposite4294" />
      <feColorMatrix
         values="0 0 0 0 0   0 0 0 0 0   0 0 0 0 0  0 0 0 0.5 0"
         type="matrix"
         in="shadowInnerInner1"
         id="feColorMatrix4296" />
    </filter>
  </defs>
  <path
     style="fill:#333333;fill-opacity:1;fill-rule:nonzero;stroke:none"
     d="m 8.8650689,0.02781566 -1.281332,0.14454057 c -0.037523,0.004287 -0.064031,0.0380031 -0.059897,0.0755255 l 0.083339,0.74483959 c 0.00427,0.03753 0.037829,0.065469 0.075526,0.061203 L 8.9640356,0.90938267 c 0.037528,-0.00428 0.064168,-0.0380031 0.059899,-0.0755255 L 8.9405996,0.08901755 C 8.9364199,0.05166183 8.9025944,0.02354869 8.8650768,0.02781564 Z m 0.9792302,0.0091153 C 9.8124341,0.03281736 9.7833251,0.0543714 9.7791861,0.08641345 l -0.083335,0.63285244 c -0.00408,0.0318687 0.018918,0.0609753 0.050783,0.0651089 L 10.83264,0.92631046 c 0.03186,0.004114 0.06098,-0.0189157 0.06512,-0.0507839 l 0.08333,-0.63155103 c 0.0042,-0.0318687 -0.01892,-0.062144 -0.05078,-0.0664109 L 9.8442951,0.0369309 Z m -3.2176546,0.3646066 -1.4089439,0.5612339 c -0.041436,0.016449 -0.060724,0.064179 -0.044276,0.10547534 l 0.3255415,0.8190631 c 0.016621,0.041302 0.064011,0.060895 0.1054754,0.044274 L 7.0133851,1.3703496 c 0.041437,-0.01662 0.060897,-0.062711 0.044277,-0.1041734 L 6.7321199,0.44711313 c -0.016621,-0.0412694 -0.064177,-0.0618567 -0.105476,-0.0455756 z m 5.2425225,0.0104173 c -0.02571,-0.00942 -0.05439,0.004247 -0.0638,0.0299499 l -0.186216,0.50914721 c -0.0095,0.0255282 0.0043,0.0543789 0.02994,0.0638061 l 0.873753,0.3190313 c 0.02571,0.00942 0.05438,-0.00295 0.06379,-0.028648 l 0.186208,-0.50914755 c 0.0095,-0.0255283 -0.0043,-0.0543788 -0.02994,-0.0638061 L 11.869167,0.41195487 Z m 1.789176,0.76958054 c -0.0197,-0.012334 -0.04626,-0.00521 -0.0586,0.014324 l -0.243505,0.3893482 c -0.01234,0.019874 -0.0067,0.046429 0.01303,0.058597 l 0.670615,0.4192981 c 0.01989,0.012507 0.04626,0.00669 0.0586,-0.013022 l 0.243505,-0.390649 c 0.01233,-0.019708 0.0067,-0.04643 -0.01302,-0.058598 L 13.658344,1.1815353 Z M 4.3608751,1.4719187 c -0.024288,-0.00262 -0.049923,0.00439 -0.070317,0.020835 L 2.9037506,2.6139183 c -0.040776,0.032898 -0.047217,0.093514 -0.01432,0.1341233 l 0.6523855,0.8060415 c 0.033069,0.040609 0.093514,0.047219 0.1341232,0.014323 l 1.3868059,-1.121165 c 0.040603,-0.033069 0.047397,-0.092212 0.014327,-0.1328206 L 4.4246872,1.5070769 C 4.4082392,1.4866861 4.3851714,1.4745312 4.3608834,1.4719189 Z M 15.166253,2.2519166 c -0.01438,-0.013547 -0.03724,-0.013091 -0.05078,0.0013 l -0.269548,0.283872 c -0.01355,0.014394 -0.01178,0.03725 0.0026,0.050784 l 0.488316,0.462269 c 0.0144,0.013534 0.03726,0.013092 0.05078,-0.0013 l 0.268234,-0.283872 c 0.01354,-0.014394 0.0131,-0.037077 -0.0013,-0.050785 L 15.16622,2.2519186 Z M 8.9692424,2.3040034 8.0108475,2.412083 c -0.028095,0.00342 -0.047343,0.029194 -0.044276,0.057295 l 0.062504,0.5560255 c 0.00326,0.028101 0.027888,0.048643 0.05599,0.045575 l 0.957092,-0.1067779 c 0.028093,-0.00325 0.048643,-0.029194 0.045578,-0.057295 L 9.02523,2.3495789 C 9.02195,2.3214839 8.997166,2.3009359 8.969232,2.3040039 Z m 0.7318171,0.00651 c -0.023983,-0.00292 -0.046415,0.013948 -0.049479,0.037763 l -0.061203,0.4726862 c -0.00309,0.023988 0.013952,0.046415 0.037767,0.049482 l 0.8112505,0.1054739 c 0.02381,0.00309 0.04641,-0.013774 0.04948,-0.037762 l 0.0612,-0.4726869 c 0.0029,-0.023988 -0.01377,-0.045113 -0.03777,-0.04818 L 9.7010585,2.3105103 Z M 7.2959584,2.5839658 6.2425053,3.0032632 c -0.030822,0.012335 -0.046189,0.047288 -0.033855,0.07813 l 0.2448076,0.6133199 c 0.012507,0.031022 0.047116,0.046364 0.07813,0.033856 L 7.583738,3.3092723 C 7.61456,3.2969393 7.629927,3.2608553 7.617593,3.2298403 L 7.3740881,2.6178219 c -0.012334,-0.030995 -0.04729,-0.046191 -0.07813,-0.033856 z m 3.9182186,0.00781 c -0.01902,-0.00703 -0.03985,0.00311 -0.04687,0.022136 l -0.139331,0.3802329 c -0.0071,0.019195 0.0029,0.041153 0.02213,0.048181 l 0.653688,0.238296 c 0.0192,0.00703 0.03985,-0.00295 0.04687,-0.022136 l 0.139334,-0.3802323 c 0.0071,-0.019195 -0.0029,-0.039851 -0.02213,-0.046878 L 11.21418,2.5917782 Z m 1.337325,0.5755581 c -0.01474,-0.00909 -0.03372,-0.00432 -0.04297,0.010416 l -0.182304,0.2916876 c -0.0093,0.014735 -0.0045,0.033718 0.01042,0.042972 l 0.501334,0.313822 c 0.01474,0.00925 0.03372,0.00415 0.04297,-0.010417 l 0.182302,-0.2916853 c 0.0091,-0.014734 0.0044,-0.033891 -0.01042,-0.042971 L 12.551502,3.1673396 Z M 2.1758394,3.3170886 c -0.027968,0.00658 -0.052823,0.023268 -0.069014,0.049482 L 1.0025879,5.1518411 C 0.9702064,5.2042721 0.9867937,5.2732816 1.0390506,5.305497 l 1.039129,0.6419677 c 0.05243,0.032383 0.1214404,0.015969 0.1536559,-0.036461 L 3.3347696,4.1257343 C 3.366978,4.0733032 3.3507369,4.0042939 3.2983068,3.9720786 L 2.2604803,3.3301101 c -0.026302,-0.016192 -0.056671,-0.019597 -0.084641,-0.013022 z m 3.4260004,0.067713 c -0.018141,-0.00195 -0.036923,0.00207 -0.05209,0.014324 l -1.0365249,0.838595 c -0.030496,0.024845 -0.036222,0.069772 -0.01172,0.100267 l 0.4883125,0.6029032 c 0.024675,0.030329 0.069765,0.035092 0.100267,0.010417 L 6.1266079,4.1140142 c 0.030496,-0.024502 0.035095,-0.069765 0.01042,-0.1002664 L 5.6500189,3.4108446 c -0.012334,-0.015248 -0.030042,-0.024094 -0.048183,-0.026043 z m -1.632917,1.377692 c -0.020948,0.00493 -0.04001,0.018145 -0.05209,0.037762 l -0.8255734,1.334721 c -0.024162,0.039408 -0.011887,0.09043 0.027348,0.1145907 l 0.7760917,0.4805003 c 0.039236,0.023988 0.091731,0.011722 0.1158927,-0.027346 L 4.8348629,5.3680012 c 0.024161,-0.039237 0.011894,-0.090603 -0.027342,-0.1145906 L 4.0314295,4.7729112 c -0.019622,-0.01208 -0.041556,-0.015343 -0.062504,-0.010417 z m 4.7398858,1.3047707 c -0.1475258,0 -0.2682459,0.1208924 -0.2682459,0.2682465 l 0,11.3744252 c 0,0.148382 0.1207201,0.268246 0.2682459,0.268246 l 1.5886434,0 c 0.143414,0 0.26061,-0.112839 0.266944,-0.255225 8.67e-4,-0.0043 0,-0.0093 0,-0.01303 l 0,-4.949536 6.907993,0 c 0.143585,0 0.260411,-0.112668 0.266944,-0.255225 8.01e-4,-0.004 0.0013,-0.0091 0.0013,-0.01303 l 0,-1.393318 c 0,-0.147526 -0.120549,-0.268247 -0.268246,-0.268247 l -6.907994,0 0,-2.8335144 6.907994,0 c 0.143413,0 0.26041,-0.1123244 0.266944,-0.2552244 6.67e-4,-0.00427 0.0013,-0.00889 0.0013,-0.013021 l 0,-1.3933181 c 0,-0.147354 -0.120721,-0.2682464 -0.268247,-0.2682464 l -8.7635802,0 z M 0.7955432,6.1245598 C 0.74447996,6.1134229 0.69373537,6.1464175 0.68225469,6.1974813 L 0.29420918,7.9371757 c -0.011307,0.051063 0.0203879,0.10311 0.0716188,0.1145907 L 1.3789139,8.2770412 c 0.051237,0.011307 0.1018071,-0.021862 0.1132879,-0.072921 L 1.8802479,6.463123 C 1.8917287,6.4122357 1.8596934,6.3614885 1.8086287,6.3498343 L 0.7955432,6.1245593 Z m 2.1407615,0.7370267 c -0.038209,-0.0084 -0.0759,0.016654 -0.084641,0.05469 L 2.5612811,8.217141 c -0.00857,0.038382 0.016655,0.077376 0.05469,0.085943 l 0.7565591,0.1679801 c 0.038382,0.00857 0.076073,-0.015181 0.08464,-0.05339 L 3.7475539,7.1155066 c 0.00857,-0.038209 -0.016308,-0.075901 -0.05469,-0.08464 L 2.9363047,6.861584 Z m -1.7514138,1.983199 -0.8789623,0.071619 c -0.0443762,0.0036 -0.0778246,0.04287 -0.0742231,0.087246 l 0.12240308,1.5118155 c 0.003732,0.04437 0.0428696,0.07762 0.0872458,0.07422 l 0.87896222,-0.07292 c 0.044376,-0.0036 0.077824,-0.04287 0.074223,-0.08724 L 1.2721357,8.9190095 c -0.0036,-0.044376 -0.042869,-0.077624 -0.087245,-0.074224 z m 2.0417971,0.050783 -0.6562919,0.05339 c -0.033069,0.00274 -0.05859,0.033169 -0.05599,0.066411 l 0.092453,1.1289775 c 0.00274,0.03289 0.031869,0.05858 0.065111,0.056 l 0.657594,-0.05469 c 0.033069,-0.0026 0.057424,-0.03205 0.05469,-0.0651 L 3.2918008,8.9515636 c -0.00274,-0.033242 -0.031869,-0.05859 -0.065111,-0.055997 z M 3.3282572,10.604012 2.8021815,10.79543 c -0.026575,0.0098 -0.040842,0.03969 -0.031249,0.06641 l 0.3294485,0.905006 c 0.00976,0.02657 0.039856,0.04067 0.066411,0.03125 l 0.5260756,-0.191422 c 0.026535,-0.0096 0.041016,-0.03986 0.031249,-0.06641 L 3.394668,10.635263 c -0.00959,-0.02657 -0.039682,-0.04085 -0.066411,-0.03125 z m -2.007941,0.526075 -0.70447244,0.256527 c -0.0354954,0.01286 -0.0545239,0.0529 -0.0416694,0.08854 l 0.44013284,1.211014 c 0.012855,0.03546 0.052904,0.05322 0.088547,0.04037 l 0.7044722,-0.25523 c 0.035629,-0.01286 0.054517,-0.05308 0.041669,-0.08855 l -0.4401322,-1.211 c -0.012847,-0.03546 -0.05291,-0.05452 -0.088546,-0.04167 z m 2.5196922,0.964905 -0.3958585,0.26434 c -0.019874,0.01337 -0.025088,0.04116 -0.011722,0.0612 l 0.4544557,0.679731 c 0.013361,0.01987 0.041156,0.02509 0.061203,0.01172 l 0.3958588,-0.264338 c 0.020047,-0.01337 0.025088,-0.04133 0.011722,-0.0612 l -0.455757,-0.679732 c -0.013367,-0.02005 -0.039849,-0.02509 -0.059897,-0.01172 z m -1.7930831,1.019596 c -0.014734,-0.0029 -0.030909,2.05e-4 -0.044276,0.0092 l -0.5286801,0.354148 c -0.026728,0.01799 -0.033448,0.05531 -0.015628,0.08204 l 0.6094145,0.908912 c 0.017821,0.0269 0.05383,0.03493 0.080735,0.01693 l 0.5299811,-0.355492 c 0.026728,-0.01799 0.033448,-0.05383 0.015628,-0.08074 L 2.0846849,13.139302 c -0.0089,-0.01344 -0.023028,-0.0218 -0.037762,-0.02474 z m 2.6394914,0.188814 c -0.014908,-0.01402 -0.03917,-0.01343 -0.05339,0.0013 l -0.2786638,0.294289 c -0.014021,0.01474 -0.012301,0.03787 0.0026,0.05209 l 0.5039382,0.479197 c 0.014735,0.01406 0.038036,0.0136 0.05209,-0.0013 L 5.192957,13.835991 c 0.014021,-0.01491 0.012126,-0.03934 -0.0026,-0.05339 L 4.6864183,13.303404 Z m 0.9935526,0.942769 c -0.014733,-0.0091 -0.035022,-0.0045 -0.044276,0.01042 l -0.1796987,0.292987 c -0.00908,0.01491 -0.00433,0.03519 0.01042,0.04427 l 0.502636,0.309916 c 0.014908,0.0093 0.035196,0.0045 0.044276,-0.01042 l 0.1796997,-0.292987 c 0.00908,-0.01474 0.00447,-0.03503 -0.01042,-0.04427 l -0.502637,-0.309914 z m -2.5444331,0.494823 c -0.019708,-0.01883 -0.05147,-0.0171 -0.070316,0.0026 l -0.3724197,0.39197 c -0.018827,0.01987 -0.018402,0.05147 0.00133,0.07032 l 0.6758245,0.641969 c 0.019708,0.01887 0.05147,0.01727 0.070317,-0.0026 l 0.3724222,-0.39197 c 0.018827,-0.01989 0.018407,-0.05259 -0.00133,-0.07162 l -0.675828,-0.640668 z m 1.3295122,1.261801 c -0.019701,-0.01216 -0.046428,-0.0054 -0.058597,0.01432 l -0.2409006,0.391952 c -0.012161,0.01971 -0.00686,0.04512 0.013021,0.0573 l 0.6745224,0.41539 c 0.019701,0.01199 0.046429,0.0054 0.058597,-0.01433 L 5.152592,16.475474 c 0.012161,-0.01987 0.0054,-0.04643 -0.014327,-0.0586 L 4.465045,16.00279 Z m 1.5027,0.905005 c -0.018501,-0.007 -0.038723,0.0023 -0.045576,0.02084 l -0.1354251,0.367208 c -0.00686,0.01833 0.00233,0.03985 0.020835,0.04687 l 0.6315504,0.231785 c 0.018501,0.0069 0.040022,-0.0023 0.046876,-0.02084 L 6.6201325,17.18645 c 0.00669,-0.0185 -0.00213,-0.04003 -0.020835,-0.04687 L 5.9677461,16.9078 Z"
     id="path4175-2"
     inkscape:connector-curvature="0" />
</svg>
