<?xml version="1.0" encoding="UTF-8"?>
<svg width="16px" height="12px" viewBox="0 0 16 12" version="1.1" xmlns="http://www.w3.org/2000/svg" xmlns:xlink="http://www.w3.org/1999/xlink">
    <!-- Generator: Sketch 52.6 (67491) - http://www.bohemiancoding.com/sketch -->
    <title>Linux Copy 3</title>
    <desc>Created with Sketch.</desc>
    <g id="Page-1" stroke="none" stroke-width="1" fill="none" fill-rule="evenodd" opacity="0.8">
        <g id="Alt-1" transform="translate(-1275.000000, -698.000000)" fill="#000000">
            <g id="Linux-Copy-3" transform="translate(1275.000000, 697.000000)">
                <path d="M12.926994,7.91192518 L12.926994,12.401403 C12.926994,12.5635238 12.8677585,12.7038186 12.7492855,12.8222915 C12.6308126,12.9407644 12.4905178,13 12.328397,13 L8.73681477,13 L8.73681477,9.40841777 L6.34242662,9.40841777 L6.34242662,13 L2.75084439,13 C2.58872355,13 2.44842877,12.9407644 2.32995585,12.8222915 C2.21148293,12.7038186 2.15224735,12.5635238 2.15224735,12.401403 L2.15224735,7.91192518 C2.15224735,7.90568976 2.15380618,7.89633677 2.15692389,7.88386594 C2.1600416,7.87139511 2.16160043,7.86204212 2.16160043,7.8558067 L7.5396207,3.42244739 L12.917641,7.8558067 C12.9238764,7.86827754 12.926994,7.88698351 12.926994,7.91192518 Z M15.0127306,7.26656274 L14.4328397,7.95869057 C14.3829564,8.01480932 14.3174855,8.0491036 14.2364251,8.06157443 L14.2083658,8.06157443 C14.1273054,8.06157443 14.0618345,8.0397508 14.0119512,7.99610288 L7.5396207,2.59937646 L1.06729022,7.99610288 C0.992465218,8.04598622 0.917641336,8.06780985 0.842816332,8.06157443 C0.761755911,8.0491036 0.696285015,8.01480932 0.646401679,7.95869057 L0.0665107984,7.26656274 C0.0166274625,7.20420857 -0.0051961696,7.13094352 0.00103924739,7.04676539 C0.00727466438,6.96258726 0.0415689434,6.89555754 0.103923113,6.8456742 L6.82878671,1.24318005 C7.02832006,1.0810592 7.26526235,1 7.5396207,1 C7.81397904,1 8.05092134,1.0810592 8.25045468,1.24318005 L10.5326059,3.15120811 L10.5326059,1.32735776 C10.5326059,1.24006192 10.5606648,1.1683557 10.6167836,1.11223694 C10.6729023,1.05611819 10.7446086,1.02805924 10.8319044,1.02805924 L12.6276955,1.02805924 C12.7149914,1.02805924 12.7866976,1.05611819 12.8428163,1.11223694 C12.8989351,1.1683557 12.926994,1.24006192 12.926994,1.32735776 L12.926994,5.14341387 L14.9753183,6.8456742 C15.0376725,6.89555754 15.0719667,6.96258726 15.0782021,7.04676539 C15.0844376,7.13094352 15.0626139,7.20420857 15.0127306,7.26656274 Z" id=""></path>
            </g>
        </g>
    </g>
</svg>