<?xml version="1.0" encoding="UTF-8" standalone="no"?>
<svg
   xmlns:dc="http://purl.org/dc/elements/1.1/"
   xmlns:cc="http://creativecommons.org/ns#"
   xmlns:rdf="http://www.w3.org/1999/02/22-rdf-syntax-ns#"
   xmlns:svg="http://www.w3.org/2000/svg"
   xmlns="http://www.w3.org/2000/svg"
   xmlns:sodipodi="http://sodipodi.sourceforge.net/DTD/sodipodi-0.dtd"
   xmlns:inkscape="http://www.inkscape.org/namespaces/inkscape"
   width="80mm"
   height="80mm"
   viewBox="0 0 80 80"
   version="1.1"
   id="svg8"
   inkscape:version="1.0 (4035a4f, 2020-05-01)"
   sodipodi:docname="Shared.svg">
  <defs
     id="defs2" />
  <sodipodi:namedview
     id="base"
     pagecolor="#ffffff"
     bordercolor="#666666"
     borderopacity="1.0"
     inkscape:pageopacity="0.0"
     inkscape:pageshadow="2"
     inkscape:zoom="1"
     inkscape:cx="94.152085"
     inkscape:cy="143.90748"
     inkscape:document-units="mm"
     inkscape:current-layer="layer1"
     inkscape:document-rotation="0"
     showgrid="false"
     fit-margin-top="0"
     fit-margin-left="0"
     fit-margin-right="0"
     fit-margin-bottom="0"
     inkscape:window-width="1920"
     inkscape:window-height="1024"
     inkscape:window-x="0"
     inkscape:window-y="28"
     inkscape:window-maximized="1" />
  <metadata
     id="metadata5">
    <rdf:RDF>
      <cc:Work
         rdf:about="">
        <dc:format>image/svg+xml</dc:format>
        <dc:type
           rdf:resource="http://purl.org/dc/dcmitype/StillImage" />
        <dc:title />
      </cc:Work>
    </rdf:RDF>
  </metadata>
  <g
     inkscape:label="Layer 1"
     inkscape:groupmode="layer"
     id="layer1"
     transform="translate(-50.948749,-46.18625)">
    <g
       style="opacity:0.8;stroke:none;fill:#000000;fill-opacity:1"
       id="g1603">
      <path
         transform="matrix(0.26458333,0,0,0.26458333,50.948749,46.18625)"
         d="M 65.138672 13.957031 C 30.942776 13.978839 2.9550706 41.981836 2.9550781 76.177734 C 2.9550781 110.38882 30.972512 138.4082 65.183594 138.4082 C 91.189543 138.4082 113.60128 122.20952 122.86328 99.416016 L 177.41797 133.94141 C 175.82473 139.42268 174.95313 145.20243 174.95312 151.17773 C 174.95312 157.25937 175.85377 163.13935 177.50195 168.70703 L 120.81836 198.4375 C 110.57062 178.04404 89.442044 163.94921 65.183594 163.94922 L 65.154297 163.94922 A 13.229669 13.229669 0 0 0 65.138672 163.94922 C 30.942281 163.97031 2.9550781 191.98132 2.9550781 226.17773 C 2.954874 260.38896 30.972372 288.4082 65.183594 288.4082 C 99.394816 288.4082 127.40645 260.38896 127.40625 226.17773 C 127.40625 222.63683 127.08964 219.16721 126.51367 215.7832 L 185.08594 185.06836 C 196.22462 202.0901 215.44657 213.4082 237.18164 213.4082 C 271.39275 213.40824 299.41211 185.38884 299.41211 151.17773 C 299.41211 117.71426 272.55567 90.357465 239.36719 89.169922 A 13.229669 13.229669 0 0 0 237.20312 88.949219 C 237.19566 88.949215 237.18916 88.949219 237.18164 88.949219 A 13.229669 13.229669 0 0 0 237.15234 88.949219 L 237.15234 115.40625 L 237.16016 115.40625 A 13.229669 13.229669 0 0 0 237.18164 115.40625 C 257.0945 115.40624 272.95508 131.26491 272.95508 151.17773 C 272.95508 171.09057 257.0945 186.95118 237.18164 186.95117 C 217.26882 186.95116 201.41016 171.09056 201.41016 151.17773 C 201.41016 131.27635 217.252 115.42254 237.15234 115.40625 L 237.14453 88.949219 C 215.36582 88.962645 196.11643 100.33915 184.99805 117.42578 L 127.2168 80.859375 C 127.33355 79.311984 127.41406 77.753536 127.41406 76.177734 C 127.41406 42.737065 100.59272 15.408171 67.435547 14.185547 A 13.229669 13.229669 0 0 0 65.183594 13.957031 L 65.146484 13.957031 L 65.146484 40.414062 L 65.162109 40.414062 A 13.229669 13.229669 0 0 0 65.183594 40.414062 C 85.096419 40.414062 100.95703 56.264913 100.95703 76.177734 C 100.95703 96.090557 85.096419 111.95117 65.183594 111.95117 C 45.270771 111.95117 29.412109 96.090557 29.412109 76.177734 C 29.412106 56.27918 45.249994 40.434789 65.146484 40.414062 L 65.138672 13.957031 z M 65.154297 190.40625 L 65.162109 190.40625 L 65.183594 190.40625 C 85.096413 190.40625 100.94921 206.26492 100.94922 226.17773 C 100.94934 246.09063 85.096504 261.95117 65.183594 261.95117 C 45.270684 261.95117 29.411988 246.09063 29.412109 226.17773 C 29.412109 206.27633 45.253947 190.42254 65.154297 190.40625 z "
         style="color:#000000;font-style:normal;font-variant:normal;font-weight:normal;font-stretch:normal;font-size:medium;line-height:normal;font-family:sans-serif;font-variant-ligatures:normal;font-variant-position:normal;font-variant-caps:normal;font-variant-numeric:normal;font-variant-alternates:normal;font-variant-east-asian:normal;font-feature-settings:normal;font-variation-settings:normal;text-indent:0;text-align:start;text-decoration:none;text-decoration-line:none;text-decoration-style:solid;text-decoration-color:#000000;letter-spacing:normal;word-spacing:normal;text-transform:none;writing-mode:lr-tb;direction:ltr;text-orientation:mixed;dominant-baseline:auto;baseline-shift:baseline;text-anchor:start;white-space:normal;shape-padding:0;shape-margin:0;inline-size:0;clip-rule:nonzero;display:inline;overflow:visible;visibility:visible;isolation:auto;mix-blend-mode:normal;color-interpolation:sRGB;color-interpolation-filters:linearRGB;solid-color:#000000;solid-opacity:1;vector-effect:none;fill:#000000;fill-opacity:1;fill-rule:nonzero;stroke:none;stroke-width:26.4567;stroke-linecap:butt;stroke-linejoin:round;stroke-miterlimit:4;stroke-dasharray:none;stroke-dashoffset:0;stroke-opacity:1;color-rendering:auto;image-rendering:auto;shape-rendering:auto;text-rendering:auto;enable-background:accumulate;stop-color:#000000;stop-opacity:1"
         id="path1607" />
    </g>
    <g
       style="opacity:0.64"
       id="g1619" />
    <g
       style="opacity:0.64"
       id="g1609">
      <path
         id="path1611"
         d="m 113.69492,73.221629 c -7.15702,0.0044 -12.95659,5.807559 -12.95659,12.964578 0,7.160142 5.80444,12.964586 12.96458,12.964588 7.16015,4e-6 12.96459,-5.804442 12.96459,-12.964588 0,-7.160142 -5.80445,-12.964582 -12.96459,-12.964578 0,0 -0.008,0 -0.008,0 z"
         style="color:#000000;font-style:normal;font-variant:normal;font-weight:normal;font-stretch:normal;font-size:medium;line-height:normal;font-family:sans-serif;font-variant-ligatures:normal;font-variant-position:normal;font-variant-caps:normal;font-variant-numeric:normal;font-variant-alternates:normal;font-variant-east-asian:normal;font-feature-settings:normal;font-variation-settings:normal;text-indent:0;text-align:start;text-decoration:none;text-decoration-line:none;text-decoration-style:solid;text-decoration-color:#000000;letter-spacing:normal;word-spacing:normal;text-transform:none;writing-mode:lr-tb;direction:ltr;text-orientation:mixed;dominant-baseline:auto;baseline-shift:baseline;text-anchor:start;white-space:normal;shape-padding:0;shape-margin:0;inline-size:0;clip-rule:nonzero;display:inline;overflow:visible;visibility:visible;isolation:auto;mix-blend-mode:normal;color-interpolation:sRGB;color-interpolation-filters:linearRGB;solid-color:#000000;solid-opacity:1;vector-effect:none;fill:#000000;fill-opacity:0;fill-rule:nonzero;stroke:none;stroke-width:7;stroke-linecap:butt;stroke-linejoin:round;stroke-miterlimit:4;stroke-dasharray:none;stroke-dashoffset:0;stroke-opacity:1.0;color-rendering:auto;image-rendering:auto;shape-rendering:auto;text-rendering:auto;enable-background:accumulate;stop-color:#000000;stop-opacity:1;" />
    </g>
  </g>
</svg>
