<?xml version="1.0" encoding="UTF-8"?>
<svg width="10px" height="12px" viewBox="0 0 10 12" version="1.1" xmlns="http://www.w3.org/2000/svg" xmlns:xlink="http://www.w3.org/1999/xlink">
    <!-- Generator: Sketch 52.6 (67491) - http://www.bohemiancoding.com/sketch -->
    <title>Shape</title>
    <desc>Created with Sketch.</desc>
    <g id="Page-1" stroke="none" stroke-width="1" fill="none" fill-rule="evenodd" opacity="0.8">
        <g id="Alt-1" transform="translate(-1275.000000, -754.000000)" fill="#000000" fill-rule="nonzero">
            <path d="M1276.14774,765.354394 C1276.76701,765.429975 1277.46281,765.839956 1278.0451,765.912337 C1278.63053,765.98788 1278.81169,765.504909 1278.81169,765.504909 C1278.81169,765.504909 1279.47047,765.354394 1280.16307,765.337061 C1280.85633,765.317214 1281.51258,765.484413 1281.51258,765.484413 C1281.51258,765.484413 1281.63984,765.78228 1281.8774,765.912337 C1282.11496,766.044908 1282.62643,766.062851 1282.95424,765.709899 C1283.28268,765.354394 1284.15897,764.906585 1284.65102,764.626662 C1285.1462,764.34609 1285.05532,763.918205 1284.74443,763.788148 C1284.43355,763.658129 1284.17906,763.453138 1284.19848,763.059805 C1284.21541,762.66971 1283.92395,762.409634 1283.92395,762.409634 C1283.92395,762.409634 1284.17906,761.551273 1283.9415,760.840225 C1283.70394,760.132416 1282.92043,758.994093 1282.31808,758.138284 C1281.71574,757.279923 1282.22717,756.288952 1281.67876,755.022514 C1281.13027,753.754172 1279.70807,753.829143 1278.94149,754.369753 C1278.1749,754.9104 1278.40993,756.251123 1278.4469,756.887237 C1278.48388,757.520113 1278.46383,757.972989 1278.393,758.135732 C1278.32218,758.300989 1277.82763,758.901217 1277.49919,759.404074 C1277.17139,759.909483 1276.93379,760.952987 1276.69373,761.383463 C1276.45866,761.811387 1276.6229,762.201482 1276.6229,762.201482 C1276.6229,762.201482 1276.4587,762.25912 1276.32894,762.539729 C1276.20168,762.817101 1275.9472,762.949672 1275.489,763.040034 C1275.03393,763.135462 1275.03393,763.435272 1275.14363,763.770929 C1275.25393,764.105938 1275.14363,764.293633 1275.01637,764.721557 C1274.88915,765.149404 1275.52597,765.279423 1276.14774,765.354394 Z M1282.58506,763.40251 C1282.91037,763.547919 1283.37796,763.345481 1283.52024,763.200072 C1283.66193,763.05531 1283.7622,762.840072 1283.7622,762.840072 C1283.7622,762.840072 1283.90449,762.912453 1283.89006,763.142396 C1283.875,763.375576 1283.98784,763.708033 1284.20095,763.823348 C1284.41405,763.938014 1284.73936,764.098128 1284.57076,764.258281 C1284.39899,764.418433 1283.44878,764.809176 1283.16485,765.11409 C1282.88342,765.417061 1282.5136,765.664985 1282.28856,765.591956 C1282.06106,765.519575 1281.86234,765.201861 1281.96016,764.736795 C1282.06106,764.273671 1282.14631,763.765672 1282.13189,763.4755 C1282.11687,763.185329 1282.06106,762.794586 1282.13189,762.73691 C1282.20271,762.679882 1282.31555,762.707424 1282.31555,762.707424 C1282.31555,762.707424 1282.25907,763.257786 1282.58506,763.40251 Z M1280.47399,755.563162 C1280.78737,755.563162 1281.03999,755.880876 1281.03999,756.271618 C1281.03999,756.54899 1280.91273,756.789218 1280.72657,756.904532 C1280.67957,756.884685 1280.63066,756.862247 1280.57676,756.839161 C1280.68959,756.78217 1280.76791,756.636761 1280.76791,756.468913 C1280.76791,756.249218 1280.63569,756.068571 1280.46955,756.068571 C1280.30785,756.068571 1280.17306,756.24918 1280.17306,756.468913 C1280.17306,756.549028 1280.19252,756.629066 1280.22446,756.691847 C1280.12669,756.651466 1280.0383,756.616913 1279.96748,756.58937 C1279.9305,756.493904 1279.90854,756.386285 1279.90854,756.271656 C1279.90858,755.880914 1280.16053,755.563162 1280.47399,755.563162 Z M1279.69797,756.784113 C1279.85218,756.811656 1280.27587,756.999351 1280.43261,757.056989 C1280.58932,757.112075 1280.76292,757.214551 1280.74599,757.317065 C1280.72657,757.422741 1280.64572,757.422741 1280.43261,757.555351 C1280.222,757.685408 1279.76194,757.975579 1279.61462,757.995427 C1279.46794,758.015275 1279.38459,757.930703 1279.22784,757.827579 C1279.07113,757.722513 1278.77721,757.47718 1278.85113,757.347161 C1278.85113,757.347161 1279.08116,757.167161 1279.18147,757.074932 C1279.28178,756.979466 1279.54126,756.754628 1279.69797,756.784113 Z M1279.02226,755.675923 C1279.26922,755.675923 1279.47044,755.976342 1279.47044,756.34659 C1279.47044,756.413866 1279.46291,756.476609 1279.45102,756.53939 C1279.38958,756.559237 1279.32819,756.591923 1279.26922,756.644456 C1279.2404,756.669447 1279.21342,756.691847 1279.189,756.716837 C1279.22784,756.641904 1279.2429,756.534285 1279.22535,756.421523 C1279.1915,756.221675 1279.05924,756.073714 1278.92948,756.093561 C1278.79909,756.115999 1278.72137,756.299199 1278.75272,756.501637 C1278.7872,756.706628 1278.91692,756.854551 1279.04918,756.832151 C1279.05671,756.829599 1279.0636,756.827047 1279.07113,756.824456 C1279.00784,756.887237 1278.9489,756.942323 1278.88747,756.987161 C1278.70885,756.901942 1278.57659,756.647009 1278.57659,756.34659 C1278.57663,755.97379 1278.77468,755.675923 1279.02226,755.675923 Z M1277.64643,760.522511 C1277.90092,760.112569 1278.06512,759.216379 1278.31961,758.918512 C1278.57663,758.621293 1278.77468,757.98777 1278.68443,757.707846 C1278.68443,757.707846 1279.23287,758.378512 1279.61462,758.268341 C1279.99696,758.155579 1280.85633,757.502856 1280.98356,757.61497 C1281.11082,757.727694 1282.20521,760.187502 1282.31551,760.97093 C1282.42585,761.753711 1282.24219,762.352034 1282.24219,762.352034 C1282.24219,762.352034 1281.8235,762.239272 1281.76956,762.499348 C1281.71566,762.761977 1281.71566,763.713252 1281.71566,763.713252 C1281.71566,763.713252 1281.14966,764.513976 1280.27337,764.646547 C1279.39708,764.776604 1278.9583,764.681785 1278.9583,764.681785 L1278.46625,764.1059 C1278.46625,764.1059 1278.84863,764.048262 1278.79469,763.655576 C1278.74079,763.265481 1277.6263,762.724796 1277.42572,762.239234 C1277.22521,761.753673 1277.38882,760.933102 1277.64643,760.522511 Z M1275.47956,763.460186 C1275.52344,763.268034 1276.09131,763.268034 1276.30945,763.132872 C1276.52759,762.99771 1276.57142,762.60952 1276.74759,762.507044 C1276.92119,762.401977 1277.24214,762.774815 1277.37439,762.984872 C1277.50415,763.189862 1278.00123,764.086052 1278.20431,764.308947 C1278.40989,764.533785 1278.59858,764.831652 1278.53965,765.099423 C1278.48388,765.367156 1278.17486,765.562547 1278.17486,765.562547 C1277.89846,765.649671 1277.12747,765.309518 1276.77711,765.159614 C1276.42675,765.009099 1275.5354,764.964223 1275.4207,764.831652 C1275.30287,764.69649 1275.4771,764.398624 1275.52348,764.116109 C1275.56482,763.830433 1275.43509,763.652986 1275.47956,763.460186 Z" id="Shape"></path>
        </g>
    </g>
</svg>