<?xml version="1.0" encoding="UTF-8"?>
<svg width="10px" height="13px" viewBox="0 0 10 13" version="1.1" xmlns="http://www.w3.org/2000/svg" xmlns:xlink="http://www.w3.org/1999/xlink">
    <!-- Generator: Sketch 52.5 (67469) - http://www.bohemiancoding.com/sketch -->
    <title>Shape</title>
    <desc>Created with Sketch.</desc>
    <g id="Page-1" stroke="none" stroke-width="1" fill="none" fill-rule="evenodd" opacity="0.8">
        <g id="Desktop-HD-Copy-2" transform="translate(-22.000000, -923.000000)" fill="#34495E" fill-rule="nonzero">
            <g id="Blue-Copy-3" transform="translate(13.000000, 797.000000)">
                <g id="Devices" transform="translate(1.000000, 44.500000)">
                    <g id="Devicelist" transform="translate(4.000000, 6.000000)">
                        <g id="Group-3" transform="translate(4.000000, 16.000000)">
                            <path d="M1.14774141,71.3543945 C1.76701216,71.4299754 2.4628111,71.8399561 3.04510378,71.9123371 C3.63052767,71.9878799 3.81169037,71.5049087 3.81169037,71.5049087 C3.81169037,71.5049087 4.47047397,71.3543945 5.16306715,71.3370612 C5.8563313,71.3172136 6.51258011,71.4844135 6.51258011,71.4844135 C6.51258011,71.4844135 6.63984131,71.78228 6.87740301,71.9123371 C7.11496471,72.0449084 7.62643247,72.0628513 7.95424003,71.7098991 C8.28268129,71.3543945 9.15897195,70.9065852 9.65101877,70.6266615 C10.1461968,70.3460902 10.0553172,69.9182048 9.74443311,69.7881477 C9.43354898,69.6581287 9.17906386,69.4531383 9.1984848,69.0598052 C9.21540823,68.6697102 8.92394504,68.4096341 8.92394504,68.4096341 C8.92394504,68.4096341 9.17906386,67.5512727 8.94150216,66.8402254 C8.70394046,66.1324163 7.92043045,64.994093 7.31808313,64.138284 C6.71573581,63.2799225 7.2271663,62.2889516 6.67875775,61.0225142 C6.13027464,59.754172 4.70807294,59.8291434 3.94148636,60.3697526 C3.17489977,60.9103999 3.40992668,62.251123 3.44690474,62.887237 C3.48388281,63.5201129 3.46382817,63.9729888 3.39300325,64.1357316 C3.32217833,64.3009886 2.827634,64.9012169 2.49919274,65.4040738 C2.17138518,65.909483 1.93378621,66.9529873 1.693727,67.3834632 C1.45866281,67.8113868 1.62290208,68.2014818 1.62290208,68.2014818 C1.62290208,68.2014818 1.45870009,68.2591199 1.32894138,68.5397293 C1.20168018,68.8171006 0.947195052,68.9496719 0.488995085,69.0400338 C0.0339263261,69.1354623 0.0339263261,69.4352717 0.143630402,69.7709286 C0.253930898,70.105938 0.143630402,70.2936331 0.0163692008,70.7215567 C-0.110854724,71.1494041 0.52597315,71.2794231 1.14774141,71.3543945 Z M7.58505581,69.4025098 C7.91036586,69.5479192 8.37795944,69.3454812 8.52024298,69.2000718 C8.6619301,69.05531 8.76220328,68.840072 8.76220328,68.840072 C8.76220328,68.840072 8.90448682,68.9124529 8.8900609,69.1423956 C8.87500129,69.3755765 8.98783657,69.7080334 9.20094503,69.8233477 C9.41405349,69.9380143 9.73936354,70.0981285 9.57076295,70.2582808 C9.39899388,70.4184331 8.44878436,70.8091757 8.16485098,71.1140898 C7.88341511,71.4170611 7.51359719,71.6649848 7.28856032,71.5919563 C7.06106322,71.5195754 6.8623434,71.2018612 6.96015634,70.7367948 C7.06106322,70.2736712 7.14631406,69.7656715 7.13188814,69.4755002 C7.1168658,69.185329 7.06106322,68.7945863 7.13188814,68.7369101 C7.20271306,68.6798816 7.31554834,68.7074244 7.31554834,68.7074244 C7.31554834,68.7074244 7.25907479,69.2577861 7.58505581,69.4025098 Z M5.47398855,61.5631615 C5.78737019,61.5631615 6.03999151,61.8808756 6.03999151,62.2716183 C6.03999151,62.5489896 5.9127303,62.789218 5.72657259,62.9045322 C5.67956721,62.8846846 5.63066073,62.8622465 5.57675924,62.8391608 C5.68959452,62.7821704 5.76791198,62.6367609 5.76791198,62.4689134 C5.76791198,62.2492183 5.63569303,62.0685708 5.46955268,62.0685708 C5.3078482,62.0685708 5.17305719,62.2491802 5.17305719,62.4689134 C5.17305719,62.5490277 5.1925154,62.6290657 5.22446117,62.6918466 C5.1266855,62.6514657 5.03830346,62.6169133 4.96747853,62.5893705 C4.93050047,62.4939039 4.90854474,62.3862849 4.90854474,62.2716564 C4.90858202,61.8809137 5.16053236,61.5631615 5.47398855,61.5631615 Z M4.69797107,62.7841132 C4.85218302,62.8116561 5.27586515,62.9993512 5.43261189,63.0569893 C5.58932135,63.112075 5.76291696,63.2145511 5.74599353,63.3170653 C5.72657259,63.4227415 5.64572035,63.4227415 5.43261189,63.5553509 C5.22200094,63.685408 4.76193716,63.9755793 4.61462132,63.9954269 C4.46793918,64.0152745 4.38458943,63.9307031 4.2278427,63.8275794 C4.07113324,63.7225128 3.77720981,63.4771795 3.85112867,63.3471606 C3.85112867,63.3471606 4.08116056,63.1671607 4.18147101,63.0749321 C4.28178147,62.9794655 4.54126161,62.7546275 4.69797107,62.7841132 Z M4.02226404,61.6759233 C4.26921936,61.6759233 4.47043669,61.9763422 4.47043669,62.3465897 C4.47043669,62.4138658 4.46290688,62.4766086 4.45101575,62.5393896 C4.38958445,62.5592372 4.32819043,62.5919229 4.26921936,62.6444562 C4.2404048,62.6694466 4.21341678,62.6918466 4.18900082,62.7168371 C4.2278427,62.6419038 4.24290231,62.5342848 4.22534519,62.421523 C4.19149833,62.2216754 4.05924211,62.0737136 3.92948339,62.0935612 C3.79909099,62.1159993 3.72136995,62.2991992 3.7527193,62.5016372 C3.78719985,62.7066276 3.91692129,62.8545513 4.04917751,62.8321513 C4.05670732,62.8295989 4.06360343,62.8270466 4.07113324,62.8244561 C4.00783812,62.887237 3.94890433,62.9423227 3.88747303,62.9871608 C3.70884513,62.9019418 3.5765889,62.6470086 3.5765889,62.3465897 C3.57662618,61.9737899 3.77467503,61.6759233 4.02226404,61.6759233 Z M2.64643403,66.5225113 C2.90091915,66.1125686 3.06512114,65.2163786 3.31960627,64.9185121 C3.57662618,64.6212932 3.77467503,63.9877698 3.68442917,63.7078461 C3.68442917,63.7078461 4.23287499,64.3785124 4.61462132,64.268341 C4.99696407,64.1555792 5.8563313,63.5028557 5.98355523,63.61497 C6.11081643,63.7276937 7.20521057,66.1875019 7.31551107,66.9709301 C7.42584884,67.7537106 7.24218863,68.3520341 7.24218863,68.3520341 C7.24218863,68.3520341 6.82350152,68.2392723 6.76956275,68.4993484 C6.71566126,68.7619768 6.71566126,69.7132525 6.71566126,69.7132525 C6.71566126,69.7132525 6.1496583,70.5139759 5.27336764,70.6465472 C4.39707698,70.7766043 3.95829795,70.6817853 3.95829795,70.6817853 L3.46625113,70.1058999 C3.46625113,70.1058999 3.84863116,70.0482618 3.79469239,69.6555763 C3.74079089,69.2654813 2.62630484,68.7247959 2.4257212,68.2392342 C2.22521212,67.7536726 2.38881769,66.9331016 2.64643403,66.5225113 Z M0.479564188,69.4601859 C0.523438363,69.2680337 1.09130513,69.2680337 1.30944589,69.1328718 C1.52758665,68.99771 1.57142354,68.6095197 1.74759122,68.5070436 C1.92118683,68.401977 2.24213555,68.7748149 2.37439177,68.9848719 C2.50415049,69.1898623 3.00122961,70.0860523 3.20431075,70.3089474 C3.4098894,70.5337854 3.59858191,70.8316519 3.53964812,71.0994232 C3.48388281,71.3671564 3.17486249,71.5625468 3.17486249,71.5625468 C2.89845892,71.6496705 2.12747373,71.3095183 1.77711403,71.1596136 C1.42675432,71.0090994 0.535404047,70.9642233 0.42070495,70.8316519 C0.302874647,70.6964901 0.477103954,70.3986236 0.523475639,70.1161094 C0.564815028,69.8304334 0.435093592,69.6529858 0.479564188,69.4601859 Z" id="Shape"></path>
                        </g>
                    </g>
                </g>
            </g>
        </g>
    </g>
</svg>