<?xml version="1.0" encoding="UTF-8" standalone="no"?>
<!-- Created with Inkscape (http://www.inkscape.org/) -->

<svg
   xmlns:dc="http://purl.org/dc/elements/1.1/"
   xmlns:cc="http://creativecommons.org/ns#"
   xmlns:rdf="http://www.w3.org/1999/02/22-rdf-syntax-ns#"
   xmlns:svg="http://www.w3.org/2000/svg"
   xmlns="http://www.w3.org/2000/svg"
   xmlns:sodipodi="http://sodipodi.sourceforge.net/DTD/sodipodi-0.dtd"
   xmlns:inkscape="http://www.inkscape.org/namespaces/inkscape"
   width="210mm"
   height="297mm"
   viewBox="0 0 744.09448819 1052.3622047"
   id="svg2"
   version="1.1"
   inkscape:version="0.91 r"
   inkscape:export-filename="/home/m0ns00n/Desktop/VoiceIcon.png"
   inkscape:export-xdpi="300"
   inkscape:export-ydpi="300"
   sodipodi:docname="VoiceIcon.svg">
  <defs
     id="defs4" />
  <sodipodi:namedview
     id="base"
     pagecolor="#ffffff"
     bordercolor="#666666"
     borderopacity="1.0"
     inkscape:pageopacity="0.0"
     inkscape:pageshadow="2"
     inkscape:zoom="1"
     inkscape:cx="348.14286"
     inkscape:cy="477"
     inkscape:document-units="px"
     inkscape:current-layer="layer1"
     showgrid="false"
     inkscape:window-width="1920"
     inkscape:window-height="1022"
     inkscape:window-x="0"
     inkscape:window-y="32"
     inkscape:window-maximized="1" />
  <metadata
     id="metadata7">
    <rdf:RDF>
      <cc:Work
         rdf:about="">
        <dc:format>image/svg+xml</dc:format>
        <dc:type
           rdf:resource="http://purl.org/dc/dcmitype/StillImage" />
        <dc:title></dc:title>
      </cc:Work>
    </rdf:RDF>
  </metadata>
  <g
     inkscape:label="Layer 1"
     inkscape:groupmode="layer"
     id="layer1">
    <path
       style="color:#000000;clip-rule:nonzero;display:inline;overflow:visible;visibility:visible;opacity:1;isolation:auto;mix-blend-mode:normal;color-interpolation:sRGB;color-interpolation-filters:linearRGB;solid-color:#000000;solid-opacity:1;fill:#000000;fill-opacity:1;fill-rule:evenodd;stroke:none;stroke-width:2;stroke-linecap:butt;stroke-linejoin:miter;stroke-miterlimit:4;stroke-dasharray:none;stroke-dashoffset:0;stroke-opacity:1;color-rendering:auto;image-rendering:auto;shape-rendering:auto;text-rendering:auto;enable-background:accumulate"
       d="m 368.53747,279.36133 c -1.00319,0 -1.99737,0.0337 -2.99023,0.0742 l 0,16.42578 c 0,5.263 -4.23701,9.5 -9.5,9.5 -5.263,0 -9.5,-4.237 -9.5,-9.5 l 0,-13.06055 c -28.31888,9.09466 -48.82652,35.29588 -49.4629,66.56055 l 22.9629,0 c 5.26299,0 9.5,4.237 9.5,9.5 0,5.263 -4.237,9.5 -9.5,9.5 l -23,0 0,13 23,0 c 5.26299,0 9.5,4.237 9.5,9.5 0,5.263 -4.237,9.5 -9.5,9.5 l -23,0 0,13 23,0 c 5.26299,0 9.5,4.237 9.5,9.5 0,5.263 -4.237,9.5 -9.5,9.5 l -23,0 0,13 23,0 c 5.26299,0 9.5,4.237 9.5,9.5 0,5.263 -4.237,9.5 -9.5,9.5 l -23,0 0,13 23,0 c 5.26299,0 9.5,4.237 9.5,9.5 0,5.263 -4.237,9.5 -9.5,9.5 l -23,0 0,13 23,0 c 5.26299,0 9.5,4.237 9.5,9.5 0,5.263 -4.237,9.5 -9.5,9.5 l -22.9629,0 c 0.79095,38.90977 32.3471,70 71.45313,70 l 7.01953,0 c 39.10603,0 70.66218,-31.09023 71.45313,-70 l -22.96289,0 c -5.263,0 -9.50001,-4.237 -9.5,-9.5 0,-5.263 4.237,-9.5 9.5,-9.5 l 23,0 0,-13 -23,0 c -5.263,0 -9.50001,-4.237 -9.5,-9.5 0,-5.263 4.237,-9.5 9.5,-9.5 l 23,0 0,-13 -23,0 c -5.263,0 -9.50001,-4.237 -9.5,-9.5 0,-5.263 4.237,-9.5 9.5,-9.5 l 23,0 0,-13 -23,0 c -5.263,0 -9.50001,-4.237 -9.5,-9.5 0,-5.263 4.237,-9.5 9.5,-9.5 l 23,0 0,-13 -23,0 c -5.263,0 -9.50001,-4.237 -9.5,-9.5 0,-5.263 4.237,-9.5 9.5,-9.5 l 23,0 0,-13 -23,0 c -5.263,0 -9.50001,-4.237 -9.5,-9.5 0,-5.263 4.237,-9.5 9.5,-9.5 l 22.96289,0 c -0.63639,-31.26535 -21.14306,-57.46839 -49.46289,-66.5625 l 0,13.0625 c 0,5.263 -4.23701,9.5 -9.5,9.5 -5.263,0 -9.5,-4.237 -9.5,-9.5 l 0,-16.42578 c -0.99234,-0.0405 -1.98758,-0.0742 -2.99024,-0.0742 l -7.01953,0 z"
       id="rect4138"
       inkscape:connector-curvature="0" />
    <path
       style="color:#000000;clip-rule:nonzero;display:inline;overflow:visible;visibility:visible;opacity:1;isolation:auto;mix-blend-mode:normal;color-interpolation:sRGB;color-interpolation-filters:linearRGB;solid-color:#000000;solid-opacity:1;fill:#000000;fill-opacity:1;fill-rule:evenodd;stroke:none;stroke-width:1.27834582;stroke-linecap:butt;stroke-linejoin:miter;stroke-miterlimit:4;stroke-dasharray:none;stroke-dashoffset:0;stroke-opacity:1;color-rendering:auto;image-rendering:auto;shape-rendering:auto;text-rendering:auto;enable-background:accumulate"
       d="m 283.9535,570.84766 c -10.08547,1.65285 -8.06836,7.70597 -8.06836,15.23828 6.34365,25.27643 48.07446,44.79344 82.28515,47.83789 l 0,47.95117 -80.85937,0 c -3.86881,0 -6.98438,2.35428 -6.98438,5.2793 l 0,6.66992 c 0,2.92501 3.11557,5.2793 6.98438,5.2793 l 93.01562,0 3.44141,0 93.01562,0 c 3.86881,0 6.98438,-2.35429 6.98438,-5.2793 l 0,-6.66992 c 0,-2.92502 -3.11557,-5.2793 -6.98438,-5.2793 l -80.85937,0 0,-47.95117 c 34.21069,-3.04445 75.94151,-22.56146 82.28516,-47.83789 0,-7.48838 -0.50627,-15.06567 -8.06836,-15.23828 -9.40807,0 -35.80512,40.32424 -88.09375,41.15234 -52.28864,-0.8281 -79.36399,-41.15234 -88.09375,-41.15234 z"
       id="rect4365"
       inkscape:connector-curvature="0"
       sodipodi:nodetypes="ccccssssccsssscccccc" />
  </g>
</svg>
