<?xml version="1.0" encoding="UTF-8"?>
<svg width="15px" height="12px" viewBox="0 0 15 12" version="1.1" xmlns="http://www.w3.org/2000/svg" xmlns:xlink="http://www.w3.org/1999/xlink">
    <!-- Generator: Sketch 52.5 (67469) - http://www.bohemiancoding.com/sketch -->
    <title>AddFolder</title>
    <desc>Created with Sketch.</desc>
    <g id="Page-1" stroke="none" stroke-width="1" fill="none" fill-rule="evenodd">
        <g id="Desktop-HD-Copy-2" transform="translate(-103.000000, -538.000000)">
            <g id="Blue-Copy-2" transform="translate(20.000000, 512.000000)">
                <g id="Navigation-pane">
                    <g id="AddFolder" transform="translate(83.000000, 26.000000)">
                        <path d="M10.9,5.58037115 L10.9,4.43276806 C10.9,4.26526342 10.8390158,4.12288661 10.7170455,4.00563336 C10.5950751,3.88838012 10.4469706,3.82975437 10.2727273,3.82975437 L5.67272727,3.82975437 C5.49848398,3.82975437 5.04545455,3.82975437 5.04545455,3.82975437 C5.04545455,3.82975437 5.04545455,3.39424532 5.04545455,3.22674068 L5.04545455,2.94891406 C5.04545455,2.78140942 5.04545455,2.70861638 4.95441934,2.55600584 C4.86338414,2.4033953 4.57695406,2.4604384 4.40271077,2.4604384 L2.32727273,2.4604384 C2.15302943,2.4604384 1.84827087,2.43750587 1.77413544,2.55600584 C1.7,2.67450581 1.7,2.78140942 1.7,2.94891406 L1.7,8.85486843 C1.7,9.02237307 1.76098424,9.16474988 1.88295455,9.28200313 C2.00492485,9.39925638 2.15302943,9.45788212 2.32727273,9.45788212 L8.65182272,9.45788212 C8.59921293,9.22296151 8.57142857,8.97842081 8.57142857,8.72727273 C8.57142857,7.23259074 9.5555263,5.97193616 10.9,5.58037115 Z M12.3979592,5.51384312 C13.8803384,5.80491622 15,7.13296161 15,8.72727273 C15,10.5347501 13.5609153,12 11.7857143,12 C10.8337502,12 9.97844362,11.5786357 9.38988589,10.9090909 L2.06632653,10.9090909 C1.62627331,10.9090909 1.24840719,10.7483782 0.932716837,10.4269481 C0.617026483,10.1055179 0.459183673,9.72078146 0.459183673,9.27272727 L0.459183673,2.49350649 C0.459183673,2.04545231 0.490156479,1.61081449 0.805846833,1.28938432 C1.12153719,0.967954136 1.33464113,0.937733562 1.77469435,0.937733562 L4.24520235,0.937733562 C4.68525557,0.937733562 5.24576917,0.967954136 5.56145952,1.28938432 C5.87714988,1.61081449 5.96938776,1.81168607 5.96938776,2.25974026 C5.96938776,2.41558442 5.96938776,2.49350649 5.96938776,2.49350649 C5.96938776,2.49350649 7.57653061,2.49350649 10.7908163,2.49350649 C11.2308695,2.49350649 11.6087357,2.65421917 11.924426,2.97564935 C12.2401164,3.29707953 12.3979592,3.68181594 12.3979592,4.12987013 L12.3979592,5.51384312 Z M14.0816327,8.40850059 C14.0816327,8.31995233 14.0511946,8.24468744 13.9903177,8.18270366 C13.9294408,8.12071988 13.8555199,8.08972845 13.7685529,8.08972845 L12.4118738,8.08972845 L12.4118738,6.70838253 C12.4118738,6.61983427 12.3814358,6.54456938 12.3205589,6.4825856 C12.259682,6.42060182 12.1857611,6.38961039 12.0987941,6.38961039 L11.4726345,6.38961039 C11.3856675,6.38961039 11.3117466,6.42060182 11.2508697,6.4825856 C11.1899927,6.54456938 11.1595547,6.61983427 11.1595547,6.70838253 L11.1595547,8.08972845 L9.8028757,8.08972845 C9.71590866,8.08972845 9.64198778,8.12071988 9.58111085,8.18270366 C9.52023393,8.24468744 9.48979592,8.31995233 9.48979592,8.40850059 L9.48979592,9.04604486 C9.48979592,9.13459312 9.52023393,9.20985801 9.58111085,9.27184179 C9.64198778,9.33382558 9.71590866,9.364817 9.8028757,9.364817 L11.1595547,9.364817 L11.1595547,10.7461629 C11.1595547,10.8347112 11.1899927,10.9099761 11.2508697,10.9719599 C11.3117466,11.0339436 11.3856675,11.0649351 11.4726345,11.0649351 L12.0987941,11.0649351 C12.1857611,11.0649351 12.259682,11.0339436 12.3205589,10.9719599 C12.3814358,10.9099761 12.4118738,10.8347112 12.4118738,10.7461629 L12.4118738,9.364817 L13.7685529,9.364817 C13.8555199,9.364817 13.9294408,9.33382558 13.9903177,9.27184179 C14.0511946,9.20985801 14.0816327,9.13459312 14.0816327,9.04604486 L14.0816327,8.40850059 Z" id="Combined-Shape" fill="#596A7B"></path>
                        <g id="Group" transform="translate(8.571429, 5.454545)"></g>
                    </g>
                </g>
            </g>
        </g>
    </g>
</svg>