<?xml version="1.0" encoding="UTF-8"?>
<svg width="52px" height="52px" viewBox="0 0 52 52" version="1.1" xmlns="http://www.w3.org/2000/svg" xmlns:xlink="http://www.w3.org/1999/xlink">
    <!-- Generator: Sketch 48.2 (47327) - http://www.bohemiancoding.com/sketch -->
    <title>App_FriendCreate</title>
    <desc>Created with Sketch.</desc>
    <defs></defs>
    <g id="Alt-1" stroke="none" stroke-width="1" fill="none" fill-rule="evenodd" transform="translate(-617.000000, -391.000000)">
        <g id="Icons" transform="translate(112.000000, 27.000000)">
            <g id="Appicons" transform="translate(0.000000, 261.000000)">
                <g id="App_FriendCreate" transform="translate(505.000000, 103.000000)">
                    <g>
                        <path d="M1,0 L50.2000008,0 C50.7522855,-4.02567223e-15 51.2000008,0.44771525 51.2000008,1 L51.2000008,50.2000008 C51.2000008,50.7522855 50.7522855,51.2000008 50.2000008,51.2000008 L1,51.2000008 C0.44771525,51.2000008 6.76353751e-17,50.7522855 0,50.2000008 L0,1 C-6.76353751e-17,0.44771525 0.44771525,1.01453063e-16 1,0 Z" id="rect4177-7" fill="#34495E" fill-rule="nonzero"></path>
                        <polygon id="rect4175-2-68-3" fill="#27AE60" fill-rule="nonzero" points="7.68000011 12.8000002 36.9161433 12.8000002 34.5600005 15.3600002 7.68000011 15.3600002"></polygon>
                        <polygon id="rect4175-5-0-8-6" fill="#E67E22" fill-rule="nonzero" points="7.68000011 20.4800003 29.9120812 20.4800003 27.3704382 23.0400003 7.68000011 23.0400003"></polygon>
                        <path d="M7.68000011,28.1600004 L24.0079835,28.1600004 L23.0400003,30.7200005 C20.9169326,30.7200005 18.5025767,30.7200005 15.7969326,30.7200005 C13.0912884,30.7200005 10.3856443,30.7200005 7.68000011,30.7200005 L7.68000011,28.1600004 Z" id="rect4175-5-6-6-4-8" fill="#E74C3C" fill-rule="nonzero"></path>
                        <rect id="rect4175-5-6-2-1-3-0" fill="#FFFFFF" fill-rule="nonzero" x="7.68000011" y="35.8400005" width="26.8800004" height="2.56000004"></rect>
                        <g id="pencil" transform="translate(24.320000, 14.080000)" fill="#FFFFFF" fill-rule="nonzero">
                            <path d="M20.0166403,1.10208002 C19.3075203,0.391040006 18.3616003,0 17.3574403,0 C16.3532802,0 15.4086402,0.390400006 14.6988802,1.10080002 L3.38816005,12.3462402 C3.32096005,12.4128002 3.26976005,12.4928002 3.23776005,12.5811202 L0.67776001,19.6211203 C0.595200009,19.8483203 0.64832001,20.1049603 0.815360012,20.2809603 C0.938240014,20.4102403 1.10656002,20.4800003 1.28000002,20.4800003 C1.34272002,20.4800003 1.40544002,20.4710403 1.46752002,20.4518403 L7.83488012,18.4985603 C7.93472012,18.4684803 8.02560012,18.4134403 8.09984012,18.3398403 L20.0172803,6.4224001 C20.7289603,5.71264009 21.1200003,4.76672007 21.1200003,3.76192006 C21.1193603,2.75776004 20.7289603,1.81248003 20.0166403,1.10208002 Z M7.31974081,17.2641004 L2.48005378,18.6760677 L4.28800006,13.4400002 C5.47135858,13.5221652 6.28853959,13.8612322 6.7395431,14.4572011 C7.19054661,15.05317 7.38394585,15.9888031 7.31974081,17.2641004 Z M16.5196802,8.10944012 L8.72192013,15.9748608 C8.51204572,14.4004654 8.13539485,13.4193115 7.59196752,13.0313991 C7.0485402,12.6434867 6.31457772,12.3530204 5.39008008,12.1600002 L13.0016002,4.59200007 C13.4777602,4.12992006 14.1017602,3.87200006 14.7641602,3.87200006 C15.4265602,3.87200006 16.0512002,4.12992006 16.5190402,4.59904007 C16.9868803,5.06816008 17.2473603,5.69152008 17.2473603,6.35456009 C17.2473603,7.0176001 16.9894403,7.64032011 16.5196802,8.10944012 Z M19.1116803,5.51744008 L18.5152003,6.11456009 C18.4576003,5.20000008 18.0780803,4.34752006 17.4252803,3.69408006 C16.7718402,3.04000005 15.9187202,2.66112004 15.0016002,2.60416004 L15.6019202,2.00832003 L15.6032002,2.00704003 C16.0704002,1.53792002 16.6944002,1.28000002 17.3574403,1.28000002 C18.0204803,1.28000002 18.6438403,1.53792002 19.1116803,2.00704003 C19.5814403,2.47616004 19.8400003,3.09952005 19.8400003,3.76192006 C19.8400003,4.42560007 19.5827203,5.04896008 19.1116803,5.51744008 Z" id="Shape"></path>
                        </g>
                    </g>
                </g>
            </g>
        </g>
    </g>
</svg>