<?xml version="1.0" encoding="UTF-8"?>
<svg width="40px" height="40px" viewBox="0 0 40 40" version="1.1" xmlns="http://www.w3.org/2000/svg" xmlns:xlink="http://www.w3.org/1999/xlink">
    <!-- Generator: Sketch 48.2 (47327) - http://www.bohemiancoding.com/sketch -->
    <title>App_Author</title>
    <desc>Created with Sketch.</desc>
    <defs></defs>
    <g id="Alt-1" stroke="none" stroke-width="1" fill="none" fill-rule="evenodd" transform="translate(-462.000000, -304.000000)">
        <g id="Icons" transform="translate(47.000000, 14.000000)" fill-rule="nonzero">
            <g id="Appicons" transform="translate(97.000000, 264.000000)">
                <g id="App_Author" transform="translate(318.000000, 26.000000)">
                    <path d="M1,0 L39,0 C39.5522847,-1.01453063e-16 40,0.44771525 40,1 L40,39 C40,39.5522847 39.5522847,40 39,40 L1,40 C0.44771525,40 6.76353751e-17,39.5522847 0,39 L0,1 C-6.76353751e-17,0.44771525 0.44771525,1.01453063e-16 1,0 Z" id="rect4177-7" fill="#3F51B5"></path>
                    <polygon id="rect4175-2-68-3" fill="#FFFFFF" points="6 10 28.8407365 10 27 12 6 12"></polygon>
                    <polygon id="rect4175-5-0-8-6" fill="#FFFFFF" points="6 16 23.3688131 16 21.3831546 18 6 18"></polygon>
                    <polygon id="rect4175-5-6-6-4-8" fill="#FFFFFF" points="6 22 18.7562368 22 18 24 6 24"></polygon>
                    <rect id="rect4175-5-6-2-1-3-0" fill="#FFFFFF" x="6" y="28" width="21" height="2"></rect>
                    <g id="pencil" transform="translate(19.000000, 11.000000)" fill="#FFFFFF">
                        <path d="M15.638,0.861 C15.084,0.3055 14.345,0 13.5605,0 C12.776,0 12.038,0.305 11.4835,0.86 L2.647,9.6455 C2.5945,9.6975 2.5545,9.76 2.5295,9.829 L0.5295,15.329 C0.465,15.5065 0.5065,15.707 0.637,15.8445 C0.733,15.9455 0.8645,16 1,16 C1.049,16 1.098,15.993 1.1465,15.978 L6.121,14.452 C6.199,14.4285 6.27,14.3855 6.328,14.328 L15.6385,5.0175 C16.1945,4.463 16.5,3.724 16.5,2.939 C16.4995,2.1545 16.1945,1.416 15.638,0.861 Z M5.546,13.5825 L3.684,14.1545 C3.5755,13.836 3.4065,13.554 3.176,13.3235 C2.9755,13.124 2.743,12.969 2.498,12.843 L3.35,10.5 L4.5,10.5 L4.5,11.5 C4.5,11.7765 4.7235,12 5,12 L5.8825,12 L5.546,13.5825 Z M12.906,6.3355 L6.814,12.4275 L6.989,11.604 C7.02,11.456 6.983,11.3025 6.888,11.1855 C6.793,11.068 6.6505,11 6.5,11 L5.5,11 L5.5,10 C5.5,9.724 5.276,9.5 5,9.5 L4.211,9.5 L10.1575,3.5875 L10.1635,3.593 C10.5295,3.2265 11.017,3.025 11.5345,3.025 C12.052,3.025 12.54,3.2265 12.9055,3.593 C13.271,3.9595 13.4745,4.4465 13.4745,4.9645 C13.4745,5.4825 13.273,5.969 12.906,6.3355 Z M14.931,4.3105 L14.465,4.777 C14.42,4.0625 14.1235,3.3965 13.6135,2.886 C13.103,2.375 12.4365,2.079 11.72,2.0345 L12.189,1.569 L12.19,1.568 C12.555,1.2015 13.0425,1 13.5605,1 C14.0785,1 14.5655,1.2015 14.931,1.568 C15.298,1.9345 15.5,2.4215 15.5,2.939 C15.5,3.4575 15.299,3.9445 14.931,4.3105 Z M11.6465,4.1465 L6.6465,9.1465 C6.451,9.342 6.451,9.658 6.6465,9.8535 C6.7435,9.951 6.872,10 7,10 C7.128,10 7.2555,9.951 7.3535,9.8535 L12.3535,4.8535 C12.549,4.658 12.549,4.342 12.3535,4.1465 C12.1575,3.951 11.842,3.951 11.6465,4.1465 Z" id="Shape"></path>
                    </g>
                </g>
            </g>
        </g>
    </g>
</svg>