<?xml version="1.0" encoding="UTF-8" standalone="no"?>
<svg
   xmlns:dc="http://purl.org/dc/elements/1.1/"
   xmlns:cc="http://creativecommons.org/ns#"
   xmlns:rdf="http://www.w3.org/1999/02/22-rdf-syntax-ns#"
   xmlns:svg="http://www.w3.org/2000/svg"
   xmlns="http://www.w3.org/2000/svg"
   xmlns:sodipodi="http://sodipodi.sourceforge.net/DTD/sodipodi-0.dtd"
   xmlns:inkscape="http://www.inkscape.org/namespaces/inkscape"
   width="40px"
   height="40px"
   viewBox="0 0 40 40"
   version="1.1"
   id="svg4279"
   inkscape:version="0.91 r13725"
   sodipodi:docname="App_Calendar.svg">
  <metadata
     id="metadata4318">
    <rdf:RDF>
      <cc:Work
         rdf:about="">
        <dc:format>image/svg+xml</dc:format>
        <dc:type
           rdf:resource="http://purl.org/dc/dcmitype/StillImage" />
        <dc:title>App_Calc</dc:title>
      </cc:Work>
    </rdf:RDF>
  </metadata>
  <sodipodi:namedview
     pagecolor="#ffffff"
     bordercolor="#666666"
     borderopacity="1"
     objecttolerance="10"
     gridtolerance="10"
     guidetolerance="10"
     inkscape:pageopacity="0"
     inkscape:pageshadow="2"
     inkscape:window-width="1920"
     inkscape:window-height="1022"
     id="namedview4316"
     showgrid="false"
     inkscape:zoom="5.6568542"
     inkscape:cx="28.312408"
     inkscape:cy="16.155107"
     inkscape:window-x="0"
     inkscape:window-y="30"
     inkscape:window-maximized="1"
     inkscape:current-layer="svg4279" />
  <!-- Generator: Sketch 48.2 (47327) - http://www.bohemiancoding.com/sketch -->
  <title
     id="title4281">App_Calc</title>
  <desc
     id="desc4283">Created with Sketch.</desc>
  <defs
     id="defs4285" />
  <path
     d="m 1,0 38,0 c 0.552285,0 1,0.44771525 1,1 l 0,38 c 0,0.552285 -0.447715,1 -1,1 L 1,40 C 0.44771525,40 0,39.552285 0,39 L 0,1 C 0,0.44771525 0.44771525,0 1,0 Z"
     id="rect4177-7"
     inkscape:connector-curvature="0"
     style="fill:#06609a;fill-rule:nonzero;stroke:none;stroke-width:1;fill-opacity:1" />
  <rect
     style="fill:#ffffff;fill-rule:nonzero;stroke:none;stroke-width:1"
     height="2.2347417"
     width="5.6985917"
     y="10.541666"
     x="6.253521"
     id="rect4175-2-68-3" />
  <rect
     style="fill:#ffffff;fill-rule:nonzero;stroke:none;stroke-width:1"
     height="3.9107981"
     width="5.6985917"
     y="14.73181"
     x="6.253521"
     id="rect4175-2-68-3-copy-3" />
  <rect
     style="fill:#ffffff;fill-rule:nonzero;stroke:none;stroke-width:1"
     height="3.9107981"
     width="5.6985917"
     y="20.598007"
     x="6.253521"
     id="rect4175-2-68-3-copy-7" />
  <rect
     style="fill:#ffffff;fill-rule:nonzero;stroke:none;stroke-width:1"
     height="3.9107981"
     width="5.6985917"
     y="26.464201"
     x="6.253521"
     id="rect4175-2-68-3-copy-11" />
  <rect
     style="fill:#ffffff;fill-rule:nonzero;stroke:none;stroke-width:1"
     height="2.2347417"
     width="5.6985917"
     y="10.541666"
     x="13.851643"
     id="rect4299" />
  <rect
     style="fill:#ffffff;fill-rule:nonzero;stroke:none;stroke-width:1"
     height="3.9107981"
     width="5.6985917"
     y="14.73181"
     x="13.851643"
     id="rect4175-2-68-3-copy-4" />
  <rect
     style="fill:#ffffff;fill-rule:nonzero;stroke:none;stroke-width:1"
     height="3.9107981"
     width="5.6985917"
     y="20.598007"
     x="13.851643"
     id="rect4175-2-68-3-copy-8" />
  <rect
     style="fill:#ffffff;fill-rule:nonzero;stroke:none;stroke-width:1"
     height="3.9107981"
     width="5.6985917"
     y="26.464201"
     x="13.851643"
     id="rect4175-2-68-3-copy-12" />
  <rect
     style="fill:#ffffff;fill-rule:nonzero;stroke:none;stroke-width:1"
     height="2.2347417"
     width="5.6985917"
     y="10.541666"
     x="21.449764"
     id="rect4175-2-68-3-copy" />
  <rect
     style="fill:#ffffff;fill-rule:nonzero;stroke:none;stroke-width:1"
     height="3.9107981"
     width="5.6985917"
     y="14.73181"
     x="21.449764"
     id="rect4175-2-68-3-copy-5" />
  <rect
     style="fill:#ffffff;fill-rule:nonzero;stroke:none;stroke-width:1"
     height="2.2347417"
     width="5.6985917"
     y="10.541666"
     x="29.047888"
     id="rect4175-2-68-3-copy-2" />
  <rect
     style="fill:#ffffff;fill-rule:nonzero;stroke:none;stroke-width:1"
     height="3.9107981"
     width="5.6985917"
     y="14.73181"
     x="29.047888"
     id="rect4175-2-68-3-copy-6" />
  <path
     style="color:#000000;clip-rule:nonzero;display:inline;overflow:visible;visibility:visible;opacity:1;isolation:auto;mix-blend-mode:normal;color-interpolation:sRGB;color-interpolation-filters:linearRGB;solid-color:#000000;solid-opacity:1;fill:#06609a;fill-opacity:1;fill-rule:nonzero;stroke:none;stroke-width:1;stroke-linecap:butt;stroke-linejoin:round;stroke-miterlimit:4;stroke-dasharray:none;stroke-dashoffset:0;stroke-opacity:1;color-rendering:auto;image-rendering:auto;shape-rendering:auto;text-rendering:auto;enable-background:accumulate"
     d="m 28.052039,16.257397 a 11.402232,11.402232 0 0 0 -11.40165,11.40165 11.402232,11.402232 0 0 0 11.40165,11.40165 11.402232,11.402232 0 0 0 11.40165,-11.40165 11.402232,11.402232 0 0 0 -11.40165,-11.40165 z m 0,3.685176 a 7.7166618,7.7166618 0 0 1 7.716474,7.716474 7.7166618,7.7166618 0 0 1 -7.716474,7.716474 7.7166618,7.7166618 0 0 1 -7.716474,-7.716474 7.7166618,7.7166618 0 0 1 7.716474,-7.716474 z"
     id="path5002-3"
     inkscape:connector-curvature="0" />
  <path
     style="color:#000000;clip-rule:nonzero;display:inline;overflow:visible;visibility:visible;opacity:1;isolation:auto;mix-blend-mode:normal;color-interpolation:sRGB;color-interpolation-filters:linearRGB;solid-color:#000000;solid-opacity:1;fill:#ffffff;fill-opacity:1;fill-rule:nonzero;stroke:none;stroke-width:1;stroke-linecap:butt;stroke-linejoin:round;stroke-miterlimit:4;stroke-dasharray:none;stroke-dashoffset:0;stroke-opacity:1;color-rendering:auto;image-rendering:auto;shape-rendering:auto;text-rendering:auto;enable-background:accumulate"
     d="m 28.052039,18.011632 a 9.6479062,9.6479062 0 0 0 -9.647415,9.647415 9.6479062,9.6479062 0 0 0 9.647415,9.647415 9.6479062,9.6479062 0 0 0 9.647415,-9.647415 9.6479062,9.6479062 0 0 0 -9.647415,-9.647415 z m 0,3.118183 a 6.5293909,6.5293909 0 0 1 6.529232,6.529232 6.5293909,6.5293909 0 0 1 -6.529232,6.529232 6.5293909,6.5293909 0 0 1 -6.529232,-6.529232 6.5293909,6.5293909 0 0 1 6.529232,-6.529232 z"
     id="path5002"
     inkscape:connector-curvature="0" />
  <path
     style="color:#000000;clip-rule:nonzero;display:inline;overflow:visible;visibility:visible;opacity:1;isolation:auto;mix-blend-mode:normal;color-interpolation:sRGB;color-interpolation-filters:linearRGB;solid-color:#000000;solid-opacity:1;fill:#ffffff;fill-opacity:1;fill-rule:nonzero;stroke:none;stroke-width:1;stroke-linecap:butt;stroke-linejoin:round;stroke-miterlimit:4;stroke-dasharray:none;stroke-dashoffset:0;stroke-opacity:1;color-rendering:auto;image-rendering:auto;shape-rendering:auto;text-rendering:auto;enable-background:accumulate"
     d="m 34.134763,24.536641 -6.528906,2.503036 0.459396,1.198286 6.528906,-2.503036 -0.459396,-1.198286 z"
     id="rect5088"
     inkscape:connector-curvature="0" />
  <path
     style="color:#000000;clip-rule:nonzero;display:inline;overflow:visible;visibility:visible;opacity:1;isolation:auto;mix-blend-mode:normal;color-interpolation:sRGB;color-interpolation-filters:linearRGB;solid-color:#000000;solid-opacity:1;fill:#ffffff;fill-opacity:1;fill-rule:nonzero;stroke:none;stroke-width:1;stroke-linecap:butt;stroke-linejoin:round;stroke-miterlimit:4;stroke-dasharray:none;stroke-dashoffset:0;stroke-opacity:1;color-rendering:auto;image-rendering:auto;shape-rendering:auto;text-rendering:auto;enable-background:accumulate"
     d="m 31.827821,29.726751 -3.941363,-2.306114 -0.648098,1.107659 3.941364,2.306114 0.648097,-1.107659 z"
     id="rect5088-2"
     inkscape:connector-curvature="0" />
</svg>
