<?xml version="1.0" encoding="UTF-8" standalone="no"?>
<svg
   xmlns:dc="http://purl.org/dc/elements/1.1/"
   xmlns:cc="http://creativecommons.org/ns#"
   xmlns:rdf="http://www.w3.org/1999/02/22-rdf-syntax-ns#"
   xmlns:svg="http://www.w3.org/2000/svg"
   xmlns="http://www.w3.org/2000/svg"
   xmlns:sodipodi="http://sodipodi.sourceforge.net/DTD/sodipodi-0.dtd"
   xmlns:inkscape="http://www.inkscape.org/namespaces/inkscape"
   width="40px"
   height="40px"
   viewBox="0 0 40 40"
   version="1.1"
   id="svg3415"
   inkscape:version="0.91 r13725"
   sodipodi:docname="App_Jukebox.svg"
   inkscape:export-filename="/home/espandis/Projects/friendup/interfaces/web_desktop/apps/FriendJukebox/icon.png"
   inkscape:export-xdpi="576"
   inkscape:export-ydpi="576">
  <metadata
     id="metadata3454">
    <rdf:RDF>
      <cc:Work
         rdf:about="">
        <dc:format>image/svg+xml</dc:format>
        <dc:type
           rdf:resource="http://purl.org/dc/dcmitype/StillImage" />
      </cc:Work>
    </rdf:RDF>
  </metadata>
  <sodipodi:namedview
     pagecolor="#ffffff"
     bordercolor="#666666"
     borderopacity="1"
     objecttolerance="10"
     gridtolerance="10"
     guidetolerance="10"
     inkscape:pageopacity="0"
     inkscape:pageshadow="2"
     inkscape:window-width="2560"
     inkscape:window-height="1356"
     id="namedview3452"
     showgrid="false"
     showguides="false"
     inkscape:guide-bbox="true"
     inkscape:zoom="16"
     inkscape:cx="10.403428"
     inkscape:cy="12.78349"
     inkscape:window-x="0"
     inkscape:window-y="31"
     inkscape:window-maximized="1"
     inkscape:current-layer="layer1">
    <sodipodi:guide
       position="5.143824,19.763113"
       orientation="1,0"
       id="guide3479" />
    <sodipodi:guide
       position="35.871404,17.225042"
       orientation="1,0"
       id="guide3481" />
    <sodipodi:guide
       position="20.483364,28.571421"
       orientation="1,0"
       id="guide4576" />
  </sodipodi:namedview>
  <!-- Generator: Sketch 48.2 (47327) - http://www.bohemiancoding.com/sketch -->
  <title
     id="title3417">App_Calc</title>
  <desc
     id="desc3419">Created with Sketch.</desc>
  <defs
     id="defs3421" />
  <path
     d="m 7.5353435,3.3215888 c -3.5530771,0 -6.4129084,2.8622064 -6.4129084,6.4152829 0,0.111434 0.011066,0.2201428 0.016626,0.3301463 l 0,29.411498 37.3255019,0 0,-29.05285 c 0.02396,-0.226287 0.038,-0.4559471 0.038,-0.6887943 0,-3.5530765 -2.859832,-6.4152829 -6.412909,-6.4152829 l -24.5543125,0 z"
     id="rect4175-2-68-3-copy-19-6"
     style="fill:#ffffff"
     inkscape:connector-curvature="0" />
  <g
     inkscape:groupmode="layer"
     id="layer1"
     inkscape:label="Layer 1"
     style="display:inline">
    <g
       style="fill:#e74c3c;fill-rule:evenodd;stroke:none;stroke-width:1;fill-opacity:1"
       id="Alt-1"
       transform="translate(-410,-304)">
      <g
         id="Icons"
         transform="translate(47,14)"
         style="fill:#e74c3c;fill-opacity:1">
        <g
           id="Appicons"
           transform="translate(97,264)"
           style="fill:#e74c3c;fill-opacity:1">
          <g
             id="App_Calc"
             transform="translate(266,26)"
             style="fill:#e74c3c;fill-opacity:1">
            <path
               style="fill:#e74c3c;fill-rule:nonzero;fill-opacity:1"
               inkscape:connector-curvature="0"
               d="m 1,0 38,0 c 0.552285,0 1,0.44771525 1,1 l 0,38 c 0,0.552285 -0.447715,1 -1,1 L 1,40 C 0.44771525,40 0,39.552285 0,39 L 0,1 C 0,0.44771525 0.44771525,0 1,0 Z"
               id="rect4177-7" />
            <g
               style="fill:#e74c3c;fill-rule:nonzero;fill-opacity:1"
               id="Calc"
               transform="translate(12,8)" />
          </g>
        </g>
      </g>
    </g>
    <g
       style="display:inline;fill:#2c3e50;fill-opacity:1;fill-rule:evenodd;stroke:none;stroke-width:1"
       id="Alt-1-3"
       transform="matrix(0.88890939,0,0,0.88890939,-362.18396,-268.03524)">
      <g
         id="Icons-5"
         transform="translate(47,14)"
         style="fill:#2c3e50;fill-opacity:1">
        <g
           id="Appicons-6"
           transform="translate(97,264)"
           style="fill:#2c3e50;fill-opacity:1">
          <g
             id="App_Calc-2"
             transform="translate(266,26)"
             style="fill:#2c3e50;fill-opacity:1">
            <path
               style="fill:#2c3e50;fill-opacity:1;fill-rule:nonzero"
               inkscape:connector-curvature="0"
               d="m 1,0 38,0 c 0.552285,0 1,0.44771525 1,1 l 0,38 c 0,0.552285 -0.447715,1 -1,1 L 1,40 C 0.44771525,40 0,39.552285 0,39 L 0,1 C 0,0.44771525 0.44771525,0 1,0 Z"
               id="rect4177-7-9" />
            <g
               style="fill:#2c3e50;fill-opacity:1;fill-rule:nonzero"
               id="Calc-1"
               transform="translate(12,8)" />
          </g>
        </g>
      </g>
    </g>
  </g>
  <g
     inkscape:groupmode="layer"
     id="layer2"
     inkscape:label="Layer 2">
    <g
       id="g4584"
       transform="matrix(1.2160774,0,0,1.2160774,-5.1170871,-3.7099559)">
      <rect
         height="2.3333333"
         width="3.4000001"
         y="15.294415"
         x="12.19289"
         id="rect4175-2-68-3"
         style="fill:#f1c40f;fill-opacity:1;fill-rule:nonzero;stroke:none;stroke-width:1" />
      <rect
         height="2.3333333"
         width="3.4000001"
         y="18.794426"
         x="12.19289"
         id="rect4175-2-68-3-copy-3"
         style="fill:#e67e22;fill-opacity:1;fill-rule:nonzero;stroke:none;stroke-width:1" />
      <rect
         height="2.3333333"
         width="3.4000001"
         y="22.294426"
         x="12.19289"
         id="rect4175-2-68-3-copy-7"
         style="fill:#e74c3c;fill-opacity:1;fill-rule:nonzero;stroke:none;stroke-width:1" />
      <rect
         height="2.3333333"
         width="3.4000001"
         y="25.794426"
         x="12.19289"
         id="rect4175-2-68-3-copy-11"
         style="fill:#c92918;fill-opacity:0.94117647;fill-rule:nonzero;stroke:none;stroke-width:1" />
      <rect
         height="2.3333333"
         width="3.4000001"
         y="29.294426"
         x="12.19289"
         id="rect4175-2-68-3-copy-15"
         style="fill:#a01507;fill-opacity:1;fill-rule:nonzero;stroke:none;stroke-width:1" />
      <rect
         height="2.3333333"
         width="3.4000001"
         y="18.794426"
         x="16.726223"
         id="rect4175-2-68-3-copy-4"
         style="fill:#1abc9c;fill-opacity:1;fill-rule:nonzero;stroke:none;stroke-width:1" />
      <rect
         height="2.3333333"
         width="3.4000001"
         y="22.294426"
         x="16.726223"
         id="rect4175-2-68-3-copy-8"
         style="fill:#27ae60;fill-opacity:1;fill-rule:nonzero;stroke:none;stroke-width:1" />
      <rect
         height="2.3333333"
         width="3.4000001"
         y="25.794426"
         x="16.726223"
         id="rect4175-2-68-3-copy-12"
         style="fill:#2980b9;fill-opacity:1;fill-rule:nonzero;stroke:none;stroke-width:1" />
      <rect
         height="2.3333333"
         width="3.4000001"
         y="29.294426"
         x="16.726223"
         id="rect4175-2-68-3-copy-16"
         style="fill:#096eb0;fill-opacity:1;fill-rule:nonzero;stroke:none;stroke-width:1" />
      <rect
         height="2.3333333"
         width="3.4000001"
         y="25.794426"
         x="21.259556"
         id="rect4175-2-68-3-copy-13"
         style="fill:#c92918;fill-opacity:0.94117647;fill-rule:nonzero;stroke:none;stroke-width:1" />
      <rect
         height="2.3333333"
         width="3.4000001"
         y="29.294426"
         x="21.259556"
         id="rect4175-2-68-3-copy-17"
         style="fill:#a01507;fill-opacity:1;fill-rule:nonzero;stroke:none;stroke-width:1" />
      <rect
         height="2.3333333"
         width="3.4000001"
         y="22.294426"
         x="25.792892"
         id="rect4175-2-68-3-copy-10"
         style="fill:#ffffff;fill-rule:nonzero;stroke:none;stroke-width:1" />
      <rect
         height="2.3333333"
         width="3.4000001"
         y="25.794426"
         x="25.792892"
         id="rect4175-2-68-3-copy-14"
         style="fill:#27ae60;fill-opacity:1;fill-rule:nonzero;stroke:none;stroke-width:1" />
      <rect
         height="2.3333333"
         width="3.4000001"
         y="29.294426"
         x="25.792892"
         id="rect4175-2-68-3-copy-18"
         style="fill:#2980b9;fill-opacity:1;fill-rule:nonzero;stroke:none;stroke-width:1" />
      <rect
         height="2.3333333"
         width="3.4000001"
         y="25.794426"
         x="7.6733446"
         id="rect4175-2-68-3-copy-12-2"
         style="fill:#27ae60;fill-opacity:1;fill-rule:nonzero;stroke:none;stroke-width:1" />
      <rect
         height="2.3333333"
         width="3.4000001"
         y="29.294426"
         x="7.6733446"
         id="rect4175-2-68-3-copy-16-7"
         style="fill:#096eb0;fill-opacity:1;fill-rule:nonzero;stroke:none;stroke-width:1" />
      <rect
         height="2.3333333"
         width="3.4000001"
         y="25.794426"
         x="30.456036"
         id="rect4175-2-68-3-copy-13-0"
         style="fill:#e67e22;fill-opacity:1;fill-rule:nonzero;stroke:none;stroke-width:1" />
      <rect
         height="2.3333333"
         width="3.4000001"
         y="29.294426"
         x="30.456036"
         id="rect4175-2-68-3-copy-17-9"
         style="fill:#a01507;fill-opacity:1;fill-rule:nonzero;stroke:none;stroke-width:1" />
    </g>
  </g>
  <g
     inkscape:groupmode="layer"
     id="layer3"
     inkscape:label="Sway"
     style="display:inline">
    <g
       style="display:inline;fill:#2c3e50;fill-opacity:1;fill-rule:evenodd;stroke:none;stroke-width:1"
       id="Alt-1-3-1"
       transform="matrix(0.88890939,0,0,0.88890939,-362.18396,-268.03524)">
      <g
         id="Icons-5-8"
         transform="translate(47,14)"
         style="fill:#2c3e50;fill-opacity:1">
        <g
           id="Appicons-6-7"
           transform="translate(97,264)"
           style="fill:#2c3e50;fill-opacity:1">
          <g
             id="App_Calc-2-9"
             transform="translate(266,26)"
             style="fill:#2c3e50;fill-opacity:1">
            <path
               style="fill:#f1c40f;fill-opacity:1;fill-rule:nonzero"
               d="m 6.8046875,5.3808594 c -0.4037005,0 -0.7304687,0.3267682 -0.7304687,0.7304687 l 0,8.3847659 C 16.227986,11.733647 25.977119,11.799369 35.3125,14.765625 l 0,-8.6542969 c 0,-0.4037005 -0.326768,-0.7304687 -0.730469,-0.7304687 l -27.7773435,0 z"
               transform="matrix(1.3680555,0,0,1.3680555,-8.3090259,-7.3611086)"
               id="rect4177-7-9-2"
               inkscape:connector-curvature="0" />
            <g
               style="fill:#2c3e50;fill-opacity:1;fill-rule:nonzero"
               id="Calc-1-0"
               transform="translate(12,8)" />
          </g>
        </g>
      </g>
    </g>
    <g
       style="display:inline;fill:#2c3e50;fill-opacity:1;fill-rule:evenodd;stroke:none;stroke-width:1"
       id="Alt-1-3-1-2"
       transform="matrix(0.88890939,0,0,0.88890939,-362.18396,-268.03524)">
      <g
         id="Icons-5-8-8"
         transform="translate(47,14)"
         style="fill:#2c3e50;fill-opacity:1">
        <g
           id="Appicons-6-7-9"
           transform="translate(97,264)"
           style="fill:#2c3e50;fill-opacity:1">
          <g
             id="App_Calc-2-9-7"
             transform="translate(266,26)"
             style="fill:#2c3e50;fill-opacity:1">
            <path
               style="fill:#e67e22;fill-opacity:1;fill-rule:nonzero"
               d="m 6.8046875,5.3808594 c -0.4037005,0 -0.7304687,0.3267682 -0.7304687,0.7304687 l 0,6.7401339 C 16.227986,10.089015 25.977119,10.154737 35.3125,13.120993 l 0,-7.0096649 c 0,-0.4037005 -0.326768,-0.7304687 -0.730469,-0.7304687 z"
               transform="matrix(1.3680555,0,0,1.3680555,-8.3090259,-7.3611086)"
               id="rect4177-7-9-2-3"
               inkscape:connector-curvature="0"
               sodipodi:nodetypes="ssccsss" />
            <g
               style="fill:#2c3e50;fill-opacity:1;fill-rule:nonzero"
               id="Calc-1-0-6"
               transform="translate(12,8)" />
          </g>
        </g>
      </g>
    </g>
    <g
       style="display:inline;fill:#e74c3c;fill-opacity:1;fill-rule:evenodd;stroke:none;stroke-width:1"
       id="Alt-1-3-1-2-1"
       transform="matrix(0.88890939,0,0,0.88890939,-362.18396,-268.03524)">
      <g
         id="Icons-5-8-8-2"
         transform="translate(47,14)"
         style="fill:#e74c3c;fill-opacity:1">
        <g
           id="Appicons-6-7-9-9"
           transform="translate(97,264)"
           style="fill:#e74c3c;fill-opacity:1">
          <g
             id="App_Calc-2-9-7-3"
             transform="translate(266,26)"
             style="fill:#e74c3c;fill-opacity:1">
            <path
               style="fill:#e74c3c;fill-opacity:1;fill-rule:nonzero"
               d="m 6.8046875,5.3808594 c -0.4037005,0 -0.7304687,0.3267682 -0.7304687,0.7304687 l 0,5.0955019 C 16.227986,8.4443828 25.977119,8.5101048 35.3125,11.476361 l 0,-5.3650329 c 0,-0.4037005 -0.326768,-0.7304687 -0.730469,-0.7304687 z"
               transform="matrix(1.3680555,0,0,1.3680555,-8.3090259,-7.3611086)"
               id="rect4177-7-9-2-3-1"
               inkscape:connector-curvature="0"
               sodipodi:nodetypes="ssccsss" />
            <g
               style="fill:#e74c3c;fill-opacity:1;fill-rule:nonzero"
               id="Calc-1-0-6-9"
               transform="translate(12,8)" />
          </g>
        </g>
      </g>
    </g>
    <g
       style="display:inline;fill:#e74c3c;fill-opacity:1;fill-rule:evenodd;stroke:none;stroke-width:1"
       id="Alt-1-3-1-2-1-4"
       transform="matrix(0.88890939,0,0,0.88890939,-362.18396,-268.03524)">
      <g
         id="Icons-5-8-8-2-7"
         transform="translate(47,14)"
         style="fill:#e74c3c;fill-opacity:1">
        <g
           id="Appicons-6-7-9-9-8"
           transform="translate(97,264)"
           style="fill:#e74c3c;fill-opacity:1">
          <g
             id="App_Calc-2-9-7-3-4"
             transform="translate(266,26)"
             style="fill:#e74c3c;fill-opacity:1">
            <path
               style="fill:#27ae60;fill-opacity:1;fill-rule:nonzero"
               d="m 6.8046875,5.3808594 c -0.4037005,0 -0.7304687,0.3267682 -0.7304687,0.7304687 l 0,3.4508697 C 16.227986,6.7997506 25.977119,6.8654726 35.3125,9.8317288 l 0,-3.7204007 c 0,-0.4037005 -0.326768,-0.7304687 -0.730469,-0.7304687 z"
               transform="matrix(1.3680555,0,0,1.3680555,-8.3090259,-7.3611086)"
               id="rect4177-7-9-2-3-1-5"
               inkscape:connector-curvature="0"
               sodipodi:nodetypes="ssccsss" />
            <g
               style="fill:#e74c3c;fill-opacity:1;fill-rule:nonzero"
               id="Calc-1-0-6-9-0"
               transform="translate(12,8)" />
          </g>
        </g>
      </g>
    </g>
    <g
       style="display:inline;fill:#e74c3c;fill-opacity:1;fill-rule:evenodd;stroke:none;stroke-width:1"
       id="Alt-1-3-1-2-1-4-3"
       transform="matrix(0.88890939,0,0,0.88890939,-362.18396,-268.03524)">
      <g
         id="Icons-5-8-8-2-7-6"
         transform="translate(47,14)"
         style="fill:#e74c3c;fill-opacity:1">
        <g
           id="Appicons-6-7-9-9-8-1"
           transform="translate(97,264)"
           style="fill:#e74c3c;fill-opacity:1">
          <g
             id="App_Calc-2-9-7-3-4-0"
             transform="translate(266,26)"
             style="fill:#e74c3c;fill-opacity:1">
            <path
               style="fill:#1abc9c;fill-opacity:1;fill-rule:nonzero"
               d="m 6.8046875,5.3808594 c -0.4037005,0 -0.7304687,0.3267682 -0.7304687,0.7304687 l 0,1.8062375 C 16.227986,5.1551184 25.977119,5.2208404 35.3125,8.1870966 l 0,-2.0757685 c 0,-0.4037005 -0.326768,-0.7304687 -0.730469,-0.7304687 z"
               transform="matrix(1.3680555,0,0,1.3680555,-8.3090259,-7.3611086)"
               id="rect4177-7-9-2-3-1-5-6"
               inkscape:connector-curvature="0"
               sodipodi:nodetypes="ssccsss" />
            <g
               style="fill:#e74c3c;fill-opacity:1;fill-rule:nonzero"
               id="Calc-1-0-6-9-0-3"
               transform="translate(12,8)" />
          </g>
        </g>
      </g>
    </g>
  </g>
  <g
     inkscape:groupmode="layer"
     id="layer4"
     inkscape:label="Record" />
</svg>
