<?xml version="1.0" encoding="UTF-8"?>
<svg width="40px" height="40px" viewBox="0 0 40 40" version="1.1" xmlns="http://www.w3.org/2000/svg" xmlns:xlink="http://www.w3.org/1999/xlink">
    <!-- Generator: Sketch 48.2 (47327) - http://www.bohemiancoding.com/sketch -->
    <title>App_Excel</title>
    <desc>Created with Sketch.</desc>
    <defs></defs>
    <g id="Alt-1" stroke="none" stroke-width="1" fill="none" fill-rule="evenodd" transform="translate(-308.000000, -304.000000)">
        <g id="Icons" transform="translate(47.000000, 14.000000)">
            <g id="Appicons" transform="translate(97.000000, 264.000000)">
                <g id="App_Excel" transform="translate(164.000000, 26.000000)">
                    <path d="M1,0 L39,0 C39.5522847,-1.01453063e-16 40,0.44771525 40,1 L40,39 C40,39.5522847 39.5522847,40 39,40 L1,40 C0.44771525,40 6.76353751e-17,39.5522847 0,39 L0,1 C-6.76353751e-17,0.44771525 0.44771525,1.01453063e-16 1,0 Z" id="rect4177-7" fill="#27AE60" fill-rule="nonzero"></path>
                    <text id="E" fill="#FFFFFF" font-family="Assistant-Bold, Assistant" font-size="12.5" font-weight="bold">
                        <tspan x="7" y="19">E</tspan>
                    </text>
                    <rect id="rect4175-0-4" fill="#FFFFFF" fill-rule="nonzero" opacity="0.8" x="18" y="10" width="17" height="2"></rect>
                    <rect id="rect4175-5-9-1" fill="#FFFFFF" fill-rule="nonzero" opacity="0.8" x="18" y="16.1101986" width="17" height="2"></rect>
                    <rect id="rect4175-5-6-3-8" fill="#FFFFFF" fill-rule="nonzero" opacity="0.8" x="18" y="22" width="17" height="2"></rect>
                    <rect id="rect4175-5-6-2-6-5" fill="#FFFFFF" fill-rule="nonzero" opacity="0.8" x="18" y="28" width="17" height="2"></rect>
                    <rect id="rect4175-0-0-97" fill="#FFFFFF" fill-rule="nonzero" opacity="0.8" x="18" y="11" width="1" height="18"></rect>
                    <rect id="rect4175-0-0-6-5" fill="#FFFFFF" fill-rule="nonzero" opacity="0.8" x="34" y="10" width="1" height="19"></rect>
                    <rect id="rect4175-0-0-2-3" fill="#FFFFFF" fill-rule="nonzero" opacity="0.8" x="26" y="11" width="1" height="17"></rect>
                </g>
            </g>
        </g>
    </g>
</svg>