<?xml version="1.0" encoding="UTF-8"?>
<svg width="40px" height="40px" viewBox="0 0 40 40" version="1.1" xmlns="http://www.w3.org/2000/svg" xmlns:xlink="http://www.w3.org/1999/xlink">
    <!-- Generator: Sketch 48.2 (47327) - http://www.bohemiancoding.com/sketch -->
    <title>Calc Copy</title>
    <desc>Created with Sketch.</desc>
    <defs></defs>
    <g id="Alt-1" stroke="none" stroke-width="1" fill="none" fill-rule="evenodd" transform="translate(-359.000000, -304.000000)">
        <g id="Icons" transform="translate(47.000000, 14.000000)">
            <g id="Appicons" transform="translate(97.000000, 264.000000)">
                <g id="Calc-Copy" transform="translate(215.000000, 26.000000)">
                    <path d="M1,0 L39,0 C39.5522847,-1.01453063e-16 40,0.44771525 40,1 L40,39 C40,39.5522847 39.5522847,40 39,40 L1,40 C0.44771525,40 6.76353751e-17,39.5522847 0,39 L0,1 C-6.76353751e-17,0.44771525 0.44771525,1.01453063e-16 1,0 Z" id="rect4177-7" fill="#E67E22" fill-rule="nonzero"></path>
                    <text id="P" fill="#FFFFFF" font-family="Assistant-Bold, Assistant" font-size="12.5" font-weight="bold">
                        <tspan x="7" y="19">P</tspan>
                    </text>
                    <g id="Group-3" transform="translate(18.000000, 10.000000)" fill="#FFFFFF" fill-rule="nonzero">
                        <rect id="rect4175-0-3-8" opacity="0.8" x="0" y="0" width="17" height="2"></rect>
                        <rect id="rect4175-5-6-2-6-2-9" opacity="0.8" x="0" y="18" width="17" height="2"></rect>
                        <rect id="rect4175-0-0-9-6" opacity="0.8" x="0" y="1" width="2" height="18"></rect>
                        <rect id="rect4175-0-0-6-1-4" opacity="0.8" x="15" y="0" width="2" height="19"></rect>
                        <path d="M6.44194404,5 C5.76952202,5.00051712 5.19812283,5.26394135 5.09579964,5.62059427 C4.90606702,5.58063862 4.70091235,5.55991887 4.49341054,5.55975553 C3.66860886,5.55988065 3.0000894,5.87787746 3,6.27013095 C3.00004131,6.55661305 3.36188266,6.81505297 3.9176595,6.92555589 C4.00002835,7.01536005 4.15041112,7.09700158 4.35501639,7.16299325 C4.18911873,7.31943224 4.11946921,7.48783432 4.15373389,7.64966404 C4.22025896,7.95616916 4.65126027,8.20545269 5.29118221,8.30754404 C5.29185501,8.32152463 5.29369747,8.3354217 5.29670649,8.34921173 C5.33205936,8.51242976 5.52899015,8.65348764 5.84417364,8.74135231 C6.15935713,8.82921699 6.56697334,8.85669053 6.97734577,8.81772871 C7.18101084,8.798349 7.37918468,8.76316841 7.56049934,8.71420505 C7.99264302,8.95677809 8.8745636,9.05656577 9.80652613,8.96833883 C10.8413789,8.86991294 11.7053454,8.56240281 11.9319359,8.21184529 C12.6559528,7.98989748 13.0728959,7.59164004 12.9894479,7.20172659 C12.9342812,6.945089 12.6669112,6.71926451 12.2462079,6.57397562 C11.8255046,6.42868672 11.2859637,6.37584636 10.7463822,6.42708903 C10.4641394,6.45424491 10.1911926,6.50904449 9.94492028,6.58799869 C9.85009561,6.40599501 9.65961569,6.24551533 9.39580729,6.12536996 C9.4183375,6.08105291 9.4300029,6.03583274 9.43061023,5.99045859 C9.43075606,5.81910421 9.27339452,5.65474809 8.99316589,5.5335702 C8.71293726,5.41239231 8.33281299,5.3443261 7.93647049,5.34435509 C7.82865533,5.34458961 7.72121571,5.34986959 7.61602936,5.36010274 C7.37096243,5.13714141 6.9246808,5.00022265 6.44231969,5.00000978 L6.44194404,5 Z" id="path4226-0-5" fill-opacity="0.60784314" opacity="0.7"></path>
                        <polygon id="rect4396-3-4" fill-opacity="0.8" points="9.74582993 11 7.90517128 14.094514 7.20799822 13.0059392 5.71670156 14.6915991 4.74558779 13.7364163 2 17 3.6744446 17 13.3255554 17 15 17 11.420263 12.4609436 10.9016196 12.9374593 9.74582993 11"></polygon>
                    </g>
                </g>
            </g>
        </g>
    </g>
</svg>