<?xml version="1.0" encoding="UTF-8"?>
<svg width="40px" height="40px" viewBox="0 0 40 40" version="1.1" xmlns="http://www.w3.org/2000/svg" xmlns:xlink="http://www.w3.org/1999/xlink">
    <!-- Generator: Sketch 48.2 (47327) - http://www.bohemiancoding.com/sketch -->
    <title>Calc Copy 2</title>
    <desc>Created with Sketch.</desc>
    <defs></defs>
    <g id="Alt-1" stroke="none" stroke-width="1" fill="none" fill-rule="evenodd" transform="translate(-410.000000, -304.000000)">
        <g id="Icons" transform="translate(47.000000, 14.000000)">
            <g id="Appicons" transform="translate(97.000000, 264.000000)">
                <g id="Calc-Copy-2" transform="translate(266.000000, 26.000000)">
                    <path d="M1,0 L39,0 C39.5522847,-1.01453063e-16 40,0.44771525 40,1 L40,39 C40,39.5522847 39.5522847,40 39,40 L1,40 C0.44771525,40 6.76353751e-17,39.5522847 0,39 L0,1 C-6.76353751e-17,0.44771525 0.44771525,1.01453063e-16 1,0 Z" id="rect4177-7" fill="#E74C3C" fill-rule="nonzero"></path>
                    <g id="Calc" transform="translate(12.000000, 8.000000)" fill="#FFFFFF" fill-rule="nonzero">
                        <rect id="rect4175-2-68-3" x="0" y="7.66666667" width="3.4" height="2.33333333"></rect>
                        <rect id="rect4175-2-68-3-copy-19" x="0" y="0.666666667" width="17" height="5.83333333"></rect>
                        <rect id="rect4175-2-68-3-copy-3" x="0" y="11.1666667" width="3.4" height="2.33333333"></rect>
                        <rect id="rect4175-2-68-3-copy-7" x="0" y="14.6666667" width="3.4" height="2.33333333"></rect>
                        <rect id="rect4175-2-68-3-copy-11" x="0" y="18.1666667" width="3.4" height="2.33333333"></rect>
                        <rect id="rect4175-2-68-3-copy-15" x="0" y="21.6666667" width="3.4" height="2.33333333"></rect>
                        <rect id="rect4175-2-68-3" x="4.53333333" y="7.66666667" width="3.4" height="2.33333333"></rect>
                        <rect id="rect4175-2-68-3-copy-4" x="4.53333333" y="11.1666667" width="3.4" height="2.33333333"></rect>
                        <rect id="rect4175-2-68-3-copy-8" x="4.53333333" y="14.6666667" width="3.4" height="2.33333333"></rect>
                        <rect id="rect4175-2-68-3-copy-12" x="4.53333333" y="18.1666667" width="3.4" height="2.33333333"></rect>
                        <rect id="rect4175-2-68-3-copy-16" x="4.53333333" y="21.6666667" width="3.4" height="2.33333333"></rect>
                        <rect id="rect4175-2-68-3-copy" x="9.06666667" y="7.66666667" width="3.4" height="2.33333333"></rect>
                        <rect id="rect4175-2-68-3-copy-5" x="9.06666667" y="11.1666667" width="3.4" height="2.33333333"></rect>
                        <rect id="rect4175-2-68-3-copy-9" x="9.06666667" y="14.6666667" width="3.4" height="2.33333333"></rect>
                        <rect id="rect4175-2-68-3-copy-13" x="9.06666667" y="18.1666667" width="3.4" height="2.33333333"></rect>
                        <rect id="rect4175-2-68-3-copy-17" x="9.06666667" y="21.6666667" width="3.4" height="2.33333333"></rect>
                        <rect id="rect4175-2-68-3-copy-2" x="13.6" y="7.66666667" width="3.4" height="2.33333333"></rect>
                        <rect id="rect4175-2-68-3-copy-6" x="13.6" y="11.1666667" width="3.4" height="2.33333333"></rect>
                        <rect id="rect4175-2-68-3-copy-10" x="13.6" y="14.6666667" width="3.4" height="2.33333333"></rect>
                        <rect id="rect4175-2-68-3-copy-14" x="13.6" y="18.1666667" width="3.4" height="2.33333333"></rect>
                        <rect id="rect4175-2-68-3-copy-18" x="13.6" y="21.6666667" width="3.4" height="2.33333333"></rect>
                    </g>
                    <rect id="Rectangle-4" stroke="#FFFFFF" x="10.5" y="6.5" width="20" height="27" rx="1"></rect>
                </g>
            </g>
        </g>
    </g>
</svg>