<?xml version="1.0" encoding="UTF-8"?>
<svg width="10px" height="10px" viewBox="0 0 10 10" version="1.1" xmlns="http://www.w3.org/2000/svg" xmlns:xlink="http://www.w3.org/1999/xlink">
    <!-- Generator: Sketch 48.2 (47327) - http://www.bohemiancoding.com/sketch -->
    <title>close</title>
    <desc>Created with Sketch.</desc>
    <defs></defs>
    <g id="Alt-1" stroke="none" stroke-width="1" fill="none" fill-rule="evenodd" transform="translate(-1465.000000, -434.000000)" opacity="0.8">
        <g id="Navigation" transform="translate(882.000000, 282.000000)" fill="#FFFFFF">
            <g id="Blue" transform="translate(0.000000, 147.000000)">
                <g id="Taskbar">
                    <g id="close" transform="translate(583.000000, 5.000000)">
                        <g id="Shape">
                            <path d="M9.27114289,9.26482338 L9.27114289,9.26482338 C8.89168372,9.64428255 8.27645884,9.64428255 7.89699967,9.26482338 C7.89041759,9.2582413 7.88393043,9.25156498 7.87754021,9.24479649 L4.99081163,6.18718524 L2.1415574,9.20690184 C1.77338433,9.59710161 1.15860167,9.61495777 0.768401906,9.2467847 C0.761563501,9.24033232 0.754819135,9.233781 0.74817094,9.22713281 L0.74817094,9.22713281 C0.360652002,8.83961387 0.360652002,8.21132153 0.74817094,7.82380259 C0.749977818,7.82199572 0.751791669,7.82019582 0.753612452,7.81840296 L3.60391194,5.011806 L0.785861514,2.19375557 C0.395337222,1.80323128 0.395337222,1.1700663 0.785861514,0.779542007 L0.785861514,0.779542007 C1.17638581,0.389017715 1.80955078,0.389017715 2.20007508,0.779542007 L4.99081163,3.57027856 L7.85487315,0.750130571 C8.24167231,0.36926205 8.86326396,0.371663077 9.24710925,0.755508372 L9.24710925,0.755508372 C9.63009103,1.13849014 9.63009103,1.75942628 9.24710925,2.14240806 L6.40502519,4.98449212 L9.27114289,7.85060982 C9.66166718,8.24113411 9.66166718,8.87429909 9.27114289,9.26482338 Z" fill-rule="nonzero"></path>
                        </g>
                    </g>
                </g>
            </g>
        </g>
    </g>
</svg>