<?xml version="1.0" encoding="UTF-8"?>
<svg width="10px" height="11px" viewBox="0 0 10 11" version="1.1" xmlns="http://www.w3.org/2000/svg" xmlns:xlink="http://www.w3.org/1999/xlink">
    <!-- Generator: Sketch 48.2 (47327) - http://www.bohemiancoding.com/sketch -->
    <title>Contract</title>
    <desc>Created with Sketch.</desc>
    <defs></defs>
    <g id="Alt-1" stroke="none" stroke-width="1" fill="none" fill-rule="evenodd" transform="translate(-1396.000000, -319.000000)" opacity="0.8">
        <g id="Navigation" transform="translate(882.000000, 282.000000)" fill="#FFFFFF">
            <g id="Blue-Copy" transform="translate(0.000000, 33.000000)">
                <g id="Taskbar">
                    <g id="Contract" transform="translate(513.000000, 4.000000)">
                        <g id="expand">
                            <g transform="translate(0.000000, 0.100698)" fill-rule="nonzero">
                                <path d="M10.8307872,5.83207794 Z M4.47434208,9.92405357 L1.12184404,6.69204047 C0.923042217,6.50038336 0.917250285,6.18385386 1.10890739,5.98505204 C1.20314656,5.88729977 1.33308876,5.83207794 1.46886993,5.83207794 L4.81292596,5.83207794 C5.08855845,5.83207794 5.3122043,6.05514039 5.31292425,6.33077194 L5.32136627,9.56278504 C5.32208755,9.83892647 5.0988154,10.063368 4.82267397,10.0640893 C4.69278152,10.0644286 4.56785522,10.014206 4.47434208,9.92405357 Z M6.8501085,0.740102307 L10.2026065,3.9721154 C10.4014084,4.16377251 10.4072003,4.48030201 10.2155432,4.67910383 C10.121304,4.7768561 9.99136182,4.83207794 9.85558065,4.83207794 L6.51152462,4.83207794 C6.23589213,4.83207794 6.01224628,4.60901548 6.01152633,4.33338393 L6.00308431,1.10137084 C6.00236303,0.825229406 6.22563518,0.600787831 6.50177661,0.600066549 C6.63166906,0.59972727 6.75659536,0.649949915 6.8501085,0.740102307 Z" id="Shape"></path>
                            </g>
                        </g>
                    </g>
                </g>
            </g>
        </g>
    </g>
</svg>