<?xml version="1.0" encoding="UTF-8"?>
<svg width="42px" height="47px" viewBox="0 0 42 47" version="1.1" xmlns="http://www.w3.org/2000/svg" xmlns:xlink="http://www.w3.org/1999/xlink">
    <!-- Generator: Sketch 48.2 (47327) - http://www.bohemiancoding.com/sketch -->
    <title>Disk2</title>
    <desc>Created with Sketch.</desc>
    <defs>
        <linearGradient x1="0%" y1="92.1192388%" x2="100%" y2="0%" id="linearGradient-1">
            <stop stop-color="#FFFFFF" stop-opacity="0" offset="0%"></stop>
            <stop stop-color="#FFFFFF" stop-opacity="0.2" offset="100%"></stop>
        </linearGradient>
    </defs>
    <g id="Alt-1" stroke="none" stroke-width="1" fill="none" fill-rule="evenodd" transform="translate(-463.000000, -713.000000)">
        <g id="Icons" transform="translate(47.000000, 14.000000)" fill-rule="nonzero">
            <g id="Disks" transform="translate(360.000000, 673.000000)">
                <g id="Gradient" transform="translate(0.000000, 26.000000)">
                    <g id="Disk2" transform="translate(56.000000, 0.000000)">
                        <rect id="rect5355-1-0" fill="#2980B9" x="0" y="0.36218" width="42" height="46" rx="3.0000222"></rect>
                        <path d="M0,0.36133 C0,12.85107 0,29.83781 0,43.36133 C0,45.02334 2.67598,46.36133 6,46.36133 L36,46.36133 C39.32402,46.36133 42,45.02334 42,43.36133 L42,3.36133 C42,1.69932 39.32402,0.36133 36,0.36133 L0,0.36133 Z" id="rect5355-1-3-9-4-8-1-2-6" fill="url(#linearGradient-1)"></path>
                        <rect id="rect5355-2-0-2" fill="#34495E" x="0" y="37.59619" width="42" height="8.7659817" rx="3.0000222"></rect>
                        <rect id="rect5355-2-6-6-9" fill="#F2C57C" x="28.18529" y="40.88904" width="9.8147163" height="2.0484672" rx="1.0242336"></rect>
                    </g>
                </g>
            </g>
        </g>
    </g>
</svg>