<?xml version="1.0" encoding="UTF-8"?>
<svg width="18px" height="20px" viewBox="0 0 18 20" version="1.1" xmlns="http://www.w3.org/2000/svg" xmlns:xlink="http://www.w3.org/1999/xlink">
    <!-- Generator: Sketch 48.2 (47327) - http://www.bohemiancoding.com/sketch -->
    <title>DL_LinuxDrive</title>
    <desc>Created with Sketch.</desc>
    <defs>
        <path d="M1.97822222,18.924 C3.03301587,19.0499683 4.21815873,19.7332698 5.20996825,19.8539048 C6.20711111,19.9798095 6.51568254,19.1748571 6.51568254,19.1748571 C6.51568254,19.1748571 7.63777778,18.924 8.81746032,18.8951111 C9.99828571,18.8620317 11.1160635,19.1406984 11.1160635,19.1406984 C11.1160635,19.1406984 11.3328254,19.6371429 11.7374603,19.8539048 C12.1420952,20.0748571 13.0132698,20.1047619 13.571619,19.5165079 C14.1310476,18.924 15.623619,18.1776508 16.4617143,17.7111111 C17.3051429,17.2434921 17.1503492,16.5303492 16.6208254,16.3135873 C16.0913016,16.0968889 15.6578413,15.7552381 15.6909206,15.0996825 C15.719746,14.4495238 15.2233016,14.0160635 15.2233016,14.0160635 C15.2233016,14.0160635 15.6578413,12.5854603 15.2532063,11.400381 C14.8485714,10.2206984 13.5140317,8.32349206 12.4880635,6.89714286 C11.4620952,5.46653968 12.3332063,3.81492063 11.3991111,1.70419048 C10.4648889,-0.409714286 8.04247619,-0.284761905 6.7367619,0.616253968 C5.43104762,1.51733333 5.83136508,3.75187302 5.89434921,4.81206349 C5.95733333,5.86685714 5.9231746,6.62165079 5.80253968,6.89288889 C5.68190476,7.16831746 4.83955556,8.16869841 4.28012698,9.00679365 C3.72177778,9.84914286 3.31707937,11.5883175 2.90819048,12.3057778 C2.50780952,13.0189841 2.78755556,13.6691429 2.78755556,13.6691429 C2.78755556,13.6691429 2.50787302,13.7652063 2.28685714,14.2328889 C2.07009524,14.6951746 1.63663492,14.916127 0.856190476,15.0667302 C0.0810793651,15.2257778 0.0810793651,15.7254603 0.267936508,16.2848889 C0.455809524,16.8432381 0.267936508,17.1560635 0.0511746032,17.8692698 C-0.16552381,18.5823492 0.919174603,18.7990476 1.97822222,18.924 Z M12.9427937,15.6708571 C13.4968889,15.9132063 14.2933333,15.5758095 14.5356825,15.3334603 C14.7770159,15.0921905 14.9478095,14.7334603 14.9478095,14.7334603 C14.9478095,14.7334603 15.1901587,14.8540952 15.1655873,15.2373333 C15.1399365,15.6259683 15.332127,16.1800635 15.6951111,16.372254 C16.0580952,16.5633651 16.6121905,16.8302222 16.3250159,17.0971429 C16.0324444,17.3640635 14.4139683,18.0153016 13.9303492,18.5234921 C13.4509841,19.0284444 12.8210794,19.4416508 12.4377778,19.3199365 C12.0502857,19.1993016 11.7118095,18.6697778 11.8784127,17.8946667 C12.0502857,17.1227937 12.1954921,16.276127 12.1709206,15.7925079 C12.1453333,15.3088889 12.0502857,14.6576508 12.1709206,14.5615238 C12.2915556,14.4664762 12.483746,14.512381 12.483746,14.512381 C12.483746,14.512381 12.3875556,15.4296508 12.9427937,15.6708571 Z M9.34704762,2.60526984 C9.8808254,2.60526984 10.3111111,3.13479365 10.3111111,3.78603175 C10.3111111,4.24831746 10.0943492,4.64869841 9.77726984,4.84088889 C9.69720635,4.80780952 9.61390476,4.7704127 9.52209524,4.73193651 C9.71428571,4.63695238 9.84768254,4.39460317 9.84768254,4.11485714 C9.84768254,3.74869841 9.62247619,3.44761905 9.33949206,3.44761905 C9.06406349,3.44761905 8.83447619,3.74863492 8.83447619,4.11485714 C8.83447619,4.24838095 8.86761905,4.38177778 8.92203175,4.4864127 C8.75549206,4.41911111 8.60495238,4.36152381 8.48431746,4.31561905 C8.42133333,4.15650794 8.38393651,3.97714286 8.38393651,3.78609524 C8.384,3.13485714 8.81314286,2.60526984 9.34704762,2.60526984 Z M8.02526984,4.64019048 C8.28793651,4.68609524 9.0095873,4.99892063 9.27657143,5.09498413 C9.54349206,5.18679365 9.8391746,5.3575873 9.81034921,5.52844444 C9.77726984,5.70457143 9.63955556,5.70457143 9.27657143,5.9255873 C8.91784127,6.14234921 8.13422222,6.62596825 7.88330159,6.65904762 C7.63346032,6.69212698 7.49149206,6.5511746 7.22450794,6.37930159 C6.9575873,6.20419048 6.45695238,5.79530159 6.58285714,5.57860317 C6.58285714,5.57860317 6.97466667,5.27860317 7.14552381,5.12488889 C7.31638095,4.96577778 7.75834921,4.59104762 8.02526984,4.64019048 Z M6.87434921,2.79320635 C7.29498413,2.79320635 7.63771429,3.29390476 7.63771429,3.91098413 C7.63771429,4.02311111 7.62488889,4.12768254 7.60463492,4.23231746 C7.5,4.26539683 7.39542857,4.31987302 7.29498413,4.40742857 C7.24590476,4.44907937 7.19993651,4.4864127 7.15834921,4.52806349 C7.22450794,4.4031746 7.25015873,4.22380952 7.22025397,4.03587302 C7.16260317,3.70279365 6.93733333,3.45619048 6.71631746,3.48926984 C6.49422222,3.52666667 6.36184127,3.832 6.4152381,4.16939683 C6.47396825,4.51104762 6.69492063,4.7575873 6.92019048,4.72025397 C6.93301587,4.716 6.9447619,4.71174603 6.9575873,4.70742857 C6.84977778,4.81206349 6.74939683,4.90387302 6.6447619,4.97860317 C6.34050794,4.83657143 6.1152381,4.41168254 6.1152381,3.91098413 C6.11530159,3.28965079 6.45263492,2.79320635 6.87434921,2.79320635 Z M4.53092063,10.8708571 C4.96438095,10.187619 5.24406349,8.69396825 5.67752381,8.19752381 C6.11530159,7.70215873 6.45263492,6.64628571 6.29892063,6.17974603 C6.29892063,6.17974603 7.23307937,7.29752381 7.88330159,7.11390476 C8.53453968,6.92596825 9.99828571,5.83809524 10.2149841,6.02495238 C10.431746,6.2128254 12.2958095,10.3125079 12.4836825,11.6182222 C12.671619,12.9228571 12.3587937,13.9200635 12.3587937,13.9200635 C12.3587937,13.9200635 11.6456508,13.732127 11.5537778,14.1655873 C11.4619683,14.6033016 11.4619683,16.1887619 11.4619683,16.1887619 C11.4619683,16.1887619 10.4979048,17.5233016 9.00533333,17.744254 C7.5127619,17.9610159 6.76539683,17.8029841 6.76539683,17.8029841 L5.92730159,16.8431746 C5.92730159,16.8431746 6.57860317,16.7471111 6.48673016,16.0926349 C6.39492063,15.4424762 4.49663492,14.5413333 4.15498413,13.7320635 C3.81346032,12.9227937 4.09212698,11.5551746 4.53092063,10.8708571 Z M0.840126984,15.7669841 C0.914857143,15.4467302 1.88209524,15.4467302 2.25365079,15.2214603 C2.62520635,14.9961905 2.69987302,14.3492063 2.99993651,14.1784127 C3.29561905,14.0033016 3.84228571,14.6246984 4.06755556,14.9747937 C4.28857143,15.3164444 5.1352381,16.8100952 5.48114286,17.1815873 C5.83130159,17.5563175 6.15269841,18.0527619 6.05231746,18.4990476 C5.95733333,18.9452698 5.43098413,19.2709206 5.43098413,19.2709206 C4.96019048,19.416127 3.64698413,18.8492063 3.05022222,18.5993651 C2.45346032,18.3485079 0.935238095,18.2737143 0.739873016,18.0527619 C0.539174603,17.8274921 0.835936508,17.3310476 0.914920635,16.8601905 C0.985333333,16.3840635 0.764380952,16.0883175 0.840126984,15.7669841 Z" id="path-1"></path>
        <filter x="-5.9%" y="-5.0%" width="111.7%" height="110.0%" filterUnits="objectBoundingBox" id="filter-2">
            <feGaussianBlur stdDeviation="0.5" in="SourceAlpha" result="shadowBlurInner1"></feGaussianBlur>
            <feOffset dx="0" dy="1" in="shadowBlurInner1" result="shadowOffsetInner1"></feOffset>
            <feComposite in="shadowOffsetInner1" in2="SourceAlpha" operator="arithmetic" k2="-1" k3="1" result="shadowInnerInner1"></feComposite>
            <feColorMatrix values="0 0 0 0 0   0 0 0 0 0   0 0 0 0 0  0 0 0 0.5 0" type="matrix" in="shadowInnerInner1"></feColorMatrix>
        </filter>
    </defs>
    <g id="Alt-1" stroke="none" stroke-width="1" fill="none" fill-rule="evenodd" transform="translate(-646.000000, -887.000000)">
        <g id="Icons" transform="translate(112.000000, 27.000000)" fill-rule="nonzero">
            <g id="Disks" transform="translate(0.000000, 815.000000)">
                <g id="DL_Linux" transform="translate(534.000000, 45.000000)">
                    <g id="Shape">
                        <use fill="#34495E" fill-rule="evenodd" xlink:href="#path-1"></use>
                        <use fill="black" fill-opacity="1" filter="url(#filter-2)" xlink:href="#path-1"></use>
                    </g>
                </g>
            </g>
        </g>
    </g>
</svg>