<?xml version="1.0" encoding="UTF-8"?>
<svg width="23px" height="25px" viewBox="0 0 23 25" version="1.1" xmlns="http://www.w3.org/2000/svg" xmlns:xlink="http://www.w3.org/1999/xlink">
    <!-- Generator: Sketch 53.2 (72643) - https://sketchapp.com -->
    <title>Group</title>
    <desc>Created with Sketch.</desc>
    <g id="Page-1" stroke="none" stroke-width="1" fill="none" fill-rule="evenodd">
        <g id="Alt-1" transform="translate(-754.000000, -955.000000)" fill="#000000" fill-rule="nonzero">
            <g id="Icons" transform="translate(141.000000, 46.000000)">
                <g id="Disks" transform="translate(0.000000, 866.000000)">
                    <g id="Linux-Copy" transform="translate(598.000000, 33.000000)">
                        <g id="Group" transform="translate(15.000000, 10.000000)">
                            <path d="M19.4071895,4.95577342 L18.7858388,4.95577342 L18.7858388,3.57276688 C18.7858388,1.60348584 17.1823529,0 15.2130719,0 L7.71176471,0 C5.74248366,0 4.13899782,1.60348584 4.13899782,3.57276688 L4.13899782,4.95577342 L3.57276688,4.95577342 C1.60348584,4.95577342 0,6.55925926 0,8.52854031 L0,14.2910675 C0,16.2603486 1.60348584,17.8638344 3.57276688,17.8638344 L4.13398693,17.8638344 L4.13398693,22.3936819 C4.13398693,23.375817 4.93572985,24.1775599 5.91786492,24.1775599 L16.9969499,24.1775599 C17.979085,24.1775599 18.7808279,23.375817 18.7808279,22.3936819 L18.7808279,17.8638344 L19.4071895,17.8638344 C21.3764706,17.8638344 22.9799564,16.2603486 22.9799564,14.2910675 L22.9799564,8.52854031 C22.9799564,6.55925926 21.3764706,4.95577342 19.4071895,4.95577342 Z M5.4869281,3.57276688 C5.4869281,2.35010893 6.48409586,1.35294118 7.70675381,1.35294118 L15.2030501,1.35294118 C16.4257081,1.35294118 17.4228758,2.35010893 17.4228758,3.57276688 L17.4228758,4.95577342 L5.4869281,4.95577342 L5.4869281,3.57276688 Z M17.4278867,22.4037037 C17.4278867,22.6392157 17.2324619,22.8346405 16.9969499,22.8346405 L5.91786492,22.8346405 C5.68235294,22.8346405 5.4869281,22.6392157 5.4869281,22.4037037 L5.4869281,14.9324619 L17.4278867,14.9324619 L17.4278867,22.4037037 Z M21.6270153,14.2960784 C21.6270153,15.5187364 20.6298475,16.5159041 19.4071895,16.5159041 L18.7858388,16.5159041 L18.7858388,14.9324619 L19.6777778,14.9324619 C20.0535948,14.9324619 20.3542484,14.6318083 20.3542484,14.2559913 C20.3542484,13.8801743 20.0535948,13.5795207 19.6777778,13.5795207 L3.14183007,13.5795207 C2.76601307,13.5795207 2.46535948,13.8801743 2.46535948,14.2559913 C2.46535948,14.6318083 2.76601307,14.9324619 3.14183007,14.9324619 L4.13899782,14.9324619 L4.13899782,16.5159041 L3.57276688,16.5159041 C2.35010893,16.5159041 1.35294118,15.5187364 1.35294118,14.2960784 L1.35294118,8.5335512 C1.35294118,7.31089325 2.35010893,6.31372549 3.57276688,6.31372549 L19.4071895,6.31372549 C20.6298475,6.31372549 21.6270153,7.31089325 21.6270153,8.5335512 L21.6270153,14.2960784 Z" id="Shape"></path>
                            <path d="M7.1254902,18.259695 L15.7392157,18.259695 C16.1150327,18.259695 16.4156863,17.9590414 16.4156863,17.5832244 C16.4156863,17.2074074 16.1150327,16.9067538 15.7392157,16.9067538 L7.1254902,16.9067538 C6.7496732,16.9067538 6.44901961,17.2074074 6.44901961,17.5832244 C6.44901961,17.9590414 6.7546841,18.259695 7.1254902,18.259695 Z" id="Path"></path>
                            <path d="M15.7943355,19.6727669 L7.17559913,19.6727669 C6.79978214,19.6727669 6.49912854,19.9734205 6.49912854,20.3492375 C6.49912854,20.7250545 6.79978214,21.0257081 7.17559913,21.0257081 L15.7893246,21.0257081 C16.1651416,21.0257081 16.4657952,20.7250545 16.4657952,20.3492375 C16.4657952,19.9734205 16.1651416,19.6727669 15.7943355,19.6727669 Z" id="Path"></path>
                            <path d="M19.3921569,7.61154684 L18.0191721,7.61154684 C17.6433551,7.61154684 17.3427015,7.91220044 17.3427015,8.28801743 C17.3427015,8.66383442 17.6433551,8.96448802 18.0191721,8.96448802 L19.3921569,8.96448802 C19.7679739,8.96448802 20.0686275,8.66383442 20.0686275,8.28801743 C20.0686275,7.91220044 19.7679739,7.61154684 19.3921569,7.61154684 Z" id="Path"></path>
                        </g>
                    </g>
                </g>
            </g>
        </g>
    </g>
</svg>