<?xml version="1.0" encoding="UTF-8"?>
<svg width="20px" height="19px" viewBox="0 0 20 19" version="1.1" xmlns="http://www.w3.org/2000/svg" xmlns:xlink="http://www.w3.org/1999/xlink">
    <!-- Generator: Sketch 48.2 (47327) - http://www.bohemiancoding.com/sketch -->
    <title>DL_SystemDrive</title>
    <desc>Created with Sketch.</desc>
    <defs>
        <path d="M8.60379464,11.3895089 C9.1060293,10.8872743 9.35714286,10.2812535 9.35714286,9.57142857 C9.35714286,8.86160359 9.1060293,8.25558287 8.60379464,7.75334821 C8.10155999,7.25111356 7.49553926,7 6.78571429,7 C6.07588931,7 5.46986858,7.25111356 4.96763393,7.75334821 C4.46539927,8.25558287 4.21428571,8.86160359 4.21428571,9.57142857 C4.21428571,10.2812535 4.46539927,10.8872743 4.96763393,11.3895089 C5.46986858,11.8917436 6.07588931,12.1428571 6.78571429,12.1428571 C7.49553926,12.1428571 8.10155999,11.8917436 8.60379464,11.3895089 Z M17.0714286,14.7142857 C17.0714286,14.3660697 16.9441977,14.0647334 16.6897321,13.8102679 C16.4352666,13.5558023 16.1339303,13.4285714 15.7857143,13.4285714 C15.4374983,13.4285714 15.136162,13.5558023 14.8816964,13.8102679 C14.6272309,14.0647334 14.5,14.3660697 14.5,14.7142857 C14.5,15.0691982 14.6255568,15.3722086 14.8766741,15.6233259 C15.1277914,15.8744432 15.4308018,16 15.7857143,16 C16.1406268,16 16.4436371,15.8744432 16.6947545,15.6233259 C16.9458718,15.3722086 17.0714286,15.0691982 17.0714286,14.7142857 Z M17.0714286,4.42857143 C17.0714286,4.0803554 16.9441977,3.77901913 16.6897321,3.52455357 C16.4352666,3.27008801 16.1339303,3.14285714 15.7857143,3.14285714 C15.4374983,3.14285714 15.136162,3.27008801 14.8816964,3.52455357 C14.6272309,3.77901913 14.5,4.0803554 14.5,4.42857143 C14.5,4.78348392 14.6255568,5.08649428 14.8766741,5.33761161 C15.1277914,5.58872893 15.4308018,5.71428571 15.7857143,5.71428571 C16.1406268,5.71428571 16.4436371,5.58872893 16.6947545,5.33761161 C16.9458718,5.08649428 17.0714286,4.78348392 17.0714286,4.42857143 Z M13.2142857,8.65736607 L13.2142857,10.515625 C13.2142857,10.5825896 13.1908484,10.6478791 13.1439732,10.7114955 C13.097098,10.7751119 13.0435271,10.8102678 12.9832589,10.8169643 L11.4263393,11.0580357 C11.3526782,11.2924119 11.2455364,11.5468736 11.1049107,11.8214286 C11.3325904,12.1428588 11.6339267,12.5278995 12.0089286,12.9765625 C12.0558038,13.0502236 12.0792411,13.1171872 12.0792411,13.1774554 C12.0792411,13.2578129 12.0558038,13.3214283 12.0089286,13.3683036 C11.8549099,13.5691974 11.578685,13.8688596 11.1802455,14.2672991 C10.781806,14.6657386 10.5189739,14.8649554 10.3917411,14.8649554 C10.31808,14.8649554 10.2477682,14.8415181 10.1808036,14.7946429 L9.02566964,13.890625 C8.77790055,14.0178578 8.52009063,14.1216514 8.25223214,14.2020089 C8.17857106,14.9252268 8.1015629,15.4441949 8.02120536,15.7589286 C7.97433012,15.9196437 7.8738847,16 7.71986607,16 L5.8515625,16 C5.77790142,16 5.7109378,15.9748886 5.65066964,15.9246652 C5.59040148,15.8744417 5.55691968,15.8158485 5.55022321,15.7488839 L5.31919643,14.2120536 C5.09151672,14.145089 4.84040316,14.0412953 4.56584821,13.9006696 L3.38058036,14.7946429 C3.33370512,14.8415181 3.26674151,14.8649554 3.1796875,14.8649554 C3.10602642,14.8649554 3.03571462,14.8381699 2.96875,14.7845982 C2.00445946,13.8939688 1.52232143,13.3582598 1.52232143,13.1774554 C1.52232143,13.1171872 1.54575869,13.0535718 1.59263393,12.9866071 C1.65959855,12.8928567 1.79687396,12.7154031 2.00446429,12.4542411 C2.21205461,12.1930791 2.36941911,11.98884 2.4765625,11.8415179 C2.32254387,11.5468735 2.20535754,11.2723227 2.125,11.0178571 L0.598214286,10.7767857 C0.531249665,10.7700893 0.474330592,10.7382815 0.427455357,10.6813616 C0.380580123,10.6244417 0.357142857,10.5591522 0.357142857,10.4854911 L0.357142857,8.62723214 C0.357142857,8.56026752 0.380580123,8.494978 0.427455357,8.43136161 C0.474330592,8.36774522 0.527901484,8.33258932 0.588169643,8.32589286 L2.14508929,8.08482143 C2.21875037,7.85044526 2.32589215,7.59598352 2.46651786,7.32142857 C2.23883815,6.99999839 1.93750188,6.6149576 1.5625,6.16629464 C1.51562477,6.09263356 1.4921875,6.02566994 1.4921875,5.96540179 C1.4921875,5.88504424 1.51562477,5.81808063 1.5625,5.76450893 C1.70982217,5.56361507 1.98437299,5.26562698 2.38616071,4.87053571 C2.78794844,4.47544445 3.05245472,4.27790179 3.1796875,4.27790179 C3.25334858,4.27790179 3.32366038,4.30133905 3.390625,4.34821429 L4.54575893,5.25223214 C4.77343864,5.13169583 5.03124856,5.02455404 5.31919643,4.93080357 C5.39285751,4.20758567 5.46986567,3.69196583 5.55022321,3.38392857 C5.59709845,3.22321348 5.69754387,3.14285714 5.8515625,3.14285714 L7.71986607,3.14285714 C7.79352715,3.14285714 7.86049077,3.1679685 7.92075893,3.21819196 C7.98102709,3.26841543 8.0145089,3.32700859 8.02120536,3.39397321 L8.25223214,4.93080357 C8.47991185,4.99776819 8.73102541,5.1015618 9.00558036,5.2421875 L10.1908482,4.34821429 C10.2444199,4.30133905 10.3113835,4.27790179 10.3917411,4.27790179 C10.4654022,4.27790179 10.535714,4.30468723 10.6026786,4.35825893 C11.5669691,5.24888838 12.0491071,5.78459731 12.0491071,5.96540179 C12.0491071,6.01897348 12.0256699,6.08258892 11.9787946,6.15625 C11.8984371,6.26339339 11.7578135,6.44419516 11.5569196,6.69866071 C11.3560258,6.95312627 11.2053576,7.15401712 11.1049107,7.30133929 C11.2589293,7.62276946 11.3727675,7.89732029 11.4464286,8.125 L12.9732143,8.35602679 C13.0401789,8.36941971 13.097098,8.40457561 13.1439732,8.46149554 C13.1908484,8.51841546 13.2142857,8.58370499 13.2142857,8.65736607 Z M19.6428571,14.0111607 L19.6428571,15.4174107 C19.6428571,15.5245541 19.1439782,15.6283477 18.1462054,15.7287946 C18.0658478,15.9095991 17.9654024,16.0837045 17.8448661,16.2511161 C18.1863856,17.0078163 18.3571429,17.4698652 18.3571429,17.6372768 C18.3571429,17.6640626 18.3437501,17.6874999 18.3169643,17.7075893 C17.4999959,18.1830381 17.0848215,18.4207589 17.0714286,18.4207589 C17.0178569,18.4207589 16.8638406,18.2633944 16.609375,17.9486607 C16.3549094,17.633927 16.180804,17.4062507 16.0870536,17.265625 C15.9531243,17.2790179 15.8526789,17.2857143 15.7857143,17.2857143 C15.7187497,17.2857143 15.6183042,17.2790179 15.484375,17.265625 C15.3906245,17.4062507 15.2165191,17.633927 14.9620536,17.9486607 C14.707588,18.2633944 14.5535717,18.4207589 14.5,18.4207589 C14.4866071,18.4207589 14.0714327,18.1830381 13.2544643,17.7075893 C13.2276784,17.6874999 13.2142857,17.6640626 13.2142857,17.6372768 C13.2142857,17.4698652 13.3850429,17.0078163 13.7265625,16.2511161 C13.6060262,16.0837045 13.5055808,15.9095991 13.4252232,15.7287946 C12.4274504,15.6283477 11.9285714,15.5245541 11.9285714,15.4174107 L11.9285714,14.0111607 C11.9285714,13.9040173 12.4274504,13.8002237 13.4252232,13.6997768 C13.5122772,13.5055794 13.6127226,13.331474 13.7265625,13.1774554 C13.3850429,12.4207551 13.2142857,11.9587062 13.2142857,11.7912946 C13.2142857,11.7645088 13.2276784,11.7410715 13.2544643,11.7209821 C13.2812501,11.7075892 13.3984365,11.6406256 13.6060268,11.5200893 C13.8136171,11.399553 14.0111598,11.2857148 14.1986607,11.1785714 C14.3861617,11.071428 14.4866071,11.0178571 14.5,11.0178571 C14.5535717,11.0178571 14.707588,11.1735476 14.9620536,11.484933 C15.2165191,11.7963185 15.3906245,12.0223207 15.484375,12.1629464 C15.6183042,12.1495535 15.7187497,12.1428571 15.7857143,12.1428571 C15.8526789,12.1428571 15.9531243,12.1495535 16.0870536,12.1629464 C16.4285731,11.6874976 16.7366058,11.3125014 17.0111607,11.0379464 L17.0714286,11.0178571 C17.0982144,11.0178571 17.5133888,11.2522298 18.3169643,11.7209821 C18.3437501,11.7410715 18.3571429,11.7645088 18.3571429,11.7912946 C18.3571429,11.9587062 18.1863856,12.4207551 17.8448661,13.1774554 C17.9587059,13.331474 18.0591514,13.5055794 18.1462054,13.6997768 C19.1439782,13.8002237 19.6428571,13.9040173 19.6428571,14.0111607 Z M19.6428571,3.72544643 L19.6428571,5.13169643 C19.6428571,5.23883982 19.1439782,5.34263343 18.1462054,5.44308036 C18.0658478,5.62388483 17.9654024,5.79799023 17.8448661,5.96540179 C18.1863856,6.722102 18.3571429,7.18415095 18.3571429,7.3515625 C18.3571429,7.37834835 18.3437501,7.40178561 18.3169643,7.421875 C17.4999959,7.89732381 17.0848215,8.13504464 17.0714286,8.13504464 C17.0178569,8.13504464 16.8638406,7.97768015 16.609375,7.66294643 C16.3549094,7.34821271 16.180804,7.12053642 16.0870536,6.97991071 C15.9531243,6.99330364 15.8526789,7 15.7857143,7 C15.7187497,7 15.6183042,6.99330364 15.484375,6.97991071 C15.3906245,7.12053642 15.2165191,7.34821271 14.9620536,7.66294643 C14.707588,7.97768015 14.5535717,8.13504464 14.5,8.13504464 C14.4866071,8.13504464 14.0714327,7.89732381 13.2544643,7.421875 C13.2276784,7.40178561 13.2142857,7.37834835 13.2142857,7.3515625 C13.2142857,7.18415095 13.3850429,6.722102 13.7265625,5.96540179 C13.6060262,5.79799023 13.5055808,5.62388483 13.4252232,5.44308036 C12.4274504,5.34263343 11.9285714,5.23883982 11.9285714,5.13169643 L11.9285714,3.72544643 C11.9285714,3.61830304 12.4274504,3.51450943 13.4252232,3.4140625 C13.5122772,3.2198651 13.6127226,3.0457597 13.7265625,2.89174107 C13.3850429,2.13504086 13.2142857,1.67299191 13.2142857,1.50558036 C13.2142857,1.47879451 13.2276784,1.45535724 13.2544643,1.43526786 C13.2812501,1.42187493 13.3984365,1.35491132 13.6060268,1.234375 C13.8136171,1.11383868 14.0111598,1.00000054 14.1986607,0.892857143 C14.3861617,0.78571375 14.4866071,0.732142857 14.5,0.732142857 C14.5535717,0.732142857 14.707588,0.887833265 14.9620536,1.19921875 C15.2165191,1.51060424 15.3906245,1.73660644 15.484375,1.87723214 C15.6183042,1.86383922 15.7187497,1.85714286 15.7857143,1.85714286 C15.8526789,1.85714286 15.9531243,1.86383922 16.0870536,1.87723214 C16.4285731,1.40178334 16.7366058,1.02678709 17.0111607,0.752232143 L17.0714286,0.732142857 C17.0982144,0.732142857 17.5133888,0.966515513 18.3169643,1.43526786 C18.3437501,1.45535724 18.3571429,1.47879451 18.3571429,1.50558036 C18.3571429,1.67299191 18.1863856,2.13504086 17.8448661,2.89174107 C17.9587059,3.0457597 18.0591514,3.2198651 18.1462054,3.4140625 C19.1439782,3.51450943 19.6428571,3.61830304 19.6428571,3.72544643 Z" id="path-1"></path>
        <filter x="-5.2%" y="-5.7%" width="110.4%" height="111.3%" filterUnits="objectBoundingBox" id="filter-2">
            <feGaussianBlur stdDeviation="0.5" in="SourceAlpha" result="shadowBlurInner1"></feGaussianBlur>
            <feOffset dx="0" dy="1" in="shadowBlurInner1" result="shadowOffsetInner1"></feOffset>
            <feComposite in="shadowOffsetInner1" in2="SourceAlpha" operator="arithmetic" k2="-1" k3="1" result="shadowInnerInner1"></feComposite>
            <feColorMatrix values="0 0 0 0 0   0 0 0 0 0   0 0 0 0 0  0 0 0 0.5 0" type="matrix" in="shadowInnerInner1"></feColorMatrix>
        </filter>
    </defs>
    <g id="Alt-1" stroke="none" stroke-width="1" fill="none" fill-rule="evenodd" transform="translate(-542.000000, -888.000000)" opacity="0.8">
        <g id="Icons" transform="translate(112.000000, 27.000000)">
            <g id="Disks" transform="translate(0.000000, 815.000000)">
                <g id="DL_SystemDrive" transform="translate(430.000000, 46.000000)">
                    <g id="">
                        <use fill="#34495E" fill-rule="evenodd" xlink:href="#path-1"></use>
                        <use fill="black" fill-opacity="1" filter="url(#filter-2)" xlink:href="#path-1"></use>
                    </g>
                </g>
            </g>
        </g>
    </g>
</svg>