<?xml version="1.0" encoding="UTF-8"?>
<svg width="49px" height="56px" viewBox="0 0 49 56" version="1.1" xmlns="http://www.w3.org/2000/svg" xmlns:xlink="http://www.w3.org/1999/xlink">
    <!-- Generator: Sketch 48.2 (47327) - http://www.bohemiancoding.com/sketch -->
    <title>File_Sound</title>
    <desc>Created with Sketch.</desc>
    <defs>
        <linearGradient x1="0%" y1="100%" x2="100%" y2="0%" id="linearGradient-1">
            <stop stop-color="#FFFFFF" stop-opacity="0" offset="0%"></stop>
            <stop stop-color="#FFFFFF" stop-opacity="0.2" offset="100%"></stop>
        </linearGradient>
    </defs>
    <g id="Alt-1" stroke="none" stroke-width="1" fill="none" fill-rule="evenodd" transform="translate(-701.000000, -55.000000)">
        <g id="Icons" transform="translate(112.000000, 27.000000)">
            <g id="Filetypes">
                <g id="FiletypesGradient" transform="translate(0.000000, 26.000000)">
                    <g id="File_Sound" transform="translate(589.076923, 2.000000)">
                        <g>
                            <path d="M1,0 L47,0 C47.5522847,-1.01453063e-16 48,0.44771525 48,1 L48,55 C48,55.5522847 47.5522847,56 47,56 L1,56 C0.44771525,56 6.76353751e-17,55.5522847 0,55 L0,1 C-6.76353751e-17,0.44771525 0.44771525,1.01453063e-16 1,0 Z" id="rect4177-7" fill="#9B59B6" fill-rule="nonzero"></path>
                            <rect id="Rectangle" fill="url(#linearGradient-1)" x="0" y="0" width="48" height="56"></rect>
                            <path d="M0,31.7535161 C3.02938538,31.6372456 6.88211446,32.6903154 9.05861009,30.0056659 C10.1512043,29.1161655 10.6625388,24.7138766 12.1013755,26.4377277 C12.0742328,27.4949234 11.6225046,31.8400341 13.1806614,30.704767 C15.4164285,28.9583838 16.0323879,33.6897714 17.7337911,34.6432807 C19.9997619,35.3198268 18.594716,31.3245245 20.2750866,30.3976961 C22.3487031,28.2353983 22.4204578,25.3782627 22.9638613,22.6853155 C23.8852415,21.2250642 23.1755622,25.1044169 23.3917949,25.92592 C23.6685545,27.0820344 22.8093035,30.5137832 23.9002238,29.1920593 C24.2631943,30.7428744 24.1919776,33.1637178 25.7030712,32.9115215 C26.9481786,31.346644 26.0530443,28.1325256 28.1881324,26.5620781 C30.01939,25.5821744 27.748732,21.1953118 29.9966714,21.2812453 C30.9145362,23.9215184 31.8211493,26.6637932 32.9454778,29.2126659 C33.914794,30.5936425 33.1391832,34.4091582 35.2889546,34.107302 C34.7174878,32.6770667 36.2828428,32.5730938 36.7586646,32.4481016 C37.099921,30.8908914 38.677556,27.2038175 39.9822935,30.0982696 C41.8850427,31.5899581 44.6362456,31.2059619 46.9828194,31.3638124 C47.3218995,31.3603741 47.6609438,31.3534976 48,31.3473087" id="path5860-2" stroke="#FFFFFF" stroke-width="1.39999998"></path>
                        </g>
                    </g>
                </g>
            </g>
        </g>
    </g>
</svg>