<?xml version="1.0" encoding="UTF-8"?>
<svg width="49px" height="56px" viewBox="0 0 49 56" version="1.1" xmlns="http://www.w3.org/2000/svg" xmlns:xlink="http://www.w3.org/1999/xlink">
    <!-- Generator: Sketch 48.2 (47327) - http://www.bohemiancoding.com/sketch -->
    <title>File_Text</title>
    <desc>Created with Sketch.</desc>
    <defs>
        <linearGradient x1="6.52806252%" y1="100%" x2="100%" y2="0%" id="linearGradient-1">
            <stop stop-color="#FFFFFF" stop-opacity="0" offset="0%"></stop>
            <stop stop-color="#FFFFFF" stop-opacity="0.2" offset="100%"></stop>
        </linearGradient>
    </defs>
    <g id="Alt-1" stroke="none" stroke-width="1" fill="none" fill-rule="evenodd" transform="translate(-785.000000, -55.000000)">
        <g id="Icons" transform="translate(112.000000, 27.000000)">
            <g id="Filetypes">
                <g id="FiletypesGradient" transform="translate(0.000000, 26.000000)">
                    <g id="File_Text" transform="translate(673.230769, 2.000000)">
                        <g>
                            <path d="M1,0 L47,0 C47.5522847,-1.01453063e-16 48,0.44771525 48,1 L48,55 C48,55.5522847 47.5522847,56 47,56 L1,56 C0.44771525,56 6.76353751e-17,55.5522847 0,55 L0,1 C-6.76353751e-17,0.44771525 0.44771525,1.01453063e-16 1,0 Z" id="rect4177-7" fill="#ECF0F1" fill-rule="nonzero"></path>
                            <path d="M0,0 L47,0 C47.5522847,-1.01453063e-16 48,0.44771525 48,1 L48,55 C48,55.5522847 47.5522847,56 47,56 L0,56 L0,0 Z" id="Rectangle" fill="url(#linearGradient-1)"></path>
                            <rect id="rect4175-2-68-3" fill="#4D4D4D" fill-rule="nonzero" opacity="0.8" x="6" y="16.8" width="37.2" height="2.24"></rect>
                            <rect id="rect4175-5-0-8-6" fill="#333333" fill-rule="nonzero" opacity="0.8" x="6" y="23.52" width="37.2" height="2.24"></rect>
                            <rect id="rect4175-5-6-6-4-8" fill="#4D4D4D" fill-rule="nonzero" opacity="0.8" x="6" y="30.24" width="37.2" height="2.24"></rect>
                            <rect id="rect4175-5-6-2-1-3-0" fill="#1A1A1A" fill-rule="nonzero" opacity="0.8" x="6" y="36.96" width="37.2" height="2.24"></rect>
                        </g>
                    </g>
                </g>
            </g>
        </g>
    </g>
</svg>