<?xml version="1.0" encoding="UTF-8"?>
<svg width="48px" height="56px" viewBox="0 0 48 56" version="1.1" xmlns="http://www.w3.org/2000/svg" xmlns:xlink="http://www.w3.org/1999/xlink">
    <!-- Generator: Sketch 48.2 (47327) - http://www.bohemiancoding.com/sketch -->
    <title>File_Function</title>
    <desc>Created with Sketch.</desc>
    <defs>
        <linearGradient x1="0%" y1="100%" x2="100%" y2="0%" id="linearGradient-1">
            <stop stop-color="#FFFFFF" stop-opacity="0" offset="0%"></stop>
            <stop stop-color="#FFFFFF" stop-opacity="0.2" offset="100%"></stop>
        </linearGradient>
    </defs>
    <g id="Alt-1" stroke="none" stroke-width="1" fill="none" fill-rule="evenodd" transform="translate(-917.000000, -81.000000)">
        <g id="Icons" transform="translate(75.000000, 53.000000)">
            <g id="Filetypes">
                <g id="FiletypesGradient" transform="translate(0.000000, 26.000000)">
                    <g id="File_Function" transform="translate(842.000000, 2.000000)">
                        <g>
                            <path d="M1,0 L47,0 C47.5522847,-1.01453063e-16 48,0.44771525 48,1 L48,55 C48,55.5522847 47.5522847,56 47,56 L1,56 C0.44771525,56 6.76353751e-17,55.5522847 0,55 L0,1 C-6.76353751e-17,0.44771525 0.44771525,1.01453063e-16 1,0 Z" id="rect4177-7" fill="#ECF0F1" fill-rule="nonzero"></path>
                            <path d="M0,0 L47,0 C47.5522847,-1.01453063e-16 48,0.44771525 48,1 L48,55 C48,55.5522847 47.5522847,56 47,56 L0,56 L0,0 Z" id="Rectangle" fill="url(#linearGradient-1)"></path>
                            <g id="Group-5" transform="translate(6.000000, 10.000000)" fill="#34495E">
                                <polygon id="rect4775-2" fill-rule="nonzero" points="14 13 14 23 24 17.8000019"></polygon>
                                <path d="M25.0703125,25.0703125 C27.0234473,23.1171777 28,20.7604305 28,18 C28,15.2395695 27.0234473,12.8828223 25.0703125,10.9296875 C23.1171777,8.97655273 20.7604305,8 18,8 C15.2395695,8 12.8828223,8.97655273 10.9296875,10.9296875 C8.97655273,12.8828223 8,15.2395695 8,18 C8,20.7604305 8.97655273,23.1171777 10.9296875,25.0703125 C12.8828223,27.0234473 15.2395695,28 18,28 C20.7604305,28 23.1171777,27.0234473 25.0703125,25.0703125 Z M36,15.4453125 L36,20.6484375 C36,20.8359384 35.9375006,21.0156241 35.8125,21.1875 C35.6874994,21.3593759 35.5312509,21.4609373 35.34375,21.4921875 L31.0078125,22.1484375 C30.710936,22.9921917 30.4062516,23.7031221 30.09375,24.28125 C30.6406277,25.0625039 31.4765569,26.1406181 32.6015625,27.515625 C32.7578133,27.7031259 32.8359375,27.8984365 32.8359375,28.1015625 C32.8359375,28.3046885 32.7656257,28.4843742 32.625,28.640625 C32.2031229,29.2187529 31.4296931,30.0624945 30.3046875,31.171875 C29.1796819,32.2812555 28.4453142,32.8359375 28.1015625,32.8359375 C27.9140616,32.8359375 27.7109386,32.7656257 27.4921875,32.625 L24.2578125,30.09375 C23.5703091,30.4531268 22.8593787,30.7499988 22.125,30.984375 C21.8749988,33.1093856 21.6484385,34.5624961 21.4453125,35.34375 C21.335937,35.7812522 21.0546898,36 20.6015625,36 L15.3984375,36 C15.1796864,36 14.9882821,35.9335944 14.8242188,35.8007812 C14.6601554,35.6679681 14.5703126,35.500001 14.5546875,35.296875 L13.8984375,30.984375 C13.1328087,30.7343737 12.4296907,30.4453141 11.7890625,30.1171875 L8.484375,32.625 C8.32812422,32.7656257 8.13281367,32.8359375 7.8984375,32.8359375 C7.67968641,32.8359375 7.48437586,32.7500009 7.3125,32.578125 C5.34374016,30.7968661 4.05469055,29.4843792 3.4453125,28.640625 C3.33593695,28.4843742 3.28125,28.3046885 3.28125,28.1015625 C3.28125,27.9140616 3.34374937,27.7343759 3.46875,27.5625 C3.70312617,27.2343734 4.10155969,26.7148473 4.6640625,26.0039062 C5.22656531,25.2929652 5.64843609,24.7421895 5.9296875,24.3515625 C5.50781039,23.5703086 5.18750109,22.7968788 4.96875,22.03125 L0.6796875,21.3984375 C0.476561484,21.3671873 0.312500625,21.2695321 0.1875,21.1054687 C0.062499375,20.9414054 0,20.7578135 0,20.5546875 L0,15.3515625 C0,15.1640616 0.062499375,14.9843759 0.1875,14.8125 C0.312500625,14.6406241 0.460936641,14.5390627 0.6328125,14.5078125 L4.9921875,13.8515625 C5.21093859,13.1328089 5.51562305,12.4140661 5.90625,11.6953125 C5.28124688,10.804683 4.44531773,9.72656883 3.3984375,8.4609375 C3.24218672,8.27343656 3.1640625,8.08593844 3.1640625,7.8984375 C3.1640625,7.74218672 3.2343743,7.56250102 3.375,7.359375 C3.78125203,6.79687219 4.55077559,5.95703684 5.68359375,4.83984375 C6.81641191,3.72265066 7.55468578,3.1640625 7.8984375,3.1640625 C8.10156352,3.1640625 8.30468648,3.24218672 8.5078125,3.3984375 L11.7421875,5.90625 C12.4296909,5.5468732 13.1406213,5.25000117 13.875,5.015625 C14.1250012,2.89061438 14.3515615,1.43750391 14.5546875,0.65625 C14.664063,0.218747813 14.9453102,0 15.3984375,0 L20.6015625,0 C20.8203136,0 21.0117179,0.0664055859 21.1757812,0.19921875 C21.3398446,0.332031914 21.4296874,0.499998984 21.4453125,0.703125 L22.1015625,5.015625 C22.8671913,5.26562625 23.5703093,5.55468586 24.2109375,5.8828125 L27.5390625,3.375 C27.6796882,3.2343743 27.8671863,3.1640625 28.1015625,3.1640625 C28.3046885,3.1640625 28.4999991,3.24218672 28.6875,3.3984375 C30.7031351,5.2578218 31.9921847,6.58593352 32.5546875,7.3828125 C32.664063,7.50781313 32.71875,7.67968641 32.71875,7.8984375 C32.71875,8.08593844 32.6562506,8.26562414 32.53125,8.4375 C32.2968738,8.76562664 31.8984403,9.2851527 31.3359375,9.99609375 C30.7734347,10.7070348 30.3515639,11.2578105 30.0703125,11.6484375 C30.4765645,12.4296914 30.7968738,13.1953087 31.03125,13.9453125 L35.3203125,14.6015625 C35.5234385,14.6328127 35.6874994,14.7304679 35.8125,14.8945313 C35.9375006,15.0585946 36,15.2421865 36,15.4453125 Z" id=""></path>
                            </g>
                        </g>
                    </g>
                </g>
            </g>
        </g>
    </g>
</svg>