<?xml version="1.0" encoding="UTF-8"?>
<svg width="48px" height="56px" viewBox="0 0 48 56" version="1.1" xmlns="http://www.w3.org/2000/svg" xmlns:xlink="http://www.w3.org/1999/xlink">
    <!-- Generator: Sketch 48.2 (47327) - http://www.bohemiancoding.com/sketch -->
    <title>File_Module</title>
    <desc>Created with Sketch.</desc>
    <defs>
        <linearGradient x1="0%" y1="100%" x2="100%" y2="0%" id="linearGradient-1">
            <stop stop-color="#FFFFFF" stop-opacity="0" offset="0%"></stop>
            <stop stop-color="#FFFFFF" stop-opacity="0.2" offset="100%"></stop>
        </linearGradient>
    </defs>
    <g id="Alt-1" stroke="none" stroke-width="1" fill="none" fill-rule="evenodd" transform="translate(-533.000000, -177.000000)">
        <g id="Icons" transform="translate(112.000000, 27.000000)">
            <g id="Filetypes">
                <g id="FiletypesGradient" transform="translate(0.000000, 26.000000)">
                    <g id="File_Module" transform="translate(421.000000, 124.000000)">
                        <g>
                            <path d="M1,0 L47,0 C47.5522847,-1.01453063e-16 48,0.44771525 48,1 L48,55 C48,55.5522847 47.5522847,56 47,56 L1,56 C0.44771525,56 6.76353751e-17,55.5522847 0,55 L0,1 C-6.76353751e-17,0.44771525 0.44771525,1.01453063e-16 1,0 Z" id="rect4177-7" fill="#34495E" fill-rule="nonzero"></path>
                            <rect id="Rectangle" fill="url(#linearGradient-1)" x="0" y="0" width="48" height="56"></rect>
                            <path d="M31.8375469,28.65625 L34.096875,28.65625 C34.4851875,28.65625 34.8,28.362425 34.8,28 L34.8,21.67375 C34.8,21.311325 34.4851875,21.0175 34.096875,21.0175 L28.021875,21.0175 L28.021875,19.565 C28.021875,18.0403563 26.692875,16.8 25.059375,16.8 C23.425875,16.8 22.096875,18.0404 22.096875,19.565 L22.096875,21.0175 L16.021875,21.0175 C15.6335625,21.0175 15.31875,21.311325 15.31875,21.67375 L15.31875,27.34375 L13.7625,27.34375 C12.129,27.34375 10.8,28.58415 10.8,30.10875 C10.8,31.63335 12.129,32.87375 13.7625,32.87375 L15.31875,32.87375 L15.31875,38.54375 C15.31875,38.906175 15.6335625,39.2 16.021875,39.2 L22.8,39.2 C23.1883125,39.2 23.503125,38.906175 23.503125,38.54375 L23.503125,36.435 C23.503125,35.6340687 24.2012813,34.9825 25.059375,34.9825 C25.9174687,34.9825 26.615625,35.6341125 26.615625,36.435 L26.615625,38.54375 C26.615625,38.906175 26.9304375,39.2 27.31875,39.2 L34.096875,39.2 C34.4851875,39.2 34.8,38.906175 34.8,38.54375 L34.8,32.2175 C34.8,31.855075 34.4851875,31.56125 34.096875,31.56125 L31.8375469,31.56125 C30.9793594,31.56125 30.28125,30.9096375 30.28125,30.10875 C30.28125,29.3078625 30.9793594,28.65625 31.8375469,28.65625 Z M31.8375469,32.87375 L33.39375,32.87375 L33.39375,37.8875 L28.021875,37.8875 L28.021875,36.435 C28.021875,34.9103563 26.692875,33.67 25.059375,33.67 C23.425875,33.67 22.096875,34.9103563 22.096875,36.435 L22.096875,37.8875 L16.725,37.8875 L16.725,32.2175 C16.725,31.855075 16.4101875,31.56125 16.021875,31.56125 L13.7625,31.56125 C12.9043594,31.56125 12.20625,30.9096375 12.20625,30.10875 C12.20625,29.3078625 12.9044062,28.65625 13.7625,28.65625 L16.021875,28.65625 C16.4101875,28.65625 16.725,28.362425 16.725,28 L16.725,22.33 L22.8,22.33 C23.1883125,22.33 23.503125,22.036175 23.503125,21.67375 L23.503125,19.565 C23.503125,18.7640687 24.2012813,18.1125 25.059375,18.1125 C25.9174687,18.1125 26.615625,18.7641125 26.615625,19.565 L26.615625,21.67375 C26.615625,22.036175 26.9304375,22.33 27.31875,22.33 L33.39375,22.33 L33.39375,27.34375 L31.8375469,27.34375 C30.2039531,27.34375 28.875,28.58415 28.875,30.10875 C28.875,31.63335 30.2039531,32.87375 31.8375469,32.87375 Z" id="Shape" fill="#FFFFFF" fill-rule="nonzero"></path>
                        </g>
                    </g>
                </g>
            </g>
        </g>
    </g>
</svg>