<?xml version="1.0" encoding="UTF-8" standalone="no"?>
<svg
   xmlns:dc="http://purl.org/dc/elements/1.1/"
   xmlns:cc="http://creativecommons.org/ns#"
   xmlns:rdf="http://www.w3.org/1999/02/22-rdf-syntax-ns#"
   xmlns:svg="http://www.w3.org/2000/svg"
   xmlns="http://www.w3.org/2000/svg"
   xmlns:sodipodi="http://sodipodi.sourceforge.net/DTD/sodipodi-0.dtd"
   xmlns:inkscape="http://www.inkscape.org/namespaces/inkscape"
   inkscape:version="1.0 (4035a4f, 2020-05-01)"
   sodipodi:docname="File_Drawio.svg"
   id="svg968"
   version="1.1"
   viewBox="0 0 49 56"
   height="56px"
   width="49px">
  <metadata
     id="metadata972">
    <rdf:RDF>
      <cc:Work
         rdf:about="">
        <dc:format>image/svg+xml</dc:format>
        <dc:type
           rdf:resource="http://purl.org/dc/dcmitype/StillImage" />
        <dc:title>File_Vector</dc:title>
      </cc:Work>
    </rdf:RDF>
  </metadata>
  <sodipodi:namedview
     inkscape:current-layer="svg968"
     inkscape:window-maximized="1"
     inkscape:window-y="28"
     inkscape:window-x="0"
     inkscape:cy="28"
     inkscape:cx="28.541909"
     inkscape:zoom="8"
     showgrid="false"
     id="namedview970"
     inkscape:window-height="1024"
     inkscape:window-width="1920"
     inkscape:pageshadow="2"
     inkscape:pageopacity="0"
     guidetolerance="10"
     gridtolerance="10"
     objecttolerance="10"
     borderopacity="1"
     bordercolor="#666666"
     pagecolor="#ffffff" />
  <!-- Generator: Sketch 48.2 (47327) - http://www.bohemiancoding.com/sketch -->
  <title
     id="title947">File_Vector</title>
  <desc
     id="desc949">Created with Sketch.</desc>
  <defs
     id="defs956">
    <linearGradient
       id="linearGradient-1"
       y2="0%"
       x2="100%"
       y1="100%"
       x1="0%">
      <stop
         id="stop951"
         offset="0%"
         stop-opacity="0"
         stop-color="#FFFFFF" />
      <stop
         id="stop953"
         offset="100%"
         stop-opacity="0.2"
         stop-color="#FFFFFF" />
    </linearGradient>
  </defs>
  <g
     transform="translate(-532.000000, -55.000000)"
     fill-rule="evenodd"
     fill="none"
     stroke-width="1"
     stroke="none"
     id="Alt-1">
    <g
       transform="translate(112.000000, 27.000000)"
       id="Icons">
      <g
         id="Filetypes">
        <g
           transform="translate(0.000000, 26.000000)"
           id="FiletypesGradient">
          <g
             transform="translate(420.769231, 2.000000)"
             id="File_Vector">
            <g
               id="g961">
              <path
                 fill-rule="nonzero"
                 fill="#F39C12"
                 id="rect4177-7"
                 d="M1,0 L47,0 C47.5522847,-1.01453063e-16 48,0.44771525 48,1 L48,55 C48,55.5522847 47.5522847,56 47,56 L1,56 C0.44771525,56 6.76353751e-17,55.5522847 0,55 L0,1 C-6.76353751e-17,0.44771525 0.44771525,1.01453063e-16 1,0 Z" />
              <rect
                 height="56"
                 width="48"
                 y="0"
                 x="0"
                 fill="url(#linearGradient-1)"
                 id="Rectangle" />
            </g>
          </g>
        </g>
      </g>
    </g>
  </g>
  <path
     d="M 22.035156 15.841797 C 21.637875 15.841797 21.318359 16.161313 21.318359 16.558594 L 21.318359 21.970703 C 21.318359 22.367984 21.637875 22.6875 22.035156 22.6875 L 22.179688 22.6875 L 15.322266 33.474609 L 12.806641 33.474609 C 12.409361 33.474609 12.089844 33.794125 12.089844 34.191406 L 12.089844 39.603516 C 12.089844 40.000797 12.409361 40.320312 12.806641 40.320312 L 19.259766 40.320312 C 19.657047 40.320312 19.976562 40.000797 19.976562 39.603516 L 19.976562 34.191406 C 19.976562 33.794125 19.657047 33.474609 19.259766 33.474609 L 17.251953 33.474609 L 24.109375 22.6875 L 26.414062 22.6875 L 33.271484 33.474609 L 31.263672 33.474609 C 30.866392 33.474609 30.546875 33.794125 30.546875 34.191406 L 30.546875 39.603516 C 30.546875 40.000797 30.866392 40.320312 31.263672 40.320312 L 37.71875 40.320312 C 38.116031 40.320312 38.435547 40.000797 38.435547 39.603516 L 38.435547 34.191406 C 38.435547 33.794125 38.116031 33.474609 37.71875 33.474609 L 35.201172 33.474609 L 28.34375 22.6875 L 28.488281 22.6875 C 28.885561 22.6875 29.205078 22.367984 29.205078 21.970703 L 29.205078 16.558594 C 29.205078 16.161313 28.885561 15.841797 28.488281 15.841797 L 22.035156 15.841797 z "
     style="color:#000000;overflow:visible;opacity:1;fill:#ffffff;stroke:none;stroke-width:26.4567;stroke-linejoin:round"
     id="rect1001" />
</svg>
