<?xml version="1.0" encoding="UTF-8"?>
<svg width="49px" height="56px" viewBox="0 0 49 56" version="1.1" xmlns="http://www.w3.org/2000/svg" xmlns:xlink="http://www.w3.org/1999/xlink">
    <!-- Generator: Sketch 48.2 (47327) - http://www.bohemiancoding.com/sketch -->
    <title>File_Library</title>
    <desc>Created with Sketch.</desc>
    <defs>
        <linearGradient x1="0%" y1="100%" x2="100%" y2="0%" id="linearGradient-1">
            <stop stop-color="#FFFFFF" stop-opacity="0" offset="0%"></stop>
            <stop stop-color="#FFFFFF" stop-opacity="0.2" offset="100%"></stop>
        </linearGradient>
    </defs>
    <g id="Alt-1" stroke="none" stroke-width="1" fill="none" fill-rule="evenodd" transform="translate(-448.000000, -177.000000)">
        <g id="Icons" transform="translate(112.000000, 27.000000)">
            <g id="Filetypes">
                <g id="FiletypesGradient" transform="translate(0.000000, 26.000000)">
                    <g id="File_Library" transform="translate(336.800000, 124.000000)">
                        <g>
                            <path d="M1,0 L47,0 C47.5522847,-1.01453063e-16 48,0.44771525 48,1 L48,55 C48,55.5522847 47.5522847,56 47,56 L1,56 C0.44771525,56 6.76353751e-17,55.5522847 0,55 L0,1 C-6.76353751e-17,0.44771525 0.44771525,1.01453063e-16 1,0 Z" id="rect4177-7" fill="#34495E" fill-rule="nonzero"></path>
                            <rect id="Rectangle" fill="url(#linearGradient-1)" x="0" y="0" width="48" height="56"></rect>
                            <g id="books" transform="translate(12.000000, 16.800000)" fill="#FFFFFF" fill-rule="nonzero">
                                <path d="M17.1999844,7.46668125 L16.3999687,7.46668125 C16.1791875,7.46668125 15.9999844,7.6339375 15.9999844,7.84 C15.9999844,8.0460625 16.1791875,8.21331875 16.3999687,8.21331875 L17.1999844,8.21331875 C17.4207656,8.21331875 17.5999687,8.0460625 17.5999687,7.84 C17.5999687,7.6339375 17.4208125,7.46668125 17.1999844,7.46668125 Z" id="Shape"></path>
                                <path d="M17.1999844,8.96 L16.3999687,8.96 C16.1791875,8.96 15.9999844,9.12725625 15.9999844,9.33331875 C15.9999844,9.53938125 16.1791875,9.7066375 16.3999687,9.7066375 L17.1999844,9.7066375 C17.4207656,9.7066375 17.5999687,9.53938125 17.5999687,9.33331875 C17.6000156,9.12725625 17.4208125,8.96 17.1999844,8.96 Z" id="Shape"></path>
                                <path d="M17.1999844,5.97331875 L16.3999687,5.97331875 C16.1791875,5.97331875 15.9999844,6.140575 15.9999844,6.3466375 C15.9999844,6.5527 16.1791875,6.71995625 16.3999687,6.71995625 L17.1999844,6.71995625 C17.4207656,6.71995625 17.5999687,6.5527 17.5999687,6.3466375 C17.6000156,6.140575 17.4208125,5.97331875 17.1999844,5.97331875 Z" id="Shape"></path>
                                <path d="M17.1999844,17.92 L16.3999687,17.92 C16.1791875,17.92 15.9999844,18.0872562 15.9999844,18.2933188 C15.9999844,18.4993813 16.1791875,18.6666375 16.3999687,18.6666375 L17.1999844,18.6666375 C17.4207656,18.6666375 17.5999687,18.4993813 17.5999687,18.2933188 C17.5999687,18.0872562 17.4208125,17.92 17.1999844,17.92 Z" id="Shape"></path>
                                <path d="M8.4,5.97331875 L6,5.97331875 C5.77921875,5.97331875 5.60001563,6.140575 5.60001563,6.3466375 L5.60001563,11.5733187 C5.60001563,11.7793812 5.77921875,11.9466375 6,11.9466375 L8.4,11.9466375 C8.62078125,11.9466375 8.79998438,11.7793812 8.79998438,11.5733187 L8.79998438,6.34668125 C8.79998438,6.140575 8.62078125,5.97331875 8.4,5.97331875 Z M8.00001563,11.2 L6.40003125,11.2 L6.40003125,6.72 L8.00001563,6.72 L8.00001563,11.2 Z" id="Shape"></path>
                                <path d="M8.4,17.92 L6,17.92 C5.77921875,17.92 5.60001563,18.0872562 5.60001563,18.2933188 C5.60001563,18.4993813 5.77921875,18.6666375 6,18.6666375 L8.4,18.6666375 C8.62078125,18.6666375 8.79998438,18.4993813 8.79998438,18.2933188 C8.79998438,18.0872562 8.62078125,17.92 8.4,17.92 Z" id="Shape"></path>
                                <path d="M8.4,19.4133188 L6,19.4133188 C5.77921875,19.4133188 5.60001563,19.580575 5.60001563,19.7866375 C5.60001563,19.9927 5.77921875,20.1599563 6,20.1599563 L8.4,20.1599563 C8.62078125,20.1599563 8.79998438,19.9927 8.79998438,19.7866375 C8.79998438,19.580575 8.62078125,19.4133188 8.4,19.4133188 Z" id="Shape"></path>
                                <path d="M17.1999844,19.4133188 L16.3999687,19.4133188 C16.1791875,19.4133188 15.9999844,19.580575 15.9999844,19.7866375 C15.9999844,19.9927 16.1791875,20.1599563 16.3999687,20.1599563 L17.1999844,20.1599563 C17.4207656,20.1599563 17.5999687,19.9927 17.5999687,19.7866375 C17.6000156,19.580575 17.4208125,19.4133188 17.1999844,19.4133188 Z" id="Shape"></path>
                                <path d="M21.9999844,19.4133188 L20.4,19.4133188 C20.1792188,19.4133188 20.0000156,19.580575 20.0000156,19.7866375 C20.0000156,19.9927 20.1792188,20.1599563 20.4,20.1599563 L21.9999844,20.1599563 C22.2207656,20.1599563 22.3999688,19.9927 22.3999688,19.7866375 C22.4000156,19.580575 22.2208125,19.4133188 21.9999844,19.4133188 Z" id="Shape"></path>
                                <path d="M13.5999844,6.34668125 C13.5999844,6.14061875 13.4207812,5.9733625 13.2,5.9733625 L11.6000156,5.9733625 C11.3792344,5.9733625 11.2000312,6.14061875 11.2000312,6.34668125 L11.2000312,11.5733625 C11.2000312,11.779425 11.3792344,11.9466813 11.6000156,11.9466813 L13.2,11.9466813 C13.4207812,11.9466813 13.5999844,11.779425 13.5999844,11.5733625 L13.5999844,6.34668125 Z M12.8000156,11.2 L12,11.2 L12,6.72 L12.8000156,6.72 L12.8000156,11.2 Z" id="Shape"></path>
                                <path d="M21.9999844,17.92 L20.4,17.92 C20.1792188,17.92 20.0000156,18.0872562 20.0000156,18.2933188 C20.0000156,18.4993813 20.1792188,18.6666375 20.4,18.6666375 L21.9999844,18.6666375 C22.2207656,18.6666375 22.3999688,18.4993813 22.3999688,18.2933188 C22.3999688,18.0872562 22.2208125,17.92 21.9999844,17.92 Z" id="Shape"></path>
                                <path d="M13.2,19.4133188 L11.6000156,19.4133188 C11.3792344,19.4133188 11.2000312,19.580575 11.2000312,19.7866375 C11.2000312,19.9927 11.3792344,20.1599563 11.6000156,20.1599563 L13.2,20.1599563 C13.4207812,20.1599563 13.5999844,19.9927 13.5999844,19.7866375 C13.5999844,19.580575 13.4207812,19.4133188 13.2,19.4133188 Z" id="Shape"></path>
                                <path d="M20.4,13.44 C20.6207813,13.44 20.7999844,13.2727438 20.7999844,13.0666813 L20.7999844,9.3333625 C20.7999844,9.1273 20.6207813,8.96004375 20.4,8.96004375 C20.1792188,8.96004375 20.0000156,9.1273 20.0000156,9.3333625 L20.0000156,13.0666813 C20.0000156,13.2727438 20.1792188,13.44 20.4,13.44 Z" id="Shape"></path>
                                <path d="M22.4000156,9.33331875 C22.4000156,9.12725625 22.2208125,8.96 22.0000313,8.96 C21.77925,8.96 21.6000469,9.12725625 21.6000469,9.33331875 L21.6000469,13.0666375 C21.6000469,13.2727 21.77925,13.4399563 22.0000313,13.4399563 C22.2208125,13.4399563 22.4000156,13.2727 22.4000156,13.0666375 L22.4000156,9.33331875 Z" id="Shape"></path>
                                <path d="M22.8,2.98668125 L20.4,2.98668125 C20.1792188,2.98668125 20.0000156,3.1539375 20.0000156,3.36 C20.0000156,3.5660625 20.1792187,3.73331875 20.4,3.73331875 L22.8,3.73331875 C23.0204063,3.73331875 23.1999844,3.900925 23.1999844,4.1066375 L23.1999844,21.28 C23.1999844,21.4857125 23.0204063,21.6533188 22.8,21.6533188 L19.2,21.6533188 L19.2,5.97331875 L21.6,5.97331875 C21.8207812,5.97331875 21.9999844,5.8060625 21.9999844,5.6 C21.9999844,5.3939375 21.8207812,5.22668125 21.6,5.22668125 L19.2,5.22668125 L19.2,1.86668125 C19.2,1.2387375 18.6727969,0.74668125 18,0.74668125 L15.6,0.74668125 C14.9384062,0.74668125 14.4,1.24919375 14.4,1.86668125 L14.4,21.6533625 L10.4000156,21.6533625 L10.4000156,2.24 L13.2,2.24 C13.4207813,2.24 13.5999844,2.07274375 13.5999844,1.86668125 C13.5999844,1.66061875 13.4207813,1.4933625 13.2,1.4933625 L10.4000156,1.4933625 L10.4000156,1.12 C10.4000156,0.49205625 9.8728125,0 9.20001563,0 L5.20003125,0 C4.5384375,0 4.00003125,0.5025125 4.00003125,1.12 L4.00003125,4.48 L2.00001563,4.48 C1.77923438,4.48 1.60003125,4.64725625 1.60003125,4.85331875 C1.60003125,5.05938125 1.77923438,5.2266375 2.00001563,5.2266375 L4.00003125,5.2266375 L4.00003125,21.6533188 L1.2,21.6533188 C0.97959375,21.6533188 0.800015625,21.4857125 0.800015625,21.28 L0.800015625,3.36 C0.800015625,3.1542875 0.97959375,2.98668125 1.2,2.98668125 L2.79998438,2.98668125 C3.02076563,2.98668125 3.19996875,2.819425 3.19996875,2.6133625 C3.19996875,2.4073 3.0208125,2.24 2.79998437,2.24 L1.2,2.24 C0.53840625,2.24 0,2.7425125 0,3.36 L0,21.28 C0,21.8974875 0.53840625,22.4 1.2,22.4 L22.8,22.4 C23.4615937,22.4 24,21.8974875 24,21.28 L24,4.10668125 C24,3.48919375 23.4615937,2.98668125 22.8,2.98668125 Z M9.6,21.6533187 L4.8,21.6533187 L4.8,2.98668125 L8.4,2.98668125 C8.62078125,2.98668125 8.79998437,2.819425 8.79998437,2.6133625 C8.79998437,2.4073 8.62078125,2.24 8.4,2.24 L4.8,2.24 L4.8,1.12 C4.8,0.91056875 4.97559375,0.74668125 5.19998437,0.74668125 L9.19996875,0.74668125 C9.42796875,0.74668125 9.59995312,0.9072 9.59995312,1.12 L9.6,21.6533187 Z M18.3999844,21.6533187 L15.1999688,21.6533187 L15.1999688,3.73331875 L17.1999844,3.73331875 C17.4207656,3.73331875 17.5999688,3.5660625 17.5999688,3.36 C17.5999688,3.1539375 17.4207656,2.98668125 17.1999844,2.98668125 L15.1999688,2.98668125 L15.1999688,1.86668125 C15.1999688,1.65725 15.3755625,1.4933625 15.5999531,1.4933625 L18,1.4933625 C18.228,1.4933625 18.3999844,1.65388125 18.3999844,1.86668125 L18.3999844,21.6533187 Z" id="Shape" stroke="#FFFFFF" stroke-width="0.5"></path>
                                <path d="M2.79998437,17.92 L2.00001562,17.92 C1.77923437,17.92 1.60003125,18.0872562 1.60003125,18.2933188 C1.60003125,18.4993813 1.77923437,18.6666375 2.00001562,18.6666375 L2.80003125,18.6666375 C3.0208125,18.6666375 3.20001562,18.4993813 3.20001562,18.2933188 C3.20001562,18.0872562 3.0208125,17.92 2.79998437,17.92 Z" id="Shape"></path>
                                <path d="M2.79998437,19.4133188 L2.00001562,19.4133188 C1.77923437,19.4133188 1.60003125,19.580575 1.60003125,19.7866375 C1.60003125,19.9927 1.77923437,20.1599563 2.00001562,20.1599563 L2.80003125,20.1599563 C3.0208125,20.1599563 3.20001562,19.9927 3.20001562,19.7866375 C3.20001562,19.580575 3.0208125,19.4133188 2.79998437,19.4133188 Z" id="Shape"></path>
                                <path d="M13.2,17.92 L11.6000156,17.92 C11.3792344,17.92 11.2000312,18.0872562 11.2000312,18.2933188 C11.2000312,18.4993813 11.3792344,18.6666375 11.6000156,18.6666375 L13.2,18.6666375 C13.4207812,18.6666375 13.5999844,18.4993813 13.5999844,18.2933188 C13.5999844,18.0872562 13.4207812,17.92 13.2,17.92 Z" id="Shape"></path>
                                <path d="M2.79998437,8.96 L2.00001562,8.96 C1.77923437,8.96 1.60003125,9.12725625 1.60003125,9.33331875 C1.60003125,9.53938125 1.77923437,9.7066375 2.00001562,9.7066375 L2.80003125,9.7066375 C3.0208125,9.7066375 3.20001562,9.53938125 3.20001562,9.33331875 C3.20001562,9.12725625 3.0208125,8.96 2.79998437,8.96 Z" id="Shape"></path>
                                <path d="M2.79998437,10.4533188 L2.00001562,10.4533188 C1.77923437,10.4533188 1.60003125,10.620575 1.60003125,10.8266375 C1.60003125,11.0327 1.7791875,11.2 2.00001562,11.2 L2.80003125,11.2 C3.0208125,11.2 3.20001562,11.0327438 3.20001562,10.8266813 C3.20001562,10.6206188 3.0208125,10.4533188 2.79998437,10.4533188 Z" id="Shape"></path>
                            </g>
                        </g>
                    </g>
                </g>
            </g>
        </g>
    </g>
</svg>