<?xml version="1.0" encoding="UTF-8"?>
<svg width="49px" height="56px" viewBox="0 0 49 56" version="1.1" xmlns="http://www.w3.org/2000/svg" xmlns:xlink="http://www.w3.org/1999/xlink">
    <!-- Generator: Sketch 48.2 (47327) - http://www.bohemiancoding.com/sketch -->
    <title>File_DosDriver</title>
    <desc>Created with Sketch.</desc>
    <defs>
        <linearGradient x1="0%" y1="100%" x2="100%" y2="0%" id="linearGradient-1">
            <stop stop-color="#FFFFFF" stop-opacity="0" offset="0%"></stop>
            <stop stop-color="#FFFFFF" stop-opacity="0.2" offset="100%"></stop>
        </linearGradient>
    </defs>
    <g id="Alt-1" stroke="none" stroke-width="1" fill="none" fill-rule="evenodd" transform="translate(-280.000000, -177.000000)">
        <g id="Icons" transform="translate(112.000000, 27.000000)">
            <g id="Filetypes">
                <g id="FiletypesGradient" transform="translate(0.000000, 26.000000)">
                    <g id="File_DosDriver" transform="translate(168.400000, 124.000000)">
                        <g>
                            <path d="M1,0 L47,0 C47.5522847,-1.01453063e-16 48,0.44771525 48,1 L48,55 C48,55.5522847 47.5522847,56 47,56 L1,56 C0.44771525,56 6.76353751e-17,55.5522847 0,55 L0,1 C-6.76353751e-17,0.44771525 0.44771525,1.01453063e-16 1,0 Z" id="rect4177-7" fill="#34495E" fill-rule="nonzero"></path>
                            <g id="floppy-disk-save-file">
                                <rect id="Rectangle" fill="url(#linearGradient-1)" x="0" y="0" width="48" height="56"></rect>
                                <path d="M36.496875,43.02375 C36.9656273,42.5862478 37.2,42.0583364 37.2,41.44 C37.2,40.8216636 36.9656273,40.2937522 36.496875,39.85625 C36.0281227,39.4187478 35.4625033,39.2 34.8,39.2 C34.1374967,39.2 33.5718773,39.4187478 33.103125,39.85625 C32.6343727,40.2937522 32.4,40.8216636 32.4,41.44 C32.4,42.0583364 32.6343727,42.5862478 33.103125,43.02375 C33.5718773,43.4612522 34.1374967,43.68 34.8,43.68 C35.4625033,43.68 36.0281227,43.4612522 36.496875,43.02375 Z M42,40.48625 L42,42.42875 C42,42.4987503 41.9750002,42.565833 41.925,42.63 C41.8749998,42.694167 41.8125004,42.7320833 41.7375,42.74375 L40.003125,42.98875 C39.8843744,43.3037516 39.7625006,43.5691656 39.6375,43.785 C39.8562511,44.0766681 40.1906228,44.4791641 40.640625,44.9925 C40.7031253,45.0625004 40.734375,45.1354163 40.734375,45.21125 C40.734375,45.2870837 40.7062503,45.3541664 40.65,45.4125 C40.4812492,45.6283344 40.1718773,45.9433313 39.721875,46.3575 C39.2718727,46.7716687 38.9781257,46.97875 38.840625,46.97875 C38.7656246,46.97875 38.6843754,46.9525003 38.596875,46.9 L37.303125,45.955 C37.0281236,46.0891673 36.7437515,46.1999996 36.45,46.2875 C36.3499995,47.0808373 36.2593754,47.6233319 36.178125,47.915 C36.1343748,48.0783341 36.0218759,48.16 35.840625,48.16 L33.759375,48.16 C33.6718746,48.16 33.5953128,48.1352086 33.5296875,48.085625 C33.4640622,48.0360414 33.428125,47.9733337 33.421875,47.8975 L33.159375,46.2875 C32.8531235,46.1941662 32.5718763,46.0862506 32.315625,45.96375 L30.99375,46.9 C30.9312497,46.9525003 30.8531255,46.97875 30.759375,46.97875 C30.6718746,46.97875 30.5937503,46.946667 30.525,46.8825 C29.7374961,46.2174967 29.2218762,45.7275016 28.978125,45.4125 C28.9343748,45.3541664 28.9125,45.2870837 28.9125,45.21125 C28.9125,45.1412496 28.9374998,45.074167 28.9875,45.01 C29.0812505,44.8874994 29.2406239,44.693543 29.465625,44.428125 C29.6906261,44.162707 29.8593744,43.9570841 29.971875,43.81125 C29.8031242,43.5195819 29.6750004,43.2308348 29.5875,42.945 L27.871875,42.70875 C27.7906246,42.6970833 27.7250002,42.6606253 27.675,42.599375 C27.6249998,42.5381247 27.6,42.4695837 27.6,42.39375 L27.6,40.45125 C27.6,40.3812497 27.6249998,40.314167 27.675,40.25 C27.7250002,40.185833 27.7843747,40.1479167 27.853125,40.13625 L29.596875,39.89125 C29.6843754,39.6229153 29.8062492,39.3545847 29.9625,39.08625 C29.7124987,38.7537483 29.3781271,38.3512524 28.959375,37.87875 C28.8968747,37.8087497 28.865625,37.7387504 28.865625,37.66875 C28.865625,37.6104164 28.8937497,37.5433337 28.95,37.4675 C29.1125008,37.2574989 29.4203102,36.9439604 29.8734375,36.526875 C30.3265648,36.1097896 30.6218743,35.90125 30.759375,35.90125 C30.8406254,35.90125 30.9218746,35.9304164 31.003125,35.98875 L32.296875,36.925 C32.5718764,36.7908327 32.8562485,36.6800004 33.15,36.5925 C33.2500005,35.7991627 33.3406246,35.2566681 33.421875,34.965 C33.4656252,34.8016658 33.5781241,34.72 33.759375,34.72 L35.840625,34.72 C35.9281254,34.72 36.0046872,34.7447914 36.0703125,34.794375 C36.1359378,34.8439586 36.171875,34.9066663 36.178125,34.9825 L36.440625,36.5925 C36.7468765,36.6858338 37.0281237,36.7937494 37.284375,36.91625 L38.615625,35.98 C38.6718753,35.9274997 38.7468745,35.90125 38.840625,35.90125 C38.9218754,35.90125 38.9999996,35.9304164 39.075,35.98875 C39.881254,36.6829201 40.3968739,37.1787485 40.621875,37.47625 C40.6656252,37.5229169 40.6875,37.5870829 40.6875,37.66875 C40.6875,37.7387504 40.6625003,37.805833 40.6125,37.87 C40.5187495,37.9925006 40.3593761,38.186457 40.134375,38.451875 C39.9093739,38.717293 39.7406256,38.9229159 39.628125,39.06875 C39.7906258,39.3604181 39.9187495,39.6462486 40.0125,39.92625 L41.728125,40.17125 C41.8093754,40.1829167 41.8749998,40.2193747 41.925,40.280625 C41.9750002,40.3418753 42,40.4104163 42,40.48625 Z" id="" fill="#FFFFFF"></path>
                                <path d="M30.1581843,16.8 L12.9213303,16.8 C12.4170607,16.8 12.0044764,17.1850787 12.0044764,17.6557303 L12.0044764,38.3358634 C12.0044764,38.8065151 12.4170607,39.1915937 12.9213303,39.1915937 L34.3146067,39.1915937 C34.8188764,39.1915937 35.2314607,38.8065151 35.2314607,38.3358634 L35.2314607,22.6332117 C35.2314607,22.4478202 35.1703551,22.2623784 35.032827,22.1055281 L30.8764045,17.1280467 C30.7082966,16.9283596 30.4332404,16.8 30.1581843,16.8 Z M19.0337258,18.5114607 L28.6606921,18.5114607 L28.6606921,26.9261591 L19.0337258,26.9261591 L19.0337258,18.5114607 Z M33.3977528,37.480133 L13.8381843,37.480133 L13.8381843,18.5114607 L17.199964,18.5114607 L17.199964,27.7961348 C17.199964,28.2667865 17.5361258,28.6376198 18.0403955,28.6376198 L29.6233348,28.6376198 C30.1276045,28.6376198 30.4943461,28.2667865 30.4943461,27.7961348 L30.4943461,19.509796 L33.3976989,22.9327173 L33.3977528,37.480133 Z" id="Shape" fill="#FFFFFF" fill-rule="nonzero"></path>
                                <path d="M26.5213483,20.9360467 C26.5213483,20.4653951 26.108764,20.0803164 25.6044944,20.0803164 L24.5348494,20.0803164 C24.0305798,20.0803164 23.6179955,20.4653951 23.6179955,20.9360467 L23.6179955,24.3589681 C23.6179955,24.8296198 24.0305798,25.2146984 24.5348494,25.2146984 L25.6044944,25.2146984 C26.108764,25.2146984 26.5213483,24.8296198 26.5213483,24.3589681 L26.5213483,20.9360467 Z" id="Shape" fill="#FFFFFF" fill-rule="nonzero"></path>
                            </g>
                        </g>
                    </g>
                </g>
            </g>
        </g>
    </g>
</svg>