<?xml version="1.0" encoding="UTF-8"?>
<svg width="48px" height="56px" viewBox="0 0 48 56" version="1.1" xmlns="http://www.w3.org/2000/svg" xmlns:xlink="http://www.w3.org/1999/xlink">
    <!-- Generator: Sketch 48.2 (47327) - http://www.bohemiancoding.com/sketch -->
    <title>File_Session</title>
    <desc>Created with Sketch.</desc>
    <defs>
        <linearGradient x1="0%" y1="100%" x2="100%" y2="0%" id="linearGradient-1">
            <stop stop-color="#FFFFFF" stop-opacity="0" offset="0%"></stop>
            <stop stop-color="#FFFFFF" stop-opacity="0.2" offset="100%"></stop>
        </linearGradient>
    </defs>
    <g id="File_Session" stroke="none" stroke-width="1" fill="none" fill-rule="evenodd">
        <g>
            <path d="M1,0 L47,0 C47.5522847,-1.01453063e-16 48,0.44771525 48,1 L48,55 C48,55.5522847 47.5522847,56 47,56 L1,56 C0.44771525,56 6.76353751e-17,55.5522847 0,55 L0,1 C-6.76353751e-17,0.44771525 0.44771525,1.01453063e-16 1,0 Z" id="rect4177-7" fill="#34495E" fill-rule="nonzero"></path>
            <rect id="Rectangle" fill="url(#linearGradient-1)" x="0" y="0" width="48" height="56"></rect>
            <path d="M30.4848214,26.6 C30.9044664,26.7166673 31.304016,26.874999 31.6834821,27.075 C32.0629483,27.275001 32.4602658,27.5791646 32.8754464,27.9875 C33.2906271,28.3958354 33.6455342,28.8770806 33.9401786,29.43125 C34.2348229,29.9854194 34.4803562,30.7020789 34.6767857,31.58125 C34.8732153,32.4604211 34.9714286,33.4458279 34.9714286,34.5375 C34.9714286,35.8208397 34.5250045,36.9187454 33.6321429,37.83125 C32.7392812,38.7437546 31.6633992,39.2 30.4044643,39.2 L18.9669643,39.2 C17.7080294,39.2 16.6321473,38.7437546 15.7392857,37.83125 C14.8464241,36.9187454 14.4,35.8208397 14.4,34.5375 C14.4,33.4458279 14.4982133,32.4604211 14.6946429,31.58125 C14.8910724,30.7020789 15.1366057,29.9854194 15.43125,29.43125 C15.7258943,28.8770806 16.0808015,28.3958354 16.4959821,27.9875 C16.9111628,27.5791646 17.3084802,27.275001 17.6879464,27.075 C18.0674126,26.874999 18.4669622,26.7166673 18.8866071,26.6 C18.1812465,25.5583281 17.8285714,24.4250061 17.8285714,23.2 C17.8285714,22.333329 18.0093732,21.5062539 18.3709821,20.71875 C18.7325911,19.9312461 19.2214255,19.2500029 19.8375,18.675 C20.4535745,18.0999971 21.1834779,17.6437517 22.0272321,17.30625 C22.8709864,16.9687483 23.7571382,16.8 24.6857143,16.8 C25.6142904,16.8 26.5004422,16.9687483 27.3441964,17.30625 C28.1879506,17.6437517 28.9178541,18.0999971 29.5339286,18.675 C30.1500031,19.2500029 30.6388375,19.9312461 31.0004464,20.71875 C31.3620554,21.5062539 31.5428571,22.333329 31.5428571,23.2 C31.5428571,24.4250061 31.1901821,25.5583281 30.4848214,26.6 Z M28.3151786,19.8125 C27.3151736,18.8708286 26.1053642,18.4 24.6857143,18.4 C23.2660643,18.4 22.0540229,18.8687453 21.0495536,19.80625 C20.0450843,20.7437547 19.5428571,21.8749934 19.5428571,23.2 C19.5428571,24.5250066 20.0450843,25.6562453 21.0495536,26.59375 C22.0540229,27.5312547 23.2660643,28 24.6857143,28 C26.1053642,28 27.3174057,27.5312547 28.321875,26.59375 C29.3263443,25.6562453 29.8285714,24.5250066 29.8285714,23.2 C29.8285714,21.8749934 29.3241122,20.745838 28.3151786,19.8125 Z M30.4044643,37.6 C31.1901825,37.6 31.8620508,37.3020863 32.4200893,36.70625 C32.9781278,36.1104137 33.2571429,35.3875042 33.2571429,34.5375 C33.2571429,32.5458234 32.9066999,30.9750058 32.2058036,29.825 C31.5049072,28.6749943 30.4982208,28.0708336 29.1857143,28.0125 C27.891065,29.0708386 26.39108,29.6 24.6857143,29.6 C22.9803486,29.6 21.4803636,29.0708386 20.1857143,28.0125 C18.8732077,28.0708336 17.8665214,28.6749943 17.165625,29.825 C16.4647286,30.9750058 16.1142857,32.5458234 16.1142857,34.5375 C16.1142857,35.3875042 16.3933008,36.1104137 16.9513393,36.70625 C17.5093778,37.3020863 18.1812461,37.6 18.9669643,37.6 L30.4044643,37.6 Z" id="" fill="#FFFFFF"></path>
            <path d="M36.496875,43.02375 C36.9656273,42.5862478 37.2,42.0583364 37.2,41.44 C37.2,40.8216636 36.9656273,40.2937522 36.496875,39.85625 C36.0281227,39.4187478 35.4625033,39.2 34.8,39.2 C34.1374967,39.2 33.5718773,39.4187478 33.103125,39.85625 C32.6343727,40.2937522 32.4,40.8216636 32.4,41.44 C32.4,42.0583364 32.6343727,42.5862478 33.103125,43.02375 C33.5718773,43.4612522 34.1374967,43.68 34.8,43.68 C35.4625033,43.68 36.0281227,43.4612522 36.496875,43.02375 Z M42,40.48625 L42,42.42875 C42,42.4987504 41.9750003,42.565833 41.925,42.63 C41.8749998,42.694167 41.8125004,42.7320833 41.7375,42.74375 L40.003125,42.98875 C39.8843744,43.3037516 39.7625006,43.5691656 39.6375,43.785 C39.8562511,44.0766681 40.1906228,44.4791641 40.640625,44.9925 C40.7031253,45.0625004 40.734375,45.1354163 40.734375,45.21125 C40.734375,45.2870837 40.7062503,45.3541664 40.65,45.4125 C40.4812492,45.6283344 40.1718773,45.9433313 39.721875,46.3575 C39.2718728,46.7716687 38.9781257,46.97875 38.840625,46.97875 C38.7656246,46.97875 38.6843754,46.9525003 38.596875,46.9 L37.303125,45.955 C37.0281236,46.0891673 36.7437515,46.1999996 36.45,46.2875 C36.3499995,47.0808373 36.2593754,47.6233319 36.178125,47.915 C36.1343748,48.0783342 36.0218759,48.16 35.840625,48.16 L33.759375,48.16 C33.6718746,48.16 33.5953128,48.1352086 33.5296875,48.085625 C33.4640622,48.0360414 33.428125,47.9733337 33.421875,47.8975 L33.159375,46.2875 C32.8531235,46.1941662 32.5718763,46.0862506 32.315625,45.96375 L30.99375,46.9 C30.9312497,46.9525003 30.8531255,46.97875 30.759375,46.97875 C30.6718746,46.97875 30.5937503,46.946667 30.525,46.8825 C29.7374961,46.2174967 29.2218762,45.7275016 28.978125,45.4125 C28.9343748,45.3541664 28.9125,45.2870837 28.9125,45.21125 C28.9125,45.1412497 28.9374998,45.074167 28.9875,45.01 C29.0812505,44.8874994 29.2406239,44.693543 29.465625,44.428125 C29.6906261,44.162707 29.8593744,43.9570841 29.971875,43.81125 C29.8031242,43.5195819 29.6750004,43.2308348 29.5875,42.945 L27.871875,42.70875 C27.7906246,42.6970833 27.7250003,42.6606253 27.675,42.599375 C27.6249998,42.5381247 27.6,42.4695837 27.6,42.39375 L27.6,40.45125 C27.6,40.3812497 27.6249998,40.314167 27.675,40.25 C27.7250003,40.185833 27.7843747,40.1479167 27.853125,40.13625 L29.596875,39.89125 C29.6843754,39.6229153 29.8062492,39.3545847 29.9625,39.08625 C29.7124988,38.7537483 29.3781271,38.3512524 28.959375,37.87875 C28.8968747,37.8087497 28.865625,37.7387504 28.865625,37.66875 C28.865625,37.6104164 28.8937497,37.5433337 28.95,37.4675 C29.1125008,37.257499 29.4203102,36.9439604 29.8734375,36.526875 C30.3265648,36.1097896 30.6218743,35.90125 30.759375,35.90125 C30.8406254,35.90125 30.9218746,35.9304164 31.003125,35.98875 L32.296875,36.925 C32.5718764,36.7908327 32.8562485,36.6800004 33.15,36.5925 C33.2500005,35.7991627 33.3406246,35.2566681 33.421875,34.965 C33.4656252,34.8016659 33.5781241,34.72 33.759375,34.72 L35.840625,34.72 C35.9281254,34.72 36.0046872,34.7447914 36.0703125,34.794375 C36.1359378,34.8439586 36.171875,34.9066663 36.178125,34.9825 L36.440625,36.5925 C36.7468765,36.6858338 37.0281237,36.7937494 37.284375,36.91625 L38.615625,35.98 C38.6718753,35.9274997 38.7468745,35.90125 38.840625,35.90125 C38.9218754,35.90125 38.9999996,35.9304164 39.075,35.98875 C39.881254,36.6829201 40.3968739,37.1787485 40.621875,37.47625 C40.6656252,37.5229169 40.6875,37.5870829 40.6875,37.66875 C40.6875,37.7387504 40.6625003,37.805833 40.6125,37.87 C40.5187495,37.9925006 40.3593761,38.186457 40.134375,38.451875 C39.9093739,38.717293 39.7406256,38.9229159 39.628125,39.06875 C39.7906258,39.3604181 39.9187495,39.6462486 40.0125,39.92625 L41.728125,40.17125 C41.8093754,40.1829167 41.8749998,40.2193747 41.925,40.280625 C41.9750003,40.3418753 42,40.4104163 42,40.48625 Z" id="" fill="#FFFFFF"></path>
        </g>
    </g>
</svg>