<?xml version="1.0" encoding="UTF-8"?>
<svg width="48px" height="56px" viewBox="0 0 48 56" version="1.1" xmlns="http://www.w3.org/2000/svg" xmlns:xlink="http://www.w3.org/1999/xlink">
    <!-- Generator: Sketch 48.2 (47327) - http://www.bohemiancoding.com/sketch -->
    <title>File_Root</title>
    <desc>Created with Sketch.</desc>
    <defs>
        <linearGradient x1="0%" y1="100%" x2="100%" y2="0%" id="linearGradient-1">
            <stop stop-color="#FFFFFF" stop-opacity="0" offset="0%"></stop>
            <stop stop-color="#FFFFFF" stop-opacity="0.2" offset="100%"></stop>
        </linearGradient>
    </defs>
    <g id="Alt-1" stroke="none" stroke-width="1" fill="none" fill-rule="evenodd" transform="translate(-112.000000, -177.000000)">
        <g id="Icons" transform="translate(112.000000, 27.000000)">
            <g id="Filetypes">
                <g id="FiletypesGradient" transform="translate(0.000000, 26.000000)">
                    <g id="File_Root" transform="translate(0.000000, 124.000000)">
                        <g>
                            <path d="M1,0 L47,0 C47.5522847,-1.01453063e-16 48,0.44771525 48,1 L48,55 C48,55.5522847 47.5522847,56 47,56 L1,56 C0.44771525,56 6.76353751e-17,55.5522847 0,55 L0,1 C-6.76353751e-17,0.44771525 0.44771525,1.01453063e-16 1,0 Z" id="rect4177-7" fill="#34495E" fill-rule="nonzero"></path>
                            <g id="chip" transform="translate(12.000000, 16.800000)" fill="#FFFFFF">
                                <path d="M22.9319756,12.1306721 C23.4940937,12.1306721 23.9535642,11.701833 23.9535642,11.1771894 C23.9535642,10.6525458 23.4940937,10.2237067 22.9319756,10.2237067 L20.0285132,10.2237067 L20.0285132,8.89613035 L22.9319756,8.89613035 C23.4940937,8.89613035 23.9535642,8.46729124 23.9535642,7.94264766 C23.9535642,7.41800407 23.4940937,6.98916497 22.9319756,6.98916497 L20.0285132,6.98916497 L20.0285132,4.65792261 C20.0285132,4.13327902 19.5690428,3.70443992 19.0069246,3.70443992 L16.4602851,3.70443992 L16.4602851,0.953482688 C16.4602851,0.428839104 16.0008147,0 15.4386965,0 C14.8765784,0 14.4171079,0.428839104 14.4171079,0.953482688 L14.4171079,3.71356415 L12.9898167,3.71356415 L12.9898167,0.953482688 C12.9898167,0.428839104 12.5303462,0 11.9682281,0 C11.40611,0 10.9466395,0.428839104 10.9466395,0.953482688 L10.9466395,3.71356415 L9.53401222,3.71356415 L9.53401222,0.953482688 C9.53401222,0.428839104 9.07454175,0 8.51242363,0 C7.9503055,0 7.49083503,0.428839104 7.49083503,0.953482688 L7.49083503,3.71356415 L5.09572301,3.71356415 C4.53360489,3.71356415 4.07413442,4.14240326 4.07413442,4.66704684 L4.07413442,6.99828921 L1.02403259,6.99828921 C0.46191446,6.99828921 0.00244399185,7.42712831 0.00244399185,7.95177189 C0.00244399185,8.47641548 0.46191446,8.90525458 1.02403259,8.90525458 L4.08391039,8.90525458 L4.08391039,10.2373931 L1.02403259,10.2373931 C0.46191446,10.2373931 0.00244399185,10.6662322 0.00244399185,11.1908758 C0.00244399185,11.7155193 0.46191446,12.1443585 1.02403259,12.1443585 L4.08391039,12.1443585 L4.08391039,13.4126273 L1.02403259,13.4126273 C0.46191446,13.4126273 0.00244399185,13.8414664 0.00244399185,14.36611 C0.00244399185,14.8907536 0.46191446,15.3195927 1.02403259,15.3195927 L4.08391039,15.3195927 L4.08391039,17.650835 C4.08391039,18.1754786 4.54338086,18.6043177 5.10549898,18.6043177 L7.500611,18.6043177 L7.500611,21.4100204 C7.500611,21.934664 7.96008147,22.3635031 8.52219959,22.3635031 C9.08431772,22.3635031 9.54378819,21.934664 9.54378819,21.4100204 L9.54378819,18.6043177 L10.9710794,18.6043177 L10.9710794,21.4100204 C10.9710794,21.934664 11.4305499,22.3635031 11.992668,22.3635031 C12.5547862,22.3635031 13.0142566,21.934664 13.0142566,21.4100204 L13.0142566,18.6043177 L14.4219959,18.6043177 L14.4219959,21.4100204 C14.4219959,21.934664 14.8814664,22.3635031 15.4435845,22.3635031 C15.9519348,22.3635031 16.4114053,21.934664 16.4651731,21.4100204 L16.4651731,18.6043177 L19.0118126,18.6043177 C19.5739308,18.6043177 20.0334012,18.2256619 20.0334012,17.650835 L20.0334012,15.3195927 L22.9368635,15.3195927 C23.4989817,15.3195927 23.9584521,14.8907536 23.9584521,14.36611 C23.9584521,13.8414664 23.4989817,13.4126273 22.9368635,13.4126273 L20.0334012,13.4126273 L20.0334012,12.1306721 L22.9319756,12.1306721 Z M17.990224,16.7429735 L6.06354379,16.7429735 L6.06354379,5.6114053 L17.990224,5.6114053 L17.990224,16.7429735 Z" id="Shape" fill-rule="nonzero"></path>
                                <path d="M24.496875,26.22375 C24.9656273,25.7862478 25.2,25.2583364 25.2,24.64 C25.2,24.0216636 24.9656273,23.4937522 24.496875,23.05625 C24.0281227,22.6187478 23.4625033,22.4 22.8,22.4 C22.1374967,22.4 21.5718773,22.6187478 21.103125,23.05625 C20.6343727,23.4937522 20.4,24.0216636 20.4,24.64 C20.4,25.2583364 20.6343727,25.7862478 21.103125,26.22375 C21.5718773,26.6612522 22.1374967,26.88 22.8,26.88 C23.4625033,26.88 24.0281227,26.6612522 24.496875,26.22375 Z M30,23.68625 L30,25.62875 C30,25.6987503 29.9750002,25.765833 29.925,25.83 C29.8749998,25.894167 29.8125004,25.9320833 29.7375,25.94375 L28.003125,26.18875 C27.8843744,26.5037516 27.7625006,26.7691656 27.6375,26.985 C27.8562511,27.2766681 28.1906228,27.6791641 28.640625,28.1925 C28.7031253,28.2625003 28.734375,28.3354163 28.734375,28.41125 C28.734375,28.4870837 28.7062503,28.5541664 28.65,28.6125 C28.4812492,28.8283344 28.1718773,29.1433313 27.721875,29.5575 C27.2718728,29.9716687 26.9781257,30.17875 26.840625,30.17875 C26.7656246,30.17875 26.6843754,30.1525003 26.596875,30.1 L25.303125,29.155 C25.0281236,29.2891673 24.7437515,29.3999996 24.45,29.4875 C24.3499995,30.2808373 24.2593754,30.8233319 24.178125,31.115 C24.1343748,31.2783341 24.0218759,31.36 23.840625,31.36 L21.759375,31.36 C21.6718746,31.36 21.5953128,31.3352086 21.5296875,31.285625 C21.4640622,31.2360414 21.428125,31.1733337 21.421875,31.0975 L21.159375,29.4875 C20.8531235,29.3941662 20.5718763,29.2862506 20.315625,29.16375 L18.99375,30.1 C18.9312497,30.1525003 18.8531255,30.17875 18.759375,30.17875 C18.6718746,30.17875 18.5937503,30.146667 18.525,30.0825 C17.7374961,29.4174967 17.2218762,28.9275016 16.978125,28.6125 C16.9343748,28.5541664 16.9125,28.4870837 16.9125,28.41125 C16.9125,28.3412497 16.9374998,28.274167 16.9875,28.21 C17.0812505,28.0874994 17.2406239,27.893543 17.465625,27.628125 C17.6906261,27.362707 17.8593744,27.1570841 17.971875,27.01125 C17.8031242,26.7195819 17.6750004,26.4308348 17.5875,26.145 L15.871875,25.90875 C15.7906246,25.8970833 15.7250002,25.8606253 15.675,25.799375 C15.6249998,25.7381247 15.6,25.6695837 15.6,25.59375 L15.6,23.65125 C15.6,23.5812497 15.6249998,23.514167 15.675,23.45 C15.7250002,23.385833 15.7843747,23.3479167 15.853125,23.33625 L17.596875,23.09125 C17.6843754,22.8229153 17.8062492,22.5545847 17.9625,22.28625 C17.7124987,21.9537483 17.3781271,21.5512524 16.959375,21.07875 C16.8968747,21.0087496 16.865625,20.9387504 16.865625,20.86875 C16.865625,20.8104164 16.8937497,20.7433337 16.95,20.6675 C17.1125008,20.4574989 17.4203102,20.1439604 17.8734375,19.726875 C18.3265648,19.3097896 18.6218743,19.10125 18.759375,19.10125 C18.8406254,19.10125 18.9218746,19.1304164 19.003125,19.18875 L20.296875,20.125 C20.5718764,19.9908327 20.8562485,19.8800004 21.15,19.7925 C21.2500005,18.9991627 21.3406246,18.4566681 21.421875,18.165 C21.4656252,18.0016658 21.5781241,17.92 21.759375,17.92 L23.840625,17.92 C23.9281254,17.92 24.0046872,17.9447914 24.0703125,17.994375 C24.1359378,18.0439586 24.171875,18.1066663 24.178125,18.1825 L24.440625,19.7925 C24.7468765,19.8858338 25.0281237,19.9937494 25.284375,20.11625 L26.615625,19.18 C26.6718753,19.1274997 26.7468745,19.10125 26.840625,19.10125 C26.9218754,19.10125 26.9999996,19.1304164 27.075,19.18875 C27.881254,19.8829201 28.3968739,20.3787485 28.621875,20.67625 C28.6656252,20.7229169 28.6875,20.7870829 28.6875,20.86875 C28.6875,20.9387504 28.6625003,21.005833 28.6125,21.07 C28.5187495,21.1925006 28.3593761,21.386457 28.134375,21.651875 C27.9093739,21.917293 27.7406256,22.1229159 27.628125,22.26875 C27.7906258,22.5604181 27.9187495,22.8462486 28.0125,23.12625 L29.728125,23.37125 C29.8093754,23.3829167 29.8749998,23.4193747 29.925,23.480625 C29.9750002,23.5418753 30,23.6104163 30,23.68625 Z" id=""></path>
                            </g>
                            <rect id="Rectangle" fill="url(#linearGradient-1)" x="0" y="0" width="48" height="56"></rect>
                        </g>
                    </g>
                </g>
            </g>
        </g>
    </g>
</svg>