<?xml version="1.0" encoding="UTF-8"?>
<svg width="49px" height="56px" viewBox="0 0 49 56" version="1.1" xmlns="http://www.w3.org/2000/svg" xmlns:xlink="http://www.w3.org/1999/xlink">
    <!-- Generator: Sketch 48.2 (47327) - http://www.bohemiancoding.com/sketch -->
    <title>File_Vector</title>
    <desc>Created with Sketch.</desc>
    <defs>
        <linearGradient x1="0%" y1="100%" x2="100%" y2="0%" id="linearGradient-1">
            <stop stop-color="#FFFFFF" stop-opacity="0" offset="0%"></stop>
            <stop stop-color="#FFFFFF" stop-opacity="0.2" offset="100%"></stop>
        </linearGradient>
    </defs>
    <g id="Alt-1" stroke="none" stroke-width="1" fill="none" fill-rule="evenodd" transform="translate(-532.000000, -55.000000)">
        <g id="Icons" transform="translate(112.000000, 27.000000)">
            <g id="Filetypes">
                <g id="FiletypesGradient" transform="translate(0.000000, 26.000000)">
                    <g id="File_Vector" transform="translate(420.769231, 2.000000)">
                        <g>
                            <path d="M1,0 L47,0 C47.5522847,-1.01453063e-16 48,0.44771525 48,1 L48,55 C48,55.5522847 47.5522847,56 47,56 L1,56 C0.44771525,56 6.76353751e-17,55.5522847 0,55 L0,1 C-6.76353751e-17,0.44771525 0.44771525,1.01453063e-16 1,0 Z" id="rect4177-7" fill="#F39C12" fill-rule="nonzero"></path>
                            <rect id="Rectangle" fill="url(#linearGradient-1)" x="0" y="0" width="48" height="56"></rect>
                            <path d="M33.6262541,19.4620065 C33.7996722,20.2252427 34.411736,20.7834304 35.1360115,20.7834304 C35.9929008,20.7834304 36.6967742,19.997411 36.6967742,19.0405178 C36.6967742,18.072233 35.9929008,17.2976052 35.1360115,17.2976052 C34.3505296,17.2976052 33.6976616,17.9469256 33.5854499,18.8012945 L27.63823,18.732945 L27.63823,15.68 L21.3135708,15.68 L21.3135708,18.6645955 L15.07052,18.6076375 C14.897102,17.8444013 14.2850382,17.2862136 13.5607627,17.2862136 C12.7038734,17.2976052 12,18.072233 12,19.0405178 C12,19.997411 12.7038734,20.7834304 13.5607627,20.7834304 C14.3462446,20.7834304 14.9991126,20.13411 15.1113243,19.2797411 L21.3237718,19.336699 L21.3237718,19.7467961 C20.701507,20.1113269 20.1302474,20.5897735 19.5997921,21.1821359 C18.5082784,22.3782524 17.6105848,24.0414239 16.9169125,26.1146926 C15.7437902,29.6346926 15.539769,33.086343 15.539769,33.2230421 L15.8355998,33.2458252 L12.6732702,33.2458252 L12.6732702,40.32 L19.0081305,40.32 L19.0081305,33.2458252 L16.1212296,33.2458252 C16.1416317,32.9610356 16.3660551,29.6346926 17.4677699,26.3425243 C18.130839,24.3489968 18.9877283,22.7655663 20.0078347,21.6377994 C20.4158772,21.1821359 20.8545229,20.8062136 21.3135708,20.4986408 L21.3135708,22.7541748 L27.6484311,22.7541748 L27.6484311,20.5100324 C28.0972779,20.8176052 28.5155214,21.1935275 28.9133629,21.6377994 C29.9028661,22.7655663 30.7291522,24.3489968 31.3616181,26.3311327 C32.4123276,29.6460841 32.5653436,33.0179935 32.5755446,33.2458252 L29.6988448,33.2458252 L29.6988448,40.32 L36.0337051,40.32 L36.0337051,33.2458252 L32.8713755,33.2458252 L33.1672063,33.2344337 C33.1672063,33.086343 33.0345925,29.6346926 31.9226766,26.1146926 C31.2596075,24.0300324 30.3925171,22.3668608 29.3418076,21.1707443 C28.8215533,20.5783819 28.2604949,20.0999353 27.6484311,19.7354045 L27.6484311,19.3822654 L33.6262541,19.4620065 Z M18.4062677,33.9179288 L18.4062677,39.6706796 L13.2547308,39.6706796 L13.2547308,33.9179288 L18.4062677,33.9179288 Z M27.0567694,18.7215534 L27.0567694,19.3822654 L27.0567694,19.4392233 L27.0567694,20.1682848 L27.0567694,22.1048544 L21.9052324,22.1048544 L21.9052324,20.1682848 L21.9052324,19.4506149 L21.9052324,19.3594822 L21.9052324,18.6987702 L21.9052324,16.340712 L27.0567694,16.340712 L27.0567694,18.7215534 Z M35.4522445,33.9179288 L35.4522445,39.6706796 L30.3007075,39.6706796 L30.3007075,33.9179288 L35.4522445,33.9179288 Z" id="Shape" stroke="#FFFFFF" fill-opacity="0.8" fill="#FFFFFF" fill-rule="nonzero"></path>
                        </g>
                    </g>
                </g>
            </g>
        </g>
    </g>
</svg>