<?xml version="1.0" encoding="UTF-8"?>
<svg width="49px" height="56px" viewBox="0 0 49 56" version="1.1" xmlns="http://www.w3.org/2000/svg" xmlns:xlink="http://www.w3.org/1999/xlink">
    <!-- Generator: Sketch 48.2 (47327) - http://www.bohemiancoding.com/sketch -->
    <title>File_Binary</title>
    <desc>Created with Sketch.</desc>
    <defs>
        <linearGradient x1="0%" y1="100%" x2="100%" y2="0%" id="linearGradient-1">
            <stop stop-color="#FFFFFF" stop-opacity="0" offset="0%"></stop>
            <stop stop-color="#FFFFFF" stop-opacity="0.2" offset="100%"></stop>
        </linearGradient>
    </defs>
    <g id="Alt-1" stroke="none" stroke-width="1" fill="none" fill-rule="evenodd" transform="translate(-1037.000000, -55.000000)">
        <g id="Icons" transform="translate(112.000000, 27.000000)">
            <g id="Filetypes">
                <g id="FiletypesGradient" transform="translate(0.000000, 26.000000)">
                    <g id="File_Binary" transform="translate(925.692308, 2.000000)">
                        <g>
                            <path d="M1,0 L47,0 C47.5522847,-1.01453063e-16 48,0.44771525 48,1 L48,55 C48,55.5522847 47.5522847,56 47,56 L1,56 C0.44771525,56 6.76353751e-17,55.5522847 0,55 L0,1 C-6.76353751e-17,0.44771525 0.44771525,1.01453063e-16 1,0 Z" id="rect4177-7" fill="#ECF0F1" fill-rule="nonzero"></path>
                            <path d="M0,0 L47,0 C47.5522847,-1.01453063e-16 48,0.44771525 48,1 L48,55 C48,55.5522847 47.5522847,56 47,56 L0,56 L0,0 Z" id="Rectangle" fill="url(#linearGradient-1)"></path>
                            <g id="Binary" transform="translate(9.600000, 7.840000)" fill="#34495E">
                                <path d="M4.04532733,1.10304362 C5.16925428,1.10304362 5.98186553,1.53508867 6.48318547,2.39919174 C6.87130412,3.06707926 7.06536054,3.98210918 7.06536054,5.14430894 C7.06536054,6.24613468 6.88949691,7.15739128 6.53776438,7.87810607 C6.02835864,8.91201105 5.19553318,9.42895578 4.03926301,9.42895578 C2.99619412,9.42895578 2.21996845,9.00634403 1.71056271,8.16110784 C1.28605792,7.45548656 1.07380872,6.50838343 1.07380872,5.31977004 C1.07380872,4.39906633 1.20115824,3.60855595 1.45586111,2.94821518 C1.93292363,1.71809466 2.7960704,1.10304362 4.04532733,1.10304362 Z M4.03319869,8.50070997 C4.59920506,8.50070997 5.04998195,8.26676417 5.38554287,7.79886557 C5.7211038,7.33096697 5.88888174,6.45933022 5.88888174,5.18392919 C5.88888174,4.26322548 5.76759648,3.50573164 5.52502232,2.91142495 C5.28244816,2.31711825 4.81145706,2.01996936 4.1120349,2.01996936 C3.46921337,2.01996936 2.99923298,2.30202498 2.70207963,2.86614467 C2.40492629,3.43026435 2.25635184,4.26133792 2.25635184,5.35939029 C2.25635184,6.1857596 2.35135863,6.84986378 2.54137505,7.35172277 C2.83246405,8.11771806 3.32973362,8.50070997 4.03319869,8.50070997 Z M8.78156415,3.46893844 L8.78156415,2.68785355 C9.56993018,2.61615941 10.1197567,2.49635652 10.4310602,2.3284413 C10.7423637,2.16052607 10.9748271,1.76338422 11.1284574,1.13700383 L11.9895914,1.13700383 L11.9895914,9.2082144 L10.8252412,9.2082144 L10.8252412,3.46893844 L8.78156415,3.46893844 Z M14.773116,3.46893844 L14.773116,2.68785355 C15.561482,2.61615941 16.1113085,2.49635652 16.422612,2.3284413 C16.7339155,2.16052607 16.9663789,1.76338422 17.1200093,1.13700383 L17.9811432,1.13700383 L17.9811432,9.2082144 L16.8167931,9.2082144 L16.8167931,3.46893844 L14.773116,3.46893844 Z M20.7646678,3.46893844 L20.7646678,2.68785355 C21.5530338,2.61615941 22.1028603,2.49635652 22.4141638,2.3284413 C22.7254674,2.16052607 22.9579308,1.76338422 23.1115611,1.13700383 L23.972695,1.13700383 L23.972695,9.2082144 L22.8083449,9.2082144 L22.8083449,3.46893844 L20.7646678,3.46893844 Z" id="0111"></path>
                                <path d="M1.87429945,17.9586248 L1.87429945,17.1775399 C2.66266547,17.1058458 3.21249199,16.9860429 3.5237955,16.8181277 C3.835099,16.6502125 4.06756242,16.2530706 4.22119272,15.6266902 L5.08232669,15.6266902 L5.08232669,23.6979008 L3.91797654,23.6979008 L3.91797654,17.9586248 L1.87429945,17.9586248 Z M10.952592,15.59273 C12.076519,15.59273 12.8891302,16.0247751 13.3904502,16.8888781 C13.7785688,17.5567657 13.9726252,18.4717956 13.9726252,19.6339953 C13.9726252,20.7358211 13.7967616,21.6470777 13.4450291,22.3677925 C12.9356233,23.4016974 12.1027979,23.9186422 10.9465277,23.9186422 C9.90345882,23.9186422 9.12723315,23.4960304 8.61782741,22.6507942 C8.19332263,21.945173 7.98107342,20.9980698 7.98107342,19.8094564 C7.98107342,18.8887527 8.10842295,18.0982424 8.36312582,17.4379016 C8.84018833,16.2077811 9.70333511,15.59273 10.952592,15.59273 Z M10.9404634,22.9903964 C11.5064698,22.9903964 11.9572467,22.7564506 12.2928076,22.288552 C12.6283685,21.8206534 12.7961464,20.9490166 12.7961464,19.6736156 C12.7961464,18.7529119 12.6748612,17.995418 12.432287,17.4011113 C12.1897129,16.8068047 11.7187218,16.5096558 11.0192996,16.5096558 C10.3764781,16.5096558 9.90649769,16.7917114 9.60934434,17.3558311 C9.31219099,17.9199508 9.16361655,18.7510243 9.16361655,19.8490767 C9.16361655,20.675446 9.25862333,21.3395502 9.44863976,21.8414092 C9.73972875,22.6074045 10.2369983,22.9903964 10.9404634,22.9903964 Z M17.8598567,15.59273 C18.9837837,15.59273 19.7963949,16.0247751 20.2977149,16.8888781 C20.6858335,17.5567657 20.87989,18.4717956 20.87989,19.6339953 C20.87989,20.7358211 20.7040263,21.6470777 20.3522938,22.3677925 C19.842888,23.4016974 19.0100626,23.9186422 17.8537924,23.9186422 C16.8107235,23.9186422 16.0344979,23.4960304 15.5250921,22.6507942 C15.1005873,21.945173 14.8883381,20.9980698 14.8883381,19.8094564 C14.8883381,18.8887527 15.0156877,18.0982424 15.2703905,17.4379016 C15.747453,16.2077811 16.6105998,15.59273 17.8598567,15.59273 Z M17.8477281,22.9903964 C18.4137345,22.9903964 18.8645114,22.7564506 19.2000723,22.288552 C19.5356332,21.8206534 19.7034112,20.9490166 19.7034112,19.6736156 C19.7034112,18.7529119 19.5821259,17.995418 19.3395517,17.4011113 C19.0969776,16.8068047 18.6259865,16.5096558 17.9265643,16.5096558 C17.2837428,16.5096558 16.8137624,16.7917114 16.516609,17.3558311 C16.2194557,17.9199508 16.0708812,18.7510243 16.0708812,19.8490767 C16.0708812,20.675446 16.165888,21.3395502 16.3559045,21.8414092 C16.6469935,22.6074045 17.144263,22.9903964 17.8477281,22.9903964 Z M22.5960936,17.9586248 L22.5960936,17.1775399 C23.3844596,17.1058458 23.9342861,16.9860429 24.2455896,16.8181277 C24.5568931,16.6502125 24.7893565,16.2530706 24.9429868,15.6266902 L25.8041208,15.6266902 L25.8041208,23.6979008 L24.6397707,23.6979008 L24.6397707,17.9586248 L22.5960936,17.9586248 Z" id="1001"></path>
                                <path d="M1.87429945,32.4483224 L1.87429945,31.6672375 C2.66266547,31.5955434 3.21249199,31.4757405 3.5237955,31.3078253 C3.835099,31.1399101 4.06756242,30.7427682 4.22119272,30.1163878 L5.08232669,30.1163878 L5.08232669,38.1875984 L3.91797654,38.1875984 L3.91797654,32.4483224 L1.87429945,32.4483224 Z M10.952592,30.0824276 C12.076519,30.0824276 12.8891302,30.5144727 13.3904502,31.3785757 C13.7785688,32.0464633 13.9726252,32.9614932 13.9726252,34.1236929 C13.9726252,35.2255187 13.7967616,36.1367753 13.4450291,36.8574901 C12.9356233,37.891395 12.1027979,38.4083398 10.9465277,38.4083398 C9.90345882,38.4083398 9.12723315,37.985728 8.61782741,37.1404918 C8.19332263,36.4348706 7.98107342,35.4877674 7.98107342,34.299154 C7.98107342,33.3784503 8.10842295,32.58794 8.36312582,31.9275992 C8.84018833,30.6974787 9.70333511,30.0824276 10.952592,30.0824276 Z M10.9404634,37.480094 C11.5064698,37.480094 11.9572467,37.2461482 12.2928076,36.7782496 C12.6283685,36.310351 12.7961464,35.4387142 12.7961464,34.1633132 C12.7961464,33.2426095 12.6748612,32.4851156 12.432287,31.8908089 C12.1897129,31.2965023 11.7187218,30.9993534 11.0192996,30.9993534 C10.3764781,30.9993534 9.90649769,31.281409 9.60934434,31.8455287 C9.31219099,32.4096484 9.16361655,33.2407219 9.16361655,34.3387743 C9.16361655,35.1651436 9.25862333,35.8292478 9.44863976,36.3311068 C9.73972875,37.0971021 10.2369983,37.480094 10.9404634,37.480094 Z M15.6888289,32.4483224 L15.6888289,31.6672375 C16.4771949,31.5955434 17.0270214,31.4757405 17.3383249,31.3078253 C17.6496284,31.1399101 17.8820918,30.7427682 18.0357221,30.1163878 L18.8968561,30.1163878 L18.8968561,38.1875984 L17.7325059,38.1875984 L17.7325059,32.4483224 L15.6888289,32.4483224 Z M24.7671214,30.0824276 C25.8910484,30.0824276 26.7036596,30.5144727 27.2049796,31.3785757 C27.5930982,32.0464633 27.7871547,32.9614932 27.7871547,34.1236929 C27.7871547,35.2255187 27.611291,36.1367753 27.2595585,36.8574901 C26.7501528,37.891395 25.9173273,38.4083398 24.7610571,38.4083398 C23.7179882,38.4083398 22.9417626,37.985728 22.4323568,37.1404918 C22.007852,36.4348706 21.7956028,35.4877674 21.7956028,34.299154 C21.7956028,33.3784503 21.9229524,32.58794 22.1776552,31.9275992 C22.6547177,30.6974787 23.5178645,30.0824276 24.7671214,30.0824276 Z M24.7549928,37.480094 C25.3209992,37.480094 25.7717761,37.2461482 26.107337,36.7782496 C26.4428979,36.310351 26.6106759,35.4387142 26.6106759,34.1633132 C26.6106759,33.2426095 26.4893906,32.4851156 26.2468164,31.8908089 C26.0042423,31.2965023 25.5332512,30.9993534 24.833829,30.9993534 C24.1910075,30.9993534 23.7210271,31.281409 23.4238737,31.8455287 C23.1267204,32.4096484 22.978146,33.2407219 22.978146,34.3387743 C22.978146,35.1651436 23.0731527,35.8292478 23.2631692,36.3311068 C23.5542582,37.0971021 24.0515277,37.480094 24.7549928,37.480094 Z" id="1010"></path>
                            </g>
                        </g>
                    </g>
                </g>
            </g>
        </g>
    </g>
</svg>