<?xml version="1.0" encoding="UTF-8"?>
<svg width="62px" height="46px" viewBox="0 0 62 46" version="1.1" xmlns="http://www.w3.org/2000/svg" xmlns:xlink="http://www.w3.org/1999/xlink">
    <title>Folder</title>
    <defs>
        <polygon id="path-1" points="27.0458024 7.12471995 28.8642735 11.8068487 49.7112481 12.2168994 54.5259882 7.12471995 30.5318127 7.12471995 26.5762737 2.03254052"></polygon>
        <filter x="-5.4%" y="-14.7%" width="110.7%" height="129.5%" filterUnits="objectBoundingBox" id="filter-2">
            <feOffset dx="0" dy="0" in="SourceAlpha" result="shadowOffsetOuter1"></feOffset>
            <feGaussianBlur stdDeviation="0.5" in="shadowOffsetOuter1" result="shadowBlurOuter1"></feGaussianBlur>
            <feColorMatrix values="0 0 0 0 0   0 0 0 0 0   0 0 0 0 0  0 0 0 0.5 0" type="matrix" in="shadowBlurOuter1"></feColorMatrix>
        </filter>
        <linearGradient x1="32.7007869%" y1="60.6950609%" x2="92.5454176%" y2="22.2383865%" id="linearGradient-3">
            <stop stop-color="#FFFFFF" stop-opacity="0" offset="0%"></stop>
            <stop stop-color="#FFFFFF" stop-opacity="0.0132762408" offset="6.63812042%"></stop>
            <stop stop-color="#FFFFFF" stop-opacity="0.0132762408" offset="6.63812042%"></stop>
            <stop stop-color="#FFFFFF" stop-opacity="0.0294366915" offset="14.7183458%"></stop>
            <stop stop-color="#FFFFFF" stop-opacity="0.0387950468" offset="19.3975234%"></stop>
            <stop stop-color="#FFFFFF" stop-opacity="0.0711830929" offset="35.5915464%"></stop>
            <stop stop-color="#FFFFFF" stop-opacity="0.0711830929" offset="35.5915464%"></stop>
            <stop stop-color="#FFFFFF" stop-opacity="0.0711830929" offset="35.5915464%"></stop>
            <stop stop-color="#FFFFFF" stop-opacity="0.0711830929" offset="35.5915464%"></stop>
            <stop stop-color="#FFFFFF" stop-opacity="0.0711830929" offset="35.5915464%"></stop>
            <stop stop-color="#FFFFFF" stop-opacity="0.1" offset="100%"></stop>
        </linearGradient>
    </defs>
    <g id="Folder" stroke="none" stroke-width="1" fill="none" fill-rule="evenodd">
        <g transform="translate(3.000000, 0.000000)">
            <path d="M0.5,3 L0.5,16 C0.5,19.2926469 2.26700199,22 5.08102051,22 L32.2476528,22 C35.0710102,21.9544805 34.4808426,17.2947845 37.3260636,14.6612033 L51.0007185,14.6612033 C53.5442941,14.6612033 56.0765222,9.63993933 55.9982301,9.63993933 L55.9982301,4.03254052 C55.9982301,3.48025577 55.5505148,3.03254052 54.9982301,3.03254052 L31.9814676,3.03254052 L31.9814676,3.03254052 C31.9814676,3.03254052 21.4876451,3.02169368 0.5,3 Z" id="rect4177-9-7-2-2-48" fill="#C88C35" fill-rule="nonzero"></path>
            <g id="rect4177-9-7-2-2-48" fill-rule="nonzero">
                <use fill="black" fill-opacity="1" filter="url(#filter-2)" xlink:href="#path-1"></use>
                <use fill="#000000" xlink:href="#path-1"></use>
            </g>
            <path d="M0,1 L0,11.5240365 L0,11.5240365 L0,45 C-3.8565838e-15,45.5522847 0.44771525,46 1,46 L55,46 C55.5522847,46 56,45.5522847 56,45 L56,18.3434095 L56,18.3434095 L56,11.5240365 L56,8 C56,7.44771525 55.5522847,7 55,7 L50.8989639,7 L50.8989639,7 L31.0267845,7 C30.8788611,7 30.7385301,6.93450058 30.6435291,6.82111575 L25.0782445,0.178884246 C24.9832434,0.0654994161 24.8429125,1.25323669e-15 24.6949891,0 L1,0 C0.44771525,1.01453063e-16 -6.76353751e-17,0.44771525 0,1 Z" id="rect4177-9-7-2-0" fill="#E7B66F" fill-rule="nonzero"></path>
            <path d="M0,0 L55,0 C55.5522847,3.71174381e-15 56,0.44771525 56,1 L56,45 C56,45.5522847 55.5522847,46 55,46 L0,46 L0,46 L0,0 Z" id="Rectangle-6" fill="url(#linearGradient-3)"></path>
        </g>
    </g>
</svg>