<?xml version="1.0" encoding="UTF-8"?>
<svg width="42px" height="43px" viewBox="0 0 42 43" version="1.1" xmlns="http://www.w3.org/2000/svg" xmlns:xlink="http://www.w3.org/1999/xlink">
    <!-- Generator: Sketch 48.2 (47327) - http://www.bohemiancoding.com/sketch -->
    <title>Folder Copy 3</title>
    <desc>Created with Sketch.</desc>
    <defs></defs>
    <g id="Desktop-HD-Copy" stroke="none" stroke-width="1" fill="none" fill-rule="evenodd" transform="translate(-603.000000, -163.000000)">
        <g id="Icons" transform="translate(332.000000, 85.000000)" fill-rule="nonzero">
            <g id="Folders" transform="translate(63.000000, 77.000000)">
                <g id="Folder-Copy-3" transform="translate(208.000000, 1.000000)">
                    <path d="M0,1 L0,3.71103239 L0,5.41814893 C0,6.29431041 1.09301882,7 2.44977774,7 L15.5479755,7 C16.9092371,6.98788744 16.624692,5.74795912 17.9964949,5.04717263 L24.5896321,5.04717263 C25.8159989,5.04717263 27.0368946,3.71103239 26.9991467,3.71103239 L26.9991467,2.95282737 C26.9991467,2.40054262 26.5514314,1.95282737 25.9991467,1.95282737 L15.4196362,1.95282737 C14.5606751,1.40802311 13.8221972,0 12.9711154,0 L1,-1.11022302e-16 C0.44771525,-9.5692398e-18 -6.76353751e-17,0.44771525 0,1 Z" id="rect4177-9-7-2-2-48" fill="#455155"></path>
                    <path d="M42,1 L42,5.41814893 C42,6.29431041 40.9069812,7 39.5502223,7 L26.4520245,7 C25.0907629,6.98788744 25.375308,5.74795912 24.0035051,5.04717263 L17.4103679,5.04717263 C16.1840011,5.04717263 14.9631054,3.71103239 15.0008533,3.71103239 L15.0008533,2.95282737 C15.0008533,2.40054262 15.3366398,1.95282737 15.7508533,1.95282737 L26.5803638,1.95282737 C27.4393249,1.40802311 28.1778028,2.22044605e-16 29.0288846,2.22044605e-16 L41.25,0 C41.6642136,1.01453063e-16 42,0.44771525 42,1 Z" id="rect4177-9-7-2-2-48" fill="#455155"></path>
                    <path d="M0,3 L0,6.71202994 L0,34 C6.76353751e-17,34.5522847 0.44771525,35 1,35 L41,35 C41.5522847,35 42,34.5522847 42,34 L42,12.307413 L42,6.71202994 L42,3 L38.1742229,3 L3.82771996,3 L0,3 Z" id="rect4177-9-7-2-0" fill="#7B8D93"></path>
                    <rect id="rect4175-5-6-6-4-8" fill="#4D4D4D" opacity="0.8" x="14" y="41" width="12" height="2"></rect>
                    <rect id="rect4175-5-6-6-4-8" fill="#4D4D4D" opacity="0.8" transform="translate(20.000000, 38.000000) rotate(90.000000) translate(-20.000000, -38.000000) " x="17" y="37" width="6" height="2"></rect>
                </g>
            </g>
        </g>
    </g>
</svg>