<?xml version="1.0" encoding="UTF-8"?>
<svg width="44px" height="36px" viewBox="0 0 44 36" version="1.1" xmlns="http://www.w3.org/2000/svg" xmlns:xlink="http://www.w3.org/1999/xlink">
    <!-- Generator: Sketch 48.2 (47327) - http://www.bohemiancoding.com/sketch -->
    <title>FolderGradientOpen</title>
    <desc>Created with Sketch.</desc>
    <defs>
        <linearGradient x1="0%" y1="50%" x2="98.1505102%" y2="50%" id="linearGradient-1">
            <stop stop-color="#FFFFFF" stop-opacity="0" offset="0%"></stop>
            <stop stop-color="#FFFFFF" stop-opacity="0.1" offset="100%"></stop>
        </linearGradient>
    </defs>
    <g id="Desktop-HD-Copy" stroke="none" stroke-width="1" fill="none" fill-rule="evenodd" transform="translate(-508.000000, -384.000000)">
        <g id="Icons" transform="translate(230.000000, 99.000000)">
            <g id="Folders" transform="translate(169.000000, 246.000000)">
                <g id="FolderGradientOpen" transform="translate(109.000000, 39.000000)">
                    <path d="M43.0326515,4 L43.0402506,4 L43.0402506,4.05040841 C43.0453613,4.09137483 43.047994,4.13311089 43.047994,4.17546184 L43.047994,5.2044656 C43.0512274,5.2044656 43.0485383,5.20911868 43.0402506,5.21791362 L43.0402506,7.07493076 L43.0402506,11.7099729 L43.0402506,29.50781 C43.0402506,30.0600947 42.5925354,30.50781 42.0402506,30.50781 L1.939453,30.50781 C1.38716825,30.50781 0.939453,30.0600947 0.939453,29.50781 L0.939453,7.07493076 L0.939453,4 L0.948527,4 L0.948527,1.92186 C0.948527,1.36957525 1.39624225,0.92186 1.948527,0.92186 L21.174242,0.92186 C22.5013244,0.92186 23.6528246,2.54674683 24.992193,3.17546184 L42.047994,3.17546184 C42.5404173,3.17546184 42.949711,3.53138236 43.0326515,4 Z" id="Combined-Shape" fill="#C88C35" fill-rule="nonzero"></path>
                    <path d="M43.0326515,4 L43.0402506,4 L43.0402506,4.05040841 C43.0453613,4.09137483 43.047994,4.13311089 43.047994,4.17546184 L43.047994,5.2044656 C43.0512274,5.2044656 43.0485383,5.20911868 43.0402506,5.21791362 L43.0402506,7.07493076 L43.0402506,11.7099729 L43.0402506,29.50781 C43.0402506,30.0600947 42.5925354,30.50781 42.0402506,30.50781 L1.939453,30.50781 C1.38716825,30.50781 0.939453,30.0600947 0.939453,29.50781 L0.939453,7.07493076 L0.939453,4 L0.948527,4 L0.948527,1.92186 C0.948527,1.36957525 1.39624225,0.92186 1.948527,0.92186 L21.174242,0.92186 C22.5013244,0.92186 23.6528246,2.54674683 24.992193,3.17546184 L42.047994,3.17546184 C42.5404173,3.17546184 42.949711,3.53138236 43.0326515,4 Z" id="Combined-Shape" fill-rule="nonzero"></path>
                    <path d="M0.12806032,8 L0.910825872,34.537294 C0.926770922,35.0778626 1.36958741,35.50781 1.91039113,35.50781 L42.0663679,35.50781 C42.608347,35.50781 43.051678,35.0760575 43.0660178,34.5342682 L43.7683131,8 L0.12806032,8 Z" id="rect4177-9-7-2-0" fill="#E7B66F" fill-rule="nonzero"></path>
                    <path d="M0.188830317,8 L0.912909717,34.5350875 C0.92768485,35.0765467 1.37087685,35.50781 1.91253762,35.50781 L42.0637698,35.50781 C42.6067836,35.50781 43.0505653,35.0744657 43.0634866,34.5316057 L43.6950033,8 L0.188830317,8 Z" id="rect4177-9-7-2-0" fill-opacity="0.05" fill="#FFFFFF" fill-rule="nonzero"></path>
                    <path d="M22,3 L42.7683131,3 C43.3205979,3 43.7683131,3.44771525 43.7683131,4 L43.7683131,34.5 C43.7683131,35.0522847 43.3205979,35.5 42.7683131,35.5 L22,35.5 L22,3 Z" id="Rectangle-6" fill="url(#linearGradient-1)"></path>
                </g>
            </g>
        </g>
    </g>
</svg>