<?xml version="1.0" encoding="UTF-8"?>
<svg width="56px" height="46px" viewBox="0 0 56 46" version="1.1" xmlns="http://www.w3.org/2000/svg" xmlns:xlink="http://www.w3.org/1999/xlink">
    <!-- Generator: Sketch 48.2 (47327) - http://www.bohemiancoding.com/sketch -->
    <title>FriendPackage</title>
    <desc>Created with Sketch.</desc>
    <defs>
        <linearGradient x1="32.7007869%" y1="65.850525%" x2="92.5454176%" y2="8.8561342%" id="linearGradient-1">
            <stop stop-color="#FFFFFF" stop-opacity="0" offset="0%"></stop>
            <stop stop-color="#FFFFFF" stop-opacity="0.0132762408" offset="6.63812042%"></stop>
            <stop stop-color="#FFFFFF" stop-opacity="0.0132762408" offset="6.63812042%"></stop>
            <stop stop-color="#FFFFFF" stop-opacity="0.0294366915" offset="14.7183458%"></stop>
            <stop stop-color="#FFFFFF" stop-opacity="0.0387950468" offset="19.3975234%"></stop>
            <stop stop-color="#FFFFFF" stop-opacity="0.0711830929" offset="35.5915464%"></stop>
            <stop stop-color="#FFFFFF" stop-opacity="0.0711830929" offset="35.5915464%"></stop>
            <stop stop-color="#FFFFFF" stop-opacity="0.0711830929" offset="35.5915464%"></stop>
            <stop stop-color="#FFFFFF" stop-opacity="0.0711830929" offset="35.5915464%"></stop>
            <stop stop-color="#FFFFFF" stop-opacity="0.0711830929" offset="35.5915464%"></stop>
            <stop stop-color="#FFFFFF" stop-opacity="0.1" offset="100%"></stop>
        </linearGradient>
        <linearGradient x1="3.67512093%" y1="96.0583635%" x2="100%" y2="0%" id="linearGradient-2">
            <stop stop-color="#FFFFFF" stop-opacity="0" offset="0%"></stop>
            <stop stop-color="#FFFFFF" stop-opacity="0.15" offset="100%"></stop>
        </linearGradient>
    </defs>
    <g id="Alt-1" stroke="none" stroke-width="1" fill="none" fill-rule="evenodd" transform="translate(-399.000000, -753.000000)">
        <g id="Icons" transform="translate(75.000000, 53.000000)">
            <g id="Folders" transform="translate(0.000000, 670.000000)">
                <g id="FriendPackage" transform="translate(324.000000, 30.000000)">
                    <g>
                        <path d="M0,1 L0,4.98804023 L0,42 C-3.8565838e-15,42.5522847 0.44771525,43 1,43 L55,43 C55.5522847,43 56,42.5522847 56,42 L56,12.5068362 L56,4.98804023 L56,1 C56,0.44771525 55.5522847,-1.95039362e-15 55,-5.77315973e-15 L50.8989639,0 L5.10362661,0 L1,0 C0.44771525,1.01453063e-16 -6.76353751e-17,0.44771525 0,1 Z" id="rect4177-9-7-2-0" fill="#7F8C8D" fill-rule="nonzero"></path>
                        <path d="M0,4 L0,7.98804023 L0,45 C-3.8565838e-15,45.5522847 0.44771525,46 1,46 L55,46 C55.5522847,46 56,45.5522847 56,45 L56,15.5068362 L56,7.98804023 L56,4 C56,3.44771525 55.5522847,3 55,3 L50.8989639,3 L5.10362661,3 L1,3 C0.44771525,3 -6.76353751e-17,3.44771525 0,4 Z" id="rect4177-9-7-2-0" fill="#2980B9" fill-rule="nonzero"></path>
                        <path d="M1,3 L55,3 C55.5522847,3 56,3.44771525 56,4 L56,45 C56,45.5522847 55.5522847,46 55,46 L0,46 L0,4 C-6.76353751e-17,3.44771525 0.44771525,3 1,3 Z" id="Rectangle-6" fill="url(#linearGradient-1)"></path>
                        <path d="M1,3 L55,3 C55.5522847,3 56,3.44771525 56,4 L56,46 L0,46 L0,4 C-6.76353751e-17,3.44771525 0.44771525,3 1,3 Z" id="Rectangle-2" fill="url(#linearGradient-2)"></path>
                        <g id="Zipper" transform="translate(24.000000, 4.000000)" fill-rule="nonzero">
                            <rect id="rect1037" fill="#FFFFFF" x="1.31986532" y="19.0870999" width="3.05847612" height="3.3453872"></rect>
                            <rect id="rect1039" fill="#FFFFFF" x="5.27946128" y="22.2682833" width="3.05847612" height="3.3453872"></rect>
                            <rect id="rect1039" fill="#FFFFFF" x="5.27946128" y="28.6306499" width="3.05847612" height="3.3453872"></rect>
                            <rect id="rect1039" fill="#FFFFFF" x="5.27946128" y="34.9930166" width="3.05847612" height="3.3453872"></rect>
                            <rect id="rect1041" fill="#FFFFFF" x="1.31986532" y="25.4494666" width="3.05847612" height="3.3453872"></rect>
                            <rect id="rect1041" fill="#FFFFFF" x="1.31986532" y="31.8118332" width="3.05847612" height="3.3453872"></rect>
                            <rect id="rect1041" fill="#FFFFFF" x="1.31986532" y="38.1741999" width="3.05847612" height="3.3453872"></rect>
                            <rect id="rect1062" fill="#FFFFF4" x="2.63973064" y="0" width="4.07796809" height="6.69077448"></rect>
                            <path d="M0.65993266,1.59059166 L0.65993266,18.3175279 L8.57912458,18.3175279 L8.57912458,1.59059166 C8.57912458,1.59059166 5.93939394,1.59059166 0.65993266,1.59059166 Z M7.27926318,10.8514086 L7.27926318,16.0491892 L1.9998019,16.0491892 L1.9998019,10.8514086 L7.27926318,10.8514086 Z" id="rect1024" fill="#FFFFFF"></path>
                        </g>
                    </g>
                </g>
            </g>
        </g>
    </g>
</svg>