<?xml version="1.0" encoding="UTF-8"?>
<svg width="40px" height="40px" viewBox="0 0 40 40" version="1.1" xmlns="http://www.w3.org/2000/svg" xmlns:xlink="http://www.w3.org/1999/xlink">
    <!-- Generator: Sketch 48.2 (47327) - http://www.bohemiancoding.com/sketch -->
    <title>FriendChat Copy</title>
    <desc>Created with Sketch.</desc>
    <defs></defs>
    <g id="Alt-1" stroke="none" stroke-width="1" fill="none" fill-rule="evenodd" transform="translate(-517.000000, -304.000000)">
        <g id="Icons" transform="translate(47.000000, 14.000000)">
            <g id="Appicons" transform="translate(97.000000, 264.000000)">
                <g id="FriendChat-Copy" transform="translate(373.000000, 26.000000)">
                    <path d="M1,0 L39,0 C39.5522847,-1.01453063e-16 40,0.44771525 40,1 L40,39 C40,39.5522847 39.5522847,40 39,40 L1,40 C0.44771525,40 6.76353751e-17,39.5522847 0,39 L0,1 C-6.76353751e-17,0.44771525 0.44771525,1.01453063e-16 1,0 Z" id="rect4177-7" fill="#8E44AD" fill-rule="nonzero"></path>
                    <g id="FriendChat" transform="translate(8.000000, 11.000000)">
                        <path d="M23.9041649,13.3363045 L23.9041649,2.71802884 C23.9041649,2.49879386 23.5016107,2.30895785 23.1933975,2.5047256 L18.75,5.32781401 L18.75,10.7227799 L23.1923829,13.548962 C23.5030288,13.7444901 23.9041649,13.5544085 23.9041649,13.3363045 Z M22.1156932,15.2569644 L16.733871,11.833129 L16.733871,4.21667729 L17.2021248,3.91917477 L22.113882,0.798516589 C23.7068168,-0.213267668 25.9202939,0.83056117 25.9202939,2.71802884 L25.9202939,13.3363045 C25.9202939,15.2203855 23.7115582,16.265851 22.1156932,15.2569644 Z" id="Path" fill="#FFFFFF" fill-rule="nonzero"></path>
                        <path d="M2.85673334,15.5685845 L2.85673334,19.3435306 C2.85673334,19.4966836 3.08088404,19.6017566 3.23842928,19.4950961 L8.91331098,15.5685845 L15.4698059,15.5685845 C16.4912241,15.5685845 17.3095118,14.8138765 17.3095118,13.8959294 L17.3095118,1.97568539 C17.3095118,1.05773836 16.4912241,0.303030303 15.4698059,0.303030303 L2.54535111,0.303030303 C1.52393295,0.303030303 0.705645161,1.05773836 0.705645161,1.97568539 L0.705645161,13.8959294 C0.705645161,14.8138765 1.52393295,15.5685845 2.54535111,15.5685845 L2.85673334,15.5685845 Z M0.100806452,13.8959294 L0.100806452,1.97568539 C0.100806452,0.711285377 1.20057229,-0.303030303 2.54535111,-0.303030303 L15.4698059,-0.303030303 C16.8145847,-0.303030303 17.9143506,0.711285377 17.9143506,1.97568539 L17.9143506,13.8959294 C17.9143506,15.1603294 16.8145847,16.1746451 15.4698059,16.1746451 L9.10184565,16.1746451 L3.57959534,19.995531 C3.03185887,20.3664213 2.25189463,20.0008049 2.25189463,19.3435306 L2.25189463,16.1583713 C1.04420053,16.0235334 0.100806452,15.0669943 0.100806452,13.8959294 Z" id="Combined-Shape" fill="#979797" fill-rule="nonzero"></path>
                        <path d="M3.5623785,18.4116904 L8.69335344,14.8615138 L15.4698059,14.8615138 C16.11397,14.8615138 16.6038667,14.4096813 16.6038667,13.8959294 L16.6038667,1.97568539 C16.6038667,1.4619335 16.11397,1.01010101 15.4698059,1.01010101 L2.54535111,1.01010101 C1.90118706,1.01010101 1.41129032,1.4619335 1.41129032,1.97568539 L1.41129032,13.8959294 C1.41129032,14.4096813 1.90118706,14.8615138 2.54535111,14.8615138 L3.5623785,14.8615138 L3.5623785,18.4116904 Z M1.54624947,16.7281599 C0.304191409,16.334713 -0.60483871,15.2271565 -0.60483871,13.8959294 L-0.60483871,1.97568539 C-0.60483871,0.307090233 0.82331818,-1.01010101 2.54535111,-1.01010101 L15.4698059,-1.01010101 C17.1918388,-1.01010101 18.6199957,0.307090233 18.6199957,1.97568539 L18.6199957,13.8959294 C18.6199957,15.5645246 17.1918388,16.8817158 15.4698059,16.8817158 L9.32179944,16.8817158 L3.9746929,20.581377 C2.97466283,21.2585302 1.54624947,20.5889464 1.54624947,19.3435306 L1.54624947,16.7281599 Z" id="Combined-Shape" fill="#FFFFFF" fill-rule="nonzero"></path>
                        <g id="phone" stroke-width="1" fill-rule="evenodd" transform="translate(8.996768, 10.025045) rotate(-314.000000) translate(-8.996768, -10.025045) translate(5.770962, 6.792721)" fill="#FFFFFF">
                            <path d="M6.02505016,0.301130543 L4.75510288,0.00747373515 C4.61711822,-0.0243390857 4.47547026,0.0478515462 4.41929951,0.17754997 L3.83317,1.54794841 C3.78188366,1.66785827 3.81607455,1.80856882 3.91742611,1.89054801 L4.65741463,2.49743875 C4.21781749,3.43591696 3.44974361,4.21655464 2.49361983,4.66560485 L1.88795267,3.92412141 C1.80491765,3.82256509 1.66571189,3.78830513 1.54604378,3.83969507 L0.178408248,4.42700869 C0.0477502107,4.48451648 -0.0242948755,4.62645061 0.00745380655,4.76471402 L0.300518564,6.03722685 C0.331046143,6.16937242 0.448272046,6.26481088 0.586256703,6.26481088 C3.71350189,6.26481088 6.25217535,3.72590306 6.25217535,0.58744593 C6.25217535,0.450406087 6.15815041,0.331719794 6.02505016,0.301130543 Z" id="Shape" fill-rule="nonzero"></path>
                        </g>
                    </g>
                </g>
            </g>
        </g>
    </g>
</svg>