<?xml version="1.0" encoding="UTF-8"?>
<svg width="44px" height="36px" viewBox="0 0 44 36" version="1.1" xmlns="http://www.w3.org/2000/svg" xmlns:xlink="http://www.w3.org/1999/xlink">
    <!-- Generator: Sketch 48.2 (47327) - http://www.bohemiancoding.com/sketch -->
    <title>g-Drive</title>
    <desc>Created with Sketch.</desc>
    <defs>
        <path d="M19.9689031,11.362268 L13.4387629,0.00556701031 L7.00329897,0.00556701031 L13.5334392,11.362268 L19.9689031,11.362268 Z M8.0443299,12.3086598 L4.82659794,17.9870103 L17.2243299,17.9870103 L20.442099,12.3086598 L8.0443299,12.3086598 Z M6.15154639,1.42515464 L0,12.3086598 L3.21773196,17.9870103 L9.46391753,7.10350515 L6.15154639,1.42515464 Z" id="path-1"></path>
        <filter x="-2.4%" y="-2.8%" width="104.9%" height="105.6%" filterUnits="objectBoundingBox" id="filter-2">
            <feGaussianBlur stdDeviation="0.5" in="SourceAlpha" result="shadowBlurInner1"></feGaussianBlur>
            <feOffset dx="0" dy="0" in="shadowBlurInner1" result="shadowOffsetInner1"></feOffset>
            <feComposite in="shadowOffsetInner1" in2="SourceAlpha" operator="arithmetic" k2="-1" k3="1" result="shadowInnerInner1"></feComposite>
            <feColorMatrix values="0 0 0 0 0   0 0 0 0 0   0 0 0 0 0  0 0 0 0.5 0" type="matrix" in="shadowInnerInner1"></feColorMatrix>
        </filter>
    </defs>
    <g id="Desktop-HD-Copy" stroke="none" stroke-width="1" fill="none" fill-rule="evenodd" transform="translate(-558.000000, -445.000000)">
        <g id="Icons" transform="translate(229.000000, 99.000000)" fill-rule="nonzero">
            <g id="Folders" transform="translate(169.000000, 246.000000)">
                <g id="g-Drive" transform="translate(160.000000, 100.000000)">
                    <path d="M0.948527,1.92186 L0.948527,5.2044656 L0.948527,7.17451223 C0.948527,8.1856201 2.652859,9 4.768438,9 L25.192311,9 C27.314911,8.98602186 26.871223,7.55511978 29.01026,6.74639816 L39.290865,6.74639816 C41.203125,6.74639816 43.106854,5.2044656 43.047994,5.2044656 L43.047994,4.17546184 C43.047994,3.62317709 42.6002787,3.17546184 42.047994,3.17546184 L24.992193,3.17546184 C23.6528246,2.54674683 22.5013244,0.92186 21.174242,0.92186 L1.948527,0.92186 C1.39624225,0.92186 0.948527,1.36957525 0.948527,1.92186 Z" id="rect4177-9-7-2-2-48" fill="#455155"></path>
                    <path d="M0.939453,4.98047 L0.939453,8.52167 L0.939453,34.50781 C0.939453,35.0600947 1.38716825,35.50781 1.939453,35.50781 L42.0402506,35.50781 C42.5925354,35.50781 43.0402506,35.0600947 43.0402506,34.50781 L43.0402506,13.85955 L43.0402506,8.52167 L43.0402506,4.98047 L39.2052919,4.98047 L4.77635927,4.98047 L0.939453,4.98047 Z" id="rect4177-9-7-2-0" fill="#7B8D93"></path>
                    <g id="google-drive-logo" transform="translate(12.000000, 11.000000)" opacity="0.8">
                        <g id="Shape">
                            <use fill="#455155" fill-rule="evenodd" xlink:href="#path-1"></use>
                            <use fill="black" fill-opacity="1" filter="url(#filter-2)" xlink:href="#path-1"></use>
                        </g>
                    </g>
                </g>
            </g>
        </g>
    </g>
</svg>