<?xml version="1.0" encoding="UTF-8"?>
<svg width="42px" height="47px" viewBox="0 0 42 47" version="1.1" xmlns="http://www.w3.org/2000/svg" xmlns:xlink="http://www.w3.org/1999/xlink">
    <!-- Generator: Sketch 48.2 (47327) - http://www.bohemiancoding.com/sketch -->
    <title>LinuxDisk</title>
    <desc>Created with Sketch.</desc>
    <defs>
        <linearGradient x1="17.385817%" y1="82.5072707%" x2="100%" y2="0%" id="linearGradient-1">
            <stop stop-color="#FFFFFF" stop-opacity="0" offset="0%"></stop>
            <stop stop-color="#FFFFFF" stop-opacity="0.4" offset="100%"></stop>
        </linearGradient>
        <path d="M14.9782222,28.924 C16.0330159,29.0499683 17.2181587,29.7332698 18.2099683,29.8539048 C19.2071111,29.9798095 19.5156825,29.1748571 19.5156825,29.1748571 C19.5156825,29.1748571 20.6377778,28.924 21.8174603,28.8951111 C22.9982857,28.8620317 24.1160635,29.1406984 24.1160635,29.1406984 C24.1160635,29.1406984 24.3328254,29.6371429 24.7374603,29.8539048 C25.1420952,30.0748571 26.0132698,30.1047619 26.571619,29.5165079 C27.1310476,28.924 28.623619,28.1776508 29.4617143,27.7111111 C30.3051429,27.2434921 30.1503492,26.5303492 29.6208254,26.3135873 C29.0913016,26.0968889 28.6578413,25.7552381 28.6909206,25.0996825 C28.719746,24.4495238 28.2233016,24.0160635 28.2233016,24.0160635 C28.2233016,24.0160635 28.6578413,22.5854603 28.2532063,21.400381 C27.8485714,20.2206984 26.5140317,18.3234921 25.4880635,16.8971429 C24.4620952,15.4665397 25.3332063,13.8149206 24.3991111,11.7041905 C23.4648889,9.59028571 21.0424762,9.7152381 19.7367619,10.616254 C18.4310476,11.5173333 18.8313651,13.751873 18.8943492,14.8120635 C18.9573333,15.8668571 18.9231746,16.6216508 18.8025397,16.8928889 C18.6819048,17.1683175 17.8395556,18.1686984 17.280127,19.0067937 C16.7217778,19.8491429 16.3170794,21.5883175 15.9081905,22.3057778 C15.5078095,23.0189841 15.7875556,23.6691429 15.7875556,23.6691429 C15.7875556,23.6691429 15.507873,23.7652063 15.2868571,24.2328889 C15.0700952,24.6951746 14.6366349,24.916127 13.8561905,25.0667302 C13.0810794,25.2257778 13.0810794,25.7254603 13.2679365,26.2848889 C13.4558095,26.8432381 13.2679365,27.1560635 13.0511746,27.8692698 C12.8344762,28.5823492 13.9191746,28.7990476 14.9782222,28.924 Z M25.9427937,25.6708571 C26.4968889,25.9132063 27.2933333,25.5758095 27.5356825,25.3334603 C27.7770159,25.0921905 27.9478095,24.7334603 27.9478095,24.7334603 C27.9478095,24.7334603 28.1901587,24.8540952 28.1655873,25.2373333 C28.1399365,25.6259683 28.332127,26.1800635 28.6951111,26.372254 C29.0580952,26.5633651 29.6121905,26.8302222 29.3250159,27.0971429 C29.0324444,27.3640635 27.4139683,28.0153016 26.9303492,28.5234921 C26.4509841,29.0284444 25.8210794,29.4416508 25.4377778,29.3199365 C25.0502857,29.1993016 24.7118095,28.6697778 24.8784127,27.8946667 C25.0502857,27.1227937 25.1954921,26.276127 25.1709206,25.7925079 C25.1453333,25.3088889 25.0502857,24.6576508 25.1709206,24.5615238 C25.2915556,24.4664762 25.483746,24.512381 25.483746,24.512381 C25.483746,24.512381 25.3875556,25.4296508 25.9427937,25.6708571 Z M22.3470476,12.6052698 C22.8808254,12.6052698 23.3111111,13.1347937 23.3111111,13.7860317 C23.3111111,14.2483175 23.0943492,14.6486984 22.7772698,14.8408889 C22.6972063,14.8078095 22.6139048,14.7704127 22.5220952,14.7319365 C22.7142857,14.6369524 22.8476825,14.3946032 22.8476825,14.1148571 C22.8476825,13.7486984 22.6224762,13.447619 22.3394921,13.447619 C22.0640635,13.447619 21.8344762,13.7486349 21.8344762,14.1148571 C21.8344762,14.248381 21.867619,14.3817778 21.9220317,14.4864127 C21.7554921,14.4191111 21.6049524,14.3615238 21.4843175,14.315619 C21.4213333,14.1565079 21.3839365,13.9771429 21.3839365,13.7860952 C21.384,13.1348571 21.8131429,12.6052698 22.3470476,12.6052698 Z M21.0252698,14.6401905 C21.2879365,14.6860952 22.0095873,14.9989206 22.2765714,15.0949841 C22.5434921,15.1867937 22.8391746,15.3575873 22.8103492,15.5284444 C22.7772698,15.7045714 22.6395556,15.7045714 22.2765714,15.9255873 C21.9178413,16.1423492 21.1342222,16.6259683 20.8833016,16.6590476 C20.6334603,16.692127 20.4914921,16.5511746 20.2245079,16.3793016 C19.9575873,16.2041905 19.4569524,15.7953016 19.5828571,15.5786032 C19.5828571,15.5786032 19.9746667,15.2786032 20.1455238,15.1248889 C20.316381,14.9657778 20.7583492,14.5910476 21.0252698,14.6401905 Z M19.8743492,12.7932063 C20.2949841,12.7932063 20.6377143,13.2939048 20.6377143,13.9109841 C20.6377143,14.0231111 20.6248889,14.1276825 20.6046349,14.2323175 C20.5,14.2653968 20.3954286,14.319873 20.2949841,14.4074286 C20.2459048,14.4490794 20.1999365,14.4864127 20.1583492,14.5280635 C20.2245079,14.4031746 20.2501587,14.2238095 20.220254,14.035873 C20.1626032,13.7027937 19.9373333,13.4561905 19.7163175,13.4892698 C19.4942222,13.5266667 19.3618413,13.832 19.4152381,14.1693968 C19.4739683,14.5110476 19.6949206,14.7575873 19.9201905,14.720254 C19.9330159,14.716 19.9447619,14.711746 19.9575873,14.7074286 C19.8497778,14.8120635 19.7493968,14.903873 19.6447619,14.9786032 C19.3405079,14.8365714 19.1152381,14.4116825 19.1152381,13.9109841 C19.1153016,13.2896508 19.4526349,12.7932063 19.8743492,12.7932063 Z M17.5309206,20.8708571 C17.964381,20.187619 18.2440635,18.6939683 18.6775238,18.1975238 C19.1153016,17.7021587 19.4526349,16.6462857 19.2989206,16.179746 C19.2989206,16.179746 20.2330794,17.2975238 20.8833016,17.1139048 C21.5345397,16.9259683 22.9982857,15.8380952 23.2149841,16.0249524 C23.431746,16.2128254 25.2958095,20.3125079 25.4836825,21.6182222 C25.671619,22.9228571 25.3587937,23.9200635 25.3587937,23.9200635 C25.3587937,23.9200635 24.6456508,23.732127 24.5537778,24.1655873 C24.4619683,24.6033016 24.4619683,26.1887619 24.4619683,26.1887619 C24.4619683,26.1887619 23.4979048,27.5233016 22.0053333,27.744254 C20.5127619,27.9610159 19.7653968,27.8029841 19.7653968,27.8029841 L18.9273016,26.8431746 C18.9273016,26.8431746 19.5786032,26.7471111 19.4867302,26.0926349 C19.3949206,25.4424762 17.4966349,24.5413333 17.1549841,23.7320635 C16.8134603,22.9227937 17.092127,21.5551746 17.5309206,20.8708571 Z M13.840127,25.7669841 C13.9148571,25.4467302 14.8820952,25.4467302 15.2536508,25.2214603 C15.6252063,24.9961905 15.699873,24.3492063 15.9999365,24.1784127 C16.295619,24.0033016 16.8422857,24.6246984 17.0675556,24.9747937 C17.2885714,25.3164444 18.1352381,26.8100952 18.4811429,27.1815873 C18.8313016,27.5563175 19.1526984,28.0527619 19.0523175,28.4990476 C18.9573333,28.9452698 18.4309841,29.2709206 18.4309841,29.2709206 C17.9601905,29.416127 16.6469841,28.8492063 16.0502222,28.5993651 C15.4534603,28.3485079 13.9352381,28.2737143 13.739873,28.0527619 C13.5391746,27.8274921 13.8359365,27.3310476 13.9149206,26.8601905 C13.9853333,26.3840635 13.764381,26.0883175 13.840127,25.7669841 Z" id="path-2"></path>
        <filter x="-5.9%" y="-5.0%" width="111.7%" height="110.0%" filterUnits="objectBoundingBox" id="filter-3">
            <feGaussianBlur stdDeviation="0.5" in="SourceAlpha" result="shadowBlurInner1"></feGaussianBlur>
            <feOffset dx="0" dy="1" in="shadowBlurInner1" result="shadowOffsetInner1"></feOffset>
            <feComposite in="shadowOffsetInner1" in2="SourceAlpha" operator="arithmetic" k2="-1" k3="1" result="shadowInnerInner1"></feComposite>
            <feColorMatrix values="0 0 0 0 0   0 0 0 0 0   0 0 0 0 0  0 0 0 0.5 0" type="matrix" in="shadowInnerInner1"></feColorMatrix>
        </filter>
    </defs>
    <g id="Alt-1" stroke="none" stroke-width="1" fill="none" fill-rule="evenodd" transform="translate(-690.000000, -886.000000)">
        <g id="Icons" transform="translate(47.000000, 14.000000)">
            <g id="Disks" transform="translate(360.000000, 673.000000)">
                <g id="LinuxDisk" transform="translate(283.000000, 199.000000)">
                    <g id="linux-svgrepo-com">
                        <g id="Disk-Master">
                            <g>
                                <rect id="rect5355-1-0" fill="#BDC3C7" fill-rule="nonzero" x="0" y="0.36218" width="42" height="46" rx="3.0000222"></rect>
                                <rect id="rect5355-2-0-2" fill="#34495E" fill-rule="nonzero" x="0" y="37.59619" width="42" height="8.7659817" rx="3.0000222"></rect>
                                <rect id="rect5355-2-6-6-9" fill="#F2C57C" fill-rule="nonzero" x="28.18529" y="40.88904" width="9.8147163" height="2.0484672" rx="1.0242336"></rect>
                                <path d="M0,0 C0,11.1321596 0,26.2725148 0,38.326087 C0,39.8074437 2.67598,41 6,41 L36,41 C39.32402,41 42,39.8074437 42,38.326087 L42,2.67391304 C42,1.1925563 39.32402,0 36,0 L0,0 Z" id="rect5355-1-3-9-4-8-1-2-6" fill="url(#linearGradient-1)" fill-rule="nonzero"></path>
                            </g>
                        </g>
                        <g id="Shape" fill-rule="nonzero">
                            <use fill="#34495E" fill-rule="evenodd" xlink:href="#path-2"></use>
                            <use fill="black" fill-opacity="1" filter="url(#filter-3)" xlink:href="#path-2"></use>
                        </g>
                    </g>
                </g>
            </g>
        </g>
    </g>
</svg>