<?xml version="1.0" encoding="UTF-8"?>
<svg width="56px" height="46px" viewBox="0 0 56 46" version="1.1" xmlns="http://www.w3.org/2000/svg" xmlns:xlink="http://www.w3.org/1999/xlink">
    <!-- Generator: Sketch 48.2 (47327) - http://www.bohemiancoding.com/sketch -->
    <title>PackageUnknown</title>
    <desc>Created with Sketch.</desc>
    <defs>
        <linearGradient x1="3.67512093%" y1="96.0583635%" x2="100%" y2="0%" id="linearGradient-1">
            <stop stop-color="#FFFFFF" stop-opacity="0" offset="0%"></stop>
            <stop stop-color="#FFFFFF" stop-opacity="0.2" offset="100%"></stop>
        </linearGradient>
    </defs>
    <g id="Alt-1" stroke="none" stroke-width="1" fill="none" fill-rule="evenodd" transform="translate(-150.000000, -784.000000)">
        <g id="Icons" transform="translate(112.000000, 27.000000)">
            <g id="Folders" transform="translate(0.000000, 670.000000)">
                <g id="PackageUnknown" transform="translate(38.000000, 87.000000)">
                    <g>
                        <path d="M0,1 L0,6.09669607 L0,8.90124468 C0,10.3406528 2.26700199,11.5 5.08102051,11.5 L32.2476528,11.5 C35.0710102,11.4801008 34.4808426,9.44307569 37.3260636,8.2917836 L51.0007185,8.2917836 C53.5442941,8.2917836 56.0765222,6.09669607 55.9982301,6.09669607 L55.9982301,4.2082164 C55.9982301,3.65593165 55.5505148,3.2082164 54.9982301,3.2082164 L31.9814676,3.2082164 C30.1999187,2.31318083 28.6682609,0 26.9030542,0 L1,0 C0.44771525,1.01453063e-16 -6.76353751e-17,0.44771525 0,1 Z" id="rect4177-9-7-2-2-48" fill="#6F8A91" fill-rule="nonzero"></path>
                        <path d="M0,5.11111111 L0,9.85426048 L0,45 C-3.8565838e-15,45.5522847 0.44771525,46 1,46 L55,46 C55.5522847,46 56,45.5522847 56,45 L56,17.0039166 L56,9.85426048 L56,5.11111111 L50.8989639,5.11111111 L5.10362661,5.11111111 L0,5.11111111 Z" id="rect4177-9-7-2-0" fill="#95A5A6" fill-rule="nonzero"></path>
                        <path d="M0,10.2222222 L0,14.3724779 L0,45 C-3.8565838e-15,45.5522847 0.44771525,46 1,46 L55,46 C55.5522847,46 56,45.5522847 56,45 L56,20.628427 L56,14.3724779 L56,10.2222222 L50.8989639,10.2222222 L5.10362661,10.2222222 L0,10.2222222 Z" id="rect4177-9-7-2-0" fill="#2980B9" fill-rule="nonzero"></path>
                        <rect id="Rectangle-2" fill="url(#linearGradient-1)" x="0" y="0" width="56" height="46"></rect>
                        <g id="Zipper" transform="translate(13.333333, 10.222222)" fill-rule="nonzero">
                            <rect id="rect1037" fill-opacity="0.8" fill="#FFFFFF" x="1.33333333" y="16.3361078" width="3.08968506" height="2.86322208"></rect>
                            <rect id="rect1039" fill-opacity="0.8" fill="#FFFFFF" x="5.33333333" y="19.0587924" width="3.08968506" height="2.86322208"></rect>
                            <rect id="rect1039" fill-opacity="0.8" fill="#FFFFFF" x="5.33333333" y="24.5041617" width="3.08968506" height="2.86322208"></rect>
                            <rect id="rect1039" fill-opacity="0.8" fill="#FFFFFF" x="5.33333333" y="29.949531" width="3.08968506" height="2.86322208"></rect>
                            <rect id="rect1041" fill-opacity="0.8" fill="#FFFFFF" x="1.33333333" y="21.7814771" width="3.08968506" height="2.86322208"></rect>
                            <rect id="rect1041" fill-opacity="0.8" fill="#FFFFFF" x="1.33333333" y="27.2268463" width="3.08968506" height="2.86322208"></rect>
                            <rect id="rect1041" fill-opacity="0.8" fill="#FFFFFF" x="1.33333333" y="32.6722156" width="3.08968506" height="2.86322208"></rect>
                            <rect id="rect1062" fill="#FFFFF4" x="2.66666667" y="0" width="4.11958001" height="5.72644423"></rect>
                            <path d="M0.666666667,1.36134232 L0.666666667,15.6774529 L8.66666667,15.6774529 L8.66666667,1.36134232 C8.66666667,1.36134232 6,1.36134232 0.666666667,1.36134232 Z M7.35354137,9.287413 L7.35354137,13.7360461 L2.02020804,13.7360461 L2.02020804,9.287413 L7.35354137,9.287413 Z" id="rect1024" fill="#FFFFFF"></path>
                        </g>
                        <path d="M41.65496,34.859375 L41.65496,38.9322917 C41.65496,39.1133111 41.5966273,39.2717007 41.47996,39.4074653 C41.3632928,39.5432298 41.227183,39.6111111 41.0716267,39.6111111 L37.5716267,39.6111111 C37.4160704,39.6111111 37.2799606,39.5432298 37.1632934,39.4074653 C37.0466261,39.2717007 36.9882934,39.1133111 36.9882934,38.9322917 L36.9882934,34.859375 C36.9882934,34.6783556 37.0466261,34.519966 37.1632934,34.3842014 C37.2799606,34.2484368 37.4160704,34.1805556 37.5716267,34.1805556 L41.0716267,34.1805556 C41.227183,34.1805556 41.3632928,34.2484368 41.47996,34.3842014 C41.5966273,34.519966 41.65496,34.6783556 41.65496,34.859375 Z M46.2632934,23.3993056 C46.2632934,24.0102461 46.1879469,24.5815801 46.0372517,25.1133247 C45.8865565,25.6450692 45.7164193,26.0778123 45.526835,26.4115668 C45.3372508,26.7453214 45.0698923,27.0818993 44.7247517,27.4213108 C44.3796111,27.7607222 44.1001,28.0067918 43.88621,28.1595269 C43.6723201,28.312262 43.3757953,28.5130775 42.9966267,28.7619792 C42.5980136,29.0221946 42.2650308,29.3898848 41.9976684,29.8650608 C41.7303059,30.3402368 41.5966267,30.7192405 41.5966267,31.0020833 C41.5966267,31.1944165 41.538294,31.3782616 41.4216267,31.5536241 C41.3049595,31.7289867 41.1688497,31.8166667 41.0132934,31.8166667 L37.5132934,31.8166667 C37.3674593,31.8166667 37.2435022,31.7120164 37.1414184,31.5027127 C37.0393345,31.293409 36.9882934,31.08128 36.9882934,30.8663194 L36.9882934,30.1026476 C36.9882934,29.1636093 37.3042624,28.2783245 37.93621,27.4467665 C38.5681577,26.6152085 39.2632896,26.0014487 40.0216267,25.6054687 C40.5952407,25.2999985 41.0035699,24.9832192 41.2466267,24.6551215 C41.4896835,24.3270238 41.61121,23.8971091 41.61121,23.3653646 C41.61121,22.8901886 41.3851706,22.4715875 40.933085,22.1095486 C40.4809995,21.7475098 39.9584352,21.5664931 39.3653767,21.5664931 C38.7334291,21.5664931 38.2084344,21.7305394 37.7903767,22.0586372 C37.4500972,22.34148 36.9299635,22.9920088 36.22996,24.0102431 C36.1035705,24.1912625 35.9528776,24.2817708 35.7778767,24.2817708 C35.6612095,24.2817708 35.5396829,24.2365167 35.4132934,24.1460069 L33.0216267,22.0246962 C32.8952372,21.911559 32.8198907,21.7701397 32.795585,21.600434 C32.7712794,21.4307283 32.7980152,21.2723387 32.8757934,21.1252604 C34.4313567,18.1158125 36.6868897,16.6111111 39.64246,16.6111111 C40.4202417,16.6111111 41.2028728,16.786471 41.9903767,17.1371962 C42.7778807,17.4879213 43.4875958,17.9574334 44.1195434,18.5457465 C44.751491,19.1340597 45.2667636,19.8552981 45.6653767,20.7094835 C46.0639898,21.5636689 46.2632934,22.4602673 46.2632934,23.3993056 Z" id="" fill="#FFFFFF"></path>
                    </g>
                </g>
            </g>
        </g>
    </g>
</svg>