<?xml version="1.0" encoding="UTF-8"?>
<svg width="56px" height="46px" viewBox="0 0 56 46" version="1.1" xmlns="http://www.w3.org/2000/svg" xmlns:xlink="http://www.w3.org/1999/xlink">
    <!-- Generator: Sketch 48.2 (47327) - http://www.bohemiancoding.com/sketch -->
    <title>PakageUnknown</title>
    <desc>Created with Sketch.</desc>
    <defs>
        <linearGradient x1="32.7007869%" y1="65.850525%" x2="92.5454176%" y2="8.8561342%" id="linearGradient-1">
            <stop stop-color="#FFFFFF" stop-opacity="0" offset="0%"></stop>
            <stop stop-color="#FFFFFF" stop-opacity="0.0132762408" offset="6.63812042%"></stop>
            <stop stop-color="#FFFFFF" stop-opacity="0.0132762408" offset="6.63812042%"></stop>
            <stop stop-color="#FFFFFF" stop-opacity="0.0294366915" offset="14.7183458%"></stop>
            <stop stop-color="#FFFFFF" stop-opacity="0.0387950468" offset="19.3975234%"></stop>
            <stop stop-color="#FFFFFF" stop-opacity="0.0711830929" offset="35.5915464%"></stop>
            <stop stop-color="#FFFFFF" stop-opacity="0.0711830929" offset="35.5915464%"></stop>
            <stop stop-color="#FFFFFF" stop-opacity="0.0711830929" offset="35.5915464%"></stop>
            <stop stop-color="#FFFFFF" stop-opacity="0.0711830929" offset="35.5915464%"></stop>
            <stop stop-color="#FFFFFF" stop-opacity="0.0711830929" offset="35.5915464%"></stop>
            <stop stop-color="#FFFFFF" stop-opacity="0.1" offset="100%"></stop>
        </linearGradient>
        <linearGradient x1="3.67512093%" y1="96.0583635%" x2="100%" y2="0%" id="linearGradient-2">
            <stop stop-color="#FFFFFF" stop-opacity="0" offset="0%"></stop>
            <stop stop-color="#FFFFFF" stop-opacity="0.15" offset="100%"></stop>
        </linearGradient>
    </defs>
    <g id="Alt-1" stroke="none" stroke-width="1" fill="none" fill-rule="evenodd" transform="translate(-399.000000, -812.000000)">
        <g id="Icons" transform="translate(75.000000, 53.000000)">
            <g id="Folders" transform="translate(0.000000, 670.000000)">
                <g id="PakageUnknown" transform="translate(324.000000, 89.000000)">
                    <g>
                        <path d="M0,1 L0,4.98804023 L0,42 C-3.8565838e-15,42.5522847 0.44771525,43 1,43 L55,43 C55.5522847,43 56,42.5522847 56,42 L56,12.5068362 L56,4.98804023 L56,1 C56,0.44771525 55.5522847,-1.95039362e-15 55,-5.77315973e-15 L50.8989639,0 L5.10362661,0 L1,0 C0.44771525,1.01453063e-16 -6.76353751e-17,0.44771525 0,1 Z" id="rect4177-9-7-2-0" fill="#7F8C8D" fill-rule="nonzero"></path>
                        <path d="M0,4 L0,7.98804023 L0,45 C-3.8565838e-15,45.5522847 0.44771525,46 1,46 L55,46 C55.5522847,46 56,45.5522847 56,45 L56,15.5068362 L56,7.98804023 L56,4 C56,3.44771525 55.5522847,3 55,3 L50.8989639,3 L5.10362661,3 L1,3 C0.44771525,3 -6.76353751e-17,3.44771525 0,4 Z" id="rect4177-9-7-2-0" fill="#2980B9" fill-rule="nonzero"></path>
                        <path d="M1,3 L55,3 C55.5522847,3 56,3.44771525 56,4 L56,45 C56,45.5522847 55.5522847,46 55,46 L0,46 L0,4 C-6.76353751e-17,3.44771525 0.44771525,3 1,3 Z" id="Rectangle-6" fill="url(#linearGradient-1)"></path>
                        <path d="M1,3 L55,3 C55.5522847,3 56,3.44771525 56,4 L56,46 L0,46 L0,4 C-6.76353751e-17,3.44771525 0.44771525,3 1,3 Z" id="Rectangle-2" fill="url(#linearGradient-2)"></path>
                        <path d="M43.4649622,28.4939565 L43.4649622,32.6217105 C43.4649622,32.8051672 43.409281,32.9656893 43.2979168,33.1032818 C43.1865526,33.2408743 43.0566296,33.3096695 42.908144,33.3096695 L39.5672349,33.3096695 C39.4187494,33.3096695 39.2888264,33.2408743 39.1774622,33.1032818 C39.066098,32.9656893 39.0104168,32.8051672 39.0104168,32.6217105 L39.0104168,28.4939565 C39.0104168,28.3104999 39.066098,28.1499777 39.1774622,28.0123853 C39.2888264,27.8747928 39.4187494,27.8059976 39.5672349,27.8059976 L42.908144,27.8059976 C43.0566296,27.8059976 43.1865526,27.8747928 43.2979168,28.0123853 C43.409281,28.1499777 43.4649622,28.3104999 43.4649622,28.4939565 Z M47.8638259,16.87959 C47.8638259,17.4987562 47.7919042,18.0777825 47.6480588,18.6166864 C47.5042134,19.1555903 47.3418097,19.5941598 47.1608429,19.932408 C46.9798761,20.2706562 46.7246703,20.6117658 46.3952179,20.955747 C46.0657655,21.2997282 45.7989595,21.5491109 45.5947918,21.7039024 C45.3906241,21.858694 45.1075777,22.0622131 44.745644,22.314466 C44.3651497,22.578185 44.0473025,22.9508257 43.7920929,23.4323994 C43.5368833,23.9139731 43.4092804,24.2980797 43.4092804,24.5847307 C43.4092804,24.7796534 43.3535991,24.9659738 43.2422349,25.1436974 C43.1308708,25.321421 43.0009478,25.4102815 42.8524622,25.4102815 L39.5115531,25.4102815 C39.3723479,25.4102815 39.2540252,25.3042222 39.1565815,25.0921005 C39.0591379,24.8799787 39.0104168,24.6649937 39.0104168,24.4471389 L39.0104168,23.6731851 C39.0104168,22.7215037 39.3120236,21.8242995 39.9152463,20.9815455 C40.518469,20.1387915 41.1820041,19.5167681 41.9058713,19.1154567 C42.4534119,18.8058736 42.8431808,18.4848293 43.0751895,18.1523141 C43.3071982,17.8197989 43.4232009,17.3840959 43.4232009,16.845192 C43.4232009,16.3636183 43.207436,15.9393812 42.7758997,15.5724679 C42.3443635,15.2055546 41.8455522,15.0221007 41.2794509,15.0221007 C40.6762281,15.0221007 40.1750968,15.1883558 39.7760418,15.5208709 C39.4512295,15.807522 38.9547383,16.4668094 38.2865531,17.4987531 C38.1659086,17.6822097 38.0220653,17.7739367 37.855019,17.7739367 C37.7436548,17.7739367 37.6276522,17.7280732 37.5070077,17.6363449 L35.2240531,15.486473 C35.1034086,15.3718126 35.031487,15.2284892 35.0082861,15.0564986 C34.9850852,14.884508 35.0106058,14.7239859 35.0848486,14.5749273 C36.5697045,11.5249605 38.7227133,10 41.5439395,10 C42.2863674,10 43.0334244,10.177721 43.7851327,10.5331682 C44.536841,10.8886155 45.2142963,11.364449 45.817519,11.9606831 C46.4207417,12.5569173 46.9125929,13.2878664 47.2930872,14.1535524 C47.6735815,15.0192385 47.8638259,15.9279086 47.8638259,16.87959 Z" id="" fill="#FFFFFF"></path>
                        <g id="Zipper" transform="translate(16.000000, 4.000000)" fill-rule="nonzero">
                            <rect id="rect1037" fill="#FFFFFF" x="1.31986532" y="19.0870999" width="3.05847612" height="3.3453872"></rect>
                            <rect id="rect1039" fill="#FFFFFF" x="5.27946128" y="22.2682833" width="3.05847612" height="3.3453872"></rect>
                            <rect id="rect1039" fill="#FFFFFF" x="5.27946128" y="28.6306499" width="3.05847612" height="3.3453872"></rect>
                            <rect id="rect1039" fill="#FFFFFF" x="5.27946128" y="34.9930166" width="3.05847612" height="3.3453872"></rect>
                            <rect id="rect1041" fill="#FFFFFF" x="1.31986532" y="25.4494666" width="3.05847612" height="3.3453872"></rect>
                            <rect id="rect1041" fill="#FFFFFF" x="1.31986532" y="31.8118332" width="3.05847612" height="3.3453872"></rect>
                            <rect id="rect1041" fill="#FFFFFF" x="1.31986532" y="38.1741999" width="3.05847612" height="3.3453872"></rect>
                            <rect id="rect1062" fill="#FFFFF4" x="2.63973064" y="0" width="4.07796809" height="6.69077448"></rect>
                            <path d="M0.65993266,1.59059166 L0.65993266,18.3175279 L8.57912458,18.3175279 L8.57912458,1.59059166 C8.57912458,1.59059166 5.93939394,1.59059166 0.65993266,1.59059166 Z M7.27926318,10.8514086 L7.27926318,16.0491892 L1.9998019,16.0491892 L1.9998019,10.8514086 L7.27926318,10.8514086 Z" id="rect1024" fill="#FFFFFF"></path>
                        </g>
                    </g>
                </g>
            </g>
        </g>
    </g>
</svg>