<?xml version="1.0" encoding="UTF-8" standalone="no"?>
<!-- Created with Inkscape (http://www.inkscape.org/) -->

<svg
   xmlns:dc="http://purl.org/dc/elements/1.1/"
   xmlns:cc="http://creativecommons.org/ns#"
   xmlns:rdf="http://www.w3.org/1999/02/22-rdf-syntax-ns#"
   xmlns:svg="http://www.w3.org/2000/svg"
   xmlns="http://www.w3.org/2000/svg"
   xmlns:sodipodi="http://sodipodi.sourceforge.net/DTD/sodipodi-0.dtd"
   xmlns:inkscape="http://www.inkscape.org/namespaces/inkscape"
   id="svg5926"
   version="1.1"
   inkscape:version="0.91 r13725"
   xml:space="preserve"
   width="100"
   height="100"
   viewBox="0 0 99.999999 100"
   sodipodi:docname="ScreenLogo.svg"><metadata
     id="metadata5932"><rdf:RDF><cc:Work
         rdf:about=""><dc:format>image/svg+xml</dc:format><dc:type
           rdf:resource="http://purl.org/dc/dcmitype/StillImage" /><dc:title /></cc:Work></rdf:RDF></metadata><defs
     id="defs5930" /><sodipodi:namedview
     pagecolor="#ffffff"
     bordercolor="#666666"
     borderopacity="1"
     objecttolerance="10"
     gridtolerance="10"
     guidetolerance="10"
     inkscape:pageopacity="0"
     inkscape:pageshadow="2"
     inkscape:window-width="1920"
     inkscape:window-height="1022"
     id="namedview5928"
     showgrid="false"
     fit-margin-top="0"
     fit-margin-left="0"
     fit-margin-right="0"
     fit-margin-bottom="0"
     inkscape:zoom="2.8284271"
     inkscape:cx="21.98579"
     inkscape:cy="14.195548"
     inkscape:window-x="0"
     inkscape:window-y="30"
     inkscape:window-maximized="1"
     inkscape:current-layer="g5934" /><g
     id="g5934"
     inkscape:groupmode="layer"
     inkscape:label="ink_ext_XXXXXX"
     transform="matrix(1.25,0,0,-1.25,-7.6842707,103.92222)"><path
       inkscape:connector-curvature="0"
       id="path4447-3"
       style="fill:#455155;fill-opacity:1;fill-rule:nonzero;stroke:none"
       d="m 6.2103576,43.137776 c 0,22.056433 17.8806594,39.93709 39.9370734,39.93709 22.056384,0 39.937045,-17.880657 39.937045,-39.93709 0,-22.056433 -17.880661,-39.9370897 -39.937045,-39.9370897 -22.056414,0 -39.9370734,17.8806567 -39.9370734,39.9370897" /><path
       inkscape:connector-curvature="0"
       id="path4451-6"
       style="fill:#ffffff;fill-opacity:1;fill-rule:nonzero;stroke:none"
       d="m 36.314002,58.8104 0,-11.035201 26.89513,0 c 0.5743,0 1.0399,-0.468192 1.0399,-1.043005 l 0,-5.424475 c 0,-0.0223 0,-0.03346 -0.002,-0.04907 -0.0252,-0.555407 -0.47885,-0.994156 -1.03732,-0.994156 l -26.8947,0 0,-19.269276 c 0,-0.0223 0,-0.03346 -0.004,-0.04907 -0.0248,-0.554515 -0.47843,-0.993264 -1.03734,-0.993264 l -6.18455,0 c -0.57473,0 -1.04332,0.465516 -1.04332,1.042782 l 0,44.284003 c 0,0.573475 0.46859,1.043005 1.04332,1.043005 l 34.12001,0 c 0.5743,0 1.03988,-0.46953 1.03988,-1.043005 l 0,-5.424921 c 0,-0.02231 0,-0.03346 -0.002,-0.04907 -0.0252,-0.556745 -0.47886,-0.994156 -1.03732,-0.994156 l -26.8947,0 3.3e-4,0 z" /></g></svg>