<?xml version="1.0" encoding="UTF-8"?>
<svg width="14px" height="12px" viewBox="0 0 14 12" version="1.1" xmlns="http://www.w3.org/2000/svg" xmlns:xlink="http://www.w3.org/1999/xlink">
    <!-- Generator: Sketch 48.2 (47327) - http://www.bohemiancoding.com/sketch -->
    <title>Screen</title>
    <desc>Created with Sketch.</desc>
    <defs></defs>
    <g id="Desktop-HD" stroke="none" stroke-width="1" fill="none" fill-rule="evenodd" transform="translate(-1411.000000, -4.000000)">
        <g id="Desktop" fill="#455155">
            <g id="Top-Menu">
                <g id="Screen" transform="translate(1411.000000, 4.000000)">
                    <path d="M12.5714286,7.35714286 L12.5714286,1.78571429 C12.5714286,1.72767828 12.5502234,1.67745557 12.5078125,1.63504464 C12.4654016,1.59263372 12.4151789,1.57142857 12.3571429,1.57142857 L1.64285714,1.57142857 C1.58482114,1.57142857 1.53459843,1.59263372 1.4921875,1.63504464 C1.44977657,1.67745557 1.42857143,1.72767828 1.42857143,1.78571429 L1.42857143,7.35714286 C1.42857143,7.41517886 1.44977657,7.46540157 1.4921875,7.5078125 C1.53459843,7.55022343 1.58482114,7.57142857 1.64285714,7.57142857 L12.3571429,7.57142857 C12.4151789,7.57142857 12.4654016,7.55022343 12.5078125,7.5078125 C12.5502234,7.46540157 12.5714286,7.41517886 12.5714286,7.35714286 Z M13.4285714,1.78571429 L13.4285714,9.07142857 C13.4285714,9.3660729 13.3236618,9.61830252 13.1138393,9.828125 C12.9040168,10.0379475 12.6517872,10.1428571 12.3571429,10.1428571 L8.71428571,10.1428571 C8.71428571,10.3080365 8.74999964,10.4810259 8.82142857,10.6618304 C8.8928575,10.8426348 8.96428536,11.0011154 9.03571429,11.1372768 C9.10714321,11.2734382 9.14285714,11.3705354 9.14285714,11.4285714 C9.14285714,11.5446434 9.10044685,11.6450889 9.015625,11.7299107 C8.93080315,11.8147326 8.83035772,11.8571429 8.71428571,11.8571429 L5.28571429,11.8571429 C5.16964228,11.8571429 5.06919685,11.8147326 4.984375,11.7299107 C4.89955315,11.6450889 4.85714286,11.5446434 4.85714286,11.4285714 C4.85714286,11.3660711 4.89285679,11.2678578 4.96428571,11.1339286 C5.03571464,10.9999993 5.1071425,10.8437509 5.17857143,10.6651786 C5.25000036,10.4866063 5.28571429,10.3125008 5.28571429,10.1428571 L1.64285714,10.1428571 C1.34821281,10.1428571 1.09598319,10.0379475 0.886160714,9.828125 C0.676338237,9.61830252 0.571428571,9.3660729 0.571428571,9.07142857 L0.571428571,1.78571429 C0.571428571,1.49106996 0.676338237,1.23884033 0.886160714,1.02901786 C1.09598319,0.819195379 1.34821281,0.714285714 1.64285714,0.714285714 L12.3571429,0.714285714 C12.6517872,0.714285714 12.9040168,0.819195379 13.1138393,1.02901786 C13.3236618,1.23884033 13.4285714,1.49106996 13.4285714,1.78571429 Z" id=""></path>
                </g>
            </g>
        </g>
    </g>
</svg>