<?xml version="1.0" encoding="UTF-8" standalone="no"?>
<!-- Created with Inkscape (http://www.inkscape.org/) -->

<svg
   xmlns:dc="http://purl.org/dc/elements/1.1/"
   xmlns:cc="http://creativecommons.org/ns#"
   xmlns:rdf="http://www.w3.org/1999/02/22-rdf-syntax-ns#"
   xmlns:svg="http://www.w3.org/2000/svg"
   xmlns="http://www.w3.org/2000/svg"
   xmlns:sodipodi="http://sodipodi.sourceforge.net/DTD/sodipodi-0.dtd"
   xmlns:inkscape="http://www.inkscape.org/namespaces/inkscape"
   id="svg5926"
   version="1.1"
   inkscape:version="0.91 r13725"
   xml:space="preserve"
   width="100"
   height="100"
   viewBox="0 0 99.999999 100"
   sodipodi:docname="ScreenLogo.svg"><metadata
     id="metadata5932"><rdf:RDF><cc:Work
         rdf:about=""><dc:format>image/svg+xml</dc:format><dc:type
           rdf:resource="http://purl.org/dc/dcmitype/StillImage" /><dc:title /></cc:Work></rdf:RDF></metadata><defs
     id="defs5930"><filter
       style="color-interpolation-filters:sRGB;"
       inkscape:label="Drop Shadow"
       id="filter5834"><feFlood
         flood-opacity="0.498039"
         flood-color="rgb(0,0,0)"
         result="flood"
         id="feFlood5836" /><feComposite
         in="flood"
         in2="SourceGraphic"
         operator="out"
         result="composite1"
         id="feComposite5838" /><feGaussianBlur
         in="composite1"
         stdDeviation="5"
         result="blur"
         id="feGaussianBlur5840" /><feOffset
         dx="0"
         dy="-2"
         result="offset"
         id="feOffset5842" /><feComposite
         in="offset"
         in2="SourceGraphic"
         operator="atop"
         result="composite2"
         id="feComposite5844" /></filter></defs><sodipodi:namedview
     pagecolor="#ffffff"
     bordercolor="#666666"
     borderopacity="1"
     objecttolerance="10"
     gridtolerance="10"
     guidetolerance="10"
     inkscape:pageopacity="0"
     inkscape:pageshadow="2"
     inkscape:window-width="1920"
     inkscape:window-height="1022"
     id="namedview5928"
     showgrid="false"
     fit-margin-top="0"
     fit-margin-left="0"
     fit-margin-right="0"
     fit-margin-bottom="0"
     inkscape:zoom="2.8284271"
     inkscape:cx="49.991102"
     inkscape:cy="15.945548"
     inkscape:window-x="0"
     inkscape:window-y="30"
     inkscape:window-maximized="1"
     inkscape:current-layer="g5934" /><g
     id="g5934"
     inkscape:groupmode="layer"
     inkscape:label="ink_ext_XXXXXX"
     transform="matrix(1.25,0,0,-1.25,-7.6842707,103.92222)"><path
       style="color:#000000;clip-rule:nonzero;display:inline;overflow:visible;visibility:visible;opacity:1;isolation:auto;mix-blend-mode:normal;color-interpolation:sRGB;color-interpolation-filters:linearRGB;solid-color:#000000;solid-opacity:1;fill:#0f85d1;fill-opacity:1;fill-rule:nonzero;stroke:none;stroke-width:0.30000001;stroke-linecap:butt;stroke-linejoin:round;stroke-miterlimit:4;stroke-dasharray:none;stroke-dashoffset:0;stroke-opacity:1;filter:url(#filter5834);color-rendering:auto;image-rendering:auto;shape-rendering:auto;text-rendering:auto;enable-background:accumulate"
       d="M 46.147416,81.320818 A 38.183682,38.183682 0 0 1 7.9632291,43.136631 38.183682,38.183682 0 0 1 46.147416,4.9547337 38.183682,38.183682 0 0 1 84.331604,43.136631 38.183682,38.183682 0 0 1 46.147416,81.320818 Z"
       id="path5747"
       inkscape:connector-curvature="0"
       transform="matrix(0.96296124,0,0,0.962961,1.7092418,1.5977784)" /><path
       style="fill:#ffffff;fill-opacity:1;fill-rule:nonzero;stroke:#ffffff;stroke-width:0.80000001;stroke-miterlimit:4;stroke-dasharray:none;stroke-opacity:1"
       d="m 45.060717,65.310335 -3.165323,-0.357084 c -0.0927,-0.01051 -0.158194,-0.09387 -0.147973,-0.186584 l 0.205871,-1.840115 c 0.01051,-0.09271 0.09344,-0.161756 0.186574,-0.151195 l 3.165316,0.357091 c 0.0927,0.01052 0.158502,0.09387 0.147973,0.186584 l -0.205872,1.840119 c -0.01021,0.09228 -0.09388,0.161724 -0.186572,0.151195 z m 2.419029,-0.02255 c -0.07871,0.01021 -0.15063,-0.04308 -0.160851,-0.122259 l -0.205871,-1.563451 c -0.01022,-0.07872 0.04671,-0.150639 0.125462,-0.160861 l 2.6828,-0.350653 c 0.0787,-0.01021 0.15063,0.04672 0.160882,0.12547 l 0.20584,1.560242 c 0.01051,0.07871 -0.04674,0.153509 -0.125431,0.164071 l -2.682823,0.347436 z m -7.948693,-0.900724 -3.480566,-1.386524 c -0.102364,-0.04064 -0.150011,-0.158545 -0.109374,-0.260575 l 0.804201,-2.023485 c 0.04105,-0.102037 0.158131,-0.150453 0.260558,-0.109382 l 3.480566,1.386523 c 0.102364,0.04107 0.150443,0.15493 0.109373,0.257363 l -0.804197,2.023485 c -0.04106,0.101973 -0.158532,0.152831 -0.260557,0.112591 z m 12.950797,-0.02562 c -0.06352,0.02317 -0.134356,-0.0105 -0.157606,-0.07399 l -0.460018,-1.257844 c -0.02347,-0.06307 0.0105,-0.134332 0.07396,-0.157647 l 2.158466,-0.788163 c 0.06352,-0.02317 0.134323,0.0074 0.157577,0.07078 l 0.459994,1.257842 c 0.02347,0.06305 -0.01051,0.134332 -0.07395,0.157648 l -2.158421,0.791378 z m 4.419869,-1.901242 c -0.04868,0.03057 -0.114285,0.01297 -0.144764,-0.03539 l -0.601539,-0.961976 c -0.03058,-0.0491 -0.01667,-0.114692 0.03218,-0.144771 l 1.656647,-1.035869 c 0.04912,-0.03092 0.114281,-0.01667 0.144761,0.03218 l 0.601539,0.965094 c 0.03057,0.0487 0.01666,0.114692 -0.03218,0.144771 l -1.65664,1.035852 z M 33.93384,61.742702 c -0.06,0.0065 -0.123331,-0.01081 -0.173695,-0.05147 l -3.42588,-2.769825 c -0.100729,-0.08127 -0.116632,-0.231022 -0.03539,-0.331351 l 1.611612,-1.991316 c 0.0817,-0.100338 0.231008,-0.116638 0.33133,-0.03539 l 3.425879,2.769825 c 0.100301,0.08167 0.117095,0.227811 0.03538,0.328131 l -1.611612,1.994534 c -0.04063,0.05038 -0.09761,0.08041 -0.157606,0.08686 z m 26.692924,-1.926979 c -0.03551,0.03348 -0.09199,0.03234 -0.125432,-0.0032 l -0.665873,-0.701301 c -0.03347,-0.03559 -0.02903,-0.09203 0.0065,-0.125471 l 1.206308,-1.142061 c 0.03558,-0.03344 0.09205,-0.03233 0.125432,0.0032 l 0.662631,0.701304 c 0.03345,0.03559 0.03236,0.0916 -0.0032,0.125472 l -1.206351,1.142023 z M 45.318061,59.687042 42.950503,59.420044 c -0.06943,-0.0083 -0.116941,-0.07211 -0.109375,-0.141559 l 0.154397,-1.373654 c 0.0079,-0.06943 0.06889,-0.120191 0.138308,-0.112592 l 2.36434,0.263785 c 0.0694,0.0079 0.120151,0.07211 0.112585,0.141561 l -0.154395,1.376872 c -0.0079,0.06943 -0.06933,0.120157 -0.13834,0.112592 z m 1.807834,-0.01606 c -0.05925,0.007 -0.114655,-0.03446 -0.122221,-0.09329 L 46.85249,58.409928 c -0.0076,-0.05925 0.03445,-0.114662 0.09328,-0.122258 l 2.004065,-0.260574 c 0.05882,-0.0076 0.114655,0.03402 0.12222,0.09329 l 0.151184,1.167771 c 0.007,0.05925 -0.03403,0.111451 -0.09332,0.119016 l -2.004056,0.263786 z m -5.941411,-0.67557 -2.602384,-1.03587 c -0.07615,-0.03058 -0.114098,-0.116823 -0.08362,-0.193007 l 0.604756,-1.515199 c 0.03091,-0.07664 0.116382,-0.11454 0.192994,-0.08363 l 2.599165,1.035871 c 0.07614,0.03058 0.114098,0.119603 0.08362,0.196218 l -0.601539,1.511986 c -0.03057,0.07658 -0.116816,0.114106 -0.192995,0.08363 z m 9.679321,-0.01915 c -0.047,0.0173 -0.09844,-0.0076 -0.115798,-0.05469 L 50.403825,57.98205 c -0.0176,-0.04744 0.007,-0.101661 0.05466,-0.119017 l 1.614842,-0.588715 c 0.04742,-0.0173 0.09844,0.0074 0.115796,0.05469 l 0.344202,0.939361 c 0.01759,0.04744 -0.007,0.09845 -0.05466,0.115804 l -1.614829,0.591924 z m 3.303642,-1.42191 c -0.03641,0.02255 -0.08331,0.01081 -0.106163,-0.02563 l -0.450351,-0.720609 c -0.02285,-0.0364 -0.01111,-0.08329 0.02563,-0.10617 l 1.238584,-0.775553 c 0.03641,-0.02285 0.08332,-0.01021 0.106163,0.02562 l 0.450349,0.720605 c 0.02255,0.0364 0.01081,0.08373 -0.02563,0.106169 l -1.238458,0.775283 z M 28.536064,57.184221 c -0.06908,-0.01636 -0.130494,-0.05751 -0.170483,-0.122257 l -2.727838,-4.41049 c -0.07998,-0.129517 -0.039,-0.30001 0.09007,-0.379607 l 2.566997,-1.585974 c 0.129508,-0.08 0.299992,-0.03947 0.379582,0.09008 l 2.724619,4.410488 c 0.07958,0.129515 0.03943,0.300009 -0.09007,0.379604 l -2.56378,1.58598 c -0.06497,0.03998 -0.140006,0.04843 -0.209084,0.03218 z m 8.463376,-0.167282 c -0.0448,0.0051 -0.09123,-0.0053 -0.128674,-0.03539 l -2.560569,-2.07174 c -0.07534,-0.06139 -0.08949,-0.17238 -0.02903,-0.247698 l 1.206296,-1.489466 c 0.06096,-0.07492 0.172337,-0.08668 0.247684,-0.02563 l 2.560562,2.068526 c 0.07534,0.06052 0.08671,0.172347 0.02563,0.247697 L 37.118385,56.9526 c -0.03057,0.03767 -0.0742,0.0595 -0.119038,0.06433 z m -4.033853,-3.403573 c -0.05175,-0.01204 -0.09884,-0.04483 -0.128675,-0.09329 l -2.039445,-3.297413 c -0.05969,-0.09736 -0.02933,-0.223395 0.06756,-0.283087 l 1.917208,-1.18707 c 0.09692,-0.05925 0.226591,-0.02903 0.28628,0.06756 l 2.03623,3.297414 c 0.05969,0.09693 0.02933,0.223826 -0.06753,0.283087 l -1.917207,1.18707 c -0.04848,0.02997 -0.102677,0.0379 -0.154397,0.02563 z m 11.709116,-3.223423 c -0.364441,0 -0.662659,-0.29865 -0.662659,-0.662699 l 0,-28.100391 c 0,-0.366578 0.298231,-0.662701 0.662659,-0.662701 l 3.924482,0 c 0.354279,0 0.643794,0.278764 0.659441,0.63053 0.0021,0.01051 0,0.02285 0,0.03218 l 0,12.227774 17.065072,0 c 0.354703,0 0.643303,0.278331 0.659441,0.63053 0.002,0.0099 0.0032,0.02255 0.0032,0.03218 l 0,3.442175 c 0,0.364461 -0.297799,0.662703 -0.662659,0.662703 l -17.065072,0 0,7.000164 17.065072,0 c 0.354281,0 0.6433,0.277497 0.65944,0.63053 0.0017,0.01052 0.0032,0.02193 0.0032,0.03218 l 0,3.442175 c 0,0.364036 -0.298231,0.6627 -0.662659,0.6627 l -21.648996,0 z M 25.126269,50.248385 c -0.126142,0.02749 -0.251512,-0.05402 -0.279858,-0.18016 l -0.958602,-4.297876 c -0.0278,-0.12615 0.05037,-0.254738 0.176907,-0.283087 l 2.502663,-0.556541 c 0.126575,-0.0278 0.251512,0.054 0.279858,0.180162 l 0.958606,4.301113 c 0.0284,0.125716 -0.05076,0.251093 -0.176908,0.279874 l -2.502663,0.55654 z m 5.288401,-1.820818 c -0.09439,0.02069 -0.187499,-0.04113 -0.209083,-0.135104 l -0.717343,-3.213765 c -0.02131,-0.09483 0.04112,-0.191155 0.135097,-0.212308 l 1.868958,-0.414992 c 0.09482,-0.02132 0.18793,0.03751 0.209083,0.131892 l 0.717345,3.216992 c 0.02132,0.0944 -0.0403,0.187509 -0.135097,0.209095 l -1.868958,0.41821 z m -4.326582,-4.899472 -2.171331,-0.176918 c -0.109621,-0.0089 -0.192254,-0.105921 -0.18336,-0.215549 l 0.302371,-3.734924 c 0.0093,-0.109627 0.105913,-0.19177 0.215537,-0.18337 l 2.171329,0.180159 c 0.10962,0.009 0.192253,0.105923 0.18336,0.21552 l -0.302369,3.731714 c -0.009,0.109628 -0.105917,0.191771 -0.215537,0.183371 z m 5.043928,-0.125469 -1.621264,-0.131894 c -0.0817,-0.0067 -0.144731,-0.08193 -0.138309,-0.164072 l 0.228383,-2.789124 c 0.0067,-0.08124 0.07871,-0.144709 0.160849,-0.138349 l 1.624483,0.135105 c 0.08167,0.0065 0.141859,0.07919 0.135097,0.160828 l -0.228383,2.789167 c -0.0067,0.08211 -0.0787,0.144739 -0.160851,0.138348 z m 0.250925,-4.220691 -1.299587,-0.472895 c -0.06564,-0.0241 -0.100883,-0.09804 -0.07721,-0.164072 l 0.813848,-2.235809 c 0.02408,-0.06565 0.09848,-0.100483 0.164062,-0.07721 l 1.299585,0.472904 c 0.06556,0.02378 0.101312,0.09848 0.07721,0.16407 l -0.813848,2.235821 c -0.02378,0.06565 -0.09804,0.100921 -0.164061,0.07721 z m -4.960289,-1.29964 -1.740284,-0.633746 c -0.0877,-0.03178 -0.134694,-0.13069 -0.102947,-0.218733 l 1.087274,-2.991794 c 0.03175,-0.08762 0.130678,-0.131492 0.218746,-0.09974 l 1.740285,0.630545 c 0.08801,0.03178 0.134665,0.131121 0.10295,0.21876 l -1.087275,2.991763 c -0.03176,0.08762 -0.130713,0.134703 -0.218749,0.102954 z m 6.224486,-2.383786 -0.977902,-0.653048 c -0.04909,-0.03304 -0.06198,-0.101692 -0.02903,-0.151194 l 1.122656,-1.67927 c 0.03303,-0.0491 0.101687,-0.06198 0.151186,-0.02902 l 0.977912,0.65312 c 0.04953,0.03305 0.06198,0.102088 0.02903,0.151192 l -1.12588,1.679274 c -0.03301,0.04954 -0.09844,0.06197 -0.147974,0.02902 z m -4.429518,-2.5189 c -0.0364,0.007 -0.07637,-5.07e-4 -0.109374,-0.02286 l -1.306017,-0.874793 c -0.06602,-0.04444 -0.08263,-0.136648 -0.0386,-0.202672 l 1.505461,-2.245458 c 0.04403,-0.06646 0.132966,-0.08629 0.199448,-0.04181 l 1.30923,0.878241 c 0.06602,0.04444 0.08263,0.132973 0.0386,0.19946 l -1.505457,2.248846 c -0.02192,0.03321 -0.05687,0.05386 -0.09328,0.06111 z m 6.520433,-0.466464 c -0.03685,0.03465 -0.09678,0.03316 -0.131886,-0.0032 l -0.688392,-0.727132 c -0.03465,-0.0364 -0.03025,-0.09357 0.0065,-0.128681 l 1.244894,-1.183851 c 0.03641,-0.03475 0.09396,-0.03359 0.128675,0.0032 l 0.691609,0.723823 c 0.03465,0.03684 0.02997,0.09719 -0.0065,0.131893 l -1.244898,1.18385 z m 2.45441,-2.3291 c -0.03641,0.02255 -0.08652,0.01113 -0.109374,-0.02563 l -0.443918,-0.723823 c -0.02255,-0.03685 -0.0108,-0.08693 0.02563,-0.109383 l 1.241682,-0.765644 c 0.03685,-0.02285 0.08696,-0.01113 0.109373,0.02563 l 0.44392,0.723823 c 0.02255,0.0364 0.01112,0.08652 -0.02563,0.10938 l -1.241684,0.765639 z m -6.285606,-1.222456 c -0.04869,0.0465 -0.127162,0.04225 -0.173696,-0.0065 l -0.920003,-0.968295 c -0.0465,-0.0491 -0.04545,-0.127169 0.0034,-0.173738 l 1.669515,-1.585977 c 0.0487,-0.04663 0.127161,-0.04267 0.173697,0.0065 l 0.920017,0.96831 c 0.0465,0.04913 0.04548,0.129916 -0.0034,0.17695 l -1.669533,1.582752 z m 3.284341,-3.117264 c -0.04866,0.02996 -0.114686,0.01328 -0.144762,-0.03539 l -0.595104,-0.9683 c -0.02995,-0.0487 -0.01699,-0.111482 0.03218,-0.141559 l 1.666299,-1.026217 c 0.04867,-0.02965 0.114685,-0.01328 0.144762,0.03539 l 0.595104,0.968314 c 0.02996,0.0491 0.01327,0.114692 -0.03538,0.14477 l -1.66308,1.022993 z m 3.712176,-2.235804 c -0.0457,0.0173 -0.09565,-0.0056 -0.112586,-0.05147 l -0.334549,-0.90719 c -0.01699,-0.04528 0.0059,-0.09845 0.05147,-0.115805 l 1.560144,-0.572622 c 0.0457,-0.01699 0.09887,0.0055 0.115795,0.05147 l 0.331333,0.907198 c 0.01667,0.04571 -0.0053,0.09888 -0.05147,0.115804 l -1.560143,0.57261 z"
       id="path4175-2"
       inkscape:connector-curvature="0" /></g></svg>