<?xml version="1.0" encoding="UTF-8"?>
<svg width="12px" height="12px" viewBox="0 0 12 12" version="1.1" xmlns="http://www.w3.org/2000/svg" xmlns:xlink="http://www.w3.org/1999/xlink">
    <!-- Generator: Sketch 48.2 (47327) - http://www.bohemiancoding.com/sketch -->
    <title>System</title>
    <desc>Created with Sketch.</desc>
    <defs></defs>
    <g id="Alt-1" stroke="none" stroke-width="1" fill="none" fill-rule="evenodd" transform="translate(-903.000000, -590.000000)">
        <g id="Navigation" transform="translate(882.000000, 282.000000)" fill="#FFFFFF">
            <g id="System" transform="translate(21.000000, 308.000000)">
                <g id="">
                    <path d="M8.35677083,8.35677083 C9.00781576,7.70572591 9.33333333,6.92014349 9.33333333,6 C9.33333333,5.07985651 9.00781576,4.29427409 8.35677083,3.64322917 C7.70572591,2.99218424 6.92014349,2.66666667 6,2.66666667 C5.07985651,2.66666667 4.29427409,2.99218424 3.64322917,3.64322917 C2.99218424,4.29427409 2.66666667,5.07985651 2.66666667,6 C2.66666667,6.92014349 2.99218424,7.70572591 3.64322917,8.35677083 C4.29427409,9.00781576 5.07985651,9.33333333 6,9.33333333 C6.92014349,9.33333333 7.70572591,9.00781576 8.35677083,8.35677083 Z M12,5.1484375 L12,6.8828125 C12,6.94531281 11.9791669,7.00520805 11.9375,7.0625 C11.8958331,7.11979195 11.8437503,7.15364578 11.78125,7.1640625 L10.3359375,7.3828125 C10.2369787,7.66406391 10.1354172,7.9010407 10.03125,8.09375 C10.2135426,8.35416797 10.4921856,8.71353937 10.8671875,9.171875 C10.9192711,9.23437531 10.9453125,9.29947883 10.9453125,9.3671875 C10.9453125,9.43489617 10.9218752,9.49479141 10.875,9.546875 C10.7343743,9.7395843 10.4765644,10.0208315 10.1015625,10.390625 C9.72656062,10.7604185 9.48177141,10.9453125 9.3671875,10.9453125 C9.30468719,10.9453125 9.23697953,10.9218752 9.1640625,10.875 L8.0859375,10.03125 C7.85676969,10.1510423 7.61979289,10.2499996 7.375,10.328125 C7.29166625,11.0364619 7.21614617,11.520832 7.1484375,11.78125 C7.11197898,11.9270841 7.01822992,12 6.8671875,12 L5.1328125,12 C5.05989547,12 4.99609402,11.9778648 4.94140625,11.9335937 C4.88671848,11.8893227 4.85677086,11.8333337 4.8515625,11.765625 L4.6328125,10.328125 C4.37760289,10.2447912 4.14323023,10.148438 3.9296875,10.0390625 L2.828125,10.875 C2.77604141,10.9218752 2.71093789,10.9453125 2.6328125,10.9453125 C2.55989547,10.9453125 2.49479195,10.916667 2.4375,10.859375 C1.78124672,10.265622 1.35156352,9.82812641 1.1484375,9.546875 C1.11197898,9.49479141 1.09375,9.43489617 1.09375,9.3671875 C1.09375,9.30468719 1.11458312,9.24479195 1.15625,9.1875 C1.23437539,9.07812445 1.36718656,8.9049491 1.5546875,8.66796875 C1.74218844,8.4309884 1.88281203,8.24739648 1.9765625,8.1171875 C1.8359368,7.85676953 1.72916703,7.59895961 1.65625,7.34375 L0.2265625,7.1328125 C0.158853828,7.12239578 0.104166875,7.08984402 0.0625,7.03515625 C0.020833125,6.98046848 0,6.91927117 0,6.8515625 L0,5.1171875 C0,5.05468719 0.020833125,4.99479195 0.0625,4.9375 C0.104166875,4.88020805 0.153645547,4.84635422 0.2109375,4.8359375 L1.6640625,4.6171875 C1.73697953,4.37760297 1.83854102,4.13802203 1.96875,3.8984375 C1.76041563,3.60156102 1.48177258,3.24218961 1.1328125,2.8203125 C1.08072891,2.75781219 1.0546875,2.69531281 1.0546875,2.6328125 C1.0546875,2.58072891 1.07812477,2.52083367 1.125,2.453125 C1.26041734,2.26562406 1.5169252,1.98567895 1.89453125,1.61328125 C2.2721373,1.24088355 2.51822859,1.0546875 2.6328125,1.0546875 C2.70052117,1.0546875 2.76822883,1.08072891 2.8359375,1.1328125 L3.9140625,1.96875 C4.14323031,1.84895773 4.38020711,1.75000039 4.625,1.671875 C4.70833375,0.963538125 4.78385383,0.479167969 4.8515625,0.21875 C4.88802102,0.0729159375 4.98177008,0 5.1328125,0 L6.8671875,0 C6.94010453,0 7.00390598,0.0221351953 7.05859375,0.06640625 C7.11328152,0.110677305 7.14322914,0.166666328 7.1484375,0.234375 L7.3671875,1.671875 C7.62239711,1.75520875 7.85676977,1.85156195 8.0703125,1.9609375 L9.1796875,1.125 C9.22656273,1.07812477 9.28906211,1.0546875 9.3671875,1.0546875 C9.43489617,1.0546875 9.49999969,1.08072891 9.5625,1.1328125 C10.2343784,1.75260727 10.6640616,2.19531117 10.8515625,2.4609375 C10.888021,2.50260438 10.90625,2.55989547 10.90625,2.6328125 C10.90625,2.69531281 10.8854169,2.75520805 10.84375,2.8125 C10.7656246,2.92187555 10.6328134,3.0950509 10.4453125,3.33203125 C10.2578116,3.5690116 10.117188,3.75260352 10.0234375,3.8828125 C10.1588548,4.14323047 10.2656246,4.39843625 10.34375,4.6484375 L11.7734375,4.8671875 C11.8411462,4.87760422 11.8958331,4.91015598 11.9375,4.96484375 C11.9791669,5.01953152 12,5.08072883 12,5.1484375 Z"></path>
                </g>
            </g>
        </g>
    </g>
</svg>