<?xml version="1.0" encoding="UTF-8" standalone="no"?>
<svg
   xmlns:dc="http://purl.org/dc/elements/1.1/"
   xmlns:cc="http://creativecommons.org/ns#"
   xmlns:rdf="http://www.w3.org/1999/02/22-rdf-syntax-ns#"
   xmlns:svg="http://www.w3.org/2000/svg"
   xmlns="http://www.w3.org/2000/svg"
   xmlns:sodipodi="http://sodipodi.sourceforge.net/DTD/sodipodi-0.dtd"
   xmlns:inkscape="http://www.inkscape.org/namespaces/inkscape"
   width="14px"
   height="12px"
   viewBox="0 0 14 12"
   version="1.1"
   id="svg4207"
   inkscape:version="0.91 r13725"
   sodipodi:docname="tablet.svg">
  <metadata
     id="metadata4222">
    <rdf:RDF>
      <cc:Work
         rdf:about="">
        <dc:format>image/svg+xml</dc:format>
        <dc:type
           rdf:resource="http://purl.org/dc/dcmitype/StillImage" />
        <dc:title>Screen</dc:title>
      </cc:Work>
    </rdf:RDF>
  </metadata>
  <sodipodi:namedview
     pagecolor="#ffffff"
     bordercolor="#666666"
     borderopacity="1"
     objecttolerance="10"
     gridtolerance="10"
     guidetolerance="10"
     inkscape:pageopacity="0"
     inkscape:pageshadow="2"
     inkscape:window-width="2560"
     inkscape:window-height="1379"
     id="namedview4220"
     showgrid="false"
     inkscape:zoom="97.75"
     inkscape:cx="7"
     inkscape:cy="6.2902849"
     inkscape:window-x="0"
     inkscape:window-y="30"
     inkscape:window-maximized="1"
     inkscape:current-layer="svg4207" />
  <!-- Generator: Sketch 48.2 (47327) - http://www.bohemiancoding.com/sketch -->
  <title
     id="title4209">Screen</title>
  <desc
     id="desc4211">Created with Sketch.</desc>
  <defs
     id="defs4213" />
  <g
     id="Desktop-HD"
     stroke="none"
     stroke-width="1"
     fill="none"
     fill-rule="evenodd"
     transform="translate(-1411.000000, -4.000000)">
    <g
       id="Desktop"
       fill="#455155">
      <g
         id="Top-Menu">
        <g
           id="Screen"
           transform="translate(1411.000000, 4.000000)">
          <path
             d="m 12.571429,9.6932773 0,-7.3361344 c 0,-0.058036 -0.02121,-0.1082587 -0.06362,-0.1506697 -0.04241,-0.042411 -0.09263,-0.063616 -0.15067,-0.063616 l -10.7142859,0 c -0.058036,0 -0.1082587,0.021205 -0.1506696,0.063616 -0.042411,0.042411 -0.063616,0.092634 -0.063616,0.1506697 l 0,7.3361344 c 0,0.058036 0.021205,0.1082588 0.063616,0.1506697 0.042411,0.042411 0.092634,0.063616 0.1506696,0.063616 l 10.7142859,0 c 0.05804,0 0.108259,-0.021205 0.15067,-0.063616 0.04241,-0.042411 0.06362,-0.092634 0.06362,-0.1506697 z m 0.857142,-7.3361344 0,7.2857143 c 0,0.2946443 -0.104909,0.5468738 -0.314732,0.7566968 -0.209822,0.209823 -0.462052,0.314732 -0.756696,0.314732 l -3.6428573,0 -3.4285714,0 -3.6428572,0 c -0.2946443,0 -0.5468739,-0.104909 -0.75669639,-0.314732 C 0.67633824,10.189731 0.57142857,9.9375015 0.57142857,9.6428572 l 0,-7.2857143 c 0,-0.2946443 0.10490967,-0.546874 0.31473214,-0.7566964 C 1.0959832,1.390624 1.3482128,1.2857144 1.6428571,1.2857144 l 10.7142859,0 c 0.294644,0 0.546874,0.1049096 0.756696,0.3147321 0.209823,0.2098224 0.314732,0.4620521 0.314732,0.7566964 z"
             id=""
             inkscape:connector-curvature="0"
             sodipodi:nodetypes="sssssssssssssssssccsssssssss" />
        </g>
      </g>
    </g>
  </g>
</svg>
