<?xml version="1.0" encoding="UTF-8"?>
<svg width="56px" height="46px" viewBox="0 0 56 46" version="1.1" xmlns="http://www.w3.org/2000/svg" xmlns:xlink="http://www.w3.org/1999/xlink">
    <!-- Generator: Sketch 48.2 (47327) - http://www.bohemiancoding.com/sketch -->
    <title>ZipFolder</title>
    <desc>Created with Sketch.</desc>
    <defs>
        <linearGradient x1="2.72754138%" y1="95.3402739%" x2="100%" y2="0%" id="linearGradient-1">
            <stop stop-color="#FFFFFF" stop-opacity="0" offset="0%"></stop>
            <stop stop-color="#FFFFFF" stop-opacity="0.2" offset="100%"></stop>
        </linearGradient>
    </defs>
    <g id="Alt-1" stroke="none" stroke-width="1" fill="none" fill-rule="evenodd" transform="translate(-188.000000, -728.000000)">
        <g id="Icons" transform="translate(112.000000, 27.000000)">
            <g id="Folders" transform="translate(0.000000, 670.000000)">
                <g id="ZipFolder" transform="translate(76.000000, 31.000000)">
                    <g>
                        <path d="M0.214890855,1.12697729 L0.214890855,5.80491805 L0.214890855,8.41683452 C0.214890855,9.75737603 2.46437956,10.8370927 5.25665891,10.8370927 L32.2134206,10.8370927 C35.0149667,10.8185603 34.4293583,8.92144953 37.2525991,7.84923465 L50.8216131,7.84923465 C53.3455387,7.84923465 55.8582046,5.80491805 55.7805173,5.80491805 L55.7805173,4.11483538 C55.7805173,3.56255063 55.3328021,3.11483538 54.7805173,3.11483538 L31.9492918,3.11483538 C30.1815059,2.28127587 28.6616806,0.126977293 26.9101107,0.126977293 L1.21489086,0.126977293 C0.662606105,0.126977293 0.214890855,0.574692543 0.214890855,1.12697729 Z" id="rect4177-9-7-2-2-48" fill="#6F8A91" fill-rule="nonzero"></path>
                        <path d="M0.202914397,5.50794143 L0.202914397,10.2033251 L0.202914397,44.9850601 C0.202914397,45.5373449 0.650629647,45.9850601 1.2029144,45.9850601 L54.7702971,45.9850601 C55.3225819,45.9850601 55.7702971,45.5373449 55.7702971,44.9850601 L55.7702971,17.2809808 L55.7702971,10.2033251 L55.7702971,5.50794143 L50.7086681,5.50794143 L5.26711392,5.50794143 L0.202914397,5.50794143 Z" id="rect4177-9-7-2-0" fill="#D8D8D8" fill-rule="nonzero"></path>
                        <path d="M0.282828283,10.8370927 L0.282828283,14.9142898 L0.282828283,44.9850601 C0.282828283,45.5373449 0.730543533,45.9850601 1.28282828,45.9850601 L54.850211,45.9850601 C55.4024957,45.9850601 55.850211,45.5373449 55.850211,44.9850601 L55.850211,21.060113 L55.850211,14.9142898 L55.850211,10.8370927 L50.788582,10.8370927 L5.3470278,10.8370927 L0.282828283,10.8370927 Z" id="rect4177-9-7-2-0" fill="#E2A44B" fill-rule="nonzero"></path>
                        <g id="Zipper" transform="translate(22.720539, 10.837093)" fill-rule="nonzero">
                            <rect id="rect1037" fill-opacity="0.8" fill="#FFFFFF" x="1.31986532" y="15.9097744" width="3.05847612" height="2.78849882"></rect>
                            <rect id="rect1039" fill-opacity="0.8" fill="#FFFFFF" x="5.27946128" y="18.5614035" width="3.05847612" height="2.78849882"></rect>
                            <rect id="rect1039" fill-opacity="0.8" fill="#FFFFFF" x="5.27946128" y="23.8646617" width="3.05847612" height="2.78849882"></rect>
                            <rect id="rect1039" fill-opacity="0.8" fill="#FFFFFF" x="5.27946128" y="29.1679198" width="3.05847612" height="2.78849882"></rect>
                            <rect id="rect1041" fill-opacity="0.8" fill="#FFFFFF" x="1.31986532" y="21.2130326" width="3.05847612" height="2.78849882"></rect>
                            <rect id="rect1041" fill-opacity="0.8" fill="#FFFFFF" x="1.31986532" y="26.5162907" width="3.05847612" height="2.78849882"></rect>
                            <rect id="rect1041" fill-opacity="0.8" fill="#FFFFFF" x="1.31986532" y="31.8195489" width="3.05847612" height="2.78849882"></rect>
                            <rect id="rect1062" fill="#FFFFF4" x="2.63973064" y="0" width="4.07796809" height="5.57699772"></rect>
                            <path d="M0.65993266,1.32581454 L0.65993266,15.2683088 L8.57912458,15.2683088 L8.57912458,1.32581454 C8.57912458,1.32581454 5.93939394,1.32581454 0.65993266,1.32581454 Z M7.27926318,9.04503372 L7.27926318,13.3775681 L1.9998019,13.3775681 L1.9998019,9.04503372 L7.27926318,9.04503372 Z" id="rect1024" fill="#FFFFFF"></path>
                        </g>
                        <rect id="Rectangle-2" fill="url(#linearGradient-1)" x="0" y="0" width="55.5673827" height="45.883976"></rect>
                    </g>
                </g>
            </g>
        </g>
    </g>
</svg>