<?xml version="1.0" encoding="UTF-8"?>
<svg width="54px" height="46px" viewBox="0 0 54 46" version="1.1" xmlns="http://www.w3.org/2000/svg" xmlns:xlink="http://www.w3.org/1999/xlink">
    <!-- Generator: Sketch 48.2 (47327) - http://www.bohemiancoding.com/sketch -->
    <title>ZipFolderUnknown</title>
    <desc>Created with Sketch.</desc>
    <defs>
        <linearGradient x1="2.72754138%" y1="95.3402739%" x2="100%" y2="0%" id="linearGradient-1">
            <stop stop-color="#FFFFFF" stop-opacity="0" offset="0%"></stop>
            <stop stop-color="#FFFFFF" stop-opacity="0.2" offset="100%"></stop>
        </linearGradient>
    </defs>
    <g id="Alt-1" stroke="none" stroke-width="1" fill="none" fill-rule="evenodd" transform="translate(-225.000000, -786.000000)">
        <g id="Icons" transform="translate(112.000000, 27.000000)">
            <g id="Folders" transform="translate(0.000000, 670.000000)">
                <g id="ZipFolderUnknown" transform="translate(113.000000, 89.000000)">
                    <g>
                        <path d="M0.207216182,1.12402433 L0.207216182,5.66991995 L0.207216182,8.22109418 C0.207216182,9.53046031 2.376366,10.5850673 5.06892109,10.5850673 L31.0629413,10.5850673 C33.7644322,10.5669659 33.1997384,8.71397396 35.9221491,7.66669431 L49.0065555,7.66669431 C51.4403409,7.66669431 53.8632687,5.66991995 53.788356,5.66991995 L53.788356,4.04239734 C53.788356,3.49011259 53.3406407,3.04239734 52.788356,3.04239734 L30.8082456,3.04239734 C29.1035949,2.22822295 27.6380492,0.124024333 25.9490353,0.124024333 L1.20721618,0.124024333 C0.654931432,0.124024333 0.207216182,0.571739583 0.207216182,1.12402433 Z" id="rect4177-9-7-2-2-48" fill="#6F8A91" fill-rule="nonzero"></path>
                        <path d="M0.195667455,5.37984977 L0.195667455,10.0918252 L0.195667455,45 C0.195667455,45.5522847 0.643382705,46 1.19566745,46 L52.7785008,46 C53.3307855,46 53.7785008,45.5522847 53.7785008,45 L53.7785008,17.1944908 L53.7785008,10.0918252 L53.7785008,5.37984977 L48.8976442,5.37984977 L5.07900271,5.37984977 L0.195667455,5.37984977 Z" id="rect4177-9-7-2-0" fill="#D8D8D8" fill-rule="nonzero"></path>
                        <path d="M0.272727273,10.5850673 L0.272727273,14.6932326 L0.272727273,45 C0.272727273,45.5522847 0.720442523,46 1.27272727,46 L52.8555606,46 C53.4078454,46 53.8555606,45.5522847 53.8555606,45 L53.8555606,20.8857362 L53.8555606,14.6932326 L53.8555606,10.5850673 L48.974704,10.5850673 L5.15606252,10.5850673 L0.272727273,10.5850673 Z" id="rect4177-9-7-2-0" fill="#E2A44B" fill-rule="nonzero"></path>
                        <g id="Zipper" transform="translate(11.727273, 10.585067)" fill-rule="nonzero">
                            <rect id="rect1037" fill-opacity="0.8" fill="#FFFFFF" x="1.27272727" y="15.5397797" width="2.94924483" height="2.72365001"></rect>
                            <rect id="rect1039" fill-opacity="0.8" fill="#FFFFFF" x="5.09090909" y="18.129743" width="2.94924483" height="2.72365001"></rect>
                            <rect id="rect1039" fill-opacity="0.8" fill="#FFFFFF" x="5.09090909" y="23.3096695" width="2.94924483" height="2.72365001"></rect>
                            <rect id="rect1039" fill-opacity="0.8" fill="#FFFFFF" x="5.09090909" y="28.4895961" width="2.94924483" height="2.72365001"></rect>
                            <rect id="rect1041" fill-opacity="0.8" fill="#FFFFFF" x="1.27272727" y="20.7197062" width="2.94924483" height="2.72365001"></rect>
                            <rect id="rect1041" fill-opacity="0.8" fill="#FFFFFF" x="1.27272727" y="25.8996328" width="2.94924483" height="2.72365001"></rect>
                            <rect id="rect1041" fill-opacity="0.8" fill="#FFFFFF" x="1.27272727" y="31.0795594" width="2.94924483" height="2.72365001"></rect>
                            <rect id="rect1062" fill="#FFFFF4" x="2.54545455" y="0" width="3.93232637" height="5.4473001"></rect>
                            <path d="M0.636363636,1.29498164 L0.636363636,14.9132319 L8.27272727,14.9132319 L8.27272727,1.29498164 C8.27272727,1.29498164 5.72727273,1.29498164 0.636363636,1.29498164 Z M7.01928949,8.8346841 L7.01928949,13.0664619 L1.9283804,13.0664619 L1.9283804,8.8346841 L7.01928949,8.8346841 Z" id="rect1024" fill="#FFFFFF"></path>
                        </g>
                        <rect id="Rectangle-2" fill="url(#linearGradient-1)" x="0.144439397" y="0.124024333" width="53.5828333" height="45.8759757"></rect>
                        <path d="M39.283144,32.9639688 L39.283144,37.0917228 C39.283144,37.2751794 39.2274628,37.4357016 39.1160986,37.5732941 C39.0047344,37.7108866 38.8748114,37.7796818 38.7263259,37.7796818 L35.3854168,37.7796818 C35.2369312,37.7796818 35.1070082,37.7108866 34.995644,37.5732941 C34.8842798,37.4357016 34.8285986,37.2751794 34.8285986,37.0917228 L34.8285986,32.9639688 C34.8285986,32.7805121 34.8842798,32.61999 34.995644,32.4823975 C35.1070082,32.344805 35.2369312,32.2760098 35.3854168,32.2760098 L38.7263259,32.2760098 C38.8748114,32.2760098 39.0047344,32.344805 39.1160986,32.4823975 C39.2274628,32.61999 39.283144,32.7805121 39.283144,32.9639688 Z M43.6820077,21.3496022 C43.6820077,21.9687684 43.610086,22.5477948 43.4662406,23.0866987 C43.3223952,23.6256026 43.1599915,24.0641721 42.9790247,24.4024202 C42.7980579,24.7406684 42.5428521,25.081778 42.2133997,25.4257593 C41.8839473,25.7697405 41.6171413,26.0191231 41.4129736,26.1739147 C41.2088059,26.3287062 40.9257595,26.5322254 40.5638259,26.7844783 C40.1833315,27.0481972 39.8654843,27.4208379 39.6102747,27.9024116 C39.3550651,28.3839853 39.2274622,28.7680919 39.2274622,29.054743 C39.2274622,29.2496657 39.171781,29.435986 39.0604168,29.6137096 C38.9490526,29.7914333 38.8191296,29.8802938 38.670644,29.8802938 L35.3297349,29.8802938 C35.1905297,29.8802938 35.072207,29.7742345 34.9747634,29.5621127 C34.8773197,29.349991 34.8285986,29.1350059 34.8285986,28.9171512 L34.8285986,28.1431973 C34.8285986,27.1915159 35.1302054,26.2943117 35.7334281,25.4515577 C36.3366508,24.6088037 37.0001859,23.9867804 37.7240531,23.5854689 C38.2715937,23.2758858 38.6613626,22.9548415 38.8933713,22.6223263 C39.12538,22.2898112 39.2413827,21.8541082 39.2413827,21.3152043 C39.2413827,20.8336305 39.0256178,20.4093934 38.5940815,20.0424801 C38.1625453,19.6755668 37.663734,19.4921129 37.0976327,19.4921129 C36.49441,19.4921129 35.9932786,19.658368 35.5942236,19.9908832 C35.2694114,20.2775342 34.7729201,20.9368216 34.1047349,21.9687653 C33.9840904,22.1522219 33.8402471,22.2439489 33.6732009,22.2439489 C33.5618367,22.2439489 33.445834,22.1980854 33.3251895,22.1063571 L31.0422349,19.9564852 C30.9215904,19.8418248 30.8496688,19.6985015 30.8264679,19.5265109 C30.803267,19.3545203 30.8287876,19.1939981 30.9030304,19.0449396 C32.3878863,15.9949728 34.5408951,14.4700122 37.3621213,14.4700122 C38.1045493,14.4700122 38.8516062,14.6477332 39.6033145,15.0031805 C40.3550228,15.3586277 41.0324781,15.8344613 41.6357009,16.4306954 C42.2389236,17.0269295 42.7307747,17.7578786 43.111269,18.6235647 C43.4917634,19.4892507 43.6820077,20.3979208 43.6820077,21.3496022 Z" id="" fill="#FFFFFF"></path>
                    </g>
                </g>
            </g>
        </g>
    </g>
</svg>