<?xml version="1.0" encoding="UTF-8"?>
<svg width="56px" height="46px" viewBox="0 0 56 46" version="1.1" xmlns="http://www.w3.org/2000/svg" xmlns:xlink="http://www.w3.org/1999/xlink">
    <!-- Generator: Sketch 48.2 (47327) - http://www.bohemiancoding.com/sketch -->
    <title>ZipPackage</title>
    <desc>Created with Sketch.</desc>
    <defs>
        <linearGradient x1="33.3349271%" y1="76.1062115%" x2="100%" y2="0%" id="linearGradient-1">
            <stop stop-color="#FFFFFF" stop-opacity="0" offset="0%"></stop>
            <stop stop-color="#FFFFFF" stop-opacity="0.127295568" offset="63.647784%"></stop>
            <stop stop-color="#FFFFFF" stop-opacity="0.127295568" offset="63.647784%"></stop>
            <stop stop-color="#FFFFFF" stop-opacity="0.2" offset="100%"></stop>
        </linearGradient>
    </defs>
    <g id="Alt-1" stroke="none" stroke-width="1" fill="none" fill-rule="evenodd" transform="translate(-468.000000, -753.000000)">
        <g id="Icons" transform="translate(75.000000, 53.000000)">
            <g id="Folders" transform="translate(0.000000, 670.000000)">
                <g id="ZipPackage" transform="translate(393.000000, 30.000000)">
                    <g>
                        <path d="M0,3.06666667 L0,16.401706 C0,19.7732972 2.26700199,22.4888889 5.08102051,22.4888889 L32.2476528,22.4888889 C35.0710102,22.4422781 34.4808426,17.6708614 37.3260636,14.9741376 L51.0007185,14.9741376 C53.5442941,14.9741376 56.0765222,9.8324841 55.9982301,9.8324841 L55.9982301,4.06666667 C55.9982301,3.51438192 55.5505148,3.06666667 54.9982301,3.06666667 L31.9814676,3.06666667 C31.9814676,3.06666667 21.3209784,3.06666667 0,3.06666667 Z" id="rect4177-9-7-2-2-48" fill="#C88C35" fill-rule="nonzero"></path>
                        <path d="M0,1 L0,7.04507101 L0,10.2858827 C0,11.9491988 2.08784622,13.2888889 4.67947954,13.2888889 L29.6991975,13.2888889 C32.2994317,13.2658942 33.2220659,11.0446531 32.9559967,10.2858827 C32.6899275,9.52711236 25.7803866,0.365289562 24.7769698,2.25122534e-20 C16.8513132,1.53110343e-20 8.9256566,8.10981509e-21 1,9.0859591e-22 L1,-2.22044605e-16 C0.44771525,-1.20591542e-16 -1.78657678e-16,0.44771525 -1.11022302e-16,1 Z" id="rect4177-9-7-2-2-48" fill="#E2A44B" fill-rule="nonzero"></path>
                        <path d="M0,1 L0,4.98030683 L0,41.9333333 C6.76353751e-17,42.4856181 0.44771525,42.9333333 1,42.9333333 L55,42.9333333 C55.5522847,42.9333333 56,42.4856181 56,41.9333333 L56,12.4874457 L56,4.98030683 L56,1 C56,0.44771525 55.5522847,-1.99683181e-15 55,-5.32907052e-15 L50.8989639,0 L5.10362661,0 L1,0 C0.44771525,1.01453063e-16 -6.76353751e-17,0.44771525 0,1 Z" id="rect4177-9-7-2-0" fill="#7F8C8D" fill-rule="nonzero"></path>
                        <path d="M0,4.06666667 L0,8.0469735 L0,45 C3.99185455e-15,45.5522847 0.44771525,46 1,46 L55,46 C55.5522847,46 56,45.5522847 56,45 L56,15.5541124 L56,8.0469735 L56,4.06666667 C56,3.51438192 55.5522847,3.06666667 55,3.06666667 L50.8989639,3.06666667 L5.10362661,3.06666667 L1,3.06666667 C0.44771525,3.06666667 -6.76353751e-17,3.51438192 0,4.06666667 Z" id="rect4177-9-7-2-0" fill="#E2A44B" fill-rule="nonzero"></path>
                        <path d="M1,3.06666667 L55,3.06666667 C55.5522847,3.06666667 56,3.51438192 56,4.06666667 L56,46 L0,46 L0,4.06666667 C-6.76353751e-17,3.51438192 0.44771525,3.06666667 1,3.06666667 Z" id="Rectangle-2" fill="url(#linearGradient-1)"></path>
                        <g id="Zipper" transform="translate(24.000000, 4.088889)" fill-rule="nonzero">
                            <rect id="rect1037" fill="#FFFFFF" x="1.31986532" y="19.017213" width="3.05847612" height="3.33313815"></rect>
                            <rect id="rect1039" fill="#FFFFFF" x="5.27946128" y="22.1867485" width="3.05847612" height="3.33313815"></rect>
                            <rect id="rect1039" fill="#FFFFFF" x="5.27946128" y="28.5258195" width="3.05847612" height="3.33313815"></rect>
                            <rect id="rect1039" fill="#FFFFFF" x="5.27946128" y="34.8648906" width="3.05847612" height="3.33313815"></rect>
                            <rect id="rect1041" fill="#FFFFFF" x="1.31986532" y="25.356284" width="3.05847612" height="3.33313815"></rect>
                            <rect id="rect1041" fill="#FFFFFF" x="1.31986532" y="31.695355" width="3.05847612" height="3.33313815"></rect>
                            <rect id="rect1041" fill="#FFFFFF" x="1.31986532" y="38.0344261" width="3.05847612" height="3.33313815"></rect>
                            <rect id="rect1062" fill="#FFFFF4" x="2.63973064" y="0" width="4.07796809" height="6.66627639"></rect>
                            <path d="M0.65993266,1.58476775 L0.65993266,18.2504587 L8.57912458,18.2504587 L8.57912458,1.58476775 C8.57912458,1.58476775 5.93939394,1.58476775 0.65993266,1.58476775 Z M7.27926318,10.8116764 L7.27926318,15.9904255 L1.9998019,15.9904255 L1.9998019,10.8116764 L7.27926318,10.8116764 Z" id="rect1024" fill="#FFFFFF"></path>
                        </g>
                    </g>
                </g>
            </g>
        </g>
    </g>
</svg>