<?xml version="1.0" encoding="UTF-8" standalone="no"?>
<!-- Created with Inkscape (http://www.inkscape.org/) -->

<svg
   xmlns:dc="http://purl.org/dc/elements/1.1/"
   xmlns:cc="http://creativecommons.org/ns#"
   xmlns:rdf="http://www.w3.org/1999/02/22-rdf-syntax-ns#"
   xmlns:svg="http://www.w3.org/2000/svg"
   xmlns="http://www.w3.org/2000/svg"
   xmlns:xlink="http://www.w3.org/1999/xlink"
   xmlns:sodipodi="http://sodipodi.sourceforge.net/DTD/sodipodi-0.dtd"
   xmlns:inkscape="http://www.inkscape.org/namespaces/inkscape"
   width="24"
   height="24"
   id="svg2"
   version="1.1"
   inkscape:version="0.47pre4 r22446"
   sodipodi:docname="transmission.svg">
  <defs
     id="defs4">
    <linearGradient
       id="linearGradient3612">
      <stop
         style="stop-color:#ffffff;stop-opacity:1;"
         offset="0"
         id="stop3614" />
      <stop
         style="stop-color:#dcdcdc;stop-opacity:1;"
         offset="1"
         id="stop3616" />
    </linearGradient>
    <linearGradient
       id="linearGradient3590">
      <stop
         style="stop-color:#9cc430;stop-opacity:1;"
         offset="0"
         id="stop3592" />
      <stop
         style="stop-color:#619508;stop-opacity:1;"
         offset="1"
         id="stop3594" />
    </linearGradient>
    <inkscape:perspective
       sodipodi:type="inkscape:persp3d"
       inkscape:vp_x="0 : 526.18109 : 1"
       inkscape:vp_y="0 : 1000 : 0"
       inkscape:vp_z="744.09448 : 526.18109 : 1"
       inkscape:persp3d-origin="372.04724 : 350.78739 : 1"
       id="perspective10" />
    <linearGradient
       inkscape:collect="always"
       xlink:href="#linearGradient3590"
       id="linearGradient3596"
       x1="-693.88062"
       y1="727.84369"
       x2="-725.70044"
       y2="759.66351"
       gradientUnits="userSpaceOnUse" />
    <linearGradient
       inkscape:collect="always"
       xlink:href="#linearGradient3612"
       id="linearGradient3628"
       gradientUnits="userSpaceOnUse"
       gradientTransform="translate(0.76447101,0)"
       x1="23.246004"
       y1="1012.1823"
       x2="23.251062"
       y2="1044.5184" />
    <linearGradient
       inkscape:collect="always"
       xlink:href="#linearGradient3590"
       id="linearGradient3644"
       gradientUnits="userSpaceOnUse"
       x1="-693.88062"
       y1="727.84369"
       x2="-725.70044"
       y2="759.66351" />
    <linearGradient
       inkscape:collect="always"
       xlink:href="#linearGradient3612"
       id="linearGradient3646"
       gradientUnits="userSpaceOnUse"
       gradientTransform="translate(0.76447101,0)"
       x1="23.246004"
       y1="1012.1823"
       x2="23.251062"
       y2="1044.5184" />
    <linearGradient
       inkscape:collect="always"
       xlink:href="#linearGradient3612"
       id="linearGradient3649"
       gradientUnits="userSpaceOnUse"
       gradientTransform="matrix(0.8067683,-0.21617292,0.21617292,0.8067683,-216.90302,203.71746)"
       x1="23.246004"
       y1="1012.1823"
       x2="23.251062"
       y2="1044.5184" />
    <linearGradient
       inkscape:collect="always"
       xlink:href="#linearGradient3590"
       id="linearGradient3654"
       gradientUnits="userSpaceOnUse"
       x1="-693.88062"
       y1="727.84369"
       x2="-725.70044"
       y2="759.66351"
       gradientTransform="translate(-168.31207,-209.0501)" />
    <linearGradient
       inkscape:collect="always"
       xlink:href="#linearGradient3612"
       id="linearGradient3619"
       x1="19.473206"
       y1="3.6194866"
       x2="29.988071"
       y2="42.8615"
       gradientUnits="userSpaceOnUse" />
    <linearGradient
       inkscape:collect="always"
       xlink:href="#linearGradient3590"
       id="linearGradient2837"
       gradientUnits="userSpaceOnUse"
       gradientTransform="matrix(0.45418121,-0.78666494,0.78666494,0.45418121,-238.69585,-872.7175)"
       x1="-693.88062"
       y1="727.84369"
       x2="-725.70044"
       y2="759.66351" />
    <linearGradient
       inkscape:collect="always"
       xlink:href="#linearGradient3590"
       id="linearGradient2841"
       gradientUnits="userSpaceOnUse"
       gradientTransform="matrix(0.74800793,0,0,0.74800793,-347.1737,-21.630086)"
       x1="-693.88062"
       y1="727.84369"
       x2="-725.70044"
       y2="759.66351" />
    <linearGradient
       inkscape:collect="always"
       xlink:href="#linearGradient3612"
       id="linearGradient3616"
       gradientUnits="userSpaceOnUse"
       gradientTransform="matrix(0.45418121,-0.78666494,0.78666494,0.45418121,-238.69585,-872.7175)"
       x1="-693.88062"
       y1="727.84369"
       x2="-725.70044"
       y2="759.66351" />
    <linearGradient
       inkscape:collect="always"
       xlink:href="#linearGradient3590"
       id="linearGradient2838"
       gradientUnits="userSpaceOnUse"
       gradientTransform="matrix(0.5,-0.86602541,0.86602541,0.5,-265.19873,-987.12472)"
       x1="-693.88062"
       y1="727.84369"
       x2="-725.70044"
       y2="759.66351" />
    <linearGradient
       inkscape:collect="always"
       xlink:href="#linearGradient3590"
       id="linearGradient2842"
       gradientUnits="userSpaceOnUse"
       gradientTransform="matrix(0.5,-0.86602541,0.86602541,0.5,-265.19873,-987.12472)"
       x1="-693.88062"
       y1="727.84369"
       x2="-725.70044"
       y2="759.66351" />
  </defs>
  <sodipodi:namedview
     id="base"
     pagecolor="#ffffff"
     bordercolor="#666666"
     borderopacity="1.0"
     inkscape:pageopacity="0.0"
     inkscape:pageshadow="2"
     inkscape:zoom="3.959798"
     inkscape:cx="10.886873"
     inkscape:cy="-8.8115144"
     inkscape:document-units="px"
     inkscape:current-layer="layer1"
     showgrid="false"
     inkscape:window-width="1280"
     inkscape:window-height="712"
     inkscape:window-x="0"
     inkscape:window-y="25"
     inkscape:window-maximized="1" />
  <metadata
     id="metadata7">
    <rdf:RDF>
      <cc:Work
         rdf:about="">
        <dc:format>image/svg+xml</dc:format>
        <dc:type
           rdf:resource="http://purl.org/dc/dcmitype/StillImage" />
        <dc:title />
      </cc:Work>
    </rdf:RDF>
  </metadata>
  <g
     inkscape:label="Livello 1"
     inkscape:groupmode="layer"
     id="layer1"
     transform="translate(0,-1028.3622)">
    <path
       style="fill:#969696;fill-opacity:1;stroke:none"
       d="m 9.6941711,1030.8624 c -0.3814931,0.027 -0.7458464,0.2411 -0.9522598,0.5986 l -6.0808588,10.5292 c -0.3302614,0.572 -0.1367106,1.3023 0.4353188,1.6325 l 10.5292727,6.0809 c 0.572028,0.3303 1.302183,0.1367 1.632445,-0.4354 l 6.080858,-10.5292 c 0.330262,-0.572 0.136711,-1.3022 -0.435318,-1.6325 l -10.529273,-6.0809 c -0.214511,-0.1239 -0.451289,-0.1792 -0.6801849,-0.1632 z m 0.2040556,0.8707 c 0.2079213,-0.015 0.4309163,0.037 0.6257703,0.1496 l 9.563409,5.5231 c 0.51961,0.3 0.694504,0.9632 0.394507,1.4828 l -5.523107,9.5634 c -0.299996,0.5197 -0.963194,0.6945 -1.482803,0.3946 l -9.5634091,-5.5232 c -0.51961,-0.2999 -0.6945046,-0.9632 -0.3945076,-1.4828 l 5.5231067,-9.5633 c 0.1874983,-0.3249 0.5105003,-0.52 0.8570337,-0.5442 z m 0.3672993,1.5236 c -0.2853588,0.02 -0.5529931,0.1815 -0.7073917,0.4489 l -4.5436398,7.8765 c -0.247038,0.4279 -0.1013934,0.9773 0.326489,1.2244 l 7.8765475,4.5436 c 0.427883,0.2471 0.977297,0.1014 1.224336,-0.3265 l 4.543638,-7.8765 c 0.247039,-0.4279 0.101394,-0.9773 -0.326489,-1.2244 l -7.876548,-4.5436 c -0.160456,-0.092 -0.345725,-0.1345 -0.516942,-0.1224 z m 0.272074,1.6461 0,0.014 c 5.2e-5,0 0.122327,-0.014 0.122434,-0.014 8.7e-5,0 0.0223,0.01 0.02721,0.014 0.0099,0.01 -0.0034,0.01 0,0.014 0.0061,0 0.01026,0 0.0136,0 0.0063,0.01 0.0064,0.022 0.0136,0.027 0.01459,0.01 0.04375,0.01 0.06802,0.027 0.04864,0.037 0.109212,0.1001 0.190452,0.1632 0.162479,0.1262 0.383516,0.2938 0.598562,0.4625 0.21504,0.1687 0.436905,0.3353 0.598563,0.4625 0.08083,0.064 0.129258,0.1258 0.176849,0.1632 0.04759,0.037 0.102479,0.06 0.09523,0.054 -0.0073,-0.01 0.02001,0.017 0.06802,0.054 0.04801,0.037 0.122559,0.087 0.204056,0.1496 0.162984,0.1263 0.382469,0.2946 0.598563,0.4626 0.216084,0.1678 0.436879,0.3356 0.598563,0.4625 0.08083,0.064 0.129379,0.1253 0.176848,0.1632 0.02373,0.019 0.04074,0.029 0.05442,0.041 0.005,0 0.02329,0.01 0.02721,0.014 -0.0047,-0.01 0.0029,0.015 0,0.014 0.0037,0 0.02301,0.01 0.02721,0.014 0.0027,0 -3.3e-5,0.014 0,0.014 4.4e-5,10e-5 1.6e-5,0.095 0,0.095 -2.5e-5,0 -0.06792,0.067 -0.06802,0.067 -1.01e-4,0 -0.02157,0.014 -0.02721,0.014 -0.01072,0.01 -0.0096,0.027 -0.0136,0.027 -0.008,0.01 -0.0093,0 -0.0136,0 -0.0086,0 -0.01684,0 -0.02721,0 -0.02083,0.01 -0.04625,0.017 -0.08162,0.027 -0.07092,0.019 -0.179749,0.049 -0.299282,0.082 l -0.870638,0.2312 -0.312884,0.082 1.088297,4.0675 0.312884,-0.095 0.870638,-0.2312 c 0.119646,-0.032 0.228371,-0.049 0.299281,-0.068 0.03553,-0.01 0.06079,-0.022 0.08162,-0.027 0.01047,0 0.01855,-0.01 0.02721,-0.014 0.0044,0 0.0056,0 0.0136,0 0.004,0 0.01497,0 0.02721,0 0.0057,0 0.01351,0.014 0.01361,0.014 1.11e-4,0 0.108795,0.014 0.10883,0.014 3.4e-5,0 0.0408,0.082 0.0408,0.082 -1.2e-5,0 0.01417,0.023 0.01361,0.027 -0.0014,0.01 -0.01295,0.01 -0.01361,0.014 -0.0016,0.01 -0.01261,0.01 -0.0136,0.014 -0.0023,0.01 0.0031,0.01 0,0.014 -0.0062,0.016 -0.01611,0.053 -0.02721,0.082 -0.02212,0.057 -0.04332,0.1359 -0.08162,0.2312 -0.0766,0.1907 -0.18247,0.4268 -0.285678,0.6802 -0.103207,0.2534 -0.20763,0.5167 -0.285677,0.7074 -0.03903,0.095 -0.07221,0.1751 -0.09523,0.2313 -0.02306,0.056 -0.0443,0.089 -0.04081,0.082 0.0035,-0.01 -0.01836,0.039 -0.0408,0.095 -0.02246,0.056 -0.04343,0.1357 -0.08162,0.2313 -0.07638,0.191 -0.18381,0.4537 -0.285678,0.7073 -0.101869,0.2538 -0.20808,0.5032 -0.285677,0.6938 -0.03881,0.095 -0.05803,0.1885 -0.08162,0.2449 -0.01185,0.028 -0.03356,0.037 -0.0408,0.054 -0.0037,0.01 -0.01034,0.02 -0.01361,0.027 -0.0015,0 0.0036,0.01 0,0.014 -0.0015,0 0.0057,0 0,0.014 -0.003,0.01 -0.02712,0.014 -0.02721,0.014 -8.9e-5,0 -0.09518,0.041 -0.09523,0.041 -5e-5,0 -0.108741,0.014 -0.10883,0.014 -8.6e-5,0 -0.0223,-0.01 -0.02721,-0.014 -0.0097,-0.01 -0.02381,0.01 -0.02721,0 -0.0062,0 -0.01025,0.01 -0.01359,0 -0.0063,0 -0.0063,-0.022 -0.0136,-0.027 -0.01459,-0.01 -0.03005,-0.01 -0.05442,-0.027 -0.04864,-0.037 -0.109212,-0.1002 -0.190452,-0.1632 -0.16248,-0.1263 -0.383526,-0.2939 -0.598563,-0.4625 -0.215039,-0.1687 -0.423302,-0.3353 -0.584961,-0.4626 -0.08083,-0.064 -0.156464,-0.1258 -0.204055,-0.1633 -0.0476,-0.037 -0.08887,-0.06 -0.08162,-0.054 0.0072,0.01 -0.0065,-0.017 -0.05442,-0.054 -0.04802,-0.037 -0.122558,-0.1001 -0.204055,-0.1633 -0.162985,-0.1261 -0.382469,-0.2946 -0.598563,-0.4624 -0.216095,-0.168 -0.43688,-0.3221 -0.598562,-0.4489 -0.08084,-0.064 -0.156587,-0.1254 -0.204057,-0.1633 -0.023699,-0.019 -0.040737,-0.044 -0.054415,-0.054 -0.00688,0 -0.00809,-0.01 -0.013608,-0.014 -0.00253,0 -0.00792,-0.01 -0.013608,-0.014 -0.00278,0 -0.013591,-0.027 -0.013608,-0.027 -4.36e-5,0 -1.57e-5,-0.082 0,-0.082 1.57e-5,0 0.067927,-0.068 0.068023,-0.068 1.002e-4,0 0.021566,-0.014 0.027208,-0.014 0.01036,-0.01 -0.004,-0.014 0,-0.014 0.008,0 0.02294,-0.014 0.02721,-0.014 0.0086,0 0.01685,0.01 0.02721,0 0.02083,-0.01 0.04624,-0.017 0.08162,-0.027 0.07092,-0.019 0.179748,-0.049 0.299281,-0.082 l 0.870637,-0.2312 0.299283,-0.082 -1.088297,-4.0675 -0.299282,0.082 -0.8706367,0.245 c -0.1196465,0.031 -0.2283699,0.049 -0.299282,0.068 -0.03554,0.01 -0.060788,0.022 -0.081623,0.027 -0.010478,0 -0.018554,0.01 -0.027207,0.014 -0.00439,5e-4 -0.019202,-0.01 -0.027208,0 -0.00409,9e-4 -0.00138,-0.014 -0.013604,-0.014 -0.00593,0 -0.027105,0 -0.027207,0 -1.111e-4,0 -0.095201,-0.027 -0.095226,-0.027 -3.41e-5,0 -0.040798,-0.082 -0.040811,-0.082 1.3e-5,0 -5.659e-4,-0.01 0,-0.014 0.00109,-0.01 0.01295,-0.023 0.013604,-0.027 0.00226,-0.01 -0.00309,-0.019 0,-0.027 0.00616,-0.016 0.00252,-0.04 0.013604,-0.068 0.022116,-0.057 0.070526,-0.1358 0.1088297,-0.2312 0.076596,-0.1907 0.1824612,-0.454 0.2856779,-0.7074 0.1032067,-0.2534 0.1940272,-0.503 0.2720742,-0.6938 0.039014,-0.095 0.085811,-0.1751 0.1088301,-0.2313 0.023019,-0.057 0.03069,-0.09 0.027207,-0.082 -0.00349,0.01 0.018345,-0.026 0.040807,-0.082 0.022471,-0.057 0.057036,-0.1492 0.095226,-0.2449 0.076381,-0.1909 0.1702051,-0.44 0.2720744,-0.6937 0.1018594,-0.2537 0.2080794,-0.5032 0.2856774,-0.6937 0.0388,-0.095 0.05803,-0.1885 0.08162,-0.2449 0.01176,-0.028 0.03356,-0.037 0.0408,-0.054 0.0036,-0.01 -0.0033,-0.02 0,-0.027 0.0015,-0.01 0.01008,-0.01 0.0136,-0.014 0.0017,0 0.0075,-0.01 0.0136,-0.014 0.0031,0 0.01352,-0.027 0.0136,-0.027 8.7e-5,0 0.09518,-0.054 0.09522,-0.054 z"
       id="rect2816" />
  </g>
</svg>
