<?xml version="1.0" encoding="UTF-8" standalone="no"?>
<!-- Created with Inkscape (http://www.inkscape.org/) -->

<svg
   width="32mm"
   height="32mm"
   viewBox="0 0 32 32"
   version="1.1"
   id="svg8"
   inkscape:version="1.3 (1:1.3+202307231459+0e150ed6c4)"
   sodipodi:docname="chat.svg"
   inkscape:export-filename="/home/autocaret/Projects/friendup/interfaces/web_desktop/apps/Convos/preview.png"
   inkscape:export-xdpi="406.39996"
   inkscape:export-ydpi="406.39996"
   xmlns:inkscape="http://www.inkscape.org/namespaces/inkscape"
   xmlns:sodipodi="http://sodipodi.sourceforge.net/DTD/sodipodi-0.dtd"
   xmlns="http://www.w3.org/2000/svg"
   xmlns:svg="http://www.w3.org/2000/svg"
   xmlns:rdf="http://www.w3.org/1999/02/22-rdf-syntax-ns#"
   xmlns:cc="http://creativecommons.org/ns#"
   xmlns:dc="http://purl.org/dc/elements/1.1/">
  <defs
     id="defs2" />
  <sodipodi:namedview
     id="base"
     pagecolor="#ffffff"
     bordercolor="#666666"
     borderopacity="1.0"
     inkscape:pageopacity="0.0"
     inkscape:pageshadow="2"
     inkscape:zoom="1.4142136"
     inkscape:cx="51.618795"
     inkscape:cy="58.336309"
     inkscape:document-units="mm"
     inkscape:current-layer="layer2"
     showgrid="false"
     fit-margin-top="0"
     fit-margin-left="0"
     fit-margin-right="0"
     fit-margin-bottom="0"
     inkscape:window-width="1920"
     inkscape:window-height="995"
     inkscape:window-x="0"
     inkscape:window-y="28"
     inkscape:window-maximized="1"
     inkscape:showpageshadow="0"
     inkscape:pagecheckerboard="0"
     inkscape:deskcolor="#505050" />
  <metadata
     id="metadata5">
    <rdf:RDF>
      <cc:Work
         rdf:about="">
        <dc:format>image/svg+xml</dc:format>
        <dc:type
           rdf:resource="http://purl.org/dc/dcmitype/StillImage" />
      </cc:Work>
    </rdf:RDF>
  </metadata>
  <g
     inkscape:label="BG"
     inkscape:groupmode="layer"
     id="layer1"
     transform="translate(-59.720238,-133.46426)"
     style="display:inline" />
  <g
     inkscape:groupmode="layer"
     id="layer2"
     inkscape:label="Layer 2">
    <g
       id="g8"
       transform="matrix(0.88712213,0,0,0.88712213,1.7395206,2.0659269)"
       style="stroke-width:1.12724">
      <path
         id="path8"
         style="color:#000000;fill:#000000;stroke-width:1.12724;-inkscape-stroke:none"
         d="m 23.892598,13.35319 c -0.572266,0.795079 -1.335484,1.507485 -2.24224,2.105815 -2.047657,1.35116 -4.829708,2.164145 -7.894608,2.164209 h -0.0021 c -1.133973,-0.0027 -1.466539,-0.159219 -2.359029,-0.377238 -0.736817,0.365256 -1.9048413,1.081028 -2.9920651,1.82056 -0.092916,0.0632 -0.1797083,0.126308 -0.2707845,0.189653 0.1247953,1.633337 1.1819406,3.138665 2.9192016,4.28501 1.852496,1.222383 4.458681,1.999817 7.345288,1.999878 1.157804,-0.003 1.187723,-0.119287 2.34611,-0.38654 l 0.171566,-0.03927 0.15658,0.07596 c 0.838368,0.401436 2.088236,1.18189 3.242179,1.966805 0.492471,0.334981 0.704849,0.553502 1.111043,0.853695 -0.08591,-0.241217 -0.180085,-0.397786 -0.257865,-0.648539 -0.284997,-0.918821 -0.512964,-1.793123 -0.443384,-2.478402 l 0.03152,-0.29714 0.273368,-0.115238 c 1.478786,-0.617968 2.365261,-1.430012 2.906282,-2.36523 0.541022,-0.935218 0.737331,-2.016584 0.73794,-3.177584 0,-1.758812 -1.079006,-3.388696 -2.931604,-4.611088 -0.55265,-0.364676 -1.173352,-0.688646 -1.847398,-0.965316 z" />
      <path
         style="color:#000000;fill:#000000;stroke-width:1.12724;-inkscape-stroke:none"
         d="m 13.75575,3.4023763 c -2.886706,-3.06e-5 -5.4911411,0.777487 -7.3437383,1.9998779 -1.8519389,1.2219563 -2.932904,2.8514429 -2.933671,4.6095378 6.09e-4,1.160999 0.1995018,2.242366 0.7405232,3.177584 0.5410214,0.935219 1.4274963,1.749328 2.9062826,2.367297 l 0.2733683,0.115239 0.031006,0.295072 c 0.069579,0.685279 -0.1583871,1.559582 -0.4433838,2.478402 -0.077778,0.250753 -0.1719555,0.407322 -0.2578654,0.648539 0.4061946,-0.300192 0.6190885,-0.518714 1.11156,-0.853695 1.1539429,-0.784915 2.4017464,-1.565368 3.2401124,-1.966805 l 0.15813,-0.07441 0.170015,0.03927 c 1.159327,0.26747 1.189153,0.38219 2.349728,0.38499 2.885792,-4.28e-4 5.489612,-0.778301 7.34167,-2.000395 1.852497,-1.222383 2.931604,-2.850268 2.931604,-4.609021 0,-1.7587522 -1.079107,-3.3892221 -2.931604,-4.6116048 C 19.246991,4.1798717 16.642357,3.4024371 13.75575,3.4023763 Z"
         id="path6" />
    </g>
  </g>
</svg>
