<?xml version="1.0" encoding="UTF-8" standalone="no"?>
<!-- Created with Inkscape (http://www.inkscape.org/) -->

<svg
   xmlns:dc="http://purl.org/dc/elements/1.1/"
   xmlns:cc="http://creativecommons.org/ns#"
   xmlns:rdf="http://www.w3.org/1999/02/22-rdf-syntax-ns#"
   xmlns:svg="http://www.w3.org/2000/svg"
   xmlns="http://www.w3.org/2000/svg"
   xmlns:sodipodi="http://sodipodi.sourceforge.net/DTD/sodipodi-0.dtd"
   xmlns:inkscape="http://www.inkscape.org/namespaces/inkscape"
   sodipodi:docname="gnome-spinner.svg"
   height="36"
   width="254"
   inkscape:version="0.47pre4 r22446"
   version="1.1"
   id="svg2"
   inkscape:export-filename="/home/santana/.icons/Meliae/scalable/places/start-here.png"
   inkscape:export-xdpi="90"
   inkscape:export-ydpi="90">
  <metadata
     id="metadata8">
    <rdf:RDF>
      <cc:Work
         rdf:about="">
        <dc:format>image/svg+xml</dc:format>
        <dc:type
           rdf:resource="http://purl.org/dc/dcmitype/StillImage" />
        <dc:title />
      </cc:Work>
    </rdf:RDF>
  </metadata>
  <defs
     id="defs6">
    <inkscape:perspective
       sodipodi:type="inkscape:persp3d"
       inkscape:vp_x="0 : 0.5 : 1"
       inkscape:vp_y="0 : 1000 : 0"
       inkscape:vp_z="1 : 0.5 : 1"
       inkscape:persp3d-origin="0.5 : 0.33333333 : 1"
       id="perspective10" />
    <inkscape:perspective
       id="perspective3636"
       inkscape:persp3d-origin="0.5 : 0.33333333 : 1"
       inkscape:vp_z="1 : 0.5 : 1"
       inkscape:vp_y="0 : 1000 : 0"
       inkscape:vp_x="0 : 0.5 : 1"
       sodipodi:type="inkscape:persp3d" />
    <inkscape:perspective
       id="perspective3658"
       inkscape:persp3d-origin="0.5 : 0.33333333 : 1"
       inkscape:vp_z="1 : 0.5 : 1"
       inkscape:vp_y="0 : 1000 : 0"
       inkscape:vp_x="0 : 0.5 : 1"
       sodipodi:type="inkscape:persp3d" />
    <inkscape:perspective
       id="perspective3680"
       inkscape:persp3d-origin="0.5 : 0.33333333 : 1"
       inkscape:vp_z="1 : 0.5 : 1"
       inkscape:vp_y="0 : 1000 : 0"
       inkscape:vp_x="0 : 0.5 : 1"
       sodipodi:type="inkscape:persp3d" />
    <inkscape:perspective
       id="perspective3702"
       inkscape:persp3d-origin="0.5 : 0.33333333 : 1"
       inkscape:vp_z="1 : 0.5 : 1"
       inkscape:vp_y="0 : 1000 : 0"
       inkscape:vp_x="0 : 0.5 : 1"
       sodipodi:type="inkscape:persp3d" />
    <inkscape:perspective
       id="perspective3724"
       inkscape:persp3d-origin="0.5 : 0.33333333 : 1"
       inkscape:vp_z="1 : 0.5 : 1"
       inkscape:vp_y="0 : 1000 : 0"
       inkscape:vp_x="0 : 0.5 : 1"
       sodipodi:type="inkscape:persp3d" />
    <inkscape:perspective
       id="perspective3767"
       inkscape:persp3d-origin="0.5 : 0.33333333 : 1"
       inkscape:vp_z="1 : 0.5 : 1"
       inkscape:vp_y="0 : 1000 : 0"
       inkscape:vp_x="0 : 0.5 : 1"
       sodipodi:type="inkscape:persp3d" />
    <inkscape:perspective
       id="perspective3804"
       inkscape:persp3d-origin="0.5 : 0.33333333 : 1"
       inkscape:vp_z="1 : 0.5 : 1"
       inkscape:vp_y="0 : 1000 : 0"
       inkscape:vp_x="0 : 0.5 : 1"
       sodipodi:type="inkscape:persp3d" />
    <inkscape:perspective
       id="perspective3611"
       inkscape:persp3d-origin="0.5 : 0.33333333 : 1"
       inkscape:vp_z="1 : 0.5 : 1"
       inkscape:vp_y="0 : 1000 : 0"
       inkscape:vp_x="0 : 0.5 : 1"
       sodipodi:type="inkscape:persp3d" />
    <inkscape:perspective
       id="perspective3633"
       inkscape:persp3d-origin="0.5 : 0.33333333 : 1"
       inkscape:vp_z="1 : 0.5 : 1"
       inkscape:vp_y="0 : 1000 : 0"
       inkscape:vp_x="0 : 0.5 : 1"
       sodipodi:type="inkscape:persp3d" />
    <inkscape:perspective
       id="perspective3674"
       inkscape:persp3d-origin="0.5 : 0.33333333 : 1"
       inkscape:vp_z="1 : 0.5 : 1"
       inkscape:vp_y="0 : 1000 : 0"
       inkscape:vp_x="0 : 0.5 : 1"
       sodipodi:type="inkscape:persp3d" />
    <inkscape:perspective
       id="perspective2842"
       inkscape:persp3d-origin="0.5 : 0.33333333 : 1"
       inkscape:vp_z="1 : 0.5 : 1"
       inkscape:vp_y="0 : 1000 : 0"
       inkscape:vp_x="0 : 0.5 : 1"
       sodipodi:type="inkscape:persp3d" />
  </defs>
  <sodipodi:namedview
     pagecolor="#ffffff"
     bordercolor="#666666"
     borderopacity="1"
     objecttolerance="10"
     gridtolerance="10"
     guidetolerance="10"
     inkscape:pageopacity="0"
     inkscape:pageshadow="2"
     inkscape:window-width="1280"
     inkscape:window-height="714"
     id="namedview4"
     showgrid="false"
     inkscape:zoom="2.8284271"
     inkscape:cx="20.484978"
     inkscape:cy="-13.679305"
     inkscape:window-x="0"
     inkscape:window-y="25"
     inkscape:window-maximized="1"
     inkscape:current-layer="svg2" />
  <path
     style="font-size:medium;font-style:normal;font-variant:normal;font-weight:normal;font-stretch:normal;text-indent:0;text-align:start;text-decoration:none;line-height:normal;letter-spacing:normal;word-spacing:normal;text-transform:none;direction:ltr;block-progression:tb;writing-mode:lr-tb;text-anchor:start;color:#000000;fill:#969696;fill-opacity:0.07843138;fill-rule:nonzero;stroke:none;stroke-width:0.60000001999999997;marker:none;visibility:visible;display:inline;overflow:visible;enable-background:accumulate;font-family:'A.C.M.E. Secret Agent';-inkscape-font-specification:'A.C.M.E. Secret Agent'"
     d="m 22.132652,11.159876 7.613225,0 c 0.297484,0 0.538308,0.240827 0.538308,0.538309 l 0,5.459989 c 0,0.297483 -0.234899,0.519084 -0.538308,0.519084 l -10.939204,0 c -0.236481,0 -0.389908,-0.174086 -0.461408,-0.384506 l 3.787387,-6.132876 z"
     id="rect3618"
     sodipodi:nodetypes="cccccccc" />
  <path
     style="font-size:medium;font-style:normal;font-variant:normal;font-weight:normal;font-stretch:normal;text-indent:0;text-align:start;text-decoration:none;line-height:normal;letter-spacing:normal;word-spacing:normal;text-transform:none;direction:ltr;block-progression:tb;writing-mode:lr-tb;text-anchor:start;color:#000000;fill:#969696;fill-opacity:0.07843138;fill-rule:nonzero;stroke:none;stroke-width:0.60000001999999997;marker:none;visibility:visible;display:inline;overflow:visible;enable-background:accumulate;font-family:'A.C.M.E. Secret Agent';-inkscape-font-specification:'A.C.M.E. Secret Agent'"
     d="m 18.691321,18.042539 c 0.03864,0.0066 0.0717,0.01922 0.115352,0.01922 l 7.113366,0 3.97964,6.459706 c 0.154522,0.25169 0.0633,0.593205 -0.192253,0.749787 L 25.0549,28.116604 c -0.258942,0.158657 -0.572625,0.08422 -0.730562,-0.173028 l -5.729144,-9.305052 c -0.118815,-0.193536 -0.0462,-0.422246 0.09613,-0.595985 z"
     id="rect3623"
     sodipodi:nodetypes="ccccccccc" />
  <path
     style="font-size:medium;font-style:normal;font-variant:normal;font-weight:normal;font-stretch:normal;text-indent:0;text-align:start;text-decoration:none;line-height:normal;letter-spacing:normal;word-spacing:normal;text-transform:none;direction:ltr;block-progression:tb;writing-mode:lr-tb;text-anchor:start;color:#000000;fill:#969696;fill-opacity:0.07843138;fill-rule:nonzero;stroke:none;stroke-width:0.60000001999999997;marker:none;visibility:visible;display:inline;overflow:visible;enable-background:accumulate;font-family:'A.C.M.E. Secret Agent';-inkscape-font-specification:'A.C.M.E. Secret Agent'"
     d="m 18.249138,18.73465 c 0.0144,0.03178 0.0195,0.06531 0.03845,0.09613 l 3.748936,6.094424 -4.094992,6.671185 c -0.155297,0.252947 -0.493484,0.330068 -0.749787,0.173027 L 12.53922,28.924067 C 12.281995,28.766462 12.207406,28.45214 12.366192,28.193505 l 5.709919,-9.324278 c 0.03974,-0.06473 0.113414,-0.09597 0.173027,-0.134577 z"
     id="rect3628"
     sodipodi:nodetypes="ccccccccc" />
  <path
     style="font-size:medium;font-style:normal;font-variant:normal;font-weight:normal;font-stretch:normal;text-indent:0;text-align:start;text-decoration:none;line-height:normal;letter-spacing:normal;word-spacing:normal;text-transform:none;direction:ltr;block-progression:tb;writing-mode:lr-tb;text-anchor:start;color:#000000;fill:#969696;fill-opacity:0.07843138;fill-rule:nonzero;stroke:none;stroke-width:0.60000001999999997;marker:none;visibility:visible;display:inline;overflow:visible;enable-background:accumulate;font-family:'A.C.M.E. Secret Agent';-inkscape-font-specification:'A.C.M.E. Secret Agent'"
     d="m 6.2140915,18.330919 10.9392045,0 c 0.297964,0 0.53036,0.210408 0.538308,0.499858 l -3.69126,5.998298 -7.7862525,0 c -0.303397,0 -0.5190835,-0.215681 -0.5190835,-0.519084 l 0,-5.459989 c 0,-0.303403 0.2156865,-0.519083 0.5190835,-0.519083 z"
     id="rect3633"
     sodipodi:nodetypes="cccccccc" />
  <path
     style="font-size:medium;font-style:normal;font-variant:normal;font-weight:normal;font-stretch:normal;text-indent:0;text-align:start;text-decoration:none;line-height:normal;letter-spacing:normal;word-spacing:normal;text-transform:none;direction:ltr;block-progression:tb;writing-mode:lr-tb;text-anchor:start;color:#000000;fill:#969696;fill-opacity:0.07843138;fill-rule:nonzero;stroke:none;stroke-width:0.60000001999999997;marker:none;visibility:visible;display:inline;overflow:visible;enable-background:accumulate;font-family:'A.C.M.E. Secret Agent';-inkscape-font-specification:'A.C.M.E. Secret Agent'"
     d="m 11.251093,7.6800942 c 0.0043,-9.228e-4 0.01544,5.758e-4 0.0192,0 0.201456,-0.030631 0.440189,0.078025 0.557534,0.2691544 l 5.70998,9.3050524 c 0.157168,0.255993 0.07989,0.594823 -0.173028,0.749787 -0.06557,-0.0213 -0.122341,-0.05768 -0.211478,-0.05768 l -6.863438,0 -4.0373159,-6.594283 C 6.0937564,11.093494 6.1683445,10.779172 6.4255699,10.621567 L 11.078096,7.7762207 c 0.06942,-0.042536 0.125971,-0.064931 0.173028,-0.076901 l 0,-0.019225 -3.1e-5,0 z"
     id="rect3643"
     sodipodi:nodetypes="csccccccccccc" />
  <path
     style="font-size:medium;font-style:normal;font-variant:normal;font-weight:normal;font-stretch:normal;text-indent:0;text-align:start;text-decoration:none;line-height:normal;letter-spacing:normal;word-spacing:normal;text-transform:none;direction:ltr;block-progression:tb;writing-mode:lr-tb;text-anchor:start;color:#000000;fill:#969696;fill-opacity:0.07843138;fill-rule:nonzero;stroke:none;stroke-width:0.60000001999999997;marker:none;visibility:visible;display:inline;overflow:visible;enable-background:accumulate;font-family:'A.C.M.E. Secret Agent';-inkscape-font-specification:'A.C.M.E. Secret Agent'"
     d="m 18.499068,4.1618616 c 0.128622,-0.030828 0.269831,-0.00514 0.403731,0.076901 l 4.652526,2.8453466 c 0.255552,0.156582 0.346776,0.4980975 0.192253,0.7497873 l -5.729143,9.3050525 c -0.02885,0.04695 -0.07806,0.06226 -0.115352,0.09613 -0.01883,-0.05967 -0.02245,-0.115611 -0.05764,-0.173028 l -3.729742,-6.055974 4.056541,-6.5942835 c 0.08005,-0.1303766 0.195496,-0.2184515 0.326831,-0.2499291 z"
     id="rect3648"
     sodipodi:nodetypes="cccccscccc" />
  <g
     id="g3725"
     transform="translate(-0.53125,-1.1621517e-6)">
    <path
       style="font-size:medium;font-style:normal;font-variant:normal;font-weight:normal;font-stretch:normal;text-indent:0;text-align:start;text-decoration:none;line-height:normal;letter-spacing:normal;word-spacing:normal;text-transform:none;direction:ltr;block-progression:tb;writing-mode:lr-tb;text-anchor:start;color:#000000;fill:#969696;fill-opacity:0;fill-rule:nonzero;stroke:none;stroke-width:0.60000002;marker:none;visibility:visible;display:inline;overflow:visible;enable-background:accumulate;font-family:'A.C.M.E. Secret Agent';-inkscape-font-specification:'A.C.M.E. Secret Agent'"
       d="m 58.132652,11.159876 7.613225,0 c 0.297484,0 0.538308,0.240827 0.538308,0.538309 l 0,5.459989 c 0,0.297483 -0.234899,0.519084 -0.538308,0.519084 l -10.939204,0 c -0.236481,0 -0.389908,-0.174086 -0.461408,-0.384506 l 3.787387,-6.132876 z"
       id="path3626"
       sodipodi:nodetypes="cccccccc" />
    <path
       style="font-size:medium;font-style:normal;font-variant:normal;font-weight:normal;font-stretch:normal;text-indent:0;text-align:start;text-decoration:none;line-height:normal;letter-spacing:normal;word-spacing:normal;text-transform:none;direction:ltr;block-progression:tb;writing-mode:lr-tb;text-anchor:start;color:#000000;fill:#969696;fill-opacity:0;fill-rule:nonzero;stroke:none;stroke-width:0.60000002;marker:none;visibility:visible;display:inline;overflow:visible;enable-background:accumulate;font-family:'A.C.M.E. Secret Agent';-inkscape-font-specification:'A.C.M.E. Secret Agent'"
       d="m 54.691321,18.042539 c 0.03864,0.0066 0.0717,0.01922 0.115352,0.01922 l 7.113366,0 3.97964,6.459706 c 0.154522,0.25169 0.0633,0.593205 -0.192253,0.749787 L 61.0549,28.116604 c -0.258942,0.158657 -0.572625,0.08422 -0.730562,-0.173028 l -5.729144,-9.305052 c -0.118815,-0.193536 -0.0462,-0.422246 0.09613,-0.595985 z"
       id="path3628"
       sodipodi:nodetypes="ccccccccc" />
    <path
       style="font-size:medium;font-style:normal;font-variant:normal;font-weight:normal;font-stretch:normal;text-indent:0;text-align:start;text-decoration:none;line-height:normal;letter-spacing:normal;word-spacing:normal;text-transform:none;direction:ltr;block-progression:tb;writing-mode:lr-tb;text-anchor:start;color:#000000;fill:#969696;fill-opacity:0;fill-rule:nonzero;stroke:none;stroke-width:0.60000002;marker:none;visibility:visible;display:inline;overflow:visible;enable-background:accumulate;font-family:'A.C.M.E. Secret Agent';-inkscape-font-specification:'A.C.M.E. Secret Agent'"
       d="m 54.249138,18.73465 c 0.0144,0.03178 0.0195,0.06531 0.03845,0.09613 l 3.748936,6.094424 -4.094992,6.671185 c -0.155297,0.252947 -0.493484,0.330068 -0.749787,0.173027 L 48.53922,28.924067 C 48.281995,28.766462 48.207406,28.45214 48.366192,28.193505 l 5.709919,-9.324278 c 0.03974,-0.06473 0.113414,-0.09597 0.173027,-0.134577 z"
       id="path3630"
       sodipodi:nodetypes="ccccccccc" />
    <path
       style="font-size:medium;font-style:normal;font-variant:normal;font-weight:normal;font-stretch:normal;text-indent:0;text-align:start;text-decoration:none;line-height:normal;letter-spacing:normal;word-spacing:normal;text-transform:none;direction:ltr;block-progression:tb;writing-mode:lr-tb;text-anchor:start;color:#000000;fill:#969696;fill-opacity:0.07843137;fill-rule:nonzero;stroke:none;stroke-width:0.60000002;marker:none;visibility:visible;display:inline;overflow:visible;enable-background:accumulate;font-family:'A.C.M.E. Secret Agent';-inkscape-font-specification:'A.C.M.E. Secret Agent'"
       d="m 42.214092,18.330919 10.939204,0 c 0.297964,0 0.53036,0.210408 0.538308,0.499858 l -3.69126,5.998298 -7.786252,0 c -0.303397,0 -0.519084,-0.215681 -0.519084,-0.519084 l 0,-5.459989 c 0,-0.303403 0.215687,-0.519083 0.519084,-0.519083 z"
       id="path3632"
       sodipodi:nodetypes="cccccccc" />
    <path
       style="font-size:medium;font-style:normal;font-variant:normal;font-weight:normal;font-stretch:normal;text-indent:0;text-align:start;text-decoration:none;line-height:normal;letter-spacing:normal;word-spacing:normal;text-transform:none;direction:ltr;block-progression:tb;writing-mode:lr-tb;text-anchor:start;color:#000000;fill:#969696;fill-opacity:0.39215686;fill-rule:nonzero;stroke:none;stroke-width:0.60000002;marker:none;visibility:visible;display:inline;overflow:visible;enable-background:accumulate;font-family:'A.C.M.E. Secret Agent';-inkscape-font-specification:'A.C.M.E. Secret Agent'"
       d="m 47.251093,7.6800942 c 0.0043,-9.228e-4 0.01544,5.758e-4 0.0192,0 0.201456,-0.030631 0.440189,0.078025 0.557534,0.2691544 l 5.70998,9.3050524 c 0.157168,0.255993 0.07989,0.594823 -0.173028,0.749787 -0.06557,-0.0213 -0.122341,-0.05768 -0.211478,-0.05768 l -6.863438,0 -4.037316,-6.594283 c -0.158791,-0.258631 -0.0842,-0.572953 0.173023,-0.730558 l 4.652526,-2.8453463 c 0.06942,-0.042536 0.125971,-0.064931 0.173028,-0.076901 l 0,-0.019225 -3.1e-5,0 z"
       id="path3634"
       sodipodi:nodetypes="csccccccccccc" />
    <path
       style="font-size:medium;font-style:normal;font-variant:normal;font-weight:normal;font-stretch:normal;text-indent:0;text-align:start;text-decoration:none;line-height:normal;letter-spacing:normal;word-spacing:normal;text-transform:none;direction:ltr;block-progression:tb;writing-mode:lr-tb;text-anchor:start;color:#000000;fill:#969696;fill-opacity:0.78431373;fill-rule:nonzero;stroke:none;stroke-width:0.60000002;marker:none;visibility:visible;display:inline;overflow:visible;enable-background:accumulate;font-family:'A.C.M.E. Secret Agent';-inkscape-font-specification:'A.C.M.E. Secret Agent'"
       d="m 54.499068,4.1618616 c 0.128622,-0.030828 0.269831,-0.00514 0.403731,0.076901 l 4.652526,2.8453466 c 0.255552,0.156582 0.346776,0.4980975 0.192253,0.7497873 l -5.729143,9.3050525 c -0.02885,0.04695 -0.07806,0.06226 -0.115352,0.09613 -0.01883,-0.05967 -0.02245,-0.115611 -0.05764,-0.173028 l -3.729742,-6.055974 4.056541,-6.5942835 c 0.08005,-0.1303766 0.195496,-0.2184515 0.326831,-0.2499291 z"
       id="path3636"
       sodipodi:nodetypes="cccccscccc" />
  </g>
  <g
     id="g3733"
     transform="translate(1,-1.1621517e-6)">
    <path
       style="font-size:medium;font-style:normal;font-variant:normal;font-weight:normal;font-stretch:normal;text-indent:0;text-align:start;text-decoration:none;line-height:normal;letter-spacing:normal;word-spacing:normal;text-transform:none;direction:ltr;block-progression:tb;writing-mode:lr-tb;text-anchor:start;color:#000000;fill:#969696;fill-opacity:0.78431373;fill-rule:nonzero;stroke:none;stroke-width:0.60000002;marker:none;visibility:visible;display:inline;overflow:visible;enable-background:accumulate;font-family:'A.C.M.E. Secret Agent';-inkscape-font-specification:'A.C.M.E. Secret Agent'"
       d="m 92.132652,11.159876 7.613225,0 c 0.297483,0 0.538303,0.240827 0.538303,0.538309 l 0,5.459989 c 0,0.297483 -0.23489,0.519084 -0.538303,0.519084 l -10.939204,0 c -0.236481,0 -0.389908,-0.174086 -0.461408,-0.384506 l 3.787387,-6.132876 z"
       id="path3650"
       sodipodi:nodetypes="cccccccc" />
    <path
       style="font-size:medium;font-style:normal;font-variant:normal;font-weight:normal;font-stretch:normal;text-indent:0;text-align:start;text-decoration:none;line-height:normal;letter-spacing:normal;word-spacing:normal;text-transform:none;direction:ltr;block-progression:tb;writing-mode:lr-tb;text-anchor:start;color:#000000;fill:#969696;fill-opacity:0;fill-rule:nonzero;stroke:none;stroke-width:0.60000002;marker:none;visibility:visible;display:inline;overflow:visible;enable-background:accumulate;font-family:'A.C.M.E. Secret Agent';-inkscape-font-specification:'A.C.M.E. Secret Agent'"
       d="m 88.691321,18.042539 c 0.03864,0.0066 0.0717,0.01922 0.115352,0.01922 l 7.113366,0 3.97964,6.459706 c 0.154521,0.25169 0.0633,0.593205 -0.192253,0.749787 L 95.0549,28.116604 c -0.258942,0.158657 -0.572625,0.08422 -0.730562,-0.173028 l -5.729144,-9.305052 c -0.118815,-0.193536 -0.0462,-0.422246 0.09613,-0.595985 z"
       id="path3652"
       sodipodi:nodetypes="ccccccccc" />
    <path
       style="font-size:medium;font-style:normal;font-variant:normal;font-weight:normal;font-stretch:normal;text-indent:0;text-align:start;text-decoration:none;line-height:normal;letter-spacing:normal;word-spacing:normal;text-transform:none;direction:ltr;block-progression:tb;writing-mode:lr-tb;text-anchor:start;color:#000000;fill:#969696;fill-opacity:0;fill-rule:nonzero;stroke:none;stroke-width:0.60000002;marker:none;visibility:visible;display:inline;overflow:visible;enable-background:accumulate;font-family:'A.C.M.E. Secret Agent';-inkscape-font-specification:'A.C.M.E. Secret Agent'"
       d="m 88.249138,18.73465 c 0.0144,0.03178 0.0195,0.06531 0.03845,0.09613 l 3.748936,6.094424 -4.094992,6.671185 c -0.155297,0.252947 -0.493484,0.330068 -0.749787,0.173027 L 82.53922,28.924067 C 82.281995,28.766462 82.207406,28.45214 82.366192,28.193505 l 5.709919,-9.324278 c 0.03974,-0.06473 0.113414,-0.09597 0.173027,-0.134577 z"
       id="path3654"
       sodipodi:nodetypes="ccccccccc" />
    <path
       style="font-size:medium;font-style:normal;font-variant:normal;font-weight:normal;font-stretch:normal;text-indent:0;text-align:start;text-decoration:none;line-height:normal;letter-spacing:normal;word-spacing:normal;text-transform:none;direction:ltr;block-progression:tb;writing-mode:lr-tb;text-anchor:start;color:#000000;fill:#969696;fill-opacity:0;fill-rule:nonzero;stroke:none;stroke-width:0.60000002;marker:none;visibility:visible;display:inline;overflow:visible;enable-background:accumulate;font-family:'A.C.M.E. Secret Agent';-inkscape-font-specification:'A.C.M.E. Secret Agent'"
       d="m 76.214092,18.330919 10.939204,0 c 0.297964,0 0.53036,0.210408 0.538308,0.499858 l -3.69126,5.998298 -7.786252,0 c -0.303397,0 -0.519084,-0.215681 -0.519084,-0.519084 l 0,-5.459989 c 0,-0.303403 0.215687,-0.519083 0.519084,-0.519083 z"
       id="path3656"
       sodipodi:nodetypes="cccccccc" />
    <path
       style="font-size:medium;font-style:normal;font-variant:normal;font-weight:normal;font-stretch:normal;text-indent:0;text-align:start;text-decoration:none;line-height:normal;letter-spacing:normal;word-spacing:normal;text-transform:none;direction:ltr;block-progression:tb;writing-mode:lr-tb;text-anchor:start;color:#000000;fill:#969696;fill-opacity:0.07843137;fill-rule:nonzero;stroke:none;stroke-width:0.60000002;marker:none;visibility:visible;display:inline;overflow:visible;enable-background:accumulate;font-family:'A.C.M.E. Secret Agent';-inkscape-font-specification:'A.C.M.E. Secret Agent'"
       d="m 81.251093,7.6800942 c 0.0043,-9.228e-4 0.01544,5.758e-4 0.0192,0 0.201456,-0.030631 0.440189,0.078025 0.557534,0.2691544 l 5.70998,9.3050524 c 0.157168,0.255993 0.07989,0.594823 -0.173028,0.749787 -0.06557,-0.0213 -0.122341,-0.05768 -0.211478,-0.05768 l -6.863438,0 -4.037316,-6.594283 c -0.158791,-0.258631 -0.0842,-0.572953 0.173023,-0.730558 l 4.652526,-2.8453463 c 0.06942,-0.042536 0.125971,-0.064931 0.173028,-0.076901 l 0,-0.019225 -3.1e-5,0 z"
       id="path3658"
       sodipodi:nodetypes="csccccccccccc" />
    <path
       style="font-size:medium;font-style:normal;font-variant:normal;font-weight:normal;font-stretch:normal;text-indent:0;text-align:start;text-decoration:none;line-height:normal;letter-spacing:normal;word-spacing:normal;text-transform:none;direction:ltr;block-progression:tb;writing-mode:lr-tb;text-anchor:start;color:#000000;fill:#969696;fill-opacity:0.39215686;fill-rule:nonzero;stroke:none;stroke-width:0.60000002;marker:none;visibility:visible;display:inline;overflow:visible;enable-background:accumulate;font-family:'A.C.M.E. Secret Agent';-inkscape-font-specification:'A.C.M.E. Secret Agent'"
       d="m 88.499068,4.1618616 c 0.128622,-0.030828 0.269831,-0.00514 0.403731,0.076901 l 4.652526,2.8453466 c 0.255552,0.156582 0.346776,0.4980975 0.192253,0.7497873 l -5.729143,9.3050525 c -0.02885,0.04695 -0.07806,0.06226 -0.115352,0.09613 -0.01883,-0.05967 -0.02245,-0.115611 -0.05764,-0.173028 l -3.729742,-6.055974 4.056541,-6.5942835 c 0.08005,-0.1303766 0.195496,-0.2184515 0.326831,-0.2499291 z"
       id="path3660"
       sodipodi:nodetypes="cccccscccc" />
  </g>
  <g
     id="g3741"
     transform="translate(-1.25,-1.1621517e-6)">
    <path
       sodipodi:nodetypes="cccccccc"
       id="path3662"
       d="m 130.13265,11.159876 7.61323,0 c 0.29748,0 0.5383,0.240827 0.5383,0.538309 l 0,5.459989 c 0,0.297483 -0.23489,0.519084 -0.5383,0.519084 l -10.93921,0 c -0.23648,0 -0.38991,-0.174086 -0.46141,-0.384506 l 3.78739,-6.132876 z"
       style="font-size:medium;font-style:normal;font-variant:normal;font-weight:normal;font-stretch:normal;text-indent:0;text-align:start;text-decoration:none;line-height:normal;letter-spacing:normal;word-spacing:normal;text-transform:none;direction:ltr;block-progression:tb;writing-mode:lr-tb;text-anchor:start;color:#000000;fill:#969696;fill-opacity:0.39215686;fill-rule:nonzero;stroke:none;stroke-width:0.60000002;marker:none;visibility:visible;display:inline;overflow:visible;enable-background:accumulate;font-family:'A.C.M.E. Secret Agent';-inkscape-font-specification:'A.C.M.E. Secret Agent'" />
    <path
       sodipodi:nodetypes="ccccccccc"
       id="path3664"
       d="m 126.69132,18.042539 c 0.0386,0.0066 0.0717,0.01922 0.11535,0.01922 l 7.11337,0 3.97964,6.459706 c 0.15452,0.25169 0.0633,0.593205 -0.19225,0.749787 l -4.65253,2.845352 c -0.25894,0.158657 -0.57262,0.08422 -0.73056,-0.173028 l -5.72915,-9.305052 c -0.11881,-0.193536 -0.0462,-0.422246 0.0961,-0.595985 z"
       style="font-size:medium;font-style:normal;font-variant:normal;font-weight:normal;font-stretch:normal;text-indent:0;text-align:start;text-decoration:none;line-height:normal;letter-spacing:normal;word-spacing:normal;text-transform:none;direction:ltr;block-progression:tb;writing-mode:lr-tb;text-anchor:start;color:#000000;fill:#969696;fill-opacity:0.78431373;fill-rule:nonzero;stroke:none;stroke-width:0.60000002;marker:none;visibility:visible;display:inline;overflow:visible;enable-background:accumulate;font-family:'A.C.M.E. Secret Agent';-inkscape-font-specification:'A.C.M.E. Secret Agent'" />
    <path
       sodipodi:nodetypes="ccccccccc"
       id="path3666"
       d="m 126.24914,18.73465 c 0.0144,0.03178 0.0195,0.06531 0.0384,0.09613 l 3.74893,6.094424 -4.09499,6.671185 c -0.1553,0.252947 -0.49348,0.330068 -0.74979,0.173027 l -4.65247,-2.845349 c -0.25723,-0.157605 -0.33181,-0.471927 -0.17303,-0.730562 l 5.70992,-9.324278 c 0.0397,-0.06473 0.11342,-0.09597 0.17303,-0.134577 z"
       style="font-size:medium;font-style:normal;font-variant:normal;font-weight:normal;font-stretch:normal;text-indent:0;text-align:start;text-decoration:none;line-height:normal;letter-spacing:normal;word-spacing:normal;text-transform:none;direction:ltr;block-progression:tb;writing-mode:lr-tb;text-anchor:start;color:#000000;fill:#969696;fill-opacity:0;fill-rule:nonzero;stroke:none;stroke-width:0.60000002;marker:none;visibility:visible;display:inline;overflow:visible;enable-background:accumulate;font-family:'A.C.M.E. Secret Agent';-inkscape-font-specification:'A.C.M.E. Secret Agent'" />
    <path
       sodipodi:nodetypes="cccccccc"
       id="path3668"
       d="m 114.21409,18.330919 10.93921,0 c 0.29796,0 0.53036,0.210408 0.5383,0.499858 l -3.69126,5.998298 -7.78625,0 c -0.30339,0 -0.51908,-0.215681 -0.51908,-0.519084 l 0,-5.459989 c 0,-0.303403 0.21569,-0.519083 0.51908,-0.519083 z"
       style="font-size:medium;font-style:normal;font-variant:normal;font-weight:normal;font-stretch:normal;text-indent:0;text-align:start;text-decoration:none;line-height:normal;letter-spacing:normal;word-spacing:normal;text-transform:none;direction:ltr;block-progression:tb;writing-mode:lr-tb;text-anchor:start;color:#000000;fill:#969696;fill-opacity:0;fill-rule:nonzero;stroke:none;stroke-width:0.60000002;marker:none;visibility:visible;display:inline;overflow:visible;enable-background:accumulate;font-family:'A.C.M.E. Secret Agent';-inkscape-font-specification:'A.C.M.E. Secret Agent'" />
    <path
       sodipodi:nodetypes="csccccccccccc"
       id="path3670"
       d="m 119.25109,7.6800942 c 0.004,-9.228e-4 0.0154,5.758e-4 0.0192,0 0.20146,-0.030631 0.44019,0.078025 0.55754,0.2691544 l 5.70998,9.3050524 c 0.15717,0.255993 0.0799,0.594823 -0.17303,0.749787 -0.0656,-0.0213 -0.12234,-0.05768 -0.21148,-0.05768 l -6.86344,0 -4.03731,-6.594283 c -0.15879,-0.258631 -0.0842,-0.572953 0.17302,-0.730558 l 4.65253,-2.8453463 c 0.0694,-0.042536 0.12597,-0.064931 0.17302,-0.076901 l 0,-0.019225 -3e-5,0 z"
       style="font-size:medium;font-style:normal;font-variant:normal;font-weight:normal;font-stretch:normal;text-indent:0;text-align:start;text-decoration:none;line-height:normal;letter-spacing:normal;word-spacing:normal;text-transform:none;direction:ltr;block-progression:tb;writing-mode:lr-tb;text-anchor:start;color:#000000;fill:#969696;fill-opacity:0;fill-rule:nonzero;stroke:none;stroke-width:0.60000002;marker:none;visibility:visible;display:inline;overflow:visible;enable-background:accumulate;font-family:'A.C.M.E. Secret Agent';-inkscape-font-specification:'A.C.M.E. Secret Agent'" />
    <path
       sodipodi:nodetypes="cccccscccc"
       id="path3672"
       d="m 126.49907,4.1618616 c 0.12862,-0.030828 0.26983,-0.00514 0.40373,0.076901 l 4.65252,2.8453466 c 0.25556,0.156582 0.34678,0.4980975 0.19226,0.7497873 l -5.72915,9.3050525 c -0.0288,0.04695 -0.078,0.06226 -0.11535,0.09613 -0.0188,-0.05967 -0.0225,-0.115611 -0.0576,-0.173028 l -3.72974,-6.055974 4.05654,-6.5942835 c 0.08,-0.1303766 0.1955,-0.2184515 0.32683,-0.2499291 z"
       style="font-size:medium;font-style:normal;font-variant:normal;font-weight:normal;font-stretch:normal;text-indent:0;text-align:start;text-decoration:none;line-height:normal;letter-spacing:normal;word-spacing:normal;text-transform:none;direction:ltr;block-progression:tb;writing-mode:lr-tb;text-anchor:start;color:#000000;fill:#969696;fill-opacity:0.07843137;fill-rule:nonzero;stroke:none;stroke-width:0.60000002;marker:none;visibility:visible;display:inline;overflow:visible;enable-background:accumulate;font-family:'A.C.M.E. Secret Agent';-inkscape-font-specification:'A.C.M.E. Secret Agent'" />
  </g>
  <g
     id="g3749"
     transform="translate(0.75,-1.1621517e-6)">
    <path
       style="font-size:medium;font-style:normal;font-variant:normal;font-weight:normal;font-stretch:normal;text-indent:0;text-align:start;text-decoration:none;line-height:normal;letter-spacing:normal;word-spacing:normal;text-transform:none;direction:ltr;block-progression:tb;writing-mode:lr-tb;text-anchor:start;color:#000000;fill:#969696;fill-opacity:0.07843137;fill-rule:nonzero;stroke:none;stroke-width:0.60000002;marker:none;visibility:visible;display:inline;overflow:visible;enable-background:accumulate;font-family:'A.C.M.E. Secret Agent';-inkscape-font-specification:'A.C.M.E. Secret Agent'"
       d="m 164.13265,11.159876 7.61323,0 c 0.29748,0 0.5383,0.240827 0.5383,0.538309 l 0,5.459989 c 0,0.297483 -0.23489,0.519084 -0.5383,0.519084 l -10.93921,0 c -0.23648,0 -0.38991,-0.174086 -0.46141,-0.384506 l 3.78739,-6.132876 z"
       id="path3674"
       sodipodi:nodetypes="cccccccc" />
    <path
       style="font-size:medium;font-style:normal;font-variant:normal;font-weight:normal;font-stretch:normal;text-indent:0;text-align:start;text-decoration:none;line-height:normal;letter-spacing:normal;word-spacing:normal;text-transform:none;direction:ltr;block-progression:tb;writing-mode:lr-tb;text-anchor:start;color:#000000;fill:#969696;fill-opacity:0.39215686;fill-rule:nonzero;stroke:none;stroke-width:0.60000002;marker:none;visibility:visible;display:inline;overflow:visible;enable-background:accumulate;font-family:'A.C.M.E. Secret Agent';-inkscape-font-specification:'A.C.M.E. Secret Agent'"
       d="m 160.69132,18.042539 c 0.0386,0.0066 0.0717,0.01922 0.11535,0.01922 l 7.11337,0 3.97964,6.459706 c 0.15452,0.25169 0.0633,0.593205 -0.19225,0.749787 l -4.65253,2.845352 c -0.25894,0.158657 -0.57262,0.08422 -0.73056,-0.173028 l -5.72915,-9.305052 c -0.11881,-0.193536 -0.0462,-0.422246 0.0961,-0.595985 z"
       id="path3676"
       sodipodi:nodetypes="ccccccccc" />
    <path
       style="font-size:medium;font-style:normal;font-variant:normal;font-weight:normal;font-stretch:normal;text-indent:0;text-align:start;text-decoration:none;line-height:normal;letter-spacing:normal;word-spacing:normal;text-transform:none;direction:ltr;block-progression:tb;writing-mode:lr-tb;text-anchor:start;color:#000000;fill:#969696;fill-opacity:0.78431373;fill-rule:nonzero;stroke:none;stroke-width:0.60000002;marker:none;visibility:visible;display:inline;overflow:visible;enable-background:accumulate;font-family:'A.C.M.E. Secret Agent';-inkscape-font-specification:'A.C.M.E. Secret Agent'"
       d="m 160.24914,18.73465 c 0.0144,0.03178 0.0195,0.06531 0.0384,0.09613 l 3.74893,6.094424 -4.09499,6.671185 c -0.1553,0.252947 -0.49348,0.330068 -0.74979,0.173027 l -4.65247,-2.845349 c -0.25723,-0.157605 -0.33181,-0.471927 -0.17303,-0.730562 l 5.70992,-9.324278 c 0.0397,-0.06473 0.11342,-0.09597 0.17303,-0.134577 z"
       id="path3678"
       sodipodi:nodetypes="ccccccccc" />
    <path
       style="font-size:medium;font-style:normal;font-variant:normal;font-weight:normal;font-stretch:normal;text-indent:0;text-align:start;text-decoration:none;line-height:normal;letter-spacing:normal;word-spacing:normal;text-transform:none;direction:ltr;block-progression:tb;writing-mode:lr-tb;text-anchor:start;color:#000000;fill:#969696;fill-opacity:0;fill-rule:nonzero;stroke:none;stroke-width:0.60000002;marker:none;visibility:visible;display:inline;overflow:visible;enable-background:accumulate;font-family:'A.C.M.E. Secret Agent';-inkscape-font-specification:'A.C.M.E. Secret Agent'"
       d="m 148.21409,18.330919 10.93921,0 c 0.29796,0 0.53036,0.210408 0.5383,0.499858 l -3.69126,5.998298 -7.78625,0 c -0.30339,0 -0.51908,-0.215681 -0.51908,-0.519084 l 0,-5.459989 c 0,-0.303403 0.21569,-0.519083 0.51908,-0.519083 z"
       id="path3680"
       sodipodi:nodetypes="cccccccc" />
    <path
       style="font-size:medium;font-style:normal;font-variant:normal;font-weight:normal;font-stretch:normal;text-indent:0;text-align:start;text-decoration:none;line-height:normal;letter-spacing:normal;word-spacing:normal;text-transform:none;direction:ltr;block-progression:tb;writing-mode:lr-tb;text-anchor:start;color:#000000;fill:#969696;fill-opacity:0;fill-rule:nonzero;stroke:none;stroke-width:0.60000002;marker:none;visibility:visible;display:inline;overflow:visible;enable-background:accumulate;font-family:'A.C.M.E. Secret Agent';-inkscape-font-specification:'A.C.M.E. Secret Agent'"
       d="m 153.25109,7.6800942 c 0.004,-9.228e-4 0.0154,5.758e-4 0.0192,0 0.20146,-0.030631 0.44019,0.078025 0.55754,0.2691544 l 5.70998,9.3050524 c 0.15717,0.255993 0.0799,0.594823 -0.17303,0.749787 -0.0656,-0.0213 -0.12234,-0.05768 -0.21148,-0.05768 l -6.86344,0 -4.03731,-6.594283 c -0.15879,-0.258631 -0.0842,-0.572953 0.17302,-0.730558 l 4.65253,-2.8453463 c 0.0694,-0.042536 0.12597,-0.064931 0.17302,-0.076901 l 0,-0.019225 -3e-5,0 z"
       id="path3682"
       sodipodi:nodetypes="csccccccccccc" />
    <path
       style="font-size:medium;font-style:normal;font-variant:normal;font-weight:normal;font-stretch:normal;text-indent:0;text-align:start;text-decoration:none;line-height:normal;letter-spacing:normal;word-spacing:normal;text-transform:none;direction:ltr;block-progression:tb;writing-mode:lr-tb;text-anchor:start;color:#000000;fill:#969696;fill-opacity:0;fill-rule:nonzero;stroke:none;stroke-width:0.60000002;marker:none;visibility:visible;display:inline;overflow:visible;enable-background:accumulate;font-family:'A.C.M.E. Secret Agent';-inkscape-font-specification:'A.C.M.E. Secret Agent'"
       d="m 160.49907,4.1618616 c 0.12862,-0.030828 0.26983,-0.00514 0.40373,0.076901 l 4.65252,2.8453466 c 0.25556,0.156582 0.34678,0.4980975 0.19226,0.7497873 l -5.72915,9.3050525 c -0.0288,0.04695 -0.078,0.06226 -0.11535,0.09613 -0.0188,-0.05967 -0.0225,-0.115611 -0.0576,-0.173028 l -3.72974,-6.055974 4.05654,-6.5942835 c 0.08,-0.1303766 0.1955,-0.2184515 0.32683,-0.2499291 z"
       id="path3684"
       sodipodi:nodetypes="cccccscccc" />
  </g>
  <g
     id="g3757"
     transform="translate(2,-1.1621517e-6)">
    <path
       sodipodi:nodetypes="cccccccc"
       id="path3686"
       d="m 200.13265,11.159876 7.61323,0 c 0.29748,0 0.5383,0.240827 0.5383,0.538309 l 0,5.459989 c 0,0.297483 -0.23489,0.519084 -0.5383,0.519084 l -10.93921,0 c -0.23648,0 -0.38991,-0.174086 -0.46141,-0.384506 l 3.78739,-6.132876 z"
       style="font-size:medium;font-style:normal;font-variant:normal;font-weight:normal;font-stretch:normal;text-indent:0;text-align:start;text-decoration:none;line-height:normal;letter-spacing:normal;word-spacing:normal;text-transform:none;direction:ltr;block-progression:tb;writing-mode:lr-tb;text-anchor:start;color:#000000;fill:#969696;fill-opacity:0;fill-rule:nonzero;stroke:none;stroke-width:0.60000002;marker:none;visibility:visible;display:inline;overflow:visible;enable-background:accumulate;font-family:'A.C.M.E. Secret Agent';-inkscape-font-specification:'A.C.M.E. Secret Agent'" />
    <path
       sodipodi:nodetypes="ccccccccc"
       id="path3688"
       d="m 196.69132,18.042539 c 0.0386,0.0066 0.0717,0.01922 0.11535,0.01922 l 7.11337,0 3.97964,6.459706 c 0.15452,0.25169 0.0633,0.593205 -0.19225,0.749787 l -4.65253,2.845352 c -0.25894,0.158657 -0.57262,0.08422 -0.73056,-0.173028 l -5.72915,-9.305052 c -0.11881,-0.193536 -0.0462,-0.422246 0.0961,-0.595985 z"
       style="font-size:medium;font-style:normal;font-variant:normal;font-weight:normal;font-stretch:normal;text-indent:0;text-align:start;text-decoration:none;line-height:normal;letter-spacing:normal;word-spacing:normal;text-transform:none;direction:ltr;block-progression:tb;writing-mode:lr-tb;text-anchor:start;color:#000000;fill:#969696;fill-opacity:0.07843137;fill-rule:nonzero;stroke:none;stroke-width:0.60000002;marker:none;visibility:visible;display:inline;overflow:visible;enable-background:accumulate;font-family:'A.C.M.E. Secret Agent';-inkscape-font-specification:'A.C.M.E. Secret Agent'" />
    <path
       sodipodi:nodetypes="ccccccccc"
       id="path3690"
       d="m 196.24914,18.73465 c 0.0144,0.03178 0.0195,0.06531 0.0384,0.09613 l 3.74893,6.094424 -4.09499,6.671185 c -0.1553,0.252947 -0.49348,0.330068 -0.74979,0.173027 l -4.65247,-2.845349 c -0.25723,-0.157605 -0.33181,-0.471927 -0.17303,-0.730562 l 5.70992,-9.324278 c 0.0397,-0.06473 0.11342,-0.09597 0.17303,-0.134577 z"
       style="font-size:medium;font-style:normal;font-variant:normal;font-weight:normal;font-stretch:normal;text-indent:0;text-align:start;text-decoration:none;line-height:normal;letter-spacing:normal;word-spacing:normal;text-transform:none;direction:ltr;block-progression:tb;writing-mode:lr-tb;text-anchor:start;color:#000000;fill:#969696;fill-opacity:0.39215686;fill-rule:nonzero;stroke:none;stroke-width:0.60000002;marker:none;visibility:visible;display:inline;overflow:visible;enable-background:accumulate;font-family:'A.C.M.E. Secret Agent';-inkscape-font-specification:'A.C.M.E. Secret Agent'" />
    <path
       sodipodi:nodetypes="cccccccc"
       id="path3692"
       d="m 184.21409,18.330919 10.93921,0 c 0.29796,0 0.53036,0.210408 0.5383,0.499858 l -3.69126,5.998298 -7.78625,0 c -0.30339,0 -0.51908,-0.215681 -0.51908,-0.519084 l 0,-5.459989 c 0,-0.303403 0.21569,-0.519083 0.51908,-0.519083 z"
       style="font-size:medium;font-style:normal;font-variant:normal;font-weight:normal;font-stretch:normal;text-indent:0;text-align:start;text-decoration:none;line-height:normal;letter-spacing:normal;word-spacing:normal;text-transform:none;direction:ltr;block-progression:tb;writing-mode:lr-tb;text-anchor:start;color:#000000;fill:#969696;fill-opacity:0.78431373;fill-rule:nonzero;stroke:none;stroke-width:0.60000002;marker:none;visibility:visible;display:inline;overflow:visible;enable-background:accumulate;font-family:'A.C.M.E. Secret Agent';-inkscape-font-specification:'A.C.M.E. Secret Agent'" />
    <path
       sodipodi:nodetypes="csccccccccccc"
       id="path3694"
       d="m 189.25109,7.6800942 c 0.004,-9.228e-4 0.0154,5.758e-4 0.0192,0 0.20146,-0.030631 0.44019,0.078025 0.55754,0.2691544 l 5.70998,9.3050524 c 0.15717,0.255993 0.0799,0.594823 -0.17303,0.749787 -0.0656,-0.0213 -0.12234,-0.05768 -0.21148,-0.05768 l -6.86344,0 -4.03731,-6.594283 c -0.15879,-0.258631 -0.0842,-0.572953 0.17302,-0.730558 l 4.65253,-2.8453463 c 0.0694,-0.042536 0.12597,-0.064931 0.17302,-0.076901 l 0,-0.019225 -3e-5,0 z"
       style="font-size:medium;font-style:normal;font-variant:normal;font-weight:normal;font-stretch:normal;text-indent:0;text-align:start;text-decoration:none;line-height:normal;letter-spacing:normal;word-spacing:normal;text-transform:none;direction:ltr;block-progression:tb;writing-mode:lr-tb;text-anchor:start;color:#000000;fill:#969696;fill-opacity:0;fill-rule:nonzero;stroke:none;stroke-width:0.60000002;marker:none;visibility:visible;display:inline;overflow:visible;enable-background:accumulate;font-family:'A.C.M.E. Secret Agent';-inkscape-font-specification:'A.C.M.E. Secret Agent'" />
    <path
       sodipodi:nodetypes="cccccscccc"
       id="path3696"
       d="m 196.49907,4.1618616 c 0.12862,-0.030828 0.26983,-0.00514 0.40373,0.076901 l 4.65252,2.8453466 c 0.25556,0.156582 0.34678,0.4980975 0.19226,0.7497873 l -5.72915,9.3050525 c -0.0288,0.04695 -0.078,0.06226 -0.11535,0.09613 -0.0188,-0.05967 -0.0225,-0.115611 -0.0576,-0.173028 l -3.72974,-6.055974 4.05654,-6.5942835 c 0.08,-0.1303766 0.1955,-0.2184515 0.32683,-0.2499291 z"
       style="font-size:medium;font-style:normal;font-variant:normal;font-weight:normal;font-stretch:normal;text-indent:0;text-align:start;text-decoration:none;line-height:normal;letter-spacing:normal;word-spacing:normal;text-transform:none;direction:ltr;block-progression:tb;writing-mode:lr-tb;text-anchor:start;color:#000000;fill:#969696;fill-opacity:0;fill-rule:nonzero;stroke:none;stroke-width:0.60000002;marker:none;visibility:visible;display:inline;overflow:visible;enable-background:accumulate;font-family:'A.C.M.E. Secret Agent';-inkscape-font-specification:'A.C.M.E. Secret Agent'" />
  </g>
  <g
     id="g3765"
     transform="translate(1.5,-1.1621517e-6)">
    <path
       style="font-size:medium;font-style:normal;font-variant:normal;font-weight:normal;font-stretch:normal;text-indent:0;text-align:start;text-decoration:none;line-height:normal;letter-spacing:normal;word-spacing:normal;text-transform:none;direction:ltr;block-progression:tb;writing-mode:lr-tb;text-anchor:start;color:#000000;fill:#969696;fill-opacity:0;fill-rule:nonzero;stroke:none;stroke-width:0.60000002;marker:none;visibility:visible;display:inline;overflow:visible;enable-background:accumulate;font-family:'A.C.M.E. Secret Agent';-inkscape-font-specification:'A.C.M.E. Secret Agent'"
       d="m 236.13265,11.159876 7.61323,0 c 0.29748,0 0.5383,0.240827 0.5383,0.538309 l 0,5.459989 c 0,0.297483 -0.23489,0.519084 -0.5383,0.519084 l -10.93921,0 c -0.23648,0 -0.38991,-0.174086 -0.46141,-0.384506 l 3.78739,-6.132876 z"
       id="path3698"
       sodipodi:nodetypes="cccccccc" />
    <path
       style="font-size:medium;font-style:normal;font-variant:normal;font-weight:normal;font-stretch:normal;text-indent:0;text-align:start;text-decoration:none;line-height:normal;letter-spacing:normal;word-spacing:normal;text-transform:none;direction:ltr;block-progression:tb;writing-mode:lr-tb;text-anchor:start;color:#000000;fill:#969696;fill-opacity:0;fill-rule:nonzero;stroke:none;stroke-width:0.60000002;marker:none;visibility:visible;display:inline;overflow:visible;enable-background:accumulate;font-family:'A.C.M.E. Secret Agent';-inkscape-font-specification:'A.C.M.E. Secret Agent'"
       d="m 232.69132,18.042539 c 0.0386,0.0066 0.0717,0.01922 0.11535,0.01922 l 7.11337,0 3.97964,6.459706 c 0.15452,0.25169 0.0633,0.593205 -0.19225,0.749787 l -4.65253,2.845352 c -0.25894,0.158657 -0.57262,0.08422 -0.73056,-0.173028 l -5.72915,-9.305052 c -0.11881,-0.193536 -0.0462,-0.422246 0.0961,-0.595985 z"
       id="path3700"
       sodipodi:nodetypes="ccccccccc" />
    <path
       style="font-size:medium;font-style:normal;font-variant:normal;font-weight:normal;font-stretch:normal;text-indent:0;text-align:start;text-decoration:none;line-height:normal;letter-spacing:normal;word-spacing:normal;text-transform:none;direction:ltr;block-progression:tb;writing-mode:lr-tb;text-anchor:start;color:#000000;fill:#969696;fill-opacity:0.07843137;fill-rule:nonzero;stroke:none;stroke-width:0.60000002;marker:none;visibility:visible;display:inline;overflow:visible;enable-background:accumulate;font-family:'A.C.M.E. Secret Agent';-inkscape-font-specification:'A.C.M.E. Secret Agent'"
       d="m 232.24914,18.73465 c 0.0144,0.03178 0.0195,0.06531 0.0384,0.09613 l 3.74893,6.094424 -4.09499,6.671185 c -0.1553,0.252947 -0.49348,0.330068 -0.74979,0.173027 l -4.65247,-2.845349 c -0.25723,-0.157605 -0.33181,-0.471927 -0.17303,-0.730562 l 5.70992,-9.324278 c 0.0397,-0.06473 0.11342,-0.09597 0.17303,-0.134577 z"
       id="path3702"
       sodipodi:nodetypes="ccccccccc" />
    <path
       style="font-size:medium;font-style:normal;font-variant:normal;font-weight:normal;font-stretch:normal;text-indent:0;text-align:start;text-decoration:none;line-height:normal;letter-spacing:normal;word-spacing:normal;text-transform:none;direction:ltr;block-progression:tb;writing-mode:lr-tb;text-anchor:start;color:#000000;fill:#969696;fill-opacity:0.39215686;fill-rule:nonzero;stroke:none;stroke-width:0.60000002;marker:none;visibility:visible;display:inline;overflow:visible;enable-background:accumulate;font-family:'A.C.M.E. Secret Agent';-inkscape-font-specification:'A.C.M.E. Secret Agent'"
       d="m 220.21409,18.330919 10.93921,0 c 0.29796,0 0.53036,0.210408 0.5383,0.499858 l -3.69126,5.998298 -7.78625,0 c -0.30339,0 -0.51908,-0.215681 -0.51908,-0.519084 l 0,-5.459989 c 0,-0.303403 0.21569,-0.519083 0.51908,-0.519083 z"
       id="path3704"
       sodipodi:nodetypes="cccccccc" />
    <path
       style="font-size:medium;font-style:normal;font-variant:normal;font-weight:normal;font-stretch:normal;text-indent:0;text-align:start;text-decoration:none;line-height:normal;letter-spacing:normal;word-spacing:normal;text-transform:none;direction:ltr;block-progression:tb;writing-mode:lr-tb;text-anchor:start;color:#000000;fill:#969696;fill-opacity:0.78431373;fill-rule:nonzero;stroke:none;stroke-width:0.60000002;marker:none;visibility:visible;display:inline;overflow:visible;enable-background:accumulate;font-family:'A.C.M.E. Secret Agent';-inkscape-font-specification:'A.C.M.E. Secret Agent'"
       d="m 225.25109,7.6800942 c 0.004,-9.228e-4 0.0154,5.758e-4 0.0192,0 0.20146,-0.030631 0.44019,0.078025 0.55754,0.2691544 l 5.70998,9.3050524 c 0.15717,0.255993 0.0799,0.594823 -0.17303,0.749787 -0.0656,-0.0213 -0.12234,-0.05768 -0.21148,-0.05768 l -6.86344,0 -4.03731,-6.594283 c -0.15879,-0.258631 -0.0842,-0.572953 0.17302,-0.730558 l 4.65253,-2.8453463 c 0.0694,-0.042536 0.12597,-0.064931 0.17302,-0.076901 l 0,-0.019225 -3e-5,0 z"
       id="path3706"
       sodipodi:nodetypes="csccccccccccc" />
    <path
       style="font-size:medium;font-style:normal;font-variant:normal;font-weight:normal;font-stretch:normal;text-indent:0;text-align:start;text-decoration:none;line-height:normal;letter-spacing:normal;word-spacing:normal;text-transform:none;direction:ltr;block-progression:tb;writing-mode:lr-tb;text-anchor:start;color:#000000;fill:#969696;fill-opacity:0;fill-rule:nonzero;stroke:none;stroke-width:0.60000002;marker:none;visibility:visible;display:inline;overflow:visible;enable-background:accumulate;font-family:'A.C.M.E. Secret Agent';-inkscape-font-specification:'A.C.M.E. Secret Agent'"
       d="m 232.49907,4.1618616 c 0.12862,-0.030828 0.26983,-0.00514 0.40373,0.076901 l 4.65252,2.8453466 c 0.25556,0.156582 0.34678,0.4980975 0.19226,0.7497873 l -5.72915,9.3050525 c -0.0288,0.04695 -0.078,0.06226 -0.11535,0.09613 -0.0188,-0.05967 -0.0225,-0.115611 -0.0576,-0.173028 l -3.72974,-6.055974 4.05654,-6.5942835 c 0.08,-0.1303766 0.1955,-0.2184515 0.32683,-0.2499291 z"
       id="path3708"
       sodipodi:nodetypes="cccccscccc" />
  </g>
</svg>
