<?xml version="1.0" encoding="UTF-8" standalone="no"?>
<!-- Created with Inkscape (http://www.inkscape.org/) -->

<svg
   xmlns:dc="http://purl.org/dc/elements/1.1/"
   xmlns:cc="http://creativecommons.org/ns#"
   xmlns:rdf="http://www.w3.org/1999/02/22-rdf-syntax-ns#"
   xmlns:svg="http://www.w3.org/2000/svg"
   xmlns="http://www.w3.org/2000/svg"
   xmlns:xlink="http://www.w3.org/1999/xlink"
   xmlns:sodipodi="http://sodipodi.sourceforge.net/DTD/sodipodi-0.dtd"
   xmlns:inkscape="http://www.inkscape.org/namespaces/inkscape"
   width="48"
   height="48"
   id="svg2"
   version="1.1"
   inkscape:version="0.47pre4 r22446"
   sodipodi:docname="Nuovo documento 1">
  <defs
     id="defs4">
    <linearGradient
       id="linearGradient3617">
      <stop
         style="stop-color:#5785a6;stop-opacity:1;"
         offset="0"
         id="stop3619" />
      <stop
         style="stop-color:#2f5d7e;stop-opacity:1;"
         offset="1"
         id="stop3621" />
    </linearGradient>
    <linearGradient
       id="linearGradient3609">
      <stop
         style="stop-color:#ffffff;stop-opacity:1;"
         offset="0"
         id="stop3611" />
      <stop
         style="stop-color:#c8c8c8;stop-opacity:1;"
         offset="1"
         id="stop3613" />
    </linearGradient>
    <inkscape:perspective
       sodipodi:type="inkscape:persp3d"
       inkscape:vp_x="0 : 526.18109 : 1"
       inkscape:vp_y="0 : 1000 : 0"
       inkscape:vp_z="744.09448 : 526.18109 : 1"
       inkscape:persp3d-origin="372.04724 : 350.78739 : 1"
       id="perspective10" />
    <inkscape:perspective
       id="perspective2824"
       inkscape:persp3d-origin="0.5 : 0.33333333 : 1"
       inkscape:vp_z="1 : 0.5 : 1"
       inkscape:vp_y="0 : 1000 : 0"
       inkscape:vp_x="0 : 0.5 : 1"
       sodipodi:type="inkscape:persp3d" />
    <linearGradient
       inkscape:collect="always"
       xlink:href="#linearGradient3609"
       id="linearGradient3615"
       x1="17.254847"
       y1="1013.0228"
       x2="31.90206"
       y2="1046.1512"
       gradientUnits="userSpaceOnUse"
       gradientTransform="matrix(1.0211052,0,0,1.0411591,-0.52273073,-42.376833)" />
    <linearGradient
       inkscape:collect="always"
       xlink:href="#linearGradient3617"
       id="linearGradient3623"
       x1="19.132072"
       y1="1013.6768"
       x2="31.918869"
       y2="1067.9727"
       gradientUnits="userSpaceOnUse" />
    <linearGradient
       inkscape:collect="always"
       xlink:href="#linearGradient3609"
       id="linearGradient3663"
       x1="9.5987577"
       y1="1012.2246"
       x2="9.5987577"
       y2="1021.9818"
       gradientUnits="userSpaceOnUse" />
    <linearGradient
       inkscape:collect="always"
       xlink:href="#linearGradient3609"
       id="linearGradient3740"
       gradientUnits="userSpaceOnUse"
       x1="9.5987577"
       y1="1012.2246"
       x2="9.5987577"
       y2="1021.9818" />
    <linearGradient
       inkscape:collect="always"
       xlink:href="#linearGradient3617"
       id="linearGradient3742"
       gradientUnits="userSpaceOnUse"
       x1="19.132072"
       y1="1013.6768"
       x2="31.918869"
       y2="1067.9727" />
    <linearGradient
       inkscape:collect="always"
       xlink:href="#linearGradient3609"
       id="linearGradient3744"
       gradientUnits="userSpaceOnUse"
       gradientTransform="matrix(1.0211052,0,0,1.0411591,-0.52273073,-42.376833)"
       x1="17.254847"
       y1="1013.0228"
       x2="31.90206"
       y2="1046.1512" />
  </defs>
  <sodipodi:namedview
     id="base"
     pagecolor="#ffffff"
     bordercolor="#666666"
     borderopacity="1.0"
     inkscape:pageopacity="0.0"
     inkscape:pageshadow="2"
     inkscape:zoom="3.959798"
     inkscape:cx="44.489779"
     inkscape:cy="6.0844045"
     inkscape:document-units="px"
     inkscape:current-layer="layer1"
     showgrid="false"
     inkscape:window-width="1280"
     inkscape:window-height="712"
     inkscape:window-x="0"
     inkscape:window-y="25"
     inkscape:window-maximized="1" />
  <metadata
     id="metadata7">
    <rdf:RDF>
      <cc:Work
         rdf:about="">
        <dc:format>image/svg+xml</dc:format>
        <dc:type
           rdf:resource="http://purl.org/dc/dcmitype/StillImage" />
        <dc:title></dc:title>
      </cc:Work>
    </rdf:RDF>
  </metadata>
  <g
     inkscape:label="Livello 1"
     inkscape:groupmode="layer"
     id="layer1"
     transform="translate(0,-1004.3622)">
    <g
       id="g3714"
       transform="translate(-0.76658791,-0.2145)">
      <path
         style="fill:#505050;fill-opacity:0.78431373;fill-rule:nonzero;stroke:none"
         d="m 9.0399154,1006.3267 27.1977406,0 5.7802,5.9417 0,7.2272 -2.029265,0 0,1.8568 2.029265,-3e-4 0,27.9575 c 0,0.8405 -0.678837,1.5171 -1.522058,1.5171 l -13.099645,0 0,-0.4192 -5.257315,0 0,0.4192 -13.0989226,0 c -0.8432206,0 -1.5220589,-0.6766 -1.5220589,-1.5171 l 0,-26.2252 2.0295575,5e-4 0,-7.0974 -2.0295575,2e-4 0,-8.1439 c 0,-0.8405 0.6788383,-1.5171 1.5220589,-1.5171 z"
         id="path3673"
         sodipodi:nodetypes="ccccccccccccccccccccc" />
      <rect
         style="fill:#505050;fill-opacity:0.78431373;fill-rule:nonzero;stroke:none"
         id="rect3669"
         width="3.661803"
         height="4.1668792"
         x="7.5153198"
         y="1015.923"
         rx="0.5"
         ry="0.5" />
      <rect
         ry="0.5"
         rx="0.5"
         y="1015.7131"
         x="7.7678566"
         height="4.1668792"
         width="3.661803"
         id="rect3655"
         style="fill:url(#linearGradient3740);fill-opacity:1;fill-rule:nonzero;stroke:none" />
      <path
         sodipodi:nodetypes="ccccccccccccccccccccc"
         id="rect2830"
         d="m 9.2678565,1006.5767 26.8035705,0 5.696429,5.875 0,6.5785 -1.999856,0 0,2.578 1.999856,-3e-4 0,27.4688 c 0,0.831 -0.669,1.5 -1.5,1.5 l -12.562856,0 0,-0.4145 -5.875,0 0,0.4145 -12.5621435,0 c -0.831,0 -1.5,-0.669 -1.5,-1.5 l 0,-25.625 2.0001435,5e-4 0,-7.978 -2.0001435,3e-4 0,-7.3978 c 0,-0.831 0.669,-1.5 1.5,-1.5 z"
         style="fill:url(#linearGradient3742);fill-opacity:1;fill-rule:nonzero;stroke:none" />
      <rect
         style="fill:#5583a4;fill-opacity:1;fill-rule:nonzero;stroke:none"
         id="rect3647"
         width="27.400389"
         height="36.49176"
         x="11.067662"
         y="1011.4676"
         rx="1.5"
         ry="1.5" />
      <rect
         style="fill:#053354;fill-opacity:1;fill-rule:nonzero;stroke:none"
         id="rect3645"
         width="27.400389"
         height="36.49176"
         x="11.067662"
         y="1011.1833"
         rx="1.5"
         ry="1.5" />
      <rect
         ry="1.5"
         rx="1.5"
         y="1011.3412"
         x="11.067662"
         height="36.49176"
         width="27.400389"
         id="rect3605"
         style="fill:#1b496a;fill-opacity:1;fill-rule:nonzero;stroke:none" />
      <rect
         style="fill:url(#linearGradient3744);fill-opacity:1;fill-rule:nonzero;stroke:none"
         id="rect3607"
         width="25.4"
         height="34.492001"
         x="12.067857"
         y="1012.3411"
         rx="1.3904912"
         ry="1.4177996" />
      <path
         sodipodi:nodetypes="ccccccc"
         id="rect3625"
         d="m 37.467856,1019.441 0,25.9743 c 0,0.7855 -0.620159,1.4178 -1.390491,1.4178 l -22.619017,0 c -0.770332,0 -1.390491,-0.6323 -1.390491,-1.4178 l 0,-25.9743 25.399999,0 z"
         style="fill:#c8c8c8;fill-opacity:0.78431373;fill-rule:nonzero;stroke:none" />
      <path
         style="fill:#7e9fc6;fill-opacity:1;fill-rule:nonzero;stroke:none"
         d="m 37.467856,1032.8255 0,12.5898 c 0,0.7855 -0.620159,1.4178 -1.390491,1.4178 l -22.619017,0 c -0.770332,0 -1.390491,-0.6323 -1.390491,-1.4178 l 0,-3.7509 25.399999,-8.8389 z"
         id="path3628"
         sodipodi:nodetypes="ccccccc" />
      <path
         id="path3630"
         transform="translate(0,1004.3622)"
         d="m 37.46875,26.46875 -25.40625,8.84375 0,0.75 25.40625,-8.84375 0,-0.75 z"
         style="fill:#7e9fc6;fill-opacity:1;fill-rule:nonzero;stroke:none" />
      <g
         id="text3635"
         style="font-size:8px;font-style:italic;font-variant:normal;font-weight:bold;font-stretch:normal;fill:#ffffff;fill-opacity:1;stroke:none;font-family:Calibri;-inkscape-font-specification:'A.C.M.E. Secret Agent Italic'">
        <path
           id="path3678"
           d="m 30.2626,1039.3605 c -4e-6,0.021 -0.0026,0.051 -0.0078,0.09 -0.0026,0.039 -0.0078,0.082 -0.01563,0.1289 -0.0078,0.047 -0.01823,0.095 -0.03125,0.1446 -0.01042,0.047 -0.02474,0.091 -0.04297,0.1328 -0.01563,0.039 -0.03386,0.072 -0.05469,0.098 -0.02084,0.026 -0.04297,0.039 -0.06641,0.039 -0.03646,0 -0.08203,-0.016 -0.136719,-0.047 -0.05469,-0.034 -0.122399,-0.069 -0.203125,-0.1055 -0.07813,-0.039 -0.170576,-0.074 -0.277344,-0.1054 -0.106773,-0.034 -0.227867,-0.051 -0.363281,-0.051 -0.140627,0 -0.260419,0.019 -0.359375,0.059 -0.09636,0.039 -0.175783,0.091 -0.238281,0.1562 -0.0625,0.062 -0.109377,0.1342 -0.140625,0.2149 -0.02865,0.078 -0.04297,0.1575 -0.04297,0.2383 -2e-6,0.094 0.02344,0.177 0.07031,0.25 0.04687,0.07 0.109373,0.1367 0.1875,0.1992 0.07812,0.06 0.166664,0.1185 0.265625,0.1758 0.10156,0.057 0.203122,0.1172 0.304687,0.1796 0.104164,0.063 0.205727,0.1316 0.304688,0.2071 0.101559,0.073 0.191403,0.1588 0.269531,0.2578 0.07812,0.096 0.140622,0.2083 0.1875,0.3359 0.04687,0.125 0.07031,0.2696 0.07031,0.4336 -3e-6,0.2448 -0.04948,0.4727 -0.148437,0.6836 -0.09896,0.2084 -0.239586,0.3906 -0.421875,0.5469 -0.17969,0.1536 -0.39844,0.2747 -0.65625,0.3633 -0.25521,0.089 -0.539064,0.1328 -0.851563,0.1328 -0.169272,0 -0.325521,-0.014 -0.46875,-0.043 -0.143229,-0.026 -0.270833,-0.059 -0.382812,-0.098 -0.109375,-0.039 -0.201823,-0.079 -0.277344,-0.1211 -0.07552,-0.044 -0.13151,-0.086 -0.167969,-0.125 -0.03646,-0.039 -0.05469,-0.098 -0.05469,-0.1758 0,-0.021 0.0026,-0.052 0.0078,-0.094 0.0052,-0.042 0.01172,-0.086 0.01953,-0.1328 0.01042,-0.049 0.02214,-0.099 0.03516,-0.1484 0.01302,-0.052 0.02865,-0.099 0.04687,-0.1406 0.01823,-0.042 0.03776,-0.076 0.05859,-0.1016 0.02344,-0.026 0.04818,-0.039 0.07422,-0.039 0.04427,0 0.09635,0.021 0.15625,0.062 0.0625,0.039 0.139323,0.083 0.230469,0.1328 0.09115,0.047 0.199218,0.091 0.324219,0.1329 0.124999,0.042 0.274738,0.062 0.449219,0.062 0.153644,0 0.287758,-0.02 0.402343,-0.059 0.117186,-0.039 0.214842,-0.092 0.292969,-0.1602 0.07812,-0.068 0.136717,-0.1458 0.175781,-0.2344 0.04166,-0.091 0.0625,-0.1901 0.0625,-0.2968 -2e-6,-0.096 -0.02344,-0.181 -0.07031,-0.2539 -0.04688,-0.073 -0.109377,-0.1394 -0.1875,-0.1993 -0.07552,-0.062 -0.162762,-0.1211 -0.261719,-0.1757 -0.09636,-0.055 -0.195314,-0.1133 -0.296875,-0.1758 -0.101564,-0.062 -0.201824,-0.1302 -0.300781,-0.2032 -0.09635,-0.073 -0.183595,-0.1575 -0.261719,-0.2539 -0.07552,-0.099 -0.136719,-0.2122 -0.183594,-0.3398 -0.04687,-0.1276 -0.07031,-0.276 -0.07031,-0.4453 -1e-6,-0.2344 0.04687,-0.4505 0.140625,-0.6485 0.09375,-0.1979 0.223957,-0.3671 0.390625,-0.5078 0.166665,-0.1432 0.365884,-0.2539 0.597656,-0.332 0.231769,-0.081 0.486977,-0.1211 0.765625,-0.1211 0.130206,0 0.253904,0.01 0.371094,0.031 0.117184,0.018 0.223955,0.043 0.320312,0.074 0.09635,0.029 0.178382,0.061 0.246094,0.098 0.06771,0.036 0.11458,0.068 0.140625,0.094 0.02604,0.023 0.04427,0.049 0.05469,0.078 0.01302,0.026 0.01953,0.06 0.01953,0.1016" />
        <path
           id="path3680"
           d="m 35.196194,1040.8019 c -5e-6,0.1562 -0.01042,0.3216 -0.03125,0.4961 -0.01823,0.1745 -0.05079,0.3528 -0.09766,0.5351 -0.04427,0.1797 -0.105473,0.3594 -0.183593,0.5391 -0.07553,0.1771 -0.170578,0.3476 -0.285157,0.5117 -0.114587,0.1615 -0.251306,0.3125 -0.410156,0.4531 -0.156254,0.1407 -0.337243,0.2631 -0.542969,0.3672 -0.205732,0.1016 -0.437503,0.181 -0.695312,0.2383 -0.257815,0.057 -0.565106,0.086 -0.921875,0.086 l -1.285156,0 c -0.04167,0 -0.08203,-0.01 -0.121094,-0.016 -0.03646,-0.01 -0.06771,-0.027 -0.09375,-0.051 -0.02344,-0.026 -0.04036,-0.06 -0.05078,-0.1015 -0.0078,-0.042 -0.0052,-0.094 0.0078,-0.1563 l 0.882813,-4.4062 c 0.02083,-0.1146 0.06641,-0.1966 0.136718,-0.2461 0.07031,-0.052 0.153645,-0.078 0.25,-0.078 l 1.21875,0 c 0.401039,0 0.735674,0.039 1.003907,0.1171 0.270829,0.078 0.496089,0.1941 0.675781,0.3477 0.182287,0.1536 0.317704,0.3451 0.40625,0.5742 0.09114,0.2266 0.136714,0.4896 0.136719,0.7891 m -1.078125,0.1211 c -4e-6,-0.1641 -0.02214,-0.3164 -0.06641,-0.4571 -0.04427,-0.1406 -0.115889,-0.2617 -0.214843,-0.3632 -0.09896,-0.1016 -0.226566,-0.181 -0.382813,-0.2383 -0.153649,-0.057 -0.36068,-0.086 -0.621094,-0.086 l -0.535156,0 -0.691406,3.4375 0.539062,0 c 0.273436,0 0.502602,-0.033 0.6875,-0.098 0.187498,-0.068 0.35156,-0.1589 0.492188,-0.2735 0.143226,-0.1171 0.26432,-0.2513 0.363281,-0.4023 0.101559,-0.1536 0.18359,-0.3151 0.246094,-0.4844 0.0651,-0.1692 0.111975,-0.3424 0.140625,-0.5195 0.02864,-0.1771 0.04297,-0.349 0.04297,-0.5156" />
      </g>
      <rect
         style="fill:#5583a4;fill-opacity:1;fill-rule:nonzero;stroke:none"
         id="rect3643"
         width="19.375"
         height="0.53571427"
         x="15.080357"
         y="1048.6178" />
      <rect
         style="fill:#053354;fill-opacity:1;fill-rule:nonzero;stroke:none"
         id="rect3641"
         width="19.375"
         height="0.53571427"
         x="15.080357"
         y="1048.4281" />
      <rect
         y="1048.5229"
         x="15.080357"
         height="0.53571427"
         width="19.375"
         id="rect3639"
         style="fill:#235172;fill-opacity:1;fill-rule:nonzero;stroke:none" />
      <path
         transform="matrix(0.29077339,0,0,0.70252979,25.566343,1009.6489)"
         d="m 35.246999,12.034836 c -0.0086,0.01484 -3.410058,0 -3.427194,0 -0.01714,0 -3.418625,0.01484 -3.427193,0 -0.0086,-0.01484 1.705028,-2.9531966 1.713596,-2.9680368 0.0086,-0.01484 1.696461,-2.9680367 1.713597,-2.9680367 0.01714,0 1.705029,2.9531964 1.713597,2.9680366 0.0086,0.01484 1.722165,2.9531969 1.713597,2.9680369 z"
         inkscape:randomized="0"
         inkscape:rounded="0.005"
         inkscape:flatsided="false"
         sodipodi:arg2="1.5707963"
         sodipodi:arg1="0.52359878"
         sodipodi:r2="1.9786911"
         sodipodi:r1="3.9573822"
         sodipodi:cy="10.056145"
         sodipodi:cx="31.819805"
         sodipodi:sides="3"
         id="path3649"
         style="fill:#dd0400;fill-opacity:1;fill-rule:nonzero;stroke:none"
         sodipodi:type="star" />
      <g
         id="text3651"
         style="font-size:2px;font-style:normal;font-variant:normal;font-weight:bold;font-stretch:normal;fill:#ffffff;fill-opacity:1;stroke:none;font-family:Calibri;-inkscape-font-specification:'A.C.M.E. Secret Agent Bold'">
        <path
           id="path3683"
           d="m 13.181595,1021.4401 c -10e-7,0.038 -0.0036,0.064 -0.01074,0.079 -0.0072,0.015 -0.01856,0.022 -0.03418,0.022 l -0.40625,0 c -0.01628,0 -0.028,-0.01 -0.03516,-0.022 -0.0072,-0.016 -0.01074,-0.042 -0.01074,-0.079 -1e-6,-0.037 0.0036,-0.062 0.01074,-0.077 0.0072,-0.015 0.01888,-0.022 0.03516,-0.022 l 0.40625,0 c 0.0078,0 0.01432,0 0.01953,0 0.0059,0 0.01074,0.01 0.01465,0.017 0.0039,0.01 0.0065,0.018 0.0078,0.031 0.002,0.013 0.0029,0.029 0.0029,0.047" />
        <path
           id="path3685"
           d="m 14.062454,1021.8981 c 0,0.01 -0.002,0.012 -0.0059,0.018 -0.0039,0 -0.01074,0.01 -0.02051,0.012 -0.0091,0 -0.02149,0.01 -0.03711,0.01 -0.01563,0 -0.03548,0 -0.05957,0 -0.02409,0 -0.04394,-9e-4 -0.05957,0 -0.01563,0 -0.02832,0 -0.03809,-0.01 -0.0091,0 -0.01563,-0.01 -0.01953,-0.012 -0.0039,-0.01 -0.0059,-0.011 -0.0059,-0.018 l 0,-1.2842 c 0,-0.01 0.002,-0.012 0.0059,-0.018 0.0039,-0.01 0.01042,-0.01 0.01953,-0.013 0.0098,0 0.02246,-0.01 0.03809,-0.01 0.01563,0 0.03548,0 0.05957,0 0.02409,0 0.04395,10e-4 0.05957,0 0.01562,0 0.02799,0 0.03711,0.01 0.0098,0 0.0166,0.01 0.02051,0.013 0.0039,0.01 0.0059,0.011 0.0059,0.018 l 0,1.2842" />
        <path
           id="path3687"
           d="m 15.189407,1021.4537 c -10e-7,0.074 -0.0098,0.142 -0.0293,0.2032 -0.01953,0.061 -0.04915,0.1139 -0.08887,0.1582 -0.03971,0.044 -0.08952,0.078 -0.149414,0.1025 -0.0599,0.024 -0.129883,0.036 -0.209961,0.036 -0.07747,0 -0.144857,-0.011 -0.202148,-0.032 -0.05729,-0.022 -0.104818,-0.053 -0.142578,-0.094 -0.03776,-0.041 -0.06576,-0.091 -0.08399,-0.1514 -0.01823,-0.06 -0.02734,-0.1283 -0.02734,-0.2051 0,-0.074 0.0098,-0.1419 0.0293,-0.2031 0.02018,-0.062 0.05013,-0.1146 0.08984,-0.1582 0.03971,-0.044 0.08919,-0.078 0.148438,-0.1026 0.0599,-0.024 0.129882,-0.036 0.209961,-0.036 0.07812,0 0.145832,0.011 0.203125,0.032 0.05729,0.021 0.104491,0.052 0.141601,0.093 0.03776,0.041 0.06575,0.091 0.08399,0.1514 0.01823,0.06 0.02734,0.1286 0.02734,0.206 m -0.252929,0.01 c -1e-6,-0.043 -0.0036,-0.082 -0.01074,-0.1182 -0.0065,-0.036 -0.0179,-0.068 -0.03418,-0.095 -0.01628,-0.027 -0.03809,-0.048 -0.06543,-0.062 -0.02669,-0.015 -0.06055,-0.022 -0.101562,-0.022 -0.03646,1e-4 -0.06836,0.01 -0.0957,0.021 -0.02734,0.013 -0.0498,0.033 -0.06738,0.059 -0.01758,0.025 -0.03092,0.056 -0.04004,0.093 -0.0085,0.036 -0.0127,0.077 -0.0127,0.1231 0,0.043 0.0036,0.083 0.01074,0.1191 0.0072,0.036 0.01856,0.067 0.03418,0.094 0.01628,0.027 0.03809,0.048 0.06543,0.062 0.02734,0.014 0.0612,0.021 0.101562,0.021 0.03711,0 0.06934,-0.01 0.09668,-0.019 0.02734,-0.014 0.0498,-0.033 0.06738,-0.059 0.01758,-0.025 0.0306,-0.056 0.03906,-0.092 0.0085,-0.036 0.0127,-0.078 0.0127,-0.124" />
        <path
           id="path3689"
           d="m 16.041946,1021.7594 c 0,0.017 -6.51e-4,0.031 -0.002,0.043 -6.52e-4,0.011 -0.002,0.02 -0.0039,0.028 -0.0013,0.01 -0.0033,0.014 -0.0059,0.019 -0.002,0 -0.0068,0.011 -0.01465,0.019 -0.0078,0.01 -0.02116,0.016 -0.04004,0.027 -0.01888,0.01 -0.04037,0.02 -0.06445,0.028 -0.02409,0.01 -0.05046,0.015 -0.0791,0.02 -0.02799,0.01 -0.05697,0.01 -0.08691,0.01 -0.06706,0 -0.126628,-0.01 -0.178711,-0.031 -0.05143,-0.021 -0.09473,-0.051 -0.129882,-0.092 -0.03516,-0.041 -0.06185,-0.091 -0.08008,-0.1494 -0.01758,-0.059 -0.02637,-0.1257 -0.02637,-0.2012 0,-0.087 0.01074,-0.1624 0.03223,-0.2256 0.02214,-0.064 0.05273,-0.1165 0.0918,-0.1582 0.03906,-0.042 0.08529,-0.073 0.138672,-0.093 0.05339,-0.02 0.111978,-0.03 0.175781,-0.03 0.02604,0 0.05143,0 0.07617,0.01 0.02539,0 0.04883,0.011 0.07031,0.019 0.02213,0.01 0.04167,0.017 0.05859,0.026 0.01758,0.01 0.02995,0.018 0.03711,0.025 0.0072,0.01 0.01204,0.013 0.01465,0.019 0.0033,0 0.0055,0.011 0.0068,0.019 0.002,0.01 0.0033,0.018 0.0039,0.029 0.0013,0.011 0.002,0.025 0.002,0.041 -1e-6,0.038 -0.0033,0.064 -0.0098,0.08 -0.0065,0.015 -0.01497,0.023 -0.02539,0.023 -0.01107,0 -0.02279,0 -0.03516,-0.014 -0.01237,-0.01 -0.02702,-0.019 -0.04395,-0.03 -0.01693,-0.011 -0.03711,-0.021 -0.06055,-0.03 -0.02344,-0.01 -0.05143,-0.014 -0.08398,-0.014 -0.0638,0 -0.112631,0.025 -0.146484,0.074 -0.03385,0.049 -0.05078,0.1208 -0.05078,0.2158 0,0.047 0.0042,0.088 0.0127,0.1241 0.0085,0.036 0.02083,0.066 0.03711,0.09 0.01693,0.024 0.03776,0.042 0.0625,0.055 0.02539,0.012 0.05469,0.018 0.08789,0.018 0.03385,0 0.06283,0 0.08691,-0.015 0.02474,-0.01 0.04622,-0.022 0.06445,-0.034 0.01823,-0.012 0.03353,-0.024 0.0459,-0.033 0.01237,-0.01 0.02279,-0.016 0.03125,-0.016 0.0059,0 0.01074,0 0.01465,0 0.0039,0 0.0068,0.01 0.0088,0.019 0.0026,0.01 0.0046,0.019 0.0059,0.033 0.0013,0.014 0.002,0.031 0.002,0.053" />
        <path
           id="path3691"
           d="m 17.028275,1021.899 c -1e-6,0.01 -0.002,0.012 -0.0059,0.018 -0.0033,0 -0.0098,0.01 -0.01953,0.012 -0.0091,0 -0.02181,0 -0.03809,0.01 -0.01628,0 -0.03744,0 -0.06348,0 -0.02669,0 -0.0485,-6e-4 -0.06543,0 -0.01628,0 -0.02995,0 -0.04102,-0.01 -0.01042,0 -0.01855,-0.01 -0.02441,-0.013 -0.0059,-0.01 -0.01107,-0.012 -0.01563,-0.02 l -0.290039,-0.459 0,0.461 c 0,0.01 -0.002,0.012 -0.0059,0.018 -0.0039,0 -0.01074,0.01 -0.02051,0.012 -0.0091,0 -0.02149,0.01 -0.03711,0.01 -0.01563,0 -0.03548,0 -0.05957,0 -0.02409,0 -0.04394,-9e-4 -0.05957,0 -0.01563,0 -0.02832,0 -0.03809,-0.01 -0.0091,0 -0.01563,-0.01 -0.01953,-0.012 -0.0039,-0.01 -0.0059,-0.011 -0.0059,-0.018 l 0,-1.2842 c 0,-0.01 0.002,-0.012 0.0059,-0.018 0.0039,-0.01 0.01042,-0.01 0.01953,-0.013 0.0098,0 0.02246,-0.01 0.03809,-0.01 0.01563,0 0.03548,0 0.05957,0 0.02409,0 0.04395,10e-4 0.05957,0 0.01563,0 0.028,0 0.03711,0.01 0.0098,0 0.0166,0.01 0.02051,0.013 0.0039,0.01 0.0059,0.011 0.0059,0.018 l 0,0.7646 0.257812,-0.3466 c 0.0052,-0.01 0.01107,-0.015 0.01758,-0.02 0.0065,-0.01 0.01497,-0.01 0.02539,-0.014 0.01107,0 0.02441,-0.01 0.04004,-0.01 0.01628,0 0.03678,0 0.06152,0 0.02409,0 0.04427,10e-4 0.06055,0 0.01693,0 0.03027,0 0.04004,0.01 0.01041,0 0.01758,0.01 0.02148,0.013 0.0039,0 0.0059,0.01 0.0059,0.018 0,0.01 -0.0026,0.02 -0.0078,0.031 -0.0046,0.011 -0.01172,0.023 -0.02148,0.035 l -0.254883,0.289 0.294922,0.4561 c 0.0078,0.013 0.01334,0.024 0.0166,0.034 0.0039,0.01 0.0059,0.018 0.0059,0.025" />
      </g>
    </g>
  </g>
</svg>
