<?xml version="1.0" encoding="UTF-8" standalone="no"?>
<!-- Created with Inkscape (http://www.inkscape.org/) -->

<svg
   xmlns:dc="http://purl.org/dc/elements/1.1/"
   xmlns:cc="http://creativecommons.org/ns#"
   xmlns:rdf="http://www.w3.org/1999/02/22-rdf-syntax-ns#"
   xmlns:svg="http://www.w3.org/2000/svg"
   xmlns="http://www.w3.org/2000/svg"
   xmlns:xlink="http://www.w3.org/1999/xlink"
   xmlns:sodipodi="http://sodipodi.sourceforge.net/DTD/sodipodi-0.dtd"
   xmlns:inkscape="http://www.inkscape.org/namespaces/inkscape"
   width="48"
   height="48"
   id="svg2"
   version="1.1"
   inkscape:version="0.47pre4 r22446"
   sodipodi:docname="media-flash.svg">
  <defs
     id="defs4">
    <linearGradient
       id="linearGradient3670">
      <stop
         id="stop3672"
         offset="0"
         style="stop-color:#ffff00;stop-opacity:1;" />
      <stop
         id="stop3674"
         offset="1"
         style="stop-color:#9d4300;stop-opacity:1;" />
    </linearGradient>
    <linearGradient
       id="linearGradient3646">
      <stop
         style="stop-color:#ffff00;stop-opacity:0.78431374;"
         offset="0"
         id="stop3648" />
      <stop
         style="stop-color:#ffff00;stop-opacity:0;"
         offset="1"
         id="stop3650" />
    </linearGradient>
    <linearGradient
       id="linearGradient3630">
      <stop
         style="stop-color:#b67531;stop-opacity:1;"
         offset="0"
         id="stop3632" />
      <stop
         style="stop-color:#723200;stop-opacity:1"
         offset="1"
         id="stop3634" />
    </linearGradient>
    <linearGradient
       id="linearGradient3618">
      <stop
         style="stop-color:#437192;stop-opacity:1;"
         offset="0"
         id="stop3620" />
      <stop
         style="stop-color:#89b7d8;stop-opacity:1;"
         offset="1"
         id="stop3622" />
    </linearGradient>
    <linearGradient
       id="linearGradient3605">
      <stop
         style="stop-color:#505050;stop-opacity:1;"
         offset="0"
         id="stop3607" />
      <stop
         style="stop-color:#141414;stop-opacity:1;"
         offset="1"
         id="stop3609" />
    </linearGradient>
    <inkscape:perspective
       sodipodi:type="inkscape:persp3d"
       inkscape:vp_x="0 : 526.18109 : 1"
       inkscape:vp_y="0 : 1000 : 0"
       inkscape:vp_z="744.09448 : 526.18109 : 1"
       inkscape:persp3d-origin="372.04724 : 350.78739 : 1"
       id="perspective10" />
    <inkscape:perspective
       id="perspective2824"
       inkscape:persp3d-origin="0.5 : 0.33333333 : 1"
       inkscape:vp_z="1 : 0.5 : 1"
       inkscape:vp_y="0 : 1000 : 0"
       inkscape:vp_x="0 : 0.5 : 1"
       sodipodi:type="inkscape:persp3d" />
    <inkscape:perspective
       id="perspective3825"
       inkscape:persp3d-origin="0.5 : 0.33333333 : 1"
       inkscape:vp_z="1 : 0.5 : 1"
       inkscape:vp_y="0 : 1000 : 0"
       inkscape:vp_x="0 : 0.5 : 1"
       sodipodi:type="inkscape:persp3d" />
    <linearGradient
       inkscape:collect="always"
       xlink:href="#linearGradient3618"
       id="linearGradient3846"
       gradientUnits="userSpaceOnUse"
       x1="25.19068"
       y1="1050.8469"
       x2="25.19068"
       y2="1038.8469"
       gradientTransform="translate(-1.19068,-0.2614)" />
    <linearGradient
       inkscape:collect="always"
       xlink:href="#linearGradient3605"
       id="linearGradient3849"
       gradientUnits="userSpaceOnUse"
       x1="25.19068"
       y1="1012.7137"
       x2="25.19068"
       y2="1050.8469"
       gradientTransform="translate(-1.19068,-0.2614)" />
  </defs>
  <sodipodi:namedview
     id="base"
     pagecolor="#ffffff"
     bordercolor="#666666"
     borderopacity="1.0"
     inkscape:pageopacity="0.0"
     inkscape:pageshadow="2"
     inkscape:zoom="5.6"
     inkscape:cx="25.271712"
     inkscape:cy="14.517907"
     inkscape:document-units="px"
     inkscape:current-layer="layer1"
     showgrid="false"
     inkscape:window-width="1280"
     inkscape:window-height="712"
     inkscape:window-x="0"
     inkscape:window-y="25"
     inkscape:window-maximized="1" />
  <metadata
     id="metadata7">
    <rdf:RDF>
      <cc:Work
         rdf:about="">
        <dc:format>image/svg+xml</dc:format>
        <dc:type
           rdf:resource="http://purl.org/dc/dcmitype/StillImage" />
        <dc:title></dc:title>
      </cc:Work>
    </rdf:RDF>
  </metadata>
  <g
     inkscape:label="Livello 1"
     inkscape:groupmode="layer"
     id="layer1"
     transform="translate(0,-1004.3622)">
    <path
       sodipodi:nodetypes="ccccccccc"
       id="path3654"
       d="m 6.644291,1005.8887 31.095123,0 4.630086,4.3312 0,39.6045 c 0,0.5603 -0.452151,1.0113 -1.013791,1.0113 l -34.711418,0 c -0.5616402,0 -1.013791,-0.451 -1.013791,-1.0113 l 0,-42.9244 c 0,-0.5603 0.4521508,-1.0113 1.013791,-1.0113 z"
       style="fill:#505050;fill-opacity:0.78431373;fill-rule:nonzero;stroke:none" />
    <path
       style="fill:url(#linearGradient3849);fill-opacity:1;fill-rule:nonzero;stroke:none"
       d="m 6.880388,1006.1388 30.672123,0 4.567101,4.283 0,39.1637 c 0,0.554 -0.446,1 -1,1 l -34.239224,0 c -0.554,0 -1,-0.446 -1,-1 l 0,-42.4467 c 0,-0.554 0.446,-1 1,-1 z"
       id="rect2830"
       sodipodi:nodetypes="ccccccccc" />
    <path
       style="fill:url(#linearGradient3846);fill-opacity:1;fill-rule:nonzero;stroke:none"
       d="m 11.671875,1038.5855 c -0.554,0 -1,0.446 -1,1 l 0,11 26.65625,0 0,-11 c 0,-0.554 -0.446,-1 -1,-1 l -24.65625,0 z"
       id="rect3613" />
    <path
       style="fill:#ffcc00;fill-opacity:1;fill-rule:nonzero;stroke:none"
       d="M 10.65625 6.84375 C 10.117308 6.84375 9.6875 7.282628 9.6875 7.8125 L 9.6875 23.46875 C 9.6875 23.998622 10.117308 24.40625 10.65625 24.40625 L 11.875 24.40625 L 11.875 17.9375 C 11.959907 17.9075 12.04067 17.87275 12.125 17.84375 L 12.125 24.40625 L 13.875 24.40625 L 13.875 17.375 C 12.844683 17.591778 11.792707 17.853627 10.71875 18.25 L 10.65625 18.0625 C 13.099943 17.1605 15.424541 16.74 17.65625 16.75 C 19.887959 16.7574 22.006125 17.188 24.03125 18.0625 C 28.54231 20.0165 33.038951 20.80135 37.53125 18.09375 L 37.625 18.25 C 36.454494 18.955491 35.295586 19.439001 34.125 19.71875 L 34.125 24.40625 L 35.875 24.40625 L 35.875 19.1875 C 35.958166 19.1605 36.0419 19.12275 36.125 19.09375 L 36.125 24.40625 L 37.34375 24.40625 C 37.882692 24.40625 38.3125 23.998622 38.3125 23.46875 L 38.3125 7.8125 C 38.3125 7.282628 37.882692 6.84375 37.34375 6.84375 L 10.65625 6.84375 z M 11.875 6.875 L 12.125 6.875 L 12.125 12.5 C 12.720259 12.323776 13.29338 12.181374 13.875 12.0625 L 13.875 6.875 L 14.125 6.875 L 14.125 12 C 14.709836 11.888298 15.303106 11.773905 15.875 11.71875 L 15.875 6.875 L 16.125 6.875 L 16.125 11.71875 C 16.641207 11.676094 17.149912 11.653981 17.65625 11.65625 C 17.729703 11.656494 17.801792 11.655089 17.875 11.65625 L 17.875 6.875 L 18.125 6.875 L 18.125 11.6875 C 18.717871 11.705544 19.297787 11.764492 19.875 11.84375 L 19.875 6.875 L 20.125 6.875 L 20.125 11.875 C 20.715276 11.965596 21.300266 12.093935 21.875 12.25 L 21.875 6.875 L 22.125 6.875 L 22.125 12.3125 C 22.71487 12.482965 23.30058 12.66526 23.875 12.90625 L 23.875 6.875 L 24.125 6.875 L 24.125 13 C 24.711826 13.252127 25.288637 13.51185 25.875 13.71875 L 25.875 6.875 L 26.125 6.875 L 26.125 13.78125 C 26.708759 13.980151 27.29165 14.138719 27.875 14.28125 L 27.875 6.875 L 28.125 6.875 L 28.125 14.34375 C 28.709253 14.477563 29.291107 14.590586 29.875 14.65625 L 29.875 6.875 L 30.125 6.875 L 30.125 14.65625 C 30.709 14.71145 31.291311 14.743326 31.875 14.71875 L 31.875 6.875 L 32.125 6.875 L 32.125 14.71875 C 32.708137 14.682062 33.292122 14.596644 33.875 14.46875 L 33.875 6.875 L 34.125 6.875 L 34.125 14.40625 C 35.258698 14.130377 36.398266 13.682873 37.53125 13 L 37.625 13.15625 C 35.789461 14.262571 33.960099 14.79143 32.125 14.90625 L 32.125 14.9375 C 32.04277 14.9475 31.95734 14.9375 31.875 14.9375 C 31.295058 14.961663 30.704651 14.928345 30.125 14.875 C 30.062749 14.8675 30.000076 14.874344 29.9375 14.875 C 29.916874 14.872823 29.895626 14.877267 29.875 14.875 C 27.903713 14.658292 25.933664 14.007469 23.96875 13.15625 C 22.732249 12.622358 21.438595 12.272829 20.125 12.0625 C 19.465838 11.956957 18.804195 11.897016 18.125 11.875 L 18.125 11.90625 C 18.04149 11.90425 17.95872 11.875 17.875 11.875 L 17.875 11.84375 C 17.302343 11.834075 16.712098 11.855974 16.125 11.90625 L 16.125 11.9375 C 16.041229 11.9435 15.95895 11.95875 15.875 11.96875 L 15.875 11.90625 C 15.290869 11.964541 14.723602 12.069367 14.125 12.1875 C 14.040372 12.2015 13.95976 12.235 13.875 12.25 C 12.844683 12.466778 11.792707 12.759877 10.71875 13.15625 L 10.65625 12.96875 C 11.067742 12.816863 11.470137 12.68733 11.875 12.5625 L 11.875 6.875 z M 35.875 6.875 L 36.125 6.875 L 36.125 13.625 C 36.04237 13.673 35.95732 13.705 35.875 13.75 L 35.875 6.875 z M 17.65625 14.21875 C 19.887959 14.22615 22.006125 14.65675 24.03125 15.53125 C 28.54231 17.48525 33.038951 18.2701 37.53125 15.5625 L 37.625 15.71875 C 33.068015 18.46535 28.506974 17.68475 23.96875 15.71875 C 19.965985 13.99045 15.567873 13.92905 10.71875 15.71875 L 10.65625 15.53125 C 13.099943 14.62925 15.424541 14.20875 17.65625 14.21875 z M 17.875 16.9375 C 17.302256 16.927824 16.71219 16.980957 16.125 17.03125 L 16.125 24.40625 L 17.875 24.40625 L 17.875 16.9375 z M 18.125 16.96875 L 18.125 24.40625 L 19.875 24.40625 L 19.875 17.125 C 19.296626 17.041867 18.718701 16.987995 18.125 16.96875 z M 15.875 17.03125 C 15.290869 17.089541 14.723602 17.194367 14.125 17.3125 L 14.125 24.40625 L 15.875 24.40625 L 15.875 17.03125 z M 20.125 17.15625 L 20.125 24.40625 L 21.875 24.40625 L 21.875 17.53125 C 21.300857 17.370953 20.714871 17.250699 20.125 17.15625 z M 22.125 17.625 L 22.125 24.40625 L 23.875 24.40625 L 23.875 18.3125 C 23.95736 18.3455 24.04223 18.37425 24.125 18.40625 L 24.125 24.40625 L 25.875 24.40625 L 25.875 19 C 25.235169 18.776719 24.607751 18.526821 23.96875 18.25 C 23.369797 17.991386 22.741843 17.808351 22.125 17.625 z M 26.125 19.09375 L 26.125 24.40625 L 27.875 24.40625 L 27.875 19.5625 C 27.298144 19.42353 26.701315 19.287617 26.125 19.09375 z M 28.125 19.625 L 28.125 24.40625 L 29.875 24.40625 L 29.875 19.96875 C 29.289782 19.904416 28.709792 19.757034 28.125 19.625 z M 33.875 19.75 C 33.290087 19.876714 32.709747 19.963375 32.125 20 L 32.125 24.40625 L 33.875 24.40625 L 33.875 19.75 z M 30.125 19.96875 L 30.125 24.40625 L 31.875 24.40625 L 31.875 20.03125 C 31.294756 20.055468 30.704952 20.022123 30.125 19.96875 z "
       transform="translate(0,1004.3622)"
       id="rect3638" />
    <path
       id="path3854"
       d="m 11.671875,1038.5855 c -0.554,0 -1,0.446 -1,1 l 0,2.9188 26.65625,0 0,-2.9188 c 0,-0.554 -0.446,-1 -1,-1 l -24.65625,0 z"
       style="fill:#fafafa;fill-opacity:1;fill-rule:nonzero;stroke:none"
       sodipodi:nodetypes="ccccccc" />
    <path
       sodipodi:type="star"
       style="fill:#e20800;fill-opacity:1;fill-rule:nonzero;stroke:none"
       id="path3856"
       sodipodi:sides="3"
       sodipodi:cx="12.678571"
       sodipodi:cy="35.142857"
       sodipodi:r1="2.4807937"
       sodipodi:r2="1.2403969"
       sodipodi:arg1="0.52359878"
       sodipodi:arg2="1.5707963"
       inkscape:flatsided="false"
       inkscape:rounded="0.005"
       inkscape:randomized="0"
       d="m 14.827001,36.383253 c -0.0054,0.0093 -2.137688,0 -2.14843,0 -0.01074,0 -2.14306,0.0093 -2.148431,0 -0.0054,-0.0093 1.068844,-1.851292 1.074216,-1.860595 0.0054,-0.0093 1.063473,-1.860595 1.074215,-1.860595 0.01074,0 1.068844,1.851292 1.074215,1.860595 0.0054,0.0093 1.079586,1.851292 1.074215,1.860595 z"
       transform="matrix(0.48571738,0,0,0.85020483,6.8886721,1011.1918)" />
    <g
       style="font-size:4px;font-style:italic;font-variant:normal;font-weight:normal;font-stretch:normal;fill:#fafafa;fill-opacity:1;stroke:none;font-family:Calibri;-inkscape-font-specification:'A.C.M.E. Secret Agent Italic'"
       id="text3858">
      <path
         d="m 15.34082,1045.9188 c -1e-6,0.01 -6.53e-4,0.023 -0.002,0.037 -0.0013,0.013 -0.0039,0.027 -0.0078,0.043 -0.0026,0.014 -0.0065,0.03 -0.01172,0.047 -0.0039,0.016 -0.0091,0.03 -0.01563,0.043 -0.0065,0.012 -0.01432,0.022 -0.02344,0.029 -0.0078,0.01 -0.01693,0.012 -0.02734,0.012 -0.01432,0 -0.03451,-0.01 -0.06055,-0.025 -0.02474,-0.017 -0.05729,-0.034 -0.09766,-0.053 -0.03906,-0.02 -0.08594,-0.038 -0.140625,-0.055 -0.05469,-0.017 -0.11784,-0.025 -0.189454,-0.025 -0.07943,0 -0.149089,0.012 -0.208984,0.037 -0.0599,0.023 -0.110027,0.056 -0.150391,0.098 -0.04036,0.04 -0.07096,0.087 -0.0918,0.1387 -0.01953,0.052 -0.0293,0.1061 -0.0293,0.1621 -10e-7,0.057 0.01237,0.1074 0.03711,0.1504 0.02604,0.043 0.05924,0.082 0.09961,0.1172 0.04167,0.035 0.08854,0.068 0.140625,0.1 0.05339,0.031 0.107421,0.063 0.16211,0.096 0.05469,0.033 0.108722,0.068 0.162109,0.1055 0.05338,0.036 0.100259,0.079 0.140625,0.1289 0.04167,0.048 0.07487,0.1041 0.09961,0.1679 0.02604,0.062 0.03906,0.1355 0.03906,0.2188 -2e-6,0.1107 -0.02279,0.2148 -0.06836,0.3125 -0.04557,0.096 -0.110679,0.181 -0.195313,0.2539 -0.08333,0.072 -0.184246,0.1289 -0.302734,0.1719 -0.118491,0.042 -0.250652,0.062 -0.396485,0.062 -0.07943,0 -0.153646,-0.01 -0.222656,-0.021 -0.06771,-0.013 -0.128906,-0.029 -0.183594,-0.049 -0.05469,-0.021 -0.100911,-0.042 -0.138671,-0.062 -0.03776,-0.022 -0.06511,-0.042 -0.08203,-0.059 -0.01693,-0.017 -0.02539,-0.042 -0.02539,-0.074 0,-0.01 6.51e-4,-0.019 0.002,-0.033 0.0026,-0.014 0.0059,-0.03 0.0098,-0.047 0.0039,-0.017 0.0078,-0.033 0.01172,-0.049 0.0052,-0.017 0.01107,-0.032 0.01758,-0.045 0.0078,-0.014 0.01563,-0.025 0.02344,-0.033 0.0091,-0.01 0.01953,-0.014 0.03125,-0.014 0.02083,0 0.04687,0.011 0.07813,0.031 0.03125,0.021 0.06966,0.044 0.115234,0.068 0.04687,0.023 0.102213,0.046 0.166016,0.066 0.0638,0.021 0.138671,0.031 0.224609,0.031 0.09114,0 0.172525,-0.012 0.244141,-0.037 0.07161,-0.026 0.131509,-0.061 0.179687,-0.1035 0.04948,-0.044 0.08724,-0.096 0.113282,-0.1543 0.02604,-0.059 0.03906,-0.1211 0.03906,-0.1875 -1e-6,-0.059 -0.01237,-0.1094 -0.03711,-0.1524 -0.02474,-0.044 -0.05729,-0.084 -0.09766,-0.1191 -0.04036,-0.035 -0.08724,-0.068 -0.140625,-0.098 -0.05208,-0.03 -0.105469,-0.061 -0.160156,-0.094 -0.05339,-0.033 -0.10612,-0.067 -0.158203,-0.1035 -0.05208,-0.038 -0.09831,-0.081 -0.138672,-0.1289 -0.04037,-0.05 -0.07357,-0.1055 -0.09961,-0.168 -0.02474,-0.064 -0.03711,-0.138 -0.03711,-0.2227 0,-0.1028 0.02018,-0.1992 0.06055,-0.289 0.04036,-0.09 0.09766,-0.1686 0.171875,-0.2363 0.07422,-0.068 0.164062,-0.1211 0.269532,-0.1602 0.105467,-0.039 0.223306,-0.059 0.353515,-0.059 0.0625,0 0.121744,0.01 0.177735,0.016 0.05729,0.011 0.108722,0.024 0.154296,0.039 0.04557,0.014 0.08463,0.031 0.117188,0.049 0.03255,0.017 0.05469,0.031 0.06641,0.043 0.01172,0.012 0.02018,0.024 0.02539,0.037 0.0052,0.012 0.0078,0.027 0.0078,0.045"
         style=""
         id="path3903" />
      <path
         d="m 18.055664,1048.2059 c -0.0013,0.01 -0.0052,0.02 -0.01172,0.027 -0.0065,0.01 -0.01693,0.012 -0.03125,0.018 -0.01302,0.01 -0.0306,0.01 -0.05273,0.012 -0.02084,0 -0.04688,0 -0.07813,0 -0.03125,0 -0.05729,-0 -0.07813,-0 -0.01953,-0 -0.03516,-0.01 -0.04687,-0.012 -0.01042,-0.01 -0.01758,-0.011 -0.02148,-0.018 -0.0039,-0.01 -0.0046,-0.017 -0.002,-0.027 l 0.216797,-1.0859 c 0.0065,-0.038 0.01172,-0.074 0.01563,-0.1074 0.0052,-0.034 0.0078,-0.068 0.0078,-0.1016 -3e-6,-0.083 -0.01628,-0.1497 -0.04883,-0.1992 -0.03125,-0.05 -0.08659,-0.074 -0.166016,-0.074 -0.06511,0 -0.132815,0.02 -0.203125,0.061 -0.06901,0.039 -0.134768,0.094 -0.197266,0.1641 -0.0625,0.069 -0.11784,0.1517 -0.166015,0.248 -0.04818,0.095 -0.08333,0.1986 -0.105469,0.3106 l -0.15625,0.7851 c -0.0026,0.01 -0.0072,0.02 -0.01367,0.027 -0.0065,0.01 -0.01693,0.012 -0.03125,0.018 -0.01302,0.01 -0.0306,0.01 -0.05273,0.012 -0.02083,0 -0.04688,0 -0.07813,0 -0.03125,0 -0.05729,-0 -0.07813,-0 -0.01953,-0 -0.03451,-0.01 -0.04492,-0.012 -0.01042,-0.01 -0.01758,-0.011 -0.02148,-0.018 -0.0039,-0.01 -0.0052,-0.017 -0.0039,-0.027 l 0.216797,-1.0859 c 0.0091,-0.039 0.01497,-0.077 0.01758,-0.1152 0.0039,-0.038 0.0059,-0.073 0.0059,-0.1055 -2e-6,-0.079 -0.01628,-0.1426 -0.04883,-0.1895 -0.03255,-0.048 -0.08789,-0.072 -0.166016,-0.072 -0.06641,0 -0.134116,0.02 -0.203125,0.061 -0.06901,0.039 -0.134767,0.094 -0.197266,0.1641 -0.0625,0.069 -0.117839,0.1517 -0.166015,0.248 -0.04818,0.095 -0.08333,0.1986 -0.105469,0.3106 l -0.15625,0.7851 c -0.0026,0.01 -0.0072,0.02 -0.01367,0.027 -0.0065,0.01 -0.01628,0.012 -0.0293,0.018 -0.01302,0.01 -0.0306,0.01 -0.05273,0.012 -0.02083,0 -0.04687,0 -0.07813,0 -0.03255,0 -0.05924,-0 -0.08008,-0 -0.01953,-0 -0.03516,-0.01 -0.04687,-0.012 -0.01042,-0.01 -0.01758,-0.011 -0.02148,-0.018 -0.0026,-0.01 -0.0026,-0.017 0,-0.027 l 0.353516,-1.7597 c 0.0013,-0.01 0.0046,-0.018 0.0098,-0.025 0.0065,-0.01 0.01562,-0.014 0.02734,-0.02 0.01302,-0.01 0.02865,-0.01 0.04687,-0.01 0.01953,-0 0.04232,-0 0.06836,-0 0.02734,0 0.04948,0 0.06641,0 0.01823,0 0.0319,0 0.04102,0.01 0.01042,0.01 0.01693,0.012 0.01953,0.02 0.0026,0.01 0.0033,0.016 0.002,0.025 l -0.06641,0.3359 c 0.01953,-0.044 0.05143,-0.091 0.0957,-0.1406 0.04557,-0.049 0.09831,-0.095 0.158203,-0.1367 0.0599,-0.042 0.124999,-0.076 0.195312,-0.1036 0.07161,-0.027 0.14453,-0.041 0.21875,-0.041 0.07812,0 0.145181,0.011 0.201172,0.033 0.05599,0.021 0.101561,0.05 0.136719,0.088 0.03646,0.037 0.06315,0.081 0.08008,0.1328 0.01693,0.051 0.02734,0.1068 0.03125,0.168 0.02604,-0.046 0.06185,-0.093 0.107422,-0.1426 0.04557,-0.05 0.0983,-0.094 0.158203,-0.1347 0.05989,-0.042 0.124998,-0.076 0.195313,-0.1036 0.07031,-0.027 0.141924,-0.041 0.214843,-0.041 0.08724,0 0.160154,0.012 0.21875,0.037 0.05859,0.025 0.106117,0.059 0.142579,0.1016 0.03646,0.043 0.0625,0.093 0.07813,0.1504 0.01562,0.057 0.02343,0.1198 0.02344,0.1875 -3e-6,0.046 -0.0026,0.091 -0.0078,0.1348 -0.0052,0.044 -0.01237,0.09 -0.02148,0.1367 l -0.220703,1.0976"
         style=""
         id="path3905" />
      <path
         d="m 20.104492,1048.2059 c -0.0052,0.022 -0.01953,0.038 -0.04297,0.047 -0.02344,0.01 -0.0625,0.014 -0.117187,0.014 -0.02604,0 -0.04753,-0 -0.06445,-0 -0.01693,-0 -0.0306,-0.01 -0.04102,-0.01 -0.01042,-0.01 -0.01758,-0.011 -0.02148,-0.018 -0.0039,-0.01 -0.0039,-0.018 0,-0.029 l 0.06445,-0.332 c -0.01693,0.042 -0.04753,0.087 -0.0918,0.1367 -0.04427,0.049 -0.09701,0.095 -0.158203,0.1367 -0.0599,0.042 -0.126954,0.076 -0.201172,0.1036 -0.07422,0.027 -0.14974,0.041 -0.226562,0.041 -0.104168,0 -0.190756,-0.018 -0.259766,-0.055 -0.06771,-0.036 -0.121745,-0.085 -0.162109,-0.1445 -0.04036,-0.06 -0.06836,-0.1277 -0.08398,-0.2032 -0.01432,-0.075 -0.02148,-0.153 -0.02148,-0.2324 0,-0.073 0.0065,-0.1556 0.01953,-0.248 0.01432,-0.092 0.03646,-0.1869 0.06641,-0.2832 0.03125,-0.096 0.07096,-0.1901 0.119141,-0.2813 0.04948,-0.091 0.108723,-0.1725 0.177734,-0.2441 0.06901,-0.073 0.149088,-0.1309 0.240235,-0.1739 0.09115,-0.044 0.19466,-0.066 0.310547,-0.066 0.115884,0 0.214842,0.024 0.296875,0.07 0.08333,0.047 0.15755,0.1114 0.222656,0.1934 l 0.03711,-0.1777 c 0.0052,-0.021 0.02018,-0.036 0.04492,-0.045 0.02474,-0.01 0.06315,-0.014 0.115234,-0.014 0.02604,0 0.04753,0 0.06445,0 0.01823,0 0.03255,0 0.04297,0.01 0.01041,0.01 0.01693,0.012 0.01953,0.02 0.0026,0.01 0.0033,0.016 0.002,0.025 l -0.351563,1.7597 m -0.06055,-1.2988 c -0.0612,-0.09 -0.127605,-0.1569 -0.199218,-0.2012 -0.07031,-0.045 -0.149741,-0.068 -0.238282,-0.068 -0.07031,0 -0.134115,0.017 -0.191406,0.051 -0.05599,0.033 -0.106121,0.076 -0.150391,0.1308 -0.04297,0.055 -0.08073,0.1172 -0.113281,0.1875 -0.03125,0.069 -0.05729,0.1406 -0.07813,0.2149 -0.01953,0.074 -0.03451,0.1471 -0.04492,0.2187 -0.0091,0.072 -0.01367,0.1361 -0.01367,0.1934 0,0.045 0.0033,0.091 0.0098,0.1367 0.0078,0.044 0.02148,0.085 0.04102,0.123 0.02083,0.037 0.04883,0.066 0.08398,0.09 0.03516,0.022 0.08073,0.033 0.136719,0.033 0.07161,0 0.143228,-0.02 0.214844,-0.059 0.07292,-0.04 0.140623,-0.096 0.203125,-0.166 0.0625,-0.07 0.117837,-0.153 0.166015,-0.2481 0.04818,-0.095 0.08398,-0.1998 0.107422,-0.3144 l 0.06641,-0.3223"
         style=""
         id="path3907" />
      <path
         d="m 22.045898,1046.4501 c -1e-6,0.01 -0.0013,0.016 -0.0039,0.031 -0.0013,0.014 -0.0033,0.031 -0.0059,0.051 -0.0026,0.02 -0.0065,0.04 -0.01172,0.061 -0.0052,0.021 -0.01172,0.04 -0.01953,0.059 -0.0078,0.017 -0.01628,0.031 -0.02539,0.043 -0.0078,0.012 -0.01693,0.018 -0.02734,0.018 -0.01042,0 -0.02214,-0 -0.03516,-0.01 -0.01172,-0.01 -0.02539,-0.011 -0.04102,-0.017 -0.01432,-0.01 -0.03125,-0.012 -0.05078,-0.016 -0.01953,-0.01 -0.04232,-0.01 -0.06836,-0.01 -0.04427,0 -0.0957,0.02 -0.154297,0.059 -0.05729,0.038 -0.113933,0.091 -0.169922,0.1582 -0.05599,0.068 -0.107422,0.1478 -0.154297,0.2402 -0.04557,0.092 -0.07943,0.1928 -0.101562,0.3008 l -0.154297,0.7832 c -0.0026,0.01 -0.0072,0.02 -0.01367,0.027 -0.0065,0.01 -0.01628,0.012 -0.0293,0.018 -0.01302,0.01 -0.0306,0.01 -0.05273,0.012 -0.02083,0 -0.04687,0 -0.07813,0 -0.03255,0 -0.05925,-0 -0.08008,-0 -0.01953,-0 -0.03516,-0.01 -0.04687,-0.012 -0.01042,-0.01 -0.01758,-0.011 -0.02148,-0.018 -0.0026,-0.01 -0.0026,-0.017 0,-0.027 l 0.34961,-1.7597 c 0.0013,-0.01 0.0052,-0.018 0.01172,-0.025 0.0065,-0.01 0.01628,-0.014 0.0293,-0.02 0.01302,-0.01 0.02865,-0.01 0.04687,-0.01 0.01953,-0 0.04232,-0 0.06836,-0 0.02734,0 0.04948,0 0.06641,0 0.01823,0 0.0319,0 0.04102,0.01 0.01042,0.01 0.01693,0.012 0.01953,0.02 0.0026,0.01 0.0033,0.016 0.002,0.025 l -0.06445,0.3203 c 0.02995,-0.053 0.0651,-0.1048 0.105469,-0.1543 0.04167,-0.05 0.08659,-0.092 0.134765,-0.1289 0.04818,-0.038 0.09831,-0.068 0.150391,-0.09 0.05338,-0.022 0.105467,-0.033 0.15625,-0.033 0.02213,0 0.04427,0 0.06641,0.01 0.02344,0 0.04492,0.01 0.06445,0.012 0.01953,0 0.03646,0.01 0.05078,0.016 0.01562,0.01 0.02734,0.012 0.03516,0.02 0.0078,0.01 0.01172,0.02 0.01172,0.037"
         style=""
         id="path3909" />
      <path
         d="m 23.333008,1046.4677 c -2e-6,0.012 -6.53e-4,0.025 -0.002,0.039 -0.0013,0.013 -0.0039,0.027 -0.0078,0.041 -0.0039,0.014 -0.0091,0.029 -0.01563,0.043 -0.0065,0.014 -0.01367,0.027 -0.02148,0.039 -0.0065,0.01 -0.01432,0.019 -0.02344,0.025 -0.0091,0.01 -0.01953,0.01 -0.03125,0.01 l -0.449218,0 -0.197266,0.9805 c -0.0052,0.027 -0.0098,0.058 -0.01367,0.092 -0.0039,0.034 -0.0059,0.062 -0.0059,0.084 -10e-7,0.066 0.01367,0.1152 0.04102,0.1465 0.02865,0.03 0.07422,0.045 0.136719,0.045 0.03515,0 0.06575,-0 0.0918,-0.01 0.02604,-0.01 0.04818,-0.013 0.06641,-0.02 0.01953,-0.01 0.03646,-0.012 0.05078,-0.018 0.01432,-0.01 0.02669,-0.01 0.03711,-0.01 0.01042,0 0.01823,0 0.02344,0.012 0.0065,0.01 0.0098,0.02 0.0098,0.039 -1e-6,0.017 -0.002,0.036 -0.0059,0.057 -0.0026,0.02 -0.0065,0.039 -0.01172,0.059 -0.0052,0.019 -0.01172,0.037 -0.01953,0.053 -0.0078,0.016 -0.01628,0.028 -0.02539,0.037 -0.01042,0.01 -0.02604,0.018 -0.04687,0.027 -0.02083,0.01 -0.04492,0.017 -0.07227,0.023 -0.02734,0.01 -0.05664,0.014 -0.08789,0.018 -0.02995,0 -0.0599,0.01 -0.08984,0.01 -0.07292,0 -0.136068,-0.01 -0.189453,-0.024 -0.05339,-0.016 -0.09831,-0.04 -0.134766,-0.072 -0.03646,-0.034 -0.0638,-0.076 -0.08203,-0.125 -0.01693,-0.051 -0.02539,-0.1114 -0.02539,-0.1817 0,-0.016 6.51e-4,-0.033 0.002,-0.051 0.0013,-0.02 0.0033,-0.04 0.0059,-0.061 0.0039,-0.021 0.0072,-0.042 0.0098,-0.062 0.0039,-0.021 0.0078,-0.04 0.01172,-0.059 l 0.197266,-0.9883 -0.244141,0 c -0.01432,0 -0.02539,-0 -0.0332,-0.012 -0.0078,-0.01 -0.01172,-0.026 -0.01172,-0.051 0,-0.018 0.002,-0.039 0.0059,-0.062 0.0039,-0.025 0.0098,-0.047 0.01758,-0.068 0.0078,-0.021 0.01758,-0.039 0.0293,-0.053 0.01302,-0.014 0.02799,-0.021 0.04492,-0.021 l 0.246093,0 0.08398,-0.4179 c 0.0013,-0.01 0.0052,-0.018 0.01172,-0.025 0.0078,-0.01 0.01823,-0.014 0.03125,-0.02 0.01302,-0.01 0.02995,-0.011 0.05078,-0.014 0.02213,-0 0.04883,-0 0.08008,-0 0.03125,0 0.05664,0 0.07617,0 0.02083,0 0.03646,0.01 0.04687,0.014 0.01172,0.01 0.01888,0.012 0.02148,0.02 0.0039,0.01 0.0052,0.016 0.0039,0.025 l -0.08398,0.4179 0.449219,0 c 0.01953,0 0.03255,0.01 0.03906,0.021 0.0065,0.014 0.0098,0.031 0.0098,0.049"
         style=""
         id="path3911" />
      <path
         d="m 27.110352,1048.2059 c -0.0026,0.01 -0.0072,0.018 -0.01367,0.025 -0.0065,0.01 -0.01628,0.014 -0.0293,0.02 -0.01302,0 -0.0306,0.01 -0.05273,0.01 -0.02084,0 -0.04753,0.01 -0.08008,0.01 -0.03125,0 -0.05729,-0 -0.07813,-0.01 -0.02084,-0 -0.03711,-0.01 -0.04883,-0.01 -0.01172,-0.01 -0.01953,-0.012 -0.02344,-0.02 -0.0026,-0.01 -0.0026,-0.016 0,-0.025 l 0.439453,-2.2011 -0.0039,0 -1.345704,2.2089 c -0.01042,0.018 -0.0293,0.032 -0.05664,0.041 -0.02735,0.01 -0.06706,0.012 -0.119141,0.012 -0.05339,0 -0.09115,-0 -0.113281,-0.014 -0.02214,-0.01 -0.03386,-0.023 -0.03516,-0.039 l -0.419922,-2.2109 -0.0039,0 -0.439454,2.2031 c -0.0026,0.01 -0.0072,0.018 -0.01367,0.025 -0.0065,0.01 -0.01628,0.014 -0.0293,0.02 -0.01302,0 -0.0306,0.01 -0.05273,0.01 -0.02083,0 -0.04753,0.01 -0.08008,0.01 -0.03125,0 -0.05729,-0 -0.07813,-0.01 -0.02083,-0 -0.03711,-0.01 -0.04883,-0.01 -0.01042,-0.01 -0.01758,-0.012 -0.02148,-0.02 -0.0026,-0.01 -0.0026,-0.016 0,-0.025 l 0.46289,-2.3261 c 0.0052,-0.026 0.01367,-0.049 0.02539,-0.068 0.01172,-0.02 0.02539,-0.035 0.04102,-0.047 0.01562,-0.013 0.0319,-0.022 0.04883,-0.027 0.01823,-0.01 0.03646,-0.01 0.05469,-0.01 l 0.195313,0 c 0.04167,0 0.07617,0 0.103515,0.014 0.02865,0.01 0.05208,0.02 0.07031,0.037 0.01953,0.017 0.0345,0.038 0.04492,0.064 0.01042,0.026 0.01823,0.057 0.02344,0.094 l 0.365235,1.8262 0.0098,0 1.128906,-1.8262 c 0.01953,-0.035 0.03906,-0.065 0.05859,-0.09 0.01953,-0.026 0.04101,-0.048 0.06445,-0.065 0.02474,-0.018 0.05143,-0.032 0.08008,-0.041 0.02994,-0.01 0.06315,-0.014 0.09961,-0.014 l 0.222656,0 c 0.01953,0 0.03711,0 0.05273,0.01 0.01562,0.01 0.02864,0.014 0.03906,0.027 0.01171,0.012 0.01888,0.027 0.02148,0.047 0.0039,0.018 0.0033,0.041 -0.002,0.068 l -0.46289,2.3261"
         style=""
         id="path3913" />
      <path
         d="m 29.426758,1046.8075 c -2e-6,0.09 -0.02083,0.1706 -0.0625,0.2422 -0.04167,0.072 -0.106773,0.1328 -0.195313,0.1836 -0.08854,0.051 -0.201824,0.09 -0.339843,0.1172 -0.138022,0.027 -0.303387,0.041 -0.496094,0.041 l -0.207031,0 c -0.0091,0.043 -0.01563,0.085 -0.01953,0.125 -0.0026,0.04 -0.0039,0.078 -0.0039,0.1133 0,0.1302 0.0319,0.2298 0.0957,0.2988 0.0651,0.069 0.169921,0.1035 0.314453,0.1035 0.08333,0 0.158202,-0.01 0.22461,-0.018 0.0664,-0.013 0.123696,-0.027 0.171875,-0.041 0.04948,-0.014 0.08984,-0.027 0.121093,-0.039 0.03125,-0.013 0.05273,-0.02 0.06445,-0.02 0.01172,0 0.02018,0 0.02539,0.014 0.0065,0.01 0.0098,0.02 0.0098,0.035 -2e-6,0.013 -0.0013,0.029 -0.0039,0.047 -0.0026,0.018 -0.0065,0.037 -0.01172,0.057 -0.0052,0.018 -0.01237,0.036 -0.02148,0.053 -0.0078,0.017 -0.01693,0.031 -0.02734,0.043 -0.01563,0.016 -0.04362,0.031 -0.08398,0.047 -0.03906,0.014 -0.08594,0.028 -0.140625,0.041 -0.05469,0.012 -0.114584,0.021 -0.179687,0.029 -0.0651,0.01 -0.130209,0.012 -0.195313,0.012 -0.115886,0 -0.217448,-0.013 -0.304687,-0.039 -0.08724,-0.026 -0.160157,-0.066 -0.21875,-0.1191 -0.05729,-0.055 -0.100261,-0.1224 -0.128906,-0.2032 -0.02865,-0.081 -0.04297,-0.1757 -0.04297,-0.2851 0,-0.085 0.0078,-0.1751 0.02344,-0.2715 0.01693,-0.098 0.04297,-0.194 0.07813,-0.2891 0.03516,-0.095 0.08073,-0.1862 0.136719,-0.2734 0.05599,-0.087 0.122395,-0.1641 0.199219,-0.2305 0.07812,-0.066 0.167968,-0.1198 0.269531,-0.1601 0.101562,-0.04 0.216145,-0.061 0.34375,-0.061 0.109374,0 0.201822,0.014 0.277344,0.041 0.07682,0.027 0.139321,0.062 0.1875,0.1055 0.04948,0.043 0.08528,0.091 0.107422,0.1445 0.02213,0.052 0.0332,0.1042 0.0332,0.1563 m -0.330078,0.029 c -2e-6,-0.066 -0.02604,-0.1198 -0.07813,-0.1602 -0.05208,-0.042 -0.126304,-0.062 -0.222657,-0.062 -0.08464,0 -0.159506,0.015 -0.224609,0.045 -0.0651,0.029 -0.123048,0.068 -0.173828,0.1171 -0.04948,0.05 -0.09245,0.1075 -0.128906,0.1739 -0.03516,0.065 -0.0638,0.1341 -0.08594,0.207 l 0.199219,0 c 0.136718,0 0.25065,-0.01 0.341797,-0.025 0.09245,-0.017 0.166014,-0.04 0.220703,-0.068 0.05599,-0.03 0.09505,-0.064 0.117187,-0.1036 0.02344,-0.039 0.03515,-0.08 0.03516,-0.123"
         style=""
         id="path3915" />
      <path
         d="m 31.12207,1048.2059 c -0.0039,0.022 -0.01758,0.038 -0.04102,0.047 -0.02344,0.01 -0.0625,0.014 -0.117188,0.014 -0.02735,0 -0.04948,-0 -0.06641,-0 -0.01693,-0 -0.0306,-0.01 -0.04102,-0.01 -0.01042,-0.01 -0.01758,-0.011 -0.02148,-0.018 -0.0026,-0.01 -0.0026,-0.018 0,-0.029 l 0.0625,-0.3281 c -0.01693,0.043 -0.04753,0.089 -0.0918,0.1387 -0.04427,0.048 -0.09701,0.093 -0.158203,0.1347 -0.0599,0.04 -0.126954,0.074 -0.201172,0.1016 -0.07422,0.026 -0.14974,0.039 -0.226562,0.039 -0.07682,0 -0.143881,-0.01 -0.201172,-0.031 -0.05599,-0.02 -0.103516,-0.046 -0.142578,-0.08 -0.03776,-0.034 -0.06901,-0.073 -0.09375,-0.1171 -0.02344,-0.046 -0.04232,-0.092 -0.05664,-0.1387 -0.01302,-0.048 -0.02214,-0.096 -0.02734,-0.1445 -0.0039,-0.048 -0.0059,-0.092 -0.0059,-0.1329 0,-0.076 0.0072,-0.1601 0.02148,-0.2539 0.01432,-0.094 0.03711,-0.1875 0.06836,-0.2812 0.03125,-0.095 0.07096,-0.1875 0.11914,-0.2774 0.04948,-0.091 0.108724,-0.1712 0.177735,-0.2402 0.06901,-0.07 0.148436,-0.1269 0.238281,-0.1699 0.09115,-0.043 0.194009,-0.064 0.308594,-0.064 0.05599,0 0.108722,0.01 0.158203,0.02 0.04948,0.012 0.0944,0.029 0.134765,0.051 0.04036,0.021 0.07747,0.046 0.111328,0.076 0.03385,0.03 0.06445,0.061 0.0918,0.094 l 0.199219,-0.9961 c 0.0013,-0.01 0.0052,-0.018 0.01172,-0.025 0.0065,-0.01 0.01627,-0.016 0.0293,-0.02 0.01302,-0.01 0.02995,-0.01 0.05078,-0.012 0.02083,-0 0.04752,-0.01 0.08008,-0.01 0.03125,0 0.05664,0 0.07617,0.01 0.02083,0 0.03711,0.01 0.04883,0.012 0.01172,0 0.01888,0.01 0.02148,0.02 0.0039,0.01 0.0046,0.016 0.002,0.025 l -0.519532,2.6015 m -0.0625,-1.2929 c -0.0612,-0.09 -0.127605,-0.1582 -0.199218,-0.2051 -0.07031,-0.047 -0.149741,-0.07 -0.238282,-0.07 -0.06901,0 -0.131511,0.016 -0.1875,0.049 -0.05469,0.031 -0.104167,0.074 -0.148437,0.127 -0.04427,0.053 -0.08268,0.1145 -0.115235,0.1835 -0.03125,0.069 -0.05729,0.1407 -0.07813,0.2149 -0.02083,0.073 -0.03646,0.1452 -0.04687,0.2168 -0.01042,0.072 -0.01563,0.1374 -0.01563,0.1973 0,0.1263 0.02148,0.2233 0.06445,0.291 0.04297,0.066 0.111978,0.1 0.207031,0.1 0.07161,0 0.143228,-0.02 0.214844,-0.059 0.07292,-0.039 0.140623,-0.093 0.203125,-0.1621 0.0625,-0.069 0.117837,-0.1511 0.166015,-0.2461 0.04818,-0.095 0.08398,-0.1992 0.107422,-0.3125 l 0.06641,-0.3242"
         style=""
         id="path3917" />
      <path
         d="m 32.543945,1045.8563 c -0.0065,0.037 -0.01563,0.067 -0.02734,0.092 -0.01042,0.025 -0.02474,0.045 -0.04297,0.061 -0.01823,0.014 -0.04102,0.025 -0.06836,0.031 -0.02734,0.01 -0.06055,0.01 -0.09961,0.01 -0.03776,0 -0.06901,-0 -0.09375,-0.01 -0.02474,-0.01 -0.04297,-0.017 -0.05469,-0.031 -0.01172,-0.016 -0.01823,-0.036 -0.01953,-0.061 -0.0013,-0.025 0.0013,-0.055 0.0078,-0.092 0.0078,-0.036 0.01758,-0.066 0.0293,-0.09 0.01172,-0.025 0.02604,-0.045 0.04297,-0.061 0.01823,-0.017 0.04102,-0.028 0.06836,-0.033 0.02734,-0.01 0.06055,-0.01 0.09961,-0.01 0.03776,0 0.06836,0 0.0918,0.01 0.02474,0.01 0.04297,0.016 0.05469,0.033 0.01302,0.016 0.02018,0.036 0.02148,0.061 0.0013,0.023 -0.002,0.053 -0.0098,0.09 m -0.505859,2.3496 c -0.0026,0.01 -0.0072,0.02 -0.01367,0.027 -0.0065,0.01 -0.01628,0.012 -0.0293,0.018 -0.01302,0.01 -0.0306,0.01 -0.05273,0.012 -0.02083,0 -0.04687,0 -0.07813,0 -0.03255,0 -0.05925,-0 -0.08008,-0 -0.01953,-0 -0.03516,-0.01 -0.04687,-0.012 -0.01042,-0.01 -0.01758,-0.011 -0.02148,-0.018 -0.0026,-0.01 -0.0026,-0.017 0,-0.027 l 0.34961,-1.7578 c 0.0013,-0.01 0.0052,-0.018 0.01172,-0.025 0.0065,-0.01 0.01628,-0.014 0.0293,-0.02 0.01302,-0.01 0.02995,-0.01 0.05078,-0.012 0.02213,-0 0.04948,-0 0.08203,-0 0.03125,0 0.05664,0 0.07617,0 0.02083,0 0.03646,0.01 0.04687,0.012 0.01172,0.01 0.01888,0.012 0.02148,0.02 0.0039,0.01 0.0052,0.016 0.0039,0.025 l -0.349609,1.7578"
         style=""
         id="path3919" />
      <path
         d="m 34.09668,1048.2059 c -0.0052,0.022 -0.01953,0.038 -0.04297,0.047 -0.02344,0.01 -0.0625,0.014 -0.117188,0.014 -0.02604,0 -0.04753,-0 -0.06445,-0 -0.01693,-0 -0.0306,-0.01 -0.04102,-0.01 -0.01042,-0.01 -0.01758,-0.011 -0.02148,-0.018 -0.0039,-0.01 -0.0039,-0.018 0,-0.029 l 0.06445,-0.332 c -0.01693,0.042 -0.04753,0.087 -0.0918,0.1367 -0.04427,0.049 -0.09701,0.095 -0.158204,0.1367 -0.0599,0.042 -0.126954,0.076 -0.201171,0.1036 -0.07422,0.027 -0.149741,0.041 -0.226563,0.041 -0.104167,0 -0.190756,-0.018 -0.259766,-0.055 -0.06771,-0.036 -0.121745,-0.085 -0.162109,-0.1445 -0.04037,-0.06 -0.06836,-0.1277 -0.08398,-0.2032 -0.01432,-0.075 -0.02148,-0.153 -0.02148,-0.2324 0,-0.073 0.0065,-0.1556 0.01953,-0.248 0.01432,-0.092 0.03646,-0.1869 0.06641,-0.2832 0.03125,-0.096 0.07096,-0.1901 0.11914,-0.2813 0.04948,-0.091 0.108724,-0.1725 0.177735,-0.2441 0.06901,-0.073 0.149088,-0.1309 0.240234,-0.1739 0.09114,-0.044 0.194661,-0.066 0.310547,-0.066 0.115884,0 0.214843,0.024 0.296875,0.07 0.08333,0.047 0.157551,0.1114 0.222656,0.1934 l 0.03711,-0.1777 c 0.0052,-0.021 0.02018,-0.036 0.04492,-0.045 0.02474,-0.01 0.06315,-0.014 0.115234,-0.014 0.02604,0 0.04752,0 0.06445,0 0.01823,0 0.03255,0 0.04297,0.01 0.01042,0.01 0.01693,0.012 0.01953,0.02 0.0026,0.01 0.0033,0.016 0.002,0.025 l -0.351562,1.7597 m -0.06055,-1.2988 c -0.0612,-0.09 -0.127606,-0.1569 -0.199219,-0.2012 -0.07031,-0.045 -0.149741,-0.068 -0.238281,-0.068 -0.07031,0 -0.134116,0.017 -0.191406,0.051 -0.05599,0.033 -0.106121,0.076 -0.150391,0.1308 -0.04297,0.055 -0.08073,0.1172 -0.113281,0.1875 -0.03125,0.069 -0.05729,0.1406 -0.07813,0.2149 -0.01953,0.074 -0.03451,0.1471 -0.04492,0.2187 -0.0091,0.072 -0.01367,0.1361 -0.01367,0.1934 -10e-7,0.045 0.0033,0.091 0.0098,0.1367 0.0078,0.044 0.02148,0.085 0.04102,0.123 0.02083,0.037 0.04883,0.066 0.08398,0.09 0.03516,0.022 0.08073,0.033 0.136718,0.033 0.07161,0 0.143229,-0.02 0.214844,-0.059 0.07292,-0.04 0.140624,-0.096 0.203125,-0.166 0.0625,-0.07 0.117837,-0.153 0.166016,-0.2481 0.04818,-0.095 0.08398,-0.1998 0.107422,-0.3144 l 0.06641,-0.3223"
         style=""
         id="path3921" />
    </g>
    <path
       style="fill:#c8c8c8;fill-opacity:1;fill-rule:nonzero;stroke:none"
       d="m 31.707806,1029.5708 c -2.20914,0 -4,1.7908 -4,4 0,2.2091 1.79086,4 4,4 2.209139,0 4,-1.7909 4,-4 0,-2.2092 -1.790861,-4 -4,-4 z m 0,0.4444 c 1.96368,0 3.555556,1.592 3.555556,3.5556 0,1.9637 -1.591876,3.5556 -3.555556,3.5556 -1.963679,0 -3.555556,-1.5919 -3.555556,-3.5556 0,-1.9636 1.591877,-3.5556 3.555556,-3.5556 z"
       id="path3864" />
    <path
       style="fill:#c8c8c8;fill-opacity:1;fill-rule:nonzero;stroke:none"
       d="m 10.84375,28.000872 0,3.967878 15,0 0,-5 -13.845021,0 -1.154979,1.032122 z m 1.333993,-0.625872 5.978507,0 0,4.1875 -6.90625,0 0,-3.372224 0.927743,-0.815276 z m 6.353507,0 6.9375,0 0,4.1875 -6.9375,0 0,-4.1875 z"
       transform="translate(0,1004.3622)"
       id="rect3869"
       sodipodi:nodetypes="ccccccccccccccccc" />
    <g
       style="font-size:3px;font-style:normal;font-variant:normal;font-weight:normal;font-stretch:normal;fill:#c8c8c8;fill-opacity:1;stroke:none;font-family:Calibri;-inkscape-font-specification:Calibri"
       id="text3882">
      <path
         d="m 14.470847,1034.2367 c -10e-7,0.087 -0.01514,0.1655 -0.04541,0.2358 -0.03028,0.069 -0.07373,0.1289 -0.130371,0.1787 -0.05664,0.05 -0.126466,0.088 -0.209473,0.1158 -0.08301,0.026 -0.176758,0.039 -0.28125,0.039 -0.06348,0 -0.123047,-0.01 -0.178711,-0.016 -0.05469,-0.01 -0.103516,-0.022 -0.146484,-0.035 -0.04297,-0.015 -0.07861,-0.029 -0.106934,-0.044 -0.02832,-0.016 -0.04639,-0.027 -0.0542,-0.034 -0.0068,-0.01 -0.01221,-0.014 -0.01611,-0.021 -0.0039,-0.01 -0.0073,-0.015 -0.01025,-0.025 -0.0029,-0.01 -0.0054,-0.022 -0.0073,-0.035 -9.77e-4,-0.015 -0.0015,-0.032 -0.0015,-0.053 0,-0.035 0.0034,-0.06 0.01025,-0.073 0.0068,-0.014 0.0166,-0.021 0.0293,-0.021 0.0088,0 0.02588,0.01 0.05127,0.023 0.02637,0.016 0.05957,0.033 0.09961,0.051 0.04101,0.017 0.08838,0.034 0.142089,0.05 0.05469,0.016 0.115234,0.023 0.181641,0.023 0.06445,0 0.121093,-0.01 0.169922,-0.025 0.04883,-0.017 0.08984,-0.04 0.123047,-0.07 0.0332,-0.03 0.0581,-0.066 0.07471,-0.1069 0.0166,-0.042 0.0249,-0.087 0.0249,-0.1363 -10e-7,-0.054 -0.01074,-0.102 -0.03223,-0.145 -0.02051,-0.043 -0.05127,-0.08 -0.09229,-0.1113 -0.04004,-0.031 -0.08984,-0.055 -0.149414,-0.072 -0.05859,-0.017 -0.125489,-0.025 -0.200683,-0.025 l -0.180176,0 c -0.0078,0 -0.01563,-0 -0.02344,-0 -0.0068,-0 -0.01318,-0.01 -0.01904,-0.018 -0.0049,-0.01 -0.0093,-0.018 -0.01318,-0.031 -0.0029,-0.013 -0.0044,-0.029 -0.0044,-0.05 0,-0.019 0.0015,-0.034 0.0044,-0.045 0.0029,-0.013 0.0068,-0.023 0.01172,-0.029 0.0059,-0.01 0.01221,-0.013 0.01904,-0.016 0.0068,-0 0.01465,-0.01 0.02344,-0.01 l 0.165527,0 c 0.06445,0 0.12207,-0.01 0.172852,-0.025 0.05176,-0.017 0.09521,-0.041 0.130371,-0.072 0.03613,-0.031 0.06348,-0.068 0.08203,-0.1113 0.01953,-0.044 0.0293,-0.093 0.0293,-0.1465 -10e-7,-0.039 -0.0063,-0.076 -0.01904,-0.1113 -0.0127,-0.036 -0.03174,-0.067 -0.05713,-0.094 -0.02539,-0.026 -0.05811,-0.047 -0.09814,-0.062 -0.03906,-0.016 -0.08447,-0.023 -0.136231,-0.023 -0.05664,0 -0.108887,0.01 -0.156738,0.026 -0.04687,0.017 -0.08887,0.035 -0.125976,0.054 -0.03711,0.02 -0.06787,0.038 -0.09229,0.056 -0.02441,0.017 -0.0415,0.025 -0.05127,0.025 -0.0068,0 -0.01318,-10e-4 -0.01904,-0 -0.0049,-0 -0.0093,-0.01 -0.01318,-0.015 -0.0029,-0.01 -0.0054,-0.018 -0.0073,-0.031 -9.77e-4,-0.014 -0.0015,-0.031 -0.0015,-0.053 0,-0.015 4.88e-4,-0.027 0.0015,-0.038 9.76e-4,-0.012 0.0029,-0.022 0.0059,-0.029 0.0029,-0.01 0.0063,-0.017 0.01025,-0.023 0.0039,-0.01 0.01025,-0.015 0.01904,-0.023 0.0098,-0.01 0.02881,-0.024 0.05713,-0.041 0.02832,-0.018 0.06299,-0.035 0.104004,-0.051 0.04199,-0.018 0.08984,-0.032 0.143555,-0.044 0.05469,-0.012 0.11328,-0.018 0.175781,-0.018 0.08789,0 0.165038,0.011 0.231445,0.034 0.06641,0.023 0.121581,0.054 0.165528,0.095 0.04492,0.041 0.07812,0.09 0.09961,0.1479 0.02246,0.057 0.03369,0.1196 0.03369,0.189 -2e-6,0.059 -0.0078,0.1152 -0.02344,0.167 -0.01563,0.051 -0.03857,0.096 -0.06885,0.1362 -0.03027,0.039 -0.06738,0.073 -0.111328,0.1011 -0.04395,0.027 -0.09473,0.046 -0.152344,0.057 l 0,0 c 0.06543,0.01 0.124999,0.024 0.178711,0.05 0.05469,0.025 0.101562,0.058 0.140625,0.097 0.03906,0.039 0.06934,0.085 0.09082,0.1377 0.02246,0.052 0.03369,0.1074 0.03369,0.167"
         style=""
         id="path3891" />
      <path
         d="m 15.673484,1034.7347 c -0.0039,0.011 -0.0093,0.02 -0.01611,0.026 -0.0068,0.01 -0.0166,0.012 -0.0293,0.016 -0.01172,0 -0.02735,0.01 -0.04687,0.01 -0.01856,0 -0.04199,0 -0.07031,0 -0.02148,0 -0.04053,-5e-4 -0.05713,-0 -0.01563,0 -0.0293,-10e-4 -0.04101,-0 -0.01172,-0 -0.02197,-0 -0.03076,-0.01 -0.0078,-0 -0.01465,-0.01 -0.02051,-0.01 -0.0059,-0 -0.01074,-0.01 -0.01465,-0.013 -0.0029,-0.01 -0.0059,-0.013 -0.0088,-0.02 l -0.619629,-1.7608 c -0.0078,-0.021 -0.01221,-0.039 -0.01318,-0.051 0,-0.014 0.0044,-0.024 0.01318,-0.031 0.0088,-0.01 0.02295,-0.011 0.04248,-0.013 0.01953,-0 0.0459,-0 0.0791,-0 0.02734,0 0.04883,10e-4 0.06445,0 0.0166,10e-4 0.0293,0 0.03809,0.01 0.0088,0 0.01514,0.01 0.01904,0.016 0.0049,0.01 0.0093,0.014 0.01318,0.023 l 0.543457,1.5952 0.0015,0 0.528809,-1.5923 c 0.0029,-0.011 0.0063,-0.02 0.01025,-0.026 0.0039,-0.01 0.01074,-0.012 0.02051,-0.016 0.0098,-0 0.02344,-0.01 0.04101,-0.01 0.01758,-0 0.04101,-0 0.07031,-0 0.03027,0 0.0542,0 0.07178,0 0.01758,0 0.0293,0.01 0.03516,0.013 0.0068,0.01 0.0093,0.017 0.0073,0.031 -9.79e-4,0.013 -0.0054,0.03 -0.01318,0.051 l -0.618164,1.7607"
         style=""
         id="path3893" />
    </g>
    <g
       style="font-size:3px;font-style:normal;font-variant:normal;font-weight:normal;font-stretch:normal;fill:#c8c8c8;fill-opacity:1;stroke:none;font-family:Calibri;-inkscape-font-specification:Calibri"
       id="text3886">
      <path
         d="m 20.590014,1033.4808 c -2e-6,0.017 -0.0015,0.031 -0.0044,0.043 -0.002,0.012 -0.0054,0.021 -0.01025,0.029 -0.0039,0.01 -0.0093,0.012 -0.01611,0.016 -0.0059,0 -0.01221,0 -0.01904,0 l -0.191895,0 -0.05859,0.4863 0.169921,0 c 0.01465,0 0.02637,0.01 0.03516,0.022 0.0098,0.015 0.01465,0.039 0.01465,0.072 -1e-6,0.017 -0.0015,0.031 -0.0044,0.043 -0.0029,0.012 -0.0063,0.022 -0.01025,0.029 -0.0039,0.01 -0.0093,0.012 -0.01611,0.016 -0.0059,0 -0.01221,0 -0.01904,0 l -0.194824,0 -0.06152,0.501 c -9.78e-4,0.01 -0.0029,0.013 -0.0059,0.019 -0.0029,0 -0.0083,0.01 -0.01611,0.013 -0.0078,0 -0.01856,0 -0.03223,0.01 -0.01367,0 -0.03174,0 -0.0542,0 -0.02246,0 -0.04102,-10e-4 -0.05566,-0 -0.01465,-9e-4 -0.02588,-0 -0.03369,-0.01 -0.0078,-0 -0.01319,-0.01 -0.01611,-0.013 -0.0029,-0.01 -0.0039,-0.012 -0.0029,-0.019 l 0.06152,-0.501 -0.407226,0 -0.06152,0.501 c -0.002,0.01 -0.0044,0.013 -0.0073,0.019 -0.002,0 -0.0068,0.01 -0.01465,0.013 -0.0068,0 -0.01709,0 -0.03076,0.01 -0.01367,0 -0.03174,0 -0.0542,0 -0.02344,0 -0.04248,-10e-4 -0.05713,-0 -0.01465,-9e-4 -0.02588,-0 -0.03369,-0.01 -0.0078,-0 -0.01318,-0.01 -0.01611,-0.013 -0.0029,-0.01 -0.0039,-0.012 -0.0029,-0.019 l 0.06006,-0.501 -0.169922,0 c -0.01465,0 -0.02686,-0.01 -0.03662,-0.021 -0.0088,-0.015 -0.01318,-0.039 -0.01318,-0.072 0,-0.017 0.0015,-0.031 0.0044,-0.043 0.0029,-0.012 0.0063,-0.021 0.01025,-0.028 0.0039,-0.01 0.0088,-0.014 0.01465,-0.018 0.0059,-0 0.0127,-0.01 0.02051,-0.01 l 0.196289,0 0.06006,-0.4863 -0.177246,0 c -0.01465,0 -0.02686,-0.01 -0.03662,-0.022 -0.0088,-0.015 -0.01318,-0.037 -0.01318,-0.069 0,-0.034 0.0044,-0.059 0.01318,-0.073 0.0098,-0.015 0.02197,-0.022 0.03662,-0.022 l 0.199218,0 0.06006,-0.4702 c 9.76e-4,-0.01 0.0029,-0.013 0.0059,-0.018 0.0039,-0.01 0.0098,-0.01 0.01758,-0.013 0.0088,-0 0.02051,-0.01 0.03516,-0.01 0.01465,-0 0.0332,-0 0.05566,-0 0.02344,0 0.04199,10e-4 0.05566,0 0.01367,0 0.02392,0 0.03076,0.01 0.0078,0 0.01269,0.01 0.01465,0.013 0.002,0 0.0029,0.01 0.0029,0.016 l -0.06152,0.4717 0.407227,0 0.05713,-0.4702 c 9.75e-4,-0.01 0.0034,-0.013 0.0073,-0.018 0.0039,-0.01 0.0098,-0.01 0.01758,-0.013 0.0078,-0 0.01904,-0.01 0.03369,-0.01 0.01465,-0 0.03369,-0 0.05713,-0 0.02246,0 0.04053,10e-4 0.0542,0 0.01465,0 0.02539,0 0.03223,0.01 0.0068,0 0.01123,0.01 0.01318,0.013 0.0029,0 0.0039,0.01 0.0029,0.016 l -0.05859,0.4717 0.168457,0 c 0.01465,0 0.02637,0.01 0.03516,0.023 0.0098,0.015 0.01465,0.038 0.01465,0.07 m -0.865723,0.092 -0.05859,0.4863 0.405762,0 0.06152,-0.4863 -0.408691,0"
         style=""
         id="path3896" />
      <path
         d="m 22.957201,1034.7406 c -2e-6,0.01 -0.002,0.015 -0.0059,0.02 -0.0039,0.01 -0.01075,0.011 -0.02051,0.015 -0.0098,0 -0.02246,0.01 -0.03809,0.01 -0.01465,0 -0.03418,0 -0.05859,0 -0.02246,0 -0.04199,-0 -0.05859,-0 -0.01563,-0 -0.02832,-0 -0.03809,-0.01 -0.0088,-0 -0.01514,-0.01 -0.01904,-0.015 -0.0039,-0.01 -0.0059,-0.013 -0.0059,-0.02 l 0,-1.6509 -0.0029,0 -0.675293,1.6582 c -0.0029,0.01 -0.0073,0.013 -0.01318,0.018 -0.0049,0 -0.0127,0.01 -0.02344,0.013 -0.0098,0 -0.02197,0 -0.03662,0.01 -0.01367,0 -0.03027,0 -0.0498,0 -0.02051,0 -0.03809,-10e-4 -0.05273,-0 -0.01465,-0 -0.02686,-0 -0.03662,-0.01 -0.0098,-0 -0.01758,-0.01 -0.02344,-0.013 -0.0049,-0 -0.0083,-0.01 -0.01025,-0.016 l -0.645996,-1.6582 -0.0015,0 0,1.6509 c -1e-6,0.01 -0.002,0.015 -0.0059,0.02 -0.0039,0.01 -0.01074,0.011 -0.02051,0.015 -0.0098,0 -0.02246,0.01 -0.03809,0.01 -0.01563,0 -0.03564,0 -0.06006,0 -0.02344,0 -0.04297,-0 -0.05859,-0 -0.01563,-0 -0.02832,-0 -0.03809,-0.01 -0.0088,-0 -0.01514,-0.01 -0.01904,-0.015 -0.0029,-0.01 -0.0044,-0.013 -0.0044,-0.02 l 0,-1.7432 c 0,-0.041 0.01074,-0.07 0.03223,-0.088 0.02148,-0.017 0.04541,-0.026 0.07178,-0.026 l 0.152344,0 c 0.03125,0 0.05859,0 0.08203,0.01 0.02344,0.01 0.04394,0.015 0.06152,0.028 0.01758,0.013 0.03223,0.029 0.04395,0.048 0.01172,0.02 0.02197,0.043 0.03076,0.069 l 0.549317,1.3725 0.0073,0 0.571289,-1.3681 c 0.01074,-0.029 0.02246,-0.054 0.03516,-0.075 0.01269,-0.02 0.02636,-0.037 0.04102,-0.048 0.01562,-0.013 0.03271,-0.021 0.05127,-0.026 0.01855,-0.01 0.04004,-0.01 0.06445,-0.01 l 0.159668,0 c 0.01465,0 0.02832,0 0.04102,0.01 0.01367,0 0.0249,0.011 0.03369,0.021 0.0098,0.01 0.01758,0.02 0.02344,0.035 0.0059,0.014 0.0088,0.031 0.0088,0.051 l 0,1.7432"
         style=""
         id="path3898" />
      <path
         d="m 24.712084,1034.2352 c -2e-6,0.06 -0.0078,0.1148 -0.02344,0.1656 -0.01465,0.05 -0.03565,0.095 -0.06299,0.1347 -0.02735,0.04 -0.06055,0.075 -0.09961,0.1055 -0.03809,0.03 -0.08155,0.056 -0.130371,0.076 -0.04785,0.02 -0.09961,0.036 -0.155274,0.047 -0.05469,0.01 -0.117677,0.015 -0.188965,0.015 l -0.495117,0 c -0.02246,0 -0.04395,-0.01 -0.06445,-0.022 -0.01953,-0.016 -0.0293,-0.043 -0.0293,-0.081 l 0,-1.6904 c 0,-0.038 0.0098,-0.064 0.0293,-0.079 0.02051,-0.016 0.04199,-0.023 0.06445,-0.023 l 0.430664,0 c 0.113281,0 0.206054,0.011 0.27832,0.032 0.07227,0.021 0.132324,0.053 0.180176,0.094 0.04883,0.041 0.08545,0.091 0.109864,0.1508 0.02441,0.06 0.03662,0.127 0.03662,0.2022 -2e-6,0.045 -0.0054,0.088 -0.01611,0.1289 -0.01074,0.041 -0.02686,0.079 -0.04834,0.1142 -0.02051,0.034 -0.04688,0.065 -0.0791,0.092 -0.03125,0.027 -0.06738,0.05 -0.108398,0.067 0.05176,0.01 0.100096,0.028 0.145019,0.054 0.04492,0.025 0.08398,0.058 0.117188,0.098 0.03418,0.04 0.06103,0.087 0.08057,0.1406 0.01953,0.054 0.02929,0.1128 0.0293,0.1772 m -0.379395,-0.8481 c -10e-7,-0.046 -0.0063,-0.087 -0.01904,-0.1245 -0.0127,-0.037 -0.03272,-0.068 -0.06006,-0.094 -0.02735,-0.026 -0.06299,-0.046 -0.106934,-0.06 -0.04395,-0.014 -0.102051,-0.021 -0.174316,-0.021 l -0.260742,0 0,0.6137 0.287109,0 c 0.06543,0 0.118163,-0.01 0.158203,-0.025 0.04004,-0.018 0.07324,-0.041 0.09961,-0.069 0.02637,-0.029 0.04541,-0.063 0.05713,-0.1011 0.0127,-0.039 0.01904,-0.079 0.01904,-0.1201 m 0.114258,0.8628 c -1e-6,-0.057 -0.0093,-0.1065 -0.02783,-0.1494 -0.01758,-0.043 -0.04395,-0.079 -0.0791,-0.1084 -0.03418,-0.029 -0.07764,-0.051 -0.130372,-0.066 -0.05176,-0.016 -0.117188,-0.023 -0.196289,-0.023 l -0.301757,0 0,0.668 0.36621,0 c 0.05762,0 0.10791,-0.01 0.150879,-0.021 0.04297,-0.014 0.08057,-0.034 0.112793,-0.06 0.0332,-0.027 0.05908,-0.061 0.07764,-0.1011 0.01855,-0.04 0.02783,-0.086 0.02783,-0.1391"
         style=""
         id="path3900" />
    </g>
  </g>
</svg>
