<?xml version="1.0" encoding="UTF-8" standalone="no"?>
<!-- Created with Inkscape (http://www.inkscape.org/) -->

<svg
   xmlns:dc="http://purl.org/dc/elements/1.1/"
   xmlns:cc="http://creativecommons.org/ns#"
   xmlns:rdf="http://www.w3.org/1999/02/22-rdf-syntax-ns#"
   xmlns:svg="http://www.w3.org/2000/svg"
   xmlns="http://www.w3.org/2000/svg"
   xmlns:xlink="http://www.w3.org/1999/xlink"
   xmlns:sodipodi="http://sodipodi.sourceforge.net/DTD/sodipodi-0.dtd"
   xmlns:inkscape="http://www.inkscape.org/namespaces/inkscape"
   width="48"
   height="48"
   id="svg2"
   version="1.1"
   inkscape:version="0.47pre4 r22446"
   sodipodi:docname="gnome-dev-ipod.svg"
   inkscape:export-filename="/home/andrea/.icons/MeliaeSVG/48/devices/png/gnome-dev-ipod.png"
   inkscape:export-xdpi="240"
   inkscape:export-ydpi="240">
  <defs
     id="defs4">
    <linearGradient
       id="linearGradient3973">
      <stop
         style="stop-color:#1e62e9;stop-opacity:1"
         offset="0"
         id="stop3975" />
      <stop
         id="stop3981"
         offset="0.5"
         style="stop-color:#1caee2;stop-opacity:1" />
      <stop
         style="stop-color:#1960cf;stop-opacity:1"
         offset="1"
         id="stop3977" />
    </linearGradient>
    <linearGradient
       id="linearGradient3919">
      <stop
         id="stop3921"
         offset="0"
         style="stop-color:#646464;stop-opacity:1;" />
      <stop
         style="stop-color:#b4b4b4;stop-opacity:1;"
         offset="0.20657501"
         id="stop3927" />
      <stop
         id="stop3923"
         offset="1"
         style="stop-color:#f0f0f0;stop-opacity:1;" />
    </linearGradient>
    <linearGradient
       id="linearGradient3908">
      <stop
         style="stop-color:#85d9cc;stop-opacity:1"
         offset="0"
         id="stop3910" />
      <stop
         style="stop-color:#c7eff9;stop-opacity:1"
         offset="1"
         id="stop3912" />
    </linearGradient>
    <linearGradient
       inkscape:collect="always"
       id="linearGradient3812">
      <stop
         style="stop-color:#333333;stop-opacity:1;"
         offset="0"
         id="stop3814" />
      <stop
         style="stop-color:#333333;stop-opacity:0;"
         offset="1"
         id="stop3816" />
    </linearGradient>
    <linearGradient
       id="linearGradient3796">
      <stop
         style="stop-color:#646464;stop-opacity:1;"
         offset="0"
         id="stop3798" />
      <stop
         id="stop3808"
         offset="0.11536485"
         style="stop-color:#f0f0f0;stop-opacity:0;" />
      <stop
         id="stop3806"
         offset="0.70927542"
         style="stop-color:#c8c8c8;stop-opacity:1;" />
      <stop
         id="stop3804"
         offset="0.94000512"
         style="stop-color:#a0a0a0;stop-opacity:1;" />
      <stop
         style="stop-color:#646464;stop-opacity:1;"
         offset="1"
         id="stop3800" />
    </linearGradient>
    <inkscape:perspective
       sodipodi:type="inkscape:persp3d"
       inkscape:vp_x="0 : 526.18109 : 1"
       inkscape:vp_y="0 : 1000 : 0"
       inkscape:vp_z="744.09448 : 526.18109 : 1"
       inkscape:persp3d-origin="372.04724 : 350.78739 : 1"
       id="perspective10" />
    <inkscape:perspective
       id="perspective2902"
       inkscape:persp3d-origin="0.5 : 0.33333333 : 1"
       inkscape:vp_z="1 : 0.5 : 1"
       inkscape:vp_y="0 : 1000 : 0"
       inkscape:vp_x="0 : 0.5 : 1"
       sodipodi:type="inkscape:persp3d" />
    <inkscape:perspective
       id="perspective3012"
       inkscape:persp3d-origin="0.5 : 0.33333333 : 1"
       inkscape:vp_z="1 : 0.5 : 1"
       inkscape:vp_y="0 : 1000 : 0"
       inkscape:vp_x="0 : 0.5 : 1"
       sodipodi:type="inkscape:persp3d" />
    <linearGradient
       inkscape:collect="always"
       xlink:href="#linearGradient3796"
       id="linearGradient3802"
       x1="9.9928589"
       y1="1027.898"
       x2="37.792858"
       y2="1027.898"
       gradientUnits="userSpaceOnUse" />
    <radialGradient
       inkscape:collect="always"
       xlink:href="#linearGradient3812"
       id="radialGradient3818"
       cx="23.794642"
       cy="45.187498"
       fx="23.794642"
       fy="45.187498"
       r="15.044642"
       gradientTransform="matrix(1,0,0,0.09198813,0.09821606,1046.024)"
       gradientUnits="userSpaceOnUse" />
    <linearGradient
       inkscape:collect="always"
       xlink:href="#linearGradient3908"
       id="linearGradient3914"
       x1="16.928394"
       y1="1012.601"
       x2="30.857327"
       y2="1022.8287"
       gradientUnits="userSpaceOnUse" />
    <linearGradient
       inkscape:collect="always"
       xlink:href="#linearGradient3919"
       id="linearGradient3925"
       gradientUnits="userSpaceOnUse"
       x1="23.892859"
       y1="1008.7729"
       x2="23.892859"
       y2="1010.9944" />
    <linearGradient
       inkscape:collect="always"
       xlink:href="#linearGradient3973"
       id="linearGradient3979"
       x1="23.89286"
       y1="1010.9944"
       x2="23.89286"
       y2="1013.4944"
       gradientUnits="userSpaceOnUse"
       gradientTransform="matrix(1,0,0,1.12,0,-121.31933)" />
    <radialGradient
       inkscape:collect="always"
       xlink:href="#linearGradient3812"
       id="radialGradient4181"
       gradientUnits="userSpaceOnUse"
       gradientTransform="matrix(1,0,0,0.09198813,0.09821606,1046.024)"
       cx="23.794642"
       cy="45.187498"
       fx="23.794642"
       fy="45.187498"
       r="15.044642" />
    <linearGradient
       inkscape:collect="always"
       xlink:href="#linearGradient3796"
       id="linearGradient4183"
       gradientUnits="userSpaceOnUse"
       x1="9.9928589"
       y1="1027.898"
       x2="37.792858"
       y2="1027.898" />
    <linearGradient
       inkscape:collect="always"
       xlink:href="#linearGradient3908"
       id="linearGradient4185"
       gradientUnits="userSpaceOnUse"
       x1="16.928394"
       y1="1012.601"
       x2="30.857327"
       y2="1022.8287" />
    <linearGradient
       inkscape:collect="always"
       xlink:href="#linearGradient3919"
       id="linearGradient4187"
       gradientUnits="userSpaceOnUse"
       x1="23.892859"
       y1="1008.7729"
       x2="23.892859"
       y2="1010.9944" />
    <linearGradient
       inkscape:collect="always"
       xlink:href="#linearGradient3973"
       id="linearGradient4189"
       gradientUnits="userSpaceOnUse"
       gradientTransform="matrix(1,0,0,1.12,0,-121.31933)"
       x1="23.89286"
       y1="1010.9944"
       x2="23.89286"
       y2="1013.4944" />
    <inkscape:perspective
       id="perspective3873"
       inkscape:persp3d-origin="0.5 : 0.33333333 : 1"
       inkscape:vp_z="1 : 0.5 : 1"
       inkscape:vp_y="0 : 1000 : 0"
       inkscape:vp_x="0 : 0.5 : 1"
       sodipodi:type="inkscape:persp3d" />
    <linearGradient
       inkscape:collect="always"
       xlink:href="#linearGradient3766"
       id="linearGradient3772"
       x1="31.65625"
       y1="4.90625"
       x2="31.65625"
       y2="6"
       gradientUnits="userSpaceOnUse"
       gradientTransform="translate(0,1004.3113)" />
    <linearGradient
       id="linearGradient3766">
      <stop
         style="stop-color:#969696;stop-opacity:1;"
         offset="0"
         id="stop3768" />
      <stop
         style="stop-color:#646464;stop-opacity:1;"
         offset="1"
         id="stop3770" />
    </linearGradient>
    <linearGradient
       y2="6"
       x2="31.65625"
       y1="4.90625"
       x1="31.65625"
       gradientTransform="translate(-2.501e-4,1004.3112)"
       gradientUnits="userSpaceOnUse"
       id="linearGradient3882"
       xlink:href="#linearGradient3766"
       inkscape:collect="always" />
  </defs>
  <sodipodi:namedview
     id="base"
     pagecolor="#ffffff"
     bordercolor="#666666"
     borderopacity="1.0"
     inkscape:pageopacity="0.0"
     inkscape:pageshadow="2"
     inkscape:zoom="15.839192"
     inkscape:cx="24.76685"
     inkscape:cy="39.90458"
     inkscape:document-units="px"
     inkscape:current-layer="layer1"
     showgrid="false"
     inkscape:window-width="1280"
     inkscape:window-height="714"
     inkscape:window-x="0"
     inkscape:window-y="25"
     inkscape:window-maximized="1" />
  <metadata
     id="metadata7">
    <rdf:RDF>
      <cc:Work
         rdf:about="">
        <dc:format>image/svg+xml</dc:format>
        <dc:type
           rdf:resource="http://purl.org/dc/dcmitype/StillImage" />
        <dc:title />
      </cc:Work>
    </rdf:RDF>
  </metadata>
  <g
     inkscape:label="Livello 1"
     inkscape:groupmode="layer"
     id="layer1"
     transform="translate(0,-1004.3622)">
    <g
       id="g4112"
       transform="translate(0.10714149,-0.11917116)">
      <rect
         ry="1"
         rx="1"
         y="1048.7969"
         x="8.8482161"
         height="2.7678571"
         width="30.089285"
         id="rect3810"
         style="fill:url(#radialGradient4181);fill-opacity:1;stroke:none" />
      <rect
         ry="2"
         rx="2"
         y="1005.398"
         x="9.6428585"
         height="45"
         width="28.5"
         id="rect3018"
         style="fill:#646464;fill-opacity:1;stroke:none" />
      <rect
         style="fill:#f0f0f0;fill-opacity:1;stroke:none"
         id="rect3792"
         width="27.799999"
         height="44.299999"
         x="9.9928589"
         y="1005.748"
         rx="1.9508772"
         ry="1.9688889" />
      <rect
         ry="1.9688889"
         rx="1.9508772"
         y="1005.748"
         x="9.9928589"
         height="44.299999"
         width="27.799999"
         id="rect3794"
         style="fill:url(#linearGradient4183);fill-opacity:1;stroke:none" />
      <path
         id="path3820"
         transform="translate(0,1004.3622)"
         d="m 23.90625,23.25 c -5.384776,0 -9.75,4.365224 -9.75,9.75 0,5.384776 4.365224,9.75 9.75,9.75 5.384776,0 9.75,-4.365224 9.75,-9.75 0,-5.384776 -4.365224,-9.75 -9.75,-9.75 z m 0,5.25 c 2.485281,0 4.5,2.014719 4.5,4.5 0,2.485281 -2.014719,4.5 -4.5,4.5 -2.485281,0 -4.5,-2.014719 -4.5,-4.5 0,-2.485281 2.014719,-4.5 4.5,-4.5 z"
         style="fill:#8c8c8c;fill-opacity:1;stroke:none" />
      <path
         id="path3824"
         transform="translate(0,1004.3622)"
         d="m 23.90625,23.5 c -5.246705,0 -9.5,4.253295 -9.5,9.5 0,5.246705 4.253295,9.5 9.5,9.5 5.246705,0 9.5,-4.253295 9.5,-9.5 0,-5.246705 -4.253295,-9.5 -9.5,-9.5 z m 0,4.75 c 2.623353,0 4.75,2.126647 4.75,4.75 0,2.623353 -2.126647,4.75 -4.75,4.75 -2.623353,0 -4.75,-2.126647 -4.75,-4.75 0,-2.623353 2.126647,-4.75 4.75,-4.75 z"
         style="fill:#f0f0f0;fill-opacity:1;stroke:none" />
      <g
         transform="matrix(0.7597547,0,0,0.7597547,39.529107,249.41484)"
         id="g3845">
        <path
           sodipodi:type="star"
           style="fill:#8c8c8c;fill-opacity:1;stroke:none"
           id="path3839"
           sodipodi:sides="3"
           sodipodi:cx="-12.321429"
           sodipodi:cy="32.732143"
           sodipodi:r1="1.3422586"
           sodipodi:r2="0.67112923"
           sodipodi:arg1="0"
           sodipodi:arg2="1.0471976"
           inkscape:flatsided="false"
           inkscape:rounded="0.005"
           inkscape:randomized="0"
           d="m -10.979171,32.732143 c 0,0.0058 -1.00166,0.578309 -1.006694,0.581215 -0.005,0.0029 -1.00166,0.584121 -1.006694,0.581215 -0.005,-0.0029 10e-7,-1.156617 10e-7,-1.16243 0,-0.0058 -0.005,-1.159524 -10e-7,-1.16243 0.005,-0.0029 1.001661,0.578309 1.006694,0.581215 0.005,0.0029 1.006694,0.575403 1.006694,0.581215 z"
           transform="matrix(0.71207087,0,0,1,-3.7415803,1004.3622)" />
        <path
           transform="matrix(0.71207087,0,0,1,-2.3063125,1004.3622)"
           d="m -10.979171,32.732143 c 0,0.0058 -1.00166,0.578309 -1.006694,0.581215 -0.005,0.0029 -1.00166,0.584121 -1.006694,0.581215 -0.005,-0.0029 10e-7,-1.156617 10e-7,-1.16243 0,-0.0058 -0.005,-1.159524 -10e-7,-1.16243 0.005,-0.0029 1.001661,0.578309 1.006694,0.581215 0.005,0.0029 1.006694,0.575403 1.006694,0.581215 z"
           inkscape:randomized="0"
           inkscape:rounded="0.005"
           inkscape:flatsided="false"
           sodipodi:arg2="1.0471976"
           sodipodi:arg1="0"
           sodipodi:r2="0.67112923"
           sodipodi:r1="1.3422586"
           sodipodi:cy="32.732143"
           sodipodi:cx="-12.321429"
           sodipodi:sides="3"
           id="path3841"
           style="fill:#8c8c8c;fill-opacity:1;stroke:none"
           sodipodi:type="star" />
        <rect
           style="fill:#8c8c8c;fill-opacity:1;stroke:none"
           id="rect3843"
           width="0.41999999"
           height="2.325"
           x="-10.12426"
           y="1035.9583" />
      </g>
      <g
         id="g3850"
         transform="matrix(-0.7597547,0,0,0.7597547,8.283393,249.41484)">
        <path
           transform="matrix(0.71207087,0,0,1,-3.7415803,1004.3622)"
           d="m -10.979171,32.732143 c 0,0.0058 -1.00166,0.578309 -1.006694,0.581215 -0.005,0.0029 -1.00166,0.584121 -1.006694,0.581215 -0.005,-0.0029 10e-7,-1.156617 10e-7,-1.16243 0,-0.0058 -0.005,-1.159524 -10e-7,-1.16243 0.005,-0.0029 1.001661,0.578309 1.006694,0.581215 0.005,0.0029 1.006694,0.575403 1.006694,0.581215 z"
           inkscape:randomized="0"
           inkscape:rounded="0.005"
           inkscape:flatsided="false"
           sodipodi:arg2="1.0471976"
           sodipodi:arg1="0"
           sodipodi:r2="0.67112923"
           sodipodi:r1="1.3422586"
           sodipodi:cy="32.732143"
           sodipodi:cx="-12.321429"
           sodipodi:sides="3"
           id="path3852"
           style="fill:#8c8c8c;fill-opacity:1;stroke:none"
           sodipodi:type="star" />
        <path
           sodipodi:type="star"
           style="fill:#8c8c8c;fill-opacity:1;stroke:none"
           id="path3854"
           sodipodi:sides="3"
           sodipodi:cx="-12.321429"
           sodipodi:cy="32.732143"
           sodipodi:r1="1.3422586"
           sodipodi:r2="0.67112923"
           sodipodi:arg1="0"
           sodipodi:arg2="1.0471976"
           inkscape:flatsided="false"
           inkscape:rounded="0.005"
           inkscape:randomized="0"
           d="m -10.979171,32.732143 c 0,0.0058 -1.00166,0.578309 -1.006694,0.581215 -0.005,0.0029 -1.00166,0.584121 -1.006694,0.581215 -0.005,-0.0029 10e-7,-1.156617 10e-7,-1.16243 0,-0.0058 -0.005,-1.159524 -10e-7,-1.16243 0.005,-0.0029 1.001661,0.578309 1.006694,0.581215 0.005,0.0029 1.006694,0.575403 1.006694,0.581215 z"
           transform="matrix(0.71207087,0,0,1,-2.3063125,1004.3622)" />
        <rect
           y="1035.9583"
           x="-10.12426"
           height="2.325"
           width="0.41999999"
           id="rect3856"
           style="fill:#8c8c8c;fill-opacity:1;stroke:none" />
      </g>
      <g
         transform="translate(0,-0.27155566)"
         id="g3894">
        <text
           xml:space="preserve"
           style="font-size:1.5px;font-style:normal;font-variant:normal;font-weight:normal;font-stretch:normal;fill:#8c8c8c;fill-opacity:1;stroke:none;font-family:Calibri;-inkscape-font-specification:Calibri"
           x="21.931274"
           y="1030.9553"
           id="text3833"><tspan
             sodipodi:role="line"
             id="tspan3835"
             x="21.931274"
             y="1030.9553">MENU</tspan></text>
        <g
           id="g3889"
           transform="translate(1.0357138,-9.5089281)">
          <path
             sodipodi:type="star"
             style="fill:#8c8c8c;fill-opacity:1;stroke:none"
             id="path3878"
             sodipodi:sides="3"
             sodipodi:cx="-12.321429"
             sodipodi:cy="32.732143"
             sodipodi:r1="1.3422586"
             sodipodi:r2="0.67112923"
             sodipodi:arg1="0"
             sodipodi:arg2="1.0471976"
             inkscape:flatsided="false"
             inkscape:rounded="0.005"
             inkscape:randomized="0"
             d="m -10.979171,32.732143 c 0,0.0058 -1.00166,0.578309 -1.006694,0.581215 -0.005,0.0029 -1.00166,0.584121 -1.006694,0.581215 -0.005,-0.0029 10e-7,-1.156617 10e-7,-1.16243 0,-0.0058 -0.005,-1.159524 -10e-7,-1.16243 0.005,-0.0029 1.001661,0.578309 1.006694,0.581215 0.005,0.0029 1.006694,0.575403 1.006694,0.581215 z"
             transform="matrix(0.54099919,0,0,0.7597547,28.65071,1029.0016)" />
          <rect
             style="fill:#8c8c8c;fill-opacity:1;stroke:none"
             id="rect3882"
             width="0.31909695"
             height="1.7664297"
             x="23.801439"
             y="1053.0068" />
          <rect
             y="1053.0068"
             x="23.230028"
             height="1.7664297"
             width="0.31909695"
             id="rect3887"
             style="fill:#8c8c8c;fill-opacity:1;stroke:none" />
        </g>
      </g>
      <rect
         ry="0.97999996"
         rx="0.99094653"
         y="1008.5229"
         x="13.142859"
         height="17.5"
         width="21.5"
         id="rect3902"
         style="fill:#8c8c8c;fill-opacity:1;stroke:none" />
      <rect
         style="fill:url(#linearGradient4185);fill-opacity:1;stroke:none"
         id="rect3906"
         width="21"
         height="17"
         x="13.392859"
         y="1008.7729"
         rx="0.96790129"
         ry="0.95199996" />
      <path
         sodipodi:nodetypes="ccccccc"
         id="rect3916"
         d="m 14.360761,1008.7729 19.064197,0 c 0.536217,0 0.967901,0.4246 0.967901,0.952 l 0,1.2695 -21,0 0,-1.2695 c 0,-0.5274 0.431684,-0.952 0.967902,-0.952 z"
         style="fill:url(#linearGradient4187);fill-opacity:1;stroke:none" />
      <g
         id="text3929"
         style="font-size:2px;font-style:normal;font-variant:normal;font-weight:normal;font-stretch:normal;fill:#333333;fill-opacity:1;stroke:none;font-family:Calibri;-inkscape-font-specification:Calibri">
        <path
           id="path4044"
           d="m 22.431433,1010.5282 c -10e-7,0.01 -0.0013,0.01 -0.0039,0.014 -0.0026,0 -0.0068,0.01 -0.0127,0.01 -0.0059,0 -0.014,0 -0.02441,0.01 -0.01042,0 -0.02376,0 -0.04004,0 -0.01563,0 -0.02865,-7e-4 -0.03906,0 -0.01042,0 -0.01888,0 -0.02539,-0.01 -0.0059,0 -0.01009,-0.01 -0.01269,-0.01 -0.002,0 -0.0029,-0.01 -0.0029,-0.014 l 0,-0.8789 c 0,0 9.76e-4,-0.01 0.0029,-0.013 0.0026,0 0.0068,-0.01 0.01269,-0.01 0.0065,0 0.01497,0 0.02539,-0.01 0.01042,0 0.02344,0 0.03906,0 0.01628,0 0.02962,7e-4 0.04004,0 0.01042,0 0.01855,0 0.02441,0.01 0.0059,0 0.01009,0.01 0.0127,0.01 0.0026,0 0.0039,0.01 0.0039,0.013 l 0,0.8789 m 0.01855,-1.1758 c 0,0.038 -0.0072,0.063 -0.02148,0.077 -0.01432,0.014 -0.04069,0.02 -0.0791,0.02 -0.03776,0 -0.0638,-0.01 -0.07813,-0.02 -0.01367,-0.014 -0.02051,-0.039 -0.02051,-0.076 0,-0.038 0.0072,-0.064 0.02148,-0.077 0.01432,-0.014 0.04069,-0.02 0.0791,-0.02 0.03776,0 0.06348,0.01 0.07715,0.02 0.01432,0.013 0.02148,0.038 0.02148,0.075" />
        <path
           id="path4046"
           d="m 23.526159,1009.6591 c -1e-6,0.063 -0.01042,0.1201 -0.03125,0.1709 -0.02083,0.051 -0.05078,0.094 -0.08984,0.1298 -0.03841,0.036 -0.08594,0.063 -0.142579,0.083 -0.05599,0.02 -0.123047,0.029 -0.201171,0.029 l -0.143555,0 0,0.4551 c 0,0.01 -0.0016,0.01 -0.0049,0.014 -0.0026,0 -0.0072,0.01 -0.01367,0.01 -0.0059,0 -0.01432,0 -0.02539,0 -0.01042,0 -0.02376,0 -0.04004,0 -0.01628,0 -0.02995,-10e-4 -0.04102,0 -0.01042,0 -0.01888,0 -0.02539,0 -0.0065,0 -0.01107,-0.01 -0.01367,-0.01 -0.0026,0 -0.0039,-0.01 -0.0039,-0.014 l 0,-1.166 c 0,-0.026 0.0068,-0.045 0.02051,-0.056 0.01367,-0.011 0.02897,-0.017 0.0459,-0.017 l 0.270508,0 c 0.02734,0 0.05339,0 0.07813,0 0.02539,0 0.05501,0.01 0.08887,0.015 0.0345,0.01 0.06934,0.021 0.104493,0.042 0.03581,0.02 0.06608,0.045 0.09082,0.075 0.02474,0.03 0.04362,0.065 0.05664,0.1045 0.01367,0.039 0.02051,0.082 0.02051,0.1299 m -0.176758,0.014 c 0,-0.051 -0.0098,-0.094 -0.0293,-0.1289 -0.01888,-0.034 -0.04264,-0.06 -0.07129,-0.077 -0.028,-0.017 -0.05729,-0.028 -0.08789,-0.032 -0.02995,0 -0.05924,-0.01 -0.08789,-0.01 l -0.155273,0 0,0.5068 0.151367,0 c 0.05078,0 0.09277,-0.01 0.125977,-0.019 0.03385,-0.013 0.06217,-0.031 0.08496,-0.054 0.02278,-0.023 0.04004,-0.051 0.05176,-0.083 0.01172,-0.033 0.01758,-0.068 0.01758,-0.1055" />
        <path
           id="path4048"
           d="m 24.544714,1010.079 c -10e-7,0.072 -0.0094,0.1377 -0.02832,0.1982 -0.01888,0.06 -0.0472,0.1117 -0.08496,0.1553 -0.03711,0.044 -0.08398,0.078 -0.140625,0.1025 -0.05599,0.024 -0.121095,0.036 -0.195313,0.036 -0.07227,0 -0.135417,-0.011 -0.189453,-0.032 -0.05339,-0.021 -0.09798,-0.053 -0.133789,-0.094 -0.03581,-0.041 -0.0625,-0.091 -0.08008,-0.1494 -0.01758,-0.059 -0.02637,-0.125 -0.02637,-0.1992 0,-0.072 0.0091,-0.1374 0.02734,-0.1973 0.01888,-0.061 0.04687,-0.1126 0.08398,-0.1563 0.03776,-0.044 0.08464,-0.077 0.140625,-0.1015 0.05599,-0.024 0.121419,-0.036 0.196289,-0.036 0.07227,0 0.13509,0.011 0.188476,0.032 0.05404,0.021 0.09896,0.053 0.134766,0.094 0.03581,0.041 0.0625,0.091 0.08008,0.1494 0.01823,0.059 0.02734,0.1247 0.02734,0.1983 m -0.169922,0.011 c -10e-7,-0.048 -0.0046,-0.092 -0.01367,-0.1347 -0.0085,-0.042 -0.02279,-0.08 -0.04297,-0.1114 -0.02018,-0.032 -0.04753,-0.057 -0.08203,-0.075 -0.03451,-0.019 -0.07747,-0.028 -0.128906,-0.028 -0.04753,0 -0.08854,0.01 -0.123047,0.025 -0.03385,0.017 -0.06185,0.041 -0.08398,0.072 -0.02214,0.031 -0.03874,0.067 -0.0498,0.1093 -0.01042,0.042 -0.01563,0.089 -0.01563,0.1387 0,0.048 0.0042,0.093 0.0127,0.1358 0.0091,0.042 0.02376,0.079 0.04395,0.1113 0.02083,0.031 0.0485,0.056 0.08301,0.075 0.0345,0.018 0.07747,0.027 0.128907,0.027 0.04687,0 0.08756,-0.01 0.12207,-0.025 0.0345,-0.017 0.06283,-0.041 0.08496,-0.071 0.02214,-0.031 0.03841,-0.067 0.04883,-0.1093 0.01042,-0.042 0.01562,-0.089 0.01563,-0.1397" />
        <path
           id="path4050"
           d="m 25.534948,1010.5282 c -1e-6,0.01 -0.0013,0.01 -0.0039,0.014 -0.002,0 -0.0059,0.01 -0.01172,0.01 -0.0052,0 -0.01237,0 -0.02148,0 -0.0091,0 -0.02018,0 -0.0332,0 -0.01367,0 -0.02507,-7e-4 -0.03418,0 -0.0091,0 -0.0166,0 -0.02246,0 -0.0059,0 -0.01009,-0.01 -0.0127,-0.01 -0.0026,0 -0.0039,-0.01 -0.0039,-0.014 l 0,-0.1162 c -0.04622,0.05 -0.0944,0.089 -0.144532,0.1172 -0.04948,0.028 -0.103841,0.042 -0.163086,0.042 -0.06445,0 -0.119466,-0.012 -0.165039,-0.037 -0.04557,-0.025 -0.08268,-0.059 -0.111328,-0.1016 -0.028,-0.043 -0.0485,-0.093 -0.06152,-0.1504 -0.01302,-0.058 -0.01953,-0.1188 -0.01953,-0.1826 0,-0.076 0.0081,-0.1436 0.02441,-0.2041 0.01628,-0.061 0.04036,-0.1133 0.07227,-0.1563 0.0319,-0.043 0.07129,-0.076 0.118164,-0.099 0.04753,-0.023 0.102213,-0.035 0.164063,-0.035 0.05143,0 0.09831,0.011 0.140625,0.034 0.04297,0.022 0.08529,0.055 0.126953,0.099 l 0,-0.5108 c -1e-6,0 9.76e-4,-0.01 0.0029,-0.013 0.0026,0 0.0072,-0.01 0.01367,-0.01 0.0065,0 0.01465,0 0.02441,-0.01 0.01041,0 0.02344,0 0.03906,0 0.01628,0 0.02962,9e-4 0.04004,0 0.01042,0 0.01855,0 0.02441,0.01 0.0059,0 0.01009,0.01 0.0127,0.01 0.0033,0 0.0049,0.01 0.0049,0.013 l 0,1.3008 m -0.162109,-0.6182 c -0.04362,-0.054 -0.08594,-0.095 -0.126953,-0.123 -0.04036,-0.029 -0.08268,-0.043 -0.126953,-0.043 -0.04102,0 -0.07585,0.01 -0.104492,0.029 -0.02865,0.02 -0.05208,0.045 -0.07031,0.077 -0.01758,0.032 -0.0306,0.068 -0.03906,0.1084 -0.0078,0.04 -0.01172,0.081 -0.01172,0.123 0,0.044 0.0033,0.088 0.0098,0.1299 0.0072,0.042 0.01921,0.08 0.03613,0.1133 0.01693,0.033 0.03939,0.059 0.06738,0.079 0.02799,0.02 0.06315,0.029 0.105469,0.029 0.02148,0 0.04199,0 0.06152,-0.01 0.02018,-0.01 0.04069,-0.016 0.06152,-0.029 0.02083,-0.014 0.04264,-0.031 0.06543,-0.053 0.02279,-0.022 0.04687,-0.049 0.07227,-0.081 l 0,-0.3516" />
      </g>
      <rect
         y="1010.9944"
         x="13.392859"
         height="2.8"
         width="21"
         id="rect3971"
         style="fill:url(#linearGradient4189);fill-opacity:1;stroke:none" />
      <g
         id="text3983"
         style="font-size:2px;font-style:normal;font-variant:normal;font-weight:normal;font-stretch:normal;fill:#f0f0f0;fill-opacity:1;stroke:none;font-family:Calibri;-inkscape-font-specification:Calibri">
        <path
           id="path4053"
           d="m 15.390011,1013.0472 c -2e-6,0.01 -0.0013,0.01 -0.0039,0.014 -0.0026,0 -0.0072,0.01 -0.01367,0.01 -0.0065,0 -0.01498,0 -0.02539,0 -0.0098,0 -0.02279,0 -0.03906,0 -0.01498,0 -0.028,-9e-4 -0.03906,0 -0.01042,0 -0.01888,0 -0.02539,0 -0.0059,0 -0.01009,-0.01 -0.01269,-0.01 -0.0026,0 -0.0039,-0.01 -0.0039,-0.014 l 0,-1.1006 -0.002,0 -0.450196,1.1055 c -0.002,0 -0.0049,0.01 -0.0088,0.012 -0.0033,0 -0.0085,0.01 -0.01563,0.01 -0.0065,0 -0.01465,0 -0.02441,0 -0.0091,0 -0.02018,0 -0.0332,0 -0.01367,0 -0.02539,-6e-4 -0.03516,0 -0.0098,0 -0.0179,0 -0.02441,0 -0.0065,0 -0.01172,-0.01 -0.01563,-0.01 -0.0033,0 -0.0055,-0.01 -0.0068,-0.011 l -0.430664,-1.1055 -9.77e-4,0 0,1.1006 c 0,0.01 -0.0013,0.01 -0.0039,0.014 -0.0026,0 -0.0072,0.01 -0.01367,0.01 -0.0065,0 -0.01497,0 -0.02539,0 -0.01042,0 -0.02376,0 -0.04004,0 -0.01563,0 -0.02865,-9e-4 -0.03906,0 -0.01042,0 -0.01888,0 -0.02539,0 -0.0059,0 -0.01009,-0.01 -0.0127,-0.01 -0.002,0 -0.0029,-0.01 -0.0029,-0.014 l 0,-1.1621 c 0,-0.027 0.0072,-0.047 0.02148,-0.059 0.01432,-0.012 0.03027,-0.018 0.04785,-0.018 l 0.101563,0 c 0.02083,0 0.03906,0 0.05469,0.01 0.01563,0 0.0293,0.01 0.04102,0.019 0.01172,0.01 0.02148,0.019 0.0293,0.032 0.0078,0.013 0.01465,0.028 0.02051,0.046 l 0.366211,0.9151 0.0049,0 0.38086,-0.9121 c 0.0072,-0.02 0.01497,-0.036 0.02344,-0.05 0.0085,-0.014 0.01758,-0.024 0.02734,-0.032 0.01042,-0.01 0.02181,-0.014 0.03418,-0.018 0.01237,0 0.02669,-0.01 0.04297,-0.01 l 0.106446,0 c 0.0098,0 0.01888,0 0.02734,0 0.0091,0 0.0166,0.01 0.02246,0.014 0.0065,0.01 0.01172,0.014 0.01563,0.023 0.0039,0.01 0.0059,0.02 0.0059,0.034 l 0,1.1621" />
        <path
           id="path4055"
           d="m 16.4613,1013.0482 c -1e-6,0.01 -0.0013,0.01 -0.0039,0.014 -0.002,0 -0.0059,0.01 -0.01172,0.01 -0.0059,0 -0.01367,0 -0.02344,0.01 -0.0091,0 -0.02051,0 -0.03418,0 -0.01497,0 -0.02735,-6e-4 -0.03711,0 -0.0091,0 -0.0166,0 -0.02246,-0.01 -0.0052,0 -0.0088,-0.01 -0.01074,-0.01 -0.002,0 -0.0029,-0.01 -0.0029,-0.014 l 0,-0.1163 c -0.05013,0.055 -0.09961,0.096 -0.148438,0.1211 -0.04883,0.025 -0.09831,0.038 -0.148437,0.038 -0.0586,0 -0.108074,-0.01 -0.148438,-0.029 -0.03971,-0.019 -0.07194,-0.046 -0.09668,-0.079 -0.02474,-0.034 -0.04264,-0.073 -0.05371,-0.1172 -0.01042,-0.045 -0.01563,-0.099 -0.01563,-0.163 l 0,-0.5332 c 0,-0.01 9.77e-4,-0.01 0.0029,-0.013 0.0026,0 0.0072,-0.01 0.01367,-0.01 0.0065,0 0.01497,-0.01 0.02539,-0.01 0.01042,0 0.02344,0 0.03906,0 0.01563,0 0.02865,6e-4 0.03906,0 0.01042,7e-4 0.01855,0 0.02441,0.01 0.0065,0 0.01107,0.01 0.01367,0.01 0.0026,0 0.0039,0.01 0.0039,0.013 l 0,0.5117 c -10e-7,0.051 0.0036,0.093 0.01074,0.124 0.0078,0.031 0.0192,0.057 0.03418,0.079 0.01562,0.022 0.03516,0.038 0.05859,0.051 0.02344,0.012 0.05078,0.018 0.08203,0.018 0.04036,0 0.0804,-0.014 0.120117,-0.043 0.04036,-0.029 0.08301,-0.071 0.12793,-0.126 l 0,-0.6142 c -1e-6,-0.01 9.75e-4,-0.01 0.0029,-0.013 0.0026,0 0.0072,-0.01 0.01367,-0.01 0.0065,0 0.01465,-0.01 0.02441,-0.01 0.01042,0 0.02376,0 0.04004,0 0.01562,0 0.02865,6e-4 0.03906,0 0.01042,7e-4 0.01855,0 0.02441,0.01 0.0059,0 0.01009,0.01 0.01269,0.01 0.0033,0 0.0049,0.01 0.0049,0.013 l 0,0.8789" />
        <path
           id="path4057"
           d="m 17.310909,1012.8089 c 0,0.045 -0.0085,0.085 -0.02539,0.1201 -0.01628,0.035 -0.03972,0.065 -0.07031,0.089 -0.0306,0.024 -0.06706,0.042 -0.109375,0.055 -0.04232,0.012 -0.08887,0.019 -0.139648,0.019 -0.03125,0 -0.0612,0 -0.08984,-0.01 -0.028,0 -0.05339,-0.01 -0.07617,-0.018 -0.02214,-0.01 -0.04102,-0.016 -0.05664,-0.023 -0.01563,-0.01 -0.02702,-0.016 -0.03418,-0.022 -0.0072,-0.01 -0.01237,-0.016 -0.01563,-0.027 -0.0033,-0.012 -0.0049,-0.028 -0.0049,-0.048 0,-0.012 6.51e-4,-0.023 0.002,-0.031 0.0013,-0.01 0.0029,-0.015 0.0049,-0.02 0.002,-0.01 0.0046,-0.01 0.0078,-0.011 0.0039,0 0.0081,0 0.0127,0 0.0072,0 0.01758,0 0.03125,0.014 0.01432,0.01 0.03158,0.018 0.05176,0.028 0.02083,0.01 0.04525,0.02 0.07324,0.029 0.02799,0.01 0.06022,0.013 0.09668,0.013 0.02734,0 0.05208,0 0.07422,-0.01 0.02214,-0.01 0.04134,-0.014 0.05762,-0.025 0.01628,-0.012 0.02865,-0.026 0.03711,-0.044 0.0091,-0.018 0.01367,-0.038 0.01367,-0.062 -1e-6,-0.025 -0.0065,-0.046 -0.01953,-0.062 -0.01237,-0.017 -0.02897,-0.032 -0.0498,-0.045 -0.02083,-0.013 -0.04427,-0.024 -0.07031,-0.034 -0.02604,-0.01 -0.05306,-0.021 -0.08105,-0.032 -0.02734,-0.011 -0.05436,-0.024 -0.08105,-0.037 -0.02604,-0.014 -0.04948,-0.032 -0.07031,-0.052 -0.02083,-0.02 -0.03776,-0.044 -0.05078,-0.072 -0.01237,-0.028 -0.01856,-0.061 -0.01856,-0.1006 0,-0.034 0.0065,-0.067 0.01953,-0.099 0.01367,-0.032 0.03385,-0.06 0.06055,-0.083 0.02669,-0.024 0.0599,-0.043 0.09961,-0.058 0.04036,-0.014 0.08724,-0.021 0.140625,-0.021 0.02344,0 0.04687,0 0.07031,0.01 0.02344,0 0.0446,0.01 0.06348,0.015 0.01888,0.01 0.03483,0.012 0.04785,0.019 0.01367,0.01 0.02376,0.012 0.03027,0.018 0.0072,0.01 0.01172,0.01 0.01367,0.014 0.0026,0 0.0042,0.01 0.0049,0.014 0.0013,0 0.0023,0.01 0.0029,0.018 0.0013,0.01 0.002,0.016 0.002,0.026 0,0.011 -6.51e-4,0.021 -0.002,0.029 -6.51e-4,0.01 -0.0023,0.014 -0.0049,0.019 -0.002,0.01 -0.0046,0.01 -0.0078,0.012 -0.0033,0 -0.0068,0 -0.01074,0 -0.0059,0 -0.01432,0 -0.02539,-0.011 -0.01107,-0.01 -0.02539,-0.015 -0.04297,-0.022 -0.01758,-0.01 -0.03841,-0.016 -0.0625,-0.024 -0.02344,-0.01 -0.05046,-0.011 -0.08105,-0.011 -0.02734,0 -0.05143,0 -0.07227,0.01 -0.02083,0.01 -0.03809,0.015 -0.05176,0.026 -0.01302,0.011 -0.02311,0.024 -0.03027,0.04 -0.0065,0.016 -0.0098,0.033 -0.0098,0.051 0,0.025 0.0065,0.047 0.01953,0.064 0.01302,0.017 0.02995,0.032 0.05078,0.045 0.02083,0.013 0.0446,0.025 0.07129,0.035 0.02669,0.01 0.05371,0.021 0.08105,0.032 0.028,0.011 0.05534,0.024 0.08203,0.037 0.02734,0.014 0.05143,0.03 0.07226,0.05 0.02083,0.02 0.03744,0.043 0.04981,0.07 0.01302,0.027 0.01953,0.06 0.01953,0.098" />
        <path
           id="path4059"
           d="m 17.701534,1013.0482 c 0,0.01 -0.0013,0.01 -0.0039,0.014 -0.0026,0 -0.0068,0.01 -0.0127,0.01 -0.0059,0 -0.014,0 -0.02441,0.01 -0.01042,0 -0.02376,0 -0.04004,0 -0.01563,0 -0.02865,-6e-4 -0.03906,0 -0.01042,0 -0.01888,0 -0.02539,-0.01 -0.0059,0 -0.01009,-0.01 -0.0127,-0.01 -0.002,0 -0.0029,-0.01 -0.0029,-0.014 l 0,-0.8789 c 0,0 9.77e-4,-0.01 0.0029,-0.013 0.0026,0 0.0068,-0.01 0.0127,-0.01 0.0065,0 0.01497,0 0.02539,-0.01 0.01042,0 0.02344,0 0.03906,0 0.01628,0 0.02962,6e-4 0.04004,0 0.01042,0 0.01855,0 0.02441,0.01 0.0059,0 0.01009,0.01 0.0127,0.01 0.0026,0 0.0039,0.01 0.0039,0.013 l 0,0.8789 m 0.01856,-1.1758 c 0,0.038 -0.0072,0.063 -0.02148,0.077 -0.01432,0.014 -0.04069,0.021 -0.0791,0.021 -0.03776,0 -0.0638,-0.01 -0.07813,-0.019 -0.01367,-0.014 -0.02051,-0.039 -0.02051,-0.076 0,-0.038 0.0072,-0.063 0.02149,-0.077 0.01432,-0.014 0.04069,-0.02 0.0791,-0.02 0.03776,0 0.06348,0.01 0.07715,0.02 0.01432,0.013 0.02148,0.038 0.02148,0.075" />
        <path
           id="path4061"
           d="m 18.633175,1012.9144 c -1e-6,0.011 -3.26e-4,0.021 -9.77e-4,0.029 -6.51e-4,0.01 -0.002,0.015 -0.0039,0.02 -0.0013,0.01 -0.0033,0.01 -0.0059,0.015 -0.002,0 -0.0072,0.01 -0.01563,0.019 -0.0078,0.01 -0.02149,0.018 -0.04102,0.03 -0.01953,0.012 -0.04167,0.023 -0.06641,0.032 -0.02409,0.01 -0.05046,0.017 -0.0791,0.022 -0.02865,0.01 -0.05827,0.01 -0.08887,0.01 -0.06315,0 -0.119141,-0.01 -0.167969,-0.031 -0.04883,-0.021 -0.08984,-0.051 -0.123047,-0.091 -0.03255,-0.04 -0.05762,-0.09 -0.0752,-0.1475 -0.01693,-0.059 -0.02539,-0.126 -0.02539,-0.2022 -1e-6,-0.087 0.01042,-0.1608 0.03125,-0.2226 0.02148,-0.062 0.05045,-0.1136 0.08691,-0.1533 0.03711,-0.04 0.0804,-0.069 0.129882,-0.088 0.05013,-0.02 0.104167,-0.029 0.16211,-0.029 0.02799,0 0.05501,0 0.08105,0.01 0.02669,0.01 0.05111,0.012 0.07324,0.02 0.02213,0.01 0.04167,0.018 0.05859,0.029 0.01758,0.011 0.03027,0.02 0.03809,0.028 0.0078,0.01 0.01302,0.014 0.01563,0.019 0.0033,0 0.0059,0.01 0.0078,0.017 0.002,0.01 0.0033,0.013 0.0039,0.021 6.5e-4,0.01 9.76e-4,0.018 9.77e-4,0.029 -10e-7,0.025 -0.0029,0.043 -0.0088,0.054 -0.0059,0.01 -0.01302,0.015 -0.02149,0.015 -0.0098,0 -0.02116,-0.01 -0.03418,-0.016 -0.01237,-0.011 -0.02832,-0.023 -0.04785,-0.036 -0.01953,-0.013 -0.0433,-0.025 -0.07129,-0.035 -0.02734,-0.011 -0.0599,-0.017 -0.09766,-0.017 -0.07747,0 -0.137045,0.03 -0.178711,0.09 -0.04102,0.059 -0.06152,0.1455 -0.06152,0.2588 0,0.057 0.0052,0.1064 0.01563,0.1494 0.01107,0.042 0.02702,0.078 0.04785,0.1064 0.02083,0.029 0.04622,0.05 0.07617,0.065 0.0306,0.014 0.06543,0.02 0.104492,0.02 0.03711,0 0.06966,-0.01 0.09766,-0.018 0.02799,-0.012 0.05208,-0.024 0.07227,-0.038 0.02083,-0.014 0.03808,-0.027 0.05176,-0.038 0.01432,-0.012 0.02539,-0.018 0.0332,-0.018 0.0046,0 0.0085,0 0.01172,0 0.0033,0 0.0059,0.01 0.0078,0.014 0.0026,0.01 0.0042,0.014 0.0049,0.024 0.0013,0.01 0.002,0.02 0.002,0.033" />
      </g>
      <g
         id="text3945"
         style="font-size:2px;font-style:normal;font-variant:normal;font-weight:normal;font-stretch:normal;fill:#333333;fill-opacity:1;stroke:none;font-family:Calibri;-inkscape-font-specification:Calibri">
        <path
           id="path4034"
           d="m 33.402714,1015.012 c -1e-6,0.011 -6.52e-4,0.021 -0.002,0.03 -0.0013,0.01 -0.0029,0.016 -0.0049,0.023 -0.002,0.01 -0.0046,0.012 -0.0078,0.016 -0.0033,0 -0.0068,0.01 -0.01074,0.01 l -0.766601,0.3867 c -0.0072,0 -0.01335,0.01 -0.01855,0.01 -0.0052,0 -0.0094,0 -0.0127,-0.01 -0.0026,0 -0.0046,-0.011 -0.0059,-0.02 -0.0013,-0.01 -0.002,-0.022 -0.002,-0.037 0,-0.018 3.26e-4,-0.033 9.77e-4,-0.044 6.51e-4,-0.011 0.002,-0.02 0.0039,-0.026 0.0026,-0.01 0.0062,-0.013 0.01074,-0.017 0.0046,0 0.01042,-0.01 0.01758,-0.011 l 0.629883,-0.3096 -0.625977,-0.3018 c -0.0085,0 -0.0153,-0.01 -0.02051,-0.011 -0.0046,0 -0.0081,-0.01 -0.01074,-0.017 -0.0026,-0.01 -0.0042,-0.016 -0.0049,-0.027 -6.51e-4,-0.012 -9.77e-4,-0.027 -9.77e-4,-0.046 0,-0.017 6.51e-4,-0.03 0.002,-0.039 0.0013,-0.01 0.0033,-0.017 0.0059,-0.02 0.0033,0 0.0075,-0.01 0.0127,-0.01 0.0052,7e-4 0.01139,0 0.01855,0.01 l 0.769531,0.3877 c 0.0065,0 0.01172,0.011 0.01563,0.024 0.0046,0.012 0.0068,0.03 0.0068,0.052" />
        <path
           id="path4036"
           d="m 33.402714,1017.512 c -1e-6,0.011 -6.52e-4,0.021 -0.002,0.03 -0.0013,0.01 -0.0029,0.016 -0.0049,0.023 -0.002,0.01 -0.0046,0.012 -0.0078,0.016 -0.0033,0 -0.0068,0.01 -0.01074,0.01 l -0.766601,0.3867 c -0.0072,0 -0.01335,0.01 -0.01855,0.01 -0.0052,0 -0.0094,0 -0.0127,-0.01 -0.0026,0 -0.0046,-0.011 -0.0059,-0.02 -0.0013,-0.01 -0.002,-0.022 -0.002,-0.037 0,-0.018 3.26e-4,-0.033 9.77e-4,-0.044 6.51e-4,-0.011 0.002,-0.02 0.0039,-0.026 0.0026,-0.01 0.0062,-0.013 0.01074,-0.017 0.0046,0 0.01042,-0.01 0.01758,-0.011 l 0.629883,-0.3096 -0.625977,-0.3018 c -0.0085,0 -0.0153,-0.01 -0.02051,-0.011 -0.0046,0 -0.0081,-0.01 -0.01074,-0.017 -0.0026,-0.01 -0.0042,-0.016 -0.0049,-0.027 -6.51e-4,-0.012 -9.77e-4,-0.027 -9.77e-4,-0.046 0,-0.017 6.51e-4,-0.03 0.002,-0.039 0.0013,-0.01 0.0033,-0.017 0.0059,-0.02 0.0033,0 0.0075,-0.01 0.0127,-0.01 0.0052,7e-4 0.01139,0 0.01855,0.01 l 0.769531,0.3877 c 0.0065,0 0.01172,0.011 0.01563,0.024 0.0046,0.012 0.0068,0.03 0.0068,0.052" />
        <path
           id="path4038"
           d="m 33.402714,1020.012 c -1e-6,0.011 -6.52e-4,0.021 -0.002,0.03 -0.0013,0.01 -0.0029,0.016 -0.0049,0.023 -0.002,0.01 -0.0046,0.012 -0.0078,0.016 -0.0033,0 -0.0068,0.01 -0.01074,0.01 l -0.766601,0.3867 c -0.0072,0 -0.01335,0.01 -0.01855,0.01 -0.0052,0 -0.0094,0 -0.0127,-0.01 -0.0026,0 -0.0046,-0.011 -0.0059,-0.02 -0.0013,-0.01 -0.002,-0.022 -0.002,-0.037 0,-0.018 3.26e-4,-0.033 9.77e-4,-0.044 6.51e-4,-0.011 0.002,-0.02 0.0039,-0.026 0.0026,-0.01 0.0062,-0.013 0.01074,-0.017 0.0046,0 0.01042,-0.01 0.01758,-0.011 l 0.629883,-0.3096 -0.625977,-0.3018 c -0.0085,0 -0.0153,-0.01 -0.02051,-0.011 -0.0046,0 -0.0081,-0.01 -0.01074,-0.017 -0.0026,-0.01 -0.0042,-0.016 -0.0049,-0.027 -6.51e-4,-0.012 -9.77e-4,-0.027 -9.77e-4,-0.046 0,-0.017 6.51e-4,-0.03 0.002,-0.039 0.0013,-0.01 0.0033,-0.017 0.0059,-0.02 0.0033,0 0.0075,-0.01 0.0127,-0.01 0.0052,7e-4 0.01139,0 0.01855,0.01 l 0.769531,0.3877 c 0.0065,0 0.01172,0.011 0.01563,0.024 0.0046,0.012 0.0068,0.03 0.0068,0.052" />
      </g>
      <g
         id="text4005"
         style="font-size:2px;font-style:normal;font-variant:normal;font-weight:normal;font-stretch:normal;fill:#333333;fill-opacity:1;stroke:none;font-family:Calibri;-inkscape-font-specification:Calibri">
        <path
           id="path4064"
           d="m 14.792355,1014.679 c -1e-6,0.063 -0.01042,0.1201 -0.03125,0.1709 -0.02083,0.051 -0.05078,0.094 -0.08984,0.1299 -0.03841,0.036 -0.08594,0.064 -0.142578,0.083 -0.05599,0.019 -0.123048,0.029 -0.201172,0.029 l -0.143555,0 0,0.4551 c 0,0.01 -0.0016,0.01 -0.0049,0.014 -0.0026,0 -0.0072,0.01 -0.01367,0.01 -0.0059,0 -0.01432,0 -0.02539,0 -0.01042,0 -0.02376,0 -0.04004,0 -0.01628,0 -0.02995,-9e-4 -0.04102,0 -0.01042,0 -0.01888,0 -0.02539,0 -0.0065,0 -0.01107,-0.01 -0.01367,-0.01 -0.0026,0 -0.0039,-0.01 -0.0039,-0.014 l 0,-1.166 c 0,-0.026 0.0068,-0.045 0.02051,-0.056 0.01367,-0.011 0.02897,-0.017 0.0459,-0.017 l 0.270507,0 c 0.02734,0 0.05339,0 0.07813,0 0.02539,0 0.05501,0.01 0.08887,0.015 0.0345,0.01 0.06933,0.021 0.104492,0.042 0.03581,0.02 0.06608,0.045 0.09082,0.075 0.02474,0.03 0.04362,0.065 0.05664,0.1045 0.01367,0.039 0.02051,0.082 0.02051,0.1299 m -0.176758,0.014 c -10e-7,-0.051 -0.0098,-0.094 -0.0293,-0.1289 -0.01888,-0.034 -0.04264,-0.06 -0.07129,-0.077 -0.028,-0.017 -0.05729,-0.028 -0.08789,-0.032 -0.02995,0 -0.05925,-0.01 -0.08789,-0.01 l -0.155274,0 0,0.5068 0.151367,0 c 0.05078,0 0.09277,-0.01 0.125977,-0.019 0.03385,-0.013 0.06217,-0.031 0.08496,-0.054 0.02279,-0.024 0.04004,-0.051 0.05176,-0.083 0.01172,-0.033 0.01758,-0.068 0.01758,-0.1055" />
        <path
           id="path4066"
           d="m 15.789425,1015.5482 c -10e-7,0.01 -0.0013,0.01 -0.0039,0.014 -0.0026,0 -0.0068,0.01 -0.0127,0.01 -0.0059,0 -0.014,0 -0.02441,0.01 -0.01042,0 -0.02344,0 -0.03906,0 -0.01628,0 -0.02962,-6e-4 -0.04004,0 -0.01042,0 -0.01856,0 -0.02441,-0.01 -0.0059,0 -0.01009,-0.01 -0.0127,-0.01 -0.0026,0 -0.0039,-0.01 -0.0039,-0.014 l 0,-0.5147 c -10e-7,-0.05 -0.0039,-0.091 -0.01172,-0.1211 -0.0078,-0.031 -0.01921,-0.057 -0.03418,-0.079 -0.01498,-0.022 -0.03451,-0.039 -0.05859,-0.051 -0.02344,-0.012 -0.05078,-0.018 -0.08203,-0.018 -0.04037,0 -0.08073,0.014 -0.121094,0.043 -0.04036,0.029 -0.08268,0.071 -0.126953,0.126 l 0,0.6143 c -10e-7,0.01 -0.0013,0.01 -0.0039,0.014 -0.0026,0 -0.0068,0.01 -0.0127,0.01 -0.0059,0 -0.014,0 -0.02441,0.01 -0.01042,0 -0.02376,0 -0.04004,0 -0.01563,0 -0.02865,-6e-4 -0.03906,0 -0.01042,0 -0.01888,0 -0.02539,-0.01 -0.0059,0 -0.01009,-0.01 -0.01269,-0.01 -0.002,0 -0.0029,-0.01 -0.0029,-0.014 l 0,-1.3047 c 0,-0.01 9.76e-4,-0.01 0.0029,-0.014 0.0026,0 0.0068,-0.01 0.01269,-0.01 0.0065,0 0.01497,0 0.02539,-0.01 0.01042,0 0.02344,0 0.03906,0 0.01628,0 0.02962,7e-4 0.04004,0 0.01042,0 0.01855,0 0.02441,0.01 0.0059,0 0.01009,0.01 0.0127,0.01 0.0026,0 0.0039,0.01 0.0039,0.014 l 0,0.5263 c 0.04622,-0.049 0.09277,-0.085 0.139648,-0.1084 0.04687,-0.024 0.09408,-0.036 0.141602,-0.036 0.05859,0 0.107746,0.01 0.147461,0.03 0.04036,0.019 0.07292,0.046 0.09766,0.079 0.02474,0.033 0.04232,0.072 0.05273,0.1172 0.01107,0.044 0.0166,0.098 0.0166,0.1611 l 0,0.5352" />
        <path
           id="path4068"
           d="m 16.900753,1015.0989 c -1e-6,0.072 -0.0094,0.1377 -0.02832,0.1983 -0.01888,0.06 -0.0472,0.1116 -0.08496,0.1553 -0.03711,0.044 -0.08399,0.078 -0.140625,0.1025 -0.05599,0.024 -0.121095,0.036 -0.195313,0.036 -0.07227,0 -0.135417,-0.011 -0.189453,-0.032 -0.05339,-0.021 -0.09798,-0.053 -0.133789,-0.094 -0.03581,-0.041 -0.0625,-0.091 -0.08008,-0.1494 -0.01758,-0.059 -0.02637,-0.125 -0.02637,-0.1992 0,-0.072 0.0091,-0.1374 0.02734,-0.1972 0.01888,-0.061 0.04687,-0.1127 0.08398,-0.1563 0.03776,-0.044 0.08463,-0.077 0.140625,-0.1016 0.05599,-0.024 0.121419,-0.036 0.196289,-0.036 0.07226,0 0.13509,0.011 0.188477,0.032 0.05403,0.021 0.09896,0.053 0.134765,0.094 0.03581,0.041 0.0625,0.091 0.08008,0.1494 0.01823,0.059 0.02734,0.1247 0.02734,0.1982 m -0.169922,0.011 c -10e-7,-0.048 -0.0046,-0.092 -0.01367,-0.1348 -0.0085,-0.042 -0.02279,-0.079 -0.04297,-0.1113 -0.02018,-0.032 -0.04753,-0.057 -0.08203,-0.075 -0.03451,-0.019 -0.07747,-0.028 -0.128906,-0.028 -0.04753,0 -0.08854,0.01 -0.123047,0.025 -0.03385,0.017 -0.06185,0.041 -0.08398,0.072 -0.02214,0.031 -0.03874,0.067 -0.04981,0.1094 -0.01042,0.042 -0.01563,0.089 -0.01563,0.1387 0,0.048 0.0042,0.093 0.0127,0.1357 0.0091,0.042 0.02376,0.079 0.04395,0.1113 0.02083,0.031 0.0485,0.056 0.08301,0.075 0.0345,0.018 0.07747,0.027 0.128906,0.027 0.04687,0 0.08756,-0.01 0.12207,-0.025 0.03451,-0.017 0.06283,-0.041 0.08496,-0.071 0.02213,-0.031 0.03841,-0.067 0.04883,-0.1094 0.01042,-0.042 0.01562,-0.089 0.01563,-0.1396" />
        <path
           id="path4070"
           d="m 17.595089,1015.4837 c -1e-6,0.019 -0.0013,0.034 -0.0039,0.045 -0.0026,0.011 -0.0065,0.019 -0.01172,0.024 -0.0052,0.01 -0.01302,0.01 -0.02344,0.015 -0.01042,0 -0.02246,0.01 -0.03613,0.011 -0.01302,0 -0.02702,0.01 -0.04199,0.01 -0.01497,0 -0.02995,0 -0.04492,0 -0.04557,0 -0.08464,-0.01 -0.117188,-0.018 -0.03255,-0.012 -0.05924,-0.031 -0.08008,-0.055 -0.02083,-0.025 -0.03613,-0.056 -0.0459,-0.093 -0.0091,-0.038 -0.01367,-0.082 -0.01367,-0.1328 l 0,-0.5137 -0.123047,0 c -0.0098,0 -0.01758,-0.01 -0.02344,-0.016 -0.0059,-0.01 -0.0088,-0.027 -0.0088,-0.051 0,-0.012 6.51e-4,-0.023 0.002,-0.031 0.002,-0.01 0.0042,-0.015 0.0068,-0.02 0.0026,-0.01 0.0059,-0.01 0.0098,-0.012 0.0046,0 0.0094,0 0.01465,0 l 0.122071,0 0,-0.209 c -1e-6,0 9.76e-4,-0.01 0.0029,-0.013 0.0026,0 0.0068,-0.01 0.0127,-0.01 0.0065,0 0.01497,-0.01 0.02539,-0.01 0.01042,0 0.02344,0 0.03906,0 0.01628,0 0.02962,7e-4 0.04004,0 0.01042,0 0.01855,0 0.02441,0.01 0.0059,0 0.01009,0.01 0.01269,0.01 0.0026,0 0.0039,0.01 0.0039,0.013 l 0,0.209 0.225586,0 c 0.0052,0 0.0098,0 0.01367,0 0.0039,0 0.0072,0.01 0.0098,0.012 0.0033,0.01 0.0055,0.012 0.0068,0.02 0.0013,0.01 0.002,0.019 0.002,0.031 -10e-7,0.024 -0.0029,0.04 -0.0088,0.051 -0.0059,0.01 -0.01367,0.016 -0.02344,0.016 l -0.225586,0 0,0.4903 c 0,0.06 0.0088,0.1064 0.02637,0.1377 0.01823,0.031 0.05045,0.046 0.09668,0.046 0.01497,0 0.02832,0 0.04004,0 0.01172,0 0.02214,-0.01 0.03125,-0.01 0.0091,0 0.01693,-0.01 0.02344,-0.01 0.0065,0 0.01237,0 0.01758,0 0.0033,0 0.0062,0 0.0088,0 0.0033,0 0.0055,0 0.0068,0.01 0.002,0 0.0036,0.011 0.0049,0.019 0.0013,0.01 0.002,0.018 0.002,0.029" />
        <path
           id="path4072"
           d="m 18.607784,1015.0989 c -10e-7,0.072 -0.0094,0.1377 -0.02832,0.1983 -0.01888,0.06 -0.0472,0.1116 -0.08496,0.1553 -0.03711,0.044 -0.08399,0.078 -0.140625,0.1025 -0.05599,0.024 -0.121094,0.036 -0.195312,0.036 -0.07227,0 -0.135418,-0.011 -0.189454,-0.032 -0.05338,-0.021 -0.09798,-0.053 -0.133789,-0.094 -0.03581,-0.041 -0.0625,-0.091 -0.08008,-0.1494 -0.01758,-0.059 -0.02637,-0.125 -0.02637,-0.1992 0,-0.072 0.0091,-0.1374 0.02734,-0.1972 0.01888,-0.061 0.04687,-0.1127 0.08398,-0.1563 0.03776,-0.044 0.08464,-0.077 0.140625,-0.1016 0.05599,-0.024 0.121419,-0.036 0.196289,-0.036 0.07227,0 0.135091,0.011 0.188477,0.032 0.05403,0.021 0.09896,0.053 0.134765,0.094 0.03581,0.041 0.0625,0.091 0.08008,0.1494 0.01823,0.059 0.02734,0.1247 0.02734,0.1982 m -0.169922,0.011 c 0,-0.048 -0.0046,-0.092 -0.01367,-0.1348 -0.0085,-0.042 -0.02279,-0.079 -0.04297,-0.1113 -0.02018,-0.032 -0.04753,-0.057 -0.08203,-0.075 -0.03451,-0.019 -0.07747,-0.028 -0.128907,-0.028 -0.04753,0 -0.08854,0.01 -0.123047,0.025 -0.03385,0.017 -0.06185,0.041 -0.08398,0.072 -0.02214,0.031 -0.03874,0.067 -0.04981,0.1094 -0.01042,0.042 -0.01563,0.089 -0.01563,0.1387 0,0.048 0.0042,0.093 0.0127,0.1357 0.0091,0.042 0.02376,0.079 0.04395,0.1113 0.02083,0.031 0.0485,0.056 0.08301,0.075 0.0345,0.018 0.07747,0.027 0.128906,0.027 0.04687,0 0.08756,-0.01 0.12207,-0.025 0.0345,-0.017 0.06283,-0.041 0.08496,-0.071 0.02214,-0.031 0.03841,-0.067 0.04883,-0.1094 0.01042,-0.042 0.01563,-0.089 0.01563,-0.1396" />
        <path
           id="path4074"
           d="m 19.396847,1015.3089 c -1e-6,0.045 -0.0085,0.085 -0.02539,0.1201 -0.01628,0.035 -0.03971,0.065 -0.07031,0.089 -0.0306,0.024 -0.06706,0.042 -0.109375,0.055 -0.04232,0.012 -0.08887,0.019 -0.139649,0.019 -0.03125,0 -0.0612,0 -0.08984,-0.01 -0.028,0 -0.05338,-0.01 -0.07617,-0.018 -0.02214,-0.01 -0.04102,-0.016 -0.05664,-0.023 -0.01563,-0.01 -0.02702,-0.016 -0.03418,-0.022 -0.0072,-0.01 -0.01237,-0.016 -0.01563,-0.027 -0.0033,-0.012 -0.0049,-0.028 -0.0049,-0.048 0,-0.012 6.51e-4,-0.023 0.002,-0.031 0.0013,-0.01 0.0029,-0.015 0.0049,-0.02 0.002,-0.01 0.0046,-0.01 0.0078,-0.011 0.0039,0 0.0081,0 0.01269,0 0.0072,0 0.01758,0 0.03125,0.014 0.01432,0.01 0.03158,0.018 0.05176,0.028 0.02083,0.01 0.04525,0.02 0.07324,0.029 0.028,0.01 0.06022,0.013 0.09668,0.013 0.02734,0 0.05208,0 0.07422,-0.01 0.02213,-0.01 0.04134,-0.014 0.05762,-0.025 0.01628,-0.012 0.02864,-0.026 0.03711,-0.044 0.0091,-0.018 0.01367,-0.038 0.01367,-0.062 0,-0.025 -0.0065,-0.046 -0.01953,-0.062 -0.01237,-0.017 -0.02897,-0.032 -0.04981,-0.045 -0.02083,-0.013 -0.04427,-0.024 -0.07031,-0.034 -0.02604,-0.01 -0.05306,-0.021 -0.08105,-0.032 -0.02734,-0.011 -0.05436,-0.024 -0.08106,-0.037 -0.02604,-0.014 -0.04948,-0.032 -0.07031,-0.052 -0.02083,-0.02 -0.03776,-0.044 -0.05078,-0.072 -0.01237,-0.028 -0.01855,-0.061 -0.01855,-0.1006 0,-0.034 0.0065,-0.067 0.01953,-0.099 0.01367,-0.032 0.03385,-0.06 0.06055,-0.083 0.02669,-0.024 0.0599,-0.043 0.09961,-0.058 0.04037,-0.014 0.08724,-0.021 0.140625,-0.021 0.02344,0 0.04687,0 0.07031,0.01 0.02344,0 0.0446,0.01 0.06348,0.015 0.01888,0.01 0.03483,0.012 0.04785,0.019 0.01367,0.01 0.02376,0.012 0.03027,0.018 0.0072,0.01 0.01172,0.01 0.01367,0.014 0.0026,0 0.0042,0.01 0.0049,0.014 0.0013,0 0.0023,0.01 0.0029,0.018 0.0013,0.01 0.002,0.016 0.002,0.026 -10e-7,0.011 -6.52e-4,0.021 -0.002,0.029 -6.52e-4,0.01 -0.0023,0.014 -0.0049,0.019 -0.002,0.01 -0.0046,0.01 -0.0078,0.012 -0.0033,0 -0.0068,0 -0.01074,0 -0.0059,0 -0.01432,0 -0.02539,-0.011 -0.01107,-0.01 -0.02539,-0.015 -0.04297,-0.022 -0.01758,-0.01 -0.03841,-0.016 -0.0625,-0.024 -0.02344,-0.01 -0.05046,-0.011 -0.08106,-0.011 -0.02734,0 -0.05143,0 -0.07226,0.01 -0.02083,0.01 -0.03809,0.015 -0.05176,0.026 -0.01302,0.011 -0.02311,0.024 -0.03027,0.04 -0.0065,0.016 -0.0098,0.033 -0.0098,0.051 -1e-6,0.025 0.0065,0.047 0.01953,0.064 0.01302,0.017 0.02995,0.032 0.05078,0.045 0.02083,0.013 0.0446,0.025 0.07129,0.035 0.02669,0.01 0.05371,0.021 0.08106,0.032 0.02799,0.011 0.05534,0.024 0.08203,0.037 0.02734,0.014 0.05143,0.03 0.07227,0.05 0.02083,0.02 0.03743,0.043 0.0498,0.07 0.01302,0.027 0.01953,0.06 0.01953,0.098" />
        <path
           id="path4076"
           d="m 15.390011,1018.0472 c -2e-6,0.01 -0.0013,0.01 -0.0039,0.014 -0.0026,0 -0.0072,0.01 -0.01367,0.01 -0.0065,0 -0.01498,0 -0.02539,0 -0.0098,0 -0.02279,0 -0.03906,0 -0.01498,0 -0.028,-9e-4 -0.03906,0 -0.01042,0 -0.01888,0 -0.02539,0 -0.0059,0 -0.01009,-0.01 -0.01269,-0.01 -0.0026,0 -0.0039,-0.01 -0.0039,-0.014 l 0,-1.1006 -0.002,0 -0.450196,1.1055 c -0.002,0 -0.0049,0.01 -0.0088,0.012 -0.0033,0 -0.0085,0.01 -0.01563,0.01 -0.0065,0 -0.01465,0 -0.02441,0 -0.0091,0 -0.02018,0 -0.0332,0 -0.01367,0 -0.02539,-6e-4 -0.03516,0 -0.0098,0 -0.0179,0 -0.02441,0 -0.0065,0 -0.01172,-0.01 -0.01563,-0.01 -0.0033,0 -0.0055,-0.01 -0.0068,-0.011 l -0.430664,-1.1055 -9.77e-4,0 0,1.1006 c 0,0.01 -0.0013,0.01 -0.0039,0.014 -0.0026,0 -0.0072,0.01 -0.01367,0.01 -0.0065,0 -0.01497,0 -0.02539,0 -0.01042,0 -0.02376,0 -0.04004,0 -0.01563,0 -0.02865,-9e-4 -0.03906,0 -0.01042,0 -0.01888,0 -0.02539,0 -0.0059,0 -0.01009,-0.01 -0.0127,-0.01 -0.002,0 -0.0029,-0.01 -0.0029,-0.014 l 0,-1.1621 c 0,-0.027 0.0072,-0.047 0.02148,-0.059 0.01432,-0.012 0.03027,-0.018 0.04785,-0.018 l 0.101563,0 c 0.02083,0 0.03906,0 0.05469,0.01 0.01563,0 0.0293,0.01 0.04102,0.019 0.01172,0.01 0.02148,0.019 0.0293,0.032 0.0078,0.013 0.01465,0.028 0.02051,0.046 l 0.366211,0.9151 0.0049,0 0.38086,-0.9121 c 0.0072,-0.02 0.01497,-0.036 0.02344,-0.05 0.0085,-0.014 0.01758,-0.024 0.02734,-0.032 0.01042,-0.01 0.02181,-0.014 0.03418,-0.018 0.01237,0 0.02669,-0.01 0.04297,-0.01 l 0.106446,0 c 0.0098,0 0.01888,0 0.02734,0 0.0091,0 0.0166,0.01 0.02246,0.014 0.0065,0.01 0.01172,0.014 0.01563,0.023 0.0039,0.01 0.0059,0.02 0.0059,0.034 l 0,1.1621" />
        <path
           id="path4078"
           d="m 16.525753,1017.5989 c -1e-6,0.072 -0.0094,0.1377 -0.02832,0.1983 -0.01888,0.06 -0.0472,0.1116 -0.08496,0.1553 -0.03711,0.044 -0.08399,0.078 -0.140625,0.1025 -0.05599,0.024 -0.121095,0.036 -0.195313,0.036 -0.07227,0 -0.135417,-0.011 -0.189453,-0.032 -0.05339,-0.021 -0.09798,-0.053 -0.133789,-0.094 -0.03581,-0.041 -0.0625,-0.091 -0.08008,-0.1494 -0.01758,-0.059 -0.02637,-0.125 -0.02637,-0.1992 0,-0.072 0.0091,-0.1374 0.02734,-0.1972 0.01888,-0.061 0.04687,-0.1127 0.08398,-0.1563 0.03776,-0.044 0.08464,-0.077 0.140625,-0.1016 0.05599,-0.024 0.121419,-0.036 0.196289,-0.036 0.07226,0 0.13509,0.011 0.188477,0.032 0.05403,0.021 0.09896,0.053 0.134765,0.094 0.03581,0.041 0.0625,0.091 0.08008,0.1494 0.01823,0.059 0.02734,0.1247 0.02734,0.1982 m -0.169922,0.011 c -10e-7,-0.048 -0.0046,-0.092 -0.01367,-0.1348 -0.0085,-0.042 -0.02279,-0.079 -0.04297,-0.1113 -0.02018,-0.032 -0.04753,-0.057 -0.08203,-0.075 -0.03451,-0.019 -0.07747,-0.028 -0.128906,-0.028 -0.04753,0 -0.08854,0.01 -0.123047,0.025 -0.03385,0.017 -0.06185,0.041 -0.08398,0.072 -0.02214,0.031 -0.03874,0.067 -0.0498,0.1094 -0.01042,0.042 -0.01563,0.089 -0.01563,0.1387 0,0.048 0.0042,0.093 0.0127,0.1357 0.0091,0.042 0.02376,0.079 0.04395,0.1113 0.02083,0.031 0.0485,0.056 0.08301,0.075 0.0345,0.018 0.07747,0.027 0.128906,0.027 0.04687,0 0.08756,-0.01 0.12207,-0.025 0.03451,-0.017 0.06283,-0.041 0.08496,-0.071 0.02213,-0.031 0.03841,-0.067 0.04883,-0.1094 0.01042,-0.042 0.01562,-0.089 0.01563,-0.1396" />
        <path
           id="path4080"
           d="m 17.475948,1017.1673 c -10e-7,0 -3.26e-4,0.01 -9.76e-4,0.01 -1e-6,0 -3.27e-4,0.01 -9.77e-4,0.01 -6.52e-4,0 -0.0016,0.01 -0.0029,0.011 -6.52e-4,0 -0.0016,0.01 -0.0029,0.013 l -0.299805,0.835 c -0.0026,0.01 -0.0062,0.013 -0.01074,0.018 -0.0039,0 -0.01009,0.01 -0.01856,0.011 -0.0085,0 -0.01921,0 -0.03223,0 -0.01302,0 -0.0293,0 -0.04883,0 -0.01953,0 -0.03581,-6e-4 -0.04883,0 -0.01302,0 -0.02376,0 -0.03223,-0.01 -0.0078,0 -0.014,-0.01 -0.01856,-0.011 -0.0046,0 -0.0081,-0.01 -0.01074,-0.017 l -0.298828,-0.835 c -0.0026,-0.01 -0.0049,-0.015 -0.0068,-0.02 -0.0013,-0.01 -0.0023,-0.01 -0.0029,-0.013 0,0 0,-0.01 0,-0.01 0,-0.01 0.0013,-0.01 0.0039,-0.014 0.0026,0 0.0068,-0.01 0.0127,-0.01 0.0065,0 0.01465,0 0.02441,0 0.01042,-7e-4 0.02311,-10e-4 0.03809,-10e-4 0.01888,0 0.03385,6e-4 0.04492,0 0.01172,7e-4 0.02051,0 0.02637,0 0.0065,0 0.01107,0.01 0.01367,0.01 0.0033,0 0.0062,0.01 0.0088,0.015 l 0.248047,0.7246 0.0039,0.012 0.0029,-0.012 0.245117,-0.7246 c 0.0013,-0.01 0.0036,-0.011 0.0068,-0.015 0.0033,0 0.0078,-0.01 0.01367,-0.01 0.0065,0 0.01497,0 0.02539,0 0.01107,0 0.02539,0 0.04297,0 0.01497,0 0.02734,3e-4 0.03711,10e-4 0.0098,6e-4 0.01725,0 0.02246,0 0.0059,0 0.0098,0.01 0.01172,0.01 0.0026,0 0.0039,0.01 0.0039,0.013" />
        <path
           id="path4082"
           d="m 17.818722,1018.0482 c -1e-6,0.01 -0.0013,0.01 -0.0039,0.014 -0.0026,0 -0.0068,0.01 -0.0127,0.01 -0.0059,0 -0.014,0 -0.02441,0.01 -0.01042,0 -0.02376,0 -0.04004,0 -0.01563,0 -0.02865,-6e-4 -0.03906,0 -0.01042,0 -0.01888,0 -0.02539,-0.01 -0.0059,0 -0.01009,-0.01 -0.0127,-0.01 -0.002,0 -0.0029,-0.01 -0.0029,-0.014 l 0,-0.8789 c 0,0 9.76e-4,-0.01 0.0029,-0.013 0.0026,0 0.0068,-0.01 0.0127,-0.01 0.0065,0 0.01497,0 0.02539,-0.01 0.01042,0 0.02344,0 0.03906,0 0.01628,0 0.02962,6e-4 0.04004,0 0.01042,0 0.01856,0 0.02441,0.01 0.0059,0 0.01009,0.01 0.0127,0.01 0.0026,0 0.0039,0.01 0.0039,0.013 l 0,0.8789 m 0.01855,-1.1758 c 0,0.038 -0.0072,0.063 -0.02148,0.077 -0.01432,0.014 -0.04069,0.021 -0.0791,0.021 -0.03776,0 -0.0638,-0.01 -0.07813,-0.019 -0.01367,-0.014 -0.02051,-0.039 -0.02051,-0.076 0,-0.038 0.0072,-0.063 0.02148,-0.077 0.01432,-0.014 0.04069,-0.02 0.0791,-0.02 0.03776,0 0.06348,0.01 0.07715,0.02 0.01432,0.013 0.02148,0.038 0.02148,0.075" />
        <path
           id="path4084"
           d="m 18.868526,1017.5706 c 0,0.025 -0.0065,0.044 -0.01953,0.055 -0.01237,0.01 -0.02669,0.016 -0.04297,0.016 l -0.576171,0 c -1e-6,0.049 0.0049,0.093 0.01465,0.1319 0.0098,0.039 0.02604,0.073 0.04883,0.1006 0.02279,0.028 0.05241,0.049 0.08887,0.064 0.03646,0.015 0.08106,0.022 0.133789,0.022 0.04167,0 0.07878,0 0.111329,-0.01 0.03255,-0.01 0.06055,-0.015 0.08398,-0.023 0.02409,-0.01 0.04362,-0.016 0.05859,-0.023 0.01562,-0.01 0.02734,-0.011 0.03516,-0.011 0.0046,0 0.0085,0 0.01172,0 0.0039,0 0.0068,0.01 0.0088,0.01 0.002,0 0.0033,0.011 0.0039,0.02 0.0013,0.01 0.002,0.018 0.002,0.029 -10e-7,0.01 -3.26e-4,0.016 -9.76e-4,0.022 -6.52e-4,0.01 -0.0016,0.011 -0.0029,0.017 -6.52e-4,0 -0.0023,0.01 -0.0049,0.013 -0.002,0 -0.0049,0.01 -0.0088,0.012 -0.0033,0 -0.01367,0.01 -0.03125,0.018 -0.01758,0.01 -0.04037,0.016 -0.06836,0.023 -0.028,0.01 -0.06055,0.015 -0.09766,0.021 -0.03646,0.01 -0.07552,0.01 -0.117187,0.01 -0.07227,0 -0.135743,-0.01 -0.19043,-0.03 -0.05404,-0.02 -0.09961,-0.05 -0.136719,-0.09 -0.03711,-0.04 -0.0651,-0.09 -0.08398,-0.1494 -0.01888,-0.06 -0.02832,-0.1296 -0.02832,-0.209 0,-0.076 0.0098,-0.1432 0.0293,-0.2031 0.01953,-0.061 0.04753,-0.1117 0.08398,-0.1533 0.03711,-0.042 0.0817,-0.075 0.133789,-0.097 0.05208,-0.023 0.110351,-0.034 0.174805,-0.034 0.06901,0 0.127603,0.011 0.175781,0.033 0.04883,0.022 0.08887,0.052 0.120117,0.09 0.03125,0.037 0.05404,0.081 0.06836,0.1318 0.01497,0.05 0.02246,0.1038 0.02246,0.1611 l 0,0.029 m -0.162109,-0.048 c 0.002,-0.085 -0.01693,-0.1511 -0.05664,-0.1993 -0.03906,-0.048 -0.09733,-0.072 -0.174804,-0.072 -0.03971,0 -0.07455,0.01 -0.104492,0.022 -0.02995,0.015 -0.05501,0.035 -0.0752,0.06 -0.02018,0.025 -0.03581,0.054 -0.04687,0.087 -0.01107,0.033 -0.01725,0.067 -0.01855,0.1026 l 0.476562,0" />
        <path
           id="path4086"
           d="m 19.666378,1017.8089 c -1e-6,0.045 -0.0085,0.085 -0.02539,0.1201 -0.01628,0.035 -0.03971,0.065 -0.07031,0.089 -0.0306,0.024 -0.06706,0.042 -0.109375,0.055 -0.04232,0.012 -0.08887,0.019 -0.139649,0.019 -0.03125,0 -0.0612,0 -0.08984,-0.01 -0.028,0 -0.05339,-0.01 -0.07617,-0.018 -0.02214,-0.01 -0.04102,-0.016 -0.05664,-0.023 -0.01563,-0.01 -0.02702,-0.016 -0.03418,-0.022 -0.0072,-0.01 -0.01237,-0.016 -0.01563,-0.027 -0.0033,-0.012 -0.0049,-0.028 -0.0049,-0.048 0,-0.012 6.51e-4,-0.023 0.002,-0.031 0.0013,-0.01 0.0029,-0.015 0.0049,-0.02 0.002,-0.01 0.0046,-0.01 0.0078,-0.011 0.0039,0 0.0081,0 0.0127,0 0.0072,0 0.01758,0 0.03125,0.014 0.01432,0.01 0.03158,0.018 0.05176,0.028 0.02083,0.01 0.04525,0.02 0.07324,0.029 0.028,0.01 0.06022,0.013 0.09668,0.013 0.02734,0 0.05208,0 0.07422,-0.01 0.02213,-0.01 0.04134,-0.014 0.05762,-0.025 0.01628,-0.012 0.02865,-0.026 0.03711,-0.044 0.0091,-0.018 0.01367,-0.038 0.01367,-0.062 0,-0.025 -0.0065,-0.046 -0.01953,-0.062 -0.01237,-0.017 -0.02897,-0.032 -0.0498,-0.045 -0.02083,-0.013 -0.04427,-0.024 -0.07031,-0.034 -0.02604,-0.01 -0.05306,-0.021 -0.08106,-0.032 -0.02734,-0.011 -0.05436,-0.024 -0.08105,-0.037 -0.02604,-0.014 -0.04948,-0.032 -0.07031,-0.052 -0.02083,-0.02 -0.03776,-0.044 -0.05078,-0.072 -0.01237,-0.028 -0.01856,-0.061 -0.01856,-0.1006 0,-0.034 0.0065,-0.067 0.01953,-0.099 0.01367,-0.032 0.03385,-0.06 0.06055,-0.083 0.02669,-0.024 0.0599,-0.043 0.09961,-0.058 0.04036,-0.014 0.08724,-0.021 0.140625,-0.021 0.02344,0 0.04687,0 0.07031,0.01 0.02344,0 0.0446,0.01 0.06348,0.015 0.01888,0.01 0.03483,0.012 0.04785,0.019 0.01367,0.01 0.02376,0.012 0.03027,0.018 0.0072,0.01 0.01172,0.01 0.01367,0.014 0.0026,0 0.0042,0.01 0.0049,0.014 0.0013,0 0.0023,0.01 0.0029,0.018 0.0013,0.01 0.002,0.016 0.002,0.026 -10e-7,0.011 -6.52e-4,0.021 -0.002,0.029 -6.52e-4,0.01 -0.0023,0.014 -0.0049,0.019 -0.002,0.01 -0.0046,0.01 -0.0078,0.012 -0.0033,0 -0.0068,0 -0.01074,0 -0.0059,0 -0.01432,0 -0.02539,-0.011 -0.01107,-0.01 -0.02539,-0.015 -0.04297,-0.022 -0.01758,-0.01 -0.03841,-0.016 -0.0625,-0.024 -0.02344,-0.01 -0.05046,-0.011 -0.08105,-0.011 -0.02734,0 -0.05143,0 -0.07226,0.01 -0.02083,0.01 -0.03809,0.015 -0.05176,0.026 -0.01302,0.011 -0.02311,0.024 -0.03027,0.04 -0.0065,0.016 -0.0098,0.033 -0.0098,0.051 0,0.025 0.0065,0.047 0.01953,0.064 0.01302,0.017 0.02995,0.032 0.05078,0.045 0.02083,0.013 0.0446,0.025 0.07129,0.035 0.02669,0.01 0.05371,0.021 0.08105,0.032 0.02799,0.011 0.05534,0.024 0.08203,0.037 0.02734,0.014 0.05143,0.03 0.07227,0.05 0.02083,0.02 0.03743,0.043 0.04981,0.07 0.01302,0.027 0.01953,0.06 0.01953,0.098" />
        <path
           id="path4088"
           d="m 15.074581,1019.9261 c -1e-6,0.1022 -0.01205,0.1943 -0.03613,0.2764 -0.02409,0.082 -0.06022,0.152 -0.108398,0.2099 -0.04753,0.057 -0.107423,0.1016 -0.179688,0.1328 -0.07227,0.031 -0.156576,0.046 -0.252929,0.046 -0.09505,0 -0.17741,-0.014 -0.247071,-0.042 -0.06901,-0.029 -0.126302,-0.07 -0.171875,-0.124 -0.04492,-0.054 -0.07845,-0.1211 -0.100586,-0.2012 -0.02213,-0.08 -0.0332,-0.1722 -0.0332,-0.2763 0,-0.1 0.01204,-0.1901 0.03613,-0.2715 0.02409,-0.081 0.06022,-0.1504 0.108399,-0.207 0.04818,-0.057 0.108398,-0.1013 0.180664,-0.1319 0.07226,-0.031 0.156575,-0.047 0.252929,-0.047 0.0931,0 0.174153,0.014 0.243164,0.042 0.06901,0.028 0.126301,0.069 0.171875,0.1231 0.04622,0.053 0.0804,0.1198 0.102539,0.1992 0.02279,0.079 0.03418,0.1693 0.03418,0.2715 m -0.176758,0.012 c -1e-6,-0.072 -0.0065,-0.138 -0.01953,-0.1992 -0.01237,-0.062 -0.03353,-0.1152 -0.06348,-0.1602 -0.0293,-0.045 -0.06869,-0.081 -0.118165,-0.1064 -0.04948,-0.025 -0.110677,-0.038 -0.183593,-0.038 -0.07292,0 -0.134115,0.014 -0.183594,0.041 -0.04948,0.027 -0.08984,0.064 -0.121094,0.1094 -0.0306,0.046 -0.05273,0.099 -0.06641,0.1601 -0.01302,0.061 -0.01953,0.1244 -0.01953,0.1915 -10e-7,0.074 0.0062,0.1425 0.01855,0.205 0.01237,0.062 0.0332,0.1166 0.0625,0.1621 0.0293,0.045 0.06836,0.08 0.117188,0.1055 0.04948,0.025 0.111327,0.037 0.185547,0.037 0.07357,0 0.135416,-0.014 0.185547,-0.041 0.05013,-0.027 0.09049,-0.064 0.121093,-0.1103 0.0306,-0.047 0.05241,-0.101 0.06543,-0.1622 0.01302,-0.061 0.01953,-0.1259 0.01953,-0.1943" />
        <path
           id="path4090"
           d="m 16.130245,1020.095 c -10e-7,0.077 -0.0085,0.1459 -0.02539,0.2071 -0.01628,0.061 -0.04069,0.1132 -0.07324,0.1562 -0.0319,0.042 -0.07161,0.075 -0.11914,0.099 -0.04753,0.023 -0.101889,0.034 -0.163086,0.034 -0.02604,0 -0.05013,0 -0.07227,-0.01 -0.02214,-0.01 -0.04395,-0.013 -0.06543,-0.024 -0.02083,-0.011 -0.04167,-0.025 -0.0625,-0.042 -0.02083,-0.017 -0.04297,-0.037 -0.06641,-0.06 l 0,0.4395 c 0,0.01 -0.0013,0.01 -0.0039,0.014 -0.0026,0 -0.0068,0.01 -0.0127,0.01 -0.0059,0 -0.014,0 -0.02441,0.01 -0.01042,0 -0.02376,0 -0.04004,0 -0.01563,0 -0.02865,-6e-4 -0.03906,0 -0.01042,0 -0.01888,0 -0.02539,-0.01 -0.0059,0 -0.01009,-0.01 -0.01269,-0.01 -0.002,0 -0.0029,-0.01 -0.0029,-0.014 l 0,-1.2275 c 0,-0.01 9.77e-4,-0.01 0.0029,-0.014 0.002,0 0.0059,-0.01 0.01172,-0.01 0.0059,0 0.01335,0 0.02246,0 0.0091,0 0.02018,0 0.0332,0 0.01367,0 0.02474,6e-4 0.0332,0 0.0091,7e-4 0.0166,0 0.02246,0 0.0059,0 0.0098,0.01 0.01172,0.01 0.0026,0 0.0039,0.01 0.0039,0.014 l 0,0.1181 c 0.02669,-0.027 0.05241,-0.051 0.07715,-0.071 0.02474,-0.02 0.04948,-0.037 0.07422,-0.05 0.02539,-0.014 0.05111,-0.024 0.07715,-0.03 0.02669,-0.01 0.05469,-0.011 0.08398,-0.011 0.0638,0 0.118163,0.012 0.163086,0.037 0.04492,0.025 0.08138,0.059 0.109375,0.1016 0.02864,0.043 0.04948,0.093 0.0625,0.1504 0.01302,0.057 0.01953,0.1168 0.01953,0.1806 m -0.169922,0.019 c 0,-0.045 -0.0036,-0.088 -0.01074,-0.1299 -0.0065,-0.042 -0.01823,-0.08 -0.03516,-0.1123 -0.01628,-0.033 -0.03841,-0.059 -0.06641,-0.078 -0.028,-0.02 -0.06283,-0.029 -0.104493,-0.029 -0.02083,0 -0.04134,0 -0.06152,0.01 -0.02018,0.01 -0.04069,0.016 -0.06152,0.029 -0.02083,0.013 -0.04264,0.031 -0.06543,0.053 -0.02279,0.021 -0.04687,0.048 -0.07227,0.08 l 0,0.3496 c 0.04427,0.054 0.08626,0.095 0.125977,0.124 0.03971,0.029 0.08138,0.043 0.125,0.043 0.04036,0 0.07487,-0.01 0.103515,-0.029 0.0293,-0.02 0.05273,-0.046 0.07031,-0.078 0.01823,-0.033 0.03158,-0.069 0.04004,-0.1093 0.0085,-0.04 0.0127,-0.081 0.0127,-0.1221" />
        <path
           id="path4092"
           d="m 17.129269,1019.6439 c 0.01953,0 0.03288,0 0.04004,0.014 0.0072,0.01 0.01074,0.021 0.01074,0.038 l 0,0.8526 c -1e-6,0.01 -0.0013,0.01 -0.0039,0.014 -0.0026,0 -0.0072,0.01 -0.01367,0.01 -0.0059,0 -0.014,0 -0.02441,0.01 -0.01042,0 -0.02311,0 -0.03809,0 -0.01628,0 -0.02962,-6e-4 -0.04004,0 -0.01042,0 -0.01888,0 -0.02539,-0.01 -0.0059,0 -0.01009,-0.01 -0.01269,-0.01 -0.0026,0 -0.0039,-0.01 -0.0039,-0.014 l 0,-0.7706 -0.454102,0 0,0.4903 c 0,0.06 0.0088,0.1064 0.02637,0.1377 0.01823,0.031 0.05046,0.046 0.09668,0.046 0.01497,0 0.02832,0 0.04004,0 0.01172,0 0.02213,-0.01 0.03125,-0.01 0.0091,0 0.01693,-0.01 0.02344,-0.01 0.0065,0 0.01237,0 0.01758,0 0.0033,0 0.0062,0 0.0088,0 0.0033,0 0.0055,0 0.0068,0.01 0.002,0 0.0036,0.011 0.0049,0.019 0.0013,0.01 0.002,0.018 0.002,0.029 0,0.019 -0.0013,0.034 -0.0039,0.045 -0.0026,0.01 -0.0065,0.019 -0.01172,0.024 -0.0052,0.01 -0.01302,0.01 -0.02344,0.015 -0.01042,0 -0.02246,0.01 -0.03613,0.011 -0.01302,0 -0.02702,0.01 -0.04199,0.01 -0.01497,0 -0.02995,0 -0.04492,0 -0.04557,0 -0.08464,-0.01 -0.117187,-0.018 -0.03255,-0.012 -0.05925,-0.031 -0.08008,-0.055 -0.02083,-0.025 -0.03613,-0.056 -0.0459,-0.093 -0.0091,-0.038 -0.01367,-0.082 -0.01367,-0.1328 l 0,-0.5137 -0.123047,0 c -0.0098,0 -0.01758,-0.01 -0.02344,-0.016 -0.0059,-0.01 -0.0088,-0.027 -0.0088,-0.051 0,-0.012 6.51e-4,-0.023 0.002,-0.031 0.002,-0.01 0.0042,-0.015 0.0068,-0.02 0.0026,-0.01 0.0059,-0.01 0.0098,-0.012 0.0046,0 0.0094,0 0.01465,0 l 0.12207,0 0,-0.209 c 0,0 9.77e-4,-0.01 0.0029,-0.013 0.0026,0 0.0068,-0.01 0.01269,-0.01 0.0065,0 0.01497,-0.01 0.02539,-0.01 0.01042,0 0.02344,0 0.03906,0 0.01628,0 0.02962,7e-4 0.04004,0 0.01042,0 0.01856,0 0.02441,0.01 0.0059,0 0.01009,0.01 0.0127,0.01 0.0026,0 0.0039,0.01 0.0039,0.013 l 0,0.209 0.56543,0 m 0.06934,-0.2715 c -1e-6,0.038 -0.0072,0.063 -0.02149,0.077 -0.01432,0.014 -0.04069,0.021 -0.0791,0.021 -0.03776,0 -0.0638,-0.01 -0.07813,-0.019 -0.01367,-0.014 -0.02051,-0.039 -0.02051,-0.076 -1e-6,-0.038 0.0072,-0.063 0.02148,-0.077 0.01432,-0.014 0.04069,-0.02 0.0791,-0.02 0.03776,0 0.06348,0.01 0.07715,0.02 0.01432,0.013 0.02148,0.038 0.02149,0.075 m -0.329102,0.2715 0,0" />
        <path
           id="path4094"
           d="m 18.295284,1020.0989 c -10e-7,0.072 -0.0094,0.1377 -0.02832,0.1983 -0.01888,0.06 -0.0472,0.1116 -0.08496,0.1553 -0.03711,0.044 -0.08399,0.078 -0.140625,0.1025 -0.05599,0.024 -0.121094,0.036 -0.195312,0.036 -0.07227,0 -0.135418,-0.011 -0.189454,-0.032 -0.05338,-0.021 -0.09798,-0.053 -0.133789,-0.094 -0.03581,-0.041 -0.0625,-0.091 -0.08008,-0.1494 -0.01758,-0.059 -0.02637,-0.125 -0.02637,-0.1992 0,-0.072 0.0091,-0.1374 0.02734,-0.1972 0.01888,-0.061 0.04687,-0.1127 0.08398,-0.1563 0.03776,-0.044 0.08464,-0.077 0.140625,-0.1016 0.05599,-0.024 0.121419,-0.036 0.196289,-0.036 0.07227,0 0.135091,0.011 0.188477,0.032 0.05403,0.021 0.09896,0.053 0.134765,0.094 0.03581,0.041 0.0625,0.091 0.08008,0.1494 0.01823,0.059 0.02734,0.1247 0.02734,0.1982 m -0.169922,0.011 c 0,-0.048 -0.0046,-0.092 -0.01367,-0.1348 -0.0085,-0.042 -0.02279,-0.079 -0.04297,-0.1113 -0.02018,-0.032 -0.04753,-0.057 -0.08203,-0.075 -0.03451,-0.019 -0.07747,-0.028 -0.128907,-0.028 -0.04753,0 -0.08854,0.01 -0.123047,0.025 -0.03385,0.017 -0.06185,0.041 -0.08398,0.072 -0.02214,0.031 -0.03874,0.067 -0.04981,0.1094 -0.01042,0.042 -0.01563,0.089 -0.01563,0.1387 0,0.048 0.0042,0.093 0.0127,0.1357 0.0091,0.042 0.02376,0.079 0.04395,0.1113 0.02083,0.031 0.0485,0.056 0.08301,0.075 0.0345,0.018 0.07747,0.027 0.128906,0.027 0.04687,0 0.08756,-0.01 0.12207,-0.025 0.0345,-0.017 0.06283,-0.041 0.08496,-0.071 0.02214,-0.031 0.03841,-0.067 0.04883,-0.1094 0.01042,-0.042 0.01563,-0.089 0.01563,-0.1396" />
        <path
           id="path4096"
           d="m 19.289425,1020.5482 c -1e-6,0.01 -0.0013,0.01 -0.0039,0.014 -0.0026,0 -0.0068,0.01 -0.0127,0.01 -0.0059,0 -0.014,0 -0.02441,0.01 -0.01042,0 -0.02344,0 -0.03906,0 -0.01628,0 -0.02962,-6e-4 -0.04004,0 -0.01042,0 -0.01856,0 -0.02441,-0.01 -0.0059,0 -0.01009,-0.01 -0.0127,-0.01 -0.0026,0 -0.0039,-0.01 -0.0039,-0.014 l 0,-0.5147 c -1e-6,-0.05 -0.0039,-0.091 -0.01172,-0.1211 -0.0078,-0.031 -0.01921,-0.057 -0.03418,-0.079 -0.01497,-0.022 -0.03451,-0.039 -0.05859,-0.051 -0.02344,-0.012 -0.05078,-0.018 -0.08203,-0.018 -0.04037,0 -0.08073,0.014 -0.121094,0.043 -0.04037,0.029 -0.08268,0.071 -0.126953,0.126 l 0,0.6143 c -1e-6,0.01 -0.0013,0.01 -0.0039,0.014 -0.0026,0 -0.0068,0.01 -0.0127,0.01 -0.0059,0 -0.014,0 -0.02441,0.01 -0.01042,0 -0.02376,0 -0.04004,0 -0.01563,0 -0.02865,-6e-4 -0.03906,0 -0.01042,0 -0.01888,0 -0.02539,-0.01 -0.0059,0 -0.01009,-0.01 -0.0127,-0.01 -0.002,0 -0.0029,-0.01 -0.0029,-0.014 l 0,-0.8789 c 0,-0.01 9.76e-4,-0.01 0.0029,-0.013 0.002,0 0.0059,-0.01 0.01172,-0.01 0.0059,0 0.01335,-0.01 0.02246,-0.01 0.0091,0 0.02116,0 0.03613,0 0.01432,0 0.02604,6e-4 0.03516,0 0.0098,7e-4 0.01725,0 0.02246,0.01 0.0052,0 0.0088,0.01 0.01074,0.01 0.0026,0 0.0039,0.01 0.0039,0.013 l 0,0.1162 c 0.04948,-0.055 0.09863,-0.096 0.147461,-0.1211 0.04948,-0.026 0.09928,-0.039 0.149414,-0.039 0.05859,0 0.107746,0.01 0.147461,0.03 0.04036,0.019 0.07292,0.046 0.09766,0.079 0.02474,0.033 0.04232,0.072 0.05273,0.1172 0.01107,0.044 0.0166,0.098 0.0166,0.1601 l 0,0.5362" />
        <path
           id="path4098"
           d="m 20.135128,1020.3089 c -1e-6,0.045 -0.0085,0.085 -0.02539,0.1201 -0.01628,0.035 -0.03971,0.065 -0.07031,0.089 -0.0306,0.024 -0.06706,0.042 -0.109375,0.055 -0.04232,0.012 -0.08887,0.019 -0.139649,0.019 -0.03125,0 -0.0612,0 -0.08984,-0.01 -0.028,0 -0.05339,-0.01 -0.07617,-0.018 -0.02214,-0.01 -0.04102,-0.016 -0.05664,-0.023 -0.01563,-0.01 -0.02702,-0.016 -0.03418,-0.022 -0.0072,-0.01 -0.01237,-0.016 -0.01563,-0.027 -0.0033,-0.012 -0.0049,-0.028 -0.0049,-0.048 0,-0.012 6.51e-4,-0.023 0.002,-0.031 0.0013,-0.01 0.0029,-0.015 0.0049,-0.02 0.002,-0.01 0.0046,-0.01 0.0078,-0.011 0.0039,0 0.0081,0 0.0127,0 0.0072,0 0.01758,0 0.03125,0.014 0.01432,0.01 0.03158,0.018 0.05176,0.028 0.02083,0.01 0.04525,0.02 0.07324,0.029 0.028,0.01 0.06022,0.013 0.09668,0.013 0.02734,0 0.05208,0 0.07422,-0.01 0.02213,-0.01 0.04134,-0.014 0.05762,-0.025 0.01628,-0.012 0.02865,-0.026 0.03711,-0.044 0.0091,-0.018 0.01367,-0.038 0.01367,-0.062 0,-0.025 -0.0065,-0.046 -0.01953,-0.062 -0.01237,-0.017 -0.02897,-0.032 -0.0498,-0.045 -0.02083,-0.013 -0.04427,-0.024 -0.07031,-0.034 -0.02604,-0.01 -0.05306,-0.021 -0.08106,-0.032 -0.02734,-0.011 -0.05436,-0.024 -0.08105,-0.037 -0.02604,-0.014 -0.04948,-0.032 -0.07031,-0.052 -0.02083,-0.02 -0.03776,-0.044 -0.05078,-0.072 -0.01237,-0.028 -0.01856,-0.061 -0.01856,-0.1006 0,-0.034 0.0065,-0.067 0.01953,-0.099 0.01367,-0.032 0.03385,-0.06 0.06055,-0.083 0.02669,-0.024 0.0599,-0.043 0.09961,-0.058 0.04036,-0.014 0.08724,-0.021 0.140625,-0.021 0.02344,0 0.04687,0 0.07031,0.01 0.02344,0 0.0446,0.01 0.06348,0.015 0.01888,0.01 0.03483,0.012 0.04785,0.019 0.01367,0.01 0.02376,0.012 0.03027,0.018 0.0072,0.01 0.01172,0.01 0.01367,0.014 0.0026,0 0.0042,0.01 0.0049,0.014 0.0013,0 0.0023,0.01 0.0029,0.018 0.0013,0.01 0.002,0.016 0.002,0.026 -10e-7,0.011 -6.52e-4,0.021 -0.002,0.029 -6.52e-4,0.01 -0.0023,0.014 -0.0049,0.019 -0.002,0.01 -0.0046,0.01 -0.0078,0.012 -0.0033,0 -0.0068,0 -0.01074,0 -0.0059,0 -0.01432,0 -0.02539,-0.011 -0.01107,-0.01 -0.02539,-0.015 -0.04297,-0.022 -0.01758,-0.01 -0.03841,-0.016 -0.0625,-0.024 -0.02344,-0.01 -0.05046,-0.011 -0.08105,-0.011 -0.02734,0 -0.05143,0 -0.07226,0.01 -0.02083,0.01 -0.03809,0.015 -0.05176,0.026 -0.01302,0.011 -0.02311,0.024 -0.03027,0.04 -0.0065,0.016 -0.0098,0.033 -0.0098,0.051 0,0.025 0.0065,0.047 0.01953,0.064 0.01302,0.017 0.02995,0.032 0.05078,0.045 0.02083,0.013 0.0446,0.025 0.07129,0.035 0.02669,0.01 0.05371,0.021 0.08105,0.032 0.02799,0.011 0.05534,0.024 0.08203,0.037 0.02734,0.014 0.05143,0.03 0.07227,0.05 0.02083,0.02 0.03743,0.043 0.04981,0.07 0.01302,0.027 0.01953,0.06 0.01953,0.098" />
        <path
           id="path4100"
           d="m 14.694698,1022.7181 c -1e-6,0.059 -0.01107,0.112 -0.0332,0.1582 -0.02149,0.046 -0.05176,0.086 -0.09082,0.1181 -0.03841,0.032 -0.08399,0.056 -0.136719,0.072 -0.05208,0.016 -0.108399,0.024 -0.168945,0.024 -0.04232,0 -0.08171,0 -0.118164,-0.011 -0.03581,-0.01 -0.06803,-0.016 -0.09668,-0.026 -0.028,-0.01 -0.05176,-0.021 -0.07129,-0.032 -0.01888,-0.011 -0.03223,-0.02 -0.04004,-0.028 -0.0072,-0.01 -0.01269,-0.018 -0.0166,-0.029 -0.0033,-0.012 -0.0049,-0.029 -0.0049,-0.049 0,-0.014 6.51e-4,-0.026 0.002,-0.035 0.0013,-0.01 0.0033,-0.018 0.0059,-0.023 0.0026,-0.01 0.0059,-0.01 0.0098,-0.012 0.0039,0 0.0085,0 0.01367,0 0.0091,0 0.02181,0.01 0.03809,0.017 0.01693,0.011 0.03841,0.023 0.06445,0.036 0.02604,0.013 0.05729,0.025 0.09375,0.037 0.03711,0.011 0.07975,0.017 0.127929,0.017 0.03646,0 0.06966,0 0.09961,-0.015 0.0306,-0.01 0.05664,-0.023 0.07813,-0.041 0.02214,-0.018 0.03906,-0.04 0.05078,-0.066 0.01172,-0.026 0.01758,-0.056 0.01758,-0.089 -10e-7,-0.036 -0.0081,-0.066 -0.02441,-0.092 -0.01628,-0.025 -0.03776,-0.048 -0.06445,-0.066 -0.02669,-0.019 -0.05729,-0.037 -0.0918,-0.053 -0.03385,-0.016 -0.06869,-0.033 -0.104492,-0.049 -0.03581,-0.017 -0.07064,-0.035 -0.104492,-0.056 -0.03386,-0.02 -0.06413,-0.044 -0.09082,-0.071 -0.02669,-0.027 -0.0485,-0.059 -0.06543,-0.096 -0.01628,-0.037 -0.02442,-0.081 -0.02441,-0.1328 -10e-7,-0.053 0.0094,-0.1 0.02832,-0.1406 0.01953,-0.042 0.04622,-0.077 0.08008,-0.1045 0.0345,-0.028 0.0752,-0.049 0.12207,-0.063 0.04753,-0.015 0.09863,-0.023 0.153321,-0.023 0.02799,0 0.05599,0 0.08398,0.01 0.02865,0 0.05534,0.011 0.08008,0.019 0.02539,0.01 0.04785,0.017 0.06738,0.027 0.01953,0.01 0.03223,0.018 0.03809,0.024 0.0065,0.01 0.01074,0.011 0.0127,0.015 0.002,0 0.0036,0.01 0.0049,0.014 0.0013,0.01 0.0023,0.012 0.0029,0.019 6.5e-4,0.01 9.75e-4,0.018 9.76e-4,0.03 -10e-7,0.012 -6.52e-4,0.022 -0.002,0.031 -6.52e-4,0.01 -0.002,0.017 -0.0039,0.024 -0.002,0.01 -0.0049,0.01 -0.0088,0.014 -0.0033,0 -0.0072,0 -0.01172,0 -0.0072,0 -0.01855,0 -0.03418,-0.014 -0.01497,-0.01 -0.03353,-0.019 -0.05566,-0.03 -0.02214,-0.012 -0.0485,-0.022 -0.0791,-0.031 -0.02995,-0.01 -0.0638,-0.015 -0.101563,-0.015 -0.03516,0 -0.06576,0 -0.0918,0.015 -0.02604,0.01 -0.04753,0.021 -0.06445,0.037 -0.01693,0.016 -0.02962,0.034 -0.03809,0.056 -0.0085,0.021 -0.0127,0.044 -0.0127,0.068 0,0.035 0.0081,0.065 0.02441,0.091 0.01628,0.025 0.03776,0.048 0.06445,0.067 0.02734,0.019 0.05827,0.037 0.09277,0.054 0.0345,0.016 0.06966,0.033 0.105468,0.05 0.03581,0.016 0.07096,0.035 0.105469,0.055 0.0345,0.019 0.0651,0.043 0.0918,0.07 0.02734,0.027 0.04915,0.059 0.06543,0.096 0.01693,0.036 0.02539,0.08 0.02539,0.1299" />
        <path
           id="path4102"
           d="m 15.665401,1022.5706 c 0,0.025 -0.0065,0.044 -0.01953,0.055 -0.01237,0.01 -0.02669,0.016 -0.04297,0.016 l -0.576171,0 c -1e-6,0.049 0.0049,0.093 0.01465,0.1319 0.0098,0.039 0.02604,0.073 0.04883,0.1006 0.02279,0.028 0.05241,0.049 0.08887,0.064 0.03646,0.015 0.08105,0.022 0.133789,0.022 0.04167,0 0.07878,0 0.111329,-0.01 0.03255,-0.01 0.06055,-0.015 0.08398,-0.023 0.02409,-0.01 0.04362,-0.016 0.05859,-0.023 0.01562,-0.01 0.02734,-0.011 0.03516,-0.011 0.0046,0 0.0085,0 0.01172,0 0.0039,0 0.0068,0.01 0.0088,0.01 0.002,0 0.0033,0.011 0.0039,0.02 0.0013,0.01 0.002,0.018 0.002,0.029 -1e-6,0.01 -3.26e-4,0.016 -9.76e-4,0.022 -6.52e-4,0.01 -0.0016,0.011 -0.0029,0.017 -6.52e-4,0 -0.0023,0.01 -0.0049,0.013 -0.002,0 -0.0049,0.01 -0.0088,0.012 -0.0033,0 -0.01367,0.01 -0.03125,0.018 -0.01758,0.01 -0.04036,0.016 -0.06836,0.023 -0.028,0.01 -0.06055,0.015 -0.09766,0.021 -0.03646,0.01 -0.07552,0.01 -0.117187,0.01 -0.07227,0 -0.135743,-0.01 -0.19043,-0.03 -0.05404,-0.02 -0.09961,-0.05 -0.136719,-0.09 -0.03711,-0.04 -0.0651,-0.09 -0.08398,-0.1494 -0.01888,-0.06 -0.02832,-0.1296 -0.02832,-0.209 0,-0.076 0.0098,-0.1432 0.0293,-0.2031 0.01953,-0.061 0.04753,-0.1117 0.08398,-0.1533 0.03711,-0.042 0.0817,-0.075 0.133789,-0.097 0.05208,-0.023 0.110351,-0.034 0.174805,-0.034 0.06901,0 0.127603,0.011 0.175781,0.033 0.04883,0.022 0.08887,0.052 0.120117,0.09 0.03125,0.037 0.05404,0.081 0.06836,0.1318 0.01497,0.05 0.02246,0.1038 0.02246,0.1611 l 0,0.029 m -0.162109,-0.048 c 0.002,-0.085 -0.01693,-0.1511 -0.05664,-0.1993 -0.03906,-0.048 -0.09733,-0.072 -0.174804,-0.072 -0.03971,0 -0.07454,0.01 -0.104492,0.022 -0.02995,0.015 -0.05501,0.035 -0.0752,0.06 -0.02018,0.025 -0.03581,0.054 -0.04687,0.087 -0.01107,0.033 -0.01725,0.067 -0.01855,0.1026 l 0.476562,0" />
        <path
           id="path4104"
           d="m 16.098995,1022.2776 0,0.4903 c 0,0.06 0.0088,0.1064 0.02637,0.1377 0.01823,0.031 0.05046,0.046 0.09668,0.046 0.01497,0 0.02832,0 0.04004,0 0.01172,0 0.02214,-0.01 0.03125,-0.01 0.0091,0 0.01693,-0.01 0.02344,-0.01 0.0065,0 0.01237,0 0.01758,0 0.0033,0 0.0062,0 0.0088,0 0.0033,0 0.0055,0 0.0068,0.01 0.002,0 0.0036,0.011 0.0049,0.019 0.0013,0.01 0.002,0.018 0.002,0.029 -1e-6,0.019 -0.0013,0.034 -0.0039,0.045 -0.0026,0.011 -0.0068,0.019 -0.0127,0.024 -0.0052,0.01 -0.01302,0.01 -0.02344,0.015 -0.0098,0 -0.02149,0.01 -0.03516,0.011 -0.01302,0 -0.02702,0.01 -0.04199,0.01 -0.01497,0 -0.02995,0 -0.04492,0 -0.04557,0 -0.08463,-0.01 -0.117187,-0.018 -0.03255,-0.012 -0.05925,-0.031 -0.08008,-0.055 -0.02083,-0.025 -0.03613,-0.056 -0.0459,-0.093 -0.0091,-0.038 -0.01367,-0.082 -0.01367,-0.1328 l 0,-0.5137 -0.123046,0 c -0.0098,0 -0.01758,-0.01 -0.02344,-0.016 -0.0059,-0.01 -0.0088,-0.027 -0.0088,-0.051 0,-0.012 6.51e-4,-0.023 0.002,-0.031 0.002,-0.01 0.0042,-0.015 0.0068,-0.02 0.0026,-0.01 0.0059,-0.01 0.0098,-0.012 0.0046,0 0.0094,0 0.01465,0 l 0.12207,0 0,-0.209 c 0,0 9.77e-4,-0.01 0.0029,-0.013 0.0026,0 0.0068,-0.01 0.0127,-0.01 0.0065,0 0.01497,-0.01 0.02539,-0.01 0.01042,0 0.02344,0 0.03906,0 0.01628,0 0.02962,7e-4 0.04004,0 0.01042,0 0.01855,0 0.02441,0.01 0.0059,0 0.01009,0.01 0.0127,0.01 0.0026,0 0.0039,0.01 0.0039,0.013 l 0,0.209 0.436524,0 0,-0.251 c -1e-6,-0.01 0.0013,-0.01 0.0039,-0.014 0.0026,0 0.0068,-0.01 0.01269,-0.01 0.0065,0 0.01497,0 0.02539,-0.01 0.01042,0 0.02344,0 0.03906,0 0.01562,0 0.02865,0 0.03906,0 0.01042,0 0.01855,0 0.02441,0.01 0.0065,0 0.01107,0 0.01367,0.01 0.0026,0 0.0039,0.01 0.0039,0.014 l 0,0.251 0.56543,0 c 0.01888,0 0.0319,0 0.03906,0.014 0.0078,0.01 0.01172,0.021 0.01172,0.038 l 0,0.8526 c -2e-6,0.01 -0.0013,0.01 -0.0039,0.014 -0.0026,0 -0.0072,0.01 -0.01367,0.01 -0.0059,0 -0.014,0 -0.02441,0.01 -0.01042,0 -0.02377,0 -0.04004,0 -0.01498,0 -0.02767,-6e-4 -0.03809,0 -0.01042,0 -0.01888,0 -0.02539,-0.01 -0.0065,0 -0.01107,-0.01 -0.01367,-0.01 -0.002,0 -0.0029,-0.01 -0.0029,-0.014 l 0,-0.7706 -0.454102,0 0,0.4903 c -10e-7,0.06 0.0088,0.1064 0.02637,0.1377 0.01758,0.031 0.04948,0.046 0.0957,0.046 0.01432,0 0.02734,0 0.03906,0 0.01237,0 0.02311,-0.01 0.03223,-0.01 0.0091,0 0.01693,-0.01 0.02344,-0.01 0.0072,0 0.01302,0 0.01758,0 0.0039,0 0.0072,0 0.0098,0 0.0026,0 0.0046,0 0.0059,0.01 0.002,0 0.0036,0.011 0.0049,0.019 0.0013,0.01 0.002,0.018 0.002,0.029 -1e-6,0.019 -0.0013,0.034 -0.0039,0.045 -0.0026,0.011 -0.0068,0.019 -0.0127,0.024 -0.0052,0.01 -0.0127,0.01 -0.02246,0.015 -0.0098,0 -0.02148,0.01 -0.03516,0.011 -0.01302,0 -0.02734,0.01 -0.04297,0.01 -0.01497,0 -0.02962,0 -0.04395,0 -0.04622,0 -0.08561,-0.01 -0.118164,-0.018 -0.03255,-0.012 -0.05925,-0.031 -0.08008,-0.055 -0.02018,-0.025 -0.03516,-0.056 -0.04492,-0.093 -0.0098,-0.038 -0.01465,-0.082 -0.01465,-0.1328 l 0,-0.5137 -0.436524,0 m 1.232422,-0.4052 c -10e-7,0.038 -0.0072,0.063 -0.02148,0.077 -0.01432,0.014 -0.04069,0.021 -0.0791,0.021 -0.03776,0 -0.0638,-0.01 -0.07813,-0.019 -0.01367,-0.014 -0.02051,-0.039 -0.02051,-0.076 -10e-7,-0.038 0.0072,-0.063 0.02149,-0.077 0.01432,-0.014 0.04069,-0.02 0.0791,-0.02 0.03776,0 0.06348,0.01 0.07715,0.02 0.01432,0.013 0.02148,0.038 0.02148,0.075 m -0.329101,0.2715 0,0" />
        <path
           id="path4106"
           d="m 18.36755,1023.0482 c -1e-6,0.01 -0.0013,0.01 -0.0039,0.014 -0.0026,0 -0.0068,0.01 -0.0127,0.01 -0.0059,0 -0.014,0 -0.02441,0.01 -0.01042,0 -0.02344,0 -0.03906,0 -0.01628,0 -0.02962,-6e-4 -0.04004,0 -0.01042,0 -0.01856,0 -0.02441,-0.01 -0.0059,0 -0.01009,-0.01 -0.0127,-0.01 -0.0026,0 -0.0039,-0.01 -0.0039,-0.014 l 0,-0.5147 c -1e-6,-0.05 -0.0039,-0.091 -0.01172,-0.1211 -0.0078,-0.031 -0.01921,-0.057 -0.03418,-0.079 -0.01497,-0.022 -0.03451,-0.039 -0.05859,-0.051 -0.02344,-0.012 -0.05078,-0.018 -0.08203,-0.018 -0.04037,0 -0.08073,0.014 -0.121094,0.043 -0.04037,0.029 -0.08268,0.071 -0.126953,0.126 l 0,0.6143 c -1e-6,0.01 -0.0013,0.01 -0.0039,0.014 -0.0026,0 -0.0068,0.01 -0.0127,0.01 -0.0059,0 -0.014,0 -0.02441,0.01 -0.01042,0 -0.02376,0 -0.04004,0 -0.01563,0 -0.02865,-6e-4 -0.03906,0 -0.01042,0 -0.01888,0 -0.02539,-0.01 -0.0059,0 -0.01009,-0.01 -0.0127,-0.01 -0.002,0 -0.0029,-0.01 -0.0029,-0.014 l 0,-0.8789 c 0,-0.01 9.76e-4,-0.01 0.0029,-0.013 0.002,0 0.0059,-0.01 0.01172,-0.01 0.0059,0 0.01335,-0.01 0.02246,-0.01 0.0091,0 0.02116,0 0.03613,0 0.01432,0 0.02604,6e-4 0.03516,0 0.0098,7e-4 0.01725,0 0.02246,0.01 0.0052,0 0.0088,0.01 0.01074,0.01 0.0026,0 0.0039,0.01 0.0039,0.013 l 0,0.1162 c 0.04948,-0.055 0.09863,-0.096 0.147461,-0.1211 0.04948,-0.026 0.09928,-0.039 0.149414,-0.039 0.05859,0 0.107746,0.01 0.147461,0.03 0.04036,0.019 0.07292,0.046 0.09766,0.079 0.02474,0.033 0.04232,0.072 0.05273,0.1172 0.01107,0.044 0.0166,0.098 0.0166,0.1601 l 0,0.5362" />
        <path
           id="path4108"
           d="m 19.39587,1022.2093 c -10e-7,0.023 -0.0033,0.039 -0.0098,0.05 -0.0059,0.01 -0.01367,0.015 -0.02344,0.015 l -0.125976,0 c 0.02278,0.024 0.03874,0.05 0.04785,0.078 0.0091,0.028 0.01367,0.057 0.01367,0.088 -1e-6,0.051 -0.0081,0.096 -0.02441,0.1347 -0.01628,0.039 -0.03971,0.072 -0.07031,0.1 -0.02995,0.027 -0.06575,0.047 -0.107421,0.062 -0.04167,0.014 -0.08789,0.021 -0.138672,0.021 -0.03581,0 -0.06999,0 -0.102539,-0.014 -0.0319,-0.01 -0.05664,-0.022 -0.07422,-0.036 -0.01172,0.012 -0.02149,0.025 -0.0293,0.04 -0.0072,0.015 -0.01074,0.032 -0.01074,0.052 0,0.023 0.01042,0.042 0.03125,0.057 0.02148,0.015 0.0498,0.023 0.08496,0.024 l 0.229492,0.01 c 0.04362,0 0.08366,0.01 0.120117,0.019 0.03646,0.01 0.06803,0.026 0.09473,0.046 0.02669,0.019 0.04753,0.044 0.0625,0.073 0.01497,0.029 0.02246,0.062 0.02246,0.1006 -1e-6,0.04 -0.0085,0.079 -0.02539,0.1153 -0.01693,0.036 -0.04297,0.068 -0.07813,0.096 -0.03451,0.028 -0.07878,0.05 -0.132813,0.065 -0.05404,0.016 -0.117839,0.024 -0.191406,0.024 -0.07096,0 -0.131511,-0.01 -0.18164,-0.019 -0.04948,-0.012 -0.09017,-0.028 -0.122071,-0.049 -0.0319,-0.021 -0.05501,-0.046 -0.06934,-0.075 -0.01432,-0.029 -0.02148,-0.06 -0.02148,-0.094 0,-0.021 0.0026,-0.042 0.0078,-0.062 0.0052,-0.02 0.01302,-0.039 0.02344,-0.058 0.01107,-0.018 0.02441,-0.035 0.04004,-0.052 0.01628,-0.017 0.03483,-0.034 0.05566,-0.05 -0.0319,-0.016 -0.05566,-0.037 -0.07129,-0.062 -0.01497,-0.025 -0.02246,-0.051 -0.02246,-0.08 0,-0.04 0.0081,-0.075 0.02441,-0.1064 0.01628,-0.031 0.03646,-0.059 0.06055,-0.084 -0.02018,-0.024 -0.03613,-0.051 -0.04785,-0.081 -0.01172,-0.031 -0.01758,-0.067 -0.01758,-0.1103 0,-0.05 0.0085,-0.095 0.02539,-0.1348 0.01693,-0.04 0.04036,-0.073 0.07031,-0.1006 0.02995,-0.027 0.06575,-0.048 0.107422,-0.062 0.04232,-0.015 0.08822,-0.022 0.137696,-0.022 0.02669,0 0.05143,0 0.07422,0 0.02344,0 0.04525,0.01 0.06543,0.012 l 0.265625,0 c 0.01107,0 0.01921,0.01 0.02441,0.017 0.0059,0.01 0.0088,0.027 0.0088,0.049 m -0.251953,0.2314 c -1e-6,-0.06 -0.0166,-0.1064 -0.0498,-0.1396 -0.03255,-0.034 -0.0791,-0.051 -0.139648,-0.051 -0.03125,0 -0.05859,0.01 -0.08203,0.016 -0.02279,0.01 -0.04199,0.025 -0.05762,0.043 -0.01497,0.018 -0.02637,0.039 -0.03418,0.063 -0.0072,0.023 -0.01074,0.048 -0.01074,0.074 -1e-6,0.058 0.01628,0.1035 0.04883,0.1367 0.0332,0.033 0.07943,0.05 0.138672,0.05 0.0319,0 0.05957,0 0.08301,-0.015 0.02344,-0.01 0.04264,-0.024 0.05762,-0.042 0.01562,-0.018 0.02702,-0.039 0.03418,-0.062 0.0078,-0.024 0.01172,-0.048 0.01172,-0.073 m 0.08106,0.6963 c -1e-6,-0.038 -0.01563,-0.067 -0.04687,-0.087 -0.0306,-0.021 -0.07227,-0.032 -0.125,-0.033 l -0.227539,-0.01 c -0.02083,0.016 -0.03809,0.032 -0.05176,0.047 -0.01302,0.014 -0.02344,0.028 -0.03125,0.041 -0.0078,0.014 -0.01335,0.027 -0.0166,0.04 -0.0026,0.013 -0.0039,0.026 -0.0039,0.04 0,0.042 0.02148,0.074 0.06445,0.096 0.04297,0.022 0.102864,0.033 0.179688,0.033 0.04883,0 0.08952,0 0.12207,-0.015 0.0332,-0.01 0.05989,-0.021 0.08008,-0.037 0.02018,-0.016 0.03451,-0.034 0.04297,-0.054 0.0091,-0.02 0.01367,-0.041 0.01367,-0.064" />
        <path
           id="path4110"
           d="m 20.154659,1022.8089 c 0,0.045 -0.0085,0.085 -0.02539,0.1201 -0.01628,0.035 -0.03972,0.065 -0.07031,0.089 -0.0306,0.024 -0.06706,0.042 -0.109375,0.055 -0.04232,0.012 -0.08887,0.019 -0.139648,0.019 -0.03125,0 -0.0612,0 -0.08984,-0.01 -0.028,0 -0.05339,-0.01 -0.07617,-0.018 -0.02214,-0.01 -0.04102,-0.016 -0.05664,-0.023 -0.01563,-0.01 -0.02702,-0.016 -0.03418,-0.022 -0.0072,-0.01 -0.01237,-0.016 -0.01563,-0.027 -0.0033,-0.012 -0.0049,-0.028 -0.0049,-0.048 0,-0.012 6.51e-4,-0.023 0.002,-0.031 0.0013,-0.01 0.0029,-0.015 0.0049,-0.02 0.002,-0.01 0.0046,-0.01 0.0078,-0.011 0.0039,0 0.0081,0 0.0127,0 0.0072,0 0.01758,0 0.03125,0.014 0.01432,0.01 0.03158,0.018 0.05176,0.028 0.02083,0.01 0.04525,0.02 0.07324,0.029 0.02799,0.01 0.06022,0.013 0.09668,0.013 0.02734,0 0.05208,0 0.07422,-0.01 0.02214,-0.01 0.04134,-0.014 0.05762,-0.025 0.01628,-0.012 0.02865,-0.026 0.03711,-0.044 0.0091,-0.018 0.01367,-0.038 0.01367,-0.062 -1e-6,-0.025 -0.0065,-0.046 -0.01953,-0.062 -0.01237,-0.017 -0.02897,-0.032 -0.0498,-0.045 -0.02083,-0.013 -0.04427,-0.024 -0.07031,-0.034 -0.02604,-0.01 -0.05306,-0.021 -0.08105,-0.032 -0.02734,-0.011 -0.05436,-0.024 -0.08105,-0.037 -0.02604,-0.014 -0.04948,-0.032 -0.07031,-0.052 -0.02083,-0.02 -0.03776,-0.044 -0.05078,-0.072 -0.01237,-0.028 -0.01856,-0.061 -0.01856,-0.1006 0,-0.034 0.0065,-0.067 0.01953,-0.099 0.01367,-0.032 0.03385,-0.06 0.06055,-0.083 0.02669,-0.024 0.0599,-0.043 0.09961,-0.058 0.04036,-0.014 0.08724,-0.021 0.140625,-0.021 0.02344,0 0.04687,0 0.07031,0.01 0.02344,0 0.0446,0.01 0.06348,0.015 0.01888,0.01 0.03483,0.012 0.04785,0.019 0.01367,0.01 0.02376,0.012 0.03027,0.018 0.0072,0.01 0.01172,0.01 0.01367,0.014 0.0026,0 0.0042,0.01 0.0049,0.014 0.0013,0 0.0023,0.01 0.0029,0.018 0.0013,0.01 0.002,0.016 0.002,0.026 0,0.011 -6.51e-4,0.021 -0.002,0.029 -6.51e-4,0.01 -0.0023,0.014 -0.0049,0.019 -0.002,0.01 -0.0046,0.01 -0.0078,0.012 -0.0033,0 -0.0068,0 -0.01074,0 -0.0059,0 -0.01432,0 -0.02539,-0.011 -0.01107,-0.01 -0.02539,-0.015 -0.04297,-0.022 -0.01758,-0.01 -0.03841,-0.016 -0.0625,-0.024 -0.02344,-0.01 -0.05046,-0.011 -0.08105,-0.011 -0.02734,0 -0.05143,0 -0.07227,0.01 -0.02083,0.01 -0.03809,0.015 -0.05176,0.026 -0.01302,0.011 -0.02311,0.024 -0.03027,0.04 -0.0065,0.016 -0.0098,0.033 -0.0098,0.051 0,0.025 0.0065,0.047 0.01953,0.064 0.01302,0.017 0.02995,0.032 0.05078,0.045 0.02083,0.013 0.0446,0.025 0.07129,0.035 0.02669,0.01 0.05371,0.021 0.08105,0.032 0.028,0.011 0.05534,0.024 0.08203,0.037 0.02734,0.014 0.05143,0.03 0.07226,0.05 0.02083,0.02 0.03744,0.043 0.04981,0.07 0.01302,0.027 0.01953,0.06 0.01953,0.098" />
      </g>
      <g
         id="text4017"
         style="font-size:2px;font-style:normal;font-variant:normal;font-weight:normal;font-stretch:normal;fill:#f0f0f0;fill-opacity:1;stroke:none;font-family:Calibri;-inkscape-font-specification:Calibri">
        <path
           id="path4041"
           d="m 33.402714,1012.512 c -1e-6,0.011 -6.52e-4,0.021 -0.002,0.03 -0.0013,0.01 -0.0029,0.016 -0.0049,0.023 -0.002,0.01 -0.0046,0.012 -0.0078,0.016 -0.0033,0 -0.0068,0.01 -0.01074,0.01 l -0.766601,0.3867 c -0.0072,0 -0.01335,0.01 -0.01855,0.01 -0.0052,0 -0.0094,0 -0.0127,-0.01 -0.0026,0 -0.0046,-0.011 -0.0059,-0.02 -0.0013,-0.01 -0.002,-0.022 -0.002,-0.037 0,-0.018 3.26e-4,-0.033 9.77e-4,-0.044 6.51e-4,-0.011 0.002,-0.02 0.0039,-0.026 0.0026,-0.01 0.0062,-0.013 0.01074,-0.017 0.0046,0 0.01042,-0.01 0.01758,-0.011 l 0.629883,-0.3096 -0.625977,-0.3018 c -0.0085,0 -0.0153,-0.01 -0.02051,-0.011 -0.0046,0 -0.0081,-0.01 -0.01074,-0.017 -0.0026,-0.01 -0.0042,-0.016 -0.0049,-0.027 -6.51e-4,-0.012 -9.77e-4,-0.027 -9.77e-4,-0.046 0,-0.017 6.51e-4,-0.03 0.002,-0.039 0.0013,-0.01 0.0033,-0.017 0.0059,-0.02 0.0033,0 0.0075,-0.01 0.0127,-0.01 0.0052,7e-4 0.01139,0 0.01855,0.01 l 0.769531,0.3877 c 0.0065,0 0.01172,0.011 0.01563,0.024 0.0046,0.012 0.0068,0.03 0.0068,0.052" />
      </g>
    </g>
    <path
       style="fill:url(#linearGradient3882);fill-opacity:1;fill-rule:evenodd;stroke:none"
       d="m 30.531,1009.2175 0,1.0937 2,0 0,-0.25 0.25,0 0,-0.5625 -0.25,0 0,-0.2812 -2,0 z"
       id="rect2989" />
  </g>
</svg>
