<?xml version="1.0" encoding="UTF-8" standalone="no"?>
<!-- Created with Inkscape (http://www.inkscape.org/) -->

<svg
   xmlns:dc="http://purl.org/dc/elements/1.1/"
   xmlns:cc="http://creativecommons.org/ns#"
   xmlns:rdf="http://www.w3.org/1999/02/22-rdf-syntax-ns#"
   xmlns:svg="http://www.w3.org/2000/svg"
   xmlns="http://www.w3.org/2000/svg"
   xmlns:xlink="http://www.w3.org/1999/xlink"
   xmlns:sodipodi="http://sodipodi.sourceforge.net/DTD/sodipodi-0.dtd"
   xmlns:inkscape="http://www.inkscape.org/namespaces/inkscape"
   width="48"
   height="49"
   id="svg2"
   version="1.1"
   inkscape:version="0.47pre4 r22446"
   sodipodi:docname="audio-card.svg">
  <defs
     id="defs4">
    <linearGradient
       id="linearGradient4408">
      <stop
         style="stop-color:#646464;stop-opacity:1;"
         offset="0"
         id="stop4410" />
      <stop
         style="stop-color:#141414;stop-opacity:1;"
         offset="1"
         id="stop4412" />
    </linearGradient>
    <linearGradient
       id="linearGradient4370">
      <stop
         id="stop4372"
         offset="0"
         style="stop-color:#e3b216;stop-opacity:1;" />
      <stop
         id="stop4374"
         offset="1"
         style="stop-color:#ffdc64;stop-opacity:1;" />
    </linearGradient>
    <linearGradient
       id="linearGradient4354">
      <stop
         id="stop4356"
         offset="0"
         style="stop-color:#b46d00;stop-opacity:1;" />
      <stop
         id="stop4358"
         offset="1"
         style="stop-color:#ffdc64;stop-opacity:1;" />
    </linearGradient>
    <linearGradient
       id="linearGradient4326">
      <stop
         style="stop-color:#ffffff;stop-opacity:1;"
         offset="0"
         id="stop4328" />
      <stop
         style="stop-color:#ffffff;stop-opacity:0;"
         offset="1"
         id="stop4330" />
    </linearGradient>
    <linearGradient
       id="linearGradient4111">
      <stop
         id="stop4113"
         offset="0"
         style="stop-color:#f0f0f0;stop-opacity:1;" />
      <stop
         id="stop4115"
         offset="1"
         style="stop-color:#c8c8c8;stop-opacity:1;" />
    </linearGradient>
    <linearGradient
       id="linearGradient3767">
      <stop
         style="stop-color:#646464;stop-opacity:1;"
         offset="0"
         id="stop3769" />
      <stop
         style="stop-color:#141414;stop-opacity:1;"
         offset="1"
         id="stop3771" />
    </linearGradient>
    <linearGradient
       id="linearGradient3759">
      <stop
         style="stop-color:#ffc878;stop-opacity:1;"
         offset="0"
         id="stop3761" />
      <stop
         style="stop-color:#fd8011;stop-opacity:1;"
         offset="1"
         id="stop3763" />
    </linearGradient>
    <linearGradient
       id="linearGradient3751">
      <stop
         style="stop-color:#9dd144;stop-opacity:1;"
         offset="0"
         id="stop3753" />
      <stop
         style="stop-color:#619508;stop-opacity:1;"
         offset="1"
         id="stop3755" />
    </linearGradient>
    <linearGradient
       id="linearGradient3743">
      <stop
         style="stop-color:#fc5e34;stop-opacity:1;"
         offset="0"
         id="stop3745" />
      <stop
         style="stop-color:#de220c;stop-opacity:1;"
         offset="1"
         id="stop3747" />
    </linearGradient>
    <linearGradient
       id="linearGradient3717">
      <stop
         style="stop-color:#5785a6;stop-opacity:1;"
         offset="0"
         id="stop3719" />
      <stop
         id="stop3725"
         offset="0.5"
         style="stop-color:#7fadce;stop-opacity:1;" />
      <stop
         style="stop-color:#5785a6;stop-opacity:1;"
         offset="1"
         id="stop3721" />
    </linearGradient>
    <linearGradient
       id="linearGradient3707">
      <stop
         style="stop-color:#7fadce;stop-opacity:1;"
         offset="0"
         id="stop3709" />
      <stop
         style="stop-color:#5785a6;stop-opacity:1;"
         offset="1"
         id="stop3711" />
    </linearGradient>
    <linearGradient
       id="linearGradient3635">
      <stop
         style="stop-color:#aaaaaa;stop-opacity:1;"
         offset="0"
         id="stop3637" />
      <stop
         id="stop3643"
         offset="0.5"
         style="stop-color:#c8c8c8;stop-opacity:1;" />
      <stop
         style="stop-color:#333333;stop-opacity:1;"
         offset="1"
         id="stop3639" />
    </linearGradient>
    <linearGradient
       id="linearGradient3623">
      <stop
         style="stop-color:#c88109;stop-opacity:1;"
         offset="0"
         id="stop3625" />
      <stop
         style="stop-color:#ffdc64;stop-opacity:1;"
         offset="1"
         id="stop3627" />
    </linearGradient>
    <linearGradient
       id="linearGradient3611">
      <stop
         style="stop-color:#9cc430;stop-opacity:1;"
         offset="0"
         id="stop3613" />
      <stop
         style="stop-color:#255900;stop-opacity:1;"
         offset="1"
         id="stop3615" />
    </linearGradient>
    <inkscape:perspective
       sodipodi:type="inkscape:persp3d"
       inkscape:vp_x="0 : 526.18109 : 1"
       inkscape:vp_y="0 : 1000 : 0"
       inkscape:vp_z="744.09448 : 526.18109 : 1"
       inkscape:persp3d-origin="372.04724 : 350.78739 : 1"
       id="perspective10" />
    <inkscape:perspective
       id="perspective2824"
       inkscape:persp3d-origin="0.5 : 0.33333333 : 1"
       inkscape:vp_z="1 : 0.5 : 1"
       inkscape:vp_y="0 : 1000 : 0"
       inkscape:vp_x="0 : 0.5 : 1"
       sodipodi:type="inkscape:persp3d" />
    <linearGradient
       inkscape:collect="always"
       xlink:href="#linearGradient4111"
       id="linearGradient4266"
       gradientUnits="userSpaceOnUse"
       gradientTransform="matrix(1,0,0,0.65000001,0.25,388.28906)"
       x1="2.8499999"
       y1="1008.1122"
       x2="2.8499999"
       y2="1010.1122" />
    <linearGradient
       inkscape:collect="always"
       xlink:href="#linearGradient4111"
       id="linearGradient4269"
       gradientUnits="userSpaceOnUse"
       gradientTransform="matrix(1,0,0,0.65000001,0.25,374.5891)"
       x1="2.8499999"
       y1="1008.1122"
       x2="2.8499999"
       y2="1010.1122" />
    <linearGradient
       inkscape:collect="always"
       xlink:href="#linearGradient3767"
       id="linearGradient4273"
       gradientUnits="userSpaceOnUse"
       gradientTransform="translate(0.25,18.000017)"
       x1="2.8499999"
       y1="1008.1122"
       x2="2.8499999"
       y2="1010.1122" />
    <linearGradient
       inkscape:collect="always"
       xlink:href="#linearGradient3759"
       id="linearGradient4276"
       gradientUnits="userSpaceOnUse"
       gradientTransform="translate(0.25,13.500017)"
       x1="2.8499999"
       y1="1008.1122"
       x2="2.8499999"
       y2="1010.1122" />
    <linearGradient
       inkscape:collect="always"
       xlink:href="#linearGradient3751"
       id="linearGradient4279"
       gradientUnits="userSpaceOnUse"
       gradientTransform="translate(0.25,9.0000174)"
       x1="2.8499999"
       y1="1008.1122"
       x2="2.8499999"
       y2="1010.1122" />
    <linearGradient
       inkscape:collect="always"
       xlink:href="#linearGradient3743"
       id="linearGradient4282"
       gradientUnits="userSpaceOnUse"
       gradientTransform="translate(0.25,4.5000174)"
       x1="2.8499999"
       y1="1008.1122"
       x2="2.8499999"
       y2="1010.1122" />
    <linearGradient
       inkscape:collect="always"
       xlink:href="#linearGradient3707"
       id="linearGradient4285"
       gradientUnits="userSpaceOnUse"
       gradientTransform="translate(0.25,1.7382813e-5)"
       x1="2.8499999"
       y1="1008.1122"
       x2="2.8499999"
       y2="1010.1122" />
    <radialGradient
       inkscape:collect="always"
       xlink:href="#linearGradient3767"
       id="radialGradient4288"
       gradientUnits="userSpaceOnUse"
       gradientTransform="matrix(1,0,0,0.53846154,0.25,474.0518)"
       cx="8"
       cy="1027.1122"
       fx="8"
       fy="1027.1122"
       r="3.25" />
    <radialGradient
       inkscape:collect="always"
       xlink:href="#linearGradient3759"
       id="radialGradient4291"
       gradientUnits="userSpaceOnUse"
       gradientTransform="matrix(1,0,0,0.53846154,0.25,471.97487)"
       cx="8"
       cy="1022.6122"
       fx="8"
       fy="1022.6122"
       r="3.25" />
    <radialGradient
       inkscape:collect="always"
       xlink:href="#linearGradient3751"
       id="radialGradient4294"
       gradientUnits="userSpaceOnUse"
       gradientTransform="matrix(1,0,0,0.53846154,0.25,469.89795)"
       cx="8"
       cy="1018.1122"
       fx="8"
       fy="1018.1122"
       r="3.25" />
    <radialGradient
       inkscape:collect="always"
       xlink:href="#linearGradient3743"
       id="radialGradient4297"
       gradientUnits="userSpaceOnUse"
       gradientTransform="matrix(1,0,0,0.53846154,0.25,467.82103)"
       cx="8"
       cy="1013.6122"
       fx="8"
       fy="1013.6122"
       r="3.25" />
    <radialGradient
       inkscape:collect="always"
       xlink:href="#linearGradient3707"
       id="radialGradient4300"
       gradientUnits="userSpaceOnUse"
       gradientTransform="matrix(1,0,0,0.53846154,0.25,465.7441)"
       cx="8"
       cy="1009.1122"
       fx="8"
       fy="1009.1122"
       r="3.25" />
    <linearGradient
       inkscape:collect="always"
       xlink:href="#linearGradient3635"
       id="linearGradient4312"
       gradientUnits="userSpaceOnUse"
       gradientTransform="translate(1.25,-0.49996524)"
       x1="2.5"
       y1="1027.8622"
       x2="3.75"
       y2="1027.8622" />
    <linearGradient
       inkscape:collect="always"
       xlink:href="#linearGradient3623"
       id="linearGradient4316"
       gradientUnits="userSpaceOnUse"
       gradientTransform="translate(1.25,-0.49996524)"
       x1="43.25"
       y1="1043.3623"
       x2="43.25"
       y2="1046.2998" />
    <linearGradient
       inkscape:collect="always"
       xlink:href="#linearGradient3623"
       id="linearGradient4319"
       gradientUnits="userSpaceOnUse"
       gradientTransform="matrix(1.0263158,0,0,1,0.71052632,-0.49996524)"
       x1="30"
       y1="1043.3623"
       x2="30"
       y2="1046.2328" />
    <radialGradient
       inkscape:collect="always"
       xlink:href="#linearGradient3611"
       id="radialGradient4322"
       gradientUnits="userSpaceOnUse"
       gradientTransform="matrix(-2.1285259,0.57802379,-0.38333863,-1.4116136,508.7106,2437.6972)"
       cx="37.258255"
       cy="1019.7177"
       fx="37.258255"
       fy="1019.7177"
       r="21.5" />
    <linearGradient
       inkscape:collect="always"
       xlink:href="#linearGradient4326"
       id="linearGradient4332"
       x1="0.95000005"
       y1="1037.3622"
       x2="2.3500001"
       y2="1037.3622"
       gradientUnits="userSpaceOnUse" />
    <linearGradient
       inkscape:collect="always"
       xlink:href="#linearGradient4326"
       id="linearGradient4336"
       gradientUnits="userSpaceOnUse"
       x1="2.3500001"
       y1="1031.3622"
       x2="2.3500001"
       y2="1032.2729" />
    <linearGradient
       inkscape:collect="always"
       xlink:href="#linearGradient4326"
       id="linearGradient4340"
       gradientUnits="userSpaceOnUse"
       x1="2.3500001"
       y1="1031.3622"
       x2="2.3500001"
       y2="1032.2729"
       gradientTransform="matrix(1,0,0,-1,0,2074.7244)" />
    <linearGradient
       inkscape:collect="always"
       xlink:href="#linearGradient4354"
       id="linearGradient4352"
       x1="3.6432736"
       y1="1037.3622"
       x2="9.5479059"
       y2="1037.3622"
       gradientUnits="userSpaceOnUse"
       gradientTransform="matrix(1,0,0,1.0333334,0,-34.578862)" />
    <radialGradient
       inkscape:collect="always"
       xlink:href="#linearGradient4370"
       id="radialGradient4364"
       cx="11.000003"
       cy="1039.4622"
       fx="11.000003"
       fy="1039.4622"
       r="2.0999999"
       gradientTransform="matrix(0.99892581,-4.194059,3.20454,0.96598323,-3330.9863,83.893613)"
       gradientUnits="userSpaceOnUse" />
    <linearGradient
       inkscape:collect="always"
       xlink:href="#linearGradient4111"
       id="linearGradient4378"
       gradientUnits="userSpaceOnUse"
       gradientTransform="matrix(1,0,0,0.65000001,4.5999999,388.28906)"
       x1="2.8499999"
       y1="1008.1122"
       x2="2.8499999"
       y2="1010.1122" />
    <linearGradient
       inkscape:collect="always"
       xlink:href="#linearGradient4111"
       id="linearGradient4392"
       gradientUnits="userSpaceOnUse"
       gradientTransform="matrix(1,0,0,0.65000001,4.5999999,388.28906)"
       x1="2.8499999"
       y1="1008.1122"
       x2="2.8499999"
       y2="1010.1122" />
    <linearGradient
       inkscape:collect="always"
       xlink:href="#linearGradient3767"
       id="linearGradient4402"
       x1="29.75"
       y1="1029.5944"
       x2="43.916878"
       y2="1040.7942"
       gradientUnits="userSpaceOnUse"
       gradientTransform="matrix(0.9,0,0,0.93333333,2.975,69.139619)" />
    <linearGradient
       inkscape:collect="always"
       xlink:href="#linearGradient3767"
       id="linearGradient4414"
       x1="34.75"
       y1="1029.3944"
       x2="34.75"
       y2="1037.2944"
       gradientUnits="userSpaceOnUse"
       gradientTransform="matrix(0.90384616,0,0,0.93670886,2.8413462,65.651541)" />
    <linearGradient
       inkscape:collect="always"
       xlink:href="#linearGradient4408"
       id="linearGradient4432"
       gradientUnits="userSpaceOnUse"
       x1="28.949999"
       y1="1030.4032"
       x2="28.949999"
       y2="1036.8032" />
    <linearGradient
       inkscape:collect="always"
       xlink:href="#linearGradient4408"
       id="linearGradient4440"
       gradientUnits="userSpaceOnUse"
       x1="28.949999"
       y1="1030.4032"
       x2="28.949999"
       y2="1036.8032" />
    <linearGradient
       inkscape:collect="always"
       xlink:href="#linearGradient4408"
       id="linearGradient4452"
       gradientUnits="userSpaceOnUse"
       x1="29.450035"
       y1="1033.6031"
       x2="28.450035"
       y2="1033.6031"
       gradientTransform="matrix(1,0,0,1.25,-1066.8442,-1257.754)" />
    <linearGradient
       inkscape:collect="always"
       xlink:href="#linearGradient4408"
       id="linearGradient4464"
       gradientUnits="userSpaceOnUse"
       gradientTransform="matrix(1,0,0,1.25,-1066.8442,-1257.754)"
       x1="29.450035"
       y1="1033.6031"
       x2="28.450035"
       y2="1033.6031" />
    <linearGradient
       inkscape:collect="always"
       xlink:href="#linearGradient4408"
       id="linearGradient3730"
       x1="18.735714"
       y1="1030.6409"
       x2="18.735714"
       y2="1035.0409"
       gradientUnits="userSpaceOnUse"
       gradientTransform="translate(-0.20000005,0.1999023)" />
    <radialGradient
       inkscape:collect="always"
       xlink:href="#linearGradient4111"
       id="radialGradient3746"
       cx="14.6875"
       cy="10.919642"
       fx="14.6875"
       fy="10.919642"
       r="1.1160715"
       gradientUnits="userSpaceOnUse" />
    <radialGradient
       inkscape:collect="always"
       xlink:href="#linearGradient4111"
       id="radialGradient3752"
       gradientUnits="userSpaceOnUse"
       cx="14.6875"
       cy="10.919642"
       fx="14.6875"
       fy="10.919642"
       r="1.1160715" />
    <linearGradient
       inkscape:collect="always"
       xlink:href="#linearGradient4408"
       id="linearGradient3782"
       gradientUnits="userSpaceOnUse"
       x1="20.234617"
       y1="34.857864"
       x2="20.234617"
       y2="36.815033" />
    <radialGradient
       inkscape:collect="always"
       xlink:href="#linearGradient4111"
       id="radialGradient3784"
       gradientUnits="userSpaceOnUse"
       cx="20.234617"
       cy="35.836449"
       fx="20.234617"
       fy="35.836449"
       r="0.9785853" />
    <linearGradient
       inkscape:collect="always"
       xlink:href="#linearGradient4408"
       id="linearGradient3792"
       gradientUnits="userSpaceOnUse"
       x1="20.234617"
       y1="34.857864"
       x2="20.234617"
       y2="36.815033" />
    <radialGradient
       inkscape:collect="always"
       xlink:href="#linearGradient4111"
       id="radialGradient3794"
       gradientUnits="userSpaceOnUse"
       cx="20.234617"
       cy="35.836449"
       fx="20.234617"
       fy="35.836449"
       r="0.9785853" />
    <linearGradient
       inkscape:collect="always"
       xlink:href="#linearGradient4408"
       id="linearGradient3802"
       gradientUnits="userSpaceOnUse"
       x1="20.234617"
       y1="34.857864"
       x2="20.234617"
       y2="36.815033" />
    <radialGradient
       inkscape:collect="always"
       xlink:href="#linearGradient4111"
       id="radialGradient3804"
       gradientUnits="userSpaceOnUse"
       cx="20.234617"
       cy="35.836449"
       fx="20.234617"
       fy="35.836449"
       r="0.9785853" />
    <linearGradient
       inkscape:collect="always"
       xlink:href="#linearGradient4408"
       id="linearGradient3812"
       gradientUnits="userSpaceOnUse"
       x1="20.234617"
       y1="34.857864"
       x2="20.234617"
       y2="36.815033" />
    <radialGradient
       inkscape:collect="always"
       xlink:href="#linearGradient4111"
       id="radialGradient3814"
       gradientUnits="userSpaceOnUse"
       cx="20.234617"
       cy="35.836449"
       fx="20.234617"
       fy="35.836449"
       r="0.9785853" />
    <linearGradient
       inkscape:collect="always"
       xlink:href="#linearGradient4408"
       id="linearGradient3822"
       gradientUnits="userSpaceOnUse"
       x1="20.234617"
       y1="34.857864"
       x2="20.234617"
       y2="36.815033" />
    <radialGradient
       inkscape:collect="always"
       xlink:href="#linearGradient4111"
       id="radialGradient3824"
       gradientUnits="userSpaceOnUse"
       cx="20.234617"
       cy="35.836449"
       fx="20.234617"
       fy="35.836449"
       r="0.9785853" />
    <radialGradient
       inkscape:collect="always"
       xlink:href="#linearGradient4111"
       id="radialGradient3838"
       gradientUnits="userSpaceOnUse"
       cx="14.6875"
       cy="10.919642"
       fx="14.6875"
       fy="10.919642"
       r="1.1160715" />
    <radialGradient
       inkscape:collect="always"
       xlink:href="#linearGradient4111"
       id="radialGradient3844"
       gradientUnits="userSpaceOnUse"
       cx="14.6875"
       cy="10.919642"
       fx="14.6875"
       fy="10.919642"
       r="1.1160715" />
    <linearGradient
       inkscape:collect="always"
       xlink:href="#linearGradient4408"
       id="linearGradient3852"
       gradientUnits="userSpaceOnUse"
       x1="20.234617"
       y1="34.857864"
       x2="20.234617"
       y2="36.815033" />
    <radialGradient
       inkscape:collect="always"
       xlink:href="#linearGradient4111"
       id="radialGradient3854"
       gradientUnits="userSpaceOnUse"
       cx="20.234617"
       cy="35.836449"
       fx="20.234617"
       fy="35.836449"
       r="0.9785853" />
  </defs>
  <sodipodi:namedview
     id="base"
     pagecolor="#ffffff"
     bordercolor="#666666"
     borderopacity="1.0"
     inkscape:pageopacity="0.0"
     inkscape:pageshadow="2"
     inkscape:zoom="5.6"
     inkscape:cx="38.511064"
     inkscape:cy="2.723095"
     inkscape:document-units="px"
     inkscape:current-layer="layer1"
     showgrid="false"
     inkscape:window-width="1278"
     inkscape:window-height="712"
     inkscape:window-x="0"
     inkscape:window-y="25"
     inkscape:window-maximized="1" />
  <metadata
     id="metadata7">
    <rdf:RDF>
      <cc:Work
         rdf:about="">
        <dc:format>image/svg+xml</dc:format>
        <dc:type
           rdf:resource="http://purl.org/dc/dcmitype/StillImage" />
        <dc:title />
      </cc:Work>
    </rdf:RDF>
  </metadata>
  <g
     inkscape:label="Livello 1"
     inkscape:groupmode="layer"
     id="layer1"
     transform="translate(0,-1003.3622)">
    <path
       style="fill:none;stroke:#646464;stroke-width:0.30000001;stroke-miterlimit:4;stroke-opacity:1;stroke-dasharray:none"
       d="m 1.25625,1004.8622 0,0.5 2.5,0 0,2 0,0.75 -1.3125,0 0,2 1.3125,0 0,2.5 -1.3125,0 0,2 1.3125,0 0,2.5 -1.3125,0 0,2 1.3125,0 0,2.5 -1.3125,0 0,2 1.3125,0 0,2.5 -1.3125,0 0,2 1.3125,0 0,1.75 -1.3125,0 0,1.3125 1.3125,0 0,0.1875 -1.8125,0 c -0.554,0 -0.99999998,0.446 -0.99999998,1 l 0,10 c 0,0.554 0.44599998,1 0.99999998,1 l 1.8125,0 0,0.2187 -1.3125,0 0,1.2813 1.3125,0 0,2.5 0,3.5 0.5,0 0,-3.5 7,0 0,-5 7.5,0 3,0 0,0.5 0,4.5 19.5,0 0,-4.5 1,0 0,4.5 4.5,0 0,-4.5 0,-15.5 -25,0 -3,0 0,-20 -10,0 -4.5,0 0,-2.5 -3,0 z"
       id="path4117" />
    <path
       style="fill:url(#radialGradient4322);fill-opacity:1;fill-rule:nonzero;stroke:none"
       d="m 3.75,1007.3622 0,40 7.5,0 0,-5 7.5,0 3,0 0,0.5 25,0 0,-15.5 -25,0 -3,0 0,-20 -10,0 -5,0 z"
       id="rect2830"
       sodipodi:nodetypes="cccccccccccccc" />
    <rect
       style="fill:url(#linearGradient4319);fill-opacity:1;fill-rule:nonzero;stroke:none"
       id="rect3619"
       width="19.5"
       height="4.5"
       x="21.75"
       y="1042.8623" />
    <rect
       y="1042.8623"
       x="42.25"
       height="4.5"
       width="4.5"
       id="rect3621"
       style="fill:url(#linearGradient4316);fill-opacity:1;fill-rule:nonzero;stroke:none" />
    <rect
       y="1004.8622"
       x="3.75"
       height="46"
       width="0.5"
       id="rect3645"
       style="fill:#c8c8c8;fill-opacity:1;fill-rule:nonzero;stroke:none" />
    <rect
       style="fill:url(#linearGradient4312);fill-opacity:1;fill-rule:nonzero;stroke:none"
       id="rect3633"
       width="1.25"
       height="42"
       x="3.75"
       y="1006.3622" />
    <rect
       style="fill:#c8c8c8;fill-opacity:1;fill-rule:nonzero;stroke:none"
       id="rect3649"
       width="0.5"
       height="3"
       x="1004.8622"
       y="-4.25"
       transform="matrix(0,1,-1,0,0,0)" />
    <rect
       style="fill:#c88100;fill-opacity:0.78431373;fill-rule:nonzero;stroke:none"
       id="rect3681"
       width="1.5"
       height="4.5"
       x="23.25"
       y="1042.8623" />
    <rect
       y="1042.8623"
       x="26.25"
       height="4.5"
       width="1.5"
       id="rect3683"
       style="fill:#c88100;fill-opacity:0.78431373;fill-rule:nonzero;stroke:none" />
    <rect
       style="fill:#c88100;fill-opacity:0.78431373;fill-rule:nonzero;stroke:none"
       id="rect3685"
       width="1.5"
       height="4.5"
       x="29.25"
       y="1042.8623" />
    <rect
       y="1042.8623"
       x="32.25"
       height="4.5"
       width="1.5"
       id="rect3687"
       style="fill:#c88100;fill-opacity:0.78431373;fill-rule:nonzero;stroke:none" />
    <rect
       style="fill:#c88100;fill-opacity:0.78431373;fill-rule:nonzero;stroke:none"
       id="rect3689"
       width="1.5"
       height="4.5"
       x="35.25"
       y="1042.8623" />
    <rect
       y="1042.8623"
       x="38.25"
       height="4.5"
       width="1.5"
       id="rect3691"
       style="fill:#c88100;fill-opacity:0.78431373;fill-rule:nonzero;stroke:none" />
    <rect
       style="fill:#c88100;fill-opacity:0.78431373;fill-rule:nonzero;stroke:none"
       id="rect3693"
       width="1.5"
       height="4.5"
       x="42.75"
       y="1042.8623" />
    <rect
       y="1042.8623"
       x="44.75"
       height="4.5"
       width="1.5"
       id="rect3695"
       style="fill:#c88100;fill-opacity:0.78431373;fill-rule:nonzero;stroke:none" />
    <rect
       style="fill:url(#radialGradient4300);fill-opacity:1;fill-rule:nonzero;stroke:none"
       id="rect3697"
       width="6.5"
       height="3.5"
       x="5"
       y="1007.3622" />
    <rect
       y="1011.8622"
       x="5"
       height="3.5"
       width="6.5"
       id="rect3699"
       style="fill:url(#radialGradient4297);fill-opacity:1;fill-rule:nonzero;stroke:none" />
    <rect
       style="fill:url(#radialGradient4294);fill-opacity:1;fill-rule:nonzero;stroke:none"
       id="rect3701"
       width="6.5"
       height="3.5"
       x="5"
       y="1016.3622" />
    <rect
       y="1020.8622"
       x="5"
       height="3.5"
       width="6.5"
       id="rect3703"
       style="fill:url(#radialGradient4291);fill-opacity:1;fill-rule:nonzero;stroke:none" />
    <rect
       style="fill:url(#radialGradient4288);fill-opacity:1;fill-rule:nonzero;stroke:none"
       id="rect3705"
       width="6.5"
       height="3.5"
       x="5"
       y="1025.3622" />
    <rect
       style="fill:url(#linearGradient4285);fill-opacity:1;fill-rule:nonzero;stroke:none"
       id="rect3715"
       width="1.3"
       height="2"
       x="2.45"
       y="1008.1122" />
    <rect
       y="1012.6122"
       x="2.45"
       height="2"
       width="1.3"
       id="rect3727"
       style="fill:url(#linearGradient4282);fill-opacity:1;fill-rule:nonzero;stroke:none" />
    <rect
       style="fill:url(#linearGradient4279);fill-opacity:1;fill-rule:nonzero;stroke:none"
       id="rect3731"
       width="1.3"
       height="2"
       x="2.45"
       y="1017.1122" />
    <rect
       y="1021.6122"
       x="2.45"
       height="2"
       width="1.3"
       id="rect3735"
       style="fill:url(#linearGradient4276);fill-opacity:1;fill-rule:nonzero;stroke:none" />
    <rect
       style="fill:url(#linearGradient4273);fill-opacity:1;fill-rule:nonzero;stroke:none"
       id="rect3739"
       width="1.3"
       height="2"
       x="2.45"
       y="1026.1122" />
    <path
       style="fill:#c8c8c8;fill-opacity:1;fill-rule:nonzero;stroke:none"
       d="m 1.95,1031.3622 1.8,0 0,12 -1.8,0 c -0.554,0 -0.99999995,-0.446 -0.99999995,-1 l 0,-10 c 0,-0.554 0.44599995,-1 0.99999995,-1 z"
       id="rect4100"
       sodipodi:nodetypes="ccccccc" />
    <rect
       y="1029.8622"
       x="2.45"
       height="1.3"
       width="1.3"
       id="rect4103"
       style="fill:url(#linearGradient4269);fill-opacity:1;fill-rule:nonzero;stroke:none" />
    <rect
       style="fill:url(#linearGradient4266);fill-opacity:1;fill-rule:nonzero;stroke:none"
       id="rect4107"
       width="1.3"
       height="1.3"
       x="2.45"
       y="1043.5623" />
    <path
       sodipodi:nodetypes="ccccccc"
       id="path4324"
       d="m 1.95,1031.3622 1.8,0 0,12 -1.8,0 c -0.554,0 -0.99999995,-0.446 -0.99999995,-1 l 0,-10 c 0,-0.554 0.44599995,-1 0.99999995,-1 z"
       style="fill:url(#linearGradient4332);fill-opacity:1;fill-rule:nonzero;stroke:none" />
    <path
       style="fill:url(#linearGradient4336);fill-opacity:1;fill-rule:nonzero;stroke:none"
       d="m 1.9500001,1031.3622 1.7999998,0 0,12 -1.7999998,0 c -0.554,0 -0.99999998,-0.446 -0.99999998,-1 l 0,-10 c 0,-0.554 0.44599998,-1 0.99999998,-1 z"
       id="path4334"
       sodipodi:nodetypes="ccccccc" />
    <path
       sodipodi:nodetypes="ccccccc"
       id="path4338"
       d="m 1.9500001,1043.3622 1.7999998,0 0,-12 -1.7999998,0 c -0.554,0 -0.99999998,0.446 -0.99999998,1 l 0,10 c 0,0.554 0.44599998,1 0.99999998,1 z"
       style="fill:url(#linearGradient4340);fill-opacity:1;fill-rule:nonzero;stroke:none" />
    <rect
       style="fill:#ffc878;fill-opacity:1;stroke:none"
       id="rect4342"
       width="1.8"
       height="15.5"
       x="5"
       y="1029.6122" />
    <rect
       y="1029.6122"
       x="6.8000002"
       height="15.5"
       width="4.1999998"
       id="rect4344"
       style="fill:url(#linearGradient4352);fill-opacity:1;stroke:none" />
    <rect
       y="1032.6622"
       x="6.8000002"
       height="9.3999996"
       width="4.1999998"
       id="rect4366"
       style="fill:#e3b216;fill-opacity:1;stroke:none" />
    <rect
       style="fill:url(#radialGradient4364);fill-opacity:1;stroke:none"
       id="rect4360"
       width="4.1999998"
       height="9"
       x="6.8000002"
       y="1032.8622" />
    <rect
       style="fill:#646464;fill-opacity:1;fill-rule:nonzero;stroke:none"
       id="rect4380"
       width="1.4"
       height="1.5"
       x="6.8000002"
       y="1043.4623" />
    <rect
       y="1043.5623"
       x="6.8000002"
       height="1.3"
       width="1.3"
       id="rect4376"
       style="fill:url(#linearGradient4378);fill-opacity:1;fill-rule:nonzero;stroke:none" />
    <g
       id="g4388"
       transform="translate(0,-13.700098)">
      <rect
         style="fill:#646464;fill-opacity:1;fill-rule:nonzero;stroke:none"
         id="rect4384"
         width="1.4"
         height="1.5"
         x="6.8000002"
         y="1043.4623" />
      <rect
         y="1043.5623"
         x="6.8000002"
         height="1.3"
         width="1.3"
         id="rect4386"
         style="fill:url(#linearGradient4392);fill-opacity:1;fill-rule:nonzero;stroke:none" />
    </g>
    <rect
       y="1029.8943"
       x="29.549999"
       height="7.4000001"
       width="9.3999996"
       id="rect4404"
       style="fill:url(#linearGradient4414);fill-opacity:1.0;fill-rule:nonzero;stroke:none" />
    <rect
       style="fill:url(#linearGradient4402);fill-opacity:1;fill-rule:nonzero;stroke:none"
       id="rect4394"
       width="9"
       height="7"
       x="29.75"
       y="1030.0942" />
    <g
       id="g4428"
       transform="translate(0,-0.00891113)">
      <rect
         style="fill:url(#linearGradient4432);fill-opacity:1;fill-rule:nonzero;stroke:none"
         id="rect4418"
         width="1"
         height="6.4000001"
         x="28.449999"
         y="1030.4032" />
      <rect
         y="1030.6031"
         x="28.65"
         height="6"
         width="0.60000002"
         id="rect4416"
         style="fill:#969696;fill-opacity:1;fill-rule:nonzero;stroke:none" />
    </g>
    <g
       transform="translate(10.600001,-0.00891113)"
       id="g4434">
      <rect
         y="1030.4032"
         x="28.449999"
         height="6.4000001"
         width="1"
         id="rect4436"
         style="fill:url(#linearGradient4440);fill-opacity:1;fill-rule:nonzero;stroke:none" />
      <rect
         style="fill:#969696;fill-opacity:1;fill-rule:nonzero;stroke:none"
         id="rect4438"
         width="0.60000002"
         height="6"
         x="28.65"
         y="1030.6031" />
    </g>
    <g
       id="g4454">
      <rect
         transform="matrix(0,-1,1,0,0,0)"
         style="fill:url(#linearGradient4452);fill-opacity:1;fill-rule:nonzero;stroke:none"
         id="rect4444"
         width="1"
         height="8"
         x="-1038.3942"
         y="30.249998" />
      <rect
         transform="matrix(0,-1,1,0,0,0)"
         y="30.499937"
         x="-1038.1942"
         height="7.5"
         width="0.60000002"
         id="rect4446"
         style="fill:#969696;fill-opacity:1;fill-rule:nonzero;stroke:none" />
    </g>
    <g
       id="g4458"
       transform="translate(0,-8.599965)">
      <rect
         y="30.249998"
         x="-1038.3942"
         height="8"
         width="1"
         id="rect4460"
         style="fill:url(#linearGradient4464);fill-opacity:1;fill-rule:nonzero;stroke:none"
         transform="matrix(0,-1,1,0,0,0)" />
      <rect
         style="fill:#969696;fill-opacity:1;fill-rule:nonzero;stroke:none"
         id="rect4462"
         width="0.60000002"
         height="7.5"
         x="-1038.1942"
         y="30.499937"
         transform="matrix(0,-1,1,0,0,0)" />
    </g>
    <rect
       y="1030.8408"
       x="15.335714"
       height="4.4000001"
       width="6.4000001"
       id="rect3722"
       style="fill:url(#linearGradient3730);fill-opacity:1;fill-rule:nonzero;stroke:none" />
    <rect
       style="fill:#969696;fill-opacity:1;fill-rule:nonzero;stroke:none"
       id="rect2941"
       width="6"
       height="4"
       x="15.535714"
       y="1031.0408" />
    <rect
       y="1031.0408"
       x="15.535714"
       height="2.5"
       width="6"
       id="rect3716"
       style="fill:#dcdcdc;fill-opacity:1;fill-rule:nonzero;stroke:none" />
    <rect
       y="1028.1405"
       x="15.335714"
       height="1.6"
       width="6.4000001"
       id="rect3720"
       style="fill:#dcdcdc;fill-opacity:1;fill-rule:nonzero;stroke:none" />
    <rect
       style="fill:#141414;fill-opacity:1;fill-rule:nonzero;stroke:none"
       id="rect3718"
       width="6"
       height="1.2"
       x="15.535714"
       y="1028.3405" />
    <g
       id="g3834"
       transform="translate(0.14283518,0)">
      <path
         transform="matrix(0.89599997,0,0,0.89599997,1.9203607,1003.6095)"
         d="m 15.803571,10.919642 c 0,0.61639 -0.499682,1.116072 -1.116071,1.116072 -0.616389,0 -1.116071,-0.499682 -1.116071,-1.116072 0,-0.616389 0.499682,-1.116071 1.116071,-1.116071 0.616389,0 1.116071,0.499682 1.116071,1.116071 z"
         sodipodi:ry="1.1160715"
         sodipodi:rx="1.1160715"
         sodipodi:cy="10.919642"
         sodipodi:cx="14.6875"
         id="path3732"
         style="fill:url(#radialGradient3838);fill-opacity:1;fill-rule:nonzero;stroke:none"
         sodipodi:type="arc" />
      <path
         id="path3734"
         d="m 15.080362,1011.3935 c -1.104569,0 -2,0.8954 -2,2 0,1.1045 0.895431,2 2,2 1.104569,0 2,-0.8955 2,-2 0,-1.1046 -0.895431,-2 -2,-2 z m 0,0.2187 c 0.994113,0 1.8125,0.7871 1.8125,1.7813 0,0.9941 -0.818387,1.8125 -1.8125,1.8125 -0.994113,0 -1.78125,-0.8184 -1.78125,-1.8125 0,-0.9942 0.787137,-1.7813 1.78125,-1.7813 z"
         style="fill:#dcdcdc;fill-opacity:1;fill-rule:nonzero;stroke:none" />
    </g>
    <g
       id="g3840"
       transform="translate(0.14283518,0)">
      <path
         sodipodi:type="arc"
         style="fill:url(#radialGradient3844);fill-opacity:1;fill-rule:nonzero;stroke:none"
         id="path3748"
         sodipodi:cx="14.6875"
         sodipodi:cy="10.919642"
         sodipodi:rx="1.1160715"
         sodipodi:ry="1.1160715"
         d="m 15.803571,10.919642 c 0,0.61639 -0.499682,1.116072 -1.116071,1.116072 -0.616389,0 -1.116071,-0.499682 -1.116071,-1.116072 0,-0.616389 0.499682,-1.116071 1.116071,-1.116071 0.616389,0 1.116071,0.499682 1.116071,1.116071 z"
         transform="matrix(0.89599997,0,0,0.89599997,1.9203607,1009.6095)" />
      <path
         style="fill:#dcdcdc;fill-opacity:1;fill-rule:nonzero;stroke:none"
         d="m 15.080362,1017.3935 c -1.104569,0 -2,0.8954 -2,2 0,1.1045 0.895431,2 2,2 1.104569,0 2,-0.8955 2,-2 0,-1.1046 -0.895431,-2 -2,-2 z m 0,0.2187 c 0.994113,0 1.8125,0.7871 1.8125,1.7813 0,0.9941 -0.818387,1.8125 -1.8125,1.8125 -0.994113,0 -1.78125,-0.8184 -1.78125,-1.8125 0,-0.9942 0.787137,-1.7813 1.78125,-1.7813 z"
         id="path3750" />
    </g>
    <rect
       style="fill:#dcdcdc;fill-opacity:1;fill-rule:nonzero;stroke:none"
       id="rect3754"
       width="5"
       height="1.6"
       x="12.49466"
       y="1025.1101" />
    <rect
       y="1025.3101"
       x="12.650907"
       height="1.2"
       width="4.6875"
       id="rect3756"
       style="fill:#141414;fill-opacity:1;fill-rule:nonzero;stroke:none" />
    <g
       id="g3778"
       transform="translate(-3.761421,-1.8303571)">
      <path
         sodipodi:type="arc"
         style="fill:url(#linearGradient3782);fill-opacity:1;fill-rule:nonzero;stroke:none"
         id="path3760"
         sodipodi:cx="20.234617"
         sodipodi:cy="35.836449"
         sodipodi:rx="0.9785853"
         sodipodi:ry="0.9785853"
         d="m 21.213203,35.836449 c 0,0.540457 -0.438128,0.978585 -0.978586,0.978585 -0.540458,0 -0.978585,-0.438128 -0.978585,-0.978585 0,-0.540458 0.438127,-0.978586 0.978585,-0.978586 0.540458,0 0.978586,0.438128 0.978586,0.978586 z"
         transform="matrix(0.97078916,0,0,0.97078916,0.36248481,1004.6376)" />
      <path
         transform="matrix(0.76641249,0,0,0.76641249,4.4979685,1011.9617)"
         d="m 21.213203,35.836449 c 0,0.540457 -0.438128,0.978585 -0.978586,0.978585 -0.540458,0 -0.978585,-0.438128 -0.978585,-0.978585 0,-0.540458 0.438127,-0.978586 0.978585,-0.978586 0.540458,0 0.978586,0.438128 0.978586,0.978586 z"
         sodipodi:ry="0.9785853"
         sodipodi:rx="0.9785853"
         sodipodi:cy="35.836449"
         sodipodi:cx="20.234617"
         id="path3758"
         style="fill:url(#radialGradient3784);fill-opacity:1;fill-rule:nonzero;stroke:none"
         sodipodi:type="arc" />
    </g>
    <g
       transform="translate(2.6193351,0.75892862)"
       id="g3786">
      <path
         transform="matrix(0.97078916,0,0,0.97078916,0.36248481,1004.6376)"
         d="m 21.213203,35.836449 c 0,0.540457 -0.438128,0.978585 -0.978586,0.978585 -0.540458,0 -0.978585,-0.438128 -0.978585,-0.978585 0,-0.540458 0.438127,-0.978586 0.978585,-0.978586 0.540458,0 0.978586,0.438128 0.978586,0.978586 z"
         sodipodi:ry="0.9785853"
         sodipodi:rx="0.9785853"
         sodipodi:cy="35.836449"
         sodipodi:cx="20.234617"
         id="path3788"
         style="fill:url(#linearGradient3792);fill-opacity:1;fill-rule:nonzero;stroke:none"
         sodipodi:type="arc" />
      <path
         sodipodi:type="arc"
         style="fill:url(#radialGradient3794);fill-opacity:1;fill-rule:nonzero;stroke:none"
         id="path3790"
         sodipodi:cx="20.234617"
         sodipodi:cy="35.836449"
         sodipodi:rx="0.9785853"
         sodipodi:ry="0.9785853"
         d="m 21.213203,35.836449 c 0,0.540457 -0.438128,0.978585 -0.978586,0.978585 -0.540458,0 -0.978585,-0.438128 -0.978585,-0.978585 0,-0.540458 0.438127,-0.978586 0.978585,-0.978586 0.540458,0 0.978586,0.438128 0.978586,0.978586 z"
         transform="matrix(0.76641249,0,0,0.76641249,4.4979685,1011.9617)" />
    </g>
    <g
       id="g3796"
       transform="translate(6.6193355,0.75892862)">
      <path
         sodipodi:type="arc"
         style="fill:url(#linearGradient3802);fill-opacity:1;fill-rule:nonzero;stroke:none"
         id="path3798"
         sodipodi:cx="20.234617"
         sodipodi:cy="35.836449"
         sodipodi:rx="0.9785853"
         sodipodi:ry="0.9785853"
         d="m 21.213203,35.836449 c 0,0.540457 -0.438128,0.978585 -0.978586,0.978585 -0.540458,0 -0.978585,-0.438128 -0.978585,-0.978585 0,-0.540458 0.438127,-0.978586 0.978585,-0.978586 0.540458,0 0.978586,0.438128 0.978586,0.978586 z"
         transform="matrix(0.97078916,0,0,0.97078916,0.36248481,1004.6376)" />
      <path
         transform="matrix(0.76641249,0,0,0.76641249,4.4979685,1011.9617)"
         d="m 21.213203,35.836449 c 0,0.540457 -0.438128,0.978585 -0.978586,0.978585 -0.540458,0 -0.978585,-0.438128 -0.978585,-0.978585 0,-0.540458 0.438127,-0.978586 0.978585,-0.978586 0.540458,0 0.978586,0.438128 0.978586,0.978586 z"
         sodipodi:ry="0.9785853"
         sodipodi:rx="0.9785853"
         sodipodi:cy="35.836449"
         sodipodi:cx="20.234617"
         id="path3800"
         style="fill:url(#radialGradient3804);fill-opacity:1;fill-rule:nonzero;stroke:none"
         sodipodi:type="arc" />
    </g>
    <g
       id="g3826">
      <g
         id="g3806"
         transform="translate(-2.7828347,-30.872068)">
        <path
           sodipodi:type="arc"
           style="fill:url(#linearGradient3812);fill-opacity:1;fill-rule:nonzero;stroke:none"
           id="path3808"
           sodipodi:cx="20.234617"
           sodipodi:cy="35.836449"
           sodipodi:rx="0.9785853"
           sodipodi:ry="0.9785853"
           d="m 21.213203,35.836449 c 0,0.540457 -0.438128,0.978585 -0.978586,0.978585 -0.540458,0 -0.978585,-0.438128 -0.978585,-0.978585 0,-0.540458 0.438127,-0.978586 0.978585,-0.978586 0.540458,0 0.978586,0.438128 0.978586,0.978586 z"
           transform="matrix(0.97078916,0,0,0.97078916,0.36248481,1004.6376)" />
        <path
           transform="matrix(0.76641249,0,0,0.76641249,4.4979685,1011.9617)"
           d="m 21.213203,35.836449 c 0,0.540457 -0.438128,0.978585 -0.978586,0.978585 -0.540458,0 -0.978585,-0.438128 -0.978585,-0.978585 0,-0.540458 0.438127,-0.978586 0.978585,-0.978586 0.540458,0 0.978586,0.438128 0.978586,0.978586 z"
           sodipodi:ry="0.9785853"
           sodipodi:rx="0.9785853"
           sodipodi:cy="35.836449"
           sodipodi:cx="20.234617"
           id="path3810"
           style="fill:url(#radialGradient3814);fill-opacity:1;fill-rule:nonzero;stroke:none"
           sodipodi:type="arc" />
      </g>
      <g
         transform="translate(-6.7828347,-30.872068)"
         id="g3816">
        <path
           transform="matrix(0.97078916,0,0,0.97078916,0.36248481,1004.6376)"
           d="m 21.213203,35.836449 c 0,0.540457 -0.438128,0.978585 -0.978586,0.978585 -0.540458,0 -0.978585,-0.438128 -0.978585,-0.978585 0,-0.540458 0.438127,-0.978586 0.978585,-0.978586 0.540458,0 0.978586,0.438128 0.978586,0.978586 z"
           sodipodi:ry="0.9785853"
           sodipodi:rx="0.9785853"
           sodipodi:cy="35.836449"
           sodipodi:cx="20.234617"
           id="path3818"
           style="fill:url(#linearGradient3822);fill-opacity:1;fill-rule:nonzero;stroke:none"
           sodipodi:type="arc" />
        <path
           sodipodi:type="arc"
           style="fill:url(#radialGradient3824);fill-opacity:1;fill-rule:nonzero;stroke:none"
           id="path3820"
           sodipodi:cx="20.234617"
           sodipodi:cy="35.836449"
           sodipodi:rx="0.9785853"
           sodipodi:ry="0.9785853"
           d="m 21.213203,35.836449 c 0,0.540457 -0.438128,0.978585 -0.978586,0.978585 -0.540458,0 -0.978585,-0.438128 -0.978585,-0.978585 0,-0.540458 0.438127,-0.978586 0.978585,-0.978586 0.540458,0 0.978586,0.438128 0.978586,0.978586 z"
           transform="matrix(0.76641249,0,0,0.76641249,4.4979685,1011.9617)" />
      </g>
    </g>
    <g
       transform="translate(22.619336,-10.348211)"
       id="g3846">
      <path
         transform="matrix(0.97078916,0,0,0.97078916,0.36248481,1004.6376)"
         d="m 21.213203,35.836449 c 0,0.540457 -0.438128,0.978585 -0.978586,0.978585 -0.540458,0 -0.978585,-0.438128 -0.978585,-0.978585 0,-0.540458 0.438127,-0.978586 0.978585,-0.978586 0.540458,0 0.978586,0.438128 0.978586,0.978586 z"
         sodipodi:ry="0.9785853"
         sodipodi:rx="0.9785853"
         sodipodi:cy="35.836449"
         sodipodi:cx="20.234617"
         id="path3848"
         style="fill:url(#linearGradient3852);fill-opacity:1;fill-rule:nonzero;stroke:none"
         sodipodi:type="arc" />
      <path
         sodipodi:type="arc"
         style="fill:url(#radialGradient3854);fill-opacity:1;fill-rule:nonzero;stroke:none"
         id="path3850"
         sodipodi:cx="20.234617"
         sodipodi:cy="35.836449"
         sodipodi:rx="0.9785853"
         sodipodi:ry="0.9785853"
         d="m 21.213203,35.836449 c 0,0.540457 -0.438128,0.978585 -0.978586,0.978585 -0.540458,0 -0.978585,-0.438128 -0.978585,-0.978585 0,-0.540458 0.438127,-0.978586 0.978585,-0.978586 0.540458,0 0.978586,0.438128 0.978586,0.978586 z"
         transform="matrix(0.76641249,0,0,0.76641249,4.4979685,1011.9617)" />
    </g>
  </g>
</svg>
