<?xml version="1.0" encoding="UTF-8"?>
<svg width="13px" height="13px" viewBox="0 0 13 13" version="1.1" xmlns="http://www.w3.org/2000/svg" xmlns:xlink="http://www.w3.org/1999/xlink">
    <!-- Generator: Sketch 52.5 (67469) - http://www.bohemiancoding.com/sketch -->
    <title>dropbox-2</title>
    <desc>Created with Sketch.</desc>
    <g id="Page-1" stroke="none" stroke-width="1" fill="none" fill-rule="evenodd" opacity="0.8">
        <g id="Desktop-HD-Copy-2" transform="translate(-22.000000, -905.000000)" fill="#34495E" fill-rule="nonzero">
            <g id="Blue-Copy-3" transform="translate(13.000000, 797.000000)">
                <g id="Devices" transform="translate(1.000000, 44.500000)">
                    <g id="Devicelist" transform="translate(4.000000, 6.000000)">
                        <g id="Group-3" transform="translate(4.000000, 16.000000)">
                            <g id="DL_Dropbox" transform="translate(0.000000, 42.000000)">
                                <g id="dropbox-2">
                                    <polygon id="Shape" points="6.56421648 7.48856181 4.25545498 9.28919673 2.91253662 8.49027417 2.91253662 9.36203944 6.56421648 11.815873 10.2273791 9.38008658 10.2273791 8.50601251 8.92523795 9.29150553"></polygon>
                                    <polygon id="Shape" points="12.5344353 2.44625301 9.01016514 0.184126984 6.56421648 2.22599327 10.2227936 4.3837999"></polygon>
                                    <polygon id="Shape" points="4.22157506 8.5357191 6.56421648 6.71007215 3.09448016 4.46772487 0.59687787 6.37791246"></polygon>
                                    <polygon id="Shape" points="4.22157506 0.184126984 0.59687787 2.55815296 3.09448016 4.46772487 6.56421648 2.22599327"></polygon>
                                    <polygon id="Shape" points="8.9561998 8.5357191 12.5344353 6.37791246 10.2227936 4.3837999 6.56421648 6.71007215"></polygon>
                                </g>
                            </g>
                        </g>
                    </g>
                </g>
            </g>
        </g>
    </g>
</svg>