<?xml version="1.0" encoding="UTF-8" standalone="no"?>
<!-- Created with Inkscape (http://www.inkscape.org/) -->

<svg
   xmlns:dc="http://purl.org/dc/elements/1.1/"
   xmlns:cc="http://creativecommons.org/ns#"
   xmlns:rdf="http://www.w3.org/1999/02/22-rdf-syntax-ns#"
   xmlns:svg="http://www.w3.org/2000/svg"
   xmlns="http://www.w3.org/2000/svg"
   xmlns:xlink="http://www.w3.org/1999/xlink"
   xmlns:sodipodi="http://sodipodi.sourceforge.net/DTD/sodipodi-0.dtd"
   xmlns:inkscape="http://www.inkscape.org/namespaces/inkscape"
   width="16"
   height="16"
   id="svg2"
   version="1.1"
   inkscape:version="0.47pre4 r22446"
   sodipodi:docname="folder-videos.svg">
  <defs
     id="defs4">
    <linearGradient
       id="linearGradient3723">
      <stop
         style="stop-color:#ffffff;stop-opacity:0.78431374;"
         offset="0"
         id="stop3725" />
      <stop
         style="stop-color:#ffffff;stop-opacity:0;"
         offset="1"
         id="stop3727" />
    </linearGradient>
    <linearGradient
       id="linearGradient3715">
      <stop
         style="stop-color:#99bbd4;stop-opacity:1;"
         offset="0"
         id="stop3717" />
      <stop
         style="stop-color:#5d93ba;stop-opacity:1;"
         offset="1"
         id="stop3719" />
    </linearGradient>
    <linearGradient
       id="linearGradient3707">
      <stop
         style="stop-color:#a6c4d9;stop-opacity:0.78431374;"
         offset="0"
         id="stop3709" />
      <stop
         style="stop-color:#75a3c3;stop-opacity:1;"
         offset="1"
         id="stop3711" />
    </linearGradient>
    <inkscape:perspective
       sodipodi:type="inkscape:persp3d"
       inkscape:vp_x="0 : 526.18109 : 1"
       inkscape:vp_y="0 : 1000 : 0"
       inkscape:vp_z="744.09448 : 526.18109 : 1"
       inkscape:persp3d-origin="372.04724 : 350.78739 : 1"
       id="perspective10" />
    <inkscape:perspective
       id="perspective2920"
       inkscape:persp3d-origin="0.5 : 0.33333333 : 1"
       inkscape:vp_z="1 : 0.5 : 1"
       inkscape:vp_y="0 : 1000 : 0"
       inkscape:vp_x="0 : 0.5 : 1"
       sodipodi:type="inkscape:persp3d" />
    <linearGradient
       inkscape:collect="always"
       xlink:href="#linearGradient3707"
       id="linearGradient3713"
       x1="63.765881"
       y1="949.3266"
       x2="63.765881"
       y2="1029.8864"
       gradientUnits="userSpaceOnUse"
       gradientTransform="translate(0.2341189,5.74082)" />
    <linearGradient
       inkscape:collect="always"
       xlink:href="#linearGradient3715"
       id="linearGradient3721"
       x1="63.765881"
       y1="936.95227"
       x2="63.765881"
       y2="983.41931"
       gradientUnits="userSpaceOnUse"
       gradientTransform="translate(0.2341196,6.0908086)" />
    <linearGradient
       inkscape:collect="always"
       xlink:href="#linearGradient3723"
       id="linearGradient3729"
       x1="37.375645"
       y1="948.8266"
       x2="37.375645"
       y2="1030.7611"
       gradientUnits="userSpaceOnUse"
       gradientTransform="translate(0.2341189,5.74082)" />
    <linearGradient
       inkscape:collect="always"
       xlink:href="#linearGradient3715"
       id="linearGradient3735"
       gradientUnits="userSpaceOnUse"
       gradientTransform="translate(0.2341196,6.0908086)"
       x1="63.765881"
       y1="936.95227"
       x2="63.765881"
       y2="983.41931" />
    <linearGradient
       inkscape:collect="always"
       xlink:href="#linearGradient3707"
       id="linearGradient3737"
       gradientUnits="userSpaceOnUse"
       gradientTransform="translate(0.2341189,5.74082)"
       x1="63.765881"
       y1="949.3266"
       x2="63.765881"
       y2="1029.8864" />
    <linearGradient
       inkscape:collect="always"
       xlink:href="#linearGradient3723"
       id="linearGradient3739"
       gradientUnits="userSpaceOnUse"
       gradientTransform="translate(0.2341189,5.74082)"
       x1="37.375645"
       y1="948.8266"
       x2="37.375645"
       y2="1030.7611" />
    <linearGradient
       inkscape:collect="always"
       xlink:href="#linearGradient3707"
       id="linearGradient3742"
       gradientUnits="userSpaceOnUse"
       gradientTransform="matrix(1.0066488,0,0,1.0066488,0.21965498,-1.1089658)"
       x1="63.765881"
       y1="949.3266"
       x2="63.765881"
       y2="1029.8864" />
    <linearGradient
       inkscape:collect="always"
       xlink:href="#linearGradient3723"
       id="linearGradient3744"
       gradientUnits="userSpaceOnUse"
       gradientTransform="matrix(1.0066488,0,0,1.0066488,0.21965498,-1.1089658)"
       x1="37.375645"
       y1="948.8266"
       x2="37.375645"
       y2="1030.7611" />
    <linearGradient
       inkscape:collect="always"
       xlink:href="#linearGradient3715"
       id="linearGradient3747"
       gradientUnits="userSpaceOnUse"
       gradientTransform="matrix(1.0066488,0,0,1.0066488,0.21965567,-0.75665045)"
       x1="63.765881"
       y1="936.95227"
       x2="63.765881"
       y2="983.41931" />
    <linearGradient
       inkscape:collect="always"
       xlink:href="#linearGradient3715"
       id="linearGradient3753"
       gradientUnits="userSpaceOnUse"
       gradientTransform="matrix(1.0066488,0,0,1.0066488,0.21965567,-0.75665045)"
       x1="63.765881"
       y1="936.95227"
       x2="63.765881"
       y2="983.41931" />
    <linearGradient
       inkscape:collect="always"
       xlink:href="#linearGradient3707"
       id="linearGradient3755"
       gradientUnits="userSpaceOnUse"
       gradientTransform="matrix(1.0066488,0,0,1.0066488,0.21965498,-1.1089658)"
       x1="63.765881"
       y1="949.3266"
       x2="63.765881"
       y2="1029.8864" />
    <linearGradient
       inkscape:collect="always"
       xlink:href="#linearGradient3723"
       id="linearGradient3757"
       gradientUnits="userSpaceOnUse"
       gradientTransform="matrix(1.0066488,0,0,1.0066488,0.21965498,-1.1089658)"
       x1="37.375645"
       y1="948.8266"
       x2="37.375645"
       y2="1030.7611" />
    <linearGradient
       inkscape:collect="always"
       xlink:href="#linearGradient3707"
       id="linearGradient2838"
       gradientUnits="userSpaceOnUse"
       gradientTransform="matrix(0.37749331,0,0,0.37749331,-0.07119206,657.42489)"
       x1="63.765881"
       y1="949.3266"
       x2="63.765881"
       y2="1029.8864" />
    <linearGradient
       inkscape:collect="always"
       xlink:href="#linearGradient3723"
       id="linearGradient2840"
       gradientUnits="userSpaceOnUse"
       gradientTransform="matrix(0.37749331,0,0,0.37749331,-0.07119206,657.42489)"
       x1="37.375645"
       y1="948.8266"
       x2="37.375645"
       y2="1030.7611" />
    <linearGradient
       inkscape:collect="always"
       xlink:href="#linearGradient3715"
       id="linearGradient2843"
       gradientUnits="userSpaceOnUse"
       gradientTransform="matrix(0.37749331,0,0,0.37749331,-0.0711918,657.55701)"
       x1="63.765881"
       y1="941.44623"
       x2="63.765881"
       y2="965.56183" />
    <linearGradient
       y2="1021.3056"
       x2="7.1468058"
       y1="1021.3056"
       x1="4.2133107"
       gradientUnits="userSpaceOnUse"
       id="linearGradient3916"
       xlink:href="#linearGradient4346"
       inkscape:collect="always" />
    <linearGradient
       y2="16.950893"
       x2="5.7142859"
       y1="16.950893"
       x1="4.7767859"
       gradientUnits="userSpaceOnUse"
       id="linearGradient3914"
       xlink:href="#linearGradient4663"
       inkscape:collect="always" />
    <linearGradient
       y2="1021.3056"
       x2="7.1468058"
       y1="1021.3056"
       x1="4.2133107"
       gradientUnits="userSpaceOnUse"
       id="linearGradient3912"
       xlink:href="#linearGradient4346"
       inkscape:collect="always" />
    <linearGradient
       y2="16.950893"
       x2="5.7142859"
       y1="16.950893"
       x1="4.7767859"
       gradientUnits="userSpaceOnUse"
       id="linearGradient3910"
       xlink:href="#linearGradient4663"
       inkscape:collect="always" />
    <linearGradient
       y2="1021.3056"
       x2="7.1468058"
       y1="1021.3056"
       x1="4.2133107"
       gradientUnits="userSpaceOnUse"
       id="linearGradient3908"
       xlink:href="#linearGradient4346"
       inkscape:collect="always" />
    <linearGradient
       y2="16.950893"
       x2="5.7142859"
       y1="16.950893"
       x1="4.7767859"
       gradientUnits="userSpaceOnUse"
       id="linearGradient3906"
       xlink:href="#linearGradient4663"
       inkscape:collect="always" />
    <linearGradient
       y2="1022.1122"
       x2="6.8412118"
       y1="1014.1122"
       x1="6.8412118"
       gradientTransform="matrix(1,0,0,1.2209709,0,-224.08925)"
       gradientUnits="userSpaceOnUse"
       id="linearGradient3904"
       xlink:href="#linearGradient4346"
       inkscape:collect="always" />
    <linearGradient
       y2="1032.8856"
       x2="29.586201"
       y1="1010.6623"
       x1="24.107143"
       gradientTransform="translate(-189.33232,-2017.1366)"
       gradientUnits="userSpaceOnUse"
       id="linearGradient3902"
       xlink:href="#linearGradient4366"
       inkscape:collect="always" />
    <linearGradient
       y2="1016.1083"
       x2="21.960569"
       y1="1020.1122"
       x1="21.960569"
       gradientTransform="matrix(0.98256626,-0.18591271,-0.18591271,-0.98256626,189.06188,2018.1982)"
       gradientUnits="userSpaceOnUse"
       id="linearGradient3900"
       xlink:href="#linearGradient4358"
       inkscape:collect="always" />
    <linearGradient
       y2="1012.0848"
       x2="7.5761442"
       y1="1010.0824"
       x1="7.5761442"
       gradientTransform="translate(10.925673,12.029785)"
       gradientUnits="userSpaceOnUse"
       id="linearGradient3898"
       xlink:href="#linearGradient4358"
       inkscape:collect="always" />
    <linearGradient
       y2="1032.8856"
       x2="29.586201"
       y1="1010.6623"
       x1="24.107143"
       gradientTransform="translate(0,2)"
       gradientUnits="userSpaceOnUse"
       id="linearGradient3896"
       xlink:href="#linearGradient4366"
       inkscape:collect="always" />
    <radialGradient
       r="19.910715"
       fy="1011.6878"
       fx="9.5535698"
       cy="1011.6878"
       cx="9.5535698"
       gradientTransform="matrix(1.6412741e-7,2.2781844,-2.3775704,1.9026356e-7,2414.937,992.11196)"
       gradientUnits="userSpaceOnUse"
       id="radialGradient3894"
       xlink:href="#linearGradient4346"
       inkscape:collect="always" />
    <filter
       height="1.204506"
       y="-0.10225299"
       width="1.1809354"
       x="-0.090467706"
       id="filter3676"
       inkscape:collect="always"
       color-interpolation-filters="sRGB">
      <feGaussianBlur
         id="feGaussianBlur3678"
         stdDeviation="0.20713048"
         inkscape:collect="always" />
    </filter>
    <linearGradient
       y2="1021.3056"
       x2="7.1468058"
       y1="1021.3056"
       x1="4.2133107"
       gradientUnits="userSpaceOnUse"
       id="linearGradient3666"
       xlink:href="#linearGradient4346"
       inkscape:collect="always" />
    <linearGradient
       y2="16.950893"
       x2="5.7142859"
       y1="16.950893"
       x1="4.7767859"
       gradientUnits="userSpaceOnUse"
       id="linearGradient3664"
       xlink:href="#linearGradient4663"
       inkscape:collect="always" />
    <linearGradient
       y2="1021.3056"
       x2="7.1468058"
       y1="1021.3056"
       x1="4.2133107"
       gradientUnits="userSpaceOnUse"
       id="linearGradient3656"
       xlink:href="#linearGradient4346"
       inkscape:collect="always" />
    <linearGradient
       y2="16.950893"
       x2="5.7142859"
       y1="16.950893"
       x1="4.7767859"
       gradientUnits="userSpaceOnUse"
       id="linearGradient3654"
       xlink:href="#linearGradient4663"
       inkscape:collect="always" />
    <linearGradient
       y2="1021.3056"
       x2="7.1468058"
       y1="1021.3056"
       x1="4.2133107"
       gradientUnits="userSpaceOnUse"
       id="linearGradient3646"
       xlink:href="#linearGradient4346"
       inkscape:collect="always" />
    <linearGradient
       y2="16.950893"
       x2="5.7142859"
       y1="16.950893"
       x1="4.7767859"
       gradientUnits="userSpaceOnUse"
       id="linearGradient3644"
       xlink:href="#linearGradient4663"
       inkscape:collect="always" />
    <linearGradient
       gradientTransform="matrix(1,0,0,1.2209709,0,-224.08925)"
       gradientUnits="userSpaceOnUse"
       y2="1022.1122"
       x2="6.8412118"
       y1="1014.1122"
       x1="6.8412118"
       id="linearGradient4655"
       xlink:href="#linearGradient4346"
       inkscape:collect="always" />
    <linearGradient
       y2="1032.8856"
       x2="29.586201"
       y1="1010.6623"
       x1="24.107143"
       gradientTransform="translate(-189.33232,-2017.1366)"
       gradientUnits="userSpaceOnUse"
       id="linearGradient4619"
       xlink:href="#linearGradient4366"
       inkscape:collect="always" />
    <filter
       height="1.6525"
       y="-0.32625002"
       width="1.0660759"
       x="-0.033037975"
       id="filter4568"
       inkscape:collect="always"
       color-interpolation-filters="sRGB">
      <feGaussianBlur
         id="feGaussianBlur4570"
         stdDeviation="0.5825893"
         inkscape:collect="always" />
    </filter>
    <linearGradient
       y2="1016.1083"
       x2="21.960569"
       y1="1020.1122"
       x1="21.960569"
       gradientTransform="matrix(0.98256626,-0.18591271,-0.18591271,-0.98256626,189.06188,2018.1982)"
       gradientUnits="userSpaceOnUse"
       id="linearGradient4564"
       xlink:href="#linearGradient4358"
       inkscape:collect="always" />
    <linearGradient
       gradientTransform="translate(0,2)"
       gradientUnits="userSpaceOnUse"
       y2="1032.8856"
       x2="29.586201"
       y1="1010.6623"
       x1="24.107143"
       id="linearGradient4372"
       xlink:href="#linearGradient4366"
       inkscape:collect="always" />
    <linearGradient
       gradientTransform="translate(10.925673,12.029785)"
       gradientUnits="userSpaceOnUse"
       y2="1012.0848"
       x2="7.5761442"
       y1="1010.0824"
       x1="7.5761442"
       id="linearGradient4364"
       xlink:href="#linearGradient4358"
       inkscape:collect="always" />
    <radialGradient
       gradientUnits="userSpaceOnUse"
       gradientTransform="matrix(1.6412741e-7,2.2781844,-2.3775704,1.9026356e-7,2414.937,992.11196)"
       r="19.910715"
       fy="1011.6878"
       fx="9.5535698"
       cy="1011.6878"
       cx="9.5535698"
       id="radialGradient4352"
       xlink:href="#linearGradient4346"
       inkscape:collect="always" />
    <inkscape:perspective
       id="perspective3060"
       inkscape:persp3d-origin="372.04724 : 350.78739 : 1"
       inkscape:vp_z="744.09448 : 526.18109 : 1"
       inkscape:vp_y="0 : 1000 : 0"
       inkscape:vp_x="0 : 526.18109 : 1"
       sodipodi:type="inkscape:persp3d" />
    <linearGradient
       id="linearGradient4346">
      <stop
         id="stop4348"
         offset="0"
         style="stop-color:#4b4a57;stop-opacity:1;" />
      <stop
         id="stop4350"
         offset="1"
         style="stop-color:#000000;stop-opacity:1;" />
    </linearGradient>
    <linearGradient
       id="linearGradient4358">
      <stop
         id="stop4360"
         offset="0"
         style="stop-color:#000000;stop-opacity:1;" />
      <stop
         id="stop4362"
         offset="1"
         style="stop-color:#000000;stop-opacity:0;" />
    </linearGradient>
    <linearGradient
       id="linearGradient4366">
      <stop
         id="stop4368"
         offset="0"
         style="stop-color:#ffffff;stop-opacity:1;" />
      <stop
         id="stop4370"
         offset="1"
         style="stop-color:#a4c0c6;stop-opacity:1;" />
    </linearGradient>
    <linearGradient
       id="linearGradient4663">
      <stop
         id="stop4665"
         offset="0"
         style="stop-color:#787878;stop-opacity:1;" />
      <stop
         id="stop4667"
         offset="1"
         style="stop-color:#b4b4b4;stop-opacity:1;" />
    </linearGradient>
    <radialGradient
       inkscape:collect="always"
       xlink:href="#linearGradient4346"
       id="radialGradient4085"
       gradientUnits="userSpaceOnUse"
       gradientTransform="matrix(1.6412741e-7,2.2781844,-2.3775704,1.9026356e-7,2414.937,992.11196)"
       cx="9.5535698"
       cy="1011.6878"
       fx="9.5535698"
       fy="1011.6878"
       r="19.910715" />
    <linearGradient
       inkscape:collect="always"
       xlink:href="#linearGradient4366"
       id="linearGradient4087"
       gradientUnits="userSpaceOnUse"
       gradientTransform="translate(0,2)"
       x1="24.107143"
       y1="1010.6623"
       x2="29.586201"
       y2="1032.8856" />
    <linearGradient
       inkscape:collect="always"
       xlink:href="#linearGradient4358"
       id="linearGradient4089"
       gradientUnits="userSpaceOnUse"
       gradientTransform="translate(10.925673,12.029785)"
       x1="7.5761442"
       y1="1010.0824"
       x2="7.5761442"
       y2="1012.0848" />
    <linearGradient
       inkscape:collect="always"
       xlink:href="#linearGradient4358"
       id="linearGradient4091"
       gradientUnits="userSpaceOnUse"
       gradientTransform="matrix(0.98256626,-0.18591271,-0.18591271,-0.98256626,189.06188,2018.1982)"
       x1="21.960569"
       y1="1020.1122"
       x2="21.960569"
       y2="1016.1083" />
    <linearGradient
       inkscape:collect="always"
       xlink:href="#linearGradient4366"
       id="linearGradient4093"
       gradientUnits="userSpaceOnUse"
       gradientTransform="translate(-189.33232,-2017.1366)"
       x1="24.107143"
       y1="1010.6623"
       x2="29.586201"
       y2="1032.8856" />
    <linearGradient
       inkscape:collect="always"
       xlink:href="#linearGradient4346"
       id="linearGradient4095"
       gradientUnits="userSpaceOnUse"
       gradientTransform="matrix(1,0,0,1.2209709,0,-224.08925)"
       x1="6.8412118"
       y1="1014.1122"
       x2="6.8412118"
       y2="1022.1122" />
    <linearGradient
       inkscape:collect="always"
       xlink:href="#linearGradient4663"
       id="linearGradient4097"
       gradientUnits="userSpaceOnUse"
       x1="4.7767859"
       y1="16.950893"
       x2="5.7142859"
       y2="16.950893" />
    <linearGradient
       inkscape:collect="always"
       xlink:href="#linearGradient4346"
       id="linearGradient4099"
       gradientUnits="userSpaceOnUse"
       x1="4.2133107"
       y1="1021.3056"
       x2="7.1468058"
       y2="1021.3056" />
    <linearGradient
       inkscape:collect="always"
       xlink:href="#linearGradient4663"
       id="linearGradient4101"
       gradientUnits="userSpaceOnUse"
       x1="4.7767859"
       y1="16.950893"
       x2="5.7142859"
       y2="16.950893" />
    <linearGradient
       inkscape:collect="always"
       xlink:href="#linearGradient4346"
       id="linearGradient4103"
       gradientUnits="userSpaceOnUse"
       x1="4.2133107"
       y1="1021.3056"
       x2="7.1468058"
       y2="1021.3056" />
    <linearGradient
       inkscape:collect="always"
       xlink:href="#linearGradient4663"
       id="linearGradient4105"
       gradientUnits="userSpaceOnUse"
       x1="4.7767859"
       y1="16.950893"
       x2="5.7142859"
       y2="16.950893" />
    <linearGradient
       inkscape:collect="always"
       xlink:href="#linearGradient4346"
       id="linearGradient4107"
       gradientUnits="userSpaceOnUse"
       x1="4.2133107"
       y1="1021.3056"
       x2="7.1468058"
       y2="1021.3056" />
    <linearGradient
       inkscape:collect="always"
       xlink:href="#linearGradient4346"
       id="linearGradient4164"
       gradientUnits="userSpaceOnUse"
       gradientTransform="matrix(0.68095397,0,0,0.83142498,7.5233461,180.98222)"
       x1="6.8412118"
       y1="1014.1122"
       x2="6.8412118"
       y2="1022.1122" />
    <linearGradient
       inkscape:collect="always"
       xlink:href="#linearGradient4366"
       id="linearGradient4180"
       gradientUnits="userSpaceOnUse"
       gradientTransform="matrix(0.6690824,-0.126598,-0.126598,-0.6690824,136.20988,1707.1764)"
       x1="24.107143"
       y1="1010.6623"
       x2="29.586201"
       y2="1032.8856" />
    <linearGradient
       inkscape:collect="always"
       xlink:href="#linearGradient4358"
       id="linearGradient4183"
       gradientUnits="userSpaceOnUse"
       gradientTransform="matrix(0.6690824,-0.126598,-0.126598,-0.6690824,136.26578,1707.8768)"
       x1="21.960569"
       y1="1020.1122"
       x2="21.960569"
       y2="1016.1083" />
    <linearGradient
       inkscape:collect="always"
       xlink:href="#linearGradient4358"
       id="linearGradient4192"
       gradientUnits="userSpaceOnUse"
       gradientTransform="matrix(0.68095397,0,0,0.68095397,14.963227,341.76841)"
       x1="7.5761442"
       y1="1010.0824"
       x2="7.5761442"
       y2="1012.0848" />
    <linearGradient
       inkscape:collect="always"
       xlink:href="#linearGradient4366"
       id="linearGradient4195"
       gradientUnits="userSpaceOnUse"
       gradientTransform="matrix(0.68095397,0,0,0.68095397,7.5233461,334.93859)"
       x1="24.107143"
       y1="1010.6623"
       x2="29.586201"
       y2="1032.8856" />
    <radialGradient
       inkscape:collect="always"
       xlink:href="#linearGradient4346"
       id="radialGradient4198"
       gradientUnits="userSpaceOnUse"
       gradientTransform="matrix(1.1176321e-7,1.5513387,-1.619016,1.2956073e-7,1651.9843,1009.1593)"
       cx="9.5535698"
       cy="1011.6878"
       fx="9.5535698"
       fy="1011.6878"
       r="19.910715" />
    <radialGradient
       inkscape:collect="always"
       xlink:href="#linearGradient4346"
       id="radialGradient3062"
       gradientUnits="userSpaceOnUse"
       gradientTransform="matrix(1.1176321e-7,1.5513387,-1.619016,1.2956073e-7,1651.9843,1009.1593)"
       cx="9.5535698"
       cy="1011.6878"
       fx="9.5535698"
       fy="1011.6878"
       r="19.910715" />
    <linearGradient
       inkscape:collect="always"
       xlink:href="#linearGradient4366"
       id="linearGradient3064"
       gradientUnits="userSpaceOnUse"
       gradientTransform="matrix(0.68095397,0,0,0.68095397,7.5233461,334.93859)"
       x1="24.107143"
       y1="1010.6623"
       x2="29.586201"
       y2="1032.8856" />
    <linearGradient
       inkscape:collect="always"
       xlink:href="#linearGradient4358"
       id="linearGradient3066"
       gradientUnits="userSpaceOnUse"
       gradientTransform="matrix(0.68095397,0,0,0.68095397,14.963227,341.76841)"
       x1="7.5761442"
       y1="1010.0824"
       x2="7.5761442"
       y2="1012.0848" />
    <linearGradient
       inkscape:collect="always"
       xlink:href="#linearGradient4358"
       id="linearGradient3068"
       gradientUnits="userSpaceOnUse"
       gradientTransform="matrix(0.6690824,-0.126598,-0.126598,-0.6690824,136.26578,1707.8768)"
       x1="21.960569"
       y1="1020.1122"
       x2="21.960569"
       y2="1016.1083" />
    <linearGradient
       inkscape:collect="always"
       xlink:href="#linearGradient4366"
       id="linearGradient3070"
       gradientUnits="userSpaceOnUse"
       gradientTransform="matrix(0.6690824,-0.126598,-0.126598,-0.6690824,136.20988,1707.1764)"
       x1="24.107143"
       y1="1010.6623"
       x2="29.586201"
       y2="1032.8856" />
    <linearGradient
       inkscape:collect="always"
       xlink:href="#linearGradient4346"
       id="linearGradient3072"
       gradientUnits="userSpaceOnUse"
       gradientTransform="matrix(0.68095397,0,0,0.83142498,7.5233461,180.98222)"
       x1="6.8412118"
       y1="1014.1122"
       x2="6.8412118"
       y2="1022.1122" />
    <linearGradient
       inkscape:collect="always"
       xlink:href="#linearGradient4663"
       id="linearGradient3074"
       gradientUnits="userSpaceOnUse"
       x1="4.7767859"
       y1="16.950893"
       x2="5.7142859"
       y2="16.950893" />
    <linearGradient
       inkscape:collect="always"
       xlink:href="#linearGradient4346"
       id="linearGradient3076"
       gradientUnits="userSpaceOnUse"
       x1="4.2133107"
       y1="1021.3056"
       x2="7.1468058"
       y2="1021.3056" />
    <linearGradient
       inkscape:collect="always"
       xlink:href="#linearGradient4663"
       id="linearGradient3078"
       gradientUnits="userSpaceOnUse"
       x1="4.7767859"
       y1="16.950893"
       x2="5.7142859"
       y2="16.950893" />
    <linearGradient
       inkscape:collect="always"
       xlink:href="#linearGradient4346"
       id="linearGradient3080"
       gradientUnits="userSpaceOnUse"
       x1="4.2133107"
       y1="1021.3056"
       x2="7.1468058"
       y2="1021.3056" />
    <linearGradient
       inkscape:collect="always"
       xlink:href="#linearGradient4663"
       id="linearGradient3082"
       gradientUnits="userSpaceOnUse"
       x1="4.7767859"
       y1="16.950893"
       x2="5.7142859"
       y2="16.950893" />
    <linearGradient
       inkscape:collect="always"
       xlink:href="#linearGradient4346"
       id="linearGradient3084"
       gradientUnits="userSpaceOnUse"
       x1="4.2133107"
       y1="1021.3056"
       x2="7.1468058"
       y2="1021.3056" />
    <linearGradient
       inkscape:collect="always"
       xlink:href="#linearGradient4346"
       id="linearGradient3046"
       gradientUnits="userSpaceOnUse"
       gradientTransform="matrix(0.33246259,0,0,0.40592714,-0.04440709,627.74353)"
       x1="6.8412118"
       y1="1014.1122"
       x2="6.8412118"
       y2="1022.1122" />
    <linearGradient
       inkscape:collect="always"
       xlink:href="#linearGradient4366"
       id="linearGradient3062"
       gradientUnits="userSpaceOnUse"
       gradientTransform="matrix(0.32666652,-0.06180902,-0.06180902,-0.32666652,62.7843,1372.8783)"
       x1="24.107143"
       y1="1010.6623"
       x2="29.586201"
       y2="1032.8856" />
    <linearGradient
       inkscape:collect="always"
       xlink:href="#linearGradient4358"
       id="linearGradient3065"
       gradientUnits="userSpaceOnUse"
       gradientTransform="matrix(0.32666652,-0.06180902,-0.06180902,-0.32666652,62.811593,1373.2202)"
       x1="21.960569"
       y1="1020.1122"
       x2="21.960569"
       y2="1016.1083" />
    <linearGradient
       inkscape:collect="always"
       xlink:href="#linearGradient4358"
       id="linearGradient3075"
       gradientUnits="userSpaceOnUse"
       gradientTransform="matrix(0.33246259,0,0,0.33246259,3.5879706,706.24428)"
       x1="7.5761442"
       y1="1010.0824"
       x2="7.5761442"
       y2="1012.0848" />
    <linearGradient
       inkscape:collect="always"
       xlink:href="#linearGradient4366"
       id="linearGradient3079"
       gradientUnits="userSpaceOnUse"
       gradientTransform="matrix(0.33246259,0,0,0.33246259,-0.04440709,702.90975)"
       x1="24.107143"
       y1="1010.6623"
       x2="29.586201"
       y2="1032.8856" />
    <radialGradient
       inkscape:collect="always"
       xlink:href="#linearGradient4346"
       id="radialGradient3082"
       gradientUnits="userSpaceOnUse"
       gradientTransform="matrix(5.4566222e-8,0.75741107,-0.7904532,6.3255517e-8,802.8318,1032.085)"
       cx="9.5535698"
       cy="1011.6878"
       fx="9.5535698"
       fy="1011.6878"
       r="19.910715" />
  </defs>
  <sodipodi:namedview
     id="base"
     pagecolor="#ffffff"
     bordercolor="#666666"
     borderopacity="1.0"
     inkscape:pageopacity="0.0"
     inkscape:pageshadow="2"
     inkscape:zoom="7.9195959"
     inkscape:cx="18.248793"
     inkscape:cy="-0.89740248"
     inkscape:document-units="px"
     inkscape:current-layer="layer1"
     showgrid="false"
     showguides="true"
     inkscape:guide-bbox="true"
     inkscape:window-width="1280"
     inkscape:window-height="712"
     inkscape:window-x="0"
     inkscape:window-y="25"
     inkscape:window-maximized="1" />
  <metadata
     id="metadata7">
    <rdf:RDF>
      <cc:Work
         rdf:about="">
        <dc:format>image/svg+xml</dc:format>
        <dc:type
           rdf:resource="http://purl.org/dc/dcmitype/StillImage" />
        <dc:title />
      </cc:Work>
    </rdf:RDF>
  </metadata>
  <g
     inkscape:label="Livello 1"
     inkscape:groupmode="layer"
     id="layer1"
     transform="translate(0,-1036.3622)">
    <path
       transform="matrix(0.33246259,0,0,0.33246259,-0.04440709,1035.742)"
       style="fill:#333333;fill-opacity:0.78431373;stroke:none;filter:url(#filter4568)"
       d="m 45.357143,44.785713 c 0,1.183467 -9.473974,2.142857 -21.160715,2.142857 -11.68674,0 -21.1607148,-0.95939 -21.1607148,-2.142857 0,-1.183467 9.4739748,-2.142857 21.1607148,-2.142857 11.686741,0 21.160715,0.95939 21.160715,2.142857 z"
       id="path4566" />
    <path
       style="fill:url(#radialGradient3082);fill-opacity:1;stroke:none"
       d="m 1.3210641,1040.729 13.2985039,0 0,9.9739 -13.2985039,0 0,-9.9739 z"
       id="rect3062" />
    <path
       style="fill:url(#linearGradient3079);fill-opacity:1;stroke:none"
       d="m 1.3210641,1040.729 13.2985039,0 0,1.3299 -13.2985039,0 0,-1.3299 z"
       id="rect4354" />
    <path
       style="fill:url(#linearGradient3075);fill-opacity:1;stroke:none"
       d="m 1.3210641,1042.0589 13.2985039,0 0,0.6649 -13.2985039,0 0,-0.6649 z"
       id="rect4356" />
    <path
       style="fill:#000000;fill-opacity:1;stroke:none"
       d="m 7.7803573,1040.729 1.3298499,0 -0.9499093,1.3299 -1.3298504,0 0.9499098,-1.3299 z"
       id="rect4374" />
    <path
       style="fill:#000000;fill-opacity:1;stroke:none"
       d="m 11.104983,1040.729 1.32985,0 -0.949909,1.3299 -1.329851,0 0.94991,-1.3299 z"
       id="rect4395" />
    <path
       style="fill:#000000;fill-opacity:1;stroke:none"
       d="m 14.432558,1040.729 -0.95583,1.3299 1.14284,0 0,-1.3299 -0.18701,0 z"
       id="rect4397" />
    <path
       style="fill:#000000;fill-opacity:1;stroke:none"
       d="m 4.4557313,1040.729 1.3298504,0 -0.9499099,1.3299 -1.3298504,0 0.9499099,-1.3299 z"
       id="rect4399" />
    <path
       style="fill:#000000;fill-opacity:1;stroke:none"
       d="m 1.327001,1040.729 0,1.3299 0.1870104,0 0.9454405,-1.3299 -1.1324509,0 z"
       id="rect4401" />
    <path
       style="fill:#ffffff;fill-opacity:0.31372549;stroke:none"
       d="m 1.3210641,1040.729 13.2985039,0 0,0.3325 -13.2985039,0 0,-0.3325 z"
       id="rect4456" />
    <path
       style="fill:url(#linearGradient3065);fill-opacity:1;stroke:none"
       d="m 1.3483698,1041.0366 13.0666602,-2.4724 -0.247234,-1.3067 -13.0666604,2.4724 0.2472342,1.3067 z"
       id="rect4544" />
    <path
       style="fill:url(#linearGradient3062);fill-opacity:1;stroke:none"
       d="m 1.3210694,1040.6946 13.0666606,-2.4724 -0.247235,-1.3066 -13.0666611,2.4723 0.2472355,1.3067 z"
       id="rect4458" />
    <path
       style="fill:#000000;fill-opacity:1;stroke:none"
       d="m 7.6677293,1039.4937 1.3066663,-0.2472 -1.1805656,-1.1301 -1.3066663,0.2472 1.1805656,1.1301 z"
       id="rect4460" />
    <path
       style="fill:#000000;fill-opacity:1;stroke:none"
       d="m 10.934395,1038.8756 1.306666,-0.2472 -1.180566,-1.1301 -1.3066661,0.2472 1.1805661,1.1301 z"
       id="rect4462" />
    <path
       id="path4464"
       d="m 14.203975,1038.257 -1.186402,-1.129 1.122916,-0.2125 0.247236,1.3067 -0.18375,0.035 z"
       style="fill:#000000;fill-opacity:1;stroke:none" />
    <path
       style="fill:#000000;fill-opacity:1;stroke:none"
       d="m 4.4010641,1040.1118 1.3066663,-0.2472 -1.1805656,-1.1301 -1.3066663,0.2472 1.1805656,1.1301 z"
       id="rect4466" />
    <path
       id="path4468"
       d="m 1.3268979,1040.6935 -0.2472361,-1.3067 0.1837501,-0.035 1.1761939,1.1309 -1.1127079,0.2106 z"
       style="fill:#000000;fill-opacity:1;stroke:none" />
    <path
       style="fill:#d1dfe2;fill-opacity:1;stroke:none"
       d="m 1.3210641,1043.3602 13.2985039,0 0,0.266 -13.2985039,0 0,-0.266 z"
       id="rect4593" />
    <path
       style="fill:#d1dfe2;fill-opacity:1;stroke:none"
       d="m 1.3210641,1046.6849 13.2985039,0 0,0.2659 -13.2985039,0 0,-0.2659 z"
       id="rect4595" />
    <path
       style="fill:#d1dfe2;fill-opacity:1;stroke:none"
       d="m 1.3210641,1048.6797 13.2985039,0 0,0.2659 -13.2985039,0 0,-0.2659 z"
       id="rect4597" />
    <path
       style="fill:#d1dfe2;fill-opacity:1;stroke:none"
       d="m 1.3210641,1049.6239 13.2985039,0 0,0.2659 -13.2985039,0 0,-0.2659 z"
       id="rect4599" />
    <path
       style="fill:#d1dfe2;fill-opacity:1;stroke:none"
       d="m 5.5100926,1046.8178 0,-3.3839 0.26597,0 0,3.3839 -0.26597,0 z"
       id="rect4601" />
    <path
       style="fill:#d1dfe2;fill-opacity:1;stroke:none"
       d="m 10.16457,1046.8178 0,-3.3839 0.26597,0 0,3.3839 -0.26597,0 z"
       id="rect4603" />
    <path
       style="fill:#d1dfe2;fill-opacity:1;stroke:none"
       d="m 7.8373313,1048.8393 0,-2.0482 0.26597,0 0,2.0482 -0.26597,0 z"
       id="rect4611" />
    <path
       id="path3674"
       d="m 4.09375,1019.0184 0,4.8616 2.3844618,0 3.1104622,-4.8616 -5.494924,0 z"
       style="fill:#000000;fill-opacity:0.39215686;stroke:none;filter:url(#filter3676)"
       sodipodi:nodetypes="ccccc"
       transform="matrix(0.33246259,0,0,0.33246259,-0.04440709,702.24482)" />
    <path
       style="fill:url(#linearGradient3046);fill-opacity:1;stroke:none"
       d="m 1.3166114,1039.3992 0,1.6311 0,1.6163 0.5641764,0 0.3492523,-0.4489 0.9134283,-1.1674 -0.9134283,-1.1822 -0.3492523,-0.4489 -0.5641764,0 z"
       id="path4641" />
    <g
       id="g3640"
       transform="matrix(0.32301435,-0.07869628,0.07869628,0.32301435,-80.368538,712.80424)">
      <path
         transform="matrix(1.0666667,0,0,1.0666667,-0.42893783,1003.2246)"
         d="m 5.7142859,16.950893 c 0,0.258884 -0.2098666,0.46875 -0.46875,0.46875 -0.2588835,0 -0.46875,-0.209866 -0.46875,-0.46875 0,-0.258883 0.2098665,-0.46875 0.46875,-0.46875 0.2588834,0 0.46875,0.209867 0.46875,0.46875 z"
         sodipodi:ry="0.46875"
         sodipodi:rx="0.46875"
         sodipodi:cy="16.950893"
         sodipodi:cx="5.2455359"
         id="path4657"
         style="fill:url(#linearGradient3074);fill-opacity:1;stroke:none"
         sodipodi:type="arc" />
      <path
         id="path4671"
         d="m 4.6663006,1021.2306 0,0.15 1,0 0,-0.15 -1,0 z"
         style="font-size:medium;font-style:normal;font-variant:normal;font-weight:normal;font-stretch:normal;text-indent:0;text-align:start;text-decoration:none;line-height:normal;letter-spacing:normal;word-spacing:normal;text-transform:none;direction:ltr;block-progression:tb;writing-mode:lr-tb;text-anchor:start;color:#000000;fill:url(#linearGradient3076);fill-opacity:1;stroke:none;stroke-width:1px;marker:none;visibility:visible;display:inline;overflow:visible;enable-background:accumulate;font-family:'A.C.M.E. Secret Agent';-inkscape-font-specification:'A.C.M.E. Secret Agent'" />
    </g>
    <g
       transform="matrix(-0.3056656,-0.13076662,0.13076662,-0.3056656,-130.30031,1352.554)"
       id="g3648">
      <path
         sodipodi:type="arc"
         style="fill:url(#linearGradient3078);fill-opacity:1;stroke:none"
         id="path3650"
         sodipodi:cx="5.2455359"
         sodipodi:cy="16.950893"
         sodipodi:rx="0.46875"
         sodipodi:ry="0.46875"
         d="m 5.7142859,16.950893 c 0,0.258884 -0.2098666,0.46875 -0.46875,0.46875 -0.2588835,0 -0.46875,-0.209866 -0.46875,-0.46875 0,-0.258883 0.2098665,-0.46875 0.46875,-0.46875 0.2588834,0 0.46875,0.209867 0.46875,0.46875 z"
         transform="matrix(1.0666667,0,0,1.0666667,-0.42893783,1003.2246)" />
      <path
         style="font-size:medium;font-style:normal;font-variant:normal;font-weight:normal;font-stretch:normal;text-indent:0;text-align:start;text-decoration:none;line-height:normal;letter-spacing:normal;word-spacing:normal;text-transform:none;direction:ltr;block-progression:tb;writing-mode:lr-tb;text-anchor:start;color:#000000;fill:url(#linearGradient3080);fill-opacity:1;stroke:none;stroke-width:1px;marker:none;visibility:visible;display:inline;overflow:visible;enable-background:accumulate;font-family:'A.C.M.E. Secret Agent';-inkscape-font-specification:'A.C.M.E. Secret Agent'"
         d="m 4.6663006,1021.2306 0,0.15 1,0 0,-0.15 -1,0 z"
         id="path3652" />
    </g>
    <g
       id="g3658"
       transform="matrix(-0.10932228,-0.31397453,0.31397453,-0.10932228,-317.32399,1154.2964)">
      <path
         transform="matrix(1.0666667,0,0,1.0666667,-0.42893783,1003.2246)"
         d="m 5.7142859,16.950893 c 0,0.258884 -0.2098666,0.46875 -0.46875,0.46875 -0.2588835,0 -0.46875,-0.209866 -0.46875,-0.46875 0,-0.258883 0.2098665,-0.46875 0.46875,-0.46875 0.2588834,0 0.46875,0.209867 0.46875,0.46875 z"
         sodipodi:ry="0.46875"
         sodipodi:rx="0.46875"
         sodipodi:cy="16.950893"
         sodipodi:cx="5.2455359"
         id="path3660"
         style="fill:url(#linearGradient3082);fill-opacity:1;stroke:none"
         sodipodi:type="arc" />
      <path
         id="path3662"
         d="m 4.6663006,1021.2306 0,0.15 1,0 0,-0.15 -1,0 z"
         style="font-size:medium;font-style:normal;font-variant:normal;font-weight:normal;font-stretch:normal;text-indent:0;text-align:start;text-decoration:none;line-height:normal;letter-spacing:normal;word-spacing:normal;text-transform:none;direction:ltr;block-progression:tb;writing-mode:lr-tb;text-anchor:start;color:#000000;fill:url(#linearGradient3084);fill-opacity:1;stroke:none;stroke-width:1px;marker:none;visibility:visible;display:inline;overflow:visible;enable-background:accumulate;font-family:'A.C.M.E. Secret Agent';-inkscape-font-specification:'A.C.M.E. Secret Agent'" />
    </g>
    <g
       style="font-size:1.5px;font-style:italic;font-variant:normal;font-weight:bold;font-stretch:normal;fill:#d1dfe2;fill-opacity:1;stroke:none;font-family:Calibri;-inkscape-font-specification:'A.C.M.E. Secret Agent Italic'"
       id="text3684"
       transform="matrix(0.33246259,0,0,0.33246259,-0.04440709,702.24482)">
      <path
         d="m 5.3459473,1027.2577 c -9e-7,0 -4.892e-4,0.01 -0.00146,0.017 -4.891e-4,0.01 -0.00171,0.016 -0.00366,0.025 -0.00147,0.01 -0.00366,0.019 -0.00659,0.029 -0.00244,0.01 -0.00562,0.019 -0.00952,0.027 -0.00342,0.01 -0.00781,0.015 -0.013184,0.02 -0.00488,0.01 -0.010255,0.01 -0.016113,0.01 l -0.2380372,0 -0.1523437,0.7639 c -0.00147,0 -0.00415,0.01 -0.00806,0.013 -0.00391,0 -0.01001,0.01 -0.018311,0.01 -0.00781,0 -0.018067,0 -0.030762,0.01 -0.012207,0 -0.027832,0 -0.046875,0 -0.018555,0 -0.033936,-8e-4 -0.046143,0 -0.012207,0 -0.021729,0 -0.028564,-0.01 -0.00635,0 -0.010742,-0.01 -0.013184,-0.01 -0.00195,0 -0.00244,-0.01 -0.00146,-0.013 l 0.1523438,-0.7639 -0.2358399,0 c -0.00732,0 -0.012451,0 -0.015381,-0.01 -0.00244,-0.01 -0.00366,-0.013 -0.00366,-0.022 -1e-7,0 2.44e-4,-0.01 7.324e-4,-0.017 9.764e-4,-0.01 0.0022,-0.016 0.00366,-0.026 0.00195,-0.01 0.00415,-0.019 0.00659,-0.029 0.00293,-0.01 0.00635,-0.02 0.010254,-0.028 0.00391,-0.01 0.0083,-0.015 0.013184,-0.02 0.00488,-0.01 0.010254,-0.01 0.016113,-0.01 l 0.6679687,0 c 0.00586,0 0.010253,0 0.013184,0.01 0.00342,0.01 0.00513,0.013 0.00513,0.023"
         id="path3791" />
      <path
         d="m 5.4777832,1028.149 c -9.768e-4,0 -0.00342,0.01 -0.00732,0.013 -0.00391,0 -0.01001,0.01 -0.018311,0.01 -0.00781,0 -0.018067,0 -0.030762,0.01 -0.012696,0 -0.02832,0 -0.046875,0 -0.019043,0 -0.034668,-8e-4 -0.046875,0 -0.011719,-10e-4 -0.020996,0 -0.027832,-0.01 -0.00684,0 -0.011475,-0.01 -0.013916,-0.01 -0.00244,0 -0.00293,-0.01 -0.00146,-0.013 l 0.1794434,-0.8964 c 4.88e-4,0 0.00269,-0.01 0.00659,-0.013 0.00439,0 0.010498,-0.01 0.018311,-0.01 0.0083,0 0.018554,0 0.030762,-0.01 0.012695,0 0.02832,0 0.046875,0 0.018554,0 0.033691,8e-4 0.04541,0 0.012207,0 0.021728,0 0.028564,0.01 0.00732,0 0.011962,0.01 0.013916,0.01 0.00244,0 0.00317,0.01 0.0022,0.013 l -0.1787109,0.8964"
         id="path3793" />
      <path
         d="m 6.4914551,1027.2577 c -9e-7,0 -4.891e-4,0.01 -0.00146,0.017 -4.891e-4,0.01 -0.00171,0.016 -0.00366,0.025 -0.00147,0.01 -0.00366,0.019 -0.00659,0.029 -0.00244,0.01 -0.00562,0.019 -0.00952,0.027 -0.00342,0.01 -0.00781,0.015 -0.013184,0.02 -0.00488,0.01 -0.010255,0.01 -0.016113,0.01 l -0.2380371,0 -0.1523438,0.7639 c -0.00147,0 -0.00415,0.01 -0.00806,0.013 -0.00391,0 -0.01001,0.01 -0.018311,0.01 -0.00781,0 -0.018067,0 -0.030762,0.01 -0.012207,0 -0.027832,0 -0.046875,0 -0.018555,0 -0.033936,-8e-4 -0.046143,0 -0.012207,0 -0.021729,0 -0.028564,-0.01 -0.00635,0 -0.010742,-0.01 -0.013184,-0.01 -0.00195,0 -0.00244,-0.01 -0.00146,-0.013 l 0.1523438,-0.7639 -0.2358399,0 c -0.00732,0 -0.012451,0 -0.015381,-0.01 -0.00244,-0.01 -0.00366,-0.013 -0.00366,-0.022 -1e-7,0 2.44e-4,-0.01 7.324e-4,-0.017 9.764e-4,-0.01 0.0022,-0.016 0.00366,-0.026 0.00195,-0.01 0.00415,-0.019 0.00659,-0.029 0.00293,-0.01 0.00635,-0.02 0.010254,-0.028 0.00391,-0.01 0.0083,-0.015 0.013184,-0.02 0.00488,-0.01 0.010254,-0.01 0.016113,-0.01 l 0.6679687,0 c 0.00586,0 0.010253,0 0.013184,0.01 0.00342,0.01 0.00513,0.013 0.00513,0.023"
         id="path3795" />
      <path
         d="m 6.9667969,1028.045 c -6e-7,0 -4.889e-4,0.01 -0.00146,0.017 -4.888e-4,0.01 -0.00171,0.016 -0.00366,0.026 -0.00147,0.01 -0.00366,0.02 -0.00659,0.03 -0.00244,0.01 -0.00562,0.02 -0.00952,0.028 -0.00342,0.01 -0.00757,0.015 -0.012451,0.021 -0.00488,0.01 -0.010499,0.01 -0.016846,0.01 l -0.4343262,0 c -0.00781,0 -0.015137,-10e-4 -0.021973,0 -0.00635,0 -0.011719,-0.01 -0.016113,-0.011 -0.00391,-0.01 -0.00659,-0.012 -0.00806,-0.019 -0.00146,-0.01 -0.00122,-0.017 7.324e-4,-0.028 l 0.1728516,-0.8613 c 4.881e-4,0 0.00269,-0.01 0.00659,-0.013 0.00391,0 0.00977,-0.01 0.017578,-0.01 0.0083,0 0.018554,0 0.030762,-0.01 0.012695,0 0.028564,0 0.047608,0 0.018554,0 0.033935,8e-4 0.046142,0 0.012207,10e-4 0.021728,0 0.028564,0.01 0.00684,0 0.01123,0.01 0.013184,0.01 0.00244,0 0.00317,0.01 0.0022,0.013 l -0.1523438,0.7631 0.2988281,0 c 0.00684,0 0.011474,0 0.013916,0.01 0.00293,0.01 0.00439,0.013 0.00439,0.021"
         id="path3797" />
      <path
         d="m 7.7988281,1027.2548 c -7e-7,0 -4.89e-4,0.01 -0.00146,0.015 -4.891e-4,0.01 -0.00147,0.016 -0.00293,0.025 -0.00147,0.01 -0.00342,0.018 -0.00586,0.028 -0.00244,0.01 -0.00562,0.019 -0.00952,0.027 -0.00342,0.01 -0.00781,0.014 -0.013184,0.02 -0.00488,0.01 -0.010255,0.01 -0.016113,0.01 l -0.3383789,0 -0.046875,0.2315 0.2871093,0 c 0.00684,0 0.011718,0 0.014648,0.01 0.00293,0 0.00439,0.012 0.00439,0.02 -6e-7,0 -4.889e-4,0.01 -0.00146,0.016 -4.89e-4,0.01 -0.00147,0.015 -0.00293,0.024 -0.00147,0.01 -0.00342,0.018 -0.00586,0.027 -0.00244,0.01 -0.00562,0.018 -0.00952,0.026 -0.00342,0.01 -0.00757,0.014 -0.012451,0.019 -0.00488,0 -0.010255,0.01 -0.016113,0.01 l -0.286377,0 -0.054199,0.2673 0.3427734,0 c 0.00586,0 0.010253,0 0.013184,0.01 0.00293,0 0.00439,0.012 0.00439,0.022 -6e-7,0 -2.447e-4,0.01 -7.324e-4,0.016 -4.889e-4,0.01 -0.00171,0.016 -0.00366,0.025 -0.00147,0.01 -0.00342,0.018 -0.00586,0.027 -0.00244,0.01 -0.00562,0.018 -0.00952,0.026 -0.00342,0.01 -0.00757,0.014 -0.012451,0.019 -0.00488,0 -0.010499,0.01 -0.016846,0.01 l -0.4760742,0 c -0.00781,0 -0.014893,-10e-4 -0.02124,0 -0.00635,0 -0.011719,-0.01 -0.016113,-0.011 -0.00391,-0.01 -0.00659,-0.012 -0.00806,-0.019 -0.00146,-0.01 -0.00122,-0.017 7.324e-4,-0.028 l 0.1655274,-0.8262 c 0.00439,-0.022 0.013183,-0.037 0.026367,-0.046 0.013183,-0.01 0.027832,-0.015 0.043945,-0.015 l 0.4716797,0 c 0.012695,0 0.019042,0.01 0.019043,0.028"
         id="path3799" />
    </g>
    <g
       style="font-size:1.5px;font-style:italic;font-variant:normal;font-weight:bold;font-stretch:normal;fill:#d1dfe2;fill-opacity:1;stroke:none;font-family:Calibri;-inkscape-font-specification:'A.C.M.E. Secret Agent Italic'"
       id="text3688"
       transform="matrix(0.33246259,0,0,0.33246259,-0.04440709,702.24482)">
      <path
         d="m 18.827393,1027.2994 c -1e-6,0 -4.89e-4,0.01 -0.0015,0.017 -4.89e-4,0.01 -0.0015,0.015 -0.0029,0.024 -0.0015,0.01 -0.0034,0.018 -0.0059,0.027 -0.002,0.01 -0.0046,0.017 -0.0081,0.025 -0.0029,0.01 -0.0063,0.013 -0.01025,0.018 -0.0039,0 -0.0081,0.01 -0.01245,0.01 -0.0068,0 -0.01538,0 -0.02564,-0.01 -0.01025,-0.01 -0.02295,-0.013 -0.03809,-0.02 -0.01465,-0.01 -0.03198,-0.014 -0.052,-0.02 -0.02002,-0.01 -0.04272,-0.01 -0.06811,-0.01 -0.02637,0 -0.04883,0 -0.06738,0.011 -0.01807,0.01 -0.03296,0.017 -0.04468,0.029 -0.01172,0.012 -0.02051,0.025 -0.02637,0.04 -0.0054,0.015 -0.0081,0.029 -0.0081,0.045 -10e-7,0.018 0.0044,0.033 0.01318,0.047 0.0088,0.013 0.02051,0.026 0.03516,0.037 0.01465,0.011 0.03125,0.022 0.0498,0.033 0.01904,0.011 0.03809,0.022 0.05713,0.034 0.01953,0.012 0.03857,0.025 0.05713,0.039 0.01904,0.014 0.03589,0.03 0.05054,0.048 0.01465,0.018 0.02637,0.039 0.03516,0.063 0.0088,0.023 0.01318,0.051 0.01318,0.081 -10e-7,0.046 -0.0093,0.089 -0.02783,0.1282 -0.01856,0.039 -0.04492,0.073 -0.0791,0.1025 -0.03369,0.029 -0.07471,0.052 -0.123046,0.068 -0.04785,0.017 -0.101075,0.025 -0.159668,0.025 -0.03174,0 -0.06104,0 -0.08789,-0.01 -0.02686,0 -0.05078,-0.011 -0.07178,-0.018 -0.02051,-0.01 -0.03784,-0.015 -0.052,-0.023 -0.01416,-0.01 -0.02466,-0.016 -0.03149,-0.024 -0.0068,-0.01 -0.01025,-0.018 -0.01025,-0.033 0,0 4.88e-4,-0.01 0.0015,-0.018 9.77e-4,-0.01 0.0022,-0.016 0.0037,-0.025 0.002,-0.01 0.0042,-0.019 0.0066,-0.028 0.0024,-0.01 0.0054,-0.018 0.0088,-0.026 0.0034,-0.01 0.0071,-0.014 0.01099,-0.019 0.0044,0 0.009,-0.01 0.01392,-0.01 0.0083,0 0.01807,0 0.0293,0.012 0.01172,0.01 0.02612,0.016 0.04321,0.025 0.01709,0.01 0.03735,0.017 0.06079,0.025 0.02344,0.01 0.05151,0.012 0.08423,0.012 0.02881,0 0.05395,0 0.07544,-0.011 0.02197,-0.01 0.04028,-0.017 0.05493,-0.03 0.01465,-0.013 0.02563,-0.027 0.03296,-0.044 0.0078,-0.017 0.01172,-0.036 0.01172,-0.056 -1e-6,-0.018 -0.0044,-0.034 -0.01318,-0.048 -0.0088,-0.014 -0.02051,-0.026 -0.03516,-0.037 -0.01416,-0.012 -0.03052,-0.023 -0.04907,-0.033 -0.01807,-0.01 -0.03662,-0.021 -0.05566,-0.033 -0.01904,-0.012 -0.03784,-0.024 -0.0564,-0.038 -0.01807,-0.014 -0.03442,-0.03 -0.04907,-0.048 -0.01416,-0.019 -0.02564,-0.04 -0.03442,-0.064 -0.0088,-0.024 -0.01318,-0.052 -0.01318,-0.083 -10e-7,-0.044 0.0088,-0.084 0.02637,-0.1215 0.01758,-0.037 0.04199,-0.069 0.07324,-0.095 0.03125,-0.027 0.0686,-0.048 0.11206,-0.062 0.04346,-0.015 0.09131,-0.023 0.143555,-0.023 0.02441,0 0.04761,0 0.06958,0.01 0.02197,0 0.04199,0.01 0.06006,0.014 0.01807,0.01 0.03345,0.011 0.04614,0.018 0.0127,0.01 0.02148,0.013 0.02637,0.017 0.0049,0 0.0083,0.01 0.01025,0.015 0.0024,0 0.0037,0.011 0.0037,0.019"
         id="path3780" />
      <path
         d="m 19.660889,1027.3185 c -1e-6,0.014 -0.0024,0.032 -0.0073,0.055 -0.0044,0.023 -0.01025,0.042 -0.01758,0.056 -0.0068,0.014 -0.01465,0.02 -0.02344,0.02 -0.0063,0 -0.01392,0 -0.02271,-0.012 -0.0088,-0.01 -0.02026,-0.017 -0.03442,-0.026 -0.01416,-0.01 -0.03223,-0.018 -0.0542,-0.026 -0.02197,-0.01 -0.04932,-0.013 -0.08203,-0.013 -0.03613,0 -0.06909,0.01 -0.09888,0.022 -0.02979,0.014 -0.0564,0.033 -0.07983,0.057 -0.02344,0.024 -0.04395,0.051 -0.06152,0.081 -0.01758,0.031 -0.03223,0.063 -0.04394,0.096 -0.01123,0.033 -0.01978,0.066 -0.02564,0.1 -0.0054,0.033 -0.0081,0.063 -0.0081,0.091 0,0.034 0.0041,0.064 0.01245,0.09 0.0088,0.026 0.02124,0.047 0.03735,0.064 0.01611,0.017 0.03589,0.03 0.05933,0.039 0.02344,0.01 0.0498,0.012 0.0791,0.012 0.03467,0 0.06421,0 0.08862,-0.011 0.0249,-0.01 0.0459,-0.015 0.06299,-0.024 0.01758,-0.01 0.03198,-0.017 0.04321,-0.024 0.01172,-0.01 0.02222,-0.011 0.03149,-0.011 0.0063,0 0.0105,0 0.01245,0.01 0.0024,0 0.0037,0.011 0.0037,0.019 0,0 -4.89e-4,0.01 -0.0015,0.015 -9.78e-4,0.01 -0.0022,0.015 -0.0037,0.023 -0.0015,0.01 -0.0032,0.018 -0.0051,0.028 -0.002,0.01 -0.0042,0.019 -0.0066,0.028 -0.0024,0.01 -0.0054,0.016 -0.0088,0.023 -0.0029,0.01 -0.0071,0.013 -0.01245,0.018 -0.0054,0.01 -0.01587,0.013 -0.03149,0.021 -0.01563,0.01 -0.03467,0.016 -0.05713,0.023 -0.02246,0.01 -0.04785,0.013 -0.07617,0.018 -0.02832,0.01 -0.0586,0.01 -0.09082,0.01 -0.05322,0 -0.101318,-0.01 -0.144287,-0.021 -0.04248,-0.014 -0.07861,-0.036 -0.108398,-0.064 -0.02979,-0.029 -0.05274,-0.065 -0.06885,-0.1084 -0.01611,-0.043 -0.02417,-0.094 -0.02417,-0.1524 0,-0.045 0.0046,-0.092 0.01392,-0.1413 0.0093,-0.049 0.02319,-0.097 0.04175,-0.1443 0.01904,-0.047 0.04297,-0.091 0.07178,-0.1333 0.02881,-0.042 0.06274,-0.079 0.101806,-0.1099 0.03955,-0.032 0.08423,-0.057 0.134033,-0.075 0.05029,-0.019 0.105957,-0.028 0.166993,-0.028 0.03418,0 0.0664,0 0.09668,0.011 0.03076,0.01 0.05737,0.016 0.07983,0.028 0.02295,0.012 0.03882,0.022 0.04761,0.032 0.0093,0.01 0.01392,0.021 0.01392,0.036"
         id="path3782" />
      <path
         d="m 20.375,1027.2548 c -1e-6,0 -4.89e-4,0.01 -0.0015,0.015 -4.89e-4,0.01 -0.0015,0.016 -0.0029,0.025 -0.0015,0.01 -0.0034,0.018 -0.0059,0.028 -0.0024,0.01 -0.0056,0.019 -0.0095,0.027 -0.0034,0.01 -0.0078,0.014 -0.01318,0.02 -0.0049,0.01 -0.01025,0.01 -0.01611,0.01 l -0.338379,0 -0.04687,0.2315 0.287109,0 c 0.0068,0 0.01172,0 0.01465,0.01 0.0029,0 0.0044,0.012 0.0044,0.02 0,0 -4.89e-4,0.01 -0.0015,0.016 -4.89e-4,0.01 -0.0015,0.015 -0.0029,0.024 -0.0015,0.01 -0.0034,0.018 -0.0059,0.027 -0.0024,0.01 -0.0056,0.018 -0.0095,0.026 -0.0034,0.01 -0.0076,0.014 -0.01245,0.019 -0.0049,0 -0.01026,0.01 -0.01611,0.01 l -0.286377,0 -0.0542,0.2673 0.342774,0 c 0.0059,0 0.01025,0 0.01318,0.01 0.0029,0 0.0044,0.012 0.0044,0.022 -10e-7,0 -2.45e-4,0.01 -7.33e-4,0.016 -4.89e-4,0.01 -0.0017,0.016 -0.0037,0.025 -0.0015,0.01 -0.0034,0.018 -0.0059,0.027 -0.0024,0.01 -0.0056,0.018 -0.0095,0.026 -0.0034,0.01 -0.0076,0.014 -0.01245,0.019 -0.0049,0 -0.0105,0.01 -0.01685,0.01 l -0.476074,0 c -0.0078,0 -0.01489,-10e-4 -0.02124,0 -0.0063,0 -0.01172,-0.01 -0.01611,-0.011 -0.0039,-0.01 -0.0066,-0.012 -0.0081,-0.019 -0.0015,-0.01 -0.0012,-0.017 7.32e-4,-0.028 l 0.165528,-0.8262 c 0.0044,-0.022 0.01318,-0.037 0.02637,-0.046 0.01318,-0.01 0.02783,-0.015 0.04395,-0.015 l 0.47168,0 c 0.0127,0 0.01904,0.01 0.01904,0.028"
         id="path3784" />
      <path
         d="m 21.159424,1028.1073 c -0.002,0.011 -0.0059,0.021 -0.01172,0.03 -0.0054,0.01 -0.01196,0.016 -0.01977,0.022 -0.0073,0.01 -0.01563,0.01 -0.0249,0.013 -0.0088,0 -0.01807,0 -0.02783,0 l -0.08203,0 c -0.01758,0 -0.03198,0 -0.04321,-0.01 -0.01123,0 -0.021,-0.01 -0.0293,-0.018 -0.0078,-0.01 -0.01489,-0.021 -0.02124,-0.036 -0.0063,-0.015 -0.01294,-0.034 -0.01977,-0.058 l -0.139893,-0.4234 c -0.01074,-0.033 -0.02075,-0.066 -0.03003,-0.099 -0.0088,-0.033 -0.01734,-0.066 -0.02564,-0.099 l -0.0015,0 c -0.0049,0.039 -0.0105,0.077 -0.01685,0.1142 -0.0063,0.037 -0.01343,0.074 -0.02124,0.1121 l -0.09668,0.4841 c -9.77e-4,0 -0.0034,0.01 -0.0073,0.013 -0.0034,0 -0.0088,0.01 -0.01611,0.01 -0.0073,0 -0.01685,0 -0.02856,0.01 -0.01123,0 -0.02539,0 -0.04248,0 -0.01709,0 -0.03125,-8e-4 -0.04248,0 -0.01074,0 -0.01904,0 -0.0249,-0.01 -0.0059,0 -0.0098,-0.01 -0.01172,-0.01 -0.0015,0 -0.0015,-0.01 0,-0.013 l 0.170654,-0.8525 c 0.0044,-0.023 0.0144,-0.04 0.03003,-0.051 0.01563,-0.012 0.0332,-0.018 0.05274,-0.018 l 0.100341,0 c 0.01611,0 0.02979,0 0.04102,0.01 0.01172,0 0.02148,0.01 0.0293,0.018 0.0083,0.01 0.01538,0.018 0.02124,0.031 0.0063,0.013 0.01221,0.028 0.01758,0.047 l 0.141358,0.427 c 0.0093,0.027 0.01758,0.054 0.0249,0.081 0.0078,0.027 0.01587,0.054 0.02417,0.081 l 0.0015,0 c 0.0054,-0.035 0.01123,-0.071 0.01758,-0.1084 0.0068,-0.038 0.01367,-0.074 0.02051,-0.1092 l 0.09009,-0.4467 c 9.75e-4,0 0.0032,-0.01 0.0066,-0.013 0.0034,0 0.0085,-0.01 0.01538,-0.01 0.0073,0 0.0166,0 0.02783,-0.01 0.01123,0 0.02539,0 0.04248,0 0.01709,0 0.03125,7e-4 0.04248,0 0.01123,10e-4 0.01977,0 0.02564,0.01 0.0059,0 0.0098,0 0.01172,0.01 0.002,0 0.0024,0.01 0.0015,0.013 l -0.171387,0.8547"
         id="path3786" />
      <path
         d="m 22.091797,1027.2548 c -1e-6,0 -4.89e-4,0.01 -0.0015,0.015 -4.89e-4,0.01 -0.0015,0.016 -0.0029,0.025 -0.0015,0.01 -0.0034,0.018 -0.0059,0.028 -0.0024,0.01 -0.0056,0.019 -0.0095,0.027 -0.0034,0.01 -0.0078,0.014 -0.01318,0.02 -0.0049,0.01 -0.01026,0.01 -0.01611,0.01 l -0.338379,0 -0.04687,0.2315 0.287109,0 c 0.0068,0 0.01172,0 0.01465,0.01 0.0029,0 0.0044,0.012 0.0044,0.02 -1e-6,0 -4.89e-4,0.01 -0.0015,0.016 -4.89e-4,0.01 -0.0015,0.015 -0.0029,0.024 -0.0015,0.01 -0.0034,0.018 -0.0059,0.027 -0.0024,0.01 -0.0056,0.018 -0.0095,0.026 -0.0034,0.01 -0.0076,0.014 -0.01245,0.019 -0.0049,0 -0.01025,0.01 -0.01611,0.01 l -0.286377,0 -0.0542,0.2673 0.342773,0 c 0.0059,0 0.01025,0 0.01318,0.01 0.0029,0 0.0044,0.012 0.0044,0.022 -1e-6,0 -2.45e-4,0.01 -7.33e-4,0.016 -4.89e-4,0.01 -0.0017,0.016 -0.0037,0.025 -0.0015,0.01 -0.0034,0.018 -0.0059,0.027 -0.0024,0.01 -0.0056,0.018 -0.0095,0.026 -0.0034,0.01 -0.0076,0.014 -0.01245,0.019 -0.0049,0 -0.0105,0.01 -0.01685,0.01 l -0.476074,0 c -0.0078,0 -0.01489,-10e-4 -0.02124,0 -0.0063,0 -0.01172,-0.01 -0.01611,-0.011 -0.0039,-0.01 -0.0066,-0.012 -0.0081,-0.019 -0.0015,-0.01 -0.0012,-0.017 7.32e-4,-0.028 l 0.165528,-0.8262 c 0.0044,-0.022 0.01318,-0.037 0.02637,-0.046 0.01318,-0.01 0.02783,-0.015 0.04395,-0.015 l 0.47168,0 c 0.01269,0 0.01904,0.01 0.01904,0.028"
         id="path3788" />
    </g>
    <g
       style="font-size:1.5px;font-style:italic;font-variant:normal;font-weight:bold;font-stretch:normal;fill:#d1dfe2;fill-opacity:1;stroke:none;font-family:Calibri;-inkscape-font-specification:'A.C.M.E. Secret Agent Italic'"
       id="text3692"
       transform="matrix(0.33246259,0,0,0.33246259,-0.04440709,702.24482)">
      <path
         d="m 32.949707,1028.1029 c 0.0024,0.018 0.0034,0.031 0.0029,0.042 -10e-7,0.01 -0.0034,0.018 -0.01025,0.023 -0.0063,0 -0.01709,0.01 -0.03223,0.01 -0.01514,0 -0.03589,0 -0.06226,0 -0.01855,0 -0.03369,-5e-4 -0.04541,0 -0.01172,-5e-4 -0.02075,0 -0.0271,0 -0.0063,0 -0.01074,0 -0.01318,-0.01 -0.0024,0 -0.0039,-0.01 -0.0044,-0.016 l -0.02563,-0.1904 -0.355957,0 -0.09815,0.1861 c -0.0034,0.01 -0.0073,0.013 -0.01172,0.017 -0.0044,0 -0.01074,0.01 -0.01904,0.01 -0.0083,0 -0.01953,0 -0.03369,0.01 -0.01367,10e-4 -0.03101,0 -0.052,0 -0.02246,0 -0.03979,-8e-4 -0.052,0 -0.0127,0 -0.021,0 -0.0249,-0.01 -0.0044,-0.01 -0.0049,-0.014 -0.0015,-0.024 0.0029,-0.01 0.009,-0.024 0.01831,-0.041 l 0.459961,-0.8408 c 0.0049,-0.01 0.0098,-0.015 0.01465,-0.02 0.0049,-0.01 0.01172,-0.01 0.02051,-0.012 0.0093,0 0.02148,0 0.03662,-0.01 0.01562,-10e-4 0.03589,0 0.06079,0 0.02881,0 0.05151,5e-4 0.06811,0 0.01709,5e-4 0.03027,0 0.03955,0.01 0.0093,0 0.01538,0.01 0.01831,0.012 0.0029,0.01 0.0049,0.013 0.0059,0.022 l 0.123779,0.8401 m -0.287842,-0.6951 -7.32e-4,0 -0.21167,0.4029 0.266601,0 -0.0542,-0.4029"
         id="path3773" />
      <path
         d="m 33.8396,1027.3185 c -10e-7,0.014 -0.0024,0.032 -0.0073,0.055 -0.0044,0.023 -0.01025,0.042 -0.01758,0.056 -0.0068,0.014 -0.01465,0.02 -0.02344,0.02 -0.0063,0 -0.01392,0 -0.02271,-0.012 -0.0088,-0.01 -0.02027,-0.017 -0.03442,-0.026 -0.01416,-0.01 -0.03223,-0.018 -0.0542,-0.026 -0.02197,-0.01 -0.04932,-0.013 -0.08203,-0.013 -0.03613,0 -0.06909,0.01 -0.09888,0.022 -0.02979,0.014 -0.0564,0.033 -0.07983,0.057 -0.02344,0.024 -0.04395,0.051 -0.06152,0.081 -0.01758,0.031 -0.03223,0.063 -0.04395,0.096 -0.01123,0.033 -0.01978,0.066 -0.02564,0.1 -0.0054,0.033 -0.0081,0.063 -0.0081,0.091 0,0.034 0.0042,0.064 0.01245,0.09 0.0088,0.026 0.02124,0.047 0.03735,0.064 0.01611,0.017 0.03589,0.03 0.05933,0.039 0.02344,0.01 0.0498,0.012 0.0791,0.012 0.03467,0 0.06421,0 0.08862,-0.011 0.0249,-0.01 0.0459,-0.015 0.06299,-0.024 0.01758,-0.01 0.03198,-0.017 0.04321,-0.024 0.01172,-0.01 0.02222,-0.011 0.03149,-0.011 0.0063,0 0.0105,0 0.01245,0.01 0.0024,0 0.0037,0.011 0.0037,0.019 0,0 -4.89e-4,0.01 -0.0015,0.015 -9.78e-4,0.01 -0.0022,0.015 -0.0037,0.023 -0.0015,0.01 -0.0032,0.018 -0.0051,0.028 -0.002,0.01 -0.0042,0.019 -0.0066,0.028 -0.0024,0.01 -0.0054,0.016 -0.0088,0.023 -0.0029,0.01 -0.0071,0.013 -0.01245,0.018 -0.0054,0.01 -0.01587,0.013 -0.03149,0.021 -0.01563,0.01 -0.03467,0.016 -0.05713,0.023 -0.02246,0.01 -0.04785,0.013 -0.07617,0.018 -0.02832,0.01 -0.05859,0.01 -0.09082,0.01 -0.05322,0 -0.101318,-0.01 -0.144287,-0.021 -0.04248,-0.014 -0.07861,-0.036 -0.108398,-0.064 -0.02979,-0.029 -0.05273,-0.065 -0.06885,-0.1084 -0.01611,-0.043 -0.02417,-0.094 -0.02417,-0.1524 0,-0.045 0.0046,-0.092 0.01392,-0.1413 0.0093,-0.049 0.02319,-0.097 0.04175,-0.1443 0.01904,-0.047 0.04297,-0.091 0.07178,-0.1333 0.02881,-0.042 0.06274,-0.079 0.101807,-0.1099 0.03955,-0.032 0.08423,-0.057 0.134033,-0.075 0.05029,-0.019 0.105957,-0.028 0.166992,-0.028 0.03418,0 0.06641,0 0.09668,0.011 0.03076,0.01 0.05737,0.016 0.07983,0.028 0.02295,0.012 0.03882,0.022 0.04761,0.032 0.0093,0.01 0.01391,0.021 0.01392,0.036"
         id="path3775" />
      <path
         d="m 34.63501,1027.2577 c -1e-6,0 -4.89e-4,0.01 -0.0015,0.017 -4.89e-4,0.01 -0.0017,0.016 -0.0037,0.025 -0.0015,0.01 -0.0037,0.019 -0.0066,0.029 -0.0024,0.01 -0.0056,0.019 -0.0095,0.027 -0.0034,0.01 -0.0078,0.015 -0.01318,0.02 -0.0049,0.01 -0.01026,0.01 -0.01611,0.01 l -0.238037,0 -0.152344,0.7639 c -0.0015,0 -0.0042,0.01 -0.0081,0.013 -0.0039,0 -0.01001,0.01 -0.01831,0.01 -0.0078,0 -0.01807,0 -0.03076,0.01 -0.01221,0 -0.02783,0 -0.04687,0 -0.01855,0 -0.03394,-8e-4 -0.04614,0 -0.01221,0 -0.02173,0 -0.02856,-0.01 -0.0063,0 -0.01074,-0.01 -0.01318,-0.01 -0.002,0 -0.0024,-0.01 -0.0015,-0.013 l 0.152344,-0.7639 -0.23584,0 c -0.0073,0 -0.01245,0 -0.01538,-0.01 -0.0024,-0.01 -0.0037,-0.013 -0.0037,-0.022 0,0 2.44e-4,-0.01 7.33e-4,-0.017 9.76e-4,-0.01 0.0022,-0.016 0.0037,-0.026 0.002,-0.01 0.0041,-0.019 0.0066,-0.029 0.0029,-0.01 0.0063,-0.02 0.01025,-0.028 0.0039,-0.01 0.0083,-0.015 0.01318,-0.02 0.0049,-0.01 0.01025,-0.01 0.01611,-0.01 l 0.667969,0 c 0.0059,0 0.01025,0 0.01318,0.01 0.0034,0.01 0.0051,0.013 0.0051,0.023"
         id="path3777" />
    </g>
    <g
       style="font-size:10px;font-style:italic;font-variant:normal;font-weight:bold;font-stretch:normal;fill:#d1dfe2;fill-opacity:1;stroke:none;font-family:Purisa;-inkscape-font-specification:'A.C.M.E. Secret Agent Italic'"
       id="text3718"
       transform="matrix(0.33246259,0,0,0.33246259,-0.04440709,702.24482)">
      <path
         d="m 12.070776,1034.4877 c -0.106669,0 -0.186669,-0.033 -0.24,-0.1 -0.04667,-0.067 -0.07,-0.19 -0.07,-0.37 -2e-6,-0.3467 0.116664,-1.0833 0.35,-2.21 0.239997,-1.1267 0.366663,-1.8033 0.38,-2.03 -0.04,0.033 -0.173336,0.1667 -0.4,0.4 -0.226669,0.2333 -0.430002,0.42 -0.61,0.56 -0.180002,0.1333 -0.330002,0.2 -0.45,0.2 -0.08,0 -0.146668,-0.027 -0.2,-0.08 -0.05334,-0.053 -0.08,-0.12 -0.08,-0.2 -10e-7,-0.1 0.02333,-0.1833 0.07,-0.25 0.05333,-0.073 0.156665,-0.1733 0.31,-0.3 0.153331,-0.1333 0.269998,-0.24 0.35,-0.32 l 0.44,-0.44 c 0.1,-0.1 0.23333,-0.2567 0.4,-0.47 0.17333,-0.22 0.32333,-0.3867 0.45,-0.5 0.126663,-0.12 0.256663,-0.18 0.39,-0.18 0.186663,0 0.279996,0.15 0.28,0.45 -4e-6,0.28 -0.143337,1.2267 -0.43,2.84 -0.28667,1.6067 -0.48667,2.5433 -0.6,2.81 -0.10667,0.1267 -0.220003,0.19 -0.34,0.19"
         id="path3737" />
    </g>
    <g
       style="font-size:10px;font-style:italic;font-variant:normal;font-weight:bold;font-stretch:normal;fill:#d1dfe2;fill-opacity:1;stroke:none;font-family:Purisa;-inkscape-font-specification:'A.C.M.E. Secret Agent Italic'"
       id="text3722"
       transform="matrix(0.33246259,0,0,0.33246259,-0.04440709,702.24482)">
      <path
         d="m 23.640777,1031.9577 c 0.486664,-0.073 0.83333,-0.13 1.04,-0.17 0.206663,-0.047 0.336663,-0.087 0.39,-0.12 0.05333,-0.04 0.09,-0.1033 0.11,-0.19 0.04,-0.2067 0.07666,-0.4767 0.11,-0.81 l 0.03,-0.36 -0.31,0.27 c -0.513337,0.4533 -0.970003,0.9133 -1.37,1.38 m 2.08,2.24 c -4e-6,0.1 -0.06334,0.2033 -0.19,0.31 -0.120004,0.1133 -0.240004,0.17 -0.36,0.17 -0.220004,0 -0.330004,-0.24 -0.33,-0.72 -4e-6,-0.1733 0.01666,-0.4233 0.05,-0.75 0.03333,-0.3333 0.05,-0.54 0.05,-0.62 -4e-6,-0.06 -0.0033,-0.1 -0.01,-0.12 -0.07334,0.013 -0.270003,0.05 -0.59,0.11 -0.313336,0.053 -0.616669,0.1033 -0.91,0.15 -0.286669,0.04 -0.513335,0.06 -0.68,0.06 -0.280001,0 -0.420001,-0.087 -0.42,-0.26 -1e-6,-0.2067 0.196665,-0.5133 0.59,-0.92 0.619998,-0.64 1.29333,-1.29 2.02,-1.95 0.733329,-0.6667 1.159995,-1 1.28,-1 0.03333,0 0.09,-0.043 0.17,-0.13 0.08,-0.093 0.173328,-0.14 0.28,-0.14 0.09999,0 0.176661,0.033 0.23,0.1 0.05333,0.06 0.07999,0.13 0.08,0.21 -6e-6,0.08 -0.03667,0.1733 -0.11,0.28 -0.07334,0.1067 -0.160005,0.2 -0.26,0.28 -0.120005,0.1067 -0.203338,0.2133 -0.25,0.32 -0.04,0.1 -0.09667,0.3267 -0.17,0.68 -0.120005,0.5733 -0.180005,0.9267 -0.18,1.06 -5e-6,0.06 0.01,0.09 0.03,0.09 0.146662,0 0.333328,-0.047 0.56,-0.14 0.226661,-0.093 0.366661,-0.14 0.42,-0.14 0.153327,0 0.276661,0.04 0.37,0.12 0.09333,0.073 0.139994,0.1633 0.14,0.27 -6e-6,0.047 -0.01001,0.097 -0.03,0.15 -0.02001,0.047 -0.07334,0.1033 -0.16,0.17 -0.08667,0.067 -0.203339,0.1067 -0.35,0.12 -0.120006,0.01 -0.366672,0.063 -0.74,0.17 l -0.39,0.11 -0.11,0.72 c -0.04667,0.2667 -0.07,0.52 -0.07,0.76 -4e-6,0.1067 0.0067,0.21 0.02,0.31 0.01333,0.1 0.02,0.1567 0.02,0.17"
         id="path3734" />
    </g>
    <g
       style="font-size:10px;font-style:italic;font-variant:normal;font-weight:bold;font-stretch:normal;fill:#d1dfe2;fill-opacity:1;stroke:none;font-family:Purisa;-inkscape-font-specification:'A.C.M.E. Secret Agent Italic'"
       id="text3726"
       transform="matrix(0.33246259,0,0,0.33246259,-0.04440709,702.24482)">
      <path
         d="m 35.450777,1031.1677 c -0.120002,0 -0.203335,-0.02 -0.25,-0.06 -0.04667,-0.04 -0.07,-0.12 -0.07,-0.24 -2e-6,-0.1067 0.02667,-0.2933 0.08,-0.56 l 0.34,-1.61 2,-0.33 c 0.413329,-0.067 0.689995,-0.1 0.83,-0.1 0.313328,0 0.469994,0.13 0.47,0.39 -6e-6,0.087 -0.02001,0.2067 -0.06,0.36 -0.03334,0.1533 -0.09334,0.3467 -0.18,0.58 -0.08667,0.2333 -0.173339,0.46 -0.26,0.68 -0.08667,0.22 -0.206672,0.51 -0.36,0.87 -0.153338,0.36 -0.286671,0.6667 -0.4,0.92 -0.106671,0.2533 -0.256671,0.6033 -0.45,1.05 -0.193337,0.44 -0.34667,0.79 -0.46,1.05 -0.06667,0.1533 -0.143337,0.2633 -0.23,0.33 -0.08667,0.06 -0.20667,0.09 -0.36,0.09 -0.246669,0 -0.370002,-0.067 -0.37,-0.2 -2e-6,-0.26 0.296664,-0.9833 0.89,-2.17 0.179996,-0.3667 0.409996,-0.8967 0.69,-1.59 0.279996,-0.6933 0.459995,-1.1633 0.54,-1.41 l -0.12,0 c -0.293338,0 -0.533337,0.01 -0.72,0.02 l -0.79,0.05 -0.05,0.38 c -0.0067,0.04 -0.02,0.1 -0.04,0.18 -0.01334,0.08 -0.02,0.1267 -0.02,0.14 -0.100003,0.4533 -0.203336,0.7633 -0.31,0.93 -0.100002,0.1667 -0.213336,0.25 -0.34,0.25"
         id="path3731" />
    </g>
    <text
       xml:space="preserve"
       style="font-size:3px;font-style:normal;font-variant:normal;font-weight:normal;font-stretch:normal;fill:#000000;fill-opacity:1;stroke:none;font-family:English Wd;-inkscape-font-specification:English Wd"
       x="3.9143412"
       y="48.568211"
       id="text4201"
       transform="translate(0,1004.3622)"><tspan
         sodipodi:role="line"
         id="tspan4203"
         x="3.9143412"
         y="48.568211" /></text>
  </g>
</svg>
