<?xml version="1.0" encoding="UTF-8" standalone="no"?>
<!-- Created with Inkscape (http://www.inkscape.org/) -->

<svg
   xmlns:dc="http://purl.org/dc/elements/1.1/"
   xmlns:cc="http://creativecommons.org/ns#"
   xmlns:rdf="http://www.w3.org/1999/02/22-rdf-syntax-ns#"
   xmlns:svg="http://www.w3.org/2000/svg"
   xmlns="http://www.w3.org/2000/svg"
   xmlns:xlink="http://www.w3.org/1999/xlink"
   xmlns:sodipodi="http://sodipodi.sourceforge.net/DTD/sodipodi-0.dtd"
   xmlns:inkscape="http://www.inkscape.org/namespaces/inkscape"
   width="48"
   height="48"
   id="svg2"
   version="1.1"
   inkscape:version="0.47pre4 r22446"
   sodipodi:docname="edit-select-all.svg"
   inkscape:export-filename="/home/andrea/Documenti/MeliaeSVG/48/mimetypes/png/text-x-preview.png"
   inkscape:export-xdpi="240"
   inkscape:export-ydpi="240">
  <defs
     id="defs4">
    <linearGradient
       id="linearGradient4203">
      <stop
         style="stop-color:#f0f0f0;stop-opacity:1;"
         offset="0"
         id="stop4205" />
      <stop
         style="stop-color:#ffffff;stop-opacity:1;"
         offset="1"
         id="stop4207" />
    </linearGradient>
    <inkscape:perspective
       sodipodi:type="inkscape:persp3d"
       inkscape:vp_x="0 : 526.18109 : 1"
       inkscape:vp_y="0 : 1000 : 0"
       inkscape:vp_z="744.09448 : 526.18109 : 1"
       inkscape:persp3d-origin="372.04724 : 350.78739 : 1"
       id="perspective10" />
    <linearGradient
       inkscape:collect="always"
       xlink:href="#linearGradient4203"
       id="linearGradient4209"
       x1="31.687183"
       y1="1045.266"
       x2="15.481234"
       y2="1013.3396"
       gradientUnits="userSpaceOnUse" />
  </defs>
  <sodipodi:namedview
     id="base"
     pagecolor="#ffffff"
     bordercolor="#666666"
     borderopacity="1.0"
     inkscape:pageopacity="0.0"
     inkscape:pageshadow="2"
     inkscape:zoom="3.959798"
     inkscape:cx="11.766379"
     inkscape:cy="5.0861277"
     inkscape:document-units="px"
     inkscape:current-layer="layer1"
     showgrid="false"
     inkscape:window-width="1280"
     inkscape:window-height="714"
     inkscape:window-x="0"
     inkscape:window-y="25"
     inkscape:window-maximized="1" />
  <metadata
     id="metadata7">
    <rdf:RDF>
      <cc:Work
         rdf:about="">
        <dc:format>image/svg+xml</dc:format>
        <dc:type
           rdf:resource="http://purl.org/dc/dcmitype/StillImage" />
        <dc:title />
      </cc:Work>
    </rdf:RDF>
  </metadata>
  <g
     inkscape:label="Livello 1"
     inkscape:groupmode="layer"
     id="layer1"
     transform="translate(0,-1004.3622)">
    <rect
       ry="1.0238097"
       rx="1.03125"
       y="1006.8622"
       x="7.5"
       height="43"
       width="33"
       id="rect4211"
       style="fill:#646464;fill-opacity:0.47058824;stroke:none" />
    <rect
       style="fill:url(#linearGradient4209);fill-opacity:1;stroke:none"
       id="rect3429"
       width="32"
       height="42"
       x="8"
       y="1007.3622"
       rx="1"
       ry="1" />
    <path
       style="fill:#969696;fill-opacity:0.78431374;stroke:none"
       d="M 11 8.5 L 11 9.5 L 37 9.5 L 37 8.5 L 11 8.5 z M 11 10.5 L 11 11.5 L 37 11.5 L 37 10.5 L 11 10.5 z M 11 12.5 L 11 13.5 L 37 13.5 L 37 12.5 L 11 12.5 z M 11 14.5 L 11 15.5 L 23 15.5 L 23 14.5 L 11 14.5 z M 11 16.5 L 11 17.5 L 37 17.5 L 37 16.5 L 11 16.5 z M 11 18.5 L 11 19.5 L 37 19.5 L 37 18.5 L 11 18.5 z M 11 20.5 L 11 21.5 L 33 21.5 L 33 20.5 L 11 20.5 z M 11 22.5 L 11 23.5 L 37 23.5 L 37 22.5 L 11 22.5 z M 11 24.5 L 11 25.5 L 37 25.5 L 37 24.5 L 11 24.5 z M 11 26.5 L 11 27.5 L 37 27.5 L 37 26.5 L 11 26.5 z M 11 28.5 L 11 29.5 L 37 29.5 L 37 28.5 L 11 28.5 z M 11 30.5 L 11 31.5 L 29 31.5 L 29 30.5 L 11 30.5 z M 11 32.5 L 11 33.5 L 37 33.5 L 37 32.5 L 11 32.5 z M 11 34.5 L 11 35.5 L 37 35.5 L 37 34.5 L 11 34.5 z M 11 36.5 L 11 37.5 L 37 37.5 L 37 36.5 L 11 36.5 z M 11 38.5 L 11 39.5 L 31 39.5 L 31 38.5 L 11 38.5 z "
       transform="translate(0,1004.3622)"
       id="rect2818" />
    <rect
       style="fill:#7fadce;fill-opacity:0.39215686;stroke:none"
       id="rect3656"
       width="28.6"
       height="33.599998"
       x="9.6999998"
       y="1011.5622" />
  </g>
</svg>
