<?xml version="1.0" encoding="UTF-8" standalone="no"?>
<!-- Created with Inkscape (http://www.inkscape.org/) -->

<svg
   xmlns:dc="http://purl.org/dc/elements/1.1/"
   xmlns:cc="http://creativecommons.org/ns#"
   xmlns:rdf="http://www.w3.org/1999/02/22-rdf-syntax-ns#"
   xmlns:svg="http://www.w3.org/2000/svg"
   xmlns="http://www.w3.org/2000/svg"
   xmlns:xlink="http://www.w3.org/1999/xlink"
   xmlns:sodipodi="http://sodipodi.sourceforge.net/DTD/sodipodi-0.dtd"
   xmlns:inkscape="http://www.inkscape.org/namespaces/inkscape"
   width="48"
   height="48"
   id="svg2"
   sodipodi:version="0.32"
   inkscape:version="0.47pre4 r22446"
   version="1.0"
   sodipodi:docname="media-playback-pause.svg"
   inkscape:output_extension="org.inkscape.output.svg.inkscape"
   inkscape:export-filename="/home/andrea/aspetto/icone/mie/svg/png/media-controls/new/media-playback-pause.png"
   inkscape:export-xdpi="90"
   inkscape:export-ydpi="90">
  <defs
     id="defs4">
    <linearGradient
       id="linearGradient8666">
      <stop
         style="stop-color:#f5f5f5;stop-opacity:1;"
         offset="0"
         id="stop8668" />
      <stop
         style="stop-color:#f5f5f5;stop-opacity:0;"
         offset="1"
         id="stop8670" />
    </linearGradient>
    <linearGradient
       id="linearGradient8658">
      <stop
         style="stop-color:#000000;stop-opacity:1;"
         offset="0"
         id="stop8660" />
      <stop
         style="stop-color:#000000;stop-opacity:0;"
         offset="1"
         id="stop8662" />
    </linearGradient>
    <linearGradient
       id="linearGradient8645">
      <stop
         style="stop-color:#333333;stop-opacity:1;"
         offset="0"
         id="stop8647" />
      <stop
         style="stop-color:#333333;stop-opacity:0;"
         offset="1"
         id="stop8649" />
    </linearGradient>
    <linearGradient
       id="linearGradient8635">
      <stop
         id="stop8637"
         offset="0"
         style="stop-color:#333333;stop-opacity:1;" />
      <stop
         id="stop8639"
         offset="1"
         style="stop-color:#f0f0f0;stop-opacity:0;" />
    </linearGradient>
    <linearGradient
       id="linearGradient8657">
      <stop
         style="stop-color:#ffffff;stop-opacity:1;"
         offset="0"
         id="stop8659" />
      <stop
         style="stop-color:#dce1e5;stop-opacity:1;"
         offset="1"
         id="stop8661" />
    </linearGradient>
    <linearGradient
       id="linearGradient8649">
      <stop
         style="stop-color:#8c8c8c;stop-opacity:1;"
         offset="0"
         id="stop8651" />
      <stop
         style="stop-color:#f0f0f0;stop-opacity:0;"
         offset="1"
         id="stop8653" />
    </linearGradient>
    <linearGradient
       id="linearGradient8636">
      <stop
         style="stop-color:#646464;stop-opacity:1;"
         offset="0"
         id="stop8638" />
      <stop
         style="stop-color:#333333;stop-opacity:1;"
         offset="1"
         id="stop8640" />
    </linearGradient>
    <inkscape:perspective
       sodipodi:type="inkscape:persp3d"
       inkscape:vp_x="0 : 526.18109 : 1"
       inkscape:vp_y="0 : 1000 : 0"
       inkscape:vp_z="744.09448 : 526.18109 : 1"
       inkscape:persp3d-origin="372.04724 : 350.78739 : 1"
       id="perspective10" />
    <inkscape:perspective
       id="perspective7856"
       inkscape:persp3d-origin="372.04724 : 350.78739 : 1"
       inkscape:vp_z="744.09448 : 526.18109 : 1"
       inkscape:vp_y="0 : 1000 : 0"
       inkscape:vp_x="0 : 526.18109 : 1"
       sodipodi:type="inkscape:persp3d" />
    <linearGradient
       inkscape:collect="always"
       xlink:href="#linearGradient8645"
       id="linearGradient8651"
       x1="70.205498"
       y1="7.3844137"
       x2="70.205498"
       y2="34.237083"
       gradientUnits="userSpaceOnUse" />
    <filter
       inkscape:collect="always"
       id="filter8675"
       color-interpolation-filters="sRGB">
      <feGaussianBlur
         inkscape:collect="always"
         stdDeviation="1.72311"
         id="feGaussianBlur8677" />
    </filter>
    <radialGradient
       inkscape:collect="always"
       xlink:href="#linearGradient8657"
       id="radialGradient8699"
       gradientUnits="userSpaceOnUse"
       gradientTransform="matrix(1,0,0,1.0000025,0,-1.8169358e-4)"
       cx="70.458"
       cy="73.199226"
       fx="70.458"
       fy="73.199226"
       r="55.811367" />
    <linearGradient
       inkscape:collect="always"
       xlink:href="#linearGradient8645"
       id="linearGradient8701"
       gradientUnits="userSpaceOnUse"
       x1="70.458"
       y1="14.799726"
       x2="70.458"
       y2="87.977859" />
    <linearGradient
       inkscape:collect="always"
       xlink:href="#linearGradient8666"
       id="linearGradient8703"
       gradientUnits="userSpaceOnUse"
       x1="70.205498"
       y1="-8.5456495"
       x2="70.205498"
       y2="60.825073" />
    <radialGradient
       inkscape:collect="always"
       xlink:href="#linearGradient8636"
       id="radialGradient8705"
       gradientUnits="userSpaceOnUse"
       gradientTransform="matrix(1.8914286,0,0,1.7898877,-62.808273,-57.81917)"
       cx="70.458"
       cy="73.199226"
       fx="70.458"
       fy="73.199226"
       r="60.276276" />
    <inkscape:perspective
       id="perspective8732"
       inkscape:persp3d-origin="372.04724 : 350.78739 : 1"
       inkscape:vp_z="744.09448 : 526.18109 : 1"
       inkscape:vp_y="0 : 1000 : 0"
       inkscape:vp_x="0 : 526.18109 : 1"
       sodipodi:type="inkscape:persp3d" />
    <inkscape:perspective
       id="perspective8807"
       inkscape:persp3d-origin="372.04724 : 350.78739 : 1"
       inkscape:vp_z="744.09448 : 526.18109 : 1"
       inkscape:vp_y="0 : 1000 : 0"
       inkscape:vp_x="0 : 526.18109 : 1"
       sodipodi:type="inkscape:persp3d" />
    <filter
       inkscape:collect="always"
       id="filter8681"
       color-interpolation-filters="sRGB">
      <feGaussianBlur
         inkscape:collect="always"
         stdDeviation="0.96687499"
         id="feGaussianBlur8683" />
    </filter>
    <radialGradient
       inkscape:collect="always"
       xlink:href="#linearGradient8657"
       id="radialGradient8673"
       gradientUnits="userSpaceOnUse"
       gradientTransform="matrix(1,0,0,1.0000025,0,-1.8169358e-4)"
       cx="70.458"
       cy="73.199226"
       fx="70.458"
       fy="73.199226"
       r="55.811367" />
    <linearGradient
       inkscape:collect="always"
       xlink:href="#linearGradient8645"
       id="linearGradient8675"
       gradientUnits="userSpaceOnUse"
       x1="70.458"
       y1="14.799726"
       x2="70.458"
       y2="87.977859" />
    <linearGradient
       inkscape:collect="always"
       xlink:href="#linearGradient8666"
       id="linearGradient8677"
       gradientUnits="userSpaceOnUse"
       x1="70.205498"
       y1="-8.5456495"
       x2="70.205498"
       y2="60.825073" />
    <radialGradient
       inkscape:collect="always"
       xlink:href="#linearGradient8636"
       id="radialGradient8679"
       gradientUnits="userSpaceOnUse"
       gradientTransform="matrix(1.8914286,0,0,1.7898877,-62.808273,-57.81917)"
       cx="70.458"
       cy="73.199226"
       fx="70.458"
       fy="73.199226"
       r="60.276276" />
    <radialGradient
       inkscape:collect="always"
       xlink:href="#linearGradient8636"
       id="radialGradient2870"
       gradientUnits="userSpaceOnUse"
       gradientTransform="matrix(0.73545258,0,0,0.69596998,-27.818504,-42.944463)"
       cx="70.458"
       cy="73.199226"
       fx="70.458"
       fy="73.199226"
       r="60.276276" />
    <linearGradient
       inkscape:collect="always"
       xlink:href="#linearGradient8645"
       id="linearGradient2876"
       gradientUnits="userSpaceOnUse"
       x1="70.458"
       y1="14.799726"
       x2="70.458"
       y2="87.977859" />
  </defs>
  <sodipodi:namedview
     id="base"
     pagecolor="#ffffff"
     bordercolor="#666666"
     borderopacity="1.0"
     inkscape:pageopacity="0.0"
     inkscape:pageshadow="2"
     inkscape:zoom="4.1119898"
     inkscape:cx="14.239707"
     inkscape:cy="14.040482"
     inkscape:document-units="px"
     inkscape:current-layer="layer1"
     showgrid="false"
     inkscape:window-width="1276"
     inkscape:window-height="710"
     inkscape:window-x="0"
     inkscape:window-y="25"
     inkscape:window-maximized="0" />
  <metadata
     id="metadata7">
    <rdf:RDF>
      <cc:Work
         rdf:about="">
        <dc:format>image/svg+xml</dc:format>
        <dc:type
           rdf:resource="http://purl.org/dc/dcmitype/StillImage" />
      </cc:Work>
    </rdf:RDF>
  </metadata>
  <g
     inkscape:label="Livello 1"
     inkscape:groupmode="layer"
     id="layer1"
     transform="translate(0,16)">
    <g
       id="g2878">
      <path
         id="path7864"
         d="M 126.23659,75.102967 C 125.18518,105.90855 99.359984,130.02908 68.554397,128.97768 37.74881,127.92627 13.628281,102.10107 14.679687,71.295486 15.731094,40.489898 41.556291,16.369369 72.361878,17.420776 102.92224,18.463814 126.95304,43.904012 126.2545,74.474188"
         style="fill:url(#radialGradient8673);fill-opacity:1;fill-rule:nonzero;stroke:none"
         transform="matrix(0.36224936,0,0,0.36224936,-1.5233545,-18.516373)" />
      <path
         transform="matrix(0.35582486,0,0,0.35582486,-1.0707,-18.046108)"
         id="path8653"
         d="M 72.40625,15.78125 C 40.722653,14.699876 14.143874,39.566402 13.0625,71.25 c -1.081373,31.68359 23.753903,58.26237 55.4375,59.34375 31.6836,1.08137 58.29362,-23.75391 59.375,-55.4375 a 1.6257288,1.6257288 0 0 0 -0.0312,-0.3125 1.6257288,1.6257288 0 0 0 0,-0.0625 A 1.6257288,1.6257288 0 0 0 127.875,74.5 C 128.59346,43.058009 103.83815,16.854034 72.40625,15.78125 z m -0.09375,3.25 c 29.68883,1.013292 52.99112,25.707889 52.3125,55.40625 a 1.6257288,1.6257288 0 0 0 0.0312,0.3125 1.6257288,1.6257288 0 0 0 0,0.03125 1.6257288,1.6257288 0 0 0 -0.0312,0.28125 c -1.02144,29.92757 -26.072423,53.30268 -56,52.28125 -29.927577,-1.02144 -53.333939,-26.07243 -52.3125,-56 1.02144,-29.927578 26.072423,-53.33394 56,-52.3125 z"
         style="font-size:medium;font-style:normal;font-variant:normal;font-weight:normal;font-stretch:normal;text-indent:0;text-align:start;text-decoration:none;line-height:normal;letter-spacing:normal;word-spacing:normal;text-transform:none;direction:ltr;block-progression:tb;writing-mode:lr-tb;text-anchor:start;color:#000000;fill:url(#linearGradient2876);fill-opacity:1;stroke:none;stroke-width:3.25113249;marker:none;visibility:visible;display:inline;overflow:visible;filter:url(#filter8675);enable-background:accumulate;font-family:'A.C.M.E. Secret Agent';-inkscape-font-specification:'A.C.M.E. Secret Agent'" />
      <path
         transform="matrix(0.3749998,0,0,0.3749998,1.9199997e-5,-15.999991)"
         style="fill:#333333;fill-opacity:0.78431373;fill-rule:nonzero;stroke:none;filter:url(#filter8681)"
         d="m 41.000004,38.656254 0,50.6875 18,0 0,-50.6875 -18,0 z m 28,0 0,50.6875 17.999999,0 0,-50.6875 -17.999999,0 z"
         id="path8678" />
      <path
         id="rect8738"
         d="m 15.375012,-1.5039086 0,19.0078096 6.749997,0 0,-19.0078096 -6.749997,0 z m 10.499995,0 0,19.0078096 6.749996,0 0,-19.0078096 -6.749996,0 z"
         style="fill:#333333;fill-opacity:1;fill-rule:nonzero;stroke:none" />
      <path
         id="path8647"
         d="M 114.12167,40.823095 C 113.29386,52.253223 92.960904,61.202922 68.706732,60.812807 44.452559,60.422692 25.461736,50.840492 26.289541,39.410364 27.117345,27.980237 47.450305,19.030538 71.704477,19.420653 c 24.061099,0.387009 42.981273,9.826359 42.431293,21.16914"
         style="fill:url(#linearGradient8677);fill-opacity:1;fill-rule:nonzero;stroke:none"
         transform="matrix(0.36206891,0,0,0.60365593,-1.4192167,-22.441284)" />
      <path
         id="path8679"
         d="M 24.794013,-15.419681 C 11.878022,-15.860509 1.0177459,-5.7103687 0.57691803,7.2056226 0.13609052,20.121614 10.286231,30.981888 23.202222,31.422718 36.118213,31.863543 46.978488,21.713401 47.419317,8.7974136 a 1.736284,1.736284 0 0 0 0,-0.048604 1.736284,1.736284 0 0 0 0.01215,-0.2187194 C 47.724361,-4.2877491 37.607737,-14.982344 24.794013,-15.419681 z m -0.10936,3.463056 C 35.63677,-11.582824 44.2066,-2.498452 43.95626,8.4571835 a 1.736284,1.736284 0 0 0 0,0.097209 1.736284,1.736284 0 0 0 0,0.072906 1.736284,1.736284 0 0 0 0,0.048604 C 43.579441,19.716456 34.364289,28.324325 23.323733,27.94751 12.283177,27.57069 3.6753076,18.355537 4.0521258,7.3149823 4.4289445,-3.7255734 13.644098,-12.333443 24.684653,-11.956625 z"
         style="font-size:medium;font-style:normal;font-variant:normal;font-weight:normal;font-stretch:normal;text-indent:0;text-align:start;text-decoration:none;line-height:normal;letter-spacing:normal;word-spacing:normal;text-transform:none;direction:ltr;block-progression:tb;writing-mode:lr-tb;text-anchor:start;color:#000000;fill:url(#radialGradient2870);fill-opacity:1;stroke:none;stroke-width:8.92981815;marker:none;visibility:visible;display:inline;overflow:visible;enable-background:accumulate;font-family:'A.C.M.E. Secret Agent';-inkscape-font-specification:'A.C.M.E. Secret Agent'" />
    </g>
  </g>
</svg>
