<?xml version="1.0" encoding="UTF-8" standalone="no"?>
<!-- Created with Inkscape (http://www.inkscape.org/) -->

<svg
   xmlns:dc="http://purl.org/dc/elements/1.1/"
   xmlns:cc="http://creativecommons.org/ns#"
   xmlns:rdf="http://www.w3.org/1999/02/22-rdf-syntax-ns#"
   xmlns:svg="http://www.w3.org/2000/svg"
   xmlns="http://www.w3.org/2000/svg"
   xmlns:xlink="http://www.w3.org/1999/xlink"
   xmlns:sodipodi="http://sodipodi.sourceforge.net/DTD/sodipodi-0.dtd"
   xmlns:inkscape="http://www.inkscape.org/namespaces/inkscape"
   width="48"
   height="48"
   id="svg2"
   version="1.1"
   inkscape:version="0.47pre4 r22446"
   sodipodi:docname="gtk-spell-check.svg">
  <defs
     id="defs4">
    <linearGradient
       id="linearGradient3596">
      <stop
         style="stop-color:#333333;stop-opacity:1;"
         offset="0"
         id="stop3598" />
      <stop
         style="stop-color:#505050;stop-opacity:1;"
         offset="1"
         id="stop3600" />
    </linearGradient>
    <inkscape:perspective
       sodipodi:type="inkscape:persp3d"
       inkscape:vp_x="0 : 526.18109 : 1"
       inkscape:vp_y="0 : 1000 : 0"
       inkscape:vp_z="744.09448 : 526.18109 : 1"
       inkscape:persp3d-origin="372.04724 : 350.78739 : 1"
       id="perspective10" />
    <linearGradient
       inkscape:collect="always"
       xlink:href="#linearGradient3596"
       id="linearGradient3602"
       x1="24"
       y1="1046.1515"
       x2="24"
       y2="1010.5729"
       gradientUnits="userSpaceOnUse" />
    <linearGradient
       inkscape:collect="always"
       xlink:href="#linearGradient3596"
       id="linearGradient3610"
       gradientUnits="userSpaceOnUse"
       x1="24"
       y1="1046.1515"
       x2="24"
       y2="1010.5729" />
    <linearGradient
       inkscape:collect="always"
       xlink:href="#linearGradient3596"
       id="linearGradient3614"
       gradientUnits="userSpaceOnUse"
       x1="24"
       y1="1046.1515"
       x2="24"
       y2="1010.5729"
       gradientTransform="translate(0,-0.53574922)" />
    <linearGradient
       inkscape:collect="always"
       xlink:href="#linearGradient3596"
       id="linearGradient2830"
       gradientUnits="userSpaceOnUse"
       gradientTransform="translate(0,-0.53574922)"
       x1="24"
       y1="1046.1515"
       x2="24"
       y2="1010.5729" />
    <linearGradient
       inkscape:collect="always"
       xlink:href="#linearGradient3596"
       id="linearGradient2832"
       gradientUnits="userSpaceOnUse"
       gradientTransform="translate(0,-0.53574922)"
       x1="24"
       y1="1046.1515"
       x2="24"
       y2="1010.5729" />
    <linearGradient
       gradientTransform="matrix(0.87165089,0,0,0.87165089,65.90494,154.40887)"
       gradientUnits="userSpaceOnUse"
       y2="1015.7682"
       x2="-48.075367"
       y1="987.02838"
       x1="-48.075367"
       id="linearGradient3661"
       xlink:href="#linearGradient3635"
       inkscape:collect="always" />
    <radialGradient
       r="15.644737"
       fy="36.421127"
       fx="24.837126"
       cy="36.421127"
       cx="24.837126"
       gradientTransform="matrix(1.214466,0,0,0.319596,-66.529341,1032.4912)"
       gradientUnits="userSpaceOnUse"
       id="radialGradient2910"
       xlink:href="#linearGradient8662"
       inkscape:collect="always" />
    <linearGradient
       gradientTransform="translate(-60.365495,1002.1313)"
       y2="47.760197"
       x2="20.494444"
       y1="6.0097799"
       x1="20.494444"
       gradientUnits="userSpaceOnUse"
       id="linearGradient2904"
       xlink:href="#linearGradient3400"
       inkscape:collect="always" />
    <inkscape:perspective
       sodipodi:type="inkscape:persp3d"
       inkscape:vp_x="0 : 24 : 1"
       inkscape:vp_y="0 : 1000 : 0"
       inkscape:vp_z="48 : 24 : 1"
       inkscape:persp3d-origin="24 : 16 : 1"
       id="perspective2884" />
    <linearGradient
       id="linearGradient8662">
      <stop
         id="stop8664"
         style="stop-color:black;stop-opacity:1"
         offset="0" />
      <stop
         id="stop8666"
         style="stop-color:black;stop-opacity:0"
         offset="1" />
    </linearGradient>
    <radialGradient
       cx="24.837126"
       cy="36.421127"
       r="15.644737"
       fx="24.837126"
       fy="36.421127"
       id="radialGradient1444"
       xlink:href="#linearGradient8662"
       gradientUnits="userSpaceOnUse"
       gradientTransform="matrix(1,0,0,0.536723,0,16.87306)" />
    <linearGradient
       id="linearGradient2264">
      <stop
         id="stop2266"
         style="stop-color:#d7e866;stop-opacity:1"
         offset="0" />
      <stop
         id="stop2268"
         style="stop-color:#8cab2a;stop-opacity:1"
         offset="1" />
    </linearGradient>
    <linearGradient
       x1="-84.343536"
       y1="-5.3878593"
       x2="-91.513138"
       y2="24.558243"
       id="linearGradient2628"
       xlink:href="#linearGradient2264"
       gradientUnits="userSpaceOnUse"
       gradientTransform="matrix(1.017301,-0.243559,0.243559,1.017301,110.52469,-7.9553513)" />
    <linearGradient
       id="linearGradient3400">
      <stop
         id="stop3402"
         style="stop-color:white;stop-opacity:1"
         offset="0" />
      <stop
         id="stop3404"
         style="stop-color:white;stop-opacity:0"
         offset="1" />
    </linearGradient>
    <linearGradient
       x1="20.494444"
       y1="6.0097799"
       x2="20.494444"
       y2="47.760197"
       id="linearGradient3406"
       xlink:href="#linearGradient3400"
       gradientUnits="userSpaceOnUse" />
    <linearGradient
       gradientTransform="translate(-45.714285,20.892857)"
       gradientUnits="userSpaceOnUse"
       y2="1036.8722"
       x2="24.000004"
       y1="1020.3309"
       x1="24.000004"
       id="linearGradient3641"
       xlink:href="#linearGradient3635"
       inkscape:collect="always" />
    <linearGradient
       y2="47.494923"
       x2="-57.452427"
       y1="16.937809"
       x1="-57.452427"
       gradientUnits="userSpaceOnUse"
       id="linearGradient3672"
       xlink:href="#linearGradient3628"
       inkscape:collect="always" />
    <linearGradient
       y2="47.494923"
       x2="-57.452427"
       y1="16.937809"
       x1="-57.452427"
       gradientUnits="userSpaceOnUse"
       id="linearGradient3663"
       xlink:href="#linearGradient3628"
       inkscape:collect="always" />
    <linearGradient
       y2="47.494923"
       x2="-57.452427"
       y1="16.937809"
       x1="-57.452427"
       gradientUnits="userSpaceOnUse"
       id="linearGradient3656"
       xlink:href="#linearGradient3628"
       inkscape:collect="always" />
    <filter
       id="filter3641"
       inkscape:collect="always">
      <feGaussianBlur
         id="feGaussianBlur3643"
         stdDeviation="0.30557114"
         inkscape:collect="always" />
    </filter>
    <linearGradient
       gradientUnits="userSpaceOnUse"
       y2="47.494923"
       x2="-57.452427"
       y1="16.937809"
       x1="-57.452427"
       id="linearGradient3634"
       xlink:href="#linearGradient3628"
       inkscape:collect="always" />
    <linearGradient
       gradientTransform="translate(-61.619305,1038.2023)"
       gradientUnits="userSpaceOnUse"
       y2="45.21875"
       x2="43.03125"
       y1="28.55187"
       x1="25.228586"
       id="linearGradient3638"
       xlink:href="#linearGradient3632"
       inkscape:collect="always" />
    <linearGradient
       y2="965.56183"
       x2="63.765881"
       y1="941.44623"
       x1="63.765881"
       gradientTransform="matrix(0.37749331,0,0,0.37749331,-0.0711918,657.55701)"
       gradientUnits="userSpaceOnUse"
       id="linearGradient2843"
       xlink:href="#linearGradient3715"
       inkscape:collect="always" />
    <linearGradient
       y2="1030.7611"
       x2="37.375645"
       y1="948.8266"
       x1="37.375645"
       gradientTransform="matrix(0.37749331,0,0,0.37749331,-0.07119206,657.42489)"
       gradientUnits="userSpaceOnUse"
       id="linearGradient2840"
       xlink:href="#linearGradient3723"
       inkscape:collect="always" />
    <linearGradient
       y2="1029.8864"
       x2="63.765881"
       y1="949.3266"
       x1="63.765881"
       gradientTransform="matrix(0.37749331,0,0,0.37749331,-0.07119206,657.42489)"
       gradientUnits="userSpaceOnUse"
       id="linearGradient2838"
       xlink:href="#linearGradient3707"
       inkscape:collect="always" />
    <linearGradient
       y2="1030.7611"
       x2="37.375645"
       y1="948.8266"
       x1="37.375645"
       gradientTransform="matrix(1.0066488,0,0,1.0066488,0.21965498,-1.1089658)"
       gradientUnits="userSpaceOnUse"
       id="linearGradient3757"
       xlink:href="#linearGradient3723"
       inkscape:collect="always" />
    <linearGradient
       y2="1029.8864"
       x2="63.765881"
       y1="949.3266"
       x1="63.765881"
       gradientTransform="matrix(1.0066488,0,0,1.0066488,0.21965498,-1.1089658)"
       gradientUnits="userSpaceOnUse"
       id="linearGradient3755"
       xlink:href="#linearGradient3707"
       inkscape:collect="always" />
    <linearGradient
       y2="983.41931"
       x2="63.765881"
       y1="936.95227"
       x1="63.765881"
       gradientTransform="matrix(1.0066488,0,0,1.0066488,0.21965567,-0.75665045)"
       gradientUnits="userSpaceOnUse"
       id="linearGradient3753"
       xlink:href="#linearGradient3715"
       inkscape:collect="always" />
    <linearGradient
       y2="983.41931"
       x2="63.765881"
       y1="936.95227"
       x1="63.765881"
       gradientTransform="matrix(1.0066488,0,0,1.0066488,0.21965567,-0.75665045)"
       gradientUnits="userSpaceOnUse"
       id="linearGradient3747"
       xlink:href="#linearGradient3715"
       inkscape:collect="always" />
    <linearGradient
       y2="1030.7611"
       x2="37.375645"
       y1="948.8266"
       x1="37.375645"
       gradientTransform="matrix(1.0066488,0,0,1.0066488,0.21965498,-1.1089658)"
       gradientUnits="userSpaceOnUse"
       id="linearGradient3744"
       xlink:href="#linearGradient3723"
       inkscape:collect="always" />
    <linearGradient
       y2="1029.8864"
       x2="63.765881"
       y1="949.3266"
       x1="63.765881"
       gradientTransform="matrix(1.0066488,0,0,1.0066488,0.21965498,-1.1089658)"
       gradientUnits="userSpaceOnUse"
       id="linearGradient3742"
       xlink:href="#linearGradient3707"
       inkscape:collect="always" />
    <linearGradient
       y2="1030.7611"
       x2="37.375645"
       y1="948.8266"
       x1="37.375645"
       gradientTransform="translate(0.2341189,5.74082)"
       gradientUnits="userSpaceOnUse"
       id="linearGradient3739"
       xlink:href="#linearGradient3723"
       inkscape:collect="always" />
    <linearGradient
       y2="1029.8864"
       x2="63.765881"
       y1="949.3266"
       x1="63.765881"
       gradientTransform="translate(0.2341189,5.74082)"
       gradientUnits="userSpaceOnUse"
       id="linearGradient3737"
       xlink:href="#linearGradient3707"
       inkscape:collect="always" />
    <linearGradient
       y2="983.41931"
       x2="63.765881"
       y1="936.95227"
       x1="63.765881"
       gradientTransform="translate(0.2341196,6.0908086)"
       gradientUnits="userSpaceOnUse"
       id="linearGradient3735"
       xlink:href="#linearGradient3715"
       inkscape:collect="always" />
    <linearGradient
       gradientTransform="translate(0.2341189,5.74082)"
       gradientUnits="userSpaceOnUse"
       y2="1030.7611"
       x2="37.375645"
       y1="948.8266"
       x1="37.375645"
       id="linearGradient3729"
       xlink:href="#linearGradient3723"
       inkscape:collect="always" />
    <linearGradient
       gradientTransform="translate(0.2341196,6.0908086)"
       gradientUnits="userSpaceOnUse"
       y2="983.41931"
       x2="63.765881"
       y1="936.95227"
       x1="63.765881"
       id="linearGradient3721"
       xlink:href="#linearGradient3715"
       inkscape:collect="always" />
    <linearGradient
       gradientTransform="translate(0.2341189,5.74082)"
       gradientUnits="userSpaceOnUse"
       y2="1029.8864"
       x2="63.765881"
       y1="949.3266"
       x1="63.765881"
       id="linearGradient3713"
       xlink:href="#linearGradient3707"
       inkscape:collect="always" />
    <inkscape:perspective
       sodipodi:type="inkscape:persp3d"
       inkscape:vp_x="0 : 0.5 : 1"
       inkscape:vp_y="0 : 1000 : 0"
       inkscape:vp_z="1 : 0.5 : 1"
       inkscape:persp3d-origin="0.5 : 0.33333333 : 1"
       id="perspective2920" />
    <inkscape:perspective
       id="perspective10-7"
       inkscape:persp3d-origin="372.04724 : 350.78739 : 1"
       inkscape:vp_z="744.09448 : 526.18109 : 1"
       inkscape:vp_y="0 : 1000 : 0"
       inkscape:vp_x="0 : 526.18109 : 1"
       sodipodi:type="inkscape:persp3d" />
    <linearGradient
       id="linearGradient3707">
      <stop
         id="stop3709"
         offset="0"
         style="stop-color:#a6c4d9;stop-opacity:0.78431374;" />
      <stop
         id="stop3711"
         offset="1"
         style="stop-color:#75a3c3;stop-opacity:1;" />
    </linearGradient>
    <linearGradient
       id="linearGradient3715">
      <stop
         id="stop3717"
         offset="0"
         style="stop-color:#99bbd4;stop-opacity:1;" />
      <stop
         id="stop3719"
         offset="1"
         style="stop-color:#5d93ba;stop-opacity:1;" />
    </linearGradient>
    <linearGradient
       id="linearGradient3723">
      <stop
         id="stop3725"
         offset="0"
         style="stop-color:#ffffff;stop-opacity:0.78431374;" />
      <stop
         id="stop3727"
         offset="1"
         style="stop-color:#ffffff;stop-opacity:0;" />
    </linearGradient>
    <linearGradient
       id="linearGradient3618">
      <stop
         id="stop3620"
         offset="0"
         style="stop-color:#9cc430;stop-opacity:1;" />
      <stop
         id="stop3622"
         offset="1"
         style="stop-color:#9cc430;stop-opacity:0;" />
    </linearGradient>
    <linearGradient
       id="linearGradient3632">
      <stop
         id="stop3634"
         offset="0"
         style="stop-color:#ffffff;stop-opacity:1;" />
      <stop
         id="stop3636"
         offset="1"
         style="stop-color:#f0f0f0;stop-opacity:1;" />
    </linearGradient>
    <linearGradient
       id="linearGradient3628">
      <stop
         id="stop3630"
         offset="0"
         style="stop-color:#9cc430;stop-opacity:1;" />
      <stop
         id="stop3632"
         offset="1"
         style="stop-color:#619508;stop-opacity:1;" />
    </linearGradient>
    <linearGradient
       id="linearGradient3635">
      <stop
         id="stop3637"
         offset="0"
         style="stop-color:#ffffff;stop-opacity:1;" />
      <stop
         id="stop3639"
         offset="1"
         style="stop-color:#dcdcdc;stop-opacity:1;" />
    </linearGradient>
  </defs>
  <sodipodi:namedview
     id="base"
     pagecolor="#ffffff"
     bordercolor="#666666"
     borderopacity="1.0"
     inkscape:pageopacity="0.0"
     inkscape:pageshadow="2"
     inkscape:zoom="5.6"
     inkscape:cx="5.0376007"
     inkscape:cy="14.648344"
     inkscape:document-units="px"
     inkscape:current-layer="layer1"
     showgrid="false"
     inkscape:window-width="1280"
     inkscape:window-height="712"
     inkscape:window-x="0"
     inkscape:window-y="25"
     inkscape:window-maximized="1" />
  <metadata
     id="metadata7">
    <rdf:RDF>
      <cc:Work
         rdf:about="">
        <dc:format>image/svg+xml</dc:format>
        <dc:type
           rdf:resource="http://purl.org/dc/dcmitype/StillImage" />
        <dc:title />
      </cc:Work>
    </rdf:RDF>
  </metadata>
  <g
     inkscape:label="Livello 1"
     inkscape:groupmode="layer"
     id="layer1"
     transform="translate(0,-1004.3622)">
    <g
       id="g2824"
       transform="matrix(1.1854901,0,0,1.1854901,-4.4517623,-190.75101)">
      <g
         id="text2820"
         style="font-size:65px;font-style:normal;font-variant:normal;font-weight:bold;font-stretch:normal;fill:#f0f0f0;fill-opacity:1;stroke:none;font-family:DejaVu Serif;-inkscape-font-specification:'A.C.M.E. Secret Agent Bold'">
        <path
           id="path3622"
           d="m 38.155273,1025.0417 0,16.8848 4.824219,0 0,3.8403 -16.05957,0 0,-4.2846 c -1.481143,1.7773 -3.131532,3.0892 -4.951172,3.9355 -1.819679,0.8464 -3.893245,1.2696 -6.220703,1.2696 -3.448903,0 -6.1043368,-0.9205 -7.9663087,-2.7613 -1.8408239,-1.862 -2.7612332,-4.5174 -2.7612305,-7.9663 -2.7e-6,-3.7874 1.3224244,-6.6227 3.9672852,-8.5058 2.666006,-1.8832 6.675605,-2.8247 12.028809,-2.8247 l 5.90332,0 0,-1.9996 c -2.5e-5,-2.7294 -0.645369,-4.7395 -1.936035,-6.0302 -1.290712,-1.3119 -3.290221,-1.9678 -5.998535,-1.9678 -2.242853,0 -3.977878,0.4655 -5.205079,1.3965 -1.206064,0.9098 -2.062997,2.4121 -2.5708,4.5068 l -3.5864261,0 0,-7.2681 c 2.0100838,-0.7193 4.0942291,-1.2589 6.2524411,-1.6186 2.15819,-0.3597 4.432764,-0.5395 6.823731,-0.5396 6.030249,10e-5 10.441865,1.1215 13.234863,3.3643 2.814093,2.2429 4.221156,5.7658 4.221191,10.5688 m -11.235351,10.1246 0,-6.7603 -4.221192,0 c -2.094744,0 -3.702816,0.5713 -4.824218,1.7139 -1.121434,1.1426 -1.682143,2.7824 -1.682129,4.9194 -1.4e-5,2.1371 0.402004,3.7346 1.206054,4.7925 0.82518,1.0579 2.073551,1.5869 3.745118,1.5869 1.735005,0 3.131488,-0.5713 4.189453,-1.7139 1.057918,-1.1425 1.586889,-2.6554 1.586914,-4.5385" />
      </g>
      <g
         id="text2816"
         style="font-size:65px;font-style:normal;font-variant:normal;font-weight:bold;font-stretch:normal;fill:url(#linearGradient2832);fill-opacity:1;stroke:none;font-family:DejaVu Serif;-inkscape-font-specification:'A.C.M.E. Secret Agent Bold'">
        <path
           id="path3619"
           style="fill:url(#linearGradient2830)"
           d="m 38.155273,1023.9702 0,16.8848 4.824219,0 0,3.8403 -16.05957,0 0,-4.2847 c -1.481143,1.7774 -3.131532,3.0892 -4.951172,3.9356 -1.819679,0.8463 -3.893245,1.2695 -6.220703,1.2695 -3.448903,0 -6.1043368,-0.9204 -7.9663087,-2.7612 -1.8408239,-1.862 -2.7612332,-4.5174 -2.7612305,-7.9663 -2.7e-6,-3.7874 1.3224244,-6.6227 3.9672852,-8.5059 2.666006,-1.8831 6.675605,-2.8247 12.028809,-2.8247 l 5.90332,0 0,-1.9995 c -2.5e-5,-2.7295 -0.645369,-4.7395 -1.936035,-6.0303 -1.290712,-1.3118 -3.290221,-1.9677 -5.998535,-1.9677 -2.242853,0 -3.977878,0.4655 -5.205079,1.3964 -1.206064,0.9099 -2.062997,2.4122 -2.5708,4.5069 l -3.5864261,0 0,-7.2681 c 2.0100838,-0.7194 4.0942291,-1.2589 6.2524411,-1.6186 2.15819,-0.3597 4.432764,-0.5396 6.823731,-0.5396 6.030249,0 10.441865,1.1215 13.234863,3.3643 2.814093,2.2428 4.221156,5.7658 4.221191,10.5688 m -11.235351,10.1245 0,-6.7602 -4.221192,0 c -2.094744,0 -3.702816,0.5713 -4.824218,1.7138 -1.121434,1.1426 -1.682143,2.7824 -1.682129,4.9195 -1.4e-5,2.137 0.402004,3.7345 1.206054,4.7925 0.82518,1.0579 2.073551,1.5869 3.745118,1.5869 1.735005,0 3.131488,-0.5713 4.189453,-1.7139 1.057918,-1.1426 1.586889,-2.6554 1.586914,-4.5386" />
      </g>
    </g>
    <g
       id="layer1-1"
       inkscape:label="Livello 1"
       transform="matrix(0.81395357,0,0,0.81395357,9.5518909,187.09889)">
      <path
         sodipodi:type="arc"
         style="fill:#333333;fill-opacity:0.78431373;stroke:none;filter:url(#filter3641)"
         id="path3636"
         sodipodi:cx="-57.452427"
         sodipodi:cy="32.216366"
         sodipodi:rx="15.278557"
         sodipodi:ry="15.278557"
         d="m -42.17387,32.216366 c 0,8.438114 -6.840443,15.278557 -15.278557,15.278557 -8.438114,0 -15.278557,-6.840443 -15.278557,-15.278557 0,-8.438114 6.840443,-15.278557 15.278557,-15.278557 8.438114,0 15.278557,6.840443 15.278557,15.278557 z"
         transform="matrix(1.3360904,0,0,1.3360904,100.76164,985.42484)" />
      <path
         transform="matrix(1.3360904,0,0,1.3360904,100.76164,984.23176)"
         d="m -42.17387,32.216366 c 0,8.438114 -6.840443,15.278557 -15.278557,15.278557 -8.438114,0 -15.278557,-6.840443 -15.278557,-15.278557 0,-8.438114 6.840443,-15.278557 15.278557,-15.278557 8.438114,0 15.278557,6.840443 15.278557,15.278557 z"
         sodipodi:ry="15.278557"
         sodipodi:rx="15.278557"
         sodipodi:cy="32.216366"
         sodipodi:cx="-57.452427"
         id="path3622-9"
         style="fill:url(#linearGradient3672);fill-opacity:1;stroke:none"
         sodipodi:type="arc" />
      <path
         style="fill:#9dd144;fill-opacity:1;stroke:none"
         d="m 30.968556,1015.5314 -8.84345,16.083 -6.567563,-5.2671 -3.684771,4.5951 10.815887,8.67 1.209901,0.9701 0.524109,-0.9484 11.704567,-21.2633 -5.15868,-2.8394 z"
         id="path3667"
         sodipodi:nodetypes="ccccccccc" />
      <path
         style="fill:#255900;fill-opacity:1;stroke:none"
         d="m 30.968556,1014.1027 -8.84345,16.083 -6.567563,-5.2671 -3.684771,4.5951 10.815887,8.67 1.209901,0.9701 0.524109,-0.9484 11.704567,-21.2633 -5.15868,-2.8394 z"
         id="path3663"
         sodipodi:nodetypes="ccccccccc" />
      <path
         sodipodi:nodetypes="ccccccccc"
         id="rect2878"
         d="m 30.968556,1014.753 -8.84345,16.083 -6.567563,-5.2671 -3.684771,4.5951 10.815887,8.67 1.209901,0.9701 0.524109,-0.9484 11.704567,-21.2633 -5.15868,-2.8394 z"
         style="fill:url(#linearGradient3661);fill-opacity:1;stroke:none" />
    </g>
  </g>
</svg>
