<?xml version="1.0" encoding="UTF-8" standalone="no"?>
<!-- Created with Inkscape (http://www.inkscape.org/) -->

<svg
   xmlns:dc="http://purl.org/dc/elements/1.1/"
   xmlns:cc="http://creativecommons.org/ns#"
   xmlns:rdf="http://www.w3.org/1999/02/22-rdf-syntax-ns#"
   xmlns:svg="http://www.w3.org/2000/svg"
   xmlns="http://www.w3.org/2000/svg"
   xmlns:xlink="http://www.w3.org/1999/xlink"
   xmlns:sodipodi="http://sodipodi.sourceforge.net/DTD/sodipodi-0.dtd"
   xmlns:inkscape="http://www.inkscape.org/namespaces/inkscape"
   width="48"
   height="48"
   id="svg2"
   version="1.1"
   inkscape:version="0.47pre4 r22446"
   sodipodi:docname="format-text-italic.svg">
  <defs
     id="defs4">
    <linearGradient
       id="linearGradient3664">
      <stop
         id="stop3666"
         offset="0"
         style="stop-color:#333333;stop-opacity:1" />
      <stop
         id="stop3668"
         offset="1"
         style="stop-color:#505050;stop-opacity:1;" />
    </linearGradient>
    <linearGradient
       id="linearGradient3596">
      <stop
         style="stop-color:#333333;stop-opacity:1;"
         offset="0"
         id="stop3598" />
      <stop
         style="stop-color:#505050;stop-opacity:1;"
         offset="1"
         id="stop3600" />
    </linearGradient>
    <inkscape:perspective
       sodipodi:type="inkscape:persp3d"
       inkscape:vp_x="0 : 526.18109 : 1"
       inkscape:vp_y="0 : 1000 : 0"
       inkscape:vp_z="744.09448 : 526.18109 : 1"
       inkscape:persp3d-origin="372.04724 : 350.78739 : 1"
       id="perspective10" />
    <linearGradient
       inkscape:collect="always"
       xlink:href="#linearGradient3596"
       id="linearGradient3602"
       x1="24"
       y1="1046.1515"
       x2="24"
       y2="1010.5729"
       gradientUnits="userSpaceOnUse" />
    <linearGradient
       inkscape:collect="always"
       xlink:href="#linearGradient3596"
       id="linearGradient3610"
       gradientUnits="userSpaceOnUse"
       x1="24"
       y1="1046.1515"
       x2="24"
       y2="1010.5729" />
    <linearGradient
       inkscape:collect="always"
       xlink:href="#linearGradient3664"
       id="linearGradient3614"
       gradientUnits="userSpaceOnUse"
       x1="24"
       y1="1046.1515"
       x2="24"
       y2="1010.5729"
       gradientTransform="translate(0,-0.53574922)" />
    <linearGradient
       inkscape:collect="always"
       xlink:href="#linearGradient3664"
       id="linearGradient3767"
       x1="22.428955"
       y1="1029.9271"
       x2="22.428955"
       y2="1033.9271"
       gradientUnits="userSpaceOnUse" />
    <linearGradient
       inkscape:collect="always"
       xlink:href="#linearGradient3664"
       id="linearGradient3777"
       gradientUnits="userSpaceOnUse"
       gradientTransform="translate(0,-0.53574922)"
       x1="24"
       y1="1046.1515"
       x2="24"
       y2="1010.5729" />
    <linearGradient
       inkscape:collect="always"
       xlink:href="#linearGradient3664"
       id="linearGradient3779"
       gradientUnits="userSpaceOnUse"
       x1="22.428955"
       y1="1029.9271"
       x2="22.428955"
       y2="1033.9271" />
    <linearGradient
       inkscape:collect="always"
       xlink:href="#linearGradient3664"
       id="linearGradient3782"
       gradientUnits="userSpaceOnUse"
       x1="22.428955"
       y1="1029.9271"
       x2="22.428955"
       y2="1033.9271" />
    <linearGradient
       inkscape:collect="always"
       xlink:href="#linearGradient3664"
       id="linearGradient3787"
       gradientUnits="userSpaceOnUse"
       gradientTransform="translate(0,-0.53574922)"
       x1="24"
       y1="1046.1515"
       x2="24"
       y2="1010.5729" />
    <linearGradient
       inkscape:collect="always"
       xlink:href="#linearGradient3664"
       id="linearGradient3799"
       gradientUnits="userSpaceOnUse"
       gradientTransform="translate(0,-0.53574922)"
       x1="24"
       y1="1046.1515"
       x2="24"
       y2="1010.5729" />
    <linearGradient
       inkscape:collect="always"
       xlink:href="#linearGradient3664"
       id="linearGradient3801"
       gradientUnits="userSpaceOnUse"
       x1="22.428955"
       y1="1029.9271"
       x2="22.428955"
       y2="1033.9271" />
    <linearGradient
       inkscape:collect="always"
       xlink:href="#linearGradient3664"
       id="linearGradient3804"
       gradientUnits="userSpaceOnUse"
       x1="22.428955"
       y1="1029.9271"
       x2="22.428955"
       y2="1033.9271"
       gradientTransform="translate(1.5710449,1.7382813e-5)" />
    <linearGradient
       inkscape:collect="always"
       xlink:href="#linearGradient3664"
       id="linearGradient3808"
       gradientUnits="userSpaceOnUse"
       gradientTransform="translate(1.5710449,-0.53573184)"
       x1="24"
       y1="1046.1515"
       x2="24"
       y2="1010.5729" />
  </defs>
  <sodipodi:namedview
     id="base"
     pagecolor="#ffffff"
     bordercolor="#666666"
     borderopacity="1.0"
     inkscape:pageopacity="0.0"
     inkscape:pageshadow="2"
     inkscape:zoom="5.6"
     inkscape:cx="32.117229"
     inkscape:cy="11.680749"
     inkscape:document-units="px"
     inkscape:current-layer="layer1"
     showgrid="false"
     inkscape:window-width="1280"
     inkscape:window-height="712"
     inkscape:window-x="0"
     inkscape:window-y="25"
     inkscape:window-maximized="1" />
  <metadata
     id="metadata7">
    <rdf:RDF>
      <cc:Work
         rdf:about="">
        <dc:format>image/svg+xml</dc:format>
        <dc:type
           rdf:resource="http://purl.org/dc/dcmitype/StillImage" />
        <dc:title></dc:title>
      </cc:Work>
    </rdf:RDF>
  </metadata>
  <g
     inkscape:label="Livello 1"
     inkscape:groupmode="layer"
     id="layer1"
     transform="translate(0,-1004.3622)">
    <g
       style="font-size:65px;font-style:normal;font-variant:normal;font-weight:normal;font-stretch:normal;fill:#f0f0f0;fill-opacity:1;stroke:none;font-family:DejaVu Serif;-inkscape-font-specification:'A.C.M.E. Secret Agent'"
       id="text2820">
      <path
         d="m 29.792236,1035.1663 0,-7.1412 -7.521972,0 c -2.898779,10e-5 -5.05698,0.6242 -6.47461,1.8726 -1.417653,1.2484 -2.126474,3.1633 -2.126465,5.7446 -9e-6,2.3487 0.719391,4.2107 2.158204,5.586 1.438788,1.3753 3.385401,2.063 5.839843,2.063 2.433248,0 4.39044,-0.7512 5.871582,-2.2535 1.502254,-1.5022 2.253392,-3.4594 2.253418,-5.8715 m 5.839844,-10.4737 0,17.71 5.205078,0 0,3.3642 -11.044922,0 0,-3.6499 c -1.290714,1.5658 -2.782412,2.719 -4.475097,3.4595 -1.692728,0.7406 -3.671079,1.1109 -5.935059,1.1109 -3.745129,0 -6.717945,-0.9945 -8.918457,-2.9834 -2.2005251,-1.989 -3.3007844,-4.6761 -3.3007812,-8.0616 -3.2e-6,-3.4912 1.2589473,-6.1995 3.7768552,-8.125 2.517894,-1.9254 6.072578,-2.8881 10.664063,-2.8881 l 8.188476,0 0,-2.3169 c -2.6e-5,-2.5602 -0.782902,-4.5386 -2.348632,-5.9351 -1.544619,-1.4176 -3.723979,-2.1264 -6.538086,-2.1265 -2.327489,10e-5 -4.178887,0.529 -5.5542,1.5869 -1.375335,1.058 -2.232268,2.6238 -2.5708,4.6973 l -3.0151371,0 0,-6.8237 c 2.0312421,-0.8675 3.9990131,-1.5128 5.9033201,-1.9361 1.925442,-0.4443 3.797999,-0.6664 5.617676,-0.6665 4.676085,10e-5 8.230769,1.1638 10.664062,3.4913 2.454397,2.3063 3.681609,5.6706 3.681641,10.0927"
         style=""
         id="path3819" />
    </g>
    <path
       style="fill:#f0f0f0;fill-opacity:1;fill-rule:nonzero;stroke:none"
       d="m 5,1030.9369 38,0 0,4 -38,0 0,-4 z"
       id="rect3759" />
    <g
       style="font-size:65px;font-style:normal;font-variant:normal;font-weight:normal;font-stretch:normal;fill:url(#linearGradient3808);fill-opacity:1;stroke:none;font-family:DejaVu Serif;-inkscape-font-specification:'A.C.M.E. Secret Agent'"
       id="text2816">
      <path
         d="m 29.792236,1034.0947 0,-7.1411 -7.521972,0 c -2.898779,0 -5.05698,0.6242 -6.47461,1.8726 -1.417653,1.2484 -2.126474,3.1632 -2.126465,5.7446 -9e-6,2.3486 0.719391,4.2106 2.158204,5.5859 1.438788,1.3754 3.385401,2.063 5.839843,2.063 2.433248,0 4.39044,-0.7511 5.871582,-2.2534 1.502254,-1.5023 2.253392,-3.4595 2.253418,-5.8716 m 5.839844,-10.4736 0,17.71 5.205078,0 0,3.3642 -11.044922,0 0,-3.6499 c -1.290714,1.5658 -2.782412,2.7189 -4.475097,3.4595 -1.692728,0.7405 -3.671079,1.1108 -5.935059,1.1108 -3.745129,0 -6.717945,-0.9944 -8.918457,-2.9834 -2.2005251,-1.9889 -3.3007844,-4.6761 -3.3007812,-8.0615 -3.2e-6,-3.4912 1.2589473,-6.1995 3.7768552,-8.125 2.517894,-1.9254 6.072578,-2.8882 10.664063,-2.8882 l 8.188476,0 0,-2.3169 c -2.6e-5,-2.5602 -0.782902,-4.5385 -2.348632,-5.935 -1.544619,-1.4176 -3.723979,-2.1265 -6.538086,-2.1265 -2.327489,0 -4.178887,0.529 -5.5542,1.5869 -1.375335,1.058 -2.232268,2.6237 -2.5708,4.6973 l -3.0151371,0 0,-6.8238 c 2.0312421,-0.8674 3.9990131,-1.5128 5.9033201,-1.936 1.925442,-0.4443 3.797999,-0.6665 5.617676,-0.6665 4.676085,0 8.230769,1.1638 10.664062,3.4912 2.454397,2.3064 3.681609,5.6706 3.681641,10.0928"
         style="-inkscape-font-specification:'A.C.M.E. Secret Agent'"
         id="path3815" />
    </g>
    <path
       style="fill:url(#linearGradient3804);fill-opacity:1;fill-rule:nonzero;stroke:none"
       d="m 5,1029.9271 38,0 0,4 -38,0 0,-4 z"
       id="rect3757" />
  </g>
</svg>
