<?xml version="1.0" encoding="UTF-8" standalone="no"?>
<!-- Created with Inkscape (http://www.inkscape.org/) -->

<svg
   xmlns:dc="http://purl.org/dc/elements/1.1/"
   xmlns:cc="http://creativecommons.org/ns#"
   xmlns:rdf="http://www.w3.org/1999/02/22-rdf-syntax-ns#"
   xmlns:svg="http://www.w3.org/2000/svg"
   xmlns="http://www.w3.org/2000/svg"
   xmlns:xlink="http://www.w3.org/1999/xlink"
   xmlns:sodipodi="http://sodipodi.sourceforge.net/DTD/sodipodi-0.dtd"
   xmlns:inkscape="http://www.inkscape.org/namespaces/inkscape"
   width="48"
   height="48"
   id="svg2"
   version="1.1"
   inkscape:version="0.47pre4 r22446"
   sodipodi:docname="media-optical-copy.svg"
   inkscape:export-filename="/home/andrea/.icons/MeliaeSVG/scalable/devices/png/cdrom-new.png"
   inkscape:export-xdpi="240"
   inkscape:export-ydpi="240">
  <defs
     id="defs4">
    <linearGradient
       id="linearGradient3636">
      <stop
         style="stop-color:#b4b4b4;stop-opacity:1;"
         offset="0"
         id="stop3638" />
      <stop
         style="stop-color:#f0f0f0;stop-opacity:0.94117647;"
         offset="1"
         id="stop3640" />
    </linearGradient>
    <inkscape:perspective
       sodipodi:type="inkscape:persp3d"
       inkscape:vp_x="0 : 526.18109 : 1"
       inkscape:vp_y="0 : 1000 : 0"
       inkscape:vp_z="744.09448 : 526.18109 : 1"
       inkscape:persp3d-origin="372.04724 : 350.78739 : 1"
       id="perspective10" />
    <inkscape:perspective
       id="perspective3600"
       inkscape:persp3d-origin="0.5 : 0.33333333 : 1"
       inkscape:vp_z="1 : 0.5 : 1"
       inkscape:vp_y="0 : 1000 : 0"
       inkscape:vp_x="0 : 0.5 : 1"
       sodipodi:type="inkscape:persp3d" />
    <linearGradient
       inkscape:collect="always"
       xlink:href="#linearGradient3636"
       id="linearGradient3642"
       x1="24"
       y1="44.5"
       x2="24"
       y2="3.5"
       gradientUnits="userSpaceOnUse" />
    <style
       id="style2464"
       type="text/css" />
    <inkscape:perspective
       id="perspective3874"
       inkscape:persp3d-origin="204.75002 : 67.5 : 1"
       inkscape:vp_z="409.50003 : 101.25 : 1"
       inkscape:vp_y="0 : 1000 : 0"
       inkscape:vp_x="0 : 101.25 : 1"
       sodipodi:type="inkscape:persp3d" />
    <linearGradient
       inkscape:collect="always"
       xlink:href="#linearGradient3636"
       id="linearGradient3971"
       gradientUnits="userSpaceOnUse"
       x1="24"
       y1="44.5"
       x2="24"
       y2="3.5"
       gradientTransform="translate(-71.468293,4.7982)" />
    <linearGradient
       inkscape:collect="always"
       xlink:href="#linearGradient3636"
       id="linearGradient3976"
       gradientUnits="userSpaceOnUse"
       gradientTransform="matrix(-1,0,0,-1,-22.84425,52.819)"
       x1="24"
       y1="44.5"
       x2="24"
       y2="3.5" />
    <linearGradient
       inkscape:collect="always"
       xlink:href="#linearGradient3636"
       id="linearGradient3979"
       gradientUnits="userSpaceOnUse"
       gradientTransform="translate(5e-4,1004.3597)"
       x1="24"
       y1="44.5"
       x2="24"
       y2="3.5" />
    <linearGradient
       inkscape:collect="always"
       xlink:href="#linearGradient3636"
       id="linearGradient3985"
       gradientUnits="userSpaceOnUse"
       x1="24"
       y1="44.5"
       x2="24"
       y2="3.5"
       gradientTransform="translate(-64.649763,50.0026)" />
    <linearGradient
       inkscape:collect="always"
       xlink:href="#linearGradient3636"
       id="linearGradient3988"
       gradientUnits="userSpaceOnUse"
       gradientTransform="translate(-34.597725,1004.3648)"
       x1="24"
       y1="44.5"
       x2="24"
       y2="3.5" />
    <linearGradient
       inkscape:collect="always"
       xlink:href="#linearGradient3636"
       id="linearGradient3990"
       gradientUnits="userSpaceOnUse"
       x1="24"
       y1="44.5"
       x2="24"
       y2="3.5"
       gradientTransform="translate(-85.105352,968.75432)" />
    <linearGradient
       inkscape:collect="always"
       xlink:href="#linearGradient3636"
       id="linearGradient2876"
       gradientUnits="userSpaceOnUse"
       gradientTransform="translate(-52.527432,987.69218)"
       x1="24"
       y1="44.5"
       x2="24"
       y2="3.5" />
    <linearGradient
       inkscape:collect="always"
       xlink:href="#linearGradient3636"
       id="linearGradient3697"
       gradientUnits="userSpaceOnUse"
       gradientTransform="translate(-52.527432,987.69218)"
       x1="24"
       y1="44.5"
       x2="24"
       y2="3.5" />
    <linearGradient
       inkscape:collect="always"
       xlink:href="#linearGradient3636"
       id="linearGradient3699"
       gradientUnits="userSpaceOnUse"
       gradientTransform="translate(5e-4,1004.3597)"
       x1="24"
       y1="44.5"
       x2="24"
       y2="3.5" />
    <linearGradient
       inkscape:collect="always"
       xlink:href="#linearGradient3636"
       id="linearGradient2875"
       gradientUnits="userSpaceOnUse"
       gradientTransform="translate(5e-4,1004.3597)"
       x1="24"
       y1="44.5"
       x2="24"
       y2="3.5" />
    <linearGradient
       inkscape:collect="always"
       xlink:href="#linearGradient3636"
       id="linearGradient2882"
       gradientUnits="userSpaceOnUse"
       gradientTransform="matrix(0.79006772,0,0,0.79006772,9.2056489,1013.49)"
       x1="24"
       y1="44.5"
       x2="24"
       y2="3.5" />
    <linearGradient
       inkscape:collect="always"
       xlink:href="#linearGradient3636"
       id="linearGradient3661"
       gradientUnits="userSpaceOnUse"
       gradientTransform="translate(-52.527432,987.69218)"
       x1="24"
       y1="44.5"
       x2="24"
       y2="3.5" />
    <linearGradient
       inkscape:collect="always"
       xlink:href="#linearGradient3636"
       id="linearGradient3669"
       gradientUnits="userSpaceOnUse"
       gradientTransform="matrix(0.56433409,0,0,0.56433409,1.2893845,1005.7254)"
       x1="24"
       y1="44.5"
       x2="24"
       y2="3.5" />
  </defs>
  <sodipodi:namedview
     id="base"
     pagecolor="#ffffff"
     bordercolor="#666666"
     borderopacity="1.0"
     inkscape:pageopacity="0.0"
     inkscape:pageshadow="2"
     inkscape:zoom="3.959798"
     inkscape:cx="-0.8705806"
     inkscape:cy="8.3256702"
     inkscape:document-units="px"
     inkscape:current-layer="layer1"
     showgrid="false"
     inkscape:window-width="1280"
     inkscape:window-height="714"
     inkscape:window-x="0"
     inkscape:window-y="25"
     inkscape:window-maximized="1" />
  <metadata
     id="metadata7">
    <rdf:RDF>
      <cc:Work
         rdf:about="">
        <dc:format>image/svg+xml</dc:format>
        <dc:type
           rdf:resource="http://purl.org/dc/dcmitype/StillImage" />
        <dc:title />
      </cc:Work>
    </rdf:RDF>
  </metadata>
  <g
     inkscape:label="Livello 1"
     inkscape:groupmode="layer"
     id="layer1"
     transform="translate(0,-1004.3622)">
    <path
       id="path2849"
       d="m 14.83312,1006.8555 c -6.8568083,0 -12.4153495,5.5585 -12.4153495,12.4153 0,6.8568 5.5585412,12.4154 12.4153495,12.4154 6.856809,0 12.41535,-5.5586 12.41535,-12.4154 0,-6.8568 -5.558541,-12.4153 -12.41535,-12.4153 z m 0,7.3363 c 2.805059,0 5.079007,2.274 5.079007,5.079 0,2.8051 -2.273948,5.079 -5.079007,5.079 -2.805058,0 -5.0790064,-2.2739 -5.0790064,-5.079 0,-2.805 2.2739484,-5.079 5.0790064,-5.079 z"
       style="fill:#dcdcdc;fill-opacity:0.47058824;fill-rule:nonzero;stroke:#787878;stroke-width:0.16930023;stroke-miterlimit:4;stroke-opacity:1;stroke-dasharray:none" />
    <path
       id="path2851"
       d="m 14.83312,1007.4198 c -6.545135,0 -11.8510154,5.3059 -11.8510154,11.851 0,6.5452 5.3058804,11.8511 11.8510154,11.8511 6.545136,0 11.851016,-5.3059 11.851016,-11.8511 0,-6.5451 -5.30588,-11.851 -11.851016,-11.851 z m 0,6.772 c 2.805059,0 5.079007,2.274 5.079007,5.079 0,2.8051 -2.273948,5.079 -5.079007,5.079 -2.805058,0 -5.0790064,-2.2739 -5.0790064,-5.079 0,-2.805 2.2739484,-5.079 5.0790064,-5.079 z"
       style="fill:#969696;fill-opacity:0.78431374;fill-rule:nonzero;stroke:none" />
    <path
       id="path2853"
       d="m 14.83312,1014.1918 c -2.805058,0 -5.0790064,2.274 -5.0790064,5.079 0,2.8051 2.2739484,5.079 5.0790064,5.079 2.805059,0 5.079007,-2.2739 5.079007,-5.079 0,-2.805 -2.273948,-5.079 -5.079007,-5.079 z m 0,1.693 c 1.870039,0 3.386005,1.516 3.386005,3.386 0,1.8701 -1.515966,3.386 -3.386005,3.386 -1.870038,0 -3.386004,-1.5159 -3.386004,-3.386 0,-1.87 1.515966,-3.386 3.386004,-3.386 z"
       style="fill:#f0f0f0;fill-opacity:0.39215686;fill-rule:nonzero;stroke:none" />
    <path
       id="path2855"
       d="m 14.83312,1015.8848 c -1.870038,0 -3.386004,1.516 -3.386004,3.386 0,1.8701 1.515966,3.386 3.386004,3.386 1.870039,0 3.386005,-1.5159 3.386005,-3.386 0,-1.87 -1.515966,-3.386 -3.386005,-3.386 z m 0,1.4109 c 1.090857,0 1.97517,0.8843 1.97517,1.9751 0,1.0909 -0.884313,1.9752 -1.97517,1.9752 -1.090856,0 -1.975169,-0.8843 -1.975169,-1.9752 0,-1.0908 0.884313,-1.9751 1.975169,-1.9751 z"
       style="fill:#c8c8c8;fill-opacity:0.39215686;fill-rule:nonzero;stroke:none" />
    <path
       transform="matrix(0.08822423,0,0,0.08822423,12.564497,1017.0684)"
       d="m 47.142857,24.964285 a 21.428572,21.428572 0 1 1 -42.8571438,0 21.428572,21.428572 0 1 1 42.8571438,0 z"
       sodipodi:ry="21.428572"
       sodipodi:rx="21.428572"
       sodipodi:cy="24.964285"
       sodipodi:cx="25.714285"
       id="path2857"
       style="fill:none;stroke:#787878;stroke-width:1.91897655;stroke-miterlimit:4;stroke-opacity:1;stroke-dasharray:none"
       sodipodi:type="arc" />
    <path
       id="path2859"
       d="m 14.83312,1030.8419 c 5.415971,0 9.956547,-3.7217 11.21614,-8.7471 l -2.045711,0 c -1.558352,0 -2.82167,-1.2634 -2.82167,-2.8217 0,-1.5584 1.263318,-2.8217 2.82167,-2.8217 l 2.045711,0 c -1.259593,-5.0254 -5.800169,-8.7472 -11.21614,-8.7472 -0.199661,0 -0.402426,-0.01 -0.599605,0 -5.1520876,0.2612 -9.4040064,3.9061 -10.6165346,8.7472 l 2.3984199,0 c 1.5584086,0 2.8216704,1.2633 2.8216704,2.8217 0,1.5583 -1.2632618,2.8217 -2.8216704,2.8217 l -2.3984199,0 c 1.264842,5.018 5.8055305,8.7471 11.2161396,8.7471 z m 0,-6.4898 c -2.805022,0 -5.0790064,-2.2739 -5.0790064,-5.079 0,-2.805 2.2739844,-5.079 5.0790064,-5.079 2.805079,0 5.079007,2.274 5.079007,5.079 0,2.8051 -2.273928,5.079 -5.079007,5.079 z"
       style="fill:url(#linearGradient3669);fill-opacity:1;fill-rule:nonzero;stroke:none" />
    <path
       style="fill:#dcdcdc;fill-opacity:1"
       d="m 13.576829,1025.0811 c -0.396998,0 -0.361554,0.1008 -0.373896,0.2094 -0.004,0.035 -3.97e-4,0.1189 0,0.2094 3.86e-4,0.09 -0.004,0.189 0,0.2243 0.01234,0.1086 -0.0231,0.2094 0.373896,0.2094 0.396997,0 0.346591,-0.1008 0.358941,-0.2094 0.0023,-0.021 0.01366,-0.073 0.01496,-0.1196 l -0.224337,0 c -6.23e-4,0.024 7.65e-4,0.053 0,0.06 -0.0062,0.054 0.007,0.075 -0.149559,0.075 -0.156546,0 -0.158335,-0.021 -0.164514,-0.075 -0.002,-0.018 -1.92e-4,-0.1193 0,-0.1645 1.93e-4,-0.045 -0.002,-0.1319 0,-0.1496 0.0062,-0.054 0.008,-0.09 0.164514,-0.09 0.156554,0 0.143387,0.035 0.149559,0.09 8.61e-4,0.01 -6.23e-4,0.019 0,0.045 l 0.224337,0 c -0.0014,-0.048 -0.01257,-0.084 -0.01496,-0.1047 -0.01236,-0.1086 0.03806,-0.2094 -0.358941,-0.2094 z m 0.852484,0 c -0.396998,0 -0.346591,0.1008 -0.358941,0.2094 -0.004,0.035 -0.01535,0.1189 -0.01496,0.2094 3.86e-4,0.09 0.01096,0.189 0.01496,0.2243 0.01236,0.1086 -0.03806,0.2094 0.358941,0.2094 0.397003,0 0.361546,-0.1008 0.373896,-0.2094 0.004,-0.035 -3.73e-4,-0.1339 0,-0.2243 3.86e-4,-0.091 0.004,-0.174 0,-0.2094 -0.01236,-0.1086 0.02311,-0.2094 -0.373896,-0.2094 z m 3.619315,0 c -0.396997,0 -0.34659,0.1008 -0.35894,0.2094 -0.004,0.035 -0.01535,0.1189 -0.01496,0.2094 3.86e-4,0.09 0.01096,0.189 0.01496,0.2243 0.01236,0.1086 -0.03806,0.2094 0.35894,0.2094 0.397003,0 0.361547,-0.1008 0.373897,-0.2094 0.0023,-0.021 -0.0013,-0.073 0,-0.1196 l -0.209382,0 c -6.22e-4,0.024 7.66e-4,0.053 0,0.06 -0.0062,0.054 -0.008,0.075 -0.164515,0.075 -0.156546,0 -0.143386,-0.021 -0.149558,-0.075 -0.002,-0.018 -0.01515,-0.1193 -0.01496,-0.1645 1.93e-4,-0.045 0.01295,-0.1319 0.01496,-0.1496 0.0062,-0.054 -0.007,-0.09 0.149558,-0.09 0.156554,0 0.158342,0.035 0.164515,0.09 8.61e-4,0.01 -6.22e-4,0.019 0,0.045 l 0.209382,0 c -0.0014,-0.048 0.0024,-0.084 0,-0.1047 -0.01234,-0.1086 0.02311,-0.2094 -0.373897,-0.2094 z m -5.937472,0.015 c -0.0983,0 -0.164515,0.081 -0.164515,0.1795 l 0,0.7927 c 0,0.041 -0.03356,0.075 -0.07478,0.075 l -0.747792,0 c -0.288487,0 -0.523455,0.2349 -0.523455,0.5234 l 0,1.9891 c 0,0.2885 0.234968,0.5235 0.523455,0.5235 l 1.301159,0 0.329028,0 c 0.0983,0 0.164515,-0.081 0.164515,-0.1795 l 0,-3.724 c 0,-0.098 -0.06622,-0.1795 -0.164515,-0.1795 l -0.643101,0 z m 2.826656,0 0,0.8226 0.209381,0 0,-0.6132 0.209382,0.6132 0.209382,0 0.209382,-0.6132 0,0.6132 0.209382,0 0,-0.8226 -0.314073,0 -0.209382,0.6132 -0.209382,-0.6132 -0.314072,0 z m 1.211423,0 0,0.8226 0.209382,0 0,-0.1944 0.134603,0 c 0.397005,0 0.348919,-0.1006 0.35894,-0.2094 0.0017,-0.019 0.01497,-0.079 0.01496,-0.1047 0,-0.032 -0.01323,-0.092 -0.01496,-0.1047 -0.01461,-0.1083 0.03806,-0.2094 -0.35894,-0.2094 l -0.343985,0 z m 0.942219,0 -0.239294,0.8226 0.209382,0 0.05982,-0.1795 0.269205,0 0.04487,0.1795 0.209381,0 -0.239293,-0.8226 -0.314073,0 z m 1.375938,0 0,0.2094 0.194426,0 0,0.6132 0.209382,0 0,-0.6132 0.194426,0 0,-0.2094 -0.598234,0 z m -4.038079,0.1645 c 0.156553,0 0.158342,0.036 0.164514,0.09 0.002,0.018 -1.91e-4,0.1043 0,0.1495 1.93e-4,0.045 0.002,0.1469 0,0.1646 -0.0062,0.054 -0.008,0.075 -0.164514,0.075 -0.156547,0 -0.143387,-0.021 -0.149559,-0.075 -0.002,-0.018 -1.91e-4,-0.1193 0,-0.1646 2e-4,-0.045 -0.002,-0.1319 0,-0.1495 0.0062,-0.054 -0.007,-0.09 0.149559,-0.09 z m -2.243378,0.015 0.493543,0 c 0.0412,0 0.07478,0.034 0.07478,0.075 l 0,3.5745 c 0,0.041 -0.03359,0.075 -0.07478,0.075 l -0.254249,0 -1.301159,0 c -0.189242,0 -0.343985,-0.1548 -0.343985,-0.344 l 0,-1.9892 c 0,-0.1892 0.154744,-0.3439 0.343985,-0.3439 l 0.807616,0 c 0.0983,0 0.17947,-0.081 0.17947,-0.1795 l 0,-0.7927 c 0,-0.041 0.03358,-0.075 0.07478,-0.075 z m 5.070033,0 0.08974,0.329 -0.194426,0 0.104691,-0.329 z m -0.897351,0.015 0.134603,0 c 0.156525,0 0.14338,0.021 0.149559,0.075 0.002,0.018 -1.93e-4,-10e-5 0,0.045 1.91e-4,0.044 0.002,0.027 0,0.045 -0.0062,0.054 0.007,0.09 -0.149559,0.09 l -0.134603,0 0,-0.2542 z m -3.006126,0.8525 c -0.0983,0 -0.17947,0.081 -0.17947,0.1795 l 0,2.6771 c 0,0.098 0.08117,0.1794 0.17947,0.1794 l 0.314073,0 0.314073,0 c 0.09832,0 0.17947,-0.081 0.17947,-0.1794 l 0,-2.6771 c 0,-0.098 -0.08115,-0.1795 -0.17947,-0.1795 l -0.628146,0 z m 1.600276,0 c -0.288464,0 -0.508499,0.235 -0.508499,0.5235 l 0,0.8973 c 0,0.2885 0.220035,0.5235 0.508499,0.5235 l 0.717881,0 c 0.06524,0 0.119647,0.054 0.119647,0.1196 0,0.065 -0.05441,0.1047 -0.119647,0.1047 l -1.061865,0 c -0.0983,0 -0.17947,0.081 -0.17947,0.1795 l 0,0.5085 c 0,0.098 0.08117,0.1794 0.17947,0.1794 l 1.510541,-0.015 c 0.288464,0 0.523455,-0.22 0.523455,-0.5085 l 0,-0.9123 c 0,-0.2885 -0.234983,-0.5085 -0.523455,-0.5085 l -0.717881,0 c -0.06521,0 -0.119647,-0.054 -0.119647,-0.1197 0,-0.065 0.05444,-0.1196 0.119647,-0.1196 l 0.523455,0 0.433719,0 c 0.09829,0 0.179471,-0.081 0.179471,-0.1795 l 0,-0.4935 c 0,-0.098 -0.08114,-0.1795 -0.179471,-0.1795 l -1.40585,0 z m 2.45276,0 c -0.288494,0 -0.508499,0.235 -0.508499,0.5235 l 0,1.9891 c 0,0.2884 0.220012,0.5234 0.508499,0.5234 l 1.136645,0 c 0.288486,0 0.523454,-0.235 0.523454,-0.5234 l 0,-0.6281 c 0,-0.098 -0.08114,-0.1795 -0.17947,-0.1795 l -0.568322,0 c -0.0983,0 -0.17947,0.081 -0.17947,0.1795 l 0,0.3439 c 0,0.108 -0.05658,0.1944 -0.164515,0.1945 -0.107961,0 -0.149558,-0.086 -0.149558,-0.1945 l 0,-1.3909 c 0,-0.1079 0.0416,-0.1944 0.149558,-0.1944 0.107931,0 0.164515,0.087 0.164515,0.1944 l 0,0.3291 c 0,0.098 0.08117,0.1794 0.17947,0.1794 l 0.269205,0 0.299117,0 c 0.09833,0 0.17947,-0.081 0.17947,-0.1794 l 0,-0.6431 c 0,-0.2885 -0.23496,-0.5235 -0.523454,-0.5235 l -1.136645,0 z m -1.121689,0.1645 c 0.0412,0 0.07478,0.034 0.07478,0.075 l 0,0.359 c 0,0.041 -0.03355,0.075 -0.07478,0.075 l -0.35894,0 -0.523455,0 c -0.162211,0 -0.299117,0.1369 -0.299117,0.2991 7e-6,0.1623 0.136906,0.2991 0.299117,0.2991 l 0.717881,0 c 0.189219,0 0.343984,0.1399 0.343984,0.3291 l 0,0.9123 c 0,0.1892 -0.154765,0.344 -0.343984,0.344 l -1.435762,0 c -0.0412,0 -0.07478,-0.034 -0.07478,-0.075 l 0,-0.344 c 0,-0.041 0.03358,-0.075 0.07478,-0.075 l 0.987086,-0.015 c 0.162242,0 0.284161,-0.1219 0.284161,-0.2841 8e-6,-0.1623 -0.121919,-0.2991 -0.284161,-0.2991 l -0.717881,0 c -0.189219,0 -0.329028,-0.1548 -0.329028,-0.3441 l 0,-0.8973 c 0,-0.1892 0.139809,-0.344 0.329028,-0.344 l 1.331071,-0.015 z m -2.856567,0.015 0.478587,0 c 0.04122,0 0.07478,0.034 0.07478,0.075 l 0,2.5276 c 0,0.041 -0.03357,0.075 -0.07478,0.075 l -0.239294,0 -0.239293,0 c -0.04123,0 -0.07478,-0.034 -0.07478,-0.075 l 0,-2.5276 c 0,-0.041 0.03356,-0.075 0.07478,-0.075 z m 3.978256,0 1.136645,0 c 0.189249,0 0.343984,0.1548 0.343984,0.344 l 0,0.5683 c 0,0.041 -0.03356,0.075 -0.07478,0.075 l -0.224338,0 -0.194426,0 c -0.0412,0 -0.07478,-0.034 -0.07478,-0.075 l 0,-0.2542 c 0,-0.206 -0.137936,-0.3739 -0.343985,-0.3739 -0.206064,0 -0.329029,0.1679 -0.329029,0.3739 l 0,1.3909 c 0,0.2061 0.122965,0.3739 0.329029,0.3739 0.206042,0 0.343985,-0.1678 0.343985,-0.3739 l 0,-0.2692 c 0,-0.041 0.03358,-0.075 0.07478,-0.075 l 0.418764,0 c 0.04122,0 0.07478,0.034 0.07478,0.075 l 0,0.5534 c 0,0.1892 -0.154735,0.3439 -0.343984,0.3439 l -1.136645,0 c -0.189249,0 -0.329029,-0.1547 -0.329029,-0.3439 l 0,-1.9892 c 0,-0.1892 0.13978,-0.344 0.329029,-0.344 z m -5.653312,0.2842 c -0.206035,0 -0.373896,0.1679 -0.373896,0.3739 l 0,1.3909 c 0,0.2061 0.167862,0.3739 0.373896,0.3739 0.206071,0 0.358941,-0.1678 0.358941,-0.3739 l 0,-0.1047 0,-1.2862 c 0,-0.206 -0.152869,-0.3739 -0.358941,-0.3739 z m 0,0.1795 c 0.107961,0 0.194426,0.087 0.194426,0.1944 l 0,1.2862 0,0.1047 c 0,0.1079 -0.08647,0.1944 -0.194426,0.1944 -0.10793,0 -0.209382,-0.086 -0.209382,-0.1944 l 0,-1.3909 c 0,-0.1079 0.101459,-0.1944 0.209382,-0.1944 z"
       id="path2863" />
    <path
       style="fill:#505050;fill-opacity:1"
       d="m 13.576829,1024.9603 c -0.396998,0 -0.361554,0.1008 -0.373896,0.2094 -0.004,0.035 -3.97e-4,0.1189 0,0.2094 3.86e-4,0.09 -0.004,0.189 0,0.2243 0.01234,0.1086 -0.0231,0.2094 0.373896,0.2094 0.396997,0 0.346591,-0.1008 0.358941,-0.2094 0.0023,-0.021 0.01366,-0.073 0.01496,-0.1197 l -0.224337,0 c -6.23e-4,0.024 7.65e-4,0.053 0,0.06 -0.0062,0.054 0.007,0.075 -0.149559,0.075 -0.156546,0 -0.158335,-0.021 -0.164514,-0.075 -0.002,-0.018 -1.92e-4,-0.1193 0,-0.1645 1.93e-4,-0.045 -0.002,-0.1319 0,-0.1496 0.0062,-0.054 0.008,-0.09 0.164514,-0.09 0.156554,0 0.143387,0.035 0.149559,0.09 8.61e-4,0.01 -6.23e-4,0.019 0,0.045 l 0.224337,0 c -0.0014,-0.048 -0.01257,-0.083 -0.01496,-0.1047 -0.01236,-0.1085 0.03806,-0.2093 -0.358941,-0.2093 z m 0.852484,0 c -0.396998,0 -0.346591,0.1008 -0.358941,0.2094 -0.004,0.035 -0.01535,0.1189 -0.01496,0.2094 3.86e-4,0.09 0.01096,0.189 0.01496,0.2243 0.01236,0.1086 -0.03806,0.2094 0.358941,0.2094 0.397003,0 0.361546,-0.1008 0.373896,-0.2094 0.004,-0.035 -3.73e-4,-0.1339 0,-0.2243 3.86e-4,-0.091 0.004,-0.174 0,-0.2094 -0.01236,-0.1086 0.02311,-0.2094 -0.373896,-0.2094 z m 3.619315,0 c -0.396997,0 -0.34659,0.1008 -0.35894,0.2094 -0.004,0.035 -0.01535,0.1189 -0.01496,0.2094 3.86e-4,0.09 0.01096,0.189 0.01496,0.2243 0.01236,0.1086 -0.03806,0.2094 0.35894,0.2094 0.397003,0 0.361547,-0.1008 0.373897,-0.2094 0.0023,-0.021 -0.0013,-0.073 0,-0.1197 l -0.209382,0 c -6.22e-4,0.024 7.66e-4,0.053 0,0.06 -0.0062,0.054 -0.008,0.075 -0.164515,0.075 -0.156546,0 -0.143386,-0.021 -0.149558,-0.075 -0.002,-0.018 -0.01515,-0.1193 -0.01496,-0.1645 1.93e-4,-0.045 0.01295,-0.1319 0.01496,-0.1496 0.0062,-0.054 -0.007,-0.09 0.149558,-0.09 0.156554,0 0.158342,0.035 0.164515,0.09 8.61e-4,0.01 -6.22e-4,0.019 0,0.045 l 0.209382,0 c -0.0014,-0.048 0.0024,-0.083 0,-0.1047 -0.01234,-0.1085 0.02311,-0.2093 -0.373897,-0.2093 z m -5.937472,0.015 c -0.0983,0 -0.164515,0.081 -0.164515,0.1794 l 0,0.7927 c 0,0.041 -0.03356,0.075 -0.07478,0.075 l -0.747792,0 c -0.288487,0 -0.523455,0.2349 -0.523455,0.5234 l 0,1.9891 c 0,0.2885 0.234968,0.5235 0.523455,0.5235 l 1.301159,0 0.329028,0 c 0.0983,0 0.164515,-0.081 0.164515,-0.1794 l 0,-3.7241 c 0,-0.098 -0.06622,-0.1794 -0.164515,-0.1794 l -0.643101,0 z m 2.826656,0 0,0.8225 0.209381,0 0,-0.6132 0.209382,0.6132 0.209382,0 0.209382,-0.6132 0,0.6132 0.209382,0 0,-0.8225 -0.314073,0 -0.209382,0.6132 -0.209382,-0.6132 -0.314072,0 z m 1.211423,0 0,0.8225 0.209382,0 0,-0.1944 0.134603,0 c 0.397005,0 0.348919,-0.1006 0.35894,-0.2094 0.0017,-0.019 0.01497,-0.079 0.01496,-0.1046 0,-0.032 -0.01323,-0.092 -0.01496,-0.1048 -0.01461,-0.1083 0.03806,-0.2093 -0.35894,-0.2093 l -0.343985,0 z m 0.942219,0 -0.239294,0.8225 0.209382,0 0.05982,-0.1794 0.269205,0 0.04487,0.1794 0.209381,0 -0.239293,-0.8225 -0.314073,0 z m 1.375938,0 0,0.2093 0.194426,0 0,0.6132 0.209382,0 0,-0.6132 0.194426,0 0,-0.2093 -0.598234,0 z m -4.038079,0.1645 c 0.156553,0 0.158342,0.035 0.164514,0.09 0.002,0.018 -1.91e-4,0.1044 0,0.1496 1.93e-4,0.045 0.002,0.1468 0,0.1645 -0.0062,0.054 -0.008,0.075 -0.164514,0.075 -0.156547,0 -0.143387,-0.021 -0.149559,-0.075 -0.002,-0.018 -1.91e-4,-0.1193 0,-0.1645 2e-4,-0.045 -0.002,-0.1319 0,-0.1496 0.0062,-0.054 -0.007,-0.09 0.149559,-0.09 z m -2.243378,0.015 0.493543,0 c 0.0412,0 0.07478,0.034 0.07478,0.075 l 0,3.5745 c 0,0.041 -0.03359,0.075 -0.07478,0.075 l -0.254249,0 -1.301159,0 c -0.189242,0 -0.343985,-0.1548 -0.343985,-0.344 l 0,-1.9892 c 0,-0.1892 0.154744,-0.344 0.343985,-0.344 l 0.807616,0 c 0.0983,0 0.17947,-0.081 0.17947,-0.1794 l 0,-0.7927 c 0,-0.041 0.03358,-0.075 0.07478,-0.075 z m 5.070033,0 0.08974,0.3291 -0.194426,0 0.104691,-0.3291 z m -0.897351,0.015 0.134603,0 c 0.156525,0 0.14338,0.021 0.149559,0.075 0.002,0.018 -1.93e-4,-10e-5 0,0.045 1.91e-4,0.044 0.002,0.027 0,0.045 -0.0062,0.054 0.007,0.09 -0.149559,0.09 l -0.134603,0 0,-0.2542 z m -3.006126,0.8524 c -0.0983,0 -0.17947,0.081 -0.17947,0.1795 l 0,2.6771 c 0,0.098 0.08117,0.1795 0.17947,0.1795 l 0.314073,0 0.314073,0 c 0.09832,0 0.17947,-0.081 0.17947,-0.1795 l 0,-2.6771 c 0,-0.098 -0.08115,-0.1795 -0.17947,-0.1795 l -0.628146,0 z m 1.600276,0 c -0.288464,0 -0.508499,0.235 -0.508499,0.5235 l 0,0.8974 c 0,0.2884 0.220035,0.5234 0.508499,0.5234 l 0.717881,0 c 0.06524,0 0.119647,0.054 0.119647,0.1196 0,0.065 -0.05441,0.1047 -0.119647,0.1047 l -1.061865,0 c -0.0983,0 -0.17947,0.081 -0.17947,0.1795 l 0,0.5085 c 0,0.098 0.08117,0.1795 0.17947,0.1795 l 1.510541,-0.015 c 0.288464,0 0.523455,-0.22 0.523455,-0.5084 l 0,-0.9123 c 0,-0.2885 -0.234983,-0.5085 -0.523455,-0.5085 l -0.717881,0 c -0.06521,0 -0.119647,-0.054 -0.119647,-0.1197 0,-0.065 0.05444,-0.1196 0.119647,-0.1196 l 0.523455,0 0.433719,0 c 0.09829,0 0.179471,-0.081 0.179471,-0.1795 l 0,-0.4936 c 0,-0.098 -0.08114,-0.1794 -0.179471,-0.1794 l -1.40585,0 z m 2.45276,0 c -0.288494,0 -0.508499,0.235 -0.508499,0.5235 l 0,1.9891 c 0,0.2885 0.220012,0.5235 0.508499,0.5235 l 1.136645,0 c 0.288486,0 0.523454,-0.235 0.523454,-0.5235 l 0,-0.6281 c 0,-0.098 -0.08114,-0.1795 -0.17947,-0.1795 l -0.568322,0 c -0.0983,0 -0.17947,0.081 -0.17947,0.1795 l 0,0.344 c 0,0.1079 -0.05658,0.1943 -0.164515,0.1944 -0.107961,0 -0.149558,-0.087 -0.149558,-0.1944 l 0,-1.3909 c 0,-0.108 0.0416,-0.1945 0.149558,-0.1945 0.107931,0 0.164515,0.087 0.164515,0.1945 l 0,0.329 c 0,0.098 0.08117,0.1795 0.17947,0.1795 l 0.269205,0 0.299117,0 c 0.09833,0 0.17947,-0.081 0.17947,-0.1795 l 0,-0.6431 c 0,-0.2885 -0.23496,-0.5235 -0.523454,-0.5235 l -1.136645,0 z m -1.121689,0.1646 c 0.0412,0 0.07478,0.034 0.07478,0.075 l 0,0.359 c 0,0.041 -0.03355,0.075 -0.07478,0.075 l -0.35894,0 -0.523455,0 c -0.162211,0 -0.299117,0.1368 -0.299117,0.2991 7e-6,0.1622 0.136906,0.2991 0.299117,0.2991 l 0.717881,0 c 0.189219,0 0.343984,0.1398 0.343984,0.329 l 0,0.9123 c 0,0.1892 -0.154765,0.344 -0.343984,0.344 l -1.435762,0 c -0.0412,0 -0.07478,-0.034 -0.07478,-0.075 l 0,-0.3439 c 0,-0.041 0.03358,-0.075 0.07478,-0.075 l 0.987086,-0.015 c 0.162242,0 0.284161,-0.1219 0.284161,-0.2842 8e-6,-0.1622 -0.121919,-0.2991 -0.284161,-0.2991 l -0.717881,0 c -0.189219,0 -0.329028,-0.1547 -0.329028,-0.344 l 0,-0.8973 c 0,-0.1892 0.139809,-0.344 0.329028,-0.344 l 1.331071,-0.015 z m -2.856567,0.015 0.478587,0 c 0.04122,0 0.07478,0.034 0.07478,0.075 l 0,2.5275 c 0,0.041 -0.03357,0.075 -0.07478,0.075 l -0.239294,0 -0.239293,0 c -0.04123,0 -0.07478,-0.034 -0.07478,-0.075 l 0,-2.5275 c 0,-0.041 0.03356,-0.075 0.07478,-0.075 z m 3.978256,0 1.136645,0 c 0.189249,0 0.343984,0.1548 0.343984,0.344 l 0,0.5683 c 0,0.041 -0.03356,0.075 -0.07478,0.075 l -0.224338,0 -0.194426,0 c -0.0412,0 -0.07478,-0.034 -0.07478,-0.075 l 0,-0.2542 c 0,-0.2061 -0.137936,-0.3739 -0.343985,-0.3739 -0.206064,0 -0.329029,0.1678 -0.329029,0.3739 l 0,1.3909 c 0,0.2061 0.122965,0.3738 0.329029,0.3738 0.206042,0 0.343985,-0.1677 0.343985,-0.3738 l 0,-0.2692 c 0,-0.041 0.03358,-0.075 0.07478,-0.075 l 0.418764,0 c 0.04122,0 0.07478,0.034 0.07478,0.075 l 0,0.5533 c 0,0.1892 -0.154735,0.344 -0.343984,0.344 l -1.136645,0 c -0.189249,0 -0.329029,-0.1548 -0.329029,-0.344 l 0,-1.9891 c 0,-0.1892 0.13978,-0.344 0.329029,-0.344 z m -5.653312,0.2842 c -0.206035,0 -0.373896,0.1678 -0.373896,0.3739 l 0,1.3909 c 0,0.2061 0.167862,0.3738 0.373896,0.3738 0.206071,0 0.358941,-0.1677 0.358941,-0.3738 l 0,-0.1047 0,-1.2862 c 0,-0.2061 -0.152869,-0.3739 -0.358941,-0.3739 z m 0,0.1795 c 0.107961,0 0.194426,0.086 0.194426,0.1944 l 0,1.2862 0,0.1047 c 0,0.1079 -0.08647,0.1944 -0.194426,0.1944 -0.10793,0 -0.209382,-0.087 -0.209382,-0.1944 l 0,-1.3909 c 0,-0.108 0.101459,-0.1944 0.209382,-0.1944 z"
       id="path2865" />
    <path
       id="path2867"
       d="m 13.576829,1025.0207 c -0.396998,0 -0.361554,0.1008 -0.373896,0.2094 -0.004,0.035 -3.97e-4,0.1189 0,0.2093 3.86e-4,0.091 -0.004,0.1891 0,0.2244 0.01234,0.1086 -0.0231,0.2094 0.373896,0.2094 0.396997,0 0.346591,-0.1008 0.358941,-0.2094 0.0023,-0.021 0.01366,-0.073 0.01496,-0.1197 l -0.224337,0 c -6.23e-4,0.024 7.65e-4,0.053 0,0.06 -0.0062,0.054 0.007,0.075 -0.149559,0.075 -0.156546,0 -0.158335,-0.021 -0.164514,-0.075 -0.002,-0.018 -1.92e-4,-0.1193 0,-0.1646 1.93e-4,-0.045 -0.002,-0.1319 0,-0.1495 0.0062,-0.054 0.008,-0.09 0.164514,-0.09 0.156554,0 0.143387,0.036 0.149559,0.09 8.61e-4,0.01 -6.23e-4,0.019 0,0.045 l 0.224337,0 c -0.0014,-0.049 -0.01257,-0.084 -0.01496,-0.1046 -0.01236,-0.1086 0.03806,-0.2094 -0.358941,-0.2094 z m 0.852484,0 c -0.396998,0 -0.346591,0.1008 -0.358941,0.2094 -0.004,0.035 -0.01535,0.1189 -0.01496,0.2093 3.86e-4,0.091 0.01096,0.1891 0.01496,0.2244 0.01236,0.1086 -0.03806,0.2094 0.358941,0.2094 0.397003,0 0.361546,-0.1008 0.373896,-0.2094 0.004,-0.035 -3.73e-4,-0.1339 0,-0.2244 3.86e-4,-0.09 0.004,-0.174 0,-0.2093 -0.01236,-0.1086 0.02311,-0.2094 -0.373896,-0.2094 z m 3.619315,0 c -0.396997,0 -0.34659,0.1008 -0.35894,0.2094 -0.004,0.035 -0.01535,0.1189 -0.01496,0.2093 3.86e-4,0.091 0.01096,0.1891 0.01496,0.2244 0.01236,0.1086 -0.03806,0.2094 0.35894,0.2094 0.397003,0 0.361547,-0.1008 0.373897,-0.2094 0.0023,-0.021 -0.0013,-0.073 0,-0.1197 l -0.209382,0 c -6.22e-4,0.024 7.66e-4,0.053 0,0.06 -0.0062,0.054 -0.008,0.075 -0.164515,0.075 -0.156546,0 -0.143386,-0.021 -0.149558,-0.075 -0.002,-0.018 -0.01515,-0.1193 -0.01496,-0.1646 1.93e-4,-0.045 0.01295,-0.1319 0.01496,-0.1495 0.0062,-0.054 -0.007,-0.09 0.149558,-0.09 0.156554,0 0.158342,0.036 0.164515,0.09 8.61e-4,0.01 -6.22e-4,0.019 0,0.045 l 0.209382,0 c -0.0014,-0.049 0.0024,-0.084 0,-0.1046 -0.01234,-0.1086 0.02311,-0.2094 -0.373897,-0.2094 z m -5.937472,0.015 c -0.0983,0 -0.164515,0.081 -0.164515,0.1795 l 0,0.7927 c 0,0.041 -0.03356,0.075 -0.07478,0.075 l -0.747792,0 c -0.288487,0 -0.523455,0.235 -0.523455,0.5235 l 0,1.9891 c 0,0.2885 0.234968,0.5235 0.523455,0.5235 l 1.301159,0 0.329028,0 c 0.0983,0 0.164515,-0.081 0.164515,-0.1795 l 0,-3.724 c 0,-0.098 -0.06622,-0.1795 -0.164515,-0.1795 l -0.643101,0 z m 2.826656,0 0,0.8226 0.209381,0 0,-0.6132 0.209382,0.6132 0.209382,0 0.209382,-0.6132 0,0.6132 0.209382,0 0,-0.8226 -0.314073,0 -0.209382,0.6132 -0.209382,-0.6132 -0.314072,0 z m 1.211423,0 0,0.8226 0.209382,0 0,-0.1944 0.134603,0 c 0.397005,0 0.348919,-0.1006 0.35894,-0.2094 0.0017,-0.019 0.01497,-0.079 0.01496,-0.1047 0,-0.032 -0.01323,-0.092 -0.01496,-0.1047 -0.01461,-0.1083 0.03806,-0.2094 -0.35894,-0.2094 l -0.343985,0 z m 0.942219,0 -0.239294,0.8226 0.209382,0 0.05982,-0.1795 0.269205,0 0.04487,0.1795 0.209381,0 -0.239293,-0.8226 -0.314073,0 z m 1.375938,0 0,0.2094 0.194426,0 0,0.6132 0.209382,0 0,-0.6132 0.194426,0 0,-0.2094 -0.598234,0 z m -4.038079,0.1645 c 0.156553,0 0.158342,0.036 0.164514,0.09 0.002,0.018 -1.91e-4,0.1043 0,0.1495 1.93e-4,0.045 0.002,0.1469 0,0.1646 -0.0062,0.054 -0.008,0.075 -0.164514,0.075 -0.156547,0 -0.143387,-0.021 -0.149559,-0.075 -0.002,-0.018 -1.91e-4,-0.1193 0,-0.1646 2e-4,-0.045 -0.002,-0.1319 0,-0.1495 0.0062,-0.054 -0.007,-0.09 0.149559,-0.09 z m -2.243378,0.015 0.493543,0 c 0.0412,0 0.07478,0.034 0.07478,0.075 l 0,3.5744 c 0,0.041 -0.03359,0.075 -0.07478,0.075 l -0.254249,0 -1.301159,0 c -0.189242,0 -0.343985,-0.1547 -0.343985,-0.344 l 0,-1.9891 c 0,-0.1893 0.154744,-0.344 0.343985,-0.344 l 0.807616,0 c 0.0983,0 0.17947,-0.081 0.17947,-0.1795 l 0,-0.7926 c 0,-0.041 0.03358,-0.075 0.07478,-0.075 z m 5.070033,0 0.08974,0.329 -0.194426,0 0.104691,-0.329 z m -0.897351,0.015 0.134603,0 c 0.156525,0 0.14338,0.02 0.149559,0.075 0.002,0.018 -1.93e-4,-10e-5 0,0.045 1.91e-4,0.044 0.002,0.027 0,0.045 -0.0062,0.054 0.007,0.09 -0.149559,0.09 l -0.134603,0 0,-0.2542 z m -3.006126,0.8524 c -0.0983,0 -0.17947,0.081 -0.17947,0.1795 l 0,2.6771 c 0,0.098 0.08117,0.1795 0.17947,0.1795 l 0.314073,0 0.314073,0 c 0.09832,0 0.17947,-0.081 0.17947,-0.1795 l 0,-2.6771 c 0,-0.098 -0.08115,-0.1795 -0.17947,-0.1795 l -0.628146,0 z m 1.600276,0 c -0.288464,0 -0.508499,0.235 -0.508499,0.5235 l 0,0.8973 c 0,0.2885 0.220035,0.5235 0.508499,0.5235 l 0.717881,0 c 0.06524,0 0.119647,0.054 0.119647,0.1196 0,0.065 -0.05441,0.1047 -0.119647,0.1047 l -1.061865,0 c -0.0983,0 -0.17947,0.081 -0.17947,0.1795 l 0,0.5085 c 0,0.098 0.08117,0.1795 0.17947,0.1795 l 1.510541,-0.015 c 0.288464,0 0.523455,-0.22 0.523455,-0.5085 l 0,-0.9123 c 0,-0.2884 -0.234983,-0.5085 -0.523455,-0.5085 l -0.717881,0 c -0.06521,0 -0.119647,-0.054 -0.119647,-0.1196 0,-0.065 0.05444,-0.1197 0.119647,-0.1197 l 0.523455,0 0.433719,0 c 0.09829,0 0.179471,-0.081 0.179471,-0.1794 l 0,-0.4936 c 0,-0.098 -0.08114,-0.1795 -0.179471,-0.1795 l -1.40585,0 z m 2.45276,0 c -0.288494,0 -0.508499,0.235 -0.508499,0.5235 l 0,1.9891 c 0,0.2885 0.220012,0.5235 0.508499,0.5235 l 1.136645,0 c 0.288486,0 0.523454,-0.235 0.523454,-0.5235 l 0,-0.6281 c 0,-0.098 -0.08114,-0.1795 -0.17947,-0.1795 l -0.568322,0 c -0.0983,0 -0.17947,0.081 -0.17947,0.1795 l 0,0.344 c 0,0.1079 -0.05658,0.1943 -0.164515,0.1944 -0.107961,0 -0.149558,-0.087 -0.149558,-0.1944 l 0,-1.3909 c 0,-0.108 0.0416,-0.1945 0.149558,-0.1945 0.107931,0 0.164515,0.087 0.164515,0.1945 l 0,0.329 c 0,0.098 0.08117,0.1795 0.17947,0.1795 l 0.269205,0 0.299117,0 c 0.09833,0 0.17947,-0.081 0.17947,-0.1795 l 0,-0.6431 c 0,-0.2885 -0.23496,-0.5235 -0.523454,-0.5235 l -1.136645,0 z m -1.121689,0.1646 c 0.0412,0 0.07478,0.034 0.07478,0.075 l 0,0.359 c 0,0.041 -0.03355,0.075 -0.07478,0.075 l -0.35894,0 -0.523455,0 c -0.162211,0 -0.299117,0.1368 -0.299117,0.2991 7e-6,0.1622 0.136906,0.2991 0.299117,0.2991 l 0.717881,0 c 0.189219,0 0.343984,0.1398 0.343984,0.329 l 0,0.9123 c 0,0.1893 -0.154765,0.344 -0.343984,0.344 l -1.435762,0 c -0.0412,0 -0.07478,-0.034 -0.07478,-0.075 l 0,-0.344 c 0,-0.041 0.03358,-0.075 0.07478,-0.075 l 0.987086,-0.015 c 0.162242,0 0.284161,-0.1219 0.284161,-0.2842 8e-6,-0.1622 -0.121919,-0.2991 -0.284161,-0.2991 l -0.717881,0 c -0.189219,0 -0.329028,-0.1547 -0.329028,-0.344 l 0,-0.8973 c 0,-0.1892 0.139809,-0.344 0.329028,-0.344 l 1.331071,-0.015 z m -2.856567,0.015 0.478587,0 c 0.04122,0 0.07478,0.034 0.07478,0.075 l 0,2.5275 c 0,0.041 -0.03357,0.075 -0.07478,0.075 l -0.239294,0 -0.239293,0 c -0.04123,0 -0.07478,-0.034 -0.07478,-0.075 l 0,-2.5275 c 0,-0.041 0.03356,-0.075 0.07478,-0.075 z m 3.978256,0 1.136645,0 c 0.189249,0 0.343984,0.1548 0.343984,0.344 l 0,0.5683 c 0,0.041 -0.03356,0.075 -0.07478,0.075 l -0.224338,0 -0.194426,0 c -0.0412,0 -0.07478,-0.034 -0.07478,-0.075 l 0,-0.2542 c 0,-0.2061 -0.137936,-0.3739 -0.343985,-0.3739 -0.206064,0 -0.329029,0.1678 -0.329029,0.3739 l 0,1.3909 c 0,0.206 0.122965,0.3739 0.329029,0.3739 0.206042,0 0.343985,-0.1679 0.343985,-0.3739 l 0,-0.2692 c 0,-0.041 0.03358,-0.075 0.07478,-0.075 l 0.418764,0 c 0.04122,0 0.07478,0.034 0.07478,0.075 l 0,0.5533 c 0,0.1893 -0.154735,0.344 -0.343984,0.344 l -1.136645,0 c -0.189249,0 -0.329029,-0.1547 -0.329029,-0.344 l 0,-1.9891 c 0,-0.1892 0.13978,-0.344 0.329029,-0.344 z m -5.653312,0.2842 c -0.206035,0 -0.373896,0.1678 -0.373896,0.3739 l 0,1.3909 c 0,0.206 0.167862,0.3739 0.373896,0.3739 0.206071,0 0.358941,-0.1679 0.358941,-0.3739 l 0,-0.1047 0,-1.2862 c 0,-0.2061 -0.152869,-0.3739 -0.358941,-0.3739 z m 0,0.1794 c 0.107961,0 0.194426,0.087 0.194426,0.1945 l 0,1.2862 0,0.1047 c 0,0.1079 -0.08647,0.1944 -0.194426,0.1944 -0.10793,0 -0.209382,-0.087 -0.209382,-0.1944 l 0,-1.3909 c 0,-0.108 0.101459,-0.1945 0.209382,-0.1945 z"
       style="fill:#969696;fill-opacity:1" />
    <path
       style="fill:#505050;fill-opacity:0.47058824;fill-rule:nonzero;stroke:#787878;stroke-width:0.16930023000000000;stroke-miterlimit:4;stroke-opacity:1;stroke-dasharray:none"
       d="m 14.83312,1006.8555 c -6.8568078,0 -12.4153498,5.5585 -12.4153498,12.4153 0,6.8568 5.558542,12.4154 12.4153498,12.4154 6.856809,0 12.41535,-5.5586 12.41535,-12.4154 0,-6.8568 -5.558541,-12.4153 -12.41535,-12.4153 z m 0,7.3363 c 2.805059,0 5.079007,2.274 5.079007,5.079 0,2.8051 -2.273948,5.079 -5.079007,5.079 -2.805058,0 -5.0790058,-2.2739 -5.0790058,-5.079 0,-2.805 2.2739478,-5.079 5.0790058,-5.079 z"
       id="path2883" />
    <path
       style="fill:#dcdcdc;fill-opacity:0.47058824;fill-rule:nonzero;stroke:#787878;stroke-width:0.23702033;stroke-miterlimit:4;stroke-opacity:1;stroke-dasharray:none"
       d="m 28.166879,1015.072 c -9.599532,0 -17.38149,7.782 -17.38149,17.3815 0,9.5996 7.781958,17.3815 17.38149,17.3815 9.599532,0 17.38149,-7.7819 17.38149,-17.3815 0,-9.5995 -7.781958,-17.3815 -17.38149,-17.3815 z m 0,10.2709 c 3.927082,0 7.11061,3.1835 7.11061,7.1106 0,3.9271 -3.183528,7.1106 -7.11061,7.1106 -3.927081,0 -7.110609,-3.1835 -7.110609,-7.1106 0,-3.9271 3.183528,-7.1106 7.110609,-7.1106 z"
       id="path2816" />
    <path
       style="fill:#969696;fill-opacity:0.78431374;fill-rule:nonzero;stroke:none"
       d="m 28.166879,1015.8621 c -9.163189,0 -16.591422,7.4282 -16.591422,16.5914 0,9.1632 7.428233,16.5914 16.591422,16.5914 9.16319,0 16.591422,-7.4282 16.591422,-16.5914 0,-9.1632 -7.428232,-16.5914 -16.591422,-16.5914 z m 0,9.4808 c 3.927082,0 7.11061,3.1835 7.11061,7.1106 0,3.9271 -3.183528,7.1106 -7.11061,7.1106 -3.927081,0 -7.110609,-3.1835 -7.110609,-7.1106 0,-3.9271 3.183528,-7.1106 7.110609,-7.1106 z"
       id="path3617" />
    <path
       style="fill:#f0f0f0;fill-opacity:0.39215686;fill-rule:nonzero;stroke:none"
       d="m 28.166879,1025.343 c -3.927081,0 -7.110609,3.1835 -7.110609,7.1106 0,3.927 3.183528,7.1106 7.110609,7.1106 3.927082,0 7.11061,-3.1836 7.11061,-7.1106 0,-3.9271 -3.183528,-7.1106 -7.11061,-7.1106 z m 0,2.3702 c 2.618055,0 4.740406,2.1223 4.740406,4.7404 0,2.618 -2.122351,4.7404 -4.740406,4.7404 -2.618054,0 -4.740406,-2.1224 -4.740406,-4.7404 0,-2.6181 2.122352,-4.7404 4.740406,-4.7404 z"
       id="path3590" />
    <path
       style="fill:#c8c8c8;fill-opacity:0.39215686;fill-rule:nonzero;stroke:none"
       d="m 28.166879,1027.7132 c -2.618054,0 -4.740406,2.1223 -4.740406,4.7404 0,2.618 2.122352,4.7404 4.740406,4.7404 2.618055,0 4.740406,-2.1224 4.740406,-4.7404 0,-2.6181 -2.122351,-4.7404 -4.740406,-4.7404 z m 0,1.9751 c 1.527199,0 2.765237,1.2381 2.765237,2.7653 0,1.5272 -1.238038,2.7652 -2.765237,2.7652 -1.527198,0 -2.765237,-1.238 -2.765237,-2.7652 0,-1.5272 1.238039,-2.7653 2.765237,-2.7653 z"
       id="path3608" />
    <path
       sodipodi:type="arc"
       style="fill:none;stroke:#787878;stroke-width:1.91897655;stroke-miterlimit:4;stroke-opacity:1;stroke-dasharray:none"
       id="path3606"
       sodipodi:cx="25.714285"
       sodipodi:cy="24.964285"
       sodipodi:rx="21.428572"
       sodipodi:ry="21.428572"
       d="m 47.142857,24.964285 a 21.428572,21.428572 0 1 1 -42.8571438,0 21.428572,21.428572 0 1 1 42.8571438,0 z"
       transform="matrix(0.12351392,0,0,0.12351392,24.990807,1029.3702)" />
    <path
       style="fill:url(#linearGradient2882);fill-opacity:1;fill-rule:nonzero;stroke:none"
       d="m 28.166879,1048.6531 c 7.582359,0 13.939165,-5.2105 15.702596,-12.246 l -2.863995,0 c -2.181693,0 -3.950339,-1.7687 -3.950339,-3.9504 0,-2.1817 1.768646,-3.9503 3.950339,-3.9503 l 2.863995,0 c -1.763431,-7.0356 -8.120237,-12.2461 -15.702596,-12.2461 -0.279526,0 -0.563397,-0.014 -0.839447,0 -7.212923,0.3657 -13.165609,5.4685 -14.863149,12.2461 l 3.357788,0 c 2.181772,0 3.950339,1.7686 3.950339,3.9503 0,2.1817 -1.768567,3.9504 -3.950339,3.9504 l -3.357788,0 c 1.770779,7.0252 8.127743,12.246 15.702596,12.246 z m 0,-9.0858 c -3.927031,0 -7.110609,-3.1835 -7.110609,-7.1106 0,-3.927 3.183578,-7.1106 7.110609,-7.1106 3.927111,0 7.11061,3.1836 7.11061,7.1106 0,3.9271 -3.183499,7.1106 -7.11061,7.1106 z"
       id="path3967" />
    <path
       id="path3932"
       d="m 26.408071,1040.588 c -0.555796,0 -0.506175,0.1411 -0.523454,0.2931 -0.0056,0.05 -5.56e-4,0.1665 0,0.2931 5.4e-4,0.1267 -0.0056,0.2647 0,0.3141 0.01727,0.1521 -0.03234,0.2932 0.523454,0.2932 0.555796,0 0.485228,-0.1411 0.502517,-0.2932 0.0033,-0.029 0.01912,-0.1015 0.02094,-0.1675 l -0.314073,0 c -8.71e-4,0.034 0.0011,0.074 0,0.084 -0.0086,0.076 0.0098,0.1046 -0.209382,0.1046 -0.219164,0 -0.221668,-0.029 -0.23032,-0.1046 -0.0028,-0.025 -2.68e-4,-0.167 0,-0.2304 2.7e-4,-0.063 -0.0028,-0.1846 0,-0.2093 0.0086,-0.076 0.01116,-0.1257 0.23032,-0.1257 0.219175,0 0.200742,0.05 0.209382,0.1257 0.0012,0.01 -8.71e-4,0.027 0,0.063 l 0.314073,0 c -0.0019,-0.068 -0.0176,-0.1169 -0.02094,-0.1466 -0.0173,-0.152 0.05328,-0.2931 -0.502517,-0.2931 z m 1.193477,0 c -0.555796,0 -0.485226,0.1411 -0.502516,0.2931 -0.0056,0.05 -0.0215,0.1665 -0.02094,0.2931 5.41e-4,0.1267 0.01534,0.2647 0.02094,0.3141 0.01731,0.1521 -0.05328,0.2932 0.502516,0.2932 0.555805,0 0.506165,-0.1411 0.523455,-0.2932 0.0056,-0.05 -5.23e-4,-0.1874 0,-0.3141 5.4e-4,-0.1266 0.0056,-0.2436 0,-0.2931 -0.0173,-0.152 0.03235,-0.2931 -0.523455,-0.2931 z m 5.067042,0 c -0.555796,0 -0.485226,0.1411 -0.502516,0.2931 -0.0056,0.05 -0.02149,0.1665 -0.02094,0.2931 5.4e-4,0.1267 0.01534,0.2647 0.02094,0.3141 0.0173,0.1521 -0.05328,0.2932 0.502516,0.2932 0.555804,0 0.506166,-0.1411 0.523455,-0.2932 0.0033,-0.029 -0.0018,-0.1015 0,-0.1675 l -0.293135,0 c -8.71e-4,0.034 0.0011,0.074 0,0.084 -0.0087,0.076 -0.01116,0.1046 -0.23032,0.1046 -0.219165,0 -0.20074,-0.029 -0.209382,-0.1046 -0.0028,-0.025 -0.02121,-0.167 -0.02094,-0.2304 2.7e-4,-0.063 0.01812,-0.1846 0.02094,-0.2093 0.0087,-0.076 -0.0098,-0.1257 0.209382,-0.1257 0.219175,0 0.221679,0.05 0.23032,0.1257 0.0012,0.01 -8.71e-4,0.027 0,0.063 l 0.293135,0 c -0.0019,-0.068 0.0033,-0.1169 0,-0.1466 -0.01727,-0.152 0.03235,-0.2931 -0.523455,-0.2931 z m -8.312461,0.021 c -0.137614,0 -0.23032,0.1137 -0.23032,0.2513 l 0,1.1097 c 0,0.058 -0.04699,0.1047 -0.104691,0.1047 l -1.04691,0 c -0.403882,0 -0.732837,0.3289 -0.732837,0.7328 l 0,2.7848 c 0,0.4038 0.328955,0.7328 0.732837,0.7328 l 1.821623,0 0.46064,0 c 0.137614,0 0.23032,-0.1136 0.23032,-0.2512 l 0,-5.2136 c 0,-0.1376 -0.09271,-0.2513 -0.23032,-0.2513 l -0.900342,0 z m 3.957318,0 0,1.1516 0.293134,0 0,-0.8584 0.293135,0.8584 0.293135,0 0.293134,-0.8584 0,0.8584 0.293135,0 0,-1.1516 -0.439702,0 -0.293135,0.8585 -0.293134,-0.8585 -0.439702,0 z m 1.695993,0 0,1.1516 0.293135,0 0,-0.2722 0.188444,0 c 0.555806,0 0.488486,-0.1407 0.502516,-0.2931 0.0024,-0.026 0.02095,-0.1104 0.02094,-0.1466 0,-0.045 -0.01853,-0.1284 -0.02094,-0.1465 -0.02046,-0.1517 0.05329,-0.2932 -0.502516,-0.2932 l -0.481579,0 z m 1.319106,0 -0.335011,1.1516 0.293135,0 0.08375,-0.2513 0.376887,0 0.06282,0.2513 0.293134,0 -0.335011,-1.1516 -0.439702,0 z m 1.926314,0 0,0.2932 0.272196,0 0,0.8584 0.293135,0 0,-0.8584 0.272196,0 0,-0.2932 -0.837527,0 z m -5.653312,0.2303 c 0.219175,0 0.22168,0.05 0.23032,0.1257 0.0028,0.025 -2.68e-4,0.146 0,0.2093 2.7e-4,0.063 0.0028,0.2057 0,0.2304 -0.0086,0.076 -0.01116,0.1046 -0.23032,0.1046 -0.219165,0 -0.20074,-0.029 -0.209382,-0.1046 -0.0028,-0.025 -2.68e-4,-0.167 0,-0.2304 2.8e-4,-0.063 -0.0028,-0.1846 0,-0.2093 0.0086,-0.076 -0.0098,-0.1257 0.209382,-0.1257 z m -3.140728,0.021 0.69096,0 c 0.05767,0 0.104691,0.047 0.104691,0.1047 l 0,5.0042 c 0,0.058 -0.04702,0.1047 -0.104691,0.1047 l -0.355949,0 -1.821623,0 c -0.264938,0 -0.481578,-0.2166 -0.481578,-0.4816 l 0,-2.7848 c 0,-0.265 0.216641,-0.4815 0.481578,-0.4815 l 1.130662,0 c 0.137614,0 0.251259,-0.1137 0.251259,-0.2513 l 0,-1.1097 c 0,-0.058 0.04702,-0.1047 0.104691,-0.1047 z m 7.098046,0 0.125629,0.4606 -0.272196,0 0.146567,-0.4606 z m -1.256291,0.021 0.188444,0 c 0.219134,0 0.200731,0.029 0.209381,0.1047 0.0028,0.025 -2.7e-4,-2e-4 0,0.063 2.68e-4,0.061 0.0028,0.038 0,0.063 -0.0086,0.076 0.0098,0.1256 -0.209381,0.1256 l -0.188444,0 0,-0.356 z m -4.208576,1.1935 c -0.137614,0 -0.251259,0.1136 -0.251259,0.2512 l 0,3.7479 c 0,0.1377 0.113642,0.2513 0.251259,0.2513 l 0.439702,0 0.439702,0 c 0.137645,0 0.251258,-0.1136 0.251258,-0.2513 l 0,-3.7479 c 0,-0.1376 -0.113613,-0.2512 -0.251258,-0.2512 l -0.879404,0 z m 2.240386,0 c -0.40385,0 -0.711899,0.3289 -0.711899,0.7328 l 0,1.2563 c 0,0.4039 0.308049,0.7328 0.711899,0.7328 l 1.005033,0 c 0.09133,0 0.167506,0.076 0.167506,0.1675 0,0.091 -0.07618,0.1466 -0.167506,0.1466 l -1.486611,0 c -0.137625,0 -0.251259,0.1135 -0.251259,0.2512 l 0,0.7119 c 0,0.1377 0.113642,0.2513 0.251259,0.2513 l 2.114757,-0.021 c 0.40385,0 0.732836,-0.308 0.732836,-0.7119 l 0,-1.2772 c 0,-0.4039 -0.328976,-0.7119 -0.732836,-0.7119 l -1.005033,0 c -0.09129,0 -0.167506,-0.076 -0.167506,-0.1675 0,-0.091 0.07622,-0.1675 0.167506,-0.1675 l 0.732836,0 0.607208,0 c 0.137604,0 0.251258,-0.1137 0.251258,-0.2513 l 0,-0.6909 c 0,-0.1377 -0.113602,-0.2513 -0.251258,-0.2513 l -1.96819,0 z m 3.433863,0 c -0.403892,0 -0.711898,0.3289 -0.711898,0.7328 l 0,2.7848 c 0,0.4038 0.308017,0.7328 0.711898,0.7328 l 1.591303,0 c 0.403881,0 0.732836,-0.329 0.732836,-0.7328 l 0,-0.8794 c 0,-0.1376 -0.113602,-0.2513 -0.251258,-0.2513 l -0.795651,0 c -0.137614,0 -0.251258,0.1137 -0.251258,0.2513 l 0,0.4815 c 0,0.1512 -0.07921,0.2722 -0.230321,0.2723 -0.151145,0 -0.209381,-0.1211 -0.209381,-0.2723 l 0,-1.9472 c 0,-0.1511 0.05824,-0.2722 0.209381,-0.2722 0.151103,0 0.230321,0.1211 0.230321,0.2722 l 0,0.4607 c 0,0.1376 0.113633,0.2512 0.251258,0.2512 l 0.376887,0 0.418764,0 c 0.137656,0 0.251258,-0.1136 0.251258,-0.2512 l 0,-0.9004 c 0,-0.4039 -0.328944,-0.7328 -0.732836,-0.7328 l -1.591303,0 z m -1.570364,0.2303 c 0.05768,0 0.104691,0.047 0.104691,0.1047 l 0,0.5025 c 0,0.058 -0.04697,0.1047 -0.104691,0.1047 l -0.502517,0 -0.732836,0 c -0.227096,0 -0.418764,0.1916 -0.418764,0.4187 10e-6,0.2272 0.191668,0.4188 0.418764,0.4188 l 1.005033,0 c 0.264906,0 0.481578,0.1958 0.481578,0.4606 l 0,1.2773 c 0,0.2649 -0.216672,0.4815 -0.481578,0.4815 l -2.010067,0 c -0.05767,0 -0.10469,-0.047 -0.10469,-0.1046 l 0,-0.4816 c 0,-0.058 0.04702,-0.1047 0.10469,-0.1047 l 1.381921,-0.021 c 0.227138,0 0.397826,-0.1706 0.397826,-0.3978 10e-6,-0.2271 -0.170688,-0.4187 -0.397826,-0.4187 l -1.005033,0 c -0.264907,0 -0.46064,-0.2167 -0.46064,-0.4816 l 0,-1.2563 c 0,-0.2649 0.195733,-0.4816 0.46064,-0.4816 l 1.863499,-0.021 z m -3.999195,0.021 0.670023,0 c 0.05771,0 0.104691,0.047 0.104691,0.1047 l 0,3.5386 c 0,0.058 -0.047,0.1046 -0.104691,0.1046 l -0.335011,0 -0.335012,0 c -0.05773,0 -0.10469,-0.047 -0.10469,-0.1046 l 0,-3.5386 c 0,-0.058 0.04699,-0.1047 0.10469,-0.1047 z m 5.569559,0 1.591303,0 c 0.264949,0 0.481578,0.2167 0.481578,0.4816 l 0,0.7956 c 0,0.058 -0.04698,0.1048 -0.104691,0.1048 l -0.314073,0 -0.272196,0 c -0.05768,0 -0.104691,-0.047 -0.104691,-0.1048 l 0,-0.3559 c 0,-0.2884 -0.19311,-0.5235 -0.481579,-0.5235 -0.28849,0 -0.46064,0.2351 -0.46064,0.5235 l 0,1.9472 c 0,0.2885 0.172151,0.5235 0.46064,0.5235 0.288458,0 0.481579,-0.235 0.481579,-0.5235 l 0,-0.3769 c 0,-0.058 0.04701,-0.1046 0.104691,-0.1046 l 0.586269,0 c 0.05771,0 0.104691,0.047 0.104691,0.1046 l 0,0.7748 c 0,0.2649 -0.216629,0.4815 -0.481578,0.4815 l -1.591303,0 c -0.264949,0 -0.46064,-0.2166 -0.46064,-0.4815 l 0,-2.7848 c 0,-0.2649 0.195691,-0.4816 0.46064,-0.4816 z m -7.914636,0.3978 c -0.288449,0 -0.523455,0.2351 -0.523455,0.5235 l 0,1.9472 c 0,0.2885 0.235007,0.5235 0.523455,0.5235 0.2885,0 0.502517,-0.235 0.502517,-0.5235 l 0,-0.1465 0,-1.8007 c 0,-0.2884 -0.214017,-0.5235 -0.502517,-0.5235 z m 0,0.2513 c 0.151146,0 0.272197,0.1211 0.272197,0.2722 l 0,1.8007 0,0.1465 c 0,0.1511 -0.121051,0.2723 -0.272197,0.2723 -0.151103,0 -0.293135,-0.1212 -0.293135,-0.2723 l 0,-1.9472 c 0,-0.1511 0.142042,-0.2722 0.293135,-0.2722 z"
       style="fill:#dcdcdc;fill-opacity:1" />
    <path
       id="path3930"
       d="m 26.408071,1040.4189 c -0.555796,0 -0.506175,0.1411 -0.523454,0.2931 -0.0056,0.05 -5.56e-4,0.1665 0,0.2931 5.4e-4,0.1267 -0.0056,0.2646 0,0.3141 0.01727,0.152 -0.03234,0.2931 0.523454,0.2931 0.555796,0 0.485228,-0.1411 0.502517,-0.2931 0.0033,-0.029 0.01912,-0.1016 0.02094,-0.1675 l -0.314073,0 c -8.71e-4,0.034 0.0011,0.074 0,0.084 -0.0086,0.076 0.0098,0.1047 -0.209382,0.1047 -0.219164,0 -0.221668,-0.029 -0.23032,-0.1047 -0.0028,-0.025 -2.68e-4,-0.167 0,-0.2303 2.7e-4,-0.063 -0.0028,-0.1846 0,-0.2094 0.0086,-0.076 0.01116,-0.1256 0.23032,-0.1256 0.219175,0 0.200742,0.05 0.209382,0.1256 0.0012,0.01 -8.71e-4,0.027 0,0.063 l 0.314073,0 c -0.0019,-0.068 -0.0176,-0.1169 -0.02094,-0.1465 -0.0173,-0.152 0.05328,-0.2931 -0.502517,-0.2931 z m 1.193477,0 c -0.555796,0 -0.485226,0.1411 -0.502516,0.2931 -0.0056,0.05 -0.0215,0.1665 -0.02094,0.2931 5.41e-4,0.1267 0.01534,0.2646 0.02094,0.3141 0.01731,0.152 -0.05328,0.2931 0.502516,0.2931 0.555805,0 0.506165,-0.1411 0.523455,-0.2931 0.0056,-0.05 -5.23e-4,-0.1874 0,-0.3141 5.4e-4,-0.1266 0.0056,-0.2436 0,-0.2931 -0.0173,-0.152 0.03235,-0.2931 -0.523455,-0.2931 z m 5.067042,0 c -0.555796,0 -0.485226,0.1411 -0.502516,0.2931 -0.0056,0.05 -0.02149,0.1665 -0.02094,0.2931 5.4e-4,0.1267 0.01534,0.2646 0.02094,0.3141 0.0173,0.152 -0.05328,0.2931 0.502516,0.2931 0.555804,0 0.506166,-0.1411 0.523455,-0.2931 0.0033,-0.029 -0.0018,-0.1016 0,-0.1675 l -0.293135,0 c -8.71e-4,0.034 0.0011,0.074 0,0.084 -0.0087,0.076 -0.01116,0.1047 -0.23032,0.1047 -0.219165,0 -0.20074,-0.029 -0.209382,-0.1047 -0.0028,-0.025 -0.02121,-0.167 -0.02094,-0.2303 2.7e-4,-0.063 0.01812,-0.1846 0.02094,-0.2094 0.0087,-0.076 -0.0098,-0.1256 0.209382,-0.1256 0.219175,0 0.221679,0.05 0.23032,0.1256 0.0012,0.01 -8.71e-4,0.027 0,0.063 l 0.293135,0 c -0.0019,-0.068 0.0033,-0.1169 0,-0.1465 -0.01727,-0.152 0.03235,-0.2931 -0.523455,-0.2931 z m -8.312461,0.021 c -0.137614,0 -0.23032,0.1137 -0.23032,0.2513 l 0,1.1097 c 0,0.058 -0.04699,0.1047 -0.104691,0.1047 l -1.04691,0 c -0.403882,0 -0.732837,0.329 -0.732837,0.7329 l 0,2.7847 c 0,0.4038 0.328955,0.7329 0.732837,0.7329 l 1.821623,0 0.46064,0 c 0.137614,0 0.23032,-0.1137 0.23032,-0.2513 l 0,-5.2136 c 0,-0.1376 -0.09271,-0.2513 -0.23032,-0.2513 l -0.900342,0 z m 3.957318,0 0,1.1517 0.293134,0 0,-0.8585 0.293135,0.8585 0.293135,0 0.293134,-0.8585 0,0.8585 0.293135,0 0,-1.1517 -0.439702,0 -0.293135,0.8585 -0.293134,-0.8585 -0.439702,0 z m 1.695993,0 0,1.1517 0.293135,0 0,-0.2723 0.188444,0 c 0.555806,0 0.488486,-0.1407 0.502516,-0.2931 0.0024,-0.026 0.02095,-0.1104 0.02094,-0.1465 0,-0.045 -0.01853,-0.1286 -0.02094,-0.1466 -0.02046,-0.1517 0.05329,-0.2932 -0.502516,-0.2932 l -0.481579,0 z m 1.319106,0 -0.335011,1.1517 0.293135,0 0.08375,-0.2513 0.376887,0 0.06282,0.2513 0.293134,0 -0.335011,-1.1517 -0.439702,0 z m 1.926314,0 0,0.2932 0.272196,0 0,0.8585 0.293135,0 0,-0.8585 0.272196,0 0,-0.2932 -0.837527,0 z m -5.653312,0.2304 c 0.219175,0 0.22168,0.05 0.23032,0.1256 0.0028,0.025 -2.68e-4,0.1461 0,0.2094 2.7e-4,0.063 0.0028,0.2056 0,0.2303 -0.0086,0.076 -0.01116,0.1047 -0.23032,0.1047 -0.219165,0 -0.20074,-0.029 -0.209382,-0.1047 -0.0028,-0.025 -2.68e-4,-0.167 0,-0.2303 2.8e-4,-0.063 -0.0028,-0.1847 0,-0.2094 0.0086,-0.076 -0.0098,-0.1256 0.209382,-0.1256 z m -3.140728,0.021 0.69096,0 c 0.05767,0 0.104691,0.047 0.104691,0.1048 l 0,5.0042 c 0,0.058 -0.04702,0.1047 -0.104691,0.1047 l -0.355949,0 -1.821623,0 c -0.264938,0 -0.481578,-0.2167 -0.481578,-0.4816 l 0,-2.7848 c 0,-0.265 0.216641,-0.4816 0.481578,-0.4816 l 1.130662,0 c 0.137614,0 0.251259,-0.1136 0.251259,-0.2512 l 0,-1.1097 c 0,-0.058 0.04702,-0.1048 0.104691,-0.1048 z m 7.098046,0 0.125629,0.4607 -0.272196,0 0.146567,-0.4607 z m -1.256291,0.021 0.188444,0 c 0.219134,0 0.200731,0.029 0.209381,0.1047 0.0028,0.025 -2.7e-4,-2e-4 0,0.063 2.68e-4,0.061 0.0028,0.038 0,0.063 -0.0086,0.076 0.0098,0.1257 -0.209381,0.1257 l -0.188444,0 0,-0.3559 z m -4.208576,1.1935 c -0.137614,0 -0.251259,0.1136 -0.251259,0.2512 l 0,3.748 c 0,0.1376 0.113642,0.2512 0.251259,0.2512 l 0.439702,0 0.439702,0 c 0.137645,0 0.251258,-0.1136 0.251258,-0.2512 l 0,-3.748 c 0,-0.1376 -0.113613,-0.2512 -0.251258,-0.2512 l -0.879404,0 z m 2.240386,0 c -0.40385,0 -0.711899,0.3289 -0.711899,0.7328 l 0,1.2563 c 0,0.4039 0.308049,0.7328 0.711899,0.7328 l 1.005033,0 c 0.09133,0 0.167506,0.076 0.167506,0.1675 0,0.091 -0.07618,0.1466 -0.167506,0.1466 l -1.486611,0 c -0.137625,0 -0.251259,0.1136 -0.251259,0.2513 l 0,0.7119 c 0,0.1377 0.113642,0.2512 0.251259,0.2512 l 2.114757,-0.021 c 0.40385,0 0.732836,-0.308 0.732836,-0.7119 l 0,-1.2772 c 0,-0.4038 -0.328976,-0.7119 -0.732836,-0.7119 l -1.005033,0 c -0.09129,0 -0.167506,-0.076 -0.167506,-0.1675 0,-0.091 0.07622,-0.1675 0.167506,-0.1675 l 0.732836,0 0.607208,0 c 0.137604,0 0.251258,-0.1137 0.251258,-0.2513 l 0,-0.691 c 0,-0.1376 -0.113602,-0.2512 -0.251258,-0.2512 l -1.96819,0 z m 3.433863,0 c -0.403892,0 -0.711898,0.3289 -0.711898,0.7328 l 0,2.7848 c 0,0.4038 0.308017,0.7328 0.711898,0.7328 l 1.591303,0 c 0.403881,0 0.732836,-0.329 0.732836,-0.7328 l 0,-0.8794 c 0,-0.1376 -0.113602,-0.2513 -0.251258,-0.2513 l -0.795651,0 c -0.137614,0 -0.251258,0.1137 -0.251258,0.2513 l 0,0.4816 c 0,0.1511 -0.07921,0.2721 -0.230321,0.2721 -0.151145,0 -0.209381,-0.121 -0.209381,-0.2721 l 0,-1.9473 c 0,-0.1511 0.05824,-0.2722 0.209381,-0.2722 0.151103,0 0.230321,0.1211 0.230321,0.2722 l 0,0.4606 c 0,0.1377 0.113633,0.2513 0.251258,0.2513 l 0.376887,0 0.418764,0 c 0.137656,0 0.251258,-0.1136 0.251258,-0.2513 l 0,-0.9003 c 0,-0.4039 -0.328944,-0.7328 -0.732836,-0.7328 l -1.591303,0 z m -1.570364,0.2303 c 0.05768,0 0.104691,0.047 0.104691,0.1047 l 0,0.5025 c 0,0.058 -0.04697,0.1047 -0.104691,0.1047 l -0.502517,0 -0.732836,0 c -0.227096,0 -0.418764,0.1916 -0.418764,0.4188 10e-6,0.2271 0.191668,0.4187 0.418764,0.4187 l 1.005033,0 c 0.264906,0 0.481578,0.1958 0.481578,0.4607 l 0,1.2772 c 0,0.2649 -0.216672,0.4816 -0.481578,0.4816 l -2.010067,0 c -0.05767,0 -0.10469,-0.047 -0.10469,-0.1047 l 0,-0.4816 c 0,-0.058 0.04702,-0.1047 0.10469,-0.1047 l 1.381921,-0.021 c 0.227138,0 0.397826,-0.1707 0.397826,-0.3978 10e-6,-0.2272 -0.170688,-0.4188 -0.397826,-0.4188 l -1.005033,0 c -0.264907,0 -0.46064,-0.2166 -0.46064,-0.4815 l 0,-1.2563 c 0,-0.265 0.195733,-0.4816 0.46064,-0.4816 l 1.863499,-0.021 z m -3.999195,0.021 0.670023,0 c 0.05771,0 0.104691,0.047 0.104691,0.1047 l 0,3.5385 c 0,0.058 -0.047,0.1048 -0.104691,0.1048 l -0.335011,0 -0.335012,0 c -0.05773,0 -0.10469,-0.047 -0.10469,-0.1048 l 0,-3.5385 c 0,-0.058 0.04699,-0.1047 0.10469,-0.1047 z m 5.569559,0 1.591303,0 c 0.264949,0 0.481578,0.2167 0.481578,0.4816 l 0,0.7957 c 0,0.058 -0.04698,0.1046 -0.104691,0.1046 l -0.314073,0 -0.272196,0 c -0.05768,0 -0.104691,-0.047 -0.104691,-0.1046 l 0,-0.356 c 0,-0.2885 -0.19311,-0.5235 -0.481579,-0.5235 -0.28849,0 -0.46064,0.235 -0.46064,0.5235 l 0,1.9473 c 0,0.2885 0.172151,0.5234 0.46064,0.5234 0.288458,0 0.481579,-0.2349 0.481579,-0.5234 l 0,-0.3769 c 0,-0.058 0.04701,-0.1048 0.104691,-0.1048 l 0.586269,0 c 0.05771,0 0.104691,0.047 0.104691,0.1048 l 0,0.7746 c 0,0.265 -0.216629,0.4817 -0.481578,0.4817 l -1.591303,0 c -0.264949,0 -0.46064,-0.2167 -0.46064,-0.4817 l 0,-2.7847 c 0,-0.2649 0.195691,-0.4816 0.46064,-0.4816 z m -7.914636,0.3978 c -0.288449,0 -0.523455,0.235 -0.523455,0.5235 l 0,1.9473 c 0,0.2885 0.235007,0.5234 0.523455,0.5234 0.2885,0 0.502517,-0.2349 0.502517,-0.5234 l 0,-0.1466 0,-1.8007 c 0,-0.2885 -0.214017,-0.5235 -0.502517,-0.5235 z m 0,0.2513 c 0.151146,0 0.272197,0.1211 0.272197,0.2722 l 0,1.8007 0,0.1466 c 0,0.151 -0.121051,0.2721 -0.272197,0.2721 -0.151103,0 -0.293135,-0.1211 -0.293135,-0.2721 l 0,-1.9473 c 0,-0.1511 0.142042,-0.2722 0.293135,-0.2722 z"
       style="fill:#141414;fill-opacity:1" />
    <path
       style="fill:#969696;fill-opacity:1"
       d="m 26.408071,1040.5034 c -0.555796,0 -0.506175,0.1411 -0.523454,0.2932 -0.0056,0.05 -5.56e-4,0.1665 0,0.2931 5.4e-4,0.1266 -0.0056,0.2646 0,0.3141 0.01727,0.152 -0.03234,0.2931 0.523454,0.2931 0.555796,0 0.485228,-0.1411 0.502517,-0.2931 0.0033,-0.029 0.01912,-0.1016 0.02094,-0.1675 l -0.314073,0 c -8.71e-4,0.034 0.0011,0.074 0,0.084 -0.0086,0.076 0.0098,0.1047 -0.209382,0.1047 -0.219164,0 -0.221668,-0.029 -0.23032,-0.1047 -0.0028,-0.025 -2.68e-4,-0.167 0,-0.2303 2.7e-4,-0.063 -0.0028,-0.1846 0,-0.2094 0.0086,-0.076 0.01116,-0.1256 0.23032,-0.1256 0.219175,0 0.200742,0.05 0.209382,0.1256 0.0012,0.01 -8.71e-4,0.027 0,0.063 l 0.314073,0 c -0.0019,-0.068 -0.0176,-0.1169 -0.02094,-0.1465 -0.0173,-0.1521 0.05328,-0.2932 -0.502517,-0.2932 z m 1.193477,0 c -0.555796,0 -0.485226,0.1411 -0.502516,0.2932 -0.0056,0.05 -0.0215,0.1665 -0.02094,0.2931 5.41e-4,0.1266 0.01534,0.2646 0.02094,0.3141 0.01731,0.152 -0.05328,0.2931 0.502516,0.2931 0.555805,0 0.506165,-0.1411 0.523455,-0.2931 0.0056,-0.05 -5.23e-4,-0.1875 0,-0.3141 5.4e-4,-0.1266 0.0056,-0.2436 0,-0.2931 -0.0173,-0.1521 0.03235,-0.2932 -0.523455,-0.2932 z m 5.067042,0 c -0.555796,0 -0.485226,0.1411 -0.502516,0.2932 -0.0056,0.05 -0.02149,0.1665 -0.02094,0.2931 5.4e-4,0.1266 0.01534,0.2646 0.02094,0.3141 0.0173,0.152 -0.05328,0.2931 0.502516,0.2931 0.555804,0 0.506166,-0.1411 0.523455,-0.2931 0.0033,-0.029 -0.0018,-0.1016 0,-0.1675 l -0.293135,0 c -8.71e-4,0.034 0.0011,0.074 0,0.084 -0.0087,0.076 -0.01116,0.1047 -0.23032,0.1047 -0.219165,0 -0.20074,-0.029 -0.209382,-0.1047 -0.0028,-0.025 -0.02121,-0.167 -0.02094,-0.2303 2.7e-4,-0.063 0.01812,-0.1846 0.02094,-0.2094 0.0087,-0.076 -0.0098,-0.1256 0.209382,-0.1256 0.219175,0 0.221679,0.05 0.23032,0.1256 0.0012,0.01 -8.71e-4,0.027 0,0.063 l 0.293135,0 c -0.0019,-0.068 0.0033,-0.1169 0,-0.1465 -0.01727,-0.1521 0.03235,-0.2932 -0.523455,-0.2932 z m -8.312461,0.021 c -0.137614,0 -0.23032,0.1137 -0.23032,0.2512 l 0,1.1098 c 0,0.058 -0.04699,0.1047 -0.104691,0.1047 l -1.04691,0 c -0.403882,0 -0.732837,0.3289 -0.732837,0.7328 l 0,2.7848 c 0,0.4038 0.328955,0.7328 0.732837,0.7328 l 1.821623,0 0.46064,0 c 0.137614,0 0.23032,-0.1136 0.23032,-0.2513 l 0,-5.2136 c 0,-0.1376 -0.09271,-0.2512 -0.23032,-0.2512 l -0.900342,0 z m 3.957318,0 0,1.1516 0.293134,0 0,-0.8585 0.293135,0.8585 0.293135,0 0.293134,-0.8585 0,0.8585 0.293135,0 0,-1.1516 -0.439702,0 -0.293135,0.8584 -0.293134,-0.8584 -0.439702,0 z m 1.695993,0 0,1.1516 0.293135,0 0,-0.2722 0.188444,0 c 0.555806,0 0.488486,-0.1408 0.502516,-0.2932 0.0024,-0.026 0.02095,-0.1103 0.02094,-0.1465 0,-0.045 -0.01853,-0.1285 -0.02094,-0.1466 -0.02046,-0.1516 0.05329,-0.2931 -0.502516,-0.2931 l -0.481579,0 z m 1.319106,0 -0.335011,1.1516 0.293135,0 0.08375,-0.2513 0.376887,0 0.06282,0.2513 0.293134,0 -0.335011,-1.1516 -0.439702,0 z m 1.926314,0 0,0.2931 0.272196,0 0,0.8585 0.293135,0 0,-0.8585 0.272196,0 0,-0.2931 -0.837527,0 z m -5.653312,0.2303 c 0.219175,0 0.22168,0.05 0.23032,0.1256 0.0028,0.025 -2.68e-4,0.1461 0,0.2094 2.7e-4,0.063 0.0028,0.2056 0,0.2303 -0.0086,0.076 -0.01116,0.1047 -0.23032,0.1047 -0.219165,0 -0.20074,-0.029 -0.209382,-0.1047 -0.0028,-0.025 -2.68e-4,-0.167 0,-0.2303 2.8e-4,-0.063 -0.0028,-0.1846 0,-0.2094 0.0086,-0.076 -0.0098,-0.1256 0.209382,-0.1256 z m -3.140728,0.021 0.69096,0 c 0.05767,0 0.104691,0.047 0.104691,0.1047 l 0,5.0043 c 0,0.058 -0.04702,0.1046 -0.104691,0.1046 l -0.355949,0 -1.821623,0 c -0.264938,0 -0.481578,-0.2166 -0.481578,-0.4815 l 0,-2.7848 c 0,-0.265 0.216641,-0.4816 0.481578,-0.4816 l 1.130662,0 c 0.137614,0 0.251259,-0.1136 0.251259,-0.2512 l 0,-1.1098 c 0,-0.058 0.04702,-0.1047 0.104691,-0.1047 z m 7.098046,0 0.125629,0.4607 -0.272196,0 0.146567,-0.4607 z m -1.256291,0.021 0.188444,0 c 0.219134,0 0.200731,0.029 0.209381,0.1047 0.0028,0.025 -2.7e-4,-2e-4 0,0.063 2.68e-4,0.061 0.0028,0.038 0,0.063 -0.0086,0.076 0.0098,0.1256 -0.209381,0.1256 l -0.188444,0 0,-0.3559 z m -4.208576,1.1935 c -0.137614,0 -0.251259,0.1136 -0.251259,0.2512 l 0,3.7479 c 0,0.1377 0.113642,0.2513 0.251259,0.2513 l 0.439702,0 0.439702,0 c 0.137645,0 0.251258,-0.1136 0.251258,-0.2513 l 0,-3.7479 c 0,-0.1376 -0.113613,-0.2512 -0.251258,-0.2512 l -0.879404,0 z m 2.240386,0 c -0.40385,0 -0.711899,0.3289 -0.711899,0.7328 l 0,1.2563 c 0,0.4039 0.308049,0.7328 0.711899,0.7328 l 1.005033,0 c 0.09133,0 0.167506,0.076 0.167506,0.1675 0,0.091 -0.07618,0.1466 -0.167506,0.1466 l -1.486611,0 c -0.137625,0 -0.251259,0.1136 -0.251259,0.2512 l 0,0.7119 c 0,0.1377 0.113642,0.2513 0.251259,0.2513 l 2.114757,-0.021 c 0.40385,0 0.732836,-0.308 0.732836,-0.7119 l 0,-1.2773 c 0,-0.4038 -0.328976,-0.7119 -0.732836,-0.7119 l -1.005033,0 c -0.09129,0 -0.167506,-0.076 -0.167506,-0.1675 0,-0.091 0.07622,-0.1675 0.167506,-0.1675 l 0.732836,0 0.607208,0 c 0.137604,0 0.251258,-0.1136 0.251258,-0.2512 l 0,-0.691 c 0,-0.1376 -0.113602,-0.2512 -0.251258,-0.2512 l -1.96819,0 z m 3.433863,0 c -0.403892,0 -0.711898,0.3289 -0.711898,0.7328 l 0,2.7848 c 0,0.4038 0.308017,0.7328 0.711898,0.7328 l 1.591303,0 c 0.403881,0 0.732836,-0.329 0.732836,-0.7328 l 0,-0.8794 c 0,-0.1376 -0.113602,-0.2513 -0.251258,-0.2513 l -0.795651,0 c -0.137614,0 -0.251258,0.1136 -0.251258,0.2513 l 0,0.4815 c 0,0.1512 -0.07921,0.2722 -0.230321,0.2722 -0.151145,0 -0.209381,-0.121 -0.209381,-0.2722 l 0,-1.9472 c 0,-0.1511 0.05824,-0.2722 0.209381,-0.2722 0.151103,0 0.230321,0.1211 0.230321,0.2722 l 0,0.4606 c 0,0.1377 0.113633,0.2513 0.251258,0.2513 l 0.376887,0 0.418764,0 c 0.137656,0 0.251258,-0.1136 0.251258,-0.2513 l 0,-0.9003 c 0,-0.4039 -0.328944,-0.7328 -0.732836,-0.7328 l -1.591303,0 z m -1.570364,0.2303 c 0.05768,0 0.104691,0.047 0.104691,0.1047 l 0,0.5025 c 0,0.058 -0.04697,0.1047 -0.104691,0.1047 l -0.502517,0 -0.732836,0 c -0.227096,0 -0.418764,0.1916 -0.418764,0.4187 10e-6,0.2272 0.191668,0.4188 0.418764,0.4188 l 1.005033,0 c 0.264906,0 0.481578,0.1958 0.481578,0.4606 l 0,1.2773 c 0,0.2649 -0.216672,0.4815 -0.481578,0.4815 l -2.010067,0 c -0.05767,0 -0.10469,-0.047 -0.10469,-0.1046 l 0,-0.4816 c 0,-0.058 0.04702,-0.1047 0.10469,-0.1047 l 1.381921,-0.021 c 0.227138,0 0.397826,-0.1706 0.397826,-0.3978 10e-6,-0.2271 -0.170688,-0.4187 -0.397826,-0.4187 l -1.005033,0 c -0.264907,0 -0.46064,-0.2167 -0.46064,-0.4816 l 0,-1.2563 c 0,-0.2649 0.195733,-0.4816 0.46064,-0.4816 l 1.863499,-0.021 z m -3.999195,0.021 0.670023,0 c 0.05771,0 0.104691,0.047 0.104691,0.1047 l 0,3.5386 c 0,0.058 -0.047,0.1046 -0.104691,0.1046 l -0.335011,0 -0.335012,0 c -0.05773,0 -0.10469,-0.047 -0.10469,-0.1046 l 0,-3.5386 c 0,-0.058 0.04699,-0.1047 0.10469,-0.1047 z m 5.569559,0 1.591303,0 c 0.264949,0 0.481578,0.2167 0.481578,0.4816 l 0,0.7956 c 0,0.058 -0.04698,0.1047 -0.104691,0.1047 l -0.314073,0 -0.272196,0 c -0.05768,0 -0.104691,-0.047 -0.104691,-0.1047 l 0,-0.3559 c 0,-0.2885 -0.19311,-0.5235 -0.481579,-0.5235 -0.28849,0 -0.46064,0.235 -0.46064,0.5235 l 0,1.9472 c 0,0.2886 0.172151,0.5235 0.46064,0.5235 0.288458,0 0.481579,-0.2349 0.481579,-0.5235 l 0,-0.3768 c 0,-0.058 0.04701,-0.1047 0.104691,-0.1047 l 0.586269,0 c 0.05771,0 0.104691,0.047 0.104691,0.1047 l 0,0.7747 c 0,0.2649 -0.216629,0.4815 -0.481578,0.4815 l -1.591303,0 c -0.264949,0 -0.46064,-0.2166 -0.46064,-0.4815 l 0,-2.7848 c 0,-0.2649 0.195691,-0.4816 0.46064,-0.4816 z m -7.914636,0.3978 c -0.288449,0 -0.523455,0.235 -0.523455,0.5235 l 0,1.9472 c 0,0.2886 0.235007,0.5235 0.523455,0.5235 0.2885,0 0.502517,-0.2349 0.502517,-0.5235 l 0,-0.1465 0,-1.8007 c 0,-0.2885 -0.214017,-0.5235 -0.502517,-0.5235 z m 0,0.2513 c 0.151146,0 0.272197,0.1211 0.272197,0.2722 l 0,1.8007 0,0.1465 c 0,0.1511 -0.121051,0.2722 -0.272197,0.2722 -0.151103,0 -0.293135,-0.1211 -0.293135,-0.2722 l 0,-1.9472 c 0,-0.1511 0.142042,-0.2722 0.293135,-0.2722 z"
       id="_120214216" />
  </g>
</svg>
