<?xml version="1.0" encoding="UTF-8" standalone="no"?>
<!-- Created with Inkscape (http://www.inkscape.org/) -->

<svg
   xmlns:dc="http://purl.org/dc/elements/1.1/"
   xmlns:cc="http://creativecommons.org/ns#"
   xmlns:rdf="http://www.w3.org/1999/02/22-rdf-syntax-ns#"
   xmlns:svg="http://www.w3.org/2000/svg"
   xmlns="http://www.w3.org/2000/svg"
   xmlns:xlink="http://www.w3.org/1999/xlink"
   xmlns:sodipodi="http://sodipodi.sourceforge.net/DTD/sodipodi-0.dtd"
   xmlns:inkscape="http://www.inkscape.org/namespaces/inkscape"
   width="48"
   height="48"
   id="svg2"
   version="1.1"
   inkscape:version="0.47pre4 r22446"
   sodipodi:docname="Nuovo documento 1">
  <defs
     id="defs4">
    <linearGradient
       id="linearGradient3596">
      <stop
         style="stop-color:#333333;stop-opacity:1;"
         offset="0"
         id="stop3598" />
      <stop
         style="stop-color:#505050;stop-opacity:1;"
         offset="1"
         id="stop3600" />
    </linearGradient>
    <inkscape:perspective
       sodipodi:type="inkscape:persp3d"
       inkscape:vp_x="0 : 526.18109 : 1"
       inkscape:vp_y="0 : 1000 : 0"
       inkscape:vp_z="744.09448 : 526.18109 : 1"
       inkscape:persp3d-origin="372.04724 : 350.78739 : 1"
       id="perspective10" />
    <linearGradient
       inkscape:collect="always"
       xlink:href="#linearGradient3596"
       id="linearGradient3602"
       x1="24"
       y1="1046.1515"
       x2="24"
       y2="1010.5729"
       gradientUnits="userSpaceOnUse" />
    <linearGradient
       inkscape:collect="always"
       xlink:href="#linearGradient3596"
       id="linearGradient3610"
       gradientUnits="userSpaceOnUse"
       x1="24"
       y1="1046.1515"
       x2="24"
       y2="1010.5729" />
    <linearGradient
       inkscape:collect="always"
       xlink:href="#linearGradient3596"
       id="linearGradient3614"
       gradientUnits="userSpaceOnUse"
       x1="24"
       y1="1046.1515"
       x2="24"
       y2="1010.5729"
       gradientTransform="translate(0,-0.53574922)" />
  </defs>
  <sodipodi:namedview
     id="base"
     pagecolor="#ffffff"
     bordercolor="#666666"
     borderopacity="1.0"
     inkscape:pageopacity="0.0"
     inkscape:pageshadow="2"
     inkscape:zoom="5.6"
     inkscape:cx="28.838705"
     inkscape:cy="16.250276"
     inkscape:document-units="px"
     inkscape:current-layer="layer1"
     showgrid="false"
     inkscape:window-width="1280"
     inkscape:window-height="712"
     inkscape:window-x="0"
     inkscape:window-y="25"
     inkscape:window-maximized="1" />
  <metadata
     id="metadata7">
    <rdf:RDF>
      <cc:Work
         rdf:about="">
        <dc:format>image/svg+xml</dc:format>
        <dc:type
           rdf:resource="http://purl.org/dc/dcmitype/StillImage" />
        <dc:title></dc:title>
      </cc:Work>
    </rdf:RDF>
  </metadata>
  <g
     inkscape:label="Livello 1"
     inkscape:groupmode="layer"
     id="layer1"
     transform="translate(0,-1004.3622)">
    <g
       style="font-size:65px;font-style:normal;font-variant:normal;font-weight:bold;font-stretch:normal;fill:#f0f0f0;fill-opacity:1;stroke:none;font-family:DejaVu Serif;-inkscape-font-specification:'A.C.M.E. Secret Agent Bold'"
       id="text2820">
      <path
         d="m 38.155273,1025.0417 0,16.8848 4.824219,0 0,3.8403 -16.05957,0 0,-4.2846 c -1.481143,1.7773 -3.131532,3.0892 -4.951172,3.9355 -1.819679,0.8464 -3.893245,1.2696 -6.220703,1.2696 -3.448903,0 -6.1043368,-0.9205 -7.9663087,-2.7613 -1.8408239,-1.862 -2.7612332,-4.5174 -2.7612305,-7.9663 -2.7e-6,-3.7874 1.3224244,-6.6227 3.9672852,-8.5058 2.666006,-1.8832 6.675605,-2.8247 12.028809,-2.8247 l 5.90332,0 0,-1.9996 c -2.5e-5,-2.7294 -0.645369,-4.7395 -1.936035,-6.0302 -1.290712,-1.3119 -3.290221,-1.9678 -5.998535,-1.9678 -2.242853,0 -3.977878,0.4655 -5.205079,1.3965 -1.206064,0.9098 -2.062997,2.4121 -2.5708,4.5068 l -3.5864261,0 0,-7.2681 c 2.0100838,-0.7193 4.0942291,-1.2589 6.2524411,-1.6186 2.15819,-0.3597 4.432764,-0.5395 6.823731,-0.5396 6.030249,10e-5 10.441865,1.1215 13.234863,3.3643 2.814093,2.2429 4.221156,5.7658 4.221191,10.5688 m -11.235351,10.1246 0,-6.7603 -4.221192,0 c -2.094744,0 -3.702816,0.5713 -4.824218,1.7139 -1.121434,1.1426 -1.682143,2.7824 -1.682129,4.9194 -1.4e-5,2.1371 0.402004,3.7346 1.206054,4.7925 0.82518,1.0579 2.073551,1.5869 3.745118,1.5869 1.735005,0 3.131488,-0.5713 4.189453,-1.7139 1.057918,-1.1425 1.586889,-2.6554 1.586914,-4.5385"
         style=""
         id="path3622" />
    </g>
    <g
       style="font-size:65px;font-style:normal;font-variant:normal;font-weight:bold;font-stretch:normal;fill:url(#linearGradient3614);fill-opacity:1;stroke:none;font-family:DejaVu Serif;-inkscape-font-specification:'A.C.M.E. Secret Agent Bold'"
       id="text2816">
      <path
         d="m 38.155273,1023.9702 0,16.8848 4.824219,0 0,3.8403 -16.05957,0 0,-4.2847 c -1.481143,1.7774 -3.131532,3.0892 -4.951172,3.9356 -1.819679,0.8463 -3.893245,1.2695 -6.220703,1.2695 -3.448903,0 -6.1043368,-0.9204 -7.9663087,-2.7612 -1.8408239,-1.862 -2.7612332,-4.5174 -2.7612305,-7.9663 -2.7e-6,-3.7874 1.3224244,-6.6227 3.9672852,-8.5059 2.666006,-1.8831 6.675605,-2.8247 12.028809,-2.8247 l 5.90332,0 0,-1.9995 c -2.5e-5,-2.7295 -0.645369,-4.7395 -1.936035,-6.0303 -1.290712,-1.3118 -3.290221,-1.9677 -5.998535,-1.9677 -2.242853,0 -3.977878,0.4655 -5.205079,1.3964 -1.206064,0.9099 -2.062997,2.4122 -2.5708,4.5069 l -3.5864261,0 0,-7.2681 c 2.0100838,-0.7194 4.0942291,-1.2589 6.2524411,-1.6186 2.15819,-0.3597 4.432764,-0.5396 6.823731,-0.5396 6.030249,0 10.441865,1.1215 13.234863,3.3643 2.814093,2.2428 4.221156,5.7658 4.221191,10.5688 m -11.235351,10.1245 0,-6.7602 -4.221192,0 c -2.094744,0 -3.702816,0.5713 -4.824218,1.7138 -1.121434,1.1426 -1.682143,2.7824 -1.682129,4.9195 -1.4e-5,2.137 0.402004,3.7345 1.206054,4.7925 0.82518,1.0579 2.073551,1.5869 3.745118,1.5869 1.735005,0 3.131488,-0.5713 4.189453,-1.7139 1.057918,-1.1426 1.586889,-2.6554 1.586914,-4.5386"
         style=""
         id="path3619" />
    </g>
  </g>
</svg>
