<?xml version="1.0" encoding="UTF-8" standalone="no"?>
<!-- Created with Inkscape (http://www.inkscape.org/) -->

<svg
   xmlns:dc="http://purl.org/dc/elements/1.1/"
   xmlns:cc="http://creativecommons.org/ns#"
   xmlns:rdf="http://www.w3.org/1999/02/22-rdf-syntax-ns#"
   xmlns:svg="http://www.w3.org/2000/svg"
   xmlns="http://www.w3.org/2000/svg"
   xmlns:xlink="http://www.w3.org/1999/xlink"
   xmlns:sodipodi="http://sodipodi.sourceforge.net/DTD/sodipodi-0.dtd"
   xmlns:inkscape="http://www.inkscape.org/namespaces/inkscape"
   width="48"
   height="48"
   id="svg2"
   version="1.1"
   inkscape:version="0.47pre4 r22446"
   sodipodi:docname="visualization.svg">
  <defs
     id="defs4">
    <linearGradient
       id="linearGradient3643">
      <stop
         style="stop-color:#e3b216;stop-opacity:1;"
         offset="0"
         id="stop3645" />
      <stop
         style="stop-color:#de220c;stop-opacity:1;"
         offset="1"
         id="stop3647" />
    </linearGradient>
    <linearGradient
       id="linearGradient3590">
      <stop
         style="stop-color:#505050;stop-opacity:1;"
         offset="0"
         id="stop3592" />
      <stop
         style="stop-color:#141414;stop-opacity:1;"
         offset="1"
         id="stop3594" />
    </linearGradient>
    <inkscape:perspective
       sodipodi:type="inkscape:persp3d"
       inkscape:vp_x="0 : 526.18109 : 1"
       inkscape:vp_y="0 : 1000 : 0"
       inkscape:vp_z="744.09448 : 526.18109 : 1"
       inkscape:persp3d-origin="372.04724 : 350.78739 : 1"
       id="perspective10" />
    <radialGradient
       inkscape:collect="always"
       xlink:href="#linearGradient3590"
       id="radialGradient3598"
       cx="24.000008"
       cy="1015.3265"
       fx="24.000008"
       fy="1015.3265"
       r="21.5"
       gradientUnits="userSpaceOnUse"
       gradientTransform="matrix(-1.094438,1.0944358,-1.0382367,-1.0382388,1101.4157,2046.5145)" />
    <linearGradient
       inkscape:collect="always"
       xlink:href="#linearGradient3643"
       id="linearGradient3649"
       x1="21"
       y1="8"
       x2="21"
       y2="46"
       gradientUnits="userSpaceOnUse" />
    <radialGradient
       inkscape:collect="always"
       xlink:href="#linearGradient3590"
       id="radialGradient3655"
       gradientUnits="userSpaceOnUse"
       gradientTransform="matrix(-1.094438,1.0944358,-1.0382367,-1.0382388,1101.4157,2046.5145)"
       cx="24.000008"
       cy="1015.3265"
       fx="24.000008"
       fy="1015.3265"
       r="21.5" />
    <linearGradient
       inkscape:collect="always"
       xlink:href="#linearGradient3643"
       id="linearGradient3657"
       gradientUnits="userSpaceOnUse"
       x1="21"
       y1="8"
       x2="21"
       y2="46" />
    <linearGradient
       inkscape:collect="always"
       xlink:href="#linearGradient3643"
       id="linearGradient2826"
       gradientUnits="userSpaceOnUse"
       x1="21"
       y1="8"
       x2="21"
       y2="46"
       gradientTransform="translate(3,1001.3622)" />
    <radialGradient
       inkscape:collect="always"
       xlink:href="#linearGradient3590"
       id="radialGradient2829"
       gradientUnits="userSpaceOnUse"
       gradientTransform="matrix(-1.1465541,1.1465518,-1.0876765,-1.0876787,1155.8641,2091.8551)"
       cx="24.000008"
       cy="1015.3265"
       fx="24.000008"
       fy="1015.3265"
       r="21.5" />
  </defs>
  <sodipodi:namedview
     id="base"
     pagecolor="#ffffff"
     bordercolor="#666666"
     borderopacity="1.0"
     inkscape:pageopacity="0.0"
     inkscape:pageshadow="2"
     inkscape:zoom="5.6"
     inkscape:cx="0.15461171"
     inkscape:cy="20.413747"
     inkscape:document-units="px"
     inkscape:current-layer="layer1"
     showgrid="false"
     inkscape:window-width="1280"
     inkscape:window-height="714"
     inkscape:window-x="0"
     inkscape:window-y="25"
     inkscape:window-maximized="1" />
  <metadata
     id="metadata7">
    <rdf:RDF>
      <cc:Work
         rdf:about="">
        <dc:format>image/svg+xml</dc:format>
        <dc:type
           rdf:resource="http://purl.org/dc/dcmitype/StillImage" />
        <dc:title />
      </cc:Work>
    </rdf:RDF>
  </metadata>
  <g
     inkscape:label="Livello 1"
     inkscape:groupmode="layer"
     id="layer1"
     transform="translate(0,-1004.3622)">
    <rect
       style="fill:url(#radialGradient2829);fill-opacity:1;fill-rule:nonzero;stroke:none"
       id="rect2816"
       width="44"
       height="44"
       x="2"
       y="1006.3622" />
    <path
       style="fill:url(#linearGradient2826);fill-opacity:1;fill-rule:nonzero;stroke:none"
       d="m 5,1009.3622 0,6 6,0 0,-6 -6,0 z m 24,0 0,6 6,0 0,-6 -6,0 z m -24,8 0,6 6,0 0,-6 -6,0 z m 16,0 0,6 6,0 0,-6 -6,0 z m 8,0 0,6 6,0 0,-6 -6,0 z m 8,0 0,6 6,0 0,-6 -6,0 z m -32,8 0,6 6,0 0,-6 -6,0 z m 8,0 0,6 6,0 0,-6 -6,0 z m 8,0 0,6 6,0 0,-6 -6,0 z m 8,0 0,6 6,0 0,-6 -6,0 z m 8,0 0,6 6,0 0,-6 -6,0 z m -32,8 0,6 6,0 0,-6 -6,0 z m 8,0 0,6 6,0 0,-6 -6,0 z m 8,0 0,6 6,0 0,-6 -6,0 z m 8,0 0,6 6,0 0,-6 -6,0 z m 8,0 0,6 6,0 0,-6 -6,0 z m -32,8 0,6 6,0 0,-6 -6,0 z m 8,0 0,6 6,0 0,-6 -6,0 z m 8,0 0,6 6,0 0,-6 -6,0 z m 8,0 0,6 6,0 0,-6 -6,0 z m 8,0 0,6 6,0 0,-6 -6,0 z"
       id="rect3600" />
  </g>
</svg>
