<?xml version="1.0" encoding="UTF-8" standalone="no"?>
<!-- Created with Inkscape (http://www.inkscape.org/) -->

<svg
   xmlns:dc="http://purl.org/dc/elements/1.1/"
   xmlns:cc="http://creativecommons.org/ns#"
   xmlns:rdf="http://www.w3.org/1999/02/22-rdf-syntax-ns#"
   xmlns:svg="http://www.w3.org/2000/svg"
   xmlns="http://www.w3.org/2000/svg"
   xmlns:xlink="http://www.w3.org/1999/xlink"
   xmlns:sodipodi="http://sodipodi.sourceforge.net/DTD/sodipodi-0.dtd"
   xmlns:inkscape="http://www.inkscape.org/namespaces/inkscape"
   width="48"
   height="48"
   id="svg2"
   version="1.1"
   inkscape:version="0.47pre4 r22446"
   sodipodi:docname="application-x-bittorrent.svg"
   inkscape:export-filename="/home/andrea/Documenti/MeliaeSVG/48/mimetypes/png/text-x-preview.png"
   inkscape:export-xdpi="240"
   inkscape:export-ydpi="240">
  <defs
     id="defs4">
    <linearGradient
       id="linearGradient4203">
      <stop
         style="stop-color:#f0f0f0;stop-opacity:1;"
         offset="0"
         id="stop4205" />
      <stop
         style="stop-color:#ffffff;stop-opacity:1;"
         offset="1"
         id="stop4207" />
    </linearGradient>
    <inkscape:perspective
       sodipodi:type="inkscape:persp3d"
       inkscape:vp_x="0 : 526.18109 : 1"
       inkscape:vp_y="0 : 1000 : 0"
       inkscape:vp_z="744.09448 : 526.18109 : 1"
       inkscape:persp3d-origin="372.04724 : 350.78739 : 1"
       id="perspective10" />
    <linearGradient
       inkscape:collect="always"
       xlink:href="#linearGradient4203"
       id="linearGradient4209"
       x1="31.687183"
       y1="1045.266"
       x2="15.481234"
       y2="1013.3396"
       gradientUnits="userSpaceOnUse" />
    <linearGradient
       y2="759.66351"
       x2="-725.70044"
       y1="727.84369"
       x1="-693.88062"
       gradientTransform="matrix(0.45418121,-0.78666494,0.78666494,0.45418121,-238.69585,-872.7175)"
       gradientUnits="userSpaceOnUse"
       id="linearGradient3616"
       xlink:href="#linearGradient3612"
       inkscape:collect="always" />
    <linearGradient
       y2="759.66351"
       x2="-725.70044"
       y1="727.84369"
       x1="-693.88062"
       gradientTransform="matrix(0.74800793,0,0,0.74800793,-347.1737,-21.630086)"
       gradientUnits="userSpaceOnUse"
       id="linearGradient2841"
       xlink:href="#linearGradient3590"
       inkscape:collect="always" />
    <linearGradient
       y2="759.66351"
       x2="-725.70044"
       y1="727.84369"
       x1="-693.88062"
       gradientTransform="matrix(0.45418121,-0.78666494,0.78666494,0.45418121,-238.69585,-872.7175)"
       gradientUnits="userSpaceOnUse"
       id="linearGradient2837"
       xlink:href="#linearGradient3590"
       inkscape:collect="always" />
    <linearGradient
       gradientUnits="userSpaceOnUse"
       y2="42.8615"
       x2="29.988071"
       y1="3.6194866"
       x1="19.473206"
       id="linearGradient3619"
       xlink:href="#linearGradient3612"
       inkscape:collect="always" />
    <filter
       id="filter3664"
       inkscape:collect="always">
      <feGaussianBlur
         id="feGaussianBlur3666"
         stdDeviation="0.43653281"
         inkscape:collect="always" />
    </filter>
    <linearGradient
       gradientTransform="translate(-168.31207,-209.0501)"
       y2="759.66351"
       x2="-725.70044"
       y1="727.84369"
       x1="-693.88062"
       gradientUnits="userSpaceOnUse"
       id="linearGradient3654"
       xlink:href="#linearGradient3590"
       inkscape:collect="always" />
    <linearGradient
       y2="1044.5184"
       x2="23.251062"
       y1="1012.1823"
       x1="23.246004"
       gradientTransform="matrix(0.8067683,-0.21617292,0.21617292,0.8067683,-216.90302,203.71746)"
       gradientUnits="userSpaceOnUse"
       id="linearGradient3649"
       xlink:href="#linearGradient3612"
       inkscape:collect="always" />
    <linearGradient
       y2="1044.5184"
       x2="23.251062"
       y1="1012.1823"
       x1="23.246004"
       gradientTransform="translate(0.76447101,0)"
       gradientUnits="userSpaceOnUse"
       id="linearGradient3646"
       xlink:href="#linearGradient3612"
       inkscape:collect="always" />
    <linearGradient
       y2="759.66351"
       x2="-725.70044"
       y1="727.84369"
       x1="-693.88062"
       gradientUnits="userSpaceOnUse"
       id="linearGradient3644"
       xlink:href="#linearGradient3590"
       inkscape:collect="always" />
    <linearGradient
       y2="1044.5184"
       x2="23.251062"
       y1="1012.1823"
       x1="23.246004"
       gradientTransform="translate(0.76447101,0)"
       gradientUnits="userSpaceOnUse"
       id="linearGradient3628"
       xlink:href="#linearGradient3612"
       inkscape:collect="always" />
    <linearGradient
       gradientUnits="userSpaceOnUse"
       y2="759.66351"
       x2="-725.70044"
       y1="727.84369"
       x1="-693.88062"
       id="linearGradient3596"
       xlink:href="#linearGradient3590"
       inkscape:collect="always" />
    <inkscape:perspective
       id="perspective10-4"
       inkscape:persp3d-origin="372.04724 : 350.78739 : 1"
       inkscape:vp_z="744.09448 : 526.18109 : 1"
       inkscape:vp_y="0 : 1000 : 0"
       inkscape:vp_x="0 : 526.18109 : 1"
       sodipodi:type="inkscape:persp3d" />
    <linearGradient
       id="linearGradient3590">
      <stop
         id="stop3592"
         offset="0"
         style="stop-color:#9cc430;stop-opacity:1;" />
      <stop
         id="stop3594"
         offset="1"
         style="stop-color:#619508;stop-opacity:1;" />
    </linearGradient>
    <linearGradient
       id="linearGradient3612">
      <stop
         id="stop3614"
         offset="0"
         style="stop-color:#ffffff;stop-opacity:1;" />
      <stop
         id="stop3616"
         offset="1"
         style="stop-color:#dcdcdc;stop-opacity:1;" />
    </linearGradient>
  </defs>
  <sodipodi:namedview
     id="base"
     pagecolor="#ffffff"
     bordercolor="#666666"
     borderopacity="1.0"
     inkscape:pageopacity="0.0"
     inkscape:pageshadow="2"
     inkscape:zoom="3.959798"
     inkscape:cx="1.3607527"
     inkscape:cy="-10.139433"
     inkscape:document-units="px"
     inkscape:current-layer="layer1"
     showgrid="false"
     inkscape:window-width="1280"
     inkscape:window-height="714"
     inkscape:window-x="0"
     inkscape:window-y="25"
     inkscape:window-maximized="1" />
  <metadata
     id="metadata7">
    <rdf:RDF>
      <cc:Work
         rdf:about="">
        <dc:format>image/svg+xml</dc:format>
        <dc:type
           rdf:resource="http://purl.org/dc/dcmitype/StillImage" />
        <dc:title />
      </cc:Work>
    </rdf:RDF>
  </metadata>
  <g
     inkscape:label="Livello 1"
     inkscape:groupmode="layer"
     id="layer1"
     transform="translate(0,-1004.3622)">
    <rect
       ry="1.0238097"
       rx="1.03125"
       y="1006.8622"
       x="7.5"
       height="43"
       width="33"
       id="rect4211"
       style="fill:#646464;fill-opacity:0.47058824;stroke:none" />
    <rect
       style="fill:url(#linearGradient4209);fill-opacity:1;stroke:none"
       id="rect3429"
       width="32"
       height="42"
       x="8"
       y="1007.3622"
       rx="1"
       ry="1" />
    <g
       id="layer1-4"
       inkscape:label="Livello 1"
       transform="matrix(0.65775234,0,0,0.65775234,8.203734,347.96475)">
      <rect
         style="fill:#333333;fill-opacity:0.78431373;stroke:none;filter:url(#filter3664)"
         id="rect3656"
         width="33.420673"
         height="33.420673"
         x="-895.27692"
         y="518.26105"
         transform="matrix(0.5,-0.86602541,0.86602541,0.5,0,0)"
         rx="2.7388647"
         ry="2.7388647" />
      <rect
         ry="2.7388647"
         rx="2.7388647"
         transform="matrix(0.5,-0.86602541,0.86602541,0.5,0,0)"
         y="517.99316"
         x="-894.81293"
         height="33.420673"
         width="33.420673"
         id="rect2816"
         style="fill:url(#linearGradient3654);fill-opacity:1;stroke:none" />
      <path
         style="font-size:medium;font-style:normal;font-variant:normal;font-weight:normal;font-stretch:normal;text-indent:0;text-align:start;text-decoration:none;line-height:normal;letter-spacing:normal;word-spacing:normal;text-transform:none;direction:ltr;block-progression:tb;writing-mode:lr-tb;text-anchor:start;color:#000000;fill:#9dd144;fill-opacity:1;stroke:none;stroke-width:1;marker:none;visibility:visible;display:inline;overflow:visible;enable-background:accumulate;font-family:'A.C.M.E. Secret Agent';-inkscape-font-specification:'A.C.M.E. Secret Agent'"
         d="m 20.736319,1015.5701 c -1.14e-4,0 -0.213299,0.1107 -0.213501,0.1108 -1.79e-4,1e-4 -0.02984,0.054 -0.03702,0.064 -0.01414,0.02 -0.03966,0.032 -0.04372,0.038 -0.0081,0.014 -0.02188,0 -0.02521,0.01 -0.0075,0.016 0.0033,0.063 -0.0049,0.083 -0.01666,0.038 -0.04682,0.063 -0.07383,0.1278 -0.0542,0.1297 -0.117024,0.3228 -0.206153,0.5417 -0.178256,0.4377 -0.416425,1.0237 -0.650413,1.6064 -0.234009,0.5827 -0.449763,1.1608 -0.625223,1.5997 -0.08772,0.2194 -0.179753,0.4191 -0.231364,0.5484 -0.05161,0.1292 -0.09349,0.2046 -0.08553,0.185 0.008,-0.019 -6.75e-4,0.074 -0.05355,0.2035 -0.05288,0.1291 -0.148499,0.304 -0.23813,0.5231 -0.179287,0.4384 -0.41333,1.0244 -0.650413,1.6065 -0.237106,0.5822 -0.474483,1.1683 -0.650435,1.6064 -0.08799,0.219 -0.18056,0.4183 -0.231364,0.5484 -0.02548,0.065 -0.0277,0.1081 -0.04184,0.1464 -0.0071,0.019 -0.0066,0.041 -0.01181,0.057 -0.0015,0.01 -0.0093,0.035 -0.01181,0.057 -0.0013,0.011 -0.01178,0.057 -0.01181,0.057 3.2e-5,3e-4 0.104388,0.1881 0.104467,0.1882 5.6e-5,-10e-5 0.203246,0.053 0.203501,0.053 2.34e-4,-10e-5 0.06872,0.01 0.08234,0.01 0.0281,0 0.0225,0.02 0.03191,0.018 0.01839,-0.01 0.04036,-0.012 0.05042,-0.013 0.01988,-0.01 0.05157,-0.014 0.07564,-0.02 0.04786,-0.013 0.09484,-0.026 0.17648,-0.048 0.162897,-0.043 0.405864,-0.1094 0.680711,-0.1824 l 2.01692,-0.5405 0.680711,-0.1823 2.4995,9.3282 -0.680711,0.1824 -2.016921,0.5404 c -0.274587,0.074 -0.517814,0.1387 -0.68071,0.1824 -0.08128,0.023 -0.128623,0.034 -0.176481,0.048 -0.02379,0.01 -0.05576,0.015 -0.07564,0.02 -0.0098,0 -0.03203,0.01 -0.05042,0.013 -0.0092,0 0.0053,0.017 -0.01851,0.032 -0.01296,0 -0.0687,0.045 -0.06893,0.045 -2.12e-4,10e-5 -0.149423,0.148 -0.149459,0.1481 -3.5e-5,1e-4 -0.0033,0.1897 -0.0032,0.19 3.3e-5,-10e-5 0.03906,0.06 0.04554,0.069 0.01307,0.018 0.02612,0.011 0.03191,0.018 0.01007,0.01 1.03e-4,0.018 0.0067,0.025 0.01257,0.012 0.01619,0.01 0.03191,0.018 0.03142,0.026 0.06172,0.088 0.116167,0.1311 0.109045,0.087 0.288861,0.2135 0.474559,0.3592 0.371416,0.2914 0.863337,0.6551 1.359741,1.0408 0.496404,0.3856 0.992103,0.7761 1.366507,1.066 0.187212,0.145 0.364242,0.2738 0.474558,0.3592 0.110228,0.085 0.158038,0.1371 0.141379,0.1243 -0.01666,-0.013 0.06396,0.056 0.173334,0.1426 0.109327,0.086 0.28887,0.2131 0.47456,0.3593 0.371354,0.2922 0.847316,0.6852 1.341295,1.0727 0.493979,0.3876 0.993242,0.7761 1.366486,1.066 0.186623,0.145 0.337602,0.2808 0.449347,0.366 0.05597,0.043 0.09436,0.049 0.127867,0.073 0.01687,0.013 0.02417,0.033 0.03861,0.043 0.0077,0.01 0.01773,0.01 0.03191,0.018 0.0078,0.01 0.03477,0 0.05712,0.012 0.01128,0.01 0.05692,0.012 0.05712,0.012 2.02e-4,0 0.240192,-0.011 0.240306,-0.011 1.15e-4,0 0.238511,-0.1175 0.238713,-0.1176 -1.5e-5,0 0.03676,-0.028 0.04372,-0.038 0.01328,-0.023 -0.01011,-0.016 -0.0067,-0.025 0.0084,-0.013 0.01519,-0.022 0.01851,-0.032 0.0075,-0.016 0.0033,-0.038 0.01181,-0.057 0.01665,-0.038 0.07182,-0.07 0.09903,-0.1347 0.0542,-0.1296 0.117025,-0.3227 0.206153,-0.5416 0.178256,-0.4377 0.416425,-1.0237 0.650435,-1.6064 0.234009,-0.5827 0.474953,-1.1676 0.650413,-1.6065 0.08772,-0.2194 0.129333,-0.4056 0.180941,-0.5349 0.05158,-0.1292 0.112004,-0.2363 0.103992,-0.2169 -0.008,0.019 0.03258,-0.056 0.08552,-0.1851 0.05286,-0.129 0.141732,-0.3291 0.231364,-0.5484 0.179287,-0.4382 0.413331,-1.0242 0.650414,-1.6064 0.237083,-0.5822 0.481227,-1.1431 0.657179,-1.5812 0.08799,-0.219 0.130133,-0.4048 0.180941,-0.5349 0.02548,-0.064 0.04619,-0.1399 0.06031,-0.1782 0.0071,-0.019 0.0133,-0.016 0.01851,-0.032 0.0023,-0.01 0.01471,-0.017 0.01851,-0.032 0.0015,-0.01 0.01538,-0.013 0.01851,-0.032 0.0013,-0.011 -0.02035,-0.076 -0.02032,-0.076 -3.2e-5,-3e-4 -0.09762,-0.1629 -0.0977,-0.163 -7.9e-5,-10e-5 -0.228458,-0.047 -0.228713,-0.047 -2.34e-4,0 -0.04416,-0.015 -0.05712,-0.012 -0.0281,0 -0.04793,-0.014 -0.05712,-0.012 -0.01841,0.01 -0.01514,0.01 -0.02521,0.01 -0.01988,0.01 -0.02637,0.01 -0.05042,0.013 -0.04786,0.012 -0.120072,0.032 -0.201693,0.054 -0.162895,0.043 -0.405864,0.1093 -0.68071,0.1825 l -1.991709,0.5336 -0.731134,0.1959 -2.499499,-9.3282 0.731134,-0.196 1.991708,-0.5337 c 0.274587,-0.074 0.517816,-0.1387 0.680711,-0.1823 0.08125,-0.023 0.153834,-0.041 0.201693,-0.054 0.02379,-0.01 0.03054,-0.01 0.05042,-0.013 0.0098,0 0.0068,0 0.02521,-0.01 0.0092,0 0.01909,-0.027 0.04372,-0.038 0.01296,0 0.04349,-0.038 0.04372,-0.038 2.12e-4,-2e-4 0.174614,-0.155 0.17467,-0.155 3.6e-5,-10e-5 -0.0035,-0.215 -0.0036,-0.2151 -7.6e-5,-2e-4 -0.0072,-0.043 -0.0134,-0.05 -0.01285,-0.018 -0.03305,-0.037 -0.03861,-0.043 -0.01072,-0.011 -0.01861,0.013 -0.02522,0.01 -0.01256,-0.012 -0.02312,-0.031 -0.03861,-0.043 -0.03142,-0.026 -0.08011,-0.055 -0.134634,-0.099 -0.109045,-0.087 -0.238439,-0.227 -0.424135,-0.3727 -0.371416,-0.2914 -0.870103,-0.6804 -1.366487,-1.066 -0.496404,-0.3856 -0.992103,-0.7761 -1.366507,-1.066 -0.187213,-0.145 -0.357498,-0.2487 -0.467792,-0.334 -0.110295,-0.085 -0.19008,-0.1558 -0.173357,-0.1427 0.01666,0.012 -0.08248,-0.024 -0.191801,-0.1108 -0.109326,-0.086 -0.238447,-0.2265 -0.424135,-0.3727 -0.371357,-0.2923 -0.872508,-0.6784 -1.366487,-1.066 -0.493999,-0.3876 -0.993263,-0.7761 -1.366507,-1.066 -0.186622,-0.145 -0.337602,-0.2809 -0.449347,-0.366 -0.05575,-0.043 -0.119566,-0.043 -0.153079,-0.067 -0.01665,-0.012 -0.03108,-0.059 -0.04553,-0.069 -0.0077,-0.01 -0.01123,0.014 -0.02522,0.01 -0.0078,-0.01 0.01609,-0.013 -0.0067,-0.025 -0.01128,-0.01 -0.06363,-0.037 -0.06383,-0.037 -2.45e-4,0 -0.265404,0.018 -0.265519,0.018 z"
         id="path3634" />
      <path
         style="font-size:medium;font-style:normal;font-variant:normal;font-weight:normal;font-stretch:normal;text-indent:0;text-align:start;text-decoration:none;line-height:normal;letter-spacing:normal;word-spacing:normal;text-transform:none;direction:ltr;block-progression:tb;writing-mode:lr-tb;text-anchor:start;color:#000000;fill:#255900;fill-opacity:1;stroke:none;stroke-width:1;marker:none;visibility:visible;display:inline;overflow:visible;enable-background:accumulate;font-family:'A.C.M.E. Secret Agent';-inkscape-font-specification:'A.C.M.E. Secret Agent'"
         d="m 20.581886,1014.9937 c -1.15e-4,10e-5 -0.213299,0.1108 -0.213501,0.1108 -1.81e-4,2e-4 -0.02984,0.053 -0.03702,0.063 -0.01414,0.02 -0.03966,0.032 -0.04372,0.038 -0.0081,0.014 -0.02188,0 -0.02522,0.01 -0.0075,0.016 0.0033,0.063 -0.0049,0.083 -0.01666,0.038 -0.04682,0.063 -0.07383,0.1278 -0.0542,0.1297 -0.117025,0.3228 -0.206153,0.5416 -0.178256,0.4377 -0.416425,1.0238 -0.650413,1.6065 -0.23401,0.5826 -0.449763,1.1609 -0.625223,1.5996 -0.08772,0.2195 -0.179753,0.4191 -0.231364,0.5484 -0.05161,0.1293 -0.09349,0.2046 -0.08553,0.1851 0.008,-0.019 -6.75e-4,0.074 -0.05355,0.2035 -0.05288,0.129 -0.148499,0.304 -0.23813,0.5231 -0.179288,0.4383 -0.413331,1.0244 -0.650414,1.6065 -0.237105,0.5821 -0.474482,1.1683 -0.650435,1.6064 -0.08799,0.219 -0.180559,0.4183 -0.231364,0.5483 -0.02547,0.065 -0.0277,0.1081 -0.04184,0.1465 -0.0071,0.019 -0.0066,0.041 -0.01181,0.057 -0.0015,0.01 -0.0093,0.035 -0.01181,0.057 -0.0013,0.011 -0.01178,0.057 -0.01181,0.057 3.2e-5,3e-4 0.104388,0.1881 0.104466,0.1882 5.8e-5,0 0.203247,0.053 0.203502,0.053 2.34e-4,-10e-5 0.06872,0.01 0.08234,0.01 0.0281,0 0.0225,0.02 0.03191,0.018 0.01839,-0.01 0.04036,-0.012 0.05042,-0.013 0.01988,-0.01 0.05157,-0.014 0.07564,-0.02 0.04786,-0.012 0.09484,-0.026 0.176481,-0.048 0.162897,-0.043 0.405864,-0.1093 0.68071,-0.1824 l 2.016921,-0.5404 0.680711,-0.1824 2.499499,9.3282 -0.68071,0.1824 -2.016921,0.5404 c -0.274587,0.074 -0.517814,0.1388 -0.68071,0.1824 -0.08128,0.023 -0.128624,0.034 -0.176481,0.048 -0.02379,0.01 -0.05576,0.015 -0.07564,0.02 -0.0098,0 -0.03203,0.01 -0.05042,0.013 -0.0092,0 0.0053,0.017 -0.01851,0.032 -0.01296,0 -0.0687,0.045 -0.06893,0.045 -2.13e-4,2e-4 -0.149424,0.1481 -0.149459,0.1482 -3.5e-5,0 -0.0033,0.1896 -0.0032,0.1899 3.3e-5,0 0.03906,0.06 0.04553,0.069 0.01307,0.018 0.02612,0.011 0.03191,0.018 0.01007,0.01 1.02e-4,0.018 0.0067,0.025 0.01257,0.012 0.0162,0.01 0.03192,0.018 0.03142,0.026 0.06172,0.088 0.116166,0.131 0.109045,0.087 0.288861,0.2136 0.474559,0.3592 0.371415,0.2914 0.863336,0.6552 1.359741,1.0408 0.496405,0.3856 0.992103,0.7761 1.366508,1.0661 0.187212,0.145 0.364242,0.2739 0.474558,0.3592 0.110228,0.085 0.158038,0.1371 0.141378,0.1242 -0.01665,-0.012 0.06396,0.056 0.173335,0.1427 0.109326,0.086 0.28887,0.213 0.474558,0.3592 0.371356,0.2923 0.847317,0.6852 1.341296,1.0728 0.493979,0.3876 0.993243,0.776 1.366487,1.066 0.186621,0.145 0.337601,0.2808 0.449347,0.366 0.05597,0.043 0.09435,0.049 0.127867,0.073 0.01687,0.013 0.02417,0.033 0.03861,0.043 0.0077,0.01 0.01773,0.01 0.03191,0.018 0.0078,0.01 0.03477,0 0.05712,0.012 0.01128,0.01 0.05692,0.012 0.05712,0.012 2.02e-4,-10e-5 0.240192,-0.011 0.240306,-0.011 1.15e-4,-10e-5 0.238511,-0.1176 0.238713,-0.1176 -1.5e-5,-8e-4 0.03676,-0.028 0.04372,-0.038 0.01328,-0.023 -0.01011,-0.016 -0.0067,-0.025 0.0084,-0.013 0.01518,-0.023 0.01851,-0.032 0.0075,-0.016 0.0033,-0.038 0.01181,-0.057 0.01665,-0.038 0.07182,-0.07 0.09904,-0.1346 0.0542,-0.1297 0.117024,-0.3228 0.206152,-0.5416 0.178257,-0.4378 0.416426,-1.0238 0.650435,-1.6064 0.234009,-0.5827 0.474953,-1.1677 0.650413,-1.6065 0.08772,-0.2195 0.129333,-0.4057 0.180941,-0.5349 0.05158,-0.1293 0.112004,-0.2364 0.103992,-0.217 -0.008,0.019 0.03258,-0.056 0.08552,-0.185 0.05285,-0.1291 0.141732,-0.3292 0.231364,-0.5484 0.179287,-0.4382 0.413329,-1.0243 0.650413,-1.6064 0.237084,-0.5822 0.481227,-1.1432 0.65718,-1.5813 0.08799,-0.219 0.130133,-0.4048 0.18094,-0.5348 0.02548,-0.065 0.04619,-0.14 0.06031,-0.1783 0.0071,-0.019 0.0133,-0.016 0.01851,-0.032 0.0023,-0.01 0.01471,-0.017 0.01851,-0.032 0.0015,-0.01 0.01538,-0.012 0.01851,-0.032 0.0013,-0.011 -0.02035,-0.076 -0.02032,-0.076 -3.2e-5,-3e-4 -0.09762,-0.1629 -0.0977,-0.163 -7.8e-5,0 -0.228457,-0.047 -0.228713,-0.047 -2.34e-4,10e-5 -0.04416,-0.015 -0.05712,-0.012 -0.0281,0 -0.04792,-0.014 -0.05712,-0.012 -0.01841,0.01 -0.01514,0.01 -0.02522,0.01 -0.01988,0.01 -0.02637,0.01 -0.05042,0.013 -0.04786,0.013 -0.120073,0.033 -0.201693,0.054 -0.162895,0.043 -0.405864,0.1093 -0.680711,0.1824 l -1.991709,0.5337 -0.731134,0.1958 -2.499499,-9.3282 0.731133,-0.1959 1.99171,-0.5337 c 0.274587,-0.074 0.517816,-0.1387 0.680711,-0.1824 0.08125,-0.022 0.153834,-0.041 0.201692,-0.054 0.02379,-0.01 0.03054,-0.01 0.05042,-0.013 0.0098,0 0.0068,0 0.02521,-0.01 0.0092,0 0.01909,-0.027 0.04373,-0.038 0.01296,0 0.04349,-0.038 0.04372,-0.038 2.12e-4,-2e-4 0.174613,-0.1549 0.17467,-0.1549 3.6e-5,-2e-4 -0.0035,-0.215 -0.0036,-0.2152 -7.5e-5,-2e-4 -0.0072,-0.043 -0.01341,-0.05 -0.01285,-0.018 -0.03305,-0.037 -0.03861,-0.043 -0.01072,-0.011 -0.01861,0.013 -0.02521,0.01 -0.01257,-0.012 -0.02312,-0.031 -0.03861,-0.043 -0.03142,-0.026 -0.08011,-0.055 -0.134635,-0.099 -0.109044,-0.087 -0.238438,-0.2271 -0.424135,-0.3728 -0.371415,-0.2914 -0.870103,-0.6803 -1.366486,-1.0659 -0.496404,-0.3856 -0.992103,-0.7762 -1.366507,-1.0661 -0.187213,-0.145 -0.357498,-0.2486 -0.467792,-0.3339 -0.110296,-0.085 -0.19008,-0.1559 -0.173357,-0.1427 0.01666,0.013 -0.08248,-0.024 -0.191801,-0.1108 -0.109326,-0.086 -0.238447,-0.2266 -0.424135,-0.3728 -0.371357,-0.2923 -0.872508,-0.6783 -1.366486,-1.0659 -0.494,-0.3877 -0.993264,-0.7761 -1.366508,-1.0661 -0.186622,-0.145 -0.337602,-0.2808 -0.449347,-0.366 -0.05575,-0.042 -0.119566,-0.043 -0.153079,-0.067 -0.01665,-0.012 -0.03108,-0.059 -0.04553,-0.069 -0.0077,-0.01 -0.01123,0.014 -0.02521,0.01 -0.0078,-0.01 0.01609,-0.013 -0.0067,-0.025 -0.01128,-0.01 -0.06363,-0.037 -0.06383,-0.037 -2.45e-4,-10e-5 -0.265403,0.018 -0.265518,0.018 z"
         id="path3630" />
      <path
         id="path3606"
         d="m 20.659102,1015.2819 c -1.14e-4,0 -0.213299,0.1108 -0.213501,0.1108 -1.79e-4,10e-5 -0.02984,0.053 -0.03702,0.063 -0.01414,0.02 -0.03966,0.032 -0.04372,0.038 -0.0081,0.014 -0.02188,0 -0.02521,0.01 -0.0075,0.016 0.0033,0.064 -0.0049,0.083 -0.01666,0.038 -0.04682,0.063 -0.07383,0.1279 -0.0542,0.1296 -0.117025,0.3227 -0.206153,0.5416 -0.178256,0.4378 -0.416425,1.0238 -0.650413,1.6065 -0.23401,0.5826 -0.449763,1.1608 -0.625223,1.5996 -0.08772,0.2195 -0.179753,0.4192 -0.231364,0.5484 -0.05161,0.1293 -0.09349,0.2047 -0.08553,0.1851 0.008,-0.019 -6.75e-4,0.074 -0.05355,0.2035 -0.05288,0.129 -0.148499,0.3039 -0.23813,0.5231 -0.179287,0.4383 -0.41333,1.0243 -0.650413,1.6065 -0.237106,0.582 -0.474483,1.1683 -0.650436,1.6064 -0.08799,0.219 -0.180558,0.4183 -0.231363,0.5484 -0.02547,0.065 -0.0277,0.1081 -0.04184,0.1463 -0.0071,0.019 -0.0066,0.041 -0.01181,0.057 -0.0015,0.01 -0.0093,0.035 -0.01181,0.057 -0.0013,0.011 -0.01178,0.057 -0.01181,0.057 3.2e-5,3e-4 0.104388,0.1882 0.104466,0.1882 5.8e-5,0 0.203247,0.053 0.203502,0.053 2.34e-4,0 0.06872,0.01 0.08234,0.01 0.0281,0 0.0225,0.02 0.03191,0.018 0.01839,-0.01 0.04035,-0.012 0.05042,-0.013 0.01988,-0.01 0.05157,-0.014 0.07564,-0.02 0.04786,-0.013 0.09484,-0.026 0.176481,-0.048 0.162897,-0.043 0.405864,-0.1092 0.680711,-0.1823 l 2.01692,-0.5405 0.680711,-0.1824 2.499499,9.3283 -0.68071,0.1824 -2.016921,0.5405 c -0.274587,0.074 -0.517814,0.1387 -0.68071,0.1823 -0.08128,0.023 -0.128624,0.034 -0.176481,0.048 -0.02379,0.01 -0.05576,0.015 -0.07564,0.02 -0.0098,0 -0.03203,0.01 -0.05042,0.013 -0.0092,0 0.0053,0.017 -0.01851,0.032 -0.01296,0 -0.0687,0.045 -0.06893,0.045 -2.12e-4,2e-4 -0.149423,0.1481 -0.149459,0.1482 -3.5e-5,10e-5 -0.0033,0.1897 -0.0032,0.1899 3.3e-5,0 0.03906,0.06 0.04553,0.069 0.01307,0.018 0.02612,0.011 0.03191,0.018 0.01007,0.01 1.02e-4,0.018 0.0067,0.025 0.01258,0.012 0.0162,0.01 0.03192,0.018 0.03142,0.026 0.06172,0.088 0.116166,0.1309 0.109045,0.087 0.288861,0.2136 0.474559,0.3593 0.371415,0.2914 0.863337,0.6551 1.359742,1.0408 0.496404,0.3857 0.992103,0.7761 1.366507,1.066 0.187212,0.145 0.364242,0.2739 0.474558,0.3593 0.110228,0.085 0.158038,0.137 0.141378,0.1242 -0.01665,-0.013 0.06397,0.056 0.173335,0.1426 0.109326,0.086 0.28887,0.2131 0.474558,0.3593 0.371356,0.2923 0.847317,0.6852 1.341297,1.0728 0.493978,0.3875 0.993242,0.7759 1.366486,1.0659 0.186621,0.145 0.337601,0.2809 0.449347,0.366 0.05597,0.043 0.09435,0.049 0.127867,0.073 0.01687,0.013 0.02417,0.033 0.03861,0.043 0.0077,0.01 0.01773,0.01 0.03191,0.018 0.0078,0.01 0.03477,0 0.05712,0.012 0.01128,0.01 0.05692,0.012 0.05712,0.012 2.02e-4,-10e-5 0.240192,-0.011 0.240307,-0.011 1.14e-4,-10e-5 0.23851,-0.1176 0.238712,-0.1176 2.02e-4,-10e-5 0.03676,-0.028 0.04372,-0.038 0.01328,-0.023 -0.01011,-0.016 -0.0067,-0.025 0.0084,-0.013 0.01518,-0.023 0.01851,-0.032 0.0075,-0.016 0.0033,-0.038 0.01181,-0.057 0.01665,-0.038 0.07182,-0.07 0.09904,-0.1345 0.0542,-0.1296 0.117024,-0.3228 0.206153,-0.5417 0.178256,-0.4377 0.416425,-1.0237 0.650434,-1.6064 0.234008,-0.5826 0.474953,-1.1676 0.650413,-1.6064 0.08772,-0.2194 0.129333,-0.4056 0.180941,-0.5349 0.05158,-0.1293 0.112004,-0.2364 0.103992,-0.217 -0.008,0.019 0.03258,-0.056 0.08553,-0.185 0.05286,-0.1291 0.141731,-0.3293 0.231364,-0.5484 0.179287,-0.4383 0.41333,-1.0243 0.650413,-1.6065 0.237084,-0.5821 0.481227,-1.1431 0.65718,-1.5812 0.08799,-0.219 0.130133,-0.4048 0.18094,-0.5348 0.02548,-0.065 0.04619,-0.1399 0.06031,-0.1784 0.0071,-0.019 0.0133,-0.016 0.01851,-0.032 0.0023,-0.01 0.01471,-0.017 0.01851,-0.032 0.0015,-0.01 0.01538,-0.013 0.01851,-0.032 0.0013,-0.011 -0.02035,-0.076 -0.02032,-0.076 -3.3e-5,-2e-4 -0.09762,-0.1629 -0.0977,-0.1629 -7.9e-5,0 -0.228458,-0.047 -0.228714,-0.047 -2.34e-4,10e-5 -0.04416,-0.015 -0.05712,-0.012 -0.0281,0 -0.04793,-0.014 -0.05712,-0.012 -0.01841,0.01 -0.01514,0.01 -0.02522,0.01 -0.01988,0.01 -0.02637,0.01 -0.05042,0.013 -0.04786,0.013 -0.120072,0.033 -0.201692,0.054 -0.162895,0.043 -0.405864,0.1092 -0.680711,0.1823 l -1.991709,0.5337 -0.731133,0.196 -2.4995,-9.3284 0.731134,-0.1958 1.991709,-0.5337 c 0.274587,-0.074 0.517815,-0.1388 0.680711,-0.1824 0.08125,-0.023 0.153834,-0.041 0.201691,-0.054 0.0238,-0.01 0.03055,-0.01 0.05042,-0.013 0.0098,0 0.0068,0 0.02521,-0.01 0.0092,0 0.01909,-0.027 0.04373,-0.038 0.01296,0 0.04349,-0.038 0.04372,-0.038 2.12e-4,-10e-5 0.174612,-0.1548 0.17467,-0.1548 3.6e-5,-10e-5 -0.0035,-0.215 -0.0036,-0.2153 -7.6e-5,-10e-5 -0.0072,-0.043 -0.01341,-0.05 -0.01285,-0.017 -0.03305,-0.037 -0.03861,-0.043 -0.01072,-0.011 -0.0186,0.013 -0.02521,0.01 -0.01257,-0.012 -0.02312,-0.031 -0.03861,-0.043 -0.03142,-0.026 -0.08011,-0.055 -0.134634,-0.099 -0.109046,-0.087 -0.238439,-0.2271 -0.424135,-0.3727 -0.371416,-0.2914 -0.870104,-0.6804 -1.366487,-1.0659 -0.496404,-0.3857 -0.992103,-0.7761 -1.366507,-1.066 -0.187213,-0.1451 -0.357498,-0.2488 -0.467792,-0.334 -0.110296,-0.085 -0.19008,-0.1559 -0.173357,-0.1428 0.01666,0.013 -0.08248,-0.024 -0.191801,-0.1107 -0.109326,-0.086 -0.238447,-0.2266 -0.424135,-0.3728 -0.371357,-0.2922 -0.872508,-0.6784 -1.366487,-1.0659 -0.493999,-0.3877 -0.993263,-0.7761 -1.366507,-1.0661 -0.186622,-0.1449 -0.337602,-0.2808 -0.449347,-0.3659 -0.05575,-0.042 -0.119566,-0.043 -0.153079,-0.067 -0.01665,-0.012 -0.03108,-0.059 -0.04553,-0.069 -0.0077,-0.01 -0.01123,0.014 -0.02522,0.01 -0.0078,-0.01 0.01609,-0.012 -0.0067,-0.025 -0.01128,-0.01 -0.06363,-0.037 -0.06383,-0.037 -2.46e-4,-2e-4 -0.265404,0.017 -0.265519,0.017 z"
         style="font-size:medium;font-style:normal;font-variant:normal;font-weight:normal;font-stretch:normal;text-indent:0;text-align:start;text-decoration:none;line-height:normal;letter-spacing:normal;word-spacing:normal;text-transform:none;direction:ltr;block-progression:tb;writing-mode:lr-tb;text-anchor:start;color:#000000;fill:url(#linearGradient3649);fill-opacity:1;stroke:none;stroke-width:1;marker:none;visibility:visible;display:inline;overflow:visible;enable-background:accumulate;font-family:'A.C.M.E. Secret Agent';-inkscape-font-specification:'A.C.M.E. Secret Agent'" />
      <path
         style="fill:#9dd144;fill-opacity:1;stroke:none"
         d="m 19.1875,1008.3661 c -0.796046,0.056 -1.538035,0.5039 -1.96875,1.25 l -12.6875,21.9687 c -0.6891432,1.1937 -0.2873811,2.7171 0.90625,3.4063 l 21.96875,12.6875 c 1.193631,0.6891 2.717107,0.2874 3.40625,-0.9063 L 43.5,1024.8036 c 0.689143,-1.1937 0.287381,-2.7171 -0.90625,-3.4063 L 20.625,1008.7098 c -0.447612,-0.2584 -0.959872,-0.3771 -1.4375,-0.3437 z m 0.84375,3.5 c 0.393311,-0.028 0.818906,0.068 1.1875,0.2812 l 18.09375,10.4375 c 0.982918,0.5675 1.317488,1.8296 0.75,2.8125 l -10.4375,18.0938 c -0.567488,0.9829 -1.829582,1.3175 -2.8125,0.75 L 8.71875,1033.8036 c -0.9829177,-0.5675 -1.3174878,-1.8296 -0.75,-2.8125 l 10.4375,-18.0938 c 0.35468,-0.6143 0.969481,-0.9854 1.625,-1.0312 z"
         id="path3622" />
      <path
         style="fill:#255900;fill-opacity:1;stroke:none"
         d="m 19.1875,1007.6083 c -0.796046,0.056 -1.538035,0.504 -1.96875,1.25 l -12.6875,21.9688 c -0.6891432,1.1936 -0.2873811,2.7171 0.90625,3.4062 l 21.96875,12.6875 c 1.193631,0.6892 2.717107,0.2874 3.40625,-0.9062 L 43.5,1024.0458 c 0.689143,-1.1936 0.287381,-2.7171 -0.90625,-3.4062 L 20.625,1007.9521 c -0.447612,-0.2584 -0.959872,-0.3772 -1.4375,-0.3438 z m 0.84375,3.5 c 0.393311,-0.028 0.818906,0.068 1.1875,0.2813 l 18.09375,10.4375 c 0.982918,0.5675 1.317488,1.8296 0.75,2.8125 l -10.4375,18.0937 c -0.567488,0.9829 -1.829582,1.3175 -2.8125,0.75 L 8.71875,1033.0458 c -0.9829177,-0.5675 -1.3174878,-1.8296 -0.75,-2.8125 l 10.4375,-18.0937 c 0.35468,-0.6143 0.969481,-0.9854 1.625,-1.0313 z"
         id="path3618" />
      <path
         id="rect2835"
         transform="translate(0,1004.3622)"
         d="m 19.1875,3.625 c -0.796046,0.055648 -1.538035,0.5039806 -1.96875,1.25 L 4.53125,26.84375 C 3.8421068,28.037381 4.2438689,29.560857 5.4375,30.25 l 21.96875,12.6875 c 1.193631,0.689143 2.717107,0.287381 3.40625,-0.90625 L 43.5,20.0625 c 0.689143,-1.193631 0.287381,-2.717107 -0.90625,-3.40625 L 20.625,3.96875 C 20.177388,3.7103213 19.665128,3.5916115 19.1875,3.625 z m 0.84375,3.5 c 0.393311,-0.027494 0.818906,0.068442 1.1875,0.28125 l 18.09375,10.4375 c 0.982918,0.567488 1.317488,1.829582 0.75,2.8125 L 29.625,38.75 c -0.567488,0.982918 -1.829582,1.317488 -2.8125,0.75 L 8.71875,29.0625 C 7.7358323,28.495012 7.4012622,27.232918 7.96875,26.25 L 18.40625,8.15625 c 0.35468,-0.6143236 0.969481,-0.9854261 1.625,-1.03125 z"
         style="fill:url(#linearGradient3616);fill-opacity:1;stroke:none" />
    </g>
    <g
       style="font-size:9px;font-style:normal;font-variant:normal;font-weight:normal;font-stretch:normal;fill:#333333;fill-opacity:1;stroke:none;font-family:Calibri;-inkscape-font-specification:Calibri"
       id="text2952">
      <path
         d="m 13.804688,1045.8788 c -3e-6,0.085 -0.0059,0.1523 -0.01758,0.2021 -0.01172,0.05 -0.0293,0.087 -0.05273,0.1099 -0.02344,0.023 -0.0586,0.045 -0.105469,0.066 -0.04688,0.021 -0.101076,0.037 -0.162597,0.048 -0.0586,0.015 -0.121585,0.026 -0.188965,0.035 -0.06738,0.01 -0.134768,0.013 -0.202149,0.013 -0.20508,0 -0.380861,-0.026 -0.527343,-0.079 -0.146486,-0.056 -0.266603,-0.1377 -0.360352,-0.2461 -0.09375,-0.1113 -0.162599,-0.2505 -0.206543,-0.4175 -0.04102,-0.1699 -0.06152,-0.3691 -0.06152,-0.5976 l 0,-2.3116 -0.553711,0 c -0.04395,0 -0.0791,-0.023 -0.105469,-0.07 -0.02637,-0.047 -0.03955,-0.123 -0.03955,-0.2285 0,-0.056 0.0029,-0.1025 0.0088,-0.1406 0.0088,-0.038 0.01904,-0.069 0.03076,-0.092 0.01172,-0.026 0.02637,-0.044 0.04395,-0.053 0.02051,-0.012 0.04248,-0.018 0.06592,-0.018 l 0.549317,0 0,-0.9404 c -1e-6,-0.021 0.0044,-0.04 0.01318,-0.057 0.01172,-0.017 0.03076,-0.032 0.05713,-0.044 0.0293,-0.015 0.06738,-0.025 0.114258,-0.031 0.04687,-0.01 0.105468,-0.01 0.175781,-0.01 0.07324,0 0.1333,0 0.180176,0.01 0.04687,0.01 0.0835,0.016 0.109863,0.031 0.02637,0.012 0.04541,0.026 0.05713,0.044 0.01172,0.018 0.01758,0.037 0.01758,0.057 l 0,0.9404 1.015137,0 c 0.02343,0 0.04394,0.01 0.06152,0.018 0.01758,0.01 0.03222,0.026 0.04395,0.053 0.01465,0.023 0.0249,0.054 0.03076,0.092 0.0059,0.038 0.0088,0.085 0.0088,0.1406 -3e-6,0.1055 -0.01319,0.1817 -0.03955,0.2285 -0.02637,0.047 -0.06153,0.07 -0.105469,0.07 l -1.015137,0 0,2.2061 c -1e-6,0.2725 0.03955,0.479 0.118653,0.6196 0.08203,0.1377 0.227048,0.2066 0.435058,0.2066 0.06738,0 0.127439,-0.01 0.180176,-0.018 0.05273,-0.015 0.09961,-0.029 0.140625,-0.044 0.04101,-0.015 0.07617,-0.028 0.105469,-0.039 0.02929,-0.015 0.05566,-0.022 0.0791,-0.022 0.01465,0 0.02783,0 0.03955,0.013 0.01465,0.01 0.0249,0.019 0.03076,0.04 0.0088,0.02 0.01611,0.048 0.02197,0.083 0.0059,0.035 0.0088,0.079 0.0088,0.1319"
         style=""
         id="path3729" />
      <path
         d="m 18.361816,1044.1473 c -4e-6,0.3223 -0.04248,0.6197 -0.127441,0.8921 -0.08497,0.2696 -0.212406,0.5025 -0.382324,0.6988 -0.166996,0.1962 -0.377933,0.3501 -0.632813,0.4614 -0.251956,0.1084 -0.544924,0.1626 -0.878906,0.1626 -0.325197,0 -0.609377,-0.048 -0.852539,-0.145 -0.240236,-0.097 -0.440919,-0.2373 -0.602051,-0.4219 -0.161133,-0.1846 -0.28125,-0.4087 -0.360351,-0.6724 -0.0791,-0.2636 -0.118653,-0.5625 -0.118653,-0.8965 0,-0.3222 0.04101,-0.6181 0.123047,-0.8877 0.08496,-0.2724 0.210937,-0.5068 0.37793,-0.7031 0.169921,-0.1963 0.380858,-0.3486 0.632812,-0.457 0.251952,-0.1084 0.546385,-0.1626 0.883301,-0.1626 0.325193,0 0.607907,0.048 0.848145,0.145 0.24316,0.097 0.445308,0.2373 0.606445,0.4219 0.161129,0.1846 0.281246,0.4087 0.360352,0.6723 0.08203,0.2637 0.123042,0.5611 0.123046,0.8921 m -0.764648,0.048 c -4e-6,-0.2139 -0.02051,-0.416 -0.06152,-0.6065 -0.03809,-0.1904 -0.102543,-0.3574 -0.19336,-0.5009 -0.09082,-0.1436 -0.21387,-0.2564 -0.36914,-0.3384 -0.155277,-0.085 -0.348636,-0.1275 -0.580079,-0.1275 -0.213869,0 -0.398439,0.038 -0.553711,0.1143 -0.152345,0.076 -0.278321,0.1846 -0.377929,0.3252 -0.09961,0.1377 -0.174318,0.3018 -0.224121,0.4922 -0.04688,0.1904 -0.07031,0.3984 -0.07031,0.624 -1e-6,0.2168 0.01904,0.4204 0.05713,0.6108 0.04101,0.1905 0.106932,0.3575 0.197754,0.501 0.09375,0.1406 0.21826,0.2534 0.373535,0.3384 0.155272,0.082 0.348631,0.123 0.580078,0.123 0.210935,0 0.39404,-0.038 0.549317,-0.1142 0.15527,-0.076 0.282711,-0.1831 0.382324,-0.3208 0.09961,-0.1377 0.172848,-0.3018 0.219726,-0.4922 0.04687,-0.1904 0.07031,-0.3999 0.07031,-0.6284"
         style=""
         id="path3731" />
      <path
         d="m 21.741211,1042.473 c -3e-6,0.064 -0.0015,0.1187 -0.0044,0.1626 -0.0029,0.044 -0.0088,0.079 -0.01758,0.1055 -0.0088,0.023 -0.02051,0.043 -0.03516,0.057 -0.01172,0.012 -0.0293,0.018 -0.05273,0.018 -0.02344,0 -0.05274,-0.01 -0.08789,-0.018 -0.03223,-0.015 -0.07032,-0.028 -0.114258,-0.039 -0.04102,-0.015 -0.08789,-0.028 -0.140625,-0.04 -0.05274,-0.012 -0.109865,-0.018 -0.171387,-0.018 -0.07324,0 -0.145021,0.015 -0.215332,0.044 -0.07031,0.029 -0.145021,0.078 -0.224121,0.145 -0.07617,0.067 -0.15674,0.1567 -0.241699,0.2681 -0.08496,0.1113 -0.178712,0.2475 -0.28125,0.4087 l 0,2.6015 c -1e-6,0.024 -0.0059,0.044 -0.01758,0.062 -0.01172,0.015 -0.03076,0.028 -0.05713,0.04 -0.02637,0.012 -0.06299,0.021 -0.109863,0.026 -0.04688,0.01 -0.106935,0.01 -0.180176,0.01 -0.07031,0 -0.128907,-0 -0.175781,-0.01 -0.04688,-0.01 -0.08496,-0.015 -0.114258,-0.026 -0.02637,-0.012 -0.04541,-0.025 -0.05713,-0.04 -0.0088,-0.017 -0.01318,-0.038 -0.01318,-0.062 l 0,-3.9551 c 0,-0.023 0.0044,-0.042 0.01318,-0.057 0.0088,-0.018 0.02637,-0.032 0.05273,-0.044 0.02637,-0.015 0.06006,-0.024 0.101075,-0.026 0.04101,-0.01 0.09521,-0.01 0.162597,-0.01 0.06445,0 0.117187,0 0.158203,0.01 0.04394,0 0.07764,0.012 0.101075,0.026 0.02344,0.012 0.03955,0.026 0.04834,0.044 0.01172,0.015 0.01758,0.034 0.01758,0.057 l 0,0.5757 c 0.108397,-0.1582 0.209471,-0.2871 0.303222,-0.3867 0.09668,-0.1 0.187498,-0.1772 0.272461,-0.2329 0.08496,-0.059 0.168455,-0.098 0.250489,-0.1187 0.08496,-0.023 0.169919,-0.035 0.254882,-0.035 0.03808,0 0.08056,0 0.127442,0.01 0.0498,0 0.101071,0.01 0.153808,0.022 0.05273,0.012 0.09961,0.025 0.140625,0.039 0.04394,0.015 0.0747,0.029 0.09229,0.044 0.01758,0.015 0.02929,0.029 0.03516,0.044 0.0059,0.012 0.01025,0.028 0.01318,0.048 0.0059,0.02 0.0088,0.051 0.0088,0.092 0.0029,0.038 0.0044,0.091 0.0044,0.1582"
         style=""
         id="path3733" />
      <path
         d="m 24.887695,1042.473 c -3e-6,0.064 -0.0015,0.1187 -0.0044,0.1626 -0.0029,0.044 -0.0088,0.079 -0.01758,0.1055 -0.0088,0.023 -0.02051,0.043 -0.03516,0.057 -0.01172,0.012 -0.0293,0.018 -0.05273,0.018 -0.02344,0 -0.05274,-0.01 -0.08789,-0.018 -0.03223,-0.015 -0.07032,-0.028 -0.114257,-0.039 -0.04102,-0.015 -0.08789,-0.028 -0.140625,-0.04 -0.05274,-0.012 -0.109866,-0.018 -0.171387,-0.018 -0.07325,0 -0.145022,0.015 -0.215332,0.044 -0.07032,0.029 -0.145022,0.078 -0.224121,0.145 -0.07617,0.067 -0.15674,0.1567 -0.241699,0.2681 -0.08496,0.1113 -0.178713,0.2475 -0.28125,0.4087 l 0,2.6015 c -2e-6,0.024 -0.0059,0.044 -0.01758,0.062 -0.01172,0.015 -0.03076,0.028 -0.05713,0.04 -0.02637,0.012 -0.06299,0.021 -0.109863,0.026 -0.04688,0.01 -0.106934,0.01 -0.180176,0.01 -0.07031,0 -0.128907,-0 -0.175781,-0.01 -0.04688,-0.01 -0.08496,-0.015 -0.114258,-0.026 -0.02637,-0.012 -0.04541,-0.025 -0.05713,-0.04 -0.0088,-0.017 -0.01318,-0.038 -0.01318,-0.062 l 0,-3.9551 c -1e-6,-0.023 0.0044,-0.042 0.01318,-0.057 0.0088,-0.018 0.02637,-0.032 0.05273,-0.044 0.02637,-0.015 0.06006,-0.024 0.101074,-0.026 0.04102,-0.01 0.09521,-0.01 0.162598,-0.01 0.06445,0 0.117186,0 0.158203,0.01 0.04394,0 0.07764,0.012 0.101074,0.026 0.02344,0.012 0.03955,0.026 0.04834,0.044 0.01172,0.015 0.01758,0.034 0.01758,0.057 l 0,0.5757 c 0.108397,-0.1582 0.209471,-0.2871 0.303223,-0.3867 0.09668,-0.1 0.187498,-0.1772 0.272461,-0.2329 0.08496,-0.059 0.168455,-0.098 0.250488,-0.1187 0.08496,-0.023 0.169919,-0.035 0.254883,-0.035 0.03808,0 0.08056,0 0.127441,0.01 0.0498,0 0.101072,0.01 0.153809,0.022 0.05273,0.012 0.09961,0.025 0.140625,0.039 0.04394,0.015 0.0747,0.029 0.09229,0.044 0.01758,0.015 0.02929,0.029 0.03516,0.044 0.0059,0.012 0.01025,0.028 0.01318,0.048 0.0059,0.02 0.0088,0.051 0.0088,0.092 0.0029,0.038 0.0044,0.091 0.0044,0.1582"
         style=""
         id="path3735" />
      <path
         d="m 28.974609,1044.0199 c -4e-6,0.1143 -0.0293,0.1963 -0.08789,0.2461 -0.05567,0.047 -0.120121,0.07 -0.19336,0.07 l -2.592773,0 c -1e-6,0.2197 0.02197,0.4175 0.06592,0.5933 0.04394,0.1757 0.117186,0.3266 0.219726,0.4526 0.102538,0.126 0.235839,0.2227 0.399903,0.29 0.16406,0.067 0.364744,0.1011 0.602051,0.1011 0.187497,0 0.354489,-0.015 0.500976,-0.044 0.146481,-0.032 0.272458,-0.067 0.37793,-0.1055 0.108395,-0.038 0.196285,-0.072 0.263672,-0.1011 0.07031,-0.032 0.123043,-0.048 0.158203,-0.048 0.0205,0 0.03808,0.01 0.05273,0.018 0.01758,0.01 0.03076,0.023 0.03955,0.044 0.0088,0.02 0.01465,0.05 0.01758,0.088 0.0059,0.035 0.0088,0.079 0.0088,0.1318 -4e-6,0.038 -0.0015,0.072 -0.0044,0.1011 -0.0029,0.026 -0.0073,0.051 -0.01318,0.075 -0.0029,0.021 -0.01026,0.04 -0.02197,0.057 -0.0088,0.018 -0.02198,0.035 -0.03955,0.053 -0.01465,0.015 -0.06153,0.041 -0.140625,0.079 -0.07911,0.035 -0.181644,0.07 -0.307618,0.1055 -0.125979,0.035 -0.272464,0.066 -0.439453,0.092 -0.164065,0.029 -0.339846,0.044 -0.527343,0.044 -0.325198,0 -0.610842,-0.045 -0.856934,-0.1362 -0.243165,-0.091 -0.448243,-0.2256 -0.615234,-0.4043 -0.166993,-0.1788 -0.29297,-0.4029 -0.37793,-0.6724 -0.08496,-0.2695 -0.127442,-0.583 -0.127442,-0.9404 0,-0.3399 0.04394,-0.6446 0.131836,-0.9141 0.08789,-0.2725 0.213867,-0.5024 0.37793,-0.6899 0.166991,-0.1905 0.367675,-0.3355 0.602051,-0.4351 0.234373,-0.1025 0.49658,-0.1538 0.786621,-0.1538 0.310544,0 0.574216,0.05 0.791016,0.1494 0.219723,0.1 0.399898,0.2344 0.540527,0.4043 0.140621,0.167 0.24316,0.3648 0.307617,0.5933 0.06738,0.2256 0.10107,0.4673 0.101074,0.7251 l 0,0.1318 m -0.729492,-0.2153 c 0.0088,-0.3809 -0.07617,-0.6797 -0.254883,-0.8965 -0.175784,-0.2168 -0.437991,-0.3252 -0.786621,-0.3252 -0.178713,0 -0.335451,0.034 -0.470215,0.1011 -0.134767,0.067 -0.24756,0.1567 -0.338378,0.268 -0.09082,0.1114 -0.161135,0.2417 -0.210938,0.3911 -0.04981,0.1465 -0.07764,0.3003 -0.0835,0.4615 l 2.144531,0"
         style=""
         id="path3737" />
      <path
         d="m 33.487793,1046.1688 c -4e-6,0.024 -0.0059,0.044 -0.01758,0.062 -0.01172,0.015 -0.03077,0.028 -0.05713,0.04 -0.02637,0.012 -0.06299,0.021 -0.109863,0.026 -0.04688,0.01 -0.105473,0.01 -0.175782,0.01 -0.07325,0 -0.133304,-0 -0.180175,-0.01 -0.04688,-0.01 -0.0835,-0.015 -0.109864,-0.026 -0.02637,-0.012 -0.04541,-0.025 -0.05713,-0.04 -0.01172,-0.017 -0.01758,-0.038 -0.01758,-0.062 l 0,-2.3159 c -3e-6,-0.2256 -0.01758,-0.4072 -0.05273,-0.5449 -0.03516,-0.1377 -0.08643,-0.2564 -0.153809,-0.356 -0.06739,-0.1 -0.155276,-0.1758 -0.263672,-0.2285 -0.105471,-0.053 -0.228518,-0.079 -0.36914,-0.079 -0.181643,0 -0.363284,0.065 -0.544922,0.1934 -0.181642,0.1289 -0.372072,0.3178 -0.571289,0.5669 l 0,2.7641 c -1e-6,0.024 -0.0059,0.044 -0.01758,0.062 -0.01172,0.015 -0.03076,0.028 -0.05713,0.04 -0.02637,0.012 -0.06299,0.021 -0.109863,0.026 -0.04688,0.01 -0.106935,0.01 -0.180176,0.01 -0.07031,0 -0.128907,-0 -0.175781,-0.01 -0.04688,-0.01 -0.08496,-0.015 -0.114258,-0.026 -0.02637,-0.012 -0.04541,-0.025 -0.05713,-0.04 -0.0088,-0.017 -0.01318,-0.038 -0.01318,-0.062 l 0,-3.9551 c 0,-0.023 0.0044,-0.042 0.01318,-0.057 0.0088,-0.018 0.02637,-0.032 0.05273,-0.044 0.02637,-0.015 0.06006,-0.024 0.101074,-0.026 0.04101,-0.01 0.09521,-0.01 0.162598,-0.01 0.06445,0 0.117186,0 0.158203,0.01 0.04394,0 0.07764,0.012 0.101074,0.026 0.02344,0.012 0.03955,0.026 0.04834,0.044 0.01172,0.015 0.01758,0.034 0.01758,0.057 l 0,0.523 c 0.222655,-0.249 0.443846,-0.4307 0.663575,-0.5449 0.222654,-0.1172 0.446775,-0.1758 0.672363,-0.1758 0.263669,0 0.48486,0.045 0.663574,0.1362 0.181637,0.088 0.328121,0.2066 0.439453,0.356 0.111324,0.1494 0.190426,0.3252 0.237305,0.5273 0.0498,0.1992 0.0747,0.4395 0.07471,0.7207 l 0,2.4126"
         style=""
         id="path3739" />
      <path
         d="m 36.779297,1045.8788 c -3e-6,0.085 -0.0059,0.1523 -0.01758,0.2021 -0.01172,0.05 -0.0293,0.087 -0.05273,0.1099 -0.02344,0.023 -0.0586,0.045 -0.105468,0.066 -0.04688,0.021 -0.101077,0.037 -0.162598,0.048 -0.0586,0.015 -0.121584,0.026 -0.188965,0.035 -0.06739,0.01 -0.134768,0.013 -0.202148,0.013 -0.20508,0 -0.380861,-0.026 -0.527344,-0.079 -0.146486,-0.056 -0.266603,-0.1377 -0.360352,-0.2461 -0.09375,-0.1113 -0.162598,-0.2505 -0.206543,-0.4175 -0.04102,-0.1699 -0.06152,-0.3691 -0.06152,-0.5976 l 0,-2.3116 -0.553711,0 c -0.04395,0 -0.0791,-0.023 -0.105469,-0.07 -0.02637,-0.047 -0.03955,-0.123 -0.03955,-0.2285 0,-0.056 0.0029,-0.1025 0.0088,-0.1406 0.0088,-0.038 0.01904,-0.069 0.03076,-0.092 0.01172,-0.026 0.02637,-0.044 0.04395,-0.053 0.02051,-0.012 0.04248,-0.018 0.06592,-0.018 l 0.549316,0 0,-0.9404 c -1e-6,-0.021 0.0044,-0.04 0.01318,-0.057 0.01172,-0.017 0.03076,-0.032 0.05713,-0.044 0.0293,-0.015 0.06738,-0.025 0.114258,-0.031 0.04687,-0.01 0.105468,-0.01 0.175782,-0.01 0.07324,0 0.133299,0 0.180175,0.01 0.04687,0.01 0.08349,0.016 0.109864,0.031 0.02636,0.012 0.04541,0.026 0.05713,0.044 0.01172,0.018 0.01758,0.037 0.01758,0.057 l 0,0.9404 1.015136,0 c 0.02343,0 0.04394,0.01 0.06152,0.018 0.01757,0.01 0.03222,0.026 0.04394,0.053 0.01465,0.023 0.0249,0.054 0.03076,0.092 0.0059,0.038 0.0088,0.085 0.0088,0.1406 -3e-6,0.1055 -0.01319,0.1817 -0.03955,0.2285 -0.02637,0.047 -0.06153,0.07 -0.105469,0.07 l -1.015136,0 0,2.2061 c -2e-6,0.2725 0.03955,0.479 0.118652,0.6196 0.08203,0.1377 0.227049,0.2066 0.435059,0.2066 0.06738,0 0.127439,-0.01 0.180175,-0.018 0.05273,-0.015 0.09961,-0.029 0.140625,-0.044 0.04101,-0.015 0.07617,-0.028 0.105469,-0.039 0.02929,-0.015 0.05566,-0.022 0.0791,-0.022 0.01464,0 0.02783,0 0.03955,0.013 0.01465,0.01 0.0249,0.019 0.03076,0.04 0.0088,0.02 0.01611,0.048 0.02197,0.083 0.0059,0.035 0.0088,0.079 0.0088,0.1319"
         style=""
         id="path3741" />
    </g>
  </g>
</svg>
