<?xml version="1.0" encoding="UTF-8" standalone="no"?>
<!-- Created with Inkscape (http://www.inkscape.org/) -->

<svg
   xmlns:dc="http://purl.org/dc/elements/1.1/"
   xmlns:cc="http://creativecommons.org/ns#"
   xmlns:rdf="http://www.w3.org/1999/02/22-rdf-syntax-ns#"
   xmlns:svg="http://www.w3.org/2000/svg"
   xmlns="http://www.w3.org/2000/svg"
   xmlns:xlink="http://www.w3.org/1999/xlink"
   xmlns:sodipodi="http://sodipodi.sourceforge.net/DTD/sodipodi-0.dtd"
   xmlns:inkscape="http://www.inkscape.org/namespaces/inkscape"
   width="48"
   height="48"
   id="svg2"
   version="1.1"
   inkscape:version="0.47pre4 r22446"
   sodipodi:docname="audio-x-generic.svg"
   inkscape:export-filename="/home/andrea/Documenti/MeliaeSVG/48/mimetypes/png/audio-x-mpeg.png"
   inkscape:export-xdpi="240"
   inkscape:export-ydpi="240">
  <defs
     id="defs4">
    <linearGradient
       id="linearGradient3712">
      <stop
         id="stop3714"
         offset="0"
         style="stop-color:#c8c8c8;stop-opacity:1;" />
      <stop
         style="stop-color:#ebebeb;stop-opacity:0;"
         offset="0.10759631"
         id="stop3716" />
      <stop
         style="stop-color:#ebebeb;stop-opacity:0;"
         offset="0.75010377"
         id="stop3718" />
      <stop
         id="stop3720"
         offset="1"
         style="stop-color:#c8c8c8;stop-opacity:0;" />
    </linearGradient>
    <linearGradient
       id="linearGradient2930">
      <stop
         style="stop-color:#c8c8c8;stop-opacity:1;"
         offset="0"
         id="stop2932" />
      <stop
         id="stop2934"
         offset="0.10759631"
         style="stop-color:#ebebeb;stop-opacity:1;" />
      <stop
         id="stop2936"
         offset="0.75010377"
         style="stop-color:#ebebeb;stop-opacity:1;" />
      <stop
         style="stop-color:#c8c8c8;stop-opacity:1;"
         offset="1"
         id="stop2938" />
    </linearGradient>
    <linearGradient
       id="linearGradient4203">
      <stop
         style="stop-color:#f0f0f0;stop-opacity:1;"
         offset="0"
         id="stop4205" />
      <stop
         style="stop-color:#ffffff;stop-opacity:1;"
         offset="1"
         id="stop4207" />
    </linearGradient>
    <inkscape:perspective
       sodipodi:type="inkscape:persp3d"
       inkscape:vp_x="0 : 526.18109 : 1"
       inkscape:vp_y="0 : 1000 : 0"
       inkscape:vp_z="744.09448 : 526.18109 : 1"
       inkscape:persp3d-origin="372.04724 : 350.78739 : 1"
       id="perspective10" />
    <linearGradient
       inkscape:collect="always"
       xlink:href="#linearGradient4203"
       id="linearGradient4209"
       x1="35.08004"
       y1="1042.766"
       x2="16.552662"
       y2="1011.3753"
       gradientUnits="userSpaceOnUse"
       gradientTransform="translate(0,1.7382813e-5)" />
    <inkscape:perspective
       sodipodi:type="inkscape:persp3d"
       inkscape:vp_x="0 : 0.5 : 1"
       inkscape:vp_y="0 : 1000 : 0"
       inkscape:vp_z="1 : 0.5 : 1"
       inkscape:persp3d-origin="0.5 : 0.33333333 : 1"
       id="perspective4931" />
    <linearGradient
       y2="115.5"
       x2="28.75"
       y1="35.673389"
       x1="28.75"
       gradientUnits="userSpaceOnUse"
       id="linearGradient4141"
       xlink:href="#linearGradient3984"
       inkscape:collect="always" />
    <radialGradient
       r="13.839286"
       fy="108.83756"
       fx="48.321712"
       cy="108.83756"
       cx="48.321712"
       gradientTransform="matrix(0.89733465,0,-2.8299354e-8,-0.98162825,32.983009,1094.4814)"
       gradientUnits="userSpaceOnUse"
       id="radialGradient4139"
       xlink:href="#linearGradient4020"
       inkscape:collect="always" />
    <radialGradient
       r="13.839286"
       fy="114.19416"
       fx="48.321709"
       cy="114.19416"
       cx="48.321709"
       gradientTransform="matrix(1.1762512,5.2882463e-7,-9.4013267e-7,1.6415367,19.505391,854.09876)"
       gradientUnits="userSpaceOnUse"
       id="radialGradient4137"
       xlink:href="#linearGradient4009"
       inkscape:collect="always" />
    <linearGradient
       y2="115.5"
       x2="28.75"
       y1="35.673389"
       x1="28.75"
       gradientUnits="userSpaceOnUse"
       id="linearGradient4135"
       xlink:href="#linearGradient3984"
       inkscape:collect="always" />
    <radialGradient
       r="13.839286"
       fy="108.83756"
       fx="48.321712"
       cy="108.83756"
       cx="48.321712"
       gradientTransform="matrix(0.89733465,0,-2.8299354e-8,-0.98162825,32.983009,1094.4814)"
       gradientUnits="userSpaceOnUse"
       id="radialGradient4133"
       xlink:href="#linearGradient4020"
       inkscape:collect="always" />
    <radialGradient
       r="13.839286"
       fy="114.19416"
       fx="48.321709"
       cy="114.19416"
       cx="48.321709"
       gradientTransform="matrix(1.1762512,5.2882463e-7,-9.4013267e-7,1.6415367,19.505391,854.09876)"
       gradientUnits="userSpaceOnUse"
       id="radialGradient4131"
       xlink:href="#linearGradient4009"
       inkscape:collect="always" />
    <radialGradient
       r="44.194176"
       fy="115.62563"
       fx="75.508904"
       cy="115.62563"
       cx="75.508904"
       gradientTransform="matrix(1,0,0,0.19999999,0,92.500508)"
       gradientUnits="userSpaceOnUse"
       id="radialGradient4129"
       xlink:href="#linearGradient4098"
       inkscape:collect="always" />
    <radialGradient
       r="35.39809"
       fy="1009.4531"
       fx="75.474571"
       cy="1009.4531"
       cx="75.474571"
       gradientTransform="matrix(1.736681,1.113318e-6,-1.1431112e-6,1.7831559,-55.59952,-786.60722)"
       gradientUnits="userSpaceOnUse"
       id="radialGradient4127"
       xlink:href="#linearGradient3949"
       inkscape:collect="always" />
    <linearGradient
       y2="989.11548"
       x2="112.84957"
       y1="989.11548"
       x1="38.099571"
       gradientUnits="userSpaceOnUse"
       id="linearGradient4125"
       xlink:href="#linearGradient3937"
       inkscape:collect="always" />
    <inkscape:perspective
       sodipodi:type="inkscape:persp3d"
       inkscape:vp_x="0 : 0.5 : 1"
       inkscape:vp_y="0 : 1000 : 0"
       inkscape:vp_z="1 : 0.5 : 1"
       inkscape:persp3d-origin="0.5 : 0.33333333 : 1"
       id="perspective3139" />
    <inkscape:perspective
       id="perspective10-7"
       inkscape:persp3d-origin="372.04724 : 350.78739 : 1"
       inkscape:vp_z="744.09448 : 526.18109 : 1"
       inkscape:vp_y="0 : 1000 : 0"
       inkscape:vp_x="0 : 526.18109 : 1"
       sodipodi:type="inkscape:persp3d" />
    <linearGradient
       id="linearGradient3937">
      <stop
         id="stop3939"
         offset="0"
         style="stop-color:#c8c8c8;stop-opacity:1;" />
      <stop
         style="stop-color:#ebebeb;stop-opacity:1;"
         offset="0.26679271"
         id="stop3947" />
      <stop
         style="stop-color:#ebebeb;stop-opacity:1;"
         offset="0.75010377"
         id="stop3945" />
      <stop
         id="stop3941"
         offset="1"
         style="stop-color:#c8c8c8;stop-opacity:1;" />
    </linearGradient>
    <linearGradient
       id="linearGradient3949">
      <stop
         id="stop3951"
         offset="0"
         style="stop-color:#505050;stop-opacity:1;" />
      <stop
         id="stop3953"
         offset="1"
         style="stop-color:#000000;stop-opacity:1;" />
    </linearGradient>
    <linearGradient
       id="linearGradient3984">
      <stop
         id="stop3986"
         offset="0"
         style="stop-color:#ffffff;stop-opacity:0.78431374;" />
      <stop
         id="stop3988"
         offset="1"
         style="stop-color:#ffffff;stop-opacity:0;" />
    </linearGradient>
    <linearGradient
       id="linearGradient4009">
      <stop
         style="stop-color:#ffffff;stop-opacity:0.78431374;"
         offset="0"
         id="stop4011" />
      <stop
         style="stop-color:#ffffff;stop-opacity:0;"
         offset="1"
         id="stop4013" />
    </linearGradient>
    <linearGradient
       id="linearGradient4020">
      <stop
         id="stop4022"
         offset="0"
         style="stop-color:#000000;stop-opacity:1;" />
      <stop
         id="stop4024"
         offset="1"
         style="stop-color:#000000;stop-opacity:0;" />
    </linearGradient>
    <linearGradient
       id="linearGradient4098">
      <stop
         id="stop4100"
         offset="0"
         style="stop-color:#333333;stop-opacity:1;" />
      <stop
         id="stop4102"
         offset="1"
         style="stop-color:#333333;stop-opacity:0;" />
    </linearGradient>
    <linearGradient
       inkscape:collect="always"
       xlink:href="#linearGradient3937"
       id="linearGradient2887"
       gradientUnits="userSpaceOnUse"
       x1="38.099571"
       y1="989.11548"
       x2="112.84957"
       y2="989.11548" />
    <radialGradient
       inkscape:collect="always"
       xlink:href="#linearGradient3949"
       id="radialGradient2889"
       gradientUnits="userSpaceOnUse"
       gradientTransform="matrix(1.736681,1.113318e-6,-1.1431112e-6,1.7831559,-55.59952,-786.60722)"
       cx="75.474571"
       cy="1009.4531"
       fx="75.474571"
       fy="1009.4531"
       r="35.39809" />
    <radialGradient
       inkscape:collect="always"
       xlink:href="#linearGradient4098"
       id="radialGradient2891"
       gradientUnits="userSpaceOnUse"
       gradientTransform="matrix(1,0,0,0.19999999,0,92.500508)"
       cx="75.508904"
       cy="115.62563"
       fx="75.508904"
       fy="115.62563"
       r="44.194176" />
    <radialGradient
       inkscape:collect="always"
       xlink:href="#linearGradient4009"
       id="radialGradient2893"
       gradientUnits="userSpaceOnUse"
       gradientTransform="matrix(1.1762512,5.2882463e-7,-9.4013267e-7,1.6415367,19.505391,854.09876)"
       cx="48.321709"
       cy="114.19416"
       fx="48.321709"
       fy="114.19416"
       r="13.839286" />
    <radialGradient
       inkscape:collect="always"
       xlink:href="#linearGradient4020"
       id="radialGradient2895"
       gradientUnits="userSpaceOnUse"
       gradientTransform="matrix(0.89733465,0,-2.8299354e-8,-0.98162825,32.983009,1094.4814)"
       cx="48.321712"
       cy="108.83756"
       fx="48.321712"
       fy="108.83756"
       r="13.839286" />
    <linearGradient
       inkscape:collect="always"
       xlink:href="#linearGradient3984"
       id="linearGradient2897"
       gradientUnits="userSpaceOnUse"
       x1="28.75"
       y1="35.673389"
       x2="28.75"
       y2="115.5" />
    <radialGradient
       inkscape:collect="always"
       xlink:href="#linearGradient4009"
       id="radialGradient2899"
       gradientUnits="userSpaceOnUse"
       gradientTransform="matrix(1.1762512,5.2882463e-7,-9.4013267e-7,1.6415367,19.505391,854.09876)"
       cx="48.321709"
       cy="114.19416"
       fx="48.321709"
       fy="114.19416"
       r="13.839286" />
    <radialGradient
       inkscape:collect="always"
       xlink:href="#linearGradient4020"
       id="radialGradient2901"
       gradientUnits="userSpaceOnUse"
       gradientTransform="matrix(0.89733465,0,-2.8299354e-8,-0.98162825,32.983009,1094.4814)"
       cx="48.321712"
       cy="108.83756"
       fx="48.321712"
       fy="108.83756"
       r="13.839286" />
    <linearGradient
       inkscape:collect="always"
       xlink:href="#linearGradient3984"
       id="linearGradient2903"
       gradientUnits="userSpaceOnUse"
       x1="28.75"
       y1="35.673389"
       x2="28.75"
       y2="115.5" />
    <radialGradient
       inkscape:collect="always"
       xlink:href="#linearGradient3949"
       id="radialGradient2921"
       gradientUnits="userSpaceOnUse"
       gradientTransform="matrix(0.40720216,2.6104132e-7,-2.6802697e-7,0.4180992,-6.7411863,607.52683)"
       cx="75.474571"
       cy="1009.4531"
       fx="75.474571"
       fy="1009.4531"
       r="35.39809" />
    <linearGradient
       inkscape:collect="always"
       xlink:href="#linearGradient3937"
       id="linearGradient2924"
       gradientUnits="userSpaceOnUse"
       x1="38.099571"
       y1="989.11548"
       x2="112.84957"
       y2="989.11548"
       gradientTransform="matrix(0.23447148,0,0,0.23447148,6.2953154,791.96379)" />
    <linearGradient
       inkscape:collect="always"
       xlink:href="#linearGradient3712"
       id="linearGradient2928"
       gradientUnits="userSpaceOnUse"
       gradientTransform="matrix(0.23447148,0,0,0.23447148,6.2953154,791.96379)"
       x1="75.474571"
       y1="934.09998"
       x2="75.474571"
       y2="1044.1313" />
    <linearGradient
       inkscape:collect="always"
       xlink:href="#linearGradient3937"
       id="linearGradient3742"
       gradientUnits="userSpaceOnUse"
       gradientTransform="matrix(0.23447148,0,0,0.23447148,6.2953154,791.96379)"
       x1="38.099571"
       y1="989.11548"
       x2="112.84957"
       y2="989.11548" />
    <linearGradient
       inkscape:collect="always"
       xlink:href="#linearGradient3712"
       id="linearGradient3744"
       gradientUnits="userSpaceOnUse"
       gradientTransform="matrix(0.23447148,0,0,0.23447148,6.2953154,791.96379)"
       x1="75.474571"
       y1="934.09998"
       x2="75.474571"
       y2="1044.1313" />
    <radialGradient
       inkscape:collect="always"
       xlink:href="#linearGradient3949"
       id="radialGradient3746"
       gradientUnits="userSpaceOnUse"
       gradientTransform="matrix(0.40720216,2.6104132e-7,-2.6802697e-7,0.4180992,-6.7411863,607.52683)"
       cx="75.474571"
       cy="1009.4531"
       fx="75.474571"
       fy="1009.4531"
       r="35.39809" />
    <radialGradient
       inkscape:collect="always"
       xlink:href="#linearGradient4098"
       id="radialGradient3748"
       gradientUnits="userSpaceOnUse"
       gradientTransform="matrix(1,0,0,0.19999999,0,92.500508)"
       cx="75.508904"
       cy="115.62563"
       fx="75.508904"
       fy="115.62563"
       r="44.194176" />
    <radialGradient
       inkscape:collect="always"
       xlink:href="#linearGradient4009"
       id="radialGradient3750"
       gradientUnits="userSpaceOnUse"
       gradientTransform="matrix(1.1762512,5.2882463e-7,-9.4013267e-7,1.6415367,19.505391,854.09876)"
       cx="48.321709"
       cy="114.19416"
       fx="48.321709"
       fy="114.19416"
       r="13.839286" />
    <radialGradient
       inkscape:collect="always"
       xlink:href="#linearGradient4020"
       id="radialGradient3752"
       gradientUnits="userSpaceOnUse"
       gradientTransform="matrix(0.89733465,0,-2.8299354e-8,-0.98162825,32.983009,1094.4814)"
       cx="48.321712"
       cy="108.83756"
       fx="48.321712"
       fy="108.83756"
       r="13.839286" />
    <linearGradient
       inkscape:collect="always"
       xlink:href="#linearGradient3984"
       id="linearGradient3754"
       gradientUnits="userSpaceOnUse"
       x1="28.75"
       y1="35.673389"
       x2="28.75"
       y2="115.5" />
    <radialGradient
       inkscape:collect="always"
       xlink:href="#linearGradient4009"
       id="radialGradient3756"
       gradientUnits="userSpaceOnUse"
       gradientTransform="matrix(1.1762512,5.2882463e-7,-9.4013267e-7,1.6415367,19.505391,854.09876)"
       cx="48.321709"
       cy="114.19416"
       fx="48.321709"
       fy="114.19416"
       r="13.839286" />
    <radialGradient
       inkscape:collect="always"
       xlink:href="#linearGradient4020"
       id="radialGradient3758"
       gradientUnits="userSpaceOnUse"
       gradientTransform="matrix(0.89733465,0,-2.8299354e-8,-0.98162825,32.983009,1094.4814)"
       cx="48.321712"
       cy="108.83756"
       fx="48.321712"
       fy="108.83756"
       r="13.839286" />
    <linearGradient
       inkscape:collect="always"
       xlink:href="#linearGradient3984"
       id="linearGradient3760"
       gradientUnits="userSpaceOnUse"
       x1="28.75"
       y1="35.673389"
       x2="28.75"
       y2="115.5" />
  </defs>
  <sodipodi:namedview
     id="base"
     pagecolor="#ffffff"
     bordercolor="#666666"
     borderopacity="1.0"
     inkscape:pageopacity="0.0"
     inkscape:pageshadow="2"
     inkscape:zoom="5.6"
     inkscape:cx="10.737701"
     inkscape:cy="-7.2844818"
     inkscape:document-units="px"
     inkscape:current-layer="layer1"
     showgrid="false"
     inkscape:window-width="1280"
     inkscape:window-height="712"
     inkscape:window-x="0"
     inkscape:window-y="25"
     inkscape:window-maximized="1"
     showguides="true"
     inkscape:guide-bbox="true" />
  <metadata
     id="metadata7">
    <rdf:RDF>
      <cc:Work
         rdf:about="">
        <dc:format>image/svg+xml</dc:format>
        <dc:type
           rdf:resource="http://purl.org/dc/dcmitype/StillImage" />
        <dc:title />
      </cc:Work>
    </rdf:RDF>
  </metadata>
  <g
     inkscape:label="Livello 1"
     inkscape:groupmode="layer"
     id="layer1"
     transform="translate(0,-1004.3622)">
    <rect
       ry="1.0238096"
       rx="1.03125"
       y="1006.8622"
       x="7.5"
       height="43"
       width="33"
       id="rect4211"
       style="fill:#646464;fill-opacity:0.47058824;stroke:none" />
    <rect
       style="fill:url(#linearGradient4209);fill-opacity:1;stroke:none"
       id="rect3429"
       width="32"
       height="42"
       x="8"
       y="1007.3622"
       rx="1"
       ry="1" />
    <g
       id="g3722"
       transform="matrix(1.0408857,0,0,1.0408857,-0.98125655,-41.956172)">
      <path
         sodipodi:nodetypes="ccccccccccccc"
         id="path3926"
         d="m 17.939654,1010.9836 c -0.399405,0.015 -0.548311,0.34 -0.937885,0.9378 l -1.130488,1.8905 c -0.468425,0.7833 -0.642703,0.7864 -0.642703,1.7585 l 0,20.04 c 0,0.6495 0.522871,1.1724 1.172357,1.1724 l 15.182029,0 c 0.649486,0 1.172357,-0.5229 1.172357,-1.1724 l 0,-20.04 c 0,-0.5607 -0.08318,-1.0515 -0.491408,-1.7585 l -0.985718,-2.0385 c -0.322602,-0.5588 -0.420051,-0.7898 -1.23395,-0.7898 l -12.104591,0 z"
         style="fill:url(#linearGradient3742);fill-opacity:1;stroke:none" />
      <path
         style="fill:url(#linearGradient3744);fill-opacity:1;stroke:none"
         d="m 17.939654,1010.9836 c -0.399405,0.015 -0.548311,0.34 -0.937885,0.9378 l -1.130488,1.8905 c -0.468425,0.7833 -0.642703,0.7864 -0.642703,1.7585 l 0,20.04 c 0,0.6495 0.522871,1.1724 1.172357,1.1724 l 15.182029,0 c 0.649486,0 1.172357,-0.5229 1.172357,-1.1724 l 0,-20.04 c 0,-0.5607 -0.08318,-1.0515 -0.491408,-1.7585 l -0.985718,-2.0385 c -0.322602,-0.5588 -0.420051,-0.7898 -1.23395,-0.7898 l -12.104591,0 z"
         id="path2926"
         sodipodi:nodetypes="ccccccccccccc" />
      <path
         id="rect3145"
         d="m 16.65736,1014.7785 14.669181,0 c 0.627535,0 1.132732,0.5052 1.132732,1.1327 l 0,19.3605 c 0,0.6276 -0.505197,1.1328 -1.132732,1.1328 l -14.669181,0 c -0.627534,0 -1.132733,-0.5052 -1.132733,-1.1328 l 0,-19.3605 c 0,-0.6275 0.505199,-1.1327 1.132733,-1.1327 z"
         style="fill:url(#radialGradient3746);fill-opacity:1;stroke:none" />
      <path
         transform="matrix(0.23447148,0,0,0.23447148,6.2953154,1008.7004)"
         d="m 119.70308,115.62563 c 0,4.88156 -19.786407,8.83884 -44.194176,8.83884 -24.40777,0 -44.194176,-3.95728 -44.194176,-8.83884 0,-4.88155 19.786406,-8.83883 44.194176,-8.83883 24.407769,0 44.194176,3.95728 44.194176,8.83883 z"
         sodipodi:ry="8.8388348"
         sodipodi:rx="44.194176"
         sodipodi:cy="115.62563"
         sodipodi:cx="75.508904"
         id="path4096"
         style="fill:url(#radialGradient3748);fill-opacity:1;stroke:none"
         sodipodi:type="arc" />
      <g
         transform="matrix(0.23447148,0,0,0.23447148,6.0915179,792.43749)"
         id="g4082">
        <path
           style="fill:#dcdcdc;fill-opacity:1;stroke:none"
           d="m 76.34375,60.28125 c -14.359404,0 -26,11.640596 -26,26 0,14.3594 11.640596,26 26,26 14.359404,0 26,-11.6406 26,-26 0,-14.359404 -11.640596,-26 -26,-26 z m 0,2.5 c 12.978692,0 23.5,10.521308 23.5,23.5 0,12.978692 -10.521308,23.5 -23.5,23.5 -12.978692,0 -23.5,-10.521308 -23.5,-23.5 0,-12.978692 10.521308,-23.5 23.5,-23.5 z"
           transform="translate(0,924.36218)"
           id="path3964" />
        <path
           sodipodi:type="arc"
           style="fill:#333333;fill-opacity:1;stroke:none"
           id="path3969"
           sodipodi:cx="28.75"
           sodipodi:cy="87.821426"
           sodipodi:rx="27.678572"
           sodipodi:ry="27.678572"
           d="M 56.428572,87.821426 C 56.428572,103.10788 44.036453,115.5 28.75,115.5 13.463547,115.5 1.0714283,103.10788 1.0714283,87.821426 1.0714283,72.534973 13.463547,60.142855 28.75,60.142855 c 15.286453,0 27.678572,12.392118 27.678572,27.678571 z"
           transform="matrix(0.83096773,0,0,0.83096773,52.453428,937.66666)" />
        <path
           style="fill:url(#radialGradient3750);fill-opacity:1;stroke:none"
           d="m 92.607205,1026.9069 c -8.982059,8.982 -23.544855,8.982 -32.526913,0 4.742941,-4.6309 9.289676,-9.486 16.263457,-11.5673 6.574371,2.4283 11.587183,5.7252 16.263456,11.5673 z"
           id="path3995"
           sodipodi:nodetypes="cccc" />
        <path
           sodipodi:nodetypes="cccc"
           id="path4028"
           d="m 92.607206,994.37996 c -8.982059,-8.98204 -23.544854,-8.98204 -32.526912,0 4.742941,4.63093 9.289676,9.48594 16.263457,11.56734 6.574371,-2.4282 11.587182,-5.7251 16.263455,-11.56734 z"
           style="fill:url(#radialGradient3752);fill-opacity:1;stroke:none" />
        <path
           transform="matrix(0.2879341,0,0,0.2879341,68.065645,985.35665)"
           d="M 56.428572,87.821426 C 56.428572,103.10788 44.036453,115.5 28.75,115.5 13.463547,115.5 1.0714283,103.10788 1.0714283,87.821426 1.0714283,72.534973 13.463547,60.142855 28.75,60.142855 c 15.286453,0 27.678572,12.392118 27.678572,27.678571 z"
           sodipodi:ry="27.678572"
           sodipodi:rx="27.678572"
           sodipodi:cy="87.821426"
           sodipodi:cx="28.75"
           id="path3980"
           style="fill:#000000;fill-opacity:1;stroke:none"
           sodipodi:type="arc" />
        <path
           sodipodi:type="arc"
           style="fill:url(#linearGradient3754);fill-opacity:1;stroke:none"
           id="path3982"
           sodipodi:cx="28.75"
           sodipodi:cy="87.821426"
           sodipodi:rx="27.678572"
           sodipodi:ry="27.678572"
           d="M 56.428572,87.821426 C 56.428572,103.10788 44.036453,115.5 28.75,115.5 13.463547,115.5 1.0714283,103.10788 1.0714283,87.821426 1.0714283,72.534973 13.463547,60.142855 28.75,60.142855 c 15.286453,0 27.678572,12.392118 27.678572,27.678571 z"
           transform="matrix(0.2200549,0,0,0.1742759,70.017172,992.19238)" />
      </g>
      <g
         transform="matrix(0.12971004,0,0,0.12971004,14.089399,887.65562)"
         id="g4068">
        <path
           id="path4056"
           transform="translate(0,924.36218)"
           d="m 76.34375,60.28125 c -14.359404,0 -26,11.640596 -26,26 0,14.3594 11.640596,26 26,26 14.359404,0 26,-11.6406 26,-26 0,-14.359404 -11.640596,-26 -26,-26 z m 0,2.5 c 12.978692,0 23.5,10.521308 23.5,23.5 0,12.978692 -10.521308,23.5 -23.5,23.5 -12.978692,0 -23.5,-10.521308 -23.5,-23.5 0,-12.978692 10.521308,-23.5 23.5,-23.5 z"
           style="fill:#dcdcdc;fill-opacity:1;stroke:none" />
        <path
           transform="matrix(0.83096773,0,0,0.83096773,52.453428,937.66666)"
           d="M 56.428572,87.821426 C 56.428572,103.10788 44.036453,115.5 28.75,115.5 13.463547,115.5 1.0714283,103.10788 1.0714283,87.821426 1.0714283,72.534973 13.463547,60.142855 28.75,60.142855 c 15.286453,0 27.678572,12.392118 27.678572,27.678571 z"
           sodipodi:ry="27.678572"
           sodipodi:rx="27.678572"
           sodipodi:cy="87.821426"
           sodipodi:cx="28.75"
           id="path4058"
           style="fill:#333333;fill-opacity:1;stroke:none"
           sodipodi:type="arc" />
        <path
           sodipodi:nodetypes="cccc"
           id="path4060"
           d="m 92.607205,1026.9069 c -8.982059,8.982 -23.544855,8.982 -32.526913,0 4.742941,-4.6309 9.289676,-9.486 16.263457,-11.5673 6.574371,2.4283 11.587183,5.7252 16.263456,11.5673 z"
           style="fill:url(#radialGradient3756);fill-opacity:1;stroke:none" />
        <path
           style="fill:url(#radialGradient3758);fill-opacity:1;stroke:none"
           d="m 92.607206,994.37996 c -8.982059,-8.98204 -23.544854,-8.98204 -32.526912,0 4.742941,4.63093 9.289676,9.48594 16.263457,11.56734 6.574371,-2.4282 11.587182,-5.7251 16.263455,-11.56734 z"
           id="path4062"
           sodipodi:nodetypes="cccc" />
        <path
           sodipodi:type="arc"
           style="fill:#000000;fill-opacity:1;stroke:none"
           id="path4064"
           sodipodi:cx="28.75"
           sodipodi:cy="87.821426"
           sodipodi:rx="27.678572"
           sodipodi:ry="27.678572"
           d="M 56.428572,87.821426 C 56.428572,103.10788 44.036453,115.5 28.75,115.5 13.463547,115.5 1.0714283,103.10788 1.0714283,87.821426 1.0714283,72.534973 13.463547,60.142855 28.75,60.142855 c 15.286453,0 27.678572,12.392118 27.678572,27.678571 z"
           transform="matrix(0.2879341,0,0,0.2879341,68.065645,985.35665)" />
        <path
           transform="matrix(0.2200549,0,0,0.1742759,70.017172,992.19238)"
           d="M 56.428572,87.821426 C 56.428572,103.10788 44.036453,115.5 28.75,115.5 13.463547,115.5 1.0714283,103.10788 1.0714283,87.821426 1.0714283,72.534973 13.463547,60.142855 28.75,60.142855 c 15.286453,0 27.678572,12.392118 27.678572,27.678571 z"
           sodipodi:ry="27.678572"
           sodipodi:rx="27.678572"
           sodipodi:cy="87.821426"
           sodipodi:cx="28.75"
           id="path4066"
           style="fill:url(#linearGradient3760);fill-opacity:1;stroke:none"
           sodipodi:type="arc" />
      </g>
    </g>
    <g
       transform="translate(0,0.2844)"
       id="g2907"
       style="font-size:8px;font-style:normal;font-variant:normal;font-weight:bold;font-stretch:normal;fill:#ffffff;fill-opacity:1;stroke:none;font-family:Calibri;-inkscape-font-specification:'A.C.M.E. Secret Agent Bold'">
      <path
         id="path2909"
         d="m 17.542968,1045.9052 c 0.03125,0.094 0.05078,0.1679 0.05859,0.2226 0.0078,0.055 -0.0026,0.096 -0.03125,0.125 -0.02865,0.026 -0.07943,0.042 -0.152344,0.047 -0.07292,0.01 -0.173182,0.012 -0.300781,0.012 -0.132817,0 -0.236984,0 -0.3125,-0.01 -0.07292,0 -0.128911,-0.01 -0.167969,-0.019 -0.03907,-0.013 -0.06641,-0.03 -0.08203,-0.051 -0.01563,-0.021 -0.02865,-0.048 -0.03906,-0.082 l -0.339844,-1.0156 -1.898437,0 -0.320313,0.9883 c -0.01042,0.036 -0.02474,0.068 -0.04297,0.094 -0.01563,0.023 -0.04297,0.043 -0.08203,0.059 -0.03646,0.013 -0.08984,0.022 -0.160156,0.027 -0.06771,0.01 -0.157553,0.01 -0.269531,0.01 -0.119792,0 -0.213542,0 -0.28125,-0.012 -0.06771,-0.01 -0.114584,-0.026 -0.140625,-0.055 -0.02604,-0.031 -0.03516,-0.074 -0.02734,-0.1289 0.0078,-0.055 0.02734,-0.1276 0.05859,-0.2188 l 1.558594,-4.4843 c 0.01562,-0.044 0.03385,-0.08 0.05469,-0.1055 0.02083,-0.029 0.05338,-0.049 0.09766,-0.062 0.04687,-0.016 0.110675,-0.025 0.191407,-0.027 0.08073,-0.01 0.187497,-0.01 0.320312,-0.01 0.153643,0 0.276039,0 0.367188,0.01 0.09114,0 0.161455,0.012 0.210937,0.027 0.05208,0.013 0.08854,0.034 0.109375,0.062 0.02343,0.029 0.04297,0.068 0.05859,0.1172 l 1.5625,4.4805 m -2.320313,-3.7071 -0.0039,0 -0.714844,2.1485 1.433594,0 -0.714844,-2.1485"
         style="fill:#ffffff;fill-opacity:1" />
      <path
         id="path2911"
         d="m 22.230468,1044.4052 c -5e-6,0.3098 -0.04558,0.5872 -0.136719,0.832 -0.09115,0.2448 -0.225265,0.4518 -0.402344,0.6211 -0.177087,0.1692 -0.395837,0.2982 -0.65625,0.3867 -0.26042,0.089 -0.559898,0.1328 -0.898437,0.1328 -0.317711,0 -0.602867,-0.039 -0.855469,-0.1172 -0.252606,-0.081 -0.466147,-0.2018 -0.640625,-0.3633 -0.17448,-0.1614 -0.308594,-0.3619 -0.402344,-0.6015 -0.09115,-0.2422 -0.136719,-0.5248 -0.136718,-0.8477 l 0,-3.0742 c -1e-6,-0.026 0.0078,-0.05 0.02344,-0.07 0.01562,-0.021 0.04297,-0.038 0.08203,-0.051 0.04167,-0.013 0.09505,-0.023 0.160157,-0.031 0.0651,-0.01 0.148436,-0.012 0.25,-0.012 0.09896,0 0.180988,0 0.246093,0.012 0.0651,0.01 0.117186,0.018 0.15625,0.031 0.03906,0.013 0.0664,0.03 0.08203,0.051 0.01823,0.021 0.02734,0.044 0.02734,0.07 l 0,2.9844 c -1e-6,0.2005 0.02474,0.375 0.07422,0.5234 0.04948,0.1458 0.11979,0.2669 0.210938,0.3633 0.09375,0.096 0.204425,0.1693 0.332031,0.2187 0.130206,0.047 0.274737,0.07 0.433594,0.07 0.161455,0 0.305986,-0.025 0.433593,-0.074 0.127601,-0.049 0.235674,-0.1211 0.324219,-0.2148 0.08854,-0.096 0.156247,-0.2135 0.203125,-0.3516 0.04948,-0.1406 0.07422,-0.2994 0.07422,-0.4765 l 0,-3.043 c -4e-6,-0.026 0.0078,-0.05 0.02344,-0.07 0.01562,-0.021 0.04296,-0.038 0.08203,-0.051 0.03906,-0.013 0.09114,-0.023 0.15625,-0.031 0.0677,-0.01 0.151037,-0.012 0.25,-0.012 0.09895,0 0.179683,0 0.242187,0.012 0.0651,0.01 0.117183,0.018 0.15625,0.031 0.03906,0.013 0.0664,0.03 0.08203,0.051 0.01562,0.021 0.02343,0.044 0.02344,0.07 l 0,3.0313"
         style="fill:#ffffff;fill-opacity:1" />
      <path
         id="path2913"
         d="m 27.523437,1043.6864 c -5e-6,0.4635 -0.0612,0.8607 -0.183594,1.1914 -0.119796,0.3281 -0.292973,0.5964 -0.519531,0.8047 -0.226567,0.2083 -0.502608,0.362 -0.828125,0.4609 -0.32292,0.096 -0.708336,0.1446 -1.15625,0.1446 l -1.207032,0 c -0.08594,0 -0.158855,-0.025 -0.21875,-0.074 -0.05729,-0.052 -0.08594,-0.1354 -0.08594,-0.25 l 0,-4.4062 c -10e-7,-0.1146 0.02865,-0.1966 0.08594,-0.2461 0.0599,-0.052 0.132812,-0.078 0.21875,-0.078 l 1.296875,0 c 0.450519,0 0.832029,0.053 1.144532,0.1601 0.3151,0.1042 0.579423,0.2605 0.792968,0.4688 0.216142,0.2057 0.380204,0.4609 0.492188,0.7656 0.111974,0.3047 0.167964,0.6576 0.167969,1.0586 m -1.0625,0.035 c -4e-6,-0.2396 -0.02865,-0.4623 -0.08594,-0.668 -0.05469,-0.2057 -0.144535,-0.3841 -0.269531,-0.5352 -0.122399,-0.151 -0.281253,-0.2682 -0.476563,-0.3515 -0.192711,-0.086 -0.446617,-0.1289 -0.761718,-0.1289 l -0.519532,0 0,3.4375 0.535157,0 c 0.281247,0 0.518226,-0.036 0.710937,-0.1094 0.192705,-0.073 0.352861,-0.1823 0.480469,-0.3281 0.130205,-0.1485 0.226559,-0.3321 0.289062,-0.5508 0.0651,-0.2188 0.09765,-0.474 0.09766,-0.7656"
         style="fill:#ffffff;fill-opacity:1" />
      <path
         id="path2915"
         d="m 29.402343,1046.1473 c -2e-6,0.026 -0.0091,0.049 -0.02734,0.07 -0.01563,0.021 -0.04297,0.038 -0.08203,0.051 -0.03906,0.013 -0.09115,0.024 -0.15625,0.031 -0.06511,0.01 -0.148439,0.012 -0.25,0.012 -0.09896,0 -0.182293,0 -0.25,-0.012 -0.0651,-0.01 -0.117188,-0.018 -0.15625,-0.031 -0.03906,-0.013 -0.06771,-0.03 -0.08594,-0.051 -0.01563,-0.021 -0.02344,-0.044 -0.02344,-0.07 l 0,-4.7734 c -10e-7,-0.026 0.0078,-0.05 0.02344,-0.07 0.01823,-0.021 0.04687,-0.038 0.08594,-0.051 0.04167,-0.013 0.09505,-0.023 0.160156,-0.031 0.0651,-0.01 0.147134,-0.012 0.246094,-0.012 0.101561,0 0.184894,0 0.25,0.012 0.0651,0.01 0.117186,0.018 0.15625,0.031 0.03906,0.013 0.06641,0.03 0.08203,0.051 0.01823,0.021 0.02734,0.044 0.02734,0.07 l 0,4.7734"
         style="fill:#ffffff;fill-opacity:1" />
      <path
         id="path2917"
         d="m 35.058593,1043.702 c -5e-6,0.4193 -0.05209,0.7943 -0.15625,1.125 -0.104172,0.3308 -0.259119,0.612 -0.464844,0.8438 -0.205733,0.2291 -0.460941,0.4049 -0.765625,0.5273 -0.302087,0.1198 -0.652347,0.1797 -1.050781,0.1797 -0.393232,0 -0.736981,-0.051 -1.03125,-0.1523 -0.291668,-0.1042 -0.535158,-0.2618 -0.730469,-0.4727 -0.195313,-0.2109 -0.342448,-0.4792 -0.441406,-0.8047 -0.09635,-0.3255 -0.144532,-0.7109 -0.144531,-1.1562 -1e-6,-0.4089 0.05208,-0.7761 0.15625,-1.1016 0.104166,-0.3281 0.259113,-0.6068 0.464843,-0.8359 0.205728,-0.2292 0.459634,-0.405 0.761719,-0.5274 0.304686,-0.1224 0.65755,-0.1836 1.058594,-0.1836 0.382809,0 0.720048,0.051 1.011719,0.1524 0.294266,0.1015 0.539058,0.2578 0.734375,0.4687 0.197912,0.211 0.346349,0.4779 0.445312,0.8008 0.101557,0.3203 0.152339,0.6992 0.152344,1.1367 m -1.078125,0.055 c -4e-6,-0.2656 -0.02084,-0.5065 -0.0625,-0.7226 -0.04167,-0.2188 -0.113285,-0.405 -0.214844,-0.5586 -0.09896,-0.1563 -0.231774,-0.2761 -0.398437,-0.3594 -0.16667,-0.086 -0.375003,-0.1289 -0.625,-0.1289 -0.252607,0 -0.463544,0.048 -0.632813,0.1445 -0.169273,0.094 -0.305991,0.2201 -0.410156,0.3789 -0.104168,0.1589 -0.178387,0.3451 -0.222656,0.5586 -0.04167,0.211 -0.0625,0.4349 -0.0625,0.6719 -2e-6,0.276 0.02083,0.5247 0.0625,0.7461 0.04166,0.2187 0.111977,0.4062 0.210937,0.5625 0.09896,0.1562 0.231769,0.276 0.398438,0.3594 0.166664,0.081 0.376299,0.1211 0.628906,0.1211 0.252601,0 0.463538,-0.047 0.632812,-0.1407 0.169268,-0.094 0.305986,-0.2213 0.410157,-0.3828 0.104162,-0.1614 0.177079,-0.3489 0.21875,-0.5625 0.04427,-0.2161 0.0664,-0.4453 0.06641,-0.6875"
         style="fill:#ffffff;fill-opacity:1" />
    </g>
    <g
       style="font-size:8px;font-style:normal;font-variant:normal;font-weight:bold;font-stretch:normal;fill:#333333;fill-opacity:1;stroke:none;font-family:Calibri;-inkscape-font-specification:'A.C.M.E. Secret Agent Bold'"
       id="text2901"
       transform="translate(0,-0.0156)">
      <path
         d="m 17.542968,1045.9052 c 0.03125,0.094 0.05078,0.1679 0.05859,0.2226 0.0078,0.055 -0.0026,0.096 -0.03125,0.125 -0.02865,0.026 -0.07943,0.042 -0.152344,0.047 -0.07292,0.01 -0.173182,0.012 -0.300781,0.012 -0.132817,0 -0.236984,0 -0.3125,-0.01 -0.07292,0 -0.128911,-0.01 -0.167969,-0.019 -0.03907,-0.013 -0.06641,-0.03 -0.08203,-0.051 -0.01563,-0.021 -0.02865,-0.048 -0.03906,-0.082 l -0.339844,-1.0156 -1.898437,0 -0.320313,0.9883 c -0.01042,0.036 -0.02474,0.068 -0.04297,0.094 -0.01563,0.023 -0.04297,0.043 -0.08203,0.059 -0.03646,0.013 -0.08984,0.022 -0.160156,0.027 -0.06771,0.01 -0.157553,0.01 -0.269531,0.01 -0.119792,0 -0.213542,0 -0.28125,-0.012 -0.06771,-0.01 -0.114584,-0.026 -0.140625,-0.055 -0.02604,-0.031 -0.03516,-0.074 -0.02734,-0.1289 0.0078,-0.055 0.02734,-0.1276 0.05859,-0.2188 l 1.558594,-4.4843 c 0.01562,-0.044 0.03385,-0.08 0.05469,-0.1055 0.02083,-0.029 0.05338,-0.049 0.09766,-0.062 0.04687,-0.016 0.110675,-0.025 0.191407,-0.027 0.08073,-0.01 0.187497,-0.01 0.320312,-0.01 0.153643,0 0.276039,0 0.367188,0.01 0.09114,0 0.161455,0.012 0.210937,0.027 0.05208,0.013 0.08854,0.034 0.109375,0.062 0.02343,0.029 0.04297,0.068 0.05859,0.1172 l 1.5625,4.4805 m -2.320313,-3.7071 -0.0039,0 -0.714844,2.1485 1.433594,0 -0.714844,-2.1485"
         id="path3678" />
      <path
         d="m 22.230468,1044.4052 c -5e-6,0.3098 -0.04558,0.5872 -0.136719,0.832 -0.09115,0.2448 -0.225265,0.4518 -0.402344,0.6211 -0.177087,0.1692 -0.395837,0.2982 -0.65625,0.3867 -0.26042,0.089 -0.559898,0.1328 -0.898437,0.1328 -0.317711,0 -0.602867,-0.039 -0.855469,-0.1172 -0.252606,-0.081 -0.466147,-0.2018 -0.640625,-0.3633 -0.17448,-0.1614 -0.308594,-0.3619 -0.402344,-0.6015 -0.09115,-0.2422 -0.136719,-0.5248 -0.136718,-0.8477 l 0,-3.0742 c -1e-6,-0.026 0.0078,-0.05 0.02344,-0.07 0.01562,-0.021 0.04297,-0.038 0.08203,-0.051 0.04167,-0.013 0.09505,-0.023 0.160157,-0.031 0.0651,-0.01 0.148436,-0.012 0.25,-0.012 0.09896,0 0.180988,0 0.246093,0.012 0.0651,0.01 0.117186,0.018 0.15625,0.031 0.03906,0.013 0.0664,0.03 0.08203,0.051 0.01823,0.021 0.02734,0.044 0.02734,0.07 l 0,2.9844 c -1e-6,0.2005 0.02474,0.375 0.07422,0.5234 0.04948,0.1458 0.11979,0.2669 0.210938,0.3633 0.09375,0.096 0.204425,0.1693 0.332031,0.2187 0.130206,0.047 0.274737,0.07 0.433594,0.07 0.161455,0 0.305986,-0.025 0.433593,-0.074 0.127601,-0.049 0.235674,-0.1211 0.324219,-0.2148 0.08854,-0.096 0.156247,-0.2135 0.203125,-0.3516 0.04948,-0.1406 0.07422,-0.2994 0.07422,-0.4765 l 0,-3.043 c -4e-6,-0.026 0.0078,-0.05 0.02344,-0.07 0.01562,-0.021 0.04296,-0.038 0.08203,-0.051 0.03906,-0.013 0.09114,-0.023 0.15625,-0.031 0.0677,-0.01 0.151037,-0.012 0.25,-0.012 0.09895,0 0.179683,0 0.242187,0.012 0.0651,0.01 0.117183,0.018 0.15625,0.031 0.03906,0.013 0.0664,0.03 0.08203,0.051 0.01562,0.021 0.02343,0.044 0.02344,0.07 l 0,3.0313"
         id="path3680" />
      <path
         d="m 27.523437,1043.6864 c -5e-6,0.4635 -0.0612,0.8607 -0.183594,1.1914 -0.119796,0.3281 -0.292973,0.5964 -0.519531,0.8047 -0.226567,0.2083 -0.502608,0.362 -0.828125,0.4609 -0.32292,0.096 -0.708336,0.1446 -1.15625,0.1446 l -1.207032,0 c -0.08594,0 -0.158855,-0.025 -0.21875,-0.074 -0.05729,-0.052 -0.08594,-0.1354 -0.08594,-0.25 l 0,-4.4062 c -10e-7,-0.1146 0.02865,-0.1966 0.08594,-0.2461 0.0599,-0.052 0.132812,-0.078 0.21875,-0.078 l 1.296875,0 c 0.450519,0 0.832029,0.053 1.144532,0.1601 0.3151,0.1042 0.579423,0.2605 0.792968,0.4688 0.216142,0.2057 0.380204,0.4609 0.492188,0.7656 0.111974,0.3047 0.167964,0.6576 0.167969,1.0586 m -1.0625,0.035 c -4e-6,-0.2396 -0.02865,-0.4623 -0.08594,-0.668 -0.05469,-0.2057 -0.144535,-0.3841 -0.269531,-0.5352 -0.122399,-0.151 -0.281253,-0.2682 -0.476563,-0.3515 -0.192711,-0.086 -0.446617,-0.1289 -0.761718,-0.1289 l -0.519532,0 0,3.4375 0.535157,0 c 0.281247,0 0.518226,-0.036 0.710937,-0.1094 0.192705,-0.073 0.352861,-0.1823 0.480469,-0.3281 0.130205,-0.1485 0.226559,-0.3321 0.289062,-0.5508 0.0651,-0.2188 0.09765,-0.474 0.09766,-0.7656"
         id="path3682" />
      <path
         d="m 29.402343,1046.1473 c -2e-6,0.026 -0.0091,0.049 -0.02734,0.07 -0.01563,0.021 -0.04297,0.038 -0.08203,0.051 -0.03906,0.013 -0.09115,0.024 -0.15625,0.031 -0.06511,0.01 -0.148439,0.012 -0.25,0.012 -0.09896,0 -0.182293,0 -0.25,-0.012 -0.0651,-0.01 -0.117188,-0.018 -0.15625,-0.031 -0.03906,-0.013 -0.06771,-0.03 -0.08594,-0.051 -0.01563,-0.021 -0.02344,-0.044 -0.02344,-0.07 l 0,-4.7734 c -10e-7,-0.026 0.0078,-0.05 0.02344,-0.07 0.01823,-0.021 0.04687,-0.038 0.08594,-0.051 0.04167,-0.013 0.09505,-0.023 0.160156,-0.031 0.0651,-0.01 0.147134,-0.012 0.246094,-0.012 0.101561,0 0.184894,0 0.25,0.012 0.0651,0.01 0.117186,0.018 0.15625,0.031 0.03906,0.013 0.06641,0.03 0.08203,0.051 0.01823,0.021 0.02734,0.044 0.02734,0.07 l 0,4.7734"
         id="path3684" />
      <path
         d="m 35.058593,1043.702 c -5e-6,0.4193 -0.05209,0.7943 -0.15625,1.125 -0.104172,0.3308 -0.259119,0.612 -0.464844,0.8438 -0.205733,0.2291 -0.460941,0.4049 -0.765625,0.5273 -0.302087,0.1198 -0.652347,0.1797 -1.050781,0.1797 -0.393232,0 -0.736981,-0.051 -1.03125,-0.1523 -0.291668,-0.1042 -0.535158,-0.2618 -0.730469,-0.4727 -0.195313,-0.2109 -0.342448,-0.4792 -0.441406,-0.8047 -0.09635,-0.3255 -0.144532,-0.7109 -0.144531,-1.1562 -1e-6,-0.4089 0.05208,-0.7761 0.15625,-1.1016 0.104166,-0.3281 0.259113,-0.6068 0.464843,-0.8359 0.205728,-0.2292 0.459634,-0.405 0.761719,-0.5274 0.304686,-0.1224 0.65755,-0.1836 1.058594,-0.1836 0.382809,0 0.720048,0.051 1.011719,0.1524 0.294266,0.1015 0.539058,0.2578 0.734375,0.4687 0.197912,0.211 0.346349,0.4779 0.445312,0.8008 0.101557,0.3203 0.152339,0.6992 0.152344,1.1367 m -1.078125,0.055 c -4e-6,-0.2656 -0.02084,-0.5065 -0.0625,-0.7226 -0.04167,-0.2188 -0.113285,-0.405 -0.214844,-0.5586 -0.09896,-0.1563 -0.231774,-0.2761 -0.398437,-0.3594 -0.16667,-0.086 -0.375003,-0.1289 -0.625,-0.1289 -0.252607,0 -0.463544,0.048 -0.632813,0.1445 -0.169273,0.094 -0.305991,0.2201 -0.410156,0.3789 -0.104168,0.1589 -0.178387,0.3451 -0.222656,0.5586 -0.04167,0.211 -0.0625,0.4349 -0.0625,0.6719 -2e-6,0.276 0.02083,0.5247 0.0625,0.7461 0.04166,0.2187 0.111977,0.4062 0.210937,0.5625 0.09896,0.1562 0.231769,0.276 0.398438,0.3594 0.166664,0.081 0.376299,0.1211 0.628906,0.1211 0.252601,0 0.463538,-0.047 0.632812,-0.1407 0.169268,-0.094 0.305986,-0.2213 0.410157,-0.3828 0.104162,-0.1614 0.177079,-0.3489 0.21875,-0.5625 0.04427,-0.2161 0.0664,-0.4453 0.06641,-0.6875"
         id="path3686" />
    </g>
  </g>
</svg>
