<?xml version="1.0" encoding="UTF-8" standalone="no"?>
<!-- Created with Inkscape (http://www.inkscape.org/) -->

<svg
   xmlns:dc="http://purl.org/dc/elements/1.1/"
   xmlns:cc="http://creativecommons.org/ns#"
   xmlns:rdf="http://www.w3.org/1999/02/22-rdf-syntax-ns#"
   xmlns:svg="http://www.w3.org/2000/svg"
   xmlns="http://www.w3.org/2000/svg"
   xmlns:xlink="http://www.w3.org/1999/xlink"
   xmlns:sodipodi="http://sodipodi.sourceforge.net/DTD/sodipodi-0.dtd"
   xmlns:inkscape="http://www.inkscape.org/namespaces/inkscape"
   width="48"
   height="48"
   id="svg2"
   version="1.1"
   inkscape:version="0.47pre4 r22446"
   sodipodi:docname="audio-x-mpeg.svg"
   inkscape:export-filename="/home/andrea/Documenti/MeliaeSVG/48/mimetypes/png/audio-x-mpeg.png"
   inkscape:export-xdpi="240"
   inkscape:export-ydpi="240">
  <defs
     id="defs4">
    <linearGradient
       id="linearGradient3716">
      <stop
         id="stop3718"
         offset="0"
         style="stop-color:#c8c8c8;stop-opacity:1;" />
      <stop
         style="stop-color:#ebebeb;stop-opacity:0;"
         offset="0.10067473"
         id="stop3720" />
      <stop
         style="stop-color:#ebebeb;stop-opacity:0;"
         offset="0.75010377"
         id="stop3722" />
      <stop
         id="stop3724"
         offset="1"
         style="stop-color:#c8c8c8;stop-opacity:0;" />
    </linearGradient>
    <linearGradient
       id="linearGradient2934">
      <stop
         style="stop-color:#c8c8c8;stop-opacity:1;"
         offset="0"
         id="stop2936" />
      <stop
         id="stop2938"
         offset="0.10067473"
         style="stop-color:#ebebeb;stop-opacity:1;" />
      <stop
         id="stop2940"
         offset="0.75010377"
         style="stop-color:#ebebeb;stop-opacity:1;" />
      <stop
         style="stop-color:#c8c8c8;stop-opacity:1;"
         offset="1"
         id="stop2942" />
    </linearGradient>
    <linearGradient
       id="linearGradient4203">
      <stop
         style="stop-color:#f0f0f0;stop-opacity:1;"
         offset="0"
         id="stop4205" />
      <stop
         style="stop-color:#ffffff;stop-opacity:1;"
         offset="1"
         id="stop4207" />
    </linearGradient>
    <inkscape:perspective
       sodipodi:type="inkscape:persp3d"
       inkscape:vp_x="0 : 526.18109 : 1"
       inkscape:vp_y="0 : 1000 : 0"
       inkscape:vp_z="744.09448 : 526.18109 : 1"
       inkscape:persp3d-origin="372.04724 : 350.78739 : 1"
       id="perspective10" />
    <linearGradient
       inkscape:collect="always"
       xlink:href="#linearGradient4203"
       id="linearGradient4209"
       x1="35.08004"
       y1="1042.766"
       x2="16.552662"
       y2="1011.3753"
       gradientUnits="userSpaceOnUse"
       gradientTransform="translate(0,1.7382813e-5)" />
    <inkscape:perspective
       sodipodi:type="inkscape:persp3d"
       inkscape:vp_x="0 : 0.5 : 1"
       inkscape:vp_y="0 : 1000 : 0"
       inkscape:vp_z="1 : 0.5 : 1"
       inkscape:persp3d-origin="0.5 : 0.33333333 : 1"
       id="perspective4931" />
    <linearGradient
       y2="115.5"
       x2="28.75"
       y1="35.673389"
       x1="28.75"
       gradientUnits="userSpaceOnUse"
       id="linearGradient4141"
       xlink:href="#linearGradient3984"
       inkscape:collect="always" />
    <radialGradient
       r="13.839286"
       fy="108.83756"
       fx="48.321712"
       cy="108.83756"
       cx="48.321712"
       gradientTransform="matrix(0.89733465,0,-2.8299354e-8,-0.98162825,32.983009,1094.4814)"
       gradientUnits="userSpaceOnUse"
       id="radialGradient4139"
       xlink:href="#linearGradient4020"
       inkscape:collect="always" />
    <radialGradient
       r="13.839286"
       fy="114.19416"
       fx="48.321709"
       cy="114.19416"
       cx="48.321709"
       gradientTransform="matrix(1.1762512,5.2882463e-7,-9.4013267e-7,1.6415367,19.505391,854.09876)"
       gradientUnits="userSpaceOnUse"
       id="radialGradient4137"
       xlink:href="#linearGradient4009"
       inkscape:collect="always" />
    <linearGradient
       y2="115.5"
       x2="28.75"
       y1="35.673389"
       x1="28.75"
       gradientUnits="userSpaceOnUse"
       id="linearGradient4135"
       xlink:href="#linearGradient3984"
       inkscape:collect="always" />
    <radialGradient
       r="13.839286"
       fy="108.83756"
       fx="48.321712"
       cy="108.83756"
       cx="48.321712"
       gradientTransform="matrix(0.89733465,0,-2.8299354e-8,-0.98162825,32.983009,1094.4814)"
       gradientUnits="userSpaceOnUse"
       id="radialGradient4133"
       xlink:href="#linearGradient4020"
       inkscape:collect="always" />
    <radialGradient
       r="13.839286"
       fy="114.19416"
       fx="48.321709"
       cy="114.19416"
       cx="48.321709"
       gradientTransform="matrix(1.1762512,5.2882463e-7,-9.4013267e-7,1.6415367,19.505391,854.09876)"
       gradientUnits="userSpaceOnUse"
       id="radialGradient4131"
       xlink:href="#linearGradient4009"
       inkscape:collect="always" />
    <radialGradient
       r="44.194176"
       fy="115.62563"
       fx="75.508904"
       cy="115.62563"
       cx="75.508904"
       gradientTransform="matrix(1,0,0,0.19999999,0,92.500508)"
       gradientUnits="userSpaceOnUse"
       id="radialGradient4129"
       xlink:href="#linearGradient4098"
       inkscape:collect="always" />
    <radialGradient
       r="35.39809"
       fy="1009.4531"
       fx="75.474571"
       cy="1009.4531"
       cx="75.474571"
       gradientTransform="matrix(1.736681,1.113318e-6,-1.1431112e-6,1.7831559,-55.59952,-786.60722)"
       gradientUnits="userSpaceOnUse"
       id="radialGradient4127"
       xlink:href="#linearGradient3949"
       inkscape:collect="always" />
    <linearGradient
       y2="989.11548"
       x2="112.84957"
       y1="989.11548"
       x1="38.099571"
       gradientUnits="userSpaceOnUse"
       id="linearGradient4125"
       xlink:href="#linearGradient3937"
       inkscape:collect="always" />
    <inkscape:perspective
       sodipodi:type="inkscape:persp3d"
       inkscape:vp_x="0 : 0.5 : 1"
       inkscape:vp_y="0 : 1000 : 0"
       inkscape:vp_z="1 : 0.5 : 1"
       inkscape:persp3d-origin="0.5 : 0.33333333 : 1"
       id="perspective3139" />
    <inkscape:perspective
       id="perspective10-7"
       inkscape:persp3d-origin="372.04724 : 350.78739 : 1"
       inkscape:vp_z="744.09448 : 526.18109 : 1"
       inkscape:vp_y="0 : 1000 : 0"
       inkscape:vp_x="0 : 526.18109 : 1"
       sodipodi:type="inkscape:persp3d" />
    <linearGradient
       id="linearGradient3937">
      <stop
         id="stop3939"
         offset="0"
         style="stop-color:#c8c8c8;stop-opacity:1;" />
      <stop
         style="stop-color:#ebebeb;stop-opacity:1;"
         offset="0.26679271"
         id="stop3947" />
      <stop
         style="stop-color:#ebebeb;stop-opacity:1;"
         offset="0.75010377"
         id="stop3945" />
      <stop
         id="stop3941"
         offset="1"
         style="stop-color:#c8c8c8;stop-opacity:1;" />
    </linearGradient>
    <linearGradient
       id="linearGradient3949">
      <stop
         id="stop3951"
         offset="0"
         style="stop-color:#505050;stop-opacity:1;" />
      <stop
         id="stop3953"
         offset="1"
         style="stop-color:#000000;stop-opacity:1;" />
    </linearGradient>
    <linearGradient
       id="linearGradient3984">
      <stop
         id="stop3986"
         offset="0"
         style="stop-color:#ffffff;stop-opacity:0.78431374;" />
      <stop
         id="stop3988"
         offset="1"
         style="stop-color:#ffffff;stop-opacity:0;" />
    </linearGradient>
    <linearGradient
       id="linearGradient4009">
      <stop
         style="stop-color:#ffffff;stop-opacity:0.78431374;"
         offset="0"
         id="stop4011" />
      <stop
         style="stop-color:#ffffff;stop-opacity:0;"
         offset="1"
         id="stop4013" />
    </linearGradient>
    <linearGradient
       id="linearGradient4020">
      <stop
         id="stop4022"
         offset="0"
         style="stop-color:#000000;stop-opacity:1;" />
      <stop
         id="stop4024"
         offset="1"
         style="stop-color:#000000;stop-opacity:0;" />
    </linearGradient>
    <linearGradient
       id="linearGradient4098">
      <stop
         id="stop4100"
         offset="0"
         style="stop-color:#333333;stop-opacity:1;" />
      <stop
         id="stop4102"
         offset="1"
         style="stop-color:#333333;stop-opacity:0;" />
    </linearGradient>
    <linearGradient
       inkscape:collect="always"
       xlink:href="#linearGradient3937"
       id="linearGradient2891"
       gradientUnits="userSpaceOnUse"
       x1="38.099571"
       y1="989.11548"
       x2="112.84957"
       y2="989.11548" />
    <radialGradient
       inkscape:collect="always"
       xlink:href="#linearGradient3949"
       id="radialGradient2893"
       gradientUnits="userSpaceOnUse"
       gradientTransform="matrix(1.736681,1.113318e-6,-1.1431112e-6,1.7831559,-55.59952,-786.60722)"
       cx="75.474571"
       cy="1009.4531"
       fx="75.474571"
       fy="1009.4531"
       r="35.39809" />
    <radialGradient
       inkscape:collect="always"
       xlink:href="#linearGradient4098"
       id="radialGradient2895"
       gradientUnits="userSpaceOnUse"
       gradientTransform="matrix(1,0,0,0.19999999,0,92.500508)"
       cx="75.508904"
       cy="115.62563"
       fx="75.508904"
       fy="115.62563"
       r="44.194176" />
    <radialGradient
       inkscape:collect="always"
       xlink:href="#linearGradient4009"
       id="radialGradient2897"
       gradientUnits="userSpaceOnUse"
       gradientTransform="matrix(1.1762512,5.2882463e-7,-9.4013267e-7,1.6415367,19.505391,854.09876)"
       cx="48.321709"
       cy="114.19416"
       fx="48.321709"
       fy="114.19416"
       r="13.839286" />
    <radialGradient
       inkscape:collect="always"
       xlink:href="#linearGradient4020"
       id="radialGradient2899"
       gradientUnits="userSpaceOnUse"
       gradientTransform="matrix(0.89733465,0,-2.8299354e-8,-0.98162825,32.983009,1094.4814)"
       cx="48.321712"
       cy="108.83756"
       fx="48.321712"
       fy="108.83756"
       r="13.839286" />
    <linearGradient
       inkscape:collect="always"
       xlink:href="#linearGradient3984"
       id="linearGradient2901"
       gradientUnits="userSpaceOnUse"
       x1="28.75"
       y1="35.673389"
       x2="28.75"
       y2="115.5" />
    <radialGradient
       inkscape:collect="always"
       xlink:href="#linearGradient4009"
       id="radialGradient2903"
       gradientUnits="userSpaceOnUse"
       gradientTransform="matrix(1.1762512,5.2882463e-7,-9.4013267e-7,1.6415367,19.505391,854.09876)"
       cx="48.321709"
       cy="114.19416"
       fx="48.321709"
       fy="114.19416"
       r="13.839286" />
    <radialGradient
       inkscape:collect="always"
       xlink:href="#linearGradient4020"
       id="radialGradient2905"
       gradientUnits="userSpaceOnUse"
       gradientTransform="matrix(0.89733465,0,-2.8299354e-8,-0.98162825,32.983009,1094.4814)"
       cx="48.321712"
       cy="108.83756"
       fx="48.321712"
       fy="108.83756"
       r="13.839286" />
    <linearGradient
       inkscape:collect="always"
       xlink:href="#linearGradient3984"
       id="linearGradient2907"
       gradientUnits="userSpaceOnUse"
       x1="28.75"
       y1="35.673389"
       x2="28.75"
       y2="115.5" />
    <radialGradient
       inkscape:collect="always"
       xlink:href="#linearGradient3949"
       id="radialGradient2925"
       gradientUnits="userSpaceOnUse"
       gradientTransform="matrix(0.40720216,2.6104132e-7,-2.6802697e-7,0.4180992,-6.7411863,607.52683)"
       cx="75.474571"
       cy="1009.4531"
       fx="75.474571"
       fy="1009.4531"
       r="35.39809" />
    <linearGradient
       inkscape:collect="always"
       xlink:href="#linearGradient3937"
       id="linearGradient2928"
       gradientUnits="userSpaceOnUse"
       x1="38.099571"
       y1="989.11548"
       x2="112.84957"
       y2="989.11548"
       gradientTransform="matrix(0.23447148,0,0,0.23447148,6.2953154,791.96379)" />
    <linearGradient
       inkscape:collect="always"
       xlink:href="#linearGradient3716"
       id="linearGradient2932"
       gradientUnits="userSpaceOnUse"
       gradientTransform="matrix(0.23447148,0,0,0.23447148,6.2953154,791.96379)"
       x1="75.474571"
       y1="934.09998"
       x2="75.474571"
       y2="1044.1313" />
    <linearGradient
       inkscape:collect="always"
       xlink:href="#linearGradient3937"
       id="linearGradient3746"
       gradientUnits="userSpaceOnUse"
       gradientTransform="matrix(0.23447148,0,0,0.23447148,6.2953154,791.96379)"
       x1="38.099571"
       y1="989.11548"
       x2="112.84957"
       y2="989.11548" />
    <linearGradient
       inkscape:collect="always"
       xlink:href="#linearGradient3716"
       id="linearGradient3748"
       gradientUnits="userSpaceOnUse"
       gradientTransform="matrix(0.23447148,0,0,0.23447148,6.2953154,791.96379)"
       x1="75.474571"
       y1="934.09998"
       x2="75.474571"
       y2="1044.1313" />
    <radialGradient
       inkscape:collect="always"
       xlink:href="#linearGradient3949"
       id="radialGradient3750"
       gradientUnits="userSpaceOnUse"
       gradientTransform="matrix(0.40720216,2.6104132e-7,-2.6802697e-7,0.4180992,-6.7411863,607.52683)"
       cx="75.474571"
       cy="1009.4531"
       fx="75.474571"
       fy="1009.4531"
       r="35.39809" />
    <radialGradient
       inkscape:collect="always"
       xlink:href="#linearGradient4098"
       id="radialGradient3752"
       gradientUnits="userSpaceOnUse"
       gradientTransform="matrix(1,0,0,0.19999999,0,92.500508)"
       cx="75.508904"
       cy="115.62563"
       fx="75.508904"
       fy="115.62563"
       r="44.194176" />
    <radialGradient
       inkscape:collect="always"
       xlink:href="#linearGradient4009"
       id="radialGradient3754"
       gradientUnits="userSpaceOnUse"
       gradientTransform="matrix(1.1762512,5.2882463e-7,-9.4013267e-7,1.6415367,19.505391,854.09876)"
       cx="48.321709"
       cy="114.19416"
       fx="48.321709"
       fy="114.19416"
       r="13.839286" />
    <radialGradient
       inkscape:collect="always"
       xlink:href="#linearGradient4020"
       id="radialGradient3756"
       gradientUnits="userSpaceOnUse"
       gradientTransform="matrix(0.89733465,0,-2.8299354e-8,-0.98162825,32.983009,1094.4814)"
       cx="48.321712"
       cy="108.83756"
       fx="48.321712"
       fy="108.83756"
       r="13.839286" />
    <linearGradient
       inkscape:collect="always"
       xlink:href="#linearGradient3984"
       id="linearGradient3758"
       gradientUnits="userSpaceOnUse"
       x1="28.75"
       y1="35.673389"
       x2="28.75"
       y2="115.5" />
    <radialGradient
       inkscape:collect="always"
       xlink:href="#linearGradient4009"
       id="radialGradient3760"
       gradientUnits="userSpaceOnUse"
       gradientTransform="matrix(1.1762512,5.2882463e-7,-9.4013267e-7,1.6415367,19.505391,854.09876)"
       cx="48.321709"
       cy="114.19416"
       fx="48.321709"
       fy="114.19416"
       r="13.839286" />
    <radialGradient
       inkscape:collect="always"
       xlink:href="#linearGradient4020"
       id="radialGradient3762"
       gradientUnits="userSpaceOnUse"
       gradientTransform="matrix(0.89733465,0,-2.8299354e-8,-0.98162825,32.983009,1094.4814)"
       cx="48.321712"
       cy="108.83756"
       fx="48.321712"
       fy="108.83756"
       r="13.839286" />
    <linearGradient
       inkscape:collect="always"
       xlink:href="#linearGradient3984"
       id="linearGradient3764"
       gradientUnits="userSpaceOnUse"
       x1="28.75"
       y1="35.673389"
       x2="28.75"
       y2="115.5" />
  </defs>
  <sodipodi:namedview
     id="base"
     pagecolor="#ffffff"
     bordercolor="#666666"
     borderopacity="1.0"
     inkscape:pageopacity="0.0"
     inkscape:pageshadow="2"
     inkscape:zoom="5.6"
     inkscape:cx="17.652655"
     inkscape:cy="3.7207874"
     inkscape:document-units="px"
     inkscape:current-layer="layer1"
     showgrid="false"
     inkscape:window-width="1280"
     inkscape:window-height="712"
     inkscape:window-x="0"
     inkscape:window-y="25"
     inkscape:window-maximized="1"
     showguides="true"
     inkscape:guide-bbox="true" />
  <metadata
     id="metadata7">
    <rdf:RDF>
      <cc:Work
         rdf:about="">
        <dc:format>image/svg+xml</dc:format>
        <dc:type
           rdf:resource="http://purl.org/dc/dcmitype/StillImage" />
        <dc:title />
      </cc:Work>
    </rdf:RDF>
  </metadata>
  <g
     inkscape:label="Livello 1"
     inkscape:groupmode="layer"
     id="layer1"
     transform="translate(0,-1004.3622)">
    <rect
       ry="1.0238096"
       rx="1.03125"
       y="1006.8622"
       x="7.5"
       height="43"
       width="33"
       id="rect4211"
       style="fill:#646464;fill-opacity:0.47058824;stroke:none" />
    <rect
       style="fill:url(#linearGradient4209);fill-opacity:1;stroke:none"
       id="rect3429"
       width="32"
       height="42"
       x="8"
       y="1007.3622"
       rx="1"
       ry="1" />
    <g
       id="g3726"
       transform="matrix(1.0408857,0,0,1.0408857,-0.98125655,-41.956172)">
      <path
         sodipodi:nodetypes="ccccccccccccc"
         id="path3926"
         d="m 17.939654,1010.9836 c -0.399405,0.015 -0.548311,0.34 -0.937885,0.9378 l -1.130488,1.8905 c -0.468425,0.7833 -0.642703,0.7864 -0.642703,1.7585 l 0,20.04 c 0,0.6495 0.522871,1.1724 1.172357,1.1724 l 15.182029,0 c 0.649486,0 1.172357,-0.5229 1.172357,-1.1724 l 0,-20.04 c 0,-0.5607 -0.08318,-1.0515 -0.491408,-1.7585 l -0.985718,-2.0385 c -0.322602,-0.5588 -0.420051,-0.7898 -1.23395,-0.7898 l -12.104591,0 z"
         style="fill:url(#linearGradient3746);fill-opacity:1;stroke:none" />
      <path
         style="fill:url(#linearGradient3748);fill-opacity:1;stroke:none"
         d="m 17.939654,1010.9836 c -0.399405,0.015 -0.548311,0.34 -0.937885,0.9378 l -1.130488,1.8905 c -0.468425,0.7833 -0.642703,0.7864 -0.642703,1.7585 l 0,20.04 c 0,0.6495 0.522871,1.1724 1.172357,1.1724 l 15.182029,0 c 0.649486,0 1.172357,-0.5229 1.172357,-1.1724 l 0,-20.04 c 0,-0.5607 -0.08318,-1.0515 -0.491408,-1.7585 l -0.985718,-2.0385 c -0.322602,-0.5588 -0.420051,-0.7898 -1.23395,-0.7898 l -12.104591,0 z"
         id="path2930"
         sodipodi:nodetypes="ccccccccccccc" />
      <path
         id="rect3145"
         d="m 16.65736,1014.7785 14.669181,0 c 0.627535,0 1.132732,0.5052 1.132732,1.1327 l 0,19.3605 c 0,0.6276 -0.505197,1.1328 -1.132732,1.1328 l -14.669181,0 c -0.627534,0 -1.132733,-0.5052 -1.132733,-1.1328 l 0,-19.3605 c 0,-0.6275 0.505199,-1.1327 1.132733,-1.1327 z"
         style="fill:url(#radialGradient3750);fill-opacity:1;stroke:none" />
      <path
         transform="matrix(0.23447148,0,0,0.23447148,6.2953154,1008.7004)"
         d="m 119.70308,115.62563 c 0,4.88156 -19.786407,8.83884 -44.194176,8.83884 -24.40777,0 -44.194176,-3.95728 -44.194176,-8.83884 0,-4.88155 19.786406,-8.83883 44.194176,-8.83883 24.407769,0 44.194176,3.95728 44.194176,8.83883 z"
         sodipodi:ry="8.8388348"
         sodipodi:rx="44.194176"
         sodipodi:cy="115.62563"
         sodipodi:cx="75.508904"
         id="path4096"
         style="fill:url(#radialGradient3752);fill-opacity:1;stroke:none"
         sodipodi:type="arc" />
      <g
         transform="matrix(0.23447148,0,0,0.23447148,6.0915179,792.43749)"
         id="g4082">
        <path
           style="fill:#dcdcdc;fill-opacity:1;stroke:none"
           d="m 76.34375,60.28125 c -14.359404,0 -26,11.640596 -26,26 0,14.3594 11.640596,26 26,26 14.359404,0 26,-11.6406 26,-26 0,-14.359404 -11.640596,-26 -26,-26 z m 0,2.5 c 12.978692,0 23.5,10.521308 23.5,23.5 0,12.978692 -10.521308,23.5 -23.5,23.5 -12.978692,0 -23.5,-10.521308 -23.5,-23.5 0,-12.978692 10.521308,-23.5 23.5,-23.5 z"
           transform="translate(0,924.36218)"
           id="path3964" />
        <path
           sodipodi:type="arc"
           style="fill:#333333;fill-opacity:1;stroke:none"
           id="path3969"
           sodipodi:cx="28.75"
           sodipodi:cy="87.821426"
           sodipodi:rx="27.678572"
           sodipodi:ry="27.678572"
           d="M 56.428572,87.821426 C 56.428572,103.10788 44.036453,115.5 28.75,115.5 13.463547,115.5 1.0714283,103.10788 1.0714283,87.821426 1.0714283,72.534973 13.463547,60.142855 28.75,60.142855 c 15.286453,0 27.678572,12.392118 27.678572,27.678571 z"
           transform="matrix(0.83096773,0,0,0.83096773,52.453428,937.66666)" />
        <path
           style="fill:url(#radialGradient3754);fill-opacity:1;stroke:none"
           d="m 92.607205,1026.9069 c -8.982059,8.982 -23.544855,8.982 -32.526913,0 4.742941,-4.6309 9.289676,-9.486 16.263457,-11.5673 6.574371,2.4283 11.587183,5.7252 16.263456,11.5673 z"
           id="path3995"
           sodipodi:nodetypes="cccc" />
        <path
           sodipodi:nodetypes="cccc"
           id="path4028"
           d="m 92.607206,994.37996 c -8.982059,-8.98204 -23.544854,-8.98204 -32.526912,0 4.742941,4.63093 9.289676,9.48594 16.263457,11.56734 6.574371,-2.4282 11.587182,-5.7251 16.263455,-11.56734 z"
           style="fill:url(#radialGradient3756);fill-opacity:1;stroke:none" />
        <path
           transform="matrix(0.2879341,0,0,0.2879341,68.065645,985.35665)"
           d="M 56.428572,87.821426 C 56.428572,103.10788 44.036453,115.5 28.75,115.5 13.463547,115.5 1.0714283,103.10788 1.0714283,87.821426 1.0714283,72.534973 13.463547,60.142855 28.75,60.142855 c 15.286453,0 27.678572,12.392118 27.678572,27.678571 z"
           sodipodi:ry="27.678572"
           sodipodi:rx="27.678572"
           sodipodi:cy="87.821426"
           sodipodi:cx="28.75"
           id="path3980"
           style="fill:#000000;fill-opacity:1;stroke:none"
           sodipodi:type="arc" />
        <path
           sodipodi:type="arc"
           style="fill:url(#linearGradient3758);fill-opacity:1;stroke:none"
           id="path3982"
           sodipodi:cx="28.75"
           sodipodi:cy="87.821426"
           sodipodi:rx="27.678572"
           sodipodi:ry="27.678572"
           d="M 56.428572,87.821426 C 56.428572,103.10788 44.036453,115.5 28.75,115.5 13.463547,115.5 1.0714283,103.10788 1.0714283,87.821426 1.0714283,72.534973 13.463547,60.142855 28.75,60.142855 c 15.286453,0 27.678572,12.392118 27.678572,27.678571 z"
           transform="matrix(0.2200549,0,0,0.1742759,70.017172,992.19238)" />
      </g>
      <g
         transform="matrix(0.12971004,0,0,0.12971004,14.089399,887.65562)"
         id="g4068">
        <path
           id="path4056"
           transform="translate(0,924.36218)"
           d="m 76.34375,60.28125 c -14.359404,0 -26,11.640596 -26,26 0,14.3594 11.640596,26 26,26 14.359404,0 26,-11.6406 26,-26 0,-14.359404 -11.640596,-26 -26,-26 z m 0,2.5 c 12.978692,0 23.5,10.521308 23.5,23.5 0,12.978692 -10.521308,23.5 -23.5,23.5 -12.978692,0 -23.5,-10.521308 -23.5,-23.5 0,-12.978692 10.521308,-23.5 23.5,-23.5 z"
           style="fill:#dcdcdc;fill-opacity:1;stroke:none" />
        <path
           transform="matrix(0.83096773,0,0,0.83096773,52.453428,937.66666)"
           d="M 56.428572,87.821426 C 56.428572,103.10788 44.036453,115.5 28.75,115.5 13.463547,115.5 1.0714283,103.10788 1.0714283,87.821426 1.0714283,72.534973 13.463547,60.142855 28.75,60.142855 c 15.286453,0 27.678572,12.392118 27.678572,27.678571 z"
           sodipodi:ry="27.678572"
           sodipodi:rx="27.678572"
           sodipodi:cy="87.821426"
           sodipodi:cx="28.75"
           id="path4058"
           style="fill:#333333;fill-opacity:1;stroke:none"
           sodipodi:type="arc" />
        <path
           sodipodi:nodetypes="cccc"
           id="path4060"
           d="m 92.607205,1026.9069 c -8.982059,8.982 -23.544855,8.982 -32.526913,0 4.742941,-4.6309 9.289676,-9.486 16.263457,-11.5673 6.574371,2.4283 11.587183,5.7252 16.263456,11.5673 z"
           style="fill:url(#radialGradient3760);fill-opacity:1;stroke:none" />
        <path
           style="fill:url(#radialGradient3762);fill-opacity:1;stroke:none"
           d="m 92.607206,994.37996 c -8.982059,-8.98204 -23.544854,-8.98204 -32.526912,0 4.742941,4.63093 9.289676,9.48594 16.263457,11.56734 6.574371,-2.4282 11.587182,-5.7251 16.263455,-11.56734 z"
           id="path4062"
           sodipodi:nodetypes="cccc" />
        <path
           sodipodi:type="arc"
           style="fill:#000000;fill-opacity:1;stroke:none"
           id="path4064"
           sodipodi:cx="28.75"
           sodipodi:cy="87.821426"
           sodipodi:rx="27.678572"
           sodipodi:ry="27.678572"
           d="M 56.428572,87.821426 C 56.428572,103.10788 44.036453,115.5 28.75,115.5 13.463547,115.5 1.0714283,103.10788 1.0714283,87.821426 1.0714283,72.534973 13.463547,60.142855 28.75,60.142855 c 15.286453,0 27.678572,12.392118 27.678572,27.678571 z"
           transform="matrix(0.2879341,0,0,0.2879341,68.065645,985.35665)" />
        <path
           transform="matrix(0.2200549,0,0,0.1742759,70.017172,992.19238)"
           d="M 56.428572,87.821426 C 56.428572,103.10788 44.036453,115.5 28.75,115.5 13.463547,115.5 1.0714283,103.10788 1.0714283,87.821426 1.0714283,72.534973 13.463547,60.142855 28.75,60.142855 c 15.286453,0 27.678572,12.392118 27.678572,27.678571 z"
           sodipodi:ry="27.678572"
           sodipodi:rx="27.678572"
           sodipodi:cy="87.821426"
           sodipodi:cx="28.75"
           id="path4066"
           style="fill:url(#linearGradient3764);fill-opacity:1;stroke:none"
           sodipodi:type="arc" />
      </g>
    </g>
    <g
       id="g2905"
       style="font-size:8px;font-style:normal;font-variant:normal;font-weight:bold;font-stretch:normal;fill:#ffffff;fill-opacity:1;stroke:none;font-family:Calibri;-inkscape-font-specification:'A.C.M.E. Secret Agent Bold'"
       transform="translate(56.950608,1022.3224)">
      <path
         id="path2907"
         d="m -34.272881,24.109375 c -6e-6,0.02604 -0.0078,0.04948 -0.02344,0.07031 -0.01303,0.02083 -0.03907,0.03776 -0.07813,0.05078 -0.03646,0.01302 -0.08594,0.02344 -0.148438,0.03125 -0.06251,0.0078 -0.141933,0.01172 -0.238281,0.01172 -0.09376,0 -0.171881,-0.0039 -0.234375,-0.01172 -0.06251,-0.0078 -0.111985,-0.01823 -0.148437,-0.03125 -0.03646,-0.01302 -0.06251,-0.02995 -0.07813,-0.05078 -0.01563,-0.02083 -0.02344,-0.04427 -0.02344,-0.07031 l 0,-4.113281 -0.0078,0 -1.464844,4.109375 c -0.01042,0.03385 -0.02735,0.0625 -0.05078,0.08594 -0.02344,0.02083 -0.05599,0.03776 -0.09766,0.05078 -0.03907,0.01302 -0.08985,0.02083 -0.152343,0.02344 -0.0625,0.0052 -0.138025,0.0078 -0.226563,0.0078 -0.08855,0 -0.164066,-0.0039 -0.226562,-0.01172 -0.0625,-0.0052 -0.114587,-0.01432 -0.15625,-0.02734 -0.03907,-0.01563 -0.07032,-0.03385 -0.09375,-0.05469 -0.02344,-0.02083 -0.03907,-0.04557 -0.04687,-0.07422 l -1.414063,-4.109375 -0.0078,0 0,4.113281 c -2e-6,0.02604 -0.0078,0.04948 -0.02344,0.07031 -0.01302,0.02083 -0.03906,0.03776 -0.07813,0.05078 -0.03906,0.01302 -0.08985,0.02344 -0.152344,0.03125 -0.0599,0.0078 -0.138022,0.01172 -0.234375,0.01172 -0.09375,0 -0.171875,-0.0039 -0.234375,-0.01172 -0.0625,-0.0078 -0.113281,-0.01823 -0.152343,-0.03125 -0.03646,-0.01302 -0.0625,-0.02995 -0.07813,-0.05078 -0.01302,-0.02083 -0.01953,-0.04427 -0.01953,-0.07031 l 0,-4.503906 c 0,-0.132808 0.03516,-0.23437 0.105469,-0.304688 0.07031,-0.07031 0.164062,-0.105463 0.28125,-0.105469 l 0.671875,0 c 0.11979,6e-6 0.222655,0.01042 0.308594,0.03125 0.08593,0.01823 0.160154,0.05079 0.222656,0.09766 0.0625,0.04427 0.114581,0.104171 0.15625,0.179687 0.04167,0.07292 0.07812,0.164067 0.109375,0.273438 l 1.09375,3.011718 0.01563,0 1.132813,-3.003906 c 0.03385,-0.10937 0.07031,-0.201818 0.109375,-0.277344 0.04166,-0.07552 0.08854,-0.136713 0.140625,-0.183593 0.05468,-0.04687 0.118484,-0.07942 0.191406,-0.09766 0.07291,-0.02083 0.157547,-0.03124 0.253906,-0.03125 l 0.691406,0 c 0.07031,6e-6 0.130203,0.0091 0.179688,0.02734 0.05208,0.01823 0.09374,0.04558 0.125,0.08203 0.03385,0.03386 0.05859,0.07683 0.07422,0.128907 0.01822,0.04948 0.02734,0.106775 0.02734,0.171875 l 0,4.503906"
         style="fill:#ffffff;fill-opacity:1" />
      <path
         id="path2909"
         d="m -29.702568,20.730469 c -4e-6,0.283857 -0.04427,0.535159 -0.132813,0.753906 -0.08854,0.218753 -0.217451,0.403648 -0.386718,0.554687 -0.169274,0.14844 -0.377608,0.261721 -0.625,0.339844 -0.244795,0.07813 -0.533857,0.11719 -0.867188,0.117188 l -0.421875,0 0,1.613281 c -1e-6,0.02604 -0.0091,0.04948 -0.02734,0.07031 -0.01563,0.02083 -0.04297,0.03776 -0.08203,0.05078 -0.03906,0.01302 -0.09115,0.02344 -0.15625,0.03125 -0.06511,0.0078 -0.148438,0.01172 -0.25,0.01172 -0.09896,0 -0.182292,-0.0039 -0.25,-0.01172 -0.06511,-0.0078 -0.117188,-0.01823 -0.15625,-0.03125 -0.03906,-0.01302 -0.06641,-0.02995 -0.08203,-0.05078 -0.01563,-0.02083 -0.02344,-0.04427 -0.02344,-0.07031 l 0,-4.546875 c 0,-0.122391 0.03125,-0.213537 0.09375,-0.273438 0.0651,-0.06249 0.149739,-0.09374 0.253907,-0.09375 l 1.191406,0 c 0.119789,6e-6 0.233071,0.0052 0.339844,0.01563 0.109372,0.0078 0.23958,0.02735 0.390625,0.05859 0.151038,0.02865 0.303382,0.08334 0.457031,0.164063 0.156247,0.08073 0.289059,0.183598 0.398437,0.308593 0.109372,0.122401 0.192705,0.266932 0.25,0.433594 0.05729,0.164067 0.08593,0.348962 0.08594,0.554688 m -1.074219,0.07422 c -3e-6,-0.177079 -0.03125,-0.322912 -0.09375,-0.4375 -0.0625,-0.114579 -0.139325,-0.199214 -0.230469,-0.253906 -0.09115,-0.05468 -0.187502,-0.08854 -0.289062,-0.101562 -0.09896,-0.01562 -0.201825,-0.02343 -0.308594,-0.02344 l -0.4375,0 0,1.714844 0.460938,0 c 0.16406,3e-6 0.300779,-0.02213 0.410156,-0.06641 0.111977,-0.04427 0.203122,-0.105466 0.273437,-0.183594 0.07031,-0.08073 0.123696,-0.175778 0.160157,-0.285156 0.03646,-0.111976 0.05468,-0.23307 0.05469,-0.363282"
         style="fill:#ffffff;fill-opacity:1" />
      <path
         id="path2911"
         d="m -25.737724,22.769531 c -4e-6,0.252606 -0.04818,0.476564 -0.144532,0.671875 -0.09636,0.195313 -0.230472,0.359376 -0.402343,0.492188 -0.171878,0.132812 -0.377607,0.234375 -0.617188,0.304687 -0.239585,0.06771 -0.501304,0.101563 -0.785156,0.101563 -0.171877,0 -0.333335,-0.01302 -0.484375,-0.03906 -0.151043,-0.02344 -0.285157,-0.05339 -0.402344,-0.08984 -0.114584,-0.03646 -0.209636,-0.07422 -0.285156,-0.113281 -0.07552,-0.03906 -0.125001,-0.06901 -0.148438,-0.08984 -0.02344,-0.02083 -0.04167,-0.04427 -0.05469,-0.07031 -0.01042,-0.02604 -0.02083,-0.05599 -0.03125,-0.08984 -0.0078,-0.03646 -0.01432,-0.08073 -0.01953,-0.132812 -0.0026,-0.05469 -0.0039,-0.119791 -0.0039,-0.195313 0,-0.124999 0.01042,-0.210936 0.03125,-0.257812 0.02083,-0.04948 0.05208,-0.07422 0.09375,-0.07422 0.02604,1e-6 0.07031,0.01823 0.132813,0.05469 0.0651,0.03386 0.147135,0.07162 0.246094,0.113282 0.09896,0.03906 0.214842,0.07682 0.347656,0.113281 0.132811,0.03385 0.283853,0.05078 0.453125,0.05078 0.143227,10e-7 0.269529,-0.01693 0.378906,-0.05078 0.109373,-0.03385 0.201821,-0.08073 0.277344,-0.140625 0.07812,-0.0625 0.135414,-0.136718 0.171875,-0.222656 0.03906,-0.08854 0.05859,-0.186197 0.05859,-0.292969 -3e-6,-0.117186 -0.02344,-0.222655 -0.07031,-0.316406 -0.04427,-0.09375 -0.111981,-0.173175 -0.203125,-0.238282 -0.08854,-0.06771 -0.201825,-0.119789 -0.339844,-0.15625 -0.135418,-0.03646 -0.295574,-0.05469 -0.480468,-0.05469 l -0.4375,0 c -0.03385,2e-6 -0.0625,-0.0039 -0.08594,-0.01172 -0.02344,-0.01041 -0.04297,-0.02995 -0.05859,-0.05859 -0.01563,-0.02864 -0.02734,-0.06771 -0.03516,-0.117187 -0.0052,-0.05208 -0.0078,-0.118487 -0.0078,-0.199219 -1e-6,-0.07552 0.0026,-0.136716 0.0078,-0.183594 0.0078,-0.04948 0.01823,-0.08724 0.03125,-0.113281 0.01562,-0.02604 0.03385,-0.04427 0.05469,-0.05469 0.02344,-0.01041 0.05078,-0.01562 0.08203,-0.01563 l 0.441406,0 c 0.15104,3e-6 0.285155,-0.01692 0.402344,-0.05078 0.117186,-0.03646 0.214842,-0.08724 0.292969,-0.152343 0.08073,-0.0651 0.141925,-0.143226 0.183593,-0.234375 0.04167,-0.09375 0.0625,-0.196611 0.0625,-0.308594 -2e-6,-0.08593 -0.01432,-0.166663 -0.04297,-0.242188 -0.02865,-0.07812 -0.07162,-0.144527 -0.128907,-0.199218 -0.05469,-0.05729 -0.126304,-0.101559 -0.214843,-0.132813 -0.08854,-0.03385 -0.19271,-0.05078 -0.3125,-0.05078 -0.135418,4e-6 -0.263023,0.02084 -0.382813,0.0625 -0.119793,0.03907 -0.227865,0.08334 -0.324219,0.132812 -0.09375,0.04688 -0.17448,0.09115 -0.242187,0.132813 -0.0651,0.04167 -0.113282,0.0625 -0.144531,0.0625 -0.02083,4e-6 -0.03906,-0.0039 -0.05469,-0.01172 -0.01563,-0.01041 -0.02865,-0.02864 -0.03906,-0.05469 -0.01042,-0.02604 -0.01823,-0.0638 -0.02344,-0.113282 -0.0052,-0.04948 -0.0078,-0.113277 -0.0078,-0.191406 -1e-6,-0.0651 0.0013,-0.118485 0.0039,-0.160156 0.0026,-0.04427 0.0078,-0.08073 0.01563,-0.109375 0.0078,-0.02864 0.01693,-0.05338 0.02734,-0.07422 0.01302,-0.02083 0.03255,-0.04296 0.05859,-0.06641 0.02604,-0.02604 0.07943,-0.0638 0.160157,-0.113281 0.08073,-0.04948 0.18229,-0.09765 0.304687,-0.144532 0.122395,-0.04687 0.26302,-0.08593 0.421875,-0.117187 0.161457,-0.03385 0.335936,-0.05078 0.523438,-0.05078 0.244789,5e-6 0.460935,0.02865 0.648437,0.08594 0.190102,0.0573 0.348956,0.14063 0.476563,0.25 0.130205,0.106776 0.227861,0.239588 0.292968,0.398438 0.06771,0.156254 0.101559,0.333337 0.101563,0.53125 -4e-6,0.153649 -0.01954,0.296878 -0.05859,0.429687 -0.03907,0.132816 -0.09636,0.251306 -0.171875,0.355469 -0.07552,0.10417 -0.170576,0.192711 -0.285156,0.265625 -0.111982,0.07292 -0.24219,0.127607 -0.390625,0.164062 l 0,0.01172 c 0.177081,0.02084 0.335935,0.06641 0.476562,0.136719 0.140622,0.06771 0.259112,0.153648 0.355469,0.257812 0.09896,0.104169 0.174476,0.222659 0.226563,0.355469 0.05208,0.13021 0.07812,0.270835 0.07813,0.421875"
         style="fill:#ffffff;fill-opacity:1" />
    </g>
    <g
       transform="translate(56.950608,1022.0224)"
       style="font-size:8px;font-style:normal;font-variant:normal;font-weight:bold;font-stretch:normal;fill:#333333;fill-opacity:1;stroke:none;font-family:Calibri;-inkscape-font-specification:'A.C.M.E. Secret Agent Bold'"
       id="text2905">
      <path
         d="m -34.272881,24.109375 c -6e-6,0.02604 -0.0078,0.04948 -0.02344,0.07031 -0.01303,0.02083 -0.03907,0.03776 -0.07813,0.05078 -0.03646,0.01302 -0.08594,0.02344 -0.148438,0.03125 -0.06251,0.0078 -0.141933,0.01172 -0.238281,0.01172 -0.09376,0 -0.171881,-0.0039 -0.234375,-0.01172 -0.06251,-0.0078 -0.111985,-0.01823 -0.148437,-0.03125 -0.03646,-0.01302 -0.06251,-0.02995 -0.07813,-0.05078 -0.01563,-0.02083 -0.02344,-0.04427 -0.02344,-0.07031 l 0,-4.113281 -0.0078,0 -1.464844,4.109375 c -0.01042,0.03385 -0.02735,0.0625 -0.05078,0.08594 -0.02344,0.02083 -0.05599,0.03776 -0.09766,0.05078 -0.03907,0.01302 -0.08985,0.02083 -0.152343,0.02344 -0.0625,0.0052 -0.138025,0.0078 -0.226563,0.0078 -0.08855,0 -0.164066,-0.0039 -0.226562,-0.01172 -0.0625,-0.0052 -0.114587,-0.01432 -0.15625,-0.02734 -0.03907,-0.01563 -0.07032,-0.03385 -0.09375,-0.05469 -0.02344,-0.02083 -0.03907,-0.04557 -0.04687,-0.07422 l -1.414063,-4.109375 -0.0078,0 0,4.113281 c -2e-6,0.02604 -0.0078,0.04948 -0.02344,0.07031 -0.01302,0.02083 -0.03906,0.03776 -0.07813,0.05078 -0.03906,0.01302 -0.08985,0.02344 -0.152344,0.03125 -0.0599,0.0078 -0.138022,0.01172 -0.234375,0.01172 -0.09375,0 -0.171875,-0.0039 -0.234375,-0.01172 -0.0625,-0.0078 -0.113281,-0.01823 -0.152343,-0.03125 -0.03646,-0.01302 -0.0625,-0.02995 -0.07813,-0.05078 -0.01302,-0.02083 -0.01953,-0.04427 -0.01953,-0.07031 l 0,-4.503906 c 0,-0.132808 0.03516,-0.23437 0.105469,-0.304688 0.07031,-0.07031 0.164062,-0.105463 0.28125,-0.105469 l 0.671875,0 c 0.11979,6e-6 0.222655,0.01042 0.308594,0.03125 0.08593,0.01823 0.160154,0.05079 0.222656,0.09766 0.0625,0.04427 0.114581,0.104171 0.15625,0.179687 0.04167,0.07292 0.07812,0.164067 0.109375,0.273438 l 1.09375,3.011718 0.01563,0 1.132813,-3.003906 c 0.03385,-0.10937 0.07031,-0.201818 0.109375,-0.277344 0.04166,-0.07552 0.08854,-0.136713 0.140625,-0.183593 0.05468,-0.04687 0.118484,-0.07942 0.191406,-0.09766 0.07291,-0.02083 0.157547,-0.03124 0.253906,-0.03125 l 0.691406,0 c 0.07031,6e-6 0.130203,0.0091 0.179688,0.02734 0.05208,0.01823 0.09374,0.04558 0.125,0.08203 0.03385,0.03386 0.05859,0.07683 0.07422,0.128907 0.01822,0.04948 0.02734,0.106775 0.02734,0.171875 l 0,4.503906"
         id="path3682" />
      <path
         d="m -29.702568,20.730469 c -4e-6,0.283857 -0.04427,0.535159 -0.132813,0.753906 -0.08854,0.218753 -0.217451,0.403648 -0.386718,0.554687 -0.169274,0.14844 -0.377608,0.261721 -0.625,0.339844 -0.244795,0.07813 -0.533857,0.11719 -0.867188,0.117188 l -0.421875,0 0,1.613281 c -1e-6,0.02604 -0.0091,0.04948 -0.02734,0.07031 -0.01563,0.02083 -0.04297,0.03776 -0.08203,0.05078 -0.03906,0.01302 -0.09115,0.02344 -0.15625,0.03125 -0.06511,0.0078 -0.148438,0.01172 -0.25,0.01172 -0.09896,0 -0.182292,-0.0039 -0.25,-0.01172 -0.06511,-0.0078 -0.117188,-0.01823 -0.15625,-0.03125 -0.03906,-0.01302 -0.06641,-0.02995 -0.08203,-0.05078 -0.01563,-0.02083 -0.02344,-0.04427 -0.02344,-0.07031 l 0,-4.546875 c 0,-0.122391 0.03125,-0.213537 0.09375,-0.273438 0.0651,-0.06249 0.149739,-0.09374 0.253907,-0.09375 l 1.191406,0 c 0.119789,6e-6 0.233071,0.0052 0.339844,0.01563 0.109372,0.0078 0.23958,0.02735 0.390625,0.05859 0.151038,0.02865 0.303382,0.08334 0.457031,0.164063 0.156247,0.08073 0.289059,0.183598 0.398437,0.308593 0.109372,0.122401 0.192705,0.266932 0.25,0.433594 0.05729,0.164067 0.08593,0.348962 0.08594,0.554688 m -1.074219,0.07422 c -3e-6,-0.177079 -0.03125,-0.322912 -0.09375,-0.4375 -0.0625,-0.114579 -0.139325,-0.199214 -0.230469,-0.253906 -0.09115,-0.05468 -0.187502,-0.08854 -0.289062,-0.101562 -0.09896,-0.01562 -0.201825,-0.02343 -0.308594,-0.02344 l -0.4375,0 0,1.714844 0.460938,0 c 0.16406,3e-6 0.300779,-0.02213 0.410156,-0.06641 0.111977,-0.04427 0.203122,-0.105466 0.273437,-0.183594 0.07031,-0.08073 0.123696,-0.175778 0.160157,-0.285156 0.03646,-0.111976 0.05468,-0.23307 0.05469,-0.363282"
         id="path3684" />
      <path
         d="m -25.737724,22.769531 c -4e-6,0.252606 -0.04818,0.476564 -0.144532,0.671875 -0.09636,0.195313 -0.230472,0.359376 -0.402343,0.492188 -0.171878,0.132812 -0.377607,0.234375 -0.617188,0.304687 -0.239585,0.06771 -0.501304,0.101563 -0.785156,0.101563 -0.171877,0 -0.333335,-0.01302 -0.484375,-0.03906 -0.151043,-0.02344 -0.285157,-0.05339 -0.402344,-0.08984 -0.114584,-0.03646 -0.209636,-0.07422 -0.285156,-0.113281 -0.07552,-0.03906 -0.125001,-0.06901 -0.148438,-0.08984 -0.02344,-0.02083 -0.04167,-0.04427 -0.05469,-0.07031 -0.01042,-0.02604 -0.02083,-0.05599 -0.03125,-0.08984 -0.0078,-0.03646 -0.01432,-0.08073 -0.01953,-0.132812 -0.0026,-0.05469 -0.0039,-0.119791 -0.0039,-0.195313 0,-0.124999 0.01042,-0.210936 0.03125,-0.257812 0.02083,-0.04948 0.05208,-0.07422 0.09375,-0.07422 0.02604,1e-6 0.07031,0.01823 0.132813,0.05469 0.0651,0.03386 0.147135,0.07162 0.246094,0.113282 0.09896,0.03906 0.214842,0.07682 0.347656,0.113281 0.132811,0.03385 0.283853,0.05078 0.453125,0.05078 0.143227,10e-7 0.269529,-0.01693 0.378906,-0.05078 0.109373,-0.03385 0.201821,-0.08073 0.277344,-0.140625 0.07812,-0.0625 0.135414,-0.136718 0.171875,-0.222656 0.03906,-0.08854 0.05859,-0.186197 0.05859,-0.292969 -3e-6,-0.117186 -0.02344,-0.222655 -0.07031,-0.316406 -0.04427,-0.09375 -0.111981,-0.173175 -0.203125,-0.238282 -0.08854,-0.06771 -0.201825,-0.119789 -0.339844,-0.15625 -0.135418,-0.03646 -0.295574,-0.05469 -0.480468,-0.05469 l -0.4375,0 c -0.03385,2e-6 -0.0625,-0.0039 -0.08594,-0.01172 -0.02344,-0.01041 -0.04297,-0.02995 -0.05859,-0.05859 -0.01563,-0.02864 -0.02734,-0.06771 -0.03516,-0.117187 -0.0052,-0.05208 -0.0078,-0.118487 -0.0078,-0.199219 -1e-6,-0.07552 0.0026,-0.136716 0.0078,-0.183594 0.0078,-0.04948 0.01823,-0.08724 0.03125,-0.113281 0.01562,-0.02604 0.03385,-0.04427 0.05469,-0.05469 0.02344,-0.01041 0.05078,-0.01562 0.08203,-0.01563 l 0.441406,0 c 0.15104,3e-6 0.285155,-0.01692 0.402344,-0.05078 0.117186,-0.03646 0.214842,-0.08724 0.292969,-0.152343 0.08073,-0.0651 0.141925,-0.143226 0.183593,-0.234375 0.04167,-0.09375 0.0625,-0.196611 0.0625,-0.308594 -2e-6,-0.08593 -0.01432,-0.166663 -0.04297,-0.242188 -0.02865,-0.07812 -0.07162,-0.144527 -0.128907,-0.199218 -0.05469,-0.05729 -0.126304,-0.101559 -0.214843,-0.132813 -0.08854,-0.03385 -0.19271,-0.05078 -0.3125,-0.05078 -0.135418,4e-6 -0.263023,0.02084 -0.382813,0.0625 -0.119793,0.03907 -0.227865,0.08334 -0.324219,0.132812 -0.09375,0.04688 -0.17448,0.09115 -0.242187,0.132813 -0.0651,0.04167 -0.113282,0.0625 -0.144531,0.0625 -0.02083,4e-6 -0.03906,-0.0039 -0.05469,-0.01172 -0.01563,-0.01041 -0.02865,-0.02864 -0.03906,-0.05469 -0.01042,-0.02604 -0.01823,-0.0638 -0.02344,-0.113282 -0.0052,-0.04948 -0.0078,-0.113277 -0.0078,-0.191406 -1e-6,-0.0651 0.0013,-0.118485 0.0039,-0.160156 0.0026,-0.04427 0.0078,-0.08073 0.01563,-0.109375 0.0078,-0.02864 0.01693,-0.05338 0.02734,-0.07422 0.01302,-0.02083 0.03255,-0.04296 0.05859,-0.06641 0.02604,-0.02604 0.07943,-0.0638 0.160157,-0.113281 0.08073,-0.04948 0.18229,-0.09765 0.304687,-0.144532 0.122395,-0.04687 0.26302,-0.08593 0.421875,-0.117187 0.161457,-0.03385 0.335936,-0.05078 0.523438,-0.05078 0.244789,5e-6 0.460935,0.02865 0.648437,0.08594 0.190102,0.0573 0.348956,0.14063 0.476563,0.25 0.130205,0.106776 0.227861,0.239588 0.292968,0.398438 0.06771,0.156254 0.101559,0.333337 0.101563,0.53125 -4e-6,0.153649 -0.01954,0.296878 -0.05859,0.429687 -0.03907,0.132816 -0.09636,0.251306 -0.171875,0.355469 -0.07552,0.10417 -0.170576,0.192711 -0.285156,0.265625 -0.111982,0.07292 -0.24219,0.127607 -0.390625,0.164062 l 0,0.01172 c 0.177081,0.02084 0.335935,0.06641 0.476562,0.136719 0.140622,0.06771 0.259112,0.153648 0.355469,0.257812 0.09896,0.104169 0.174476,0.222659 0.226563,0.355469 0.05208,0.13021 0.07812,0.270835 0.07813,0.421875"
         id="path3686" />
    </g>
  </g>
</svg>
