<?xml version="1.0" encoding="UTF-8" standalone="no"?>
<!-- Created with Inkscape (http://www.inkscape.org/) -->

<svg
   xmlns:dc="http://purl.org/dc/elements/1.1/"
   xmlns:cc="http://creativecommons.org/ns#"
   xmlns:rdf="http://www.w3.org/1999/02/22-rdf-syntax-ns#"
   xmlns:svg="http://www.w3.org/2000/svg"
   xmlns="http://www.w3.org/2000/svg"
   xmlns:xlink="http://www.w3.org/1999/xlink"
   xmlns:sodipodi="http://sodipodi.sourceforge.net/DTD/sodipodi-0.dtd"
   xmlns:inkscape="http://www.inkscape.org/namespaces/inkscape"
   width="48"
   height="48"
   id="svg2"
   version="1.1"
   inkscape:version="0.47pre4 r22446"
   sodipodi:docname="file-arj1.svg"
   inkscape:export-filename="/home/andrea/.icons/MeliaeSVG/48/apps/png/scatola-legno512.png"
   inkscape:export-xdpi="960"
   inkscape:export-ydpi="960">
  <defs
     id="defs4">
    <linearGradient
       id="linearGradient4039">
      <stop
         style="stop-color:#b49646;stop-opacity:1;"
         offset="0"
         id="stop4041" />
      <stop
         style="stop-color:#8c6e1e;stop-opacity:1;"
         offset="1"
         id="stop4043" />
    </linearGradient>
    <linearGradient
       id="linearGradient4029">
      <stop
         id="stop4031"
         offset="0"
         style="stop-color:#f0f0f0;stop-opacity:0.78431374;" />
      <stop
         style="stop-color:#f0f0f0;stop-opacity:0;"
         offset="0.02248874"
         id="stop4033" />
      <stop
         style="stop-color:#ebb778;stop-opacity:0;"
         offset="0.93861884"
         id="stop4035" />
      <stop
         id="stop4037"
         offset="1"
         style="stop-color:#f0f0f0;stop-opacity:0;" />
    </linearGradient>
    <linearGradient
       id="linearGradient4021">
      <stop
         style="stop-color:#d2b464;stop-opacity:1;"
         offset="0"
         id="stop4023" />
      <stop
         style="stop-color:#a08232;stop-opacity:1;"
         offset="1"
         id="stop4025" />
    </linearGradient>
    <linearGradient
       id="linearGradient4001">
      <stop
         style="stop-color:#dcdcb4;stop-opacity:0.78431374;"
         offset="0"
         id="stop4003" />
      <stop
         id="stop4017"
         offset="0.0625"
         style="stop-color:#dcdcb4;stop-opacity:0.78431373;" />
      <stop
         id="stop4013"
         offset="0.33749759"
         style="stop-color:#ffffff;stop-opacity:0.78431374;" />
      <stop
         id="stop4011"
         offset="0.50914341"
         style="stop-color:#dcdcb4;stop-opacity:0.78431374;" />
      <stop
         id="stop4009"
         offset="0.62957168"
         style="stop-color:#dcdcb4;stop-opacity:0.78431374;" />
      <stop
         style="stop-color:#ffffff;stop-opacity:0.78431374;"
         offset="0.79085177"
         id="stop4019" />
      <stop
         style="stop-color:#dcdcb4;stop-opacity:0.78431374;"
         offset="0.90548605"
         id="stop4015" />
      <stop
         style="stop-color:#dcdcb4;stop-opacity:0.78431374;"
         offset="1"
         id="stop4005" />
    </linearGradient>
    <linearGradient
       id="linearGradient3756">
      <stop
         style="stop-color:#f0f0f0;stop-opacity:1;"
         offset="0"
         id="stop3758" />
      <stop
         style="stop-color:#c8c8c8;stop-opacity:1;"
         offset="1"
         id="stop3760" />
    </linearGradient>
    <linearGradient
       id="linearGradient3720">
      <stop
         id="stop3722"
         offset="0"
         style="stop-color:#e3b577;stop-opacity:1;" />
      <stop
         style="stop-color:#e3b577;stop-opacity:0;"
         offset="0.17627905"
         id="stop3724" />
      <stop
         style="stop-color:#e3b577;stop-opacity:0;"
         offset="0.74994612"
         id="stop3726" />
      <stop
         id="stop3728"
         offset="1"
         style="stop-color:#e3b577;stop-opacity:1;" />
    </linearGradient>
    <linearGradient
       id="linearGradient3704">
      <stop
         style="stop-color:#e3b577;stop-opacity:1;"
         offset="0"
         id="stop3706" />
      <stop
         id="stop3714"
         offset="0.13721804"
         style="stop-color:#e3b577;stop-opacity:0;" />
      <stop
         id="stop3712"
         offset="0.87828946"
         style="stop-color:#e3b577;stop-opacity:0;" />
      <stop
         style="stop-color:#e3b577;stop-opacity:1;"
         offset="1"
         id="stop3708" />
    </linearGradient>
    <linearGradient
       inkscape:collect="always"
       id="linearGradient3798">
      <stop
         style="stop-color:#333333;stop-opacity:1;"
         offset="0"
         id="stop3800" />
      <stop
         style="stop-color:#333333;stop-opacity:0;"
         offset="1"
         id="stop3802" />
    </linearGradient>
    <linearGradient
       id="linearGradient3758">
      <stop
         id="stop3768"
         offset="0"
         style="stop-color:#333333;stop-opacity:0.78431374;" />
      <stop
         style="stop-color:#333333;stop-opacity:0;"
         offset="1"
         id="stop3762" />
    </linearGradient>
    <linearGradient
       id="linearGradient3645">
      <stop
         style="stop-color:#f0f0f0;stop-opacity:0.78431374;"
         offset="0"
         id="stop3647" />
      <stop
         id="stop3655"
         offset="0.04730492"
         style="stop-color:#f0f0f0;stop-opacity:0;" />
      <stop
         id="stop3653"
         offset="0.93861884"
         style="stop-color:#f0f0f0;stop-opacity:0;" />
      <stop
         style="stop-color:#646464;stop-opacity:0.78431374;"
         offset="1"
         id="stop3649" />
    </linearGradient>
    <linearGradient
       id="linearGradient3637">
      <stop
         id="stop3639"
         offset="0"
         style="stop-color:#feedd2;stop-opacity:1" />
      <stop
         id="stop3641"
         offset="1"
         style="stop-color:#feedd2;stop-opacity:0;" />
    </linearGradient>
    <linearGradient
       id="linearGradient3625">
      <stop
         style="stop-color:#b4853f;stop-opacity:1"
         offset="0"
         id="stop3627" />
      <stop
         style="stop-color:#b4853f;stop-opacity:0;"
         offset="1"
         id="stop3629" />
    </linearGradient>
    <linearGradient
       id="linearGradient3587">
      <stop
         style="stop-color:#f7d7a1;stop-opacity:1;"
         offset="0"
         id="stop3589" />
      <stop
         style="stop-color:#d59857;stop-opacity:1;"
         offset="1"
         id="stop3591" />
    </linearGradient>
    <inkscape:perspective
       sodipodi:type="inkscape:persp3d"
       inkscape:vp_x="0 : 526.18109 : 1"
       inkscape:vp_y="0 : 1000 : 0"
       inkscape:vp_z="744.09448 : 526.18109 : 1"
       inkscape:persp3d-origin="372.04724 : 350.78739 : 1"
       id="perspective10" />
    <inkscape:perspective
       id="perspective2884"
       inkscape:persp3d-origin="0.5 : 0.33333333 : 1"
       inkscape:vp_z="1 : 0.5 : 1"
       inkscape:vp_y="0 : 1000 : 0"
       inkscape:vp_x="0 : 0.5 : 1"
       sodipodi:type="inkscape:persp3d" />
    <linearGradient
       inkscape:collect="always"
       xlink:href="#linearGradient3625"
       id="linearGradient3631"
       x1="23.066879"
       y1="1019.1055"
       x2="23.066881"
       y2="1045.4059"
       gradientUnits="userSpaceOnUse"
       gradientTransform="matrix(1.006689,0,0,0.9999745,-0.05429464,0.02632146)" />
    <linearGradient
       inkscape:collect="always"
       xlink:href="#linearGradient3637"
       id="linearGradient3635"
       gradientUnits="userSpaceOnUse"
       gradientTransform="matrix(1.0100335,0,0,0.99996178,-0.13144183,-2064.3716)"
       x1="23.066879"
       y1="1019.1055"
       x2="23.066879"
       y2="1067.4026" />
    <linearGradient
       inkscape:collect="always"
       xlink:href="#linearGradient3645"
       id="linearGradient3651"
       x1="4.1668806"
       y1="1032.2055"
       x2="42.166881"
       y2="1032.2055"
       gradientUnits="userSpaceOnUse"
       gradientTransform="translate(1.5252625e-6,-4.3359375e-7)" />
    <linearGradient
       inkscape:collect="always"
       xlink:href="#linearGradient3645"
       id="linearGradient3659"
       gradientUnits="userSpaceOnUse"
       x1="4.1668806"
       y1="1032.2055"
       x2="42.166881"
       y2="1032.2055"
       gradientTransform="matrix(0.89473684,0,0,1.1176471,1011.4772,-1176.8083)" />
    <filter
       inkscape:collect="always"
       id="filter3792"
       x="-0.063325942"
       width="1.1266519"
       y="-1.1424"
       height="3.2847999">
      <feGaussianBlur
         inkscape:collect="always"
         stdDeviation="1.0625"
         id="feGaussianBlur3794" />
    </filter>
    <radialGradient
       inkscape:collect="always"
       xlink:href="#linearGradient3798"
       id="radialGradient3804"
       cx="23.166881"
       cy="1048.5984"
       fx="23.166881"
       fy="1048.5984"
       r="20.133928"
       gradientTransform="matrix(1,0,0,0.05543237,0,990.97715)"
       gradientUnits="userSpaceOnUse" />
    <linearGradient
       inkscape:collect="always"
       xlink:href="#linearGradient3625"
       id="linearGradient3682"
       x1="23.166882"
       y1="1008.5552"
       x2="23.166882"
       y2="1013.3553"
       gradientUnits="userSpaceOnUse" />
    <linearGradient
       inkscape:collect="always"
       xlink:href="#linearGradient3637"
       id="linearGradient3686"
       gradientUnits="userSpaceOnUse"
       x1="19.059738"
       y1="1013.3553"
       x2="19.059738"
       y2="1008.5477" />
    <linearGradient
       inkscape:collect="always"
       xlink:href="#linearGradient3704"
       id="linearGradient3710"
       x1="4.1668816"
       y1="1011.2053"
       x2="42.166882"
       y2="1011.2053"
       gradientUnits="userSpaceOnUse" />
    <linearGradient
       inkscape:collect="always"
       xlink:href="#linearGradient3720"
       id="linearGradient3718"
       gradientUnits="userSpaceOnUse"
       x1="23.166882"
       y1="1007.2052"
       x2="23.166882"
       y2="1015.2055" />
    <linearGradient
       id="linearGradient3134">
      <stop
         id="stop3136"
         offset="0"
         style="stop-color: rgb(255, 193, 0); stop-opacity: 1;" />
      <stop
         id="stop3138"
         offset="1"
         style="stop-color: rgb(255, 0, 0); stop-opacity: 1;" />
    </linearGradient>
    <linearGradient
       id="linearGradient3182">
      <stop
         style="stop-color: rgb(142, 0, 0); stop-opacity: 1;"
         offset="0"
         id="stop3184" />
      <stop
         style="stop-color: rgb(189, 0, 0); stop-opacity: 1;"
         offset="1"
         id="stop3186" />
    </linearGradient>
    <inkscape:perspective
       id="perspective4780"
       inkscape:persp3d-origin="114.884 : 95.329 : 1"
       inkscape:vp_z="229.76801 : 142.9935 : 1"
       inkscape:vp_y="0 : 1000 : 0"
       inkscape:vp_x="0 : 142.9935 : 1"
       sodipodi:type="inkscape:persp3d" />
    <linearGradient
       inkscape:collect="always"
       xlink:href="#linearGradient3704"
       id="linearGradient4848"
       gradientUnits="userSpaceOnUse"
       x1="4.1668816"
       y1="1011.2053"
       x2="42.166882"
       y2="1011.2053"
       gradientTransform="translate(-16.66688,-14.152243)" />
    <linearGradient
       inkscape:collect="always"
       xlink:href="#linearGradient3720"
       id="linearGradient4851"
       gradientUnits="userSpaceOnUse"
       x1="23.166882"
       y1="1007.2052"
       x2="23.166882"
       y2="1015.2055"
       gradientTransform="translate(31.833119,-15.152243)" />
    <linearGradient
       inkscape:collect="always"
       xlink:href="#linearGradient4029"
       id="linearGradient4913"
       gradientUnits="userSpaceOnUse"
       gradientTransform="matrix(0.89473684,0,0,1.1176471,1011.5752,-1177.6414)"
       x1="4.1668806"
       y1="1032.2055"
       x2="42.166881"
       y2="1032.2055" />
    <radialGradient
       inkscape:collect="always"
       xlink:href="#linearGradient3798"
       id="radialGradient4917"
       gradientUnits="userSpaceOnUse"
       gradientTransform="matrix(1,0,0,0.05543237,0.83311939,991.07491)"
       cx="23.166881"
       cy="1048.5984"
       fx="23.166881"
       fy="1048.5984"
       r="20.133928" />
    <inkscape:perspective
       id="perspective4434"
       inkscape:persp3d-origin="54.5 : 48.333333 : 1"
       inkscape:vp_z="109 : 72.5 : 1"
       inkscape:vp_y="0 : 1000 : 0"
       inkscape:vp_x="0 : 72.5 : 1"
       sodipodi:type="inkscape:persp3d" />
    <linearGradient
       inkscape:collect="always"
       xlink:href="#linearGradient3756"
       id="linearGradient4590"
       gradientUnits="userSpaceOnUse"
       gradientTransform="matrix(1.2845259,0,0,0.99560639,2.4672278,1000.4528)"
       x1="-9.4575529"
       y1="26.344856"
       x2="-3.9774756"
       y2="46.497398" />
    <linearGradient
       inkscape:collect="always"
       xlink:href="#linearGradient3756"
       id="linearGradient3029"
       gradientUnits="userSpaceOnUse"
       gradientTransform="matrix(1.5344225,0,0,1.1892955,33.834496,992.49513)"
       x1="-9.4575529"
       y1="26.344856"
       x2="-3.9774756"
       y2="46.497398" />
    <linearGradient
       inkscape:collect="always"
       xlink:href="#linearGradient4001"
       id="linearGradient4007"
       x1="24"
       y1="1019.3622"
       x2="24"
       y2="1007.3032"
       gradientUnits="userSpaceOnUse" />
    <linearGradient
       inkscape:collect="always"
       xlink:href="#linearGradient4021"
       id="linearGradient4027"
       x1="24"
       y1="1015.3033"
       x2="24"
       y2="1049.3032"
       gradientUnits="userSpaceOnUse" />
    <linearGradient
       inkscape:collect="always"
       xlink:href="#linearGradient4039"
       id="linearGradient4045"
       x1="24.000002"
       y1="1011.3032"
       x2="24.000002"
       y2="1003.553"
       gradientUnits="userSpaceOnUse" />
    <linearGradient
       inkscape:collect="always"
       xlink:href="#linearGradient3756"
       id="linearGradient3725"
       gradientUnits="userSpaceOnUse"
       gradientTransform="matrix(1.5344225,0,0,1.1892955,33.834497,992.49512)"
       x1="-9.4575529"
       y1="26.344856"
       x2="-3.9774756"
       y2="46.497398" />
  </defs>
  <sodipodi:namedview
     id="base"
     pagecolor="#ffffff"
     bordercolor="#666666"
     borderopacity="1.0"
     inkscape:pageopacity="0.0"
     inkscape:pageshadow="2"
     inkscape:zoom="7.9999999"
     inkscape:cx="16.601678"
     inkscape:cy="18.002621"
     inkscape:document-units="px"
     inkscape:current-layer="layer1"
     showgrid="false"
     inkscape:window-width="1280"
     inkscape:window-height="714"
     inkscape:window-x="0"
     inkscape:window-y="25"
     inkscape:window-maximized="1"
     showguides="true"
     inkscape:guide-bbox="true" />
  <metadata
     id="metadata7">
    <rdf:RDF>
      <cc:Work
         rdf:about="">
        <dc:format>image/svg+xml</dc:format>
        <dc:type
           rdf:resource="http://purl.org/dc/dcmitype/StillImage" />
        <dc:title></dc:title>
      </cc:Work>
    </rdf:RDF>
  </metadata>
  <g
     inkscape:label="Livello 1"
     inkscape:groupmode="layer"
     id="layer1"
     transform="translate(0,-1004.3622)">
    <rect
       style="fill:#333333;fill-opacity:0.39215686;stroke:none;filter:url(#filter3792)"
       id="rect3756"
       width="40.267857"
       height="2.2321429"
       x="3.8660717"
       y="1047.5801" />
    <rect
       y="1048.085"
       x="3.8660717"
       height="2.2321429"
       width="40.267857"
       id="rect3796"
       style="fill:url(#radialGradient4917);fill-opacity:1;stroke:none" />
    <rect
       style="fill:url(#linearGradient4027);fill-opacity:1;stroke:none"
       id="rect2890"
       width="38"
       height="34"
       x="5"
       y="1015.3033" />
    <rect
       style="fill:url(#linearGradient4913);fill-opacity:1;stroke:none"
       id="rect3657"
       width="34"
       height="38"
       x="1015.3033"
       y="-43"
       transform="matrix(0,1,-1,0,0,0)" />
    <path
       style="fill:url(#linearGradient4045);fill-opacity:1;stroke:none"
       d="m 10.000119,1007.303 28,0 4.999882,8.0003 -38,0 5.000118,-8.0003 z"
       id="rect2896"
       sodipodi:nodetypes="ccccc" />
    <path
       style="font-size:medium;font-style:normal;font-variant:normal;font-weight:normal;font-stretch:normal;text-indent:0;text-align:start;text-decoration:none;line-height:normal;letter-spacing:normal;word-spacing:normal;text-transform:none;direction:ltr;block-progression:tb;writing-mode:lr-tb;text-anchor:start;color:#000000;fill:#000000;fill-opacity:1;stroke:none;stroke-width:0.30000000999999998;marker:none;visibility:visible;display:inline;overflow:visible;enable-background:accumulate;font-family:'A.C.M.E. Secret Agent';-inkscape-font-specification:'A.C.M.E. Secret Agent'"
       d="m 23.843751,1007.303 0,7.958 0.3125,0 0,-7.958 -0.3125,0 z"
       id="path3993" />
    <path
       style="fill:url(#linearGradient4007);fill-opacity:1;stroke:none"
       d="m 22,1007.3032 4,0 1,8 0,4.059 -3,0 -3,0 0,-4.0589 1,-8.0001 z"
       id="path3999"
       sodipodi:nodetypes="cccccccc" />
    <g
       style="font-size:9px;font-style:normal;font-variant:normal;font-weight:normal;font-stretch:normal;fill:#c8aa5a;fill-opacity:1;stroke:none;font-family:CODE3X;-inkscape-font-specification:CODE3X"
       id="text3689">
      <path
         d="m 14.662781,1044.7182 c -4e-6,0.09 -0.042,0.135 -0.126,0.135 l -0.126,-0.01 c -0.084,0 -0.126003,-0.042 -0.126,-0.126 -3e-6,-0.066 -3e-6,-0.165 0,-0.297 -0.006,-0.126 -0.009,-0.222 -0.009,-0.288 l 0,-4.563 c -3e-6,-0.09 0.045,-0.135 0.135,-0.135 0.167996,0 0.251996,0.045 0.252,0.135 l 0,5.148 m -1.026,-2.277 0,1.89 c -3e-6,0.048 0.003,0.105 0.009,0.171 0.006,0.066 0.009,0.111 0.009,0.135 -3e-6,0.138 -0.093,0.207 -0.279,0.207 -0.084,0 -0.126002,-0.042 -0.126,-0.126 -2e-6,-0.114 -2e-6,-0.279 0,-0.495 -2e-6,-0.222 -2e-6,-0.39 0,-0.504 l -0.009,-3.375 c -2e-6,-0.09 0.003,-0.219 0.009,-0.387 -2e-6,-0.174 -2e-6,-0.303 0,-0.387 -2e-6,-0.084 0.084,-0.126 0.252,-0.126 0.09,0 0.134997,0.042 0.135,0.126 -3e-6,0.078 -3e-6,0.189 0,0.333 -0.006,0.15 -0.009,0.261 -0.009,0.333 -3e-6,0.228 0.003,0.597 0.009,1.107 -3e-6,0.402 -3e-6,0.768 0,1.098 m -1.035,1.656 c -2e-6,0.426 -0.015,0.657 -0.045,0.693 -0.03,0.036 -0.249001,0.054 -0.657,0.054 -0.084,0 -0.126001,-0.042 -0.126,-0.126 l 0,-5.148 c -10e-7,-0.084 0.042,-0.126 0.126,-0.126 l 0.576,0 c 0.084,0 0.125998,0.042 0.126,0.126 l 0,4.527 m -1.035,0.621 c -1e-6,0.084 -0.084,0.126 -0.252,0.126 -0.09,0 -0.135,-0.042 -0.135,-0.126 l 0,-5.148 c 0,-0.084 0.087,-0.126 0.261,-0.126 0.09,0 0.134999,0.042 0.135,0.126 l -0.009,5.148 m 1.044,2.016 c 0.024,0.048 0.036,0.087 0.036,0.117 -2e-6,0.294 -2e-6,0.435 0,0.423 -0.018,0.186 -0.087,0.279 -0.207,0.279 -0.120001,0 -0.180001,-0.066 -0.18,-0.198 -1e-6,-0.174 -0.003,-0.441 -0.009,-0.801 -10e-7,-0.354 -10e-7,-0.621 0,-0.801 -10e-7,-0.126 0.09,-0.198 0.27,-0.216 -0.03,0 0.110998,0 0.423,0 0.197998,0 0.359998,0.054 0.486,0.162 0.131998,0.102 0.197997,0.249 0.198,0.441 -3e-6,0.192 -0.066,0.345 -0.198,0.459 -0.126002,0.108 -0.288002,0.162 -0.486,0.162 -0.03,0 -0.072,-0.01 -0.126,-0.018 -0.054,-0.018 -0.096,-0.027 -0.126,-0.027 -0.018,0 -0.045,0.01 -0.081,0.018 m 0.189,-0.801 c -0.018,0 -0.045,-0.01 -0.081,-0.018 -0.03,-0.012 -0.051,-0.018 -0.063,-0.018 -0.018,0 -0.036,0.021 -0.054,0.063 0.024,0.072 0.036,0.126 0.036,0.162 -2e-6,0.018 -0.006,0.048 -0.018,0.09 -0.006,0.036 -0.009,0.063 -0.009,0.081 -2e-6,0.03 0.009,0.06 0.027,0.09 l 0,0.01 c 0.066,-0.024 0.107998,-0.036 0.126,-0.036 0.161998,0 0.263998,-0 0.306,-0.01 0.119998,-0.03 0.179998,-0.099 0.18,-0.207 -2e-6,-0.138 -0.150002,-0.207 -0.45,-0.207"
         style=""
         id="path3724" />
      <path
         d="m 18.363187,1044.3312 c -3e-6,0.042 -3e-6,0.096 0,0.162 0.006,0.072 0.009,0.12 0.009,0.144 -3e-6,0.144 -0.09,0.216 -0.27,0.216 -0.084,0 -0.126003,-0.045 -0.126,-0.135 -3e-6,-0.126 -3e-6,-0.318 0,-0.576 -0.006,-0.258 -0.009,-0.45 -0.009,-0.576 l 0,-3.501 c -3e-6,-0.312 -3e-6,-0.432 0,-0.36 0.006,-0.174 0.051,-0.261 0.135,-0.261 l 0.126,0 c 0.084,0 0.128997,0.096 0.135,0.288 -3e-6,-0.072 -3e-6,0.06 0,0.396 l 0,4.203 m -1.035,0.387 c -2e-6,0.09 -0.045,0.135 -0.135,0.135 l -0.126,-0.01 c -0.084,0 -0.129002,-0.09 -0.135,-0.27 -2e-6,0.072 -2e-6,-0.057 0,-0.387 l 0.009,-4.617 c -2e-6,-0.084 0.084,-0.126 0.252,-0.126 0.084,0 0.125998,0.042 0.126,0.126 l 0.009,5.148 m -1.035,-4.482 0,4.482 c -1e-6,0.084 -0.042,0.126 -0.126,0.126 l -0.09,0 c -0.288001,0 -0.408001,0 -0.36,0.01 -0.174001,-0.012 -0.261,-0.057 -0.261,-0.135 l 0.009,-4.761 c 0,-0.318 -0.003,-0.417 -0.009,-0.297 0.006,-0.144 0.051,-0.216 0.135,-0.216 0.329999,0 0.515999,0.01 0.558,0.018 0.09,0.018 0.140999,0.081 0.153,0.189 -0.006,-0.042 -0.009,0.153 -0.009,0.585 m -1.026,4.482 c 0,0.084 -0.045,0.126 -0.135,0.126 -0.174,0 -0.261,-0.042 -0.261,-0.126 l 0,-5.148 c 0,-0.084 0.045,-0.126 0.135,-0.126 0.168,0 0.252,0.042 0.252,0.126 l 0.009,5.148 m 1.863,2.835 c -0.114002,0 -0.186002,-0.078 -0.216,-0.234 -0.042,-0.204 -0.072,-0.318 -0.09,-0.342 l -0.036,0 c -0.036,0.018 -0.075,0.027 -0.117,0.027 -0.024,0 -0.06,-0 -0.108,-0.01 -0.042,-0.012 -0.075,-0.018 -0.099,-0.018 -0.018,0 -0.045,0.01 -0.081,0.027 l 0.009,0.027 c -1e-6,0.108 -0.024,0.216 -0.072,0.324 -0.054,0.138 -0.126001,0.207 -0.216,0.207 -0.132001,0 -0.198001,-0.069 -0.198,-0.207 -10e-7,-0.084 0.137999,-0.639 0.414,-1.665 0.036,-0.126 0.093,-0.189 0.171,-0.189 0.024,0 0.063,0 0.117,0.01 0.06,0.01 0.104998,0.01 0.135,0.01 0.066,0 0.116998,0.06 0.153,0.18 0.287998,1.026 0.431998,1.578 0.432,1.656 -2e-6,0.132 -0.066,0.198 -0.198,0.198 m -0.513,-1.368 c -0.018,0.072 -0.036,0.141 -0.054,0.207 -0.012,0.066 -0.048,0.135 -0.108,0.207 l 0,0.027 c 0.048,0.03 0.084,0.045 0.108,0.045 0.018,0 0.078,-0.021 0.18,-0.063 -0.036,-0.042 -0.063,-0.105 -0.081,-0.189 -0.018,-0.084 -0.033,-0.162 -0.045,-0.234"
         style=""
         id="path3726" />
      <path
         d="m 22.054593,1044.7182 c -3e-6,0.084 -0.045,0.126 -0.135,0.126 l -0.099,0 -0.468,0 c -0.09,0 -0.135002,-0.042 -0.135,-0.126 l 0,-4.761 c -2e-6,-0.312 -0.003,-0.411 -0.009,-0.297 0.012,-0.144 0.06,-0.216 0.144,-0.216 l 0.09,0 c 0.263997,0 0.380997,-0 0.351,-0.01 0.167997,0.012 0.251997,0.057 0.252,0.135 l 0.009,5.148 m -1.476,0 c -2e-6,0.084 -0.045,0.126 -0.135,0.126 -0.168001,0 -0.252001,-0.042 -0.252,-0.126 l -0.009,-1.332 0.009,-3.816 c -1e-6,-0.09 0.084,-0.135 0.252,-0.135 0.084,0 0.125998,0.045 0.126,0.135 l 0.009,5.148 m -1.035,-3.015 -0.009,3.015 c -1e-6,0.084 -0.042,0.126 -0.126,0.126 -0.168,0 -0.252,-0.042 -0.252,-0.126 l -0.009,-5.148 c 0,-0.084 0.087,-0.126 0.261,-0.126 0.09,0 0.134999,0.042 0.135,0.126 -1e-6,0.24 -1e-6,0.597 0,1.071 -1e-6,0.468 -1e-6,0.822 0,1.062 m -0.585,3.015 c 0,0.084 -0.045,0.126 -0.135,0.126 -0.168,0 -0.252,-0.042 -0.252,-0.126 l -0.009,-3.681 c 0,-0.168 0,-0.414 0,-0.738 0.006,-0.348 0.009,-0.591 0.009,-0.729 0,-0.084 0.042,-0.126 0.126,-0.126 0.15,0 0.234,0.036 0.252,0.108 0,0 0,0.117 0,0.351 l 0.009,4.815 m 1.386,2.844 c -0.222001,0 -0.396001,-0.102 -0.522,-0.306 -0.102001,-0.174 -0.153001,-0.378 -0.153,-0.612 -10e-7,-0.762 0.224999,-1.143 0.675,-1.143 0.119998,0 0.236998,0.042 0.351,0.126 0.119998,0.084 0.179998,0.186 0.18,0.306 -2e-6,0.126 -0.063,0.189 -0.189,0.189 -0.078,0 -0.138002,-0.036 -0.18,-0.108 -0.042,-0.078 -0.09,-0.117 -0.144,-0.117 -0.09,0 -0.162001,0.054 -0.216,0.162 -0.054,0.102 -0.081,0.207 -0.081,0.315 -1e-6,0.522 0.099,0.783 0.297,0.783 0.054,0 0.099,-0.036 0.135,-0.108 0.042,-0.078 0.104998,-0.117 0.189,-0.117 0.125998,0 0.188998,0.066 0.189,0.198 -2e-6,0.114 -0.06,0.216 -0.18,0.306 -0.114002,0.084 -0.231002,0.126 -0.351,0.126"
         style=""
         id="path3728" />
      <path
         d="m 25.521,1044.0252 c -4e-6,0.096 0.003,0.198 0.009,0.306 -4e-6,0.114 -4e-6,0.186 0,0.216 -4e-6,0.156 -0.039,0.249 -0.117,0.279 -0.048,0.018 -0.246003,0.027 -0.594,0.027 -0.09,0 -0.135003,-0.045 -0.135,-0.135 l 0.009,-5.148 c -3e-6,-0.078 0.075,-0.123 0.225,-0.135 -0.03,0.01 0.081,0.01 0.333,0.01 l 0.144,0 c 0.084,0 0.125996,0.042 0.126,0.126 l 0,4.455 m -1.035,0.693 c -3e-6,0.084 -0.084,0.126 -0.252,0.126 -0.09,0 -0.135002,-0.042 -0.135,-0.126 l 0.009,-5.148 c -2e-6,-0.084 0.042,-0.126 0.126,-0.126 0.167997,0 0.251997,0.042 0.252,0.126 l 0,5.148 m -0.585,0 c -2e-6,0.084 -0.045,0.126 -0.135,0.126 l -0.063,0 c -0.126002,0 -0.189002,-0.042 -0.189,-0.126 l -0.009,-3.915 c -2e-6,-0.132 0.003,-0.336 0.009,-0.612 -2e-6,-0.276 -2e-6,-0.483 0,-0.621 -2e-6,-0.084 0.042,-0.126 0.126,-0.126 0.173998,0 0.260998,0.042 0.261,0.126 l 0,5.148 m -1.035,-0.765 c -1e-6,0.066 -1e-6,0.192 0,0.378 -0.006,0.168 -0.009,0.297 -0.009,0.387 -1e-6,0.084 -0.042,0.126 -0.126,0.126 -0.168001,0 -0.252001,-0.042 -0.252,-0.126 l 0,-5.148 c -10e-7,-0.084 0.042,-0.126 0.126,-0.126 0.173999,0 0.260999,0.042 0.261,0.126 l 0,4.383 m 0.792,2.313 c 0.036,-0.054 0.084,-0.12 0.144,-0.198 0.365998,-0.372 0.584998,-0.558 0.657,-0.558 0.125997,0 0.188997,0.063 0.189,0.189 -3e-6,0.06 -0.099,0.195 -0.297,0.405 -0.192002,0.204 -0.327002,0.33 -0.405,0.378 0.018,0.036 0.155998,0.174 0.414,0.414 0.233997,0.216 0.350997,0.363 0.351,0.441 -3e-6,0.138 -0.069,0.207 -0.207,0.207 -0.048,0 -0.09,-0.018 -0.126,-0.054 -0.186002,-0.18 -0.420002,-0.426 -0.702,-0.738 0.024,0.054 0.036,0.252 0.036,0.594 -2e-6,0.132 -0.069,0.198 -0.207,0.198 -0.102002,0 -0.165001,-0.048 -0.189,-0.144 -0.006,-0.036 -0.009,-0.126 -0.009,-0.27 l 0,-1.422 c -10e-7,-0.132 0.066,-0.198 0.198,-0.198 0.137998,0 0.206998,0.066 0.207,0.198 -2e-6,0.276 -0.018,0.462 -0.054,0.558"
         style=""
         id="path3730" />
      <path
         d="m 29.437406,1044.3312 c -4e-6,0.042 -4e-6,0.096 0,0.162 0.006,0.072 0.009,0.12 0.009,0.144 -4e-6,0.144 -0.09,0.216 -0.27,0.216 -0.084,0 -0.126003,-0.045 -0.126,-0.135 -3e-6,-0.126 -3e-6,-0.318 0,-0.576 -0.006,-0.258 -0.009,-0.45 -0.009,-0.576 l 0,-3.501 c -3e-6,-0.312 -3e-6,-0.432 0,-0.36 0.006,-0.174 0.051,-0.261 0.135,-0.261 l 0.126,0 c 0.084,0 0.128996,0.096 0.135,0.288 -4e-6,-0.072 -4e-6,0.06 0,0.396 l 0,4.203 m -1.035,0.387 c -3e-6,0.09 -0.045,0.135 -0.135,0.135 l -0.126,-0.01 c -0.084,0 -0.129002,-0.09 -0.135,-0.27 -2e-6,0.072 -2e-6,-0.057 0,-0.387 l 0.009,-4.617 c -2e-6,-0.084 0.084,-0.126 0.252,-0.126 0.084,0 0.125997,0.042 0.126,0.126 l 0.009,5.148 m -1.035,-4.482 0,4.482 c -2e-6,0.084 -0.042,0.126 -0.126,0.126 l -0.09,0 c -0.288001,0 -0.408001,0 -0.36,0.01 -0.174001,-0.012 -0.261001,-0.057 -0.261,-0.135 l 0.009,-4.761 c -1e-6,-0.318 -0.003,-0.417 -0.009,-0.297 0.006,-0.144 0.051,-0.216 0.135,-0.216 0.329999,0 0.515999,0.01 0.558,0.018 0.09,0.018 0.140998,0.081 0.153,0.189 -0.006,-0.042 -0.009,0.153 -0.009,0.585 m -1.026,4.482 c -10e-7,0.084 -0.045,0.126 -0.135,0.126 -0.174,0 -0.261,-0.042 -0.261,-0.126 l 0,-5.148 c 0,-0.084 0.045,-0.126 0.135,-0.126 0.168,0 0.251999,0.042 0.252,0.126 l 0.009,5.148 m 1.863,2.835 c -0.114002,0 -0.186002,-0.078 -0.216,-0.234 -0.042,-0.204 -0.072,-0.318 -0.09,-0.342 l -0.036,0 c -0.036,0.018 -0.075,0.027 -0.117,0.027 -0.024,0 -0.06,-0 -0.108,-0.01 -0.042,-0.012 -0.075,-0.018 -0.099,-0.018 -0.018,0 -0.045,0.01 -0.081,0.027 l 0.009,0.027 c -2e-6,0.108 -0.024,0.216 -0.072,0.324 -0.054,0.138 -0.126001,0.207 -0.216,0.207 -0.132001,0 -0.198001,-0.069 -0.198,-0.207 -10e-7,-0.084 0.137999,-0.639 0.414,-1.665 0.036,-0.126 0.093,-0.189 0.171,-0.189 0.024,0 0.063,0 0.117,0.01 0.06,0.01 0.104998,0.01 0.135,0.01 0.066,0 0.116998,0.06 0.153,0.18 0.287998,1.026 0.431997,1.578 0.432,1.656 -3e-6,0.132 -0.066,0.198 -0.198,0.198 m -0.513,-1.368 c -0.018,0.072 -0.036,0.141 -0.054,0.207 -0.012,0.066 -0.048,0.135 -0.108,0.207 l 0,0.027 c 0.048,0.03 0.084,0.045 0.108,0.045 0.018,0 0.078,-0.021 0.18,-0.063 -0.036,-0.042 -0.063,-0.105 -0.081,-0.189 -0.018,-0.084 -0.033,-0.162 -0.045,-0.234"
         style=""
         id="path3732" />
      <path
         d="m 32.903812,1044.7182 c -3e-6,0.084 -0.042,0.126 -0.126,0.126 l -0.144,0 -0.432,0 c -0.084,0 -0.126002,-0.042 -0.126,-0.126 -2e-6,-0.138 -2e-6,-0.36 0,-0.666 -0.006,-0.258 -0.009,-0.48 -0.009,-0.666 l 0.009,-3.816 c 0.006,-0.09 0.048,-0.135 0.126,-0.135 0.311997,0 0.446997,0 0.405,0 0.197997,0.012 0.296997,0.057 0.297,0.135 l 0,5.148 m -1.035,-1.557 c -2e-6,0.186 -2e-6,0.447 0,0.783 -2e-6,0.408 -2e-6,0.666 0,0.774 -2e-6,0.084 -0.084,0.126 -0.252,0.126 -0.09,0 -0.135002,-0.042 -0.135,-0.126 l 0.009,-5.148 c -2e-6,-0.084 0.042,-0.126 0.126,-0.126 0.149998,0 0.236998,0.036 0.261,0.108 -0.006,0 -0.009,0.117 -0.009,0.351 l 0,3.258 m -1.026,0.963 c -10e-7,0.066 -0.003,0.165 -0.009,0.297 -1e-6,0.132 -1e-6,0.231 0,0.297 -1e-6,0.09 -0.042,0.135 -0.126,0.135 -0.168001,0 -0.252001,-0.045 -0.252,-0.135 l -0.009,-5.148 c -1e-6,-0.09 0.078,-0.135 0.234,-0.135 0.107999,0 0.161999,0.045 0.162,0.135 l 0,4.554 m -0.594,-4.554 0,5.148 c 0,0.084 -0.087,0.126 -0.261,0.126 -0.084,0 -0.126,-0.042 -0.126,-0.126 l 0,-4.374 c 0,-0.084 0,-0.21 0,-0.378 0,-0.174 0,-0.306 0,-0.396 0,-0.084 0.042,-0.126 0.126,-0.126 0.174,0 0.261,0.042 0.261,0.126 m 1.188,7.965 c -0.252001,0 -0.444001,-0.114 -0.576,-0.342 -0.114001,-0.186 -0.171001,-0.411 -0.171,-0.675 -1e-6,-0.276 0.054,-0.504 0.162,-0.684 0.131999,-0.228 0.326999,-0.342 0.585,-0.342 0.137998,0 0.269998,0.03 0.396,0.09 0.155998,0.072 0.233998,0.168 0.234,0.288 -2e-6,0.132 -0.063,0.198 -0.189,0.198 -0.054,0 -0.114002,-0.03 -0.18,-0.09 -0.06,-0.06 -0.138002,-0.09 -0.234,-0.09 -0.246001,0 -0.369001,0.222 -0.369,0.666 -1e-6,0.39 0.122999,0.585 0.369,0.585 0.096,0 0.173998,-0.015 0.234,-0.045 -0.006,0.012 -0.009,-0.045 -0.009,-0.171 -2e-6,-0.018 0.006,-0.042 0.018,-0.072 0.012,-0.036 0.018,-0.06 0.018,-0.072 -2e-6,-0.036 -0.027,-0.054 -0.081,-0.054 -0.018,0 -0.048,0.01 -0.09,0.018 -0.042,0.012 -0.075,0.018 -0.099,0.018 -0.132002,0 -0.198001,-0.063 -0.198,-0.189 -1e-6,-0.138 0.125998,-0.207 0.378,-0.207 0.299998,0 0.449998,0.078 0.45,0.234 l 0,0.576 c -2e-6,0.24 -0.216002,0.36 -0.648,0.36"
         style=""
         id="path3734" />
      <path
         d="m 36.820218,1043.9532 c -3e-6,0.084 -3e-6,0.21 0,0.378 -0.006,0.174 -0.009,0.306 -0.009,0.396 -3e-6,0.084 -0.042,0.126 -0.126,0.126 -0.168003,0 -0.252003,-0.045 -0.252,-0.135 l -0.009,-2.871 c -3e-6,-0.252 0.003,-0.633 0.009,-1.143 -3e-6,-0.504 -3e-6,-0.882 0,-1.134 -3e-6,-0.084 0.084,-0.126 0.252,-0.126 0.09,0 0.134997,0.042 0.135,0.126 l 0,4.383 m -1.035,0.765 c -2e-6,0.084 -0.045,0.126 -0.135,0.126 l -0.567,0 c -0.084,0 -0.126001,-0.042 -0.126,-0.126 l -0.009,-5.148 c -10e-7,-0.084 0.045,-0.126 0.135,-0.126 l 0.567,0 c 0.09,0 0.134998,0.042 0.135,0.126 l 0,5.148 m -1.476,-0.765 c -1e-6,0.084 -1e-6,0.21 0,0.378 -0.006,0.174 -0.009,0.306 -0.009,0.396 -10e-7,0.084 -0.084,0.126 -0.252,0.126 -0.084,0 -0.126,-0.045 -0.126,-0.135 l 0,-5.148 c 0,-0.084 0.084,-0.126 0.252,-0.126 0.09,0 0.134999,0.042 0.135,0.126 l 0,4.383 m -0.585,0 c 0,0.09 -0.003,0.216 -0.009,0.378 0,0.174 0,0.303 0,0.387 0,0.09 -0.084,0.135 -0.252,0.135 -0.084,0 -0.126,-0.045 -0.126,-0.135 0,-0.228 -0.003,-0.567 -0.009,-1.017 0,-0.45 0,-0.789 0,-1.017 l 0,-2.403 c 0,-0.078 0,-0.195 0,-0.351 0.006,-0.162 0.009,-0.282 0.009,-0.36 0,-0.084 0.084,-0.126 0.252,-0.126 0.084,0 0.126,0.042 0.126,0.126 l 0.009,4.383 m 1.116,3.195 c 0.054,-0.018 0.096,-0.027 0.126,-0.027 0.036,0 0.087,0 0.153,0 0.072,0.01 0.125998,0.01 0.162,0.01 0.203998,0 0.299998,0 0.288,0 0.113998,0.018 0.170998,0.081 0.171,0.189 -2e-6,0.138 -0.069,0.207 -0.207,0.207 -0.096,0 -0.240002,0 -0.432,0 -0.192001,-0.01 -0.342001,-0.01 -0.45,-0.01 -0.108001,0 -0.177001,-0.075 -0.207,-0.225 -10e-7,-0.03 -10e-7,-0.156 0,-0.378 l 0,-1.161 c -10e-7,-0.138 0.072,-0.207 0.216,-0.207 0.06,0 0.143999,-0 0.252,-0.01 0.107999,-0.01 0.191999,-0.01 0.252,-0.01 0.209998,0 0.320998,0 0.333,0.01 0.137998,0.018 0.206998,0.084 0.207,0.198 -2e-6,0.132 -0.066,0.198 -0.198,0.198 -0.066,0 -0.168002,-0 -0.306,-0.01 -0.138001,-0.012 -0.240001,-0.018 -0.306,-0.018 -0.024,0 -0.048,0.01 -0.072,0.018 l 0,0 c 0.018,0.036 0.027,0.078 0.027,0.126 -10e-7,0.024 -0.009,0.06 -0.027,0.108 -0.012,0.048 -0.018,0.084 -0.018,0.108 -10e-7,0.048 0.015,0.072 0.045,0.072 -10e-7,0 0.021,-0.01 0.063,-0.018 0.048,-0.018 0.084,-0.027 0.108,-0.027 0.245998,0 0.365998,0 0.36,0 0.155998,0.024 0.233998,0.09 0.234,0.198 -2e-6,0.144 -0.066,0.213 -0.198,0.207 l -0.243,0 c -0.03,0 -0.075,-0.01 -0.135,-0.018 -0.054,-0.018 -0.096,-0.027 -0.126,-0.027 -0.024,0 -0.054,0.012 -0.09,0.036 l -0.018,0.027 c 0.036,0.084 0.054,0.144 0.054,0.18 -10e-7,0.024 -0.009,0.057 -0.027,0.099 -0.012,0.042 -0.018,0.075 -0.018,0.099 -10e-7,0.018 0.009,0.036 0.027,0.054"
         style=""
         id="path3736" />
    </g>
    <g
       style="font-size:9px;font-style:normal;font-variant:normal;font-weight:normal;font-stretch:normal;fill:#785a0a;fill-opacity:1;stroke:none;font-family:CODE3X;-inkscape-font-specification:CODE3X"
       id="text3685">
      <path
         d="m 14.662781,1044.3182 c -4e-6,0.09 -0.042,0.135 -0.126,0.135 l -0.126,-0.01 c -0.084,0 -0.126003,-0.042 -0.126,-0.126 -3e-6,-0.066 -3e-6,-0.165 0,-0.297 -0.006,-0.126 -0.009,-0.222 -0.009,-0.288 l 0,-4.563 c -3e-6,-0.09 0.045,-0.135 0.135,-0.135 0.167996,0 0.251996,0.045 0.252,0.135 l 0,5.148 m -1.026,-2.277 0,1.89 c -3e-6,0.048 0.003,0.105 0.009,0.171 0.006,0.066 0.009,0.111 0.009,0.135 -3e-6,0.138 -0.093,0.207 -0.279,0.207 -0.084,0 -0.126002,-0.042 -0.126,-0.126 -2e-6,-0.114 -2e-6,-0.279 0,-0.495 -2e-6,-0.222 -2e-6,-0.39 0,-0.504 l -0.009,-3.375 c -2e-6,-0.09 0.003,-0.219 0.009,-0.387 -2e-6,-0.174 -2e-6,-0.303 0,-0.387 -2e-6,-0.084 0.084,-0.126 0.252,-0.126 0.09,0 0.134997,0.042 0.135,0.126 -3e-6,0.078 -3e-6,0.189 0,0.333 -0.006,0.15 -0.009,0.261 -0.009,0.333 -3e-6,0.228 0.003,0.597 0.009,1.107 -3e-6,0.402 -3e-6,0.768 0,1.098 m -1.035,1.656 c -2e-6,0.426 -0.015,0.657 -0.045,0.693 -0.03,0.036 -0.249001,0.054 -0.657,0.054 -0.084,0 -0.126001,-0.042 -0.126,-0.126 l 0,-5.148 c -10e-7,-0.084 0.042,-0.126 0.126,-0.126 l 0.576,0 c 0.084,0 0.125998,0.042 0.126,0.126 l 0,4.527 m -1.035,0.621 c -1e-6,0.084 -0.084,0.126 -0.252,0.126 -0.09,0 -0.135,-0.042 -0.135,-0.126 l 0,-5.148 c 0,-0.084 0.087,-0.126 0.261,-0.126 0.09,0 0.134999,0.042 0.135,0.126 l -0.009,5.148 m 1.044,2.016 c 0.024,0.048 0.036,0.087 0.036,0.117 -2e-6,0.294 -2e-6,0.435 0,0.423 -0.018,0.186 -0.087,0.279 -0.207,0.279 -0.120001,0 -0.180001,-0.066 -0.18,-0.198 -1e-6,-0.174 -0.003,-0.441 -0.009,-0.801 -10e-7,-0.354 -10e-7,-0.621 0,-0.801 -10e-7,-0.126 0.09,-0.198 0.27,-0.216 -0.03,0 0.110998,0 0.423,0 0.197998,0 0.359998,0.054 0.486,0.162 0.131998,0.102 0.197997,0.249 0.198,0.441 -3e-6,0.192 -0.066,0.345 -0.198,0.459 -0.126002,0.108 -0.288002,0.162 -0.486,0.162 -0.03,0 -0.072,-0.01 -0.126,-0.018 -0.054,-0.018 -0.096,-0.027 -0.126,-0.027 -0.018,0 -0.045,0.01 -0.081,0.018 m 0.189,-0.801 c -0.018,0 -0.045,-0.01 -0.081,-0.018 -0.03,-0.012 -0.051,-0.018 -0.063,-0.018 -0.018,0 -0.036,0.021 -0.054,0.063 0.024,0.072 0.036,0.126 0.036,0.162 -2e-6,0.018 -0.006,0.048 -0.018,0.09 -0.006,0.036 -0.009,0.063 -0.009,0.081 -2e-6,0.03 0.009,0.06 0.027,0.09 l 0,0.01 c 0.066,-0.024 0.107998,-0.036 0.126,-0.036 0.161998,0 0.263998,-0 0.306,-0.01 0.119998,-0.03 0.179998,-0.099 0.18,-0.207 -2e-6,-0.138 -0.150002,-0.207 -0.45,-0.207"
         style=""
         id="path3709" />
      <path
         d="m 18.363187,1043.9312 c -3e-6,0.042 -3e-6,0.096 0,0.162 0.006,0.072 0.009,0.12 0.009,0.144 -3e-6,0.144 -0.09,0.216 -0.27,0.216 -0.084,0 -0.126003,-0.045 -0.126,-0.135 -3e-6,-0.126 -3e-6,-0.318 0,-0.576 -0.006,-0.258 -0.009,-0.45 -0.009,-0.576 l 0,-3.501 c -3e-6,-0.312 -3e-6,-0.432 0,-0.36 0.006,-0.174 0.051,-0.261 0.135,-0.261 l 0.126,0 c 0.084,0 0.128997,0.096 0.135,0.288 -3e-6,-0.072 -3e-6,0.06 0,0.396 l 0,4.203 m -1.035,0.387 c -2e-6,0.09 -0.045,0.135 -0.135,0.135 l -0.126,-0.01 c -0.084,0 -0.129002,-0.09 -0.135,-0.27 -2e-6,0.072 -2e-6,-0.057 0,-0.387 l 0.009,-4.617 c -2e-6,-0.084 0.084,-0.126 0.252,-0.126 0.084,0 0.125998,0.042 0.126,0.126 l 0.009,5.148 m -1.035,-4.482 0,4.482 c -1e-6,0.084 -0.042,0.126 -0.126,0.126 l -0.09,0 c -0.288001,0 -0.408001,0 -0.36,0.01 -0.174001,-0.012 -0.261,-0.057 -0.261,-0.135 l 0.009,-4.761 c 0,-0.318 -0.003,-0.417 -0.009,-0.297 0.006,-0.144 0.051,-0.216 0.135,-0.216 0.329999,0 0.515999,0.01 0.558,0.018 0.09,0.018 0.140999,0.081 0.153,0.189 -0.006,-0.042 -0.009,0.153 -0.009,0.585 m -1.026,4.482 c 0,0.084 -0.045,0.126 -0.135,0.126 -0.174,0 -0.261,-0.042 -0.261,-0.126 l 0,-5.148 c 0,-0.084 0.045,-0.126 0.135,-0.126 0.168,0 0.252,0.042 0.252,0.126 l 0.009,5.148 m 1.863,2.835 c -0.114002,0 -0.186002,-0.078 -0.216,-0.234 -0.042,-0.204 -0.072,-0.318 -0.09,-0.342 l -0.036,0 c -0.036,0.018 -0.075,0.027 -0.117,0.027 -0.024,0 -0.06,-0 -0.108,-0.01 -0.042,-0.012 -0.075,-0.018 -0.099,-0.018 -0.018,0 -0.045,0.01 -0.081,0.027 l 0.009,0.027 c -1e-6,0.108 -0.024,0.216 -0.072,0.324 -0.054,0.138 -0.126001,0.207 -0.216,0.207 -0.132001,0 -0.198001,-0.069 -0.198,-0.207 -10e-7,-0.084 0.137999,-0.639 0.414,-1.665 0.036,-0.126 0.093,-0.189 0.171,-0.189 0.024,0 0.063,0 0.117,0.01 0.06,0.01 0.104998,0.01 0.135,0.01 0.066,0 0.116998,0.06 0.153,0.18 0.287998,1.026 0.431998,1.578 0.432,1.656 -2e-6,0.132 -0.066,0.198 -0.198,0.198 m -0.513,-1.368 c -0.018,0.072 -0.036,0.141 -0.054,0.207 -0.012,0.066 -0.048,0.135 -0.108,0.207 l 0,0.027 c 0.048,0.03 0.084,0.045 0.108,0.045 0.018,0 0.078,-0.021 0.18,-0.063 -0.036,-0.042 -0.063,-0.105 -0.081,-0.189 -0.018,-0.084 -0.033,-0.162 -0.045,-0.234"
         style=""
         id="path3711" />
      <path
         d="m 22.054593,1044.3182 c -3e-6,0.084 -0.045,0.126 -0.135,0.126 l -0.099,0 -0.468,0 c -0.09,0 -0.135002,-0.042 -0.135,-0.126 l 0,-4.761 c -2e-6,-0.312 -0.003,-0.411 -0.009,-0.297 0.012,-0.144 0.06,-0.216 0.144,-0.216 l 0.09,0 c 0.263997,0 0.380997,-0 0.351,-0.01 0.167997,0.012 0.251997,0.057 0.252,0.135 l 0.009,5.148 m -1.476,0 c -2e-6,0.084 -0.045,0.126 -0.135,0.126 -0.168001,0 -0.252001,-0.042 -0.252,-0.126 l -0.009,-1.332 0.009,-3.816 c -1e-6,-0.09 0.084,-0.135 0.252,-0.135 0.084,0 0.125998,0.045 0.126,0.135 l 0.009,5.148 m -1.035,-3.015 -0.009,3.015 c -1e-6,0.084 -0.042,0.126 -0.126,0.126 -0.168,0 -0.252,-0.042 -0.252,-0.126 l -0.009,-5.148 c 0,-0.084 0.087,-0.126 0.261,-0.126 0.09,0 0.134999,0.042 0.135,0.126 -1e-6,0.24 -1e-6,0.597 0,1.071 -1e-6,0.468 -1e-6,0.822 0,1.062 m -0.585,3.015 c 0,0.084 -0.045,0.126 -0.135,0.126 -0.168,0 -0.252,-0.042 -0.252,-0.126 l -0.009,-3.681 c 0,-0.168 0,-0.414 0,-0.738 0.006,-0.348 0.009,-0.591 0.009,-0.729 0,-0.084 0.042,-0.126 0.126,-0.126 0.15,0 0.234,0.036 0.252,0.108 0,0 0,0.117 0,0.351 l 0.009,4.815 m 1.386,2.844 c -0.222001,0 -0.396001,-0.102 -0.522,-0.306 -0.102001,-0.174 -0.153001,-0.378 -0.153,-0.612 -10e-7,-0.762 0.224999,-1.143 0.675,-1.143 0.119998,0 0.236998,0.042 0.351,0.126 0.119998,0.084 0.179998,0.186 0.18,0.306 -2e-6,0.126 -0.063,0.189 -0.189,0.189 -0.078,0 -0.138002,-0.036 -0.18,-0.108 -0.042,-0.078 -0.09,-0.117 -0.144,-0.117 -0.09,0 -0.162001,0.054 -0.216,0.162 -0.054,0.102 -0.081,0.207 -0.081,0.315 -1e-6,0.522 0.099,0.783 0.297,0.783 0.054,0 0.099,-0.036 0.135,-0.108 0.042,-0.078 0.104998,-0.117 0.189,-0.117 0.125998,0 0.188998,0.066 0.189,0.198 -2e-6,0.114 -0.06,0.216 -0.18,0.306 -0.114002,0.084 -0.231002,0.126 -0.351,0.126"
         style=""
         id="path3713" />
      <path
         d="m 25.521,1043.6252 c -4e-6,0.096 0.003,0.198 0.009,0.306 -4e-6,0.114 -4e-6,0.186 0,0.216 -4e-6,0.156 -0.039,0.249 -0.117,0.279 -0.048,0.018 -0.246003,0.027 -0.594,0.027 -0.09,0 -0.135003,-0.045 -0.135,-0.135 l 0.009,-5.148 c -3e-6,-0.078 0.075,-0.123 0.225,-0.135 -0.03,0.01 0.081,0.01 0.333,0.01 l 0.144,0 c 0.084,0 0.125996,0.042 0.126,0.126 l 0,4.455 m -1.035,0.693 c -3e-6,0.084 -0.084,0.126 -0.252,0.126 -0.09,0 -0.135002,-0.042 -0.135,-0.126 l 0.009,-5.148 c -2e-6,-0.084 0.042,-0.126 0.126,-0.126 0.167997,0 0.251997,0.042 0.252,0.126 l 0,5.148 m -0.585,0 c -2e-6,0.084 -0.045,0.126 -0.135,0.126 l -0.063,0 c -0.126002,0 -0.189002,-0.042 -0.189,-0.126 l -0.009,-3.915 c -2e-6,-0.132 0.003,-0.336 0.009,-0.612 -2e-6,-0.276 -2e-6,-0.483 0,-0.621 -2e-6,-0.084 0.042,-0.126 0.126,-0.126 0.173998,0 0.260998,0.042 0.261,0.126 l 0,5.148 m -1.035,-0.765 c -1e-6,0.066 -1e-6,0.192 0,0.378 -0.006,0.168 -0.009,0.297 -0.009,0.387 -1e-6,0.084 -0.042,0.126 -0.126,0.126 -0.168001,0 -0.252001,-0.042 -0.252,-0.126 l 0,-5.148 c -10e-7,-0.084 0.042,-0.126 0.126,-0.126 0.173999,0 0.260999,0.042 0.261,0.126 l 0,4.383 m 0.792,2.313 c 0.036,-0.054 0.084,-0.12 0.144,-0.198 0.365998,-0.372 0.584998,-0.558 0.657,-0.558 0.125997,0 0.188997,0.063 0.189,0.189 -3e-6,0.06 -0.099,0.195 -0.297,0.405 -0.192002,0.204 -0.327002,0.33 -0.405,0.378 0.018,0.036 0.155998,0.174 0.414,0.414 0.233997,0.216 0.350997,0.363 0.351,0.441 -3e-6,0.138 -0.069,0.207 -0.207,0.207 -0.048,0 -0.09,-0.018 -0.126,-0.054 -0.186002,-0.18 -0.420002,-0.426 -0.702,-0.738 0.024,0.054 0.036,0.252 0.036,0.594 -2e-6,0.132 -0.069,0.198 -0.207,0.198 -0.102002,0 -0.165001,-0.048 -0.189,-0.144 -0.006,-0.036 -0.009,-0.126 -0.009,-0.27 l 0,-1.422 c -10e-7,-0.132 0.066,-0.198 0.198,-0.198 0.137998,0 0.206998,0.066 0.207,0.198 -2e-6,0.276 -0.018,0.462 -0.054,0.558"
         style=""
         id="path3715" />
      <path
         d="m 29.437406,1043.9312 c -4e-6,0.042 -4e-6,0.096 0,0.162 0.006,0.072 0.009,0.12 0.009,0.144 -4e-6,0.144 -0.09,0.216 -0.27,0.216 -0.084,0 -0.126003,-0.045 -0.126,-0.135 -3e-6,-0.126 -3e-6,-0.318 0,-0.576 -0.006,-0.258 -0.009,-0.45 -0.009,-0.576 l 0,-3.501 c -3e-6,-0.312 -3e-6,-0.432 0,-0.36 0.006,-0.174 0.051,-0.261 0.135,-0.261 l 0.126,0 c 0.084,0 0.128996,0.096 0.135,0.288 -4e-6,-0.072 -4e-6,0.06 0,0.396 l 0,4.203 m -1.035,0.387 c -3e-6,0.09 -0.045,0.135 -0.135,0.135 l -0.126,-0.01 c -0.084,0 -0.129002,-0.09 -0.135,-0.27 -2e-6,0.072 -2e-6,-0.057 0,-0.387 l 0.009,-4.617 c -2e-6,-0.084 0.084,-0.126 0.252,-0.126 0.084,0 0.125997,0.042 0.126,0.126 l 0.009,5.148 m -1.035,-4.482 0,4.482 c -2e-6,0.084 -0.042,0.126 -0.126,0.126 l -0.09,0 c -0.288001,0 -0.408001,0 -0.36,0.01 -0.174001,-0.012 -0.261001,-0.057 -0.261,-0.135 l 0.009,-4.761 c -1e-6,-0.318 -0.003,-0.417 -0.009,-0.297 0.006,-0.144 0.051,-0.216 0.135,-0.216 0.329999,0 0.515999,0.01 0.558,0.018 0.09,0.018 0.140998,0.081 0.153,0.189 -0.006,-0.042 -0.009,0.153 -0.009,0.585 m -1.026,4.482 c -10e-7,0.084 -0.045,0.126 -0.135,0.126 -0.174,0 -0.261,-0.042 -0.261,-0.126 l 0,-5.148 c 0,-0.084 0.045,-0.126 0.135,-0.126 0.168,0 0.251999,0.042 0.252,0.126 l 0.009,5.148 m 1.863,2.835 c -0.114002,0 -0.186002,-0.078 -0.216,-0.234 -0.042,-0.204 -0.072,-0.318 -0.09,-0.342 l -0.036,0 c -0.036,0.018 -0.075,0.027 -0.117,0.027 -0.024,0 -0.06,-0 -0.108,-0.01 -0.042,-0.012 -0.075,-0.018 -0.099,-0.018 -0.018,0 -0.045,0.01 -0.081,0.027 l 0.009,0.027 c -2e-6,0.108 -0.024,0.216 -0.072,0.324 -0.054,0.138 -0.126001,0.207 -0.216,0.207 -0.132001,0 -0.198001,-0.069 -0.198,-0.207 -10e-7,-0.084 0.137999,-0.639 0.414,-1.665 0.036,-0.126 0.093,-0.189 0.171,-0.189 0.024,0 0.063,0 0.117,0.01 0.06,0.01 0.104998,0.01 0.135,0.01 0.066,0 0.116998,0.06 0.153,0.18 0.287998,1.026 0.431997,1.578 0.432,1.656 -3e-6,0.132 -0.066,0.198 -0.198,0.198 m -0.513,-1.368 c -0.018,0.072 -0.036,0.141 -0.054,0.207 -0.012,0.066 -0.048,0.135 -0.108,0.207 l 0,0.027 c 0.048,0.03 0.084,0.045 0.108,0.045 0.018,0 0.078,-0.021 0.18,-0.063 -0.036,-0.042 -0.063,-0.105 -0.081,-0.189 -0.018,-0.084 -0.033,-0.162 -0.045,-0.234"
         style=""
         id="path3717" />
      <path
         d="m 32.903812,1044.3182 c -3e-6,0.084 -0.042,0.126 -0.126,0.126 l -0.144,0 -0.432,0 c -0.084,0 -0.126002,-0.042 -0.126,-0.126 -2e-6,-0.138 -2e-6,-0.36 0,-0.666 -0.006,-0.258 -0.009,-0.48 -0.009,-0.666 l 0.009,-3.816 c 0.006,-0.09 0.048,-0.135 0.126,-0.135 0.311997,0 0.446997,0 0.405,0 0.197997,0.012 0.296997,0.057 0.297,0.135 l 0,5.148 m -1.035,-1.557 c -2e-6,0.186 -2e-6,0.447 0,0.783 -2e-6,0.408 -2e-6,0.666 0,0.774 -2e-6,0.084 -0.084,0.126 -0.252,0.126 -0.09,0 -0.135002,-0.042 -0.135,-0.126 l 0.009,-5.148 c -2e-6,-0.084 0.042,-0.126 0.126,-0.126 0.149998,0 0.236998,0.036 0.261,0.108 -0.006,0 -0.009,0.117 -0.009,0.351 l 0,3.258 m -1.026,0.963 c -10e-7,0.066 -0.003,0.165 -0.009,0.297 -1e-6,0.132 -1e-6,0.231 0,0.297 -1e-6,0.09 -0.042,0.135 -0.126,0.135 -0.168001,0 -0.252001,-0.045 -0.252,-0.135 l -0.009,-5.148 c -1e-6,-0.09 0.078,-0.135 0.234,-0.135 0.107999,0 0.161999,0.045 0.162,0.135 l 0,4.554 m -0.594,-4.554 0,5.148 c 0,0.084 -0.087,0.126 -0.261,0.126 -0.084,0 -0.126,-0.042 -0.126,-0.126 l 0,-4.374 c 0,-0.084 0,-0.21 0,-0.378 0,-0.174 0,-0.306 0,-0.396 0,-0.084 0.042,-0.126 0.126,-0.126 0.174,0 0.261,0.042 0.261,0.126 m 1.188,7.965 c -0.252001,0 -0.444001,-0.114 -0.576,-0.342 -0.114001,-0.186 -0.171001,-0.411 -0.171,-0.675 -1e-6,-0.276 0.054,-0.504 0.162,-0.684 0.131999,-0.228 0.326999,-0.342 0.585,-0.342 0.137998,0 0.269998,0.03 0.396,0.09 0.155998,0.072 0.233998,0.168 0.234,0.288 -2e-6,0.132 -0.063,0.198 -0.189,0.198 -0.054,0 -0.114002,-0.03 -0.18,-0.09 -0.06,-0.06 -0.138002,-0.09 -0.234,-0.09 -0.246001,0 -0.369001,0.222 -0.369,0.666 -1e-6,0.39 0.122999,0.585 0.369,0.585 0.096,0 0.173998,-0.015 0.234,-0.045 -0.006,0.012 -0.009,-0.045 -0.009,-0.171 -2e-6,-0.018 0.006,-0.042 0.018,-0.072 0.012,-0.036 0.018,-0.06 0.018,-0.072 -2e-6,-0.036 -0.027,-0.054 -0.081,-0.054 -0.018,0 -0.048,0.01 -0.09,0.018 -0.042,0.012 -0.075,0.018 -0.099,0.018 -0.132002,0 -0.198001,-0.063 -0.198,-0.189 -1e-6,-0.138 0.125998,-0.207 0.378,-0.207 0.299998,0 0.449998,0.078 0.45,0.234 l 0,0.576 c -2e-6,0.24 -0.216002,0.36 -0.648,0.36"
         style=""
         id="path3719" />
      <path
         d="m 36.820218,1043.5532 c -3e-6,0.084 -3e-6,0.21 0,0.378 -0.006,0.174 -0.009,0.306 -0.009,0.396 -3e-6,0.084 -0.042,0.126 -0.126,0.126 -0.168003,0 -0.252003,-0.045 -0.252,-0.135 l -0.009,-2.871 c -3e-6,-0.252 0.003,-0.633 0.009,-1.143 -3e-6,-0.504 -3e-6,-0.882 0,-1.134 -3e-6,-0.084 0.084,-0.126 0.252,-0.126 0.09,0 0.134997,0.042 0.135,0.126 l 0,4.383 m -1.035,0.765 c -2e-6,0.084 -0.045,0.126 -0.135,0.126 l -0.567,0 c -0.084,0 -0.126001,-0.042 -0.126,-0.126 l -0.009,-5.148 c -10e-7,-0.084 0.045,-0.126 0.135,-0.126 l 0.567,0 c 0.09,0 0.134998,0.042 0.135,0.126 l 0,5.148 m -1.476,-0.765 c -1e-6,0.084 -1e-6,0.21 0,0.378 -0.006,0.174 -0.009,0.306 -0.009,0.396 -10e-7,0.084 -0.084,0.126 -0.252,0.126 -0.084,0 -0.126,-0.045 -0.126,-0.135 l 0,-5.148 c 0,-0.084 0.084,-0.126 0.252,-0.126 0.09,0 0.134999,0.042 0.135,0.126 l 0,4.383 m -0.585,0 c 0,0.09 -0.003,0.216 -0.009,0.378 0,0.174 0,0.303 0,0.387 0,0.09 -0.084,0.135 -0.252,0.135 -0.084,0 -0.126,-0.045 -0.126,-0.135 0,-0.228 -0.003,-0.567 -0.009,-1.017 0,-0.45 0,-0.789 0,-1.017 l 0,-2.403 c 0,-0.078 0,-0.195 0,-0.351 0.006,-0.162 0.009,-0.282 0.009,-0.36 0,-0.084 0.084,-0.126 0.252,-0.126 0.084,0 0.126,0.042 0.126,0.126 l 0.009,4.383 m 1.116,3.195 c 0.054,-0.018 0.096,-0.027 0.126,-0.027 0.036,0 0.087,0 0.153,0 0.072,0.01 0.125998,0.01 0.162,0.01 0.203998,0 0.299998,0 0.288,0 0.113998,0.018 0.170998,0.081 0.171,0.189 -2e-6,0.138 -0.069,0.207 -0.207,0.207 -0.096,0 -0.240002,0 -0.432,0 -0.192001,-0.01 -0.342001,-0.01 -0.45,-0.01 -0.108001,0 -0.177001,-0.075 -0.207,-0.225 -10e-7,-0.03 -10e-7,-0.156 0,-0.378 l 0,-1.161 c -10e-7,-0.138 0.072,-0.207 0.216,-0.207 0.06,0 0.143999,-0 0.252,-0.01 0.107999,-0.01 0.191999,-0.01 0.252,-0.01 0.209998,0 0.320998,0 0.333,0.01 0.137998,0.018 0.206998,0.084 0.207,0.198 -2e-6,0.132 -0.066,0.198 -0.198,0.198 -0.066,0 -0.168002,-0 -0.306,-0.01 -0.138001,-0.012 -0.240001,-0.018 -0.306,-0.018 -0.024,0 -0.048,0.01 -0.072,0.018 l 0,0 c 0.018,0.036 0.027,0.078 0.027,0.126 -10e-7,0.024 -0.009,0.06 -0.027,0.108 -0.012,0.048 -0.018,0.084 -0.018,0.108 -10e-7,0.048 0.015,0.072 0.045,0.072 -10e-7,0 0.021,-0.01 0.063,-0.018 0.048,-0.018 0.084,-0.027 0.108,-0.027 0.245998,0 0.365998,0 0.36,0 0.155998,0.024 0.233998,0.09 0.234,0.198 -2e-6,0.144 -0.066,0.213 -0.198,0.207 l -0.243,0 c -0.03,0 -0.075,-0.01 -0.135,-0.018 -0.054,-0.018 -0.096,-0.027 -0.126,-0.027 -0.024,0 -0.054,0.012 -0.09,0.036 l -0.018,0.027 c 0.036,0.084 0.054,0.144 0.054,0.18 -10e-7,0.024 -0.009,0.057 -0.027,0.099 -0.012,0.042 -0.018,0.075 -0.018,0.099 -10e-7,0.018 0.009,0.036 0.027,0.054"
         style=""
         id="path3721" />
    </g>
    <g
       style="font-size:9px;font-style:normal;font-variant:normal;font-weight:normal;font-stretch:normal;fill:#a08232;fill-opacity:1;stroke:none;font-family:CODE3X;-inkscape-font-specification:CODE3X"
       id="text2903">
      <path
         d="m 14.662781,1044.5182 c -4e-6,0.09 -0.042,0.135 -0.126,0.135 l -0.126,-0.01 c -0.084,0 -0.126003,-0.042 -0.126,-0.126 -3e-6,-0.066 -3e-6,-0.165 0,-0.297 -0.006,-0.126 -0.009,-0.222 -0.009,-0.288 l 0,-4.563 c -3e-6,-0.09 0.045,-0.135 0.135,-0.135 0.167996,0 0.251996,0.045 0.252,0.135 l 0,5.148 m -1.026,-2.277 0,1.89 c -3e-6,0.048 0.003,0.105 0.009,0.171 0.006,0.066 0.009,0.111 0.009,0.135 -3e-6,0.138 -0.093,0.207 -0.279,0.207 -0.084,0 -0.126002,-0.042 -0.126,-0.126 -2e-6,-0.114 -2e-6,-0.279 0,-0.495 -2e-6,-0.222 -2e-6,-0.39 0,-0.504 l -0.009,-3.375 c -2e-6,-0.09 0.003,-0.219 0.009,-0.387 -2e-6,-0.174 -2e-6,-0.303 0,-0.387 -2e-6,-0.084 0.084,-0.126 0.252,-0.126 0.09,0 0.134997,0.042 0.135,0.126 -3e-6,0.078 -3e-6,0.189 0,0.333 -0.006,0.15 -0.009,0.261 -0.009,0.333 -3e-6,0.228 0.003,0.597 0.009,1.107 -3e-6,0.402 -3e-6,0.768 0,1.098 m -1.035,1.656 c -2e-6,0.426 -0.015,0.657 -0.045,0.693 -0.03,0.036 -0.249001,0.054 -0.657,0.054 -0.084,0 -0.126001,-0.042 -0.126,-0.126 l 0,-5.148 c -10e-7,-0.084 0.042,-0.126 0.126,-0.126 l 0.576,0 c 0.084,0 0.125998,0.042 0.126,0.126 l 0,4.527 m -1.035,0.621 c -1e-6,0.084 -0.084,0.126 -0.252,0.126 -0.09,0 -0.135,-0.042 -0.135,-0.126 l 0,-5.148 c 0,-0.084 0.087,-0.126 0.261,-0.126 0.09,0 0.134999,0.042 0.135,0.126 l -0.009,5.148 m 1.044,2.016 c 0.024,0.048 0.036,0.087 0.036,0.117 -2e-6,0.294 -2e-6,0.435 0,0.423 -0.018,0.186 -0.087,0.279 -0.207,0.279 -0.120001,0 -0.180001,-0.066 -0.18,-0.198 -1e-6,-0.174 -0.003,-0.441 -0.009,-0.801 -10e-7,-0.354 -10e-7,-0.621 0,-0.801 -10e-7,-0.126 0.09,-0.198 0.27,-0.216 -0.03,0 0.110998,0 0.423,0 0.197998,0 0.359998,0.054 0.486,0.162 0.131998,0.102 0.197997,0.249 0.198,0.441 -3e-6,0.192 -0.066,0.345 -0.198,0.459 -0.126002,0.108 -0.288002,0.162 -0.486,0.162 -0.03,0 -0.072,-0.01 -0.126,-0.018 -0.054,-0.018 -0.096,-0.027 -0.126,-0.027 -0.018,0 -0.045,0.01 -0.081,0.018 m 0.189,-0.801 c -0.018,0 -0.045,-0.01 -0.081,-0.018 -0.03,-0.012 -0.051,-0.018 -0.063,-0.018 -0.018,0 -0.036,0.021 -0.054,0.063 0.024,0.072 0.036,0.126 0.036,0.162 -2e-6,0.018 -0.006,0.048 -0.018,0.09 -0.006,0.036 -0.009,0.063 -0.009,0.081 -2e-6,0.03 0.009,0.06 0.027,0.09 l 0,0.01 c 0.066,-0.024 0.107998,-0.036 0.126,-0.036 0.161998,0 0.263998,-0 0.306,-0.01 0.119998,-0.03 0.179998,-0.099 0.18,-0.207 -2e-6,-0.138 -0.150002,-0.207 -0.45,-0.207"
         style=""
         id="path3694" />
      <path
         d="m 18.363187,1044.1312 c -3e-6,0.042 -3e-6,0.096 0,0.162 0.006,0.072 0.009,0.12 0.009,0.144 -3e-6,0.144 -0.09,0.216 -0.27,0.216 -0.084,0 -0.126003,-0.045 -0.126,-0.135 -3e-6,-0.126 -3e-6,-0.318 0,-0.576 -0.006,-0.258 -0.009,-0.45 -0.009,-0.576 l 0,-3.501 c -3e-6,-0.312 -3e-6,-0.432 0,-0.36 0.006,-0.174 0.051,-0.261 0.135,-0.261 l 0.126,0 c 0.084,0 0.128997,0.096 0.135,0.288 -3e-6,-0.072 -3e-6,0.06 0,0.396 l 0,4.203 m -1.035,0.387 c -2e-6,0.09 -0.045,0.135 -0.135,0.135 l -0.126,-0.01 c -0.084,0 -0.129002,-0.09 -0.135,-0.27 -2e-6,0.072 -2e-6,-0.057 0,-0.387 l 0.009,-4.617 c -2e-6,-0.084 0.084,-0.126 0.252,-0.126 0.084,0 0.125998,0.042 0.126,0.126 l 0.009,5.148 m -1.035,-4.482 0,4.482 c -1e-6,0.084 -0.042,0.126 -0.126,0.126 l -0.09,0 c -0.288001,0 -0.408001,0 -0.36,0.01 -0.174001,-0.012 -0.261,-0.057 -0.261,-0.135 l 0.009,-4.761 c 0,-0.318 -0.003,-0.417 -0.009,-0.297 0.006,-0.144 0.051,-0.216 0.135,-0.216 0.329999,0 0.515999,0.01 0.558,0.018 0.09,0.018 0.140999,0.081 0.153,0.189 -0.006,-0.042 -0.009,0.153 -0.009,0.585 m -1.026,4.482 c 0,0.084 -0.045,0.126 -0.135,0.126 -0.174,0 -0.261,-0.042 -0.261,-0.126 l 0,-5.148 c 0,-0.084 0.045,-0.126 0.135,-0.126 0.168,0 0.252,0.042 0.252,0.126 l 0.009,5.148 m 1.863,2.835 c -0.114002,0 -0.186002,-0.078 -0.216,-0.234 -0.042,-0.204 -0.072,-0.318 -0.09,-0.342 l -0.036,0 c -0.036,0.018 -0.075,0.027 -0.117,0.027 -0.024,0 -0.06,-0 -0.108,-0.01 -0.042,-0.012 -0.075,-0.018 -0.099,-0.018 -0.018,0 -0.045,0.01 -0.081,0.027 l 0.009,0.027 c -1e-6,0.108 -0.024,0.216 -0.072,0.324 -0.054,0.138 -0.126001,0.207 -0.216,0.207 -0.132001,0 -0.198001,-0.069 -0.198,-0.207 -10e-7,-0.084 0.137999,-0.639 0.414,-1.665 0.036,-0.126 0.093,-0.189 0.171,-0.189 0.024,0 0.063,0 0.117,0.01 0.06,0.01 0.104998,0.01 0.135,0.01 0.066,0 0.116998,0.06 0.153,0.18 0.287998,1.026 0.431998,1.578 0.432,1.656 -2e-6,0.132 -0.066,0.198 -0.198,0.198 m -0.513,-1.368 c -0.018,0.072 -0.036,0.141 -0.054,0.207 -0.012,0.066 -0.048,0.135 -0.108,0.207 l 0,0.027 c 0.048,0.03 0.084,0.045 0.108,0.045 0.018,0 0.078,-0.021 0.18,-0.063 -0.036,-0.042 -0.063,-0.105 -0.081,-0.189 -0.018,-0.084 -0.033,-0.162 -0.045,-0.234"
         style=""
         id="path3696" />
      <path
         d="m 22.054593,1044.5182 c -3e-6,0.084 -0.045,0.126 -0.135,0.126 l -0.099,0 -0.468,0 c -0.09,0 -0.135002,-0.042 -0.135,-0.126 l 0,-4.761 c -2e-6,-0.312 -0.003,-0.411 -0.009,-0.297 0.012,-0.144 0.06,-0.216 0.144,-0.216 l 0.09,0 c 0.263997,0 0.380997,-0 0.351,-0.01 0.167997,0.012 0.251997,0.057 0.252,0.135 l 0.009,5.148 m -1.476,0 c -2e-6,0.084 -0.045,0.126 -0.135,0.126 -0.168001,0 -0.252001,-0.042 -0.252,-0.126 l -0.009,-1.332 0.009,-3.816 c -1e-6,-0.09 0.084,-0.135 0.252,-0.135 0.084,0 0.125998,0.045 0.126,0.135 l 0.009,5.148 m -1.035,-3.015 -0.009,3.015 c -1e-6,0.084 -0.042,0.126 -0.126,0.126 -0.168,0 -0.252,-0.042 -0.252,-0.126 l -0.009,-5.148 c 0,-0.084 0.087,-0.126 0.261,-0.126 0.09,0 0.134999,0.042 0.135,0.126 -1e-6,0.24 -1e-6,0.597 0,1.071 -1e-6,0.468 -1e-6,0.822 0,1.062 m -0.585,3.015 c 0,0.084 -0.045,0.126 -0.135,0.126 -0.168,0 -0.252,-0.042 -0.252,-0.126 l -0.009,-3.681 c 0,-0.168 0,-0.414 0,-0.738 0.006,-0.348 0.009,-0.591 0.009,-0.729 0,-0.084 0.042,-0.126 0.126,-0.126 0.15,0 0.234,0.036 0.252,0.108 0,0 0,0.117 0,0.351 l 0.009,4.815 m 1.386,2.844 c -0.222001,0 -0.396001,-0.102 -0.522,-0.306 -0.102001,-0.174 -0.153001,-0.378 -0.153,-0.612 -10e-7,-0.762 0.224999,-1.143 0.675,-1.143 0.119998,0 0.236998,0.042 0.351,0.126 0.119998,0.084 0.179998,0.186 0.18,0.306 -2e-6,0.126 -0.063,0.189 -0.189,0.189 -0.078,0 -0.138002,-0.036 -0.18,-0.108 -0.042,-0.078 -0.09,-0.117 -0.144,-0.117 -0.09,0 -0.162001,0.054 -0.216,0.162 -0.054,0.102 -0.081,0.207 -0.081,0.315 -1e-6,0.522 0.099,0.783 0.297,0.783 0.054,0 0.099,-0.036 0.135,-0.108 0.042,-0.078 0.104998,-0.117 0.189,-0.117 0.125998,0 0.188998,0.066 0.189,0.198 -2e-6,0.114 -0.06,0.216 -0.18,0.306 -0.114002,0.084 -0.231002,0.126 -0.351,0.126"
         style=""
         id="path3698" />
      <path
         d="m 25.521,1043.8252 c -4e-6,0.096 0.003,0.198 0.009,0.306 -4e-6,0.114 -4e-6,0.186 0,0.216 -4e-6,0.156 -0.039,0.249 -0.117,0.279 -0.048,0.018 -0.246003,0.027 -0.594,0.027 -0.09,0 -0.135003,-0.045 -0.135,-0.135 l 0.009,-5.148 c -3e-6,-0.078 0.075,-0.123 0.225,-0.135 -0.03,0.01 0.081,0.01 0.333,0.01 l 0.144,0 c 0.084,0 0.125996,0.042 0.126,0.126 l 0,4.455 m -1.035,0.693 c -3e-6,0.084 -0.084,0.126 -0.252,0.126 -0.09,0 -0.135002,-0.042 -0.135,-0.126 l 0.009,-5.148 c -2e-6,-0.084 0.042,-0.126 0.126,-0.126 0.167997,0 0.251997,0.042 0.252,0.126 l 0,5.148 m -0.585,0 c -2e-6,0.084 -0.045,0.126 -0.135,0.126 l -0.063,0 c -0.126002,0 -0.189002,-0.042 -0.189,-0.126 l -0.009,-3.915 c -2e-6,-0.132 0.003,-0.336 0.009,-0.612 -2e-6,-0.276 -2e-6,-0.483 0,-0.621 -2e-6,-0.084 0.042,-0.126 0.126,-0.126 0.173998,0 0.260998,0.042 0.261,0.126 l 0,5.148 m -1.035,-0.765 c -1e-6,0.066 -1e-6,0.192 0,0.378 -0.006,0.168 -0.009,0.297 -0.009,0.387 -1e-6,0.084 -0.042,0.126 -0.126,0.126 -0.168001,0 -0.252001,-0.042 -0.252,-0.126 l 0,-5.148 c -10e-7,-0.084 0.042,-0.126 0.126,-0.126 0.173999,0 0.260999,0.042 0.261,0.126 l 0,4.383 m 0.792,2.313 c 0.036,-0.054 0.084,-0.12 0.144,-0.198 0.365998,-0.372 0.584998,-0.558 0.657,-0.558 0.125997,0 0.188997,0.063 0.189,0.189 -3e-6,0.06 -0.099,0.195 -0.297,0.405 -0.192002,0.204 -0.327002,0.33 -0.405,0.378 0.018,0.036 0.155998,0.174 0.414,0.414 0.233997,0.216 0.350997,0.363 0.351,0.441 -3e-6,0.138 -0.069,0.207 -0.207,0.207 -0.048,0 -0.09,-0.018 -0.126,-0.054 -0.186002,-0.18 -0.420002,-0.426 -0.702,-0.738 0.024,0.054 0.036,0.252 0.036,0.594 -2e-6,0.132 -0.069,0.198 -0.207,0.198 -0.102002,0 -0.165001,-0.048 -0.189,-0.144 -0.006,-0.036 -0.009,-0.126 -0.009,-0.27 l 0,-1.422 c -10e-7,-0.132 0.066,-0.198 0.198,-0.198 0.137998,0 0.206998,0.066 0.207,0.198 -2e-6,0.276 -0.018,0.462 -0.054,0.558"
         style=""
         id="path3700" />
      <path
         d="m 29.437406,1044.1312 c -4e-6,0.042 -4e-6,0.096 0,0.162 0.006,0.072 0.009,0.12 0.009,0.144 -4e-6,0.144 -0.09,0.216 -0.27,0.216 -0.084,0 -0.126003,-0.045 -0.126,-0.135 -3e-6,-0.126 -3e-6,-0.318 0,-0.576 -0.006,-0.258 -0.009,-0.45 -0.009,-0.576 l 0,-3.501 c -3e-6,-0.312 -3e-6,-0.432 0,-0.36 0.006,-0.174 0.051,-0.261 0.135,-0.261 l 0.126,0 c 0.084,0 0.128996,0.096 0.135,0.288 -4e-6,-0.072 -4e-6,0.06 0,0.396 l 0,4.203 m -1.035,0.387 c -3e-6,0.09 -0.045,0.135 -0.135,0.135 l -0.126,-0.01 c -0.084,0 -0.129002,-0.09 -0.135,-0.27 -2e-6,0.072 -2e-6,-0.057 0,-0.387 l 0.009,-4.617 c -2e-6,-0.084 0.084,-0.126 0.252,-0.126 0.084,0 0.125997,0.042 0.126,0.126 l 0.009,5.148 m -1.035,-4.482 0,4.482 c -2e-6,0.084 -0.042,0.126 -0.126,0.126 l -0.09,0 c -0.288001,0 -0.408001,0 -0.36,0.01 -0.174001,-0.012 -0.261001,-0.057 -0.261,-0.135 l 0.009,-4.761 c -1e-6,-0.318 -0.003,-0.417 -0.009,-0.297 0.006,-0.144 0.051,-0.216 0.135,-0.216 0.329999,0 0.515999,0.01 0.558,0.018 0.09,0.018 0.140998,0.081 0.153,0.189 -0.006,-0.042 -0.009,0.153 -0.009,0.585 m -1.026,4.482 c -10e-7,0.084 -0.045,0.126 -0.135,0.126 -0.174,0 -0.261,-0.042 -0.261,-0.126 l 0,-5.148 c 0,-0.084 0.045,-0.126 0.135,-0.126 0.168,0 0.251999,0.042 0.252,0.126 l 0.009,5.148 m 1.863,2.835 c -0.114002,0 -0.186002,-0.078 -0.216,-0.234 -0.042,-0.204 -0.072,-0.318 -0.09,-0.342 l -0.036,0 c -0.036,0.018 -0.075,0.027 -0.117,0.027 -0.024,0 -0.06,-0 -0.108,-0.01 -0.042,-0.012 -0.075,-0.018 -0.099,-0.018 -0.018,0 -0.045,0.01 -0.081,0.027 l 0.009,0.027 c -2e-6,0.108 -0.024,0.216 -0.072,0.324 -0.054,0.138 -0.126001,0.207 -0.216,0.207 -0.132001,0 -0.198001,-0.069 -0.198,-0.207 -10e-7,-0.084 0.137999,-0.639 0.414,-1.665 0.036,-0.126 0.093,-0.189 0.171,-0.189 0.024,0 0.063,0 0.117,0.01 0.06,0.01 0.104998,0.01 0.135,0.01 0.066,0 0.116998,0.06 0.153,0.18 0.287998,1.026 0.431997,1.578 0.432,1.656 -3e-6,0.132 -0.066,0.198 -0.198,0.198 m -0.513,-1.368 c -0.018,0.072 -0.036,0.141 -0.054,0.207 -0.012,0.066 -0.048,0.135 -0.108,0.207 l 0,0.027 c 0.048,0.03 0.084,0.045 0.108,0.045 0.018,0 0.078,-0.021 0.18,-0.063 -0.036,-0.042 -0.063,-0.105 -0.081,-0.189 -0.018,-0.084 -0.033,-0.162 -0.045,-0.234"
         style=""
         id="path3702" />
      <path
         d="m 32.903812,1044.5182 c -3e-6,0.084 -0.042,0.126 -0.126,0.126 l -0.144,0 -0.432,0 c -0.084,0 -0.126002,-0.042 -0.126,-0.126 -2e-6,-0.138 -2e-6,-0.36 0,-0.666 -0.006,-0.258 -0.009,-0.48 -0.009,-0.666 l 0.009,-3.816 c 0.006,-0.09 0.048,-0.135 0.126,-0.135 0.311997,0 0.446997,0 0.405,0 0.197997,0.012 0.296997,0.057 0.297,0.135 l 0,5.148 m -1.035,-1.557 c -2e-6,0.186 -2e-6,0.447 0,0.783 -2e-6,0.408 -2e-6,0.666 0,0.774 -2e-6,0.084 -0.084,0.126 -0.252,0.126 -0.09,0 -0.135002,-0.042 -0.135,-0.126 l 0.009,-5.148 c -2e-6,-0.084 0.042,-0.126 0.126,-0.126 0.149998,0 0.236998,0.036 0.261,0.108 -0.006,0 -0.009,0.117 -0.009,0.351 l 0,3.258 m -1.026,0.963 c -10e-7,0.066 -0.003,0.165 -0.009,0.297 -1e-6,0.132 -1e-6,0.231 0,0.297 -1e-6,0.09 -0.042,0.135 -0.126,0.135 -0.168001,0 -0.252001,-0.045 -0.252,-0.135 l -0.009,-5.148 c -1e-6,-0.09 0.078,-0.135 0.234,-0.135 0.107999,0 0.161999,0.045 0.162,0.135 l 0,4.554 m -0.594,-4.554 0,5.148 c 0,0.084 -0.087,0.126 -0.261,0.126 -0.084,0 -0.126,-0.042 -0.126,-0.126 l 0,-4.374 c 0,-0.084 0,-0.21 0,-0.378 0,-0.174 0,-0.306 0,-0.396 0,-0.084 0.042,-0.126 0.126,-0.126 0.174,0 0.261,0.042 0.261,0.126 m 1.188,7.965 c -0.252001,0 -0.444001,-0.114 -0.576,-0.342 -0.114001,-0.186 -0.171001,-0.411 -0.171,-0.675 -1e-6,-0.276 0.054,-0.504 0.162,-0.684 0.131999,-0.228 0.326999,-0.342 0.585,-0.342 0.137998,0 0.269998,0.03 0.396,0.09 0.155998,0.072 0.233998,0.168 0.234,0.288 -2e-6,0.132 -0.063,0.198 -0.189,0.198 -0.054,0 -0.114002,-0.03 -0.18,-0.09 -0.06,-0.06 -0.138002,-0.09 -0.234,-0.09 -0.246001,0 -0.369001,0.222 -0.369,0.666 -1e-6,0.39 0.122999,0.585 0.369,0.585 0.096,0 0.173998,-0.015 0.234,-0.045 -0.006,0.012 -0.009,-0.045 -0.009,-0.171 -2e-6,-0.018 0.006,-0.042 0.018,-0.072 0.012,-0.036 0.018,-0.06 0.018,-0.072 -2e-6,-0.036 -0.027,-0.054 -0.081,-0.054 -0.018,0 -0.048,0.01 -0.09,0.018 -0.042,0.012 -0.075,0.018 -0.099,0.018 -0.132002,0 -0.198001,-0.063 -0.198,-0.189 -1e-6,-0.138 0.125998,-0.207 0.378,-0.207 0.299998,0 0.449998,0.078 0.45,0.234 l 0,0.576 c -2e-6,0.24 -0.216002,0.36 -0.648,0.36"
         style=""
         id="path3704" />
      <path
         d="m 36.820218,1043.7532 c -3e-6,0.084 -3e-6,0.21 0,0.378 -0.006,0.174 -0.009,0.306 -0.009,0.396 -3e-6,0.084 -0.042,0.126 -0.126,0.126 -0.168003,0 -0.252003,-0.045 -0.252,-0.135 l -0.009,-2.871 c -3e-6,-0.252 0.003,-0.633 0.009,-1.143 -3e-6,-0.504 -3e-6,-0.882 0,-1.134 -3e-6,-0.084 0.084,-0.126 0.252,-0.126 0.09,0 0.134997,0.042 0.135,0.126 l 0,4.383 m -1.035,0.765 c -2e-6,0.084 -0.045,0.126 -0.135,0.126 l -0.567,0 c -0.084,0 -0.126001,-0.042 -0.126,-0.126 l -0.009,-5.148 c -10e-7,-0.084 0.045,-0.126 0.135,-0.126 l 0.567,0 c 0.09,0 0.134998,0.042 0.135,0.126 l 0,5.148 m -1.476,-0.765 c -1e-6,0.084 -1e-6,0.21 0,0.378 -0.006,0.174 -0.009,0.306 -0.009,0.396 -10e-7,0.084 -0.084,0.126 -0.252,0.126 -0.084,0 -0.126,-0.045 -0.126,-0.135 l 0,-5.148 c 0,-0.084 0.084,-0.126 0.252,-0.126 0.09,0 0.134999,0.042 0.135,0.126 l 0,4.383 m -0.585,0 c 0,0.09 -0.003,0.216 -0.009,0.378 0,0.174 0,0.303 0,0.387 0,0.09 -0.084,0.135 -0.252,0.135 -0.084,0 -0.126,-0.045 -0.126,-0.135 0,-0.228 -0.003,-0.567 -0.009,-1.017 0,-0.45 0,-0.789 0,-1.017 l 0,-2.403 c 0,-0.078 0,-0.195 0,-0.351 0.006,-0.162 0.009,-0.282 0.009,-0.36 0,-0.084 0.084,-0.126 0.252,-0.126 0.084,0 0.126,0.042 0.126,0.126 l 0.009,4.383 m 1.116,3.195 c 0.054,-0.018 0.096,-0.027 0.126,-0.027 0.036,0 0.087,0 0.153,0 0.072,0.01 0.125998,0.01 0.162,0.01 0.203998,0 0.299998,0 0.288,0 0.113998,0.018 0.170998,0.081 0.171,0.189 -2e-6,0.138 -0.069,0.207 -0.207,0.207 -0.096,0 -0.240002,0 -0.432,0 -0.192001,-0.01 -0.342001,-0.01 -0.45,-0.01 -0.108001,0 -0.177001,-0.075 -0.207,-0.225 -10e-7,-0.03 -10e-7,-0.156 0,-0.378 l 0,-1.161 c -10e-7,-0.138 0.072,-0.207 0.216,-0.207 0.06,0 0.143999,-0 0.252,-0.01 0.107999,-0.01 0.191999,-0.01 0.252,-0.01 0.209998,0 0.320998,0 0.333,0.01 0.137998,0.018 0.206998,0.084 0.207,0.198 -2e-6,0.132 -0.066,0.198 -0.198,0.198 -0.066,0 -0.168002,-0 -0.306,-0.01 -0.138001,-0.012 -0.240001,-0.018 -0.306,-0.018 -0.024,0 -0.048,0.01 -0.072,0.018 l 0,0 c 0.018,0.036 0.027,0.078 0.027,0.126 -10e-7,0.024 -0.009,0.06 -0.027,0.108 -0.012,0.048 -0.018,0.084 -0.018,0.108 -10e-7,0.048 0.015,0.072 0.045,0.072 -10e-7,0 0.021,-0.01 0.063,-0.018 0.048,-0.018 0.084,-0.027 0.108,-0.027 0.245998,0 0.365998,0 0.36,0 0.155998,0.024 0.233998,0.09 0.234,0.198 -2e-6,0.144 -0.066,0.213 -0.198,0.207 l -0.243,0 c -0.03,0 -0.075,-0.01 -0.135,-0.018 -0.054,-0.018 -0.096,-0.027 -0.126,-0.027 -0.024,0 -0.054,0.012 -0.09,0.036 l -0.018,0.027 c 0.036,0.084 0.054,0.144 0.054,0.18 -10e-7,0.024 -0.009,0.057 -0.027,0.099 -0.012,0.042 -0.018,0.075 -0.018,0.099 -10e-7,0.018 0.009,0.036 0.027,0.054"
         style=""
         id="path3706" />
    </g>
    <rect
       transform="matrix(0.99999976,-6.8918421e-4,6.8918421e-4,0.99999976,0,0)"
       y="1021.9144"
       x="7.4474621"
       height="13.139982"
       width="31.05814"
       id="rect3032"
       style="fill:#6e5000;fill-opacity:1;stroke:none" />
    <rect
       style="fill:url(#linearGradient3725);fill-opacity:1;stroke:none"
       id="rect2982"
       width="31.05814"
       height="13.139982"
       x="7.6588879"
       y="1021.7247"
       transform="matrix(0.99999976,-6.8918421e-4,6.8918421e-4,0.99999976,0,0)" />
    <g
       style="font-size:9px;font-style:normal;font-variant:normal;font-weight:bold;font-stretch:normal;fill:#a08232;fill-opacity:1;stroke:none;font-family:Calibri;-inkscape-font-specification:'A.C.M.E. Secret Agent Bold'"
       id="text2941">
      <path
         d="m 19.594391,1030.524 c -4e-6,0.076 -0.0029,0.1407 -0.0088,0.1934 -0.0029,0.05 -0.0088,0.092 -0.01758,0.1274 -0.0059,0.035 -0.01465,0.064 -0.02637,0.088 -0.0088,0.02 -0.03076,0.048 -0.06592,0.083 -0.03516,0.032 -0.09522,0.073 -0.180176,0.1231 -0.08496,0.047 -0.181644,0.089 -0.290039,0.1274 -0.108402,0.038 -0.227054,0.069 -0.355957,0.092 -0.125979,0.023 -0.25635,0.035 -0.391114,0.035 -0.301759,0 -0.569825,-0.047 -0.804199,-0.1407 -0.231446,-0.094 -0.42627,-0.2314 -0.584473,-0.413 -0.158203,-0.1846 -0.27832,-0.4087 -0.360351,-0.6724 -0.0791,-0.2637 -0.118653,-0.5654 -0.118652,-0.9053 -1e-6,-0.3926 0.04834,-0.7309 0.145019,-1.0151 0.09961,-0.2871 0.237304,-0.5244 0.413086,-0.7119 0.17578,-0.1875 0.383788,-0.3267 0.624023,-0.4175 0.240233,-0.091 0.503905,-0.1362 0.791016,-0.1362 0.117185,0 0.231443,0.01 0.342774,0.031 0.114255,0.021 0.219723,0.048 0.316406,0.083 0.09961,0.035 0.187497,0.075 0.263672,0.1187 0.0791,0.044 0.134762,0.082 0.166992,0.1142 0.03222,0.032 0.0542,0.06 0.06592,0.084 0.01464,0.02 0.0249,0.048 0.03076,0.083 0.0088,0.035 0.01464,0.079 0.01758,0.1319 0.0059,0.05 0.0088,0.1113 0.0088,0.1845 -4e-6,0.1699 -0.01465,0.2901 -0.04395,0.3604 -0.0293,0.067 -0.06739,0.1011 -0.114257,0.101 -0.04981,1e-4 -0.102543,-0.02 -0.158204,-0.061 -0.05567,-0.041 -0.121585,-0.086 -0.197753,-0.1362 -0.07617,-0.05 -0.166995,-0.095 -0.272461,-0.1362 -0.105472,-0.041 -0.231448,-0.062 -0.37793,-0.062 -0.287111,0 -0.506838,0.1114 -0.65918,0.334 -0.152345,0.2198 -0.228517,0.5435 -0.228515,0.9712 -2e-6,0.211 0.01904,0.397 0.05713,0.5581 0.03808,0.1612 0.09375,0.2959 0.166992,0.4043 0.07617,0.1084 0.16992,0.1904 0.28125,0.2461 0.114255,0.053 0.246091,0.079 0.395508,0.079 0.152341,0 0.282712,-0.022 0.391113,-0.066 0.111325,-0.047 0.208005,-0.098 0.290039,-0.1538 0.08203,-0.056 0.150876,-0.1055 0.206543,-0.1494 0.05566,-0.047 0.102536,-0.07 0.140625,-0.07 0.02636,0 0.04834,0.01 0.06592,0.022 0.01757,0.015 0.03076,0.043 0.03955,0.084 0.01171,0.038 0.0205,0.088 0.02637,0.1494 0.0059,0.062 0.0088,0.1407 0.0088,0.2373"
         style=""
         id="path4026" />
      <path
         d="m 24.33609,1029.131 c -4e-6,0.3486 -0.03809,0.6636 -0.114258,0.9448 -0.07325,0.2783 -0.181645,0.5156 -0.325195,0.7119 -0.143559,0.1963 -0.322269,0.3472 -0.536133,0.4527 -0.21387,0.1054 -0.458499,0.1582 -0.733887,0.1582 -0.11426,0 -0.219729,-0.012 -0.316406,-0.035 -0.09375,-0.02 -0.186037,-0.053 -0.276855,-0.097 -0.08789,-0.047 -0.175784,-0.104 -0.263672,-0.1714 -0.08789,-0.067 -0.178713,-0.1464 -0.272461,-0.2373 l 0,1.8457 c -2e-6,0.029 -0.0088,0.056 -0.02637,0.079 -0.01758,0.024 -0.04834,0.043 -0.09229,0.057 -0.04102,0.018 -0.09668,0.031 -0.166993,0.04 -0.07031,0.01 -0.159669,0.013 -0.268066,0.013 -0.108399,0 -0.197755,-0 -0.268066,-0.013 -0.07031,-0.01 -0.127443,-0.022 -0.171387,-0.04 -0.04102,-0.015 -0.07031,-0.034 -0.08789,-0.057 -0.01758,-0.023 -0.02637,-0.05 -0.02637,-0.079 l 0,-5.4756 c -10e-7,-0.029 0.0073,-0.054 0.02197,-0.075 0.01465,-0.023 0.03955,-0.042 0.07471,-0.057 0.03808,-0.015 0.08642,-0.025 0.145019,-0.031 0.06152,-0.01 0.137695,-0.013 0.228516,-0.013 0.08789,0 0.161131,0 0.219726,0.013 0.06152,0.01 0.109862,0.016 0.14502,0.031 0.03808,0.015 0.06445,0.034 0.0791,0.057 0.01465,0.021 0.02197,0.046 0.02197,0.075 l 0,0.4615 c 0.114256,-0.1172 0.225584,-0.2197 0.333985,-0.3076 0.111326,-0.091 0.224119,-0.1656 0.338378,-0.2242 0.114256,-0.062 0.231443,-0.1069 0.351563,-0.1362 0.123044,-0.029 0.253415,-0.044 0.391113,-0.044 0.287106,0 0.531735,0.057 0.733887,0.1713 0.202145,0.1114 0.366207,0.2652 0.492187,0.4615 0.128902,0.1963 0.222652,0.4248 0.28125,0.6855 0.05859,0.2608 0.08789,0.5391 0.08789,0.835 m -1.151367,0.079 c -3e-6,-0.167 -0.01319,-0.3267 -0.03955,-0.479 -0.02344,-0.1553 -0.06592,-0.293 -0.127441,-0.4131 -0.0586,-0.1201 -0.137699,-0.2153 -0.237305,-0.2857 -0.09668,-0.073 -0.218264,-0.1098 -0.364746,-0.1098 -0.07325,0 -0.146487,0.012 -0.219727,0.035 -0.07031,0.021 -0.143557,0.056 -0.219726,0.1055 -0.07324,0.05 -0.149416,0.1143 -0.228516,0.1934 -0.0791,0.079 -0.162599,0.1772 -0.250488,0.2944 l 0,1.292 c 0.155272,0.1963 0.303221,0.3486 0.443848,0.457 0.140622,0.1055 0.287107,0.1582 0.439453,0.1582 0.143552,0 0.265134,-0.037 0.364746,-0.1098 0.102536,-0.073 0.186032,-0.1685 0.250488,-0.2857 0.06445,-0.1201 0.111325,-0.2549 0.140625,-0.4043 0.03222,-0.1494 0.04834,-0.2988 0.04834,-0.4482"
         style=""
         id="path4028" />
      <path
         d="m 26.331207,1031.1481 c -10e-7,0.029 -0.0088,0.056 -0.02637,0.079 -0.01758,0.02 -0.04834,0.038 -0.09229,0.053 -0.04102,0.015 -0.09668,0.025 -0.166992,0.031 -0.07031,0.01 -0.159669,0.013 -0.268067,0.013 -0.108399,0 -0.197754,-0 -0.268066,-0.013 -0.07031,-0.01 -0.127442,-0.016 -0.171387,-0.031 -0.04102,-0.015 -0.07031,-0.032 -0.08789,-0.053 -0.01758,-0.024 -0.02637,-0.05 -0.02637,-0.079 l 0,-3.9112 c 0,-0.029 0.0088,-0.054 0.02637,-0.075 0.01758,-0.023 0.04687,-0.042 0.08789,-0.057 0.04395,-0.018 0.101074,-0.031 0.171387,-0.04 0.07031,-0.01 0.159667,-0.013 0.268066,-0.013 0.108398,0 0.197753,0 0.268067,0.013 0.07031,0.01 0.125975,0.022 0.166992,0.04 0.04394,0.015 0.07471,0.034 0.09229,0.057 0.01758,0.021 0.02637,0.045 0.02637,0.075 l 0,3.9112 m 0.0835,-5.2471 c -1e-6,0.2227 -0.04541,0.3765 -0.13623,0.4614 -0.09082,0.085 -0.259279,0.1275 -0.505371,0.1275 -0.249024,0 -0.417481,-0.041 -0.505371,-0.1231 -0.08496,-0.082 -0.127442,-0.23 -0.127442,-0.4438 0,-0.2227 0.04395,-0.3765 0.131836,-0.4615 0.09082,-0.088 0.260742,-0.1318 0.509766,-0.1318 0.246092,0 0.413084,0.043 0.500976,0.1275 0.08789,0.082 0.131835,0.2299 0.131836,0.4438"
         style=""
         id="path4030" />
      <path
         d="m 31.402496,1029.1486 c -4e-6,0.3339 -0.04395,0.6386 -0.131836,0.914 -0.08789,0.2754 -0.221195,0.5127 -0.399902,0.7119 -0.178715,0.1993 -0.402836,0.3531 -0.672363,0.4615 -0.269535,0.1084 -0.584476,0.1626 -0.944824,0.1626 -0.348635,0 -0.651858,-0.048 -0.909668,-0.1451 -0.257814,-0.097 -0.471681,-0.2373 -0.641602,-0.4218 -0.169922,-0.1846 -0.295899,-0.4117 -0.37793,-0.6812 -0.08203,-0.2695 -0.123047,-0.5771 -0.123047,-0.9228 0,-0.334 0.04395,-0.6387 0.131836,-0.9141 0.09082,-0.2783 0.225586,-0.5156 0.404297,-0.7119 0.17871,-0.1992 0.401366,-0.353 0.667969,-0.4614 0.269529,-0.1084 0.584471,-0.1626 0.944824,-0.1626 0.35156,0 0.656247,0.048 0.914063,0.145 0.257809,0.094 0.470211,0.2329 0.637207,0.4175 0.169917,0.1845 0.295894,0.4116 0.377929,0.6811 0.08203,0.2695 0.123043,0.5786 0.123047,0.9273 m -1.138183,0.044 c -4e-6,-0.1934 -0.01612,-0.3706 -0.04834,-0.5317 -0.0293,-0.1641 -0.08057,-0.3062 -0.153809,-0.4263 -0.07325,-0.1201 -0.171389,-0.2139 -0.294433,-0.2813 -0.12012,-0.067 -0.272464,-0.101 -0.457032,-0.101 -0.164064,0 -0.307619,0.031 -0.430664,0.092 -0.123048,0.059 -0.224122,0.1464 -0.303222,0.2636 -0.0791,0.1143 -0.139162,0.2535 -0.180176,0.4175 -0.03809,0.1611 -0.05713,0.3457 -0.05713,0.5537 -10e-7,0.1934 0.01611,0.3721 0.04834,0.5362 0.03222,0.1611 0.08349,0.3017 0.153808,0.4218 0.07324,0.1201 0.171385,0.2139 0.294434,0.2813 0.123045,0.064 0.275388,0.097 0.457031,0.097 0.16699,0 0.312009,-0.029 0.435059,-0.088 0.123044,-0.062 0.224118,-0.1494 0.303223,-0.2637 0.0791,-0.1143 0.137692,-0.252 0.175781,-0.4131 0.03808,-0.1641 0.05712,-0.3501 0.05713,-0.5581"
         style=""
         id="path4032" />
    </g>
  </g>
</svg>
