<?xml version="1.0" encoding="UTF-8" standalone="no"?>
<!-- Created with Inkscape (http://www.inkscape.org/) -->

<svg
   xmlns:dc="http://purl.org/dc/elements/1.1/"
   xmlns:cc="http://creativecommons.org/ns#"
   xmlns:rdf="http://www.w3.org/1999/02/22-rdf-syntax-ns#"
   xmlns:svg="http://www.w3.org/2000/svg"
   xmlns="http://www.w3.org/2000/svg"
   xmlns:xlink="http://www.w3.org/1999/xlink"
   xmlns:sodipodi="http://sodipodi.sourceforge.net/DTD/sodipodi-0.dtd"
   xmlns:inkscape="http://www.inkscape.org/namespaces/inkscape"
   width="48"
   height="48"
   id="svg2"
   version="1.1"
   inkscape:version="0.47pre4 r22446"
   sodipodi:docname="gnome-mime-video-avi.svg"
   inkscape:export-filename="/home/andrea/Documenti/MeliaeSVG/48/mimetypes/png/video.png"
   inkscape:export-xdpi="240"
   inkscape:export-ydpi="240">
  <defs
     id="defs4">
    <linearGradient
       id="linearGradient4203">
      <stop
         style="stop-color:#f0f0f0;stop-opacity:1;"
         offset="0"
         id="stop4205" />
      <stop
         style="stop-color:#ffffff;stop-opacity:1;"
         offset="1"
         id="stop4207" />
    </linearGradient>
    <inkscape:perspective
       sodipodi:type="inkscape:persp3d"
       inkscape:vp_x="0 : 526.18109 : 1"
       inkscape:vp_y="0 : 1000 : 0"
       inkscape:vp_z="744.09448 : 526.18109 : 1"
       inkscape:persp3d-origin="372.04724 : 350.78739 : 1"
       id="perspective10" />
    <linearGradient
       inkscape:collect="always"
       xlink:href="#linearGradient4203"
       id="linearGradient4209"
       x1="31.687183"
       y1="1045.266"
       x2="15.481234"
       y2="1013.3396"
       gradientUnits="userSpaceOnUse" />
    <linearGradient
       inkscape:collect="always"
       xlink:href="#linearGradient4203"
       id="linearGradient3618"
       gradientUnits="userSpaceOnUse"
       x1="31.687183"
       y1="1045.266"
       x2="15.481234"
       y2="1013.3396" />
    <filter
       height="1.204506"
       y="-0.10225299"
       width="1.1809354"
       x="-0.090467703"
       id="filter3676"
       inkscape:collect="always">
      <feGaussianBlur
         id="feGaussianBlur3678"
         stdDeviation="0.20713048"
         inkscape:collect="always" />
    </filter>
    <linearGradient
       y2="1021.3056"
       x2="7.1468058"
       y1="1021.3056"
       x1="4.2133107"
       gradientUnits="userSpaceOnUse"
       id="linearGradient3666"
       xlink:href="#linearGradient4346"
       inkscape:collect="always" />
    <linearGradient
       y2="16.950893"
       x2="5.7142859"
       y1="16.950893"
       x1="4.7767859"
       gradientUnits="userSpaceOnUse"
       id="linearGradient3664"
       xlink:href="#linearGradient4663"
       inkscape:collect="always" />
    <linearGradient
       y2="1021.3056"
       x2="7.1468058"
       y1="1021.3056"
       x1="4.2133107"
       gradientUnits="userSpaceOnUse"
       id="linearGradient3656"
       xlink:href="#linearGradient4346"
       inkscape:collect="always" />
    <linearGradient
       y2="16.950893"
       x2="5.7142859"
       y1="16.950893"
       x1="4.7767859"
       gradientUnits="userSpaceOnUse"
       id="linearGradient3654"
       xlink:href="#linearGradient4663"
       inkscape:collect="always" />
    <linearGradient
       y2="1021.3056"
       x2="7.1468058"
       y1="1021.3056"
       x1="4.2133107"
       gradientUnits="userSpaceOnUse"
       id="linearGradient3646"
       xlink:href="#linearGradient4346"
       inkscape:collect="always" />
    <linearGradient
       y2="16.950893"
       x2="5.7142859"
       y1="16.950893"
       x1="4.7767859"
       gradientUnits="userSpaceOnUse"
       id="linearGradient3644"
       xlink:href="#linearGradient4663"
       inkscape:collect="always" />
    <linearGradient
       gradientTransform="matrix(1,0,0,1.2209709,0,-224.08925)"
       gradientUnits="userSpaceOnUse"
       y2="1022.1122"
       x2="6.8412118"
       y1="1014.1122"
       x1="6.8412118"
       id="linearGradient4655"
       xlink:href="#linearGradient4346"
       inkscape:collect="always" />
    <linearGradient
       y2="1032.8856"
       x2="29.586201"
       y1="1010.6623"
       x1="24.107143"
       gradientTransform="translate(-189.33232,-2017.1366)"
       gradientUnits="userSpaceOnUse"
       id="linearGradient4619"
       xlink:href="#linearGradient4366"
       inkscape:collect="always" />
    <filter
       height="1.6525"
       y="-0.32625002"
       width="1.0660759"
       x="-0.033037974"
       id="filter4568"
       inkscape:collect="always">
      <feGaussianBlur
         id="feGaussianBlur4570"
         stdDeviation="0.5825893"
         inkscape:collect="always" />
    </filter>
    <linearGradient
       y2="1016.1083"
       x2="21.960569"
       y1="1020.1122"
       x1="21.960569"
       gradientTransform="matrix(0.98256626,-0.18591271,-0.18591271,-0.98256626,189.06188,2018.1982)"
       gradientUnits="userSpaceOnUse"
       id="linearGradient4564"
       xlink:href="#linearGradient4358"
       inkscape:collect="always" />
    <linearGradient
       gradientTransform="translate(0,2)"
       gradientUnits="userSpaceOnUse"
       y2="1032.8856"
       x2="29.586201"
       y1="1010.6623"
       x1="24.107143"
       id="linearGradient4372"
       xlink:href="#linearGradient4366"
       inkscape:collect="always" />
    <linearGradient
       gradientTransform="translate(10.925673,12.029785)"
       gradientUnits="userSpaceOnUse"
       y2="1012.0848"
       x2="7.5761442"
       y1="1010.0824"
       x1="7.5761442"
       id="linearGradient4364"
       xlink:href="#linearGradient4358"
       inkscape:collect="always" />
    <radialGradient
       gradientUnits="userSpaceOnUse"
       gradientTransform="matrix(1.6412741e-7,2.2781844,-2.3775704,1.9026356e-7,2414.937,992.11196)"
       r="19.910715"
       fy="1011.6878"
       fx="9.5535698"
       cy="1011.6878"
       cx="9.5535698"
       id="radialGradient4352"
       xlink:href="#linearGradient4346"
       inkscape:collect="always" />
    <inkscape:perspective
       id="perspective3060"
       inkscape:persp3d-origin="372.04724 : 350.78739 : 1"
       inkscape:vp_z="744.09448 : 526.18109 : 1"
       inkscape:vp_y="0 : 1000 : 0"
       inkscape:vp_x="0 : 526.18109 : 1"
       sodipodi:type="inkscape:persp3d" />
    <linearGradient
       id="linearGradient4346">
      <stop
         id="stop4348"
         offset="0"
         style="stop-color:#4b4a57;stop-opacity:1;" />
      <stop
         id="stop4350"
         offset="1"
         style="stop-color:#000000;stop-opacity:1;" />
    </linearGradient>
    <linearGradient
       id="linearGradient4358">
      <stop
         id="stop4360"
         offset="0"
         style="stop-color:#000000;stop-opacity:1;" />
      <stop
         id="stop4362"
         offset="1"
         style="stop-color:#000000;stop-opacity:0;" />
    </linearGradient>
    <linearGradient
       id="linearGradient4366">
      <stop
         id="stop4368"
         offset="0"
         style="stop-color:#ffffff;stop-opacity:1;" />
      <stop
         id="stop4370"
         offset="1"
         style="stop-color:#a4c0c6;stop-opacity:1;" />
    </linearGradient>
    <linearGradient
       id="linearGradient4663">
      <stop
         id="stop4665"
         offset="0"
         style="stop-color:#787878;stop-opacity:1;" />
      <stop
         id="stop4667"
         offset="1"
         style="stop-color:#b4b4b4;stop-opacity:1;" />
    </linearGradient>
    <linearGradient
       inkscape:collect="always"
       xlink:href="#linearGradient4663"
       id="linearGradient3035"
       gradientUnits="userSpaceOnUse"
       x1="4.7767859"
       y1="16.950893"
       x2="5.7142859"
       y2="16.950893" />
    <linearGradient
       inkscape:collect="always"
       xlink:href="#linearGradient4346"
       id="linearGradient3037"
       gradientUnits="userSpaceOnUse"
       x1="4.2133107"
       y1="1021.3056"
       x2="7.1468058"
       y2="1021.3056" />
    <linearGradient
       inkscape:collect="always"
       xlink:href="#linearGradient4663"
       id="linearGradient3039"
       gradientUnits="userSpaceOnUse"
       x1="4.7767859"
       y1="16.950893"
       x2="5.7142859"
       y2="16.950893" />
    <linearGradient
       inkscape:collect="always"
       xlink:href="#linearGradient4346"
       id="linearGradient3041"
       gradientUnits="userSpaceOnUse"
       x1="4.2133107"
       y1="1021.3056"
       x2="7.1468058"
       y2="1021.3056" />
    <linearGradient
       inkscape:collect="always"
       xlink:href="#linearGradient4663"
       id="linearGradient3043"
       gradientUnits="userSpaceOnUse"
       x1="4.7767859"
       y1="16.950893"
       x2="5.7142859"
       y2="16.950893" />
    <linearGradient
       inkscape:collect="always"
       xlink:href="#linearGradient4346"
       id="linearGradient3045"
       gradientUnits="userSpaceOnUse"
       x1="4.2133107"
       y1="1021.3056"
       x2="7.1468058"
       y2="1021.3056" />
    <linearGradient
       inkscape:collect="always"
       xlink:href="#linearGradient4346"
       id="linearGradient3102"
       gradientUnits="userSpaceOnUse"
       gradientTransform="matrix(0.47945121,0,0,0.58539598,15.420573,421.24317)"
       x1="6.8412118"
       y1="1014.1122"
       x2="6.8412118"
       y2="1022.1122" />
    <linearGradient
       inkscape:collect="always"
       xlink:href="#linearGradient4366"
       id="linearGradient3118"
       gradientUnits="userSpaceOnUse"
       gradientTransform="matrix(0.47109258,-0.08913607,-0.08913607,-0.47109258,106.02715,1495.8175)"
       x1="24.107143"
       y1="1010.6623"
       x2="29.586201"
       y2="1032.8856" />
    <linearGradient
       inkscape:collect="always"
       xlink:href="#linearGradient4358"
       id="linearGradient3121"
       gradientUnits="userSpaceOnUse"
       gradientTransform="matrix(0.47109258,-0.08913607,-0.08913607,-0.47109258,106.06652,1496.3106)"
       x1="21.960569"
       y1="1020.1122"
       x2="21.960569"
       y2="1016.1083" />
    <linearGradient
       inkscape:collect="always"
       xlink:href="#linearGradient4358"
       id="linearGradient3130"
       gradientUnits="userSpaceOnUse"
       gradientTransform="matrix(0.47945121,0,0,0.47945121,20.6589,534.45072)"
       x1="7.5761442"
       y1="1010.0824"
       x2="7.5761442"
       y2="1012.0848" />
    <linearGradient
       inkscape:collect="always"
       xlink:href="#linearGradient4366"
       id="linearGradient3133"
       gradientUnits="userSpaceOnUse"
       gradientTransform="matrix(0.47945121,0,0,0.47945121,15.420573,529.64193)"
       x1="24.107143"
       y1="1010.6623"
       x2="29.586201"
       y2="1032.8856" />
    <radialGradient
       inkscape:collect="always"
       xlink:href="#linearGradient4346"
       id="radialGradient3136"
       gradientUnits="userSpaceOnUse"
       gradientTransform="matrix(7.8691085e-8,1.0922783,-1.139929,9.1222094e-8,1173.265,1004.3523)"
       cx="9.5535698"
       cy="1011.6878"
       fx="9.5535698"
       fy="1011.6878"
       r="19.910715" />
    <linearGradient
       inkscape:collect="always"
       xlink:href="#linearGradient4346"
       id="linearGradient2992"
       gradientUnits="userSpaceOnUse"
       gradientTransform="matrix(0.47945121,0,0,0.58539598,15.420573,421.24317)"
       x1="6.8412118"
       y1="1014.1122"
       x2="6.8412118"
       y2="1022.1122" />
    <linearGradient
       inkscape:collect="always"
       xlink:href="#linearGradient4366"
       id="linearGradient3008"
       gradientUnits="userSpaceOnUse"
       gradientTransform="matrix(0.47109258,-0.08913607,-0.08913607,-0.47109258,106.02715,1495.8175)"
       x1="24.107143"
       y1="1010.6623"
       x2="29.586201"
       y2="1032.8856" />
    <linearGradient
       inkscape:collect="always"
       xlink:href="#linearGradient4358"
       id="linearGradient3011"
       gradientUnits="userSpaceOnUse"
       gradientTransform="matrix(0.47109258,-0.08913607,-0.08913607,-0.47109258,106.06652,1496.3106)"
       x1="21.960569"
       y1="1020.1122"
       x2="21.960569"
       y2="1016.1083" />
    <linearGradient
       inkscape:collect="always"
       xlink:href="#linearGradient4358"
       id="linearGradient3020"
       gradientUnits="userSpaceOnUse"
       gradientTransform="matrix(0.47945121,0,0,0.47945121,20.6589,534.45072)"
       x1="7.5761442"
       y1="1010.0824"
       x2="7.5761442"
       y2="1012.0848" />
    <linearGradient
       inkscape:collect="always"
       xlink:href="#linearGradient4366"
       id="linearGradient3023"
       gradientUnits="userSpaceOnUse"
       gradientTransform="matrix(0.47945121,0,0,0.47945121,15.420573,529.64193)"
       x1="24.107143"
       y1="1010.6623"
       x2="29.586201"
       y2="1032.8856" />
    <radialGradient
       inkscape:collect="always"
       xlink:href="#linearGradient4346"
       id="radialGradient3027"
       gradientUnits="userSpaceOnUse"
       gradientTransform="matrix(7.8691085e-8,1.0922783,-1.139929,9.1222094e-8,1173.265,1004.3523)"
       cx="9.5535698"
       cy="1011.6878"
       fx="9.5535698"
       fy="1011.6878"
       r="19.910715" />
  </defs>
  <sodipodi:namedview
     id="base"
     pagecolor="#ffffff"
     bordercolor="#666666"
     borderopacity="1.0"
     inkscape:pageopacity="0.0"
     inkscape:pageshadow="2"
     inkscape:zoom="7.919596"
     inkscape:cx="17.602871"
     inkscape:cy="24.107436"
     inkscape:document-units="px"
     inkscape:current-layer="layer1"
     showgrid="false"
     inkscape:window-width="1280"
     inkscape:window-height="712"
     inkscape:window-x="0"
     inkscape:window-y="25"
     inkscape:window-maximized="1" />
  <metadata
     id="metadata7">
    <rdf:RDF>
      <cc:Work
         rdf:about="">
        <dc:format>image/svg+xml</dc:format>
        <dc:type
           rdf:resource="http://purl.org/dc/dcmitype/StillImage" />
        <dc:title />
      </cc:Work>
    </rdf:RDF>
  </metadata>
  <g
     inkscape:label="Livello 1"
     inkscape:groupmode="layer"
     id="layer1"
     transform="translate(0,-1004.3622)">
    <path
       style="fill:#646464;fill-opacity:0.47058824;stroke:none"
       d="M 8.5312501,1006.8622 C 7.9599375,1006.8622 7.5,1007.3188 7.5,1007.886 l 0,40.9524 c 0,0.5672 0.4599375,1.0238 1.0312501,1.0238 l 1.2497499,0 0,-4.5 c 0,-0.5552 0.060129,-1 0.7,-1 l 1.305133,0 c 0.63987,0 0.994867,0.4448 0.994867,1 l 0,4.5 26.68775,0 c 0.571313,0 1.03125,-0.4566 1.03125,-1.0238 l 0,-40.9524 c 0,-0.5672 -0.459937,-1.0238 -1.03125,-1.0238 l -26.68775,0 0,4.531 c 0,0.5552 -0.354997,0.969 -0.994867,0.969 l -1.305133,0 c -0.6398706,0 -0.7,-0.414 -0.7,-0.969 l 0,-4.531 -1.2497499,0 z m 1.9497499,7.5 1.305133,0 c 0.63987,0 0.994867,0.4449 0.994867,1 l 0,6.131 c 0,0.555 -0.354997,0.869 -0.994867,0.869 l -1.305133,0 c -0.6398706,0 -0.7,-0.314 -0.7,-0.869 l 0,-6.131 c 0,-0.5551 0.060129,-1 0.7,-1 z m 0,10 1.305133,0 c 0.63987,0 0.994867,0.445 0.994867,1 l 0,6.031 c 0,0.555 -0.354997,0.969 -0.994867,0.969 l -1.305133,0 c -0.6398706,0 -0.7,-0.414 -0.7,-0.969 l 0,-6.031 c 0,-0.555 0.060129,-1 0.7,-1 z m 0,10 1.305133,0 c 0.63987,0 0.994867,0.4449 0.994867,1 l 0,6.031 c 0,0.5552 -0.354997,0.969 -0.994867,0.969 l -1.305133,0 c -0.6398706,0 -0.7,-0.4138 -0.7,-0.969 l 0,-6.031 c 0,-0.5551 0.060129,-1 0.7,-1 z"
       id="rect4211"
       sodipodi:nodetypes="cccccccccccccccccccccccccccccccccccccccccccccccc" />
    <path
       style="fill:url(#linearGradient3618);fill-opacity:1;stroke:none"
       d="m 9,1007.3622 c -0.554,0 -1,0.446 -1,1 l 0,40 c 0,0.554 0.446,1 1,1 l 0.28125,0 0,-4.5 c 0,-0.5422 0.50452,-1 1.125,-1 l 1.75,0 c 0.62048,0 1.125,0.4578 1.125,1 l 0,4.5 25.71875,0 c 0.554,0 1,-0.446 1,-1 l 0,-40 c 0,-0.554 -0.446,-1 -1,-1 l -25.71875,0 0,4.5313 c 0,0.5421 -0.50452,0.9687 -1.125,0.9687 l -1.75,0 c -0.62048,0 -1.125,-0.4266 -1.125,-0.9687 l 0,-4.5313 -0.28125,0 z m 1.40625,6.5 1.75,0 c 0.62048,0 1.125,0.4578 1.125,1 l 0,7.0313 c 0,0.5421 -0.50452,0.9687 -1.125,0.9687 l -1.75,0 c -0.62048,0 -1.125,-0.4266 -1.125,-0.9687 l 0,-7.0313 c 0,-0.5422 0.50452,-1 1.125,-1 z m 0,10 1.75,0 c 0.62048,0 1.125,0.4578 1.125,1 l 0,7.0313 c 0,0.5422 -0.50452,0.9687 -1.125,0.9687 l -1.75,0 c -0.62048,0 -1.125,-0.4265 -1.125,-0.9687 l 0,-7.0313 c 0,-0.5422 0.50452,-1 1.125,-1 z m 0,10 1.75,0 c 0.62048,0 1.125,0.4578 1.125,1 l 0,7.0313 c 0,0.5422 -0.50452,0.9687 -1.125,0.9687 l -1.75,0 c -0.62048,0 -1.125,-0.4265 -1.125,-0.9687 l 0,-7.0313 c 0,-0.5422 0.50452,-1 1.125,-1 z"
       id="rect3429" />
    <path
       transform="matrix(0.47945121,0,0,0.47945121,15.420573,1009.6263)"
       style="fill:#333333;fill-opacity:0.78431373;stroke:none;filter:url(#filter4568)"
       d="m 45.357143,44.785713 c 0,1.183467 -9.473974,2.142857 -21.160715,2.142857 -11.68674,0 -21.1607148,-0.95939 -21.1607148,-2.142857 0,-1.183467 9.4739748,-2.142857 21.1607148,-2.142857 11.686741,0 21.160715,0.95939 21.160715,2.142857 z"
       id="path4566" />
    <path
       style="fill:url(#radialGradient3027);fill-opacity:1;stroke:none"
       d="m 17.389748,1016.8182 19.178048,0 0,14.3835 -19.178048,0 0,-14.3835 z"
       id="rect3062" />
    <path
       style="font-size:medium;font-style:normal;font-variant:normal;font-weight:normal;font-stretch:normal;text-indent:0;text-align:start;text-decoration:none;line-height:normal;letter-spacing:normal;word-spacing:normal;text-transform:none;direction:ltr;block-progression:tb;writing-mode:lr-tb;text-anchor:start;color:#000000;fill:#4b4a57;fill-opacity:0.78431373;stroke:none;stroke-width:1.0001297;marker:none;visibility:visible;display:inline;overflow:visible;enable-background:accumulate;font-family:'A.C.M.E. Secret Agent';-inkscape-font-specification:'A.C.M.E. Secret Agent'"
       d="m 22.925798,1019.983 c -0.299659,0.019 -0.559707,0.2963 -0.559146,0.5965 l -0.03728,4.6968 0.03728,4.6595 c -0.0036,0.4182 0.532461,0.7308 0.894634,0.5219 l 4.063132,-2.3112 4.025856,-2.3483 c 0.37053,-0.2052 0.37053,-0.8386 0,-1.0438 l -4.025856,-2.3484 -4.063132,-2.3484 c -0.101329,-0.057 -0.219563,-0.083 -0.335488,-0.075 l 0,3e-4 z"
       id="path3139"
       sodipodi:nodetypes="cccccccccccc" />
    <path
       style="fill:url(#linearGradient3023);fill-opacity:1;stroke:none"
       d="m 17.389748,1016.8182 19.178048,0 0,1.9178 -19.178048,0 0,-1.9178 z"
       id="rect4354" />
    <path
       style="fill:url(#linearGradient3020);fill-opacity:1;stroke:none"
       d="m 17.389748,1018.736 19.178048,0 0,0.9589 -19.178048,0 0,-0.9589 z"
       id="rect4356" />
    <path
       style="fill:#000000;fill-opacity:1;stroke:none"
       d="m 26.70483,1016.8181 1.917805,0 -1.369885,1.9179 -1.917805,0 1.369885,-1.9179 z"
       id="rect4374" />
    <path
       style="fill:#000000;fill-opacity:1;stroke:none"
       d="m 31.499342,1016.8181 1.917805,0 -1.369885,1.9179 -1.917804,0 1.369884,-1.9179 z"
       id="rect4395" />
    <path
       style="fill:#000000;fill-opacity:1;stroke:none"
       d="m 36.298105,1016.8182 -1.378422,1.9178 1.648113,0 0,-1.9178 -0.269691,0 z"
       id="rect4397" />
    <path
       style="fill:#000000;fill-opacity:1;stroke:none"
       d="m 21.910318,1016.8181 1.917805,0 -1.369885,1.9179 -1.917805,0 1.369885,-1.9179 z"
       id="rect4399" />
    <path
       style="fill:#000000;fill-opacity:1;stroke:none"
       d="m 17.398309,1016.8182 0,1.9178 0.269692,0 1.363439,-1.9178 -1.633131,0 z"
       id="rect4401" />
    <path
       style="fill:#ffffff;fill-opacity:0.31372549;stroke:none"
       d="m 17.389748,1016.8182 19.178048,0 0,0.4794 -19.178048,0 0,-0.4794 z"
       id="rect4456" />
    <path
       style="fill:url(#linearGradient3011);fill-opacity:1;stroke:none"
       d="m 17.429126,1017.2616 18.843703,-3.5654 -0.356542,-1.8844 -18.843703,3.5655 0.356542,1.8843 z"
       id="rect4544" />
    <path
       style="fill:url(#linearGradient3008);fill-opacity:1;stroke:none"
       d="m 17.389751,1016.7684 18.843703,-3.5654 -0.356543,-1.8844 -18.843704,3.5655 0.356544,1.8843 z"
       id="rect4458" />
    <path
       style="fill:#000000;fill-opacity:1;stroke:none"
       d="m 26.542413,1015.0367 1.884371,-0.3566 -1.702519,-1.6297 -1.88437,0.3566 1.702518,1.6297 z"
       id="rect4460" />
    <path
       style="fill:#000000;fill-opacity:1;stroke:none"
       d="m 31.253339,1014.1453 1.88437,-0.3566 -1.702518,-1.6296 -1.88437,0.3565 1.702518,1.6297 z"
       id="rect4462" />
    <path
       id="path4464"
       d="m 35.968462,1013.2531 -1.710936,-1.6281 1.619381,-0.3064 0.356545,1.8844 -0.26499,0.05 z"
       style="fill:#000000;fill-opacity:1;stroke:none" />
    <path
       style="fill:#000000;fill-opacity:1;stroke:none"
       d="m 21.831487,1015.928 1.884371,-0.3565 -1.702518,-1.6297 -1.884371,0.3565 1.702518,1.6297 z"
       id="rect4466" />
    <path
       id="path4468"
       d="m 17.39816,1016.7669 -0.356544,-1.8844 0.26499,-0.05 1.696213,1.6309 -1.604659,0.3037 z"
       style="fill:#000000;fill-opacity:1;stroke:none" />
    <path
       style="fill:#d1dfe2;fill-opacity:1;stroke:none"
       d="m 17.389748,1020.6127 19.178048,0 0,0.3835 -19.178048,0 0,-0.3835 z"
       id="rect4593" />
    <path
       style="fill:#d1dfe2;fill-opacity:1;stroke:none"
       d="m 17.389748,1025.4072 19.178048,0 0,0.3835 -19.178048,0 0,-0.3835 z"
       id="rect4595" />
    <path
       style="fill:#d1dfe2;fill-opacity:1;stroke:none"
       d="m 17.389748,1028.2839 19.178048,0 0,0.3836 -19.178048,0 0,-0.3836 z"
       id="rect4597" />
    <path
       style="fill:#d1dfe2;fill-opacity:1;stroke:none"
       d="m 17.389748,1029.6455 19.178048,0 0,0.3836 -19.178048,0 0,-0.3836 z"
       id="rect4599" />
    <path
       style="fill:#d1dfe2;fill-opacity:1;stroke:none"
       d="m 23.430832,1025.599 0,-4.8802 0.383561,0 0,4.8802 -0.383561,0 z"
       id="rect4601" />
    <path
       style="fill:#d1dfe2;fill-opacity:1;stroke:none"
       d="m 30.14315,1025.599 0,-4.8802 0.383561,0 0,4.8802 -0.383561,0 z"
       id="rect4603" />
    <path
       style="fill:#d1dfe2;fill-opacity:1;stroke:none"
       d="m 26.786992,1028.5142 0,-2.9538 0.383561,0 0,2.9538 -0.383561,0 z"
       id="rect4611" />
    <path
       id="path3674"
       d="m 4.09375,1019.0184 0,4.8616 2.3844618,0 3.1104622,-4.8616 -5.494924,0 z"
       style="fill:#000000;fill-opacity:0.39215686;stroke:none;filter:url(#filter3676)"
       sodipodi:nodetypes="ccccc"
       transform="matrix(0.47945121,0,0,0.47945121,15.420573,528.68303)" />
    <path
       style="fill:url(#linearGradient2992);fill-opacity:1;stroke:none"
       d="m 17.383326,1014.9004 0,2.3522 0,2.3309 0.813611,0 0.503663,-0.6474 1.317274,-1.6835 -1.317274,-1.7048 -0.503663,-0.6474 -0.813611,0 z"
       id="path4641" />
    <g
       id="g3640"
       transform="matrix(0.46582571,-0.11348954,0.11348954,0.46582571,-100.41653,543.91098)">
      <path
         transform="matrix(1.0666667,0,0,1.0666667,-0.42893783,1003.2246)"
         d="m 5.7142859,16.950893 c 0,0.258884 -0.2098666,0.46875 -0.46875,0.46875 -0.2588835,0 -0.46875,-0.209866 -0.46875,-0.46875 0,-0.258883 0.2098665,-0.46875 0.46875,-0.46875 0.2588834,0 0.46875,0.209867 0.46875,0.46875 z"
         sodipodi:ry="0.46875"
         sodipodi:rx="0.46875"
         sodipodi:cy="16.950893"
         sodipodi:cx="5.2455359"
         id="path4657"
         style="fill:url(#linearGradient3035);fill-opacity:1;stroke:none"
         sodipodi:type="arc" />
      <path
         id="path4671"
         d="m 4.6663006,1021.2306 0,0.15 1,0 0,-0.15 -1,0 z"
         style="font-size:medium;font-style:normal;font-variant:normal;font-weight:normal;font-stretch:normal;text-indent:0;text-align:start;text-decoration:none;line-height:normal;letter-spacing:normal;word-spacing:normal;text-transform:none;direction:ltr;block-progression:tb;writing-mode:lr-tb;text-anchor:start;color:#000000;fill:url(#linearGradient3037);fill-opacity:1;stroke:none;stroke-width:1px;marker:none;visibility:visible;display:inline;overflow:visible;enable-background:accumulate;font-family:'A.C.M.E. Secret Agent';-inkscape-font-specification:'A.C.M.E. Secret Agent'" />
    </g>
    <g
       transform="matrix(-0.44080672,-0.18858126,0.18858126,-0.44080672,-172.42418,1466.5074)"
       id="g3648">
      <path
         sodipodi:type="arc"
         style="fill:url(#linearGradient3039);fill-opacity:1;stroke:none"
         id="path3650"
         sodipodi:cx="5.2455359"
         sodipodi:cy="16.950893"
         sodipodi:rx="0.46875"
         sodipodi:ry="0.46875"
         d="m 5.7142859,16.950893 c 0,0.258884 -0.2098666,0.46875 -0.46875,0.46875 -0.2588835,0 -0.46875,-0.209866 -0.46875,-0.46875 0,-0.258883 0.2098665,-0.46875 0.46875,-0.46875 0.2588834,0 0.46875,0.209867 0.46875,0.46875 z"
         transform="matrix(1.0666667,0,0,1.0666667,-0.42893783,1003.2246)" />
      <path
         style="font-size:medium;font-style:normal;font-variant:normal;font-weight:normal;font-stretch:normal;text-indent:0;text-align:start;text-decoration:none;line-height:normal;letter-spacing:normal;word-spacing:normal;text-transform:none;direction:ltr;block-progression:tb;writing-mode:lr-tb;text-anchor:start;color:#000000;fill:url(#linearGradient3041);fill-opacity:1;stroke:none;stroke-width:1px;marker:none;visibility:visible;display:inline;overflow:visible;enable-background:accumulate;font-family:'A.C.M.E. Secret Agent';-inkscape-font-specification:'A.C.M.E. Secret Agent'"
         d="m 4.6663006,1021.2306 0,0.15 1,0 0,-0.15 -1,0 z"
         id="path3652" />
    </g>
    <g
       id="g3658"
       transform="matrix(-0.15765594,-0.45278921,0.45278921,-0.15765594,-442.13491,1180.5961)">
      <path
         transform="matrix(1.0666667,0,0,1.0666667,-0.42893783,1003.2246)"
         d="m 5.7142859,16.950893 c 0,0.258884 -0.2098666,0.46875 -0.46875,0.46875 -0.2588835,0 -0.46875,-0.209866 -0.46875,-0.46875 0,-0.258883 0.2098665,-0.46875 0.46875,-0.46875 0.2588834,0 0.46875,0.209867 0.46875,0.46875 z"
         sodipodi:ry="0.46875"
         sodipodi:rx="0.46875"
         sodipodi:cy="16.950893"
         sodipodi:cx="5.2455359"
         id="path3660"
         style="fill:url(#linearGradient3043);fill-opacity:1;stroke:none"
         sodipodi:type="arc" />
      <path
         id="path3662"
         d="m 4.6663006,1021.2306 0,0.15 1,0 0,-0.15 -1,0 z"
         style="font-size:medium;font-style:normal;font-variant:normal;font-weight:normal;font-stretch:normal;text-indent:0;text-align:start;text-decoration:none;line-height:normal;letter-spacing:normal;word-spacing:normal;text-transform:none;direction:ltr;block-progression:tb;writing-mode:lr-tb;text-anchor:start;color:#000000;fill:url(#linearGradient3045);fill-opacity:1;stroke:none;stroke-width:1px;marker:none;visibility:visible;display:inline;overflow:visible;enable-background:accumulate;font-family:'A.C.M.E. Secret Agent';-inkscape-font-specification:'A.C.M.E. Secret Agent'" />
    </g>
    <g
       style="font-size:1.5px;font-style:italic;font-variant:normal;font-weight:bold;font-stretch:normal;fill:#d1dfe2;fill-opacity:1;stroke:none;font-family:Calibri;-inkscape-font-specification:'A.C.M.E. Secret Agent Italic'"
       id="text3684"
       transform="matrix(0.47945121,0,0,0.47945121,15.420573,528.68303)">
      <path
         d="m 5.3459473,1027.2577 c -9e-7,0 -4.892e-4,0.01 -0.00146,0.017 -4.891e-4,0.01 -0.00171,0.016 -0.00366,0.025 -0.00147,0.01 -0.00366,0.019 -0.00659,0.029 -0.00244,0.01 -0.00562,0.019 -0.00952,0.027 -0.00342,0.01 -0.00781,0.015 -0.013184,0.02 -0.00488,0.01 -0.010255,0.01 -0.016113,0.01 l -0.2380372,0 -0.1523437,0.7639 c -0.00147,0 -0.00415,0.01 -0.00806,0.013 -0.00391,0 -0.01001,0.01 -0.018311,0.01 -0.00781,0 -0.018067,0 -0.030762,0.01 -0.012207,0 -0.027832,0 -0.046875,0 -0.018555,0 -0.033936,-8e-4 -0.046143,0 -0.012207,0 -0.021729,0 -0.028564,-0.01 -0.00635,0 -0.010742,-0.01 -0.013184,-0.01 -0.00195,0 -0.00244,-0.01 -0.00146,-0.013 l 0.1523438,-0.7639 -0.2358399,0 c -0.00732,0 -0.012451,0 -0.015381,-0.01 -0.00244,-0.01 -0.00366,-0.013 -0.00366,-0.022 -1e-7,0 2.44e-4,-0.01 7.324e-4,-0.017 9.764e-4,-0.01 0.0022,-0.016 0.00366,-0.026 0.00195,-0.01 0.00415,-0.019 0.00659,-0.029 0.00293,-0.01 0.00635,-0.02 0.010254,-0.028 0.00391,-0.01 0.0083,-0.015 0.013184,-0.02 0.00488,-0.01 0.010254,-0.01 0.016113,-0.01 l 0.6679687,0 c 0.00586,0 0.010253,0 0.013184,0.01 0.00342,0.01 0.00513,0.013 0.00513,0.023"
         id="path3791" />
      <path
         d="m 5.4777832,1028.149 c -9.768e-4,0 -0.00342,0.01 -0.00732,0.013 -0.00391,0 -0.01001,0.01 -0.018311,0.01 -0.00781,0 -0.018067,0 -0.030762,0.01 -0.012696,0 -0.02832,0 -0.046875,0 -0.019043,0 -0.034668,-8e-4 -0.046875,0 -0.011719,-10e-4 -0.020996,0 -0.027832,-0.01 -0.00684,0 -0.011475,-0.01 -0.013916,-0.01 -0.00244,0 -0.00293,-0.01 -0.00146,-0.013 l 0.1794434,-0.8964 c 4.88e-4,0 0.00269,-0.01 0.00659,-0.013 0.00439,0 0.010498,-0.01 0.018311,-0.01 0.0083,0 0.018554,0 0.030762,-0.01 0.012695,0 0.02832,0 0.046875,0 0.018554,0 0.033691,8e-4 0.04541,0 0.012207,0 0.021728,0 0.028564,0.01 0.00732,0 0.011962,0.01 0.013916,0.01 0.00244,0 0.00317,0.01 0.0022,0.013 l -0.1787109,0.8964"
         id="path3793" />
      <path
         d="m 6.4914551,1027.2577 c -9e-7,0 -4.891e-4,0.01 -0.00146,0.017 -4.891e-4,0.01 -0.00171,0.016 -0.00366,0.025 -0.00147,0.01 -0.00366,0.019 -0.00659,0.029 -0.00244,0.01 -0.00562,0.019 -0.00952,0.027 -0.00342,0.01 -0.00781,0.015 -0.013184,0.02 -0.00488,0.01 -0.010255,0.01 -0.016113,0.01 l -0.2380371,0 -0.1523438,0.7639 c -0.00147,0 -0.00415,0.01 -0.00806,0.013 -0.00391,0 -0.01001,0.01 -0.018311,0.01 -0.00781,0 -0.018067,0 -0.030762,0.01 -0.012207,0 -0.027832,0 -0.046875,0 -0.018555,0 -0.033936,-8e-4 -0.046143,0 -0.012207,0 -0.021729,0 -0.028564,-0.01 -0.00635,0 -0.010742,-0.01 -0.013184,-0.01 -0.00195,0 -0.00244,-0.01 -0.00146,-0.013 l 0.1523438,-0.7639 -0.2358399,0 c -0.00732,0 -0.012451,0 -0.015381,-0.01 -0.00244,-0.01 -0.00366,-0.013 -0.00366,-0.022 -1e-7,0 2.44e-4,-0.01 7.324e-4,-0.017 9.764e-4,-0.01 0.0022,-0.016 0.00366,-0.026 0.00195,-0.01 0.00415,-0.019 0.00659,-0.029 0.00293,-0.01 0.00635,-0.02 0.010254,-0.028 0.00391,-0.01 0.0083,-0.015 0.013184,-0.02 0.00488,-0.01 0.010254,-0.01 0.016113,-0.01 l 0.6679687,0 c 0.00586,0 0.010253,0 0.013184,0.01 0.00342,0.01 0.00513,0.013 0.00513,0.023"
         id="path3795" />
      <path
         d="m 6.9667969,1028.045 c -6e-7,0 -4.889e-4,0.01 -0.00146,0.017 -4.888e-4,0.01 -0.00171,0.016 -0.00366,0.026 -0.00147,0.01 -0.00366,0.02 -0.00659,0.03 -0.00244,0.01 -0.00562,0.02 -0.00952,0.028 -0.00342,0.01 -0.00757,0.015 -0.012451,0.021 -0.00488,0.01 -0.010499,0.01 -0.016846,0.01 l -0.4343262,0 c -0.00781,0 -0.015137,-10e-4 -0.021973,0 -0.00635,0 -0.011719,-0.01 -0.016113,-0.011 -0.00391,-0.01 -0.00659,-0.012 -0.00806,-0.019 -0.00146,-0.01 -0.00122,-0.017 7.324e-4,-0.028 l 0.1728516,-0.8613 c 4.881e-4,0 0.00269,-0.01 0.00659,-0.013 0.00391,0 0.00977,-0.01 0.017578,-0.01 0.0083,0 0.018554,0 0.030762,-0.01 0.012695,0 0.028564,0 0.047608,0 0.018554,0 0.033935,8e-4 0.046142,0 0.012207,10e-4 0.021728,0 0.028564,0.01 0.00684,0 0.01123,0.01 0.013184,0.01 0.00244,0 0.00317,0.01 0.0022,0.013 l -0.1523438,0.7631 0.2988281,0 c 0.00684,0 0.011474,0 0.013916,0.01 0.00293,0.01 0.00439,0.013 0.00439,0.021"
         id="path3797" />
      <path
         d="m 7.7988281,1027.2548 c -7e-7,0 -4.89e-4,0.01 -0.00146,0.015 -4.891e-4,0.01 -0.00147,0.016 -0.00293,0.025 -0.00147,0.01 -0.00342,0.018 -0.00586,0.028 -0.00244,0.01 -0.00562,0.019 -0.00952,0.027 -0.00342,0.01 -0.00781,0.014 -0.013184,0.02 -0.00488,0.01 -0.010255,0.01 -0.016113,0.01 l -0.3383789,0 -0.046875,0.2315 0.2871093,0 c 0.00684,0 0.011718,0 0.014648,0.01 0.00293,0 0.00439,0.012 0.00439,0.02 -6e-7,0 -4.889e-4,0.01 -0.00146,0.016 -4.89e-4,0.01 -0.00147,0.015 -0.00293,0.024 -0.00147,0.01 -0.00342,0.018 -0.00586,0.027 -0.00244,0.01 -0.00562,0.018 -0.00952,0.026 -0.00342,0.01 -0.00757,0.014 -0.012451,0.019 -0.00488,0 -0.010255,0.01 -0.016113,0.01 l -0.286377,0 -0.054199,0.2673 0.3427734,0 c 0.00586,0 0.010253,0 0.013184,0.01 0.00293,0 0.00439,0.012 0.00439,0.022 -6e-7,0 -2.447e-4,0.01 -7.324e-4,0.016 -4.889e-4,0.01 -0.00171,0.016 -0.00366,0.025 -0.00147,0.01 -0.00342,0.018 -0.00586,0.027 -0.00244,0.01 -0.00562,0.018 -0.00952,0.026 -0.00342,0.01 -0.00757,0.014 -0.012451,0.019 -0.00488,0 -0.010499,0.01 -0.016846,0.01 l -0.4760742,0 c -0.00781,0 -0.014893,-10e-4 -0.02124,0 -0.00635,0 -0.011719,-0.01 -0.016113,-0.011 -0.00391,-0.01 -0.00659,-0.012 -0.00806,-0.019 -0.00146,-0.01 -0.00122,-0.017 7.324e-4,-0.028 l 0.1655274,-0.8262 c 0.00439,-0.022 0.013183,-0.037 0.026367,-0.046 0.013183,-0.01 0.027832,-0.015 0.043945,-0.015 l 0.4716797,0 c 0.012695,0 0.019042,0.01 0.019043,0.028"
         id="path3799" />
    </g>
    <g
       style="font-size:1.5px;font-style:italic;font-variant:normal;font-weight:bold;font-stretch:normal;fill:#d1dfe2;fill-opacity:1;stroke:none;font-family:Calibri;-inkscape-font-specification:'A.C.M.E. Secret Agent Italic'"
       id="text3688"
       transform="matrix(0.47945121,0,0,0.47945121,15.420573,528.68303)">
      <path
         d="m 18.827393,1027.2994 c -1e-6,0 -4.89e-4,0.01 -0.0015,0.017 -4.89e-4,0.01 -0.0015,0.015 -0.0029,0.024 -0.0015,0.01 -0.0034,0.018 -0.0059,0.027 -0.002,0.01 -0.0046,0.017 -0.0081,0.025 -0.0029,0.01 -0.0063,0.013 -0.01025,0.018 -0.0039,0 -0.0081,0.01 -0.01245,0.01 -0.0068,0 -0.01538,0 -0.02564,-0.01 -0.01025,-0.01 -0.02295,-0.013 -0.03809,-0.02 -0.01465,-0.01 -0.03198,-0.014 -0.052,-0.02 -0.02002,-0.01 -0.04272,-0.01 -0.06811,-0.01 -0.02637,0 -0.04883,0 -0.06738,0.011 -0.01807,0.01 -0.03296,0.017 -0.04468,0.029 -0.01172,0.012 -0.02051,0.025 -0.02637,0.04 -0.0054,0.015 -0.0081,0.029 -0.0081,0.045 -10e-7,0.018 0.0044,0.033 0.01318,0.047 0.0088,0.013 0.02051,0.026 0.03516,0.037 0.01465,0.011 0.03125,0.022 0.0498,0.033 0.01904,0.011 0.03809,0.022 0.05713,0.034 0.01953,0.012 0.03857,0.025 0.05713,0.039 0.01904,0.014 0.03589,0.03 0.05054,0.048 0.01465,0.018 0.02637,0.039 0.03516,0.063 0.0088,0.023 0.01318,0.051 0.01318,0.081 -10e-7,0.046 -0.0093,0.089 -0.02783,0.1282 -0.01856,0.039 -0.04492,0.073 -0.0791,0.1025 -0.03369,0.029 -0.07471,0.052 -0.123046,0.068 -0.04785,0.017 -0.101075,0.025 -0.159668,0.025 -0.03174,0 -0.06104,0 -0.08789,-0.01 -0.02686,0 -0.05078,-0.011 -0.07178,-0.018 -0.02051,-0.01 -0.03784,-0.015 -0.052,-0.023 -0.01416,-0.01 -0.02466,-0.016 -0.03149,-0.024 -0.0068,-0.01 -0.01025,-0.018 -0.01025,-0.033 0,0 4.88e-4,-0.01 0.0015,-0.018 9.77e-4,-0.01 0.0022,-0.016 0.0037,-0.025 0.002,-0.01 0.0042,-0.019 0.0066,-0.028 0.0024,-0.01 0.0054,-0.018 0.0088,-0.026 0.0034,-0.01 0.0071,-0.014 0.01099,-0.019 0.0044,0 0.009,-0.01 0.01392,-0.01 0.0083,0 0.01807,0 0.0293,0.012 0.01172,0.01 0.02612,0.016 0.04321,0.025 0.01709,0.01 0.03735,0.017 0.06079,0.025 0.02344,0.01 0.05151,0.012 0.08423,0.012 0.02881,0 0.05395,0 0.07544,-0.011 0.02197,-0.01 0.04028,-0.017 0.05493,-0.03 0.01465,-0.013 0.02563,-0.027 0.03296,-0.044 0.0078,-0.017 0.01172,-0.036 0.01172,-0.056 -1e-6,-0.018 -0.0044,-0.034 -0.01318,-0.048 -0.0088,-0.014 -0.02051,-0.026 -0.03516,-0.037 -0.01416,-0.012 -0.03052,-0.023 -0.04907,-0.033 -0.01807,-0.01 -0.03662,-0.021 -0.05566,-0.033 -0.01904,-0.012 -0.03784,-0.024 -0.0564,-0.038 -0.01807,-0.014 -0.03442,-0.03 -0.04907,-0.048 -0.01416,-0.019 -0.02564,-0.04 -0.03442,-0.064 -0.0088,-0.024 -0.01318,-0.052 -0.01318,-0.083 -10e-7,-0.044 0.0088,-0.084 0.02637,-0.1215 0.01758,-0.037 0.04199,-0.069 0.07324,-0.095 0.03125,-0.027 0.0686,-0.048 0.11206,-0.062 0.04346,-0.015 0.09131,-0.023 0.143555,-0.023 0.02441,0 0.04761,0 0.06958,0.01 0.02197,0 0.04199,0.01 0.06006,0.014 0.01807,0.01 0.03345,0.011 0.04614,0.018 0.0127,0.01 0.02148,0.013 0.02637,0.017 0.0049,0 0.0083,0.01 0.01025,0.015 0.0024,0 0.0037,0.011 0.0037,0.019"
         id="path3780" />
      <path
         d="m 19.660889,1027.3185 c -1e-6,0.014 -0.0024,0.032 -0.0073,0.055 -0.0044,0.023 -0.01025,0.042 -0.01758,0.056 -0.0068,0.014 -0.01465,0.02 -0.02344,0.02 -0.0063,0 -0.01392,0 -0.02271,-0.012 -0.0088,-0.01 -0.02026,-0.017 -0.03442,-0.026 -0.01416,-0.01 -0.03223,-0.018 -0.0542,-0.026 -0.02197,-0.01 -0.04932,-0.013 -0.08203,-0.013 -0.03613,0 -0.06909,0.01 -0.09888,0.022 -0.02979,0.014 -0.0564,0.033 -0.07983,0.057 -0.02344,0.024 -0.04395,0.051 -0.06152,0.081 -0.01758,0.031 -0.03223,0.063 -0.04394,0.096 -0.01123,0.033 -0.01978,0.066 -0.02564,0.1 -0.0054,0.033 -0.0081,0.063 -0.0081,0.091 0,0.034 0.0041,0.064 0.01245,0.09 0.0088,0.026 0.02124,0.047 0.03735,0.064 0.01611,0.017 0.03589,0.03 0.05933,0.039 0.02344,0.01 0.0498,0.012 0.0791,0.012 0.03467,0 0.06421,0 0.08862,-0.011 0.0249,-0.01 0.0459,-0.015 0.06299,-0.024 0.01758,-0.01 0.03198,-0.017 0.04321,-0.024 0.01172,-0.01 0.02222,-0.011 0.03149,-0.011 0.0063,0 0.0105,0 0.01245,0.01 0.0024,0 0.0037,0.011 0.0037,0.019 0,0 -4.89e-4,0.01 -0.0015,0.015 -9.78e-4,0.01 -0.0022,0.015 -0.0037,0.023 -0.0015,0.01 -0.0032,0.018 -0.0051,0.028 -0.002,0.01 -0.0042,0.019 -0.0066,0.028 -0.0024,0.01 -0.0054,0.016 -0.0088,0.023 -0.0029,0.01 -0.0071,0.013 -0.01245,0.018 -0.0054,0.01 -0.01587,0.013 -0.03149,0.021 -0.01563,0.01 -0.03467,0.016 -0.05713,0.023 -0.02246,0.01 -0.04785,0.013 -0.07617,0.018 -0.02832,0.01 -0.0586,0.01 -0.09082,0.01 -0.05322,0 -0.101318,-0.01 -0.144287,-0.021 -0.04248,-0.014 -0.07861,-0.036 -0.108398,-0.064 -0.02979,-0.029 -0.05274,-0.065 -0.06885,-0.1084 -0.01611,-0.043 -0.02417,-0.094 -0.02417,-0.1524 0,-0.045 0.0046,-0.092 0.01392,-0.1413 0.0093,-0.049 0.02319,-0.097 0.04175,-0.1443 0.01904,-0.047 0.04297,-0.091 0.07178,-0.1333 0.02881,-0.042 0.06274,-0.079 0.101806,-0.1099 0.03955,-0.032 0.08423,-0.057 0.134033,-0.075 0.05029,-0.019 0.105957,-0.028 0.166993,-0.028 0.03418,0 0.0664,0 0.09668,0.011 0.03076,0.01 0.05737,0.016 0.07983,0.028 0.02295,0.012 0.03882,0.022 0.04761,0.032 0.0093,0.01 0.01392,0.021 0.01392,0.036"
         id="path3782" />
      <path
         d="m 20.375,1027.2548 c -1e-6,0 -4.89e-4,0.01 -0.0015,0.015 -4.89e-4,0.01 -0.0015,0.016 -0.0029,0.025 -0.0015,0.01 -0.0034,0.018 -0.0059,0.028 -0.0024,0.01 -0.0056,0.019 -0.0095,0.027 -0.0034,0.01 -0.0078,0.014 -0.01318,0.02 -0.0049,0.01 -0.01025,0.01 -0.01611,0.01 l -0.338379,0 -0.04687,0.2315 0.287109,0 c 0.0068,0 0.01172,0 0.01465,0.01 0.0029,0 0.0044,0.012 0.0044,0.02 0,0 -4.89e-4,0.01 -0.0015,0.016 -4.89e-4,0.01 -0.0015,0.015 -0.0029,0.024 -0.0015,0.01 -0.0034,0.018 -0.0059,0.027 -0.0024,0.01 -0.0056,0.018 -0.0095,0.026 -0.0034,0.01 -0.0076,0.014 -0.01245,0.019 -0.0049,0 -0.01026,0.01 -0.01611,0.01 l -0.286377,0 -0.0542,0.2673 0.342774,0 c 0.0059,0 0.01025,0 0.01318,0.01 0.0029,0 0.0044,0.012 0.0044,0.022 -10e-7,0 -2.45e-4,0.01 -7.33e-4,0.016 -4.89e-4,0.01 -0.0017,0.016 -0.0037,0.025 -0.0015,0.01 -0.0034,0.018 -0.0059,0.027 -0.0024,0.01 -0.0056,0.018 -0.0095,0.026 -0.0034,0.01 -0.0076,0.014 -0.01245,0.019 -0.0049,0 -0.0105,0.01 -0.01685,0.01 l -0.476074,0 c -0.0078,0 -0.01489,-10e-4 -0.02124,0 -0.0063,0 -0.01172,-0.01 -0.01611,-0.011 -0.0039,-0.01 -0.0066,-0.012 -0.0081,-0.019 -0.0015,-0.01 -0.0012,-0.017 7.32e-4,-0.028 l 0.165528,-0.8262 c 0.0044,-0.022 0.01318,-0.037 0.02637,-0.046 0.01318,-0.01 0.02783,-0.015 0.04395,-0.015 l 0.47168,0 c 0.0127,0 0.01904,0.01 0.01904,0.028"
         id="path3784" />
      <path
         d="m 21.159424,1028.1073 c -0.002,0.011 -0.0059,0.021 -0.01172,0.03 -0.0054,0.01 -0.01196,0.016 -0.01977,0.022 -0.0073,0.01 -0.01563,0.01 -0.0249,0.013 -0.0088,0 -0.01807,0 -0.02783,0 l -0.08203,0 c -0.01758,0 -0.03198,0 -0.04321,-0.01 -0.01123,0 -0.021,-0.01 -0.0293,-0.018 -0.0078,-0.01 -0.01489,-0.021 -0.02124,-0.036 -0.0063,-0.015 -0.01294,-0.034 -0.01977,-0.058 l -0.139893,-0.4234 c -0.01074,-0.033 -0.02075,-0.066 -0.03003,-0.099 -0.0088,-0.033 -0.01734,-0.066 -0.02564,-0.099 l -0.0015,0 c -0.0049,0.039 -0.0105,0.077 -0.01685,0.1142 -0.0063,0.037 -0.01343,0.074 -0.02124,0.1121 l -0.09668,0.4841 c -9.77e-4,0 -0.0034,0.01 -0.0073,0.013 -0.0034,0 -0.0088,0.01 -0.01611,0.01 -0.0073,0 -0.01685,0 -0.02856,0.01 -0.01123,0 -0.02539,0 -0.04248,0 -0.01709,0 -0.03125,-8e-4 -0.04248,0 -0.01074,0 -0.01904,0 -0.0249,-0.01 -0.0059,0 -0.0098,-0.01 -0.01172,-0.01 -0.0015,0 -0.0015,-0.01 0,-0.013 l 0.170654,-0.8525 c 0.0044,-0.023 0.0144,-0.04 0.03003,-0.051 0.01563,-0.012 0.0332,-0.018 0.05274,-0.018 l 0.100341,0 c 0.01611,0 0.02979,0 0.04102,0.01 0.01172,0 0.02148,0.01 0.0293,0.018 0.0083,0.01 0.01538,0.018 0.02124,0.031 0.0063,0.013 0.01221,0.028 0.01758,0.047 l 0.141358,0.427 c 0.0093,0.027 0.01758,0.054 0.0249,0.081 0.0078,0.027 0.01587,0.054 0.02417,0.081 l 0.0015,0 c 0.0054,-0.035 0.01123,-0.071 0.01758,-0.1084 0.0068,-0.038 0.01367,-0.074 0.02051,-0.1092 l 0.09009,-0.4467 c 9.75e-4,0 0.0032,-0.01 0.0066,-0.013 0.0034,0 0.0085,-0.01 0.01538,-0.01 0.0073,0 0.0166,0 0.02783,-0.01 0.01123,0 0.02539,0 0.04248,0 0.01709,0 0.03125,7e-4 0.04248,0 0.01123,10e-4 0.01977,0 0.02564,0.01 0.0059,0 0.0098,0 0.01172,0.01 0.002,0 0.0024,0.01 0.0015,0.013 l -0.171387,0.8547"
         id="path3786" />
      <path
         d="m 22.091797,1027.2548 c -1e-6,0 -4.89e-4,0.01 -0.0015,0.015 -4.89e-4,0.01 -0.0015,0.016 -0.0029,0.025 -0.0015,0.01 -0.0034,0.018 -0.0059,0.028 -0.0024,0.01 -0.0056,0.019 -0.0095,0.027 -0.0034,0.01 -0.0078,0.014 -0.01318,0.02 -0.0049,0.01 -0.01026,0.01 -0.01611,0.01 l -0.338379,0 -0.04687,0.2315 0.287109,0 c 0.0068,0 0.01172,0 0.01465,0.01 0.0029,0 0.0044,0.012 0.0044,0.02 -1e-6,0 -4.89e-4,0.01 -0.0015,0.016 -4.89e-4,0.01 -0.0015,0.015 -0.0029,0.024 -0.0015,0.01 -0.0034,0.018 -0.0059,0.027 -0.0024,0.01 -0.0056,0.018 -0.0095,0.026 -0.0034,0.01 -0.0076,0.014 -0.01245,0.019 -0.0049,0 -0.01025,0.01 -0.01611,0.01 l -0.286377,0 -0.0542,0.2673 0.342773,0 c 0.0059,0 0.01025,0 0.01318,0.01 0.0029,0 0.0044,0.012 0.0044,0.022 -1e-6,0 -2.45e-4,0.01 -7.33e-4,0.016 -4.89e-4,0.01 -0.0017,0.016 -0.0037,0.025 -0.0015,0.01 -0.0034,0.018 -0.0059,0.027 -0.0024,0.01 -0.0056,0.018 -0.0095,0.026 -0.0034,0.01 -0.0076,0.014 -0.01245,0.019 -0.0049,0 -0.0105,0.01 -0.01685,0.01 l -0.476074,0 c -0.0078,0 -0.01489,-10e-4 -0.02124,0 -0.0063,0 -0.01172,-0.01 -0.01611,-0.011 -0.0039,-0.01 -0.0066,-0.012 -0.0081,-0.019 -0.0015,-0.01 -0.0012,-0.017 7.32e-4,-0.028 l 0.165528,-0.8262 c 0.0044,-0.022 0.01318,-0.037 0.02637,-0.046 0.01318,-0.01 0.02783,-0.015 0.04395,-0.015 l 0.47168,0 c 0.01269,0 0.01904,0.01 0.01904,0.028"
         id="path3788" />
    </g>
    <g
       style="font-size:1.5px;font-style:italic;font-variant:normal;font-weight:bold;font-stretch:normal;fill:#d1dfe2;fill-opacity:1;stroke:none;font-family:Calibri;-inkscape-font-specification:'A.C.M.E. Secret Agent Italic'"
       id="text3692"
       transform="matrix(0.47945121,0,0,0.47945121,15.420573,528.68303)">
      <path
         d="m 32.949707,1028.1029 c 0.0024,0.018 0.0034,0.031 0.0029,0.042 -10e-7,0.01 -0.0034,0.018 -0.01025,0.023 -0.0063,0 -0.01709,0.01 -0.03223,0.01 -0.01514,0 -0.03589,0 -0.06226,0 -0.01855,0 -0.03369,-5e-4 -0.04541,0 -0.01172,-5e-4 -0.02075,0 -0.0271,0 -0.0063,0 -0.01074,0 -0.01318,-0.01 -0.0024,0 -0.0039,-0.01 -0.0044,-0.016 l -0.02563,-0.1904 -0.355957,0 -0.09815,0.1861 c -0.0034,0.01 -0.0073,0.013 -0.01172,0.017 -0.0044,0 -0.01074,0.01 -0.01904,0.01 -0.0083,0 -0.01953,0 -0.03369,0.01 -0.01367,10e-4 -0.03101,0 -0.052,0 -0.02246,0 -0.03979,-8e-4 -0.052,0 -0.0127,0 -0.021,0 -0.0249,-0.01 -0.0044,-0.01 -0.0049,-0.014 -0.0015,-0.024 0.0029,-0.01 0.009,-0.024 0.01831,-0.041 l 0.459961,-0.8408 c 0.0049,-0.01 0.0098,-0.015 0.01465,-0.02 0.0049,-0.01 0.01172,-0.01 0.02051,-0.012 0.0093,0 0.02148,0 0.03662,-0.01 0.01562,-10e-4 0.03589,0 0.06079,0 0.02881,0 0.05151,5e-4 0.06811,0 0.01709,5e-4 0.03027,0 0.03955,0.01 0.0093,0 0.01538,0.01 0.01831,0.012 0.0029,0.01 0.0049,0.013 0.0059,0.022 l 0.123779,0.8401 m -0.287842,-0.6951 -7.32e-4,0 -0.21167,0.4029 0.266601,0 -0.0542,-0.4029"
         id="path3773" />
      <path
         d="m 33.8396,1027.3185 c -10e-7,0.014 -0.0024,0.032 -0.0073,0.055 -0.0044,0.023 -0.01025,0.042 -0.01758,0.056 -0.0068,0.014 -0.01465,0.02 -0.02344,0.02 -0.0063,0 -0.01392,0 -0.02271,-0.012 -0.0088,-0.01 -0.02027,-0.017 -0.03442,-0.026 -0.01416,-0.01 -0.03223,-0.018 -0.0542,-0.026 -0.02197,-0.01 -0.04932,-0.013 -0.08203,-0.013 -0.03613,0 -0.06909,0.01 -0.09888,0.022 -0.02979,0.014 -0.0564,0.033 -0.07983,0.057 -0.02344,0.024 -0.04395,0.051 -0.06152,0.081 -0.01758,0.031 -0.03223,0.063 -0.04395,0.096 -0.01123,0.033 -0.01978,0.066 -0.02564,0.1 -0.0054,0.033 -0.0081,0.063 -0.0081,0.091 0,0.034 0.0042,0.064 0.01245,0.09 0.0088,0.026 0.02124,0.047 0.03735,0.064 0.01611,0.017 0.03589,0.03 0.05933,0.039 0.02344,0.01 0.0498,0.012 0.0791,0.012 0.03467,0 0.06421,0 0.08862,-0.011 0.0249,-0.01 0.0459,-0.015 0.06299,-0.024 0.01758,-0.01 0.03198,-0.017 0.04321,-0.024 0.01172,-0.01 0.02222,-0.011 0.03149,-0.011 0.0063,0 0.0105,0 0.01245,0.01 0.0024,0 0.0037,0.011 0.0037,0.019 0,0 -4.89e-4,0.01 -0.0015,0.015 -9.78e-4,0.01 -0.0022,0.015 -0.0037,0.023 -0.0015,0.01 -0.0032,0.018 -0.0051,0.028 -0.002,0.01 -0.0042,0.019 -0.0066,0.028 -0.0024,0.01 -0.0054,0.016 -0.0088,0.023 -0.0029,0.01 -0.0071,0.013 -0.01245,0.018 -0.0054,0.01 -0.01587,0.013 -0.03149,0.021 -0.01563,0.01 -0.03467,0.016 -0.05713,0.023 -0.02246,0.01 -0.04785,0.013 -0.07617,0.018 -0.02832,0.01 -0.05859,0.01 -0.09082,0.01 -0.05322,0 -0.101318,-0.01 -0.144287,-0.021 -0.04248,-0.014 -0.07861,-0.036 -0.108398,-0.064 -0.02979,-0.029 -0.05273,-0.065 -0.06885,-0.1084 -0.01611,-0.043 -0.02417,-0.094 -0.02417,-0.1524 0,-0.045 0.0046,-0.092 0.01392,-0.1413 0.0093,-0.049 0.02319,-0.097 0.04175,-0.1443 0.01904,-0.047 0.04297,-0.091 0.07178,-0.1333 0.02881,-0.042 0.06274,-0.079 0.101807,-0.1099 0.03955,-0.032 0.08423,-0.057 0.134033,-0.075 0.05029,-0.019 0.105957,-0.028 0.166992,-0.028 0.03418,0 0.06641,0 0.09668,0.011 0.03076,0.01 0.05737,0.016 0.07983,0.028 0.02295,0.012 0.03882,0.022 0.04761,0.032 0.0093,0.01 0.01391,0.021 0.01392,0.036"
         id="path3775" />
      <path
         d="m 34.63501,1027.2577 c -1e-6,0 -4.89e-4,0.01 -0.0015,0.017 -4.89e-4,0.01 -0.0017,0.016 -0.0037,0.025 -0.0015,0.01 -0.0037,0.019 -0.0066,0.029 -0.0024,0.01 -0.0056,0.019 -0.0095,0.027 -0.0034,0.01 -0.0078,0.015 -0.01318,0.02 -0.0049,0.01 -0.01026,0.01 -0.01611,0.01 l -0.238037,0 -0.152344,0.7639 c -0.0015,0 -0.0042,0.01 -0.0081,0.013 -0.0039,0 -0.01001,0.01 -0.01831,0.01 -0.0078,0 -0.01807,0 -0.03076,0.01 -0.01221,0 -0.02783,0 -0.04687,0 -0.01855,0 -0.03394,-8e-4 -0.04614,0 -0.01221,0 -0.02173,0 -0.02856,-0.01 -0.0063,0 -0.01074,-0.01 -0.01318,-0.01 -0.002,0 -0.0024,-0.01 -0.0015,-0.013 l 0.152344,-0.7639 -0.23584,0 c -0.0073,0 -0.01245,0 -0.01538,-0.01 -0.0024,-0.01 -0.0037,-0.013 -0.0037,-0.022 0,0 2.44e-4,-0.01 7.33e-4,-0.017 9.76e-4,-0.01 0.0022,-0.016 0.0037,-0.026 0.002,-0.01 0.0041,-0.019 0.0066,-0.029 0.0029,-0.01 0.0063,-0.02 0.01025,-0.028 0.0039,-0.01 0.0083,-0.015 0.01318,-0.02 0.0049,-0.01 0.01025,-0.01 0.01611,-0.01 l 0.667969,0 c 0.0059,0 0.01025,0 0.01318,0.01 0.0034,0.01 0.0051,0.013 0.0051,0.023"
         id="path3777" />
    </g>
    <g
       style="font-size:2px;font-style:italic;font-variant:normal;font-weight:bold;font-stretch:normal;fill:#d1dfe2;fill-opacity:1;stroke:none;font-family:Calibri;-inkscape-font-specification:'A.C.M.E. Secret Agent Italic'"
       id="text3696"
       transform="matrix(0.47945121,0,0,0.47945121,15.420573,528.68303)">
      <path
         d="m 6.9180565,1044.4614 c -0.00195,0.01 -0.00488,0.012 -0.00879,0.018 -0.00391,0.01 -0.010744,0.01 -0.020508,0.013 -0.00912,0 -0.021811,0.01 -0.038086,0.01 -0.016278,0 -0.03646,0 -0.060547,0 -0.025392,0 -0.0459,-10e-4 -0.061523,0 -0.015626,0 -0.027671,0 -0.036133,-0.01 -0.00846,0 -0.013999,-0.01 -0.016602,-0.013 -0.00195,-0.01 -0.00228,-0.011 -9.766e-4,-0.018 l 0.2050782,-1.0283 -0.00195,0 -0.5732422,1.0273 c -0.00781,0.016 -0.023113,0.027 -0.045898,0.033 -0.022136,0.01 -0.053712,0.01 -0.094727,0.01 -0.042318,0 -0.072917,0 -0.091797,-0.011 -0.01823,-0.01 -0.02767,-0.017 -0.02832,-0.028 l -0.1484375,-1.0303 -0.00195,0 -0.2060547,1.0293 c -0.0013,0.01 -0.00423,0.012 -0.00879,0.018 -0.00391,0.01 -0.010743,0.01 -0.020508,0.013 -0.00911,0 -0.02181,0.01 -0.038086,0.01 -0.015625,0 -0.035807,0 -0.060547,0 -0.02474,0 -0.044922,-10e-4 -0.060547,0 -0.015625,0 -0.027669,0 -0.036133,-0.01 -0.00846,0 -0.013998,-0.01 -0.016602,-0.013 -0.0026,-0.01 -0.00293,-0.011 -9.766e-4,-0.018 l 0.2246094,-1.126 c 0.00325,-0.016 0.00814,-0.031 0.014648,-0.044 0.00716,-0.013 0.015625,-0.024 0.025391,-0.032 0.010416,-0.01 0.022135,-0.016 0.035156,-0.02 0.01302,0 0.027018,-0.01 0.041992,-0.01 l 0.1601563,0 c 0.028645,0 0.053059,0 0.073242,0.01 0.020182,0 0.036783,0.013 0.049805,0.024 0.01302,0.012 0.022786,0.027 0.029297,0.046 0.00716,0.019 0.012044,0.042 0.014648,0.068 l 0.1220703,0.752 0.00488,0 0.4335937,-0.752 c 0.01302,-0.025 0.02604,-0.047 0.039063,-0.065 0.013019,-0.019 0.027342,-0.034 0.042969,-0.046 0.016275,-0.012 0.034178,-0.021 0.053711,-0.026 0.01953,-0.01 0.042642,-0.01 0.069336,-0.01 l 0.1816406,0 c 0.016274,0 0.030272,0 0.041992,0.01 0.011717,0 0.020832,0.011 0.027344,0.02 0.00716,0.01 0.011392,0.019 0.012695,0.032 0.00195,0.012 0.00163,0.027 -9.765e-4,0.043 l -0.2246094,1.1269"
         id="path3740" />
      <path
         d="m 8.3125877,1044.0298 c -0.016277,0.081 -0.041668,0.1517 -0.076172,0.2129 -0.034506,0.061 -0.077475,0.1113 -0.1289063,0.1523 -0.051433,0.041 -0.1106779,0.072 -0.1777344,0.093 -0.066407,0.02 -0.1399746,0.03 -0.2207031,0.03 -0.085938,0 -0.1598311,-0.011 -0.2216797,-0.031 -0.061198,-0.021 -0.1097007,-0.053 -0.1455078,-0.095 -0.035807,-0.042 -0.058919,-0.094 -0.069336,-0.1563 -0.010417,-0.063 -0.00716,-0.136 0.00977,-0.2187 l 0.1503906,-0.75 c 0.0013,-0.01 0.00423,-0.012 0.00879,-0.018 0.00521,-0.01 0.013021,-0.01 0.023437,-0.013 0.011067,0 0.024739,-0.01 0.041016,-0.01 0.016927,0 0.038086,0 0.063477,0 0.024739,0 0.045247,10e-4 0.061523,0 0.016275,0 0.028971,0 0.038086,0.01 0.00911,0 0.014973,0.01 0.017578,0.013 0.00325,0.01 0.00423,0.011 0.00293,0.018 l -0.1503907,0.75 c -0.010417,0.05 -0.013347,0.093 -0.00879,0.1299 0.00456,0.036 0.015299,0.067 0.032227,0.091 0.017578,0.023 0.041015,0.041 0.070312,0.053 0.029296,0.011 0.064453,0.017 0.1054688,0.017 0.041666,0 0.080077,-0.01 0.1152344,-0.018 0.035807,-0.013 0.067382,-0.032 0.094727,-0.056 0.027343,-0.025 0.050455,-0.055 0.069336,-0.09 0.01953,-0.035 0.033853,-0.075 0.042969,-0.1202 l 0.1513672,-0.7558 c 0.0013,-0.01 0.00423,-0.012 0.00879,-0.018 0.00521,-0.01 0.012694,-0.01 0.022461,-0.013 0.010416,0 0.024087,-0.01 0.041016,-0.01 0.016926,0 0.037759,0 0.0625,0 0.024738,0 0.044921,0 0.060547,0 0.015624,0 0.027994,0 0.037109,0.01 0.00911,0 0.014973,0.01 0.017578,0.013 0.00325,0.01 0.00423,0.011 0.00293,0.018 l -0.1523438,0.7627"
         id="path3742" />
      <path
         d="m 9.2159081,1044.3228 c -8e-7,0 -6.519e-4,0.012 -0.00195,0.022 -6.518e-4,0.01 -0.00228,0.021 -0.00488,0.034 -0.00195,0.013 -0.00488,0.026 -0.00879,0.04 -0.00326,0.014 -0.00749,0.026 -0.012695,0.038 -0.00456,0.011 -0.010092,0.02 -0.016602,0.027 -0.00651,0.01 -0.013998,0.011 -0.022461,0.011 l -0.5791015,0 c -0.010417,0 -0.020182,0 -0.029297,0 -0.00846,0 -0.015625,-0.01 -0.021484,-0.015 -0.00521,-0.01 -0.00879,-0.016 -0.010742,-0.025 -0.00195,-0.011 -0.00163,-0.023 9.766e-4,-0.037 l 0.2304688,-1.1485 c 6.507e-4,-0.01 0.00358,-0.012 0.00879,-0.018 0.00521,-0.01 0.01302,-0.01 0.023437,-0.013 0.011067,0 0.024739,-0.01 0.041016,-0.01 0.016927,0 0.038086,0 0.063477,0 0.024739,0 0.045247,10e-4 0.061523,0 0.016276,0 0.028971,0 0.038086,0.01 0.00911,0 0.014973,0.01 0.017578,0.013 0.00325,0.01 0.00423,0.011 0.00293,0.018 l -0.203125,1.0176 0.3984375,0 c 0.00911,0 0.015299,0 0.018555,0.011 0.00391,0.01 0.00586,0.017 0.00586,0.028"
         id="path3744" />
      <path
         d="m 10.269619,1043.2729 c -1e-6,0 -6.52e-4,0.012 -0.002,0.023 -6.52e-4,0.01 -0.0023,0.021 -0.0049,0.033 -0.002,0.012 -0.0049,0.025 -0.0088,0.039 -0.0033,0.013 -0.0075,0.025 -0.0127,0.036 -0.0046,0.011 -0.01042,0.02 -0.01758,0.027 -0.0065,0.01 -0.01367,0.011 -0.02149,0.011 l -0.3173826,0 -0.203125,1.0185 c -0.00195,0.01 -0.00553,0.012 -0.010742,0.018 -0.00521,0.01 -0.013347,0.01 -0.024414,0.013 -0.010417,0 -0.024089,0.01 -0.041016,0.01 -0.016277,0 -0.03711,0 -0.0625,0 -0.02474,0 -0.045248,0 -0.061523,0 -0.016276,0 -0.028972,0 -0.038086,-0.01 -0.00846,0 -0.014323,-0.01 -0.017578,-0.013 -0.0026,-0.01 -0.00326,-0.011 -0.00195,-0.018 l 0.203125,-1.0185 -0.3144532,0 c -0.00977,0 -0.016602,0 -0.020508,-0.011 -0.00326,-0.01 -0.00488,-0.017 -0.00488,-0.029 -10e-8,-0.01 3.254e-4,-0.013 9.766e-4,-0.023 0.0013,-0.01 0.00293,-0.022 0.00488,-0.034 0.0026,-0.013 0.00553,-0.026 0.00879,-0.039 0.00391,-0.014 0.00846,-0.026 0.013672,-0.037 0.00521,-0.011 0.011068,-0.02 0.017578,-0.026 0.00651,-0.01 0.013672,-0.011 0.021484,-0.011 l 0.8906252,0 c 0.0078,0 0.01367,0 0.01758,0.011 0.0046,0.01 0.0068,0.017 0.0068,0.03"
         id="path3746" />
      <path
         d="m 10.4454,1044.4614 c -0.0013,0.01 -0.0046,0.012 -0.0098,0.018 -0.0052,0.01 -0.01335,0.01 -0.02441,0.013 -0.01042,0 -0.02409,0.01 -0.04102,0.01 -0.01693,0 -0.03776,0 -0.0625,0 -0.02539,0 -0.04622,-10e-4 -0.0625,0 -0.01563,0 -0.028,0 -0.03711,-0.01 -0.0091,0 -0.0153,-0.01 -0.01855,-0.013 -0.0033,-0.01 -0.0039,-0.011 -0.002,-0.018 l 0.239258,-1.1953 c 6.5e-4,-0.01 0.0036,-0.012 0.0088,-0.018 0.0059,-0.01 0.014,-0.01 0.02441,-0.013 0.01107,0 0.02474,-0.01 0.04101,-0.01 0.01693,0 0.03776,0 0.0625,0 0.02474,0 0.04492,10e-4 0.06055,0 0.01628,0 0.02897,0 0.03809,0.01 0.0098,0 0.01595,0.01 0.01855,0.013 0.0033,0.01 0.0042,0.011 0.0029,0.018 l -0.238281,1.1953"
         id="path3748" />
      <path
         d="m 12.1954,1044.4614 c -0.002,0.01 -0.0049,0.012 -0.0088,0.018 -0.0039,0.01 -0.01074,0.01 -0.02051,0.013 -0.0091,0 -0.02181,0.01 -0.03809,0.01 -0.01628,0 -0.03646,0 -0.06055,0 -0.02539,0 -0.0459,-10e-4 -0.06152,0 -0.01563,0 -0.02767,0 -0.03613,-0.01 -0.0085,0 -0.014,-0.01 -0.0166,-0.013 -0.002,-0.01 -0.0023,-0.011 -9.77e-4,-0.018 l 0.205078,-1.0283 -0.002,0 -0.573242,1.0273 c -0.0078,0.016 -0.02311,0.027 -0.0459,0.033 -0.02214,0.01 -0.05371,0.01 -0.09473,0.01 -0.04232,0 -0.07292,0 -0.0918,-0.011 -0.01823,-0.01 -0.02767,-0.017 -0.02832,-0.028 l -0.148438,-1.0303 -0.002,0 -0.206055,1.0293 c -0.0013,0.01 -0.0042,0.012 -0.0088,0.018 -0.0039,0.01 -0.01074,0.01 -0.02051,0.013 -0.0091,0 -0.02181,0.01 -0.03809,0.01 -0.01563,0 -0.03581,0 -0.06055,0 -0.02474,0 -0.04492,-10e-4 -0.06055,0 -0.01563,0 -0.02767,0 -0.03613,-0.01 -0.0085,0 -0.014,-0.01 -0.0166,-0.013 -0.0026,-0.01 -0.0029,-0.011 -9.77e-4,-0.018 l 0.224609,-1.126 c 0.0033,-0.016 0.0081,-0.031 0.01465,-0.044 0.0072,-0.013 0.01562,-0.024 0.02539,-0.032 0.01042,-0.01 0.02214,-0.016 0.03516,-0.02 0.01302,0 0.02702,-0.01 0.04199,-0.01 l 0.160156,0 c 0.02864,0 0.05306,0 0.07324,0.01 0.02018,0 0.03678,0.013 0.04981,0.024 0.01302,0.012 0.02279,0.027 0.0293,0.046 0.0072,0.019 0.01204,0.042 0.01465,0.068 l 0.122071,0.752 0.0049,0 0.433594,-0.752 c 0.01302,-0.025 0.02604,-0.047 0.03906,-0.065 0.01302,-0.019 0.02734,-0.034 0.04297,-0.046 0.01628,-0.012 0.03418,-0.021 0.05371,-0.026 0.01953,-0.01 0.04264,-0.01 0.06934,-0.01 l 0.181641,0 c 0.01627,0 0.03027,0 0.04199,0.01 0.01172,0 0.02083,0.011 0.02734,0.02 0.0072,0.01 0.01139,0.019 0.01269,0.032 0.002,0.012 0.0016,0.027 -9.76e-4,0.043 l -0.22461,1.1269"
         id="path3750" />
      <path
         d="m 13.450283,1043.269 c -1e-6,0 -6.52e-4,0.011 -0.002,0.021 -6.52e-4,0.01 -0.002,0.021 -0.0039,0.033 -0.002,0.012 -0.0046,0.024 -0.0078,0.037 -0.0033,0.013 -0.0075,0.025 -0.01269,0.036 -0.0046,0.01 -0.01042,0.019 -0.01758,0.026 -0.0065,0.01 -0.01367,0.011 -0.02149,0.011 l -0.451172,0 -0.0625,0.3086 0.382813,0 c 0.0091,0 0.01562,0 0.01953,0.01 0.0039,0.01 0.0059,0.016 0.0059,0.027 -10e-7,0 -6.52e-4,0.012 -0.002,0.022 -6.51e-4,0.01 -0.002,0.02 -0.0039,0.032 -0.002,0.012 -0.0046,0.024 -0.0078,0.036 -0.0033,0.012 -0.0075,0.024 -0.0127,0.034 -0.0046,0.01 -0.01009,0.019 -0.0166,0.025 -0.0065,0.01 -0.01367,0.01 -0.02149,0.01 l -0.381835,0 -0.07227,0.3564 0.457031,0 c 0.0078,0 0.01367,0 0.01758,0.011 0.0039,0.01 0.0059,0.016 0.0059,0.029 -1e-6,0 -3.27e-4,0.012 -9.77e-4,0.022 -6.52e-4,0.01 -0.0023,0.021 -0.0049,0.033 -0.002,0.012 -0.0046,0.024 -0.0078,0.036 -0.0033,0.012 -0.0075,0.024 -0.0127,0.035 -0.0046,0.011 -0.01009,0.019 -0.0166,0.025 -0.0065,0.01 -0.014,0.01 -0.02246,0.01 l -0.634766,0 c -0.01042,0 -0.01986,0 -0.02832,0 -0.0085,0 -0.01563,-0.01 -0.02148,-0.015 -0.0052,-0.01 -0.0088,-0.016 -0.01074,-0.025 -0.002,-0.011 -0.0016,-0.023 9.77e-4,-0.037 l 0.220703,-1.1016 c 0.0059,-0.029 0.01758,-0.049 0.03516,-0.062 0.01758,-0.013 0.03711,-0.02 0.05859,-0.02 l 0.628906,0 c 0.01693,0 0.02539,0.012 0.02539,0.037"
         id="path3752" />
      <path
         d="m 14.63583,1043.689 c -1e-6,0.039 -0.0026,0.08 -0.0078,0.124 -0.0046,0.044 -0.0127,0.088 -0.02441,0.1338 -0.01107,0.045 -0.02637,0.09 -0.0459,0.1347 -0.01888,0.044 -0.04264,0.087 -0.07129,0.128 -0.02865,0.04 -0.06283,0.078 -0.102539,0.1133 -0.03906,0.035 -0.08431,0.066 -0.135742,0.092 -0.05143,0.025 -0.109376,0.045 -0.173829,0.059 -0.06445,0.014 -0.141276,0.022 -0.230468,0.022 l -0.321289,0 c -0.01042,0 -0.02051,0 -0.03027,0 -0.0091,0 -0.01693,-0.01 -0.02344,-0.013 -0.0059,-0.01 -0.01009,-0.015 -0.0127,-0.025 -0.002,-0.01 -0.0013,-0.023 0.002,-0.039 l 0.220703,-1.1016 c 0.0052,-0.029 0.0166,-0.049 0.03418,-0.062 0.01758,-0.013 0.03841,-0.02 0.0625,-0.02 l 0.304688,0 c 0.100259,0 0.183918,0.01 0.250976,0.029 0.06771,0.02 0.124023,0.049 0.168946,0.087 0.04557,0.039 0.07943,0.086 0.101562,0.1436 0.02279,0.057 0.03418,0.1224 0.03418,0.1973 m -0.269531,0.03 c -1e-6,-0.041 -0.0055,-0.079 -0.0166,-0.1142 -0.01107,-0.035 -0.02897,-0.065 -0.05371,-0.091 -0.02474,-0.025 -0.05664,-0.045 -0.0957,-0.06 -0.03841,-0.014 -0.09017,-0.022 -0.155273,-0.022 l -0.133789,0 -0.172852,0.8594 0.134766,0 c 0.06836,0 0.12565,-0.01 0.171875,-0.024 0.04687,-0.017 0.08789,-0.04 0.123046,-0.068 0.03581,-0.029 0.06608,-0.063 0.09082,-0.1006 0.02539,-0.038 0.0459,-0.079 0.06152,-0.1211 0.01628,-0.042 0.02799,-0.086 0.03516,-0.1299 0.0072,-0.044 0.01074,-0.087 0.01074,-0.1289"
         id="path3754" />
      <path
         d="m 14.968838,1044.4614 c -0.0013,0.01 -0.0046,0.012 -0.0098,0.018 -0.0052,0.01 -0.01335,0.01 -0.02441,0.013 -0.01042,0 -0.02409,0.01 -0.04102,0.01 -0.01693,0 -0.03776,0 -0.0625,0 -0.02539,0 -0.04622,-10e-4 -0.0625,0 -0.01563,0 -0.02799,0 -0.03711,-0.01 -0.0091,0 -0.0153,-0.01 -0.01856,-0.013 -0.0033,-0.01 -0.0039,-0.011 -0.002,-0.018 l 0.239258,-1.1953 c 6.51e-4,-0.01 0.0036,-0.012 0.0088,-0.018 0.0059,-0.01 0.014,-0.01 0.02441,-0.013 0.01107,0 0.02474,-0.01 0.04102,-0.01 0.01693,0 0.03776,0 0.0625,0 0.02474,0 0.04492,10e-4 0.06055,0 0.01628,0 0.02897,0 0.03809,0.01 0.0098,0 0.01595,0.01 0.01855,0.013 0.0033,0.01 0.0042,0.011 0.0029,0.018 l -0.238281,1.1953"
         id="path3756" />
      <path
         d="m 16.29208,1044.3999 c 0.0033,0.023 0.0046,0.042 0.0039,0.056 -1e-6,0.014 -0.0046,0.024 -0.01367,0.031 -0.0085,0.01 -0.02279,0.01 -0.04297,0.012 -0.02018,0 -0.04785,0 -0.08301,0 -0.02474,0 -0.04492,-7e-4 -0.06055,0 -0.01563,-6e-4 -0.02767,0 -0.03613,0 -0.0085,0 -0.01432,-0.01 -0.01758,-0.012 -0.0033,-0.01 -0.0052,-0.012 -0.0059,-0.022 l -0.03418,-0.2539 -0.47461,0 -0.130859,0.2481 c -0.0046,0.01 -0.0098,0.017 -0.01563,0.023 -0.0059,0.01 -0.01432,0.01 -0.02539,0.014 -0.01107,0 -0.02604,0.01 -0.04492,0.01 -0.01823,0 -0.04134,0 -0.06934,0 -0.02995,0 -0.05306,-10e-4 -0.06934,0 -0.01693,0 -0.028,-0.01 -0.0332,-0.014 -0.0059,-0.01 -0.0065,-0.019 -0.002,-0.032 0.0039,-0.014 0.01205,-0.032 0.02441,-0.055 l 0.613281,-1.121 c 0.0065,-0.011 0.01302,-0.02 0.01953,-0.026 0.0065,-0.01 0.01562,-0.012 0.02734,-0.016 0.01237,0 0.02864,-0.01 0.04883,-0.01 0.02083,0 0.04785,0 0.08105,0 0.03841,0 0.06868,6e-4 0.09082,0 0.02279,7e-4 0.04036,0 0.05273,0.01 0.01237,0 0.02051,0.01 0.02441,0.016 0.0039,0.01 0.0065,0.017 0.0078,0.029 l 0.165039,1.1201 m -0.383789,-0.9268 -9.77e-4,0 -0.282226,0.5372 0.355468,0 -0.07226,-0.5372"
         id="path3758" />
      <path
         d="m 17.950283,1043.5415 c -10e-7,0.036 -0.0042,0.074 -0.01269,0.1143 -0.0078,0.04 -0.02084,0.079 -0.03906,0.1171 -0.01823,0.038 -0.04199,0.074 -0.07129,0.1084 -0.02865,0.034 -0.06413,0.064 -0.106445,0.091 -0.04167,0.026 -0.09017,0.047 -0.145508,0.062 -0.05534,0.015 -0.120443,0.022 -0.195312,0.022 l -0.131836,0 -0.08106,0.4043 c -0.0013,0.01 -0.0046,0.012 -0.0098,0.018 -0.0052,0.01 -0.01335,0.01 -0.02441,0.013 -0.01107,0 -0.02506,0.01 -0.04199,0.01 -0.01693,0 -0.03776,0 -0.0625,0 -0.02409,0 -0.04427,-10e-4 -0.06055,0 -0.01563,0 -0.028,0 -0.03711,-0.01 -0.0091,0 -0.0153,-0.01 -0.01855,-0.012 -0.0033,-0.01 -0.0039,-0.011 -0.002,-0.019 l 0.227539,-1.1377 c 0.0059,-0.031 0.01855,-0.053 0.03809,-0.068 0.01953,-0.016 0.04362,-0.024 0.07227,-0.024 l 0.276367,0 c 0.03385,0 0.06413,0 0.09082,0 0.02669,0 0.05306,0.01 0.0791,0.011 0.03971,0.01 0.07519,0.02 0.106445,0.036 0.0319,0.016 0.05892,0.037 0.08106,0.062 0.02213,0.024 0.03906,0.053 0.05078,0.086 0.01172,0.033 0.01758,0.07 0.01758,0.1113 m -0.270508,0.029 c -1e-6,-0.031 -0.0075,-0.058 -0.02246,-0.081 -0.01497,-0.023 -0.03809,-0.039 -0.06934,-0.048 -0.01367,0 -0.02897,-0.01 -0.0459,-0.01 -0.01693,0 -0.03581,0 -0.05664,0 l -0.113281,0 -0.08398,0.4287 0.117187,0 c 0.03711,0 0.06868,0 0.09473,-0.013 0.02669,-0.01 0.0498,-0.021 0.06934,-0.035 0.02018,-0.014 0.03711,-0.031 0.05078,-0.051 0.01432,-0.02 0.02572,-0.04 0.03418,-0.062 0.0091,-0.021 0.01562,-0.043 0.01953,-0.064 0.0039,-0.022 0.0059,-0.043 0.0059,-0.063"
         id="path3760" />
      <path
         d="m 18.692471,1044.3228 c -1e-6,0 -6.52e-4,0.012 -0.002,0.022 -6.51e-4,0.01 -0.0023,0.021 -0.0049,0.034 -0.002,0.013 -0.0049,0.026 -0.0088,0.04 -0.0033,0.014 -0.0075,0.026 -0.0127,0.038 -0.0046,0.011 -0.01009,0.02 -0.0166,0.027 -0.0065,0.01 -0.014,0.011 -0.02246,0.011 l -0.579102,0 c -0.01042,0 -0.02018,0 -0.0293,0 -0.0085,0 -0.01563,-0.01 -0.02148,-0.015 -0.0052,-0.01 -0.0088,-0.016 -0.01074,-0.025 -0.002,-0.011 -0.0016,-0.023 9.76e-4,-0.037 l 0.230469,-1.1485 c 6.51e-4,-0.01 0.0036,-0.012 0.0088,-0.018 0.0052,-0.01 0.01302,-0.01 0.02344,-0.013 0.01107,0 0.02474,-0.01 0.04101,-0.01 0.01693,0 0.03809,0 0.06348,0 0.02474,0 0.04525,10e-4 0.06152,0 0.01628,0 0.02897,0 0.03809,0.01 0.0091,0 0.01497,0.01 0.01758,0.013 0.0033,0.01 0.0042,0.011 0.0029,0.018 l -0.203125,1.0176 0.398437,0 c 0.0091,0 0.0153,0 0.01855,0.011 0.0039,0.01 0.0059,0.017 0.0059,0.028"
         id="path3762" />
      <path
         d="m 19.870205,1044.3999 c 0.0033,0.023 0.0046,0.042 0.0039,0.056 -1e-6,0.014 -0.0046,0.024 -0.01367,0.031 -0.0085,0.01 -0.02279,0.01 -0.04297,0.012 -0.02018,0 -0.04785,0 -0.08301,0 -0.02474,0 -0.04492,-7e-4 -0.06055,0 -0.01563,-6e-4 -0.02767,0 -0.03613,0 -0.0085,0 -0.01432,-0.01 -0.01758,-0.012 -0.0033,-0.01 -0.0052,-0.012 -0.0059,-0.022 l -0.03418,-0.2539 -0.47461,0 -0.130859,0.2481 c -0.0046,0.01 -0.0098,0.017 -0.01563,0.023 -0.0059,0.01 -0.01432,0.01 -0.02539,0.014 -0.01107,0 -0.02604,0.01 -0.04492,0.01 -0.01823,0 -0.04134,0 -0.06934,0 -0.02995,0 -0.05306,-10e-4 -0.06934,0 -0.01693,0 -0.028,-0.01 -0.0332,-0.014 -0.0059,-0.01 -0.0065,-0.019 -0.002,-0.032 0.0039,-0.014 0.01205,-0.032 0.02442,-0.055 l 0.613281,-1.121 c 0.0065,-0.011 0.01302,-0.02 0.01953,-0.026 0.0065,-0.01 0.01562,-0.012 0.02734,-0.016 0.01237,0 0.02865,-0.01 0.04883,-0.01 0.02083,0 0.04785,0 0.08106,0 0.03841,0 0.06868,6e-4 0.09082,0 0.02279,7e-4 0.04036,0 0.05273,0.01 0.01237,0 0.02051,0.01 0.02441,0.016 0.0039,0.01 0.0065,0.017 0.0078,0.029 l 0.165039,1.1201 m -0.383789,-0.9268 -9.77e-4,0 -0.282226,0.5372 0.355468,0 -0.07227,-0.5372"
         id="path3764" />
      <path
         d="m 20.454189,1044.0161 -0.08789,0.4453 c -0.002,0.01 -0.0055,0.012 -0.01074,0.018 -0.0052,0.01 -0.01335,0.01 -0.02441,0.013 -0.01042,0 -0.02409,0.01 -0.04102,0.01 -0.01693,0 -0.03776,0 -0.0625,0 -0.02474,0 -0.04525,-10e-4 -0.06152,0 -0.01628,0 -0.02897,0 -0.03809,-0.01 -0.0085,0 -0.01432,-0.01 -0.01758,-0.013 -0.0026,-0.01 -0.0033,-0.011 -0.002,-0.018 l 0.08789,-0.4453 -0.207031,-0.6885 c -0.0072,-0.023 -0.01172,-0.041 -0.01367,-0.055 -0.0013,-0.014 0.002,-0.024 0.0098,-0.03 0.0078,-0.01 0.02148,-0.012 0.04102,-0.014 0.01953,0 0.0472,0 0.08301,0 0.02734,0 0.04883,6e-4 0.06445,0 0.01628,7e-4 0.02897,0 0.03809,0.01 0.0091,0 0.0153,0.01 0.01855,0.015 0.0039,0.01 0.0072,0.014 0.0098,0.024 l 0.08496,0.3037 c 0.0098,0.036 0.01823,0.071 0.02539,0.1045 0.0078,0.033 0.01465,0.067 0.02051,0.1025 l 0.002,0 c 0.01823,-0.035 0.03711,-0.07 0.05664,-0.1035 0.01953,-0.034 0.04036,-0.068 0.0625,-0.1016 l 0.202149,-0.3086 c 0.0052,-0.01 0.01074,-0.015 0.0166,-0.021 0.0059,-0.01 0.014,-0.01 0.02441,-0.014 0.01042,0 0.02409,-0.01 0.04102,-0.01 0.01758,0 0.04102,0 0.07031,0 0.03776,0 0.06641,0 0.08594,0 0.02018,0 0.0332,0.01 0.03906,0.015 0.0065,0.01 0.0062,0.018 -9.76e-4,0.031 -0.0065,0.013 -0.01725,0.03 -0.03223,0.052 l -0.484375,0.6885"
         id="path3766" />
      <path
         d="m 21.872158,1043.269 c -10e-7,0 -6.52e-4,0.011 -0.002,0.021 -6.52e-4,0.01 -0.002,0.021 -0.0039,0.033 -0.002,0.012 -0.0046,0.024 -0.0078,0.037 -0.0033,0.013 -0.0075,0.025 -0.0127,0.036 -0.0046,0.01 -0.01042,0.019 -0.01758,0.026 -0.0065,0.01 -0.01367,0.011 -0.02149,0.011 l -0.451172,0 -0.0625,0.3086 0.382813,0 c 0.0091,0 0.01562,0 0.01953,0.01 0.0039,0.01 0.0059,0.016 0.0059,0.027 -1e-6,0 -6.52e-4,0.012 -0.002,0.022 -6.51e-4,0.01 -0.002,0.02 -0.0039,0.032 -0.002,0.012 -0.0046,0.024 -0.0078,0.036 -0.0033,0.012 -0.0075,0.024 -0.0127,0.034 -0.0046,0.01 -0.01009,0.019 -0.0166,0.025 -0.0065,0.01 -0.01367,0.01 -0.02148,0.01 l -0.381835,0 -0.07227,0.3564 0.457031,0 c 0.0078,0 0.01367,0 0.01758,0.011 0.0039,0.01 0.0059,0.016 0.0059,0.029 -10e-7,0 -3.27e-4,0.012 -9.77e-4,0.022 -6.52e-4,0.01 -0.0023,0.021 -0.0049,0.033 -0.002,0.012 -0.0046,0.024 -0.0078,0.036 -0.0033,0.012 -0.0075,0.024 -0.0127,0.035 -0.0046,0.011 -0.01009,0.019 -0.0166,0.025 -0.0065,0.01 -0.014,0.01 -0.02246,0.01 l -0.634766,0 c -0.01042,0 -0.01986,0 -0.02832,0 -0.0085,0 -0.01563,-0.01 -0.02148,-0.015 -0.0052,-0.01 -0.0088,-0.016 -0.01074,-0.025 -0.002,-0.011 -0.0016,-0.023 9.77e-4,-0.037 l 0.220703,-1.1016 c 0.0059,-0.029 0.01758,-0.049 0.03516,-0.062 0.01758,-0.013 0.03711,-0.02 0.05859,-0.02 l 0.628906,0 c 0.01693,0 0.02539,0.012 0.02539,0.037"
         id="path3768" />
      <path
         d="m 22.925869,1043.5073 c -10e-7,0.042 -0.0059,0.083 -0.01758,0.124 -0.01107,0.041 -0.02897,0.08 -0.05371,0.1163 -0.02474,0.036 -0.05697,0.069 -0.09668,0.099 -0.03906,0.029 -0.08691,0.053 -0.143554,0.07 0.03125,0.012 0.05729,0.037 0.07813,0.074 0.02148,0.036 0.03906,0.087 0.05273,0.1504 l 0.05176,0.2568 c 0.0026,0.014 0.0046,0.027 0.0059,0.039 0.002,0.011 0.0029,0.021 0.0029,0.028 -1e-6,0.01 -0.0023,0.012 -0.0068,0.017 -0.0039,0 -0.01139,0.01 -0.02246,0.012 -0.01107,0 -0.02637,0 -0.0459,0.01 -0.01888,0 -0.04297,0 -0.07227,0 -0.02734,0 -0.04948,-10e-4 -0.06641,0 -0.01628,0 -0.02897,0 -0.03809,-0.01 -0.0091,0 -0.0153,-0.01 -0.01856,-0.015 -0.0026,-0.01 -0.0046,-0.013 -0.0059,-0.021 l -0.04883,-0.2802 c -0.0052,-0.033 -0.01237,-0.061 -0.02148,-0.086 -0.0085,-0.025 -0.01953,-0.045 -0.0332,-0.062 -0.01367,-0.017 -0.0306,-0.029 -0.05078,-0.037 -0.01953,-0.01 -0.04297,-0.013 -0.07031,-0.013 l -0.08008,0 -0.09668,0.4824 c -0.0013,0.01 -0.0046,0.012 -0.0098,0.018 -0.0052,0.01 -0.01335,0.01 -0.02441,0.013 -0.01042,0 -0.02409,0.01 -0.04102,0.01 -0.01693,0 -0.03776,0 -0.0625,0 -0.02474,0 -0.04525,-10e-4 -0.06152,0 -0.01563,0 -0.028,0 -0.03711,-0.01 -0.0091,0 -0.0153,-0.01 -0.01855,-0.012 -0.0033,-0.01 -0.0039,-0.011 -0.002,-0.019 l 0.230469,-1.1484 c 0.0052,-0.029 0.0166,-0.049 0.03418,-0.062 0.01823,-0.013 0.03906,-0.02 0.0625,-0.02 l 0.338867,0 c 0.05924,0 0.112629,0.01 0.160156,0.017 0.04818,0.011 0.08919,0.028 0.123047,0.051 0.03385,0.023 0.0599,0.051 0.07813,0.086 0.01823,0.034 0.02734,0.075 0.02734,0.122 m -0.275391,0.048 c 0,-0.018 -0.0033,-0.035 -0.0098,-0.051 -0.0059,-0.016 -0.01563,-0.029 -0.0293,-0.04 -0.01367,-0.012 -0.03158,-0.021 -0.05371,-0.026 -0.02148,-0.01 -0.04753,-0.01 -0.07813,-0.01 l -0.145508,0 -0.07129,0.3584 0.12207,0 c 0.04883,0 0.09017,-0.01 0.124024,-0.02 0.03385,-0.014 0.0612,-0.033 0.08203,-0.055 0.02083,-0.022 0.03581,-0.046 0.04492,-0.073 0.0098,-0.027 0.01465,-0.055 0.01465,-0.083"
         id="path3770" />
    </g>
    <g
       transform="translate(0.1480307,8.0253)"
       id="g3029"
       style="font-size:8px;font-style:normal;font-variant:normal;font-weight:bold;font-stretch:normal;fill:#ffffff;fill-opacity:1;stroke:none;font-family:Calibri;-inkscape-font-specification:'A.C.M.E. Secret Agent Bold'">
      <path
         id="path3031"
         d="m 21.834265,1038.2294 c 0.03125,0.094 0.05078,0.1679 0.05859,0.2226 0.0078,0.055 -0.0026,0.096 -0.03125,0.125 -0.02865,0.026 -0.07943,0.042 -0.152344,0.047 -0.07292,0.01 -0.173182,0.012 -0.300781,0.012 -0.132817,0 -0.236984,0 -0.3125,-0.01 -0.07292,0 -0.128911,-0.01 -0.167969,-0.019 -0.03907,-0.013 -0.06641,-0.03 -0.08203,-0.051 -0.01563,-0.021 -0.02865,-0.048 -0.03906,-0.082 l -0.339844,-1.0157 -1.898437,0 -0.320313,0.9883 c -0.01042,0.036 -0.02474,0.068 -0.04297,0.094 -0.01563,0.023 -0.04297,0.043 -0.08203,0.059 -0.03646,0.013 -0.08984,0.022 -0.160156,0.027 -0.06771,0.01 -0.157553,0.01 -0.269531,0.01 -0.119792,0 -0.213542,0 -0.28125,-0.012 -0.06771,-0.01 -0.114584,-0.026 -0.140625,-0.055 -0.02604,-0.031 -0.03516,-0.074 -0.02734,-0.1289 0.0078,-0.055 0.02734,-0.1276 0.05859,-0.2187 l 1.558594,-4.4844 c 0.01562,-0.044 0.03385,-0.079 0.05469,-0.1055 0.02083,-0.029 0.05338,-0.049 0.09766,-0.062 0.04687,-0.016 0.110675,-0.025 0.191407,-0.027 0.08073,-0.01 0.187497,-0.01 0.320312,-0.01 0.153643,0 0.276039,0 0.367188,0.01 0.09114,0 0.161455,0.012 0.210937,0.027 0.05208,0.013 0.08854,0.034 0.109375,0.062 0.02343,0.029 0.04297,0.068 0.05859,0.1172 l 1.5625,4.4805 m -2.320313,-3.7071 -0.0039,0 -0.714844,2.1485 1.433594,0 -0.714844,-2.1485"
         style="fill:#ffffff;fill-opacity:1" />
      <path
         id="path3033"
         d="m 24.646765,1038.4325 c -0.01302,0.044 -0.02995,0.081 -0.05078,0.1094 -0.02084,0.026 -0.05469,0.047 -0.101563,0.062 -0.04688,0.013 -0.11068,0.021 -0.191406,0.023 -0.08073,0.01 -0.186201,0.01 -0.316406,0.01 -0.104169,0 -0.194013,0 -0.269532,0 -0.07292,0 -0.135418,0 -0.1875,-0.01 -0.05208,-0.01 -0.09505,-0.013 -0.128906,-0.023 -0.03125,-0.011 -0.0586,-0.024 -0.08203,-0.039 -0.02083,-0.016 -0.03776,-0.034 -0.05078,-0.055 -0.01042,-0.023 -0.02084,-0.052 -0.03125,-0.086 l -1.503907,-4.4805 c -0.03125,-0.094 -0.05078,-0.168 -0.05859,-0.2226 -0.0052,-0.055 0.0078,-0.095 0.03906,-0.1211 0.03385,-0.029 0.08984,-0.046 0.167969,-0.051 0.07812,-0.01 0.187499,-0.012 0.328125,-0.012 0.119791,0 0.213541,0 0.28125,0.01 0.06771,0.01 0.11979,0.014 0.15625,0.027 0.03646,0.013 0.0612,0.033 0.07422,0.059 0.01562,0.026 0.02995,0.059 0.04297,0.098 l 1.230469,3.8984 0.0039,0 1.207032,-3.8789 c 0.01041,-0.044 0.02343,-0.079 0.03906,-0.1055 0.01562,-0.029 0.04166,-0.051 0.07813,-0.066 0.03906,-0.016 0.09375,-0.026 0.164063,-0.031 0.07031,-0.01 0.166662,-0.01 0.289062,-0.01 0.119787,0 0.212235,0 0.277344,0.012 0.0677,0.01 0.113276,0.027 0.136719,0.059 0.02604,0.029 0.03385,0.07 0.02344,0.125 -0.0078,0.055 -0.02735,0.1276 -0.05859,0.2187 l -1.507812,4.4844"
         style="fill:#ffffff;fill-opacity:1" />
      <path
         id="path3035"
         d="m 27.896765,1038.4716 c -2e-6,0.026 -0.0091,0.049 -0.02734,0.07 -0.01563,0.021 -0.04297,0.038 -0.08203,0.051 -0.03906,0.013 -0.09115,0.023 -0.15625,0.031 -0.06511,0.01 -0.148439,0.012 -0.25,0.012 -0.09896,0 -0.182293,0 -0.25,-0.012 -0.0651,-0.01 -0.117188,-0.018 -0.15625,-0.031 -0.03906,-0.013 -0.06771,-0.03 -0.08594,-0.051 -0.01563,-0.021 -0.02344,-0.044 -0.02344,-0.07 l 0,-4.7735 c -10e-7,-0.026 0.0078,-0.05 0.02344,-0.07 0.01823,-0.021 0.04687,-0.038 0.08594,-0.051 0.04167,-0.013 0.09505,-0.023 0.160156,-0.031 0.0651,-0.01 0.147134,-0.012 0.246094,-0.012 0.101561,0 0.184894,0 0.25,0.012 0.0651,0.01 0.117186,0.018 0.15625,0.031 0.03906,0.013 0.0664,0.03 0.08203,0.051 0.01823,0.021 0.02734,0.044 0.02734,0.07 l 0,4.7735"
         style="fill:#ffffff;fill-opacity:1" />
    </g>
    <g
       style="font-size:8px;font-style:normal;font-variant:normal;font-weight:bold;font-stretch:normal;fill:#333333;fill-opacity:1;stroke:none;font-family:Calibri;-inkscape-font-specification:'A.C.M.E. Secret Agent Bold'"
       id="text2938"
       transform="translate(0.1480307,7.7253)">
      <path
         d="m 21.834265,1038.2294 c 0.03125,0.094 0.05078,0.1679 0.05859,0.2226 0.0078,0.055 -0.0026,0.096 -0.03125,0.125 -0.02865,0.026 -0.07943,0.042 -0.152344,0.047 -0.07292,0.01 -0.173182,0.012 -0.300781,0.012 -0.132817,0 -0.236984,0 -0.3125,-0.01 -0.07292,0 -0.128911,-0.01 -0.167969,-0.019 -0.03907,-0.013 -0.06641,-0.03 -0.08203,-0.051 -0.01563,-0.021 -0.02865,-0.048 -0.03906,-0.082 l -0.339844,-1.0157 -1.898437,0 -0.320313,0.9883 c -0.01042,0.036 -0.02474,0.068 -0.04297,0.094 -0.01563,0.023 -0.04297,0.043 -0.08203,0.059 -0.03646,0.013 -0.08984,0.022 -0.160156,0.027 -0.06771,0.01 -0.157553,0.01 -0.269531,0.01 -0.119792,0 -0.213542,0 -0.28125,-0.012 -0.06771,-0.01 -0.114584,-0.026 -0.140625,-0.055 -0.02604,-0.031 -0.03516,-0.074 -0.02734,-0.1289 0.0078,-0.055 0.02734,-0.1276 0.05859,-0.2187 l 1.558594,-4.4844 c 0.01562,-0.044 0.03385,-0.079 0.05469,-0.1055 0.02083,-0.029 0.05338,-0.049 0.09766,-0.062 0.04687,-0.016 0.110675,-0.025 0.191407,-0.027 0.08073,-0.01 0.187497,-0.01 0.320312,-0.01 0.153643,0 0.276039,0 0.367188,0.01 0.09114,0 0.161455,0.012 0.210937,0.027 0.05208,0.013 0.08854,0.034 0.109375,0.062 0.02343,0.029 0.04297,0.068 0.05859,0.1172 l 1.5625,4.4805 m -2.320313,-3.7071 -0.0039,0 -0.714844,2.1485 1.433594,0 -0.714844,-2.1485"
         id="path2943" />
      <path
         d="m 24.646765,1038.4325 c -0.01302,0.044 -0.02995,0.081 -0.05078,0.1094 -0.02084,0.026 -0.05469,0.047 -0.101563,0.062 -0.04688,0.013 -0.11068,0.021 -0.191406,0.023 -0.08073,0.01 -0.186201,0.01 -0.316406,0.01 -0.104169,0 -0.194013,0 -0.269532,0 -0.07292,0 -0.135418,0 -0.1875,-0.01 -0.05208,-0.01 -0.09505,-0.013 -0.128906,-0.023 -0.03125,-0.011 -0.0586,-0.024 -0.08203,-0.039 -0.02083,-0.016 -0.03776,-0.034 -0.05078,-0.055 -0.01042,-0.023 -0.02084,-0.052 -0.03125,-0.086 l -1.503907,-4.4805 c -0.03125,-0.094 -0.05078,-0.168 -0.05859,-0.2226 -0.0052,-0.055 0.0078,-0.095 0.03906,-0.1211 0.03385,-0.029 0.08984,-0.046 0.167969,-0.051 0.07812,-0.01 0.187499,-0.012 0.328125,-0.012 0.119791,0 0.213541,0 0.28125,0.01 0.06771,0.01 0.11979,0.014 0.15625,0.027 0.03646,0.013 0.0612,0.033 0.07422,0.059 0.01562,0.026 0.02995,0.059 0.04297,0.098 l 1.230469,3.8984 0.0039,0 1.207032,-3.8789 c 0.01041,-0.044 0.02343,-0.079 0.03906,-0.1055 0.01562,-0.029 0.04166,-0.051 0.07813,-0.066 0.03906,-0.016 0.09375,-0.026 0.164063,-0.031 0.07031,-0.01 0.166662,-0.01 0.289062,-0.01 0.119787,0 0.212235,0 0.277344,0.012 0.0677,0.01 0.113276,0.027 0.136719,0.059 0.02604,0.029 0.03385,0.07 0.02344,0.125 -0.0078,0.055 -0.02735,0.1276 -0.05859,0.2187 l -1.507812,4.4844"
         id="path2945" />
      <path
         d="m 27.896765,1038.4716 c -2e-6,0.026 -0.0091,0.049 -0.02734,0.07 -0.01563,0.021 -0.04297,0.038 -0.08203,0.051 -0.03906,0.013 -0.09115,0.023 -0.15625,0.031 -0.06511,0.01 -0.148439,0.012 -0.25,0.012 -0.09896,0 -0.182293,0 -0.25,-0.012 -0.0651,-0.01 -0.117188,-0.018 -0.15625,-0.031 -0.03906,-0.013 -0.06771,-0.03 -0.08594,-0.051 -0.01563,-0.021 -0.02344,-0.044 -0.02344,-0.07 l 0,-4.7735 c -10e-7,-0.026 0.0078,-0.05 0.02344,-0.07 0.01823,-0.021 0.04687,-0.038 0.08594,-0.051 0.04167,-0.013 0.09505,-0.023 0.160156,-0.031 0.0651,-0.01 0.147134,-0.012 0.246094,-0.012 0.101561,0 0.184894,0 0.25,0.012 0.0651,0.01 0.117186,0.018 0.15625,0.031 0.03906,0.013 0.0664,0.03 0.08203,0.051 0.01823,0.021 0.02734,0.044 0.02734,0.07 l 0,4.7735"
         id="path2947" />
    </g>
  </g>
</svg>
