<?xml version="1.0" encoding="UTF-8" standalone="no"?>
<!-- Created with Inkscape (http://www.inkscape.org/) -->

<svg
   xmlns:dc="http://purl.org/dc/elements/1.1/"
   xmlns:cc="http://creativecommons.org/ns#"
   xmlns:rdf="http://www.w3.org/1999/02/22-rdf-syntax-ns#"
   xmlns:svg="http://www.w3.org/2000/svg"
   xmlns="http://www.w3.org/2000/svg"
   xmlns:xlink="http://www.w3.org/1999/xlink"
   xmlns:sodipodi="http://sodipodi.sourceforge.net/DTD/sodipodi-0.dtd"
   xmlns:inkscape="http://www.inkscape.org/namespaces/inkscape"
   width="48"
   height="48"
   id="svg2"
   version="1.1"
   inkscape:version="0.47pre4 r22446"
   sodipodi:docname="gnome-mime-application-x-rpm4.svg"
   inkscape:export-filename="/home/andrea/.icons/MeliaeSVG/48/apps/png/scatola-legno512.png"
   inkscape:export-xdpi="960"
   inkscape:export-ydpi="960">
  <defs
     id="defs4">
    <linearGradient
       id="linearGradient4039">
      <stop
         style="stop-color:#b49646;stop-opacity:1;"
         offset="0"
         id="stop4041" />
      <stop
         style="stop-color:#8c6e1e;stop-opacity:1;"
         offset="1"
         id="stop4043" />
    </linearGradient>
    <linearGradient
       id="linearGradient4029">
      <stop
         id="stop4031"
         offset="0"
         style="stop-color:#f0f0f0;stop-opacity:0.78431374;" />
      <stop
         style="stop-color:#f0f0f0;stop-opacity:0;"
         offset="0.02248874"
         id="stop4033" />
      <stop
         style="stop-color:#ebb778;stop-opacity:0;"
         offset="0.93861884"
         id="stop4035" />
      <stop
         id="stop4037"
         offset="1"
         style="stop-color:#f0f0f0;stop-opacity:0;" />
    </linearGradient>
    <linearGradient
       id="linearGradient4021">
      <stop
         style="stop-color:#d2b464;stop-opacity:1;"
         offset="0"
         id="stop4023" />
      <stop
         style="stop-color:#a08232;stop-opacity:1;"
         offset="1"
         id="stop4025" />
    </linearGradient>
    <linearGradient
       id="linearGradient4001">
      <stop
         style="stop-color:#dcdcb4;stop-opacity:0.78431374;"
         offset="0"
         id="stop4003" />
      <stop
         id="stop4017"
         offset="0.0625"
         style="stop-color:#dcdcb4;stop-opacity:0.78431373;" />
      <stop
         id="stop4013"
         offset="0.33749759"
         style="stop-color:#ffffff;stop-opacity:0.78431374;" />
      <stop
         id="stop4011"
         offset="0.50914341"
         style="stop-color:#dcdcb4;stop-opacity:0.78431374;" />
      <stop
         id="stop4009"
         offset="0.62957168"
         style="stop-color:#dcdcb4;stop-opacity:0.78431374;" />
      <stop
         style="stop-color:#ffffff;stop-opacity:0.78431374;"
         offset="0.79085177"
         id="stop4019" />
      <stop
         style="stop-color:#dcdcb4;stop-opacity:0.78431374;"
         offset="0.90548605"
         id="stop4015" />
      <stop
         style="stop-color:#dcdcb4;stop-opacity:0.78431374;"
         offset="1"
         id="stop4005" />
    </linearGradient>
    <linearGradient
       id="linearGradient3756">
      <stop
         style="stop-color:#f0f0f0;stop-opacity:1;"
         offset="0"
         id="stop3758" />
      <stop
         style="stop-color:#c8c8c8;stop-opacity:1;"
         offset="1"
         id="stop3760" />
    </linearGradient>
    <linearGradient
       id="linearGradient3720">
      <stop
         id="stop3722"
         offset="0"
         style="stop-color:#e3b577;stop-opacity:1;" />
      <stop
         style="stop-color:#e3b577;stop-opacity:0;"
         offset="0.17627905"
         id="stop3724" />
      <stop
         style="stop-color:#e3b577;stop-opacity:0;"
         offset="0.74994612"
         id="stop3726" />
      <stop
         id="stop3728"
         offset="1"
         style="stop-color:#e3b577;stop-opacity:1;" />
    </linearGradient>
    <linearGradient
       id="linearGradient3704">
      <stop
         style="stop-color:#e3b577;stop-opacity:1;"
         offset="0"
         id="stop3706" />
      <stop
         id="stop3714"
         offset="0.13721804"
         style="stop-color:#e3b577;stop-opacity:0;" />
      <stop
         id="stop3712"
         offset="0.87828946"
         style="stop-color:#e3b577;stop-opacity:0;" />
      <stop
         style="stop-color:#e3b577;stop-opacity:1;"
         offset="1"
         id="stop3708" />
    </linearGradient>
    <linearGradient
       inkscape:collect="always"
       id="linearGradient3798">
      <stop
         style="stop-color:#333333;stop-opacity:1;"
         offset="0"
         id="stop3800" />
      <stop
         style="stop-color:#333333;stop-opacity:0;"
         offset="1"
         id="stop3802" />
    </linearGradient>
    <linearGradient
       id="linearGradient3758">
      <stop
         id="stop3768"
         offset="0"
         style="stop-color:#333333;stop-opacity:0.78431374;" />
      <stop
         style="stop-color:#333333;stop-opacity:0;"
         offset="1"
         id="stop3762" />
    </linearGradient>
    <linearGradient
       id="linearGradient3645">
      <stop
         style="stop-color:#f0f0f0;stop-opacity:0.78431374;"
         offset="0"
         id="stop3647" />
      <stop
         id="stop3655"
         offset="0.04730492"
         style="stop-color:#f0f0f0;stop-opacity:0;" />
      <stop
         id="stop3653"
         offset="0.93861884"
         style="stop-color:#f0f0f0;stop-opacity:0;" />
      <stop
         style="stop-color:#646464;stop-opacity:0.78431374;"
         offset="1"
         id="stop3649" />
    </linearGradient>
    <linearGradient
       id="linearGradient3637">
      <stop
         id="stop3639"
         offset="0"
         style="stop-color:#feedd2;stop-opacity:1" />
      <stop
         id="stop3641"
         offset="1"
         style="stop-color:#feedd2;stop-opacity:0;" />
    </linearGradient>
    <linearGradient
       id="linearGradient3625">
      <stop
         style="stop-color:#b4853f;stop-opacity:1"
         offset="0"
         id="stop3627" />
      <stop
         style="stop-color:#b4853f;stop-opacity:0;"
         offset="1"
         id="stop3629" />
    </linearGradient>
    <linearGradient
       id="linearGradient3587">
      <stop
         style="stop-color:#f7d7a1;stop-opacity:1;"
         offset="0"
         id="stop3589" />
      <stop
         style="stop-color:#d59857;stop-opacity:1;"
         offset="1"
         id="stop3591" />
    </linearGradient>
    <inkscape:perspective
       sodipodi:type="inkscape:persp3d"
       inkscape:vp_x="0 : 526.18109 : 1"
       inkscape:vp_y="0 : 1000 : 0"
       inkscape:vp_z="744.09448 : 526.18109 : 1"
       inkscape:persp3d-origin="372.04724 : 350.78739 : 1"
       id="perspective10" />
    <inkscape:perspective
       id="perspective2884"
       inkscape:persp3d-origin="0.5 : 0.33333333 : 1"
       inkscape:vp_z="1 : 0.5 : 1"
       inkscape:vp_y="0 : 1000 : 0"
       inkscape:vp_x="0 : 0.5 : 1"
       sodipodi:type="inkscape:persp3d" />
    <linearGradient
       inkscape:collect="always"
       xlink:href="#linearGradient3625"
       id="linearGradient3631"
       x1="23.066879"
       y1="1019.1055"
       x2="23.066881"
       y2="1045.4059"
       gradientUnits="userSpaceOnUse"
       gradientTransform="matrix(1.006689,0,0,0.9999745,-0.05429464,0.02632146)" />
    <linearGradient
       inkscape:collect="always"
       xlink:href="#linearGradient3637"
       id="linearGradient3635"
       gradientUnits="userSpaceOnUse"
       gradientTransform="matrix(1.0100335,0,0,0.99996178,-0.13144183,-2064.3716)"
       x1="23.066879"
       y1="1019.1055"
       x2="23.066879"
       y2="1067.4026" />
    <linearGradient
       inkscape:collect="always"
       xlink:href="#linearGradient3645"
       id="linearGradient3651"
       x1="4.1668806"
       y1="1032.2055"
       x2="42.166881"
       y2="1032.2055"
       gradientUnits="userSpaceOnUse"
       gradientTransform="translate(1.5252625e-6,-4.3359375e-7)" />
    <linearGradient
       inkscape:collect="always"
       xlink:href="#linearGradient3645"
       id="linearGradient3659"
       gradientUnits="userSpaceOnUse"
       x1="4.1668806"
       y1="1032.2055"
       x2="42.166881"
       y2="1032.2055"
       gradientTransform="matrix(0.89473684,0,0,1.1176471,1011.4772,-1176.8083)" />
    <filter
       inkscape:collect="always"
       id="filter3792"
       x="-0.063325942"
       width="1.1266519"
       y="-1.1424"
       height="3.2847999">
      <feGaussianBlur
         inkscape:collect="always"
         stdDeviation="1.0625"
         id="feGaussianBlur3794" />
    </filter>
    <radialGradient
       inkscape:collect="always"
       xlink:href="#linearGradient3798"
       id="radialGradient3804"
       cx="23.166881"
       cy="1048.5984"
       fx="23.166881"
       fy="1048.5984"
       r="20.133928"
       gradientTransform="matrix(1,0,0,0.05543237,0,990.97715)"
       gradientUnits="userSpaceOnUse" />
    <linearGradient
       inkscape:collect="always"
       xlink:href="#linearGradient3625"
       id="linearGradient3682"
       x1="23.166882"
       y1="1008.5552"
       x2="23.166882"
       y2="1013.3553"
       gradientUnits="userSpaceOnUse" />
    <linearGradient
       inkscape:collect="always"
       xlink:href="#linearGradient3637"
       id="linearGradient3686"
       gradientUnits="userSpaceOnUse"
       x1="19.059738"
       y1="1013.3553"
       x2="19.059738"
       y2="1008.5477" />
    <linearGradient
       inkscape:collect="always"
       xlink:href="#linearGradient3704"
       id="linearGradient3710"
       x1="4.1668816"
       y1="1011.2053"
       x2="42.166882"
       y2="1011.2053"
       gradientUnits="userSpaceOnUse" />
    <linearGradient
       inkscape:collect="always"
       xlink:href="#linearGradient3720"
       id="linearGradient3718"
       gradientUnits="userSpaceOnUse"
       x1="23.166882"
       y1="1007.2052"
       x2="23.166882"
       y2="1015.2055" />
    <linearGradient
       id="linearGradient3134">
      <stop
         id="stop3136"
         offset="0"
         style="stop-color: rgb(255, 193, 0); stop-opacity: 1;" />
      <stop
         id="stop3138"
         offset="1"
         style="stop-color: rgb(255, 0, 0); stop-opacity: 1;" />
    </linearGradient>
    <linearGradient
       id="linearGradient3182">
      <stop
         style="stop-color: rgb(142, 0, 0); stop-opacity: 1;"
         offset="0"
         id="stop3184" />
      <stop
         style="stop-color: rgb(189, 0, 0); stop-opacity: 1;"
         offset="1"
         id="stop3186" />
    </linearGradient>
    <inkscape:perspective
       id="perspective4780"
       inkscape:persp3d-origin="114.884 : 95.329 : 1"
       inkscape:vp_z="229.76801 : 142.9935 : 1"
       inkscape:vp_y="0 : 1000 : 0"
       inkscape:vp_x="0 : 142.9935 : 1"
       sodipodi:type="inkscape:persp3d" />
    <linearGradient
       inkscape:collect="always"
       xlink:href="#linearGradient3704"
       id="linearGradient4848"
       gradientUnits="userSpaceOnUse"
       x1="4.1668816"
       y1="1011.2053"
       x2="42.166882"
       y2="1011.2053"
       gradientTransform="translate(-16.66688,-14.152243)" />
    <linearGradient
       inkscape:collect="always"
       xlink:href="#linearGradient3720"
       id="linearGradient4851"
       gradientUnits="userSpaceOnUse"
       x1="23.166882"
       y1="1007.2052"
       x2="23.166882"
       y2="1015.2055"
       gradientTransform="translate(31.833119,-15.152243)" />
    <linearGradient
       inkscape:collect="always"
       xlink:href="#linearGradient4029"
       id="linearGradient4913"
       gradientUnits="userSpaceOnUse"
       gradientTransform="matrix(0.89473684,0,0,1.1176471,1011.5752,-1177.6414)"
       x1="4.1668806"
       y1="1032.2055"
       x2="42.166881"
       y2="1032.2055" />
    <radialGradient
       inkscape:collect="always"
       xlink:href="#linearGradient3798"
       id="radialGradient4917"
       gradientUnits="userSpaceOnUse"
       gradientTransform="matrix(1,0,0,0.05543237,0.83311939,991.07491)"
       cx="23.166881"
       cy="1048.5984"
       fx="23.166881"
       fy="1048.5984"
       r="20.133928" />
    <inkscape:perspective
       id="perspective4434"
       inkscape:persp3d-origin="54.5 : 48.333333 : 1"
       inkscape:vp_z="109 : 72.5 : 1"
       inkscape:vp_y="0 : 1000 : 0"
       inkscape:vp_x="0 : 72.5 : 1"
       sodipodi:type="inkscape:persp3d" />
    <linearGradient
       inkscape:collect="always"
       xlink:href="#linearGradient3756"
       id="linearGradient4590"
       gradientUnits="userSpaceOnUse"
       gradientTransform="matrix(1.2845259,0,0,0.99560639,2.4672278,1000.4528)"
       x1="-9.4575529"
       y1="26.344856"
       x2="-3.9774756"
       y2="46.497398" />
    <linearGradient
       inkscape:collect="always"
       xlink:href="#linearGradient3756"
       id="linearGradient3029"
       gradientUnits="userSpaceOnUse"
       gradientTransform="matrix(1.5344225,0,0,1.1892955,35.004555,996.22114)"
       x1="-9.4575529"
       y1="26.344856"
       x2="-3.9774756"
       y2="46.497398" />
    <linearGradient
       inkscape:collect="always"
       xlink:href="#linearGradient4001"
       id="linearGradient4007"
       x1="24"
       y1="1019.3622"
       x2="24"
       y2="1007.3032"
       gradientUnits="userSpaceOnUse" />
    <linearGradient
       inkscape:collect="always"
       xlink:href="#linearGradient4021"
       id="linearGradient4027"
       x1="24"
       y1="1015.3033"
       x2="24"
       y2="1049.3032"
       gradientUnits="userSpaceOnUse" />
    <linearGradient
       inkscape:collect="always"
       xlink:href="#linearGradient4039"
       id="linearGradient4045"
       x1="24.000002"
       y1="1011.3032"
       x2="24.000002"
       y2="1003.553"
       gradientUnits="userSpaceOnUse" />
    <clipPath
       id="clip0">
      <rect
         id="rect7"
         height="409"
         width="640" />
    </clipPath>
    <inkscape:perspective
       id="perspective45"
       inkscape:persp3d-origin="400 : 170.41667 : 1"
       inkscape:vp_z="800 : 255.625 : 1"
       inkscape:vp_y="0 : 1000 : 0"
       inkscape:vp_x="0 : 255.625 : 1"
       sodipodi:type="inkscape:persp3d" />
    <linearGradient
       inkscape:collect="always"
       xlink:href="#linearGradient3756"
       id="linearGradient2924"
       gradientUnits="userSpaceOnUse"
       gradientTransform="matrix(1.5344225,0,0,1.1892955,35.004555,996.22114)"
       x1="-9.4575529"
       y1="26.344856"
       x2="-3.9774756"
       y2="46.497398" />
    <linearGradient
       inkscape:collect="always"
       xlink:href="#linearGradient3756"
       id="linearGradient2923"
       gradientUnits="userSpaceOnUse"
       gradientTransform="matrix(1.5344225,0,0,1.1892955,35.004551,996.22114)"
       x1="-9.4575529"
       y1="26.344856"
       x2="-3.9774756"
       y2="46.497398" />
  </defs>
  <sodipodi:namedview
     id="base"
     pagecolor="#ffffff"
     bordercolor="#666666"
     borderopacity="1.0"
     inkscape:pageopacity="0.0"
     inkscape:pageshadow="2"
     inkscape:zoom="5.6568542"
     inkscape:cx="21.612705"
     inkscape:cy="-5.7906832"
     inkscape:document-units="px"
     inkscape:current-layer="layer1"
     showgrid="false"
     inkscape:window-width="1280"
     inkscape:window-height="714"
     inkscape:window-x="0"
     inkscape:window-y="25"
     inkscape:window-maximized="1" />
  <metadata
     id="metadata7">
    <rdf:RDF>
      <cc:Work
         rdf:about="">
        <dc:format>image/svg+xml</dc:format>
        <dc:type
           rdf:resource="http://purl.org/dc/dcmitype/StillImage" />
        <dc:title />
      </cc:Work>
    </rdf:RDF>
  </metadata>
  <g
     inkscape:label="Livello 1"
     inkscape:groupmode="layer"
     id="layer1"
     transform="translate(0,-1004.3622)">
    <rect
       style="fill:#333333;fill-opacity:0.39215686;stroke:none;filter:url(#filter3792)"
       id="rect3756"
       width="40.267857"
       height="2.2321429"
       x="3.8660717"
       y="1047.5801" />
    <rect
       y="1048.085"
       x="3.8660717"
       height="2.2321429"
       width="40.267857"
       id="rect3796"
       style="fill:url(#radialGradient4917);fill-opacity:1;stroke:none" />
    <rect
       style="fill:url(#linearGradient4027);fill-opacity:1;stroke:none"
       id="rect2890"
       width="38"
       height="34"
       x="5"
       y="1015.3033" />
    <rect
       style="fill:url(#linearGradient4913);fill-opacity:1;stroke:none"
       id="rect3657"
       width="34"
       height="38"
       x="1015.3033"
       y="-43"
       transform="matrix(0,1,-1,0,0,0)" />
    <path
       style="fill:url(#linearGradient4045);fill-opacity:1;stroke:none"
       d="m 10.000119,1007.303 28,0 4.999882,8.0003 -38,0 5.000118,-8.0003 z"
       id="rect2896"
       sodipodi:nodetypes="ccccc" />
    <path
       style="font-size:medium;font-style:normal;font-variant:normal;font-weight:normal;font-stretch:normal;text-indent:0;text-align:start;text-decoration:none;line-height:normal;letter-spacing:normal;word-spacing:normal;text-transform:none;direction:ltr;block-progression:tb;writing-mode:lr-tb;text-anchor:start;color:#000000;fill:#000000;fill-opacity:1;stroke:none;stroke-width:0.30000000999999998;marker:none;visibility:visible;display:inline;overflow:visible;enable-background:accumulate;font-family:'A.C.M.E. Secret Agent';-inkscape-font-specification:'A.C.M.E. Secret Agent'"
       d="m 23.843751,1007.303 0,7.958 0.3125,0 0,-7.958 -0.3125,0 z"
       id="path3993" />
    <path
       style="fill:url(#linearGradient4007);fill-opacity:1;stroke:none"
       d="m 22,1007.3032 4,0 1,8 0,4.059 -3,0 -3,0 0,-4.0589 1,-8.0001 z"
       id="path3999"
       sodipodi:nodetypes="cccccccc" />
    <rect
       transform="matrix(0.99999995,3.258507e-4,-3.258507e-4,0.99999995,0,0)"
       y="1025.6405"
       x="8.6175003"
       height="13.139982"
       width="31.05814"
       id="rect3032"
       style="fill:#6e5000;fill-opacity:1;stroke:none" />
    <rect
       style="fill:url(#linearGradient2923);fill-opacity:1;stroke:none"
       id="rect2982"
       width="31.05814"
       height="13.139982"
       x="8.8289261"
       y="1025.4507"
       transform="matrix(0.99999995,3.258507e-4,-3.258507e-4,0.99999995,0,0)" />
    <g
       id="g3046"
       transform="matrix(0.80610509,0.00202525,-0.00202525,0.80610509,23.602785,163.85351)">
      <path
         style="fill:#000000;fill-rule:nonzero;stroke:none"
         d="m 1.065141,1070.7648 c 0.473897,-0.073 0.951864,-0.1261 1.430958,-0.1513 0.08511,-0.02 0.17315,-0.016 0.260102,-0.019 0.679781,-0.022 1.360498,-0.021 2.039992,0.01 1.226419,0.087 2.446628,0.2904 3.629713,0.6301 l -0.005,0.01 c -0.173448,0.2346 -0.347403,0.4688 -0.517489,0.7058 -0.05096,0.01 -0.09557,-0.023 -0.140964,-0.039 -0.8976,-0.3704 -1.853076,-0.5854 -2.814765,-0.7017 -1.581828,-0.162 -3.201271,-0.032 -4.71877003,0.4549 -1.117265,0.3613 -2.19620497,0.9185 -3.02934997,1.7588 -0.590427,0.6038 -1.043743,1.3849 -1.105274,2.2407 -0.05725,0.4079 0.0404,0.815 0.126781,1.2108 -0.329945,0.034 -0.653172,0.1146 -0.980804,0.165 -0.92204,0.1653 -1.843927,0.3317 -2.766226,0.4956 -0.0091,-0.6612 0.163473,-1.3153 0.43804,-1.9134 0.546117,-1.1645 1.493129,-2.095 2.548331,-2.8074 0.713505,-0.4791 1.484772,-0.8699 2.285846,-1.1798 1.067213,-0.4172 2.18538597,-0.7023 3.318889,-0.8663 z"
         id="path16" />
      <path
         style="fill:#d72123;fill-rule:nonzero;stroke:none"
         d="m 7.903407,1071.9467 c 0.170086,-0.237 0.344041,-0.4712 0.517489,-0.7058 1.588505,0.4653 3.122503,1.1999 4.375551,2.2946 0.512366,0.4588 0.975776,0.9779 1.331687,1.5684 0.421465,0.695 0.688542,1.4909 0.717118,2.3062 -1.24588,-0.2177 -2.491414,-0.4373 -3.737125,-0.6558 0.153318,-0.4877 0.154627,-1.0186 0.04964,-1.5162 -0.194577,-0.86 -0.74593,-1.5984 -1.41099,-2.1589 -0.55441,-0.4665 -1.186906,-0.8404 -1.85703,-1.114 l 0.01366,-0.019 z"
         id="path20" />
      <path
         style="fill:#000000;fill-rule:nonzero;stroke:none"
         d="m 3.310411,1075.3817 c 0.07334,-0.1194 0.202461,-0.2147 0.34933,-0.197 0.166007,0 0.293932,0.1414 0.328322,0.2967 0.06866,0.064 0.183591,0.037 0.269383,0.071 0.855307,0.1468 1.710553,0.2969 2.564404,0.4515 0.205132,0.029 0.408008,0.071 0.61233,0.1055 0.08354,0.019 0.169937,0.023 0.253172,0.045 0.854592,0.1498 1.709924,0.2965 2.563266,0.453 0.286946,0.042 0.571194,0.1009 0.857509,0.1477 1.245711,0.2185 2.491245,0.4381 3.737125,0.6558 0.284245,0.055 0.57187,0.092 0.854832,0.1546 -0.01729,0.065 -0.03043,0.13 -0.0391,0.1963 -0.280737,-0.044 -0.559486,-0.1001 -0.839872,-0.1449 -1.355357,-0.2434 -2.713603,-0.4714 -4.068023,-0.7194 -0.84695,-0.1393 -1.691202,-0.296 -2.537171,-0.4418 -0.586715,-0.1043 -1.174661,-0.2048 -1.76095,-0.3115 -0.556921,-0.092 -1.112005,-0.1958 -1.668502,-0.2905 -0.278736,-0.046 -0.55551,-0.1039 -0.834959,-0.1453 -0.09341,0.1625 -0.310099,0.2465 -0.480335,0.1505 -0.118023,-0.052 -0.158287,-0.1779 -0.211552,-0.2839 -0.069,0 -0.137736,-0.013 -0.205792,-0.023 -0.170622,-0.036 -0.34332,-0.063 -0.515197,-0.092 0.0097,-0.068 0.02071,-0.1355 0.03305,-0.2028 0.247533,0.034 0.491188,0.092 0.738733,0.1258 z"
         id="path24" />
      <path
         style="fill:#000000;fill-rule:nonzero;stroke:none"
         d="m -7.546184,1078.1205 c 0.688299,0 1.376654,-8e-4 2.064981,0 6.81e-4,0.025 0.002,0.076 0.0027,0.102 0.500138,-0.1089 1.014163,-0.1552 1.525693,-0.127 0.372468,0.034 0.714447,0.1938 1.047545,0.3522 -0.375497,0.2322 -0.757592,0.4559 -1.124029,0.7016 -0.408333,-0.3153 -0.963308,-0.3156 -1.439503,-0.1776 -0.0059,0.051 -0.01153,0.102 -0.01204,0.1536 2.41e-4,1.185 5.72e-4,2.3699 -1.4e-4,3.5549 -0.68805,-2e-4 -1.376092,6e-4 -2.064138,-4e-4 -0.0015,-1.5191 7.26e-4,-3.0383 -0.0011,-4.5574 z"
         id="path28" />
      <path
         id="path32"
         d="m -2.1875,1078.1122 c 5.85e-4,1.9406 0.0013,3.9033 0,5.8438 0.102384,-0.01 0.21257,-0.01 0.3125,-0.031 0.587786,-0.079 1.16175797,-0.176 1.74999997,-0.25 0.0045,-0.3132 -1.51e-4,-0.6243 0,-0.9375 0.056277,0 0.13105,-0.031 0.1875,-0.031 0.888491,-0.06 1.74724903,-0.2912 2.53125003,-0.7188 0.458529,-0.2581 0.914646,-0.5957 1.125,-1.0937 0.179198,-0.4151 0.103275,-0.9019 -0.125,-1.2813 -0.300582,-0.4884 -0.794032,-0.8116 -1.3125,-1.0312 -0.834788,-0.3454 -1.75803803,-0.4788 -2.65625003,-0.4688 -0.606093,-9e-4 -1.20645497,-0.01 -1.81249997,0 z m 2.06249997,0.5 c 0.529419,0.053 1.013372,0.3714 1.37500003,0.75 0.311862,0.328 0.54491,0.7891 0.46875,1.25 -0.08325,0.4618 -0.419918,0.8146 -0.78125003,1.0938 -0.31383,0.2304 -0.671274,0.4479 -1.0625,0.5 -0.0013,-1.1917 -0.001575,-2.4021 0,-3.5938 z"
         style="fill:#000000;fill-rule:nonzero;stroke:none" />
      <path
         style="fill:#000000;fill-rule:nonzero;stroke:none"
         d="m 5.15849,1078.1216 c 2.365286,-0.01 4.73072,-9e-4 7.096076,0 0.692,0 1.395512,0.01 2.068667,0.1863 0.193735,0.064 0.452107,0.1397 0.503065,0.3649 0.0051,1.3361 0.0019,2.6726 0.0015,4.0089 -0.68844,-2e-4 -1.376846,-4e-4 -2.065233,10e-5 -1.51e-4,-1.3258 -0.0028,-2.6518 0.0013,-3.9776 -0.125063,-0.1085 -0.303353,-0.1039 -0.458631,-0.1228 -0.42458,-0.011 -0.849499,0 -1.27415,0 7.6e-5,1.3683 0.0015,2.7365 -7.2e-4,4.1048 -0.689415,-7e-4 -1.378799,2e-4 -2.06817,-5e-4 -0.002,-1.0959 -3.02e-4,-2.1919 -8.71e-4,-3.2879 -0.0055,-0.2394 0.012,-0.4798 -0.01043,-0.7185 -0.193964,-0.082 -0.406442,-0.098 -0.614419,-0.099 -0.369272,-6e-4 -0.738502,2e-4 -1.107703,-4e-4 -0.0018,1.3687 0.0022,2.7374 -0.002,4.1061 -0.649143,-8e-4 -1.298275,0 -1.947376,3e-4 -0.04471,0 -0.08639,-0.01 -0.125035,-0.026 0.01068,-1.5104 0.0026,-3.0213 0.0041,-4.5318 z"
         id="path36" />
    </g>
  </g>
</svg>
