<?xml version="1.0" encoding="UTF-8" standalone="no"?>
<!-- Created with Inkscape (http://www.inkscape.org/) -->

<svg
   xmlns:dc="http://purl.org/dc/elements/1.1/"
   xmlns:cc="http://creativecommons.org/ns#"
   xmlns:rdf="http://www.w3.org/1999/02/22-rdf-syntax-ns#"
   xmlns:svg="http://www.w3.org/2000/svg"
   xmlns="http://www.w3.org/2000/svg"
   xmlns:xlink="http://www.w3.org/1999/xlink"
   xmlns:sodipodi="http://sodipodi.sourceforge.net/DTD/sodipodi-0.dtd"
   xmlns:inkscape="http://www.inkscape.org/namespaces/inkscape"
   width="48"
   height="48"
   id="svg2"
   version="1.1"
   inkscape:version="0.47pre4 r22446"
   sodipodi:docname="gnome-mime-application-x-deb.svg"
   inkscape:export-filename="/home/andrea/.icons/MeliaeSVG/48/apps/png/scatola-legno512.png"
   inkscape:export-xdpi="960"
   inkscape:export-ydpi="960">
  <defs
     id="defs4">
    <linearGradient
       id="linearGradient4039">
      <stop
         style="stop-color:#b49646;stop-opacity:1;"
         offset="0"
         id="stop4041" />
      <stop
         style="stop-color:#8c6e1e;stop-opacity:1;"
         offset="1"
         id="stop4043" />
    </linearGradient>
    <linearGradient
       id="linearGradient4029">
      <stop
         id="stop4031"
         offset="0"
         style="stop-color:#f0f0f0;stop-opacity:0.78431374;" />
      <stop
         style="stop-color:#f0f0f0;stop-opacity:0;"
         offset="0.02248874"
         id="stop4033" />
      <stop
         style="stop-color:#ebb778;stop-opacity:0;"
         offset="0.93861884"
         id="stop4035" />
      <stop
         id="stop4037"
         offset="1"
         style="stop-color:#f0f0f0;stop-opacity:0;" />
    </linearGradient>
    <linearGradient
       id="linearGradient4021">
      <stop
         style="stop-color:#d2b464;stop-opacity:1;"
         offset="0"
         id="stop4023" />
      <stop
         style="stop-color:#a08232;stop-opacity:1;"
         offset="1"
         id="stop4025" />
    </linearGradient>
    <linearGradient
       id="linearGradient4001">
      <stop
         style="stop-color:#dcdcb4;stop-opacity:0.78431374;"
         offset="0"
         id="stop4003" />
      <stop
         id="stop4017"
         offset="0.0625"
         style="stop-color:#dcdcb4;stop-opacity:0.78431373;" />
      <stop
         id="stop4013"
         offset="0.33749759"
         style="stop-color:#ffffff;stop-opacity:0.78431374;" />
      <stop
         id="stop4011"
         offset="0.50914341"
         style="stop-color:#dcdcb4;stop-opacity:0.78431374;" />
      <stop
         id="stop4009"
         offset="0.62957168"
         style="stop-color:#dcdcb4;stop-opacity:0.78431374;" />
      <stop
         style="stop-color:#ffffff;stop-opacity:0.78431374;"
         offset="0.79085177"
         id="stop4019" />
      <stop
         style="stop-color:#dcdcb4;stop-opacity:0.78431374;"
         offset="0.90548605"
         id="stop4015" />
      <stop
         style="stop-color:#dcdcb4;stop-opacity:0.78431374;"
         offset="1"
         id="stop4005" />
    </linearGradient>
    <linearGradient
       id="linearGradient3756">
      <stop
         style="stop-color:#f0f0f0;stop-opacity:1;"
         offset="0"
         id="stop3758" />
      <stop
         style="stop-color:#c8c8c8;stop-opacity:1;"
         offset="1"
         id="stop3760" />
    </linearGradient>
    <linearGradient
       id="linearGradient3720">
      <stop
         id="stop3722"
         offset="0"
         style="stop-color:#e3b577;stop-opacity:1;" />
      <stop
         style="stop-color:#e3b577;stop-opacity:0;"
         offset="0.17627905"
         id="stop3724" />
      <stop
         style="stop-color:#e3b577;stop-opacity:0;"
         offset="0.74994612"
         id="stop3726" />
      <stop
         id="stop3728"
         offset="1"
         style="stop-color:#e3b577;stop-opacity:1;" />
    </linearGradient>
    <linearGradient
       id="linearGradient3704">
      <stop
         style="stop-color:#e3b577;stop-opacity:1;"
         offset="0"
         id="stop3706" />
      <stop
         id="stop3714"
         offset="0.13721804"
         style="stop-color:#e3b577;stop-opacity:0;" />
      <stop
         id="stop3712"
         offset="0.87828946"
         style="stop-color:#e3b577;stop-opacity:0;" />
      <stop
         style="stop-color:#e3b577;stop-opacity:1;"
         offset="1"
         id="stop3708" />
    </linearGradient>
    <linearGradient
       inkscape:collect="always"
       id="linearGradient3798">
      <stop
         style="stop-color:#333333;stop-opacity:1;"
         offset="0"
         id="stop3800" />
      <stop
         style="stop-color:#333333;stop-opacity:0;"
         offset="1"
         id="stop3802" />
    </linearGradient>
    <linearGradient
       id="linearGradient3758">
      <stop
         id="stop3768"
         offset="0"
         style="stop-color:#333333;stop-opacity:0.78431374;" />
      <stop
         style="stop-color:#333333;stop-opacity:0;"
         offset="1"
         id="stop3762" />
    </linearGradient>
    <linearGradient
       id="linearGradient3645">
      <stop
         style="stop-color:#f0f0f0;stop-opacity:0.78431374;"
         offset="0"
         id="stop3647" />
      <stop
         id="stop3655"
         offset="0.04730492"
         style="stop-color:#f0f0f0;stop-opacity:0;" />
      <stop
         id="stop3653"
         offset="0.93861884"
         style="stop-color:#f0f0f0;stop-opacity:0;" />
      <stop
         style="stop-color:#646464;stop-opacity:0.78431374;"
         offset="1"
         id="stop3649" />
    </linearGradient>
    <linearGradient
       id="linearGradient3637">
      <stop
         id="stop3639"
         offset="0"
         style="stop-color:#feedd2;stop-opacity:1" />
      <stop
         id="stop3641"
         offset="1"
         style="stop-color:#feedd2;stop-opacity:0;" />
    </linearGradient>
    <linearGradient
       id="linearGradient3625">
      <stop
         style="stop-color:#b4853f;stop-opacity:1"
         offset="0"
         id="stop3627" />
      <stop
         style="stop-color:#b4853f;stop-opacity:0;"
         offset="1"
         id="stop3629" />
    </linearGradient>
    <linearGradient
       id="linearGradient3587">
      <stop
         style="stop-color:#f7d7a1;stop-opacity:1;"
         offset="0"
         id="stop3589" />
      <stop
         style="stop-color:#d59857;stop-opacity:1;"
         offset="1"
         id="stop3591" />
    </linearGradient>
    <inkscape:perspective
       sodipodi:type="inkscape:persp3d"
       inkscape:vp_x="0 : 526.18109 : 1"
       inkscape:vp_y="0 : 1000 : 0"
       inkscape:vp_z="744.09448 : 526.18109 : 1"
       inkscape:persp3d-origin="372.04724 : 350.78739 : 1"
       id="perspective10" />
    <inkscape:perspective
       id="perspective2884"
       inkscape:persp3d-origin="0.5 : 0.33333333 : 1"
       inkscape:vp_z="1 : 0.5 : 1"
       inkscape:vp_y="0 : 1000 : 0"
       inkscape:vp_x="0 : 0.5 : 1"
       sodipodi:type="inkscape:persp3d" />
    <linearGradient
       inkscape:collect="always"
       xlink:href="#linearGradient3625"
       id="linearGradient3631"
       x1="23.066879"
       y1="1019.1055"
       x2="23.066881"
       y2="1045.4059"
       gradientUnits="userSpaceOnUse"
       gradientTransform="matrix(1.006689,0,0,0.9999745,-0.05429464,0.02632146)" />
    <linearGradient
       inkscape:collect="always"
       xlink:href="#linearGradient3637"
       id="linearGradient3635"
       gradientUnits="userSpaceOnUse"
       gradientTransform="matrix(1.0100335,0,0,0.99996178,-0.13144183,-2064.3716)"
       x1="23.066879"
       y1="1019.1055"
       x2="23.066879"
       y2="1067.4026" />
    <linearGradient
       inkscape:collect="always"
       xlink:href="#linearGradient3645"
       id="linearGradient3651"
       x1="4.1668806"
       y1="1032.2055"
       x2="42.166881"
       y2="1032.2055"
       gradientUnits="userSpaceOnUse"
       gradientTransform="translate(1.5252625e-6,-4.3359375e-7)" />
    <linearGradient
       inkscape:collect="always"
       xlink:href="#linearGradient3645"
       id="linearGradient3659"
       gradientUnits="userSpaceOnUse"
       x1="4.1668806"
       y1="1032.2055"
       x2="42.166881"
       y2="1032.2055"
       gradientTransform="matrix(0.89473684,0,0,1.1176471,1011.4772,-1176.8083)" />
    <filter
       inkscape:collect="always"
       id="filter3792"
       x="-0.063325942"
       width="1.1266519"
       y="-1.1424"
       height="3.2847999">
      <feGaussianBlur
         inkscape:collect="always"
         stdDeviation="1.0625"
         id="feGaussianBlur3794" />
    </filter>
    <radialGradient
       inkscape:collect="always"
       xlink:href="#linearGradient3798"
       id="radialGradient3804"
       cx="23.166881"
       cy="1048.5984"
       fx="23.166881"
       fy="1048.5984"
       r="20.133928"
       gradientTransform="matrix(1,0,0,0.05543237,0,990.97715)"
       gradientUnits="userSpaceOnUse" />
    <linearGradient
       inkscape:collect="always"
       xlink:href="#linearGradient3625"
       id="linearGradient3682"
       x1="23.166882"
       y1="1008.5552"
       x2="23.166882"
       y2="1013.3553"
       gradientUnits="userSpaceOnUse" />
    <linearGradient
       inkscape:collect="always"
       xlink:href="#linearGradient3637"
       id="linearGradient3686"
       gradientUnits="userSpaceOnUse"
       x1="19.059738"
       y1="1013.3553"
       x2="19.059738"
       y2="1008.5477" />
    <linearGradient
       inkscape:collect="always"
       xlink:href="#linearGradient3704"
       id="linearGradient3710"
       x1="4.1668816"
       y1="1011.2053"
       x2="42.166882"
       y2="1011.2053"
       gradientUnits="userSpaceOnUse" />
    <linearGradient
       inkscape:collect="always"
       xlink:href="#linearGradient3720"
       id="linearGradient3718"
       gradientUnits="userSpaceOnUse"
       x1="23.166882"
       y1="1007.2052"
       x2="23.166882"
       y2="1015.2055" />
    <linearGradient
       id="linearGradient3134">
      <stop
         id="stop3136"
         offset="0"
         style="stop-color: rgb(255, 193, 0); stop-opacity: 1;" />
      <stop
         id="stop3138"
         offset="1"
         style="stop-color: rgb(255, 0, 0); stop-opacity: 1;" />
    </linearGradient>
    <linearGradient
       id="linearGradient3182">
      <stop
         style="stop-color: rgb(142, 0, 0); stop-opacity: 1;"
         offset="0"
         id="stop3184" />
      <stop
         style="stop-color: rgb(189, 0, 0); stop-opacity: 1;"
         offset="1"
         id="stop3186" />
    </linearGradient>
    <inkscape:perspective
       id="perspective4780"
       inkscape:persp3d-origin="114.884 : 95.329 : 1"
       inkscape:vp_z="229.76801 : 142.9935 : 1"
       inkscape:vp_y="0 : 1000 : 0"
       inkscape:vp_x="0 : 142.9935 : 1"
       sodipodi:type="inkscape:persp3d" />
    <linearGradient
       inkscape:collect="always"
       xlink:href="#linearGradient3704"
       id="linearGradient4848"
       gradientUnits="userSpaceOnUse"
       x1="4.1668816"
       y1="1011.2053"
       x2="42.166882"
       y2="1011.2053"
       gradientTransform="translate(-16.66688,-14.152243)" />
    <linearGradient
       inkscape:collect="always"
       xlink:href="#linearGradient3720"
       id="linearGradient4851"
       gradientUnits="userSpaceOnUse"
       x1="23.166882"
       y1="1007.2052"
       x2="23.166882"
       y2="1015.2055"
       gradientTransform="translate(31.833119,-15.152243)" />
    <linearGradient
       inkscape:collect="always"
       xlink:href="#linearGradient4029"
       id="linearGradient4913"
       gradientUnits="userSpaceOnUse"
       gradientTransform="matrix(0.89473684,0,0,1.1176471,1011.5752,-1177.6414)"
       x1="4.1668806"
       y1="1032.2055"
       x2="42.166881"
       y2="1032.2055" />
    <radialGradient
       inkscape:collect="always"
       xlink:href="#linearGradient3798"
       id="radialGradient4917"
       gradientUnits="userSpaceOnUse"
       gradientTransform="matrix(1,0,0,0.05543237,0.83311939,991.07491)"
       cx="23.166881"
       cy="1048.5984"
       fx="23.166881"
       fy="1048.5984"
       r="20.133928" />
    <inkscape:perspective
       id="perspective4434"
       inkscape:persp3d-origin="54.5 : 48.333333 : 1"
       inkscape:vp_z="109 : 72.5 : 1"
       inkscape:vp_y="0 : 1000 : 0"
       inkscape:vp_x="0 : 72.5 : 1"
       sodipodi:type="inkscape:persp3d" />
    <linearGradient
       inkscape:collect="always"
       xlink:href="#linearGradient3756"
       id="linearGradient4590"
       gradientUnits="userSpaceOnUse"
       gradientTransform="matrix(1.2845259,0,0,0.99560639,2.4672278,1000.4528)"
       x1="-9.4575529"
       y1="26.344856"
       x2="-3.9774756"
       y2="46.497398" />
    <linearGradient
       inkscape:collect="always"
       xlink:href="#linearGradient3756"
       id="linearGradient3029"
       gradientUnits="userSpaceOnUse"
       gradientTransform="matrix(1.5344225,0,0,1.1892955,35.490169,996.20961)"
       x1="-9.4575529"
       y1="26.344856"
       x2="-3.9774756"
       y2="46.497398" />
    <linearGradient
       inkscape:collect="always"
       xlink:href="#linearGradient4001"
       id="linearGradient4007"
       x1="24"
       y1="1019.3622"
       x2="24"
       y2="1007.3032"
       gradientUnits="userSpaceOnUse" />
    <linearGradient
       inkscape:collect="always"
       xlink:href="#linearGradient4021"
       id="linearGradient4027"
       x1="24"
       y1="1015.3033"
       x2="24"
       y2="1049.3032"
       gradientUnits="userSpaceOnUse" />
    <linearGradient
       inkscape:collect="always"
       xlink:href="#linearGradient4039"
       id="linearGradient4045"
       x1="24.000002"
       y1="1011.3032"
       x2="24.000002"
       y2="1003.553"
       gradientUnits="userSpaceOnUse" />
    <linearGradient
       inkscape:collect="always"
       xlink:href="#linearGradient3756"
       id="linearGradient2949"
       gradientUnits="userSpaceOnUse"
       gradientTransform="matrix(1.5344225,0,0,1.1892955,35.490169,996.20961)"
       x1="-9.4575529"
       y1="26.344856"
       x2="-3.9774756"
       y2="46.497398" />
    <linearGradient
       inkscape:collect="always"
       xlink:href="#linearGradient3756"
       id="linearGradient2948"
       gradientUnits="userSpaceOnUse"
       gradientTransform="matrix(1.5344225,0,0,1.1892955,35.490165,996.20961)"
       x1="-9.4575529"
       y1="26.344856"
       x2="-3.9774756"
       y2="46.497398" />
  </defs>
  <sodipodi:namedview
     id="base"
     pagecolor="#ffffff"
     bordercolor="#666666"
     borderopacity="1.0"
     inkscape:pageopacity="0.0"
     inkscape:pageshadow="2"
     inkscape:zoom="5.6568542"
     inkscape:cx="15.34356"
     inkscape:cy="13.260623"
     inkscape:document-units="px"
     inkscape:current-layer="layer1"
     showgrid="false"
     inkscape:window-width="1280"
     inkscape:window-height="714"
     inkscape:window-x="0"
     inkscape:window-y="25"
     inkscape:window-maximized="1" />
  <metadata
     id="metadata7">
    <rdf:RDF>
      <cc:Work
         rdf:about="">
        <dc:format>image/svg+xml</dc:format>
        <dc:type
           rdf:resource="http://purl.org/dc/dcmitype/StillImage" />
        <dc:title />
      </cc:Work>
    </rdf:RDF>
  </metadata>
  <g
     inkscape:label="Livello 1"
     inkscape:groupmode="layer"
     id="layer1"
     transform="translate(0,-1004.3622)">
    <rect
       style="fill:#333333;fill-opacity:0.39215686;stroke:none;filter:url(#filter3792)"
       id="rect3756"
       width="40.267857"
       height="2.2321429"
       x="3.8660717"
       y="1047.5801" />
    <rect
       y="1048.085"
       x="3.8660717"
       height="2.2321429"
       width="40.267857"
       id="rect3796"
       style="fill:url(#radialGradient4917);fill-opacity:1;stroke:none" />
    <rect
       style="fill:url(#linearGradient4027);fill-opacity:1;stroke:none"
       id="rect2890"
       width="38"
       height="34"
       x="5"
       y="1015.3033" />
    <rect
       style="fill:url(#linearGradient4913);fill-opacity:1;stroke:none"
       id="rect3657"
       width="34"
       height="38"
       x="1015.3033"
       y="-43"
       transform="matrix(0,1,-1,0,0,0)" />
    <rect
       transform="matrix(0.99999968,7.9636038e-4,-7.9636038e-4,0.99999968,0,0)"
       y="1025.6289"
       x="9.1031151"
       height="13.139982"
       width="31.05814"
       id="rect3032"
       style="fill:#6e5000;fill-opacity:1;stroke:none" />
    <rect
       style="fill:url(#linearGradient2948);fill-opacity:1;stroke:none"
       id="rect2982"
       width="31.05814"
       height="13.139982"
       x="9.3145409"
       y="1025.4391"
       transform="matrix(0.99999968,7.9636038e-4,-7.9636038e-4,0.99999968,0,0)" />
    <g
       id="g4536"
       transform="matrix(0.11094974,8.8359297e-5,-8.8359297e-5,0.11094974,22.414147,922.50748)">
      <path
         d="m -67.56182,989.66655 c -1.492,0.02 0.281,0.766 2.23,1.066 0.54,-0.421 1.028,-0.843 1.461,-1.257 -1.211,0.297 -2.449,0.3 -3.695,0.187"
         id="path4390"
         style="fill:#d62766" />
      <path
         d="m -59.54182,987.67055 c 0.89,-1.227 1.539,-2.57 1.765,-3.961 -0.199,0.988 -0.734,1.844 -1.242,2.746 -2.793,1.758 -0.262,-1.043 0,-2.109 -3,3.781 -0.41,2.265 -0.52,3.324"
         id="path4392"
         style="fill:#d62766" />
      <path
         d="m -56.58182,979.96755 c 0.18,-2.688 -0.527,-1.836 -0.765,-0.813 0.273,0.145 0.496,1.895 0.765,0.813"
         id="path4394"
         style="fill:#d62766" />
      <path
         d="m -73.22982,943.18653 c 0.797,0.14001 1.723,0.25 1.59,0.44101 0.871,-0.19101 1.07,-0.36301 -1.59,-0.44101"
         id="path4396"
         style="fill:#d62766" />
      <path
         d="m -71.63582,943.62754 -0.559,0.11301 0.524,-0.047 0.035,-0.066"
         id="path4398"
         style="fill:#d62766" />
      <path
         d="m -46.76882,980.98655 c 0.09,2.414 -0.703,3.59 -1.422,5.664 l -1.289,0.641 c -1.055,2.051 0.102,1.301 -0.652,2.934 -1.649,1.465 -5.004,4.586 -6.078,4.875 -0.782,-0.016 0.527,-0.926 0.699,-1.278 -2.207,1.516 -1.774,2.274 -5.149,3.196 l -0.097,-0.219 c -8.328,3.91795 -19.899,-3.844 -19.75,-14.442 -0.086,0.672 -0.25,0.504 -0.434,0.774 -0.43,-5.449 2.516,-10.926 7.488,-13.164 4.86,-2.403 10.563,-1.418 14.043,1.828 -1.91,-2.504 -5.718,-5.16 -10.23,-4.914 -4.418,0.07 -8.555,2.879 -9.938,5.93 -2.261,1.421 -2.527,5.492 -3.511,6.238 -1.328,9.758 2.496,13.973 8.968,18.933 1.016,0.684 0.286,0.79 0.422,1.313 -2.148,-1.004 -4.117,-2.523 -5.734,-4.387 0.859,1.254 1.785,2.477 2.984,3.438 -2.027,-0.684 -4.734,-4.91 -5.523,-5.082 3.492,6.258 14.176,10.97195 19.773,8.63295 -2.586,0.093 -5.875,0.05 -8.785,-1.02 -1.222,-0.629 -2.883,-1.92995 -2.586,-2.17195 7.633,2.84795 15.52,2.15595 22.129,-3.137 1.68,-1.308 3.516,-3.535 4.047,-3.566 -0.797,1.199 0.137,0.574 -0.473,1.637 1.672,-2.699 -0.726,-1.098 1.727,-4.66 l 0.906,1.25 c -0.336,-2.243 2.781,-4.965 2.465,-8.512 0.715,-1.082 0.797,1.168 0.035,3.66 1.055,-2.766 0.278,-3.211 0.547,-5.492 0.289,0.765 0.676,1.582 0.875,2.39 -0.684,-2.671 0.699,-4.5 1.047,-6.054 -0.34,-0.149 -1.059,1.179 -1.223,-1.973 0.024,-1.371 0.379,-0.719 0.516,-1.055 -0.266,-0.152 -0.973,-1.203 -1.402,-3.222 0.308,-0.473 0.828,1.226 1.253,1.297 -0.269,-1.602 -0.742,-2.825 -0.761,-4.055 -1.239,-2.59 -0.438,0.344 -1.442,-1.109 -1.316,-4.114 1.09,-0.954 1.254,-2.821 1.996,2.895 3.137,7.383 3.66,9.242 -0.398,-2.265 -1.043,-4.461 -1.832,-6.585 0.61,0.253 -0.976,-4.661 0.789,-1.403 -1.886,-6.941 -8.074,-13.43302 -13.769,-16.47602 0.691,0.63602 1.574,1.43301 1.258,1.56201 -2.832,-1.68301 -2.332,-1.81601 -2.739,-2.52701 -2.304,-0.93798 -2.457,0.074 -3.984,0 -4.348,-2.30499 -5.184,-2.05899 -9.187,-3.50399 l 0.179,0.85101 c -2.879,-0.957 -3.355,0.35998 -6.469,0 -0.187,-0.14401 0.997,-0.535 1.973,-0.67502 -2.781,0.36701 -2.652,-0.547 -5.379,0.097 0.668,-0.46802 1.383,-0.78101 2.098,-1.18302 -2.27,0.13602 -5.422,1.32001 -4.449,0.24201 -3.703,1.652 -10.285,3.97299 -13.977,7.43701 l -0.113,-0.77301 c -1.692,2.02701 -7.379,6.06201 -7.828,8.69501 l -0.45,0.102 c -0.878,1.488 -1.449,3.179 -2.144,4.711 -1.149,1.961 -1.688,0.754 -1.523,1.062 -2.262,4.59 -3.391,8.449 -4.36,11.614 0.692,1.031 0.016,6.23 0.277,10.39 -1.132,20.54297 14.418,40.48797 31.418,45.09007 2.489,0.891 6.196,0.8589 9.348,0.9449 -3.719,-1.0619 -4.195,-0.558 -7.82,-1.8239 -2.61,-1.23 -3.184,-2.6371 -5.035,-4.242 l 0.73,1.293 c -3.629,-1.281 -2.109,-1.59 -5.062,-2.5241 l 0.781,-1.019 c -1.176,-0.09 -3.113,-1.981 -3.645,-3.031 l -1.285,0.05 c -1.543,-1.906 -2.367,-3.281 -2.308,-4.347 l -0.415,0.738 c -0.468,-0.805 -5.687,-7.156 -2.98,-5.68 -0.5,-0.457 -1.172,-0.746 -1.894,-2.062 l 0.55,-0.629 c -1.3,-1.676 -2.394,-3.824 -2.312,-4.539 0.691,0.937 1.176,1.113 1.652,1.273 -3.289,-8.15997 -3.473,-0.445 -5.965,-8.30797 l 0.524,-0.039 c -0.403,-0.61 -0.649,-1.27 -0.973,-1.918 l 0.227,-2.282 c -2.368,-2.734 -0.661,-11.644 -0.317,-16.527 0.235,-1.984 1.977,-4.098 3.297,-7.418 l -0.805,-0.137 c 1.539,-2.687 8.801,-10.796 12.164,-10.382 1.629,-2.043 -0.32,-0.008 -0.64,-0.52 3.578,-3.699 4.703,-2.613 7.117,-3.281 2.602,-1.543 -2.234,0.601 -1,-0.586 4.5,-1.149 3.188,-2.61302 9.063,-3.19502 0.617,0.35101 -1.434,0.543 -1.95,1.00002 3.75,-1.83602 11.868,-1.41402 17.141,1.015 6.117,2.86 12.992,11.313 13.266,19.266 l 0.304,0.082 c -0.152,3.16 0.481,6.816 -0.625,10.176 l 0.754,-1.59"
         id="path4400"
         style="fill:#d62766" />
      <path
         d="m -83.87382,991.71755 -0.211,1.047 c 0.98,1.332 1.761,2.777 3.015,3.82 -0.898,-1.758 -1.57,-2.484 -2.804,-4.867"
         id="path4402"
         style="fill:#d62766" />
      <path
         d="m -81.54982,991.62755 c -0.52,-0.574 -0.824,-1.266 -1.172,-1.953 0.328,1.211 1.004,2.25 1.633,3.308 l -0.461,-1.355"
         id="path4404"
         style="fill:#d62766" />
      <path
         d="m -40.46782,982.69755 -0.219,0.551 c -0.398,2.856 -1.269,5.684 -2.602,8.309 1.469,-2.766 2.422,-5.793 2.821,-8.86"
         id="path4406"
         style="fill:#d62766" />
      <path
         d="m -72.93282,942.47153 c 1.008,-0.367 2.48,-0.199 3.555,-0.44598 -1.395,0.11398 -2.786,0.18399 -4.161,0.35998 l 0.606,0.082"
         id="path4408"
         style="fill:#d62766" />
      <path
         d="m -108.40582,961.33055 c 0.231,2.152 -1.617,2.988 0.407,1.567 1.089,-2.454 -0.422,-0.676 -0.407,-1.567"
         id="path4410"
         style="fill:#d62766" />
      <path
         d="m -110.79182,971.30755 c 0.468,-1.434 0.55,-2.297 0.73,-3.129 -1.293,1.652 -0.594,2.004 -0.73,3.129"
         id="path4412"
         style="fill:#d62766" />
    </g>
    <g
       id="g4550"
       transform="matrix(0.1757708,1.3997487e-4,-1.3997487e-4,0.1757708,41.875397,844.33035)">
      <polygon
         transform="translate(-128.53882,942.02555)"
         points="63.098,107.696 66.934,111.532 63.098,115.368 59.262,111.532 "
         id="polygon4414"
         style="fill:#d62766" />
      <path
         id="path4416"
         d="m -115.09282,1067.5296 c -0.043,0.047 -0.043,7.5039 -0.137,9.45 -0.09,1.574 -0.23,4.953 -3.56602,4.953 -3.42599,0 -4.26199,-3.9381 -4.539,-5.6491 -0.32098,-1.8979 -0.32098,-3.472 -0.32098,-4.1679 0,-2.222 0.13699,-8.433 5.375,-8.433 1.575,0 2.453,0.465 3.149,0.8319 z m 0.133,18.348 c 0.878,-0.047 1.757,-0.137 3.195,-0.137 0.508,0 0.926,0 1.297,0.047 0.367,0 0.738,0.043 1.156,0.09 -0.738,-1.48 -1.297,-4.8161 -1.297,-12.047 0,-7.043 0,-18.949 0.602,-22.562 -1.664,0.7849 -3.102,1.296 -6.254,1.5739 1.25,1.344 1.25,2.0351 1.25,8.152 -0.879,-0.2729 -1.988,-0.5969 -3.89101,-0.5969 -8.293,0 -9.63699,7.226 -9.63699,12.601 0,13.0629 6.957,13.0629 7.97699,13.0629 2.87101,0 4.72701,-1.5749 5.51201,-4.3049 z" />
      <path
         id="path4418"
         d="m -103.40182,1070.6356 c 0.047,-3.844 0.832,-7.274 4.121,-7.274 3.614,0 3.891,3.985 3.797,7.274 z m 12.512,0.4649 c 0,-5.4219 -1.063,-10.75 -7.922,-10.75 -9.449,0 -9.449,10.472 -9.449,12.6951 0,9.4019 4.215,13.109 11.305,13.109 3.148,0 4.679,-0.461 5.511,-0.691 -0.043,-1.668 0.184,-2.731 0.465,-4.168 -0.973,0.602 -2.223,1.3909 -5.004,1.3909 -7.226,0 -7.32,-6.5789 -7.32,-8.8519 l 12.324,0 z" />
      <path
         id="path4420"
         d="m -75.81582,1073.0925 c 0,4.308 -0.785,10.1011 -6.16,10.1011 -0.738,0 -1.668,-0.14 -2.27,-0.277 -0.089,-1.668 -0.089,-4.539 -0.089,-7.875 0,-3.984 0.414,-6.0661 0.738,-7.09 0.969,-3.285 3.148,-3.3321 3.562,-3.3321 3.52,0 4.219,4.8631 4.219,8.4731 z m -13.297,5.0511 c 0,3.425 0,5.375 -0.554,6.855 1.898,0.7379 4.261,1.156 7.089,1.156 1.805,0 7.043,0 9.868,-5.789 1.343,-2.683 1.804,-6.301 1.804,-9.035 0,-1.668 -0.183,-5.324 -1.527,-7.6441 -1.297,-2.1759 -3.383,-3.286 -5.606,-3.286 -4.445,0 -5.742,3.7041 -6.437,5.6061 0,-2.359 0.043,-10.609 0.414,-14.824 -3.008,1.3899 -4.863,1.617 -6.855,1.8039 1.804,0.739 1.804,3.797 1.804,13.7621 z" />
      <path
         id="path4422"
         d="m -61.99582,1085.8776 c -0.925,-0.137 -1.574,-0.23 -2.918,-0.23 -1.476,0 -2.5,0.089 -3.562,0.23 0.461,-0.879 0.644,-1.297 0.785,-4.309 0.184,-4.125 0.231,-15.152 -0.09,-17.4681 -0.23,-1.7619 -0.644,-2.0359 -1.297,-2.5 3.797,-0.3679 4.864,-0.6489 6.625,-1.481 -0.367,2.0351 -0.414,3.059 -0.414,6.1601 -0.089,15.989 -0.136,17.7 0.871,19.598" />
      <path
         id="path4424"
         d="m -47.15982,1072.7645 c -0.089,2.9181 -0.136,4.9571 -0.925,6.578 -0.973,2.0861 -2.594,2.683 -3.797,2.683 -2.782,0 -3.383,-2.3119 -3.383,-4.5849 0,-4.352 3.891,-4.6761 5.648,-4.6761 z m 4.536,-5.364 c 0,-3.5229 -0.926,-6.9959 -7.879,-6.9959 -4.582,0 -7.27,1.387 -8.614,2.086 0.555,1.016 1.02,1.895 1.434,3.891 1.805,-1.574 4.172,-2.4061 6.578,-2.4061 3.848,0 3.848,2.5471 3.848,6.1601 -0.879,-0.043 -1.621,-0.137 -2.875,-0.137 -5.883,0 -9.77,2.2659 -9.77,8.4689 0,2.9181 0.879,5.8361 3.477,7.0901 1.156,0.507 2.312,0.507 2.683,0.507 4.262,0 5.696,-3.148 6.578,-5.093 -0.046,2.035 0,3.285 0.137,4.91 0.832,-0.047 1.668,-0.1371 3.059,-0.1371 0.785,0 1.527,0.09 2.312,0.1371 -0.508,-0.785 -0.785,-1.25 -0.926,-3.0591 -0.089,-1.7579 -0.089,-3.5189 -0.089,-5.972 z" />
      <path
         id="path4426"
         d="m -20.46382,1081.2916 c 0.043,1.574 0.043,3.2419 0.687,4.586 -1.019,-0.09 -1.621,-0.23 -3.519,-0.23 -1.114,0 -1.715,0.089 -2.594,0.23 0.184,-0.6021 0.277,-0.832 0.367,-1.621 0.137,-1.063 0.231,-4.633 0.231,-5.883 l 0,-5.0041 c 0,-2.1759 0,-5.3279 -0.137,-6.4369 -0.09,-0.785 -0.32,-2.9181 -3.012,-2.9181 -2.641,0 -3.519,1.9411 -3.844,3.519 -0.367,1.6211 -0.367,3.3831 -0.367,10.2391 0.043,5.929 0.043,6.484 0.508,8.105 -0.785,-0.09 -1.758,-0.184 -3.148,-0.184 -1.114,0 -1.852,0.043 -2.778,0.184 0.324,-0.7381 0.508,-1.109 0.602,-3.703 0.094,-2.547 0.277,-15.059 -0.141,-18.0241 -0.226,-1.808 -0.691,-2.222 -1.199,-2.6869 3.754,-0.184 4.953,-0.7851 6.113,-1.387 l 0,4.9099 c 0.555,-1.4369 1.711,-4.6319 6.348,-4.6319 5.793,0 5.836,4.214 5.883,6.992 z" />
    </g>
    <path
       style="fill:url(#linearGradient4045);fill-opacity:1;stroke:none"
       d="m 10.000119,1007.303 28,0 4.999882,8.0003 -38,0 5.000118,-8.0003 z"
       id="rect2896"
       sodipodi:nodetypes="ccccc" />
    <path
       style="font-size:medium;font-style:normal;font-variant:normal;font-weight:normal;font-stretch:normal;text-indent:0;text-align:start;text-decoration:none;line-height:normal;letter-spacing:normal;word-spacing:normal;text-transform:none;direction:ltr;block-progression:tb;writing-mode:lr-tb;text-anchor:start;color:#000000;fill:#000000;fill-opacity:1;stroke:none;stroke-width:0.30000000999999998;marker:none;visibility:visible;display:inline;overflow:visible;enable-background:accumulate;font-family:'A.C.M.E. Secret Agent';-inkscape-font-specification:'A.C.M.E. Secret Agent'"
       d="m 23.843751,1007.303 0,7.958 0.3125,0 0,-7.958 -0.3125,0 z"
       id="path3993" />
    <path
       style="fill:url(#linearGradient4007);fill-opacity:1;stroke:none"
       d="m 22,1007.3032 4,0 1,8 0,4.059 -3,0 -3,0 0,-4.0589 1,-8.0001 z"
       id="path3999"
       sodipodi:nodetypes="cccccccc" />
  </g>
</svg>
