<?xml version="1.0" encoding="UTF-8" standalone="no"?>
<!-- Created with Inkscape (http://www.inkscape.org/) -->

<svg
   xmlns:dc="http://purl.org/dc/elements/1.1/"
   xmlns:cc="http://creativecommons.org/ns#"
   xmlns:rdf="http://www.w3.org/1999/02/22-rdf-syntax-ns#"
   xmlns:svg="http://www.w3.org/2000/svg"
   xmlns="http://www.w3.org/2000/svg"
   xmlns:xlink="http://www.w3.org/1999/xlink"
   xmlns:sodipodi="http://sodipodi.sourceforge.net/DTD/sodipodi-0.dtd"
   xmlns:inkscape="http://www.inkscape.org/namespaces/inkscape"
   width="48"
   height="48"
   id="svg2"
   version="1.1"
   inkscape:version="0.47pre4 r22446"
   sodipodi:docname="image-png.svg"
   inkscape:export-filename="/home/andrea/Documenti/MeliaeSVG/48/mimetypes/png/text-x-preview.png"
   inkscape:export-xdpi="240"
   inkscape:export-ydpi="240">
  <defs
     id="defs4">
    <linearGradient
       id="linearGradient4203">
      <stop
         style="stop-color:#f0f0f0;stop-opacity:1;"
         offset="0"
         id="stop4205" />
      <stop
         style="stop-color:#ffffff;stop-opacity:1;"
         offset="1"
         id="stop4207" />
    </linearGradient>
    <inkscape:perspective
       sodipodi:type="inkscape:persp3d"
       inkscape:vp_x="0 : 526.18109 : 1"
       inkscape:vp_y="0 : 1000 : 0"
       inkscape:vp_z="744.09448 : 526.18109 : 1"
       inkscape:persp3d-origin="372.04724 : 350.78739 : 1"
       id="perspective10" />
    <linearGradient
       inkscape:collect="always"
       xlink:href="#linearGradient4203"
       id="linearGradient4209"
       x1="31.687183"
       y1="1045.266"
       x2="15.481234"
       y2="1013.3396"
       gradientUnits="userSpaceOnUse" />
    <linearGradient
       y2="1024.2301"
       x2="16.655029"
       y1="1010.1816"
       x1="13.923502"
       gradientTransform="matrix(0.7953487,0,0,0.7953487,2.7834736,208.12355)"
       gradientUnits="userSpaceOnUse"
       id="linearGradient3312"
       xlink:href="#linearGradient3654"
       inkscape:collect="always" />
    <linearGradient
       y2="48.631344"
       x2="3.9774756"
       y1="39.410202"
       x1="3.9774756"
       gradientUnits="userSpaceOnUse"
       id="linearGradient3310"
       xlink:href="#linearGradient3704"
       inkscape:collect="always" />
    <linearGradient
       y2="48.631344"
       x2="3.9774756"
       y1="39.410202"
       x1="3.9774756"
       gradientUnits="userSpaceOnUse"
       id="linearGradient3308"
       xlink:href="#linearGradient3704"
       inkscape:collect="always" />
    <linearGradient
       y2="32.405771"
       x2="26.642774"
       y1="32.405771"
       x1="25.19068"
       gradientTransform="matrix(0.90656037,0,0,0.89619122,-512.46624,881.82267)"
       gradientUnits="userSpaceOnUse"
       id="linearGradient3306"
       xlink:href="#linearGradient3793"
       inkscape:collect="always" />
    <linearGradient
       y2="1041.9611"
       x2="38.869473"
       y1="1041.9611"
       x1="21.533323"
       gradientTransform="matrix(0.67488318,-0.60529694,0.45328018,0.78510431,-458.3444,231.05669)"
       gradientUnits="userSpaceOnUse"
       id="linearGradient3304"
       xlink:href="#linearGradient3779"
       inkscape:collect="always" />
    <radialGradient
       r="16.5"
       fy="1013.8265"
       fx="24.750001"
       cy="1013.8265"
       cx="24.750001"
       gradientTransform="matrix(0.78510431,-0.45328018,0.16096666,0.27880243,-161.98921,744.35895)"
       gradientUnits="userSpaceOnUse"
       id="radialGradient3302"
       xlink:href="#linearGradient3762"
       inkscape:collect="always" />
    <linearGradient
       y2="38.357143"
       x2="41.428572"
       y1="38.357143"
       x1="9.2857151"
       gradientUnits="userSpaceOnUse"
       id="linearGradient3300"
       xlink:href="#linearGradient3752"
       inkscape:collect="always" />
    <linearGradient
       y2="27.25"
       x2="40.75029"
       y1="27.25"
       x1="8.75"
       gradientTransform="matrix(0.78510431,-0.45328018,0.45328018,0.78510431,-3.0869212,1019.5858)"
       gradientUnits="userSpaceOnUse"
       id="linearGradient3298"
       xlink:href="#linearGradient3689"
       inkscape:collect="always" />
    <radialGradient
       r="19.017857"
       fy="46.035713"
       fx="22.767857"
       cy="46.035713"
       cx="22.767857"
       gradientTransform="matrix(1,0,0,0.10328639,0,41.280851)"
       gradientUnits="userSpaceOnUse"
       id="radialGradient3296"
       xlink:href="#linearGradient3692"
       inkscape:collect="always" />
    <radialGradient
       r="5.6500001"
       fy="1040.4387"
       fx="5.8125062"
       cy="1040.4387"
       cx="5.8125062"
       gradientTransform="matrix(0.21373167,1.7386393,-1.8515491,0.2353432,1930.8033,785.77305)"
       gradientUnits="userSpaceOnUse"
       id="radialGradient3294"
       xlink:href="#linearGradient3608"
       inkscape:collect="always" />
    <linearGradient
       y2="1048.6541"
       x2="9.25"
       y1="1038.1541"
       x1="4.2053571"
       gradientUnits="userSpaceOnUse"
       id="linearGradient3292"
       xlink:href="#linearGradient3616"
       inkscape:collect="always" />
    <linearGradient
       y2="1049.7424"
       x2="9.3839283"
       y1="1039.5621"
       x1="5.2767859"
       gradientTransform="matrix(1.0068493,0,0,1.0068493,-0.05479421,-7.1531374)"
       gradientUnits="userSpaceOnUse"
       id="linearGradient3290"
       xlink:href="#linearGradient3592"
       inkscape:collect="always" />
    <radialGradient
       r="5.6500001"
       fy="1040.4387"
       fx="5.8125062"
       cy="1040.4387"
       cx="5.8125062"
       gradientTransform="matrix(0.49870722,4.056825,-4.3202812,0.54913413,4478.0245,426.06302)"
       gradientUnits="userSpaceOnUse"
       id="radialGradient3288"
       xlink:href="#linearGradient3638"
       inkscape:collect="always" />
    <linearGradient
       y2="1048.6541"
       x2="9.25"
       y1="1038.1541"
       x1="4.2053571"
       gradientTransform="matrix(2.3333333,0,0,2.3333333,-27.183171,-1407.4074)"
       gradientUnits="userSpaceOnUse"
       id="linearGradient3286"
       xlink:href="#linearGradient3616"
       inkscape:collect="always" />
    <linearGradient
       y2="1049.7424"
       x2="9.3839283"
       y1="1039.5621"
       x1="5.2767859"
       gradientTransform="matrix(2.349315,0,0,2.349315,-27.311024,-1424.0981)"
       gradientUnits="userSpaceOnUse"
       id="linearGradient3284"
       xlink:href="#linearGradient3592"
       inkscape:collect="always" />
    <radialGradient
       r="5.6500001"
       fy="1040.4387"
       fx="5.8125062"
       cy="1040.4387"
       cx="5.8125062"
       gradientTransform="matrix(0.21373167,1.7386393,-1.8515491,0.2353432,1930.8033,785.77305)"
       gradientUnits="userSpaceOnUse"
       id="radialGradient3252"
       xlink:href="#linearGradient3608"
       inkscape:collect="always" />
    <linearGradient
       y2="1048.6541"
       x2="9.25"
       y1="1038.1541"
       x1="4.2053571"
       gradientUnits="userSpaceOnUse"
       id="linearGradient3250"
       xlink:href="#linearGradient3616"
       inkscape:collect="always" />
    <linearGradient
       y2="1049.7424"
       x2="9.3839283"
       y1="1039.5621"
       x1="5.2767859"
       gradientTransform="matrix(1.0068493,0,0,1.0068493,-0.05479421,-7.1531374)"
       gradientUnits="userSpaceOnUse"
       id="linearGradient3248"
       xlink:href="#linearGradient3592"
       inkscape:collect="always" />
    <radialGradient
       r="5.6500001"
       fy="1040.4387"
       fx="5.8125062"
       cy="1040.4387"
       cx="5.8125062"
       gradientTransform="matrix(0.49870722,4.056825,-4.3202812,0.54913413,4478.0245,426.06302)"
       gradientUnits="userSpaceOnUse"
       id="radialGradient3246"
       xlink:href="#linearGradient3638"
       inkscape:collect="always" />
    <linearGradient
       y2="1048.6541"
       x2="9.25"
       y1="1038.1541"
       x1="4.2053571"
       gradientTransform="matrix(2.3333333,0,0,2.3333333,-27.183171,-1407.4074)"
       gradientUnits="userSpaceOnUse"
       id="linearGradient3244"
       xlink:href="#linearGradient3616"
       inkscape:collect="always" />
    <linearGradient
       y2="1049.7424"
       x2="9.3839283"
       y1="1039.5621"
       x1="5.2767859"
       gradientTransform="matrix(2.349315,0,0,2.349315,-27.311024,-1424.0981)"
       gradientUnits="userSpaceOnUse"
       id="linearGradient3242"
       xlink:href="#linearGradient3592"
       inkscape:collect="always" />
    <radialGradient
       r="5.6500001"
       fy="1040.4387"
       fx="5.8125062"
       cy="1040.4387"
       cx="5.8125062"
       gradientTransform="matrix(0.21373167,1.7386393,-1.8515491,0.2353432,1930.8033,785.77305)"
       gradientUnits="userSpaceOnUse"
       id="radialGradient3228"
       xlink:href="#linearGradient3608"
       inkscape:collect="always" />
    <linearGradient
       y2="1048.6541"
       x2="9.25"
       y1="1038.1541"
       x1="4.2053571"
       gradientUnits="userSpaceOnUse"
       id="linearGradient3226"
       xlink:href="#linearGradient3616"
       inkscape:collect="always" />
    <linearGradient
       y2="1049.7424"
       x2="9.3839283"
       y1="1039.5621"
       x1="5.2767859"
       gradientTransform="matrix(1.0068493,0,0,1.0068493,-0.05479421,-7.1531374)"
       gradientUnits="userSpaceOnUse"
       id="linearGradient3224"
       xlink:href="#linearGradient3592"
       inkscape:collect="always" />
    <radialGradient
       r="5.6500001"
       fy="1040.4387"
       fx="5.8125062"
       cy="1040.4387"
       cx="5.8125062"
       gradientTransform="matrix(0.49870722,4.056825,-4.3202812,0.54913413,4478.0245,426.06302)"
       gradientUnits="userSpaceOnUse"
       id="radialGradient3222"
       xlink:href="#linearGradient3638"
       inkscape:collect="always" />
    <linearGradient
       y2="1048.6541"
       x2="9.25"
       y1="1038.1541"
       x1="4.2053571"
       gradientTransform="matrix(2.3333333,0,0,2.3333333,-27.183171,-1407.4074)"
       gradientUnits="userSpaceOnUse"
       id="linearGradient3220"
       xlink:href="#linearGradient3616"
       inkscape:collect="always" />
    <linearGradient
       y2="1049.7424"
       x2="9.3839283"
       y1="1039.5621"
       x1="5.2767859"
       gradientTransform="matrix(2.349315,0,0,2.349315,-27.311024,-1424.0981)"
       gradientUnits="userSpaceOnUse"
       id="linearGradient3218"
       xlink:href="#linearGradient3592"
       inkscape:collect="always" />
    <linearGradient
       id="linearGradient3638">
      <stop
         style="stop-color:#9cc430;stop-opacity:1;"
         offset="0"
         id="stop3640" />
      <stop
         style="stop-color:#619508;stop-opacity:1;"
         offset="1"
         id="stop3642" />
    </linearGradient>
    <linearGradient
       id="linearGradient3616">
      <stop
         style="stop-color:#828282;stop-opacity:1;"
         offset="0"
         id="stop3618" />
      <stop
         style="stop-color:#282828;stop-opacity:1;"
         offset="1"
         id="stop3620" />
    </linearGradient>
    <linearGradient
       id="linearGradient3608">
      <stop
         id="stop3610"
         offset="0"
         style="stop-color:#5785a6;stop-opacity:1;" />
      <stop
         id="stop3612"
         offset="1"
         style="stop-color:#113f4c;stop-opacity:1;" />
    </linearGradient>
    <linearGradient
       id="linearGradient3592">
      <stop
         style="stop-color:#ffffff;stop-opacity:1;"
         offset="0"
         id="stop3594" />
      <stop
         style="stop-color:#c8c8c8;stop-opacity:1;"
         offset="1"
         id="stop3596" />
    </linearGradient>
    <inkscape:perspective
       sodipodi:type="inkscape:persp3d"
       inkscape:vp_x="0 : 526.18109 : 1"
       inkscape:vp_y="0 : 1000 : 0"
       inkscape:vp_z="744.09448 : 526.18109 : 1"
       inkscape:persp3d-origin="372.04724 : 350.78739 : 1"
       id="perspective10-0" />
    <linearGradient
       inkscape:collect="always"
       xlink:href="#linearGradient3592"
       id="linearGradient3598"
       x1="5.2767859"
       y1="1039.5621"
       x2="9.3839283"
       y2="1049.7424"
       gradientUnits="userSpaceOnUse"
       gradientTransform="matrix(1.0068493,0,0,1.0068493,-0.05479421,-7.1531374)" />
    <radialGradient
       inkscape:collect="always"
       xlink:href="#linearGradient3608"
       id="radialGradient3614"
       cx="5.8125062"
       cy="1040.4387"
       fx="5.8125062"
       fy="1040.4387"
       r="5.6500001"
       gradientTransform="matrix(0.21373167,1.7386393,-1.8515491,0.2353432,1930.8033,785.77305)"
       gradientUnits="userSpaceOnUse" />
    <linearGradient
       inkscape:collect="always"
       xlink:href="#linearGradient3616"
       id="linearGradient3622"
       x1="4.2053571"
       y1="1038.1541"
       x2="9.25"
       y2="1048.6541"
       gradientUnits="userSpaceOnUse" />
    <linearGradient
       inkscape:collect="always"
       xlink:href="#linearGradient3592"
       id="linearGradient2834"
       gradientUnits="userSpaceOnUse"
       gradientTransform="matrix(1.0068493,0,0,1.0068493,-0.05479421,-7.1531374)"
       x1="5.2767859"
       y1="1039.5621"
       x2="9.3839283"
       y2="1049.7424" />
    <linearGradient
       inkscape:collect="always"
       xlink:href="#linearGradient3616"
       id="linearGradient2836"
       gradientUnits="userSpaceOnUse"
       x1="4.2053571"
       y1="1038.1541"
       x2="9.25"
       y2="1048.6541" />
    <radialGradient
       inkscape:collect="always"
       xlink:href="#linearGradient3608"
       id="radialGradient2838"
       gradientUnits="userSpaceOnUse"
       gradientTransform="matrix(0.21373167,1.7386393,-1.8515491,0.2353432,1930.8033,785.77305)"
       cx="5.8125062"
       cy="1040.4387"
       fx="5.8125062"
       fy="1040.4387"
       r="5.6500001" />
    <linearGradient
       inkscape:collect="always"
       xlink:href="#linearGradient3592"
       id="linearGradient2850"
       gradientUnits="userSpaceOnUse"
       gradientTransform="matrix(1.0068493,0,0,1.0068493,-0.05479421,-7.1531374)"
       x1="5.2767859"
       y1="1039.5621"
       x2="9.3839283"
       y2="1049.7424" />
    <linearGradient
       inkscape:collect="always"
       xlink:href="#linearGradient3616"
       id="linearGradient2852"
       gradientUnits="userSpaceOnUse"
       x1="4.2053571"
       y1="1038.1541"
       x2="9.25"
       y2="1048.6541" />
    <radialGradient
       inkscape:collect="always"
       xlink:href="#linearGradient3608"
       id="radialGradient2854"
       gradientUnits="userSpaceOnUse"
       gradientTransform="matrix(0.21373167,1.7386393,-1.8515491,0.2353432,1930.8033,785.77305)"
       cx="5.8125062"
       cy="1040.4387"
       fx="5.8125062"
       fy="1040.4387"
       r="5.6500001" />
    <radialGradient
       inkscape:collect="always"
       xlink:href="#linearGradient3638"
       id="radialGradient2857"
       gradientUnits="userSpaceOnUse"
       gradientTransform="matrix(0.49870722,4.056825,-4.3202812,0.54913413,4478.0245,426.06302)"
       cx="5.8125062"
       cy="1040.4387"
       fx="5.8125062"
       fy="1040.4387"
       r="5.6500001" />
    <linearGradient
       inkscape:collect="always"
       xlink:href="#linearGradient3616"
       id="linearGradient2860"
       gradientUnits="userSpaceOnUse"
       x1="4.2053571"
       y1="1038.1541"
       x2="9.25"
       y2="1048.6541"
       gradientTransform="matrix(2.3333333,0,0,2.3333333,-27.183171,-1407.4074)" />
    <linearGradient
       inkscape:collect="always"
       xlink:href="#linearGradient3592"
       id="linearGradient2863"
       gradientUnits="userSpaceOnUse"
       gradientTransform="matrix(2.349315,0,0,2.349315,-27.311024,-1424.0981)"
       x1="5.2767859"
       y1="1039.5621"
       x2="9.3839283"
       y2="1049.7424" />
    <linearGradient
       inkscape:collect="always"
       xlink:href="#linearGradient3592"
       id="linearGradient3650"
       gradientUnits="userSpaceOnUse"
       gradientTransform="matrix(2.349315,0,0,2.349315,-27.311024,-1424.0981)"
       x1="5.2767859"
       y1="1039.5621"
       x2="9.3839283"
       y2="1049.7424" />
    <linearGradient
       inkscape:collect="always"
       xlink:href="#linearGradient3616"
       id="linearGradient3652"
       gradientUnits="userSpaceOnUse"
       gradientTransform="matrix(2.3333333,0,0,2.3333333,-27.183171,-1407.4074)"
       x1="4.2053571"
       y1="1038.1541"
       x2="9.25"
       y2="1048.6541" />
    <radialGradient
       inkscape:collect="always"
       xlink:href="#linearGradient3638"
       id="radialGradient3654"
       gradientUnits="userSpaceOnUse"
       gradientTransform="matrix(0.49870722,4.056825,-4.3202812,0.54913413,4478.0245,426.06302)"
       cx="5.8125062"
       cy="1040.4387"
       fx="5.8125062"
       fy="1040.4387"
       r="5.6500001" />
    <linearGradient
       gradientTransform="matrix(0.78510431,-0.45328018,0.45328018,0.78510431,-3.0869212,1019.5858)"
       y2="27.25"
       x2="40.75029"
       y1="27.25"
       x1="8.75"
       gradientUnits="userSpaceOnUse"
       id="linearGradient2898"
       xlink:href="#linearGradient3689"
       inkscape:collect="always" />
    <radialGradient
       r="16.5"
       fy="1013.8265"
       fx="24.750001"
       cy="1013.8265"
       cx="24.750001"
       gradientTransform="matrix(0.78510431,-0.45328018,0.16096666,0.27880243,-161.98921,744.35895)"
       gradientUnits="userSpaceOnUse"
       id="radialGradient2894"
       xlink:href="#linearGradient3762"
       inkscape:collect="always" />
    <linearGradient
       gradientTransform="matrix(0.67488318,-0.60529694,0.45328018,0.78510431,-458.3444,231.05669)"
       y2="1041.9611"
       x2="38.869473"
       y1="1041.9611"
       x1="21.533323"
       gradientUnits="userSpaceOnUse"
       id="linearGradient2889"
       xlink:href="#linearGradient3779"
       inkscape:collect="always" />
    <linearGradient
       y2="32.405771"
       x2="26.642774"
       y1="32.405771"
       x1="25.19068"
       gradientTransform="matrix(0.90656037,0,0,0.89619122,-512.46624,881.82267)"
       gradientUnits="userSpaceOnUse"
       id="linearGradient2886"
       xlink:href="#linearGradient3793"
       inkscape:collect="always" />
    <linearGradient
       gradientTransform="matrix(0.7953487,0,0,0.7953487,2.7834736,208.12355)"
       gradientUnits="userSpaceOnUse"
       y2="1024.2301"
       x2="16.655029"
       y1="1010.1816"
       x1="13.923502"
       id="linearGradient3660"
       xlink:href="#linearGradient3654"
       inkscape:collect="always" />
    <linearGradient
       y2="48.631344"
       x2="3.9774756"
       y1="39.410202"
       x1="3.9774756"
       gradientUnits="userSpaceOnUse"
       id="linearGradient3767"
       xlink:href="#linearGradient3704"
       inkscape:collect="always" />
    <linearGradient
       y2="48.631344"
       x2="3.9774756"
       y1="39.410202"
       x1="3.9774756"
       gradientUnits="userSpaceOnUse"
       id="linearGradient3765"
       xlink:href="#linearGradient3704"
       inkscape:collect="always" />
    <linearGradient
       y2="32.405771"
       x2="26.642774"
       y1="32.405771"
       x1="25.19068"
       gradientTransform="matrix(1,0,0,0.9885621,0,1004.7802)"
       gradientUnits="userSpaceOnUse"
       id="linearGradient3763"
       xlink:href="#linearGradient3793"
       inkscape:collect="always" />
    <linearGradient
       y2="1041.9611"
       x2="38.869473"
       y1="1041.9611"
       x1="21.533323"
       gradientUnits="userSpaceOnUse"
       id="linearGradient3760"
       xlink:href="#linearGradient3779"
       inkscape:collect="always" />
    <radialGradient
       r="16.5"
       fy="1013.8265"
       fx="24.750001"
       cy="1013.8265"
       cx="24.750001"
       gradientTransform="matrix(1,0,0,0.35511515,0,653.80135)"
       gradientUnits="userSpaceOnUse"
       id="radialGradient3758"
       xlink:href="#linearGradient3762"
       inkscape:collect="always" />
    <linearGradient
       y2="38.357143"
       x2="41.428572"
       y1="38.357143"
       x1="9.2857151"
       gradientUnits="userSpaceOnUse"
       id="linearGradient3756"
       xlink:href="#linearGradient3752"
       inkscape:collect="always" />
    <linearGradient
       y2="27.25"
       x2="40.75029"
       y1="27.25"
       x1="8.75"
       gradientUnits="userSpaceOnUse"
       id="linearGradient3754"
       xlink:href="#linearGradient3689"
       inkscape:collect="always" />
    <radialGradient
       r="19.017857"
       fy="46.035713"
       fx="22.767857"
       cy="46.035713"
       cx="22.767857"
       gradientTransform="matrix(1,0,0,0.10328639,0,41.280851)"
       gradientUnits="userSpaceOnUse"
       id="radialGradient3752"
       xlink:href="#linearGradient3692"
       inkscape:collect="always" />
    <filter
       id="filter3730"
       inkscape:collect="always">
      <feGaussianBlur
         id="feGaussianBlur3732"
         stdDeviation="0.25458124"
         inkscape:collect="always" />
    </filter>
    <linearGradient
       y2="48.631344"
       x2="3.9774756"
       y1="39.410202"
       x1="3.9774756"
       gradientUnits="userSpaceOnUse"
       id="linearGradient3726"
       xlink:href="#linearGradient3704"
       inkscape:collect="always" />
    <linearGradient
       gradientUnits="userSpaceOnUse"
       y2="48.631344"
       x2="3.9774756"
       y1="39.410202"
       x1="3.9774756"
       id="linearGradient3710"
       xlink:href="#linearGradient3704"
       inkscape:collect="always" />
    <radialGradient
       gradientUnits="userSpaceOnUse"
       gradientTransform="matrix(1,0,0,0.10328639,0,41.280851)"
       r="19.017857"
       fy="46.035713"
       fx="22.767857"
       cy="46.035713"
       cx="22.767857"
       id="radialGradient3698"
       xlink:href="#linearGradient3692"
       inkscape:collect="always" />
    <linearGradient
       y2="32.405771"
       x2="26.642774"
       y1="32.405771"
       x1="25.19068"
       gradientTransform="matrix(1,0,0,0.9885621,0,1004.7802)"
       gradientUnits="userSpaceOnUse"
       id="linearGradient3688"
       xlink:href="#linearGradient3793"
       inkscape:collect="always" />
    <linearGradient
       y2="1041.9611"
       x2="38.869473"
       y1="1041.9611"
       x1="21.533323"
       gradientUnits="userSpaceOnUse"
       id="linearGradient3686"
       xlink:href="#linearGradient3779"
       inkscape:collect="always" />
    <radialGradient
       r="16.5"
       fy="1013.8265"
       fx="24.750001"
       cy="1013.8265"
       cx="24.750001"
       gradientTransform="matrix(1,0,0,0.35511515,0,653.80135)"
       gradientUnits="userSpaceOnUse"
       id="radialGradient3684"
       xlink:href="#linearGradient3762"
       inkscape:collect="always" />
    <linearGradient
       y2="38.357143"
       x2="41.428572"
       y1="38.357143"
       x1="9.2857151"
       gradientUnits="userSpaceOnUse"
       id="linearGradient3682"
       xlink:href="#linearGradient3752"
       inkscape:collect="always" />
    <linearGradient
       y2="27.25"
       x2="40.75029"
       y1="27.25"
       x1="8.75"
       gradientUnits="userSpaceOnUse"
       id="linearGradient3680"
       xlink:href="#linearGradient3689"
       inkscape:collect="always" />
    <inkscape:perspective
       sodipodi:type="inkscape:persp3d"
       inkscape:vp_x="0 : 0.5 : 1"
       inkscape:vp_y="0 : 1000 : 0"
       inkscape:vp_z="1 : 0.5 : 1"
       inkscape:persp3d-origin="0.5 : 0.33333333 : 1"
       id="perspective2902" />
    <inkscape:perspective
       id="perspective10-3"
       inkscape:persp3d-origin="372.04724 : 350.78739 : 1"
       inkscape:vp_z="744.09448 : 526.18109 : 1"
       inkscape:vp_y="0 : 1000 : 0"
       inkscape:vp_x="0 : 526.18109 : 1"
       sodipodi:type="inkscape:persp3d" />
    <linearGradient
       id="linearGradient3689">
      <stop
         id="stop3691"
         offset="0"
         style="stop-color:#b4b4b4;stop-opacity:1;" />
      <stop
         style="stop-color:#dcdcdc;stop-opacity:1;"
         offset="0.09319168"
         id="stop3703" />
      <stop
         style="stop-color:#fafafa;stop-opacity:1;"
         offset="0.20591445"
         id="stop3701" />
      <stop
         style="stop-color:#fafafa;stop-opacity:1;"
         offset="0.49274334"
         id="stop3699" />
      <stop
         style="stop-color:#dcdcdc;stop-opacity:1;"
         offset="0.92131317"
         id="stop3697" />
      <stop
         id="stop3693"
         offset="1"
         style="stop-color:#b4b4b4;stop-opacity:1;" />
    </linearGradient>
    <linearGradient
       id="linearGradient3714">
      <stop
         id="stop3716"
         offset="0"
         style="stop-color:#646464;stop-opacity:1;" />
      <stop
         id="stop3718"
         offset="1"
         style="stop-color:#646464;stop-opacity:0;" />
    </linearGradient>
    <linearGradient
       id="linearGradient3752">
      <stop
         id="stop3754"
         offset="0"
         style="stop-color:#969696;stop-opacity:1;" />
      <stop
         style="stop-color:#e6e6e6;stop-opacity:1;"
         offset="0.5"
         id="stop3760" />
      <stop
         id="stop3756"
         offset="1"
         style="stop-color:#969696;stop-opacity:1;" />
    </linearGradient>
    <linearGradient
       id="linearGradient3762">
      <stop
         id="stop3764"
         offset="0"
         style="stop-color:#e6e6e6;stop-opacity:1;" />
      <stop
         style="stop-color:#e6e6e6;stop-opacity:1;"
         offset="0.94768125"
         id="stop3770" />
      <stop
         id="stop3766"
         offset="1"
         style="stop-color:#787878;stop-opacity:1;" />
    </linearGradient>
    <linearGradient
       id="linearGradient3779">
      <stop
         id="stop3781"
         offset="0"
         style="stop-color:#ffffff;stop-opacity:0;" />
      <stop
         style="stop-color:#ffffff;stop-opacity:0.70588237;"
         offset="0.6616711"
         id="stop3789" />
      <stop
         style="stop-color:#ffffff;stop-opacity:0.70588237;"
         offset="0.73209554"
         id="stop3787" />
      <stop
         id="stop3783"
         offset="1"
         style="stop-color:#ffffff;stop-opacity:0;" />
    </linearGradient>
    <linearGradient
       id="linearGradient3793">
      <stop
         id="stop3795"
         offset="0"
         style="stop-color:#646464;stop-opacity:0;" />
      <stop
         style="stop-color:#646464;stop-opacity:0.58823532;"
         offset="0.5"
         id="stop3801" />
      <stop
         id="stop3797"
         offset="1"
         style="stop-color:#646464;stop-opacity:0;" />
    </linearGradient>
    <linearGradient
       id="linearGradient3692">
      <stop
         id="stop3694"
         offset="0"
         style="stop-color:#969696;stop-opacity:1;" />
      <stop
         id="stop3696"
         offset="1"
         style="stop-color:#969696;stop-opacity:0;" />
    </linearGradient>
    <linearGradient
       id="linearGradient3704"
       inkscape:collect="always">
      <stop
         id="stop3706"
         offset="0"
         style="stop-color:#ffffff;stop-opacity:1;" />
      <stop
         id="stop3708"
         offset="1"
         style="stop-color:#ffffff;stop-opacity:0;" />
    </linearGradient>
    <linearGradient
       id="linearGradient3654"
       inkscape:collect="always">
      <stop
         id="stop3656"
         offset="0"
         style="stop-color:#ffffff;stop-opacity:1;" />
      <stop
         id="stop3658"
         offset="1"
         style="stop-color:#ffffff;stop-opacity:0;" />
    </linearGradient>
  </defs>
  <sodipodi:namedview
     id="base"
     pagecolor="#ffffff"
     bordercolor="#666666"
     borderopacity="1.0"
     inkscape:pageopacity="0.0"
     inkscape:pageshadow="2"
     inkscape:zoom="11.2"
     inkscape:cx="19.788996"
     inkscape:cy="26.229663"
     inkscape:document-units="px"
     inkscape:current-layer="layer1"
     showgrid="false"
     inkscape:window-width="1280"
     inkscape:window-height="712"
     inkscape:window-x="0"
     inkscape:window-y="25"
     inkscape:window-maximized="1" />
  <metadata
     id="metadata7">
    <rdf:RDF>
      <cc:Work
         rdf:about="">
        <dc:format>image/svg+xml</dc:format>
        <dc:type
           rdf:resource="http://purl.org/dc/dcmitype/StillImage" />
        <dc:title></dc:title>
      </cc:Work>
    </rdf:RDF>
  </metadata>
  <g
     inkscape:label="Livello 1"
     inkscape:groupmode="layer"
     id="layer1"
     transform="translate(0,-1004.3622)">
    <rect
       ry="1.0238097"
       rx="1.03125"
       y="1006.8622"
       x="7.5"
       height="43"
       width="33"
       id="rect4211"
       style="fill:#646464;fill-opacity:0.47058824;stroke:none" />
    <rect
       style="fill:url(#linearGradient4209);fill-opacity:1;stroke:none"
       id="rect3429"
       width="32"
       height="42"
       x="8"
       y="1007.3622"
       rx="1"
       ry="1" />
    <g
       id="layer1-0"
       inkscape:label="Livello 1"
       transform="matrix(0.59574468,0,0,0.59574468,9.7021277,421.70578)">
      <g
         transform="translate(3.3609641e-7,-0.14982919)"
         id="g3254">
        <g
           id="g3230"
           transform="matrix(0.86013283,0,0,0.86013283,62.129873,133.34401)">
          <g
             transform="matrix(0.99496053,0.10026734,-0.10026734,0.99496053,59.207475,10.127774)"
             id="g3644">
            <rect
               y="1011.9377"
               x="-26.016504"
               height="35"
               width="35"
               id="rect2842"
               style="fill:#646464;fill-opacity:0.78431373;fill-rule:nonzero;stroke:none" />
            <rect
               style="fill:url(#linearGradient3284);fill-opacity:1;fill-rule:nonzero;stroke:none"
               id="rect2844"
               width="34.299999"
               height="34.299999"
               x="-25.666504"
               y="1012.2877" />
            <rect
               style="fill:url(#linearGradient3286);fill-opacity:1;fill-rule:nonzero;stroke:none"
               id="rect2846"
               width="29.166666"
               height="24.5"
               x="-23.099838"
               y="1014.952" />
            <rect
               y="1015.2098"
               x="-22.846214"
               height="23.984211"
               width="28.65942"
               id="rect2848"
               style="fill:url(#radialGradient3288);fill-opacity:1;fill-rule:nonzero;stroke:none" />
          </g>
          <g
             transform="matrix(2.3201931,-0.24728179,0.24728179,2.3201931,-313.07821,-1386.943)"
             id="g2828">
            <rect
               style="fill:#646464;fill-opacity:0.78431373;fill-rule:nonzero;stroke:none"
               id="rect2816"
               width="15"
               height="15"
               x="0.5"
               y="1036.8622" />
            <rect
               y="1037.0122"
               x="0.6500001"
               height="14.7"
               width="14.7"
               id="rect3590"
               style="fill:url(#linearGradient3290);fill-opacity:1;fill-rule:nonzero;stroke:none" />
            <rect
               y="1038.1541"
               x="1.75"
               height="10.5"
               width="12.5"
               id="rect3604"
               style="fill:url(#linearGradient3292);fill-opacity:1;fill-rule:nonzero;stroke:none" />
            <rect
               style="fill:url(#radialGradient3294);fill-opacity:1;fill-rule:nonzero;stroke:none"
               id="rect3600"
               width="12.282609"
               height="10.278948"
               x="1.8586955"
               y="1038.2645" />
          </g>
        </g>
        <g
           id="g3660"
           transform="matrix(0.85106399,0,0,0.85106399,3.574468,157.83785)">
          <path
             transform="matrix(0.90656037,0,0,0.90656037,5.0788211,1006.1832)"
             d="m 41.785713,46.035713 c 0,1.084845 -8.514584,1.964286 -19.017856,1.964286 C 12.264584,47.999999 3.75,47.120558 3.75,46.035713 c 0,-1.084845 8.514584,-1.964286 19.017857,-1.964286 10.503272,0 19.017856,0.879441 19.017856,1.964286 z"
             sodipodi:ry="1.9642857"
             sodipodi:rx="19.017857"
             sodipodi:cy="46.035713"
             sodipodi:cx="22.767857"
             id="path3690"
             style="fill:url(#radialGradient3296);fill-opacity:1;stroke:none"
             sodipodi:type="arc" />
          <path
             sodipodi:type="arc"
             style="fill:#787878;fill-opacity:1;stroke:none"
             id="path3686"
             sodipodi:cx="25.357143"
             sodipodi:cy="38.357143"
             sodipodi:rx="16.071428"
             sodipodi:ry="5.3571429"
             d="m 41.428572,38.357143 c 0,2.958669 -7.195424,5.357143 -16.071429,5.357143 -8.876004,0 -16.0714279,-2.398474 -16.0714279,-5.357143 C 9.2857151,35.398475 16.481139,33 25.357143,33 c 8.876005,0 16.071429,2.398475 16.071429,5.357143 z"
             transform="matrix(0.79382768,-0.45831662,0.47992095,0.83124748,-4.0545612,1019.5212)" />
          <path
             id="path2908"
             d="m 8.1030682,1023.1026 13.5700758,23.5041 0.02833,0.049 c 1.439319,2.319 8.135637,0.9948 15.02638,-2.9835 6.890742,-3.9784 11.385694,-9.1155 10.096958,-11.5215 -0.0088,-0.016 -0.01903,-0.033 -0.02833,-0.049 l -13.570076,-23.504 -25.1233378,14.5049 z"
             style="fill:url(#linearGradient3298);fill-opacity:1;stroke:none" />
          <path
             sodipodi:type="arc"
             style="fill:url(#linearGradient3300);fill-opacity:1;stroke:none"
             id="path3684"
             sodipodi:cx="25.357143"
             sodipodi:cy="38.357143"
             sodipodi:rx="16.071428"
             sodipodi:ry="5.3571429"
             d="m 41.428572,38.357143 c 0,2.958669 -7.195424,5.357143 -16.071429,5.357143 -8.876004,0 -16.0714279,-2.398474 -16.0714279,-5.357143 C 9.2857151,35.398475 16.481139,33 25.357143,33 c 8.876005,0 16.071429,2.398475 16.071429,5.357143 z"
             transform="matrix(0.78161497,-0.45126561,0.46536767,0.80604045,-17.035306,996.32296)" />
          <path
             id="path3705"
             d="m 17.978441,1011.1973 c -7.154419,4.1306 -11.7557032,9.555 -10.2912002,12.0916 1.4645029,2.5366 8.4486802,1.2395 15.6031002,-2.8911 7.154418,-4.1306 11.769845,-9.5305 10.305342,-12.0671 -1.464503,-2.5366 -8.462824,-1.264 -15.617242,2.8666 z m 0.16998,0.2944 c 6.937618,-4.0054 13.677826,-5.3192 15.05471,-2.9344 1.376884,2.3849 -3.13101,7.5651 -10.068628,11.5706 -6.937618,4.0054 -13.6778262,5.3192 -15.0547101,2.9344 -1.3768839,-2.3848 3.1310101,-7.5651 10.0686281,-11.5706 z"
             style="fill:url(#radialGradient3302);fill-opacity:1;stroke:none" />
          <path
             sodipodi:nodetypes="ccccc"
             id="rect3772"
             d="m 23.71993,1027.8116 c 5.203481,-2.1631 9.611886,-5.7653 12.145043,-9.7225 l 8.66087,15.0011 c -2.865186,4.7715 -7.746065,7.8047 -12.145043,9.7224 l -8.66087,-15.001 z"
             style="fill:#e35e20;fill-opacity:1;stroke:none" />
          <path
             style="fill:#e35e20;fill-opacity:1;stroke:none"
             d="m 23.71993,1027.8116 c 5.203481,-2.1631 9.611886,-5.7653 12.145043,-9.7225 l 8.66087,15.0011 c -2.865186,4.7715 -7.746065,7.8047 -12.145043,9.7224 l -8.66087,-15.001 z"
             id="path3775"
             sodipodi:nodetypes="ccccc" />
          <path
             sodipodi:nodetypes="ccccc"
             id="path3777"
             d="m 23.71993,1027.8116 c 5.203481,-2.1631 9.611886,-5.7653 12.145043,-9.7225 l 8.66087,15.0011 c -2.865186,4.7715 -7.746065,7.8047 -12.145043,9.7224 l -8.66087,-15.001 z"
             style="fill:url(#linearGradient3304);fill-opacity:1;stroke:none" />
          <rect
             transform="matrix(0.86602541,-0.5,0.5,0.86602541,0,0)"
             y="902.20764"
             x="-489.62936"
             height="17.313667"
             width="1.3164111"
             id="rect3791"
             style="fill:url(#linearGradient3306);fill-opacity:1;stroke:none" />
          <path
             transform="matrix(0.90656037,0,0,0.90656037,5.0788211,1005.3736)"
             d="m 13.005714,46.358501 c 0,1.255257 -4.04208,2.272844 -9.0282384,2.272844 -4.9861583,0 -9.0282383,-1.017587 -9.0282383,-2.272844 0,-1.255256 4.04208,-2.272843 9.0282383,-2.272843 4.9861584,0 9.0282384,1.017587 9.0282384,2.272843 z"
             sodipodi:ry="2.2728431"
             sodipodi:rx="9.0282383"
             sodipodi:cy="46.358501"
             sodipodi:cx="3.9774756"
             id="path3700"
             style="fill:#dc951e;fill-opacity:0.99607843;stroke:none"
             sodipodi:type="arc" />
          <path
             sodipodi:type="arc"
             style="fill:url(#linearGradient3308);fill-opacity:1;stroke:none"
             id="path3702"
             sodipodi:cx="3.9774756"
             sodipodi:cy="46.358501"
             sodipodi:rx="9.0282383"
             sodipodi:ry="2.2728431"
             d="m 13.005714,46.358501 c 0,1.255257 -4.04208,2.272844 -9.0282384,2.272844 -4.9861583,0 -9.0282383,-1.017587 -9.0282383,-2.272844 0,-1.255256 4.04208,-2.272843 9.0282383,-2.272843 4.9861584,0 9.0282384,1.017587 9.0282384,2.272843 z"
             transform="matrix(0.66743216,0,0,0.5248407,6.0299477,1022.202)" />
          <path
             transform="matrix(0.90656037,0,0,0.90656037,5.0788211,94.858657)"
             style="fill:none;stroke:#333333;stroke-width:0.2;stroke-miterlimit:4;stroke-opacity:0.78431373;stroke-dasharray:none;filter:url(#filter3730)"
             d="m 13.375,1016.206 c -6.1738182,0.1289 -11.1875002,2.3645 -11.1875002,5.2812 0,0.06 0.023982,0.152 0.03125,0.2188 l -0.03125,0 c 0.02506,0.049 0.03792,0.107 0.0625,0.1562 0.098629,0.5698 0.406449,1.2911 0.84375,1.9688 0.376114,1.1044 0.615643,2.2473 0.6875,3.4687 l 0.03125,0 c 0.105129,4.997 0.43377,10.003 0,15 -0.719413,1.4699 -0.444339,2.6366 0,3.4063 0.654762,0.6794 1.325707,0.6735 1.96875,0 0.543697,-0.5695 0.583256,-2.0768 0,-3.4063 -0.521874,-5.0179 -0.07872,-10.0446 0,-15.0625 l -0.03125,0 c 0.039478,-0.6405 0.09849,-1.5373 0.2077015,-2.0906 0.020601,-0.012 0.042066,-0.018 0.0625,-0.031 2.2935227,0.1619 4.3973417,-0.417 7.0091527,-1.2884 2.527113,-1.0243 3.975787,-1.4518 8.505221,-4.1681 1.921978,-1.2579 1.555124,-0.7166 1.003607,-1.9907 -0.789752,-1.9728 -2.988017,-1.5912 -9.163182,-1.4621 l 0,-3e-4 z"
             id="path3728"
             sodipodi:nodetypes="csccscccccscccccccccc" />
          <path
             sodipodi:nodetypes="csccscccccscccccccccc"
             id="rect3712"
             d="m 17.204066,1016.1107 c -5.596939,0.1169 -10.1421443,2.1436 -10.1421443,4.7878 0,0.054 0.021741,0.1378 0.02833,0.1983 l -0.02833,0 c 0.022718,0.044 0.034377,0.097 0.05666,0.1416 0.089413,0.5166 0.3684705,1.1705 0.7649103,1.7849 0.34097,1.0012 0.5581175,2.0373 0.6232602,3.1446 l 0.02833,0 c 0.095306,4.53 0.3932387,9.0683 0,13.5984 -0.6521913,1.3325 -0.4028201,2.3902 0,3.088 0.5935813,0.6159 1.2018335,0.6105 1.7847908,0 0.492894,-0.5163 0.528757,-1.8828 0,-3.088 -0.4731103,-4.5491 -0.07136,-9.1061 0,-13.6551 l -0.02833,0 c 0.03579,-0.5807 0.08929,-1.3937 0.188294,-1.8953 0.01868,-0.011 0.03814,-0.016 0.05666,-0.028 2.079217,0.1468 3.986456,-0.378 6.35422,-1.168 2.290981,-0.9286 3.604291,-1.3161 7.710496,-3.7786 1.742389,-1.1404 1.409814,-0.6497 0.909831,-1.8047 -0.715958,-1.7885 -2.708818,-1.4425 -8.306978,-1.3255 l 0,-3e-4 z"
             style="fill:#e3b216;fill-opacity:1;stroke:none" />
          <path
             style="fill:#dc951e;fill-opacity:0.99607843;stroke:none"
             d="m 17.204066,1016.649 c -5.596939,0.1168 -9.405564,1.6903 -9.405564,4.3344 0,0.054 0.021741,0.1378 0.02833,0.1984 l -0.02833,0 c 0.022718,0.044 0.034377,0.097 0.05666,0.1416 0.089413,0.5165 0.08517,1.0288 0.4816101,1.6432 0.2804365,1.0213 0.7096179,1.9682 0.5666003,3.2013 0.095306,4.53 0.6765388,9.0683 0.2833001,13.5984 -0.6521913,1.3325 -0.4028201,2.3902 0,3.088 0.5635328,0.4256 0.5602593,0.4804 1.1332005,0 0.546981,-0.4587 0.528757,-1.8828 0,-3.088 -0.4731103,-4.5491 -0.07136,-9.1061 0,-13.6551 l -0.02833,0 c 0.03579,-0.5807 0.08929,-1.3937 0.188294,-1.8953 0.01868,-0.011 0.03814,-0.016 0.05666,-0.028 2.079217,0.1468 3.986456,-0.378 6.35422,-1.168 2.290981,-0.9286 3.604291,-1.3161 7.710496,-3.7786 1.126212,-0.8004 1.069854,-0.3097 0.569871,-1.4647 -0.832365,-1.3313 -3.911035,-1.4277 -7.967018,-1.1275 z"
             id="path3722"
             sodipodi:nodetypes="csccsccccsccccccccc" />
          <path
             transform="matrix(0.31435372,0,0,-0.17240718,7.4343086,1057.0615)"
             d="m 13.005714,46.358501 c 0,1.255257 -4.04208,2.272844 -9.0282384,2.272844 -4.9861583,0 -9.0282383,-1.017587 -9.0282383,-2.272844 0,-1.255256 4.04208,-2.272843 9.0282383,-2.272843 4.9861584,0 9.0282384,1.017587 9.0282384,2.272843 z"
             sodipodi:ry="2.2728431"
             sodipodi:rx="9.0282383"
             sodipodi:cy="46.358501"
             sodipodi:cx="3.9774756"
             id="path3724"
             style="fill:url(#linearGradient3310);fill-opacity:1;stroke:none"
             sodipodi:type="arc" />
          <path
             sodipodi:nodetypes="csccsccccccc"
             id="path2880"
             d="m 16.466705,1016.7142 c -4.451518,0.093 -7.480703,1.3444 -7.480703,3.4474 0,0.043 0.017292,0.1096 0.022532,0.1578 l -0.022532,0 c 0.018069,0.035 0.027342,0.077 0.045065,0.1126 0.071115,0.4108 0.06774,0.8183 0.383048,1.3069 0.418619,0.6004 0.955107,0.9886 1.704484,0.9937 1.75633,0.093 3.440827,-0.4202 5.098884,-0.9513 1.822129,-0.7385 2.86667,-1.0467 6.132533,-3.0053 0.895732,-0.6366 0.850907,-0.2463 0.453246,-1.1649 -0.66202,-1.0589 -3.110636,-1.1356 -6.336557,-0.8968 l 0,-10e-5 z"
             style="fill:url(#linearGradient3312);fill-opacity:1;stroke:none" />
        </g>
      </g>
    </g>
    <path
       style="fill:#fd8011;fill-opacity:1;fill-rule:nonzero;stroke:none"
       d="M 8 5.5 L 8 13.5 L 28 13.5 C 30.209139 13.5 32 11.709139 32 9.5 C 32 7.290861 30.209139 5.5 28 5.5 L 8 5.5 z M 9.75 7.59375 L 12.40625 7.59375 C 12.423825 7.5937538 12.455075 7.613285 12.46875 7.625 C 12.484372 7.6347694 12.490231 7.6621131 12.5 7.6875 C 12.509763 7.7109412 12.496091 7.740238 12.5 7.78125 C 12.505856 7.8222692 12.531247 7.8476598 12.53125 7.90625 C 12.531247 7.962894 12.505856 8.0214877 12.5 8.0625 C 12.496091 8.1015658 12.509763 8.1308626 12.5 8.15625 C 12.490231 8.1796907 12.484372 8.2070344 12.46875 8.21875 C 12.455075 8.2304719 12.423825 8.2500032 12.40625 8.25 L 11.46875 8.25 L 11.46875 11.28125 C 11.468748 11.300781 11.45117 11.328125 11.4375 11.34375 C 11.425779 11.359375 11.404295 11.365234 11.375 11.375 C 11.345701 11.384766 11.30078 11.400391 11.25 11.40625 C 11.20117 11.412109 11.136717 11.40625 11.0625 11.40625 C 10.98828 11.40625 10.92578 11.412109 10.875 11.40625 C 10.826171 11.400391 10.810546 11.384766 10.78125 11.375 C 10.751952 11.365234 10.701171 11.359375 10.6875 11.34375 C 10.67578 11.328125 10.687499 11.300781 10.6875 11.28125 L 10.6875 8.25 L 9.75 8.25 C 9.7304686 8.2500032 9.7011718 8.2304719 9.6875 8.21875 C 9.673828 8.2070344 9.6660156 8.1796907 9.65625 8.15625 C 9.6464843 8.1308626 9.6308593 8.1015658 9.625 8.0625 C 9.6210937 8.0214877 9.625 7.962894 9.625 7.90625 C 9.625 7.8476598 9.6210937 7.8222692 9.625 7.78125 C 9.6308593 7.740238 9.6464843 7.7109412 9.65625 7.6875 C 9.6660156 7.6621131 9.673828 7.6347694 9.6875 7.625 C 9.7011718 7.613285 9.7304686 7.5937538 9.75 7.59375 z M 13.1875 7.59375 C 13.236327 7.5878944 13.300781 7.5937538 13.375 7.59375 C 13.451171 7.5937538 13.513671 7.5878944 13.5625 7.59375 C 13.611327 7.5996132 13.626952 7.6152382 13.65625 7.625 C 13.685546 7.6347694 13.70703 7.6406288 13.71875 7.65625 C 13.732421 7.6718787 13.749999 7.6992225 13.75 7.71875 L 13.75 11.28125 C 13.749999 11.300781 13.732421 11.328125 13.71875 11.34375 C 13.70703 11.359375 13.685546 11.365234 13.65625 11.375 C 13.626952 11.384766 13.611327 11.400391 13.5625 11.40625 C 13.513671 11.412109 13.451171 11.40625 13.375 11.40625 C 13.300781 11.40625 13.238281 11.412109 13.1875 11.40625 C 13.138671 11.400391 13.091796 11.384766 13.0625 11.375 C 13.033203 11.365234 13.013671 11.359375 13 11.34375 C 12.988281 11.328125 12.96875 11.300781 12.96875 11.28125 L 12.96875 7.71875 C 12.96875 7.6992225 12.988281 7.6718787 13 7.65625 C 13.013671 7.6406288 13.033203 7.6347694 13.0625 7.625 C 13.093749 7.6152382 13.138671 7.5996132 13.1875 7.59375 z M 14.8125 7.59375 L 16.59375 7.59375 C 16.611326 7.5937538 16.642576 7.613285 16.65625 7.625 C 16.669919 7.6347694 16.677732 7.6621131 16.6875 7.6875 C 16.699216 7.7109412 16.683591 7.740238 16.6875 7.78125 C 16.693357 7.8222692 16.718747 7.8476598 16.71875 7.90625 C 16.718747 7.9648472 16.693357 8.0214877 16.6875 8.0625 C 16.683591 8.1015658 16.699216 8.1328158 16.6875 8.15625 C 16.677732 8.1796907 16.669919 8.2070344 16.65625 8.21875 C 16.642576 8.2304719 16.611326 8.2500032 16.59375 8.25 L 15.34375 8.25 L 15.34375 9.25 L 16.53125 9.25 C 16.548826 9.2500021 16.548826 9.2714865 16.5625 9.28125 C 16.576169 9.2910177 16.583982 9.2890646 16.59375 9.3125 C 16.605466 9.3359396 16.621091 9.3671895 16.625 9.40625 C 16.630857 9.4453144 16.624998 9.5039081 16.625 9.5625 C 16.624998 9.6210955 16.630857 9.6796892 16.625 9.71875 C 16.621091 9.7578142 16.605466 9.787111 16.59375 9.8125 C 16.583982 9.8378922 16.576169 9.8320328 16.5625 9.84375 C 16.548826 9.8535172 16.548826 9.8750015 16.53125 9.875 L 15.34375 9.875 L 15.34375 11.28125 C 15.343749 11.302734 15.355468 11.328125 15.34375 11.34375 C 15.33203 11.359375 15.312499 11.363281 15.28125 11.375 C 15.251952 11.384766 15.205077 11.400391 15.15625 11.40625 C 15.107421 11.412109 15.044921 11.40625 14.96875 11.40625 C 14.894531 11.40625 14.832031 11.412109 14.78125 11.40625 C 14.732421 11.400391 14.685546 11.384766 14.65625 11.375 C 14.626953 11.363281 14.607421 11.359375 14.59375 11.34375 C 14.582031 11.328125 14.59375 11.302734 14.59375 11.28125 L 14.59375 7.84375 C 14.59375 7.7578161 14.613281 7.6933631 14.65625 7.65625 C 14.701171 7.6171913 14.748046 7.5937538 14.8125 7.59375 z M 17.5625 7.59375 L 19.34375 7.59375 C 19.361326 7.5937538 19.392576 7.613285 19.40625 7.625 C 19.419919 7.6347694 19.427732 7.6621131 19.4375 7.6875 C 19.449216 7.7109412 19.464841 7.740238 19.46875 7.78125 C 19.474607 7.8222692 19.468747 7.8476598 19.46875 7.90625 C 19.468747 7.9648472 19.474607 8.0214877 19.46875 8.0625 C 19.464841 8.1015658 19.449216 8.1328158 19.4375 8.15625 C 19.427732 8.1796907 19.419919 8.2070344 19.40625 8.21875 C 19.392576 8.2304719 19.361326 8.2500032 19.34375 8.25 L 18.125 8.25 L 18.125 9.25 L 19.28125 9.25 C 19.298826 9.2500021 19.298826 9.2714865 19.3125 9.28125 C 19.326169 9.2910177 19.333982 9.2890646 19.34375 9.3125 C 19.355466 9.3359396 19.371091 9.3671895 19.375 9.40625 C 19.380857 9.4453144 19.374998 9.5039081 19.375 9.5625 C 19.374998 9.6210955 19.380857 9.6796892 19.375 9.71875 C 19.371091 9.7578142 19.355466 9.787111 19.34375 9.8125 C 19.333982 9.8378922 19.326169 9.8320328 19.3125 9.84375 C 19.298826 9.8535172 19.298826 9.8750015 19.28125 9.875 L 18.125 9.875 L 18.125 11.28125 C 18.124999 11.302734 18.105468 11.328125 18.09375 11.34375 C 18.08203 11.359375 18.062499 11.363281 18.03125 11.375 C 18.001952 11.384766 17.955077 11.400391 17.90625 11.40625 C 17.857421 11.412109 17.794921 11.40625 17.71875 11.40625 C 17.644531 11.40625 17.582031 11.412109 17.53125 11.40625 C 17.482421 11.400391 17.435546 11.384766 17.40625 11.375 C 17.376953 11.363281 17.357421 11.359375 17.34375 11.34375 C 17.332031 11.328125 17.34375 11.302734 17.34375 11.28125 L 17.34375 7.84375 C 17.34375 7.7578161 17.363281 7.6933631 17.40625 7.65625 C 17.451171 7.6171913 17.498046 7.5937538 17.5625 7.59375 z "
       transform="translate(0,1004.3622)"
       id="rect3551" />
  </g>
</svg>
