<?xml version="1.0" encoding="UTF-8" standalone="no"?>
<!-- Created with Inkscape (http://www.inkscape.org/) -->

<svg
   xmlns:dc="http://purl.org/dc/elements/1.1/"
   xmlns:cc="http://creativecommons.org/ns#"
   xmlns:rdf="http://www.w3.org/1999/02/22-rdf-syntax-ns#"
   xmlns:svg="http://www.w3.org/2000/svg"
   xmlns="http://www.w3.org/2000/svg"
   xmlns:xlink="http://www.w3.org/1999/xlink"
   xmlns:sodipodi="http://sodipodi.sourceforge.net/DTD/sodipodi-0.dtd"
   xmlns:inkscape="http://www.inkscape.org/namespaces/inkscape"
   width="48"
   height="48"
   id="svg2"
   version="1.1"
   inkscape:version="0.47pre4 r22446"
   sodipodi:docname="message.svg"
   inkscape:export-filename="/home/andrea/Documenti/MeliaeSVG/48/mimetypes/png/text-x-preview.png"
   inkscape:export-xdpi="240"
   inkscape:export-ydpi="240">
  <defs
     id="defs4">
    <linearGradient
       id="linearGradient4203">
      <stop
         style="stop-color:#f0f0f0;stop-opacity:1;"
         offset="0"
         id="stop4205" />
      <stop
         style="stop-color:#ffffff;stop-opacity:1;"
         offset="1"
         id="stop4207" />
    </linearGradient>
    <inkscape:perspective
       sodipodi:type="inkscape:persp3d"
       inkscape:vp_x="0 : 526.18109 : 1"
       inkscape:vp_y="0 : 1000 : 0"
       inkscape:vp_z="744.09448 : 526.18109 : 1"
       inkscape:persp3d-origin="372.04724 : 350.78739 : 1"
       id="perspective10" />
    <linearGradient
       inkscape:collect="always"
       xlink:href="#linearGradient4203"
       id="linearGradient4209"
       x1="31.687183"
       y1="1045.266"
       x2="15.481234"
       y2="1013.3396"
       gradientUnits="userSpaceOnUse" />
  </defs>
  <sodipodi:namedview
     id="base"
     pagecolor="#ffffff"
     bordercolor="#666666"
     borderopacity="1.0"
     inkscape:pageopacity="0.0"
     inkscape:pageshadow="2"
     inkscape:zoom="7.919596"
     inkscape:cx="20.103768"
     inkscape:cy="24.516937"
     inkscape:document-units="px"
     inkscape:current-layer="layer1"
     showgrid="false"
     inkscape:window-width="1280"
     inkscape:window-height="712"
     inkscape:window-x="0"
     inkscape:window-y="25"
     inkscape:window-maximized="1" />
  <metadata
     id="metadata7">
    <rdf:RDF>
      <cc:Work
         rdf:about="">
        <dc:format>image/svg+xml</dc:format>
        <dc:type
           rdf:resource="http://purl.org/dc/dcmitype/StillImage" />
        <dc:title />
      </cc:Work>
    </rdf:RDF>
  </metadata>
  <g
     inkscape:label="Livello 1"
     inkscape:groupmode="layer"
     id="layer1"
     transform="translate(0,-1004.3622)">
    <rect
       ry="1.0238097"
       rx="1.03125"
       y="1006.8622"
       x="7.5"
       height="43"
       width="33"
       id="rect4211"
       style="fill:#646464;fill-opacity:0.47058824;stroke:none" />
    <rect
       style="fill:url(#linearGradient4209);fill-opacity:1;stroke:none"
       id="rect3429"
       width="32"
       height="42"
       x="8"
       y="1007.3622"
       rx="1"
       ry="1" />
    <g
       id="g3611"
       transform="translate(-1.245113,1.3261719e-4)">
      <g
         id="text3598"
         style="font-size:30px;font-style:normal;font-variant:normal;font-weight:normal;font-stretch:normal;fill:#ffffff;fill-opacity:1;stroke:none;font-family:Calibri;-inkscape-font-specification:Calibri">
        <path
           sodipodi:nodetypes="cssssssssscsssssssssssssssssssccsssssccsssssssssscssssssssssssssssssssssssssssssssssssssssscssccssssssssssssscc"
           id="path3609"
           d="m 36.128906,1025.4083 c -2.4e-5,0.6641 -0.04397,1.3428 -0.131836,2.0362 -0.07815,0.6933 -0.209985,1.3672 -0.395508,2.0214 -0.18557,0.6543 -0.42971,1.2745 -0.732421,1.8604 -0.302757,0.5762 -0.673851,1.084 -1.113282,1.5234 -0.439474,0.4395 -0.952169,0.7862 -1.538086,1.0401 -0.576191,0.2441 -1.240253,0.3662 -1.992187,0.3662 -0.400409,0 -0.771502,-0.044 -1.113281,-0.1319 -0.341814,-0.098 -0.644548,-0.2343 -0.908203,-0.4101 -0.263688,-0.1758 -0.488298,-0.4004 -0.673829,-0.6738 -0.175796,-0.2832 -0.297866,-0.6055 -0.366211,-0.9668 -0.390639,0.3906 -0.771498,0.7275 -1.142578,1.0107 -0.361342,0.2734 -0.717786,0.4981 -1.069336,0.6738 -0.351575,0.1758 -0.698254,0.3028 -1.040039,0.3809 -0.332043,0.078 -0.659191,0.1172 -0.981445,0.1172 -0.419932,0 -0.791026,-0.039 -1.113281,-0.1172 -0.322275,-0.088 -0.610361,-0.21 -0.864258,-0.3662 -0.244149,-0.166 -0.45411,-0.3662 -0.629883,-0.6006 -0.175789,-0.2344 -0.322274,-0.498 -0.439453,-0.791 -0.117195,-0.293 -0.200203,-0.6152 -0.249023,-0.9668 -0.04884,-0.3516 -0.07325,-0.7324 -0.07324,-1.1426 -7e-6,-0.4199 0.03417,-0.8984 0.102539,-1.4355 0.06835,-0.5469 0.180657,-1.1084 0.336915,-1.6846 0.156241,-0.5762 0.371085,-1.1377 0.644531,-1.6846 0.273428,-0.5566 0.610342,-1.0498 1.010742,-1.4795 0.410146,-0.4394 0.893544,-0.791 1.450195,-1.0547 0.556629,-0.2734 1.206043,-0.4101 1.948242,-0.4101 0.312487,0 0.610338,0.039 0.893555,0.1172 0.292955,0.068 0.571275,0.1806 0.834961,0.3369 0.263657,0.1562 0.517563,0.3516 0.761719,0.5859 0.244125,0.2344 0.493148,0.5127 0.74707,0.835 l 0.249024,-1.2891 c 0.03905,-0.1367 0.126936,-0.2392 0.263671,-0.3076 0.136702,-0.068 0.390608,-0.1025 0.761719,-0.1025 0.175764,0 0.322248,0.01 0.439453,0.029 0.126935,0.019 0.224591,0.049 0.292969,0.088 0.06834,0.029 0.112286,0.068 0.131836,0.1171 0.02928,0.049 0.03416,0.1075 0.01465,0.1758 l -1.30371,6.7383 c -0.156268,0.8496 -0.117205,1.4795 0.117187,1.8897 0.234357,0.4003 0.678693,0.6005 1.333008,0.6005 0.400371,0 0.761699,-0.098 1.083984,-0.2929 0.322246,-0.2051 0.605449,-0.4785 0.84961,-0.8203 0.244119,-0.3418 0.449197,-0.7373 0.615234,-1.1866 0.165994,-0.4589 0.302713,-0.9375 0.410156,-1.4355 0.1074,-0.5078 0.185525,-1.0254 0.234375,-1.5527 0.04881,-0.5274 0.07322,-1.0352 0.07324,-1.5235 -2.2e-5,-0.8496 -0.117209,-1.6552 -0.351562,-2.417 -0.224631,-0.7714 -0.615255,-1.4453 -1.171875,-2.0215 -0.556661,-0.5859 -1.30373,-1.0498 -2.241211,-1.3916 -0.927752,-0.3515 -2.094743,-0.5273 -3.500977,-0.5273 -1.152357,0 -2.177746,0.127 -3.076171,0.3809 -0.898449,0.2539 -1.689464,0.6006 -2.373047,1.04 -0.683603,0.4297 -1.26954,0.9277 -1.757813,1.4941 -0.488288,0.5665 -0.903327,1.1719 -1.245117,1.8164 -0.332037,0.6348 -0.600592,1.2891 -0.805664,1.9629 -0.205083,0.6641 -0.361333,1.3086 -0.46875,1.9336 -0.107427,0.6153 -0.180669,1.1963 -0.219727,1.7432 -0.0293,0.5469 -0.04395,1.0107 -0.04395,1.3916 -5e-6,1.084 0.122066,2.0752 0.366211,2.9736 0.253901,0.8985 0.688471,1.6748 1.303711,2.3291 0.615227,0.6543 1.440422,1.1621 2.475586,1.5235 1.035146,0.3613 2.338856,0.5419 3.911133,0.542 0.712877,-10e-5 1.357407,-0.044 1.933593,-0.1319 0.576157,-0.078 1.074203,-0.166 1.494141,-0.2637 0.429671,-0.088 0.77635,-0.1757 1.040039,-0.2636 0.263654,-0.078 0.444318,-0.1172 0.541992,-0.1172 0.05858,0 0.107404,0.015 0.146485,0.044 0.04881,0.039 0.08299,0.093 0.102539,0.1612 0.02928,0.078 0.04881,0.1709 0.05859,0.2783 0.0097,0.1172 0.01463,0.2588 0.01465,0.4248 -1.8e-5,0.1367 -0.0049,0.249 -0.01465,0.3369 -1.8e-5,0.088 -0.0098,0.166 -0.0293,0.2344 -0.01955,0.078 -0.04885,0.1465 -0.08789,0.2051 -0.02932,0.058 -0.07326,0.1123 -0.131836,0.1611 -0.05861,0.049 -0.22951,0.1221 -0.512695,0.2197 -0.273455,0.098 -0.649431,0.1953 -1.12793,0.293 -0.468766,0.098 -1.020523,0.1806 -1.655273,0.249 -0.63478,0.068 -1.333021,0.1025 -2.094727,0.1025 -1.826182,0 -3.374032,-0.2148 -4.643555,-0.6445 -1.259772,-0.4297 -2.290044,-1.0449 -3.09082,-1.8457 -0.79102,-0.8008 -1.362308,-1.7627 -1.713867,-2.8857 -0.351565,-1.1231 -0.527346,-2.378 -0.527344,-3.7647 -2e-6,-0.5078 0.02441,-1.0888 0.07324,-1.7431 0.05859,-0.6641 0.16113,-1.3672 0.307618,-2.1094 0.156246,-0.752 0.37109,-1.5137 0.644531,-2.2852 0.273433,-0.7812 0.624996,-1.5429 1.054687,-2.2851 0.439448,-0.7422 0.966792,-1.4404 1.582031,-2.0948 0.624994,-0.664 1.357415,-1.2402 2.197266,-1.7285 0.8496,-0.498 1.816396,-0.8886 2.900391,-1.1718 1.093737,-0.2832 2.329088,-0.4248 3.706054,-0.4249 1.601546,10e-5 2.983381,0.1954 4.145508,0.586 1.171855,0.3809 2.138651,0.9229 2.900391,1.626 0.761696,0.7031 1.328102,1.5625 1.699219,2.5781 0.371069,1.0059 0.556616,2.1289 0.55664,3.3691 m -8.496094,0.9522 c -0.371109,-0.625 -0.751968,-1.1035 -1.142578,-1.4356 -0.390639,-0.332 -0.834974,-0.498 -1.333007,-0.498 -0.41017,0 -0.781263,0.1025 -1.113282,0.3076 -0.332043,0.1953 -0.620128,0.4541 -0.864258,0.7764 -0.244151,0.3125 -0.454112,0.6689 -0.629882,1.0693 -0.166026,0.4004 -0.302745,0.8106 -0.410157,1.2305 -0.107432,0.4199 -0.185557,0.8301 -0.234375,1.2304 -0.03907,0.3907 -0.0586,0.7373 -0.05859,1.0401 -10e-6,0.7226 0.126943,1.2793 0.380859,1.6699 0.263661,0.3906 0.703114,0.5859 1.318359,0.5859 0.234364,0 0.473621,-0.039 0.717774,-0.1172 0.244128,-0.088 0.502917,-0.2148 0.776367,-0.3808 0.273424,-0.1758 0.56151,-0.4004 0.864258,-0.6738 0.312486,-0.2832 0.654282,-0.6153 1.02539,-0.9961 l 0.703125,-3.8086" />
      </g>
      <g
         id="text3594"
         style="font-size:30px;font-style:normal;font-variant:normal;font-weight:normal;font-stretch:normal;fill:#b4b4b4;fill-opacity:1;stroke:none;font-family:Calibri;-inkscape-font-specification:Calibri">
        <path
           sodipodi:nodetypes="cssssssssscsssssssssssssssssssccsssssccsssssssssscssssssssssssssssssssssssssssssssssssssssscssccssssssssssssscc"
           id="path3606"
           d="m 36.128906,1024.651 c -2.4e-5,0.6641 -0.04397,1.3428 -0.131836,2.0361 -0.07815,0.6934 -0.209985,1.3672 -0.395508,2.0215 -0.18557,0.6543 -0.42971,1.2744 -0.732421,1.8604 -0.302757,0.5761 -0.673851,1.084 -1.113282,1.5234 -0.439474,0.4395 -0.952169,0.7861 -1.538086,1.04 -0.576191,0.2442 -1.240253,0.3663 -1.992187,0.3663 -0.400409,0 -0.771502,-0.044 -1.113281,-0.1319 -0.341814,-0.098 -0.644548,-0.2344 -0.908203,-0.4101 -0.263688,-0.1758 -0.488298,-0.4004 -0.673829,-0.6739 -0.175796,-0.2832 -0.297866,-0.6054 -0.366211,-0.9668 -0.390639,0.3907 -0.771498,0.7276 -1.142578,1.0108 -0.361342,0.2734 -0.717786,0.498 -1.069336,0.6738 -0.351575,0.1758 -0.698254,0.3027 -1.040039,0.3809 -0.332043,0.078 -0.659191,0.1172 -0.981445,0.1172 -0.419932,0 -0.791026,-0.039 -1.113281,-0.1172 -0.322275,-0.088 -0.610361,-0.21 -0.864258,-0.3662 -0.244149,-0.1661 -0.45411,-0.3662 -0.629883,-0.6006 -0.175789,-0.2344 -0.322274,-0.4981 -0.439453,-0.791 -0.117195,-0.293 -0.200203,-0.6153 -0.249023,-0.9668 -0.04884,-0.3516 -0.07325,-0.7325 -0.07324,-1.1426 -7e-6,-0.4199 0.03417,-0.8984 0.102539,-1.4356 0.06835,-0.5468 0.180657,-1.1084 0.336915,-1.6845 0.156241,-0.5762 0.371085,-1.1377 0.644531,-1.6846 0.273428,-0.5566 0.610342,-1.0498 1.010742,-1.4795 0.410146,-0.4394 0.893544,-0.791 1.450195,-1.0547 0.556629,-0.2734 1.206043,-0.4101 1.948242,-0.4101 0.312487,0 0.610338,0.039 0.893555,0.1171 0.292955,0.068 0.571275,0.1807 0.834961,0.337 0.263657,0.1562 0.517563,0.3515 0.761719,0.5859 0.244125,0.2344 0.493148,0.5127 0.74707,0.835 l 0.249024,-1.2891 c 0.03905,-0.1367 0.126936,-0.2392 0.263671,-0.3076 0.136702,-0.068 0.390608,-0.1025 0.761719,-0.1026 0.175764,10e-5 0.322248,0.01 0.439453,0.029 0.126935,0.02 0.224591,0.049 0.292969,0.088 0.06834,0.029 0.112286,0.068 0.131836,0.1172 0.02928,0.049 0.03416,0.1075 0.01465,0.1758 l -1.30371,6.7383 c -0.156268,0.8496 -0.117205,1.4795 0.117187,1.8896 0.234357,0.4004 0.678693,0.6006 1.333008,0.6006 0.400371,0 0.761699,-0.098 1.083984,-0.293 0.322246,-0.205 0.605449,-0.4785 0.84961,-0.8203 0.244119,-0.3418 0.449197,-0.7373 0.615234,-1.1865 0.165994,-0.459 0.302713,-0.9375 0.410156,-1.4355 0.1074,-0.5078 0.185525,-1.0254 0.234375,-1.5528 0.04881,-0.5273 0.07322,-1.0351 0.07324,-1.5234 -2.2e-5,-0.8496 -0.117209,-1.6553 -0.351562,-2.417 -0.224631,-0.7715 -0.615255,-1.4453 -1.171875,-2.0215 -0.556661,-0.5859 -1.30373,-1.0498 -2.241211,-1.3916 -0.927752,-0.3515 -2.094743,-0.5273 -3.500977,-0.5273 -1.152357,0 -2.177746,0.1269 -3.076171,0.3808 -0.898449,0.2539 -1.689464,0.6006 -2.373047,1.0401 -0.683603,0.4297 -1.26954,0.9277 -1.757813,1.4941 -0.488288,0.5664 -0.903327,1.1719 -1.245117,1.8164 -0.332037,0.6348 -0.600592,1.2891 -0.805664,1.9629 -0.205083,0.6641 -0.361333,1.3086 -0.46875,1.9336 -0.107427,0.6152 -0.180669,1.1963 -0.219727,1.7432 -0.0293,0.5468 -0.04395,1.0107 -0.04395,1.3916 -5e-6,1.084 0.122066,2.0752 0.366211,2.9736 0.253901,0.8984 0.688471,1.6748 1.303711,2.3291 0.615227,0.6543 1.440422,1.1621 2.475586,1.5234 1.035146,0.3614 2.338856,0.542 3.911133,0.542 0.712877,0 1.357407,-0.044 1.933593,-0.1318 0.576157,-0.078 1.074203,-0.166 1.494141,-0.2637 0.429671,-0.088 0.77635,-0.1758 1.040039,-0.2637 0.263654,-0.078 0.444318,-0.1171 0.541992,-0.1171 0.05858,0 0.107404,0.015 0.146485,0.044 0.04881,0.039 0.08299,0.093 0.102539,0.1611 0.02928,0.078 0.04881,0.1709 0.05859,0.2784 0.0097,0.1171 0.01463,0.2587 0.01465,0.4248 -1.8e-5,0.1367 -0.0049,0.249 -0.01465,0.3369 -1.8e-5,0.088 -0.0098,0.166 -0.0293,0.2344 -0.01955,0.078 -0.04885,0.1464 -0.08789,0.205 -0.02932,0.059 -0.07326,0.1123 -0.131836,0.1612 -0.05861,0.049 -0.22951,0.122 -0.512695,0.2197 -0.273455,0.098 -0.649431,0.1953 -1.12793,0.293 -0.468766,0.098 -1.020523,0.1806 -1.655273,0.249 -0.63478,0.068 -1.333021,0.1025 -2.094727,0.1025 -1.826182,0 -3.374032,-0.2148 -4.643555,-0.6445 -1.259772,-0.4297 -2.290044,-1.0449 -3.09082,-1.8457 -0.79102,-0.8008 -1.362308,-1.7627 -1.713867,-2.8858 -0.351565,-1.123 -0.527346,-2.3779 -0.527344,-3.7646 -2e-6,-0.5078 0.02441,-1.0889 0.07324,-1.7432 0.05859,-0.664 0.16113,-1.3671 0.307618,-2.1093 0.156246,-0.752 0.37109,-1.5137 0.644531,-2.2852 0.273433,-0.7812 0.624996,-1.543 1.054687,-2.2852 0.439448,-0.7421 0.966792,-1.4404 1.582031,-2.0947 0.624994,-0.664 1.357415,-1.2402 2.197266,-1.7285 0.8496,-0.498 1.816396,-0.8887 2.900391,-1.1719 1.093737,-0.2832 2.329088,-0.4248 3.706054,-0.4248 1.601546,0 2.983381,0.1954 4.145508,0.586 1.171855,0.3808 2.138651,0.9228 2.900391,1.6259 0.761696,0.7032 1.328102,1.5626 1.699219,2.5782 0.371069,1.0058 0.556616,2.1289 0.55664,3.3691 m -8.496094,0.9521 c -0.371109,-0.6249 -0.751968,-1.1035 -1.142578,-1.4355 -0.390639,-0.332 -0.834974,-0.498 -1.333007,-0.498 -0.41017,0 -0.781263,0.1025 -1.113282,0.3076 -0.332043,0.1953 -0.620128,0.4541 -0.864258,0.7763 -0.244151,0.3126 -0.454112,0.669 -0.629882,1.0694 -0.166026,0.4004 -0.302745,0.8105 -0.410157,1.2304 -0.107432,0.42 -0.185557,0.8301 -0.234375,1.2305 -0.03907,0.3906 -0.0586,0.7373 -0.05859,1.0401 -10e-6,0.7226 0.126943,1.2793 0.380859,1.6699 0.263661,0.3906 0.703114,0.5859 1.318359,0.5859 0.234364,0 0.473621,-0.039 0.717774,-0.1172 0.244128,-0.088 0.502917,-0.2148 0.776367,-0.3808 0.273424,-0.1758 0.56151,-0.4004 0.864258,-0.6739 0.312486,-0.2832 0.654282,-0.6152 1.02539,-0.9961 l 0.703125,-3.8086" />
      </g>
      <g
         id="text2818"
         style="font-size:30px;font-style:normal;font-variant:normal;font-weight:normal;font-stretch:normal;fill:#e6e6e6;fill-opacity:1;stroke:none;font-family:Calibri;-inkscape-font-specification:Calibri">
        <path
           sodipodi:nodetypes="cssssssssscsssssssssssssssssssccsssssccsssssssssscssssssssssssssssssssssssssssssssssssssssscssccssssssssssssscc"
           id="path3603"
           d="m 36.128906,1025.0297 c -2.4e-5,0.664 -0.04397,1.3427 -0.131836,2.0361 -0.07815,0.6934 -0.209985,1.3672 -0.395508,2.0215 -0.18557,0.6543 -0.42971,1.2744 -0.732421,1.8603 -0.302757,0.5762 -0.673851,1.084 -1.113282,1.5235 -0.439474,0.4394 -0.952169,0.7861 -1.538086,1.04 -0.576191,0.2442 -1.240253,0.3662 -1.992187,0.3662 -0.400409,0 -0.771502,-0.044 -1.113281,-0.1318 -0.341814,-0.098 -0.644548,-0.2344 -0.908203,-0.4102 -0.263688,-0.1758 -0.488298,-0.4004 -0.673829,-0.6738 -0.175796,-0.2832 -0.297866,-0.6055 -0.366211,-0.9668 -0.390639,0.3906 -0.771498,0.7275 -1.142578,1.0107 -0.361342,0.2735 -0.717786,0.4981 -1.069336,0.6739 -0.351575,0.1758 -0.698254,0.3027 -1.040039,0.3808 -0.332043,0.078 -0.659191,0.1172 -0.981445,0.1172 -0.419932,0 -0.791026,-0.039 -1.113281,-0.1172 -0.322275,-0.088 -0.610361,-0.2099 -0.864258,-0.3662 -0.244149,-0.166 -0.45411,-0.3662 -0.629883,-0.6006 -0.175789,-0.2343 -0.322274,-0.498 -0.439453,-0.791 -0.117195,-0.2929 -0.200203,-0.6152 -0.249023,-0.9668 -0.04884,-0.3515 -0.07325,-0.7324 -0.07324,-1.1426 -7e-6,-0.4199 0.03417,-0.8984 0.102539,-1.4355 0.06835,-0.5469 0.180657,-1.1084 0.336915,-1.6846 0.156241,-0.5761 0.371085,-1.1377 0.644531,-1.6845 0.273428,-0.5567 0.610342,-1.0498 1.010742,-1.4795 0.410146,-0.4395 0.893544,-0.791 1.450195,-1.0547 0.556629,-0.2734 1.206043,-0.4102 1.948242,-0.4102 0.312487,0 0.610338,0.039 0.893555,0.1172 0.292955,0.068 0.571275,0.1807 0.834961,0.3369 0.263657,0.1563 0.517563,0.3516 0.761719,0.586 0.244125,0.2343 0.493148,0.5127 0.74707,0.8349 l 0.249024,-1.289 c 0.03905,-0.1367 0.126936,-0.2393 0.263671,-0.3077 0.136702,-0.068 0.390608,-0.1025 0.761719,-0.1025 0.175764,0 0.322248,0.01 0.439453,0.029 0.126935,0.019 0.224591,0.049 0.292969,0.088 0.06834,0.029 0.112286,0.068 0.131836,0.1172 0.02928,0.049 0.03416,0.1074 0.01465,0.1758 l -1.30371,6.7382 c -0.156268,0.8497 -0.117205,1.4795 0.117187,1.8897 0.234357,0.4004 0.678693,0.6006 1.333008,0.6006 0.400371,0 0.761699,-0.098 1.083984,-0.293 0.322246,-0.2051 0.605449,-0.4785 0.84961,-0.8203 0.244119,-0.3418 0.449197,-0.7373 0.615234,-1.1865 0.165994,-0.459 0.302713,-0.9375 0.410156,-1.4356 0.1074,-0.5078 0.185525,-1.0254 0.234375,-1.5527 0.04881,-0.5273 0.07322,-1.0352 0.07324,-1.5234 -2.2e-5,-0.8496 -0.117209,-1.6553 -0.351562,-2.417 -0.224631,-0.7715 -0.615255,-1.4453 -1.171875,-2.0215 -0.556661,-0.5859 -1.30373,-1.0498 -2.241211,-1.3916 -0.927752,-0.3516 -2.094743,-0.5274 -3.500977,-0.5274 -1.152357,0 -2.177746,0.127 -3.076171,0.3809 -0.898449,0.2539 -1.689464,0.6006 -2.373047,1.04 -0.683603,0.4297 -1.26954,0.9278 -1.757813,1.4942 -0.488288,0.5664 -0.903327,1.1719 -1.245117,1.8164 -0.332037,0.6348 -0.600592,1.289 -0.805664,1.9629 -0.205083,0.664 -0.361333,1.3086 -0.46875,1.9336 -0.107427,0.6152 -0.180669,1.1963 -0.219727,1.7431 -0.0293,0.5469 -0.04395,1.0108 -0.04395,1.3916 -5e-6,1.084 0.122066,2.0752 0.366211,2.9737 0.253901,0.8984 0.688471,1.6748 1.303711,2.3291 0.615227,0.6543 1.440422,1.1621 2.475586,1.5234 1.035146,0.3613 2.338856,0.542 3.911133,0.542 0.712877,0 1.357407,-0.044 1.933593,-0.1318 0.576157,-0.078 1.074203,-0.1661 1.494141,-0.2637 0.429671,-0.088 0.77635,-0.1758 1.040039,-0.2637 0.263654,-0.078 0.444318,-0.1172 0.541992,-0.1172 0.05858,0 0.107404,0.015 0.146485,0.044 0.04881,0.039 0.08299,0.093 0.102539,0.1611 0.02928,0.078 0.04881,0.1709 0.05859,0.2783 0.0097,0.1172 0.01463,0.2588 0.01465,0.4248 -1.8e-5,0.1367 -0.0049,0.249 -0.01465,0.3369 -1.8e-5,0.088 -0.0098,0.1661 -0.0293,0.2344 -0.01955,0.078 -0.04885,0.1465 -0.08789,0.2051 -0.02932,0.059 -0.07326,0.1123 -0.131836,0.1611 -0.05861,0.049 -0.22951,0.1221 -0.512695,0.2198 -0.273455,0.098 -0.649431,0.1953 -1.12793,0.2929 -0.468766,0.098 -1.020523,0.1807 -1.655273,0.249 -0.63478,0.068 -1.333021,0.1026 -2.094727,0.1026 -1.826182,0 -3.374032,-0.2149 -4.643555,-0.6445 -1.259772,-0.4297 -2.290044,-1.045 -3.09082,-1.8458 -0.79102,-0.8007 -1.362308,-1.7626 -1.713867,-2.8857 -0.351565,-1.123 -0.527346,-2.3779 -0.527344,-3.7646 -2e-6,-0.5078 0.02441,-1.0889 0.07324,-1.7432 0.05859,-0.6641 0.16113,-1.3672 0.307618,-2.1094 0.156246,-0.7519 0.37109,-1.5136 0.644531,-2.2851 0.273433,-0.7813 0.624996,-1.543 1.054687,-2.2852 0.439448,-0.7422 0.966792,-1.4404 1.582031,-2.0947 0.624994,-0.6641 1.357415,-1.2402 2.197266,-1.7285 0.8496,-0.4981 1.816396,-0.8887 2.900391,-1.1719 1.093737,-0.2832 2.329088,-0.4248 3.706054,-0.4248 1.601546,0 2.983381,0.1953 4.145508,0.5859 1.171855,0.3809 2.138651,0.9229 2.900391,1.626 0.761696,0.7031 1.328102,1.5625 1.699219,2.5781 0.371069,1.0059 0.556616,2.1289 0.55664,3.3692 m -8.496094,0.9521 c -0.371109,-0.625 -0.751968,-1.1035 -1.142578,-1.4355 -0.390639,-0.3321 -0.834974,-0.4981 -1.333007,-0.4981 -0.41017,0 -0.781263,0.1026 -1.113282,0.3076 -0.332043,0.1954 -0.620128,0.4541 -0.864258,0.7764 -0.244151,0.3125 -0.454112,0.669 -0.629882,1.0693 -0.166026,0.4004 -0.302745,0.8106 -0.410157,1.2305 -0.107432,0.4199 -0.185557,0.8301 -0.234375,1.2305 -0.03907,0.3906 -0.0586,0.7373 -0.05859,1.04 -10e-6,0.7227 0.126943,1.2793 0.380859,1.6699 0.263661,0.3907 0.703114,0.586 1.318359,0.586 0.234364,0 0.473621,-0.039 0.717774,-0.1172 0.244128,-0.088 0.502917,-0.2149 0.776367,-0.3809 0.273424,-0.1757 0.56151,-0.4004 0.864258,-0.6738 0.312486,-0.2832 0.654282,-0.6152 1.02539,-0.9961 l 0.703125,-3.8086" />
      </g>
    </g>
  </g>
</svg>
