<?xml version="1.0" encoding="UTF-8" standalone="no"?>
<!-- Created with Inkscape (http://www.inkscape.org/) -->

<svg
   xmlns:dc="http://purl.org/dc/elements/1.1/"
   xmlns:cc="http://creativecommons.org/ns#"
   xmlns:rdf="http://www.w3.org/1999/02/22-rdf-syntax-ns#"
   xmlns:svg="http://www.w3.org/2000/svg"
   xmlns="http://www.w3.org/2000/svg"
   xmlns:xlink="http://www.w3.org/1999/xlink"
   xmlns:sodipodi="http://sodipodi.sourceforge.net/DTD/sodipodi-0.dtd"
   xmlns:inkscape="http://www.inkscape.org/namespaces/inkscape"
   width="48"
   height="48"
   id="svg2"
   version="1.1"
   inkscape:version="0.47pre4 r22446"
   sodipodi:docname="text-x-generic-template.svg"
   inkscape:export-filename="/home/andrea/Documenti/MeliaeSVG/48/mimetypes/png/text-x-preview.png"
   inkscape:export-xdpi="240"
   inkscape:export-ydpi="240">
  <defs
     id="defs4">
    <linearGradient
       id="linearGradient4203">
      <stop
         style="stop-color:#113f4c;stop-opacity:1;"
         offset="0"
         id="stop4205" />
      <stop
         style="stop-color:#5785a6;stop-opacity:1;"
         offset="1"
         id="stop4207" />
    </linearGradient>
    <inkscape:perspective
       sodipodi:type="inkscape:persp3d"
       inkscape:vp_x="0 : 526.18109 : 1"
       inkscape:vp_y="0 : 1000 : 0"
       inkscape:vp_z="744.09448 : 526.18109 : 1"
       inkscape:persp3d-origin="372.04724 : 350.78739 : 1"
       id="perspective10" />
    <linearGradient
       inkscape:collect="always"
       xlink:href="#linearGradient4203"
       id="linearGradient4209"
       x1="31.687183"
       y1="1045.266"
       x2="15.481234"
       y2="1013.3396"
       gradientUnits="userSpaceOnUse" />
  </defs>
  <sodipodi:namedview
     id="base"
     pagecolor="#ffffff"
     bordercolor="#666666"
     borderopacity="1.0"
     inkscape:pageopacity="0.0"
     inkscape:pageshadow="2"
     inkscape:zoom="7.9195959"
     inkscape:cx="19.422081"
     inkscape:cy="14.156491"
     inkscape:document-units="px"
     inkscape:current-layer="layer1"
     showgrid="false"
     inkscape:window-width="1280"
     inkscape:window-height="714"
     inkscape:window-x="0"
     inkscape:window-y="25"
     inkscape:window-maximized="1" />
  <metadata
     id="metadata7">
    <rdf:RDF>
      <cc:Work
         rdf:about="">
        <dc:format>image/svg+xml</dc:format>
        <dc:type
           rdf:resource="http://purl.org/dc/dcmitype/StillImage" />
        <dc:title />
      </cc:Work>
    </rdf:RDF>
  </metadata>
  <g
     inkscape:label="Livello 1"
     inkscape:groupmode="layer"
     id="layer1"
     transform="translate(0,-1004.3622)">
    <rect
       ry="1.0238097"
       rx="1.03125"
       y="1006.8622"
       x="7.5"
       height="43"
       width="33"
       id="rect4211"
       style="fill:#646464;fill-opacity:0.47058824;stroke:none" />
    <rect
       style="fill:url(#linearGradient4209);fill-opacity:1;stroke:none"
       id="rect3429"
       width="32"
       height="42"
       x="8"
       y="1007.3622"
       rx="1"
       ry="1" />
    <rect
       style="fill:#ffffff;fill-opacity:0.09803922;fill-rule:nonzero;stroke:none"
       id="rect4011"
       width="0.5"
       height="42"
       x="21.75"
       y="1007.3622" />
    <rect
       y="1007.3622"
       x="17.75"
       height="42"
       width="0.5"
       id="rect4099"
       style="fill:#ffffff;fill-opacity:0.09803922;fill-rule:nonzero;stroke:none" />
    <rect
       style="fill:#ffffff;fill-opacity:0.09803922;fill-rule:nonzero;stroke:none"
       id="rect4101"
       width="0.5"
       height="42"
       x="13.75"
       y="1007.3622" />
    <rect
       y="1007.3622"
       x="9.75"
       height="42"
       width="0.5"
       id="rect4103"
       style="fill:#ffffff;fill-opacity:0.09803922;fill-rule:nonzero;stroke:none" />
    <rect
       style="fill:#ffffff;fill-opacity:0.09803922;fill-rule:nonzero;stroke:none"
       id="rect4105"
       width="0.5"
       height="42"
       x="25.75"
       y="1007.3622" />
    <rect
       y="1007.3622"
       x="29.75"
       height="42"
       width="0.5"
       id="rect4107"
       style="fill:#ffffff;fill-opacity:0.09803922;fill-rule:nonzero;stroke:none" />
    <rect
       style="fill:#ffffff;fill-opacity:0.09803922;fill-rule:nonzero;stroke:none"
       id="rect4109"
       width="0.5"
       height="42"
       x="33.75"
       y="1007.3622" />
    <rect
       y="1007.3622"
       x="37.75"
       height="42"
       width="0.5"
       id="rect4111"
       style="fill:#ffffff;fill-opacity:0.09803922;fill-rule:nonzero;stroke:none" />
    <rect
       style="fill:#ffffff;fill-opacity:0.09803922;fill-rule:nonzero;stroke:none"
       id="rect4131"
       width="0.5"
       height="32"
       x="1028.1122"
       y="-40"
       transform="matrix(0,1,-1,0,0,0)" />
    <rect
       transform="matrix(0,1,-1,0,0,0)"
       y="-40"
       x="1024.1122"
       height="32"
       width="0.5"
       id="rect4133"
       style="fill:#ffffff;fill-opacity:0.09803922;fill-rule:nonzero;stroke:none" />
    <rect
       style="fill:#ffffff;fill-opacity:0.09803922;fill-rule:nonzero;stroke:none"
       id="rect4135"
       width="0.5"
       height="32"
       x="1020.1122"
       y="-40"
       transform="matrix(0,1,-1,0,0,0)" />
    <rect
       transform="matrix(0,1,-1,0,0,0)"
       y="-40"
       x="1016.1122"
       height="32"
       width="0.5"
       id="rect4137"
       style="fill:#ffffff;fill-opacity:0.09803922;fill-rule:nonzero;stroke:none" />
    <rect
       style="fill:#ffffff;fill-opacity:0.09803922;fill-rule:nonzero;stroke:none"
       id="rect4139"
       width="0.5"
       height="32"
       x="1012.1122"
       y="-40"
       transform="matrix(0,1,-1,0,0,0)" />
    <rect
       transform="matrix(0,1,-1,0,0,0)"
       y="-40"
       x="1008.1122"
       height="32"
       width="0.5"
       id="rect4141"
       style="fill:#ffffff;fill-opacity:0.09803922;fill-rule:nonzero;stroke:none" />
    <rect
       style="fill:#ffffff;fill-opacity:0.09803922;fill-rule:nonzero;stroke:none"
       id="rect4143"
       width="0.5"
       height="32"
       x="1032.1122"
       y="-40"
       transform="matrix(0,1,-1,0,0,0)" />
    <rect
       transform="matrix(0,1,-1,0,0,0)"
       y="-40"
       x="1036.1122"
       height="32"
       width="0.5"
       id="rect4145"
       style="fill:#ffffff;fill-opacity:0.09803922;fill-rule:nonzero;stroke:none" />
    <rect
       style="fill:#ffffff;fill-opacity:0.09803922;fill-rule:nonzero;stroke:none"
       id="rect4147"
       width="0.5"
       height="32"
       x="1040.1122"
       y="-40"
       transform="matrix(0,1,-1,0,0,0)" />
    <rect
       transform="matrix(0,1,-1,0,0,0)"
       y="-40"
       x="1044.1122"
       height="32"
       width="0.5"
       id="rect4149"
       style="fill:#ffffff;fill-opacity:0.09803922;fill-rule:nonzero;stroke:none" />
    <rect
       style="fill:#ffffff;fill-opacity:0.09803922;fill-rule:nonzero;stroke:none"
       id="rect4151"
       width="0.5"
       height="32"
       x="1048.1122"
       y="-40"
       transform="matrix(0,1,-1,0,0,0)" />
    <path
       style="fill:#ffffff;fill-opacity:0.39215686;fill-rule:nonzero;stroke:none"
       d="m 9.75,1010.5185 0,1.3437 -1.5625,0 0,1 1.5625,0 0,9.6563 1,0 0,-9.6563 9.4375,0 0,-1 -9.4375,0 0,-1.3437 -1,0 z"
       id="rect4177" />
    <path
       id="path4185"
       d="m 38.625,1046.5185 0,-1.3437 1.5625,0 0,-1 -1.5625,0 0,-9.6563 -1,0 0,9.6563 -9.4375,0 0,1 9.4375,0 0,1.3437 1,0 z"
       style="fill:#ffffff;fill-opacity:0.39215686;fill-rule:nonzero;stroke:none" />
    <g
       style="font-size:25px;font-style:normal;font-variant:normal;font-weight:normal;font-stretch:normal;fill:#ffffff;fill-opacity:0.39215686;stroke:none;font-family:Calibri;-inkscape-font-specification:Calibri"
       id="text4187">
      <path
         d="m 21.75,1027.5873 c -10e-6,0.098 -0.03256,0.1709 -0.09766,0.2197 -0.06511,0.049 -0.154633,0.085 -0.268555,0.1099 -0.113942,0.024 -0.280771,0.037 -0.500488,0.037 -0.211598,0 -0.382496,-0.012 -0.512696,-0.037 -0.122078,-0.024 -0.211597,-0.061 -0.268554,-0.1099 -0.05697,-0.049 -0.08546,-0.1221 -0.08545,-0.2197 l 0,-1.0987 c -0.480152,0.5127 -1.01726,0.9115 -1.611329,1.1963 -0.585943,0.2849 -1.208501,0.4273 -1.867675,0.4273 -0.577804,0 -1.102706,-0.077 -1.574707,-0.232 -0.46387,-0.1464 -0.862633,-0.3621 -1.196289,-0.6469 -0.325523,-0.2849 -0.581871,-0.6348 -0.769043,-1.0498 -0.179038,-0.4151 -0.268556,-0.8871 -0.268555,-1.416 -10e-7,-0.6185 0.126138,-1.1556 0.378418,-1.6114 0.252277,-0.4557 0.614418,-0.8341 1.086426,-1.1352 0.472002,-0.3011 1.049801,-0.5249 1.733398,-0.6714 0.683589,-0.1546 1.452631,-0.2319 2.307129,-0.2319 l 1.513672,0 0,-0.8545 c -8e-6,-0.4232 -0.04477,-0.7976 -0.134277,-1.1231 -0.08953,-0.3255 -0.236011,-0.5941 -0.439454,-0.8056 -0.195319,-0.2198 -0.451667,-0.3825 -0.769043,-0.4883 -0.317389,-0.114 -0.708013,-0.1709 -1.171875,-0.1709 -0.496424,0 -0.944015,0.061 -1.342773,0.1831 -0.390629,0.1139 -0.736494,0.2441 -1.037598,0.3906 -0.292971,0.1384 -0.541181,0.2686 -0.744629,0.3906 -0.195314,0.114 -0.341799,0.1709 -0.439453,0.1709 -0.06511,0 -0.122072,-0.016 -0.170898,-0.049 -0.04883,-0.033 -0.09359,-0.081 -0.134277,-0.1465 -0.03255,-0.065 -0.05697,-0.1465 -0.07324,-0.2441 -0.01628,-0.1058 -0.02442,-0.2197 -0.02441,-0.3418 -1e-6,-0.2035 0.01221,-0.3622 0.03662,-0.4761 0.03255,-0.1221 0.101724,-0.236 0.20752,-0.3418 0.11393,-0.1058 0.305173,-0.2278 0.57373,-0.3662 0.268552,-0.1465 0.577797,-0.2767 0.927735,-0.3906 0.349931,-0.1221 0.732417,-0.2197 1.147461,-0.293 0.415034,-0.081 0.834141,-0.1221 1.257324,-0.1221 0.789381,0 1.460767,0.09 2.01416,0.2686 0.553377,0.179 1.000968,0.4435 1.342773,0.7934 0.341788,0.3418 0.589997,0.7691 0.744629,1.2818 0.154613,0.5127 0.231924,1.1108 0.231934,1.7944 l 0,7.4097 m -2.001953,-5.0171 -1.721192,0 c -0.553391,0 -1.033534,0.049 -1.440429,0.1465 -0.406906,0.09 -0.744633,0.2278 -1.013184,0.415 -0.268558,0.1791 -0.46794,0.3988 -0.598144,0.6592 -0.122074,0.2523 -0.183109,0.5452 -0.183106,0.8789 -3e-6,0.5697 0.179033,1.0254 0.53711,1.3672 0.366206,0.3336 0.874832,0.5005 1.525878,0.5005 0.528966,0 1.017247,-0.1343 1.464844,-0.4029 0.455722,-0.2685 0.931796,-0.6795 1.428223,-1.2329 l 0,-2.3315"
         style=""
         id="path4192" />
    </g>
    <g
       style="font-size:4px;font-style:normal;font-variant:normal;font-weight:normal;font-stretch:normal;fill:#88a4b4;fill-opacity:1;stroke:none;font-family:Calibri;-inkscape-font-specification:Calibri"
       id="text2841">
      <path
         d="m 27.560547,1027.9286 c -2e-6,0.026 -0.0013,0.048 -0.0039,0.066 -0.0026,0.017 -0.0072,0.032 -0.01367,0.045 -0.0052,0.012 -0.01237,0.021 -0.02148,0.027 -0.0078,0.01 -0.01758,0.01 -0.0293,0.01 l -1.117187,0 c -0.02995,0 -0.05859,-0.01 -0.08594,-0.029 -0.02604,-0.021 -0.03906,-0.057 -0.03906,-0.1074 l 0,-2.3399 c 0,-0.01 0.0026,-0.02 0.0078,-0.027 0.0052,-0.01 0.01432,-0.014 0.02734,-0.018 0.01302,-0.01 0.0306,-0.01 0.05273,-0.012 0.02214,-0 0.04883,-0.01 0.08008,-0.01 0.03255,0 0.05924,0 0.08008,0.01 0.02213,0 0.03971,0.01 0.05273,0.012 0.01302,0 0.02213,0.01 0.02734,0.018 0.0052,0.01 0.0078,0.017 0.0078,0.027 l 0,2.1856 0.90625,0 c 0.01172,0 0.02148,0 0.0293,0.01 0.0091,0.01 0.01628,0.014 0.02148,0.025 0.0065,0.01 0.01107,0.025 0.01367,0.043 0.0026,0.018 0.0039,0.04 0.0039,0.066"
         style=""
         id="path2868" />
      <path
         d="m 29.527344,1027.1278 c -2e-6,0.1432 -0.01888,0.2754 -0.05664,0.3965 -0.03776,0.1198 -0.0944,0.2233 -0.169922,0.3105 -0.07422,0.087 -0.16797,0.1556 -0.28125,0.2051 -0.11198,0.048 -0.242188,0.072 -0.390625,0.072 -0.144532,0 -0.270834,-0.022 -0.378906,-0.064 -0.106771,-0.043 -0.195964,-0.1054 -0.267578,-0.1875 -0.07162,-0.082 -0.125,-0.1816 -0.160156,-0.2988 -0.03516,-0.1172 -0.05273,-0.25 -0.05273,-0.3984 0,-0.1433 0.01823,-0.2748 0.05469,-0.3946 0.03776,-0.1211 0.09375,-0.2252 0.167968,-0.3125 0.07552,-0.087 0.169271,-0.1549 0.28125,-0.2031 0.111979,-0.048 0.242838,-0.072 0.392579,-0.072 0.14453,0 0.270181,0.022 0.376953,0.064 0.108071,0.043 0.197915,0.1055 0.269531,0.1875 0.07161,0.082 0.124998,0.1816 0.160156,0.2988 0.03646,0.1172 0.05469,0.2494 0.05469,0.3965 m -0.339844,0.022 c -2e-6,-0.095 -0.0091,-0.1849 -0.02734,-0.2695 -0.01693,-0.085 -0.04557,-0.1589 -0.08594,-0.2227 -0.04037,-0.064 -0.09505,-0.1139 -0.164063,-0.1504 -0.06901,-0.038 -0.154949,-0.057 -0.257812,-0.057 -0.09505,0 -0.177084,0.017 -0.246094,0.051 -0.06771,0.034 -0.123699,0.082 -0.167969,0.1445 -0.04427,0.061 -0.07747,0.1341 -0.09961,0.2187 -0.02083,0.085 -0.03125,0.1771 -0.03125,0.2774 -1e-6,0.096 0.0085,0.1868 0.02539,0.2715 0.01823,0.085 0.04753,0.1588 0.08789,0.2226 0.04167,0.062 0.097,0.1127 0.166016,0.1504 0.06901,0.036 0.154947,0.055 0.257812,0.055 0.09375,0 0.175129,-0.017 0.244141,-0.051 0.06901,-0.034 0.125649,-0.081 0.169922,-0.1426 0.04427,-0.061 0.07682,-0.1341 0.09766,-0.2187 0.02083,-0.085 0.03125,-0.1777 0.03125,-0.2793"
         style=""
         id="path2870" />
      <path
         d="m 31.029297,1026.3837 c -1e-6,0.029 -6.52e-4,0.053 -0.002,0.072 -0.0013,0.02 -0.0039,0.035 -0.0078,0.047 -0.0039,0.01 -0.0091,0.019 -0.01563,0.025 -0.0052,0.01 -0.01302,0.01 -0.02344,0.01 -0.01042,0 -0.02344,-0 -0.03906,-0.01 -0.01432,-0.01 -0.03125,-0.012 -0.05078,-0.018 -0.01823,-0.01 -0.03906,-0.012 -0.0625,-0.018 -0.02344,-0.01 -0.04883,-0.01 -0.07617,-0.01 -0.03255,0 -0.06445,0.01 -0.0957,0.02 -0.03125,0.013 -0.06445,0.034 -0.09961,0.064 -0.03385,0.03 -0.06966,0.07 -0.107422,0.1192 -0.03776,0.049 -0.07943,0.11 -0.125,0.1816 l 0,1.1562 c -1e-6,0.011 -0.0026,0.02 -0.0078,0.027 -0.0052,0.01 -0.01367,0.012 -0.02539,0.018 -0.01172,0.01 -0.028,0.01 -0.04883,0.012 -0.02083,0 -0.04753,0 -0.08008,0 -0.03125,0 -0.05729,-0 -0.07813,-0 -0.02083,-0 -0.03776,-0.01 -0.05078,-0.012 -0.01172,-0.01 -0.02018,-0.011 -0.02539,-0.018 -0.0039,-0.01 -0.0059,-0.017 -0.0059,-0.027 l 0,-1.7578 c 0,-0.01 0.002,-0.019 0.0059,-0.025 0.0039,-0.01 0.01172,-0.014 0.02344,-0.019 0.01172,-0.01 0.02669,-0.01 0.04492,-0.012 0.01823,-0 0.04232,-0 0.07227,-0 0.02865,0 0.05208,0 0.07031,0 0.01953,0 0.0345,0.01 0.04492,0.012 0.01042,0.01 0.01758,0.012 0.02148,0.019 0.0052,0.01 0.0078,0.015 0.0078,0.025 l 0,0.2559 c 0.04818,-0.07 0.0931,-0.1276 0.134765,-0.1719 0.04297,-0.044 0.08333,-0.079 0.121094,-0.1035 0.03776,-0.026 0.07487,-0.044 0.111328,-0.053 0.03776,-0.01 0.07552,-0.016 0.113281,-0.016 0.01693,0 0.03581,0 0.05664,0 0.02213,0 0.04492,0 0.06836,0.01 0.02344,0.01 0.04427,0.011 0.0625,0.018 0.01953,0.01 0.0332,0.013 0.04102,0.019 0.0078,0.01 0.01302,0.013 0.01563,0.02 0.0026,0.01 0.0046,0.012 0.0059,0.021 0.0026,0.01 0.0039,0.023 0.0039,0.041 0.0013,0.017 0.002,0.04 0.002,0.07"
         style=""
         id="path2872" />
      <path
         d="m 32.845703,1027.0712 c -2e-6,0.051 -0.01302,0.087 -0.03906,0.1093 -0.02474,0.021 -0.05339,0.031 -0.08594,0.031 l -1.152344,0 c 0,0.098 0.0098,0.1855 0.0293,0.2637 0.01953,0.078 0.05208,0.1451 0.09766,0.2011 0.04557,0.056 0.104817,0.099 0.177735,0.1289 0.07292,0.03 0.162108,0.045 0.267578,0.045 0.08333,0 0.157551,-0.01 0.222656,-0.02 0.0651,-0.014 0.121093,-0.03 0.167969,-0.047 0.04818,-0.017 0.08724,-0.032 0.117187,-0.045 0.03125,-0.014 0.05469,-0.021 0.07031,-0.021 0.0091,0 0.01693,0 0.02344,0.01 0.0078,0 0.01367,0.01 0.01758,0.019 0.0039,0.01 0.0065,0.022 0.0078,0.039 0.0026,0.016 0.0039,0.035 0.0039,0.059 -10e-7,0.017 -6.52e-4,0.032 -0.002,0.045 -0.0013,0.012 -0.0033,0.023 -0.0059,0.033 -0.0013,0.01 -0.0046,0.018 -0.0098,0.025 -0.0039,0.01 -0.0098,0.016 -0.01758,0.023 -0.0065,0.01 -0.02734,0.018 -0.0625,0.035 -0.03516,0.016 -0.08073,0.031 -0.136719,0.047 -0.05599,0.016 -0.121095,0.029 -0.195312,0.041 -0.07292,0.013 -0.151043,0.02 -0.234375,0.02 -0.144532,0 -0.271485,-0.02 -0.38086,-0.061 -0.108073,-0.04 -0.199219,-0.1002 -0.273437,-0.1797 -0.07422,-0.079 -0.130209,-0.179 -0.167969,-0.2988 -0.03776,-0.1198 -0.05664,-0.2591 -0.05664,-0.4179 -10e-7,-0.1511 0.01953,-0.2865 0.05859,-0.4063 0.03906,-0.1211 0.09505,-0.2233 0.167969,-0.3066 0.07422,-0.085 0.163411,-0.1491 0.267578,-0.1934 0.104166,-0.046 0.220702,-0.068 0.34961,-0.068 0.138019,0 0.255207,0.022 0.351562,0.066 0.09766,0.044 0.177733,0.1042 0.240234,0.1797 0.0625,0.074 0.108072,0.1621 0.136719,0.2637 0.02995,0.1003 0.04492,0.2077 0.04492,0.3223 l 0,0.059 m -0.324219,-0.096 c 0.0039,-0.1693 -0.03386,-0.3021 -0.113281,-0.3985 -0.07813,-0.096 -0.194663,-0.1445 -0.349609,-0.1445 -0.07943,0 -0.14909,0.015 -0.208985,0.045 -0.0599,0.03 -0.110026,0.07 -0.15039,0.1192 -0.04036,0.049 -0.07161,0.1074 -0.09375,0.1738 -0.02214,0.065 -0.03451,0.1335 -0.03711,0.2051 l 0.953125,0"
         style=""
         id="path2874" />
      <path
         d="m 35.945312,1028.0262 c -2e-6,0.011 -0.0026,0.02 -0.0078,0.027 -0.0052,0.01 -0.01367,0.012 -0.02539,0.018 -0.01172,0.01 -0.028,0.01 -0.04883,0.012 -0.02084,0 -0.04688,0 -0.07813,0 -0.03256,0 -0.05925,-0 -0.08008,-0 -0.02084,-0 -0.03776,-0.01 -0.05078,-0.012 -0.01172,-0.01 -0.02018,-0.011 -0.02539,-0.018 -0.0052,-0.01 -0.0078,-0.017 -0.0078,-0.027 l 0,-1.0683 c -3e-6,-0.074 -0.0065,-0.1419 -0.01953,-0.2031 -0.01302,-0.061 -0.03386,-0.114 -0.0625,-0.1582 -0.02865,-0.044 -0.06511,-0.078 -0.109375,-0.1016 -0.04427,-0.023 -0.09636,-0.035 -0.15625,-0.035 -0.07422,0 -0.14909,0.029 -0.224609,0.086 -0.07422,0.057 -0.156252,0.1413 -0.246094,0.2519 l 0,1.2285 c -10e-7,0.011 -0.0026,0.02 -0.0078,0.027 -0.0052,0.01 -0.01432,0.012 -0.02734,0.018 -0.01172,0.01 -0.028,0.01 -0.04883,0.012 -0.02083,0 -0.04688,0 -0.07813,0 -0.02995,0 -0.05599,-0 -0.07813,-0 -0.02083,-0 -0.03776,-0.01 -0.05078,-0.012 -0.01172,-0.01 -0.02018,-0.011 -0.02539,-0.018 -0.0039,-0.01 -0.0059,-0.017 -0.0059,-0.027 l 0,-1.0683 c -2e-6,-0.074 -0.0072,-0.1419 -0.02148,-0.2031 -0.01432,-0.061 -0.03581,-0.114 -0.06445,-0.1582 -0.02865,-0.044 -0.06511,-0.078 -0.109375,-0.1016 -0.04297,-0.023 -0.0944,-0.035 -0.154297,-0.035 -0.07422,0 -0.149089,0.029 -0.224609,0.086 -0.07552,0.057 -0.157553,0.1413 -0.246094,0.2519 l 0,1.2285 c 0,0.011 -0.0026,0.02 -0.0078,0.027 -0.0052,0.01 -0.01367,0.012 -0.02539,0.018 -0.01172,0.01 -0.02799,0.01 -0.04883,0.012 -0.02083,0 -0.04753,0 -0.08008,0 -0.03125,0 -0.05729,-0 -0.07813,-0 -0.02083,-0 -0.03776,-0.01 -0.05078,-0.012 -0.01172,-0.01 -0.02018,-0.011 -0.02539,-0.018 -0.0039,-0.01 -0.0059,-0.017 -0.0059,-0.027 l 0,-1.7578 c -10e-7,-0.01 0.002,-0.019 0.0059,-0.025 0.0039,-0.01 0.01172,-0.014 0.02344,-0.019 0.01172,-0.01 0.02669,-0.01 0.04492,-0.012 0.01823,-0 0.04232,-0 0.07227,-0 0.02864,0 0.05208,0 0.07031,0 0.01953,0 0.0345,0.01 0.04492,0.012 0.01042,0.01 0.01758,0.012 0.02148,0.019 0.0052,0.01 0.0078,0.015 0.0078,0.025 l 0,0.2325 c 0.09896,-0.1107 0.194661,-0.1914 0.28711,-0.2422 0.09375,-0.052 0.18815,-0.078 0.283203,-0.078 0.07292,0 0.138019,0.01 0.195312,0.025 0.05859,0.017 0.110025,0.041 0.154297,0.072 0.04427,0.03 0.08203,0.066 0.113281,0.1094 0.03125,0.042 0.05729,0.089 0.07813,0.1406 0.05859,-0.064 0.113931,-0.1178 0.166016,-0.1621 0.05338,-0.044 0.104165,-0.08 0.152344,-0.1074 0.04948,-0.027 0.097,-0.047 0.142578,-0.059 0.04687,-0.013 0.09375,-0.02 0.140625,-0.02 0.113279,0 0.208331,0.02 0.285156,0.061 0.07682,0.039 0.138669,0.092 0.185547,0.1582 0.04817,0.066 0.08203,0.1445 0.101562,0.2344 0.02083,0.088 0.03125,0.1823 0.03125,0.2812 l 0,1.1113"
         style=""
         id="path2876" />
    </g>
    <g
       style="font-size:4px;font-style:normal;font-variant:normal;font-weight:normal;font-stretch:normal;fill:#88a4b4;fill-opacity:1;stroke:none;font-family:Calibri;-inkscape-font-specification:Calibri"
       id="text2845">
      <path
         d="m 14.535155,1032.0262 c 0,0.011 -0.0026,0.02 -0.0078,0.027 -0.0052,0.01 -0.01367,0.012 -0.02539,0.018 -0.01172,0.01 -0.02799,0.01 -0.04883,0.012 -0.02083,0 -0.04753,0 -0.08008,0 -0.03125,0 -0.05729,-0 -0.07813,-0 -0.02083,-0 -0.03776,-0.01 -0.05078,-0.012 -0.01172,-0.01 -0.02018,-0.011 -0.02539,-0.018 -0.0039,-0.01 -0.0059,-0.017 -0.0059,-0.027 l 0,-1.7578 c -10e-7,-0.01 0.002,-0.017 0.0059,-0.025 0.0052,-0.01 0.01367,-0.014 0.02539,-0.019 0.01302,-0.01 0.02995,-0.01 0.05078,-0.012 0.02083,-0 0.04687,-0 0.07813,-0 0.03255,0 0.05924,0 0.08008,0 0.02083,0 0.03711,0.01 0.04883,0.012 0.01172,0.01 0.02018,0.012 0.02539,0.019 0.0052,0.01 0.0078,0.016 0.0078,0.025 l 0,1.7578 m 0.03711,-2.3515 c -10e-7,0.075 -0.01432,0.1269 -0.04297,0.1543 -0.02865,0.027 -0.08138,0.041 -0.158203,0.041 -0.07552,0 -0.127605,-0.013 -0.15625,-0.039 -0.02734,-0.027 -0.04102,-0.078 -0.04102,-0.1523 0,-0.075 0.01432,-0.127 0.04297,-0.1543 0.02864,-0.027 0.08138,-0.041 0.158203,-0.041 0.07552,0 0.126953,0.014 0.154297,0.041 0.02864,0.026 0.04297,0.076 0.04297,0.1504"
         style=""
         id="path2879" />
      <path
         d="m 16.23828,1031.5477 c -1e-6,0.09 -0.01693,0.17 -0.05078,0.2403 -0.03255,0.07 -0.07943,0.1295 -0.140625,0.1777 -0.0612,0.048 -0.134116,0.085 -0.21875,0.1094 -0.08464,0.025 -0.177735,0.037 -0.279297,0.037 -0.0625,0 -0.122396,-0.01 -0.179687,-0.016 -0.05599,-0.01 -0.106772,-0.021 -0.152344,-0.035 -0.04427,-0.016 -0.08203,-0.031 -0.113281,-0.047 -0.03125,-0.017 -0.05404,-0.032 -0.06836,-0.045 -0.01432,-0.013 -0.02474,-0.031 -0.03125,-0.055 -0.0065,-0.023 -0.0098,-0.055 -0.0098,-0.096 0,-0.025 0.0013,-0.046 0.0039,-0.062 0.0026,-0.017 0.0059,-0.031 0.0098,-0.041 0.0039,-0.01 0.0091,-0.018 0.01563,-0.022 0.0078,-0.01 0.01628,-0.01 0.02539,-0.01 0.01432,0 0.03516,0.01 0.0625,0.027 0.02865,0.017 0.06315,0.036 0.103516,0.057 0.04167,0.021 0.09049,0.04 0.146484,0.059 0.05599,0.017 0.120442,0.025 0.19336,0.025 0.05469,0 0.104165,-0.01 0.148437,-0.018 0.04427,-0.012 0.08268,-0.029 0.115234,-0.051 0.03255,-0.023 0.05729,-0.053 0.07422,-0.088 0.01823,-0.035 0.02734,-0.077 0.02734,-0.125 -1e-6,-0.05 -0.01302,-0.091 -0.03906,-0.125 -0.02474,-0.034 -0.05794,-0.064 -0.09961,-0.09 -0.04167,-0.026 -0.08854,-0.049 -0.140625,-0.068 -0.05208,-0.021 -0.10612,-0.042 -0.162109,-0.064 -0.05469,-0.022 -0.108725,-0.047 -0.16211,-0.074 -0.05208,-0.029 -0.09896,-0.063 -0.140625,-0.1035 -0.04167,-0.04 -0.07552,-0.089 -0.101562,-0.1445 -0.02474,-0.056 -0.03711,-0.123 -0.03711,-0.2012 0,-0.069 0.01302,-0.1347 0.03906,-0.1972 0.02734,-0.064 0.06771,-0.1192 0.121094,-0.1661 0.05339,-0.048 0.119791,-0.087 0.199218,-0.1152 0.08073,-0.029 0.174479,-0.043 0.28125,-0.043 0.04687,0 0.09375,0 0.140625,0.012 0.04687,0.01 0.08919,0.018 0.126954,0.029 0.03776,0.012 0.06966,0.025 0.0957,0.039 0.02734,0.013 0.04752,0.025 0.06055,0.035 0.01432,0.01 0.02344,0.019 0.02734,0.027 0.0052,0.01 0.0085,0.017 0.0098,0.027 0.0026,0.01 0.0046,0.021 0.0059,0.035 0.0026,0.014 0.0039,0.032 0.0039,0.053 -2e-6,0.022 -0.0013,0.042 -0.0039,0.059 -0.0013,0.016 -0.0046,0.029 -0.0098,0.039 -0.0039,0.01 -0.0091,0.018 -0.01563,0.023 -0.0065,0 -0.01367,0.01 -0.02149,0.01 -0.01172,0 -0.02865,-0.01 -0.05078,-0.022 -0.02214,-0.014 -0.05078,-0.029 -0.08594,-0.045 -0.03516,-0.017 -0.07682,-0.033 -0.125,-0.047 -0.04688,-0.014 -0.100913,-0.022 -0.16211,-0.022 -0.05469,0 -0.102865,0.01 -0.144531,0.02 -0.04167,0.012 -0.07617,0.029 -0.103516,0.053 -0.02604,0.022 -0.04622,0.049 -0.06055,0.08 -0.01302,0.031 -0.01953,0.065 -0.01953,0.1015 0,0.051 0.01302,0.094 0.03906,0.129 0.02604,0.034 0.0599,0.064 0.101562,0.09 0.04167,0.026 0.08919,0.05 0.142578,0.07 0.05339,0.021 0.107421,0.042 0.16211,0.064 0.05599,0.022 0.110676,0.047 0.164062,0.074 0.05469,0.027 0.102864,0.061 0.144531,0.1 0.04167,0.039 0.07487,0.086 0.09961,0.1406 0.02604,0.055 0.03906,0.1198 0.03906,0.1953"
         style=""
         id="path2881" />
      <path
         d="m 18.314452,1031.12 c -2e-6,0.1536 -0.01693,0.2917 -0.05078,0.4141 -0.03255,0.1224 -0.08138,0.2265 -0.146484,0.3125 -0.0638,0.085 -0.143231,0.1503 -0.238282,0.1972 -0.09505,0.046 -0.203777,0.068 -0.326172,0.068 -0.05208,0 -0.100261,-0.01 -0.144531,-0.016 -0.04427,-0.011 -0.08789,-0.027 -0.130859,-0.049 -0.04167,-0.022 -0.08333,-0.05 -0.125,-0.084 -0.04167,-0.034 -0.08594,-0.073 -0.132813,-0.1191 l 0,0.8789 c 0,0.01 -0.0026,0.019 -0.0078,0.027 -0.0052,0.01 -0.01367,0.014 -0.02539,0.02 -0.01172,0.01 -0.028,0.01 -0.04883,0.012 -0.02083,0 -0.04753,0 -0.08008,0 -0.03125,0 -0.05729,-0 -0.07813,-0 -0.02083,-0 -0.03776,-0.01 -0.05078,-0.012 -0.01172,-0.01 -0.02018,-0.012 -0.02539,-0.02 -0.0039,-0.01 -0.0059,-0.017 -0.0059,-0.027 l 0,-2.4551 c -1e-6,-0.012 0.002,-0.021 0.0059,-0.027 0.0039,-0.01 0.01172,-0.014 0.02344,-0.019 0.01172,-0.01 0.02669,-0.01 0.04492,-0.01 0.01823,-0 0.04037,-0 0.06641,-0 0.02734,0 0.04948,0 0.06641,0 0.01823,0 0.0332,0 0.04492,0.01 0.01172,0.01 0.01953,0.012 0.02344,0.019 0.0052,0.01 0.0078,0.016 0.0078,0.027 l 0,0.2364 c 0.05339,-0.055 0.104817,-0.1023 0.154297,-0.1426 0.04948,-0.04 0.09896,-0.074 0.148437,-0.1 0.05078,-0.027 0.102213,-0.048 0.154297,-0.061 0.05338,-0.014 0.109374,-0.022 0.167969,-0.022 0.127603,0 0.236326,0.025 0.326172,0.074 0.08984,0.049 0.162758,0.1171 0.21875,0.2031 0.05729,0.086 0.09896,0.1862 0.125,0.3008 0.02604,0.1132 0.03906,0.2337 0.03906,0.3613 m -0.339844,0.037 c -1e-6,-0.09 -0.0072,-0.1764 -0.02148,-0.2598 -0.01302,-0.085 -0.03646,-0.1595 -0.07031,-0.2246 -0.03255,-0.065 -0.07683,-0.1172 -0.132813,-0.1562 -0.05599,-0.039 -0.125652,-0.059 -0.208984,-0.059 -0.04167,0 -0.08268,0.01 -0.123047,0.019 -0.04037,0.012 -0.08138,0.031 -0.123047,0.059 -0.04167,0.026 -0.08529,0.061 -0.130859,0.1055 -0.04557,0.043 -0.09375,0.096 -0.144532,0.1601 l 0,0.6993 c 0.08854,0.108 0.172526,0.1907 0.251953,0.248 0.07943,0.057 0.16276,0.086 0.25,0.086 0.08073,0 0.149739,-0.02 0.207032,-0.059 0.05859,-0.039 0.105467,-0.091 0.140625,-0.1562 0.03646,-0.065 0.06315,-0.138 0.08008,-0.2188 0.01693,-0.081 0.02539,-0.1621 0.02539,-0.2441"
         style=""
         id="path2883" />
      <path
         d="m 20.304687,1032.0262 c -2e-6,0.011 -0.0026,0.02 -0.0078,0.027 -0.0039,0.01 -0.01172,0.012 -0.02344,0.018 -0.01172,0.01 -0.02735,0.01 -0.04687,0.012 -0.01823,0 -0.04102,0 -0.06836,0 -0.02995,0 -0.05469,-0 -0.07422,-0 -0.01823,-0 -0.0332,-0.01 -0.04492,-0.012 -0.01042,-0.01 -0.01758,-0.011 -0.02149,-0.018 -0.0039,-0.01 -0.0059,-0.017 -0.0059,-0.027 l 0,-0.2324 c -0.100262,0.1107 -0.19922,0.1914 -0.296875,0.2422 -0.09766,0.051 -0.196616,0.076 -0.296875,0.076 -0.117189,0 -0.216147,-0.02 -0.296875,-0.059 -0.07943,-0.039 -0.143881,-0.092 -0.19336,-0.1582 -0.04948,-0.068 -0.08529,-0.1458 -0.107421,-0.2344 -0.02083,-0.09 -0.03125,-0.1986 -0.03125,-0.3262 l 0,-1.0664 c -1e-6,-0.01 0.002,-0.019 0.0059,-0.025 0.0052,-0.01 0.01432,-0.014 0.02734,-0.019 0.01302,-0.01 0.02995,-0.01 0.05078,-0.012 0.02083,-0 0.04687,-0 0.07813,-0 0.03125,0 0.05729,0 0.07813,0 0.02083,0 0.03711,0.01 0.04883,0.012 0.01302,0.01 0.02214,0.012 0.02734,0.019 0.0052,0.01 0.0078,0.015 0.0078,0.025 l 0,1.0235 c 0,0.1028 0.0072,0.1855 0.02149,0.248 0.01562,0.061 0.03841,0.1139 0.06836,0.1582 0.03125,0.043 0.07031,0.077 0.117188,0.1016 0.04687,0.023 0.101561,0.035 0.164062,0.035 0.08073,0 0.160806,-0.029 0.240234,-0.086 0.08073,-0.057 0.166015,-0.1413 0.25586,-0.252 l 0,-1.2285 c -2e-6,-0.01 0.002,-0.019 0.0059,-0.025 0.0052,-0.01 0.01432,-0.014 0.02734,-0.019 0.01302,-0.01 0.0293,-0.01 0.04883,-0.012 0.02083,-0 0.04752,-0 0.08008,-0 0.03125,0 0.05729,0 0.07813,0 0.02083,0 0.03711,0.01 0.04883,0.012 0.01172,0.01 0.02018,0.012 0.02539,0.019 0.0065,0.01 0.0098,0.015 0.0098,0.025 l 0,1.7578"
         style=""
         id="path2885" />
      <path
         d="m 23.507812,1032.0262 c -3e-6,0.011 -0.0026,0.02 -0.0078,0.027 -0.0052,0.01 -0.01367,0.012 -0.02539,0.018 -0.01172,0.01 -0.028,0.01 -0.04883,0.012 -0.02084,0 -0.04688,0 -0.07813,0 -0.03255,0 -0.05925,-0 -0.08008,-0 -0.02084,-0 -0.03776,-0.01 -0.05078,-0.012 -0.01172,-0.01 -0.02018,-0.011 -0.02539,-0.018 -0.0052,-0.01 -0.0078,-0.017 -0.0078,-0.027 l 0,-1.0683 c -3e-6,-0.074 -0.0065,-0.1419 -0.01953,-0.2031 -0.01302,-0.061 -0.03386,-0.114 -0.0625,-0.1582 -0.02865,-0.044 -0.06511,-0.078 -0.109375,-0.1016 -0.04427,-0.023 -0.09636,-0.035 -0.15625,-0.035 -0.07422,0 -0.149091,0.029 -0.22461,0.086 -0.07422,0.057 -0.156252,0.1413 -0.246094,0.2519 l 0,1.2285 c -1e-6,0.011 -0.0026,0.02 -0.0078,0.027 -0.0052,0.01 -0.01432,0.012 -0.02734,0.018 -0.01172,0.01 -0.028,0.01 -0.04883,0.012 -0.02083,0 -0.04688,0 -0.07813,0 -0.02995,0 -0.05599,-0 -0.07813,-0 -0.02083,-0 -0.03776,-0.01 -0.05078,-0.012 -0.01172,-0.01 -0.02018,-0.011 -0.02539,-0.018 -0.0039,-0.01 -0.0059,-0.017 -0.0059,-0.027 l 0,-1.0683 c -2e-6,-0.074 -0.0072,-0.1419 -0.02148,-0.2031 -0.01432,-0.061 -0.03581,-0.114 -0.06445,-0.1582 -0.02865,-0.044 -0.0651,-0.078 -0.109375,-0.1016 -0.04297,-0.023 -0.0944,-0.035 -0.154297,-0.035 -0.07422,0 -0.149089,0.029 -0.224609,0.086 -0.07552,0.057 -0.157553,0.1413 -0.246094,0.2519 l 0,1.2285 c 0,0.011 -0.0026,0.02 -0.0078,0.027 -0.0052,0.01 -0.01367,0.012 -0.02539,0.018 -0.01172,0.01 -0.028,0.01 -0.04883,0.012 -0.02083,0 -0.04753,0 -0.08008,0 -0.03125,0 -0.05729,-0 -0.07813,-0 -0.02083,-0 -0.03776,-0.01 -0.05078,-0.012 -0.01172,-0.01 -0.02018,-0.011 -0.02539,-0.018 -0.0039,-0.01 -0.0059,-0.017 -0.0059,-0.027 l 0,-1.7578 c -1e-6,-0.01 0.002,-0.019 0.0059,-0.025 0.0039,-0.01 0.01172,-0.014 0.02344,-0.019 0.01172,-0.01 0.02669,-0.01 0.04492,-0.012 0.01823,-0 0.04232,-0 0.07227,-0 0.02865,0 0.05208,0 0.07031,0 0.01953,0 0.0345,0.01 0.04492,0.012 0.01042,0.01 0.01758,0.012 0.02148,0.019 0.0052,0.01 0.0078,0.015 0.0078,0.025 l 0,0.2325 c 0.09896,-0.1107 0.194661,-0.1914 0.28711,-0.2422 0.09375,-0.052 0.18815,-0.078 0.283203,-0.078 0.07292,0 0.138019,0.01 0.195312,0.025 0.05859,0.017 0.110025,0.041 0.154297,0.072 0.04427,0.03 0.08203,0.066 0.113281,0.1094 0.03125,0.042 0.05729,0.089 0.07813,0.1406 0.05859,-0.064 0.113931,-0.1178 0.166016,-0.1621 0.05338,-0.044 0.104165,-0.08 0.152344,-0.1074 0.04948,-0.027 0.097,-0.047 0.142578,-0.059 0.04687,-0.013 0.09375,-0.02 0.140625,-0.02 0.113279,0 0.208331,0.02 0.285156,0.061 0.07682,0.039 0.138669,0.092 0.185547,0.1582 0.04817,0.066 0.08203,0.1445 0.101563,0.2344 0.02083,0.088 0.03125,0.1823 0.03125,0.2812 l 0,1.1113"
         style=""
         id="path2887" />
      <path
         d="m 26.507812,1032.0262 c -2e-6,0.011 -0.0026,0.02 -0.0078,0.027 -0.0039,0.01 -0.01172,0.014 -0.02344,0.02 -0.01042,0 -0.02474,0.01 -0.04297,0.01 -0.01823,0 -0.04037,0 -0.06641,0 -0.02735,0 -0.05013,-0 -0.06836,-0 -0.01823,-0 -0.0332,-0.01 -0.04492,-0.01 -0.01172,-0.01 -0.02018,-0.012 -0.02539,-0.02 -0.0052,-0.01 -0.0078,-0.017 -0.0078,-0.027 l 0,-0.2324 c -0.09245,0.1003 -0.188803,0.1784 -0.289062,0.2344 -0.09896,0.056 -0.207684,0.084 -0.326172,0.084 -0.128907,0 -0.238933,-0.025 -0.330078,-0.074 -0.09115,-0.051 -0.165365,-0.1185 -0.222657,-0.2032 -0.05599,-0.086 -0.097,-0.1862 -0.123046,-0.3007 -0.02604,-0.1159 -0.03906,-0.2377 -0.03906,-0.3653 0,-0.151 0.01628,-0.2871 0.04883,-0.4082 0.03255,-0.1224 0.08073,-0.2265 0.144531,-0.3125 0.0638,-0.086 0.142578,-0.1517 0.236329,-0.1972 0.09505,-0.047 0.204426,-0.07 0.328125,-0.07 0.102863,0 0.196613,0.023 0.28125,0.068 0.08594,0.044 0.170571,0.11 0.253906,0.1973 l 0,-1.0215 c -2e-6,-0.01 0.002,-0.018 0.0059,-0.025 0.0052,-0.01 0.01432,-0.016 0.02734,-0.02 0.01302,-0.01 0.0293,-0.01 0.04883,-0.012 0.02083,-0 0.04687,-0.01 0.07813,-0.01 0.03255,0 0.05924,0 0.08008,0.01 0.02083,0 0.03711,0.01 0.04883,0.012 0.01172,0 0.02018,0.01 0.02539,0.02 0.0065,0.01 0.0098,0.016 0.0098,0.025 l 0,2.6015 m -0.324219,-1.2363 c -0.08724,-0.1081 -0.171877,-0.1901 -0.253906,-0.2461 -0.08073,-0.057 -0.165366,-0.086 -0.253907,-0.086 -0.08203,0 -0.151693,0.019 -0.208984,0.059 -0.05729,0.039 -0.104167,0.091 -0.140625,0.1543 -0.03516,0.064 -0.0612,0.136 -0.07813,0.2168 -0.01563,0.081 -0.02344,0.1627 -0.02344,0.2461 0,0.088 0.0065,0.1751 0.01953,0.2597 0.01432,0.085 0.03841,0.1602 0.07226,0.2266 0.03385,0.065 0.07878,0.1178 0.134766,0.1582 0.05599,0.039 0.126301,0.059 0.210937,0.059 0.04297,0 0.08398,-0.01 0.123047,-0.018 0.04036,-0.012 0.08138,-0.031 0.123047,-0.059 0.04167,-0.027 0.08528,-0.062 0.13086,-0.1054 0.04557,-0.044 0.09375,-0.098 0.144531,-0.1622 l 0,-0.7031"
         style=""
         id="path2889" />
      <path
         d="m 28.73828,1031.1278 c -2e-6,0.1432 -0.01888,0.2754 -0.05664,0.3965 -0.03776,0.1198 -0.0944,0.2233 -0.169922,0.3105 -0.07422,0.087 -0.16797,0.1556 -0.28125,0.2051 -0.111981,0.048 -0.242189,0.072 -0.390625,0.072 -0.144532,0 -0.270834,-0.022 -0.378906,-0.064 -0.106772,-0.043 -0.195964,-0.1054 -0.267579,-0.1875 -0.07161,-0.082 -0.125,-0.1816 -0.160156,-0.2988 -0.03516,-0.1172 -0.05273,-0.25 -0.05273,-0.3984 0,-0.1433 0.01823,-0.2748 0.05469,-0.3946 0.03776,-0.1211 0.09375,-0.2252 0.167969,-0.3125 0.07552,-0.087 0.16927,-0.1549 0.28125,-0.2031 0.111978,-0.048 0.242838,-0.072 0.392578,-0.072 0.14453,0 0.270181,0.022 0.376953,0.064 0.108072,0.043 0.197915,0.1055 0.269532,0.1875 0.07161,0.082 0.124998,0.1816 0.160156,0.2988 0.03646,0.1172 0.05469,0.2494 0.05469,0.3965 m -0.339843,0.022 c -2e-6,-0.095 -0.0091,-0.1849 -0.02734,-0.2695 -0.01693,-0.085 -0.04557,-0.1589 -0.08594,-0.2227 -0.04037,-0.064 -0.09505,-0.1139 -0.164062,-0.1504 -0.06901,-0.038 -0.154949,-0.057 -0.257813,-0.057 -0.09505,0 -0.177084,0.017 -0.246093,0.051 -0.06771,0.034 -0.123699,0.082 -0.167969,0.1445 -0.04427,0.061 -0.07747,0.1341 -0.09961,0.2187 -0.02083,0.085 -0.03125,0.1771 -0.03125,0.2774 0,0.096 0.0085,0.1868 0.02539,0.2715 0.01823,0.085 0.04753,0.1588 0.08789,0.2226 0.04167,0.062 0.097,0.1127 0.166015,0.1504 0.06901,0.036 0.154947,0.055 0.257813,0.055 0.09375,0 0.175129,-0.017 0.24414,-0.051 0.06901,-0.034 0.12565,-0.081 0.169922,-0.1426 0.04427,-0.061 0.07682,-0.1341 0.09766,-0.2187 0.02083,-0.085 0.03125,-0.1777 0.03125,-0.2793"
         style=""
         id="path2891" />
      <path
         d="m 29.535155,1032.0262 c 0,0.011 -0.0026,0.02 -0.0078,0.027 -0.0052,0.01 -0.01367,0.012 -0.02539,0.018 -0.01172,0.01 -0.028,0.01 -0.04883,0.012 -0.02083,0 -0.04753,0 -0.08008,0 -0.03125,0 -0.05729,-0 -0.07813,-0 -0.02083,-0 -0.03776,-0.01 -0.05078,-0.012 -0.01172,-0.01 -0.02018,-0.011 -0.02539,-0.018 -0.0039,-0.01 -0.0059,-0.017 -0.0059,-0.027 l 0,-2.6093 c -1e-6,-0.01 0.002,-0.02 0.0059,-0.027 0.0052,-0.01 0.01367,-0.014 0.02539,-0.02 0.01302,-0.01 0.02995,-0.01 0.05078,-0.012 0.02083,-0 0.04687,-0 0.07813,-0 0.03255,0 0.05924,0 0.08008,0 0.02083,0 0.03711,0.01 0.04883,0.012 0.01172,0.01 0.02018,0.012 0.02539,0.02 0.0052,0.01 0.0078,0.017 0.0078,0.027 l 0,2.6093"
         style=""
         id="path2893" />
      <path
         d="m 31.76953,1031.1278 c -2e-6,0.1432 -0.01888,0.2754 -0.05664,0.3965 -0.03776,0.1198 -0.0944,0.2233 -0.169922,0.3105 -0.07422,0.087 -0.16797,0.1556 -0.28125,0.2051 -0.111981,0.048 -0.242189,0.072 -0.390625,0.072 -0.144532,0 -0.270834,-0.022 -0.378906,-0.064 -0.106772,-0.043 -0.195964,-0.1054 -0.267579,-0.1875 -0.07161,-0.082 -0.125,-0.1816 -0.160156,-0.2988 -0.03516,-0.1172 -0.05273,-0.25 -0.05273,-0.3984 0,-0.1433 0.01823,-0.2748 0.05469,-0.3946 0.03776,-0.1211 0.09375,-0.2252 0.167969,-0.3125 0.07552,-0.087 0.16927,-0.1549 0.28125,-0.2031 0.111978,-0.048 0.242838,-0.072 0.392578,-0.072 0.14453,0 0.270181,0.022 0.376953,0.064 0.108072,0.043 0.197915,0.1055 0.269532,0.1875 0.07161,0.082 0.124998,0.1816 0.160156,0.2988 0.03646,0.1172 0.05469,0.2494 0.05469,0.3965 m -0.339843,0.022 c -2e-6,-0.095 -0.0091,-0.1849 -0.02734,-0.2695 -0.01693,-0.085 -0.04557,-0.1589 -0.08594,-0.2227 -0.04037,-0.064 -0.09505,-0.1139 -0.164062,-0.1504 -0.06901,-0.038 -0.154949,-0.057 -0.257813,-0.057 -0.09505,0 -0.177084,0.017 -0.246093,0.051 -0.06771,0.034 -0.123699,0.082 -0.167969,0.1445 -0.04427,0.061 -0.07747,0.1341 -0.09961,0.2187 -0.02083,0.085 -0.03125,0.1771 -0.03125,0.2774 0,0.096 0.0085,0.1868 0.02539,0.2715 0.01823,0.085 0.04753,0.1588 0.08789,0.2226 0.04167,0.062 0.097,0.1127 0.166015,0.1504 0.06901,0.036 0.154947,0.055 0.257813,0.055 0.09375,0 0.175129,-0.017 0.24414,-0.051 0.06901,-0.034 0.12565,-0.081 0.169922,-0.1426 0.04427,-0.061 0.07682,-0.1341 0.09766,-0.2187 0.02083,-0.085 0.03125,-0.1777 0.03125,-0.2793"
         style=""
         id="path2895" />
      <path
         d="m 33.271483,1030.3837 c -1e-6,0.029 -6.52e-4,0.053 -0.002,0.072 -0.0013,0.02 -0.0039,0.035 -0.0078,0.047 -0.0039,0.01 -0.0091,0.019 -0.01563,0.025 -0.0052,0.01 -0.01302,0.01 -0.02344,0.01 -0.01042,0 -0.02344,-0 -0.03906,-0.01 -0.01432,-0.01 -0.03125,-0.012 -0.05078,-0.018 -0.01823,-0.01 -0.03906,-0.012 -0.0625,-0.018 -0.02344,-0.01 -0.04883,-0.01 -0.07617,-0.01 -0.03255,0 -0.06445,0.01 -0.0957,0.02 -0.03125,0.013 -0.06445,0.034 -0.09961,0.064 -0.03386,0.03 -0.06966,0.07 -0.107422,0.1192 -0.03776,0.049 -0.07943,0.11 -0.125,0.1816 l 0,1.1562 c 0,0.011 -0.0026,0.02 -0.0078,0.027 -0.0052,0.01 -0.01367,0.012 -0.02539,0.018 -0.01172,0.01 -0.028,0.01 -0.04883,0.012 -0.02083,0 -0.04753,0 -0.08008,0 -0.03125,0 -0.05729,-0 -0.07813,-0 -0.02083,-0 -0.03776,-0.01 -0.05078,-0.012 -0.01172,-0.01 -0.02018,-0.011 -0.02539,-0.018 -0.0039,-0.01 -0.0059,-0.017 -0.0059,-0.027 l 0,-1.7578 c -1e-6,-0.01 0.002,-0.019 0.0059,-0.025 0.0039,-0.01 0.01172,-0.014 0.02344,-0.019 0.01172,-0.01 0.02669,-0.01 0.04492,-0.012 0.01823,-0 0.04232,-0 0.07227,-0 0.02864,0 0.05208,0 0.07031,0 0.01953,0 0.0345,0.01 0.04492,0.012 0.01042,0.01 0.01758,0.012 0.02148,0.019 0.0052,0.01 0.0078,0.015 0.0078,0.025 l 0,0.2559 c 0.04818,-0.07 0.0931,-0.1276 0.134766,-0.1719 0.04297,-0.044 0.08333,-0.079 0.121094,-0.1035 0.03776,-0.026 0.07487,-0.044 0.111328,-0.053 0.03776,-0.01 0.07552,-0.016 0.113281,-0.016 0.01693,0 0.03581,0 0.05664,0 0.02213,0 0.04492,0 0.06836,0.01 0.02344,0.01 0.04427,0.011 0.0625,0.018 0.01953,0.01 0.0332,0.013 0.04102,0.019 0.0078,0.01 0.01302,0.013 0.01563,0.02 0.0026,0.01 0.0046,0.012 0.0059,0.021 0.0026,0.01 0.0039,0.023 0.0039,0.041 0.0013,0.017 0.002,0.04 0.002,0.07"
         style=""
         id="path2897" />
      <path
         d="m 35.652343,1031.5477 c -2e-6,0.09 -0.01693,0.17 -0.05078,0.2403 -0.03255,0.07 -0.07943,0.1295 -0.140625,0.1777 -0.0612,0.048 -0.134116,0.085 -0.21875,0.1094 -0.08464,0.025 -0.177736,0.037 -0.279297,0.037 -0.0625,0 -0.122397,-0.01 -0.179688,-0.016 -0.05599,-0.01 -0.106771,-0.021 -0.152344,-0.035 -0.04427,-0.016 -0.08203,-0.031 -0.113281,-0.047 -0.03125,-0.017 -0.05404,-0.032 -0.06836,-0.045 -0.01432,-0.013 -0.02474,-0.031 -0.03125,-0.055 -0.0065,-0.023 -0.0098,-0.055 -0.0098,-0.096 0,-0.025 0.0013,-0.046 0.0039,-0.062 0.0026,-0.017 0.0059,-0.031 0.0098,-0.041 0.0039,-0.01 0.0091,-0.018 0.01563,-0.022 0.0078,-0.01 0.01628,-0.01 0.02539,-0.01 0.01432,0 0.03516,0.01 0.0625,0.027 0.02864,0.017 0.06315,0.036 0.103515,0.057 0.04167,0.021 0.09049,0.04 0.146485,0.059 0.05599,0.017 0.120442,0.025 0.193359,0.025 0.05469,0 0.104166,-0.01 0.148438,-0.018 0.04427,-0.012 0.08268,-0.029 0.115234,-0.051 0.03255,-0.023 0.05729,-0.053 0.07422,-0.088 0.01823,-0.035 0.02734,-0.077 0.02734,-0.125 -1e-6,-0.05 -0.01302,-0.091 -0.03906,-0.125 -0.02474,-0.034 -0.05794,-0.064 -0.09961,-0.09 -0.04167,-0.026 -0.08854,-0.049 -0.140625,-0.068 -0.05208,-0.021 -0.106121,-0.042 -0.16211,-0.064 -0.05469,-0.022 -0.108724,-0.047 -0.162109,-0.074 -0.05208,-0.029 -0.09896,-0.063 -0.140625,-0.1035 -0.04167,-0.04 -0.07552,-0.089 -0.101563,-0.1445 -0.02474,-0.056 -0.03711,-0.123 -0.03711,-0.2012 0,-0.069 0.01302,-0.1347 0.03906,-0.1972 0.02734,-0.064 0.06771,-0.1192 0.121094,-0.1661 0.05338,-0.048 0.119791,-0.087 0.199219,-0.1152 0.08073,-0.029 0.174478,-0.043 0.28125,-0.043 0.04687,0 0.09375,0 0.140625,0.012 0.04687,0.01 0.08919,0.018 0.126953,0.029 0.03776,0.012 0.06966,0.025 0.0957,0.039 0.02734,0.013 0.04753,0.025 0.06055,0.035 0.01432,0.01 0.02344,0.019 0.02734,0.027 0.0052,0.01 0.0085,0.017 0.0098,0.027 0.0026,0.01 0.0046,0.021 0.0059,0.035 0.0026,0.014 0.0039,0.032 0.0039,0.053 -1e-6,0.022 -0.0013,0.042 -0.0039,0.059 -0.0013,0.016 -0.0046,0.029 -0.0098,0.039 -0.0039,0.01 -0.0091,0.018 -0.01563,0.023 -0.0065,0 -0.01367,0.01 -0.02148,0.01 -0.01172,0 -0.02865,-0.01 -0.05078,-0.022 -0.02214,-0.014 -0.05078,-0.029 -0.08594,-0.045 -0.03516,-0.017 -0.07682,-0.033 -0.125,-0.047 -0.04688,-0.014 -0.100912,-0.022 -0.162109,-0.022 -0.05469,0 -0.102866,0.01 -0.144532,0.02 -0.04167,0.012 -0.07617,0.029 -0.103515,0.053 -0.02604,0.022 -0.04622,0.049 -0.06055,0.08 -0.01302,0.031 -0.01953,0.065 -0.01953,0.1015 -1e-6,0.051 0.01302,0.094 0.03906,0.129 0.02604,0.034 0.05989,0.064 0.101563,0.09 0.04167,0.026 0.08919,0.05 0.142578,0.07 0.05338,0.021 0.107421,0.042 0.162109,0.064 0.05599,0.022 0.110676,0.047 0.164063,0.074 0.05469,0.027 0.102863,0.061 0.144531,0.1 0.04166,0.039 0.07487,0.086 0.09961,0.1406 0.02604,0.055 0.03906,0.1198 0.03906,0.1953"
         style=""
         id="path2899" />
      <path
         d="m 36.433593,1032.0262 c -1e-6,0.011 -0.0026,0.02 -0.0078,0.027 -0.0052,0.01 -0.01367,0.012 -0.02539,0.018 -0.01172,0.01 -0.028,0.01 -0.04883,0.012 -0.02083,0 -0.04753,0 -0.08008,0 -0.03125,0 -0.05729,-0 -0.07813,-0 -0.02083,-0 -0.03776,-0.01 -0.05078,-0.012 -0.01172,-0.01 -0.02018,-0.011 -0.02539,-0.018 -0.0039,-0.01 -0.0059,-0.017 -0.0059,-0.027 l 0,-1.7578 c 0,-0.01 0.002,-0.017 0.0059,-0.025 0.0052,-0.01 0.01367,-0.014 0.02539,-0.019 0.01302,-0.01 0.02995,-0.01 0.05078,-0.012 0.02083,-0 0.04687,-0 0.07813,-0 0.03255,0 0.05924,0 0.08008,0 0.02083,0 0.03711,0.01 0.04883,0.012 0.01172,0.01 0.02018,0.012 0.02539,0.019 0.0052,0.01 0.0078,0.016 0.0078,0.025 l 0,1.7578 m 0.03711,-2.3515 c 0,0.075 -0.01432,0.1269 -0.04297,0.1543 -0.02865,0.027 -0.08138,0.041 -0.158203,0.041 -0.07552,0 -0.127604,-0.013 -0.15625,-0.039 -0.02734,-0.027 -0.04102,-0.078 -0.04102,-0.1523 -1e-6,-0.075 0.01432,-0.127 0.04297,-0.1543 0.02865,-0.027 0.08138,-0.041 0.158204,-0.041 0.07552,0 0.126952,0.014 0.154296,0.041 0.02865,0.026 0.04297,0.076 0.04297,0.1504"
         style=""
         id="path2901" />
      <path
         d="m 37.947265,1031.8973 c -2e-6,0.038 -0.0026,0.068 -0.0078,0.09 -0.0052,0.022 -0.01302,0.038 -0.02344,0.049 -0.01042,0.01 -0.02604,0.02 -0.04687,0.029 -0.02083,0.01 -0.04492,0.016 -0.07227,0.022 -0.02604,0.01 -0.05404,0.012 -0.08398,0.016 -0.02995,0 -0.0599,0.01 -0.08984,0.01 -0.09115,0 -0.169272,-0.012 -0.234375,-0.035 -0.06511,-0.025 -0.11849,-0.061 -0.160156,-0.1094 -0.04167,-0.049 -0.07227,-0.1113 -0.0918,-0.1855 -0.01823,-0.075 -0.02734,-0.1641 -0.02734,-0.2656 l 0,-1.0274 -0.246094,0 c -0.01953,0 -0.03516,-0.01 -0.04687,-0.031 -0.01172,-0.021 -0.01758,-0.055 -0.01758,-0.1016 0,-0.025 0.0013,-0.046 0.0039,-0.062 0.0039,-0.017 0.0085,-0.031 0.01367,-0.041 0.0052,-0.012 0.01172,-0.02 0.01953,-0.023 0.0091,-0.01 0.01888,-0.01 0.0293,-0.01 l 0.244141,0 0,-0.418 c 0,-0.01 0.002,-0.018 0.0059,-0.025 0.0052,-0.01 0.01367,-0.014 0.02539,-0.02 0.01302,-0.01 0.02995,-0.011 0.05078,-0.014 0.02083,-0 0.04687,-0 0.07813,-0 0.03255,0 0.05924,0 0.08008,0 0.02083,0 0.03711,0.01 0.04883,0.014 0.01172,0.01 0.02018,0.012 0.02539,0.02 0.0052,0.01 0.0078,0.016 0.0078,0.025 l 0,0.418 0.451172,0 c 0.01042,0 0.01953,0 0.02734,0.01 0.0078,0 0.01432,0.012 0.01953,0.023 0.0065,0.01 0.01107,0.024 0.01367,0.041 0.0026,0.017 0.0039,0.038 0.0039,0.062 -2e-6,0.047 -0.0059,0.081 -0.01758,0.1016 -0.01172,0.021 -0.02735,0.031 -0.04687,0.031 l -0.451172,0 0,0.9805 c -1e-6,0.1211 0.01758,0.2129 0.05273,0.2754 0.03646,0.061 0.100911,0.092 0.193359,0.092 0.02995,0 0.05664,-0 0.08008,-0.01 0.02344,-0.01 0.04427,-0.013 0.0625,-0.02 0.01823,-0.01 0.03385,-0.012 0.04687,-0.017 0.01302,-0.01 0.02474,-0.01 0.03516,-0.01 0.0065,0 0.01237,0 0.01758,0.01 0.0065,0 0.01107,0.01 0.01367,0.017 0.0039,0.01 0.0072,0.022 0.0098,0.037 0.0026,0.016 0.0039,0.035 0.0039,0.059"
         style=""
         id="path2903" />
    </g>
    <g
       style="font-size:4px;font-style:normal;font-variant:normal;font-weight:normal;font-stretch:normal;fill:#88a4b4;fill-opacity:1;stroke:none;font-family:Calibri;-inkscape-font-specification:Calibri"
       id="text2853">
      <path
         d="m 15.537108,1036.0282 c -10e-7,0.016 -0.0052,0.027 -0.01563,0.035 -0.01042,0.01 -0.02474,0.014 -0.04297,0.017 -0.01823,0 -0.04492,0.01 -0.08008,0.01 -0.03386,0 -0.0612,-0 -0.08203,-0.01 -0.01953,-0 -0.03385,-0.01 -0.04297,-0.017 -0.0091,-0.01 -0.01367,-0.02 -0.01367,-0.035 l 0,-0.1758 c -0.07682,0.082 -0.162762,0.1459 -0.257813,0.1914 -0.09375,0.046 -0.19336,0.068 -0.298828,0.068 -0.09245,0 -0.176433,-0.012 -0.251953,-0.037 -0.07422,-0.024 -0.138021,-0.058 -0.191406,-0.1035 -0.05208,-0.046 -0.0931,-0.1016 -0.123047,-0.168 -0.02865,-0.066 -0.04297,-0.1419 -0.04297,-0.2266 0,-0.099 0.02018,-0.1849 0.06055,-0.2578 0.04036,-0.073 0.09831,-0.1334 0.173828,-0.1816 0.07552,-0.048 0.167968,-0.084 0.277344,-0.1074 0.109374,-0.025 0.232421,-0.037 0.36914,-0.037 l 0.242188,0 0,-0.1367 c -1e-6,-0.068 -0.0072,-0.1276 -0.02148,-0.1797 -0.01432,-0.052 -0.03776,-0.095 -0.07031,-0.1289 -0.03125,-0.035 -0.07227,-0.061 -0.123047,-0.078 -0.05078,-0.018 -0.113282,-0.027 -0.1875,-0.027 -0.07943,0 -0.151042,0.01 -0.214844,0.029 -0.0625,0.018 -0.117839,0.039 -0.166015,0.062 -0.04688,0.022 -0.08659,0.043 -0.119141,0.062 -0.03125,0.018 -0.05469,0.027 -0.07031,0.027 -0.01042,0 -0.01953,-0 -0.02734,-0.01 -0.0078,-0.01 -0.01497,-0.013 -0.02148,-0.023 -0.0052,-0.01 -0.0091,-0.024 -0.01172,-0.039 -0.0026,-0.017 -0.0039,-0.035 -0.0039,-0.055 -10e-7,-0.033 0.002,-0.058 0.0059,-0.076 0.0052,-0.02 0.01628,-0.038 0.0332,-0.055 0.01823,-0.017 0.04883,-0.036 0.0918,-0.059 0.04297,-0.023 0.09245,-0.044 0.148437,-0.062 0.05599,-0.02 0.117187,-0.035 0.183594,-0.047 0.06641,-0.013 0.133463,-0.02 0.201172,-0.02 0.126301,0 0.233723,0.014 0.322266,0.043 0.08854,0.029 0.160155,0.071 0.214843,0.127 0.05469,0.055 0.0944,0.123 0.119141,0.205 0.02474,0.082 0.03711,0.1778 0.03711,0.2872 l 0,1.1855 m -0.320312,-0.8027 -0.275391,0 c -0.08854,0 -0.165365,0.01 -0.230468,0.023 -0.0651,0.014 -0.119142,0.036 -0.16211,0.066 -0.04297,0.029 -0.07487,0.064 -0.0957,0.1055 -0.01953,0.04 -0.0293,0.087 -0.0293,0.1406 0,0.091 0.02865,0.1641 0.08594,0.2188 0.05859,0.053 0.139973,0.08 0.24414,0.08 0.08464,0 0.16276,-0.022 0.234375,-0.064 0.07292,-0.043 0.149088,-0.1087 0.228516,-0.1973 l 0,-0.373"
         style=""
         id="path2906" />
      <path
         d="m 18.734374,1036.0262 c -3e-6,0.011 -0.0026,0.02 -0.0078,0.027 -0.0052,0.01 -0.01368,0.012 -0.02539,0.018 -0.01172,0.01 -0.028,0.01 -0.04883,0.012 -0.02084,0 -0.04688,0 -0.07813,0 -0.03255,0 -0.05925,-0 -0.08008,-0 -0.02084,-0 -0.03776,-0.01 -0.05078,-0.012 -0.01172,-0.01 -0.02018,-0.011 -0.02539,-0.018 -0.0052,-0.01 -0.0078,-0.017 -0.0078,-0.027 l 0,-1.0683 c -2e-6,-0.074 -0.0065,-0.1419 -0.01953,-0.2031 -0.01302,-0.061 -0.03386,-0.114 -0.0625,-0.1582 -0.02865,-0.044 -0.06511,-0.078 -0.109375,-0.1016 -0.04427,-0.023 -0.09636,-0.035 -0.15625,-0.035 -0.07422,0 -0.149091,0.029 -0.224609,0.086 -0.07422,0.057 -0.156252,0.1413 -0.246094,0.2519 l 0,1.2285 c -2e-6,0.011 -0.0026,0.02 -0.0078,0.027 -0.0052,0.01 -0.01432,0.012 -0.02734,0.018 -0.01172,0.01 -0.028,0.01 -0.04883,0.012 -0.02084,0 -0.04688,0 -0.07813,0 -0.02995,0 -0.05599,-0 -0.07813,-0 -0.02084,-0 -0.03776,-0.01 -0.05078,-0.012 -0.01172,-0.01 -0.02018,-0.011 -0.02539,-0.018 -0.0039,-0.01 -0.0059,-0.017 -0.0059,-0.027 l 0,-1.0683 c -1e-6,-0.074 -0.0072,-0.1419 -0.02148,-0.2031 -0.01432,-0.061 -0.03581,-0.114 -0.06445,-0.1582 -0.02865,-0.044 -0.06511,-0.078 -0.109375,-0.1016 -0.04297,-0.023 -0.0944,-0.035 -0.154297,-0.035 -0.07422,0 -0.14909,0.029 -0.224609,0.086 -0.07552,0.057 -0.157553,0.1413 -0.246094,0.2519 l 0,1.2285 c -10e-7,0.011 -0.0026,0.02 -0.0078,0.027 -0.0052,0.01 -0.01367,0.012 -0.02539,0.018 -0.01172,0.01 -0.028,0.01 -0.04883,0.012 -0.02083,0 -0.04753,0 -0.08008,0 -0.03125,0 -0.05729,-0 -0.07813,-0 -0.02083,-0 -0.03776,-0.01 -0.05078,-0.012 -0.01172,-0.01 -0.02018,-0.011 -0.02539,-0.018 -0.0039,-0.01 -0.0059,-0.017 -0.0059,-0.027 l 0,-1.7578 c 0,-0.01 0.002,-0.019 0.0059,-0.025 0.0039,-0.01 0.01172,-0.014 0.02344,-0.019 0.01172,-0.01 0.02669,-0.01 0.04492,-0.012 0.01823,-0 0.04232,-0 0.07227,-0 0.02864,0 0.05208,0 0.07031,0 0.01953,0 0.0345,0.01 0.04492,0.012 0.01042,0.01 0.01758,0.012 0.02148,0.019 0.0052,0.01 0.0078,0.015 0.0078,0.025 l 0,0.2325 c 0.09896,-0.1107 0.19466,-0.1914 0.287109,-0.2422 0.09375,-0.052 0.18815,-0.078 0.283203,-0.078 0.07292,0 0.13802,0.01 0.195313,0.025 0.05859,0.017 0.110024,0.041 0.154297,0.072 0.04427,0.03 0.08203,0.066 0.113281,0.1094 0.03125,0.042 0.05729,0.089 0.07813,0.1406 0.05859,-0.064 0.11393,-0.1178 0.166016,-0.1621 0.05338,-0.044 0.104164,-0.08 0.152343,-0.1074 0.04948,-0.027 0.097,-0.047 0.142578,-0.059 0.04687,-0.013 0.09375,-0.02 0.140625,-0.02 0.113279,0 0.208331,0.02 0.285157,0.061 0.07682,0.039 0.138669,0.092 0.185547,0.1582 0.04817,0.066 0.08203,0.1445 0.101562,0.2344 0.02083,0.088 0.03125,0.1823 0.03125,0.2812 l 0,1.1113"
         style=""
         id="path2908" />
      <path
         d="m 20.822265,1035.0712 c -2e-6,0.051 -0.01302,0.087 -0.03906,0.1093 -0.02474,0.021 -0.05339,0.031 -0.08594,0.031 l -1.152344,0 c -10e-7,0.098 0.0098,0.1855 0.0293,0.2637 0.01953,0.078 0.05208,0.1451 0.09766,0.2011 0.04557,0.056 0.104817,0.099 0.177734,0.1289 0.07292,0.03 0.162109,0.045 0.267579,0.045 0.08333,0 0.15755,-0.01 0.222656,-0.02 0.0651,-0.014 0.121092,-0.03 0.167969,-0.047 0.04817,-0.017 0.08724,-0.032 0.117187,-0.045 0.03125,-0.014 0.05469,-0.021 0.07031,-0.021 0.0091,0 0.01692,0 0.02344,0.01 0.0078,0 0.01367,0.01 0.01758,0.019 0.0039,0.01 0.0065,0.022 0.0078,0.039 0.0026,0.016 0.0039,0.035 0.0039,0.059 -2e-6,0.017 -6.53e-4,0.032 -0.002,0.045 -0.0013,0.012 -0.0033,0.023 -0.0059,0.033 -0.0013,0.01 -0.0046,0.018 -0.0098,0.025 -0.0039,0.01 -0.0098,0.016 -0.01758,0.023 -0.0065,0.01 -0.02735,0.018 -0.0625,0.035 -0.03516,0.016 -0.08073,0.031 -0.136719,0.047 -0.05599,0.016 -0.121095,0.029 -0.195313,0.041 -0.07292,0.013 -0.151042,0.02 -0.234375,0.02 -0.144532,0 -0.271485,-0.02 -0.380859,-0.061 -0.108073,-0.04 -0.199219,-0.1002 -0.273437,-0.1797 -0.07422,-0.079 -0.130209,-0.179 -0.167969,-0.2988 -0.03776,-0.1198 -0.05664,-0.2591 -0.05664,-0.4179 0,-0.1511 0.01953,-0.2865 0.05859,-0.4063 0.03906,-0.1211 0.09505,-0.2233 0.167969,-0.3066 0.07422,-0.085 0.163411,-0.1491 0.267578,-0.1934 0.104166,-0.046 0.220702,-0.068 0.349609,-0.068 0.13802,0 0.255207,0.022 0.351563,0.066 0.09765,0.044 0.177732,0.1042 0.240234,0.1797 0.0625,0.074 0.108071,0.1621 0.136719,0.2637 0.02995,0.1003 0.04492,0.2077 0.04492,0.3223 l 0,0.059 m -0.324219,-0.096 c 0.0039,-0.1693 -0.03386,-0.3021 -0.113281,-0.3985 -0.07813,-0.096 -0.194663,-0.1445 -0.34961,-0.1445 -0.07943,0 -0.149089,0.015 -0.208984,0.045 -0.0599,0.03 -0.110027,0.07 -0.150391,0.1192 -0.04037,0.049 -0.07162,0.1074 -0.09375,0.1738 -0.02214,0.065 -0.0345,0.1335 -0.03711,0.2051 l 0.953125,0"
         style=""
         id="path2910" />
      <path
         d="m 22.205077,1035.8973 c -1e-6,0.038 -0.0026,0.068 -0.0078,0.09 -0.0052,0.022 -0.01302,0.038 -0.02344,0.049 -0.01042,0.01 -0.02604,0.02 -0.04687,0.029 -0.02083,0.01 -0.04492,0.016 -0.07226,0.022 -0.02604,0.01 -0.05404,0.012 -0.08399,0.016 -0.02995,0 -0.0599,0.01 -0.08984,0.01 -0.09115,0 -0.169271,-0.012 -0.234375,-0.035 -0.0651,-0.025 -0.11849,-0.061 -0.160156,-0.1094 -0.04167,-0.049 -0.07227,-0.1113 -0.0918,-0.1855 -0.01823,-0.075 -0.02734,-0.1641 -0.02734,-0.2656 l 0,-1.0274 -0.246094,0 c -0.01953,0 -0.03516,-0.01 -0.04687,-0.031 -0.01172,-0.021 -0.01758,-0.055 -0.01758,-0.1016 0,-0.025 0.0013,-0.046 0.0039,-0.062 0.0039,-0.017 0.0085,-0.031 0.01367,-0.041 0.0052,-0.012 0.01172,-0.02 0.01953,-0.023 0.0091,-0.01 0.01888,-0.01 0.0293,-0.01 l 0.244141,0 0,-0.418 c -1e-6,-0.01 0.002,-0.018 0.0059,-0.025 0.0052,-0.01 0.01367,-0.014 0.02539,-0.02 0.01302,-0.01 0.02995,-0.011 0.05078,-0.014 0.02083,-0 0.04687,-0 0.07813,-0 0.03255,0 0.05924,0 0.08008,0 0.02083,0 0.03711,0.01 0.04883,0.014 0.01172,0.01 0.02018,0.012 0.02539,0.02 0.0052,0.01 0.0078,0.016 0.0078,0.025 l 0,0.418 0.451172,0 c 0.01042,0 0.01953,0 0.02734,0.01 0.0078,0 0.01432,0.012 0.01953,0.023 0.0065,0.01 0.01107,0.024 0.01367,0.041 0.0026,0.017 0.0039,0.038 0.0039,0.062 -1e-6,0.047 -0.0059,0.081 -0.01758,0.1016 -0.01172,0.021 -0.02735,0.031 -0.04687,0.031 l -0.451172,0 0,0.9805 c -1e-6,0.1211 0.01758,0.2129 0.05274,0.2754 0.03646,0.061 0.10091,0.092 0.193359,0.092 0.02995,0 0.05664,-0 0.08008,-0.01 0.02344,-0.01 0.04427,-0.013 0.0625,-0.02 0.01823,-0.01 0.03385,-0.012 0.04687,-0.017 0.01302,-0.01 0.02474,-0.01 0.03516,-0.01 0.0065,0 0.01237,0 0.01758,0.01 0.0065,0 0.01107,0.01 0.01367,0.017 0.0039,0.01 0.0072,0.022 0.0098,0.037 0.0026,0.016 0.0039,0.035 0.0039,0.059"
         style=""
         id="path2912" />
      <path
         d="m 23.060546,1035.7958 c -10e-7,0.04 -0.002,0.077 -0.0059,0.1113 -0.0039,0.034 -0.01042,0.066 -0.01953,0.096 -0.0091,0.03 -0.02148,0.059 -0.03711,0.088 -0.01432,0.03 -0.03255,0.061 -0.05469,0.094 l -0.267578,0.4024 c -0.0065,0.01 -0.01432,0.017 -0.02344,0.023 -0.0078,0.01 -0.01823,0.012 -0.03125,0.018 -0.01172,0.01 -0.02604,0.01 -0.04297,0.01 -0.01563,0 -0.03581,0 -0.06055,0 -0.02213,0 -0.04102,-0 -0.05664,-0 -0.01432,-0 -0.02474,-0 -0.03125,-0.01 -0.0065,-0 -0.01042,-0.01 -0.01172,-0.018 0,-0.01 0.0026,-0.017 0.0078,-0.027 l 0.259766,-0.5371 0,-0.25 c 0,-0.035 0.0033,-0.063 0.0098,-0.084 0.0078,-0.021 0.01953,-0.036 0.03516,-0.047 0.01562,-0.01 0.03516,-0.018 0.05859,-0.022 0.02344,-0 0.05208,-0.01 0.08594,-0.01 0.03255,0 0.06055,0 0.08398,0.01 0.02344,0 0.04232,0.011 0.05664,0.022 0.01562,0.01 0.02669,0.026 0.0332,0.047 0.0078,0.021 0.01172,0.049 0.01172,0.084"
         style=""
         id="path2914" />
      <path
         d="m 25.804687,1035.7587 c -2e-6,0.022 -6.53e-4,0.042 -0.002,0.059 -0.0013,0.016 -0.0039,0.029 -0.0078,0.041 -0.0026,0.01 -0.0065,0.02 -0.01172,0.029 -0.0039,0.01 -0.01432,0.02 -0.03125,0.037 -0.01563,0.016 -0.04297,0.036 -0.08203,0.061 -0.03906,0.024 -0.08333,0.045 -0.132813,0.064 -0.04818,0.018 -0.100912,0.033 -0.158203,0.045 -0.05729,0.012 -0.116537,0.018 -0.177734,0.018 -0.126303,0 -0.238282,-0.021 -0.335938,-0.062 -0.09766,-0.042 -0.179688,-0.1022 -0.246093,-0.1817 -0.06511,-0.081 -0.115235,-0.179 -0.150391,-0.2949 -0.03385,-0.1172 -0.05078,-0.2519 -0.05078,-0.4043 0,-0.1732 0.02083,-0.3216 0.0625,-0.4453 0.04297,-0.125 0.100911,-0.2272 0.173828,-0.3066 0.07422,-0.08 0.160807,-0.138 0.259766,-0.1758 0.100259,-0.039 0.208332,-0.059 0.324218,-0.059 0.05599,0 0.110025,0.01 0.16211,0.016 0.05338,0.01 0.102212,0.024 0.146484,0.041 0.04427,0.017 0.08333,0.036 0.117188,0.059 0.03515,0.022 0.06054,0.041 0.07617,0.057 0.01562,0.016 0.02604,0.028 0.03125,0.037 0.0065,0.01 0.01172,0.02 0.01563,0.033 0.0039,0.012 0.0065,0.025 0.0078,0.041 0.0013,0.016 0.002,0.035 0.002,0.059 -2e-6,0.051 -0.0059,0.087 -0.01758,0.1074 -0.01172,0.02 -0.02604,0.029 -0.04297,0.029 -0.01953,0 -0.04232,-0.01 -0.06836,-0.031 -0.02474,-0.022 -0.05664,-0.046 -0.0957,-0.072 -0.03906,-0.026 -0.08659,-0.049 -0.142578,-0.07 -0.05469,-0.022 -0.119793,-0.033 -0.195313,-0.033 -0.154949,0 -0.274089,0.06 -0.357422,0.1797 -0.08203,0.1185 -0.123047,0.291 -0.123047,0.5175 0,0.1133 0.01042,0.2129 0.03125,0.2989 0.02213,0.085 0.05404,0.1556 0.0957,0.2129 0.04167,0.057 0.09245,0.1002 0.152344,0.1289 0.0612,0.027 0.130859,0.041 0.208985,0.041 0.07422,0 0.139321,-0.012 0.195312,-0.035 0.05599,-0.023 0.104165,-0.049 0.144531,-0.076 0.04167,-0.029 0.07617,-0.054 0.103516,-0.076 0.02864,-0.024 0.05078,-0.035 0.06641,-0.035 0.0091,0 0.01693,0 0.02344,0.01 0.0065,0.01 0.01172,0.014 0.01563,0.027 0.0052,0.012 0.0085,0.027 0.0098,0.047 0.0026,0.018 0.0039,0.04 0.0039,0.066"
         style=""
         id="path2916" />
      <path
         d="m 27.839843,1035.1278 c -2e-6,0.1432 -0.01888,0.2754 -0.05664,0.3965 -0.03776,0.1198 -0.0944,0.2233 -0.169922,0.3105 -0.07422,0.087 -0.16797,0.1556 -0.28125,0.2051 -0.11198,0.048 -0.242188,0.072 -0.390625,0.072 -0.144532,0 -0.270834,-0.022 -0.378906,-0.064 -0.106771,-0.043 -0.195964,-0.1054 -0.267578,-0.1875 -0.07161,-0.082 -0.125,-0.1816 -0.160156,-0.2988 -0.03516,-0.1172 -0.05274,-0.25 -0.05274,-0.3984 0,-0.1433 0.01823,-0.2748 0.05469,-0.3946 0.03776,-0.1211 0.09375,-0.2252 0.167969,-0.3125 0.07552,-0.087 0.16927,-0.1549 0.28125,-0.2031 0.111978,-0.048 0.242837,-0.072 0.392578,-0.072 0.14453,0 0.270181,0.022 0.376953,0.064 0.108071,0.043 0.197915,0.1055 0.269531,0.1875 0.07161,0.082 0.124998,0.1816 0.160156,0.2988 0.03646,0.1172 0.05469,0.2494 0.05469,0.3965 m -0.339844,0.022 c -2e-6,-0.095 -0.0091,-0.1849 -0.02734,-0.2695 -0.01693,-0.085 -0.04557,-0.1589 -0.08594,-0.2227 -0.04037,-0.064 -0.09505,-0.1139 -0.164063,-0.1504 -0.06901,-0.038 -0.154949,-0.057 -0.257812,-0.057 -0.09505,0 -0.177084,0.017 -0.246094,0.051 -0.06771,0.034 -0.123699,0.082 -0.167969,0.1445 -0.04427,0.061 -0.07747,0.1341 -0.09961,0.2187 -0.02083,0.085 -0.03125,0.1771 -0.03125,0.2774 -10e-7,0.096 0.0085,0.1868 0.02539,0.2715 0.01823,0.085 0.04753,0.1588 0.08789,0.2226 0.04167,0.062 0.097,0.1127 0.166016,0.1504 0.06901,0.036 0.154947,0.055 0.257812,0.055 0.09375,0 0.175129,-0.017 0.244141,-0.051 0.06901,-0.034 0.12565,-0.081 0.169922,-0.1426 0.04427,-0.061 0.07682,-0.1341 0.09766,-0.2187 0.02083,-0.085 0.03125,-0.1777 0.03125,-0.2793"
         style=""
         id="path2918" />
      <path
         d="m 29.828124,1036.0262 c -2e-6,0.011 -0.0026,0.02 -0.0078,0.027 -0.0052,0.01 -0.01367,0.012 -0.02539,0.018 -0.01172,0.01 -0.028,0.01 -0.04883,0.012 -0.02083,0 -0.04688,0 -0.07813,0 -0.03255,0 -0.05925,-0 -0.08008,-0 -0.02084,-0 -0.03711,-0.01 -0.04883,-0.012 -0.01172,-0.01 -0.02018,-0.011 -0.02539,-0.018 -0.0052,-0.01 -0.0078,-0.017 -0.0078,-0.027 l 0,-1.0293 c -1e-6,-0.1002 -0.0078,-0.1809 -0.02344,-0.2421 -0.01563,-0.061 -0.03841,-0.114 -0.06836,-0.1582 -0.02995,-0.044 -0.06901,-0.078 -0.117188,-0.1016 -0.04688,-0.023 -0.101564,-0.035 -0.164062,-0.035 -0.08073,0 -0.16146,0.029 -0.242188,0.086 -0.08073,0.057 -0.165365,0.1413 -0.253906,0.2519 l 0,1.2285 c -10e-7,0.011 -0.0026,0.02 -0.0078,0.027 -0.0052,0.01 -0.01367,0.012 -0.02539,0.018 -0.01172,0.01 -0.028,0.01 -0.04883,0.012 -0.02083,0 -0.04753,0 -0.08008,0 -0.03125,0 -0.05729,-0 -0.07813,-0 -0.02083,-0 -0.03776,-0.01 -0.05078,-0.012 -0.01172,-0.01 -0.02018,-0.011 -0.02539,-0.018 -0.0039,-0.01 -0.0059,-0.017 -0.0059,-0.027 l 0,-1.7578 c 0,-0.01 0.002,-0.019 0.0059,-0.025 0.0039,-0.01 0.01172,-0.014 0.02344,-0.019 0.01172,-0.01 0.02669,-0.01 0.04492,-0.012 0.01823,-0 0.04232,-0 0.07227,-0 0.02864,0 0.05208,0 0.07031,0 0.01953,0 0.0345,0.01 0.04492,0.012 0.01042,0.01 0.01758,0.012 0.02148,0.019 0.0052,0.01 0.0078,0.015 0.0078,0.025 l 0,0.2325 c 0.09896,-0.1107 0.197265,-0.1914 0.294922,-0.2422 0.09896,-0.052 0.198566,-0.078 0.298828,-0.078 0.117186,0 0.215493,0.02 0.294922,0.061 0.08073,0.039 0.145831,0.092 0.195312,0.1582 0.04948,0.066 0.08463,0.1445 0.105469,0.2344 0.02213,0.088 0.0332,0.1953 0.0332,0.3203 l 0,1.0722"
         style=""
         id="path2920" />
      <path
         d="m 31.51953,1035.5477 c -1e-6,0.09 -0.01693,0.17 -0.05078,0.2403 -0.03255,0.07 -0.07943,0.1295 -0.140625,0.1777 -0.0612,0.048 -0.134116,0.085 -0.21875,0.1094 -0.08464,0.025 -0.177735,0.037 -0.279297,0.037 -0.0625,0 -0.122396,-0.01 -0.179687,-0.016 -0.05599,-0.01 -0.106772,-0.021 -0.152344,-0.035 -0.04427,-0.016 -0.08203,-0.031 -0.113281,-0.047 -0.03125,-0.017 -0.05404,-0.032 -0.06836,-0.045 -0.01432,-0.013 -0.02474,-0.031 -0.03125,-0.055 -0.0065,-0.023 -0.0098,-0.055 -0.0098,-0.096 0,-0.025 0.0013,-0.046 0.0039,-0.062 0.0026,-0.017 0.0059,-0.031 0.0098,-0.041 0.0039,-0.01 0.0091,-0.018 0.01563,-0.022 0.0078,-0.01 0.01628,-0.01 0.02539,-0.01 0.01432,0 0.03516,0.01 0.0625,0.027 0.02865,0.017 0.06315,0.036 0.103516,0.057 0.04167,0.021 0.09049,0.04 0.146484,0.059 0.05599,0.017 0.120442,0.025 0.19336,0.025 0.05469,0 0.104165,-0.01 0.148437,-0.018 0.04427,-0.012 0.08268,-0.029 0.115234,-0.051 0.03255,-0.023 0.05729,-0.053 0.07422,-0.088 0.01823,-0.035 0.02734,-0.077 0.02734,-0.125 -10e-7,-0.05 -0.01302,-0.091 -0.03906,-0.125 -0.02474,-0.034 -0.05794,-0.064 -0.09961,-0.09 -0.04167,-0.026 -0.08854,-0.049 -0.140625,-0.068 -0.05208,-0.021 -0.10612,-0.042 -0.162109,-0.064 -0.05469,-0.022 -0.108725,-0.047 -0.16211,-0.074 -0.05208,-0.029 -0.09896,-0.063 -0.140625,-0.1035 -0.04167,-0.04 -0.07552,-0.089 -0.101562,-0.1445 -0.02474,-0.056 -0.03711,-0.123 -0.03711,-0.2012 0,-0.069 0.01302,-0.1347 0.03906,-0.1972 0.02734,-0.064 0.06771,-0.1192 0.121094,-0.1661 0.05338,-0.048 0.119791,-0.087 0.199218,-0.1152 0.08073,-0.029 0.174479,-0.043 0.28125,-0.043 0.04687,0 0.09375,0 0.140625,0.012 0.04687,0.01 0.08919,0.018 0.126954,0.029 0.03776,0.012 0.06966,0.025 0.0957,0.039 0.02734,0.013 0.04752,0.025 0.06055,0.035 0.01432,0.01 0.02344,0.019 0.02734,0.027 0.0052,0.01 0.0085,0.017 0.0098,0.027 0.0026,0.01 0.0046,0.021 0.0059,0.035 0.0026,0.014 0.0039,0.032 0.0039,0.053 -2e-6,0.022 -0.0013,0.042 -0.0039,0.059 -0.0013,0.016 -0.0046,0.029 -0.0098,0.039 -0.0039,0.01 -0.0091,0.018 -0.01563,0.023 -0.0065,0 -0.01367,0.01 -0.02149,0.01 -0.01172,0 -0.02865,-0.01 -0.05078,-0.022 -0.02214,-0.014 -0.05078,-0.029 -0.08594,-0.045 -0.03516,-0.017 -0.07682,-0.033 -0.125,-0.047 -0.04688,-0.014 -0.100913,-0.022 -0.16211,-0.022 -0.05469,0 -0.102865,0.01 -0.144531,0.02 -0.04167,0.012 -0.07617,0.029 -0.103516,0.053 -0.02604,0.022 -0.04622,0.049 -0.06055,0.08 -0.01302,0.031 -0.01953,0.065 -0.01953,0.1015 0,0.051 0.01302,0.094 0.03906,0.129 0.02604,0.034 0.05989,0.064 0.101562,0.09 0.04167,0.026 0.08919,0.05 0.142578,0.07 0.05338,0.021 0.107421,0.042 0.16211,0.064 0.05599,0.022 0.110676,0.047 0.164062,0.074 0.05469,0.027 0.102864,0.061 0.144531,0.1 0.04167,0.039 0.07487,0.086 0.09961,0.1406 0.02604,0.055 0.03906,0.1198 0.03906,0.1953"
         style=""
         id="path2922" />
      <path
         d="m 33.478515,1035.0712 c -2e-6,0.051 -0.01302,0.087 -0.03906,0.1093 -0.02474,0.021 -0.05339,0.031 -0.08594,0.031 l -1.152344,0 c -1e-6,0.098 0.0098,0.1855 0.0293,0.2637 0.01953,0.078 0.05208,0.1451 0.09766,0.2011 0.04557,0.056 0.104817,0.099 0.177734,0.1289 0.07292,0.03 0.162109,0.045 0.267579,0.045 0.08333,0 0.15755,-0.01 0.222656,-0.02 0.0651,-0.014 0.121092,-0.03 0.167969,-0.047 0.04818,-0.017 0.08724,-0.032 0.117187,-0.045 0.03125,-0.014 0.05469,-0.021 0.07031,-0.021 0.0091,0 0.01693,0 0.02344,0.01 0.0078,0 0.01367,0.01 0.01758,0.019 0.0039,0.01 0.0065,0.022 0.0078,0.039 0.0026,0.016 0.0039,0.035 0.0039,0.059 -2e-6,0.017 -6.53e-4,0.032 -0.002,0.045 -0.0013,0.012 -0.0033,0.023 -0.0059,0.033 -0.0013,0.01 -0.0046,0.018 -0.0098,0.025 -0.0039,0.01 -0.0098,0.016 -0.01758,0.023 -0.0065,0.01 -0.02735,0.018 -0.0625,0.035 -0.03516,0.016 -0.08073,0.031 -0.136719,0.047 -0.05599,0.016 -0.121095,0.029 -0.195313,0.041 -0.07292,0.013 -0.151042,0.02 -0.234375,0.02 -0.144532,0 -0.271485,-0.02 -0.380859,-0.061 -0.108073,-0.04 -0.199219,-0.1002 -0.273437,-0.1797 -0.07422,-0.079 -0.130209,-0.179 -0.167969,-0.2988 -0.03776,-0.1198 -0.05664,-0.2591 -0.05664,-0.4179 0,-0.1511 0.01953,-0.2865 0.05859,-0.4063 0.03906,-0.1211 0.09505,-0.2233 0.167969,-0.3066 0.07422,-0.085 0.163411,-0.1491 0.267578,-0.1934 0.104166,-0.046 0.220702,-0.068 0.349609,-0.068 0.13802,0 0.255207,0.022 0.351563,0.066 0.09765,0.044 0.177732,0.1042 0.240234,0.1797 0.0625,0.074 0.108071,0.1621 0.136719,0.2637 0.02995,0.1003 0.04492,0.2077 0.04492,0.3223 l 0,0.059 m -0.324219,-0.096 c 0.0039,-0.1693 -0.03386,-0.3021 -0.113281,-0.3985 -0.07813,-0.096 -0.194663,-0.1445 -0.34961,-0.1445 -0.07943,0 -0.149089,0.015 -0.208984,0.045 -0.0599,0.03 -0.110027,0.07 -0.150391,0.1192 -0.04037,0.049 -0.07162,0.1074 -0.09375,0.1738 -0.02214,0.065 -0.03451,0.1335 -0.03711,0.2051 l 0.953125,0"
         style=""
         id="path2924" />
      <path
         d="m 35.234374,1035.7587 c -2e-6,0.022 -6.53e-4,0.042 -0.002,0.059 -0.0013,0.016 -0.0039,0.029 -0.0078,0.041 -0.0026,0.01 -0.0065,0.02 -0.01172,0.029 -0.0039,0.01 -0.01432,0.02 -0.03125,0.037 -0.01563,0.016 -0.04297,0.036 -0.08203,0.061 -0.03906,0.024 -0.08333,0.045 -0.132812,0.064 -0.04818,0.018 -0.100913,0.033 -0.158203,0.045 -0.05729,0.012 -0.116538,0.018 -0.177735,0.018 -0.126302,0 -0.238282,-0.021 -0.335937,-0.062 -0.09766,-0.042 -0.179688,-0.1022 -0.246094,-0.1817 -0.0651,-0.081 -0.115234,-0.179 -0.15039,-0.2949 -0.03386,-0.1172 -0.05078,-0.2519 -0.05078,-0.4043 0,-0.1732 0.02083,-0.3216 0.0625,-0.4453 0.04297,-0.125 0.100911,-0.2272 0.173828,-0.3066 0.07422,-0.08 0.160807,-0.138 0.259766,-0.1758 0.10026,-0.039 0.208332,-0.059 0.324219,-0.059 0.05599,0 0.110025,0.01 0.162109,0.016 0.05338,0.01 0.102212,0.024 0.146485,0.041 0.04427,0.017 0.08333,0.036 0.117187,0.059 0.03515,0.022 0.06054,0.041 0.07617,0.057 0.01562,0.016 0.02604,0.028 0.03125,0.037 0.0065,0.01 0.01172,0.02 0.01563,0.033 0.0039,0.012 0.0065,0.025 0.0078,0.041 0.0013,0.016 0.002,0.035 0.002,0.059 -2e-6,0.051 -0.0059,0.087 -0.01758,0.1074 -0.01172,0.02 -0.02604,0.029 -0.04297,0.029 -0.01953,0 -0.04232,-0.01 -0.06836,-0.031 -0.02474,-0.022 -0.05664,-0.046 -0.0957,-0.072 -0.03906,-0.026 -0.08659,-0.049 -0.142578,-0.07 -0.05469,-0.022 -0.119793,-0.033 -0.195312,-0.033 -0.154949,0 -0.27409,0.06 -0.357422,0.1797 -0.08203,0.1185 -0.123048,0.291 -0.123047,0.5175 -1e-6,0.1133 0.01042,0.2129 0.03125,0.2989 0.02213,0.085 0.05404,0.1556 0.0957,0.2129 0.04167,0.057 0.09245,0.1002 0.152344,0.1289 0.0612,0.027 0.130858,0.041 0.208984,0.041 0.07422,0 0.139322,-0.012 0.195313,-0.035 0.05599,-0.023 0.104165,-0.049 0.144531,-0.076 0.04166,-0.029 0.07617,-0.054 0.103515,-0.076 0.02864,-0.024 0.05078,-0.035 0.06641,-0.035 0.0091,0 0.01693,0 0.02344,0.01 0.0065,0.01 0.01172,0.014 0.01563,0.027 0.0052,0.012 0.0085,0.027 0.0098,0.047 0.0026,0.018 0.0039,0.04 0.0039,0.066"
         style=""
         id="path2926" />
      <path
         d="m 36.45703,1035.0887 c -1e-6,0.051 -0.0059,0.086 -0.01758,0.1055 -0.01172,0.02 -0.02865,0.029 -0.05078,0.029 l -0.816406,0 c -0.02344,0 -0.04102,-0.01 -0.05273,-0.029 -0.01172,-0.021 -0.01758,-0.056 -0.01758,-0.1055 0,-0.049 0.0059,-0.084 0.01758,-0.1035 0.01172,-0.02 0.0293,-0.029 0.05273,-0.029 l 0.816406,0 c 0.01042,0 0.01953,0 0.02734,0.01 0.0091,0 0.01628,0.012 0.02148,0.023 0.0065,0.01 0.01107,0.024 0.01367,0.041 0.0039,0.017 0.0059,0.038 0.0059,0.062"
         style=""
         id="path2928" />
    </g>
    <text
       id="text2857"
       y="1040.0751"
       x="13.914062"
       style="font-size:4px;font-style:normal;font-variant:normal;font-weight:normal;font-stretch:normal;fill:#000000;fill-opacity:1;stroke:none;font-family:Calibri;-inkscape-font-specification:Calibri"
       xml:space="preserve"><tspan
         y="1040.0751"
         x="13.914062"
         sodipodi:role="line"
         id="tspan2859" /></text>
    <g
       style="font-size:4px;font-style:normal;font-variant:normal;font-weight:normal;font-stretch:normal;fill:#88a4b4;fill-opacity:1;stroke:none;font-family:Calibri;-inkscape-font-specification:Calibri"
       id="text2863">
      <path
         d="m 15.126952,1039.8973 c -10e-7,0.038 -0.0026,0.068 -0.0078,0.09 -0.0052,0.022 -0.01302,0.038 -0.02344,0.049 -0.01042,0.01 -0.02604,0.02 -0.04687,0.029 -0.02083,0.01 -0.04492,0.016 -0.07226,0.022 -0.02604,0.01 -0.05404,0.012 -0.08399,0.016 -0.02995,0 -0.0599,0.01 -0.08984,0.01 -0.09115,0 -0.169271,-0.012 -0.234375,-0.035 -0.0651,-0.025 -0.11849,-0.061 -0.160156,-0.1094 -0.04167,-0.049 -0.07227,-0.1113 -0.0918,-0.1855 -0.01823,-0.075 -0.02734,-0.1641 -0.02734,-0.2656 l 0,-1.0274 -0.246094,0 c -0.01953,0 -0.03516,-0.01 -0.04687,-0.031 -0.01172,-0.021 -0.01758,-0.055 -0.01758,-0.1016 0,-0.025 0.0013,-0.046 0.0039,-0.062 0.0039,-0.017 0.0085,-0.031 0.01367,-0.041 0.0052,-0.012 0.01172,-0.02 0.01953,-0.023 0.0091,-0.01 0.01888,-0.01 0.0293,-0.01 l 0.244141,0 0,-0.418 c -10e-7,-0.01 0.002,-0.018 0.0059,-0.025 0.0052,-0.01 0.01367,-0.014 0.02539,-0.02 0.01302,-0.01 0.02995,-0.011 0.05078,-0.014 0.02083,-0 0.04687,-0 0.07813,-0 0.03255,0 0.05924,0 0.08008,0 0.02083,0 0.03711,0.01 0.04883,0.014 0.01172,0.01 0.02018,0.012 0.02539,0.02 0.0052,0.01 0.0078,0.016 0.0078,0.025 l 0,0.418 0.451172,0 c 0.01042,0 0.01953,0 0.02734,0.01 0.0078,0 0.01432,0.012 0.01953,0.023 0.0065,0.01 0.01107,0.024 0.01367,0.041 0.0026,0.017 0.0039,0.038 0.0039,0.062 -10e-7,0.047 -0.0059,0.081 -0.01758,0.1016 -0.01172,0.021 -0.02735,0.031 -0.04687,0.031 l -0.451172,0 0,0.9805 c -10e-7,0.1211 0.01758,0.2129 0.05274,0.2754 0.03646,0.061 0.10091,0.092 0.193359,0.092 0.02995,0 0.05664,-0 0.08008,-0.01 0.02344,-0.01 0.04427,-0.013 0.0625,-0.02 0.01823,-0.01 0.03385,-0.012 0.04687,-0.017 0.01302,-0.01 0.02474,-0.01 0.03516,-0.01 0.0065,0 0.01237,0 0.01758,0.01 0.0065,0 0.01107,0.01 0.01367,0.017 0.0039,0.01 0.0072,0.022 0.0098,0.037 0.0026,0.016 0.0039,0.035 0.0039,0.059"
         style=""
         id="path2931" />
      <path
         d="m 17.017577,1039.0712 c -2e-6,0.051 -0.01302,0.087 -0.03906,0.1093 -0.02474,0.021 -0.05339,0.031 -0.08594,0.031 l -1.152344,0 c 0,0.098 0.0098,0.1855 0.0293,0.2637 0.01953,0.078 0.05208,0.1451 0.09766,0.2011 0.04557,0.056 0.104817,0.099 0.177734,0.1289 0.07292,0.03 0.162108,0.045 0.267578,0.045 0.08333,0 0.157551,-0.01 0.222656,-0.02 0.0651,-0.014 0.121093,-0.03 0.167969,-0.047 0.04818,-0.017 0.08724,-0.032 0.117188,-0.045 0.03125,-0.014 0.05468,-0.021 0.07031,-0.021 0.0091,0 0.01693,0 0.02344,0.01 0.0078,0 0.01367,0.01 0.01758,0.019 0.0039,0.01 0.0065,0.022 0.0078,0.039 0.0026,0.016 0.0039,0.035 0.0039,0.059 -1e-6,0.017 -6.52e-4,0.032 -0.002,0.045 -0.0013,0.012 -0.0033,0.023 -0.0059,0.033 -0.0013,0.01 -0.0046,0.018 -0.0098,0.025 -0.0039,0.01 -0.0098,0.016 -0.01758,0.023 -0.0065,0.01 -0.02735,0.018 -0.0625,0.035 -0.03516,0.016 -0.08073,0.031 -0.136719,0.047 -0.05599,0.016 -0.121095,0.029 -0.195312,0.041 -0.07292,0.013 -0.151043,0.02 -0.234375,0.02 -0.144532,0 -0.271485,-0.02 -0.380859,-0.061 -0.108074,-0.04 -0.19922,-0.1002 -0.273438,-0.1797 -0.07422,-0.079 -0.130209,-0.179 -0.167969,-0.2988 -0.03776,-0.1198 -0.05664,-0.2591 -0.05664,-0.4179 -10e-7,-0.1511 0.01953,-0.2865 0.05859,-0.4063 0.03906,-0.1211 0.09505,-0.2233 0.167969,-0.3066 0.07422,-0.085 0.163411,-0.1491 0.267578,-0.1934 0.104166,-0.046 0.220703,-0.068 0.34961,-0.068 0.138019,0 0.255207,0.022 0.351562,0.066 0.09765,0.044 0.177733,0.1042 0.240235,0.1797 0.0625,0.074 0.108071,0.1621 0.136718,0.2637 0.02995,0.1003 0.04492,0.2077 0.04492,0.3223 l 0,0.059 m -0.324219,-0.096 c 0.0039,-0.1693 -0.03385,-0.3021 -0.113281,-0.3985 -0.07813,-0.096 -0.194662,-0.1445 -0.349609,-0.1445 -0.07943,0 -0.14909,0.015 -0.208985,0.045 -0.0599,0.03 -0.110026,0.07 -0.15039,0.1192 -0.04036,0.049 -0.07161,0.1074 -0.09375,0.1738 -0.02214,0.065 -0.03451,0.1335 -0.03711,0.2051 l 0.953125,0"
         style=""
         id="path2933" />
      <path
         d="m 18.40039,1039.8973 c -2e-6,0.038 -0.0026,0.068 -0.0078,0.09 -0.0052,0.022 -0.01302,0.038 -0.02344,0.049 -0.01042,0.01 -0.02604,0.02 -0.04687,0.029 -0.02084,0.01 -0.04492,0.016 -0.07227,0.022 -0.02604,0.01 -0.05404,0.012 -0.08398,0.016 -0.02995,0 -0.0599,0.01 -0.08984,0.01 -0.09115,0 -0.169272,-0.012 -0.234375,-0.035 -0.0651,-0.025 -0.11849,-0.061 -0.160156,-0.1094 -0.04167,-0.049 -0.07227,-0.1113 -0.0918,-0.1855 -0.01823,-0.075 -0.02734,-0.1641 -0.02734,-0.2656 l 0,-1.0274 -0.246094,0 c -0.01953,0 -0.03516,-0.01 -0.04687,-0.031 -0.01172,-0.021 -0.01758,-0.055 -0.01758,-0.1016 0,-0.025 0.0013,-0.046 0.0039,-0.062 0.0039,-0.017 0.0085,-0.031 0.01367,-0.041 0.0052,-0.012 0.01172,-0.02 0.01953,-0.023 0.0091,-0.01 0.01888,-0.01 0.0293,-0.01 l 0.244141,0 0,-0.418 c 0,-0.01 0.002,-0.018 0.0059,-0.025 0.0052,-0.01 0.01367,-0.014 0.02539,-0.02 0.01302,-0.01 0.02995,-0.011 0.05078,-0.014 0.02083,-0 0.04687,-0 0.07813,-0 0.03255,0 0.05924,0 0.08008,0 0.02083,0 0.03711,0.01 0.04883,0.014 0.01172,0.01 0.02018,0.012 0.02539,0.02 0.0052,0.01 0.0078,0.016 0.0078,0.025 l 0,0.418 0.451172,0 c 0.01041,0 0.01953,0 0.02734,0.01 0.0078,0 0.01432,0.012 0.01953,0.023 0.0065,0.01 0.01107,0.024 0.01367,0.041 0.0026,0.017 0.0039,0.038 0.0039,0.062 -2e-6,0.047 -0.0059,0.081 -0.01758,0.1016 -0.01172,0.021 -0.02735,0.031 -0.04687,0.031 l -0.451172,0 0,0.9805 c -1e-6,0.1211 0.01758,0.2129 0.05273,0.2754 0.03646,0.061 0.100911,0.092 0.193359,0.092 0.02995,0 0.05664,-0 0.08008,-0.01 0.02344,-0.01 0.04427,-0.013 0.0625,-0.02 0.01823,-0.01 0.03385,-0.012 0.04687,-0.017 0.01302,-0.01 0.02474,-0.01 0.03516,-0.01 0.0065,0 0.01237,0 0.01758,0.01 0.0065,0 0.01107,0.01 0.01367,0.017 0.0039,0.01 0.0072,0.022 0.0098,0.037 0.0026,0.016 0.0039,0.035 0.0039,0.059"
         style=""
         id="path2935" />
      <path
         d="m 20.335937,1040.0262 c -2e-6,0.011 -0.0026,0.02 -0.0078,0.027 -0.0039,0.01 -0.01172,0.012 -0.02344,0.018 -0.01172,0.01 -0.02735,0.01 -0.04687,0.012 -0.01823,0 -0.04102,0 -0.06836,0 -0.02995,0 -0.05469,-0 -0.07422,-0 -0.01823,-0 -0.0332,-0.01 -0.04492,-0.012 -0.01042,-0.01 -0.01758,-0.011 -0.02149,-0.018 -0.0039,-0.01 -0.0059,-0.017 -0.0059,-0.027 l 0,-0.2324 c -0.100262,0.1107 -0.19922,0.1914 -0.296875,0.2422 -0.09766,0.051 -0.196616,0.076 -0.296875,0.076 -0.117189,0 -0.216147,-0.02 -0.296875,-0.059 -0.07943,-0.039 -0.143881,-0.092 -0.19336,-0.1582 -0.04948,-0.068 -0.08529,-0.1458 -0.107421,-0.2344 -0.02083,-0.09 -0.03125,-0.1986 -0.03125,-0.3262 l 0,-1.0664 c -1e-6,-0.01 0.002,-0.019 0.0059,-0.025 0.0052,-0.01 0.01432,-0.014 0.02734,-0.019 0.01302,-0.01 0.02995,-0.01 0.05078,-0.012 0.02083,-0 0.04687,-0 0.07813,-0 0.03125,0 0.05729,0 0.07813,0 0.02083,0 0.03711,0.01 0.04883,0.012 0.01302,0.01 0.02214,0.012 0.02734,0.019 0.0052,0.01 0.0078,0.015 0.0078,0.025 l 0,1.0235 c 0,0.1028 0.0072,0.1855 0.02149,0.248 0.01562,0.061 0.03841,0.1139 0.06836,0.1582 0.03125,0.043 0.07031,0.077 0.117188,0.1016 0.04687,0.023 0.101561,0.035 0.164062,0.035 0.08073,0 0.160806,-0.029 0.240234,-0.086 0.08073,-0.057 0.166015,-0.1413 0.25586,-0.252 l 0,-1.2285 c -2e-6,-0.01 0.002,-0.019 0.0059,-0.025 0.0052,-0.01 0.01432,-0.014 0.02734,-0.019 0.01302,-0.01 0.0293,-0.01 0.04883,-0.012 0.02083,-0 0.04752,-0 0.08008,-0 0.03125,0 0.05729,0 0.07813,0 0.02083,0 0.03711,0.01 0.04883,0.012 0.01172,0.01 0.02018,0.012 0.02539,0.019 0.0065,0.01 0.0098,0.015 0.0098,0.025 l 0,1.7578"
         style=""
         id="path2937" />
      <path
         d="m 21.958983,1038.3837 c -1e-6,0.029 -6.52e-4,0.053 -0.002,0.072 -0.0013,0.02 -0.0039,0.035 -0.0078,0.047 -0.0039,0.01 -0.0091,0.019 -0.01563,0.025 -0.0052,0.01 -0.01302,0.01 -0.02344,0.01 -0.01042,0 -0.02344,-0 -0.03906,-0.01 -0.01432,-0.01 -0.03125,-0.012 -0.05078,-0.018 -0.01823,-0.01 -0.03906,-0.012 -0.0625,-0.018 -0.02344,-0.01 -0.04883,-0.01 -0.07617,-0.01 -0.03255,0 -0.06445,0.01 -0.0957,0.02 -0.03125,0.013 -0.06445,0.034 -0.09961,0.064 -0.03385,0.03 -0.06966,0.07 -0.107422,0.1192 -0.03776,0.049 -0.07943,0.11 -0.125,0.1816 l 0,1.1562 c 0,0.011 -0.0026,0.02 -0.0078,0.027 -0.0052,0.01 -0.01367,0.012 -0.02539,0.018 -0.01172,0.01 -0.028,0.01 -0.04883,0.012 -0.02083,0 -0.04753,0 -0.08008,0 -0.03125,0 -0.05729,-0 -0.07813,-0 -0.02083,-0 -0.03776,-0.01 -0.05078,-0.012 -0.01172,-0.01 -0.02018,-0.011 -0.02539,-0.018 -0.0039,-0.01 -0.0059,-0.017 -0.0059,-0.027 l 0,-1.7578 c -1e-6,-0.01 0.002,-0.019 0.0059,-0.025 0.0039,-0.01 0.01172,-0.014 0.02344,-0.019 0.01172,-0.01 0.02669,-0.01 0.04492,-0.012 0.01823,-0 0.04232,-0 0.07227,-0 0.02865,0 0.05208,0 0.07031,0 0.01953,0 0.0345,0.01 0.04492,0.012 0.01042,0.01 0.01758,0.012 0.02148,0.019 0.0052,0.01 0.0078,0.015 0.0078,0.025 l 0,0.2559 c 0.04818,-0.07 0.0931,-0.1276 0.134766,-0.1719 0.04297,-0.044 0.08333,-0.079 0.121094,-0.1035 0.03776,-0.026 0.07487,-0.044 0.111328,-0.053 0.03776,-0.01 0.07552,-0.016 0.113281,-0.016 0.01693,0 0.03581,0 0.05664,0 0.02213,0 0.04492,0 0.06836,0.01 0.02344,0.01 0.04427,0.011 0.0625,0.018 0.01953,0.01 0.0332,0.013 0.04102,0.019 0.0078,0.01 0.01302,0.013 0.01563,0.02 0.0026,0.01 0.0046,0.012 0.0059,0.021 0.0026,0.01 0.0039,0.023 0.0039,0.041 0.0013,0.017 0.002,0.04 0.002,0.07"
         style=""
         id="path2939" />
      <path
         d="m 24.736327,1039.0712 c -2e-6,0.051 -0.01302,0.087 -0.03906,0.1093 -0.02474,0.021 -0.05339,0.031 -0.08594,0.031 l -1.152344,0 c 0,0.098 0.0098,0.1855 0.0293,0.2637 0.01953,0.078 0.05208,0.1451 0.09766,0.2011 0.04557,0.056 0.104817,0.099 0.177734,0.1289 0.07292,0.03 0.162108,0.045 0.267578,0.045 0.08333,0 0.157551,-0.01 0.222656,-0.02 0.0651,-0.014 0.121093,-0.03 0.167969,-0.047 0.04818,-0.017 0.08724,-0.032 0.117188,-0.045 0.03125,-0.014 0.05468,-0.021 0.07031,-0.021 0.0091,0 0.01693,0 0.02344,0.01 0.0078,0 0.01367,0.01 0.01758,0.019 0.0039,0.01 0.0065,0.022 0.0078,0.039 0.0026,0.016 0.0039,0.035 0.0039,0.059 -1e-6,0.017 -6.52e-4,0.032 -0.002,0.045 -0.0013,0.012 -0.0033,0.023 -0.0059,0.033 -0.0013,0.01 -0.0046,0.018 -0.0098,0.025 -0.0039,0.01 -0.0098,0.016 -0.01758,0.023 -0.0065,0.01 -0.02735,0.018 -0.0625,0.035 -0.03516,0.016 -0.08073,0.031 -0.136719,0.047 -0.05599,0.016 -0.121095,0.029 -0.195312,0.041 -0.07292,0.013 -0.151043,0.02 -0.234375,0.02 -0.144532,0 -0.271485,-0.02 -0.380859,-0.061 -0.108074,-0.04 -0.19922,-0.1002 -0.273438,-0.1797 -0.07422,-0.079 -0.130209,-0.179 -0.167969,-0.2988 -0.03776,-0.1198 -0.05664,-0.2591 -0.05664,-0.4179 -1e-6,-0.1511 0.01953,-0.2865 0.05859,-0.4063 0.03906,-0.1211 0.09505,-0.2233 0.167969,-0.3066 0.07422,-0.085 0.163411,-0.1491 0.267578,-0.1934 0.104166,-0.046 0.220703,-0.068 0.34961,-0.068 0.138019,0 0.255207,0.022 0.351562,0.066 0.09765,0.044 0.177733,0.1042 0.240235,0.1797 0.0625,0.074 0.108071,0.1621 0.136718,0.2637 0.02995,0.1003 0.04492,0.2077 0.04492,0.3223 l 0,0.059 m -0.324219,-0.096 c 0.0039,-0.1693 -0.03385,-0.3021 -0.113281,-0.3985 -0.07813,-0.096 -0.194662,-0.1445 -0.349609,-0.1445 -0.07943,0 -0.14909,0.015 -0.208985,0.045 -0.0599,0.03 -0.110026,0.07 -0.15039,0.1192 -0.04036,0.049 -0.07161,0.1074 -0.09375,0.1738 -0.02214,0.065 -0.03451,0.1335 -0.03711,0.2051 l 0.953125,0"
         style=""
         id="path2941" />
      <path
         d="m 25.55078,1040.0262 c 0,0.011 -0.0026,0.02 -0.0078,0.027 -0.0052,0.01 -0.01367,0.012 -0.02539,0.018 -0.01172,0.01 -0.028,0.01 -0.04883,0.012 -0.02083,0 -0.04753,0 -0.08008,0 -0.03125,0 -0.05729,-0 -0.07813,-0 -0.02083,-0 -0.03776,-0.01 -0.05078,-0.012 -0.01172,-0.01 -0.02018,-0.011 -0.02539,-0.018 -0.0039,-0.01 -0.0059,-0.017 -0.0059,-0.027 l 0,-2.6093 c -1e-6,-0.01 0.002,-0.02 0.0059,-0.027 0.0052,-0.01 0.01367,-0.014 0.02539,-0.02 0.01302,-0.01 0.02995,-0.01 0.05078,-0.012 0.02083,-0 0.04687,-0 0.07813,-0 0.03255,0 0.05924,0 0.08008,0 0.02083,0 0.03711,0.01 0.04883,0.012 0.01172,0.01 0.02018,0.012 0.02539,0.02 0.0052,0.01 0.0078,0.017 0.0078,0.027 l 0,2.6093"
         style=""
         id="path2943" />
      <path
         d="m 26.472655,1040.0262 c 0,0.011 -0.0026,0.02 -0.0078,0.027 -0.0052,0.01 -0.01367,0.012 -0.02539,0.018 -0.01172,0.01 -0.028,0.01 -0.04883,0.012 -0.02083,0 -0.04753,0 -0.08008,0 -0.03125,0 -0.05729,-0 -0.07813,-0 -0.02083,-0 -0.03776,-0.01 -0.05078,-0.012 -0.01172,-0.01 -0.02018,-0.011 -0.02539,-0.018 -0.0039,-0.01 -0.0059,-0.017 -0.0059,-0.027 l 0,-1.7578 c -1e-6,-0.01 0.002,-0.017 0.0059,-0.025 0.0052,-0.01 0.01367,-0.014 0.02539,-0.019 0.01302,-0.01 0.02995,-0.01 0.05078,-0.012 0.02083,-0 0.04687,-0 0.07813,-0 0.03255,0 0.05924,0 0.08008,0 0.02083,0 0.03711,0.01 0.04883,0.012 0.01172,0.01 0.02018,0.012 0.02539,0.019 0.0052,0.01 0.0078,0.016 0.0078,0.025 l 0,1.7578 m 0.03711,-2.3515 c -1e-6,0.075 -0.01432,0.1269 -0.04297,0.1543 -0.02865,0.027 -0.08138,0.041 -0.158203,0.041 -0.07552,0 -0.127605,-0.013 -0.15625,-0.039 -0.02734,-0.027 -0.04102,-0.078 -0.04102,-0.1523 0,-0.075 0.01432,-0.127 0.04297,-0.1543 0.02865,-0.027 0.08138,-0.041 0.158203,-0.041 0.07552,0 0.126953,0.014 0.154297,0.041 0.02865,0.026 0.04297,0.076 0.04297,0.1504"
         style=""
         id="path2945" />
      <path
         d="m 27.986327,1039.8973 c -1e-6,0.038 -0.0026,0.068 -0.0078,0.09 -0.0052,0.022 -0.01302,0.038 -0.02344,0.049 -0.01042,0.01 -0.02604,0.02 -0.04687,0.029 -0.02083,0.01 -0.04492,0.016 -0.07226,0.022 -0.02604,0.01 -0.05404,0.012 -0.08399,0.016 -0.02995,0 -0.0599,0.01 -0.08984,0.01 -0.09115,0 -0.169271,-0.012 -0.234375,-0.035 -0.0651,-0.025 -0.11849,-0.061 -0.160156,-0.1094 -0.04167,-0.049 -0.07227,-0.1113 -0.0918,-0.1855 -0.01823,-0.075 -0.02734,-0.1641 -0.02734,-0.2656 l 0,-1.0274 -0.246094,0 c -0.01953,0 -0.03516,-0.01 -0.04687,-0.031 -0.01172,-0.021 -0.01758,-0.055 -0.01758,-0.1016 0,-0.025 0.0013,-0.046 0.0039,-0.062 0.0039,-0.017 0.0085,-0.031 0.01367,-0.041 0.0052,-0.012 0.01172,-0.02 0.01953,-0.023 0.0091,-0.01 0.01888,-0.01 0.0293,-0.01 l 0.244141,0 0,-0.418 c -1e-6,-0.01 0.002,-0.018 0.0059,-0.025 0.0052,-0.01 0.01367,-0.014 0.02539,-0.02 0.01302,-0.01 0.02995,-0.011 0.05078,-0.014 0.02083,-0 0.04687,-0 0.07813,-0 0.03255,0 0.05924,0 0.08008,0 0.02083,0 0.03711,0.01 0.04883,0.014 0.01172,0.01 0.02018,0.012 0.02539,0.02 0.0052,0.01 0.0078,0.016 0.0078,0.025 l 0,0.418 0.451172,0 c 0.01042,0 0.01953,0 0.02734,0.01 0.0078,0 0.01432,0.012 0.01953,0.023 0.0065,0.01 0.01107,0.024 0.01367,0.041 0.0026,0.017 0.0039,0.038 0.0039,0.062 -1e-6,0.047 -0.0059,0.081 -0.01758,0.1016 -0.01172,0.021 -0.02735,0.031 -0.04687,0.031 l -0.451172,0 0,0.9805 c -1e-6,0.1211 0.01758,0.2129 0.05274,0.2754 0.03646,0.061 0.10091,0.092 0.193359,0.092 0.02995,0 0.05664,-0 0.08008,-0.01 0.02344,-0.01 0.04427,-0.013 0.0625,-0.02 0.01823,-0.01 0.03385,-0.012 0.04687,-0.017 0.01302,-0.01 0.02474,-0.01 0.03516,-0.01 0.0065,0 0.01237,0 0.01758,0.01 0.0065,0 0.01107,0.01 0.01367,0.017 0.0039,0.01 0.0072,0.022 0.0098,0.037 0.0026,0.016 0.0039,0.035 0.0039,0.059"
         style=""
         id="path2947" />
      <path
         d="m 29.73828,1039.8622 c 0,0.092 -0.01563,0.1543 -0.04687,0.1855 -0.02995,0.03 -0.08529,0.045 -0.166015,0.045 -0.07813,0 -0.132162,-0.015 -0.16211,-0.045 -0.02995,-0.03 -0.04492,-0.09 -0.04492,-0.1797 0,-0.092 0.01497,-0.1536 0.04492,-0.1836 0.03125,-0.031 0.08724,-0.047 0.167969,-0.047 0.07812,0 0.132161,0.015 0.162109,0.045 0.02995,0.03 0.04492,0.09 0.04492,0.1797"
         style=""
         id="path2949" />
      <path
         d="m 30.746093,1039.8622 c -10e-7,0.092 -0.01563,0.1543 -0.04687,0.1855 -0.02995,0.03 -0.08529,0.045 -0.166016,0.045 -0.07813,0 -0.132162,-0.015 -0.162109,-0.045 -0.02995,-0.03 -0.04492,-0.09 -0.04492,-0.1797 0,-0.092 0.01497,-0.1536 0.04492,-0.1836 0.03125,-0.031 0.08724,-0.047 0.167969,-0.047 0.07812,0 0.13216,0.015 0.162109,0.045 0.02995,0.03 0.04492,0.09 0.04492,0.1797"
         style=""
         id="path2951" />
      <path
         d="m 31.753905,1039.8622 c 0,0.092 -0.01563,0.1543 -0.04687,0.1855 -0.02995,0.03 -0.08529,0.045 -0.166015,0.045 -0.07813,0 -0.132162,-0.015 -0.16211,-0.045 -0.02995,-0.03 -0.04492,-0.09 -0.04492,-0.1797 0,-0.092 0.01497,-0.1536 0.04492,-0.1836 0.03125,-0.031 0.08724,-0.047 0.167969,-0.047 0.07812,0 0.132161,0.015 0.162109,0.045 0.02995,0.03 0.04492,0.09 0.04492,0.1797"
         style=""
         id="path2953" />
    </g>
  </g>
</svg>
