<?xml version="1.0" encoding="UTF-8" standalone="no"?>
<!-- Created with Inkscape (http://www.inkscape.org/) -->

<svg
   xmlns:dc="http://purl.org/dc/elements/1.1/"
   xmlns:cc="http://creativecommons.org/ns#"
   xmlns:rdf="http://www.w3.org/1999/02/22-rdf-syntax-ns#"
   xmlns:svg="http://www.w3.org/2000/svg"
   xmlns="http://www.w3.org/2000/svg"
   xmlns:xlink="http://www.w3.org/1999/xlink"
   xmlns:sodipodi="http://sodipodi.sourceforge.net/DTD/sodipodi-0.dtd"
   xmlns:inkscape="http://www.inkscape.org/namespaces/inkscape"
   width="48"
   height="48"
   id="svg2"
   version="1.1"
   inkscape:version="0.47pre4 r22446"
   sodipodi:docname="evolution-calendar.svg"
   inkscape:export-filename="/home/andrea/.icons/MeliaeSVG/48/apps/png/evolution-calendar.png"
   inkscape:export-xdpi="240"
   inkscape:export-ydpi="240">
  <defs
     id="defs4">
    <linearGradient
       id="linearGradient3678">
      <stop
         style="stop-color:#de220c;stop-opacity:1;"
         offset="0"
         id="stop3680" />
      <stop
         style="stop-color:#700000;stop-opacity:1;"
         offset="1"
         id="stop3682" />
    </linearGradient>
    <linearGradient
       id="linearGradient3952">
      <stop
         style="stop-color:#141414;stop-opacity:1;"
         offset="0"
         id="stop3954" />
      <stop
         style="stop-color:#f0f0f0;stop-opacity:0.39215687;"
         offset="1"
         id="stop3956" />
    </linearGradient>
    <linearGradient
       id="linearGradient3866">
      <stop
         style="stop-color:#000000;stop-opacity:1;"
         offset="0"
         id="stop3868" />
      <stop
         style="stop-color:#c8c8c8;stop-opacity:0.39215687"
         offset="1"
         id="stop3870" />
    </linearGradient>
    <linearGradient
       id="linearGradient3852">
      <stop
         style="stop-color:#ffffff;stop-opacity:1;"
         offset="0"
         id="stop3854" />
      <stop
         style="stop-color:#ffffff;stop-opacity:0;"
         offset="1"
         id="stop3856" />
    </linearGradient>
    <linearGradient
       id="linearGradient3823">
      <stop
         style="stop-color:#c8c8c8;stop-opacity:1;"
         offset="0"
         id="stop3825" />
      <stop
         style="stop-color:#f0f0f0;stop-opacity:1;"
         offset="1"
         id="stop3827" />
    </linearGradient>
    <linearGradient
       id="linearGradient3805">
      <stop
         style="stop-color:#f0f0f0;stop-opacity:1;"
         offset="0"
         id="stop3807" />
      <stop
         id="stop3815"
         offset="0.81645572"
         style="stop-color:#969696;stop-opacity:1;" />
      <stop
         style="stop-color:#b4b4b4;stop-opacity:1;"
         offset="1"
         id="stop3809" />
    </linearGradient>
    <inkscape:perspective
       sodipodi:type="inkscape:persp3d"
       inkscape:vp_x="0 : 526.18109 : 1"
       inkscape:vp_y="0 : 1000 : 0"
       inkscape:vp_z="744.09448 : 526.18109 : 1"
       inkscape:persp3d-origin="372.04724 : 350.78739 : 1"
       id="perspective10" />
    <inkscape:perspective
       id="perspective2884"
       inkscape:persp3d-origin="0.5 : 0.33333333 : 1"
       inkscape:vp_z="1 : 0.5 : 1"
       inkscape:vp_y="0 : 1000 : 0"
       inkscape:vp_x="0 : 0.5 : 1"
       sodipodi:type="inkscape:persp3d" />
    <radialGradient
       spreadMethod="reflect"
       gradientTransform="matrix(1.4549755,-2.6431351e-8,4.9999995e-8,2.2746832,13.630343,-6.8389883)"
       gradientUnits="userSpaceOnUse"
       xlink:href="#linearGradient3520"
       id="radialGradient3562"
       fy="4.9179006"
       fx="14"
       r="2"
       cy="4.9179006"
       cx="14" />
    <linearGradient
       id="linearGradient3520">
      <stop
         offset="0"
         style="stop-color:#f2f2f2;stop-opacity:1"
         id="stop3522" />
      <stop
         offset="1"
         style="stop-color:#999;stop-opacity:1"
         id="stop3524" />
    </linearGradient>
    <radialGradient
       spreadMethod="reflect"
       gradientTransform="matrix(1.4549755,-2.6431351e-8,4.9999995e-8,2.2746832,-6.3696571,-6.8389883)"
       gradientUnits="userSpaceOnUse"
       xlink:href="#linearGradient3520"
       id="radialGradient3560"
       fy="4.9179006"
       fx="14"
       r="2"
       cy="4.9179006"
       cx="14" />
    <linearGradient
       gradientTransform="matrix(1,0,0,0.75,0,4)"
       gradientUnits="userSpaceOnUse"
       xlink:href="#linearGradient3510"
       id="linearGradient2448"
       y2="20.000023"
       x2="23.414803"
       y1="16"
       x1="23.414803" />
    <linearGradient
       id="linearGradient3510">
      <stop
         offset="0"
         style="stop-color:black;stop-opacity:1"
         id="stop3512" />
      <stop
         offset="1"
         style="stop-color:black;stop-opacity:0"
         id="stop3514" />
    </linearGradient>
    <linearGradient
       gradientTransform="translate(9.5367432e-6,0.9674388)"
       gradientUnits="userSpaceOnUse"
       xlink:href="#linearGradient3308-4-6"
       id="linearGradient2452"
       y2="43"
       x2="23.99999"
       y1="4.999989"
       x1="23.99999" />
    <linearGradient
       id="linearGradient3308-4-6">
      <stop
         offset="0"
         style="stop-color:white;stop-opacity:1"
         id="stop3310-1-4" />
      <stop
         offset="1"
         style="stop-color:white;stop-opacity:0"
         id="stop3312-5-3" />
    </linearGradient>
    <radialGradient
       gradientTransform="matrix(1.5295716e-8,1.1115568,-1.5963079,0,35.052637,0.9315072)"
       gradientUnits="userSpaceOnUse"
       xlink:href="#linearGradient3357"
       id="radialGradient2455"
       fy="11.394437"
       fx="12.063192"
       r="19.99999"
       cy="11.394437"
       cx="12.063192" />
    <linearGradient
       id="linearGradient3357">
      <stop
         offset="0"
         style="stop-color:#f89b7e;stop-opacity:1"
         id="stop3359" />
      <stop
         offset="0.39678687"
         style="stop-color:#e35d4f;stop-opacity:1"
         id="stop3361" />
      <stop
         offset="1"
         style="stop-color:#c6262e;stop-opacity:1"
         id="stop3363" />
    </linearGradient>
    <linearGradient
       gradientTransform="translate(0,0.9674388)"
       gradientUnits="userSpaceOnUse"
       xlink:href="#linearGradient2490"
       id="linearGradient2457"
       y2="3.8990016"
       x2="24"
       y1="44"
       x1="24" />
    <linearGradient
       id="linearGradient2490">
      <stop
         offset="0"
         style="stop-color:#791235;stop-opacity:1"
         id="stop2492" />
      <stop
         offset="1"
         style="stop-color:#dd3b27;stop-opacity:1"
         id="stop2494" />
    </linearGradient>
    <linearGradient
       gradientUnits="userSpaceOnUse"
       xlink:href="#linearGradient3600"
       id="linearGradient2460"
       y2="44.98436"
       x2="19.360001"
       y1="16.137854"
       x1="19.360001" />
    <linearGradient
       id="linearGradient3600">
      <stop
         offset="0"
         style="stop-color:#f4f4f4;stop-opacity:1"
         id="stop3602" />
      <stop
         offset="1"
         style="stop-color:#dbdbdb;stop-opacity:1"
         id="stop3604" />
    </linearGradient>
    <linearGradient
       gradientTransform="translate(0,0.9674388)"
       gradientUnits="userSpaceOnUse"
       xlink:href="#linearGradient3104"
       id="linearGradient2462"
       y2="3.8904724"
       x2="24"
       y1="44"
       x1="24" />
    <linearGradient
       id="linearGradient3104">
      <stop
         offset="0"
         style="stop-color:#787878;stop-opacity:1"
         id="stop3106" />
      <stop
         offset="1"
         style="stop-color:#aaa;stop-opacity:1"
         id="stop3108" />
    </linearGradient>
    <radialGradient
       gradientTransform="matrix(2.003784,0,0,1.4,27.98813,-17.4)"
       gradientUnits="userSpaceOnUse"
       xlink:href="#linearGradient3688"
       id="radialGradient2873"
       fy="43.5"
       fx="4.9929786"
       r="2.5"
       cy="43.5"
       cx="4.9929786" />
    <linearGradient
       id="linearGradient3688">
      <stop
         offset="0"
         style="stop-color:black;stop-opacity:1"
         id="stop3690" />
      <stop
         offset="1"
         style="stop-color:black;stop-opacity:0"
         id="stop3692" />
    </linearGradient>
    <radialGradient
       gradientTransform="matrix(2.003784,0,0,1.4,-20.01187,-104.4)"
       gradientUnits="userSpaceOnUse"
       xlink:href="#linearGradient3688"
       id="radialGradient2875"
       fy="43.5"
       fx="4.9929786"
       r="2.5"
       cy="43.5"
       cx="4.9929786" />
    <linearGradient
       gradientUnits="userSpaceOnUse"
       xlink:href="#linearGradient3702"
       id="linearGradient2877"
       y2="39.999443"
       x2="25.058096"
       y1="47.027729"
       x1="25.058096" />
    <linearGradient
       id="linearGradient3702">
      <stop
         offset="0"
         style="stop-color:black;stop-opacity:0"
         id="stop3704" />
      <stop
         offset="0.5"
         style="stop-color:black;stop-opacity:1"
         id="stop3710" />
      <stop
         offset="1"
         style="stop-color:black;stop-opacity:0"
         id="stop3706" />
    </linearGradient>
    <inkscape:perspective
       id="perspective3734"
       inkscape:persp3d-origin="24 : 16 : 1"
       inkscape:vp_z="48 : 24 : 1"
       inkscape:vp_y="0 : 1000 : 0"
       inkscape:vp_x="0 : 24 : 1"
       sodipodi:type="inkscape:persp3d" />
    <filter
       inkscape:collect="always"
       id="filter3878">
      <feGaussianBlur
         inkscape:collect="always"
         stdDeviation="0.19"
         id="feGaussianBlur3880" />
    </filter>
    <radialGradient
       inkscape:collect="always"
       xlink:href="#linearGradient3805"
       id="radialGradient3927"
       gradientUnits="userSpaceOnUse"
       gradientTransform="matrix(2.1160716,0,0,2.25,4.374997,-1263.2027)"
       cx="14"
       cy="1009.7471"
       fx="14"
       fy="1009.7471"
       r="2" />
    <radialGradient
       inkscape:collect="always"
       xlink:href="#linearGradient3805"
       id="radialGradient3931"
       gradientUnits="userSpaceOnUse"
       gradientTransform="matrix(2.1160716,0,0,2.25,-15.625003,-1263.2027)"
       cx="14"
       cy="1009.7471"
       fx="14"
       fy="1009.7471"
       r="2" />
    <linearGradient
       inkscape:collect="always"
       xlink:href="#linearGradient3852"
       id="linearGradient3935"
       gradientUnits="userSpaceOnUse"
       x1="47.82143"
       y1="1039.8622"
       x2="24"
       y2="1045.2194"
       gradientTransform="translate(0,-0.24998262)" />
    <linearGradient
       inkscape:collect="always"
       xlink:href="#linearGradient3823"
       id="linearGradient3941"
       gradientUnits="userSpaceOnUse"
       x1="11.428572"
       y1="1018.9336"
       x2="36.035713"
       y2="1042.3264"
       gradientTransform="translate(0,-0.24998262)" />
    <linearGradient
       inkscape:collect="always"
       xlink:href="#linearGradient3823"
       id="linearGradient3945"
       gradientUnits="userSpaceOnUse"
       x1="15.101525"
       y1="1017.9878"
       x2="36.939083"
       y2="1043.2416"
       gradientTransform="translate(0,-0.24998262)" />
    <linearGradient
       inkscape:collect="always"
       xlink:href="#linearGradient3952"
       id="linearGradient3958"
       x1="17.242857"
       y1="1009.9622"
       x2="28.031799"
       y2="1050.2271"
       gradientUnits="userSpaceOnUse" />
    <filter
       inkscape:collect="always"
       id="filter4010">
      <feGaussianBlur
         inkscape:collect="always"
         stdDeviation="0.4375"
         id="feGaussianBlur4012" />
    </filter>
    <linearGradient
       inkscape:collect="always"
       xlink:href="#linearGradient3952"
       id="linearGradient2919"
       gradientUnits="userSpaceOnUse"
       x1="17.242857"
       y1="1009.9622"
       x2="28.031799"
       y2="1050.2271" />
    <linearGradient
       inkscape:collect="always"
       xlink:href="#linearGradient3678"
       id="linearGradient3684"
       x1="24"
       y1="1022.9693"
       x2="24"
       y2="1011.1122"
       gradientUnits="userSpaceOnUse" />
  </defs>
  <sodipodi:namedview
     id="base"
     pagecolor="#ffffff"
     bordercolor="#666666"
     borderopacity="1.0"
     inkscape:pageopacity="0.0"
     inkscape:pageshadow="2"
     inkscape:zoom="3.959798"
     inkscape:cx="17.776364"
     inkscape:cy="17.416389"
     inkscape:document-units="px"
     inkscape:current-layer="layer1"
     showgrid="false"
     inkscape:window-width="1280"
     inkscape:window-height="714"
     inkscape:window-x="0"
     inkscape:window-y="25"
     inkscape:window-maximized="1" />
  <metadata
     id="metadata7">
    <rdf:RDF>
      <cc:Work
         rdf:about="">
        <dc:format>image/svg+xml</dc:format>
        <dc:type
           rdf:resource="http://purl.org/dc/dcmitype/StillImage" />
        <dc:title />
      </cc:Work>
    </rdf:RDF>
  </metadata>
  <g
     inkscape:label="Livello 1"
     inkscape:groupmode="layer"
     id="layer1"
     transform="translate(0,-1004.3622)">
    <path
       style="fill:#333333;fill-opacity:0.78431373999999998;stroke:none;filter:url(#filter4010)"
       d="M 13.5 1.25 C 12.669 1.25 12 1.919 12 2.75 L 12 4.75 L 5 4.75 C 3.892 4.75 3 5.642 3 6.75 L 3 44.75 C 3 45.858 3.892 46.75 5 46.75 L 43 46.75 C 44.108 46.75 45 45.858 45 44.75 L 45 6.75 C 45 5.642 44.108 4.75 43 4.75 L 36 4.75 L 36 2.75 C 36 1.919 35.331 1.25 34.5 1.25 L 33.5 1.25 C 32.669 1.25 32 1.919 32 2.75 L 32 4.75 L 16 4.75 L 16 2.75 C 16 1.919 15.331 1.25 14.5 1.25 L 13.5 1.25 z "
       transform="translate(0,1004.3622)"
       id="rect4003" />
    <path
       style="fill:#000000;fill-opacity:1;stroke:none"
       d="m 5,1009.1122 38,0 c 1.108,0 2,0.892 2,2 l 0,38 c 0,1.108 -0.892,2 -2,2 l -38,0 c -1.108,0 -2,-0.892 -2,-2 l 0,-38 c 0,-1.108 0.892,-2 2,-2 z"
       id="rect2890" />
    <path
       style="font-size:medium;font-style:normal;font-variant:normal;font-weight:normal;font-stretch:normal;text-indent:0;text-align:start;text-decoration:none;line-height:normal;letter-spacing:normal;word-spacing:normal;text-transform:none;direction:ltr;block-progression:tb;writing-mode:lr-tb;text-anchor:start;color:#000000;fill:url(#linearGradient2919);fill-opacity:1;stroke:none;stroke-width:0.30000001;marker:none;visibility:visible;display:inline;overflow:visible;enable-background:accumulate;font-family:'A.C.M.E. Secret Agent';-inkscape-font-specification:'A.C.M.E. Secret Agent'"
       d="m 5.5,1009.9688 c -0.9115054,0 -1.65625,0.7447 -1.65625,1.6562 l 0,37 c 0,0.9115 0.7447446,1.625 1.65625,1.625 l 37,0 c 0.911505,0 1.65625,-0.7135 1.65625,-1.625 l 0,-37 c 0,-0.9115 -0.744745,-1.6562 -1.65625,-1.6562 l -37,0 z m 0,0.2812 37,0 c 0.750495,0 1.34375,0.6245 1.34375,1.375 l 0,37 c 0,0.7505 -0.593255,1.3438 -1.34375,1.3438 l -37,0 c -0.7504946,0 -1.34375,-0.5933 -1.34375,-1.3438 l 0,-37 c 0,-0.7505 0.5932554,-1.375 1.34375,-1.375 z"
       id="rect3864" />
    <path
       style="fill:#333333;fill-opacity:0.78431373;stroke:none;filter:url(#filter3878)"
       d="m 5,1011.4908 38,0 0,38 -38,0 0,-38 z"
       id="rect3874" />
    <path
       style="fill:url(#linearGradient3945);fill-opacity:1;stroke:none"
       d="m 5,1011.1122 38,0 0,38 -38,0 0,-38 z"
       id="rect3821" />
    <path
       sodipodi:nodetypes="cccc"
       id="path3834"
       d="m 43,1030.1122 c -0.510632,5.334 -0.460781,11.5732 -2.857143,15.9643 -5.083333,2.4296 -11.059524,1.9309 -16.142857,3.0357 l 19,-19 z"
       style="fill:#333333;fill-opacity:0.58823532;stroke:none" />
    <path
       style="fill:url(#linearGradient3941);fill-opacity:1;stroke:none"
       d="m 5,1011.1122 38,0 0,19 c -0.510632,5.334 -1.353638,10.5018 -3.75,14.8929 -5.083333,2.4296 -10.166667,3.0023 -15.25,4.1071 l -19,0 0,-38 z"
       id="rect3831"
       sodipodi:nodetypes="ccccccc" />
    <path
       sodipodi:nodetypes="ccccc"
       id="path3840"
       d="m 5,1011.1122 38,0 0,11.8571 -38,0 0,-11.8571 z"
       style="fill:url(#linearGradient3684);fill-opacity:1;stroke:none" />
    <g
       style="font-size:32px;font-style:normal;font-variant:normal;font-weight:bold;font-stretch:normal;fill:#333333;fill-opacity:1;stroke:#f0f0f0;stroke-width:0.30000001;stroke-miterlimit:4;stroke-opacity:1;font-family:Calibri;-inkscape-font-specification:'A.C.M.E. Secret Agent Bold'"
       id="text3860">
      <path
         d="m 22.664062,1043.8331 c -1.4e-5,0.3021 -0.01564,0.5625 -0.04687,0.7813 -0.02085,0.2083 -0.05731,0.3802 -0.109375,0.5156 -0.0521,0.1354 -0.119806,0.2344 -0.203125,0.2969 -0.08335,0.052 -0.177097,0.078 -0.28125,0.078 l -11.624999,0 c -0.22917,0 -0.4270861,-0.021 -0.5937505,-0.062 -0.1666686,-0.042 -0.3020851,-0.1198 -0.40625,-0.2344 -0.1041682,-0.125 -0.1822932,-0.3021 -0.234375,-0.5312 -0.041668,-0.2292 -0.062501,-0.5261 -0.0625,-0.8906 -1.4e-6,-0.3438 0.015624,-0.6355 0.046875,-0.875 0.031249,-0.25 0.08854,-0.4688 0.171875,-0.6563 0.083332,-0.1979 0.1874982,-0.3854 0.3125,-0.5625 0.1354146,-0.1875 0.3072895,-0.3906 0.5156255,-0.6094 l 3.5,-3.75 c 0.69791,-0.7291 1.260409,-1.3906 1.6875,-1.9843 0.427075,-0.6042 0.760408,-1.1511 0.999999,-1.6407 0.239575,-0.5 0.401033,-0.9583 0.484375,-1.375 0.09374,-0.4166 0.140616,-0.8125 0.140625,-1.1875 -9e-6,-0.3437 -0.0573,-0.6666 -0.171875,-0.9687 -0.104175,-0.3125 -0.265633,-0.5833 -0.484375,-0.8125 -0.208341,-0.2292 -0.473966,-0.4063 -0.796874,-0.5313 -0.322925,-0.1354 -0.703133,-0.2031 -1.140625,-0.2031 -0.61459,0 -1.161464,0.078 -1.640625,0.2344 -0.468755,0.1562 -0.885421,0.3333 -1.25,0.5312 -0.354171,0.1875 -0.651045,0.3646 -0.890625,0.5313 -0.239586,0.1562 -0.427086,0.2344 -0.5625,0.2344 -0.093753,0 -0.177086,-0.031 -0.2500005,-0.094 -0.062502,-0.062 -0.1145853,-0.1666 -0.15625,-0.3125 -0.041669,-0.1458 -0.078127,-0.3385 -0.109375,-0.5781 -0.020835,-0.25 -0.031252,-0.5521 -0.03125,-0.9063 -1.7e-6,-0.2395 0.00521,-0.4375 0.015625,-0.5937 0.020831,-0.1667 0.046873,-0.3073 0.078125,-0.4219 0.031248,-0.125 0.072915,-0.2291 0.125,-0.3125 0.052081,-0.094 0.1406229,-0.2031 0.265625,-0.3281 0.1354145,-0.125 0.3749975,-0.2813 0.7187505,-0.4688 0.354163,-0.1979 0.786454,-0.3854 1.296875,-0.5625 0.510411,-0.1875 1.072911,-0.3437 1.6875,-0.4687 0.614576,-0.125 1.255201,-0.1875 1.921875,-0.1875 1.052074,0 1.96874,0.1354 2.749999,0.4062 0.791656,0.2605 1.447905,0.6303 1.96875,1.1094 0.520821,0.4688 0.906237,1.0313 1.15625,1.6875 0.260403,0.6459 0.390611,1.3438 0.390625,2.0938 -1.4e-5,0.6562 -0.06251,1.3021 -0.1875,1.9375 -0.125013,0.6354 -0.38543,1.3229 -0.78125,2.0625 -0.395846,0.7291 -0.953137,1.5416 -1.671875,2.4375 -0.71876,0.8854 -1.671884,1.9166 -2.859375,3.0937 l -2.359374,2.4219 7.968749,0 c 0.104153,0 0.197903,0.031 0.28125,0.094 0.09374,0.062 0.171861,0.1615 0.234375,0.2969 0.06249,0.125 0.109361,0.2969 0.140625,0.5156 0.03124,0.2084 0.04686,0.4584 0.04687,0.75"
         style=""
         id="path3982" />
      <path
         d="m 38.898437,1027.0206 c -1.4e-5,0.3021 -0.01043,0.5678 -0.03125,0.7969 -0.02085,0.2188 -0.0521,0.4271 -0.09375,0.625 -0.03126,0.1875 -0.07814,0.3698 -0.140625,0.5469 -0.06251,0.1667 -0.135431,0.349 -0.21875,0.5469 l -6.65625,15.4218 c -0.06251,0.1354 -0.14584,0.2448 -0.25,0.3282 -0.09376,0.083 -0.229173,0.151 -0.40625,0.2031 -0.17709,0.042 -0.406256,0.068 -0.6875,0.078 -0.270839,0.021 -0.60938,0.031 -1.015625,0.031 -0.552088,0 -0.989587,-0.021 -1.3125,-0.062 -0.32292,-0.031 -0.562503,-0.083 -0.71875,-0.1563 -0.145836,-0.083 -0.223961,-0.1823 -0.234375,-0.2969 -0.01042,-0.125 0.02604,-0.276 0.109375,-0.4531 l 7.15625,-15.7812 -8.5,0 c -0.218751,0 -0.385418,-0.1407 -0.5,-0.4219 -0.104167,-0.2917 -0.156251,-0.75 -0.15625,-1.375 -1e-6,-0.3125 0.01562,-0.5781 0.04687,-0.7969 0.03125,-0.2291 0.07292,-0.4166 0.125,-0.5625 0.0625,-0.1458 0.130207,-0.25 0.203125,-0.3125 0.08333,-0.062 0.177082,-0.094 0.28125,-0.094 l 12.015625,0 c 0.187486,0 0.343736,0.021 0.46875,0.062 0.124986,0.031 0.223944,0.1093 0.296875,0.2343 0.0729,0.125 0.124986,0.3021 0.15625,0.5313 0.04165,0.2292 0.06249,0.5312 0.0625,0.9062"
         style=""
         id="path3984" />
    </g>
    <path
       sodipodi:nodetypes="cccc"
       id="path3850"
       d="m 43,1030.1122 c -0.510632,5.334 -1.353638,10.5018 -3.75,14.8929 -5.083333,2.4296 -10.166667,3.0023 -15.25,4.1071 7.462518,-4.6909 14.146515,-10.5142 19,-19 z"
       style="fill:url(#linearGradient3935);fill-opacity:1;stroke:none" />
    <path
       style="fill:#640000;fill-opacity:1;stroke:none"
       d="m 13.5,1006.2818 1,0 c 0.831,0 1.5,0.669 1.5,1.5 l 0,6 c 0,0.831 -0.669,1.5 -1.5,1.5 l -1,0 c -0.831,0 -1.5,-0.669 -1.5,-1.5 l 0,-6 c 0,-0.831 0.669,-1.5 1.5,-1.5 z"
       id="rect3886" />
    <path
       style="fill:url(#radialGradient3931);fill-opacity:1;stroke:none"
       d="m 13.5,1005.6122 1,0 c 0.831,0 1.5,0.669 1.5,1.5 l 0,6 c 0,0.831 -0.669,1.5 -1.5,1.5 l -1,0 c -0.831,0 -1.5,-0.669 -1.5,-1.5 l 0,-6 c 0,-0.831 0.669,-1.5 1.5,-1.5 z"
       id="rect3664" />
    <path
       style="fill:#640000;fill-opacity:1;stroke:none"
       d="m 33.5,1006.2818 1,0 c 0.831,0 1.5,0.669 1.5,1.5 l 0,6 c 0,0.831 -0.669,1.5 -1.5,1.5 l -1,0 c -0.831,0 -1.5,-0.669 -1.5,-1.5 l 0,-6 c 0,-0.831 0.669,-1.5 1.5,-1.5 z"
       id="rect3890" />
    <path
       style="fill:url(#radialGradient3927);fill-opacity:1;stroke:none"
       d="m 33.5,1005.6122 1,0 c 0.831,0 1.5,0.669 1.5,1.5 l 0,6 c 0,0.831 -0.669,1.5 -1.5,1.5 l -1,0 c -0.831,0 -1.5,-0.669 -1.5,-1.5 l 0,-6 c 0,-0.831 0.669,-1.5 1.5,-1.5 z"
       id="rect3817" />
    <g
       style="font-size:6px;font-style:normal;font-variant:normal;font-weight:bold;font-stretch:normal;fill:#f0f0f0;fill-opacity:1;stroke:#640000;stroke-width:0.10000000000000001;stroke-miterlimit:4;stroke-opacity:1;font-family:Calibri;-inkscape-font-specification:'A.C.M.E. Secret Agent Bold'"
       id="text3882">
      <path
         d="m 12.758789,1020.2742 c -3e-6,0.045 -0.0078,0.085 -0.02344,0.1201 -0.01563,0.035 -0.03711,0.064 -0.06445,0.088 -0.02539,0.023 -0.05664,0.041 -0.09375,0.053 -0.03516,0.01 -0.07129,0.015 -0.108398,0.015 l -0.328125,0 c -0.06836,0 -0.127932,-0.01 -0.178711,-0.021 -0.04883,-0.014 -0.09473,-0.038 -0.137695,-0.073 -0.04102,-0.037 -0.08106,-0.086 -0.120117,-0.1465 -0.03907,-0.062 -0.08301,-0.1426 -0.131836,-0.2402 l -0.94336,-1.7725 c -0.05469,-0.1054 -0.110353,-0.2187 -0.166992,-0.3398 -0.05664,-0.1231 -0.107423,-0.2422 -0.152344,-0.3574 l -0.0059,0 c 0.0078,0.1406 0.01367,0.2812 0.01758,0.4218 0.0039,0.1387 0.0059,0.2823 0.0059,0.4307 l 0,1.9834 c -10e-7,0.019 -0.0059,0.037 -0.01758,0.053 -0.0098,0.016 -0.02832,0.029 -0.05566,0.041 -0.02539,0.01 -0.06055,0.018 -0.105468,0.023 -0.04492,0.01 -0.10254,0.01 -0.1728521,0.01 -0.06836,0 -0.1250006,-0 -0.1699218,-0.01 -0.044923,-0.01 -0.080079,-0.014 -0.1054688,-0.023 -0.025391,-0.012 -0.042969,-0.025 -0.052734,-0.041 -0.00977,-0.016 -0.014649,-0.033 -0.014648,-0.053 l 0,-3.4072 c -4e-7,-0.092 0.026367,-0.1602 0.079102,-0.2051 0.054687,-0.047 0.1210931,-0.07 0.1992187,-0.07 l 0.4130862,0 c 0.07422,0 0.136717,0.01 0.1875,0.02 0.05078,0.012 0.0957,0.032 0.134765,0.062 0.04102,0.029 0.0791,0.07 0.114258,0.1231 0.03515,0.051 0.07129,0.1142 0.108399,0.1904 l 0.738281,1.3857 c 0.04297,0.084 0.08496,0.167 0.125976,0.2491 0.04297,0.08 0.08398,0.1611 0.123047,0.2431 0.03906,0.08 0.07715,0.1592 0.114258,0.2373 0.03711,0.078 0.07324,0.1563 0.108399,0.2344 l 0.0029,0 c -0.0059,-0.1367 -0.01075,-0.2793 -0.01465,-0.4277 -0.002,-0.1485 -0.0029,-0.2901 -0.0029,-0.4248 l 0,-1.7784 c -3e-6,-0.019 0.0059,-0.037 0.01758,-0.053 0.01172,-0.016 0.03125,-0.029 0.05859,-0.041 0.02734,-0.012 0.06347,-0.019 0.108398,-0.023 0.04492,-0.01 0.102536,-0.01 0.172852,-0.01 0.0664,0 0.122067,0 0.166992,0.01 0.04492,0 0.0791,0.012 0.102539,0.023 0.02539,0.012 0.04296,0.025 0.05274,0.041 0.0098,0.016 0.01464,0.033 0.01465,0.053 l 0,3.4073"
         style="stroke:#640000;stroke-opacity:1"
         id="path3987" />
      <path
         d="m 16.992187,1018.6042 c -3e-6,0.3145 -0.03907,0.5958 -0.117187,0.8438 -0.07813,0.248 -0.194339,0.459 -0.348633,0.6328 -0.1543,0.1719 -0.345706,0.3037 -0.574219,0.3955 -0.226565,0.09 -0.48926,0.1348 -0.788085,0.1348 -0.294924,0 -0.552736,-0.038 -0.773438,-0.1143 -0.218751,-0.078 -0.401368,-0.1963 -0.547852,-0.3545 -0.146484,-0.1582 -0.256836,-0.3593 -0.331054,-0.6035 -0.07227,-0.2441 -0.108399,-0.5332 -0.108399,-0.8672 0,-0.3066 0.03906,-0.582 0.117188,-0.8261 0.07812,-0.2461 0.194335,-0.4551 0.348633,-0.627 0.154296,-0.1719 0.344725,-0.3037 0.571289,-0.3955 0.228514,-0.092 0.493162,-0.1377 0.793945,-0.1377 0.287107,0 0.540036,0.038 0.758789,0.1143 0.2207,0.076 0.404294,0.1933 0.550781,0.3515 0.148434,0.1582 0.259762,0.3584 0.333985,0.6006 0.07617,0.2402 0.114254,0.5244 0.114257,0.8525 m -0.808593,0.041 c -3e-6,-0.1993 -0.01563,-0.3799 -0.04687,-0.542 -0.03125,-0.1641 -0.08496,-0.3037 -0.161133,-0.419 -0.07422,-0.1172 -0.173831,-0.207 -0.298828,-0.2695 -0.125003,-0.065 -0.281252,-0.097 -0.46875,-0.097 -0.189455,0 -0.347658,0.036 -0.47461,0.1084 -0.126954,0.07 -0.229493,0.1651 -0.307617,0.2842 -0.07813,0.1191 -0.13379,0.2588 -0.166992,0.4189 -0.03125,0.1582 -0.04688,0.3262 -0.04687,0.5039 -1e-6,0.2071 0.01562,0.3936 0.04687,0.5596 0.03125,0.1641 0.08398,0.3047 0.158203,0.4219 0.07422,0.1172 0.173827,0.207 0.298828,0.2695 0.124999,0.061 0.282225,0.091 0.47168,0.091 0.189451,0 0.347654,-0.035 0.474609,-0.1054 0.126951,-0.07 0.22949,-0.166 0.307618,-0.2871 0.07812,-0.1211 0.132809,-0.2618 0.164062,-0.4219 0.0332,-0.1621 0.0498,-0.334 0.0498,-0.5156"
         style="stroke:#640000;stroke-opacity:1"
         id="path3989" />
      <path
         d="m 19.417969,1020.4089 c -0.0098,0.033 -0.02246,0.061 -0.03809,0.082 -0.01563,0.019 -0.04102,0.035 -0.07617,0.047 -0.03516,0.01 -0.08301,0.016 -0.143555,0.018 -0.06055,0 -0.13965,0.01 -0.237304,0.01 -0.07813,0 -0.14551,-10e-4 -0.202149,-0 -0.05469,0 -0.101564,-0 -0.140625,-0.01 -0.03906,-0 -0.07129,-0.01 -0.09668,-0.018 -0.02344,-0.01 -0.04395,-0.018 -0.06152,-0.029 -0.01563,-0.012 -0.02832,-0.025 -0.03809,-0.041 -0.0078,-0.018 -0.01563,-0.039 -0.02344,-0.065 l -1.12793,-3.3603 c -0.02344,-0.07 -0.03809,-0.126 -0.04395,-0.167 -0.0039,-0.041 0.0059,-0.071 0.0293,-0.091 0.02539,-0.022 0.06738,-0.034 0.125977,-0.038 0.05859,-0.01 0.140625,-0.01 0.246094,-0.01 0.08984,0 0.160155,0 0.210937,0.01 0.05078,0 0.08984,0.011 0.117188,0.02 0.02734,0.01 0.0459,0.024 0.05566,0.044 0.01172,0.02 0.02246,0.044 0.03223,0.073 l 0.922852,2.9238 0.0029,0 0.905273,-2.9092 c 0.0078,-0.033 0.01758,-0.06 0.0293,-0.079 0.01172,-0.022 0.03125,-0.038 0.05859,-0.05 0.02929,-0.012 0.07031,-0.019 0.123047,-0.023 0.05273,-0 0.124997,-0.01 0.216796,-0.01 0.08984,0 0.159177,0 0.208008,0.01 0.05078,0.01 0.08496,0.02 0.102539,0.044 0.01953,0.022 0.02539,0.053 0.01758,0.094 -0.0059,0.041 -0.02051,0.096 -0.04395,0.1641 l -1.130859,3.3632"
         style="stroke:#640000;stroke-opacity:1"
         id="path3991" />
      <path
         d="m 23.329102,1020.2419 c -3e-6,0.057 -0.0029,0.1045 -0.0088,0.1436 -0.0039,0.037 -0.01074,0.067 -0.02051,0.091 -0.0098,0.024 -0.02246,0.041 -0.03809,0.053 -0.01367,0.01 -0.0293,0.015 -0.04687,0.015 l -1.904297,0 c -0.06445,0 -0.119141,-0.019 -0.164063,-0.056 -0.04297,-0.039 -0.06445,-0.1015 -0.06445,-0.1875 l 0,-3.3047 c 0,-0.086 0.02148,-0.1474 0.06445,-0.1845 0.04492,-0.039 0.09961,-0.059 0.164063,-0.059 l 1.892578,0 c 0.01758,0 0.0332,0 0.04687,0.015 0.01367,0.01 0.02539,0.027 0.03516,0.053 0.0098,0.023 0.0166,0.055 0.02051,0.094 0.0059,0.037 0.0088,0.085 0.0088,0.1436 -3e-6,0.055 -0.0029,0.1015 -0.0088,0.1406 -0.0039,0.037 -0.01075,0.067 -0.02051,0.091 -0.0098,0.024 -0.02149,0.041 -0.03516,0.053 -0.01367,0.01 -0.0293,0.015 -0.04687,0.015 l -1.353516,0 0,0.9258 1.145508,0 c 0.01758,0 0.0332,0.01 0.04687,0.018 0.01562,0.01 0.02832,0.026 0.03809,0.05 0.0098,0.022 0.0166,0.052 0.02051,0.091 0.0059,0.037 0.0088,0.083 0.0088,0.1377 -2e-6,0.057 -0.0029,0.1035 -0.0088,0.1406 -0.0039,0.037 -0.01075,0.067 -0.02051,0.091 -0.0098,0.021 -0.02246,0.037 -0.03809,0.047 -0.01367,0.01 -0.0293,0.015 -0.04687,0.015 l -1.145508,0 0,1.0694 1.365235,0 c 0.01758,0 0.0332,0.01 0.04687,0.018 0.01562,0.01 0.02832,0.026 0.03809,0.05 0.0098,0.023 0.0166,0.055 0.02051,0.094 0.0059,0.037 0.0088,0.084 0.0088,0.1406"
         style="stroke:#640000;stroke-opacity:1"
         id="path3993" />
      <path
         d="m 28.429687,1020.4382 c -4e-6,0.02 -0.0059,0.037 -0.01758,0.053 -0.0098,0.016 -0.0293,0.028 -0.05859,0.038 -0.02735,0.01 -0.06446,0.018 -0.111329,0.023 -0.04688,0.01 -0.106449,0.01 -0.17871,0.01 -0.07032,0 -0.128911,-0 -0.175782,-0.01 -0.04688,-0.01 -0.08399,-0.014 -0.111328,-0.023 -0.02735,-0.01 -0.04688,-0.022 -0.05859,-0.038 -0.01172,-0.016 -0.01758,-0.033 -0.01758,-0.053 l 0,-3.0849 -0.0059,0 -1.098633,3.082 c -0.0078,0.025 -0.02051,0.047 -0.03809,0.065 -0.01758,0.016 -0.042,0.028 -0.07324,0.038 -0.0293,0.01 -0.06739,0.016 -0.114258,0.018 -0.04688,0 -0.103518,0.01 -0.169922,0.01 -0.06641,0 -0.123049,-0 -0.169922,-0.01 -0.04688,-0 -0.08594,-0.011 -0.117187,-0.02 -0.0293,-0.012 -0.05274,-0.025 -0.07031,-0.041 -0.01758,-0.016 -0.0293,-0.034 -0.03516,-0.056 l -1.060547,-3.082 -0.0059,0 0,3.0849 c -1e-6,0.02 -0.0059,0.037 -0.01758,0.053 -0.0098,0.016 -0.0293,0.028 -0.05859,0.038 -0.0293,0.01 -0.06738,0.018 -0.114258,0.023 -0.04492,0.01 -0.103516,0.01 -0.175781,0.01 -0.07031,0 -0.128907,-0 -0.175781,-0.01 -0.04688,-0.01 -0.08496,-0.014 -0.114258,-0.023 -0.02734,-0.01 -0.04688,-0.022 -0.05859,-0.038 -0.0098,-0.016 -0.01465,-0.033 -0.01465,-0.053 l 0,-3.3779 c -1e-6,-0.1 0.02637,-0.1758 0.0791,-0.2285 0.05273,-0.053 0.123047,-0.079 0.210938,-0.079 l 0.503906,0 c 0.08984,0 0.166991,0.01 0.231445,0.023 0.06445,0.014 0.120116,0.038 0.166993,0.073 0.04687,0.033 0.08594,0.078 0.117187,0.1347 0.03125,0.055 0.05859,0.1231 0.08203,0.2051 l 0.820313,2.2588 0.01172,0 0.849609,-2.2529 c 0.02539,-0.082 0.05273,-0.1514 0.08203,-0.208 0.03125,-0.057 0.0664,-0.1026 0.105469,-0.1377 0.04101,-0.035 0.08886,-0.06 0.143555,-0.073 0.05468,-0.016 0.11816,-0.023 0.190429,-0.023 l 0.518555,0 c 0.05273,0 0.09765,0.01 0.134766,0.02 0.03906,0.014 0.07031,0.034 0.09375,0.062 0.02538,0.025 0.04394,0.058 0.05566,0.097 0.01367,0.037 0.0205,0.08 0.02051,0.1289 l 0,3.3779"
         style="stroke:#640000;stroke-opacity:1"
         id="path3995" />
      <path
         d="m 32.006836,1019.407 c -3e-6,0.1347 -0.01856,0.2568 -0.05566,0.3662 -0.03711,0.1094 -0.08887,0.206 -0.155274,0.29 -0.06446,0.084 -0.14258,0.1563 -0.234375,0.2168 -0.08985,0.061 -0.189455,0.1104 -0.298828,0.1494 -0.109377,0.039 -0.226564,0.068 -0.351562,0.088 -0.123049,0.018 -0.260744,0.026 -0.413086,0.026 l -1.007813,0 c -0.06445,0 -0.119141,-0.019 -0.164062,-0.056 -0.04297,-0.039 -0.06445,-0.1015 -0.06445,-0.1875 l 0,-3.3047 c -1e-6,-0.086 0.02148,-0.1474 0.06445,-0.1845 0.04492,-0.039 0.09961,-0.059 0.164062,-0.059 l 0.952149,0 c 0.23242,0 0.428709,0.019 0.588867,0.059 0.162107,0.039 0.297849,0.099 0.407227,0.1787 0.111325,0.078 0.196286,0.1777 0.254882,0.2988 0.05859,0.1211 0.08789,0.2637 0.08789,0.4278 -3e-6,0.092 -0.01172,0.1787 -0.03516,0.2607 -0.02344,0.08 -0.05762,0.1533 -0.102539,0.2197 -0.04492,0.066 -0.100589,0.125 -0.166993,0.1758 -0.06446,0.051 -0.138674,0.092 -0.222656,0.123 0.10742,0.02 0.206052,0.054 0.295899,0.1026 0.09179,0.049 0.170895,0.1123 0.237304,0.1904 0.06836,0.076 0.122068,0.166 0.161133,0.2695 0.03906,0.1036 0.05859,0.2198 0.05859,0.3487 m -0.996094,-1.5967 c -2e-6,-0.076 -0.01172,-0.1445 -0.03516,-0.2051 -0.02344,-0.06 -0.0586,-0.1103 -0.105469,-0.1494 -0.04688,-0.041 -0.106447,-0.072 -0.178711,-0.094 -0.07031,-0.022 -0.16504,-0.032 -0.284179,-0.032 l -0.389649,0 0,0.9844 0.430664,0 c 0.111327,0 0.200194,-0.013 0.266602,-0.038 0.0664,-0.027 0.121092,-0.064 0.164062,-0.1084 0.04492,-0.047 0.07812,-0.1006 0.09961,-0.1611 0.02148,-0.062 0.03222,-0.1279 0.03223,-0.1963 m 0.196289,1.623 c -2e-6,-0.088 -0.01465,-0.166 -0.04395,-0.2343 -0.0293,-0.07 -0.07227,-0.1289 -0.128906,-0.1758 -0.05664,-0.047 -0.128909,-0.083 -0.216797,-0.1084 -0.08789,-0.025 -0.20215,-0.038 -0.342774,-0.038 l -0.457031,0 0,1.0781 0.556641,0 c 0.10742,0 0.197263,-0.011 0.269531,-0.032 0.07422,-0.023 0.137693,-0.057 0.19043,-0.1 0.05468,-0.045 0.09668,-0.1 0.125976,-0.1641 0.03125,-0.066 0.04687,-0.1416 0.04687,-0.2256"
         style="stroke:#640000;stroke-opacity:1"
         id="path3997" />
      <path
         d="m 34.87207,1020.2419 c -2e-6,0.057 -0.0029,0.1045 -0.0088,0.1436 -0.0039,0.037 -0.01075,0.067 -0.02051,0.091 -0.0098,0.024 -0.02246,0.041 -0.03809,0.053 -0.01367,0.01 -0.0293,0.015 -0.04687,0.015 l -1.904296,0 c -0.06445,0 -0.119142,-0.019 -0.164063,-0.056 -0.04297,-0.039 -0.06445,-0.1015 -0.06445,-0.1875 l 0,-3.3047 c 0,-0.086 0.02148,-0.1474 0.06445,-0.1845 0.04492,-0.039 0.09961,-0.059 0.164063,-0.059 l 1.892578,0 c 0.01758,0 0.0332,0 0.04687,0.015 0.01367,0.01 0.02539,0.027 0.03516,0.053 0.0098,0.023 0.0166,0.055 0.02051,0.094 0.0059,0.037 0.0088,0.085 0.0088,0.1436 -3e-6,0.055 -0.0029,0.1015 -0.0088,0.1406 -0.0039,0.037 -0.01075,0.067 -0.02051,0.091 -0.0098,0.024 -0.02149,0.041 -0.03516,0.053 -0.01367,0.01 -0.0293,0.015 -0.04687,0.015 l -1.353516,0 0,0.9258 1.145508,0 c 0.01758,0 0.0332,0.01 0.04687,0.018 0.01562,0.01 0.02832,0.026 0.03809,0.05 0.0098,0.022 0.0166,0.052 0.02051,0.091 0.0059,0.037 0.0088,0.083 0.0088,0.1377 -3e-6,0.057 -0.0029,0.1035 -0.0088,0.1406 -0.0039,0.037 -0.01075,0.067 -0.02051,0.091 -0.0098,0.021 -0.02246,0.037 -0.03809,0.047 -0.01367,0.01 -0.0293,0.015 -0.04687,0.015 l -1.145508,0 0,1.0694 1.365234,0 c 0.01758,0 0.0332,0.01 0.04687,0.018 0.01562,0.01 0.02832,0.026 0.03809,0.05 0.0098,0.023 0.0166,0.055 0.02051,0.094 0.0059,0.037 0.0088,0.084 0.0088,0.1406"
         style="stroke:#640000;stroke-opacity:1"
         id="path3999" />
      <path
         d="m 38.367187,1020.4441 c -3e-6,0.021 -0.0039,0.04 -0.01172,0.056 -0.0078,0.014 -0.02637,0.025 -0.05566,0.035 -0.0293,0.01 -0.07227,0.017 -0.128907,0.02 -0.05664,0 -0.133792,0.01 -0.231445,0.01 -0.08203,0 -0.147463,-0 -0.196289,-0.01 -0.04883,-0 -0.08789,-0.011 -0.117187,-0.02 -0.02735,-0.012 -0.04688,-0.025 -0.05859,-0.041 -0.01172,-0.018 -0.02149,-0.038 -0.0293,-0.062 l -0.339844,-0.8467 c -0.04102,-0.096 -0.08106,-0.1807 -0.120117,-0.2549 -0.03906,-0.074 -0.08301,-0.1357 -0.131836,-0.1846 -0.04688,-0.051 -0.101564,-0.089 -0.164062,-0.1142 -0.0625,-0.025 -0.134768,-0.038 -0.216797,-0.038 l -0.240235,0 0,1.4443 c -10e-7,0.02 -0.0068,0.037 -0.02051,0.053 -0.01172,0.016 -0.03223,0.028 -0.06152,0.038 -0.0293,0.01 -0.06836,0.018 -0.117187,0.023 -0.04883,0.01 -0.111329,0.01 -0.1875,0.01 -0.07422,0 -0.13672,-0 -0.1875,-0.01 -0.04883,-0.01 -0.08789,-0.014 -0.117188,-0.023 -0.0293,-0.01 -0.0498,-0.022 -0.06152,-0.038 -0.01172,-0.016 -0.01758,-0.033 -0.01758,-0.053 l 0,-3.4424 c 0,-0.086 0.02148,-0.1474 0.06445,-0.1845 0.04492,-0.039 0.09961,-0.059 0.164062,-0.059 l 0.981445,0 c 0.09961,0 0.181639,0 0.246094,0.01 0.06445,0 0.123045,0.01 0.175781,0.015 0.152342,0.022 0.289061,0.059 0.410157,0.1113 0.123044,0.053 0.22656,0.1221 0.310547,0.208 0.08593,0.084 0.151364,0.1846 0.196289,0.3018 0.04492,0.1152 0.06738,0.248 0.06738,0.3984 -3e-6,0.127 -0.0166,0.2432 -0.0498,0.3487 -0.03125,0.1035 -0.07813,0.1962 -0.140625,0.2783 -0.0625,0.082 -0.139651,0.1533 -0.231446,0.2138 -0.0918,0.061 -0.196291,0.1094 -0.313476,0.1465 0.05664,0.027 0.109372,0.061 0.158203,0.1 0.05078,0.039 0.09765,0.087 0.140625,0.1436 0.04492,0.055 0.08691,0.1182 0.125977,0.1904 0.03906,0.07 0.07715,0.1504 0.114257,0.2403 l 0.319336,0.747 c 0.02929,0.074 0.04883,0.1289 0.05859,0.1641 0.0098,0.033 0.01465,0.06 0.01465,0.079 m -0.993164,-2.5723 c -2e-6,-0.125 -0.02832,-0.2304 -0.08496,-0.3164 -0.05664,-0.086 -0.149416,-0.1465 -0.27832,-0.1816 -0.03906,-0.01 -0.08399,-0.018 -0.134765,-0.024 -0.04883,-0.01 -0.11719,-0.01 -0.205079,-0.01 l -0.345703,0 0,1.0751 0.392578,0 c 0.109374,10e-5 0.205077,-0.013 0.28711,-0.038 0.08203,-0.027 0.150388,-0.064 0.205078,-0.1114 0.05468,-0.049 0.0957,-0.1064 0.123047,-0.1728 0.02734,-0.066 0.04101,-0.1406 0.04102,-0.2227"
         style="stroke:#640000;stroke-opacity:1"
         id="path4001" />
    </g>
  </g>
</svg>
