<?xml version="1.0" encoding="UTF-8"?>
<svg width="20px" height="19px" viewBox="0 0 20 19" version="1.1" xmlns="http://www.w3.org/2000/svg" xmlns:xlink="http://www.w3.org/1999/xlink">
    <!-- Generator: Sketch 57.1 (83088) - https://sketch.com -->
    <title></title>
    <desc>Created with Sketch.</desc>
    <g id="Page-1" stroke="none" stroke-width="1" fill="none" fill-rule="evenodd">
        <g id="Alt-1" transform="translate(-975.000000, -1107.000000)" fill="#000000" fill-rule="nonzero">
            <path d="M981.177083,1116.33333 C980.052078,1116.36806 979.131948,1116.8125 978.416667,1117.66667 L977.020833,1117.66667 C976.451386,1117.66667 975.972224,1117.52604 975.583333,1117.24479 C975.194442,1116.96354 975,1116.55209 975,1116.01042 C975,1113.55902 975.430551,1112.33333 976.291667,1112.33333 C976.333334,1112.33333 976.484374,1112.40625 976.744792,1112.55208 C977.00521,1112.69792 977.343748,1112.84549 977.760417,1112.99479 C978.177085,1113.1441 978.590276,1113.21875 979,1113.21875 C979.46528,1113.21875 979.927081,1113.13889 980.385417,1112.97917 C980.350694,1113.23611 980.333333,1113.46528 980.333333,1113.66667 C980.333333,1114.63195 980.614581,1115.52083 981.177083,1116.33333 Z M992.333333,1122.96875 C992.333333,1123.80209 992.079864,1124.46007 991.572917,1124.94271 C991.06597,1125.42535 990.392365,1125.66667 989.552083,1125.66667 L980.447917,1125.66667 C979.607635,1125.66667 978.93403,1125.42535 978.427083,1124.94271 C977.920136,1124.46007 977.666667,1123.80209 977.666667,1122.96875 C977.666667,1122.60069 977.678819,1122.24132 977.703125,1121.89063 C977.727431,1121.53993 977.776041,1121.16146 977.848958,1120.75521 C977.921875,1120.34896 978.013888,1119.97222 978.125,1119.625 C978.236112,1119.27778 978.385416,1118.93924 978.572917,1118.60938 C978.760418,1118.27951 978.975693,1117.99827 979.21875,1117.76562 C979.461807,1117.53298 979.758679,1117.34722 980.109375,1117.20833 C980.460071,1117.06944 980.84722,1117 981.270833,1117 C981.340278,1117 981.489582,1117.07465 981.71875,1117.22396 C981.947918,1117.37326 982.201388,1117.53993 982.479167,1117.72396 C982.756946,1117.90799 983.12847,1118.07465 983.59375,1118.22396 C984.05903,1118.37326 984.527775,1118.44792 985,1118.44792 C985.472225,1118.44792 985.94097,1118.37326 986.40625,1118.22396 C986.87153,1118.07465 987.243054,1117.90799 987.520833,1117.72396 C987.798613,1117.53993 988.052082,1117.37326 988.28125,1117.22396 C988.510418,1117.07465 988.659722,1117 988.729167,1117 C989.15278,1117 989.539929,1117.06944 989.890625,1117.20833 C990.241321,1117.34722 990.538193,1117.53298 990.78125,1117.76562 C991.024307,1117.99827 991.239582,1118.27951 991.427083,1118.60938 C991.614584,1118.93924 991.763888,1119.27778 991.875,1119.625 C991.986112,1119.97222 992.078125,1120.34896 992.151042,1120.75521 C992.223959,1121.16146 992.272569,1121.53993 992.296875,1121.89063 C992.321181,1122.24132 992.333333,1122.60069 992.333333,1122.96875 Z M980.885417,1107.78125 C981.406253,1108.30209 981.666667,1108.93055 981.666667,1109.66667 C981.666667,1110.40278 981.406253,1111.03125 980.885417,1111.55208 C980.364581,1112.07292 979.736115,1112.33333 979,1112.33333 C978.263885,1112.33333 977.635419,1112.07292 977.114583,1111.55208 C976.593747,1111.03125 976.333333,1110.40278 976.333333,1109.66667 C976.333333,1108.93055 976.593747,1108.30209 977.114583,1107.78125 C977.635419,1107.26041 978.263885,1107 979,1107 C979.736115,1107 980.364581,1107.26041 980.885417,1107.78125 Z M987.822917,1110.84375 C988.607643,1111.62153 989,1112.56249 989,1113.66667 C989,1114.77084 988.609379,1115.71354 987.828125,1116.49479 C987.046871,1117.27605 986.104172,1117.66667 985,1117.66667 C983.895828,1117.66667 982.953129,1117.27605 982.171875,1116.49479 C981.390621,1115.71354 981,1114.77084 981,1113.66667 C981,1112.56249 981.390621,1111.6198 982.171875,1110.83854 C982.953129,1110.05729 983.895828,1109.66667 985,1109.66667 C986.104172,1109.66667 987.045135,1110.05902 987.822917,1110.84375 Z M995,1116.01042 C995,1116.55209 994.805558,1116.96354 994.416667,1117.24479 C994.027776,1117.52604 993.548614,1117.66667 992.979167,1117.66667 L991.583333,1117.66667 C990.868052,1116.8125 989.947922,1116.36806 988.822917,1116.33333 C989.385419,1115.52083 989.666667,1114.63195 989.666667,1113.66667 C989.666667,1113.46528 989.649306,1113.23611 989.614583,1112.97917 C990.072919,1113.13889 990.53472,1113.21875 991,1113.21875 C991.409724,1113.21875 991.822917,1113.1441 992.239583,1112.99479 C992.656252,1112.84549 992.99479,1112.69792 993.255208,1112.55208 C993.515626,1112.40625 993.666666,1112.33333 993.708333,1112.33333 C994.569449,1112.33333 995,1113.55902 995,1116.01042 Z M992.885417,1107.78125 C993.406253,1108.30209 993.666667,1108.93055 993.666667,1109.66667 C993.666667,1110.40278 993.406253,1111.03125 992.885417,1111.55208 C992.364581,1112.07292 991.736115,1112.33333 991,1112.33333 C990.263885,1112.33333 989.635419,1112.07292 989.114583,1111.55208 C988.593747,1111.03125 988.333333,1110.40278 988.333333,1109.66667 C988.333333,1108.93055 988.593747,1108.30209 989.114583,1107.78125 C989.635419,1107.26041 990.263885,1107 991,1107 C991.736115,1107 992.364581,1107.26041 992.885417,1107.78125 Z" id=""></path>
        </g>
    </g>
</svg>