<?xml version="1.0" encoding="UTF-8" standalone="no"?>
<!-- Created with Inkscape (http://www.inkscape.org/) -->

<svg
   xmlns:dc="http://purl.org/dc/elements/1.1/"
   xmlns:cc="http://creativecommons.org/ns#"
   xmlns:rdf="http://www.w3.org/1999/02/22-rdf-syntax-ns#"
   xmlns:svg="http://www.w3.org/2000/svg"
   xmlns="http://www.w3.org/2000/svg"
   xmlns:xlink="http://www.w3.org/1999/xlink"
   xmlns:sodipodi="http://sodipodi.sourceforge.net/DTD/sodipodi-0.dtd"
   xmlns:inkscape="http://www.inkscape.org/namespaces/inkscape"
   width="48"
   height="48"
   id="svg2"
   version="1.1"
   inkscape:version="0.47pre4 r22446"
   sodipodi:docname="face-smile.svg">
  <defs
     id="defs4">
    <linearGradient
       id="linearGradient3634">
      <stop
         style="stop-color:#141414;stop-opacity:1;"
         offset="0"
         id="stop3636" />
      <stop
         style="stop-color:#382509;stop-opacity:1;"
         offset="1"
         id="stop3638" />
    </linearGradient>
    <linearGradient
       id="linearGradient3626">
      <stop
         style="stop-color:#dc9509;stop-opacity:1;"
         offset="0"
         id="stop3628" />
      <stop
         style="stop-color:#ffdc64;stop-opacity:1;"
         offset="1"
         id="stop3630" />
    </linearGradient>
    <linearGradient
       id="linearGradient3606">
      <stop
         style="stop-color:#e3b216;stop-opacity:1;"
         offset="0"
         id="stop3608" />
      <stop
         style="stop-color:#dc951d;stop-opacity:1;"
         offset="1"
         id="stop3610" />
    </linearGradient>
    <inkscape:perspective
       sodipodi:type="inkscape:persp3d"
       inkscape:vp_x="0 : 526.18109 : 1"
       inkscape:vp_y="0 : 1000 : 0"
       inkscape:vp_z="744.09448 : 526.18109 : 1"
       inkscape:persp3d-origin="372.04724 : 350.78739 : 1"
       id="perspective10" />
    <inkscape:perspective
       id="perspective2824"
       inkscape:persp3d-origin="0.5 : 0.33333333 : 1"
       inkscape:vp_z="1 : 0.5 : 1"
       inkscape:vp_y="0 : 1000 : 0"
       inkscape:vp_x="0 : 0.5 : 1"
       sodipodi:type="inkscape:persp3d" />
    <linearGradient
       inkscape:collect="always"
       xlink:href="#linearGradient3606"
       id="linearGradient3612"
       x1="26.339285"
       y1="5.1428566"
       x2="26.339285"
       y2="47.107143"
       gradientUnits="userSpaceOnUse" />
    <linearGradient
       inkscape:collect="always"
       xlink:href="#linearGradient3626"
       id="linearGradient3632"
       x1="19.375"
       y1="12.285713"
       x2="19.375"
       y2="22.642857"
       gradientUnits="userSpaceOnUse" />
    <linearGradient
       inkscape:collect="always"
       xlink:href="#linearGradient3634"
       id="linearGradient3640"
       x1="19.375"
       y1="12.285713"
       x2="19.375"
       y2="22.642857"
       gradientUnits="userSpaceOnUse" />
    <linearGradient
       inkscape:collect="always"
       xlink:href="#linearGradient3626"
       id="linearGradient3650"
       gradientUnits="userSpaceOnUse"
       x1="19.375"
       y1="12.285713"
       x2="19.375"
       y2="22.642857" />
    <linearGradient
       inkscape:collect="always"
       xlink:href="#linearGradient3634"
       id="linearGradient3652"
       gradientUnits="userSpaceOnUse"
       x1="19.375"
       y1="12.285713"
       x2="19.375"
       y2="22.642857" />
    <linearGradient
       inkscape:collect="always"
       xlink:href="#linearGradient3606"
       id="linearGradient2847"
       gradientUnits="userSpaceOnUse"
       x1="26.339285"
       y1="5.1428566"
       x2="26.339285"
       y2="47.107143" />
    <linearGradient
       inkscape:collect="always"
       xlink:href="#linearGradient3626"
       id="linearGradient2849"
       gradientUnits="userSpaceOnUse"
       x1="19.375"
       y1="12.285713"
       x2="19.375"
       y2="22.642857" />
    <linearGradient
       inkscape:collect="always"
       xlink:href="#linearGradient3634"
       id="linearGradient2851"
       gradientUnits="userSpaceOnUse"
       x1="19.375"
       y1="12.285713"
       x2="19.375"
       y2="22.642857" />
    <linearGradient
       inkscape:collect="always"
       xlink:href="#linearGradient3626"
       id="linearGradient2853"
       gradientUnits="userSpaceOnUse"
       x1="19.375"
       y1="12.285713"
       x2="19.375"
       y2="22.642857" />
    <linearGradient
       inkscape:collect="always"
       xlink:href="#linearGradient3634"
       id="linearGradient2855"
       gradientUnits="userSpaceOnUse"
       x1="19.375"
       y1="12.285713"
       x2="19.375"
       y2="22.642857" />
  </defs>
  <sodipodi:namedview
     id="base"
     pagecolor="#ffffff"
     bordercolor="#666666"
     borderopacity="1.0"
     inkscape:pageopacity="0.0"
     inkscape:pageshadow="2"
     inkscape:zoom="2.04"
     inkscape:cx="-63.40342"
     inkscape:cy="-22.994577"
     inkscape:document-units="px"
     inkscape:current-layer="layer1"
     showgrid="false"
     inkscape:window-width="1278"
     inkscape:window-height="712"
     inkscape:window-x="0"
     inkscape:window-y="25"
     inkscape:window-maximized="1" />
  <metadata
     id="metadata7">
    <rdf:RDF>
      <cc:Work
         rdf:about="">
        <dc:format>image/svg+xml</dc:format>
        <dc:type
           rdf:resource="http://purl.org/dc/dcmitype/StillImage" />
        <dc:title />
      </cc:Work>
    </rdf:RDF>
  </metadata>
  <g
     inkscape:label="Livello 1"
     inkscape:groupmode="layer"
     id="layer1"
     transform="translate(0,-1004.3622)">
    <g
       id="g2836"
       transform="translate(-1.0000005,0.99997058)">
      <path
         transform="matrix(1.0485106,0,0,1.0485106,-2.6170189,999.96989)"
         d="m 47.321428,26.125 c 0,11.588118 -9.394025,20.982143 -20.982143,20.982143 -11.588118,0 -20.9821435,-9.394025 -20.9821435,-20.982143 0,-11.588118 9.3940255,-20.9821434 20.9821435,-20.9821434 11.588118,0 20.982143,9.3940254 20.982143,20.9821434 z"
         sodipodi:ry="20.982143"
         sodipodi:rx="20.982143"
         sodipodi:cy="26.125"
         sodipodi:cx="26.339285"
         id="path2830"
         style="fill:#c88109;fill-opacity:1;fill-rule:nonzero;stroke:none"
         sodipodi:type="arc" />
      <path
         sodipodi:type="arc"
         style="fill:url(#linearGradient2847);fill-opacity:1;fill-rule:nonzero;stroke:none"
         id="path3604"
         sodipodi:cx="26.339285"
         sodipodi:cy="26.125"
         sodipodi:rx="20.982143"
         sodipodi:ry="20.982143"
         d="m 47.321428,26.125 c 0,11.588118 -9.394025,20.982143 -20.982143,20.982143 -11.588118,0 -20.9821435,-9.394025 -20.9821435,-20.982143 0,-11.588118 9.3940255,-20.9821434 20.9821435,-20.9821434 11.588118,0 20.982143,9.3940254 20.982143,20.9821434 z"
         transform="matrix(0.97361703,0,0,0.97361703,-0.64437564,1001.9265)" />
      <g
         transform="matrix(1.0476191,0,0,1.0476191,-9.2721085,-49.969687)"
         id="g3646">
        <path
           transform="matrix(1.2438299,0,0,1.2438299,4.2579378,1000.1039)"
           d="m 22.321429,17.464285 c 0,2.860046 -1.319161,5.178571 -2.946429,5.178571 -1.627268,0 -2.946429,-2.318525 -2.946429,-5.178571 0,-2.860046 1.319161,-5.178571 2.946429,-5.178571 1.627268,0 2.946429,2.318525 2.946429,5.178571 z"
           sodipodi:ry="5.1785712"
           sodipodi:rx="2.9464285"
           sodipodi:cy="17.464285"
           sodipodi:cx="19.375"
           id="path3642"
           style="fill:url(#linearGradient2849);fill-opacity:1;fill-rule:nonzero;stroke:none"
           sodipodi:type="arc" />
        <path
           sodipodi:type="arc"
           style="fill:url(#linearGradient2851);fill-opacity:1;fill-rule:nonzero;stroke:none"
           id="path3644"
           sodipodi:cx="19.375"
           sodipodi:cy="17.464285"
           sodipodi:rx="2.9464285"
           sodipodi:ry="5.1785712"
           d="m 22.321429,17.464285 c 0,2.860046 -1.319161,5.178571 -2.946429,5.178571 -1.627268,0 -2.946429,-2.318525 -2.946429,-5.178571 0,-2.860046 1.319161,-5.178571 2.946429,-5.178571 1.627268,0 2.946429,2.318525 2.946429,5.178571 z"
           transform="translate(8.9821428,1004.3622)" />
      </g>
      <path
         transform="matrix(1.3030599,0,0,1.3030599,4.3178396,997.75826)"
         d="m 22.321429,17.464285 c 0,2.860046 -1.319161,5.178571 -2.946429,5.178571 -1.627268,0 -2.946429,-2.318525 -2.946429,-5.178571 0,-2.860046 1.319161,-5.178571 2.946429,-5.178571 1.627268,0 2.946429,2.318525 2.946429,5.178571 z"
         sodipodi:ry="5.1785712"
         sodipodi:rx="2.9464285"
         sodipodi:cy="17.464285"
         sodipodi:cx="19.375"
         id="path3624"
         style="fill:url(#linearGradient2853);fill-opacity:1;fill-rule:nonzero;stroke:none"
         sodipodi:type="arc" />
      <path
         sodipodi:type="arc"
         style="fill:url(#linearGradient2855);fill-opacity:1;fill-rule:nonzero;stroke:none"
         id="path3616"
         sodipodi:cx="19.375"
         sodipodi:cy="17.464285"
         sodipodi:rx="2.9464285"
         sodipodi:ry="5.1785712"
         d="m 22.321429,17.464285 c 0,2.860046 -1.319161,5.178571 -2.946429,5.178571 -1.627268,0 -2.946429,-2.318525 -2.946429,-5.178571 0,-2.860046 1.319161,-5.178571 2.946429,-5.178571 1.627268,0 2.946429,2.318525 2.946429,5.178571 z"
         transform="matrix(1.0476191,0,0,1.0476191,9.2670069,1002.2193)" />
      <path
         style="fill:#ffdc64;fill-opacity:1;fill-rule:nonzero;stroke:none"
         d="m 25.000001,1043.2558 c -6.364424,0 -11.52381,-5.1594 -11.52381,-11.5238 0,-0.3094 0.0088,-0.6134 0.03274,-0.9166 0.590134,5.8109 5.524424,7.6217 11.491072,7.6217 5.966647,0 10.868199,-1.8108 11.458334,-7.6217 0.02397,0.3034 0.06548,0.607 0.06548,0.9166 0,6.3644 -5.159386,11.5238 -11.52381,11.5238 z"
         id="path2836"
         sodipodi:nodetypes="cscscsc" />
      <path
         sodipodi:nodetypes="cscscsc"
         id="path3654"
         d="m 25.000001,1041.7056 c -6.364424,0 -11.52381,-5.1594 -11.52381,-11.5238 0,-0.3095 0.0088,-0.6134 0.03274,-0.9167 0.590134,5.8109 5.524424,7.6217 11.491072,7.6217 5.966647,0 10.868199,-1.8108 11.458334,-7.6217 0.02397,0.3034 0.06548,0.607 0.06548,0.9167 0,6.3644 -5.159386,11.5238 -11.52381,11.5238 z"
         style="fill:#382509;fill-opacity:1;fill-rule:nonzero;stroke:none" />
    </g>
  </g>
</svg>
